<svg width="85" height="98" viewBox="0 0 85 98" fill="none" xmlns="http://www.w3.org/2000/svg">
    <path
        d="M71.4042 6.61335C84.1482 14.0477 84.1984 26.1033 71.5547 33.5376C58.911 40.9719 38.3399 40.9719 25.5958 33.5376C12.8518 26.1033 12.8016 14.0477 25.4453 6.61335C38.089 -0.871195 58.6601 -0.871193 71.4042 6.61335Z"
        fill="#7AD1FF" stroke="#151E29" stroke-linejoin="round" />
    <path
        d="M81 71.8774V78.1564C81 82.8782 77.8625 87.6502 71.5369 91.3172C58.987 98.651 38.2898 98.651 25.588 91.3172C19.2119 87.6502 16.0238 82.828 16.0238 78.1062L16.0238 71.777C16.0238 76.6495 19.1613 81.3713 25.588 84.988C38.2898 92.3218 58.8858 92.3218 71.5369 84.988C77.8625 81.3713 81 76.6495 81 71.8774Z"
        fill="#0056B3" stroke="#151E29" stroke-linejoin="round" />
    <path
        d="M71.4041 58.3337C84.1482 65.7681 84.1984 77.8237 71.5547 85.258C58.911 92.6923 38.3398 92.6923 25.5958 85.258C12.8517 77.8237 12.8016 65.7681 25.4453 58.3337C38.089 50.8492 58.6601 50.8492 71.4041 58.3337Z"
        fill="white" stroke="#151E29" stroke-linejoin="round" />
    <path
        d="M81 26.7055V20.4265C81 25.1985 77.8625 29.9203 71.5369 33.537C58.8858 40.8709 38.2898 40.8709 25.588 33.537C19.1613 29.9203 16.0238 25.1985 16.0238 20.326L16.0238 26.6553V72.0559C16.0278 76.925 19.1654 81.6431 25.588 85.2574C38.2898 92.5912 58.8858 92.5912 71.5369 85.2574C77.8625 81.6407 81 76.9189 81 72.1469V26.7055Z"
        fill="#A3E2FF" fill-opacity="0.3" />
    <path
        d="M16.0238 72.0559V26.6553L16.0238 20.326C16.0238 25.1985 19.1613 29.9203 25.588 33.537C38.2898 40.8709 58.8858 40.8709 71.5369 33.537C77.8625 29.9203 81 25.1985 81 20.4265V26.7055V72.1469C81 76.9189 77.8625 81.6407 71.5369 85.2574C58.8858 92.5912 38.2898 92.5912 25.588 85.2574C19.1612 81.6407 16.0238 76.9189 16.0238 72.0464"
        stroke="#151E29" stroke-linejoin="round" />
    <path opacity="0.1" fill-rule="evenodd" clip-rule="evenodd"
        d="M32.8401 62.0372C33.0759 61.4944 32.8263 60.8957 32.091 60.4712C30.9776 59.8284 29.1724 59.8284 28.059 60.4711C26.9456 61.1138 26.9455 62.1559 28.0589 62.7987C28.6892 63.1626 29.5412 63.3206 30.3639 63.2725L34.227 72.3091C33.0364 72.2908 31.8357 72.5439 30.927 73.0684C29.1708 74.0821 29.1708 75.7258 30.9269 76.7397C32.1994 77.4744 34.0449 77.6768 35.633 77.3468L39.3205 83.0802C38.6427 83.5313 38.6753 84.215 39.4181 84.6438C40.195 85.0924 41.4545 85.0924 42.2315 84.6439C43.0084 84.1955 43.0084 83.4683 42.2315 83.0198C41.7036 82.715 40.9529 82.6173 40.2821 82.7267L36.6327 77.0525C36.8631 76.9621 37.0821 76.8579 37.2864 76.74C37.8382 76.4214 38.2166 76.0407 38.4217 75.6368L45.4308 78.5883C45.3366 78.9381 45.5229 79.3083 45.9897 79.5778C46.7666 80.0264 48.0262 80.0264 48.8031 79.5779C49.4257 79.2185 49.5493 78.6802 49.1741 78.2497L53.8047 74.5549C54.4503 74.8106 55.2735 74.8527 55.9776 74.681L58.5638 78.5855C58.2358 78.6947 57.927 78.8303 57.6465 78.9922C55.9221 79.9876 55.922 81.6016 57.6464 82.5972C58.7415 83.2295 60.2689 83.4602 61.6794 83.2894L61.8691 83.5757L61.8943 83.2602C62.6258 83.1493 63.3176 82.9284 63.8909 82.5974C65.6153 81.602 65.6154 79.988 63.891 78.9925C63.4202 78.7206 62.8696 78.523 62.2827 78.3996L62.3848 77.1211L62.4789 77.3171L62.7805 77.9453L63.279 77.4585L68.8888 71.9807C69.5116 72.0966 70.222 72.0118 70.7165 71.7264C71.4199 71.3204 71.4199 70.662 70.7166 70.2559C70.0132 69.8498 68.8728 69.8498 68.1694 70.2558C67.5665 70.6038 67.4803 71.1371 67.9107 71.5381L63.0789 76.2562L62.5636 75.1826L65.201 64.9237C65.9342 64.8948 66.6532 64.7186 67.2137 64.395C68.4449 63.6843 68.445 62.5319 67.2138 61.8211C65.9827 61.1103 63.9865 61.1102 62.7553 61.821C61.7662 62.3919 61.5717 63.2479 62.1718 63.931L54.0098 67.8687C53.8397 67.7022 53.6307 67.5453 53.383 67.4022C52.4079 66.8393 51.0593 66.6233 49.7977 66.7544L47.1964 64.5956C47.5207 64.2602 47.4361 63.8286 46.9424 63.5435C46.3465 63.1995 45.3804 63.1995 44.7845 63.5435C44.1886 63.8874 44.1886 64.4452 44.7845 64.7892C45.157 65.0043 45.6743 65.0849 46.1553 65.0311L48.5439 67.0134C48.2254 67.1161 47.9258 67.2457 47.655 67.402C47.4681 67.5099 47.3033 67.6257 47.1606 67.7475L32.8401 62.0372ZM31.3775 63.0996C31.6279 63.0253 31.8633 62.9283 32.0743 62.8084L46.5522 68.5815C46.4406 68.8944 46.4407 69.218 46.5527 69.5308L36.814 72.831C36.368 72.6364 35.8736 72.4961 35.3577 72.4102L31.3775 63.0996ZM38.576 74.6168C38.5022 74.2318 38.2794 73.8546 37.9079 73.5162L47.1752 70.3758C47.3145 70.493 47.4744 70.6046 47.6549 70.7088C49.2366 71.622 51.8011 71.6221 53.3829 70.709C54.3184 70.169 54.7006 69.4305 54.5296 68.7283L63.1288 64.5796C63.4522 64.7158 63.8103 64.8121 64.1827 64.8684L61.5497 75.1102L61.539 75.1519L61.5356 75.1948L61.2904 78.2635C60.7254 78.2249 60.15 78.2492 59.5982 78.3364L56.9024 74.2664C57.5836 73.7512 57.5163 73.0118 56.7006 72.5409C55.8116 72.0276 54.3701 72.0275 53.481 72.5407C52.8237 72.9201 52.6523 73.4738 52.9668 73.9441L48.2309 77.723C47.5856 77.5509 46.8136 77.5891 46.2246 77.8375L38.576 74.6168Z"
        fill="#006FD6" />
    <circle cx="2.04481" cy="2.04481" r="2.04481"
        transform="matrix(-4.37114e-08 1 1 4.37114e-08 46.2913 63.6305)" stroke="#151E29"
        stroke-width="5" />
    <circle cx="2.04481" cy="2.04481" r="2.04481"
        transform="matrix(-4.37114e-08 1 1 4.37114e-08 46.2913 63.6305)" stroke="white"
        stroke-width="3" />
    <path
        d="M66.0369 72.8464L60.3651 53.7587M66.0369 72.8464L69.4661 62.1628M66.0369 72.8464L47.5656 75.525M60.3651 53.7587L51.4324 56.7242M60.3651 53.7587L64.9462 42.088M51.4324 56.7242L33.9649 70.7356M51.4324 56.7242L46.622 43.1787M51.4324 56.7242L55.0179 47.7598M33.9649 70.7356L28.4758 46.0858V39.3612M33.9649 70.7356L47.5656 75.525M33.9649 70.7356L40.9443 81.4779M33.9649 70.7356L39.096 56.0493M47.5656 75.525L48.0751 68.9086M47.5656 75.525L56.5476 63.5753"
        stroke="#151E29" />
    <circle cx="3.07129" cy="3.07129" r="3.07129"
        transform="matrix(-4.37114e-08 1 1 4.37114e-08 31.0357 67.4673)" fill="#A3E2FF" />
    <path opacity="0.5" fill-rule="evenodd" clip-rule="evenodd"
        d="M37.1781 70.5387C37.1781 72.2349 35.8031 73.61 34.1069 73.61C32.4106 73.61 31.0356 72.2349 31.0356 70.5387C31.0356 70.2924 31.0646 70.0528 31.1193 69.8233C31.4415 71.1747 32.6569 72.1797 34.107 72.1797C35.5569 72.1797 36.7721 71.175 37.0945 69.8238C37.1492 70.0532 37.1781 70.2925 37.1781 70.5387Z"
        fill="#018BFF" />
    <circle cx="3.07129" cy="3.07129" r="3.07129"
        transform="matrix(-4.37114e-08 1 1 4.37114e-08 31.0357 67.4673)" stroke="#151E29" />
    <circle cx="2.77405" cy="2.77405" r="2.77405"
        transform="matrix(0.258819 0.965926 0.965926 -0.258819 61.0806 41.2852)" stroke="#151E29"
        stroke-width="5" />
    <circle cx="2.77405" cy="2.77405" r="2.77405"
        transform="matrix(0.258819 0.965926 0.965926 -0.258819 61.0806 41.2852)" stroke="white"
        stroke-width="3" />
    <circle cx="2.77405" cy="2.77405" r="2.77405"
        transform="matrix(0.258819 0.965926 0.965926 -0.258819 61.0806 41.2852)" fill="#A3E2FF" />
    <path opacity="0.5" fill-rule="evenodd" clip-rule="evenodd"
        d="M67.1688 42.5715C67.5372 44.0378 66.6617 45.5335 65.1962 45.9262C63.7163 46.3227 62.1952 45.4445 61.7987 43.9647C61.6718 43.4911 61.6754 43.0133 61.7875 42.5695C61.7911 42.5838 61.7948 42.5981 61.7987 42.6124C62.1952 44.0922 63.7163 44.9704 65.1962 44.5739C66.2025 44.3043 66.9306 43.5146 67.1688 42.5715Z"
        fill="#018BFF" />
    <circle cx="2.77405" cy="2.77405" r="2.77405"
        transform="matrix(0.258819 0.965926 0.965926 -0.258819 61.0807 41.2852)" stroke="#151E29" />
    <circle cx="3.77319" cy="3.77319" r="3.77319"
        transform="matrix(-4.37114e-08 1 1 4.37114e-08 61.8968 69.0734)" fill="#A3E2FF" />
    <path opacity="0.5" fill-rule="evenodd" clip-rule="evenodd"
        d="M69.3587 72.0497C68.9929 73.7508 67.4803 75.0259 65.6698 75.0259C63.8594 75.0259 62.3468 73.7508 61.981 72.0497C61.9257 72.3066 61.8967 72.5732 61.8967 72.8467C61.8967 74.9305 63.586 76.6198 65.6698 76.6198C67.7537 76.6198 69.443 74.9305 69.443 72.8467C69.443 72.5732 69.414 72.3066 69.3587 72.0497Z"
        fill="#018BFF" />
    <circle cx="3.77319" cy="3.77319" r="3.77319"
        transform="matrix(-4.37114e-08 1 1 4.37114e-08 61.8968 69.0734)" stroke="#151E29" />
    <circle cx="3.31598" cy="3.31598" r="3.31598"
        transform="matrix(-0.5 0.866025 0.866025 0.5 27.0549 37.9338)" stroke="#151E29"
        stroke-width="5" />
    <circle cx="3.31598" cy="3.31598" r="3.31598"
        transform="matrix(-0.5 0.866025 0.866025 0.5 27.0549 37.9338)" stroke="white"
        stroke-width="3" />
    <circle cx="3.31598" cy="3.31598" r="3.31598"
        transform="matrix(-0.5 0.866025 0.866025 0.5 27.0549 37.9338)" fill="#A3E2FF" />
    <path opacity="0.5" fill-rule="evenodd" clip-rule="evenodd"
        d="M31.1047 42.5167C30.189 44.1027 28.161 44.6461 26.575 43.7304C25.7865 43.2752 25.2557 42.545 25.0338 41.731C24.7208 43.1108 25.3211 44.5908 26.6107 45.3354C28.1968 46.2511 30.2248 45.7077 31.1405 44.1217C31.6009 43.3241 31.6924 42.4148 31.4679 41.5914C31.396 41.9085 31.2758 42.2203 31.1047 42.5167Z"
        fill="#018BFF" />
    <circle cx="3.31598" cy="3.31598" r="3.31598"
        transform="matrix(-0.5 0.866025 0.866025 0.5 27.0549 37.9338)" stroke="#151E29" />
    <circle cx="4.01509" cy="4.01509" r="4.01509"
        transform="matrix(-4.37114e-08 1 1 4.37114e-08 47.3967 52.5038)" fill="#A3E2FF" />
    <path opacity="0.5" fill-rule="evenodd" clip-rule="evenodd"
        d="M55.2545 55.3514C54.7544 56.9995 53.2232 58.199 51.4117 58.199C49.6003 58.199 48.0691 56.9995 47.569 55.3514C47.4569 55.7209 47.3966 56.1128 47.3966 56.5189C47.3966 58.7364 49.1943 60.534 51.4117 60.534C53.6292 60.534 55.4268 58.7364 55.4268 56.5189C55.4268 56.1128 55.3665 55.7209 55.2545 55.3514Z"
        fill="#018BFF" />
    <circle cx="4.01509" cy="4.01509" r="4.01509"
        transform="matrix(-4.37114e-08 1 1 4.37114e-08 47.3967 52.5038)" stroke="#151E29" />
    <circle cx="2.04481" cy="2.04481" r="2.04481"
        transform="matrix(-4.37114e-08 1 1 4.37114e-08 46.2913 63.6305)" fill="#29A0FF" />
    <path opacity="0.5" fill-rule="evenodd" clip-rule="evenodd"
        d="M50.2928 65.0807C50.0381 65.9201 49.2583 66.531 48.3357 66.531C47.4132 66.531 46.6333 65.9201 46.3787 65.0807C46.3216 65.2689 46.2909 65.4685 46.2909 65.6752C46.2909 66.8046 47.2064 67.7201 48.3357 67.7201C49.465 67.7201 50.3805 66.8046 50.3805 65.6752C50.3805 65.4685 50.3498 65.2689 50.2928 65.0807Z"
        fill="#018BFF" />
    <circle cx="2.04481" cy="2.04481" r="2.04481"
        transform="matrix(-4.37114e-08 1 1 4.37114e-08 46.2913 63.6305)" stroke="#151E29" />
    <circle cx="2.04481" cy="2.04481" r="2.04481"
        transform="matrix(-4.37114e-08 1 1 4.37114e-08 54.2536 61.9179)" fill="#29A0FF" />
    <path opacity="0.5" fill-rule="evenodd" clip-rule="evenodd"
        d="M58.2551 63.3683C58.0005 64.2076 57.2206 64.8186 56.2981 64.8185C55.3756 64.8185 54.5957 64.2076 54.3411 63.3683C54.284 63.5564 54.2533 63.756 54.2533 63.9628C54.2533 65.0921 55.1688 66.0076 56.2981 66.0076C57.4274 66.0076 58.3429 65.0921 58.3429 63.9628C58.3429 63.756 58.3122 63.5564 58.2551 63.3683Z"
        fill="#018BFF" />
    <circle cx="2.04481" cy="2.04481" r="2.04481"
        transform="matrix(-4.37114e-08 1 1 4.37114e-08 54.2536 61.9179)" stroke="#151E29" />
    <circle cx="2.12586" cy="2.12586" r="2.12586"
        transform="matrix(-4.37114e-08 1 1 4.37114e-08 67.3171 59.7109)" fill="#A3E2FF" />
    <path opacity="0.5" fill-rule="evenodd" clip-rule="evenodd"
        d="M71.4778 61.2187C71.2131 62.0913 70.4023 62.7265 69.4432 62.7265C68.4841 62.7265 67.6733 62.0913 67.4086 61.2187C67.3492 61.4143 67.3173 61.6218 67.3173 61.8367C67.3173 63.0108 68.2691 63.9626 69.4432 63.9626C70.6173 63.9626 71.569 63.0108 71.569 61.8367C71.569 61.6218 71.5371 61.4143 71.4778 61.2187Z"
        fill="#018BFF" />
    <circle cx="2.12586" cy="2.12586" r="2.12586"
        transform="matrix(-4.37114e-08 1 1 4.37114e-08 67.3171 59.7109)" stroke="#151E29" />
    <circle cx="2.05798" cy="2.05798" r="2.05798"
        transform="matrix(-4.37114e-08 1 1 4.37114e-08 45.3389 72.8466)" fill="#A3E2FF" />
    <path opacity="0.5" fill-rule="evenodd" clip-rule="evenodd"
        d="M49.3664 74.3059C49.1101 75.1507 48.3252 75.7655 47.3968 75.7655C46.4683 75.7655 45.6834 75.1507 45.4271 74.3059C45.3697 74.4953 45.3388 74.6962 45.3388 74.9043C45.3388 76.0409 46.2602 76.9623 47.3968 76.9623C48.5334 76.9623 49.4547 76.0409 49.4547 74.9043C49.4547 74.6962 49.4239 74.4953 49.3664 74.3059Z"
        fill="#018BFF" />
    <circle cx="2.05798" cy="2.05798" r="2.05798"
        transform="matrix(-4.37114e-08 1 1 4.37114e-08 45.3389 72.8466)" stroke="#151E29" />
    <circle cx="1.66823" cy="1.66823" r="1.66823"
        transform="matrix(-4.37114e-08 1 1 4.37114e-08 39.3558 79.8098)" fill="#29A0FF" />
    <path opacity="0.5" fill-rule="evenodd" clip-rule="evenodd"
        d="M42.6209 80.9928C42.4131 81.6775 41.7769 82.1759 41.0243 82.1759C40.2717 82.1759 39.6354 81.6775 39.4277 80.9928C39.3811 81.1463 39.356 81.3092 39.356 81.4779C39.356 82.3992 40.1029 83.1461 41.0243 83.1461C41.9456 83.1461 42.6925 82.3992 42.6925 81.4779C42.6925 81.3092 42.6675 81.1463 42.6209 80.9928Z"
        fill="#018BFF" />
    <circle cx="1.66823" cy="1.66823" r="1.66823"
        transform="matrix(-4.37114e-08 1 1 4.37114e-08 39.3558 79.8098)" stroke="#151E29" />
    <circle cx="2.05798" cy="2.05798" r="2.05798"
        transform="matrix(-4.37114e-08 1 1 4.37114e-08 44.8549 41.8763)" fill="#29A0FF" />
    <path opacity="0.5" fill-rule="evenodd" clip-rule="evenodd"
        d="M48.8828 43.3359C48.6265 44.1806 47.8416 44.7954 46.9132 44.7954C45.9847 44.7954 45.1999 44.1806 44.9436 43.3359C44.8861 43.5253 44.8552 43.7262 44.8552 43.9344C44.8552 45.0709 45.7766 45.9923 46.9132 45.9923C48.0498 45.9923 48.9712 45.0709 48.9712 43.9344C48.9712 43.7262 48.9403 43.5253 48.8828 43.3359Z"
        fill="#018BFF" />
    <circle cx="2.05798" cy="2.05798" r="2.05798"
        transform="matrix(-4.37114e-08 1 1 4.37114e-08 44.8549 41.8763)" stroke="#151E29" />
    <circle cx="2.05798" cy="2.05798" r="2.05798"
        transform="matrix(-4.37114e-08 1 1 4.37114e-08 52.8171 45.9923)" fill="#29A0FF" />
    <path opacity="0.5" fill-rule="evenodd" clip-rule="evenodd"
        d="M56.8449 47.4518C56.5886 48.2965 55.8037 48.9113 54.8753 48.9113C53.9468 48.9113 53.162 48.2965 52.9057 47.4518C52.8482 47.6412 52.8173 47.8421 52.8173 48.0502C52.8173 49.1868 53.7387 50.1082 54.8753 50.1082C56.0119 50.1082 56.9333 49.1868 56.9333 48.0502C56.9333 47.8421 56.9024 47.6412 56.8449 47.4518Z"
        fill="#018BFF" />
    <circle cx="2.05798" cy="2.05798" r="2.05798"
        transform="matrix(-4.37114e-08 1 1 4.37114e-08 52.8171 45.9923)" stroke="#151E29" />
    <circle cx="2.05798" cy="2.05798" r="2.05798"
        transform="matrix(-4.37114e-08 1 1 4.37114e-08 36.7089 54.8796)" fill="#29A0FF" />
    <path opacity="0.5" fill-rule="evenodd" clip-rule="evenodd"
        d="M40.7365 56.3393C40.4802 57.184 39.6953 57.7988 38.7668 57.7988C37.8384 57.7988 37.0535 57.184 36.7972 56.3393C36.7397 56.5286 36.7088 56.7295 36.7088 56.9376C36.7088 58.0742 37.6302 58.9956 38.7668 58.9956C39.9034 58.9956 40.8248 58.0742 40.8248 56.9376C40.8248 56.7295 40.7939 56.5286 40.7365 56.3393Z"
        fill="#018BFF" />
    <circle cx="2.05798" cy="2.05798" r="2.05798"
        transform="matrix(-4.37114e-08 1 1 4.37114e-08 36.7089 54.8796)" stroke="#151E29" />
    <path d="M27.1845 48.3785L31.1539 66.5028" stroke="#151E29" stroke-dasharray="2 2" />
    <path d="M37.3947 73.6398L43.912 76.2467M46.3016 69.5122V72.2277" stroke="#151E29"
        stroke-dasharray="2 2" />
    <path d="M62.4261 53.5707L66.2891 67.3211" stroke="#151E29" stroke-dasharray="2 2" />
    <rect width="31.9031" height="31.9031" rx="11"
        transform="matrix(0.866044 0.499967 -0.866044 0.499967 48.1841 5.63373)" fill="#F5F7FA"
        stroke="#151E29" stroke-linejoin="round" />
    <path opacity="0.3"
        d="M38.9965 12.7228L41.47 14.1539L43.2279 13.1581C43.5697 12.9408 43.9663 12.8254 44.3713 12.8254C44.7763 12.8254 45.1729 12.9408 45.5147 13.1581L50.5705 16.0985C51.3501 16.537 52.215 16.8023 53.1063 16.8763C53.9492 16.9818 54.8051 16.8965 55.6109 16.6272C55.3992 16.795 55.244 17.0233 55.1661 17.282C55.0882 17.5406 55.0916 17.8174 55.1754 18.0742C55.2878 18.3935 55.4625 18.6868 55.6895 18.9379C55.9165 19.1889 56.1913 19.3926 56.4977 19.5365L61.5536 22.4769C62.3159 22.928 62.3314 23.3634 61.5536 23.8145L59.7645 24.8407L62.238 26.2878L65.3493 24.5301C66.376 23.9389 66.905 23.3163 66.905 22.663C66.905 22.0096 66.3916 21.4189 65.3493 20.8278L60.2467 17.8562C59.5155 17.4362 59.1422 17.0625 59.1111 16.7358C59.08 16.4091 59.2977 16.0674 59.8578 15.6784L60.729 15.0715L58.3488 13.6868L57.3067 14.1851C56.7402 14.4946 56.1004 14.6448 55.4553 14.6203C54.7703 14.5552 54.1099 14.3316 53.5263 13.9671L48.4393 10.9955C47.4985 10.4308 46.4251 10.1252 45.328 10.1091C44.1948 10.1126 43.0831 10.4185 42.1078 10.9955L38.9965 12.7228Z"
        fill="#006FD6" stroke="#006FD6" stroke-linejoin="round" />
    <path d="M38.9963 5.63239L39.0119 10.7038L41.4854 12.1506L41.4698 7.07915L38.9963 5.63239Z"
        fill="#0056B3" stroke="#0056B3" stroke-linejoin="round" />
    <path fill-rule="evenodd" clip-rule="evenodd"
        d="M59.8578 8.55728L59.8578 8.55708L60.7289 7.95038L60.7445 13.0374L59.8733 13.6285L59.8732 13.5841L59.8577 13.6284C59.3599 13.9706 59.0954 14.2975 59.0954 14.5931V9.52201C59.0954 9.17977 59.3599 8.89956 59.8577 8.55732L59.8578 8.55728Z"
        fill="#0056B3" />
    <path
        d="M59.8578 8.55708L59.3578 8.55864C59.3573 8.39451 59.4373 8.24058 59.572 8.14678L59.8578 8.55708ZM59.8578 8.55728L60.3578 8.55572C60.3583 8.72827 60.2698 8.88891 60.1237 8.98068L59.8578 8.55728ZM60.7289 7.95038L60.4432 7.54008C60.5958 7.43381 60.7947 7.42099 60.9597 7.50681C61.1247 7.59263 61.2284 7.7629 61.2289 7.94885L60.7289 7.95038ZM60.7445 13.0374L61.2445 13.0358C61.245 13.2021 61.1628 13.3578 61.0252 13.4511L60.7445 13.0374ZM59.8733 13.6285L60.1541 14.0423C60.0011 14.1461 59.8034 14.157 59.6399 14.0707C59.4764 13.9844 59.3739 13.8149 59.3733 13.6301L59.8733 13.6285ZM59.8732 13.5841L59.4012 13.419C59.4817 13.1891 59.716 13.0507 59.9562 13.0911C60.1963 13.1315 60.3724 13.3391 60.3732 13.5826L59.8732 13.5841ZM59.8577 13.6284L60.3296 13.7935C60.2946 13.8938 60.2285 13.9803 60.141 14.0404L59.8577 13.6284ZM59.5954 14.5931C59.5954 14.8692 59.3716 15.0931 59.0954 15.0931C58.8193 15.0931 58.5954 14.8692 58.5954 14.5931H59.5954ZM59.8577 8.55732L59.5744 8.1453C59.5801 8.14138 59.5859 8.13759 59.5918 8.13391L59.8577 8.55732ZM60.3578 8.55553L60.3578 8.55572L59.3578 8.55883L59.3578 8.55864L60.3578 8.55553ZM61.0147 8.36068L60.1435 8.96739L59.572 8.14678L60.4432 7.54008L61.0147 8.36068ZM60.2445 13.0389L60.2289 7.95191L61.2289 7.94885L61.2445 13.0358L60.2445 13.0389ZM59.5926 13.2148L60.4637 12.6236L61.0252 13.4511L60.1541 14.0423L59.5926 13.2148ZM60.3732 13.5826L60.3733 13.627L59.3733 13.6301L59.3732 13.5857L60.3732 13.5826ZM59.3858 13.4633L59.4012 13.419L60.3451 13.7493L60.3296 13.7935L59.3858 13.4633ZM58.5954 14.5931C58.5954 14.2926 58.7294 14.0299 58.8985 13.8171C59.0687 13.6029 59.3025 13.4033 59.5744 13.2164L60.141 14.0404C59.9151 14.1957 59.7677 14.3307 59.6813 14.4394C59.5938 14.5495 59.5954 14.598 59.5954 14.5931H58.5954ZM59.5954 9.52201V14.5931H58.5954V9.52201H59.5954ZM60.141 8.96934C59.9034 9.13267 59.759 9.25677 59.6756 9.3578C59.6007 9.4487 59.5954 9.49557 59.5954 9.52201H58.5954C58.5954 8.89159 59.0924 8.47674 59.5744 8.1453L60.141 8.96934ZM60.1237 8.98068L60.1237 8.98073L59.5918 8.13391L59.5918 8.13387L60.1237 8.98068Z"
        fill="#0056B3" />
    <path
        d="M43.2899 11.1002C43.6161 10.9044 43.9897 10.801 44.3711 10.801C44.777 10.801 45.1741 10.9181 45.5145 11.139V11.115L50.6327 14.064L50.6327 14.0571C51.4064 14.4945 52.2666 14.757 53.1528 14.8261C53.9948 14.9289 54.849 14.8495 55.6574 14.5929V9.50588C54.8517 9.77517 53.9958 9.86047 53.1528 9.75503C52.2615 9.68099 51.3966 9.41569 50.6171 8.9772V8.99255L45.3455 5.90254V5.97102C45.0449 5.8165 44.711 5.73523 44.3711 5.73523C43.9844 5.73523 43.6054 5.84046 43.2744 6.03912L43.2744 6.03679L41.4698 7.07908L41.4854 12.1505L43.2899 11.1082L43.2899 11.1002Z"
        fill="#0056B3" stroke="#0056B3" stroke-linejoin="round" />
    <path fill-rule="evenodd" clip-rule="evenodd"
        d="M55.2221 10.953V16.0241C55.333 16.3442 55.5073 16.6388 55.7345 16.8901C55.9617 17.1413 56.2372 17.344 56.5446 17.4863L56.56 17.4949L56.56 17.5021L61.6159 20.4423L61.6159 20.4267C61.9892 20.66 62.1914 20.8781 62.1914 21.0958V16.024C62.1914 15.8062 61.9891 15.5889 61.6158 15.3555L61.6004 15.3649L61.6004 15.3553L56.5525 12.4353L56.5446 12.4153C56.2382 12.2714 55.9634 12.0677 55.7364 11.8167C55.5094 11.5656 55.3345 11.2723 55.2221 10.953Z"
        fill="#0056B3" />
    <path
        d="M55.2221 16.0241L54.7497 16.1877C54.7314 16.1351 54.7221 16.0798 54.7221 16.0241H55.2221ZM55.2221 10.953H54.7221C54.7221 10.7094 54.8978 10.5012 55.1379 10.4602C55.3781 10.4191 55.6129 10.5572 55.6938 10.787L55.2221 10.953ZM55.7345 16.8901L56.1053 16.5547V16.5547L55.7345 16.8901ZM56.5446 17.4863L56.7547 17.0326C56.7662 17.0379 56.7774 17.0437 56.7884 17.0498L56.5446 17.4863ZM56.56 17.4949L56.8039 17.0584C56.9615 17.1465 57.0594 17.3128 57.06 17.4934L56.56 17.4949ZM56.56 17.5021L56.3087 17.9343C56.1552 17.8451 56.0606 17.6811 56.06 17.5036L56.56 17.5021ZM61.6159 20.4423L62.1159 20.4408C62.1165 20.6199 62.0211 20.7857 61.8659 20.8753C61.7107 20.9649 61.5195 20.9646 61.3646 20.8745L61.6159 20.4423ZM61.6159 20.4267L61.1159 20.4282C61.1153 20.2462 61.2137 20.0782 61.3728 19.9897C61.5319 19.9012 61.7265 19.9062 61.8809 20.0027L61.6159 20.4267ZM62.6914 21.0958C62.6914 21.372 62.4675 21.5958 62.1914 21.5958C61.9152 21.5958 61.6914 21.372 61.6914 21.0958H62.6914ZM61.6158 15.3555L61.3552 14.9288C61.5167 14.8301 61.7202 14.8312 61.8808 14.9315L61.6158 15.3555ZM61.6004 15.3649L61.861 15.7916C61.7069 15.8858 61.514 15.8895 61.3564 15.8014C61.1988 15.7133 61.1009 15.547 61.1004 15.3665L61.6004 15.3649ZM61.6004 15.3553L61.8507 14.9225C62.0047 15.0116 62.0998 15.1758 62.1004 15.3538L61.6004 15.3553ZM56.5525 12.4353L56.3021 12.8681C56.2045 12.8116 56.1288 12.7238 56.0874 12.6188L56.5525 12.4353ZM56.5446 12.4153L56.7571 11.9627C56.8725 12.0169 56.9629 12.1131 57.0097 12.2317L56.5446 12.4153ZM54.7221 16.0241V10.953H55.7221V16.0241H54.7221ZM55.3636 17.2254C55.0914 16.9243 54.8825 16.5713 54.7497 16.1877L55.6946 15.8605C55.7834 16.1171 55.9232 16.3533 56.1053 16.5547L55.3636 17.2254ZM56.3345 17.94C55.9663 17.7695 55.636 17.5266 55.3636 17.2254L56.1053 16.5547C56.2873 16.756 56.5082 16.9184 56.7547 17.0326L56.3345 17.94ZM56.3162 17.9315L56.3008 17.9228L56.7884 17.0498L56.8039 17.0584L56.3162 17.9315ZM56.06 17.5036L56.06 17.4965L57.06 17.4934L57.06 17.5006L56.06 17.5036ZM61.3646 20.8745L56.3087 17.9343L56.8114 17.0699L61.8673 20.0101L61.3646 20.8745ZM62.1159 20.4252L62.1159 20.4408L61.1159 20.4438L61.1159 20.4282L62.1159 20.4252ZM61.8809 20.0027C62.087 20.1315 62.2767 20.2745 62.4196 20.4375C62.5633 20.6014 62.6914 20.8231 62.6914 21.0958H61.6914C61.6914 21.1508 61.7183 21.1545 61.6676 21.0967C61.6161 21.0379 61.5181 20.9552 61.3509 20.8507L61.8809 20.0027ZM61.6914 21.0958V16.024H62.6914V21.0958H61.6914ZM61.6914 16.024C61.6914 16.0792 61.7185 16.0832 61.6679 16.0255C61.6163 15.9668 61.5183 15.8842 61.3508 15.7795L61.8808 14.9315C62.0866 15.0602 62.2764 15.2029 62.4193 15.3657C62.5631 15.5295 62.6914 15.751 62.6914 16.024H61.6914ZM61.8764 15.7822L61.861 15.7916L61.3398 14.9382L61.3552 14.9288L61.8764 15.7822ZM62.1004 15.3538L62.1004 15.3634L61.1004 15.3665L61.1004 15.3568L62.1004 15.3538ZM56.8029 12.0025L61.8507 14.9225L61.35 15.7881L56.3021 12.8681L56.8029 12.0025ZM57.0097 12.2317L57.0176 12.2518L56.0874 12.6188L56.0795 12.5988L57.0097 12.2317ZM56.1072 11.4813C56.2899 11.6833 56.5109 11.8471 56.7571 11.9627L56.3321 12.8679C55.9655 12.6958 55.6369 12.4522 55.3655 12.152L56.1072 11.4813ZM55.6938 10.787C55.7841 11.0435 55.9246 11.2793 56.1072 11.4813L55.3655 12.152C55.0942 11.852 54.885 11.5011 54.7505 11.119L55.6938 10.787Z"
        fill="#0056B3" />
    <path d="M59.8111 17.7354L59.8266 22.8068L62.3001 24.238L62.2846 19.1666L59.8111 17.7354Z"
        fill="#0056B3" stroke="#0056B3" stroke-linejoin="round" />
    <path fill-rule="evenodd" clip-rule="evenodd"
        d="M65.3336 17.4092V17.4089C66.3604 16.8178 66.8582 16.1952 66.8893 15.5418V20.6137C66.8893 21.2637 66.3657 21.8825 65.3493 22.471L65.3493 22.4806L62.3002 24.2385L62.2846 19.1671L65.3336 17.4092Z"
        fill="#0056B3" />
    <path
        d="M65.3336 17.4089H64.8336C64.8336 17.2301 64.9291 17.0648 65.0841 16.9756L65.3336 17.4089ZM65.3336 17.4092H65.8336C65.8336 17.588 65.7382 17.7531 65.5833 17.8424L65.3336 17.4092ZM66.8893 15.5418L66.3898 15.518C66.4028 15.2468 66.6297 15.0355 66.9012 15.042C67.1726 15.0484 67.3893 15.2703 67.3893 15.5418L66.8893 15.5418ZM65.3493 22.471L64.8493 22.4725C64.8487 22.2935 64.9439 22.1279 65.0988 22.0382L65.3493 22.471ZM65.3493 22.4806L65.8493 22.4791C65.8498 22.6584 65.7544 22.8242 65.599 22.9138L65.3493 22.4806ZM62.3002 24.2385L62.5499 24.6717C62.3955 24.7607 62.2053 24.7608 62.0507 24.6718C61.8962 24.5829 61.8008 24.4183 61.8002 24.24L62.3002 24.2385ZM62.2846 19.1671L61.7846 19.1686C61.7841 18.9893 61.8796 18.8234 62.0349 18.7339L62.2846 19.1671ZM65.8336 17.4089V17.4092H64.8336V17.4089H65.8336ZM67.3887 15.5656C67.3451 16.4824 66.6524 17.2265 65.5831 17.8422L65.0841 16.9756C66.0683 16.409 66.3713 15.908 66.3898 15.518L67.3887 15.5656ZM66.3893 20.6137V15.5418H67.3893V20.6137H66.3893ZM65.0988 22.0382C66.0916 21.4634 66.3893 20.9734 66.3893 20.6137H67.3893C67.3893 21.554 66.6398 22.3016 65.5998 22.9037L65.0988 22.0382ZM64.8493 22.4822L64.8493 22.4725L65.8493 22.4694L65.8493 22.4791L64.8493 22.4822ZM62.0505 23.8053L65.0996 22.0475L65.599 22.9138L62.5499 24.6717L62.0505 23.8053ZM62.7846 19.1655L62.8002 24.237L61.8002 24.24L61.7846 19.1686L62.7846 19.1655ZM65.5833 17.8424L62.5344 19.6002L62.0349 18.7339L65.0839 16.9761L65.5833 17.8424Z"
        fill="#0056B3" />
    <path
        d="M38.9965 5.6327L41.47 7.06378L43.2279 6.06795C43.5696 5.85067 43.9662 5.73525 44.3712 5.73525C44.7762 5.73525 45.1728 5.85067 45.5146 6.06795L50.5705 9.00836C51.35 9.44685 52.2149 9.71215 53.1062 9.78619C53.9492 9.89163 54.8051 9.80633 55.6108 9.53704C55.3991 9.70483 55.244 9.93316 55.1661 10.1918C55.0882 10.4505 55.0915 10.7273 55.1754 10.9841C55.2878 11.3033 55.4624 11.5967 55.6895 11.8477C55.9165 12.0988 56.1913 12.3025 56.4977 12.4463L61.5536 15.3867C62.3158 15.8379 62.3314 16.2732 61.5536 16.7244L59.7645 17.7506L62.238 19.1976L65.3493 17.4399C66.376 16.8488 66.9049 16.2262 66.9049 15.5728C66.9049 14.9194 66.3916 14.3288 65.3493 13.7376L60.2467 10.7661C59.5155 10.346 59.1422 9.97235 59.1111 9.64566C59.08 9.31897 59.2977 8.97721 59.8578 8.5883L60.729 7.98138L58.3488 6.59663L57.3066 7.09493C56.7402 7.40446 56.1004 7.55464 55.4553 7.53018C54.7703 7.46503 54.1099 7.24145 53.5263 6.87692L48.4393 3.90537C47.4985 3.34065 46.4251 3.03501 45.328 3.01892C44.1947 3.02245 43.0831 3.3283 42.1078 3.90537L38.9965 5.6327Z"
        fill="#F5F7FA" stroke="#0056B3" stroke-linejoin="round" />
    <path opacity="0.3"
        d="M30.9321 19.2082C29.9772 19.7665 29.463 20.3397 29.463 20.942C29.463 21.5443 29.9037 22.1469 30.9321 22.7052L35.7506 25.5107C36.4117 25.8926 36.779 26.2308 36.8524 26.5393C36.9259 26.8478 36.6468 27.2007 36.1179 27.568L35.2953 28.1261L37.5576 29.4331L38.5272 28.9632C39.07 28.6775 39.6771 28.5362 40.2903 28.5522C40.9287 28.6205 41.5423 28.8363 42.0825 29.1834L46.9012 31.9896C47.8161 32.5284 48.8584 32.8124 49.9201 32.8124C50.9818 32.8124 52.0243 32.5284 52.9392 31.9896L55.8774 30.3297L53.5414 28.9632L51.8226 29.9624C51.5027 30.1681 51.1305 30.2774 50.7502 30.2774C50.3699 30.2774 49.9975 30.1681 49.6776 29.9624L44.9031 27.1856C44.1657 26.7767 43.3492 26.5315 42.5086 26.4662C41.7115 26.3682 40.9023 26.4535 40.1432 26.7158C40.338 26.5501 40.4805 26.3311 40.5535 26.086C40.6265 25.8409 40.6269 25.5802 40.5546 25.3349C40.3427 24.7256 39.8995 24.2239 39.3206 23.939L34.546 21.1622C33.8115 20.7509 33.8115 20.3397 34.546 19.9284L36.2795 18.9292L33.929 17.5777L30.9321 19.2082Z"
        fill="#006FD6" stroke="#006FD6" stroke-linejoin="round" />
    <path fill-rule="evenodd" clip-rule="evenodd"
        d="M34.4286 12.8464L34.4432 17.5981L36.1767 16.6138L36.2802 16.5579L36.2802 11.866L36.162 11.8245L34.4286 12.8088V12.7796C34.0907 13.0146 33.9143 13.2058 33.9143 13.4115V18.2004C33.9143 17.9948 34.0907 17.8035 34.4286 17.5979V12.8464Z"
        fill="#0056B3" />
    <path
        d="M34.4286 12.8464H33.9286C33.9286 12.5706 34.152 12.3469 34.4278 12.3464C34.7037 12.346 34.9277 12.5691 34.9286 12.8449L34.4286 12.8464ZM34.4432 17.5981L34.69 18.0329C34.5355 18.1206 34.346 18.1197 34.1923 18.0306C34.0385 17.9414 33.9437 17.7773 33.9432 17.5996L34.4432 17.5981ZM36.1767 16.6138L35.9298 16.1789L35.9393 16.1737L36.1767 16.6138ZM36.2802 16.5579L36.7802 16.5579C36.7802 16.7418 36.6794 16.9107 36.5176 16.998L36.2802 16.5579ZM36.2802 11.866L36.4458 11.3942C36.6461 11.4646 36.7802 11.6537 36.7802 11.866L36.2802 11.866ZM36.162 11.8245L35.9151 11.3897C36.0408 11.3184 36.1912 11.3049 36.3276 11.3528L36.162 11.8245ZM34.4286 12.8088L34.6755 13.2436C34.5207 13.3314 34.3308 13.3304 34.177 13.2409C34.0232 13.1513 33.9286 12.9867 33.9286 12.8088H34.4286ZM34.4286 12.7796L34.1431 12.3691C34.2959 12.2628 34.4951 12.2502 34.6601 12.3364C34.8251 12.4226 34.9286 12.5934 34.9286 12.7796H34.4286ZM34.4143 18.2004C34.4143 18.4766 34.1904 18.7004 33.9143 18.7004C33.6381 18.7004 33.4143 18.4766 33.4143 18.2004H34.4143ZM34.4286 17.5979H34.9286C34.9286 17.7724 34.8376 17.9342 34.6886 18.025L34.4286 17.5979ZM34.9286 12.8449L34.9432 17.5965L33.9432 17.5996L33.9286 12.848L34.9286 12.8449ZM34.1963 17.1633L35.9298 16.179L36.4236 17.0486L34.69 18.0329L34.1963 17.1633ZM35.9393 16.1737L36.0428 16.1179L36.5176 16.998L36.4141 17.0538L35.9393 16.1737ZM35.7802 16.5579L35.7802 11.866L36.7802 11.866L36.7802 16.5579L35.7802 16.5579ZM36.1146 12.3378L35.9964 12.2963L36.3276 11.3528L36.4458 11.3942L36.1146 12.3378ZM36.4089 12.2593L34.6755 13.2436L34.1817 12.374L35.9151 11.3897L36.4089 12.2593ZM33.9286 12.8088V12.7796H34.9286V12.8088H33.9286ZM34.7141 13.19C34.5575 13.299 34.4716 13.3757 34.4277 13.4279C34.3881 13.4752 34.4143 13.4644 34.4143 13.4115H33.4143C33.4143 13.1529 33.5286 12.9437 33.6617 12.7852C33.7905 12.6316 33.9618 12.4952 34.1431 12.3691L34.7141 13.19ZM34.4143 13.4115V18.2004H33.4143V13.4115H34.4143ZM33.4143 18.2004C33.4143 17.9419 33.5285 17.7307 33.6675 17.5709C33.8022 17.4162 33.9799 17.2857 34.1686 17.1708L34.6886 18.025C34.5394 18.1158 34.4599 18.1837 34.4219 18.2274C34.3882 18.266 34.4143 18.2533 34.4143 18.2004H33.4143ZM33.9286 17.5979V12.8464H34.9286V17.5979H33.9286Z"
        fill="#0056B3" />
    <path
        d="M29.5069 13.9108V18.6559C29.5069 19.2348 29.9631 19.7997 30.9318 20.336L35.7358 23.2016V23.2103C36.3969 23.5922 36.7642 23.9297 36.8377 24.2382V19.4493C36.7642 19.1408 36.3969 18.8026 35.7358 18.4206L30.976 15.5707C29.977 15.0712 29.5069 14.4984 29.5069 13.9108Z"
        fill="#0056B3" stroke="#0056B3" stroke-linejoin="round" />
    <path
        d="M40.584 23.3866V18.6558C40.5861 18.8456 40.5463 19.0334 40.4676 19.206C40.3889 19.3787 40.2731 19.5322 40.1285 19.6551V24.444C40.2776 24.3121 40.3959 24.1491 40.4746 23.9662C40.5533 23.7834 40.5907 23.5856 40.584 23.3866Z"
        fill="#0056B3" stroke="#0056B3" stroke-linejoin="round" />
    <path d="M35.2806 21.0505L35.2953 25.8398L37.5577 27.1473L37.543 22.358L35.2806 21.0505Z"
        fill="#0056B3" stroke="#0056B3" stroke-linejoin="round" />
    <path
        d="M38.5125 21.8731C39.0552 21.5874 39.6623 21.4459 40.2755 21.4618C40.8307 21.5213 41.3672 21.6923 41.8529 21.9641V21.9438L46.8864 24.8995C47.802 25.4428 48.848 25.7273 49.9127 25.7223C50.9724 25.7246 52.013 25.4403 52.9244 24.8995L55.8038 23.2394L55.8185 28.0287L52.9391 29.6888L52.939 29.6796L52.9244 29.6884C52.0131 30.2292 50.9724 30.5135 49.9127 30.5112C48.848 30.5162 47.8021 30.2318 46.8864 29.6884V29.6803L42.0824 26.8975L41.8529 26.7622V26.7537C41.3672 26.4817 40.8307 26.3102 40.2755 26.2508C39.6679 26.2349 39.0662 26.3743 38.5272 26.6548L38.5272 26.6624L37.5576 27.1472L37.5429 22.3579L38.5125 21.8731Z"
        fill="#0056B3" stroke="#0056B3" stroke-linejoin="round" />
    <path
        d="M30.9321 12.1182C29.9772 12.6765 29.463 13.2497 29.463 13.852C29.463 14.4544 29.9037 15.057 30.9321 15.6152L35.7506 18.4207C36.4117 18.8027 36.779 19.1409 36.8524 19.4494C36.9259 19.7579 36.6468 20.1107 36.1179 20.478L35.2953 21.0361L37.5576 22.3431L38.5272 21.8732C39.07 21.5876 39.6771 21.4462 40.2902 21.4622C40.9287 21.5305 41.5423 21.7464 42.0825 22.0935L46.9012 24.8997C47.8161 25.4384 48.8584 25.7224 49.9201 25.7224C50.9818 25.7224 52.0243 25.4384 52.9392 24.8997L55.8773 23.2398L53.5414 21.8732L51.8226 22.8725C51.5027 23.0781 51.1305 23.1874 50.7502 23.1874C50.3699 23.1874 49.9975 23.0781 49.6776 22.8725L44.9031 20.0957C44.1657 19.6867 43.3492 19.4416 42.5086 19.3762C41.7115 19.2783 40.9023 19.3636 40.1432 19.6258C40.338 19.4601 40.4805 19.2411 40.5535 18.996C40.6265 18.7509 40.6269 18.4903 40.5546 18.245C40.3427 17.6356 39.8994 17.1339 39.3206 16.849L34.546 14.0722C33.8115 13.6609 33.8115 13.2498 34.546 12.8384L36.2795 11.8392L33.9289 10.4877L30.9321 12.1182Z"
        fill="#F5F7FA" stroke="#0056B3" stroke-linejoin="round" />
</svg>