<svg width="149" height="88" viewBox="0 0 149 88" fill="none" xmlns="http://www.w3.org/2000/svg">
    <path
        d="M66.2517 12.6067V26.4738C65.2385 24.9136 63.8487 23.6336 62.2107 22.7518C60.2203 21.6498 58.0661 20.8743 55.8301 20.4548V6.58765C58.0661 7.00713 60.2203 7.78266 62.2107 8.88466C63.8487 9.76644 65.2385 11.0464 66.2517 12.6067Z"
        fill="#0A6190" stroke="#0A6190" stroke-linejoin="round" />
    <path opacity="0.5"
        d="M117.073 28.1555C127.335 28.0826 137.428 30.7707 146.295 35.9382C154.888 40.9042 159.837 46.5967 159.996 52.631C160.156 58.6815 155.497 64.7162 145.794 70.3458L115.898 87.7319C115.718 87.8362 115.497 87.8366 115.317 87.733L104.174 81.307C103.995 81.2038 103.885 81.013 103.884 80.8063C103.884 80.5996 103.994 80.4084 104.172 80.3045L134.07 62.9177C140.268 59.3256 143.014 55.7315 143.118 52.4571C143.221 49.2002 140.715 45.905 135.483 42.8883C125.121 36.9126 112.035 36.6295 99.7417 43.776L86.0703 51.751C85.8036 51.9065 85.4618 51.8256 85.2932 51.567C84.2546 49.9743 82.8306 48.6696 81.1532 47.7739L81.1455 47.7697C79.0673 46.619 76.818 45.8092 74.4832 45.3712C74.2453 45.3266 74.0603 45.1388 74.0192 44.9003C73.9781 44.6618 74.0896 44.4229 74.2988 44.3012L87.9671 36.3508C96.7588 31.059 106.812 28.2284 117.073 28.1555Z"
        fill="#51A6B1" />
    <path
        d="M85.7559 28.0256V42.8827C84.6704 41.2111 83.1814 39.8397 81.4264 38.895C79.294 37.7143 76.986 36.8834 74.5903 36.434V21.5769C76.986 22.0263 79.294 22.8572 81.4264 24.0379C83.1814 24.9826 84.6704 26.354 85.7559 28.0256Z"
        fill="#0A6190" stroke="#0A6190" stroke-linejoin="round" />
    <path fill-rule="evenodd" clip-rule="evenodd"
        d="M143.702 43.9303V29.0505C143.702 25.4957 140.945 22.146 135.795 19.161C125.245 13.0769 111.937 12.8034 99.473 20.0496V20.1166L99.45 20.0725L85.755 28.0251L85.7095 42.8822L99.5299 34.8739L99.5302 34.8735C111.955 27.6613 125.261 27.9432 135.773 34.018C140.945 37.0943 143.702 40.3984 143.702 43.9303Z"
        fill="#0A6190" />
    <path
        d="M143.202 43.9303C143.202 44.2065 143.426 44.4303 143.702 44.4303C143.979 44.4303 144.202 44.2065 144.202 43.9303H143.202ZM135.795 19.161L136.046 18.7284L136.045 18.7278L135.795 19.161ZM99.473 20.0496L99.2218 19.6174C99.0678 19.7069 98.973 19.8715 98.973 20.0496H99.473ZM99.473 20.1166L99.0301 20.3484C99.1368 20.5523 99.3689 20.6571 99.5924 20.6021C99.8159 20.5471 99.973 20.3467 99.973 20.1166H99.473ZM99.45 20.0725L99.893 19.8406C99.8297 19.7198 99.7198 19.63 99.5887 19.5921C99.4577 19.5543 99.3169 19.5716 99.1989 19.6401L99.45 20.0725ZM85.755 28.0251L85.504 27.5927C85.3503 27.6819 85.2556 27.8459 85.255 28.0236L85.755 28.0251ZM85.7095 42.8822L85.2095 42.8806C85.2089 43.0597 85.3042 43.2254 85.4591 43.315C85.6141 43.4046 85.8052 43.4046 85.9602 43.3148L85.7095 42.8822ZM99.5299 34.8739L99.7806 35.3065C99.842 35.2709 99.8952 35.2226 99.9365 35.1649L99.5299 34.8739ZM99.5302 34.8735L99.2792 34.4411C99.2179 34.4767 99.1648 34.5249 99.1236 34.5825L99.5302 34.8735ZM135.773 34.018L136.028 33.5882L136.023 33.5851L135.773 34.018ZM143.202 29.0505V43.9303H144.202V29.0505H143.202ZM135.545 19.5935C140.657 22.557 143.202 25.777 143.202 29.0505H144.202C144.202 25.2144 141.233 21.7351 136.046 18.7284L135.545 19.5935ZM99.7243 20.4819C112.041 13.3215 125.157 13.6035 135.546 19.5941L136.045 18.7278C125.333 12.5502 111.834 12.2853 99.2218 19.6174L99.7243 20.4819ZM99.973 20.1166V20.0496H98.973V20.1166H99.973ZM99.007 20.3044L99.0301 20.3484L99.916 19.8847L99.893 19.8406L99.007 20.3044ZM86.0061 28.4575L99.7011 20.5049L99.1989 19.6401L85.504 27.5927L86.0061 28.4575ZM86.2095 42.8837L86.255 28.0267L85.255 28.0236L85.2095 42.8806L86.2095 42.8837ZM99.2792 34.4413L85.4588 42.4496L85.9602 43.3148L99.7806 35.3065L99.2792 34.4413ZM99.1236 34.5825L99.1233 34.5829L99.9365 35.1649L99.9368 35.1645L99.1236 34.5825ZM136.023 33.5851C125.349 27.4166 111.852 27.1431 99.2792 34.4411L99.7812 35.3059C112.059 28.1795 125.173 28.4698 135.522 34.4509L136.023 33.5851ZM144.202 43.9303C144.202 40.1155 141.23 36.682 136.028 33.5883L135.517 34.4478C140.66 37.5065 143.202 40.6812 143.202 43.9303H144.202Z"
        fill="#0A6190" />
    <path
        d="M146.005 13.2137C163.117 23.1032 164.826 35.4081 145.503 46.6193L115.607 64.0057L104.464 57.5798L134.36 40.1933C146.825 32.9699 146.324 25.2451 135.773 19.161C125.223 13.0769 111.915 12.8035 99.4509 20.0497L85.7787 28.0251C84.6868 26.3507 83.1898 24.979 81.4264 24.0374C79.294 22.8568 76.986 22.0259 74.5903 21.5764L88.2625 13.6238C96.966 8.38413 106.919 5.5814 117.077 5.50924C127.236 5.43708 137.227 8.09814 146.005 13.2137Z"
        fill="#5CC3C9" stroke="#0A6190" stroke-linejoin="round" />
    <path fill-rule="evenodd" clip-rule="evenodd"
        d="M159.403 29.7341V44.5912C159.403 50.1968 154.959 55.9846 145.48 61.4991V61.3721L145.457 61.4995L115.561 78.8631L115.561 78.8627L104.418 72.437L104.464 57.5799L115.607 64.0058V64.0059L145.48 46.6425V46.6192C154.982 41.1048 159.403 35.3397 159.403 29.7341Z"
        fill="#0A6190" />
    <path
        d="M159.903 29.7341C159.903 29.458 159.679 29.2341 159.403 29.2341C159.127 29.2341 158.903 29.458 158.903 29.7341H159.903ZM145.48 61.4991H144.98C144.98 61.678 145.076 61.8433 145.231 61.9325C145.386 62.0217 145.577 62.0212 145.731 61.9313L145.48 61.4991ZM145.48 61.3721H145.98C145.98 61.1129 145.782 60.8967 145.524 60.874C145.266 60.8513 145.033 61.0297 144.988 61.2849L145.48 61.3721ZM145.457 61.4995L145.709 61.9318C145.836 61.8579 145.924 61.7316 145.95 61.5866L145.457 61.4995ZM115.561 78.8631L115.061 78.8617C115.061 79.0408 115.156 79.2065 115.311 79.2961C115.466 79.3856 115.657 79.3854 115.812 79.2955L115.561 78.8631ZM115.561 78.8627L116.061 78.8642C116.062 78.6849 115.966 78.5191 115.811 78.4296L115.561 78.8627ZM104.418 72.437L103.918 72.4354C103.918 72.6147 104.013 72.7805 104.169 72.8701L104.418 72.437ZM104.464 57.5799L104.714 57.1468C104.559 57.0577 104.369 57.0576 104.215 57.1466C104.06 57.2355 103.965 57.4 103.964 57.5784L104.464 57.5799ZM115.607 64.0058H116.107C116.107 63.8271 116.011 63.6619 115.857 63.5727L115.607 64.0058ZM115.607 64.0059H115.107C115.107 64.1848 115.202 64.3501 115.357 64.4393C115.513 64.5285 115.703 64.5281 115.858 64.4382L115.607 64.0059ZM145.48 46.6425L145.731 47.0748C145.885 46.9853 145.98 46.8207 145.98 46.6425H145.48ZM145.48 46.6192L145.229 46.1868C145.075 46.2762 144.98 46.441 144.98 46.6192H145.48ZM159.903 44.5912V29.7341H158.903V44.5912H159.903ZM145.731 61.9313C155.245 56.3967 159.903 50.4794 159.903 44.5912H158.903C158.903 49.9142 154.673 55.5726 145.229 61.0669L145.731 61.9313ZM144.98 61.3721V61.4991H145.98V61.3721H144.98ZM144.988 61.2849L144.965 61.4123L145.95 61.5866L145.972 61.4592L144.988 61.2849ZM145.206 61.0671L115.31 78.4307L115.812 79.2955L145.709 61.9318L145.206 61.0671ZM116.061 78.8645L116.061 78.8642L115.061 78.8613L115.061 78.8617L116.061 78.8645ZM104.169 72.8701L115.311 79.2959L115.811 78.4296L104.668 72.0038L104.169 72.8701ZM103.964 57.5784L103.918 72.4354L104.918 72.4385L104.964 57.5814L103.964 57.5784ZM115.857 63.5727L104.714 57.1468L104.214 58.013L115.357 64.4389L115.857 63.5727ZM116.107 64.0059V64.0058H115.107V64.0059H116.107ZM115.858 64.4382L145.731 47.0748L145.229 46.2103L115.356 63.5736L115.858 64.4382ZM144.98 46.6192V46.6425H145.98V46.6192H144.98ZM158.903 29.7341C158.903 35.0569 154.696 40.6926 145.229 46.1868L145.731 47.0517C155.268 41.517 159.903 35.6225 159.903 29.7341H158.903Z"
        fill="#0A6190" />
    <path opacity="0.5"
        d="M56.6382 23.1123C54.2688 22.7895 51.5231 22.8383 48.7959 23.3126C46.0687 23.7869 43.8826 24.6639 42.2312 25.8017C39.1773 27.7822 38.1164 30.4572 39.5339 32.953C40.8114 35.2417 44.4027 36.5769 48.1153 37.6936C52.7514 38.9832 56.3426 40.3183 57.7724 43.0977C57.7724 43.0977 57.7725 43.0977 57.9061 43.163C60.4675 47.8823 52.4347 52.7089 43.498 51.8202C43.498 51.8202 43.498 51.8202 43.3643 51.755C38.1093 51.274 35.2831 49.4792 32.4321 47.117C30.2558 45.2228 27.4296 43.4279 22.8306 42.9893C18.098 42.4854 13.2998 43.4765 9.9723 45.1848C8.05353 46.1921 6.66956 47.4603 6.08157 48.978C5.49358 50.4956 5.5555 51.9138 6.52853 53.2212C8.06731 55.4986 11.6771 57.2592 16.4098 57.763C20.7475 58.213 25.0171 57.103 28.6244 55.8088C33.2641 54.1853 37.2725 53.0867 42.5337 53.7095C47.7887 54.1905 50.615 55.9854 53.466 58.3475C55.6423 60.2418 58.4685 62.0366 63.0674 62.4752C67.8 62.9791 72.5982 61.9881 75.9258 60.2798C76.1808 60.1266 76.3083 60.05 76.5633 59.8967C76.8183 59.7435 76.9458 59.6669 77.2008 59.5137C80.2548 57.5331 81.3156 54.8581 79.8981 52.3623C78.6205 50.0736 75.0293 48.7384 71.3167 47.6217C66.6807 46.3322 63.0894 44.997 61.6595 42.2176C60.2297 39.4382 61.5703 37.1772 64.0709 34.5104C66.0738 32.4336 67.542 30.096 66.3919 27.7307C64.5919 25.4648 60.9821 23.7042 56.6382 23.1123Z"
        fill="#51A6B1" />
    <path
        d="M67.5456 9.25507V21.7199C67.542 22.2745 67.4412 22.8242 67.2477 23.344C66.6884 24.8729 65.3573 26.2748 63.4279 27.369C62.4892 27.9032 61.4981 28.3394 60.4702 28.6708L60.5044 16.7253C61.5324 16.394 62.5235 15.9577 63.4621 15.4235C65.3915 14.3269 65.6572 12.8883 66.2165 11.3594C66.4104 10.8398 66.215 8.61663 66.2165 8.06201L67.5456 9.25507Z"
        fill="#0A6190" stroke="#0A6190" stroke-linejoin="round" />
    <path
        d="M38.127 23.5991L38.1612 11.6536C38.1597 12.1635 38.2422 12.6701 38.4054 13.1532C38.9159 14.6821 40.8617 16.0055 42.7545 17.1021C44.833 18.3038 47.4102 19.0281 50.3337 19.2406L50.2995 31.1861C47.3687 30.9736 44.1377 30.3326 42.0568 29.1261C40.164 28.0295 38.8817 26.6276 38.3712 25.0987C38.208 24.6156 38.1254 24.1089 38.127 23.5991Z"
        fill="#0A6190" stroke="#0A6190" stroke-linejoin="round" />
    <path d="M56.8798 23.0818V26.3792L51.1094 31.7299L51.1436 19.7844L56.8798 23.0818Z"
        fill="#0A6190" stroke="#0A6190" stroke-linejoin="round" />
    <path
        d="M56.0554 40.2115L56.8797 50.9281C56.8797 50.9281 51.9336 44.3333 43.6901 43.5089C35.4466 42.6846 29.9126 47.2821 29.9126 47.2821L29.9126 34.8033L44.5145 33.6167L56.0554 40.2115Z"
        fill="#0A6190" stroke="#0A6190" stroke-linejoin="round" />
    <path
        d="M30.4913 34.8027L30.4571 46.7482C29.7926 47.4059 29.0446 47.9733 28.2322 48.4359C26.3271 49.5472 23.9019 50.3067 21.2593 50.634C18.6351 50.9506 15.9757 50.8093 13.3998 50.2164C11.8544 49.8692 10.3678 49.299 8.98652 48.5238C8.38889 48.183 7.82535 47.7855 7.30371 47.3369C5.81388 46.0473 5.0201 44.5257 5.02987 42.9675L5.0641 31.022C5.0641 32.5802 5.84567 34.1018 7.33794 35.3913C7.85957 35.8399 8.423 36.2374 9.02063 36.5783C10.4019 37.3535 11.8886 37.9236 13.434 38.2709C16.0099 38.8638 18.6692 39.0051 21.2934 38.6885C23.9336 38.3734 26.3614 37.6114 28.2664 36.4904C29.0788 36.0278 29.8269 35.4604 30.4913 34.8027Z"
        fill="#0A6190" stroke="#0A6190" stroke-linejoin="round" />
    <path
        d="M59.7197 41.8264L60.8625 53.8211C55.8325 52.8151 56.8385 49.7971 52.3115 46.7792L55.9268 37.3643C56.3103 39.0568 57.6437 40.6248 59.7197 41.8264Z"
        fill="#0A6190" stroke="#0A6190" stroke-linejoin="round" />
    <path
        d="M80.7397 34.8491L80.7055 46.7946C80.7055 46.8923 80.7055 46.99 80.7055 47.0877C80.5736 49.0782 79.1448 50.9735 76.7073 52.39C74.2699 53.8066 71.002 54.6419 67.5632 54.7249C64.1244 54.808 60.7759 54.1339 58.1821 52.8394L58.2164 40.8939C60.8101 42.1884 64.1611 42.8625 67.5974 42.7794C71.0338 42.6964 74.3017 41.8611 76.7416 40.4445C79.1815 39.028 80.6078 37.1327 80.7397 35.1422C80.7373 35.0445 80.7397 34.9468 80.7397 34.8491Z"
        fill="#0A6190" stroke="#0A6190" stroke-linejoin="round" />
    <path
        d="M47.7919 18.2074L47.8001 18.2099L47.8085 18.2122C52.4161 19.4938 55.8132 20.7768 57.1737 23.4214L57.2194 23.5101L57.3439 23.5708L57.3439 23.5708L57.3439 23.5709L57.3439 23.5709L57.3439 23.5709L57.3439 23.5709L57.3439 23.5709L57.344 23.5709L57.344 23.5709L57.344 23.5709L57.344 23.5709L57.344 23.5709L57.3441 23.5709L57.3441 23.5709L57.3441 23.571L57.3441 23.571L57.3441 23.571L57.3442 23.571L57.3442 23.571L57.3442 23.571L57.3442 23.571L57.3442 23.571L57.3442 23.571L57.3442 23.571L57.3443 23.571L57.3443 23.571L57.3443 23.5711L57.3443 23.5711L57.3443 23.5711L57.3443 23.5711L57.3444 23.5711L57.3444 23.5711L57.3444 23.5711L57.3444 23.5711L57.3444 23.5711L57.3445 23.5711L57.3445 23.5711L57.3445 23.5712L57.3445 23.5712L57.3446 23.5712L57.3446 23.5712L57.3446 23.5712L57.3446 23.5712L57.3447 23.5712L57.3447 23.5712L57.3447 23.5713L57.3447 23.5713L57.3448 23.5713L57.3448 23.5713L57.3448 23.5713L57.3449 23.5713L57.3449 23.5713L57.3449 23.5714L57.3449 23.5714L57.345 23.5714L57.345 23.5714L57.345 23.5714L57.3451 23.5714L57.3451 23.5715L57.3451 23.5715L57.3452 23.5715L57.3452 23.5715L57.3453 23.5715L57.3453 23.5715L57.3453 23.5716L57.3454 23.5716L57.3454 23.5716L57.3455 23.5716L57.3455 23.5716L57.3455 23.5717L57.3456 23.5717L57.3456 23.5717L57.3457 23.5717L57.3457 23.5717L57.3458 23.5718L57.3458 23.5718L57.3459 23.5718L57.3459 23.5718L57.3459 23.5719L57.346 23.5719L57.346 23.5719L57.3461 23.5719L57.3461 23.572L57.3462 23.572L57.3463 23.572L57.3463 23.572L57.3464 23.5721L57.3464 23.5721L57.3465 23.5721L57.3465 23.5721L57.3466 23.5722L57.3467 23.5722L57.3467 23.5722L57.3468 23.5723L57.3468 23.5723L57.3469 23.5723L57.347 23.5724L57.347 23.5724L57.3471 23.5724L57.3472 23.5724L57.3472 23.5725L57.3473 23.5725L57.3474 23.5725L57.3474 23.5726L57.3475 23.5726L57.3476 23.5726L57.3476 23.5727L57.3477 23.5727L57.3478 23.5728L57.3479 23.5728L57.3479 23.5728L57.348 23.5729L57.3481 23.5729L57.3482 23.5729L57.3483 23.573L57.3483 23.573L57.3484 23.5731L57.3485 23.5731L57.3486 23.5731L57.3487 23.5732L57.3488 23.5732L57.3488 23.5733L57.3489 23.5733L57.349 23.5734L57.3491 23.5734L57.3492 23.5734L57.3493 23.5735L57.3494 23.5735L57.3495 23.5736L57.3496 23.5736L57.3497 23.5737L57.3498 23.5737L57.3499 23.5738L57.35 23.5738L57.3501 23.5739L57.3502 23.5739L57.3503 23.574L57.3504 23.574L57.3505 23.5741L57.3506 23.5741L57.3507 23.5742L57.3508 23.5742L57.3509 23.5743L57.351 23.5743L57.3511 23.5744L57.3512 23.5744L57.3514 23.5745L57.3515 23.5746L57.3516 23.5746L57.3517 23.5747L57.3518 23.5747L57.352 23.5748L57.3521 23.5748L57.3522 23.5749L57.3523 23.575L57.3524 23.575L57.3526 23.5751L57.3527 23.5751L57.3528 23.5752L57.353 23.5753L57.3531 23.5753L57.3532 23.5754L57.3534 23.5755L57.3535 23.5755L57.3536 23.5756L57.3538 23.5757L57.3539 23.5757L57.354 23.5758L57.3542 23.5759L57.3543 23.5759L57.3545 23.576L57.3546 23.5761L57.3548 23.5762C59.627 27.9951 52.1586 32.4826 43.8038 31.7184L43.8036 31.7183L43.8028 31.7179L43.8021 31.7176L43.8013 31.7172L43.8006 31.7168L43.7998 31.7165L43.7991 31.7161L43.7983 31.7157L43.7975 31.7153L43.7968 31.715L43.796 31.7146L43.7952 31.7142L43.7945 31.7138L43.7937 31.7135L43.7929 31.7131L43.6684 31.6524L43.5006 31.637C38.5026 31.1795 35.7926 29.485 32.9604 27.1388C30.7638 25.2276 27.8249 23.3359 22.9768 22.8722C18.0209 22.3458 13.0188 23.3848 9.56005 25.1605L9.56002 25.1605L9.55458 25.1634C7.54487 26.2185 6.09076 27.5505 5.47422 29.1418L6.08157 29.1935L5.47421 29.1418C4.86802 30.7065 4.92253 32.1935 5.94752 33.574C7.55645 35.95 11.3235 37.7853 16.2578 38.3106L16.2606 38.3109C20.8505 38.7871 25.307 37.6086 28.9419 36.3048C33.5555 34.6906 37.3681 33.6637 42.3694 34.2557L42.3833 34.2574L42.3974 34.2587C47.3954 34.7162 50.1055 36.4107 52.9377 38.7569C55.1343 40.6681 58.0731 42.5598 62.9212 43.0235C67.8771 43.5499 72.8792 42.5109 76.338 40.7352L76.3573 40.7253L76.3752 40.7146L76.3767 40.7137L76.3781 40.7128L76.3796 40.7119L76.3811 40.711L76.3826 40.7101L76.3841 40.7092L76.3855 40.7083L76.387 40.7074L76.3885 40.7066L76.39 40.7057L76.3914 40.7048L76.3929 40.7039L76.3943 40.703L76.3958 40.7022L76.3973 40.7013L76.3987 40.7004L76.4002 40.6995L76.4016 40.6987L76.403 40.6978L76.4045 40.697L76.4059 40.6961L76.4073 40.6952L76.4088 40.6944L76.4102 40.6935L76.4116 40.6926L76.4131 40.6918L76.4145 40.6909L76.4159 40.6901L76.4173 40.6892L76.4187 40.6884L76.4201 40.6875L76.4215 40.6867L76.4229 40.6859L76.4244 40.685L76.4258 40.6842L76.4271 40.6833L76.4285 40.6825L76.4299 40.6817L76.4313 40.6808L76.4327 40.68L76.4341 40.6792L76.4355 40.6783L76.4369 40.6775L76.4382 40.6767L76.4396 40.6758L76.441 40.675L76.4424 40.6742L76.4437 40.6734L76.4451 40.6725L76.4465 40.6717L76.4478 40.6709L76.4492 40.6701L76.4505 40.6693L76.4519 40.6685L76.4532 40.6676L76.4546 40.6668L76.4559 40.666L76.4573 40.6652L76.4586 40.6644L76.46 40.6636L76.4613 40.6628L76.4626 40.662L76.464 40.6612L76.4653 40.6604L76.4666 40.6596L76.468 40.6588L76.4693 40.658L76.4706 40.6572L76.4719 40.6564L76.4733 40.6556L76.4746 40.6548L76.4759 40.654L76.4772 40.6533L76.4785 40.6525L76.4798 40.6517L76.4811 40.6509L76.4824 40.6501L76.4837 40.6493L76.485 40.6485L76.4863 40.6478L76.4876 40.647L76.4889 40.6462L76.4902 40.6454L76.4915 40.6447L76.4928 40.6439L76.4941 40.6431L76.4954 40.6423L76.4966 40.6416L76.4979 40.6408L76.4992 40.64L76.5005 40.6393L76.5018 40.6385L76.503 40.6377L76.5043 40.637L76.5056 40.6362L76.5068 40.6354L76.5081 40.6347L76.5094 40.6339L76.5106 40.6332L76.5119 40.6324L76.5131 40.6317L76.5144 40.6309L76.5157 40.6301L76.5169 40.6294L76.5182 40.6286L76.5194 40.6279L76.5207 40.6271L76.5219 40.6264L76.5232 40.6256L76.5244 40.6249L76.5256 40.6241L76.5269 40.6234L76.5281 40.6227L76.5294 40.6219L76.5306 40.6212L76.5318 40.6204L76.533 40.6197L76.5343 40.619L76.5355 40.6182L76.5367 40.6175L76.538 40.6167L76.5392 40.616L76.5404 40.6153L76.5416 40.6145L76.5428 40.6138L76.5441 40.6131L76.5453 40.6123L76.5465 40.6116L76.5477 40.6109L76.5489 40.6102L76.5501 40.6094L76.5513 40.6087L76.5525 40.608L76.5538 40.6073L76.555 40.6065L76.5562 40.6058L76.5574 40.6051L76.5586 40.6044L76.5598 40.6036L76.561 40.6029L76.5622 40.6022L76.5634 40.6015L76.5645 40.6008L76.5657 40.6001L76.5669 40.5993L76.5681 40.5986L76.5693 40.5979L76.5705 40.5972L76.5717 40.5965L76.5729 40.5958L76.5741 40.5951L76.5752 40.5943L76.5764 40.5936L76.5776 40.5929L76.5788 40.5922L76.58 40.5915L76.5811 40.5908L76.5823 40.5901L76.5835 40.5894L76.5847 40.5887L76.5858 40.588L76.587 40.5873L76.5882 40.5866L76.5893 40.5859L76.5905 40.5852L76.5917 40.5845L76.5928 40.5838L76.594 40.5831L76.5952 40.5824L76.5963 40.5817L76.5975 40.581L76.5987 40.5803L76.5998 40.5796L76.601 40.5789L76.6021 40.5782L76.6033 40.5775L76.6045 40.5768L76.6056 40.5761L76.6068 40.5754L76.6079 40.5747L76.6091 40.574L76.6102 40.5733L76.6114 40.5726L76.6125 40.5719L76.6137 40.5712L76.6148 40.5706L76.616 40.5699L76.6171 40.5692L76.6183 40.5685L76.6194 40.5678L76.6206 40.5671L76.6217 40.5664L76.6228 40.5657L76.624 40.5651L76.6251 40.5644L76.6263 40.5637L76.6274 40.563L76.6286 40.5623L76.6297 40.5616L76.6308 40.5609L76.632 40.5603L76.6331 40.5596L76.6342 40.5589L76.6354 40.5582L76.6365 40.5575L76.6377 40.5568L76.6388 40.5562L76.6399 40.5555L76.6411 40.5548L76.6422 40.5541L76.6433 40.5534L76.6445 40.5528L76.6456 40.5521L76.6467 40.5514L76.6478 40.5507L76.649 40.55L76.6501 40.5494L76.6512 40.5487L76.6524 40.548L76.6535 40.5473L76.6546 40.5466L76.6557 40.546L76.6569 40.5453L76.658 40.5446L76.6591 40.5439L76.6603 40.5433L76.6614 40.5426L76.6625 40.5419L76.6636 40.5412L76.6648 40.5406L76.6659 40.5399L76.667 40.5392L76.6681 40.5385L76.6692 40.5379L76.6704 40.5372L76.6715 40.5365L76.6726 40.5358L76.6737 40.5352L76.6749 40.5345L76.676 40.5338L76.6771 40.5331L76.6782 40.5325L76.6794 40.5318L76.6805 40.5311L76.6816 40.5304L76.6827 40.5298L76.6838 40.5291L76.685 40.5284L76.6861 40.5277L76.6872 40.5271L76.6883 40.5264L76.6894 40.5257L76.6906 40.5251L76.6917 40.5244L76.6928 40.5237L76.6939 40.523L76.695 40.5224L76.6962 40.5217L76.6973 40.521L76.6984 40.5203L76.6995 40.5197L76.7006 40.519L76.7018 40.5183L76.7029 40.5176L76.704 40.517L76.7051 40.5163L76.7063 40.5156L76.7074 40.515L76.7085 40.5143L76.7096 40.5136L76.7107 40.5129L76.7119 40.5123L76.713 40.5116L76.7141 40.5109L76.7152 40.5102L76.7164 40.5096L76.7175 40.5089L76.7186 40.5082L76.7197 40.5075L76.7208 40.5069L76.722 40.5062L76.7231 40.5055L76.7242 40.5048L76.7253 40.5042L76.7265 40.5035L76.7276 40.5028L76.7287 40.5021L76.7298 40.5014L76.731 40.5008L76.7321 40.5001L76.7332 40.4994L76.7344 40.4987L76.7355 40.4981L76.7366 40.4974L76.7377 40.4967L76.7389 40.496L76.74 40.4953L76.7411 40.4947L76.7423 40.494L76.7434 40.4933L76.7445 40.4926L76.7457 40.4919L76.7468 40.4913L76.7479 40.4906L76.7491 40.4899L76.7502 40.4892L76.7513 40.4885L76.7525 40.4879L76.7536 40.4872L76.7547 40.4865L76.7559 40.4858L76.757 40.4851L76.7582 40.4844L76.7593 40.4838L76.7604 40.4831L76.7616 40.4824L76.7627 40.4817L76.7639 40.481L76.765 40.4803L76.7661 40.4796L76.7673 40.479L76.7684 40.4783L76.7696 40.4776L76.7707 40.4769L76.7719 40.4762L76.773 40.4755L76.7742 40.4748L76.7753 40.4741L76.7765 40.4734L76.7776 40.4727L76.7788 40.472L76.7799 40.4714L76.7811 40.4707L76.7822 40.47L76.7834 40.4693L76.7845 40.4686L76.7857 40.4679L76.7869 40.4672L76.788 40.4665L76.7892 40.4658L76.7903 40.4651L76.7915 40.4644L76.7927 40.4637L76.7938 40.463L76.795 40.4623L76.7962 40.4616L76.7973 40.4609L76.7985 40.4602L76.7997 40.4595L76.8008 40.4588L76.802 40.4581L76.8032 40.4574L76.8044 40.4567L76.8055 40.456L76.8067 40.4553L76.8079 40.4546L76.8091 40.4538L76.8102 40.4531L76.8114 40.4524L76.8126 40.4517L76.8138 40.451L76.815 40.4503L76.8162 40.4496L76.8173 40.4489L76.8185 40.4482L76.8197 40.4474L76.8209 40.4467L76.8221 40.446L76.8233 40.4453L76.8245 40.4446L76.8257 40.4439L76.8269 40.4431L76.8281 40.4424L76.8293 40.4417L76.8305 40.441L76.8317 40.4403L76.8329 40.4395L76.8341 40.4388L76.8353 40.4381L76.8365 40.4374L76.8377 40.4366L76.8389 40.4359L76.8401 40.4352L76.8414 40.4344L76.8426 40.4337L76.8438 40.433L76.845 40.4323L76.8462 40.4315L76.8474 40.4308L76.8487 40.4301L76.8499 40.4293L76.8511 40.4286L76.8523 40.4278L76.8536 40.4271L76.8548 40.4264L76.856 40.4256L76.8573 40.4249L76.8585 40.4241L76.8597 40.4234L76.861 40.4227L76.8622 40.4219L76.8635 40.4212L76.8647 40.4204L76.8659 40.4197L76.8672 40.4189L76.8684 40.4182L76.8697 40.4174L76.8709 40.4167L76.8722 40.4159L76.8734 40.4152L76.8747 40.4144L76.876 40.4137L76.8772 40.4129L76.8785 40.4121L76.8797 40.4114L76.881 40.4106L76.8823 40.4099L76.8835 40.4091L76.8848 40.4083L76.8861 40.4076L76.8874 40.4068L76.8886 40.406L76.8899 40.4053L76.8912 40.4045L76.8925 40.4037L76.8938 40.403L76.8951 40.4022L76.8963 40.4014L76.8976 40.4006L76.8989 40.3999L76.9002 40.3991L76.9015 40.3983L76.9028 40.3975L76.9041 40.3967L76.9054 40.396L76.9067 40.3952L76.908 40.3944L76.9093 40.3936L76.9106 40.3928L76.912 40.392L76.9133 40.3912L76.9146 40.3904L76.9159 40.3897L76.9172 40.3889L76.9186 40.3881L76.9199 40.3873L76.9212 40.3865L76.9225 40.3857L76.9239 40.3849L76.9252 40.3841L76.9265 40.3833L76.9279 40.3825L76.9292 40.3817L76.9306 40.3808L76.9319 40.38L76.9333 40.3792L76.9346 40.3784L76.936 40.3776L76.9373 40.3768L76.9387 40.376L76.94 40.3752L76.9414 40.3743L76.9428 40.3735L76.9441 40.3727L76.9455 40.3719L76.9469 40.3711L76.9482 40.3702L76.9496 40.3694L76.951 40.3686L76.9524 40.3677L76.9537 40.3669L76.9551 40.3661L76.9565 40.3652L76.9579 40.3644L76.9593 40.3636L76.9607 40.3627L76.9621 40.3619L76.9635 40.3611L76.9649 40.3602L76.9663 40.3594L76.9677 40.3585L76.9691 40.3577L76.9705 40.3568L76.972 40.356L76.9734 40.3551L76.9748 40.3543L76.9762 40.3534L76.9776 40.3526L76.9791 40.3517L76.9805 40.3508L76.9819 40.35L76.9834 40.3491L76.9848 40.3483L76.9863 40.3474L76.9877 40.3465L76.9891 40.3456L76.9906 40.3448L76.992 40.3439L76.9935 40.343L76.995 40.3422L76.9964 40.3413L76.9979 40.3404L76.9994 40.3395L77.0008 40.3386L77.0023 40.3377L77.0038 40.3369L77.0053 40.336L77.0067 40.3351L77.0082 40.3342L77.0097 40.3333L77.0112 40.3324L77.0127 40.3315L77.0142 40.3306L77.0157 40.3297L77.0172 40.3288L77.0186 40.3279L77.0201 40.327L77.0216 40.3261L77.0231 40.3253L77.0245 40.3244L77.026 40.3235L77.0275 40.3226L77.0289 40.3217L77.0304 40.3209L77.0319 40.32L77.0333 40.3191L77.0348 40.3182L77.0362 40.3174L77.0377 40.3165L77.0391 40.3156L77.0406 40.3148L77.042 40.3139L77.0434 40.313L77.0449 40.3122L77.0463 40.3113L77.0477 40.3104L77.0492 40.3096L77.0506 40.3087L77.052 40.3079L77.0534 40.307L77.0548 40.3062L77.0563 40.3053L77.0577 40.3045L77.0591 40.3036L77.0605 40.3028L77.0619 40.3019L77.0633 40.3011L77.0647 40.3003L77.0661 40.2994L77.0675 40.2986L77.0689 40.2978L77.0702 40.2969L77.0716 40.2961L77.073 40.2953L77.0744 40.2944L77.0758 40.2936L77.0771 40.2928L77.0785 40.2919L77.0799 40.2911L77.0813 40.2903L77.0826 40.2895L77.084 40.2887L77.0853 40.2878L77.0867 40.287L77.0881 40.2862L77.0894 40.2854L77.0908 40.2846L77.0921 40.2838L77.0935 40.283L77.0948 40.2822L77.0962 40.2813L77.0975 40.2805L77.0988 40.2797L77.1002 40.2789L77.1015 40.2781L77.1028 40.2773L77.1042 40.2765L77.1055 40.2757L77.1068 40.2749L77.1081 40.2741L77.1095 40.2734L77.1108 40.2726L77.1121 40.2718L77.1134 40.271L77.1147 40.2702L77.116 40.2694L77.1173 40.2686L77.1187 40.2678L77.12 40.267L77.1213 40.2663L77.1226 40.2655L77.1239 40.2647L77.1252 40.2639L77.1264 40.2631L77.1277 40.2624L77.129 40.2616L77.1303 40.2608L77.1316 40.26L77.1329 40.2593L77.1342 40.2585L77.1355 40.2577L77.1367 40.257L77.138 40.2562L77.1393 40.2554L77.1406 40.2547L77.1418 40.2539L77.1431 40.2531L77.1444 40.2524L77.1456 40.2516L77.1469 40.2509L77.1482 40.2501L77.1494 40.2493L77.1507 40.2486L77.1519 40.2478L77.1532 40.2471L77.1544 40.2463L77.1557 40.2456L77.1569 40.2448L77.1582 40.2441L77.1594 40.2433L77.1607 40.2426L77.1619 40.2418L77.1632 40.2411L77.1644 40.2403L77.1656 40.2396L77.1669 40.2389L77.1681 40.2381L77.1693 40.2374L77.1706 40.2366L77.1718 40.2359L77.173 40.2352L77.1743 40.2344L77.1755 40.2337L77.1767 40.2329L77.1779 40.2322L77.1792 40.2315L77.1804 40.2307L77.1816 40.23L77.1828 40.2293L77.184 40.2286L77.1852 40.2278L77.1864 40.2271L77.1877 40.2264L77.1889 40.2256L77.1901 40.2249L77.1913 40.2242L77.1925 40.2235L77.1937 40.2227L77.1949 40.222L77.1961 40.2213L77.1973 40.2206L77.1985 40.2199L77.1997 40.2191L77.2009 40.2184L77.2021 40.2177L77.2033 40.217L77.2045 40.2163L77.2056 40.2156L77.2068 40.2148L77.208 40.2141L77.2092 40.2134L77.2104 40.2127L77.2116 40.212L77.2128 40.2113L77.2139 40.2106L77.2151 40.2099L77.2163 40.2092L77.2175 40.2084L77.2187 40.2077L77.2198 40.207L77.221 40.2063L77.2222 40.2056L77.2234 40.2049L77.2245 40.2042L77.2257 40.2035L77.2269 40.2028L77.228 40.2021L77.2292 40.2014L77.2304 40.2007L77.2315 40.2L77.2327 40.1993L77.2339 40.1986L77.235 40.1979L77.2362 40.1972L77.2374 40.1965L77.2385 40.1958L77.2397 40.1951L77.2408 40.1944L77.242 40.1937L77.2431 40.193L77.2443 40.1923L77.2454 40.1916L77.2466 40.191L77.2478 40.1903L77.2489 40.1896L77.2501 40.1889L77.2512 40.1882L77.2524 40.1875L77.2535 40.1868L77.2546 40.1861L77.2558 40.1854L77.2569 40.1847L77.2581 40.184L77.2592 40.1834L77.2604 40.1827L77.2615 40.182L77.2627 40.1813L77.2638 40.1806L77.2649 40.1799L77.2661 40.1792L77.2672 40.1786L77.2684 40.1779L77.2695 40.1772L77.2706 40.1765L77.2718 40.1758L77.2729 40.1751L77.274 40.1745L77.2752 40.1738L77.2763 40.1731L77.2774 40.1724L77.2786 40.1717L77.2797 40.1711L77.2808 40.1704L77.282 40.1697L77.2831 40.169L77.2842 40.1683L77.2854 40.1677L77.2865 40.167L77.2876 40.1663L77.2888 40.1656L77.2899 40.1649L77.291 40.1643L77.2921 40.1636L77.2933 40.1629L77.2944 40.1622L77.2955 40.1616L77.2967 40.1609L77.2978 40.1602L77.2989 40.1595L77.3 40.1588L77.3012 40.1582L77.3023 40.1575L77.3034 40.1568L77.3045 40.1561L77.3057 40.1555L77.3068 40.1548L77.3079 40.1541L77.309 40.1534L77.3101 40.1528L77.3113 40.1521L77.3124 40.1514L77.3135 40.1507L77.3146 40.1501L77.3158 40.1494L77.3169 40.1487L77.318 40.1481L77.3191 40.1474L77.3202 40.1467L77.3214 40.146L77.3225 40.1454L77.3236 40.1447L77.3247 40.144L77.3258 40.1433L77.327 40.1427L77.3281 40.142L77.3292 40.1413L77.3303 40.1406L77.3315 40.14L77.3326 40.1393L77.3337 40.1386L77.3348 40.1379L77.3359 40.1373L77.3371 40.1366L77.3382 40.1359L77.3393 40.1353L77.3404 40.1346L77.3415 40.1339L77.3427 40.1332L77.3438 40.1326L77.3449 40.1319L77.346 40.1312L77.3471 40.1305L77.3483 40.1299L77.3494 40.1292L77.3505 40.1285L77.3516 40.1278L77.3528 40.1272L77.3539 40.1265L77.355 40.1258L77.3561 40.1251L77.3572 40.1245L77.3584 40.1238L77.3595 40.1231L77.3606 40.1224L77.3617 40.1218L77.3629 40.1211L77.364 40.1204L77.3651 40.1197L77.3662 40.1191L77.3674 40.1184L77.3685 40.1177L77.3696 40.117L77.3708 40.1164L77.3719 40.1157L77.373 40.115L77.3741 40.1143L77.3753 40.1136L77.3764 40.113L77.3775 40.1123L77.3787 40.1116L77.3798 40.1109L77.3809 40.1102L77.3821 40.1096L77.3832 40.1089L77.3843 40.1082L77.3855 40.1075L77.3866 40.1068L77.3877 40.1062L77.3889 40.1055L77.39 40.1048L77.3911 40.1041L77.3923 40.1034L77.3934 40.1027L77.3945 40.1021L77.3957 40.1014L77.3968 40.1007L77.398 40.1L77.3991 40.0993L77.4002 40.0986L77.4014 40.0979L77.4025 40.0973L77.4037 40.0966L77.4048 40.0959L77.406 40.0952L77.4071 40.0945L77.4083 40.0938L77.4094 40.0931L77.4105 40.0924L77.4117 40.0918L77.4128 40.0911L77.414 40.0904L77.4151 40.0897L77.4163 40.089L77.4175 40.0883L77.4186 40.0876L77.4198 40.0869L77.4209 40.0862L77.4221 40.0855L77.4232 40.0848L77.4244 40.0841L77.4256 40.0834L77.4267 40.0827L77.4279 40.082L77.429 40.0813L77.4302 40.0806L77.4314 40.0799L77.4325 40.0792L77.4337 40.0785L77.4349 40.0778L77.436 40.0771L77.4372 40.0764L77.4384 40.0757L77.4395 40.075L77.4407 40.0743L77.4419 40.0736L77.4431 40.0729L77.4442 40.0722L77.4454 40.0715L77.4466 40.0708L77.4478 40.0701L77.449 40.0694L77.4501 40.0687L77.4513 40.0679L77.4525 40.0672L77.4537 40.0665L77.4549 40.0658L77.4561 40.0651L77.4573 40.0644L77.4584 40.0637L77.4596 40.0629L77.4608 40.0622L77.462 40.0615L77.4632 40.0608L77.4644 40.0601L77.4656 40.0594L77.4668 40.0586L77.468 40.0579L77.4692 40.0572L77.4704 40.0565L77.4716 40.0557L77.4728 40.055L77.474 40.0543L77.4752 40.0536L77.4765 40.0528L77.4777 40.0521L77.4789 40.0514L77.4801 40.0507L77.4813 40.0499L77.4825 40.0492L77.4837 40.0485L77.485 40.0477L77.4862 40.047L77.4874 40.0463L77.4886 40.0455L77.4899 40.0448L77.4911 40.044L77.4923 40.0433L77.4936 40.0426L77.4948 40.0418L77.496 40.0411L77.4973 40.0403L77.4985 40.0396L77.4997 40.0389L77.501 40.0381L77.5022 40.0374L77.5035 40.0366L77.5047 40.0359L77.506 40.0351L77.5072 40.0344L77.5085 40.0336L77.5097 40.0329L77.511 40.0321L77.5122 40.0313L77.5135 40.0306L77.5147 40.0298L77.516 40.0291L77.5173 40.0283L77.5185 40.0276L77.5198 40.0268L77.5211 40.026L77.5223 40.0253L77.5236 40.0245L77.5249 40.0237L77.5262 40.023L77.5274 40.0222L77.5287 40.0214L77.53 40.0207L77.5313 40.0199L77.5326 40.0191L77.5339 40.0183L77.5352 40.0176L77.5365 40.0168L77.5377 40.016L77.539 40.0152L77.5403 40.0145L77.5416 40.0137L77.5429 40.0129L77.5442 40.0121L77.5456 40.0113L77.5469 40.0105L77.5482 40.0097L77.5495 40.009L77.5508 40.0082L77.5521 40.0074L77.5534 40.0066L77.5548 40.0058L77.5561 40.005L77.5574 40.0042L77.5587 40.0034L77.5601 40.0026L77.5614 40.0018L77.5627 40.001L77.5641 40.0002L77.5654 39.9994L77.5667 39.9986L77.5681 39.9978L77.5694 39.997L77.5708 39.9962L77.5721 39.9954L77.5735 39.9945L77.5748 39.9937L77.5762 39.9929L77.5776 39.9921L77.5789 39.9913L77.5803 39.9905L77.5816 39.9896L77.583 39.9888L77.5844 39.988L77.5858 39.9872L77.5871 39.9863L77.5885 39.9855L77.5899 39.9847L77.5913 39.9839L77.5927 39.983L77.594 39.9822L77.5954 39.9813L77.5968 39.9805L77.5982 39.9797L77.5996 39.9788L77.601 39.978L77.6024 39.9771L77.6038 39.9763L77.6052 39.9755L77.6067 39.9746L77.6081 39.9738L77.6095 39.9729L77.6109 39.9721L77.6123 39.9712L77.6137 39.9704L77.6152 39.9695L77.6166 39.9686L77.618 39.9678L77.6195 39.9669L77.6209 39.9661L77.6223 39.9652L77.6238 39.9643L77.6252 39.9635L77.6267 39.9626L77.6281 39.9617L77.6296 39.9608L77.631 39.96L77.6325 39.9591L77.634 39.9582L77.6354 39.9573L77.6369 39.9564L77.6384 39.9556L77.6398 39.9547L77.6413 39.9538L77.6428 39.9529L77.6443 39.952L77.6457 39.9511L77.6472 39.9502L77.6487 39.9493L77.6502 39.9484L77.6588 39.9433L77.667 39.938C80.8665 37.863 81.9704 35.0648 80.4928 32.4623C79.1418 30.0431 75.3566 28.657 71.6401 27.5391L71.6319 27.5366L71.6235 27.5343C67.0159 26.2526 63.6187 24.9696 62.2582 22.3251C60.8906 19.6665 62.1479 17.5036 64.6191 14.8678C66.6457 12.7659 68.2025 10.3305 66.9928 7.84269L66.9815 7.81944L66.9641 7.79751C65.0987 5.44927 61.3544 3.61726 56.8205 2.99953C54.3348 2.66086 51.471 2.71381 48.6378 3.20655C45.7816 3.70329 43.4875 4.62304 41.7586 5.81269C38.564 7.88722 37.4626 10.6834 38.9392 13.2841C40.2902 15.7033 44.0754 17.0895 47.7919 18.2074Z"
        fill="#5CC3C9" stroke="#0A6190" />
</svg>