<svg width="16" height="16" viewBox="0 0 16 16" fill="none" xmlns="http://www.w3.org/2000/svg">
<g clip-path="url(#clip0)">
<path d="M0.165912 4.80469L7.48858 13.1187C7.55491 13.1879 7.63455 13.2429 7.72271 13.2805C7.81087 13.3182 7.90573 13.3375 8.00158 13.3375C8.09743 13.3375 8.19228 13.3182 8.28044 13.2805C8.3686 13.2429 8.44825 13.1879 8.51458 13.1187L15.8339 4.80469C15.8925 4.73874 15.9371 4.66169 15.9653 4.57813C15.9935 4.49456 16.0046 4.40619 15.9979 4.31825C15.9913 4.23031 15.967 4.14461 15.9266 4.06624C15.8861 3.98787 15.8304 3.91842 15.7626 3.86203L14.5292 2.82403C14.3917 2.70808 14.2141 2.65085 14.0348 2.6647C13.8554 2.67854 13.6887 2.76234 13.5706 2.89803L8.12724 9.20003C8.1116 9.21821 8.09221 9.2328 8.07041 9.2428C8.0486 9.2528 8.0249 9.25798 8.00091 9.25798C7.97692 9.25798 7.95322 9.2528 7.93141 9.2428C7.90961 9.2328 7.89022 9.21821 7.87458 9.20003L2.42925 2.89736C2.31104 2.7623 2.14427 2.6794 1.96525 2.66669C1.87648 2.65878 1.78703 2.66874 1.70218 2.69599C1.61733 2.72325 1.5388 2.76723 1.47125 2.82536L0.237246 3.86202C0.16906 3.91832 0.112905 3.98776 0.0721305 4.06622C0.0313556 4.14467 0.00679484 4.23054 -8.7773e-05 4.31869C-0.0067612 4.40672 0.00451098 4.49518 0.0330454 4.57872C0.0615799 4.66226 0.106782 4.73914 0.165912 4.80469Z" fill="#C4D3DF"/>
</g>
<defs>
<clipPath id="clip0">
<rect width="16" height="16" fill="white"/>
</clipPath>
</defs>
</svg>
