<svg width="320" height="134" viewBox="0 0 320 134" fill="none" xmlns="http://www.w3.org/2000/svg">
    <path fill-rule="evenodd" clip-rule="evenodd" d="M305.557 42.3487L328.863 55.8034L305.557 69.2579L282.251 55.8033L305.557 42.3487ZM305.557 41.3488L282.245 27.891L305.985 14.1861L305.119 13.6861L281.379 27.391L258.073 13.9362L281.813 0.231371L280.947 -0.268599L257.207 13.4363L233.9 -0.0187897L257.64 -13.7237L256.774 -14.2236L233.034 -0.518752L209.728 -13.9734L233.468 -27.6783L232.602 -28.1783L208.862 -14.4733L185.555 -27.9281L209.295 -41.633L208.429 -42.133L184.689 -28.4281L161.383 -41.8828L185.123 -55.5878L184.257 -56.0877L160.517 -42.3827L137.205 -55.8406L160.945 -69.5455L160.079 -70.0455L136.339 -56.3406L113.033 -69.7951L136.773 -83.5L135.907 -84L112.167 -70.295L88.4277 -84L87.5616 -83.5L111.301 -69.7951L87.9954 -56.3405L64.2558 -70.0454L63.3897 -69.5454L87.1293 -55.8406L63.8176 -42.3827L40.0779 -56.0876L39.2118 -55.5876L62.9515 -41.8827L39.6454 -28.4281L15.906 -42.1329L15.04 -41.6329L38.7794 -27.9281L15.473 -14.4734L-8.26646 -28.1781L-9.1325 -27.6782L14.6069 -13.9734L-8.69966 -0.518486L-32.4394 -14.2235L-33.3055 -13.7235L-9.5657 -0.0185161L-32.8718 13.4361L-56.6113 -0.268791L-57.4774 0.231179L-33.7378 13.936L-57.0443 27.3909L-80.7839 13.686L-81.65 14.186L-57.9104 27.8908L-81.2221 41.3487L-104.962 27.6438L-105.828 28.1438L-82.0882 41.8487L-105.394 55.3034L-129.134 41.5985L-130 42.0985L-106.26 55.8033L-130 69.508L-129.134 70.008L-105.394 56.3033L-82.0885 69.7578L-105.828 83.4625L-104.962 83.9625L-81.2224 70.2578L-57.9107 83.7157L-81.6499 97.4203L-80.7838 97.9203L-57.0446 84.2156L-33.7384 97.6703L-57.4777 111.375L-56.6117 111.875L-32.8723 98.1703L-9.56596 111.625L-33.3053 125.33L-32.4392 125.83L-8.69992 112.125L14.6062 125.58L-9.13323 139.284L-8.26718 139.784L15.4722 126.08L38.7791 139.535L15.0396 153.239L15.9057 153.739L39.6451 140.035L62.9515 153.489L39.2122 167.194L40.0782 167.694L63.8176 153.989L87.1292 167.447L63.3901 181.152L64.2561 181.652L87.9953 167.947L111.301 181.402L87.562 195.107L88.428 195.607L112.167 181.902L135.907 195.607L136.773 195.107L113.033 181.402L136.34 167.947L160.079 181.652L160.945 181.152L137.206 167.447L160.518 153.989L184.257 167.694L185.123 167.194L161.384 153.489L184.69 140.034L208.43 153.739L209.296 153.239L185.556 139.534L208.862 126.08L232.601 139.785L233.467 139.285L209.728 125.58L233.035 112.125L256.774 125.83L257.64 125.33L233.901 111.625L257.207 98.1703L280.947 111.875L281.813 111.375L258.073 97.6703L281.379 84.2157L305.119 97.9204L305.985 97.4204L282.245 83.7157L305.557 70.2579L329.297 83.9626L330.163 83.4626L306.423 69.7579L329.729 56.3033L353.469 70.008L354.335 69.508L330.595 55.8034L354.335 42.0985L353.469 41.5985L329.729 55.3034L306.423 41.8488L330.163 28.1438L329.297 27.6438L305.557 41.3488ZM-104.528 55.8033L-81.2224 69.2578L-57.9162 55.8032L-81.2221 42.3487L-104.528 55.8033ZM-80.3561 41.8487L-57.0502 55.3032L-33.7384 41.8453L-57.0443 28.3908L-80.3561 41.8487ZM-56.1783 27.8909L-32.8724 41.3454L-9.56583 27.8905L-32.8718 14.436L-56.1783 27.8909ZM-32.0057 13.936L-8.69979 27.3905L14.6062 13.936L-8.69966 0.481446L-32.0057 13.936ZM-7.83362 -0.0185237L15.4723 13.436L38.7789 -0.0189202L15.473 -13.4734L-7.83362 -0.0185237ZM16.339 -13.9734L39.6449 -0.518882L62.9514 -13.9737L39.6454 -27.4282L16.339 -13.9734ZM40.5115 -27.9281L63.8174 -14.4736L87.1235 -27.9282L63.8176 -41.3828L40.5115 -27.9281ZM64.6836 -41.8827L87.9895 -28.4282L111.301 -41.8861L87.9954 -55.3406L64.6836 -41.8827ZM88.8614 -55.8406L112.167 -42.3861L135.473 -55.8406L112.167 -69.2951L88.8614 -55.8406ZM113.033 -41.8861L136.339 -55.3406L159.651 -41.8828L136.345 -28.4282L113.033 -41.8861ZM88.8556 -27.9282L112.167 -41.3861L135.479 -27.9282L112.167 -14.4704L88.8556 -27.9282ZM64.6834 -13.9737L87.9895 -27.4283L111.301 -13.9704L87.9952 -0.5158L64.6834 -13.9737ZM40.511 -0.0189126L63.8174 -13.4737L87.1292 -0.0158378L63.8227 13.439L40.511 -0.0189126ZM16.3383 13.936L39.6449 0.481049L62.9567 13.9389L39.6501 27.3938L16.3383 13.936ZM-7.83375 27.8905L15.4723 14.4359L38.784 27.8938L15.478 41.3484L-7.83375 27.8905ZM-32.0063 41.8453L-8.69978 28.3905L14.612 41.8483L-8.69458 55.3032L-32.0063 41.8453ZM-56.1841 55.8032L-32.8724 42.3453L-9.56062 55.8032L-32.8724 69.261L-56.1841 55.8032ZM-80.3564 69.7578L-57.0502 56.3031L-33.7384 69.761L-57.0446 83.2157L-80.3564 69.7578ZM-56.1786 83.7157L-32.8723 97.1703L-9.56612 83.7157L-32.8724 70.261L-56.1786 83.7157ZM-32.0063 69.761L-8.70007 83.2157L14.6117 69.7578L-8.69457 56.3031L-32.0063 69.761ZM-7.82854 55.8032L15.4777 69.2579L38.7843 55.803L15.478 42.3483L-7.82854 55.8032ZM16.344 41.8483L39.6503 55.303L62.9563 41.8485L39.6501 28.3938L16.344 41.8483ZM40.5161 27.8938L63.8224 41.3485L87.129 27.8936L63.8227 14.4389L40.5161 27.8938ZM64.6888 13.9389L87.995 27.3936L111.301 13.9388L87.9952 0.484132L64.6888 13.9389ZM88.8612 -0.0158301L112.167 13.4389L135.474 -0.0157384L112.167 -13.4704L88.8612 -0.0158301ZM113.033 -13.9704L136.34 -0.515708L159.651 -13.9736L136.345 -27.4283L113.033 -13.9704ZM137.211 -27.9283L160.517 -14.4735L183.823 -27.9281L160.517 -41.3828L137.211 -27.9283ZM161.383 -13.9736L184.689 -27.4281L207.996 -13.9734L184.69 -0.518813L161.383 -13.9736ZM137.206 -0.015746L160.517 -13.4736L183.824 -0.0188357L160.512 13.439L137.206 -0.015746ZM113.034 13.9388L136.34 0.484231L159.646 13.939L136.34 27.3936L113.034 13.9388ZM88.8611 27.8936L112.167 14.4388L135.474 27.8936L112.167 41.3484L88.8611 27.8936ZM64.6884 41.8485L87.995 28.3935L111.301 41.8483L87.9948 55.3032L64.6884 41.8485ZM40.5163 55.803L63.8224 42.3484L87.1288 55.8032L63.8227 69.2578L40.5163 55.803ZM16.3437 69.7578L39.6503 56.303L62.9567 69.7577L39.6501 83.2126L16.3437 69.7578ZM-7.83403 83.7157L15.4777 70.2578L38.7841 83.7126L15.4723 97.1704L-7.83403 83.7157ZM-32.0063 97.6703L-8.70007 84.2156L14.6063 97.6704L-8.69992 111.125L-32.0063 97.6703ZM-7.83388 111.625L15.4722 125.08L38.7784 111.625L15.4723 98.1704L-7.83388 111.625ZM16.3384 97.6704L39.6445 111.125L62.9562 97.6671L39.6501 84.2125L16.3384 97.6704ZM40.5162 83.7126L63.8222 97.1672L87.1288 83.7123L63.8227 70.2577L40.5162 83.7126ZM64.6888 69.7577L87.9949 83.2123L111.301 69.7578L87.9948 56.3032L64.6888 69.7577ZM88.8609 55.8032L112.167 69.2578L135.474 55.8029L112.167 42.3483L88.8609 55.8032ZM113.033 41.8483L136.34 55.3029L159.646 41.8481L136.34 28.3935L113.033 41.8483ZM137.206 27.8936L160.512 41.3482L183.818 27.8936L160.512 14.439L137.206 27.8936ZM161.378 13.939L184.684 27.3936L207.996 13.9357L184.69 0.481126L161.378 13.939ZM185.556 -0.018851L208.862 13.4358L232.168 -0.0187974L208.862 -13.4734L185.556 -0.018851ZM209.728 13.9357L233.034 0.481172L256.341 13.9362L233.035 27.3908L209.728 13.9357ZM185.55 27.8936L208.862 14.4357L232.169 27.8907L208.857 41.3486L185.55 27.8936ZM161.378 41.8481L184.684 28.3935L207.991 41.8486L184.685 55.3032L161.378 41.8481ZM137.206 55.8029L160.512 42.3481L183.819 55.8031L160.512 69.258L137.206 55.8029ZM113.033 69.7578L136.34 56.3029L159.646 69.7579L136.34 83.2128L113.033 69.7578ZM88.8609 83.7123L112.167 70.2577L135.474 83.7128L112.168 97.1674L88.8609 83.7123ZM64.6883 97.6671L87.9948 84.2123L111.302 97.6673L87.9952 111.122L64.6883 97.6671ZM40.5105 111.625L63.8223 98.1671L87.1291 111.622L63.8174 125.08L40.5105 111.625ZM16.3382 125.58L39.6445 112.125L62.9513 125.58L39.6451 139.035L16.3382 125.58ZM40.5112 139.535L63.8176 152.989L87.1238 139.535L63.8174 126.08L40.5112 139.535ZM64.6834 125.58L87.9899 139.035L111.302 125.577L87.9952 112.122L64.6834 125.58ZM88.8612 111.622L112.168 125.077L135.474 111.622L112.168 98.1673L88.8612 111.622ZM113.034 97.6673L136.34 111.122L159.646 97.6676L136.34 84.2128L113.034 97.6673ZM137.206 83.7128L160.512 97.1676L183.819 83.7127L160.513 70.2579L137.206 83.7128ZM161.379 69.7579L184.685 83.2127L207.991 69.7579L184.685 56.3031L161.379 69.7579ZM185.551 55.8032L208.857 69.258L232.164 55.8034L208.857 42.3486L185.551 55.8032ZM209.723 41.8486L233.03 55.3034L256.341 41.8455L233.035 28.3907L209.723 41.8486ZM233.901 27.8907L257.207 41.3455L280.513 27.891L257.207 14.4362L233.901 27.8907ZM258.073 41.8455L281.379 28.391L304.691 41.8488L281.385 55.3033L258.073 41.8455ZM233.896 55.8033L257.207 42.3455L280.519 55.8033L257.207 69.2612L233.896 55.8033ZM209.723 69.7579L233.03 56.3033L256.341 69.7611L233.035 83.2157L209.723 69.7579ZM185.551 83.7127L208.857 70.2579L232.169 83.7157L208.863 97.1705L185.551 83.7127ZM161.378 97.6676L184.685 84.2126L207.997 97.6705L184.69 111.125L161.378 97.6676ZM137.206 111.622L160.512 98.1675L183.824 111.625L160.518 125.08L137.206 111.622ZM113.034 125.577L136.34 112.122L159.652 125.58L136.345 139.035L113.034 125.577ZM88.8559 139.535L112.168 126.077L135.479 139.535L112.168 152.993L88.8559 139.535ZM64.6836 153.489L87.9899 140.035L111.302 153.493L87.9953 166.947L64.6836 153.489ZM88.8613 167.447L112.167 180.902L135.474 167.447L112.168 153.993L88.8613 167.447ZM113.034 153.493L136.34 166.947L159.651 153.489L136.345 140.035L113.034 153.493ZM137.211 139.535L160.517 152.989L183.824 139.534L160.518 126.08L137.211 139.535ZM161.384 125.58L184.69 139.035L207.996 125.58L184.69 112.125L161.384 125.58ZM185.556 111.625L208.862 125.08L232.169 111.625L208.863 98.1704L185.556 111.625ZM209.729 97.6705L233.035 111.125L256.341 97.6703L233.035 84.2157L209.729 97.6705ZM233.901 83.7157L257.207 97.1703L280.513 83.7157L257.207 70.2611L233.901 83.7157ZM258.073 69.7611L281.379 83.2158L304.691 69.7579L281.385 56.3033L258.073 69.7611Z" fill="url(#paint0_radial_1722_12172)"/>
    <defs>
    <radialGradient id="paint0_radial_1722_12172" cx="0" cy="0" r="1" gradientUnits="userSpaceOnUse" gradientTransform="translate(182.5 72) rotate(180) scale(176.5 52.0326)">
    <stop stop-color="#7AC4FF"/>
    <stop offset="1" stop-color="#7AD1FF" stop-opacity="0"/>
    </radialGradient>
    </defs>
    </svg>
