<svg width="236" height="236" viewBox="0 0 236 236" fill="none" xmlns="http://www.w3.org/2000/svg">
<path d="M56.5025 125.678L56.5025 138.961C56.5025 148.06 62.4635 157.232 74.2421 164.148C98.0146 178.197 136.726 178.197 160.714 164.148C172.851 157.159 178.812 147.842 178.812 138.597L179.372 125.663C179.372 134.908 172.78 143.804 160.714 150.865C136.726 164.914 98.0146 164.914 74.2421 150.865C62.4636 143.877 56.5025 134.777 56.5025 125.678Z" fill="#51A6B1" stroke="#1A1B1D" stroke-linejoin="round"/>
<path d="M56.6007 126.111C56.545 106.469 83.9853 90.4685 117.89 90.3724C151.795 90.2763 179.326 106.121 179.382 125.763C179.437 145.405 151.997 161.406 118.092 161.502C84.1869 161.598 56.6564 145.753 56.6007 126.111Z" fill="#C3F8FB" stroke="#1A1B1D"/>
<path opacity="0.2" d="M162.697 119.785C169.419 123.661 169.454 129.938 162.697 133.831L130.233 152.695C126.474 154.607 122.317 155.603 118.1 155.603C113.883 155.603 109.725 154.607 105.967 152.695L73.2798 133.831C66.5744 129.955 66.523 123.678 73.2798 119.785L105.761 100.92C109.517 99.0093 113.671 98.0131 117.885 98.0131C122.099 98.0131 126.254 99.0093 130.01 100.92L162.697 119.785Z" fill="#4C99A4"/>
<path fill-rule="evenodd" clip-rule="evenodd" d="M68.1646 89.7346V117.689C68.1646 120.223 69.8176 122.774 73.2239 124.723L73.2238 124.754L105.928 143.635L105.996 115.682L73.3096 96.8004L73.3094 96.8679V96.8003C69.8795 94.8796 68.1646 92.2898 68.1646 89.7346Z" fill="#5CC3C9"/>
<path d="M68.6646 89.7346C68.6646 89.4584 68.4407 89.2346 68.1646 89.2346C67.8884 89.2346 67.6646 89.4584 67.6646 89.7346H68.6646ZM73.2239 124.723L73.7239 124.724C73.7245 124.544 73.6284 124.378 73.4722 124.289L73.2239 124.723ZM73.2238 124.754L72.7238 124.752C72.7233 124.932 72.8187 125.097 72.9738 125.187L73.2238 124.754ZM105.928 143.635L105.678 144.068C105.832 144.158 106.023 144.158 106.177 144.069C106.332 143.98 106.427 143.815 106.428 143.637L105.928 143.635ZM105.996 115.682L106.496 115.683C106.497 115.504 106.401 115.339 106.246 115.249L105.996 115.682ZM73.3096 96.8004L73.5597 96.3674C73.4052 96.2782 73.2149 96.278 73.0603 96.367C72.9057 96.4559 72.8101 96.6205 72.8096 96.7989L73.3096 96.8004ZM73.3094 96.8679H72.8094C72.8094 97.1437 73.0328 97.3674 73.3086 97.3679C73.5845 97.3683 73.8085 97.1452 73.8094 96.8694L73.3094 96.8679ZM73.3094 96.8003H73.8094C73.8094 96.6193 73.7116 96.4525 73.5537 96.3641L73.3094 96.8003ZM68.6646 117.689V89.7346H67.6646V117.689H68.6646ZM73.4722 124.289C70.1603 122.394 68.6646 119.983 68.6646 117.689H67.6646C67.6646 120.463 69.4748 123.154 72.9756 125.157L73.4722 124.289ZM73.7238 124.755L73.7239 124.724L72.7239 124.721L72.7238 124.752L73.7238 124.755ZM106.178 143.202L73.4738 124.321L72.9738 125.187L105.678 144.068L106.178 143.202ZM105.496 115.681L105.428 143.634L106.428 143.637L106.496 115.683L105.496 115.681ZM73.0595 97.2334L105.746 116.115L106.246 115.249L73.5597 96.3674L73.0595 97.2334ZM73.8094 96.8694L73.8096 96.8019L72.8096 96.7989L72.8094 96.8663L73.8094 96.8694ZM72.8094 96.8003V96.8679H73.8094V96.8003H72.8094ZM67.6646 89.7346C67.6646 92.5333 69.5406 95.2629 73.0651 97.2366L73.5537 96.3641C70.2183 94.4963 68.6646 92.0463 68.6646 89.7346H67.6646Z" fill="#0A6190"/>
<path fill-rule="evenodd" clip-rule="evenodd" d="M167.695 89.941V117.895C167.695 120.429 166.042 122.98 162.636 124.929L162.636 124.96L129.932 143.842L129.864 115.888L162.55 97.0067L162.551 97.0066V97.0067C165.98 95.0859 167.695 92.4962 167.695 89.941Z" fill="#C3F8FB"/>
<path d="M167.195 89.941C167.195 89.6648 167.419 89.441 167.695 89.441C167.971 89.441 168.195 89.6648 168.195 89.941H167.195ZM162.636 124.929L162.136 124.93C162.136 124.75 162.232 124.584 162.388 124.495L162.636 124.929ZM162.636 124.96L163.136 124.959C163.137 125.138 163.042 125.304 162.886 125.393L162.636 124.96ZM129.932 143.842L130.182 144.275C130.028 144.364 129.838 144.364 129.683 144.275C129.528 144.186 129.433 144.021 129.432 143.843L129.932 143.842ZM129.864 115.888L129.364 115.889C129.363 115.71 129.459 115.545 129.614 115.455L129.864 115.888ZM162.55 97.0067L162.898 97.3667C162.868 97.3949 162.836 97.4194 162.801 97.4397L162.55 97.0067ZM162.551 97.0066L162.204 96.6466C162.348 96.5074 162.562 96.468 162.746 96.5464C162.931 96.6249 163.051 96.806 163.051 97.0066H162.551ZM162.551 97.0067L162.795 97.4429C162.64 97.5296 162.451 97.5278 162.298 97.438C162.145 97.3483 162.051 97.1841 162.051 97.0067H162.551ZM167.195 117.895V89.941H168.195V117.895H167.195ZM162.388 124.495C165.7 122.6 167.195 120.189 167.195 117.895H168.195C168.195 120.669 166.385 123.36 162.885 125.363L162.388 124.495ZM162.136 124.962L162.136 124.93L163.136 124.927L163.136 124.959L162.136 124.962ZM129.682 143.409L162.386 124.527L162.886 125.393L130.182 144.275L129.682 143.409ZM130.364 115.887L130.432 143.84L129.432 143.843L129.364 115.889L130.364 115.887ZM162.801 97.4397L130.114 116.321L129.614 115.455L162.3 96.5738L162.801 97.4397ZM162.898 97.3665L162.898 97.3667L162.203 96.6468L162.204 96.6466L162.898 97.3665ZM162.051 97.0067V97.0066H163.051V97.0067H162.051ZM168.195 89.941C168.195 92.7397 166.319 95.4692 162.795 97.4429L162.306 96.5704C165.642 94.7026 167.195 92.2527 167.195 89.941H168.195Z" fill="#0A6190"/>
<path d="M162.641 82.7718C169.363 86.6476 169.397 92.925 162.641 96.8179L130.177 115.682C126.418 117.594 122.26 118.59 118.043 118.59C113.827 118.59 109.669 117.594 105.91 115.682L73.2237 96.8179C66.5182 92.9421 66.4668 86.6647 73.2237 82.7718L105.705 63.9074C109.461 61.9963 113.615 61.0001 117.829 61.0001C122.043 61.0001 126.198 61.9963 129.954 63.9074L162.641 82.7718Z" fill="white" stroke="#0A6190" stroke-linejoin="round"/>
<path d="M130.262 115.682V143.635C126.509 145.555 122.353 146.555 118.138 146.555C113.922 146.555 109.767 145.555 106.013 143.635V115.781C109.77 117.689 113.924 118.585 118.138 118.585C122.351 118.585 126.506 117.591 130.262 115.682Z" fill="#5CC3C9" stroke="#0A6190" stroke-linejoin="round"/>
<path d="M127.172 71.6054C122.064 68.6565 113.782 68.6565 108.674 71.6054L80.1345 88.0813C78.4319 89.0643 78.4319 90.658 80.1345 91.6409L108.674 108.117C113.782 111.066 122.064 111.066 127.172 108.117L155.712 91.6409C157.414 90.658 157.414 89.0643 155.712 88.0813L127.172 71.6054Z" fill="#C3F8FB" stroke="#0A6190"/>
<path fill-rule="evenodd" clip-rule="evenodd" d="M112.877 69.1793C115.664 67.5704 120.183 67.5704 122.97 69.1793L156.272 88.4046C157.665 89.209 157.665 90.5134 156.272 91.3178L151.608 94.0103L120.447 76.0208C119.053 75.2164 116.794 75.2164 115.4 76.0208L84.2388 94.0103L79.5749 91.3178C78.1814 90.5134 78.1814 89.209 79.5749 88.4046L112.877 69.1793Z" fill="#5CC3C9"/>
<path d="M122.97 69.1793L123.22 68.7463V68.7463L122.97 69.1793ZM112.877 69.1793L113.127 69.6123V69.6123L112.877 69.1793ZM156.272 88.4046L156.522 87.9715L156.272 88.4046ZM156.272 91.3178L156.022 90.8848L156.272 91.3178ZM151.608 94.0103L151.358 94.4433L151.608 94.5876L151.858 94.4433L151.608 94.0103ZM120.447 76.0208L120.696 75.5878L120.447 76.0208ZM115.4 76.0208L115.15 75.5878L115.4 76.0208ZM84.2388 94.0103L83.9888 94.4433L84.2388 94.5876L84.4888 94.4433L84.2388 94.0103ZM79.5749 91.3178L79.8249 90.8848H79.8249L79.5749 91.3178ZM79.5749 88.4046L79.8249 88.8376H79.8249L79.5749 88.4046ZM123.22 68.7463C121.732 67.8876 119.814 67.4726 117.923 67.4726C116.032 67.4726 114.114 67.8876 112.627 68.7463L113.127 69.6123C114.427 68.8621 116.161 68.4726 117.923 68.4726C119.685 68.4726 121.42 68.8621 122.72 69.6123L123.22 68.7463ZM156.522 87.9715L123.22 68.7463L122.72 69.6123L156.022 88.8376L156.522 87.9715ZM156.522 91.7509C157.31 91.296 157.817 90.63 157.817 89.8612C157.817 89.0924 157.31 88.4264 156.522 87.9715L156.022 88.8376C156.627 89.1872 156.817 89.5756 156.817 89.8612C156.817 90.1468 156.627 90.5352 156.022 90.8848L156.522 91.7509ZM151.858 94.4433L156.522 91.7509L156.022 90.8848L151.358 93.5773L151.858 94.4433ZM151.858 93.5773L120.696 75.5878L120.197 76.4539L151.358 94.4433L151.858 93.5773ZM120.696 75.5878C119.906 75.1314 118.901 74.9175 117.923 74.9175C116.946 74.9175 115.941 75.1314 115.15 75.5878L115.65 76.4539C116.253 76.1058 117.075 75.9175 117.923 75.9175C118.772 75.9175 119.594 76.1058 120.197 76.4539L120.696 75.5878ZM115.15 75.5878L83.9888 93.5773L84.4888 94.4433L115.65 76.4539L115.15 75.5878ZM79.3249 91.7509L83.9888 94.4433L84.4888 93.5773L79.8249 90.8848L79.3249 91.7509ZM79.3249 87.9715C78.5371 88.4264 78.0298 89.0924 78.0298 89.8612C78.0298 90.63 78.5371 91.296 79.3249 91.7509L79.8249 90.8848C79.2192 90.5352 79.0298 90.1468 79.0298 89.8612C79.0298 89.5756 79.2192 89.1872 79.8249 88.8376L79.3249 87.9715ZM112.627 68.7463L79.3249 87.9715L79.8249 88.8376L113.127 69.6123L112.627 68.7463Z" fill="#0A6190"/>
<path d="M117.377 82.3733L138.61 95.1393L125.818 101.871L112.421 101.785M117.377 82.3733L97.1382 94.0584L112.421 101.785M117.377 82.3733L122.454 93.4568L112.421 101.785" stroke="#0A6190"/>
<circle cx="117.254" cy="83.2278" r="3.61296" transform="rotate(15 117.254 83.2278)" fill="#5CC3C9"/>
<path opacity="0.5" fill-rule="evenodd" clip-rule="evenodd" d="M120.807 82.5668C120.162 83.7336 118.784 84.3574 117.438 83.9968C115.853 83.5721 114.913 81.943 115.338 80.358C115.359 80.2769 115.384 80.1975 115.412 80.1198C114.628 80.5842 114.019 81.3434 113.764 82.2928C113.248 84.2202 114.392 86.2013 116.319 86.7177C118.247 87.2342 120.228 86.0904 120.744 84.163C120.888 83.6241 120.903 83.0809 120.807 82.5668Z" fill="#51A6B1"/>
<circle cx="117.254" cy="83.2278" r="3.11296" transform="rotate(15 117.254 83.2278)" stroke="#0A6190"/>
<circle cx="137.505" cy="95.1202" r="3.61296" transform="rotate(15 137.505 95.1202)" fill="#5CC3C9"/>
<path opacity="0.5" fill-rule="evenodd" clip-rule="evenodd" d="M141.112 95.3497C140.241 96.0686 139.048 96.3698 137.874 96.0553C136.182 95.602 135.094 94.0198 135.203 92.3361C134.644 92.7977 134.218 93.4316 134.016 94.1852C133.499 96.1126 134.643 98.0937 136.571 98.6102C138.498 99.1266 140.479 97.9828 140.996 96.0554C141.059 95.82 141.097 95.5839 141.112 95.3497Z" fill="#51A6B1"/>
<circle cx="137.505" cy="95.1202" r="3.11296" transform="rotate(15 137.505 95.1202)" stroke="#0A6190"/>
<circle cx="97.6838" cy="93.9243" r="2.76662" transform="rotate(15 97.6838 93.9243)" fill="#51A6B1"/>
<circle cx="97.6838" cy="93.9243" r="2.26662" transform="rotate(15 97.6838 93.9243)" stroke="#0A6190"/>
<circle cx="125.617" cy="101.682" r="3.61296" transform="rotate(15 125.617 101.682)" fill="#5CC3C9"/>
<path opacity="0.5" fill-rule="evenodd" clip-rule="evenodd" d="M129.231 101.663C128.349 102.605 126.99 103.042 125.656 102.685C124.048 102.254 122.985 100.802 122.978 99.2136C122.585 99.6331 122.286 100.153 122.127 100.747C121.611 102.674 122.754 104.655 124.682 105.172C126.609 105.688 128.59 104.544 129.107 102.617C129.192 102.298 129.232 101.978 129.231 101.663Z" fill="#51A6B1"/>
<circle cx="125.617" cy="101.682" r="3.11296" transform="rotate(15 125.617 101.682)" stroke="#0A6190"/>
<circle cx="112.155" cy="101.921" r="2.67961" transform="rotate(15 112.155 101.921)" fill="#51A6B1"/>
<circle cx="112.155" cy="101.921" r="2.17961" transform="rotate(15 112.155 101.921)" stroke="#0A6190"/>
<circle cx="122.166" cy="93.3582" r="2.67961" transform="rotate(15 122.166 93.3582)" fill="#51A6B1"/>
<circle cx="122.166" cy="93.3582" r="2.17961" transform="rotate(15 122.166 93.3582)" stroke="#0A6190"/>
</svg>
