<svg width="166" height="137" viewBox="0 0 166 137" fill="none" xmlns="http://www.w3.org/2000/svg">
    <g clip-path="url(#clip0_1165_12099)">
        <circle opacity="0.35" cx="4.01108" cy="4.01108" r="4.01108"
            transform="matrix(0.807351 0.590072 -0.914723 0.404081 136.578 58.5703)" fill="#4C99A4" />
        <path
            d="M145.908 13.4745C143.625 11.8061 139.678 11.3798 137.092 12.5223C135.797 13.0944 135.088 13.9514 134.99 14.8741L130.903 52.7163C130.531 56.1593 133.021 59.2519 136.464 59.6237C139.907 59.9956 143 57.5059 143.371 54.0629L147.458 16.2207C147.56 15.2984 147.051 14.3099 145.908 13.4745Z"
            fill="#8FE3E8" />
        <path
            d="M135.744 14.954L135.744 14.9555L131.657 52.7977C131.33 55.8243 133.519 58.5428 136.545 58.8697L136.464 59.6237C133.021 59.2519 130.531 56.1593 130.903 52.7163L134.99 14.8741C135.088 13.9514 135.797 13.0944 137.092 12.5223C138.385 11.951 140.018 11.772 141.614 11.9443L141.532 12.6984C140.034 12.5366 138.541 12.7113 137.398 13.2161C136.249 13.7237 135.804 14.3967 135.744 14.954Z"
            fill="url(#paint0_linear_1165_12099)" fill-opacity="0.5" />
        <path
            d="M134.56 35.9627C136.843 37.6311 140.79 38.0574 143.376 36.9149C144.612 36.3692 145.313 35.5644 145.46 34.6907L143.372 54.0627C143 57.5057 139.907 59.9954 136.464 59.6236C133.021 59.2517 130.532 56.1591 130.903 52.7161L132.866 34.54L133.004 33.2814C132.932 34.1849 133.444 35.1468 134.56 35.9627Z"
            fill="#5CC3C9" />
        <path fill-rule="evenodd" clip-rule="evenodd"
            d="M130.99 51.9114L130.903 52.7178C130.532 56.1608 133.021 59.2534 136.464 59.6252C139.907 59.9971 143 57.5074 143.372 54.0644L145.46 34.6924C145.313 35.5661 144.611 36.3709 143.376 36.9166C142.225 37.4253 140.803 37.623 139.379 37.5384L138.42 46.429C138.048 49.872 134.956 52.3617 131.513 51.9898C131.336 51.9707 131.162 51.9445 130.99 51.9114Z"
            fill="#C3F8FB" />
        <path fill-rule="evenodd" clip-rule="evenodd"
            d="M131.636 56.3991C132.518 57.0762 133.591 57.5274 134.777 57.6555C138.22 58.0273 141.312 55.5377 141.684 52.0947L145.771 14.2524C145.805 13.9417 145.77 13.6234 145.665 13.3061C145.748 13.3608 145.829 13.417 145.908 13.4748C147.051 14.3102 147.56 15.2987 147.458 16.221L143.371 54.0632C143 57.5062 139.907 59.9959 136.464 59.624C134.345 59.3952 132.588 58.1361 131.636 56.3991Z"
            fill="#5DB3BF" />
        <path
            d="M143.376 36.915C140.79 38.0575 136.842 37.6312 134.56 35.9629C132.277 34.2945 132.523 32.0158 135.109 30.8733C137.696 29.7308 141.643 30.1571 143.926 31.8255C146.208 33.4939 145.962 35.7725 143.376 36.915Z"
            fill="#5CC3C9" />
        <path
            d="M143.146 36.3953C141.966 36.9168 140.438 37.0926 138.915 36.9281C137.392 36.7637 135.937 36.2656 134.895 35.5041C133.85 34.7405 133.504 33.93 133.574 33.2819C133.644 32.6339 134.155 31.916 135.339 31.3931C136.52 30.8716 138.048 30.6958 139.57 30.8603C141.093 31.0247 142.548 31.5227 143.59 32.2842C144.635 33.0479 144.982 33.8584 144.912 34.5065C144.842 35.1545 144.33 35.8723 143.146 36.3953Z"
            fill="#5DB3BF" stroke="#0A6191" stroke-width="1.13636" />
        <path
            d="M135.386 48.2857C135.202 48.4336 134.933 48.4046 134.785 48.2208C134.637 48.037 134.666 47.7681 134.85 47.6202C135.034 47.4722 135.303 47.5013 135.451 47.6851C135.598 47.8689 135.569 48.1377 135.386 48.2857Z"
            fill="#F5F7FA" fill-opacity="0.5" stroke="#151E29" stroke-width="1.13636" />
        <path
            d="M139.366 45.0851C139.06 45.3315 138.612 45.2831 138.365 44.9771C138.119 44.6711 138.167 44.2234 138.473 43.977C138.779 43.7307 139.227 43.779 139.474 44.0851C139.72 44.391 139.672 44.8388 139.366 45.0851Z"
            fill="#F5F7FA" fill-opacity="0.5" stroke="#151E29" stroke-width="0.568182" />
        <path
            d="M139.827 52.5796C139.358 52.9575 138.671 52.8833 138.293 52.4139C137.915 51.9445 137.989 51.2576 138.459 50.8797C138.928 50.5018 139.615 50.576 139.993 51.0455C140.371 51.5149 140.297 52.2017 139.827 52.5796Z"
            fill="#F5F7FA" fill-opacity="0.5" stroke="#151E29" stroke-width="0.426136" />
        <path d="M137.152 17.1244L133.38 52.0469C133.197 53.7436 133.751 55.3499 134.786 56.5463"
            stroke="white" stroke-opacity="0.3" stroke-width="1.13636" stroke-linecap="round"
            stroke-linejoin="round" />
        <path
            d="M147.464 15.8127C147.476 15.9553 147.473 16.0971 147.457 16.2374M147.457 16.2374C147.349 17.1508 146.642 17.9978 145.358 18.5649C142.772 19.7074 138.825 19.2811 136.542 17.6128C135.449 16.8136 134.935 15.8743 134.982 14.9869L134.916 15.5632L134.874 15.9509L134.64 18.1205L130.903 52.7173C130.531 56.1603 133.021 59.2528 136.464 59.6247C139.907 59.9965 143 57.5069 143.372 54.0639L147.31 17.5972L147.354 17.1869L147.457 16.2374Z"
            stroke="#151E29" stroke-width="1.13636" />
        <ellipse cx="5.11945" cy="5.11944" rx="5.11945" ry="5.11944"
            transform="matrix(0.807351 0.590072 -0.914723 0.404081 141.774 10.4541)" fill="#8FE3E8" />
        <path
            d="M144.899 18.2292C142.6 19.2449 139.091 18.8659 137.062 17.3827C135.032 15.8995 135.251 13.8737 137.55 12.858C139.85 11.8423 143.359 12.2213 145.388 13.7045C147.417 15.1877 147.198 17.2135 144.899 18.2292Z"
            stroke="#F5F7FA" stroke-opacity="0.5" stroke-width="1.13636" />
        <path fill-rule="evenodd" clip-rule="evenodd"
            d="M146.986 17.3631C146.74 16.8339 146.297 16.314 145.652 15.8428C143.37 14.1744 139.423 13.7481 136.836 14.8906C136.106 15.2133 135.562 15.6267 135.209 16.0914C134.585 14.7469 135.236 13.3421 137.092 12.5223C139.678 11.3798 143.625 11.8061 145.908 13.4744C147.546 14.6715 147.882 16.1828 146.986 17.3631Z"
            fill="#F5F7FA" fill-opacity="0.5" />
        <path
            d="M145.358 18.5639C142.772 19.7064 138.825 19.2801 136.542 17.6118C134.26 15.9434 134.506 13.6648 137.092 12.5223C139.678 11.3798 143.625 11.8061 145.908 13.4744C148.191 15.1428 147.945 17.4215 145.358 18.5639Z"
            stroke="#151E29" stroke-width="1.13636" />
        <path
            d="M153.889 64.6567L149.972 66.9046L149.819 124.026L149.805 124.034C149.805 125.851 149.156 127.124 148.106 127.729L152.014 125.486C153.069 124.883 153.722 123.609 153.722 121.786L153.889 64.6567Z"
            fill="#8FE3E8" stroke="#151E29" stroke-width="1.42045" stroke-linejoin="round" />
        <path
            d="M62.189 12.0192L62.0144 12.1198H62.0005C62.0619 12.0839 62.1248 12.0503 62.189 12.0192Z"
            fill="#C3F8FB" />
        <path
            d="M70.0711 10.2694C68.4459 9.35104 66.9873 9.2688 65.9177 9.87189L62.189 12.0192C63.1433 11.5565 64.3978 11.6234 65.7818 12.3173L144.138 56.9403L148.055 54.7061L70.0711 10.2694Z"
            fill="#C3F8FB" />
        <path
            d="M62.189 12.0192L62.0144 12.1198H62.0005C62.0619 12.0839 62.1248 12.0503 62.189 12.0192ZM62.189 12.0192L65.9177 9.87189C66.9873 9.2688 68.4459 9.35104 70.0711 10.2694L148.055 54.7061L144.138 56.9403L65.7818 12.3173C64.3978 11.6234 63.1433 11.5565 62.189 12.0192Z"
            stroke="#151E29" stroke-width="1.42045" stroke-linejoin="round" />
        <path
            d="M144.138 56.9399C147.36 58.7765 149.986 63.2449 149.972 66.9045L149.805 124.034C149.805 127.693 147.166 129.174 143.929 127.337L65.9595 82.9138C62.7368 81.0771 60.1392 76.6088 60.1392 72.9491L60.3059 15.8201C60.3059 12.1605 62.9451 10.6801 66.1678 12.5168L144.138 56.9399Z"
            fill="#D4E7F8" stroke="#151E29" stroke-width="1.42045" stroke-linejoin="round" />
        <path
            d="M144.138 56.9403L148.055 54.6924C151.278 56.5291 153.903 60.9974 153.889 64.6571L149.972 66.9049C149.972 63.2453 147.36 58.7769 144.138 56.9403Z"
            fill="#C3F8FB" stroke="#151E29" stroke-width="1.42045" stroke-linejoin="round" />
        <path fill-rule="evenodd" clip-rule="evenodd"
            d="M139.66 117.826C139.661 114.729 141.88 113.478 144.571 115.004L144.568 70.2649C141.876 68.7386 139.656 64.9688 139.656 61.8716C139.656 61.8155 139.657 61.76 139.658 61.7051L70.901 22.6804C70.8999 25.7757 68.6808 27.0264 65.9903 25.5006C65.9903 25.5006 65.9903 25.5006 65.9903 25.5005L65.9937 70.2402C65.9937 70.2402 65.9937 70.2402 65.9937 70.2402C68.6849 71.7664 70.905 75.5362 70.9052 78.6335C70.9052 78.6899 70.9045 78.7457 70.9031 78.8009L139.66 117.826Z"
            fill="#F5F7FA" />
        <path
            d="M70.4716 79.8455C69.8994 79.5195 69.4248 78.7188 69.4248 78.0495C69.4246 75.6284 67.7002 72.6714 65.5601 71.4522C64.9879 71.1262 64.5133 70.3254 64.5133 69.6561L64.5099 24.8915C64.5098 24.2222 64.9844 23.9621 65.5566 24.2881C67.6966 25.5073 69.4207 24.5148 69.4206 22.0938C69.4205 21.4245 69.895 21.1644 70.4672 21.4904L139.222 60.6593C139.498 60.8163 139.764 61.0923 139.96 61.4286C140.157 61.7653 140.269 62.1349 140.269 62.4554C140.269 64.8764 141.994 67.8335 144.134 69.0527C144.706 69.3787 145.181 70.1794 145.181 70.8487L145.184 115.613C145.184 116.283 144.71 116.543 144.137 116.217C141.997 114.998 140.273 115.99 140.274 118.411C140.274 119.08 139.799 119.341 139.227 119.015L70.4716 79.8455ZM66.6035 27.1793L66.6067 69.7537C69.0536 71.6426 70.9885 74.9436 71.4256 77.9896L138.273 116.072C138.709 113.523 140.644 112.427 143.091 113.325L143.087 70.7512C140.64 68.8623 138.705 65.5613 138.268 62.5153L71.4215 24.4335C70.9849 26.9817 69.0503 28.0783 66.6035 27.1793Z"
            fill="#C3F8FB" stroke="#02507B" stroke-width="1.42045" stroke-linejoin="round" />
        <mask id="path-26-outside-1_1165_12099" maskUnits="userSpaceOnUse" x="70.9233" y="44.2041"
            width="43" height="44" fill="black">
            <rect fill="white" x="70.9233" y="44.2041" width="43" height="44" />
            <path fill-rule="evenodd" clip-rule="evenodd"
                d="M74.1127 46.3085C73.731 46.0911 73.2452 46.2242 73.0278 46.6059C72.8103 46.9877 72.9435 47.4734 73.3252 47.6909L100.034 62.9065C100.416 63.124 100.901 62.9908 101.119 62.6091C101.336 62.2274 101.203 61.7416 100.821 61.5242L74.1127 46.3085ZM74.1127 53.9164C73.731 53.699 73.2452 53.8321 73.0278 54.2138C72.8103 54.5956 72.9435 55.0813 73.3252 55.2988L111.207 76.8797C111.589 77.0972 112.075 76.964 112.292 76.5823C112.51 76.2006 112.376 75.7148 111.995 75.4974L74.1127 53.9164ZM73.0278 68.8626C73.2452 68.4809 73.731 68.3477 74.1127 68.5652L101.962 84.4303C102.343 84.6478 102.476 85.1335 102.259 85.5153C102.042 85.897 101.556 86.0301 101.174 85.8127L73.3252 69.9475C72.9435 69.73 72.8103 69.2443 73.0278 68.8626ZM74.1127 61.2581C73.731 61.0406 73.2452 61.1738 73.0278 61.5555C72.8103 61.9372 72.9435 62.423 73.3252 62.6404L92.2662 73.4309L101.737 78.8261C102.118 79.0436 102.604 78.9104 102.822 78.5287C103.039 78.147 102.906 77.6613 102.524 77.4438L93.0537 72.0486L74.1127 61.2581Z" />
        </mask>
        <path fill-rule="evenodd" clip-rule="evenodd"
            d="M74.1127 46.3085C73.731 46.0911 73.2452 46.2242 73.0278 46.6059C72.8103 46.9877 72.9435 47.4734 73.3252 47.6909L100.034 62.9065C100.416 63.124 100.901 62.9908 101.119 62.6091C101.336 62.2274 101.203 61.7416 100.821 61.5242L74.1127 46.3085ZM74.1127 53.9164C73.731 53.699 73.2452 53.8321 73.0278 54.2138C72.8103 54.5956 72.9435 55.0813 73.3252 55.2988L111.207 76.8797C111.589 77.0972 112.075 76.964 112.292 76.5823C112.51 76.2006 112.376 75.7148 111.995 75.4974L74.1127 53.9164ZM73.0278 68.8626C73.2452 68.4809 73.731 68.3477 74.1127 68.5652L101.962 84.4303C102.343 84.6478 102.476 85.1335 102.259 85.5153C102.042 85.897 101.556 86.0301 101.174 85.8127L73.3252 69.9475C72.9435 69.73 72.8103 69.2443 73.0278 68.8626ZM74.1127 61.2581C73.731 61.0406 73.2452 61.1738 73.0278 61.5555C72.8103 61.9372 72.9435 62.423 73.3252 62.6404L92.2662 73.4309L101.737 78.8261C102.118 79.0436 102.604 78.9104 102.822 78.5287C103.039 78.147 102.906 77.6613 102.524 77.4438L93.0537 72.0486L74.1127 61.2581Z"
            fill="#D4E7F8" />
        <path
            d="M74.1127 46.3085L73.4096 47.5428H73.4096L74.1127 46.3085ZM73.3252 47.6909L72.6221 48.9251L72.6221 48.9251L73.3252 47.6909ZM100.034 62.9065L99.3308 64.1407L99.3308 64.1407L100.034 62.9065ZM100.821 61.5242L101.525 60.29L101.525 60.29L100.821 61.5242ZM73.0278 54.2138L74.262 54.917L74.262 54.917L73.0278 54.2138ZM74.1127 53.9164L74.8158 52.6822L74.8158 52.6822L74.1127 53.9164ZM73.3252 55.2988L72.6221 56.533L72.6221 56.533L73.3252 55.2988ZM111.207 76.8797L111.91 75.6455L111.91 75.6455L111.207 76.8797ZM112.292 76.5823L111.058 75.8792L111.058 75.8792L112.292 76.5823ZM111.995 75.4974L112.698 74.2631H112.698L111.995 75.4974ZM74.1127 68.5652L74.8158 67.3309L74.8158 67.3309L74.1127 68.5652ZM73.0278 68.8626L71.7935 68.1594L71.7935 68.1594L73.0278 68.8626ZM101.962 84.4303L101.258 85.6646L101.962 84.4303ZM102.259 85.5153L101.025 84.8121L101.025 84.8121L102.259 85.5153ZM101.174 85.8127L100.471 87.0469L101.174 85.8127ZM73.3252 69.9475L74.0283 68.7133L74.0283 68.7133L73.3252 69.9475ZM73.0278 61.5555L74.262 62.2586H74.262L73.0278 61.5555ZM74.1127 61.2581L74.8158 60.0239L74.8158 60.0239L74.1127 61.2581ZM73.3252 62.6404L74.0283 61.4062L74.0283 61.4062L73.3252 62.6404ZM92.2662 73.4309L91.5631 74.6651L92.2662 73.4309ZM101.737 78.8261L101.034 80.0604L101.737 78.8261ZM102.822 78.5287L101.587 77.8256V77.8256L102.822 78.5287ZM102.524 77.4438L101.821 78.678L102.524 77.4438ZM93.0537 72.0486L92.3506 73.2828L93.0537 72.0486ZM74.262 47.3091C74.0911 47.609 73.7095 47.7136 73.4096 47.5428L74.8158 45.0743C73.7524 44.4685 72.3993 44.8395 71.7935 45.9028L74.262 47.3091ZM74.0283 46.4566C74.3282 46.6275 74.4329 47.0091 74.262 47.3091L71.7935 45.9028C71.1878 46.9662 71.5587 48.3193 72.6221 48.9251L74.0283 46.4566ZM100.737 61.6723L74.0283 46.4566L72.6221 48.9251L99.3308 64.1407L100.737 61.6723ZM99.8847 61.906C100.056 61.6061 100.437 61.5014 100.737 61.6723L99.3308 64.1407C100.394 64.7465 101.747 64.3756 102.353 63.3122L99.8847 61.906ZM100.118 62.7584C99.8184 62.5875 99.7138 62.2059 99.8847 61.906L102.353 63.3122C102.959 62.2489 102.588 60.8958 101.525 60.29L100.118 62.7584ZM73.4096 47.5428L100.118 62.7584L101.525 60.29L74.8158 45.0743L73.4096 47.5428ZM74.262 54.917C74.0911 55.2169 73.7095 55.3215 73.4096 55.1507L74.8158 52.6822C73.7524 52.0764 72.3993 52.4474 71.7935 53.5107L74.262 54.917ZM74.0283 54.0645C74.3282 54.2354 74.4329 54.617 74.262 54.917L71.7935 53.5107C71.1878 54.5741 71.5587 55.9272 72.6221 56.533L74.0283 54.0645ZM111.91 75.6455L74.0283 54.0645L72.6221 56.533L110.504 78.1139L111.91 75.6455ZM111.058 75.8792C111.229 75.5792 111.61 75.4746 111.91 75.6455L110.504 78.1139C111.567 78.7197 112.921 78.3488 113.526 77.2854L111.058 75.8792ZM111.292 76.7316C110.992 76.5607 110.887 76.1791 111.058 75.8792L113.526 77.2854C114.132 76.222 113.761 74.8689 112.698 74.2631L111.292 76.7316ZM73.4096 55.1507L111.292 76.7316L112.698 74.2631L74.8158 52.6822L73.4096 55.1507ZM74.8158 67.3309C73.7524 66.7251 72.3993 67.0961 71.7935 68.1594L74.262 69.5657C74.0911 69.8656 73.7095 69.9702 73.4096 69.7994L74.8158 67.3309ZM102.665 83.1961L74.8158 67.3309L73.4096 69.7994L101.258 85.6646L102.665 83.1961ZM103.493 86.2184C104.099 85.155 103.728 83.8019 102.665 83.1961L101.258 85.6646C100.959 85.4937 100.854 85.1121 101.025 84.8121L103.493 86.2184ZM100.471 87.0469C101.534 87.6527 102.887 87.2818 103.493 86.2184L101.025 84.8121C101.196 84.5122 101.577 84.4076 101.877 84.5785L100.471 87.0469ZM72.6221 71.1817L100.471 87.0469L101.877 84.5785L74.0283 68.7133L72.6221 71.1817ZM71.7935 68.1594C71.1878 69.2228 71.5587 70.5759 72.6221 71.1817L74.0283 68.7133C74.3282 68.8841 74.4329 69.2658 74.262 69.5657L71.7935 68.1594ZM74.262 62.2586C74.0911 62.5586 73.7095 62.6632 73.4096 62.4923L74.8158 60.0239C73.7524 59.4181 72.3993 59.789 71.7935 60.8524L74.262 62.2586ZM74.0283 61.4062C74.3282 61.5771 74.4329 61.9587 74.262 62.2586L71.7935 60.8524C71.1878 61.9158 71.5587 63.2689 72.6221 63.8747L74.0283 61.4062ZM92.9693 72.1967L74.0283 61.4062L72.6221 63.8747L91.5631 74.6651L92.9693 72.1967ZM102.44 77.5919L92.9693 72.1967L91.5631 74.6651L101.034 80.0604L102.44 77.5919ZM101.587 77.8256C101.758 77.5257 102.14 77.4211 102.44 77.5919L101.034 80.0604C102.097 80.6662 103.45 80.2952 104.056 79.2318L101.587 77.8256ZM101.821 78.678C101.521 78.5072 101.417 78.1255 101.587 77.8256L104.056 79.2319C104.662 78.1685 104.291 76.8154 103.227 76.2096L101.821 78.678ZM92.3506 73.2828L101.821 78.678L103.227 76.2096L93.7568 70.8144L92.3506 73.2828ZM73.4096 62.4923L92.3506 73.2828L93.7568 70.8144L74.8158 60.0239L73.4096 62.4923Z"
            fill="#51A6B1" mask="url(#path-26-outside-1_1165_12099)" />
        <path
            d="M118.741 75.7752C118.821 75.4808 119.127 75.4522 119.425 75.7112L126.133 81.5406C126.432 81.7997 126.609 82.2483 126.53 82.5427L122.057 99.1631C121.943 99.5842 121.404 99.4296 121.105 98.8906L118.803 94.7309C118.656 94.465 118.429 94.2678 118.222 94.2257L114.978 93.5664C114.558 93.481 114.155 92.8167 114.268 92.3957L118.741 75.7752Z"
            fill="#8FE3E8" stroke="#4C99A4" stroke-width="1.42045" />
        <path
            d="M133.681 84.275C133.601 83.8909 133.296 83.5156 132.997 83.4369L126.289 81.6647C125.991 81.586 125.813 81.8336 125.892 82.2177L130.365 103.908C130.479 104.457 131.019 104.914 131.317 104.713L133.619 103.162C133.766 103.062 133.993 103.122 134.2 103.315L137.444 106.332C137.864 106.722 138.267 106.514 138.154 105.965L133.681 84.275Z"
            fill="#8FE3E8" stroke="#4C99A4" stroke-width="1.42045" />
        <path
            d="M125.09 58.4763C125.634 57.9863 126.684 58.5816 127.227 59.6879L127.723 60.697C128.435 62.1465 129.662 63.2198 130.733 63.3297L131.485 63.4069C132.305 63.491 133.216 64.6147 133.338 65.6906L133.444 66.6297C133.605 68.0433 134.509 69.5953 135.659 70.4288L136.439 70.9939C137.318 71.6313 137.847 72.9876 137.51 73.7419L137.228 74.376C136.785 75.3677 137.119 76.9862 138.042 78.3303L138.639 79.1989C139.343 80.2236 139.343 81.4465 138.639 81.6727L138.042 81.8645C137.119 82.1613 136.785 83.4016 137.228 84.8949L137.51 85.8497C137.847 86.9855 137.318 87.742 136.439 87.3824L135.659 87.0636C134.509 86.5933 133.605 87.1194 133.444 88.3514L133.338 89.1698C133.216 90.1075 132.305 90.1975 131.485 89.3527L130.733 88.5764C129.662 87.4723 128.435 87.1542 127.723 87.7961L127.227 88.2431C126.684 88.7331 125.634 88.1378 125.09 87.0314L124.594 86.0223C123.882 84.5729 122.655 83.4995 121.584 83.3896L120.832 83.3124C120.013 83.2283 119.101 82.1046 118.979 81.0287L118.873 80.0897C118.712 78.676 117.808 77.124 116.658 76.2905L115.878 75.7254C114.999 75.088 114.47 73.7317 114.807 72.9774L115.09 72.3433C115.532 71.3516 115.198 69.7331 114.275 68.3891L113.678 67.5205L113.312 67.8586L113.678 67.5204C112.974 66.4957 112.974 65.2729 113.678 65.0466L114.275 64.8548C115.198 64.5581 115.532 63.3177 115.09 61.8244L114.807 60.8696C114.47 59.7338 114.999 58.9773 115.878 59.3369L116.658 59.6558C117.808 60.126 118.712 59.5999 118.873 58.3679L118.979 57.5495C119.101 56.6118 120.013 56.5218 120.832 57.3666L121.584 58.1429C122.655 59.247 123.882 59.5651 124.594 58.9232L125.09 58.4763Z"
            fill="#FFE500" stroke="#D7AA0A" stroke-width="1.42045" />
        <path
            d="M134.586 78.3601C134.586 81.1166 133.608 82.8711 132.228 83.6602C130.845 84.4511 128.808 84.4163 126.375 83.0448C123.947 81.6758 121.71 79.2912 120.078 76.5176C118.446 73.7436 117.458 70.6467 117.458 67.893C117.458 65.1366 118.436 63.382 119.815 62.5929C121.198 61.802 123.236 61.8369 125.668 63.2083C128.096 64.5773 130.334 66.9619 131.966 69.7355C133.598 72.5095 134.586 75.6065 134.586 78.3601Z"
            fill="#FFFAD1" stroke="#D7AA0A" stroke-width="1.42045" />
        <path
            d="M126 69.1032L125.451 68.4672L126 69.1032C126.003 69.0981 126.005 69.0965 126.006 69.0962C126.007 69.0958 126.007 69.0957 126.008 69.0956C126.009 69.0954 126.014 69.0958 126.022 69.1002C126.03 69.1046 126.035 69.1099 126.036 69.1119C126.037 69.1127 126.037 69.1133 126.038 69.1145C126.039 69.1154 126.041 69.1195 126.044 69.1281L126.798 71.2425C126.981 71.7576 127.324 72.2376 127.721 72.5345L129.351 73.7545C129.358 73.7596 129.361 73.7629 129.361 73.7637C129.362 73.7646 129.363 73.7652 129.363 73.766C129.364 73.7682 129.368 73.7749 129.37 73.785C129.373 73.795 129.372 73.801 129.372 73.8028C129.372 73.8035 129.372 73.804 129.371 73.8047C129.371 73.8052 129.369 73.8076 129.364 73.8104L128.204 74.4793C127.917 74.6448 127.785 75.0367 127.848 75.5327L128.105 77.5358C128.106 77.544 128.106 77.5476 128.105 77.5484C128.105 77.5494 128.105 77.5499 128.105 77.5505C128.104 77.5521 128.101 77.5559 128.095 77.5576C128.089 77.5593 128.083 77.5577 128.082 77.5569C128.081 77.5566 128.08 77.5562 128.079 77.5555C128.079 77.5549 128.075 77.5523 128.069 77.5454L126.589 75.8464C126.233 75.4368 125.811 75.1981 125.455 75.2031L125.733 75.9948L125.455 75.2031L123.975 75.2238C123.969 75.2239 123.965 75.2228 123.965 75.2226C123.964 75.2222 123.963 75.2219 123.962 75.2214C123.961 75.2202 123.955 75.2158 123.949 75.2069C123.943 75.198 123.94 75.1911 123.939 75.1887C123.939 75.1877 123.939 75.187 123.939 75.1859C123.938 75.185 123.938 75.181 123.939 75.1739L124.196 73.4617C124.259 73.0378 124.127 72.4957 123.84 72.0047L122.68 70.0204C122.675 70.0122 122.673 70.0079 122.673 70.0069C122.672 70.0058 122.672 70.005 122.672 70.0042C122.672 70.0019 122.671 69.9954 122.674 69.9881C122.676 69.9808 122.68 69.9781 122.681 69.9775C122.681 69.9773 122.682 69.9772 122.683 69.9772C122.683 69.9772 122.686 69.9773 122.693 69.9799L124.323 70.6079C124.72 70.7607 125.063 70.6697 125.246 70.3628L126 69.1032Z"
            fill="#FFE500" stroke="#D7AA0A" stroke-width="1.42045" />
        <path opacity="0.35"
            d="M93.0218 124.144C86.3519 129.216 74.6799 130.703 66.9516 127.464C61.067 124.997 59.1656 120.502 61.5379 116.258C62.2811 114.928 63.4439 113.623 65.035 112.413C71.7048 107.341 83.3769 105.854 91.1052 109.093C92.9489 109.866 94.4015 110.838 95.4543 111.939C98.8145 115.453 98.1004 120.281 93.0218 124.144Z"
            fill="#4C99A4" />
        <path
            d="M77.3175 71.9443C74.8731 70.9198 71.1815 71.3899 69.072 72.9944C68.0156 73.7978 67.556 74.7334 67.6676 75.5959L69.8352 92.6173C70.0419 94.2398 69.7508 95.8867 69.0005 97.3401L61.0821 112.679C58.7098 116.923 60.6111 121.419 66.4958 123.885C74.2241 127.124 85.8961 125.638 92.566 120.565C97.6446 116.702 98.3587 111.874 94.9985 108.36L83.4882 95.4952C82.3976 94.2762 81.703 92.7548 81.4964 91.1323L79.3288 74.1109C79.2207 73.248 78.5415 72.4574 77.3175 71.9443Z"
            fill="#D4E7F8" />
        <path fill-rule="evenodd" clip-rule="evenodd"
            d="M67.8858 124.402C74.0117 124.462 80.4928 122.679 84.8446 119.369C89.9232 115.507 90.6373 110.678 87.2771 107.164L78.962 96.0836C78.0801 94.9085 77.5189 93.5243 77.3333 92.0668L74.8419 72.5032L71.6074 72.9151C71.5632 72.5625 71.4237 72.222 71.1907 71.9076C73.1805 71.2419 75.5685 71.2097 77.3177 71.9428C78.5418 72.4559 79.2209 73.2464 79.329 74.1094L81.4967 91.1307C81.7033 92.7532 82.3979 94.2747 83.4884 95.4936L94.9987 108.359C98.3589 111.873 97.6449 116.701 92.5662 120.564C86.2851 125.341 75.568 126.937 67.8858 124.402Z"
            fill="#5CC3C9" />
        <path
            d="M66.4962 123.885C74.2245 127.124 85.8965 125.638 92.5663 120.565C97.645 116.702 98.3591 111.874 94.9988 108.36L83.4878 95.4942C82.3977 94.2757 81.7032 92.755 81.4963 91.1333L81.2697 89.3572L81.0544 87.6667C80.97 86.7811 80.2882 85.9665 79.0367 85.4419C76.5923 84.4174 72.9007 84.8875 70.7912 86.4919C69.7111 87.3134 69.2551 88.273 69.3954 89.1514L69.6107 90.8419L69.8364 92.6182C70.0425 94.24 69.7513 95.8862 69.0014 97.3389L61.0824 112.679C58.7101 116.923 60.6115 121.418 66.4962 123.885Z"
            fill="#5CC3C9" />
        <path
            d="M92.2223 120.113C88.9854 122.575 84.5013 124.187 79.8563 124.778C75.2112 125.37 70.4662 124.933 66.7157 123.361C63.8599 122.164 62.0451 120.506 61.2079 118.709C60.3787 116.929 60.4714 114.937 61.5783 112.957C62.2761 111.708 63.3813 110.46 64.9234 109.287C68.1603 106.825 72.6443 105.213 77.2894 104.621C81.9344 104.03 86.6794 104.467 90.43 106.039C92.2169 106.788 93.5997 107.719 94.5881 108.753C96.1559 110.393 96.745 112.298 96.3883 114.229C96.0282 116.178 94.6869 118.238 92.2223 120.113Z"
            fill="white" fill-opacity="0.2" stroke="#0A6191" stroke-width="1.13636" />
        <path
            d="M74.8793 100.971C74.624 101.301 74.1495 101.362 73.8197 101.106C73.4898 100.851 73.4294 100.377 73.6847 100.047C73.9401 99.7169 74.4145 99.6565 74.7444 99.9119C75.0743 100.167 75.1347 100.642 74.8793 100.971Z"
            fill="#9ACFFB" stroke="#151E29" stroke-width="0.568182" />
        <path
            d="M80.2294 104.342C79.9741 104.672 79.4996 104.733 79.1698 104.477C78.8399 104.222 78.7795 103.748 79.0348 103.418C79.2902 103.088 79.7646 103.028 80.0945 103.283C80.4244 103.538 80.4848 104.013 80.2294 104.342Z"
            fill="#9ACFFB" stroke="#151E29" stroke-width="0.568182" />
        <path
            d="M77.3973 95.6161C77.3278 95.7059 77.1985 95.7224 77.1087 95.6528C77.0188 95.5833 77.0024 95.4541 77.0719 95.3643C77.1415 95.2745 77.2707 95.258 77.3606 95.3276C77.4504 95.3971 77.4668 95.5262 77.3973 95.6161Z"
            fill="#9ACFFB" stroke="#151E29" stroke-width="1.13636" />
        <path
            d="M74.6151 108.954C74.1751 109.522 73.3574 109.627 72.7889 109.187C72.2204 108.747 72.1163 107.929 72.5564 107.361C72.9965 106.792 73.8141 106.688 74.3826 107.128C74.9511 107.568 75.0552 108.386 74.6151 108.954Z"
            fill="#9ACFFB" stroke="#151E29" stroke-width="0.710227" />
        <path
            d="M83.4268 113.889C82.7287 114.791 81.4316 114.956 80.5298 114.258C79.628 113.56 79.4628 112.263 80.1609 111.361C80.859 110.459 82.1561 110.294 83.0579 110.992C83.9598 111.69 84.1249 112.987 83.4268 113.889Z"
            fill="#9ACFFB" stroke="#151E29" stroke-width="0.710227" />
        <path
            d="M68.2313 75.5241L68.2311 75.523C68.1548 74.9335 68.4547 74.1777 69.4159 73.4466C70.3726 72.719 71.7215 72.2279 73.1409 72.0471C74.5604 71.8664 75.9893 72.0037 77.0978 72.4684C78.2115 72.9351 78.6911 73.5916 78.765 74.1816L78.7651 74.1827L80.9328 91.204C81.1539 92.9407 81.8974 94.5693 83.0647 95.874L94.575 108.739L94.5813 108.746L94.5878 108.753C96.1557 110.393 96.7448 112.298 96.3881 114.229C96.0279 116.178 94.6867 118.238 92.222 120.113C88.9852 122.575 84.5011 124.187 79.856 124.778C75.211 125.37 70.466 124.933 66.7154 123.361C63.8596 122.164 62.0449 120.506 61.2076 118.709C60.3784 116.929 60.4712 114.937 61.578 112.957L61.5826 112.948L61.587 112.94L69.5054 97.6007C70.3085 96.0451 70.62 94.2822 70.3989 92.5455L68.2313 75.5241ZM81.4964 91.1323L79.3288 74.1109C79.2207 73.248 78.5415 72.4574 77.3175 71.9443C74.8731 70.9198 71.1815 71.3899 69.072 72.9944C68.0156 73.7978 67.556 74.7334 67.6676 75.5959L69.8352 92.6173C70.0419 94.2398 69.7508 95.8867 69.0005 97.3401L61.0821 112.679C58.7098 116.923 60.6111 121.419 66.4958 123.885C74.2241 127.124 85.8961 125.638 92.566 120.565C97.6446 116.702 98.3587 111.874 94.9985 108.36L83.4882 95.4952C82.3976 94.2762 81.703 92.7548 81.4964 91.1323Z"
            stroke="#F5F7FA" stroke-opacity="0.5" stroke-width="1.13636" />
        <path fill-rule="evenodd" clip-rule="evenodd"
            d="M76.8522 71.7719C74.4243 70.9821 71.0515 71.4888 69.072 72.9944C68.0156 73.7978 67.556 74.7334 67.6676 75.5959L69.8352 92.6173C70.0419 94.2398 69.7508 95.8867 69.0005 97.3401L61.0821 112.679C58.7098 116.923 60.6111 121.419 66.4958 123.885C68.9849 124.928 71.883 125.481 74.8914 125.582C73.1342 125.302 71.4616 124.848 69.9415 124.211C64.0569 121.744 62.1555 117.249 64.5278 113.005L72.4462 97.6658C73.1965 96.2124 73.4876 94.5655 73.281 92.943L71.1134 75.9216C71.0017 75.0591 71.4613 74.1235 72.5177 73.3201C73.6518 72.4575 75.2432 71.9228 76.8522 71.7719Z"
            fill="#F5F7FA" fill-opacity="0.5" />
        <ellipse cx="4.79889" cy="4.79889" rx="4.79889" ry="4.79889"
            transform="matrix(0.922265 0.386558 -0.795948 0.605365 72.8921 70.0898)" fill="#D4E7F8" />
        <path fill-rule="evenodd" clip-rule="evenodd"
            d="M79.0958 75.3638C78.7574 74.9724 78.2658 74.6276 77.6249 74.359C75.1805 73.3344 71.4889 73.8046 69.3794 75.409C68.8262 75.8297 68.4368 76.2866 68.2073 76.7503C67.2553 75.6491 67.5157 74.1787 69.072 72.9949C71.1816 71.3905 74.8732 70.9204 77.3175 71.9449C79.1209 72.7008 79.7415 74.0591 79.0958 75.3638Z"
            fill="#F5F7FA" fill-opacity="0.5" />
        <path
            d="M77.4001 76.4854C75.5403 77.8999 72.2858 78.3143 70.1308 77.4111C67.9759 76.5079 67.7367 74.629 69.5964 73.2146C71.4562 71.8001 74.7108 71.3856 76.8657 72.2888C79.0206 73.1921 79.2599 75.0709 77.4001 76.4854Z"
            stroke="white" stroke-opacity="0.5" stroke-width="1.13636" />
        <path
            d="M77.5798 76.2523C76.623 76.9799 75.2742 77.471 73.8547 77.6518C72.4353 77.8326 71.0064 77.6952 69.8978 77.2306C68.7859 76.7645 68.306 76.1093 68.231 75.5202C68.156 74.9312 68.4563 74.1766 69.416 73.4467C70.3727 72.7191 71.7216 72.228 73.141 72.0472C74.5604 71.8665 75.9894 72.0038 77.0979 72.4684C78.2098 72.9345 78.6897 73.5898 78.7647 74.1788C78.8397 74.7678 78.5394 75.5224 77.5798 76.2523Z"
            stroke="#151E29" stroke-width="1.13636" />
        <path
            d="M79.299 89.7499C78.3423 90.4775 76.9934 90.9686 75.574 91.1494C74.1545 91.3301 72.7256 91.1928 71.6171 90.7281C70.5051 90.2621 70.0253 89.6068 69.9503 89.0178C69.8753 88.4287 70.1756 87.6741 71.1352 86.9443C72.0919 86.2166 73.4408 85.7255 74.8602 85.5448C76.2797 85.364 77.7086 85.5014 78.8171 85.966C79.9291 86.4321 80.4089 87.0873 80.4839 87.6764C80.5589 88.2654 80.2586 89.02 79.299 89.7499Z"
            fill="#F5F7FA" fill-opacity="0.5" stroke="#0A6191" stroke-width="1.13636" />
        <path
            d="M68.2313 75.5241L68.2311 75.523C68.1548 74.9335 68.4547 74.1777 69.4159 73.4466C70.3726 72.719 71.7215 72.2279 73.1409 72.0471C74.5604 71.8664 75.9893 72.0037 77.0978 72.4684C78.2115 72.9351 78.6911 73.5916 78.765 74.1816L78.7651 74.1827L80.9328 91.204C81.1539 92.9407 81.8974 94.5693 83.0647 95.874L94.575 108.739L94.5813 108.746L94.5878 108.753C96.1557 110.393 96.7448 112.298 96.3881 114.229C96.0279 116.178 94.6867 118.238 92.222 120.113C88.9852 122.575 84.5011 124.187 79.856 124.778C75.211 125.37 70.466 124.933 66.7154 123.361C63.8596 122.164 62.0449 120.506 61.2076 118.709C60.3784 116.929 60.4712 114.937 61.578 112.957L61.5826 112.948L61.587 112.94L69.5054 97.6007C70.3085 96.0451 70.62 94.2822 70.3989 92.5455L68.2313 75.5241ZM81.4964 91.1323L79.3288 74.1109C79.2207 73.248 78.5415 72.4574 77.3175 71.9443C74.8731 70.9198 71.1815 71.3899 69.072 72.9944C68.0156 73.7978 67.556 74.7334 67.6676 75.5959L69.8352 92.6173C70.0419 94.2398 69.7508 95.8867 69.0005 97.3401L61.0821 112.679C58.7098 116.923 60.6111 121.419 66.4958 123.885C74.2241 127.124 85.8961 125.638 92.566 120.565C97.6446 116.702 98.3587 111.874 94.9985 108.36L83.4882 95.4952C82.3976 94.2762 81.703 92.7548 81.4964 91.1323Z"
            stroke="#151E29" stroke-width="1.13636" />
        <path
            d="M77.0307 34.7631C75.4126 33.8413 74.3267 34.2994 74.3269 36.3882L74.327 37.8774C74.4913 37.8787 74.6716 37.9325 74.8547 38.0347C75.0381 38.1392 75.2191 38.2902 75.3839 38.476L75.3838 36.9833C75.3836 35.6286 76.0382 35.3059 77.0354 35.8739C78.0326 36.442 78.6781 37.5054 78.6782 38.8601L78.6784 42.1148L79.7322 42.7151L79.732 39.4604C79.7349 37.3611 78.6489 35.685 77.0307 34.7631Z"
            fill="#151E29" />
        <path
            d="M80.3084 39.9157C80.3082 38.0157 81.5317 37.3196 83.2554 38.3016C84.979 39.2835 86.1813 41.3667 86.1814 43.2615L86.1815 43.7038L81.4157 40.9888C81.5687 42.1911 82.3029 43.2298 83.2512 43.77C83.9609 44.1743 84.4594 44.2049 84.7806 43.8443L85.943 44.5065C85.5224 45.431 84.5253 45.611 83.2513 44.8852C81.5276 43.9033 80.3085 41.8157 80.3084 39.9157ZM85.0725 41.9971C84.8614 40.8753 84.1425 39.9221 83.2554 39.4168C82.3684 38.9114 81.6603 39.0656 81.4493 39.9329L85.0725 41.9971Z"
            fill="#151E29" />
        <path
            d="M86.7444 43.5829C86.7442 41.6846 87.9677 40.9886 89.6914 41.9705C91.4151 42.9525 92.6387 45.0479 92.6389 46.9409C92.639 48.8339 91.4156 49.537 89.6919 48.555C87.9682 47.5731 86.7445 45.4829 86.7444 43.5829ZM91.5759 46.3354C91.5758 45.0698 90.8217 43.7279 89.6915 43.084C88.5612 42.4401 87.8088 42.9238 87.8089 44.1893C87.809 45.4548 88.5615 46.796 89.6903 47.439C90.819 48.082 91.576 47.6026 91.5759 46.3354Z"
            fill="#151E29" />
        <path
            d="M98.6593 54.7434L98.7816 54.8131C99.4576 55.1982 99.7115 54.9932 99.7114 54.1193L99.711 47.8861L100.765 48.4864L100.765 54.6392C100.765 56.1844 100.233 56.6782 98.8811 55.908L98.6593 55.7817L98.6593 54.7434Z"
            fill="#151E29" />
        <path
            d="M98.1329 53.7997L97.0791 53.1993L97.079 51.7153L94.4101 50.1949C94.1664 50.0658 93.9251 49.8608 93.713 49.6027C93.5008 49.3445 93.326 49.0432 93.2079 48.7322C93.1119 48.4484 93.0745 48.1717 93.0999 47.9339C93.1253 47.6961 93.2125 47.5068 93.3515 47.3878L95.7464 45.1602C95.9119 44.9992 96.1436 44.942 96.4086 44.9967C96.6736 45.0514 96.9584 45.2153 97.2226 45.4651C97.4867 45.7148 97.7168 46.0378 97.8801 46.388C98.0435 46.7382 98.1317 47.098 98.1324 47.4162L98.1327 51.2477L98.9234 51.6981L98.9235 52.7661L98.1327 52.3157L98.1329 53.7997ZM94.2279 48.5443C94.1965 48.5775 94.1794 48.6288 94.179 48.6912C94.1788 48.7308 94.1855 48.7741 94.1988 48.8184C94.212 48.8627 94.2315 48.9073 94.2561 48.9494C94.2807 48.9916 94.3099 49.0305 94.3421 49.0639C94.3743 49.0974 94.4088 49.1247 94.4436 49.1443L97.0789 50.6456L97.0786 46.7861C97.0805 46.7222 97.0638 46.6488 97.0309 46.577C96.998 46.5053 96.9508 46.4391 96.8966 46.3888C96.8652 46.3607 96.8328 46.337 96.8002 46.3181C96.759 46.2946 96.7184 46.2832 96.6821 46.2848C96.6458 46.2864 96.6149 46.3009 96.5922 46.3272L94.2279 48.5443Z"
            fill="#151E29" />
        <path
            d="M100.243 45.6316C100.064 45.5296 99.8896 45.4903 99.741 45.5188C99.5925 45.5472 99.4766 45.6421 99.408 45.7915C99.3395 45.9409 99.3215 46.138 99.3561 46.3579C99.3908 46.5778 99.4766 46.8106 99.6028 47.0269C99.7289 47.2431 99.8897 47.4331 100.065 47.5728C100.24 47.7125 100.421 47.7956 100.586 47.8115C100.751 47.8275 100.892 47.7757 100.992 47.6626C101.091 47.5495 101.144 47.3802 101.144 47.1761C101.144 46.9029 101.049 46.5868 100.88 46.2973C100.711 46.0077 100.482 45.7683 100.243 45.6316Z"
            fill="#014063" />
        <path
            d="M74.8087 38.3912C74.4612 38.1937 74.0737 38.0311 73.7861 37.6425L73.4783 37.2267C73.3576 37.0636 73.3093 36.8626 73.3098 36.6948C73.3119 36.492 73.2609 36.2628 73.1632 36.0363C73.0656 35.8098 72.9258 35.5963 72.7614 35.4228C72.5971 35.2493 72.4157 35.1238 72.2403 35.062C72.0649 35.0003 71.9034 35.0052 71.7763 35.0761C71.6492 35.147 71.5622 35.2807 71.5264 35.4602C71.4906 35.6397 71.5076 35.8569 71.5753 36.0843C71.6429 36.3117 71.7581 36.539 71.9063 36.7373C72.0545 36.9356 72.2289 37.096 72.4075 37.198C72.7546 37.3961 73.1422 37.5594 73.4287 37.9486L73.7353 38.3652C73.8558 38.5289 73.9034 38.7299 73.9033 38.8981C73.9033 39.067 73.8551 39.2141 73.7337 39.2398L73.4247 39.3052C73.1386 39.3657 72.7532 39.088 72.4076 38.8901C72.229 38.788 72.0543 38.7487 71.9057 38.7772C71.7571 38.8057 71.6412 38.9007 71.5727 39.0502C71.5043 39.1997 71.4863 39.397 71.5211 39.617C71.5558 39.837 71.6418 40.0699 71.7681 40.2862C71.8944 40.5025 72.0554 40.6924 72.2306 40.832C72.4058 40.9715 72.5873 41.0544 72.7523 41.0701C72.9172 41.0858 73.0581 41.0336 73.1571 40.9201C73.2562 40.8067 73.3089 40.6371 73.3085 40.4328C73.3084 40.2667 73.3566 40.1231 73.4759 40.0979L73.7863 40.0322C74.0739 39.9713 74.4614 40.2502 74.8089 40.4485C75.0365 40.5596 75.2495 40.5645 75.4049 40.4622C75.5604 40.36 75.6469 40.1581 75.6469 39.8973C75.6468 39.6365 75.5604 39.3362 75.4048 39.0567C75.2493 38.7773 75.0363 38.5395 74.8087 38.3912Z"
            fill="#014063" />
    </g>
    <defs>
        <linearGradient id="paint0_linear_1165_12099" x1="135.607" y1="38.3632" x2="133.347"
            y2="59.2871" gradientUnits="userSpaceOnUse">
            <stop stop-color="white" />
            <stop offset="1" stop-color="white" stop-opacity="0" />
        </linearGradient>
        <clipPath id="clip0_1165_12099">
            <path d="M0 0H150C158.837 0 166 7.16344 166 16V137H0V0Z" fill="white" />
        </clipPath>
    </defs>
</svg>