<svg xmlns="http://www.w3.org/2000/svg" width="310.1980895996094" height="202.63031005859375" viewBox="-153.5332794189453 -71.99856567382812 310.1980895996094 202.63031005859375"><title>Neo4j Graph Visualization</title><desc>Created using Neo4j (http://www.neo4j.com/)</desc><g class="layer relationships"><g class="relationship" transform="translate(-124.5332826072867 50.42911182228553) rotate(380.9143202623155)"><path class="b-outline" fill="#A5ABB6" stroke="none" d="M 24.018736134675446,6.953439040707552 L 24.277555179777966,5.987513214418485 A 177.92229172866598 177.92229172866598 0 0 0 45.54461516854422,10.315641512052963 L 45.40532617098177,11.305893285673193 A 178.92229172866598 178.92229172866598 0 0 1 24.018736134675446,6.953439040707552 Z M 90.96814960023976,11.855486927937392 L 90.85278713437052,10.862163465278542 A 177.92229172866598 177.92229172866598 0 0 0 112.21805872241619,7.048280261034582 L 111.5117252075772,4.132616877546154 L 119.13899553636236,5.886112623658322 L 113.15983674220152,10.935831439019152 L 112.45350322736253,8.020168055530725 A 178.92229172866598 178.92229172866598 0 0 1 90.96814960023976,11.855486927937392"/><text text-anchor="middle" pointer-events="none" font-size="8px" fill="#000000" x="68.17520148396154" y="15.5370895098024" font-family="Helvetica Neue, Helvetica, Arial, sans-serif">ACTED_IN</text></g><g class="relationship" transform="translate(127.66480271716627 19.77091992710746) rotate(505.29775618428766)"><path class="b-outline" fill="#A5ABB6" stroke="none" d="M 25 0.5 L 52.13478538820699 0.5 L 52.13478538820699 -0.5 L 25 -0.5 Z M 84.65431663820699 0.5 L 111.78910202641399 0.5 L 111.78910202641399 3.5 L 118.78910202641399 0 L 111.78910202641399 -3.5 L 111.78910202641399 -0.5 L 84.65431663820699 -0.5 Z"/><text text-anchor="middle" pointer-events="none" font-size="8px" fill="#000000" x="68.39455101320699" y="3" transform="rotate(180 68.39455101320699 0)" font-family="Helvetica Neue, Helvetica, Arial, sans-serif">RATED</text></g><g class="relationship" transform="translate(9.452655061517175 101.63174088684075) rotate(264.1837197442952)"><path class="b-outline" fill="#A5ABB6" stroke="none" d="M 25 0.5 L 45.74014223021888 0.5 L 45.74014223021888 -0.5 L 25 -0.5 Z M 92.63857973021888 0.5 L 113.37872196043776 0.5 L 113.37872196043776 3.5 L 120.37872196043776 0 L 113.37872196043776 -3.5 L 113.37872196043776 -0.5 L 92.63857973021888 -0.5 Z"/><text text-anchor="middle" pointer-events="none" font-size="8px" fill="#000000" x="69.18936098021888" y="3" transform="rotate(180 69.18936098021888 0)" font-family="Helvetica Neue, Helvetica, Arial, sans-serif">IN_GENRE</text></g><g class="relationship" transform="translate(-124.5332826072867 50.42911182228553) rotate(380.9143202623155)"><path class="b-outline" fill="#A5ABB6" stroke="none" d="M 24.018736134675446,-6.953439040707552 L 24.277555179777966,-5.987513214418485 A 177.92229172866598 177.92229172866598 0 0 1 44.88904204953296,-10.22218403603668 L 44.74606844835709,-11.211910538342664 A 178.92229172866598 178.92229172866598 0 0 0 24.018736134675446,-6.953439040707552 Z M 91.62948247843337,-11.777433575311079 L 91.51042381086782,-10.784546354284686 A 177.92229172866598 177.92229172866598 0 0 1 112.21805872241619,-7.048280261034582 L 111.5117252075772,-4.132616877546154 L 119.13899553636236,-5.886112623658322 L 113.15983674220152,-10.935831439019152 L 112.45350322736253,-8.020168055530725 A 178.92229172866598 178.92229172866598 0 0 0 91.62948247843337,-11.777433575311079"/><text text-anchor="middle" pointer-events="none" font-size="8px" fill="#000000" x="68.17520148396154" y="-9.5370895098024" font-family="Helvetica Neue, Helvetica, Arial, sans-serif">DIRECTED</text></g></g><g class="layer nodes"><g class="node" aria-label="graph-node-106" transform="translate(9.452655061517175,101.63174088684075)"><circle class="b-outline" cx="0" cy="0" r="25" fill="#C990C0" stroke="#b261a5" stroke-width="2px"/><text class="caption" text-anchor="middle" pointer-events="none" x="0" y="5" font-size="10px" fill="#FFFFFF" font-family="Helvetica Neue, Helvetica, Arial, sans-serif"> Movie</text></g><g class="node" aria-label="graph-node-108" transform="translate(127.66480271716627,19.77091992710746)"><circle class="b-outline" cx="0" cy="0" r="25" fill="#F79767" stroke="#f36924" stroke-width="2px"/><text class="caption" text-anchor="middle" pointer-events="none" x="0" y="5" font-size="10px" fill="#FFFFFF" font-family="Helvetica Neue, Helvetica, Arial, sans-serif"> User</text></g><g class="node" aria-label="graph-node-107" transform="translate(-5.27987670615777,-42.99856474294321)"><circle class="b-outline" cx="0" cy="0" r="25" fill="#D9C8AE" stroke="#c0a378" stroke-width="2px"/><text class="caption" text-anchor="middle" pointer-events="none" x="0" y="5" font-size="10px" fill="#2A2C34" font-family="Helvetica Neue, Helvetica, Arial, sans-serif"> Genre</text></g><g class="node" aria-label="graph-node-109" transform="translate(-124.5332826072867,50.42911182228553)"><circle class="b-outline" cx="0" cy="0" r="25" fill="#8DCC93" stroke="#5db665" stroke-width="2px"/><text class="caption" text-anchor="middle" pointer-events="none" x="0" y="5" font-size="10px" fill="#2A2C34" font-family="Helvetica Neue, Helvetica, Arial, sans-serif"> Person</text></g></g></svg>