<?xml version="1.0" encoding="UTF-8" standalone="no"?>
<svg
   width="310.1980895996094"
   height="202.63031005859375"
   viewBox="-153.5332794189453 -71.99856567382812 310.1980895996094 202.63031005859375"
   version="1.1"
   id="svg58"
   sodipodi:docname="schema-simple-2.svg"
   inkscape:version="1.2.2 (732a01da63, 2022-12-09)"
   xmlns:inkscape="http://www.inkscape.org/namespaces/inkscape"
   xmlns:sodipodi="http://sodipodi.sourceforge.net/DTD/sodipodi-0.dtd"
   xmlns="http://www.w3.org/2000/svg"
   xmlns:svg="http://www.w3.org/2000/svg"
   xmlns:rdf="http://www.w3.org/1999/02/22-rdf-syntax-ns#"
   xmlns:cc="http://creativecommons.org/ns#"
   xmlns:dc="http://purl.org/dc/elements/1.1/">
  <defs
     id="defs62" />
  <sodipodi:namedview
     id="namedview60"
     pagecolor="#ffffff"
     bordercolor="#000000"
     borderopacity="0.25"
     inkscape:showpageshadow="2"
     inkscape:pageopacity="0.0"
     inkscape:pagecheckerboard="0"
     inkscape:deskcolor="#d1d1d1"
     showgrid="false"
     inkscape:zoom="3.9007332"
     inkscape:cx="152.15088"
     inkscape:cy="101.26301"
     inkscape:window-width="1920"
     inkscape:window-height="1009"
     inkscape:window-x="1912"
     inkscape:window-y="-8"
     inkscape:window-maximized="1"
     inkscape:current-layer="svg58" />
  <title
     id="title2">Neo4j Graph Visualization</title>
  <desc
     id="desc4">Created using Neo4j (http://www.neo4j.com/)</desc>
  <g
     class="node"
     aria-label="graph-node-106"
     transform="translate(9.4526551,101.63174)"
     id="g36">
    <circle
       class="b-outline"
       cx="0"
       cy="0"
       r="25"
       fill="#c990c0"
       stroke="#b261a5"
       stroke-width="2px"
       id="circle32" />
    <text
       class="caption"
       text-anchor="middle"
       pointer-events="none"
       x="0"
       y="5"
       font-size="10px"
       fill="#ffffff"
       font-family="'Helvetica Neue', Helvetica, Arial, sans-serif"
       id="text34">Movie</text>
  </g>
  <g
     id="g378">
    <g
       class="relationship"
       transform="rotate(20.91432,-198.8822,-312.15375)"
       id="g10">
      <path
         class="b-outline"
         fill="#a5abb6"
         stroke="none"
         d="m 24.018736,6.953439 0.258819,-0.9659258 a 177.92229,177.92229 0 0 0 21.26706,4.3281288 l -0.139289,0.990251 A 178.92229,178.92229 0 0 1 24.018736,6.953439 Z M 90.96815,11.855487 90.852787,10.862163 A 177.92229,177.92229 0 0 0 112.21806,7.0482803 L 111.51173,4.1326169 119.139,5.8861126 113.15984,10.935831 112.4535,8.0201681 A 178.92229,178.92229 0 0 1 90.96815,11.855487"
         id="path6" />
      <text
         text-anchor="middle"
         pointer-events="none"
         font-size="8px"
         fill="#000000"
         x="68.175201"
         y="15.537089"
         font-family="'Helvetica Neue', Helvetica, Arial, sans-serif"
         id="text8">ACTED_IN</text>
    </g>
    <g
       class="relationship"
       transform="rotate(20.91432,-198.8822,-312.15375)"
       id="g28">
      <path
         class="b-outline"
         fill="#a5abb6"
         stroke="none"
         d="m 24.018736,-6.953439 0.258819,0.9659258 a 177.92229,177.92229 0 0 1 20.611487,-4.2346708 l -0.142974,-0.989727 a 178.92229,178.92229 0 0 0 -20.727332,4.258472 z m 67.610746,-4.823995 -0.119058,0.992888 a 177.92229,177.92229 0 0 1 20.707636,3.7362657 l -0.70633,2.9156634 7.62727,-1.7534957 -5.97916,-5.0497184 -0.70634,2.9156629 A 178.92229,178.92229 0 0 0 91.629482,-11.777434"
         id="path24" />
      <text
         text-anchor="middle"
         pointer-events="none"
         font-size="8px"
         fill="#000000"
         x="68.175201"
         y="-9.5370893"
         font-family="'Helvetica Neue', Helvetica, Arial, sans-serif"
         id="text26">DIRECTED</text>
    </g>
    <g
       class="node"
       aria-label="graph-node-109"
       transform="translate(-124.53328,50.429112)"
       id="g54">
      <circle
         class="b-outline"
         cx="0"
         cy="0"
         r="25"
         fill="#8dcc93"
         stroke="#5db665"
         stroke-width="2px"
         id="circle50" />
      <text
         class="caption"
         text-anchor="middle"
         pointer-events="none"
         x="0"
         y="5"
         font-size="10px"
         fill="#2a2c34"
         font-family="'Helvetica Neue', Helvetica, Arial, sans-serif"
         id="text52">Person</text>
    </g>
  </g>
  <metadata
     id="metadata428">
    <rdf:RDF>
      <cc:Work
         rdf:about="">
        <dc:title>Neo4j Graph Visualization</dc:title>
      </cc:Work>
    </rdf:RDF>
  </metadata>
</svg>
