<svg xmlns="http://www.w3.org/2000/svg" width="649.8690185546875" height="617.6325073242188" viewBox="-419.3177795410156 -297.16925048828125 649.8690185546875 617.6325073242188"><title>Neo4j Graph Visualization</title><desc>Created using Neo4j (http://www.neo4j.com/)</desc><g class="layer relationships"><g class="relationship" transform="translate(-91.5 -1.979387237907762) rotate(189.96278422245325)"><path class="b-outline" fill="#A5ABB6" stroke="none" d="M 25 0.5 L 32.718725985997104 0.5 L 32.718725985997104 -0.5 L 25 -0.5 Z M 78.28122598599711 0.5 L 85.99995197199421 0.5 L 85.99995197199421 3.5 L 92.99995197199421 0 L 85.99995197199421 -3.5 L 85.99995197199421 -0.5 L 78.28122598599711 -0.5 Z"/><text text-anchor="middle" pointer-events="none" font-size="8px" fill="#000000" x="55.499975985997104" y="3" transform="rotate(180 55.499975985997104 0)" font-family="Helvetica Neue, Helvetica, Arial, sans-serif">ACTED_IN</text></g><g class="relationship" transform="translate(-91.5 -1.979387237907762) rotate(418.26369166580713)"><path class="b-outline" fill="#A5ABB6" stroke="none" d="M 25 0.5 L 67.96988984406421 0.5 L 67.96988984406421 -0.5 L 25 -0.5 Z M 113.53238984406421 0.5 L 156.50227968812843 0.5 L 156.50227968812843 3.5 L 163.50227968812843 0 L 156.50227968812843 -3.5 L 156.50227968812843 -0.5 L 113.53238984406421 -0.5 Z"/><text text-anchor="middle" pointer-events="none" font-size="8px" fill="#000000" x="90.75113984406421" y="3" font-family="Helvetica Neue, Helvetica, Arial, sans-serif">ACTED_IN</text></g><g class="relationship" transform="translate(-91.5 -1.979387237907762) rotate(506.429546261117)"><path class="b-outline" fill="#A5ABB6" stroke="none" d="M 25 0.5 L 103.069396239036 0.5 L 103.069396239036 -0.5 L 25 -0.5 Z M 148.631896239036 0.5 L 226.701292478072 0.5 L 226.701292478072 3.5 L 233.701292478072 0 L 226.701292478072 -3.5 L 226.701292478072 -0.5 L 148.631896239036 -0.5 Z"/><text text-anchor="middle" pointer-events="none" font-size="8px" fill="#000000" x="125.850646239036" y="3" transform="rotate(180 125.850646239036 0)" font-family="Helvetica Neue, Helvetica, Arial, sans-serif">ACTED_IN</text></g><g class="relationship" transform="translate(-91.5 -1.979387237907762) rotate(467.81666374212887)"><path class="b-outline" fill="#A5ABB6" stroke="none" d="M 25 0.5 L 91.71759009218017 0.5 L 91.71759009218017 -0.5 L 25 -0.5 Z M 137.28009009218016 0.5 L 203.99768018436035 0.5 L 203.99768018436035 3.5 L 210.99768018436035 0 L 203.99768018436035 -3.5 L 203.99768018436035 -0.5 L 137.28009009218016 -0.5 Z"/><text text-anchor="middle" pointer-events="none" font-size="8px" fill="#000000" x="114.49884009218017" y="3" transform="rotate(180 114.49884009218017 0)" font-family="Helvetica Neue, Helvetica, Arial, sans-serif">ACTED_IN</text></g><g class="relationship" transform="translate(-91.5 -1.979387237907762) rotate(451.0054105049799)"><path class="b-outline" fill="#A5ABB6" stroke="none" d="M 25 0.5 L 120.46263712393923 0.5 L 120.46263712393923 -0.5 L 25 -0.5 Z M 166.02513712393923 0.5 L 261.48777424787846 0.5 L 261.48777424787846 3.5 L 268.48777424787846 0 L 261.48777424787846 -3.5 L 261.48777424787846 -0.5 L 166.02513712393923 -0.5 Z"/><text text-anchor="middle" pointer-events="none" font-size="8px" fill="#000000" x="143.24388712393923" y="3" transform="rotate(180 143.24388712393923 0)" font-family="Helvetica Neue, Helvetica, Arial, sans-serif">ACTED_IN</text></g><g class="relationship" transform="translate(-91.5 -1.979387237907762) rotate(442.6315815142831)"><path class="b-outline" fill="#A5ABB6" stroke="none" d="M 25 0.5 L 77.22435418359747 0.5 L 77.22435418359747 -0.5 L 25 -0.5 Z M 124.11497918359747 0.5 L 176.33933336719494 0.5 L 176.33933336719494 3.5 L 183.33933336719494 0 L 176.33933336719494 -3.5 L 176.33933336719494 -0.5 L 124.11497918359747 -0.5 Z"/><text text-anchor="middle" pointer-events="none" font-size="8px" fill="#000000" x="100.66966668359747" y="3" font-family="Helvetica Neue, Helvetica, Arial, sans-serif">DIRECTED</text></g><g class="relationship" transform="translate(-91.5 -1.979387237907762) rotate(431.03542460333136)"><path class="b-outline" fill="#A5ABB6" stroke="none" d="M 25 0.5 L 113.02376860631728 0.5 L 113.02376860631728 -0.5 L 25 -0.5 Z M 158.58626860631728 0.5 L 246.61003721263455 0.5 L 246.61003721263455 3.5 L 253.61003721263455 0 L 246.61003721263455 -3.5 L 246.61003721263455 -0.5 L 158.58626860631728 -0.5 Z"/><text text-anchor="middle" pointer-events="none" font-size="8px" fill="#000000" x="135.80501860631728" y="3" font-family="Helvetica Neue, Helvetica, Arial, sans-serif">ACTED_IN</text></g><g class="relationship" transform="translate(-91.5 -1.979387237907762) rotate(527.0167024672451)"><path class="b-outline" fill="#A5ABB6" stroke="none" d="M 25 0.5 L 107.68367441600512 0.5 L 107.68367441600512 -0.5 L 25 -0.5 Z M 153.24617441600512 0.5 L 235.92984883201024 0.5 L 235.92984883201024 3.5 L 242.92984883201024 0 L 235.92984883201024 -3.5 L 235.92984883201024 -0.5 L 153.24617441600512 -0.5 Z"/><text text-anchor="middle" pointer-events="none" font-size="8px" fill="#000000" x="130.46492441600512" y="3" transform="rotate(180 130.46492441600512 0)" font-family="Helvetica Neue, Helvetica, Arial, sans-serif">ACTED_IN</text></g><g class="relationship" transform="translate(-91.5 -1.979387237907762) rotate(411.6346544931155)"><path class="b-outline" fill="#A5ABB6" stroke="none" d="M 25 0.5 L 114.9736141436903 0.5 L 114.9736141436903 -0.5 L 25 -0.5 Z M 160.5361141436903 0.5 L 250.5097282873806 0.5 L 250.5097282873806 3.5 L 257.5097282873806 0 L 250.5097282873806 -3.5 L 250.5097282873806 -0.5 L 160.5361141436903 -0.5 Z"/><text text-anchor="middle" pointer-events="none" font-size="8px" fill="#000000" x="137.7548641436903" y="3" font-family="Helvetica Neue, Helvetica, Arial, sans-serif">ACTED_IN</text></g><g class="relationship" transform="translate(-91.5 -1.979387237907762) rotate(380.8309993165507)"><path class="b-outline" fill="#A5ABB6" stroke="none" d="M 25 0.5 L 43.41722534689764 0.5 L 43.41722534689764 -0.5 L 25 -0.5 Z M 88.97972534689764 0.5 L 107.39695069379528 0.5 L 107.39695069379528 3.5 L 114.39695069379528 0 L 107.39695069379528 -3.5 L 107.39695069379528 -0.5 L 88.97972534689764 -0.5 Z"/><text text-anchor="middle" pointer-events="none" font-size="8px" fill="#000000" x="66.19847534689764" y="3" font-family="Helvetica Neue, Helvetica, Arial, sans-serif">ACTED_IN</text></g><g class="relationship" transform="translate(-91.5 -1.979387237907762) rotate(383.31786106401347)"><path class="b-outline" fill="#A5ABB6" stroke="none" d="M 25 0.5 L 127.5166195277674 0.5 L 127.5166195277674 -0.5 L 25 -0.5 Z M 173.0791195277674 0.5 L 275.5957390555348 0.5 L 275.5957390555348 3.5 L 282.5957390555348 0 L 275.5957390555348 -3.5 L 275.5957390555348 -0.5 L 173.0791195277674 -0.5 Z"/><text text-anchor="middle" pointer-events="none" font-size="8px" fill="#000000" x="150.2978695277674" y="3" font-family="Helvetica Neue, Helvetica, Arial, sans-serif">ACTED_IN</text></g><g class="relationship" transform="translate(-91.5 -1.979387237907762) rotate(359.0256409782139)"><path class="b-outline" fill="#A5ABB6" stroke="none" d="M 25 0.5 L 120.26552051610193 0.5 L 120.26552051610193 -0.5 L 25 -0.5 Z M 165.82802051610193 0.5 L 261.09354103220386 0.5 L 261.09354103220386 3.5 L 268.09354103220386 0 L 261.09354103220386 -3.5 L 261.09354103220386 -0.5 L 165.82802051610193 -0.5 Z"/><text text-anchor="middle" pointer-events="none" font-size="8px" fill="#000000" x="143.04677051610193" y="3" font-family="Helvetica Neue, Helvetica, Arial, sans-serif">ACTED_IN</text></g><g class="relationship" transform="translate(-91.5 -1.979387237907762) rotate(373.53649415755956)"><path class="b-outline" fill="#A5ABB6" stroke="none" d="M 25 0.5 L 86.79692108454117 0.5 L 86.79692108454117 -0.5 L 25 -0.5 Z M 132.35942108454117 0.5 L 194.15634216908234 0.5 L 194.15634216908234 3.5 L 201.15634216908234 0 L 194.15634216908234 -3.5 L 194.15634216908234 -0.5 L 132.35942108454117 -0.5 Z"/><text text-anchor="middle" pointer-events="none" font-size="8px" fill="#000000" x="109.57817108454117" y="3" font-family="Helvetica Neue, Helvetica, Arial, sans-serif">ACTED_IN</text></g><g class="relationship" transform="translate(-91.5 -1.979387237907762) rotate(352.9134608736099)"><path class="b-outline" fill="#A5ABB6" stroke="none" d="M 25 0.5 L 73.90926169953708 0.5 L 73.90926169953708 -0.5 L 25 -0.5 Z M 119.47176169953708 0.5 L 168.38102339907417 0.5 L 168.38102339907417 3.5 L 175.38102339907417 0 L 168.38102339907417 -3.5 L 168.38102339907417 -0.5 L 119.47176169953708 -0.5 Z"/><text text-anchor="middle" pointer-events="none" font-size="8px" fill="#000000" x="96.69051169953708" y="3" font-family="Helvetica Neue, Helvetica, Arial, sans-serif">ACTED_IN</text></g><g class="relationship" transform="translate(-91.5 -1.979387237907762) rotate(339.3326978259364)"><path class="b-outline" fill="#A5ABB6" stroke="none" d="M 25 0.5 L 34.00255707057608 0.5 L 34.00255707057608 -0.5 L 25 -0.5 Z M 79.56505707057607 0.5 L 88.56761414115216 0.5 L 88.56761414115216 3.5 L 95.56761414115216 0 L 88.56761414115216 -3.5 L 88.56761414115216 -0.5 L 79.56505707057607 -0.5 Z"/><text text-anchor="middle" pointer-events="none" font-size="8px" fill="#000000" x="56.78380707057608" y="3" font-family="Helvetica Neue, Helvetica, Arial, sans-serif">ACTED_IN</text></g><g class="relationship" transform="translate(-91.5 -1.979387237907762) rotate(340.1186552487094)"><path class="b-outline" fill="#A5ABB6" stroke="none" d="M 25 0.5 L 112.36409598937354 0.5 L 112.36409598937354 -0.5 L 25 -0.5 Z M 157.92659598937354 0.5 L 245.29069197874708 0.5 L 245.29069197874708 3.5 L 252.29069197874708 0 L 245.29069197874708 -3.5 L 245.29069197874708 -0.5 L 157.92659598937354 -0.5 Z"/><text text-anchor="middle" pointer-events="none" font-size="8px" fill="#000000" x="135.14534598937354" y="3" font-family="Helvetica Neue, Helvetica, Arial, sans-serif">ACTED_IN</text></g><g class="relationship" transform="translate(-91.5 -1.979387237907762) rotate(459.7696968544058)"><path class="b-outline" fill="#A5ABB6" stroke="none" d="M 25 0.5 L 47.12383923643577 0.5 L 47.12383923643577 -0.5 L 25 -0.5 Z M 92.68633923643577 0.5 L 114.81017847287154 0.5 L 114.81017847287154 3.5 L 121.81017847287154 0 L 114.81017847287154 -3.5 L 114.81017847287154 -0.5 L 92.68633923643577 -0.5 Z"/><text text-anchor="middle" pointer-events="none" font-size="8px" fill="#000000" x="69.90508923643577" y="3" transform="rotate(180 69.90508923643577 0)" font-family="Helvetica Neue, Helvetica, Arial, sans-serif">ACTED_IN</text></g><g class="relationship" transform="translate(-91.5 -1.979387237907762) rotate(299.8621832691082)"><path class="b-outline" fill="#A5ABB6" stroke="none" d="M 25 0.5 L 61.89816600420562 0.5 L 61.89816600420562 -0.5 L 25 -0.5 Z M 107.46066600420562 0.5 L 144.35883200841124 0.5 L 144.35883200841124 3.5 L 151.35883200841124 0 L 144.35883200841124 -3.5 L 144.35883200841124 -0.5 L 107.46066600420562 -0.5 Z"/><text text-anchor="middle" pointer-events="none" font-size="8px" fill="#000000" x="84.67941600420562" y="3" font-family="Helvetica Neue, Helvetica, Arial, sans-serif">ACTED_IN</text></g><g class="relationship" transform="translate(-91.5 -1.979387237907762) rotate(325.07004342170364)"><path class="b-outline" fill="#A5ABB6" stroke="none" d="M 25 0.5 L 78.45488806254055 0.5 L 78.45488806254055 -0.5 L 25 -0.5 Z M 124.01738806254055 0.5 L 177.4722761250811 0.5 L 177.4722761250811 3.5 L 184.4722761250811 0 L 177.4722761250811 -3.5 L 177.4722761250811 -0.5 L 124.01738806254055 -0.5 Z"/><text text-anchor="middle" pointer-events="none" font-size="8px" fill="#000000" x="101.23613806254055" y="3" font-family="Helvetica Neue, Helvetica, Arial, sans-serif">ACTED_IN</text></g><g class="relationship" transform="translate(-91.5 -1.979387237907762) rotate(321.6361442600768)"><path class="b-outline" fill="#A5ABB6" stroke="none" d="M 25 0.5 L 126.38687237028935 0.5 L 126.38687237028935 -0.5 L 25 -0.5 Z M 171.94937237028935 0.5 L 273.3362447405787 0.5 L 273.3362447405787 3.5 L 280.3362447405787 0 L 273.3362447405787 -3.5 L 273.3362447405787 -0.5 L 171.94937237028935 -0.5 Z"/><text text-anchor="middle" pointer-events="none" font-size="8px" fill="#000000" x="149.16812237028935" y="3" font-family="Helvetica Neue, Helvetica, Arial, sans-serif">ACTED_IN</text></g><g class="relationship" transform="translate(-91.5 -1.979387237907762) rotate(290.50530012406995)"><path class="b-outline" fill="#A5ABB6" stroke="none" d="M 25 0.5 L 27.118199669417372 0.5 L 27.118199669417372 -0.5 L 25 -0.5 Z M 57.11819966941737 0.5 L 59.236399338834744 0.5 L 59.236399338834744 3.5 L 66.23639933883474 0 L 59.236399338834744 -3.5 L 59.236399338834744 -0.5 L 57.11819966941737 -0.5 Z"/><text text-anchor="middle" pointer-events="none" font-size="8px" fill="#000000" x="42.11819966941737" y="3" font-family="Helvetica Neue, Helvetica, Arial, sans-serif">ACT…</text></g><g class="relationship" transform="translate(-91.5 -1.979387237907762) rotate(283.6198378516968)"><path class="b-outline" fill="#A5ABB6" stroke="none" d="M 25 0.5 L 99.69399902244557 0.5 L 99.69399902244557 -0.5 L 25 -0.5 Z M 145.25649902244555 0.5 L 219.95049804489113 0.5 L 219.95049804489113 3.5 L 226.95049804489113 0 L 219.95049804489113 -3.5 L 219.95049804489113 -0.5 L 145.25649902244555 -0.5 Z"/><text text-anchor="middle" pointer-events="none" font-size="8px" fill="#000000" x="122.47524902244557" y="3" font-family="Helvetica Neue, Helvetica, Arial, sans-serif">ACTED_IN</text></g><g class="relationship" transform="translate(-91.5 -1.979387237907762) rotate(304.50484134956787)"><path class="b-outline" fill="#A5ABB6" stroke="none" d="M 25 0.5 L 105.77586122214859 0.5 L 105.77586122214859 -0.5 L 25 -0.5 Z M 151.3383612221486 0.5 L 232.11422244429718 0.5 L 232.11422244429718 3.5 L 239.11422244429718 0 L 232.11422244429718 -3.5 L 232.11422244429718 -0.5 L 151.3383612221486 -0.5 Z"/><text text-anchor="middle" pointer-events="none" font-size="8px" fill="#000000" x="128.5571112221486" y="3" font-family="Helvetica Neue, Helvetica, Arial, sans-serif">ACTED_IN</text></g><g class="relationship" transform="translate(-91.5 -1.979387237907762) rotate(262.484800120511)"><path class="b-outline" fill="#A5ABB6" stroke="none" d="M 25 0.5 L 106.79418658487836 0.5 L 106.79418658487836 -0.5 L 25 -0.5 Z M 152.35668658487836 0.5 L 234.15087316975672 0.5 L 234.15087316975672 3.5 L 241.15087316975672 0 L 234.15087316975672 -3.5 L 234.15087316975672 -0.5 L 152.35668658487836 -0.5 Z"/><text text-anchor="middle" pointer-events="none" font-size="8px" fill="#000000" x="129.57543658487836" y="3" transform="rotate(180 129.57543658487836 0)" font-family="Helvetica Neue, Helvetica, Arial, sans-serif">ACTED_IN</text></g><g class="relationship" transform="translate(-91.5 -1.979387237907762) rotate(270.15369926604785)"><path class="b-outline" fill="#A5ABB6" stroke="none" d="M 25 0.5 L 60.12383043730482 0.5 L 60.12383043730482 -0.5 L 25 -0.5 Z M 105.68633043730482 0.5 L 140.81016087460964 0.5 L 140.81016087460964 3.5 L 147.81016087460964 0 L 140.81016087460964 -3.5 L 140.81016087460964 -0.5 L 105.68633043730482 -0.5 Z"/><text text-anchor="middle" pointer-events="none" font-size="8px" fill="#000000" x="82.90508043730482" y="3" font-family="Helvetica Neue, Helvetica, Arial, sans-serif">ACTED_IN</text></g><g class="relationship" transform="translate(-91.5 -1.979387237907762) rotate(243.36208984838197)"><path class="b-outline" fill="#A5ABB6" stroke="none" d="M 25 0.5 L 76.84517177172106 0.5 L 76.84517177172106 -0.5 L 25 -0.5 Z M 122.40767177172106 0.5 L 174.2528435434421 0.5 L 174.2528435434421 3.5 L 181.2528435434421 0 L 174.2528435434421 -3.5 L 174.2528435434421 -0.5 L 122.40767177172106 -0.5 Z"/><text text-anchor="middle" pointer-events="none" font-size="8px" fill="#000000" x="99.62642177172106" y="3" transform="rotate(180 99.62642177172106 0)" font-family="Helvetica Neue, Helvetica, Arial, sans-serif">ACTED_IN</text></g><g class="relationship" transform="translate(-91.5 -1.979387237907762) rotate(236.06760337342644)"><path class="b-outline" fill="#A5ABB6" stroke="none" d="M 25 0.5 L 30.91630155063463 0.5 L 30.91630155063463 -0.5 L 25 -0.5 Z M 76.47880155063463 0.5 L 82.39510310126926 0.5 L 82.39510310126926 3.5 L 89.39510310126926 0 L 82.39510310126926 -3.5 L 82.39510310126926 -0.5 L 76.47880155063463 -0.5 Z"/><text text-anchor="middle" pointer-events="none" font-size="8px" fill="#000000" x="53.69755155063463" y="3" transform="rotate(180 53.69755155063463 0)" font-family="Helvetica Neue, Helvetica, Arial, sans-serif">ACTED_IN</text></g><g class="relationship" transform="translate(-91.5 -1.979387237907762) rotate(204.2549353776419)"><path class="b-outline" fill="#A5ABB6" stroke="none" d="M 25 0.5 L 111.86014014068638 0.5 L 111.86014014068638 -0.5 L 25 -0.5 Z M 157.42264014068638 0.5 L 244.28278028137277 0.5 L 244.28278028137277 3.5 L 251.28278028137277 0 L 244.28278028137277 -3.5 L 244.28278028137277 -0.5 L 157.42264014068638 -0.5 Z"/><text text-anchor="middle" pointer-events="none" font-size="8px" fill="#000000" x="134.64139014068638" y="3" transform="rotate(180 134.64139014068638 0)" font-family="Helvetica Neue, Helvetica, Arial, sans-serif">ACTED_IN</text></g><g class="relationship" transform="translate(-91.5 -1.979387237907762) rotate(185.54723259468244)"><path class="b-outline" fill="#A5ABB6" stroke="none" d="M 25 0.5 L 123.83063195530247 0.5 L 123.83063195530247 -0.5 L 25 -0.5 Z M 169.39313195530247 0.5 L 268.22376391060493 0.5 L 268.22376391060493 3.5 L 275.22376391060493 0 L 268.22376391060493 -3.5 L 268.22376391060493 -0.5 L 169.39313195530247 -0.5 Z"/><text text-anchor="middle" pointer-events="none" font-size="8px" fill="#000000" x="146.61188195530247" y="3" transform="rotate(180 146.61188195530247 0)" font-family="Helvetica Neue, Helvetica, Arial, sans-serif">ACTED_IN</text></g><g class="relationship" transform="translate(-91.5 -1.979387237907762) rotate(521.3816097120008)"><path class="b-outline" fill="#A5ABB6" stroke="none" d="M 25 0.5 L 64.08604224551797 0.5 L 64.08604224551797 -0.5 L 25 -0.5 Z M 109.64854224551797 0.5 L 148.73458449103595 0.5 L 148.73458449103595 3.5 L 155.73458449103595 0 L 148.73458449103595 -3.5 L 148.73458449103595 -0.5 L 109.64854224551797 -0.5 Z"/><text text-anchor="middle" pointer-events="none" font-size="8px" fill="#000000" x="86.86729224551797" y="3" transform="rotate(180 86.86729224551797 0)" font-family="Helvetica Neue, Helvetica, Arial, sans-serif">ACTED_IN</text></g><g class="relationship" transform="translate(-91.5 -1.979387237907762) rotate(224.77014160513215)"><path class="b-outline" fill="#A5ABB6" stroke="none" d="M 25 0.5 L 109.36770450272505 0.5 L 109.36770450272505 -0.5 L 25 -0.5 Z M 154.93020450272505 0.5 L 239.2979090054501 0.5 L 239.2979090054501 3.5 L 246.2979090054501 0 L 239.2979090054501 -3.5 L 239.2979090054501 -0.5 L 154.93020450272505 -0.5 Z"/><text text-anchor="middle" pointer-events="none" font-size="8px" fill="#000000" x="132.14895450272505" y="3" transform="rotate(180 132.14895450272505 0)" font-family="Helvetica Neue, Helvetica, Arial, sans-serif">ACTED_IN</text></g><g class="relationship" transform="translate(-91.5 -1.979387237907762) rotate(243.45369903526944)"><path class="b-outline" fill="#A5ABB6" stroke="none" d="M 25 0.5 L 122.49907722583876 0.5 L 122.49907722583876 -0.5 L 25 -0.5 Z M 168.06157722583876 0.5 L 265.5606544516775 0.5 L 265.5606544516775 3.5 L 272.5606544516775 0 L 265.5606544516775 -3.5 L 265.5606544516775 -0.5 L 168.06157722583876 -0.5 Z"/><text text-anchor="middle" pointer-events="none" font-size="8px" fill="#000000" x="145.28032722583876" y="3" transform="rotate(180 145.28032722583876 0)" font-family="Helvetica Neue, Helvetica, Arial, sans-serif">ACTED_IN</text></g><g class="relationship" transform="translate(-91.5 -1.979387237907762) rotate(214.998230178244)"><path class="b-outline" fill="#A5ABB6" stroke="none" d="M 25 0.5 L 66.78228363974169 0.5 L 66.78228363974169 -0.5 L 25 -0.5 Z M 112.34478363974169 0.5 L 154.12706727948338 0.5 L 154.12706727948338 3.5 L 161.12706727948338 0 L 154.12706727948338 -3.5 L 154.12706727948338 -0.5 L 112.34478363974169 -0.5 Z"/><text text-anchor="middle" pointer-events="none" font-size="8px" fill="#000000" x="89.56353363974169" y="3" transform="rotate(180 89.56353363974169 0)" font-family="Helvetica Neue, Helvetica, Arial, sans-serif">ACTED_IN</text></g><g class="relationship" transform="translate(-91.5 -1.979387237907762) rotate(396.66951449631676)"><path class="b-outline" fill="#A5ABB6" stroke="none" d="M 24.018736134675446,-6.953439040707552 L 24.277555179777966,-5.987513214418485 A 337.47669942059366 337.47669942059366 0 0 1 85.60031890118562,-16.481961965595872 L 85.52320947878206,-17.478984601736386 A 338.47669942059366 338.47669942059366 0 0 0 24.018736134675446,-6.953439040707552 Z M 132.4441167266514,-17.845746024033986 L 132.3826024052989,-16.84763982313723 A 337.47669942059366 337.47669942059366 0 0 1 193.86192460936033,-7.313084440116952 L 193.13086105016598,-4.403523292380392 L 200.77274454727802,-6.092196326619558 L 194.83667602161947,-11.192499303765699 L 194.1056124624251,-8.282938156029138 A 338.47669942059366 338.47669942059366 0 0 0 132.4441167266514,-17.845746024033986"/><text text-anchor="middle" pointer-events="none" font-size="8px" fill="#000000" x="108.98120820129407" y="-14.97642833847192" font-family="Helvetica Neue, Helvetica, Arial, sans-serif">DIRECTED</text></g><g class="relationship" transform="translate(-91.5 -1.979387237907762) rotate(396.66951449631676)"><path class="b-outline" fill="#A5ABB6" stroke="none" d="M 24.018736134675446,6.953439040707552 L 24.277555179777966,5.987513214418485 A 337.47669942059366 337.47669942059366 0 0 0 86.26147456668676,16.532442179605198 L 86.1863242592877,17.529614397077125 A 338.47669942059366 338.47669942059366 0 0 1 24.018736134675446,6.953439040707552 Z M 131.78029151637722,17.886003675550853 L 131.72073840893228,16.88777853692045 A 337.47669942059366 337.47669942059366 0 0 0 193.86192460936033,7.313084440116952 L 193.13086105016598,4.403523292380392 L 200.77274454727802,6.092196326619558 L 194.83667602161947,11.192499303765699 L 194.1056124624251,8.282938156029138 A 338.47669942059366 338.47669942059366 0 0 1 131.78029151637722,17.886003675550853"/><text text-anchor="middle" pointer-events="none" font-size="8px" fill="#000000" x="108.98120820129411" y="20.97642833847192" font-family="Helvetica Neue, Helvetica, Arial, sans-serif">ACTED_IN</text></g><g class="relationship" transform="translate(-91.5 -1.979387237907762) rotate(186.937514299851)"><path class="b-outline" fill="#A5ABB6" stroke="none" d="M 25 0.5 L 78.2958689604414 0.5 L 78.2958689604414 -0.5 L 25 -0.5 Z M 123.8583689604414 0.5 L 177.1542379208828 0.5 L 177.1542379208828 3.5 L 184.1542379208828 0 L 177.1542379208828 -3.5 L 177.1542379208828 -0.5 L 123.8583689604414 -0.5 Z"/><text text-anchor="middle" pointer-events="none" font-size="8px" fill="#000000" x="101.0771189604414" y="3" transform="rotate(180 101.0771189604414 0)" font-family="Helvetica Neue, Helvetica, Arial, sans-serif">ACTED_IN</text></g><g class="relationship" transform="translate(-91.5 -1.979387237907762) rotate(490.83865851537666)"><path class="b-outline" fill="#A5ABB6" stroke="none" d="M 25 0.5 L 66.18919541209344 0.5 L 66.18919541209344 -0.5 L 25 -0.5 Z M 111.75169541209344 0.5 L 152.94089082418688 0.5 L 152.94089082418688 3.5 L 159.94089082418688 0 L 152.94089082418688 -3.5 L 152.94089082418688 -0.5 L 111.75169541209344 -0.5 Z"/><text text-anchor="middle" pointer-events="none" font-size="8px" fill="#000000" x="88.97044541209344" y="3" transform="rotate(180 88.97044541209344 0)" font-family="Helvetica Neue, Helvetica, Arial, sans-serif">ACTED_IN</text></g><g class="relationship" transform="translate(-91.5 -1.979387237907762) rotate(419.60258694669835)"><path class="b-outline" fill="#A5ABB6" stroke="none" d="M 25 0.5 L 26.004903734460108 0.5 L 26.004903734460108 -0.5 L 25 -0.5 Z M 61.34084123446011 0.5 L 62.345744968920215 0.5 L 62.345744968920215 3.5 L 69.34574496892022 0 L 62.345744968920215 -3.5 L 62.345744968920215 -0.5 L 61.34084123446011 -0.5 Z"/><text text-anchor="middle" pointer-events="none" font-size="8px" fill="#000000" x="43.67287248446011" y="3" font-family="Helvetica Neue, Helvetica, Arial, sans-serif">ACTE…</text></g><g class="relationship" transform="translate(-91.5 -1.979387237907762) rotate(486.63123354235586)"><path class="b-outline" fill="#A5ABB6" stroke="none" d="M 25 0.5 L 112.7465290184704 0.5 L 112.7465290184704 -0.5 L 25 -0.5 Z M 158.3090290184704 0.5 L 246.0555580369408 0.5 L 246.0555580369408 3.5 L 253.0555580369408 0 L 246.0555580369408 -3.5 L 246.0555580369408 -0.5 L 158.3090290184704 -0.5 Z"/><text text-anchor="middle" pointer-events="none" font-size="8px" fill="#000000" x="135.5277790184704" y="3" transform="rotate(180 135.5277790184704 0)" font-family="Helvetica Neue, Helvetica, Arial, sans-serif">ACTED_IN</text></g><g class="relationship" transform="translate(-91.5 -1.979387237907762) rotate(502.0342851091557)"><path class="b-outline" fill="#A5ABB6" stroke="none" d="M 25 0.5 L 26.352417821551832 0.5 L 26.352417821551832 -0.5 L 25 -0.5 Z M 61.68835532155183 0.5 L 63.040773143103664 0.5 L 63.040773143103664 3.5 L 70.04077314310366 0 L 63.040773143103664 -3.5 L 63.040773143103664 -0.5 L 61.68835532155183 -0.5 Z"/><text text-anchor="middle" pointer-events="none" font-size="8px" fill="#000000" x="44.02038657155183" y="3" transform="rotate(180 44.02038657155183 0)" font-family="Helvetica Neue, Helvetica, Arial, sans-serif">ACTE…</text></g></g><g class="layer nodes"><g class="node" aria-label="graph-node14838" transform="translate(-91.5,-1.979387237907762)"><circle class="b-outline" cx="0" cy="0" r="25" fill="#8DCC93" stroke="#5db665" stroke-width="2px"/><text class="caption" text-anchor="middle" pointer-events="none" x="0" y="0" font-size="10px" fill="#2A2C34" font-family="Helvetica Neue, Helvetica, Arial, sans-serif"> Tom</text><text class="caption" text-anchor="middle" pointer-events="none" x="0" y="10" font-size="10px" fill="#2A2C34" font-family="Helvetica Neue, Helvetica, Arial, sans-serif"> Hanks</text></g><g class="node" aria-label="graph-node0" transform="translate(-207.72055238243448,-22.39437852653546)"><circle class="b-outline" cx="0" cy="0" r="25" fill="#C990C0" stroke="#b261a5" stroke-width="2px"/><text class="caption" text-anchor="middle" pointer-events="none" x="0" y="5" font-size="10px" fill="#FFFFFF" font-family="Helvetica Neue, Helvetica, Arial, sans-serif"> Toy Story</text></g><g class="node" aria-label="graph-node146" transform="translate(7.654216940274827,158.33764464137295)"><circle class="b-outline" cx="0" cy="0" r="25" fill="#C990C0" stroke="#b261a5" stroke-width="2px"/><text class="caption" text-anchor="middle" pointer-events="none" x="0" y="5" font-size="10px" fill="#FFFFFF" font-family="Helvetica Neue, Helvetica, Arial, sans-serif"> Apollo 13</text></g><g class="node" aria-label="graph-node340" transform="translate(-307.051599136309,141.0725852742003)"><circle class="b-outline" cx="0" cy="0" r="25" fill="#C990C0" stroke="#b261a5" stroke-width="2px"/><text class="caption" text-anchor="middle" pointer-events="none" x="0" y="0" font-size="10px" fill="#FFFFFF" font-family="Helvetica Neue, Helvetica, Arial, sans-serif"> Forrest</text><text class="caption" text-anchor="middle" pointer-events="none" x="0" y="10" font-size="10px" fill="#FFFFFF" font-family="Helvetica Neue, Helvetica, Arial, sans-serif"> Gump</text></g><g class="node" aria-label="graph-node473" transform="translate(-163.70873096899186,222.699949204604)"><circle class="b-outline" cx="0" cy="0" r="25" fill="#C990C0" stroke="#b261a5" stroke-width="2px"/><text class="caption" text-anchor="middle" pointer-events="none" x="0" y="5" font-size="10px" fill="#FFFFFF" font-family="Helvetica Neue, Helvetica, Arial, sans-serif"> Philadel…</text></g><g class="node" aria-label="graph-node502" transform="translate(-96.64977805765213,291.46320240942106)"><circle class="b-outline" cx="0" cy="0" r="25" fill="#C990C0" stroke="#b261a5" stroke-width="2px"/><text class="caption" text-anchor="middle" pointer-events="none" x="0" y="0" font-size="10px" fill="#FFFFFF" font-family="Helvetica Neue, Helvetica, Arial, sans-serif"> Sleepless</text><text class="caption" text-anchor="middle" pointer-events="none" x="0" y="10" font-size="10px" fill="#FFFFFF" font-family="Helvetica Neue, Helvetica, Arial, sans-serif"> in Seattl</text></g><g class="node" aria-label="graph-node863" transform="translate(-64.78069581441717,204.63948075755263)"><circle class="b-outline" cx="0" cy="0" r="25" fill="#C990C0" stroke="#b261a5" stroke-width="2px"/><text class="caption" text-anchor="middle" pointer-events="none" x="0" y="-5" font-size="10px" fill="#FFFFFF" font-family="Helvetica Neue, Helvetica, Arial, sans-serif"> That</text><text class="caption" text-anchor="middle" pointer-events="none" x="0" y="5" font-size="10px" fill="#FFFFFF" font-family="Helvetica Neue, Helvetica, Arial, sans-serif"> Thing You</text><text class="caption" text-anchor="middle" pointer-events="none" x="0" y="15" font-size="10px" fill="#FFFFFF" font-family="Helvetica Neue, Helvetica, Arial, sans-serif"> Do!</text></g><g class="node" aria-label="graph-node1609" transform="translate(-0.9563347322970656,261.50760962439625)"><circle class="b-outline" cx="0" cy="0" r="25" fill="#C990C0" stroke="#b261a5" stroke-width="2px"/><text class="caption" text-anchor="middle" pointer-events="none" x="0" y="-5" font-size="10px" fill="#FFFFFF" font-family="Helvetica Neue, Helvetica, Arial, sans-serif"> Saving</text><text class="caption" text-anchor="middle" pointer-events="none" x="0" y="5" font-size="10px" fill="#FFFFFF" font-family="Helvetica Neue, Helvetica, Arial, sans-serif"> Private</text><text class="caption" text-anchor="middle" pointer-events="none" x="0" y="15" font-size="10px" fill="#FFFFFF" font-family="Helvetica Neue, Helvetica, Arial, sans-serif"> Ryan</text></g><g class="node" aria-label="graph-node1651" transform="translate(-352.58038288411825,58.21560896797373)"><circle class="b-outline" cx="0" cy="0" r="25" fill="#C990C0" stroke="#b261a5" stroke-width="2px"/><text class="caption" text-anchor="middle" pointer-events="none" x="0" y="0" font-size="10px" fill="#FFFFFF" font-family="Helvetica Neue, Helvetica, Arial, sans-serif"> 'burbs,</text><text class="caption" text-anchor="middle" pointer-events="none" x="0" y="10" font-size="10px" fill="#FFFFFF" font-family="Helvetica Neue, Helvetica, Arial, sans-serif"> The</text></g><g class="node" aria-label="graph-node1679" transform="translate(83.84634745274322,219.5277345708311)"><circle class="b-outline" cx="0" cy="0" r="25" fill="#C990C0" stroke="#b261a5" stroke-width="2px"/><text class="caption" text-anchor="middle" pointer-events="none" x="0" y="5" font-size="10px" fill="#FFFFFF" font-family="Helvetica Neue, Helvetica, Arial, sans-serif"> Splash</text></g><g class="node" aria-label="graph-node1904" transform="translate(38.78504771369606,47.591937184265355)"><circle class="b-outline" cx="0" cy="0" r="25" fill="#C990C0" stroke="#b261a5" stroke-width="2px"/><text class="caption" text-anchor="middle" pointer-events="none" x="0" y="0" font-size="10px" fill="#FFFFFF" font-family="Helvetica Neue, Helvetica, Arial, sans-serif"> Money</text><text class="caption" text-anchor="middle" pointer-events="none" x="0" y="10" font-size="10px" fill="#FFFFFF" font-family="Helvetica Neue, Helvetica, Arial, sans-serif"> Pit, The</text></g><g class="node" aria-label="graph-node1947" transform="translate(190.97225159319706,119.77678617843392)"><circle class="b-outline" cx="0" cy="0" r="25" fill="#C990C0" stroke="#b261a5" stroke-width="2px"/><text class="caption" text-anchor="middle" pointer-events="none" x="0" y="-5" font-size="10px" fill="#FFFFFF" font-family="Helvetica Neue, Helvetica, Arial, sans-serif"> Nothing</text><text class="caption" text-anchor="middle" pointer-events="none" x="0" y="5" font-size="10px" fill="#FFFFFF" font-family="Helvetica Neue, Helvetica, Arial, sans-serif"> in</text><text class="caption" text-anchor="middle" pointer-events="none" x="0" y="15" font-size="10px" fill="#FFFFFF" font-family="Helvetica Neue, Helvetica, Arial, sans-serif"> Co…</text></g><g class="node" aria-label="graph-node1953" transform="translate(201.5511612673686,-6.963429236417397)"><circle class="b-outline" cx="0" cy="0" r="25" fill="#C990C0" stroke="#b261a5" stroke-width="2px"/><text class="caption" text-anchor="middle" pointer-events="none" x="0" y="0" font-size="10px" fill="#FFFFFF" font-family="Helvetica Neue, Helvetica, Arial, sans-serif"> You've</text><text class="caption" text-anchor="middle" pointer-events="none" x="0" y="10" font-size="10px" fill="#FFFFFF" font-family="Helvetica Neue, Helvetica, Arial, sans-serif"> M…</text></g><g class="node" aria-label="graph-node2260" transform="translate(128.37395231486283,50.955820296780104)"><circle class="b-outline" cx="0" cy="0" r="25" fill="#C990C0" stroke="#b261a5" stroke-width="2px"/><text class="caption" text-anchor="middle" pointer-events="none" x="0" y="5" font-size="10px" fill="#FFFFFF" font-family="Helvetica Neue, Helvetica, Arial, sans-serif"> Big</text></g><g class="node" aria-label="graph-node2525" transform="translate(107.3503025430151,-26.700061116499004)"><circle class="b-outline" cx="0" cy="0" r="25" fill="#C990C0" stroke="#b261a5" stroke-width="2px"/><text class="caption" text-anchor="middle" pointer-events="none" x="0" y="0" font-size="10px" fill="#FFFFFF" font-family="Helvetica Neue, Helvetica, Arial, sans-serif"> Toy Story</text><text class="caption" text-anchor="middle" pointer-events="none" x="0" y="10" font-size="10px" fill="#FFFFFF" font-family="Helvetica Neue, Helvetica, Arial, sans-serif"> 2</text></g><g class="node" aria-label="graph-node2537" transform="translate(21.308557816330676,-44.532634623851564)"><circle class="b-outline" cx="0" cy="0" r="25" fill="#C990C0" stroke="#b261a5" stroke-width="2px"/><text class="caption" text-anchor="middle" pointer-events="none" x="0" y="0" font-size="10px" fill="#FFFFFF" font-family="Helvetica Neue, Helvetica, Arial, sans-serif"> Bonfire of</text><text class="caption" text-anchor="middle" pointer-events="none" x="0" y="10" font-size="10px" fill="#FFFFFF" font-family="Helvetica Neue, Helvetica, Arial, sans-serif"> the Vani</text></g><g class="node" aria-label="graph-node2550" transform="translate(169.26386261035185,-96.27856970828728)"><circle class="b-outline" cx="0" cy="0" r="25" fill="#C990C0" stroke="#b261a5" stroke-width="2px"/><text class="caption" text-anchor="middle" pointer-events="none" x="0" y="0" font-size="10px" fill="#FFFFFF" font-family="Helvetica Neue, Helvetica, Arial, sans-serif"> Green</text><text class="caption" text-anchor="middle" pointer-events="none" x="0" y="10" font-size="10px" fill="#FFFFFF" font-family="Helvetica Neue, Helvetica, Arial, sans-serif">Th…</text></g><g class="node" aria-label="graph-node2630" transform="translate(-116.41197009690173,142.7017181253271)"><circle class="b-outline" cx="0" cy="0" r="25" fill="#C990C0" stroke="#b261a5" stroke-width="2px"/><text class="caption" text-anchor="middle" pointer-events="none" x="0" y="-5" font-size="10px" fill="#FFFFFF" font-family="Helvetica Neue, Helvetica, Arial, sans-serif"> League</text><text class="caption" text-anchor="middle" pointer-events="none" x="0" y="5" font-size="10px" fill="#FFFFFF" font-family="Helvetica Neue, Helvetica, Arial, sans-serif"> of Their</text><text class="caption" text-anchor="middle" pointer-events="none" x="0" y="15" font-size="10px" fill="#FFFFFF" font-family="Helvetica Neue, Helvetica, Arial, sans-serif"> Own</text></g><g class="node" aria-label="graph-node2718" transform="translate(-3.688211667168129,-154.92227676586506)"><circle class="b-outline" cx="0" cy="0" r="25" fill="#C990C0" stroke="#b261a5" stroke-width="2px"/><text class="caption" text-anchor="middle" pointer-events="none" x="0" y="5" font-size="10px" fill="#FFFFFF" font-family="Helvetica Neue, Helvetica, Arial, sans-serif"> Voluntee…</text></g><g class="node" aria-label="graph-node2835" transform="translate(80.23639492447222,-121.91789282876432)"><circle class="b-outline" cx="0" cy="0" r="25" fill="#C990C0" stroke="#b261a5" stroke-width="2px"/><text class="caption" text-anchor="middle" pointer-events="none" x="0" y="0" font-size="10px" fill="#FFFFFF" font-family="Helvetica Neue, Helvetica, Arial, sans-serif"> Bachelor</text><text class="caption" text-anchor="middle" pointer-events="none" x="0" y="10" font-size="10px" fill="#FFFFFF" font-family="Helvetica Neue, Helvetica, Arial, sans-serif"> Party</text></g><g class="node" aria-label="graph-node3233" transform="translate(147.90961341286118,-191.48732732956438)"><circle class="b-outline" cx="0" cy="0" r="25" fill="#C990C0" stroke="#b261a5" stroke-width="2px"/><text class="caption" text-anchor="middle" pointer-events="none" x="0" y="5" font-size="10px" fill="#FFFFFF" font-family="Helvetica Neue, Helvetica, Arial, sans-serif"> Punchline</text></g><g class="node" aria-label="graph-node3686" transform="translate(-59.54043433395686,-87.43502910404321)"><circle class="b-outline" cx="0" cy="0" r="25" fill="#C990C0" stroke="#b261a5" stroke-width="2px"/><text class="caption" text-anchor="middle" pointer-events="none" x="0" y="0" font-size="10px" fill="#FFFFFF" font-family="Helvetica Neue, Helvetica, Arial, sans-serif"> Turner &amp;</text><text class="caption" text-anchor="middle" pointer-events="none" x="0" y="10" font-size="10px" fill="#FFFFFF" font-family="Helvetica Neue, Helvetica, Arial, sans-serif"> Hooch</text></g><g class="node" aria-label="graph-node4078" transform="translate(-32.17104271796902,-246.8449182807551)"><circle class="b-outline" cx="0" cy="0" r="25" fill="#C990C0" stroke="#b261a5" stroke-width="2px"/><text class="caption" text-anchor="middle" pointer-events="none" x="0" y="-5" font-size="10px" fill="#FFFFFF" font-family="Helvetica Neue, Helvetica, Arial, sans-serif"> Joe</text><text class="caption" text-anchor="middle" pointer-events="none" x="0" y="5" font-size="10px" fill="#FFFFFF" font-family="Helvetica Neue, Helvetica, Arial, sans-serif"> Versus</text><text class="caption" text-anchor="middle" pointer-events="none" x="0" y="15" font-size="10px" fill="#FFFFFF" font-family="Helvetica Neue, Helvetica, Arial, sans-serif">Vo…</text></g><g class="node" aria-label="graph-node4436" transform="translate(58.11433433395834,-219.6301934830541)"><circle class="b-outline" cx="0" cy="0" r="25" fill="#C990C0" stroke="#b261a5" stroke-width="2px"/><text class="caption" text-anchor="middle" pointer-events="none" x="0" y="0" font-size="10px" fill="#FFFFFF" font-family="Helvetica Neue, Helvetica, Arial, sans-serif"> Catch Me</text><text class="caption" text-anchor="middle" pointer-events="none" x="0" y="10" font-size="10px" fill="#FFFFFF" font-family="Helvetica Neue, Helvetica, Arial, sans-serif">Ca…</text></g><g class="node" aria-label="graph-node5017" transform="translate(-126.30966137588658,-265.8440774939555)"><circle class="b-outline" cx="0" cy="0" r="25" fill="#C990C0" stroke="#b261a5" stroke-width="2px"/><text class="caption" text-anchor="middle" pointer-events="none" x="0" y="5" font-size="10px" fill="#FFFFFF" font-family="Helvetica Neue, Helvetica, Arial, sans-serif"> Dragnet</text></g><g class="node" aria-label="graph-node5149" transform="translate(-91.0364272331749,-174.78892633166936)"><circle class="b-outline" cx="0" cy="0" r="25" fill="#C990C0" stroke="#b261a5" stroke-width="2px"/><text class="caption" text-anchor="middle" pointer-events="none" x="0" y="5" font-size="10px" fill="#FFFFFF" font-family="Helvetica Neue, Helvetica, Arial, sans-serif"> Ladykille…</text></g><g class="node" aria-label="graph-node5464" transform="translate(-183.97358886922726,-186.34009571832323)"><circle class="b-outline" cx="0" cy="0" r="25" fill="#C990C0" stroke="#b261a5" stroke-width="2px"/><text class="caption" text-anchor="middle" pointer-events="none" x="0" y="0" font-size="10px" fill="#FFFFFF" font-family="Helvetica Neue, Helvetica, Arial, sans-serif"> Terminal,</text><text class="caption" text-anchor="middle" pointer-events="none" x="0" y="10" font-size="10px" fill="#FFFFFF" font-family="Helvetica Neue, Helvetica, Arial, sans-serif"> The</text></g><g class="node" aria-label="graph-node5607" transform="translate(-155.35698604084297,-96.89263682577936)"><circle class="b-outline" cx="0" cy="0" r="25" fill="#C990C0" stroke="#b261a5" stroke-width="2px"/><text class="caption" text-anchor="middle" pointer-events="none" x="0" y="-5" font-size="10px" fill="#FFFFFF" font-family="Helvetica Neue, Helvetica, Arial, sans-serif"> Man with</text><text class="caption" text-anchor="middle" pointer-events="none" x="0" y="5" font-size="10px" fill="#FFFFFF" font-family="Helvetica Neue, Helvetica, Arial, sans-serif"> One Red</text><text class="caption" text-anchor="middle" pointer-events="none" x="0" y="15" font-size="10px" fill="#FFFFFF" font-family="Helvetica Neue, Helvetica, Arial, sans-serif"> Sh</text></g><g class="node" aria-label="graph-node5648" transform="translate(-343.39437688256857,-115.47563199934389)"><circle class="b-outline" cx="0" cy="0" r="25" fill="#C990C0" stroke="#b261a5" stroke-width="2px"/><text class="caption" text-anchor="middle" pointer-events="none" x="0" y="-5" font-size="10px" fill="#FFFFFF" font-family="Helvetica Neue, Helvetica, Arial, sans-serif"> Polar</text><text class="caption" text-anchor="middle" pointer-events="none" x="0" y="5" font-size="10px" fill="#FFFFFF" font-family="Helvetica Neue, Helvetica, Arial, sans-serif"> Express,</text><text class="caption" text-anchor="middle" pointer-events="none" x="0" y="15" font-size="10px" fill="#FFFFFF" font-family="Helvetica Neue, Helvetica, Arial, sans-serif"> The</text></g><g class="node" aria-label="graph-node5902" transform="translate(-390.3177704911814,-31.000904347291982)"><circle class="b-outline" cx="0" cy="0" r="25" fill="#C990C0" stroke="#b261a5" stroke-width="2px"/><text class="caption" text-anchor="middle" pointer-events="none" x="0" y="0" font-size="10px" fill="#FFFFFF" font-family="Helvetica Neue, Helvetica, Arial, sans-serif"> From the</text><text class="caption" text-anchor="middle" pointer-events="none" x="0" y="10" font-size="10px" fill="#FFFFFF" font-family="Helvetica Neue, Helvetica, Arial, sans-serif">t…</text></g><g class="node" aria-label="graph-node6451" transform="translate(-262.7760179409095,55.72256861674805)"><circle class="b-outline" cx="0" cy="0" r="25" fill="#C990C0" stroke="#b261a5" stroke-width="2px"/><text class="caption" text-anchor="middle" pointer-events="none" x="0" y="0" font-size="10px" fill="#FFFFFF" font-family="Helvetica Neue, Helvetica, Arial, sans-serif"> Da Vinci</text><text class="caption" text-anchor="middle" pointer-events="none" x="0" y="10" font-size="10px" fill="#FFFFFF" font-family="Helvetica Neue, Helvetica, Arial, sans-serif">Th…</text></g><g class="node" aria-label="graph-node6876" transform="translate(-284.1046526804541,-193.0448294208706)"><circle class="b-outline" cx="0" cy="0" r="25" fill="#C990C0" stroke="#b261a5" stroke-width="2px"/><text class="caption" text-anchor="middle" pointer-events="none" x="0" y="-5" font-size="10px" fill="#FFFFFF" font-family="Helvetica Neue, Helvetica, Arial, sans-serif"> Charlie</text><text class="caption" text-anchor="middle" pointer-events="none" x="0" y="5" font-size="10px" fill="#FFFFFF" font-family="Helvetica Neue, Helvetica, Arial, sans-serif"> Wilson's</text><text class="caption" text-anchor="middle" pointer-events="none" x="0" y="15" font-size="10px" fill="#FFFFFF" font-family="Helvetica Neue, Helvetica, Arial, sans-serif"> Wa</text></g><g class="node" aria-label="graph-node7241" transform="translate(-224.48606585992832,-268.16926188532824)"><circle class="b-outline" cx="0" cy="0" r="25" fill="#C990C0" stroke="#b261a5" stroke-width="2px"/><text class="caption" text-anchor="middle" pointer-events="none" x="0" y="0" font-size="10px" fill="#FFFFFF" font-family="Helvetica Neue, Helvetica, Arial, sans-serif"> Angels &amp;</text><text class="caption" text-anchor="middle" pointer-events="none" x="0" y="10" font-size="10px" fill="#FFFFFF" font-family="Helvetica Neue, Helvetica, Arial, sans-serif"> Demo…</text></g><g class="node" aria-label="graph-node7575" transform="translate(-243.96966526086203,-108.73277757892699)"><circle class="b-outline" cx="0" cy="0" r="25" fill="#C990C0" stroke="#b261a5" stroke-width="2px"/><text class="caption" text-anchor="middle" pointer-events="none" x="0" y="0" font-size="10px" fill="#FFFFFF" font-family="Helvetica Neue, Helvetica, Arial, sans-serif"> Toy Story</text><text class="caption" text-anchor="middle" pointer-events="none" x="0" y="10" font-size="10px" fill="#FFFFFF" font-family="Helvetica Neue, Helvetica, Arial, sans-serif"> 3</text></g><g class="node" aria-label="graph-node7849" transform="translate(88.98634979886548,132.40166518727332)"><circle class="b-outline" cx="0" cy="0" r="25" fill="#C990C0" stroke="#b261a5" stroke-width="2px"/><text class="caption" text-anchor="middle" pointer-events="none" x="0" y="0" font-size="10px" fill="#FFFFFF" font-family="Helvetica Neue, Helvetica, Arial, sans-serif"> Larry</text><text class="caption" text-anchor="middle" pointer-events="none" x="0" y="10" font-size="10px" fill="#FFFFFF" font-family="Helvetica Neue, Helvetica, Arial, sans-serif"> Crowne</text></g><g class="node" aria-label="graph-node7964" transform="translate(-299.12290884713195,-27.242462310447483)"><circle class="b-outline" cx="0" cy="0" r="25" fill="#C990C0" stroke="#b261a5" stroke-width="2px"/><text class="caption" text-anchor="middle" pointer-events="none" x="0" y="0" font-size="10px" fill="#FFFFFF" font-family="Helvetica Neue, Helvetica, Arial, sans-serif"> Extremely</text><text class="caption" text-anchor="middle" pointer-events="none" x="0" y="10" font-size="10px" fill="#FFFFFF" font-family="Helvetica Neue, Helvetica, Arial, sans-serif">an…</text></g><g class="node" aria-label="graph-node8188" transform="translate(-212.438621198255,137.93838504820604)"><circle class="b-outline" cx="0" cy="0" r="25" fill="#C990C0" stroke="#b261a5" stroke-width="2px"/><text class="caption" text-anchor="middle" pointer-events="none" x="0" y="0" font-size="10px" fill="#FFFFFF" font-family="Helvetica Neue, Helvetica, Arial, sans-serif"> Cloud</text><text class="caption" text-anchor="middle" pointer-events="none" x="0" y="10" font-size="10px" fill="#FFFFFF" font-family="Helvetica Neue, Helvetica, Arial, sans-serif"> Atlas</text></g><g class="node" aria-label="graph-node8444" transform="translate(-43.76154171166868,79.39726293887074)"><circle class="b-outline" cx="0" cy="0" r="25" fill="#C990C0" stroke="#b261a5" stroke-width="2px"/><text class="caption" text-anchor="middle" pointer-events="none" x="0" y="0" font-size="10px" fill="#FFFFFF" font-family="Helvetica Neue, Helvetica, Arial, sans-serif"> Captain</text><text class="caption" text-anchor="middle" pointer-events="none" x="0" y="10" font-size="10px" fill="#FFFFFF" font-family="Helvetica Neue, Helvetica, Arial, sans-serif"> Phillips</text></g><g class="node" aria-label="graph-node8457" transform="translate(-257.4053034767131,221.15806733557773)"><circle class="b-outline" cx="0" cy="0" r="25" fill="#C990C0" stroke="#b261a5" stroke-width="2px"/><text class="caption" text-anchor="middle" pointer-events="none" x="0" y="0" font-size="10px" fill="#FFFFFF" font-family="Helvetica Neue, Helvetica, Arial, sans-serif"> Toy Story</text><text class="caption" text-anchor="middle" pointer-events="none" x="0" y="10" font-size="10px" fill="#FFFFFF" font-family="Helvetica Neue, Helvetica, Arial, sans-serif"> Terr…</text></g><g class="node" aria-label="graph-node8496" transform="translate(-166.42815130233805,56.48872973239351)"><circle class="b-outline" cx="0" cy="0" r="25" fill="#C990C0" stroke="#b261a5" stroke-width="2px"/><text class="caption" text-anchor="middle" pointer-events="none" x="0" y="0" font-size="10px" fill="#FFFFFF" font-family="Helvetica Neue, Helvetica, Arial, sans-serif"> Saving</text><text class="caption" text-anchor="middle" pointer-events="none" x="0" y="10" font-size="10px" fill="#FFFFFF" font-family="Helvetica Neue, Helvetica, Arial, sans-serif"> Ba…</text></g></g></svg>