<svg xmlns="http://www.w3.org/2000/svg" width="343.95611572265625" height="194.06285095214844" viewBox="-167.76138305664062 -62.37191390991211 343.95611572265625 194.06285095214844"><title>Neo4j Graph Visualization</title><desc>Created using Neo4j (http://www.neo4j.com/)</desc><g class="layer relationships"><g class="relationship" transform="translate(147.1946979266434 89.08160626950503) rotate(534.9866982554473)"><path class="b-outline" fill="#A5ABB6" stroke="none" d="M 25 0.5 L 45.33922867926442 0.5 L 45.33922867926442 -0.5 L 25 -0.5 Z M 90.90172867926442 0.5 L 111.24095735852885 0.5 L 111.24095735852885 3.5 L 118.24095735852885 0 L 111.24095735852885 -3.5 L 111.24095735852885 -0.5 L 90.90172867926442 -0.5 Z"/><text text-anchor="middle" pointer-events="none" font-size="8px" fill="#000000" x="68.12047867926442" y="3" transform="rotate(180 68.12047867926442 0)" font-family="Helvetica Neue, Helvetica, Arial, sans-serif">ACTED_IN</text></g><g class="relationship" transform="translate(60.193992745588226 -33.37191329696424) rotate(472.4222311990768)"><path class="b-outline" fill="#A5ABB6" stroke="none" d="M 25 0.5 L 46.723507679160974 0.5 L 46.723507679160974 -0.5 L 25 -0.5 Z M 92.28600767916097 0.5 L 114.00951535832195 0.5 L 114.00951535832195 3.5 L 121.00951535832195 0 L 114.00951535832195 -3.5 L 114.00951535832195 -0.5 L 92.28600767916097 -0.5 Z"/><text text-anchor="middle" pointer-events="none" font-size="8px" fill="#000000" x="69.50475767916097" y="3" transform="rotate(180 69.50475767916097 0)" font-family="Helvetica Neue, Helvetica, Arial, sans-serif">ACTED_IN</text></g><g class="relationship" transform="translate(-67.24373040369193 -25.565164496967462) rotate(420.56850588615845)"><path class="b-outline" fill="#A5ABB6" stroke="none" d="M 25 0.5 L 46.72240681807588 0.5 L 46.72240681807588 -0.5 L 25 -0.5 Z M 92.28490681807588 0.5 L 114.00731363615176 0.5 L 114.00731363615176 3.5 L 121.00731363615176 0 L 114.00731363615176 -3.5 L 114.00731363615176 -0.5 L 92.28490681807588 -0.5 Z"/><text text-anchor="middle" pointer-events="none" font-size="8px" fill="#000000" x="69.50365681807588" y="3" font-family="Helvetica Neue, Helvetica, Arial, sans-serif">ACTED_IN</text></g><g class="relationship" transform="translate(-138.7613759599286 102.69093331278849) rotate(359.56330967046347)"><path class="b-outline" fill="#A5ABB6" stroke="none" d="M 25 0.5 L 45.352377491566685 0.5 L 45.352377491566685 -0.5 L 25 -0.5 Z M 90.91487749156668 0.5 L 111.26725498313337 0.5 L 111.26725498313337 3.5 L 118.26725498313337 0 L 111.26725498313337 -3.5 L 111.26725498313337 -0.5 L 90.91487749156668 -0.5 Z"/><text text-anchor="middle" pointer-events="none" font-size="8px" fill="#000000" x="68.13362749156668" y="3" font-family="Helvetica Neue, Helvetica, Arial, sans-serif">ACTED_IN</text></g></g><g class="layer nodes"><g class="node" aria-label="graph-node0" transform="translate(4.501717841060547,101.59900613063162)"><circle class="b-outline" cx="0" cy="0" r="25" fill="#C990C0" stroke="#b261a5" stroke-width="2px"/><text class="caption" text-anchor="middle" pointer-events="none" x="0" y="5" font-size="10px" fill="#FFFFFF" font-family="Helvetica Neue, Helvetica, Arial, sans-serif"> Toy Story</text></g><g class="node" aria-label="graph-node15766" transform="translate(147.1946979266434,89.08160626950503)"><circle class="b-outline" cx="0" cy="0" r="25" fill="#57C7E3" stroke="#23b3d7" stroke-width="2px"/><text class="caption" text-anchor="middle" pointer-events="none" x="0" y="0" font-size="10px" fill="#2A2C34" font-family="Helvetica Neue, Helvetica, Arial, sans-serif"> Jim</text><text class="caption" text-anchor="middle" pointer-events="none" x="0" y="10" font-size="10px" fill="#2A2C34" font-family="Helvetica Neue, Helvetica, Arial, sans-serif"> Varney</text></g><g class="node" aria-label="graph-node18107" transform="translate(60.193992745588226,-33.37191329696424)"><circle class="b-outline" cx="0" cy="0" r="25" fill="#57C7E3" stroke="#23b3d7" stroke-width="2px"/><text class="caption" text-anchor="middle" pointer-events="none" x="0" y="5" font-size="10px" fill="#2A2C34" font-family="Helvetica Neue, Helvetica, Arial, sans-serif"> Tim Allen</text></g><g class="node" aria-label="graph-node14838" transform="translate(-67.24373040369193,-25.565164496967462)"><circle class="b-outline" cx="0" cy="0" r="25" fill="#F16667" stroke="#eb2728" stroke-width="2px"/><text class="caption" text-anchor="middle" pointer-events="none" x="0" y="0" font-size="10px" fill="#FFFFFF" font-family="Helvetica Neue, Helvetica, Arial, sans-serif"> Tom</text><text class="caption" text-anchor="middle" pointer-events="none" x="0" y="10" font-size="10px" fill="#FFFFFF" font-family="Helvetica Neue, Helvetica, Arial, sans-serif"> Hanks</text></g><g class="node" aria-label="graph-node12086" transform="translate(-138.7613759599286,102.69093331278849)"><circle class="b-outline" cx="0" cy="0" r="25" fill="#57C7E3" stroke="#23b3d7" stroke-width="2px"/><text class="caption" text-anchor="middle" pointer-events="none" x="0" y="0" font-size="10px" fill="#2A2C34" font-family="Helvetica Neue, Helvetica, Arial, sans-serif"> Don</text><text class="caption" text-anchor="middle" pointer-events="none" x="0" y="10" font-size="10px" fill="#2A2C34" font-family="Helvetica Neue, Helvetica, Arial, sans-serif"> Rickles</text></g></g></svg>