<svg xmlns="http://www.w3.org/2000/svg" width="332.39739990234375" height="252.02072143554688" viewBox="-165.3740997314453 -79.04331970214844 332.39739990234375 252.02072143554688"><title>Neo4j Graph Visualization</title><desc>Created using Neo4j (http://www.neo4j.com/)</desc><g class="layer relationships"><g class="relationship" transform="translate(-0.5826218899934658 97.02173973764819) rotate(376.0160577512585)"><path class="b-outline" fill="#A5ABB6" stroke="none" d="M 25 0.5 L 45.152400136861985 0.5 L 45.152400136861985 -0.5 L 25 -0.5 Z M 92.05083763686198 0.5 L 112.20323777372397 0.5 L 112.20323777372397 3.5 L 119.20323777372397 0 L 112.20323777372397 -3.5 L 112.20323777372397 -0.5 L 92.05083763686198 -0.5 Z"/><text text-anchor="middle" pointer-events="none" font-size="8px" fill="#000000" x="68.60161888686198" y="3" font-family="Helvetica Neue, Helvetica, Arial, sans-serif">IN_GENRE</text></g><g class="relationship" transform="translate(-0.5826218899934658 97.02173973764819) rotate(318.5628063819588)"><path class="b-outline" fill="#A5ABB6" stroke="none" d="M 25 0.5 L 46.180760027164794 0.5 L 46.180760027164794 -0.5 L 25 -0.5 Z M 93.0791975271648 0.5 L 114.25995755432959 0.5 L 114.25995755432959 3.5 L 121.25995755432959 0 L 114.25995755432959 -3.5 L 114.25995755432959 -0.5 L 93.0791975271648 -0.5 Z"/><text text-anchor="middle" pointer-events="none" font-size="8px" fill="#000000" x="69.6299787771648" y="3" font-family="Helvetica Neue, Helvetica, Arial, sans-serif">IN_GENRE</text></g><g class="relationship" transform="translate(-0.5826218899934658 97.02173973764819) rotate(270.8073978883891)"><path class="b-outline" fill="#A5ABB6" stroke="none" d="M 25 0.5 L 46.59061250942402 0.5 L 46.59061250942402 -0.5 L 25 -0.5 Z M 93.48905000942402 0.5 L 115.07966251884804 0.5 L 115.07966251884804 3.5 L 122.07966251884804 0 L 115.07966251884804 -3.5 L 115.07966251884804 -0.5 L 93.48905000942402 -0.5 Z"/><text text-anchor="middle" pointer-events="none" font-size="8px" fill="#000000" x="70.03983125942402" y="3" font-family="Helvetica Neue, Helvetica, Arial, sans-serif">IN_GENRE</text></g><g class="relationship" transform="translate(-0.5826218899934658 97.02173973764819) rotate(224.5404565702455)"><path class="b-outline" fill="#A5ABB6" stroke="none" d="M 25 0.5 L 46.37418526596663 0.5 L 46.37418526596663 -0.5 L 25 -0.5 Z M 93.27262276596663 0.5 L 114.64680803193326 0.5 L 114.64680803193326 3.5 L 121.64680803193326 0 L 114.64680803193326 -3.5 L 114.64680803193326 -0.5 L 93.27262276596663 -0.5 Z"/><text text-anchor="middle" pointer-events="none" font-size="8px" fill="#000000" x="69.82340401596663" y="3" transform="rotate(180 69.82340401596663 0)" font-family="Helvetica Neue, Helvetica, Arial, sans-serif">IN_GENRE</text></g><g class="relationship" transform="translate(-0.5826218899934658 97.02173973764819) rotate(520.9249999300773)"><path class="b-outline" fill="#A5ABB6" stroke="none" d="M 25 0.5 L 44.89115743601823 0.5 L 44.89115743601823 -0.5 L 25 -0.5 Z M 91.78959493601823 0.5 L 111.68075237203647 0.5 L 111.68075237203647 3.5 L 118.68075237203647 0 L 111.68075237203647 -3.5 L 111.68075237203647 -0.5 L 91.78959493601823 -0.5 Z"/><text text-anchor="middle" pointer-events="none" font-size="8px" fill="#000000" x="68.34037618601823" y="3" transform="rotate(180 68.34037618601823 0)" font-family="Helvetica Neue, Helvetica, Arial, sans-serif">IN_GENRE</text></g></g><g class="layer nodes"><g class="node" aria-label="graph-node0" transform="translate(-0.5826218899934658,97.02173973764819)"><circle class="b-outline" cx="0" cy="0" r="25" fill="#C990C0" stroke="#b261a5" stroke-width="2px"/><text class="caption" text-anchor="middle" pointer-events="none" x="0" y="5" font-size="10px" fill="#FFFFFF" font-family="Helvetica Neue, Helvetica, Arial, sans-serif"> Toy Story</text></g><g class="node" aria-label="graph-node1" transform="translate(138.0232818251793,136.80838623776705)"><circle class="b-outline" cx="0" cy="0" r="25" fill="#8DCC93" stroke="#5db665" stroke-width="2px"/><text class="caption" text-anchor="middle" pointer-events="none" x="0" y="5" font-size="10px" fill="#2A2C34" font-family="Helvetica Neue, Helvetica, Arial, sans-serif"> Adventure</text></g><g class="node" aria-label="graph-node2" transform="translate(109.06578007308923,0.2270956154833381)"><circle class="b-outline" cx="0" cy="0" r="25" fill="#8DCC93" stroke="#5db665" stroke-width="2px"/><text class="caption" text-anchor="middle" pointer-events="none" x="0" y="5" font-size="10px" fill="#2A2C34" font-family="Helvetica Neue, Helvetica, Arial, sans-serif"> Animation</text></g><g class="node" aria-label="graph-node3" transform="translate(1.4899195738297546,-50.04331966987719)"><circle class="b-outline" cx="0" cy="0" r="25" fill="#8DCC93" stroke="#5db665" stroke-width="2px"/><text class="caption" text-anchor="middle" pointer-events="none" x="0" y="5" font-size="10px" fill="#2A2C34" font-family="Helvetica Neue, Helvetica, Arial, sans-serif"> Children</text></g><g class="node" aria-label="graph-node4" transform="translate(-105.1059202110835,-5.838196165671827)"><circle class="b-outline" cx="0" cy="0" r="25" fill="#8DCC93" stroke="#5db665" stroke-width="2px"/><text class="caption" text-anchor="middle" pointer-events="none" x="0" y="5" font-size="10px" fill="#2A2C34" font-family="Helvetica Neue, Helvetica, Arial, sans-serif"> Comedy</text></g><g class="node" aria-label="graph-node6" transform="translate(-136.37409368566597,143.97740808300924)"><circle class="b-outline" cx="0" cy="0" r="25" fill="#8DCC93" stroke="#5db665" stroke-width="2px"/><text class="caption" text-anchor="middle" pointer-events="none" x="0" y="5" font-size="10px" fill="#2A2C34" font-family="Helvetica Neue, Helvetica, Arial, sans-serif"> Fantasy</text></g></g></svg>