<svg xmlns="http://www.w3.org/2000/svg" height="1619.802978515625" width="425.225" viewBox="-1.0717968940734863 -1567.802978515625 425.225 1619.802978515625"><g height="1517.802978515625" width="262.1435852050781"><g class="layer links"><g class="link"><path fill="#e2e3e5ff" d="M 134.0102999566398 -1407.8269588318558 C 134.0102999566398 -1385.3799950773775 134.0102999566398 -1385.3799950773775 134.0102999566398 -1357.826958831856 L 125.98970004336019 -1357.826958831856 C 125.98970004336019 -1380.273922586334 125.98970004336019 -1380.273922586334 125.98970004336019 -1407.8269588318558 Z"/><text class="text-[12px] font-bold" fill="#1a1b1dff" x="130" y="-1381.8269588318558" text-anchor="middle" font-family="Helvetica Neue, Helvetica, Arial, sans-serif">1 row</text></g><g class="link"><path fill="#e2e3e5ff" d="M 145.91361693834273 -1217.2840423458567 C 145.91361693834273 -1202.4149655386893 145.91361693834273 -1202.4149655386893 145.91361693834273 -1167.2840423458567 L 114.08638306165727 -1167.2840423458567 C 114.08638306165727 -1182.1531191530241 114.08638306165727 -1182.1531191530241 114.08638306165727 -1217.2840423458567 Z"/><text class="text-[12px] font-bold" fill="#1a1b1dff" x="130" y="-1191.2840423458567" text-anchor="middle" font-family="Helvetica Neue, Helvetica, Arial, sans-serif">30 rows</text></g><g class="link"><path fill="#e2e3e5ff" d="M 145.91361693834273 -1026.8560282305712 C 145.91361693834273 -1011.9869514234038 145.91361693834273 -1011.9869514234038 145.91361693834273 -976.8560282305712 L 114.08638306165727 -976.8560282305712 C 114.08638306165727 -991.7251050377386 114.08638306165727 -991.7251050377386 114.08638306165727 -1026.8560282305712 Z"/><text class="text-[12px] font-bold" fill="#1a1b1dff" x="130" y="-1000.8560282305712" text-anchor="middle" font-family="Helvetica Neue, Helvetica, Arial, sans-serif">30 rows</text></g><g class="link"><path fill="#e2e3e5ff" d="M 145.91361693834273 -836.4280141152856 C 145.91361693834273 -821.5589373081182 145.91361693834273 -821.5589373081182 145.91361693834273 -786.4280141152856 L 114.08638306165727 -786.4280141152856 C 114.08638306165727 -801.297090922453 114.08638306165727 -801.297090922453 114.08638306165727 -836.4280141152856 Z"/><text class="text-[12px] font-bold" fill="#1a1b1dff" x="130" y="-810.4280141152856" text-anchor="middle" font-family="Helvetica Neue, Helvetica, Arial, sans-serif">30 rows</text></g><g class="link"><path fill="#e2e3e5ff" d="M 145.91361693834273 -624.4280141152856 C 145.91361693834273 -609.5589373081182 145.91361693834273 -609.5589373081182 145.91361693834273 -574.4280141152856 L 114.08638306165727 -574.4280141152856 C 114.08638306165727 -589.297090922453 114.08638306165727 -589.297090922453 114.08638306165727 -624.4280141152856 Z"/><text class="text-[12px] font-bold" fill="#1a1b1dff" x="130" y="-598.4280141152856" text-anchor="middle" font-family="Helvetica Neue, Helvetica, Arial, sans-serif">30 rows</text></g><g class="link"><path fill="#e2e3e5ff" d="M 145.91361693834273 -386 C 145.91361693834273 -371.13092319283265 145.91361693834273 -371.13092319283265 145.91361693834273 -336 L 114.08638306165727 -336 C 114.08638306165727 -350.86907680716735 114.08638306165727 -350.86907680716735 114.08638306165727 -386 Z"/><text class="text-[12px] font-bold" fill="#1a1b1dff" x="130" y="-360" text-anchor="middle" font-family="Helvetica Neue, Helvetica, Arial, sans-serif">30 rows</text></g><g class="link"><path fill="#e2e3e5ff" d="M 145.91361693834273 -132 C 145.91361693834273 -117.13092319283264 145.91361693834273 -117.13092319283264 145.91361693834273 -82 L 114.08638306165727 -82 C 114.08638306165727 -96.86907680716736 114.08638306165727 -96.86907680716736 114.08638306165727 -132 Z"/><text class="text-[12px] font-bold" fill="#1a1b1dff" x="130" y="-106" text-anchor="middle" font-family="Helvetica Neue, Helvetica, Arial, sans-serif">30 rows</text></g></g><g class="layer operators"><g class="operator" transform="translate(0, -82)"><rect class="background" width="260" height="32" rx="8" ry="8" fill="rgb(255, 255, 255)"/><g class="header" pointer-events="all"><path class="banner" d="M 252 0 A 8 8 0 0 1 260 8 L 260 18 A 8 8 0 0 1 259.7459666924148 26 L 0.25403330758516596 26 A 8 8 0 0 1 0 18 L 0 8 A 8 8 0 0 1 8 0 Z" style="fill: rgb(247, 243, 255);"/><text class="title text-[12px] font-bold" x="26" y="17" fill="#000000" font-family="Helvetica Neue, Helvetica, Arial, sans-serif">Result</text></g><path class="cost" fill="#bb2d00ff" d="M 252 32 A 8 8 0 0 1 252 32 L 8 32 A 8 8 0 0 1 8 32 Z"/><rect class="b-outline" width="260" rx="8" ry="8" fill="none" stroke-width="1" style="stroke: rgb(187, 190, 195);" height="32"/></g><g class="operator" transform="translate(0, -336)"><rect class="background" width="260" height="204" rx="8" ry="8" fill="rgb(255, 255, 255)"/><g class="header" pointer-events="all"><path class="banner" d="M 252 0 A 8 8 0 0 1 260 8 L 260 18 A 8 8 0 0 1 260 26 L 0 26 A 8 8 0 0 1 0 18 L 0 8 A 8 8 0 0 1 8 0 Z" style="fill: rgb(247, 243, 255);"/><path class="expand" fill="#000000" d="M -5 -10 L 8.66 0 L -5 10 Z" transform="translate(13, 13) rotate(90) scale(0.5,0.5)"/><text class="title text-[12px] font-bold" x="26" y="17" fill="#000000" font-family="Helvetica Neue, Helvetica, Arial, sans-serif">ProduceResults@neo4j</text></g><g class="detail identifiers text-[10px] font-mono" transform="translate(0, 40)"><text font-size="10" x="3" text-anchor="start" fill="#1a1b1dff" font-family="Helvetica Neue, Helvetica, Arial, sans-serif">`o.requiredDate`, `o.orderID`, c, `c.</text></g><g class="detail identifiers text-[10px] font-mono" transform="translate(0, 54)"><text font-size="10" x="3" text-anchor="start" fill="#1a1b1dff" font-family="Helvetica Neue, Helvetica, Arial, sans-serif">companyName`, o</text></g><g class="detail padding text-[10px]" transform="translate(0, 68)"><text font-size="10" x="3" text-anchor="start" fill="#1a1b1dff" font-family="Helvetica Neue, Helvetica, Arial, sans-serif"/><path class="divider" visibility="visible" d="M 0 -6 L 260 -6" stroke="#DFE1E3"/></g><g class="detail expression text-[10px] font-mono" transform="translate(0, 74)"><text font-size="10" x="3" text-anchor="start" fill="#1a1b1dff" font-family="Helvetica Neue, Helvetica, Arial, sans-serif">`c.companyName`, `o.orderID`, `o.</text></g><g class="detail expression text-[10px] font-mono" transform="translate(0, 88)"><text font-size="10" x="3" text-anchor="start" fill="#1a1b1dff" font-family="Helvetica Neue, Helvetica, Arial, sans-serif">requiredDate`</text></g><g class="detail padding text-[10px]" transform="translate(0, 102)"><text font-size="10" x="3" text-anchor="start" fill="#1a1b1dff" font-family="Helvetica Neue, Helvetica, Arial, sans-serif"/><path class="divider" visibility="visible" d="M 0 -6 L 260 -6" stroke="#DFE1E3"/></g><g class="detail order text-[10px]" transform="translate(0, 108)"><text font-size="10" x="3" text-anchor="start" fill="#1a1b1dff" font-family="Helvetica Neue, Helvetica, Arial, sans-serif">Ordered by `o.requiredDate` ASC</text></g><g class="detail padding text-[10px]" transform="translate(0, 122)"><text font-size="10" x="3" text-anchor="start" fill="#1a1b1dff" font-family="Helvetica Neue, Helvetica, Arial, sans-serif"/><path class="divider" visibility="visible" d="M 0 -6 L 260 -6" stroke="#DFE1E3"/></g><g class="detail global-memory text-[10px]" transform="translate(0, 128)"><text font-size="10" x="3" text-anchor="start" fill="#1a1b1dff" font-family="Helvetica Neue, Helvetica, Arial, sans-serif">6,000 total memory (bytes)</text></g><g class="detail operator-memory text-[10px]" transform="translate(0, 142)"><text font-size="10" x="3" text-anchor="start" fill="#1a1b1dff" font-family="Helvetica Neue, Helvetica, Arial, sans-serif">0 memory (bytes)</text></g><g class="detail pagecache-hits text-[10px]" transform="translate(0, 156)"><text font-size="10" x="3" text-anchor="start" fill="#1a1b1dff" font-family="Helvetica Neue, Helvetica, Arial, sans-serif">0 pagecache hits</text></g><g class="detail pagecache-misses text-[10px]" transform="translate(0, 170)"><text font-size="10" x="3" text-anchor="start" fill="#1a1b1dff" font-family="Helvetica Neue, Helvetica, Arial, sans-serif">0 pagecache misses</text></g><g class="detail estimated-rows text-[10px]" transform="translate(0, 184)"><text font-size="10" x="3" text-anchor="start" fill="#1a1b1dff" font-family="Helvetica Neue, Helvetica, Arial, sans-serif">9 estimated rows</text></g><g class="detail db-hits text-[10px]" transform="translate(0, 198)"><text font-size="10" x="3" text-anchor="start" fill="#1a1b1dff" font-family="Helvetica Neue, Helvetica, Arial, sans-serif">0 db hits</text></g><path class="cost" fill="#bb2d00ff" d="M 252 204 A 8 8 0 0 1 252 204 L 8 204 A 8 8 0 0 1 8 204 Z"/><rect class="b-outline" width="260" rx="8" ry="8" fill="none" stroke-width="1" style="stroke: rgb(187, 190, 195);" height="204"/></g><g class="operator" transform="translate(0, -574.4280395507812)"><rect class="background" width="260" height="188.4280141152856" rx="8" ry="8" fill="rgb(255, 255, 255)"/><g class="header" pointer-events="all"><path class="banner" d="M 252 0 A 8 8 0 0 1 260 8 L 260 18 A 8 8 0 0 1 260 26 L 0 26 A 8 8 0 0 1 0 18 L 0 8 A 8 8 0 0 1 8 0 Z" style="fill: rgb(160, 123, 236);"/><path class="expand" fill="#000000" d="M -5 -10 L 8.66 0 L -5 10 Z" transform="translate(13, 13) rotate(90) scale(0.5,0.5)"/><text class="title text-[12px] font-bold" x="26" y="17" fill="#000000" font-family="Helvetica Neue, Helvetica, Arial, sans-serif">Projection@neo4j</text></g><g class="detail identifiers text-[10px] font-mono" transform="translate(0, 40)"><text font-size="10" x="3" text-anchor="start" fill="#1a1b1dff" font-family="Helvetica Neue, Helvetica, Arial, sans-serif">`o.requiredDate`, `o.orderID`, c, `c.</text></g><g class="detail identifiers text-[10px] font-mono" transform="translate(0, 54)"><text font-size="10" x="3" text-anchor="start" fill="#1a1b1dff" font-family="Helvetica Neue, Helvetica, Arial, sans-serif">companyName`, o</text></g><g class="detail padding text-[10px]" transform="translate(0, 68)"><text font-size="10" x="3" text-anchor="start" fill="#1a1b1dff" font-family="Helvetica Neue, Helvetica, Arial, sans-serif"/><path class="divider" visibility="visible" d="M 0 -6 L 260 -6" stroke="#DFE1E3"/></g><g class="detail expression text-[10px] font-mono" transform="translate(0, 74)"><text font-size="10" x="3" text-anchor="start" fill="#1a1b1dff" font-family="Helvetica Neue, Helvetica, Arial, sans-serif">cache[c.companyName] AS `c.companyName`, o</text></g><g class="detail expression text-[10px] font-mono" transform="translate(0, 88)"><text font-size="10" x="3" text-anchor="start" fill="#1a1b1dff" font-family="Helvetica Neue, Helvetica, Arial, sans-serif">.orderID AS `o.orderID`</text></g><g class="detail padding text-[10px]" transform="translate(0, 102)"><text font-size="10" x="3" text-anchor="start" fill="#1a1b1dff" font-family="Helvetica Neue, Helvetica, Arial, sans-serif"/><path class="divider" visibility="visible" d="M 0 -6 L 260 -6" stroke="#DFE1E3"/></g><g class="detail order text-[10px]" transform="translate(0, 108)"><text font-size="10" x="3" text-anchor="start" fill="#1a1b1dff" font-family="Helvetica Neue, Helvetica, Arial, sans-serif">Ordered by `o.requiredDate` ASC</text></g><g class="detail padding text-[10px]" transform="translate(0, 122)"><text font-size="10" x="3" text-anchor="start" fill="#1a1b1dff" font-family="Helvetica Neue, Helvetica, Arial, sans-serif"/><path class="divider" visibility="visible" d="M 0 -6 L 260 -6" stroke="#DFE1E3"/></g><g class="detail pagecache-hits text-[10px]" transform="translate(0, 128)"><text font-size="10" x="3" text-anchor="start" fill="#1a1b1dff" font-family="Helvetica Neue, Helvetica, Arial, sans-serif">32 pagecache hits</text></g><g class="detail pagecache-misses text-[10px]" transform="translate(0, 142)"><text font-size="10" x="3" text-anchor="start" fill="#1a1b1dff" font-family="Helvetica Neue, Helvetica, Arial, sans-serif">0 pagecache misses</text></g><g class="detail estimated-rows text-[10px]" transform="translate(0, 156)"><text font-size="10" x="3" text-anchor="start" fill="#1a1b1dff" font-family="Helvetica Neue, Helvetica, Arial, sans-serif">9 estimated rows</text></g><g class="detail db-hits text-[10px]" transform="translate(0, 170)"><text font-size="10" x="3" text-anchor="start" fill="#1a1b1dff" font-family="Helvetica Neue, Helvetica, Arial, sans-serif">30 db hits</text></g><path class="cost" fill="#bb2d00ff" d="M 0 176 L 260 176 L 260 180.4280141152856 A 8 8 0 0 1 252 188.4280141152856 L 8 188.4280141152856 A 8 8 0 0 1 0 180.4280141152856 Z"/><rect class="b-outline" width="260" rx="8" ry="8" fill="none" stroke-width="1" style="stroke: rgb(187, 190, 195);" height="188.4280141152856"/></g><g class="operator" transform="translate(0, -786.4280395507812)"><rect class="background" width="260" height="162" rx="8" ry="8" fill="rgb(255, 255, 255)"/><g class="header" pointer-events="all"><path class="banner" d="M 252 0 A 8 8 0 0 1 260 8 L 260 18 A 8 8 0 0 1 260 26 L 0 26 A 8 8 0 0 1 0 18 L 0 8 A 8 8 0 0 1 8 0 Z" style="fill: rgb(160, 123, 236);"/><path class="expand" fill="#000000" d="M -5 -10 L 8.66 0 L -5 10 Z" transform="translate(13, 13) rotate(90) scale(0.5,0.5)"/><text class="title text-[12px] font-bold" x="26" y="17" fill="#000000" font-family="Helvetica Neue, Helvetica, Arial, sans-serif">Sort@neo4j</text></g><g class="detail identifiers text-[10px] font-mono" transform="translate(0, 40)"><text font-size="10" x="3" text-anchor="start" fill="#1a1b1dff" font-family="Helvetica Neue, Helvetica, Arial, sans-serif">c, o, `o.requiredDate`</text></g><g class="detail padding text-[10px]" transform="translate(0, 54)"><text font-size="10" x="3" text-anchor="start" fill="#1a1b1dff" font-family="Helvetica Neue, Helvetica, Arial, sans-serif"/><path class="divider" visibility="visible" d="M 0 -6 L 260 -6" stroke="#DFE1E3"/></g><g class="detail expression text-[10px] font-mono" transform="translate(0, 60)"><text font-size="10" x="3" text-anchor="start" fill="#1a1b1dff" font-family="Helvetica Neue, Helvetica, Arial, sans-serif">`o.requiredDate` ASC</text></g><g class="detail padding text-[10px]" transform="translate(0, 74)"><text font-size="10" x="3" text-anchor="start" fill="#1a1b1dff" font-family="Helvetica Neue, Helvetica, Arial, sans-serif"/><path class="divider" visibility="visible" d="M 0 -6 L 260 -6" stroke="#DFE1E3"/></g><g class="detail order text-[10px]" transform="translate(0, 80)"><text font-size="10" x="3" text-anchor="start" fill="#1a1b1dff" font-family="Helvetica Neue, Helvetica, Arial, sans-serif">Ordered by `o.requiredDate` ASC</text></g><g class="detail padding text-[10px]" transform="translate(0, 94)"><text font-size="10" x="3" text-anchor="start" fill="#1a1b1dff" font-family="Helvetica Neue, Helvetica, Arial, sans-serif"/><path class="divider" visibility="visible" d="M 0 -6 L 260 -6" stroke="#DFE1E3"/></g><g class="detail operator-memory text-[10px]" transform="translate(0, 100)"><text font-size="10" x="3" text-anchor="start" fill="#1a1b1dff" font-family="Helvetica Neue, Helvetica, Arial, sans-serif">5,936 memory (bytes)</text></g><g class="detail pagecache-hits text-[10px]" transform="translate(0, 114)"><text font-size="10" x="3" text-anchor="start" fill="#1a1b1dff" font-family="Helvetica Neue, Helvetica, Arial, sans-serif">0 pagecache hits</text></g><g class="detail pagecache-misses text-[10px]" transform="translate(0, 128)"><text font-size="10" x="3" text-anchor="start" fill="#1a1b1dff" font-family="Helvetica Neue, Helvetica, Arial, sans-serif">0 pagecache misses</text></g><g class="detail estimated-rows text-[10px]" transform="translate(0, 142)"><text font-size="10" x="3" text-anchor="start" fill="#1a1b1dff" font-family="Helvetica Neue, Helvetica, Arial, sans-serif">9 estimated rows</text></g><g class="detail db-hits text-[10px]" transform="translate(0, 156)"><text font-size="10" x="3" text-anchor="start" fill="#1a1b1dff" font-family="Helvetica Neue, Helvetica, Arial, sans-serif">0 db hits</text></g><path class="cost" fill="#bb2d00ff" d="M 252 162 A 8 8 0 0 1 252 162 L 8 162 A 8 8 0 0 1 8 162 Z"/><rect class="b-outline" width="260" rx="8" ry="8" fill="none" stroke-width="1" style="stroke: rgb(187, 190, 195);" height="162"/></g><g class="operator" transform="translate(0, -976.8560180664062)"><rect class="background" width="260" height="140.4280141152856" rx="8" ry="8" fill="rgb(255, 255, 255)"/><g class="header" pointer-events="all"><path class="banner" d="M 252 0 A 8 8 0 0 1 260 8 L 260 18 A 8 8 0 0 1 260 26 L 0 26 A 8 8 0 0 1 0 18 L 0 8 A 8 8 0 0 1 8 0 Z" style="fill: rgb(160, 123, 236);"/><path class="expand" fill="#000000" d="M -5 -10 L 8.66 0 L -5 10 Z" transform="translate(13, 13) rotate(90) scale(0.5,0.5)"/><text class="title text-[12px] font-bold" x="26" y="17" fill="#000000" font-family="Helvetica Neue, Helvetica, Arial, sans-serif">Projection@neo4j</text></g><g class="detail identifiers text-[10px] font-mono" transform="translate(0, 40)"><text font-size="10" x="3" text-anchor="start" fill="#1a1b1dff" font-family="Helvetica Neue, Helvetica, Arial, sans-serif">c, o, `o.requiredDate`</text></g><g class="detail padding text-[10px]" transform="translate(0, 54)"><text font-size="10" x="3" text-anchor="start" fill="#1a1b1dff" font-family="Helvetica Neue, Helvetica, Arial, sans-serif"/><path class="divider" visibility="visible" d="M 0 -6 L 260 -6" stroke="#DFE1E3"/></g><g class="detail expression text-[10px] font-mono" transform="translate(0, 60)"><text font-size="10" x="3" text-anchor="start" fill="#1a1b1dff" font-family="Helvetica Neue, Helvetica, Arial, sans-serif">o.requiredDate AS `o.requiredDate`</text></g><g class="detail padding text-[10px]" transform="translate(0, 74)"><text font-size="10" x="3" text-anchor="start" fill="#1a1b1dff" font-family="Helvetica Neue, Helvetica, Arial, sans-serif"/><path class="divider" visibility="visible" d="M 0 -6 L 260 -6" stroke="#DFE1E3"/></g><g class="detail pagecache-hits text-[10px]" transform="translate(0, 80)"><text font-size="10" x="3" text-anchor="start" fill="#1a1b1dff" font-family="Helvetica Neue, Helvetica, Arial, sans-serif">18 pagecache hits</text></g><g class="detail pagecache-misses text-[10px]" transform="translate(0, 94)"><text font-size="10" x="3" text-anchor="start" fill="#1a1b1dff" font-family="Helvetica Neue, Helvetica, Arial, sans-serif">0 pagecache misses</text></g><g class="detail estimated-rows text-[10px]" transform="translate(0, 108)"><text font-size="10" x="3" text-anchor="start" fill="#1a1b1dff" font-family="Helvetica Neue, Helvetica, Arial, sans-serif">9 estimated rows</text></g><g class="detail db-hits text-[10px]" transform="translate(0, 122)"><text font-size="10" x="3" text-anchor="start" fill="#1a1b1dff" font-family="Helvetica Neue, Helvetica, Arial, sans-serif">30 db hits</text></g><path class="cost" fill="#bb2d00ff" d="M 0 128 L 260 128 L 260 132.4280141152856 A 8 8 0 0 1 252 140.4280141152856 L 8 140.4280141152856 A 8 8 0 0 1 0 132.4280141152856 Z"/><rect class="b-outline" width="260" rx="8" ry="8" fill="none" stroke-width="1" style="stroke: rgb(187, 190, 195);" height="140.4280141152856"/></g><g class="operator" transform="translate(0, -1167.2840576171875)"><rect class="background" width="260" height="140.4280141152856" rx="8" ry="8" fill="rgb(255, 255, 255)"/><g class="header" pointer-events="all"><path class="banner" d="M 252 0 A 8 8 0 0 1 260 8 L 260 18 A 8 8 0 0 1 260 26 L 0 26 A 8 8 0 0 1 0 18 L 0 8 A 8 8 0 0 1 8 0 Z" style="fill: rgb(75, 40, 148);"/><path class="expand" fill="#FFFFFF" d="M -5 -10 L 8.66 0 L -5 10 Z" transform="translate(13, 13) rotate(90) scale(0.5,0.5)"/><text class="title text-[12px] font-bold" x="26" y="17" fill="#FFFFFF" font-family="Helvetica Neue, Helvetica, Arial, sans-serif">Filter@neo4j</text></g><g class="detail identifiers text-[10px] font-mono" transform="translate(0, 40)"><text font-size="10" x="3" text-anchor="start" fill="#1a1b1dff" font-family="Helvetica Neue, Helvetica, Arial, sans-serif">c, o</text></g><g class="detail padding text-[10px]" transform="translate(0, 54)"><text font-size="10" x="3" text-anchor="start" fill="#1a1b1dff" font-family="Helvetica Neue, Helvetica, Arial, sans-serif"/><path class="divider" visibility="visible" d="M 0 -6 L 260 -6" stroke="#DFE1E3"/></g><g class="detail expression text-[10px] font-mono" transform="translate(0, 60)"><text font-size="10" x="3" text-anchor="start" fill="#1a1b1dff" font-family="Helvetica Neue, Helvetica, Arial, sans-serif">o:Order</text></g><g class="detail padding text-[10px]" transform="translate(0, 74)"><text font-size="10" x="3" text-anchor="start" fill="#1a1b1dff" font-family="Helvetica Neue, Helvetica, Arial, sans-serif"/><path class="divider" visibility="visible" d="M 0 -6 L 260 -6" stroke="#DFE1E3"/></g><g class="detail pagecache-hits text-[10px]" transform="translate(0, 80)"><text font-size="10" x="3" text-anchor="start" fill="#1a1b1dff" font-family="Helvetica Neue, Helvetica, Arial, sans-serif">13 pagecache hits</text></g><g class="detail pagecache-misses text-[10px]" transform="translate(0, 94)"><text font-size="10" x="3" text-anchor="start" fill="#1a1b1dff" font-family="Helvetica Neue, Helvetica, Arial, sans-serif">0 pagecache misses</text></g><g class="detail estimated-rows text-[10px]" transform="translate(0, 108)"><text font-size="10" x="3" text-anchor="start" fill="#1a1b1dff" font-family="Helvetica Neue, Helvetica, Arial, sans-serif">9 estimated rows</text></g><g class="detail db-hits text-[10px]" transform="translate(0, 122)"><text font-size="10" x="3" text-anchor="start" fill="#1a1b1dff" font-family="Helvetica Neue, Helvetica, Arial, sans-serif">30 db hits</text></g><path class="cost" fill="#bb2d00ff" d="M 0 128 L 260 128 L 260 132.4280141152856 A 8 8 0 0 1 252 140.4280141152856 L 8 140.4280141152856 A 8 8 0 0 1 0 132.4280141152856 Z"/><rect class="b-outline" width="260" rx="8" ry="8" fill="none" stroke-width="1" style="stroke: rgb(187, 190, 195);" height="140.4280141152856"/></g><g class="operator" transform="translate(0, -1357.826904296875)"><rect class="background" width="260" height="140.54291648599923" rx="8" ry="8" fill="rgb(255, 255, 255)"/><g class="header" pointer-events="all"><path class="banner" d="M 252 0 A 8 8 0 0 1 260 8 L 260 18 A 8 8 0 0 1 260 26 L 0 26 A 8 8 0 0 1 0 18 L 0 8 A 8 8 0 0 1 8 0 Z" style="fill: rgb(44, 42, 52);"/><path class="expand" fill="#FFFFFF" d="M -5 -10 L 8.66 0 L -5 10 Z" transform="translate(13, 13) rotate(90) scale(0.5,0.5)"/><text class="title text-[12px] font-bold" x="26" y="17" fill="#FFFFFF" font-family="Helvetica Neue, Helvetica, Arial, sans-serif">Expand(All)@neo4j</text></g><g class="detail identifiers text-[10px] font-mono" transform="translate(0, 40)"><text font-size="10" x="3" text-anchor="start" fill="#1a1b1dff" font-family="Helvetica Neue, Helvetica, Arial, sans-serif">c, o</text></g><g class="detail padding text-[10px]" transform="translate(0, 54)"><text font-size="10" x="3" text-anchor="start" fill="#1a1b1dff" font-family="Helvetica Neue, Helvetica, Arial, sans-serif"/><path class="divider" visibility="visible" d="M 0 -6 L 260 -6" stroke="#DFE1E3"/></g><g class="detail expression text-[10px] font-mono" transform="translate(0, 60)"><text font-size="10" x="3" text-anchor="start" fill="#1a1b1dff" font-family="Helvetica Neue, Helvetica, Arial, sans-serif">(c)-[:PURCHASED]-&gt;(o)</text></g><g class="detail padding text-[10px]" transform="translate(0, 74)"><text font-size="10" x="3" text-anchor="start" fill="#1a1b1dff" font-family="Helvetica Neue, Helvetica, Arial, sans-serif"/><path class="divider" visibility="visible" d="M 0 -6 L 260 -6" stroke="#DFE1E3"/></g><g class="detail pagecache-hits text-[10px]" transform="translate(0, 80)"><text font-size="10" x="3" text-anchor="start" fill="#1a1b1dff" font-family="Helvetica Neue, Helvetica, Arial, sans-serif">2 pagecache hits</text></g><g class="detail pagecache-misses text-[10px]" transform="translate(0, 94)"><text font-size="10" x="3" text-anchor="start" fill="#1a1b1dff" font-family="Helvetica Neue, Helvetica, Arial, sans-serif">0 pagecache misses</text></g><g class="detail estimated-rows text-[10px]" transform="translate(0, 108)"><text font-size="10" x="3" text-anchor="start" fill="#1a1b1dff" font-family="Helvetica Neue, Helvetica, Arial, sans-serif">9 estimated rows</text></g><g class="detail db-hits text-[10px]" transform="translate(0, 122)"><text font-size="10" x="3" text-anchor="start" fill="#1a1b1dff" font-family="Helvetica Neue, Helvetica, Arial, sans-serif">31 db hits</text></g><path class="cost" fill="#bb2d00ff" d="M 0 128 L 260 128 L 260 132.54291648599923 A 8 8 0 0 1 252 140.54291648599923 L 8 140.54291648599923 A 8 8 0 0 1 0 132.54291648599923 Z"/><rect class="b-outline" width="260" rx="8" ry="8" fill="none" stroke-width="1" style="stroke: rgb(187, 190, 195);" height="140.54291648599923"/></g><g class="operator" transform="translate(0, -1567.802978515625)"><rect class="background" width="260" height="159.9760104559972" rx="8" ry="8" fill="rgb(255, 255, 255)"/><g class="header" pointer-events="all"><path class="banner" d="M 252 0 A 8 8 0 0 1 260 8 L 260 18 A 8 8 0 0 1 260 26 L 0 26 A 8 8 0 0 1 0 18 L 0 8 A 8 8 0 0 1 8 0 Z" style="fill: rgb(204, 180, 255);"/><path class="expand" fill="#000000" d="M -5 -10 L 8.66 0 L -5 10 Z" transform="translate(13, 13) rotate(90) scale(0.5,0.5)"/><text class="title text-[12px] font-bold" x="26" y="17" fill="#000000" font-family="Helvetica Neue, Helvetica, Arial, sans-serif">NodeIndexSeek@neo4j</text></g><g class="detail identifiers text-[10px] font-mono" transform="translate(0, 40)"><text font-size="10" x="3" text-anchor="start" fill="#1a1b1dff" font-family="Helvetica Neue, Helvetica, Arial, sans-serif">c</text></g><g class="detail padding text-[10px]" transform="translate(0, 54)"><text font-size="10" x="3" text-anchor="start" fill="#1a1b1dff" font-family="Helvetica Neue, Helvetica, Arial, sans-serif"/><path class="divider" visibility="visible" d="M 0 -6 L 260 -6" stroke="#DFE1E3"/></g><g class="detail expression text-[10px] font-mono" transform="translate(0, 60)"><text font-size="10" x="3" text-anchor="start" fill="#1a1b1dff" font-family="Helvetica Neue, Helvetica, Arial, sans-serif">RANGE INDEX c:Customer(companyName) WHERE </text></g><g class="detail expression text-[10px] font-mono" transform="translate(0, 74)"><text font-size="10" x="3" text-anchor="start" fill="#1a1b1dff" font-family="Helvetica Neue, Helvetica, Arial, sans-serif">companyName = $autostring_0, cache[c.</text></g><g class="detail expression text-[10px] font-mono" transform="translate(0, 88)"><text font-size="10" x="3" text-anchor="start" fill="#1a1b1dff" font-family="Helvetica Neue, Helvetica, Arial, sans-serif">companyName]</text></g><g class="detail padding text-[10px]" transform="translate(0, 102)"><text font-size="10" x="3" text-anchor="start" fill="#1a1b1dff" font-family="Helvetica Neue, Helvetica, Arial, sans-serif"/><path class="divider" visibility="visible" d="M 0 -6 L 260 -6" stroke="#DFE1E3"/></g><g class="detail pagecache-hits text-[10px]" transform="translate(0, 108)"><text font-size="10" x="3" text-anchor="start" fill="#1a1b1dff" font-family="Helvetica Neue, Helvetica, Arial, sans-serif">0 pagecache hits</text></g><g class="detail pagecache-misses text-[10px]" transform="translate(0, 122)"><text font-size="10" x="3" text-anchor="start" fill="#1a1b1dff" font-family="Helvetica Neue, Helvetica, Arial, sans-serif">1 pagecache misses</text></g><g class="detail estimated-rows text-[10px]" transform="translate(0, 136)"><text font-size="10" x="3" text-anchor="start" fill="#1a1b1dff" font-family="Helvetica Neue, Helvetica, Arial, sans-serif">1 estimated rows</text></g><g class="detail db-hits text-[10px]" transform="translate(0, 150)"><text font-size="10" x="3" text-anchor="start" fill="#1a1b1dff" font-family="Helvetica Neue, Helvetica, Arial, sans-serif">2 db hits</text></g><path class="cost" fill="#bb2d00ff" d="M 258.9142973720947 156 A 8 8 0 0 1 252 159.9760104559972 L 8 159.9760104559972 A 8 8 0 0 1 1.085702627905274 156 Z"/><rect class="b-outline" width="260" rx="8" ry="8" fill="none" stroke-width="1" style="stroke: rgb(187, 190, 195);" height="159.9760104559972"/></g></g></g><g><rect fill="#ffffffff" width="425.225" height="38"/><text font-size="10" fill="#1a1b1dff" font-family="Helvetica Neue, Helvetica, Arial, sans-serif" x="12" y="12">Cypher version: 5, Planner: COST, Runtime: SLOTTED</text><text font-size="10" fill="#1a1b1dff" font-family="Helvetica Neue, Helvetica, Arial, sans-serif" x="12" y="30">Total database accesses: 123, Total allocated memory: 6,000 bytes, Total time: 28 ms</text><rect fill="none" stroke="#bbbec3ff" width="425.225" height="38" stroke-width="1"/></g></svg>