<svg xmlns="http://www.w3.org/2000/svg" width="341.2822570800781" height="310.43109130859375" viewBox="-175.70675659179688 -145.59217834472656 341.2822570800781 310.43109130859375"><title>Neo4j Graph Visualization</title><desc>Created using Neo4j (http://www.neo4j.com/)</desc><g class="layer relationships"><g class="relationship" transform="translate(59.14526449285267 135.83891914744814) rotate(302.57246623207175)"><path class="b-outline" fill="#A5ABB6" stroke="none" d="M 25 0.5 L 45.63101111391188 0.5 L 45.63101111391188 -0.5 L 25 -0.5 Z M 91.19351111391188 0.5 L 111.82452222782376 0.5 L 111.82452222782376 3.5 L 118.82452222782376 0 L 111.82452222782376 -3.5 L 111.82452222782376 -0.5 L 91.19351111391188 -0.5 Z"/><text text-anchor="middle" pointer-events="none" font-size="8px" fill="#000000" x="68.41226111391188" y="3" font-family="Helvetica Neue, Helvetica, Arial, sans-serif">ACTED_IN</text></g><g class="relationship" transform="translate(69.06122888760814 -116.5921796285212) rotate(422.7751616190344)"><path class="b-outline" fill="#A5ABB6" stroke="none" d="M 25 0.5 L 47.50748474183706 0.5 L 47.50748474183706 -0.5 L 25 -0.5 Z M 93.06998474183706 0.5 L 115.57746948367412 0.5 L 115.57746948367412 3.5 L 122.57746948367412 0 L 115.57746948367412 -3.5 L 115.57746948367412 -0.5 L 93.06998474183706 -0.5 Z"/><text text-anchor="middle" pointer-events="none" font-size="8px" fill="#000000" x="70.28873474183706" y="3" font-family="Helvetica Neue, Helvetica, Arial, sans-serif">ACTED_IN</text></g><g class="relationship" transform="translate(69.06122888760814 -116.5921796285212) rotate(539.2278712489222)"><path class="b-outline" fill="#A5ABB6" stroke="none" d="M 25 0.5 L 46.85638296906305 0.5 L 46.85638296906305 -0.5 L 25 -0.5 Z M 92.41888296906305 0.5 L 114.2752659381261 0.5 L 114.2752659381261 3.5 L 121.2752659381261 0 L 114.2752659381261 -3.5 L 114.2752659381261 -0.5 L 92.41888296906305 -0.5 Z"/><text text-anchor="middle" pointer-events="none" font-size="8px" fill="#000000" x="69.63763296906305" y="3" transform="rotate(180 69.63763296906305 0)" font-family="Helvetica Neue, Helvetica, Arial, sans-serif">ACTED_IN</text></g><g class="relationship" transform="translate(-146.70674912157227 10.72244988721344) rotate(299.009433956184)"><path class="b-outline" fill="#A5ABB6" stroke="none" d="M 25 0.5 L 45.38126671819225 0.5 L 45.38126671819225 -0.5 L 25 -0.5 Z M 90.94376671819225 0.5 L 111.3250334363845 0.5 L 111.3250334363845 3.5 L 118.3250334363845 0 L 111.3250334363845 -3.5 L 111.3250334363845 -0.5 L 90.94376671819225 -0.5 Z"/><text text-anchor="middle" pointer-events="none" font-size="8px" fill="#000000" x="68.16251671819225" y="3" font-family="Helvetica Neue, Helvetica, Arial, sans-serif">ACTED_IN</text></g></g><g class="layer nodes"><g class="node" aria-label="graph-node14487" transform="translate(59.14526449285267,135.83891914744814)" style="touch-action: none; -webkit-tap-highlight-color: rgba(0, 0, 0, 0);"><circle class="b-outline" cx="0" cy="0" r="25" fill="#8DCC93" stroke="#5db665" stroke-width="2px"/><text class="caption" text-anchor="middle" pointer-events="none" x="0" y="0" font-size="10px" fill="#2A2C34" font-family="Helvetica Neue, Helvetica, Arial, sans-serif"> Kevin</text><text class="caption" text-anchor="middle" pointer-events="none" x="0" y="10" font-size="10px" fill="#2A2C34" font-family="Helvetica Neue, Helvetica, Arial, sans-serif"> Bacon</text></g><g class="node" aria-label="graph-node22" transform="translate(136.57547970587638,14.636382185028875)" style="touch-action: none; -webkit-tap-highlight-color: rgba(0, 0, 0, 0);"><circle class="b-outline" cx="0" cy="0" r="25" fill="#C990C0" stroke="#b261a5" stroke-width="2px"/><text class="caption" text-anchor="middle" pointer-events="none" x="0" y="5" font-size="10px" fill="#FFFFFF" font-family="Helvetica Neue, Helvetica, Arial, sans-serif"> </text></g><g class="node" aria-label="graph-node14132" transform="translate(69.06122888760814,-116.5921796285212)" style="touch-action: none; -webkit-tap-highlight-color: rgba(0, 0, 0, 0);"><circle class="b-outline" cx="0" cy="0" r="25" fill="#8DCC93" stroke="#5db665" stroke-width="2px"/><text class="caption" text-anchor="middle" pointer-events="none" x="0" y="0" font-size="10px" fill="#2A2C34" font-family="Helvetica Neue, Helvetica, Arial, sans-serif"> Bob</text><text class="caption" text-anchor="middle" pointer-events="none" x="0" y="10" font-size="10px" fill="#2A2C34" font-family="Helvetica Neue, Helvetica, Arial, sans-serif"> Hoskins</text></g><g class="node" aria-label="graph-node1880" transform="translate(-77.20075489650885,-114.6210061698388)" style="touch-action: none; -webkit-tap-highlight-color: rgba(0, 0, 0, 0);"><circle class="b-outline" cx="0" cy="0" r="25" fill="#C990C0" stroke="#b261a5" stroke-width="2px"/><text class="caption" text-anchor="middle" pointer-events="none" x="0" y="5" font-size="10px" fill="#FFFFFF" font-family="Helvetica Neue, Helvetica, Arial, sans-serif"> </text></g><g class="node" aria-label="graph-node16395" transform="translate(-146.70674912157227,10.72244988721344)" style="touch-action: none; -webkit-tap-highlight-color: rgba(0, 0, 0, 0);"><circle class="b-outline" cx="0" cy="0" r="25" fill="#8DCC93" stroke="#5db665" stroke-width="2px"/><text class="caption" text-anchor="middle" pointer-events="none" x="0" y="0" font-size="10px" fill="#2A2C34" font-family="Helvetica Neue, Helvetica, Arial, sans-serif"> Denzel</text><text class="caption" text-anchor="middle" pointer-events="none" x="0" y="10" font-size="10px" fill="#2A2C34" font-family="Helvetica Neue, Helvetica, Arial, sans-serif"> Washi…</text></g></g></svg>