<svg xmlns="http://www.w3.org/2000/svg" width="503" height="530" viewBox="0 0 503 530"><defs><style type="text/css"/></defs><g transform="translate(260.30110474644664 124.39797974644665) scale(1)"><g class="relationship"><g transform="translate(-146 -8) rotate(90)" stroke-width="5" stroke="#000000"><path d="M 59 0 L 216.1378493822517 0"/><polygon points="-24.8621506177483,0 -27.62461179749811,9.20820393249937 0,0 -27.62461179749811,-9.20820393249937" fill="#000000" transform="translate(241 0) rotate(0)" stroke="none"/></g><g transform="translate(-146 129.56892469112586) rotate(0) translate(0 -13)"><g transform="translate(0 0)"><g transform="translate(-55.23046875 0)" fill="#ffffff" stroke="#000000" stroke-width="0"><rect x="0" y="0" width="110.4609375" height="26" rx="5" ry="5" stroke="none"/><text xml:space="preserve" x="5" y="17.5" stroke="none" text-anchor="left" font-family="sans-serif" font-size="16" font-weight="normal" fill="#000000">PURCHASED</text></g></g></g></g><g class="relationship"><g transform="translate(-146 -8) rotate(0)" stroke-width="5" stroke="#000000"><path d="M 59 0 L 216.1378493822517 0"/><polygon points="-24.8621506177483,0 -27.62461179749811,9.20820393249937 0,0 -27.62461179749811,-9.20820393249937" fill="#000000" transform="translate(241 0) rotate(0)" stroke="none"/></g><g transform="translate(-8.431075308874142 -8) rotate(0) translate(0 -13)"><g transform="translate(0 0)"><g transform="translate(-37.01171875 0)" fill="#ffffff" stroke="#000000" stroke-width="0"><rect x="0" y="0" width="74.0234375" height="26" rx="5" ry="5" stroke="none"/><text xml:space="preserve" x="5" y="17.5" stroke="none" text-anchor="left" font-family="sans-serif" font-size="16" font-weight="normal" fill="#000000">PLACED</text></g></g></g></g><g class="relationship"><g transform="translate(154 -8) rotate(135)" stroke-width="5" stroke="#000000"><path d="M 59 0 L 340.40191809418025 0"/><polygon points="-24.8621506177483,0 -27.62461179749811,9.20820393249937 0,0 -27.62461179749811,-9.20820393249937" fill="#000000" transform="translate(365.26406871192853 0) rotate(0)" stroke="none"/></g><g transform="translate(12.79009764834558 133.20990235165445) rotate(0) translate(0 -22.6)"><g transform="translate(0 0)"><g transform="translate(-45.7421875 0)" fill="#ffffff" stroke="#000000" stroke-width="0"><rect x="0" y="0" width="91.484375" height="26" rx="5" ry="5" stroke="none"/><text xml:space="preserve" x="5" y="17.5" stroke="none" text-anchor="left" font-family="sans-serif" font-size="16" font-weight="normal" fill="#000000">CONTAINS</text></g></g><g transform="translate(0 26)"><g transform="translate(-36.91015625 0)" fill="white"><rect x="0" y="0" width="73.8203125" height="19.2" rx="0" ry="0" stroke="none"/><g font-family="sans-serif" font-size="16" font-weight="normal" fill="#000000" text-anchor="end"><text xml:space="preserve" x="64.9296875" y="14.1" stroke="none">quantity:</text><text xml:space="preserve" x="69.375" y="14.1" stroke="none" text-anchor="start"></text></g></g></g></g></g><g class="node"><g fill="#ffffff" stroke="#000000" stroke-width="4"><circle cx="-146" cy="-8" r="52"/></g><g transform="translate(-146 -8)"><g transform="scale(0.385103906977165) translate(0 -27)"><g transform="translate(0 0)"><g transform="translate(-113.689453125 0)"><g fill="#ffffff" stroke="#000000" stroke-width="4"><rect x="0" y="0" width="227.37890625" height="54" rx="27" ry="27"/><text xml:space="preserve" x="27" y="37.5" stroke="none" font-family="sans-serif" font-size="40" font-weight="normal" fill="#000000">Customer</text></g></g></g></g><g transform="translate(-39.597979746446654 -116.39797974644665)"><g transform="translate(0 0)"><g transform="translate(-74.703125 0)" fill="white"><rect x="0" y="0" width="74.703125" height="76.8" rx="0" ry="0" stroke="none"/><g font-family="sans-serif" font-size="16" font-weight="normal" fill="#000000" text-anchor="end"><text xml:space="preserve" x="65.8125" y="14.1" stroke="none">id:</text><text xml:space="preserve" x="70.2578125" y="14.1" stroke="none" text-anchor="start"></text><text xml:space="preserve" x="65.8125" y="33.3" stroke="none" text-anchor="end">name:</text><text xml:space="preserve" x="70.2578125" y="33.3" stroke="none" text-anchor="start"></text><text xml:space="preserve" x="65.8125" y="52.5" stroke="none" text-anchor="end">email:</text><text xml:space="preserve" x="70.2578125" y="52.5" stroke="none" text-anchor="start"></text><text xml:space="preserve" x="65.8125" y="71.7" stroke="none" text-anchor="end">address:</text><text xml:space="preserve" x="70.2578125" y="71.7" stroke="none" text-anchor="start"></text></g></g></g></g></g></g><g class="node"><g fill="#ffffff" stroke="#000000" stroke-width="4"><circle cx="-146" cy="292" r="52"/></g><g transform="translate(-146 292)"><g transform="scale(0.45156613925888733) translate(0 -27)"><g transform="translate(0 0)"><g transform="translate(-95.92578125 0)"><g fill="#ffffff" stroke="#000000" stroke-width="4"><rect x="0" y="0" width="191.8515625" height="54" rx="27" ry="27"/><text xml:space="preserve" x="27" y="37.5" stroke="none" font-family="sans-serif" font-size="40" font-weight="normal" fill="#000000">Product</text></g></g></g></g><g transform="translate(3.429011037612589e-15 56)"><g transform="translate(0 0)"><g transform="translate(-28.90234375 0)" fill="white"><rect x="0" y="0" width="57.8046875" height="57.599999999999994" rx="0" ry="0" stroke="none"/><g font-family="sans-serif" font-size="16" font-weight="normal" fill="#000000" text-anchor="end"><text xml:space="preserve" x="48.9140625" y="14.1" stroke="none">id:</text><text xml:space="preserve" x="53.359375" y="14.1" stroke="none" text-anchor="start"></text><text xml:space="preserve" x="48.9140625" y="33.3" stroke="none" text-anchor="end">name:</text><text xml:space="preserve" x="53.359375" y="33.3" stroke="none" text-anchor="start"></text><text xml:space="preserve" x="48.9140625" y="52.5" stroke="none" text-anchor="end">price:</text><text xml:space="preserve" x="53.359375" y="52.5" stroke="none" text-anchor="start"></text></g></g></g></g></g></g><g class="node"><g fill="#ffffff" stroke="#000000" stroke-width="4"><circle cx="154" cy="-8" r="52"/></g><g transform="translate(154 -8)"><g transform="scale(0.5444172732533344) translate(0 -27)"><g transform="translate(0 0)"><g transform="translate(-78.123046875 0)"><g fill="#ffffff" stroke="#000000" stroke-width="4"><rect x="0" y="0" width="156.24609375" height="54" rx="27" ry="27"/><text xml:space="preserve" x="27" y="37.5" stroke="none" font-family="sans-serif" font-size="40" font-weight="normal" fill="#000000">Order</text></g></g></g></g><g transform="translate(39.59797974644666 -77.99797974644665)"><g transform="translate(0 0)"><g transform="translate(0 0)" fill="white"><rect x="0" y="0" width="48.921875" height="38.4" rx="0" ry="0" stroke="none"/><g font-family="sans-serif" font-size="16" font-weight="normal" fill="#000000" text-anchor="end"><text xml:space="preserve" x="40.03125" y="14.1" stroke="none">id:</text><text xml:space="preserve" x="44.4765625" y="14.1" stroke="none" text-anchor="start"></text><text xml:space="preserve" x="40.03125" y="33.3" stroke="none" text-anchor="end">date:</text><text xml:space="preserve" x="44.4765625" y="33.3" stroke="none" text-anchor="start"></text></g></g></g></g></g></g></g></svg>