<svg version="1.1" viewBox="0.0 0.0 747.0971128608924 226.45144356955382" fill="none" stroke="none" stroke-linecap="square" stroke-miterlimit="10" xmlns:xlink="http://www.w3.org/1999/xlink" xmlns="http://www.w3.org/2000/svg"><clipPath id="p.0"><path d="m0 0l747.0971 0l0 226.45145l-747.0971 0l0 -226.45145z" clip-rule="nonzero"/></clipPath><g clip-path="url(#p.0)"><path fill="#000000" fill-opacity="0.0" d="m0 0l747.0971 0l0 226.45145l-747.0971 0z" fill-rule="evenodd"/><path fill="#014063" d="m529.03546 112.15748l0 0c0 -57.524586 46.632874 -104.15748 104.15747 -104.15748l0 0c27.624268 0 54.117126 10.973703 73.65045 30.507019c19.533325 19.533318 30.507019 46.026176 30.507019 73.65046l0 0c0 57.52459 -46.632874 104.15748 -104.15747 104.15748l0 0c-57.524597 0 -104.15747 -46.63289 -104.15747 -104.15748z" fill-rule="evenodd"/><path stroke="#8fe3e8" stroke-width="3.0" stroke-linejoin="round" stroke-linecap="butt" d="m529.03546 112.15748l0 0c0 -57.524586 46.632874 -104.15748 104.15747 -104.15748l0 0c27.624268 0 54.117126 10.973703 73.65045 30.507019c19.533325 19.533318 30.507019 46.026176 30.507019 73.65046l0 0c0 57.52459 -46.632874 104.15748 -104.15747 104.15748l0 0c-57.524597 0 -104.15747 -46.63289 -104.15747 -104.15748z" fill-rule="evenodd"/><path fill="#8fe3e8" d="m598.97437 122.817474l0 -20.671875l2.8125 0l11.875 15.421875l-0.765625 0l0 -15.421875l3.484375 0l0 20.671875l-2.78125 0l-11.875 -15.453125l0.734375 0l0 15.453125l-3.484375 0zm28.124939 0.296875q-2.234375 0 -3.875 -0.90625q-1.640625 -0.921875 -2.5625 -2.59375q-0.90625 -1.6875 -0.90625 -3.984375q0 -2.28125 0.90625 -3.953125q0.921875 -1.671875 2.5625 -2.578125q1.640625 -0.921875 3.875 -0.921875q2.21875 0 3.859375 0.921875q1.640625 0.90625 2.546875 2.578125q0.921875 1.671875 0.921875 3.953125q0 2.296875 -0.921875 3.984375q-0.90625 1.671875 -2.546875 2.59375q-1.640625 0.90625 -3.859375 0.90625zm0 -2.796875q1.640625 0 2.625 -1.1875q1.0 -1.1875 1.0 -3.53125q0 -2.3125 -1.0 -3.46875q-0.984375 -1.15625 -2.625 -1.15625q-1.65625 0 -2.65625 1.15625q-0.984375 1.15625 -0.984375 3.46875q0 2.34375 0.984375 3.53125q1.0 1.1875 2.65625 1.1875zm15.53363 2.796875q-1.78125 0 -2.953125 -0.65625q-1.171875 -0.671875 -1.75 -1.984375q-0.578125 -1.328125 -0.578125 -3.28125l0 -8.71875l3.671875 0l0 8.765625q0 1.0 0.28125 1.6875q0.28125 0.671875 0.84375 1.0q0.578125 0.3125 1.453125 0.3125q1.0 0 1.75 -0.453125q0.75 -0.453125 1.171875 -1.28125q0.421875 -0.84375 0.421875 -1.96875l0 -8.0625l3.671875 0l0 14.34375l-3.578125 0l0 -2.984375l0.40625 0q-0.609375 1.578125 -1.859375 2.4375q-1.25 0.84375 -2.953125 0.84375zm11.793457 -0.296875l0 -14.34375l3.578125 0l0 2.875l-0.328125 0q0.65625 -1.546875 2.015625 -2.359375q1.359375 -0.8125 3.09375 -0.8125q1.734375 0 2.84375 0.65625q1.109375 0.640625 1.671875 1.953125q0.5625 1.296875 0.5625 3.296875l0 8.734375l-3.671875 0l0 -8.5625q0 -1.109375 -0.28125 -1.8125q-0.28125 -0.71875 -0.859375 -1.046875q-0.5625 -0.34375 -1.4375 -0.34375q-1.0625 0 -1.859375 0.46875q-0.78125 0.453125 -1.21875 1.28125q-0.4375 0.828125 -0.4375 1.953125l0 8.0625l-3.671875 0z" fill-rule="nonzero"/><path fill="#014063" d="m7.9986877 112.15748l0 0c0 -57.524586 46.632893 -104.15748 104.15748 -104.15748l0 0c27.62429 0 54.11715 10.973703 73.65046 30.507019c19.533325 19.533318 30.507019 46.026176 30.507019 73.65046l0 0c0 57.52459 -46.63289 104.15748 -104.15748 104.15748l0 0c-57.524586 0 -104.15748 -46.63289 -104.15748 -104.15748z" fill-rule="evenodd"/><path stroke="#8fe3e8" stroke-width="3.0" stroke-linejoin="round" stroke-linecap="butt" d="m7.9986877 112.15748l0 0c0 -57.524586 46.632893 -104.15748 104.15748 -104.15748l0 0c27.62429 0 54.11715 10.973703 73.65046 30.507019c19.533325 19.533318 30.507019 46.026176 30.507019 73.65046l0 0c0 57.52459 -46.63289 104.15748 -104.15748 104.15748l0 0c-57.524586 0 -104.15748 -46.63289 -104.15748 -104.15748z" fill-rule="evenodd"/><path fill="#8fe3e8" d="m77.93763 122.817474l0 -20.671875l2.8125 0l11.875 15.421875l-0.765625 0l0 -15.421875l3.484375 0l0 20.671875l-2.78125 0l-11.875 -15.453125l0.734375 0l0 15.453125l-3.484375 0zm28.124924 0.296875q-2.234375 0 -3.875 -0.90625q-1.640625 -0.921875 -2.5625 -2.59375q-0.90625 -1.6875 -0.90625 -3.984375q0 -2.28125 0.90625 -3.953125q0.921875 -1.671875 2.5625 -2.578125q1.640625 -0.921875 3.875 -0.921875q2.21875 0 3.859375 0.921875q1.640625 0.90625 2.546875 2.578125q0.921875 1.671875 0.921875 3.953125q0 2.296875 -0.921875 3.984375q-0.90625 1.671875 -2.546875 2.59375q-1.640625 0.90625 -3.859375 0.90625zm0 -2.796875q1.640625 0 2.625 -1.1875q1.0 -1.1875 1.0 -3.53125q0 -2.3125 -1.0 -3.46875q-0.984375 -1.15625 -2.625 -1.15625q-1.65625 0 -2.65625 1.15625q-0.984375 1.15625 -0.984375 3.46875q0 2.34375 0.984375 3.53125q1.0 1.1875 2.65625 1.1875zm15.533615 2.796875q-1.78125 0 -2.953125 -0.65625q-1.171875 -0.671875 -1.75 -1.984375q-0.578125 -1.328125 -0.578125 -3.28125l0 -8.71875l3.671875 0l0 8.765625q0 1.0 0.28125 1.6875q0.28125 0.671875 0.84375 1.0q0.578125 0.3125 1.453125 0.3125q1.0 0 1.75 -0.453125q0.75 -0.453125 1.171875 -1.28125q0.421875 -0.84375 0.421875 -1.96875l0 -8.0625l3.6718826 0l0 14.34375l-3.5781326 0l0 -2.984375l0.40625 0q-0.609375 1.578125 -1.859375 2.4375q-1.25 0.84375 -2.953125 0.84375zm11.79348 -0.296875l0 -14.34375l3.578125 0l0 2.875l-0.328125 0q0.65625 -1.546875 2.015625 -2.359375q1.359375 -0.8125 3.09375 -0.8125q1.734375 0 2.84375 0.65625q1.109375 0.640625 1.671875 1.953125q0.5625 1.296875 0.5625 3.296875l0 8.734375l-3.671875 0l0 -8.5625q0 -1.109375 -0.28125 -1.8125q-0.28125 -0.71875 -0.859375 -1.046875q-0.5625 -0.34375 -1.4375 -0.34375q-1.0625 0 -1.859375 0.46875q-0.78125 0.453125 -1.21875 1.28125q-0.4375 0.828125 -0.4375 1.953125l0 8.0625l-3.671875 0z" fill-rule="nonzero"/><path fill="#000000" fill-opacity="0.0" d="m216.31102 112.15748l312.72443 0" fill-rule="evenodd"/><path stroke="#8fe3e8" stroke-width="3.0" stroke-linejoin="round" stroke-linecap="butt" d="m216.31102 112.15748l294.72443 0" fill-rule="evenodd"/><path fill="#8fe3e8" stroke="#8fe3e8" stroke-width="3.0" stroke-linecap="butt" d="m511.03543 117.11268l13.614288 -4.9552l-13.614288 -4.9551926z" fill-rule="evenodd"/><path fill="#014063" d="m293.6811 102.41219l0 0c0 -3.244194 2.6299438 -5.874138 5.8741455 -5.874138l146.236 0c1.5578918 0 3.052002 0.6188812 4.1536255 1.7204971c1.1016235 1.1016159 1.7204895 2.5957184 1.7204895 4.1536407l0 23.495827c0 3.2441864 -2.6299438 5.8741302 -5.874115 5.8741302l-146.236 0c-3.2442017 0 -5.8741455 -2.6299438 -5.8741455 -5.8741302z" fill-rule="evenodd"/><path stroke="#8fe3e8" stroke-width="2.0" stroke-linejoin="round" stroke-linecap="butt" d="m293.6811 102.41219l0 0c0 -3.244194 2.6299438 -5.874138 5.8741455 -5.874138l146.236 0c1.5578918 0 3.052002 0.6188812 4.1536255 1.7204971c1.1016235 1.1016159 1.7204895 2.5957184 1.7204895 4.1536407l0 23.495827c0 3.2441864 -2.6299438 5.8741302 -5.874115 5.8741302l-146.236 0c-3.2442017 0 -5.8741455 -2.6299438 -5.8741455 -5.8741302z" fill-rule="evenodd"/><path fill="#8fe3e8" d="m355.80365 122.420105l-6.96875 -15.96875l1.984375 0l6.234375 14.46875l-0.734375 0l6.21875 -14.46875l1.9375 0l-7.0 15.96875l-1.671875 0zm14.007172 0.203125q-1.75 0 -3.015625 -0.6875q-1.25 -0.6875 -1.9375 -1.953125q-0.6875 -1.28125 -0.6875 -3.046875q0 -1.71875 0.671875 -3.0q0.6875 -1.28125 1.875 -2.0q1.1875 -0.734375 2.75 -0.734375q1.5 0 2.5625 0.65625q1.0625 0.65625 1.640625 1.859375q0.578125 1.203125 0.578125 2.875l0 0.703125l-8.671875 0l0 -1.203125l7.453125 0l-0.375 0.296875q0 -1.8125 -0.8125 -2.8125q-0.796875 -1.015625 -2.328125 -1.015625q-1.15625 0 -1.96875 0.53125q-0.796875 0.53125 -1.203125 1.484375q-0.40625 0.9375 -0.40625 2.1875l0 0.125q0 1.390625 0.4375 2.34375q0.4375 0.9375 1.3125 1.4375q0.890625 0.484375 2.125 0.484375q0.96875 0 1.890625 -0.296875q0.921875 -0.3125 1.734375 -1.015625l0.625 1.28125q-0.75 0.6875 -1.90625 1.09375q-1.140625 0.40625 -2.34375 0.40625zm7.0843506 -0.203125l0 -11.015625l1.796875 0l0 2.609375l-0.234375 0q0.390625 -1.328125 1.34375 -2.015625q0.953125 -0.703125 2.515625 -0.8125l0.65625 -0.078125l0.125 1.59375l-1.140625 0.140625q-1.546875 0.125 -2.375 0.984375q-0.828125 0.84375 -0.828125 2.3125l0 6.28125l-1.859375 0zm13.689056 0.203125q-1.5 0 -2.578125 -0.765625q-1.078125 -0.78125 -1.4375 -2.0625l0.234375 0l0 2.625l-1.796875 0l0 -15.96875l1.84375 0l0 7.515625l-0.28125 0q0.390625 -1.265625 1.453125 -2.015625q1.0625 -0.75 2.5625 -0.75q1.5 0 2.578125 0.703125q1.09375 0.6875 1.6875 1.96875q0.609375 1.28125 0.609375 3.046875q0 1.734375 -0.609375 3.015625q-0.59375 1.28125 -1.703125 1.984375q-1.09375 0.703125 -2.5625 0.703125zm-0.390625 -1.46875q1.5625 0 2.484375 -1.09375q0.921875 -1.109375 0.921875 -3.140625q0 -2.0625 -0.921875 -3.140625q-0.921875 -1.09375 -2.484375 -1.09375q-1.53125 0 -2.46875 1.09375q-0.921875 1.078125 -0.921875 3.140625q0 2.03125 0.921875 3.140625q0.9375 1.09375 2.46875 1.09375z" fill-rule="nonzero"/></g></svg>