<?xml version="1.0" encoding="UTF-8" standalone="no"?> <svg xmlns:svg="http://www.w3.org/2000/svg" xmlns="http://www.w3.org/2000/svg" id="svg255" version="1.1" width="1024" height="289" viewBox="-0.97271403 -0.97271403 121.94525806 34.36922906"><defs id="defs252"></defs><path mask="none" clip-path="none" d="m 46.21983,15.00989 -0.005,5.728 c -0.404,0.15 -1.262,0.367 -2.856,0.367 -3.915,0 -6.444,-2.237 -6.444,-5.699 0,-3.431 2.612,-5.65 6.655,-5.65 1.528,0 2.718,0.219 3.854,0.706 l 0.358,0.154 0.752,-2.256 -0.28,-0.126 c -0.828,-0.374 -2.534,-0.81 -4.61,-0.81 -6.626,0 -9.644,4.18 -9.644,8.064 0,2.254 0.868,4.327 2.381,5.687 1.675,1.513 3.896,2.249 6.79,2.249 a 17.4,17.4 0 0 0 5.599,-0.947 l 0.23,-0.081 v -7.38 l -2.78,-0.006 m 6.78,8.414 h 2 v -16 h -2 z m 10.745,-2.42 v -13.58 h -2.745 v 16 h 10 v -2.42 h -7.255 m 13.971,0.041 v -4.766 h 6.537 v -2.38 h -6.537 v -4.095 h 6.917 v -2.38 h -9.633 v 16 h 10 v -2.379 h -7.284 m 17.697,-10.473 c 0.156,0.486 1.686,4.518 2.137,5.684 h -4.235 c 0,0 1.948,-5.202 2.098,-5.684 z m 1.43,-3.148 h -2.753 l -6.09,16 h 2.811 l 1.787,-4.885 h 5.674 l 1.868,4.885 h 2.86 z m 20.807,2.204 c -1.606,-1.461 -4.104,-2.204 -7.421,-2.204 l -5.229,0.005 v 2.258 l 5.29,0.014 c 2.433,0 4.254,0.573 5.412,1.704 0.937,0.913 1.404,2.166 1.39,3.724 0,1.726 -0.56,3.177 -1.619,4.199 -1.232,1.187 -3.16,1.812 -5.577,1.806 -0.732,0 -1.533,-0.01 -2.118,-0.068 v -7.116 h -2.778 v 9.267 l 0.315,0.031 c 1.213,0.12 2.538,0.176 4.221,0.176 3.447,0 6.286,-0.869 7.995,-2.446 1.593,-1.51 2.469,-3.615 2.469,-5.93 0,-2.214 -0.791,-4.037 -2.35,-5.42" id="path218" style="fill:#50504f;fill-rule:evenodd"></path><path id="path223" d="M 24.34944,6e-5 C 4.05344,1.92406 1.4664,15.87614 8.1014,20.33014 c -1.144,5.037 -0.0781,4.91992 -0.0781,4.91992 A 36.93,36.93 0 0 1 8.91197,20.79694 C 11.50097,10.97894 17.909,2.4138 24.369,0.1778 V 0.1758 A 0.09,0.09 0 0 0 24.4491,0.0879 0.09,0.09 0 0 0 24.3612,0 Z m -1.06445,3.20313 a 0.089,0.089 0 0 0 -0.084,0.0605 c -1.677,3.279 -2.16045,7.97346 -3.43945,11.56446 -1.462,4.11 -4.05927,6.87528 -8.07227,6.61328 v 9.98828 c 0,0 -10.71875,-4.83256 -10.71875,-12.60156 V 4.27151 L 9.73028,3.47463 h 0.002 a 0.09,0.09 0 0 0 0.006,-0.17969 v -0.002 H 0 V 18.8281 c 0,8.74 11.68555,13.5957 11.68555,13.5957 0,0 11.69336,-4.9357 11.69336,-13.5957 V 3.29294 h -0.002 a 0.09,0.09 0 0 0 -0.0918,-0.0898 z" clip-path="none" mask="none" style="fill:#c53645;fill-rule:evenodd"></path></svg> 