<svg width="166" height="137" viewBox="0 0 166 137" fill="none" xmlns="http://www.w3.org/2000/svg">
    <path opacity="0.1"
        d="M150.058 84.0999C157.96 88.6339 158.001 95.9773 150.058 100.531L111.896 122.599C107.478 124.835 102.59 126 97.6334 126C92.6763 126 87.7895 124.835 83.3708 122.599L44.9471 100.531C37.0648 95.9973 37.0043 88.6539 44.9471 84.0999L83.1288 62.0322C87.544 59.7965 92.4276 58.6311 97.3814 58.6311C102.335 58.6311 107.219 59.7965 111.634 62.0322L150.058 84.0999Z"
        fill="#4C99A4" />
    <path fill-rule="evenodd" clip-rule="evenodd"
        d="M39 45.4792V78.1803C39 81.1448 40.9431 84.1288 44.9474 86.4087L44.9473 86.4453L83.3912 108.533L83.4718 75.8327L45.0481 53.7449L45.0478 53.833V53.7449C41.0159 51.498 39 48.4684 39 45.4792Z"
        fill="#5CC3C9" />
    <path
        d="M39.5 45.4792C39.5 45.2031 39.2761 44.9792 39 44.9792C38.7239 44.9792 38.5 45.2031 38.5 45.4792H39.5ZM44.9474 86.4087L45.4474 86.4102C45.448 86.23 45.3514 86.0634 45.1948 85.9742L44.9474 86.4087ZM44.9473 86.4453L44.4473 86.4437C44.4467 86.6233 44.5425 86.7894 44.6982 86.8788L44.9473 86.4453ZM83.3912 108.533L83.1421 108.967C83.2966 109.055 83.4868 109.055 83.6411 108.966C83.7955 108.877 83.8908 108.713 83.8912 108.534L83.3912 108.533ZM83.4718 75.8327L83.9718 75.8339C83.9723 75.6545 83.8766 75.4886 83.721 75.3992L83.4718 75.8327ZM45.0481 53.7449L45.2973 53.3114C45.1428 53.2226 44.9527 53.2227 44.7983 53.3117C44.644 53.4007 44.5486 53.5651 44.5481 53.7433L45.0481 53.7449ZM45.0478 53.833H44.5478C44.5478 54.1089 44.7712 54.3326 45.047 54.333C45.3229 54.3335 45.547 54.1104 45.5478 53.8346L45.0478 53.833ZM45.0478 53.7449H45.5478C45.5478 53.5635 45.4496 53.3964 45.2912 53.3081L45.0478 53.7449ZM39.5 78.1803V45.4792H38.5V78.1803H39.5ZM45.1948 85.9742C41.2844 83.7477 39.5 80.9033 39.5 78.1803H38.5C38.5 81.3862 40.6019 84.5098 44.7 86.8432L45.1948 85.9742ZM45.4473 86.4468L45.4474 86.4102L44.4474 86.4072L44.4473 86.4437L45.4473 86.4468ZM83.6403 108.1L45.1964 86.0118L44.6982 86.8788L83.1421 108.967L83.6403 108.1ZM82.9718 75.8315L82.8912 108.532L83.8912 108.534L83.9718 75.8339L82.9718 75.8315ZM44.7989 54.1783L83.2226 76.2662L83.721 75.3992L45.2973 53.3114L44.7989 54.1783ZM45.5478 53.8346L45.5481 53.7464L44.5481 53.7433L44.5478 53.8315L45.5478 53.8346ZM44.5478 53.7449V53.833H45.5478V53.7449H44.5478ZM38.5 45.4792C38.5 48.7132 40.6786 51.8824 44.8044 54.1816L45.2912 53.3081C41.3533 51.1136 39.5 48.2237 39.5 45.4792H38.5Z"
        fill="#0A6190" />
    <path fill-rule="evenodd" clip-rule="evenodd"
        d="M156 45.7207V78.4217C156 81.3861 154.057 84.37 150.053 86.6499L150.053 86.6865L111.609 108.774L111.529 76.0739L149.952 53.9861L149.952 53.9862C153.984 51.7393 156 48.7098 156 45.7207Z"
        fill="#C3F8FB" />
    <path
        d="M155.5 45.7207C155.5 45.4446 155.724 45.2207 156 45.2207C156.276 45.2207 156.5 45.4446 156.5 45.7207H155.5ZM150.053 86.6499L149.553 86.6514C149.553 86.4712 149.649 86.3046 149.806 86.2154L150.053 86.6499ZM150.053 86.6865L150.553 86.685C150.554 86.8646 150.458 87.0306 150.302 87.1201L150.053 86.6865ZM111.609 108.774L111.858 109.208C111.704 109.297 111.514 109.297 111.359 109.207C111.205 109.118 111.11 108.954 111.109 108.776L111.609 108.774ZM111.529 76.0739L111.029 76.0752C111.028 75.8958 111.124 75.7299 111.279 75.6405L111.529 76.0739ZM149.952 53.9861L149.703 53.5526C149.858 53.4639 150.047 53.4639 150.202 53.5527C150.356 53.6415 150.452 53.8056 150.452 53.9837L149.952 53.9861ZM149.952 53.9862L150.196 54.423C150.041 54.5091 149.853 54.5071 149.7 54.4179C149.547 54.3287 149.453 54.1655 149.452 53.9887L149.952 53.9862ZM155.5 78.4217V45.7207H156.5V78.4217H155.5ZM149.806 86.2154C153.716 83.989 155.5 81.1447 155.5 78.4217H156.5C156.5 81.6276 154.398 84.7511 150.3 87.0844L149.806 86.2154ZM149.553 86.6881L149.553 86.6514L150.553 86.6483L150.553 86.685L149.553 86.6881ZM111.36 108.341L149.804 86.253L150.302 87.1201L111.858 109.208L111.36 108.341ZM112.029 76.0727L112.109 108.773L111.109 108.776L111.029 76.0752L112.029 76.0727ZM150.202 54.4196L111.778 76.5074L111.279 75.6405L149.703 53.5526L150.202 54.4196ZM149.452 53.9887L149.452 53.9886L150.452 53.9837L150.452 53.9838L149.452 53.9887ZM156.5 45.7207C156.5 48.9546 154.322 52.1237 150.196 54.423L149.709 53.5495C153.647 51.3549 155.5 48.4651 155.5 45.7207H156.5Z"
        fill="#0A6190" />
    <path
        d="M150.058 37.3341C157.96 41.868 158.001 49.2114 150.058 53.7654L111.896 75.8332C107.478 78.069 102.59 79.2342 97.6334 79.2342C92.6763 79.2342 87.7895 78.069 83.3708 75.8332L44.9471 53.7654C37.0648 49.2315 37.0043 41.8881 44.9471 37.3341L83.1288 15.2663C87.544 13.0307 92.4276 11.8652 97.3814 11.8652C102.335 11.8652 107.219 13.0307 111.634 15.2663L150.058 37.3341Z"
        fill="white" stroke="#0A6190" stroke-linejoin="round" />
    <path
        d="M111.997 75.8333V108.533C107.585 110.778 102.7 111.949 97.7443 111.949C92.7887 111.949 87.904 110.778 83.4917 108.533V75.8333C87.9078 78.0658 92.791 79.2284 97.7443 79.2284C102.698 79.2284 107.581 78.0658 111.997 75.8333Z"
        fill="#5CC3C9" stroke="#0A6190" stroke-linejoin="round" />
    <path
        d="M88.8443 69.8831L51.1249 48.2132C47.9577 46.3937 47.9577 43.4437 51.1249 41.6242L85.479 21.8877H108.594L142.948 41.6242C146.115 43.4437 146.115 46.3937 142.948 48.2132L105.229 69.8831C100.704 72.4824 93.3688 72.4824 88.8443 69.8831Z"
        stroke="#0A6190" />
    <path fill-rule="evenodd" clip-rule="evenodd"
        d="M87.4986 20.7275C92.7663 17.7012 101.307 17.7012 106.575 20.7275L142.613 41.4317C145.965 43.3575 145.965 46.4799 142.613 48.4057L139.601 50.1361L99.5628 27.1339C98.1676 26.3324 95.9056 26.3324 94.5103 27.1339L54.4718 50.1361L51.4599 48.4058C48.1078 46.4799 48.1078 43.3575 51.4599 41.4317L87.4986 20.7275Z"
        fill="#5CC3C9" />
    <path
        d="M106.575 20.7275L106.326 21.161V21.161L106.575 20.7275ZM87.4986 20.7275L87.7476 21.161V21.161L87.4986 20.7275ZM142.613 41.4317L142.364 41.8653L142.613 41.4317ZM142.613 48.4057L142.364 47.9722L142.613 48.4057ZM139.601 50.1361L139.352 50.5696L139.601 50.7127L139.85 50.5696L139.601 50.1361ZM99.5628 27.1339L99.3138 27.5675L99.5628 27.1339ZM94.5103 27.1339L94.7594 27.5675L94.5103 27.1339ZM54.4718 50.1361L54.2227 50.5696L54.4718 50.7127L54.7209 50.5696L54.4718 50.1361ZM51.4599 48.4058L51.2109 48.8393H51.2109L51.4599 48.4058ZM51.4599 41.4317L51.709 41.8653L51.4599 41.4317ZM106.824 20.2939C104.096 18.727 100.553 17.9578 97.0366 17.9578C93.5204 17.9578 89.9771 18.727 87.2495 20.2939L87.7476 21.161C90.2878 19.7017 93.6486 18.9578 97.0366 18.9578C100.425 18.9578 103.785 19.7017 106.326 21.161L106.824 20.2939ZM142.862 40.9982L106.824 20.2939L106.326 21.161L142.364 41.8653L142.862 40.9982ZM142.862 48.8393C144.629 47.8244 145.627 46.4236 145.627 44.9187C145.627 43.4138 144.629 42.0131 142.862 40.9982L142.364 41.8653C143.95 42.7762 144.627 43.8995 144.627 44.9187C144.627 45.9379 143.95 47.0613 142.364 47.9722L142.862 48.8393ZM139.85 50.5696L142.862 48.8393L142.364 47.9722L139.352 49.7025L139.85 50.5696ZM139.85 49.7025L99.8119 26.7004L99.3138 27.5675L139.352 50.5696L139.85 49.7025ZM99.8119 26.7004C99.0206 26.2458 98.015 26.0328 97.0366 26.0328C96.0581 26.0328 95.0526 26.2458 94.2613 26.7004L94.7594 27.5675C95.3633 27.2205 96.1864 27.0328 97.0366 27.0328C97.8868 27.0328 98.7099 27.2205 99.3138 27.5675L99.8119 26.7004ZM94.2613 26.7004L54.2227 49.7025L54.7209 50.5696L94.7594 27.5675L94.2613 26.7004ZM51.2109 48.8393L54.2227 50.5696L54.7209 49.7025L51.709 47.9722L51.2109 48.8393ZM51.2109 40.9982C49.4442 42.0131 48.4458 43.4138 48.4458 44.9187C48.4458 46.4236 49.4442 47.8244 51.2109 48.8393L51.709 47.9722C50.1235 47.0613 49.4458 45.9379 49.4458 44.9187C49.4458 43.8995 50.1235 42.7762 51.709 41.8653L51.2109 40.9982ZM87.2495 20.2939L51.2109 40.9982L51.709 41.8653L87.7476 21.161L87.2495 20.2939Z"
        fill="#0A6190" />
    <path opacity="0.3" fill-rule="evenodd" clip-rule="evenodd"
        d="M65.0294 51.1864C63.1509 52.2253 63.1604 53.9137 65.0563 54.957C66.8018 55.9241 69.5324 56.0039 71.4206 55.1943L83.3621 61.1C81.8324 62.4657 82.1493 64.2865 84.3116 65.4765C86.8325 66.8731 90.899 66.8779 93.3968 65.4872C94.08 65.1093 94.5754 64.6669 94.883 64.1951L103.779 64.8727C104.001 65.243 104.379 65.5913 104.915 65.8859C106.733 66.8933 109.666 66.8968 111.468 65.8936C112.972 65.0617 113.214 63.7956 112.194 62.8178L121.512 56.5186C123.965 57.6151 127.549 57.5359 129.808 56.278C132.227 54.94 132.215 52.7656 129.773 51.4218C128.174 50.5414 125.931 50.2358 123.894 50.5061L105.314 38.3162C106.787 37.3137 106.671 35.8334 104.968 34.896C103.15 33.8953 100.216 33.8918 98.4149 34.8882C97.0481 35.6441 96.7235 36.7584 97.4402 37.6892L86.253 43.0167C83.7132 42.1845 80.3938 42.3669 78.2253 43.5663C76.0953 44.7443 75.742 46.5334 77.1641 47.9227L71.638 51.0785C69.7324 50.1524 66.8356 50.1875 65.0294 51.1864ZM104.285 38.8354C102.491 39.4994 100.036 39.3886 98.4407 38.5045C98.3805 38.4714 98.3223 38.4376 98.2661 38.4031L87.4857 43.5368C87.5108 43.5502 87.5357 43.5636 87.5604 43.5773C89.0985 44.4237 89.7279 45.5809 89.4479 46.6785L97.9269 49.9909C98.1385 49.7321 98.4366 49.4898 98.821 49.2772C100.54 48.3263 103.34 48.3296 105.075 49.2846C106.81 50.2395 106.819 51.7848 105.1 52.7357C103.38 53.6931 100.581 53.6898 98.8456 52.7284C97.9362 52.2279 97.501 51.5652 97.5402 50.911L89.0014 47.5752C88.6825 47.9946 88.2144 48.3874 87.5971 48.7288C86.9389 49.0953 86.1747 49.3675 85.3584 49.5454L88.2222 59.444C90.0553 59.3538 91.9502 59.6972 93.361 60.4736C94.7325 61.2283 95.3616 62.2369 95.2479 63.2222L103.56 63.8554C103.646 63.2765 104.089 62.7118 104.889 62.2697C106.648 61.2969 109.485 61.2771 111.31 62.2078L120.531 55.974C118.576 54.6238 118.723 52.6559 120.973 51.4114C121.437 51.1553 121.955 50.9484 122.509 50.7906L104.285 38.8354ZM72.4519 54.5912C73.5274 53.7263 73.5691 52.5855 72.5774 51.6935L78.0267 48.5816C78.1026 48.6278 78.1811 48.6732 78.262 48.7178C79.9241 49.6387 82.2402 49.9706 84.3647 49.7128L87.2077 59.5396C86.1419 59.6895 85.1339 59.9929 84.2989 60.4501L72.4519 54.5912Z"
        fill="#4C99A4" />
    <path
        d="M88.7956 59.1433L108.726 59.9935L126.415 48.4867L101.299 32.9093L82.9887 39.2728M88.7956 59.1433L67.6944 49.486L82.9887 39.2728M88.7956 59.1433L82.9887 39.2728M82.9887 39.2728L102.187 45.8307"
        stroke="#1A1B1D" />
    <ellipse cx="4.9566" cy="4.9506" rx="4.9566" ry="4.9506"
        transform="matrix(-1.00182 -0.00104866 0.00105614 0.998175 106.92 41.2148)" fill="white" />
    <path opacity="0.5" fill-rule="evenodd" clip-rule="evenodd"
        d="M97.3949 44.1937C98.0774 46.1158 99.9193 47.4947 102.083 47.4969C104.128 47.4991 105.884 46.2701 106.643 44.5129C106.825 45.0271 106.925 45.5803 106.925 46.1563C106.928 48.8855 104.707 51.0956 101.965 51.0927C99.2226 51.0899 96.9971 48.8751 96.9942 46.146C96.9934 45.4524 97.1363 44.7924 97.3949 44.1937Z"
        fill="#F5F6F6" />
    <path
        d="M97.4953 46.1465C97.4979 48.5995 99.4983 50.5911 101.965 50.5937C104.431 50.5963 106.427 48.6088 106.425 46.1559C106.422 43.7029 104.422 41.7113 101.955 41.7087C99.4889 41.7062 97.4927 43.6936 97.4953 46.1465Z"
        stroke="#1A1B1D" />
    <ellipse cx="4.9566" cy="4.9506" rx="4.9566" ry="4.9506"
        transform="matrix(-1.00182 -0.00104866 0.00105614 0.998175 106.92 27.782)" fill="#BCF194" />
    <path opacity="0.5" fill-rule="evenodd" clip-rule="evenodd"
        d="M97.3949 30.7606C98.0775 32.6826 99.9194 34.0615 102.083 34.0637C104.128 34.0659 105.884 32.8369 106.642 31.0798C106.825 31.5941 106.925 32.1473 106.925 32.7234C106.928 35.4526 104.707 37.6627 101.965 37.6598C99.2226 37.6569 96.9971 35.4422 96.9942 32.713C96.9934 32.0194 97.1363 31.3593 97.3949 30.7606Z"
        fill="#4D8622" />
    <path
        d="M97.4953 32.7137C97.4979 35.1666 99.4983 37.1583 101.965 37.1608C104.431 37.1634 106.427 35.176 106.425 32.723C106.422 30.2701 104.422 28.2785 101.955 28.2759C99.4889 28.2733 97.4927 30.2607 97.4953 32.7137Z"
        stroke="#1A1B1D" />
    <ellipse cx="7.0214" cy="7.0129" rx="7.0214" ry="7.0129"
        transform="matrix(-1.00182 -0.00104866 0.00105614 0.998175 95.8628 50.6355)" fill="white" />
    <path opacity="0.5" fill-rule="evenodd" clip-rule="evenodd"
        d="M82.3696 54.8548C83.3365 57.5777 85.9456 59.5312 89.0106 59.5344C91.908 59.5374 94.3944 57.7967 95.4695 55.3077C95.7281 56.0362 95.8693 56.8196 95.8701 57.6356C95.8742 61.5016 92.7282 64.6324 88.8434 64.6284C84.9585 64.6243 81.8059 61.487 81.8018 57.6209C81.8007 56.6382 82.0032 55.7031 82.3696 54.8548Z"
        fill="#F5F6F6" />
    <path
        d="M82.3027 57.6214C82.3065 61.2112 85.2341 64.1255 88.8429 64.1293C92.4517 64.133 95.3731 61.2249 95.3693 57.6351C95.3655 54.0452 92.4379 51.131 88.8291 51.1272C85.2203 51.1234 82.2989 54.0316 82.3027 57.6214Z"
        stroke="#1A1B1D" />
    <ellipse cx="4.36867" cy="4.36338" rx="4.36867" ry="4.36338"
        transform="matrix(-1.00182 -0.00104866 0.00105614 0.998175 72.8311 44.4341)" fill="#BCF194" />
    <path opacity="0.5" fill-rule="evenodd" clip-rule="evenodd"
        d="M64.436 47.0591C65.0376 48.7532 66.661 49.9686 68.5679 49.9706C70.3706 49.9725 71.9175 48.8896 72.5865 47.3411C72.7475 47.7943 72.8353 48.2818 72.8358 48.7895C72.8384 51.195 70.881 53.1429 68.4638 53.1404C66.0467 53.1379 64.0851 51.1858 64.0826 48.7804C64.0819 48.1689 64.2079 47.5869 64.436 47.0591Z"
        fill="#4D8622" />
    <path
        d="M64.5833 48.7809C64.5856 50.9101 66.322 52.639 68.4631 52.6413C70.6042 52.6435 72.337 50.9182 72.3348 48.789C72.3325 46.6598 70.596 44.9308 68.455 44.9286C66.3139 44.9263 64.5811 46.6516 64.5833 48.7809Z"
        stroke="#1A1B1D" />
    <ellipse cx="5.64025" cy="5.63343" rx="5.64025" ry="5.63343"
        transform="matrix(-1.00182 -0.00104866 0.00105614 0.998175 113.916 52.3511)" fill="#C3F8FB" />
    <path opacity="0.5" fill-rule="evenodd" clip-rule="evenodd"
        d="M103.076 55.7406C103.853 57.9281 105.949 59.4974 108.411 59.4999C110.739 59.5024 112.736 58.104 113.6 56.1045C113.807 56.6896 113.921 57.3189 113.921 57.9742C113.925 61.0798 111.397 63.5947 108.277 63.5915C105.156 63.5882 102.624 61.068 102.62 57.9624C102.619 57.1731 102.782 56.422 103.076 55.7406Z"
        fill="#51A6B1" />
    <path
        d="M103.121 57.9629C103.124 60.7923 105.432 63.0894 108.276 63.0924C111.121 63.0953 113.424 60.8031 113.421 57.9737C113.418 55.1443 111.11 52.8472 108.266 52.8442C105.421 52.8413 103.118 55.1335 103.121 57.9629Z"
        stroke="#1A1B1D" />
    <ellipse cx="6.58678" cy="6.5788" rx="6.58678" ry="6.5788"
        transform="matrix(-1.00182 -0.00104866 0.00105614 0.998175 89.5024 32.7319)" fill="#C3F8FB" />
    <path opacity="0.5" fill-rule="evenodd" clip-rule="evenodd"
        d="M76.8448 36.6899C77.7517 39.2444 80.1995 41.0771 83.0748 41.0801C85.7928 41.0829 88.1253 39.45 89.1339 37.1151C89.3764 37.7984 89.5088 38.5333 89.5096 39.2986C89.5134 42.9254 86.5622 45.8624 82.9178 45.8586C79.2734 45.8548 76.3159 42.9116 76.3121 39.2849C76.3111 38.363 76.5011 37.4857 76.8448 36.6899Z"
        fill="#51A6B1" />
    <path
        d="M76.8128 39.2854C76.8163 42.636 79.5487 45.356 82.917 45.3595C86.2854 45.3631 89.012 42.6487 89.0085 39.2982C89.0049 35.9477 86.2725 33.2276 82.9042 33.2241C79.5359 33.2206 76.8092 35.9349 76.8128 39.2854Z"
        stroke="#1A1B1D" />
    <ellipse cx="6.58678" cy="6.5788" rx="6.58678" ry="6.5788"
        transform="matrix(-1.00182 -0.00104866 0.00105614 0.998175 131.982 41.8513)" fill="#C3F8FB" />
    <path opacity="0.5" fill-rule="evenodd" clip-rule="evenodd"
        d="M119.325 45.8095C120.232 48.364 122.679 50.1967 125.555 50.1997C128.273 50.2026 130.605 48.5695 131.614 46.2345C131.856 46.9178 131.989 47.6527 131.99 48.418C131.993 52.0448 129.042 54.9817 125.398 54.9779C121.753 54.9741 118.796 52.031 118.792 48.4042C118.791 47.4825 118.981 46.6052 119.325 45.8095Z"
        fill="#C3F8FB" />
    <path
        d="M119.293 48.4048C119.296 51.7554 122.029 54.4754 125.397 54.4789C128.765 54.4824 131.492 51.7681 131.488 48.4176C131.485 45.0671 128.753 42.347 125.384 42.3435C122.016 42.34 119.289 45.0543 119.293 48.4048Z"
        stroke="#1A1B1D" />
</svg>