<svg xmlns="http://www.w3.org/2000/svg" width="941" height="558" viewBox="0 0 941 558"><defs><style type="text/css"/></defs><g transform="translate(487.5000000000001 346.5) scale(1)"><g class="relationship"><g transform="translate(399 -67.49999999999997) rotate(-128.5820874939561)" stroke-width="5" stroke="#000000"><path d="M 59 0 L 203.96635735184114 0"/><polygon points="-24.8621506177483,0 -27.62461179749811,9.20820393249937 0,0 -27.62461179749811,-9.20820393249937" fill="#000000" transform="translate(228.82850796958945 0) rotate(0)" stroke="none"/></g><g transform="translate(317.00245660578787 -170.28243600945808) rotate(51.417912506043905) translate(0 -13)"><g transform="translate(0 0)"><g transform="translate(-29.01171875 0)" fill="#ffffff" stroke="#000000" stroke-width="0"><rect x="0" y="0" width="58.0234375" height="26" rx="5" ry="5" stroke="none"/><text xml:space="preserve" x="5" y="17.5" stroke="none" text-anchor="left" font-family="sans-serif" font-size="16" font-weight="normal" fill="#000000">source</text></g></g></g></g><g class="relationship"><g transform="translate(219.5 -67.49999999999997) rotate(-90)" stroke-width="5" stroke="#000000"><path d="M 59 0 L 141.13784938225172 0"/><polygon points="-24.8621506177483,0 -27.62461179749811,9.20820393249937 0,0 -27.62461179749811,-9.20820393249937" fill="#000000" transform="translate(166.00000000000003 0) rotate(0)" stroke="none"/></g><g transform="translate(219.5 -167.56892469112583) rotate(90) translate(0 -13)"><g transform="translate(0 0)"><g transform="translate(-29.01171875 0)" fill="#ffffff" stroke="#000000" stroke-width="0"><rect x="0" y="0" width="58.0234375" height="26" rx="5" ry="5" stroke="none"/><text xml:space="preserve" x="5" y="17.5" stroke="none" text-anchor="left" font-family="sans-serif" font-size="16" font-weight="normal" fill="#000000">source</text></g></g></g></g><g class="relationship"><g transform="translate(75.00000000000003 -67.49999999999997) rotate(-57.29052174526401)" stroke-width="5" stroke="#000000"><path d="M 59 0 L 183.54250528786605 0"/><polygon points="-24.8621506177483,0 -27.62461179749811,9.20820393249937 0,0 -27.62461179749811,-9.20820393249937" fill="#000000" transform="translate(208.40465590561433 0) rotate(0)" stroke="none"/></g><g transform="translate(140.53250147309944 -169.54022720724828) rotate(-57.29052174526401) translate(0 -13)"><g transform="translate(0 0)"><g transform="translate(-29.01171875 0)" fill="#ffffff" stroke="#000000" stroke-width="0"><rect x="0" y="0" width="58.0234375" height="26" rx="5" ry="5" stroke="none"/><text xml:space="preserve" x="5" y="17.5" stroke="none" text-anchor="left" font-family="sans-serif" font-size="16" font-weight="normal" fill="#000000">source</text></g></g></g></g><g class="relationship"><g transform="translate(-129.49999999999994 -67.49999999999997) rotate(-124.0412119314979)" stroke-width="5" stroke="#000000"><path d="M 59 0 L 187.66869477555144 0"/><polygon points="-24.8621506177483,0 -27.62461179749811,9.20820393249937 0,0 -27.62461179749811,-9.20820393249937" fill="#000000" transform="translate(212.53084539329973 0) rotate(0)" stroke="none"/></g><g transform="translate(-198.54121988714763 -169.69917417505417) rotate(55.958788068502095) translate(0 -13)"><g transform="translate(0 0)"><g transform="translate(-29.01171875 0)" fill="#ffffff" stroke="#000000" stroke-width="0"><rect x="0" y="0" width="58.0234375" height="26" rx="5" ry="5" stroke="none"/><text xml:space="preserve" x="5" y="17.5" stroke="none" text-anchor="left" font-family="sans-serif" font-size="16" font-weight="normal" fill="#000000">source</text></g></g></g></g><g class="relationship"><g transform="translate(-281.5 -67.49999999999997) rotate(-90)" stroke-width="5" stroke="#000000"><path d="M 59 0 L 141.13784938225172 0"/><polygon points="-24.8621506177483,0 -27.62461179749811,9.20820393249937 0,0 -27.62461179749811,-9.20820393249937" fill="#000000" transform="translate(166.00000000000003 0) rotate(0)" stroke="none"/></g><g transform="translate(-281.5 -167.56892469112583) rotate(90) translate(0 -13)"><g transform="translate(0 0)"><g transform="translate(-29.01171875 0)" fill="#ffffff" stroke="#000000" stroke-width="0"><rect x="0" y="0" width="58.0234375" height="26" rx="5" ry="5" stroke="none"/><text xml:space="preserve" x="5" y="17.5" stroke="none" text-anchor="left" font-family="sans-serif" font-size="16" font-weight="normal" fill="#000000">source</text></g></g></g></g><g class="relationship"><g transform="translate(-433.5000000000001 -67.49999999999997) rotate(-55.95878806850209)" stroke-width="5" stroke="#000000"><path d="M 59 0 L 187.6686947755515 0"/><polygon points="-24.8621506177483,0 -27.62461179749811,9.20820393249937 0,0 -27.62461179749811,-9.20820393249937" fill="#000000" transform="translate(212.53084539329978 0) rotate(0)" stroke="none"/></g><g transform="translate(-364.45878011285237 -169.69917417505414) rotate(-55.95878806850209) translate(0 -13)"><g transform="translate(0 0)"><g transform="translate(-29.01171875 0)" fill="#ffffff" stroke="#000000" stroke-width="0"><rect x="0" y="0" width="58.0234375" height="26" rx="5" ry="5" stroke="none"/><text xml:space="preserve" x="5" y="17.5" stroke="none" text-anchor="left" font-family="sans-serif" font-size="16" font-weight="normal" fill="#000000">source</text></g></g></g></g><g class="relationship"><g transform="translate(-433.5000000000001 -67.49999999999997) rotate(55.95878806850209)" stroke-width="5" stroke="#000000"><path d="M 59 0 L 187.6686947755515 0"/><polygon points="-24.8621506177483,0 -27.62461179749811,9.20820393249937 0,0 -27.62461179749811,-9.20820393249937" fill="#000000" transform="translate(212.53084539329978 0) rotate(0)" stroke="none"/></g><g transform="translate(-364.45878011285237 34.699174175054196) rotate(55.95878806850209) translate(0 -13)"><g transform="translate(0 0)"><g transform="translate(-25.01953125 0)" fill="#ffffff" stroke="#000000" stroke-width="0"><rect x="0" y="0" width="50.0390625" height="26" rx="5" ry="5" stroke="none"/><text xml:space="preserve" x="5" y="17.5" stroke="none" text-anchor="left" font-family="sans-serif" font-size="16" font-weight="normal" fill="#000000">about</text></g></g></g></g><g class="relationship"><g transform="translate(75.00000000000003 -67.49999999999997) rotate(147.74249970112865)" stroke-width="5" stroke="#000000"><path d="M 59 0 L 337.7030875127219 0"/><polygon points="-24.8621506177483,0 -27.62461179749811,9.20820393249937 0,0 -27.62461179749811,-9.20820393249937" fill="#000000" transform="translate(362.56523813047016 0) rotate(0)" stroke="none"/></g><g transform="translate(-92.7375621925874 38.36522158017448) rotate(327.7424997011286) translate(0 -13)"><g transform="translate(0 0)"><g transform="translate(-25.01953125 0)" fill="#ffffff" stroke="#000000" stroke-width="0"><rect x="0" y="0" width="50.0390625" height="26" rx="5" ry="5" stroke="none"/><text xml:space="preserve" x="5" y="17.5" stroke="none" text-anchor="left" font-family="sans-serif" font-size="16" font-weight="normal" fill="#000000">about</text></g></g></g></g><g class="relationship"><g transform="translate(219.5 -67.49999999999997) rotate(90)" stroke-width="5" stroke="#000000"><path d="M 59 0 L 141.13784938225172 0"/><polygon points="-24.8621506177483,0 -27.62461179749811,9.20820393249937 0,0 -27.62461179749811,-9.20820393249937" fill="#000000" transform="translate(166.00000000000003 0) rotate(0)" stroke="none"/></g><g transform="translate(219.5 32.568924691125886) rotate(270) translate(0 -13)"><g transform="translate(0 0)"><g transform="translate(-25.01953125 0)" fill="#ffffff" stroke="#000000" stroke-width="0"><rect x="0" y="0" width="50.0390625" height="26" rx="5" ry="5" stroke="none"/><text xml:space="preserve" x="5" y="17.5" stroke="none" text-anchor="left" font-family="sans-serif" font-size="16" font-weight="normal" fill="#000000">about</text></g></g></g></g><g class="relationship"><g transform="translate(-281.5 157.50000000000006) rotate(0)" stroke-width="5" stroke="#000000"><path d="M 59 0 L 417.1378493822517 0"/><polygon points="-24.8621506177483,0 -27.62461179749811,9.20820393249937 0,0 -27.62461179749811,-9.20820393249937" fill="#000000" transform="translate(442 0) rotate(0)" stroke="none"/></g><g transform="translate(-43.43107530887414 157.50000000000006) rotate(0) translate(0 -13)"><g transform="translate(0 0)"><g transform="translate(-37.90625 0)" fill="#ffffff" stroke="#000000" stroke-width="0"><rect x="0" y="0" width="75.8125" height="26" rx="5" ry="5" stroke="none"/><text xml:space="preserve" x="5" y="17.5" stroke="none" text-anchor="left" font-family="sans-serif" font-size="16" font-weight="normal" fill="#000000">relates to</text></g></g></g></g><g class="node"><g fill="#ffffff" stroke="#000000" stroke-width="4"><circle cx="-281.5" cy="-292.5" r="52"/></g><g transform="translate(-281.5 -292.5)"><g transform="scale(0.48828176171874993) translate(0 0)"><g transform="translate(0 0)"><g font-family="sans-serif" font-size="50" font-weight="normal" fill="#000000" text-anchor="middle"><text xml:space="preserve" x="0" y="13" stroke="none">Source</text><text xml:space="preserve" x="0" y="73" stroke="none" text-anchor="middle">A</text></g></g></g></g></g><g class="node"><g fill="#ffffff" stroke="#000000" stroke-width="4"><circle cx="-433.5000000000001" cy="-67.49999999999997" r="52"/></g><g transform="translate(-433.5000000000001 -67.49999999999997)"><g transform="scale(0.5000005) translate(0 0)"><g transform="translate(0 0)"><g font-family="sans-serif" font-size="50" font-weight="normal" fill="#000000" text-anchor="middle"><text xml:space="preserve" x="0" y="-17" stroke="none">chunk</text><text xml:space="preserve" x="0" y="43" stroke="none" text-anchor="middle">1</text></g></g></g></g></g><g class="node"><g fill="#ffffff" stroke="#000000" stroke-width="4"><circle cx="-281.5" cy="-67.49999999999997" r="52"/></g><g transform="translate(-281.5 -67.49999999999997)"><g transform="scale(0.5000005) translate(0 0)"><g transform="translate(0 0)"><g font-family="sans-serif" font-size="50" font-weight="normal" fill="#000000" text-anchor="middle"><text xml:space="preserve" x="0" y="-17" stroke="none">chunk</text><text xml:space="preserve" x="0" y="43" stroke="none" text-anchor="middle">2</text></g></g></g></g></g><g class="node"><g fill="#ffffff" stroke="#000000" stroke-width="4"><circle cx="-129.49999999999994" cy="-67.49999999999997" r="52"/></g><g transform="translate(-129.49999999999994 -67.49999999999997)"><g transform="scale(0.5000005) translate(0 0)"><g transform="translate(0 0)"><g font-family="sans-serif" font-size="50" font-weight="normal" fill="#000000" text-anchor="middle"><text xml:space="preserve" x="0" y="-17" stroke="none">chunk</text><text xml:space="preserve" x="0" y="43" stroke="none" text-anchor="middle">3</text></g></g></g></g></g><g class="node"><g fill="#ffffff" stroke="#000000" stroke-width="4"><circle cx="219.5" cy="-292.5" r="52"/></g><g transform="translate(219.5 -292.5)"><g transform="scale(0.48828176171874993) translate(0 0)"><g transform="translate(0 0)"><g font-family="sans-serif" font-size="50" font-weight="normal" fill="#000000" text-anchor="middle"><text xml:space="preserve" x="0" y="13" stroke="none">Source</text><text xml:space="preserve" x="0" y="73" stroke="none" text-anchor="middle">B</text></g></g></g></g></g><g class="node"><g fill="#ffffff" stroke="#000000" stroke-width="4"><circle cx="75.00000000000003" cy="-67.49999999999997" r="52"/></g><g transform="translate(75.00000000000003 -67.49999999999997)"><g transform="scale(0.5000005) translate(0 0)"><g transform="translate(0 0)"><g font-family="sans-serif" font-size="50" font-weight="normal" fill="#000000" text-anchor="middle"><text xml:space="preserve" x="0" y="-17" stroke="none">chunk</text><text xml:space="preserve" x="0" y="43" stroke="none" text-anchor="middle">4</text></g></g></g></g></g><g class="node"><g fill="#ffffff" stroke="#000000" stroke-width="4"><circle cx="219.5" cy="-67.49999999999997" r="52"/></g><g transform="translate(219.5 -67.49999999999997)"><g transform="scale(0.5000005) translate(0 0)"><g transform="translate(0 0)"><g font-family="sans-serif" font-size="50" font-weight="normal" fill="#000000" text-anchor="middle"><text xml:space="preserve" x="0" y="-17" stroke="none">chunk</text><text xml:space="preserve" x="0" y="43" stroke="none" text-anchor="middle">5</text></g></g></g></g></g><g class="node"><g fill="#ffffff" stroke="#000000" stroke-width="4"><circle cx="399" cy="-67.49999999999997" r="52"/></g><g transform="translate(399 -67.49999999999997)"><g transform="scale(0.5000005) translate(0 0)"><g transform="translate(0 0)"><g font-family="sans-serif" font-size="50" font-weight="normal" fill="#000000" text-anchor="middle"><text xml:space="preserve" x="0" y="-17" stroke="none">chunk</text><text xml:space="preserve" x="0" y="43" stroke="none" text-anchor="middle">6</text></g></g></g></g></g><g class="node"><g fill="#ffffff" stroke="#000000" stroke-width="4"><circle cx="-281.5" cy="157.50000000000006" r="52"/></g><g transform="translate(-281.5 157.50000000000006)"><g transform="scale(0.6250003749999999) translate(0 0)"><g transform="translate(0 0)"><g font-family="sans-serif" font-size="50" font-weight="normal" fill="#000000" text-anchor="middle"><text xml:space="preserve" x="0" y="13" stroke="none">topic i</text></g></g></g></g></g><g class="node"><g fill="#ffffff" stroke="#000000" stroke-width="4"><circle cx="219.5" cy="157.50000000000006" r="52"/></g><g transform="translate(219.5 157.50000000000006)"><g transform="scale(0.6250003749999999) translate(0 0)"><g transform="translate(0 0)"><g font-family="sans-serif" font-size="50" font-weight="normal" fill="#000000" text-anchor="middle"><text xml:space="preserve" x="0" y="13" stroke="none">topic j</text></g></g></g></g></g></g></svg>