<?xml version="1.0" encoding="UTF-8" standalone="no"?>
<svg
   width="107"
   height="132"
   viewBox="0 0 107 132"
   fill="none"
   version="1.1"
   id="svg44"
   sodipodi:docname="High performance.svg"
   inkscape:version="1.2.2 (732a01da63, 2022-12-09)"
   xmlns:inkscape="http://www.inkscape.org/namespaces/inkscape"
   xmlns:sodipodi="http://sodipodi.sourceforge.net/DTD/sodipodi-0.dtd"
   xmlns="http://www.w3.org/2000/svg"
   xmlns:svg="http://www.w3.org/2000/svg">
  <defs
     id="defs48" />
  <sodipodi:namedview
     id="namedview46"
     pagecolor="#ffffff"
     bordercolor="#000000"
     borderopacity="0.25"
     inkscape:showpageshadow="2"
     inkscape:pageopacity="0.0"
     inkscape:pagecheckerboard="0"
     inkscape:deskcolor="#d1d1d1"
     showgrid="false"
     inkscape:zoom="5.18125"
     inkscape:cx="67.454765"
     inkscape:cy="64.463209"
     inkscape:window-width="1920"
     inkscape:window-height="1009"
     inkscape:window-x="1912"
     inkscape:window-y="-8"
     inkscape:window-maximized="1"
     inkscape:current-layer="svg44" />
  <g
     id="g298"
     transform="translate(-22.75639,-17.057801)">
    <path
       opacity="0.15"
       fill-rule="evenodd"
       clip-rule="evenodd"
       d="m 115.301,70.0007 c -0.125,-0.0727 -0.28,-0.0729 -0.405,-6e-4 l -9.021,5.2078 c -0.04,0.0229 -0.082,0.0407 -0.122,0.0637 L 31.2795,118.266 c -0.1247,0.072 -0.2016,0.205 -0.2019,0.349 -2e-4,0.144 0.0764,0.278 0.2009,0.35 l 13.6644,7.944 c 0.1251,0.073 0.2795,0.073 0.4048,10e-4 l 9.0207,-5.208 c 0.0397,-0.023 0.0823,-0.041 0.1221,-0.064 L 128.964,78.6435 c 0.125,-0.072 0.202,-0.205 0.202,-0.3491 0,-0.144 -0.076,-0.2773 -0.201,-0.3497 z"
       fill="#0a6190"
       id="path2" />
    <path
       d="m 81.3994,140.643 15.6767,-9.05 c 7.6839,-4.436 7.6839,-11.629 0,-16.065 l -9.2932,-5.365 c -3.4036,-1.965 -5.5003,-5.596 -5.5003,-9.526 V 92.28"
       stroke="#1a1b1d"
       id="path4" />
    <path
       d="m 90.4258,79.1972 -15.066,-8.7447 c 0,-2.3038 -0.8161,-4.0551 -2.2348,-4.8712 l 15.066,8.7447 c 1.4124,0.816 2.2348,2.5673 2.2348,4.8712 z"
       fill="#0a6190"
       stroke="#0a6190"
       stroke-linejoin="round"
       id="path6" />
    <path
       d="m 79.3647,68.8853 8.8513,5.1412 c -1.3748,-0.7972 -3.2832,-0.6843 -5.3862,0.5272 l -8.8449,-5.1412 c 2.1029,-1.1927 4.005,-1.3056 5.3798,-0.5272 z"
       fill="#8fe3e8"
       stroke="#0a6190"
       stroke-linejoin="round"
       id="path8" />
    <path
       d="M 77.4941,92.5012 68.6429,87.36 c -1.356,-0.791 -2.1972,-2.4672 -2.2034,-4.859 0,-4.8022 3.3584,-10.6716 7.533,-13.0696 l 8.845,5.1412 c -4.1808,2.4169 -7.533,8.2674 -7.533,13.0697 0.0062,2.3917 0.8474,4.0742 2.2096,4.8589 z"
       fill="#0a6190"
       stroke="#0a6190"
       stroke-linejoin="round"
       id="path10" />
    <path
       d="m 82.8299,74.5726 c 4.1808,-2.4106 7.5833,-0.4709 7.5958,4.3314 0.0126,4.8023 -3.3647,10.6716 -7.533,13.0696 -4.1683,2.398 -7.5832,0.4772 -7.5958,-4.3314 -0.0125,-4.8086 3.3522,-10.6528 7.533,-13.0696 z"
       fill="#8fe3e8"
       stroke="#0a6190"
       stroke-linejoin="round"
       id="path12" />
    <path
       d="M 104.82,26.3846 89.7539,17.6399 c 3.3087,0.2312 6.5248,1.194 9.4163,2.8187 l 15.0658,8.7444 c -2.891,-1.6255 -6.107,-2.5881 -9.416,-2.8184 z"
       fill="#0a6190"
       stroke="#1a1b1d"
       stroke-linejoin="round"
       id="path14" />
    <path
       d="M 86.5712,73.8487 71.5303,65.1041 89.7727,17.6399 104.814,26.3845 Z"
       fill="#0a6190"
       stroke="#0a6190"
       stroke-linejoin="round"
       id="path16" />
    <path
       d="m 104.82,26.3845 c 3.309,0.2304 6.525,1.1929 9.416,2.8185 8.375,4.7771 13.108,15.0662 13.145,28.657 L 90.4195,79.2035 c 0,-2.3038 -0.8098,-4.0554 -2.2348,-4.8715 -0.4924,-0.2737 -1.0387,-0.4364 -1.6007,-0.4769 z"
       fill="#0a6190"
       stroke="#1a1b1d"
       stroke-linejoin="round"
       id="path18" />
    <path
       d="M 82.6041,32.4489 C 90.451,27.9228 98.0782,25.8448 104.82,26.3847 L 86.5778,73.8488 c -1.3295,-0.0496 -2.6427,0.305 -3.7665,1.0171 -1.4493,0.8811 -2.7257,2.0193 -3.7665,3.3585 L 60.4634,52.1099 C 67.1991,43.742 74.82,36.9624 82.6041,32.4489 Z"
       fill="#4c99a4"
       stroke="#1a1b1d"
       stroke-linejoin="round"
       id="path20" />
    <path
       d="M 79.0319,78.2242 63.9847,69.4797 45.4033,43.3652 60.4442,52.1098 Z"
       fill="#4c99a4"
       stroke="#1a1b1d"
       stroke-linejoin="round"
       id="path22" />
    <path
       fill-rule="evenodd"
       clip-rule="evenodd"
       d="M 67.5412,23.7121 67.5381,23.7103 C 75.3787,19.1779 83.0059,17.1064 89.7542,17.64 L 104.82,26.3847 C 98.0791,25.8449 90.4279,27.9222 82.6072,32.447 l 0.0032,0.0018 C 74.82,36.9624 67.1991,43.742 60.4508,52.1099 L 45.3848,43.3652 C 52.1196,34.9984 59.7519,28.2256 67.5412,23.7121 Z"
       fill="#4c99a4"
       id="path24" />
    <path
       d="m 67.5412,23.7121 0.2507,0.4326 c 0.1543,-0.0894 0.2493,-0.2542 0.2493,-0.4325 1e-4,-0.1784 -0.0949,-0.3432 -0.2492,-0.4326 z m -0.0031,-0.0018 -0.2502,-0.4329 c -0.1545,0.0893 -0.2497,0.2541 -0.2498,0.4326 -1e-4,0.1784 0.0949,0.3433 0.2492,0.4328 z m 22.2161,-6.0703 0.251,-0.4325 c -0.0647,-0.0375 -0.137,-0.0601 -0.2116,-0.066 z m 15.0658,8.7447 -0.04,0.4984 c 0.233,0.0186 0.448,-0.1264 0.517,-0.3493 0.07,-0.2229 -0.024,-0.4643 -0.226,-0.5816 z M 82.6072,32.447 82.3568,32.0142 c -0.1544,0.0894 -0.2495,0.2542 -0.2496,0.4326 -1e-4,0.1784 0.0949,0.3433 0.2492,0.4328 z m 0.0032,0.0018 0.2506,0.4327 c 0.1543,-0.0894 0.2493,-0.2542 0.2494,-0.4326 0,-0.1783 -0.095,-0.3431 -0.2492,-0.4326 z m -22.1596,19.6611 -0.251,0.4324 c 0.2134,0.1239 0.4853,0.0735 0.6402,-0.1185 z m -15.066,-8.7447 -0.3895,-0.3135 c -0.0915,0.1136 -0.1288,0.2614 -0.1021,0.4048 0.0266,0.1433 0.1145,0.2679 0.2406,0.3411 z m 22.4072,-20.0856 -0.0031,-0.0019 -0.5016,0.8651 0.0032,0.0019 z m -0.0037,0.8636 c 7.7812,-4.4981 15.3074,-6.5281 21.9265,-6.0048 l 0.0788,-0.9969 C 82.916,16.5977 75.1879,18.7107 67.2879,23.2774 Z m 21.7149,-6.0708 15.0658,8.7447 0.502,-0.8649 -15.0658,-8.7447 z M 104.86,25.8863 C 97.9895,25.3361 90.2371,27.455 82.3568,32.0142 l 0.5008,0.8656 c 7.7612,-4.4904 15.3111,-6.5262 21.9224,-5.9967 z m -22.5036,6.9933 0.0031,0.0018 0.5017,-0.8651 -0.0032,-0.0018 z m 0.0033,-0.8634 C 74.5065,36.5661 66.8406,43.39 60.0616,51.796 L 60.84,52.4238 C 67.5576,44.094 75.1335,37.3586 82.861,32.8815 Z m -21.6579,19.6612 -15.066,-8.7446 -0.502,0.8648 15.066,8.7447 z M 45.7743,43.6787 C 52.4779,35.3507 60.0651,28.622 67.7919,24.1447 L 67.2906,23.2795 C 59.4388,27.8292 51.7613,34.6461 44.9953,43.0517 Z"
       fill="#1a1b1d"
       id="path26" />
    <path
       d="m 60.4448,52.1099 18.5876,26.1144 c -0.5786,0.7206 -1.1012,1.4843 -1.563,2.2848 -1.3549,2.2494 -2.1113,4.8083 -2.1972,7.4328 L 38.3103,109.285 c -0.0377,-13.5715 4.614,-29.2968 12.938,-43.7162 2.719,-4.7135 5.7934,-9.2128 9.1965,-13.4589 z"
       fill="#8fe3e8"
       stroke="#1a1b1d"
       stroke-linejoin="round"
       id="path28" />
    <path
       d="m 38.3227,109.279 -15.066,-8.738 c -0.044,-13.5785 4.6139,-29.2974 12.9379,-43.7168 2.7193,-4.7134 5.7937,-9.2127 9.1965,-13.459 l 15.066,8.7447 C 57.0544,56.354 53.98,60.8514 51.2606,65.5627 42.9241,79.9821 38.2724,95.7071 38.3227,109.279 Z"
       fill="#8fe3e8"
       stroke="#1a1b1d"
       stroke-linejoin="round"
       id="path30" />
    <path
       fill-rule="evenodd"
       clip-rule="evenodd"
       d="m 81.8121,78.8954 c -1.7819,1.7109 -3.0597,4.3867 -3.0538,6.669 0.0075,2.8495 2.0312,3.9878 4.5012,2.5667 1.1901,-0.6846 2.2713,-1.8466 3.0715,-3.1854 l 20.591,-31.5253 z"
       fill="#ffb422"
       id="path32" />
    <path
       d="m 78.7583,85.5644 -0.5,0.0013 z m 3.0538,-6.669 0.3464,0.3608 0.0097,-0.0098 z m 1.4474,9.2357 0.2494,0.4334 v 0 z m 3.0715,-3.1854 -0.4186,-0.2735 c -0.0037,0.0056 -0.0072,0.0112 -0.0106,0.0169 z m 20.591,-31.5253 0.419,0.2734 c 0.14,-0.215 0.095,-0.5015 -0.105,-0.6627 -0.2,-0.1612 -0.49,-0.1446 -0.67,0.0383 z M 79.2583,85.5631 c -0.0055,-2.123 1.1991,-4.6739 2.9,-6.307 l -0.6925,-0.7213 c -1.8628,1.7885 -3.2139,4.5894 -3.2075,7.0309 z m 3.7519,2.1346 c -1.1441,0.6582 -2.0701,0.6618 -2.6779,0.3167 -0.6057,-0.3439 -1.0705,-1.1341 -1.074,-2.4513 l -1,0.0026 c 0.004,1.5322 0.5548,2.736 1.5803,3.3183 1.0234,0.5811 2.3443,0.4434 3.6703,-0.3195 z m 2.8916,-3.0086 c -0.7681,1.2851 -1.7932,2.3767 -2.8916,3.0086 l 0.4987,0.8668 c 1.2816,-0.7373 2.4189,-1.9698 3.2513,-3.3623 z m 0.8478,0.53 20.5914,-31.5253 -0.838,-0.5468 -20.5906,31.5252 z m 19.8164,-32.1497 -25.11,25.475 0.7122,0.702 25.1098,-25.475 z"
       fill="#1a1b1d"
       id="path34" />
    <path
       d="m 82.853,81.3945 c 1.0937,-0.6306 1.9837,-0.1231 1.987,1.1331 0.0033,1.2563 -0.8802,2.7917 -1.9706,3.4191 -1.0904,0.6273 -1.9838,0.1248 -1.9871,-1.1331 -0.0033,-1.258 0.877,-2.7868 1.9707,-3.4191 z"
       fill="#f5f6f6"
       stroke="#1a1b1d"
       stroke-linejoin="round"
       id="path36" />
    <path
       d="m 88.7815,126.75 c -4.7957,-2.769 -12.5712,-2.769 -17.367,0 -2.2489,1.298 -3.4432,2.975 -3.583,4.675 l 6e-4,9.747 c 0.14,1.7 1.3344,3.376 3.5829,4.674 l 0.328,0.19 c 4.7958,2.768 12.5713,2.768 17.3671,0 2.3931,-1.382 3.592,-3.192 3.5968,-5.003 l -6e-4,-9.098 c -0.0077,-1.809 -1.2066,-3.616 -3.5968,-4.996 z"
       fill="#80bb53"
       stroke="#1a1b1d"
       id="path38" />
    <path
       d="m 71.4162,126.653 c 4.7958,-2.768 12.5713,-2.768 17.367,0 l 0.328,0.19 c 4.7958,2.768 4.7958,7.257 0,10.026 -4.7957,2.768 -12.5712,2.768 -17.367,0 l -0.328,-0.19 c -4.7958,-2.768 -4.7958,-7.257 0,-10.026 z"
       fill="#f5f6f6"
       stroke="#1a1b1d"
       id="path40" />
    <path
       d="m 84.2197,125.001 -3.9054,6.402"
       stroke="#1a1b1d"
       stroke-linecap="round"
       id="path42" />
  </g>
</svg>
