<svg width="437" height="233" viewBox="0 0 437 233" fill="none" xmlns="http://www.w3.org/2000/svg">
<g opacity="0.15" clip-path="url(#clip0_981_43087)">
<g clip-path="url(#clip1_981_43087)">
<path fill-rule="evenodd" clip-rule="evenodd" d="M678.034 133.043L731.276 163.797L678.04 194.547L624.797 163.793L678.034 133.043ZM678.034 132.286L624.788 101.531L678.352 70.5918L677.697 70.2134L624.133 101.153L570.896 70.4018L624.458 39.4636L623.802 39.0853L570.24 70.0234L517.006 39.2743L570.569 8.33548L569.914 7.95714L516.351 38.896L463.114 8.14548L516.676 -22.7927L516.021 -23.171L462.459 7.76712L409.22 -22.9843L462.786 -53.9245L462.13 -54.3028L408.565 -23.3626L355.327 -54.1135L408.891 -85.0526L408.236 -85.431L354.672 -54.4918L301.423 -85.2494L354.986 -116.188L354.331 -116.566L300.768 -85.6278L247.531 -116.378L301.097 -147.318L300.442 -147.696L246.876 -116.756L193.311 -147.696L192.656 -147.318L246.221 -116.378L192.985 -85.6277L139.422 -116.566L138.767 -116.188L192.33 -85.2494L139.081 -54.4918L85.517 -85.431L84.862 -85.0526L138.426 -54.1135L85.1847 -23.3608L31.6223 -54.2992L30.9673 -53.9208L84.5297 -22.9824L31.2942 7.76715L-22.2678 -23.171L-22.9229 -22.7927L30.6392 8.14551L-22.5979 38.896L-76.1611 7.95712L-76.8161 8.33548L-23.2529 39.2743L-76.4877 70.0235L-130.05 39.0853L-130.705 39.4636L-77.1427 70.4018L-130.38 101.152L-183.943 70.2134L-184.598 70.5918L-131.035 101.531L-184.281 132.286L-237.845 101.347L-238.5 101.725L-184.936 132.665L-238.178 163.418L-291.74 132.481L-292.395 132.859L-238.833 163.797L-292.392 194.733L-291.737 195.111L-238.178 164.175L-184.942 194.925L-238.504 225.863L-237.849 226.241L-184.287 195.303L-131.038 226.061L-184.599 256.999L-183.944 257.377L-130.383 226.439L-77.145 257.19L-130.704 288.127L-130.049 288.505L-76.49 257.569L-23.2513 288.32L-76.8139 319.258L-76.1589 319.637L-22.5963 288.698L30.6408 319.449L-22.9206 350.387L-22.2656 350.765L31.2958 319.827L84.5306 350.576L30.968 381.515L31.6231 381.893L85.1856 350.955L138.423 381.706L84.8627 412.643L85.5177 413.021L139.078 382.084L192.324 412.839L138.763 443.777L139.418 444.155L192.979 413.218L246.221 443.971L192.658 474.91L193.313 475.289L246.876 444.35L300.44 475.289L301.095 474.91L247.531 443.971L300.774 413.218L354.335 444.155L354.99 443.777L301.429 412.839L354.675 382.083L408.237 413.021L408.892 412.643L355.33 381.705L408.567 350.955L462.13 381.893L462.785 381.515L409.222 350.576L462.457 319.827L516.018 350.765L516.673 350.387L463.112 319.449L516.349 288.698L569.912 319.637L570.567 319.258L517.004 288.32L570.24 257.57L623.802 288.509L624.457 288.13L570.895 257.192L624.136 226.439L677.696 257.377L678.351 256.999L624.791 226.061L678.04 195.303L731.602 226.241L732.256 225.863L678.695 194.925L731.931 164.175L785.49 195.111L786.145 194.733L732.586 163.797L786.147 132.859L785.492 132.481L731.931 163.418L678.689 132.665L732.253 101.725L731.598 101.347L678.034 132.286ZM-237.523 163.797L-184.287 194.547L-131.045 163.793L-184.281 133.043L-237.523 163.797ZM-183.626 132.665L-130.39 163.415L-77.1433 132.659L-130.38 101.909L-183.626 132.665ZM-129.725 101.531L-76.4883 132.281L-23.2513 101.53L-76.4877 70.7802L-129.725 101.531ZM-75.8327 70.4018L-22.5963 101.152L30.6384 70.4028L-22.5979 39.6527L-75.8327 70.4018ZM-21.9429 39.2743L31.2935 70.0244L84.5305 39.2739L31.2942 8.52383L-21.9429 39.2743ZM31.9492 8.14548L85.1856 38.8956L138.421 8.14598L85.1847 -22.6041L31.9492 8.14548ZM85.8397 -22.9824L139.076 7.76764L192.317 -22.9851L139.081 -53.7352L85.8397 -22.9824ZM139.736 -54.1135L192.972 -23.3634L246.221 -54.121L192.985 -84.8711L139.736 -54.1135ZM193.64 -85.2494L246.876 -54.4993L300.113 -85.2494L246.876 -115.999L193.64 -85.2494ZM247.531 -54.121L300.768 -84.8711L354.017 -54.1135L300.781 -23.3634L247.531 -54.121ZM193.627 -22.9851L246.876 -53.7426L300.126 -22.9851L246.876 7.77248L193.627 -22.9851ZM139.731 8.146L192.972 -22.6067L246.221 8.15085L192.98 38.9035L139.731 8.146ZM85.8406 39.2739L139.076 8.52434L192.325 39.2819L139.09 70.0315L85.8406 39.2739ZM31.9485 70.4028L85.1855 39.6523L138.435 70.4098L85.1978 101.16L31.9485 70.4028ZM-21.9413 101.53L31.2935 70.7811L84.5428 101.539L31.308 132.288L-21.9413 101.53ZM-75.8333 132.659L-22.5963 101.909L30.653 132.666L-22.584 163.417L-75.8333 132.659ZM-129.735 163.793L-76.4883 133.037L-23.239 163.795L-76.4852 194.551L-129.735 163.793ZM-183.632 194.925L-130.39 164.171L-77.1402 194.929L-130.383 225.683L-183.632 194.925ZM-129.728 226.061L-76.49 256.812L-23.2474 226.058L-76.4852 195.307L-129.728 226.061ZM-75.8302 194.929L-22.5924 225.68L30.6538 194.924L-22.584 164.173L-75.8302 194.929ZM-21.9289 163.795L31.3088 194.546L84.5458 163.795L31.308 133.044L-21.9289 163.795ZM31.9631 132.666L85.2008 163.417L138.436 132.668L85.1978 101.917L31.9631 132.666ZM85.8528 101.539L139.091 132.29L192.328 101.539L139.09 70.7882L85.8528 101.539ZM139.745 70.4098L192.983 101.161L246.218 70.4111L192.98 39.6602L139.745 70.4098ZM193.635 39.2819L246.873 70.0328L300.114 39.2801L246.876 8.52921L193.635 39.2819ZM247.531 8.15082L300.769 38.9017L354.018 8.14417L300.781 -22.6067L247.531 8.15082ZM301.436 -22.9851L354.674 7.76581L407.91 -22.9843L354.672 -53.7351L301.436 -22.9851ZM355.329 8.14417L408.565 -22.6059L461.804 8.14546L408.567 38.8956L355.329 8.14417ZM301.424 39.28L354.674 8.52252L407.912 39.2739L354.663 70.0314L301.424 39.28ZM247.528 70.4111L300.769 39.6584L354.008 70.4098L300.767 101.163L247.528 70.4111ZM193.638 101.539L246.873 70.7895L300.112 101.541L246.876 132.29L193.638 101.539ZM139.746 132.668L192.983 101.917L246.221 132.669L192.984 163.419L139.746 132.668ZM85.8559 163.795L139.091 133.046L192.329 163.798L139.095 194.547L85.8559 163.795ZM31.9638 194.924L85.2008 164.174L138.439 194.925L85.2025 225.676L31.9638 194.924ZM-21.9374 226.058L31.3088 195.302L84.5475 226.054L31.3013 256.81L-21.9374 226.058ZM-75.8349 257.19L-22.5924 226.437L30.6462 257.188L-22.5963 287.942L-75.8349 257.19ZM-21.9413 288.32L31.2958 319.07L84.5383 288.317L31.3013 257.566L-21.9413 288.32ZM31.9563 257.188L85.1934 287.938L138.44 257.183L85.2025 226.432L31.9563 257.188ZM85.8575 226.054L139.095 256.804L192.332 226.054L139.095 195.303L85.8575 226.054ZM139.75 194.925L192.987 225.676L246.221 194.926L192.984 164.176L139.75 194.925ZM193.639 163.798L246.876 194.548L300.113 163.798L246.876 133.047L193.639 163.798ZM247.531 132.669L300.768 163.419L354.004 132.67L300.767 101.919L247.531 132.669ZM301.422 101.541L354.659 132.291L407.9 101.539L354.663 70.7882L301.422 101.541ZM355.318 70.4098L408.555 101.16L461.804 70.4027L408.567 39.6523L355.318 70.4098ZM409.222 39.2739L462.459 70.0244L515.696 39.2743L462.459 8.52382L409.222 39.2739ZM463.114 70.4027L516.351 39.6526L569.586 70.4018L516.349 101.152L463.114 70.4027ZM409.21 101.539L462.459 70.7811L515.694 101.53L462.445 132.288L409.21 101.539ZM355.314 132.67L408.555 101.917L461.79 132.666L408.549 163.419L355.314 132.67ZM301.423 163.798L354.659 133.048L407.894 163.797L354.658 194.547L301.423 163.798ZM247.531 194.926L300.768 164.176L354.003 194.925L300.766 225.676L247.531 194.926ZM193.642 226.054L246.876 195.305L300.111 226.054L246.876 256.803L193.642 226.054ZM139.75 257.183L192.987 226.432L246.221 257.181L192.984 287.932L139.75 257.183ZM85.8484 288.317L139.095 257.561L192.329 288.31L139.083 319.066L85.8484 288.317ZM31.9508 319.449L85.1934 288.695L138.428 319.444L85.1856 350.198L31.9508 319.449ZM85.8406 350.576L139.078 381.327L192.321 350.574L139.083 319.823L85.8406 350.576ZM139.738 319.444L192.976 350.195L246.222 319.439L192.984 288.689L139.738 319.444ZM193.639 288.31L246.877 319.061L300.114 288.311L246.876 257.56L193.639 288.31ZM247.531 257.181L300.769 287.932L354.004 257.183L300.766 226.432L247.531 257.181ZM301.421 226.054L354.659 256.805L407.896 226.054L354.658 195.303L301.421 226.054ZM355.313 194.925L408.551 225.676L461.787 194.926L408.549 164.176L355.313 194.925ZM409.204 163.797L462.442 194.548L515.682 163.795L462.445 133.044L409.204 163.797ZM463.1 132.666L516.338 163.417L569.587 132.659L516.349 101.909L463.1 132.666ZM517.004 101.53L570.242 132.281L623.478 101.531L570.241 70.7801L517.004 101.53ZM570.897 132.659L624.133 101.909L677.379 132.665L624.142 163.415L570.897 132.659ZM516.993 163.795L570.242 133.038L623.487 163.793L570.238 194.551L516.993 163.795ZM463.097 194.926L516.338 164.174L569.583 194.929L516.342 225.682L463.097 194.926ZM409.206 226.054L462.442 195.305L515.687 226.06L462.452 256.81L409.206 226.054ZM355.314 257.183L408.551 226.433L461.797 257.188L408.559 287.939L355.314 257.183ZM301.424 288.311L354.659 257.562L407.904 288.317L354.67 319.066L301.424 288.311ZM247.532 319.439L300.769 288.689L354.015 319.444L300.778 350.195L247.532 319.439ZM193.631 350.574L246.877 319.818L300.123 350.573L246.876 381.329L193.631 350.574ZM139.733 381.706L192.976 350.952L246.221 381.707L192.979 412.461L139.733 381.706ZM193.634 412.839L246.876 443.593L300.119 412.839L246.876 382.086L193.634 412.839ZM247.531 381.707L300.774 412.461L354.02 381.705L300.778 350.952L247.531 381.707ZM301.433 350.573L354.675 381.327L407.912 350.576L354.67 319.823L301.433 350.573ZM355.325 319.444L408.567 350.198L461.802 319.449L408.559 288.695L355.325 319.444ZM409.214 288.317L462.457 319.071L515.694 288.32L462.452 257.566L409.214 288.317ZM463.107 257.188L516.349 287.942L569.585 257.192L516.342 226.438L463.107 257.188ZM516.997 226.06L570.24 256.814L623.481 226.061L570.238 195.307L516.997 226.06ZM570.893 194.929L624.136 225.683L677.385 194.925L624.142 164.172L570.893 194.929Z" fill="url(#paint0_radial_981_43087)"/>
</g>
</g>
<path d="M151.932 108.963L158.943 104.915C160.978 103.741 164.277 103.741 166.311 104.915L180.921 113.349C182.955 114.524 182.955 116.428 180.921 117.603L166.412 125.979C164.377 127.154 164.377 129.058 166.412 130.233L189.537 143.583C191.572 144.758 194.871 144.758 196.906 143.583L216.883 132.05" stroke="#6F757E" stroke-width="0.756543" stroke-linejoin="round"/>
<path d="M288.494 171.896L275.114 179.621C273.079 180.795 273.079 182.7 275.114 183.874L308.541 203.172L325.255 212.821L333.612 217.645C335.647 218.82 335.647 220.725 333.612 221.899L288.853 247.739" stroke="#6F757E" stroke-width="0.756543" stroke-linejoin="round"/>
<path d="M249.19 148.899L195.846 179.694C194.829 180.282 194.829 181.234 195.846 181.821L213.999 192.301C215.017 192.888 215.017 193.841 213.999 194.428L171.166 219.156" stroke="#6F757E" stroke-width="0.756543" stroke-linejoin="round"/>
<path d="M176.547 220.32C178.798 219.075 178.807 217.057 176.574 215.812C174.341 214.567 170.707 214.567 168.457 215.812C166.206 217.057 166.197 219.075 168.43 220.32C170.663 221.573 174.296 221.573 176.547 220.32Z" fill="#FFC450" stroke="#6F757E" stroke-width="0.756543" stroke-linejoin="round"/>
<path d="M152.553 112.462C154.804 111.217 154.813 109.199 152.58 107.954C150.346 106.709 146.713 106.709 144.462 107.954C142.212 109.199 142.203 111.217 144.436 112.462C146.669 113.715 150.302 113.715 152.553 112.462Z" fill="#90CB62" stroke="#6F757E" stroke-width="0.756543" stroke-linejoin="round"/>
<path d="M292.201 174.144C294.452 172.899 294.461 170.881 292.228 169.636C289.995 168.391 286.362 168.391 284.111 169.636C281.86 170.881 281.851 172.899 284.084 174.144C286.317 175.397 289.951 175.397 292.201 174.144Z" fill="#90CB62" stroke="#6F757E" stroke-width="0.756543" stroke-linejoin="round"/>
<path d="M252.313 151.405C254.564 150.161 254.572 148.142 252.339 146.898C250.106 145.653 246.473 145.653 244.222 146.898C241.971 148.142 241.962 150.161 244.196 151.405C246.429 152.659 250.062 152.659 252.313 151.405Z" fill="#FFC450" stroke="#6F757E" stroke-width="0.756543" stroke-linejoin="round"/>
<path d="M220.928 133.616C223.179 132.371 223.188 130.352 220.955 129.108C218.721 127.863 215.088 127.863 212.837 129.108C210.587 130.352 210.578 132.371 212.811 133.616C215.044 134.869 218.677 134.869 220.928 133.616Z" fill="#5CC3C9" stroke="#6F757E" stroke-width="0.756543" stroke-linejoin="round"/>
<path opacity="0.2" d="M454.234 169.07C451.973 178.611 444.567 187.26 432.819 194.08C403.231 211.28 354.94 211.28 325.154 194.08L190.912 116.598C161.135 99.408 160.964 71.4335 190.56 54.2343C220.157 37.035 268.439 37.044 298.216 54.2343L311.586 61.9465C350.588 47.2339 402.276 50.3059 435.594 69.5413C452.577 79.3437 462.865 92.3446 464.595 106.156C466.244 119.391 459.955 132.527 446.865 143.276C453.712 151.204 456.315 160.313 454.234 169.07Z" fill="#30839D"/>
<path d="M454.234 125.485C451.973 135.026 444.567 143.675 432.819 150.495C403.231 167.694 354.94 167.694 325.154 150.495L190.912 73.0129C161.135 55.8227 160.964 27.8483 190.56 10.649C220.157 -6.55026 268.439 -6.54125 298.216 10.649L311.586 18.3612C350.588 3.64862 402.276 6.72059 435.594 25.956C452.577 35.7584 462.865 48.7593 464.595 62.571C466.244 75.8061 459.955 88.9422 446.865 99.6906C453.712 107.619 456.315 116.728 454.234 125.485Z" fill="#8FE3E8" stroke="#1A1B1D" stroke-width="0.756543" stroke-linejoin="round"/>
<path d="M310.78 23.7797L310.698 53.1509L293.094 42.9881L293.175 13.6169L310.78 23.7797Z" fill="#0A6191" stroke="#1A1B1D" stroke-width="0.756543" stroke-linejoin="round"/>
<path d="M175.588 71.0221L175.669 41.6513C175.669 31.4885 182.363 21.3436 195.67 13.6134C222.447 -1.9461 266.179 -1.95511 293.136 13.6134L293.054 42.9935C266.089 27.425 222.365 27.425 195.58 42.9935C182.309 50.7057 175.651 60.8683 175.588 71.0221Z" fill="#0A6191" stroke="#1A1B1D" stroke-width="0.756543" stroke-linejoin="round"/>
<path fill-rule="evenodd" clip-rule="evenodd" d="M457.582 96.0406L457.663 66.8167C457.67 65.5006 457.591 64.1854 457.428 62.8794C455.825 50.0768 446.274 38.0223 430.544 28.9317C398.974 10.7053 349.638 8.12832 313.239 22.7869L313.239 22.7871L310.771 23.7781L310.689 53.1493L313.149 52.1582L313.149 52.1581C349.557 37.4996 398.92 40.0854 430.453 58.3117C446.193 67.3934 455.743 79.4483 457.347 92.2599C457.504 93.5141 457.582 94.7768 457.582 96.0406Z" fill="#0A6191"/>
<path d="M457.663 66.8167L457.284 66.8147V66.8157L457.663 66.8167ZM457.582 96.0406L457.204 96.0405C457.204 96.2492 457.373 96.4185 457.581 96.4188C457.79 96.4191 457.96 96.2503 457.96 96.0416L457.582 96.0406ZM457.428 62.8794L457.804 62.8326L457.804 62.8324L457.428 62.8794ZM430.544 28.9317L430.733 28.6042L430.733 28.6041L430.544 28.9317ZM313.239 22.7869L313.098 22.436C312.966 22.4889 312.876 22.6109 312.863 22.752L313.239 22.7869ZM313.239 22.7871L313.38 23.1381C313.512 23.0852 313.603 22.9632 313.616 22.822L313.239 22.7871ZM310.771 23.7781L310.63 23.4271C310.487 23.4845 310.393 23.6229 310.392 23.7771L310.771 23.7781ZM310.689 53.1493L310.311 53.1482C310.311 53.2741 310.373 53.3919 310.477 53.4625C310.582 53.5331 310.714 53.5472 310.831 53.5001L310.689 53.1493ZM313.149 52.1582L313.29 52.5091C313.419 52.4574 313.509 52.3397 313.525 52.2023L313.149 52.1582ZM313.149 52.1581L313.008 51.8072C312.879 51.8589 312.789 51.9766 312.773 52.1141L313.149 52.1581ZM430.453 58.3117L430.264 58.6392L430.264 58.6394L430.453 58.3117ZM457.347 92.2599L457.723 92.2131L457.722 92.213L457.347 92.2599ZM457.284 66.8157L457.204 96.0395L457.96 96.0416L458.041 66.8178L457.284 66.8157ZM457.053 62.9263C457.214 64.216 457.291 65.515 457.284 66.8147L458.041 66.8187C458.048 65.4863 457.969 64.1548 457.804 62.8326L457.053 62.9263ZM430.354 29.2592C446.027 38.3163 455.469 50.2843 457.053 62.9265L457.804 62.8324C456.18 49.8694 446.522 37.7284 430.733 28.6042L430.354 29.2592ZM313.38 23.1378C349.681 8.51879 398.894 11.0961 430.355 29.2593L430.733 28.6041C399.054 10.3146 349.595 7.73785 313.098 22.436L313.38 23.1378ZM313.616 22.822L313.616 22.8218L312.863 22.752L312.863 22.7521L313.616 22.822ZM310.911 24.1291L313.38 23.1381L313.098 22.436L310.63 23.4271L310.911 24.1291ZM311.068 53.1503L311.149 23.7791L310.392 23.7771L310.311 53.1482L311.068 53.1503ZM313.008 51.8074L310.548 52.7984L310.831 53.5001L313.29 52.5091L313.008 51.8074ZM312.773 52.1141L312.773 52.1142L313.525 52.2023L313.525 52.2021L312.773 52.1141ZM430.643 57.9842C399 39.6947 349.514 37.1091 313.008 51.8072L313.29 52.509C349.6 37.89 398.84 40.4762 430.264 58.6392L430.643 57.9842ZM457.722 92.213C456.099 79.2409 446.44 67.0994 430.643 57.9841L430.264 58.6394C445.946 67.6874 455.388 79.6558 456.972 92.3069L457.722 92.213ZM457.96 96.0406C457.96 94.7612 457.881 93.4828 457.723 92.2131L456.972 92.3068C457.126 93.5454 457.204 94.7924 457.204 96.0405L457.96 96.0406Z" fill="#1A1B1D"/>
<path d="M454.234 125.485C451.973 135.026 444.567 143.675 432.819 150.495C403.231 167.694 354.94 167.694 325.154 150.495L190.912 73.013C161.135 55.8227 160.964 27.8483 190.56 10.649C220.157 -6.55026 268.439 -6.54125 298.216 10.649L311.586 18.3612C350.588 3.64862 402.276 6.7206 435.594 25.956C452.577 35.7584 462.865 48.7594 464.595 62.571C466.244 75.8061 459.955 88.9422 446.865 99.6906C453.712 107.619 456.315 116.728 454.234 125.485ZM330.236 147.55C357.201 163.109 400.925 163.109 427.71 147.55C438.341 141.369 445.045 133.539 447.09 124.908C449.072 116.556 446.369 107.889 439.504 100.492L438.422 99.3211L439.783 98.2578C452.748 88.113 459.009 75.5451 457.433 62.8596C455.856 50.1741 446.279 38.0021 430.548 28.9114C399.015 10.6851 349.642 8.10848 313.244 22.767L310.775 23.7577L293.17 13.5951C266.214 -1.97339 222.481 -1.96438 195.705 13.5951C168.928 29.1547 169.054 54.4895 196.02 70.058L330.263 147.54" fill="white"/>
<path d="M330.236 147.55C357.201 163.109 400.925 163.109 427.71 147.55C438.341 141.369 445.045 133.539 447.09 124.908C449.072 116.556 446.369 107.889 439.504 100.492L438.422 99.3211L439.783 98.2578C452.748 88.113 459.009 75.5451 457.433 62.8596C455.856 50.1741 446.279 38.0021 430.548 28.9114C399.015 10.6851 349.642 8.10848 313.244 22.767L310.775 23.7577L293.17 13.5951C266.214 -1.97339 222.481 -1.96438 195.705 13.5951C168.928 29.1547 169.054 54.4895 196.02 70.058L330.263 147.54M454.234 125.485C451.973 135.026 444.567 143.675 432.819 150.495C403.231 167.694 354.94 167.694 325.154 150.495L190.912 73.013C161.135 55.8227 160.964 27.8483 190.56 10.649C220.157 -6.55026 268.439 -6.54125 298.216 10.649L311.586 18.3612C350.588 3.64862 402.276 6.7206 435.594 25.956C452.577 35.7584 462.865 48.7594 464.595 62.571C466.244 75.8061 459.955 88.9422 446.865 99.6906C453.712 107.619 456.315 116.728 454.234 125.485Z" stroke="#1A1B1D" stroke-width="0.756543" stroke-linejoin="round"/>
<path opacity="0.2" fill-rule="evenodd" clip-rule="evenodd" d="M378.272 62.3153C378.68 63.6538 379.78 64.9356 381.571 65.9696C383.858 67.2902 386.847 67.9598 389.845 67.9783L397.97 132.388C396.177 132.32 394.368 132.427 392.626 132.708L390.161 129.625L390.13 129.587L390.091 129.558L354.378 103.092C358.669 100.197 358.442 95.8371 353.696 93.0975C350.322 91.1496 345.529 90.5205 341.238 91.21L318.026 67.8345C320.412 66.2438 321.698 64.2936 321.884 62.3153L378.272 62.3153ZM390.606 67.969C393.433 67.8825 396.216 67.216 398.375 65.9696C403.015 63.2907 403.015 58.9473 398.375 56.2684C393.735 53.5896 386.211 53.5896 381.571 56.2684C379.057 57.7198 377.905 59.6597 378.115 61.5588L321.902 61.5588C321.794 59.287 320.239 57.0339 317.235 55.3001C311.005 51.7035 300.904 51.7035 294.674 55.3001C290.648 57.6245 289.224 60.8822 290.402 63.8669L248.953 69.7166C248.568 69.356 248.104 69.0153 247.563 68.7027C243.812 66.5375 237.731 66.5375 233.981 68.7027C230.23 70.8679 230.23 74.3783 233.981 76.5435C237.291 78.4543 242.415 78.6788 246.152 77.2171L279.101 114.436C277.482 114.877 275.965 115.483 274.627 116.256C268.397 119.853 268.397 125.684 274.627 129.28C280.857 132.877 290.958 132.877 297.188 129.28C297.611 129.036 298.006 128.781 298.371 128.518L335.522 142.339C334.335 144.303 335.101 146.573 337.82 148.142C341.604 150.327 347.741 150.327 351.525 148.142C353.275 147.132 354.216 145.832 354.348 144.51L381.233 143.237C381.794 145.015 383.265 146.716 385.646 148.09C391.876 151.687 401.977 151.687 408.207 148.09C414.437 144.493 414.437 138.662 408.207 135.066C405.554 133.534 402.198 132.654 398.738 132.427L390.606 67.969ZM391.778 132.859C389.537 133.299 387.433 134.034 385.646 135.066C382.13 137.096 380.598 139.838 381.051 142.488L354.335 143.753C354.163 142.469 353.227 141.212 351.525 140.23C347.741 138.045 341.604 138.045 337.82 140.23C337.052 140.673 336.441 141.172 335.984 141.704L299.073 127.972C302.189 125.35 302.692 122.006 300.583 119.151L334.917 103.059C335.148 103.216 335.391 103.369 335.648 103.517C340.629 106.393 348.703 106.394 353.688 103.522L389.601 130.136L391.778 132.859ZM340.336 91.3759C338.625 91.7319 337.019 92.3058 335.648 93.0975C331.192 95.6697 330.72 99.6705 334.23 102.546L300.09 118.546C299.353 117.721 298.385 116.947 297.188 116.256C295.067 115.032 292.498 114.224 289.786 113.833L304.156 70.9637C308.816 71.2671 313.662 70.3874 317.235 68.3246C317.28 68.2987 317.325 68.2727 317.369 68.2466L340.336 91.3759ZM290.738 64.5835C291.483 65.9521 292.796 67.2399 294.674 68.3246C297.132 69.7433 300.192 70.6024 303.379 70.9019L289.021 113.735C285.992 113.388 282.823 113.553 279.927 114.228L246.882 76.9009C247.116 76.7892 247.344 76.67 247.563 76.5435C250.443 74.8808 251.111 72.4247 249.568 70.3938L290.738 64.5835Z" fill="#30839D"/>
<path d="M285.975 105.413L243.756 57.0037L238.418 50.5204L306.895 43.2825M285.975 105.413L344.517 79.5767M285.975 105.413L306.895 43.2825M285.975 105.413L343.829 128.144L400.237 121.784M344.517 79.5767L400.237 121.784M344.517 79.5767L306.895 43.2825M344.517 79.5767L390.971 41.3008M400.237 121.784L390.971 41.3008M390.971 41.3008L306.895 43.2825" stroke="#0A6191" stroke-width="0.756543"/>
<circle cx="12.7624" cy="12.7624" r="12.7624" transform="matrix(-1 8.74228e-08 8.74228e-08 1 253.033 37.3087)" fill="white"/>
<path fill-rule="evenodd" clip-rule="evenodd" d="M227.625 51.813C229.964 54.7233 233.554 56.586 237.578 56.586C244.627 56.586 250.341 50.8721 250.341 43.8236C250.341 43.2351 250.301 42.656 250.224 42.0887C251.981 44.2756 253.033 47.0541 253.033 50.0782C253.033 57.1267 247.319 62.8406 240.271 62.8406C233.811 62.8406 228.472 58.0409 227.625 51.813Z" fill="#8FE3E8"/>
<circle cx="12.7624" cy="12.7624" r="12.3842" transform="matrix(-1 8.74228e-08 8.74228e-08 1 253.033 37.3087)" stroke="#0A6191" stroke-width="0.756543"/>
<circle cx="15.953" cy="15.953" r="15.953" transform="matrix(-1 8.74228e-08 8.74228e-08 1 301.799 86.0712)" fill="#90CB62"/>
<path fill-rule="evenodd" clip-rule="evenodd" d="M270.041 104.209C272.966 107.842 277.449 110.167 282.476 110.167C291.286 110.167 298.429 103.025 298.429 94.2142C298.429 93.4723 298.378 92.7422 298.28 92.0272C300.481 94.7621 301.799 98.2384 301.799 102.022C301.799 110.833 294.656 117.975 285.846 117.975C277.777 117.975 271.107 111.985 270.041 104.209Z" fill="#4D8622"/>
<circle cx="15.953" cy="15.953" r="15.5748" transform="matrix(-1 8.74228e-08 8.74228e-08 1 301.799 86.0712)" stroke="#0A6191" stroke-width="0.756543"/>
<circle cx="12.7624" cy="12.7624" r="12.7624" transform="matrix(-1 8.74228e-08 8.74228e-08 1 357.383 65.6302)" fill="#90CB62"/>
<path fill-rule="evenodd" clip-rule="evenodd" d="M331.975 80.1317C334.315 83.0416 337.904 84.904 341.928 84.904C348.976 84.904 354.69 79.1901 354.69 72.1416C354.69 71.5516 354.65 70.971 354.573 70.4023C356.331 72.5894 357.383 75.3681 357.383 78.3925C357.383 85.441 351.669 91.1549 344.62 91.1549C338.162 91.1549 332.824 86.3575 331.975 80.1317Z" fill="#4D8622"/>
<circle cx="12.7624" cy="12.7624" r="12.3842" transform="matrix(-1 8.74228e-08 8.74228e-08 1 357.383 65.6302)" stroke="#0A6191" stroke-width="0.756543"/>
<circle cx="8.94719" cy="8.94719" r="8.94719" transform="matrix(-1 8.74228e-08 8.74228e-08 1 353.57 118.381)" fill="#90CB62"/>
<path fill-rule="evenodd" clip-rule="evenodd" d="M335.759 128.551C337.399 130.589 339.913 131.892 342.732 131.892C347.674 131.892 351.679 127.887 351.679 122.945C351.679 122.531 351.651 122.123 351.597 121.723C352.831 123.257 353.57 125.207 353.57 127.329C353.57 132.27 349.565 136.276 344.623 136.276C340.096 136.276 336.355 132.914 335.759 128.551Z" fill="#4D8622"/>
<circle cx="8.94719" cy="8.94719" r="8.56892" transform="matrix(-1 8.74228e-08 8.74228e-08 1 353.57 118.381)" stroke="#0A6191" stroke-width="0.756543"/>
<circle cx="15.953" cy="15.953" r="15.953" transform="matrix(-1 8.74228e-08 8.74228e-08 1 321.92 26.0242)" fill="white"/>
<path fill-rule="evenodd" clip-rule="evenodd" d="M290.163 44.1654C293.087 47.7982 297.57 50.1229 302.597 50.1229C311.407 50.1229 318.55 42.9805 318.55 34.1699C318.55 33.4278 318.499 32.6976 318.401 31.9825C320.602 34.7175 321.92 38.1939 321.92 41.978C321.92 50.7887 314.778 57.9311 305.967 57.9311C297.898 57.9311 291.229 51.9411 290.163 44.1654Z" fill="#8FE3E8"/>
<circle cx="15.953" cy="15.953" r="15.5748" transform="matrix(-1 8.74228e-08 8.74228e-08 1 321.92 26.0242)" stroke="#0A6191" stroke-width="0.756543"/>
<circle cx="15.953" cy="15.953" r="15.953" transform="matrix(-1 8.74228e-08 8.74228e-08 1 412.809 104.929)" fill="white"/>
<path fill-rule="evenodd" clip-rule="evenodd" d="M381.403 124.864C384.316 128.007 388.481 129.975 393.105 129.975C401.916 129.975 409.058 122.832 409.058 114.022C409.058 112.648 408.885 111.315 408.558 110.043C411.196 112.889 412.809 116.699 412.809 120.885C412.809 129.696 405.666 136.838 396.856 136.838C389.419 136.838 383.17 131.749 381.403 124.864Z" fill="#8FE3E8"/>
<circle cx="15.953" cy="15.953" r="15.5748" transform="matrix(-1 8.74228e-08 8.74228e-08 1 412.809 104.929)" stroke="#0A6191" stroke-width="0.756543"/>
<circle cx="12.7624" cy="12.7624" r="12.7624" transform="matrix(-1 8.74228e-08 8.74228e-08 1 402.684 29.3177)" fill="#90CB62"/>
<path fill-rule="evenodd" clip-rule="evenodd" d="M377.276 43.8203C379.615 46.7301 383.204 48.5924 387.228 48.5924C394.277 48.5924 399.991 42.8785 399.991 35.83C399.991 35.24 399.951 34.6593 399.873 34.0906C401.632 36.2776 402.684 39.0564 402.684 42.0809C402.684 49.1294 396.97 54.8433 389.921 54.8434C383.463 54.8434 378.125 50.046 377.276 43.8203Z" fill="#4D8622"/>
<circle cx="12.7624" cy="12.7624" r="12.3842" transform="matrix(-1 8.74228e-08 8.74228e-08 1 402.684 29.3177)" stroke="#0A6191" stroke-width="0.756543"/>
<path d="M168.381 71.0015L168.462 41.6214C168.462 52.9915 175.922 64.3706 190.905 73.0198L190.824 102.4C175.868 93.7507 168.381 82.3625 168.381 71.0015Z" fill="#5CC3C9" stroke="#1A1B1D" stroke-width="0.756543" stroke-linejoin="round"/>
<path d="M454.85 149.008L454.94 119.628C454.93 121.606 454.694 123.559 454.237 125.484C451.976 135.043 444.57 143.692 432.822 150.494C403.234 167.694 354.943 167.694 325.157 150.494L325.076 179.875C354.853 197.065 403.153 197.074 432.74 179.875C444.489 173.046 451.895 164.405 454.156 154.864V154.882C454.614 152.958 454.847 150.986 454.85 149.008Z" fill="#5CC3C9" stroke="#1A1B1D" stroke-width="0.756543" stroke-linejoin="round"/>
<path d="M325.158 150.512L325.077 179.892L190.861 102.401L190.942 73.021L325.158 150.512Z" fill="#5CC3C9" stroke="#1A1B1D" stroke-width="0.756543" stroke-linejoin="round"/>
<path opacity="0.5" d="M454.236 125.485C451.975 135.027 444.569 143.676 432.82 150.496C403.233 167.695 354.942 167.695 325.156 150.496L190.914 73.0135C161.137 55.8232 160.966 27.8488 190.562 10.6495C220.159 -6.54971 268.441 -6.5407 298.218 10.6495L311.588 18.3618C350.59 3.64917 402.278 6.72114 435.595 25.9566C452.579 35.759 462.867 48.7599 464.597 62.5716C466.246 75.8066 459.957 88.9427 446.866 99.6911C453.714 107.62 456.317 116.728 454.236 125.485Z" stroke="#1A1B1D" stroke-width="0.756543" stroke-linejoin="round"/>
<path d="M252.028 123.787C252.029 119.977 254.704 118.412 257.992 120.3C261.28 122.187 263.957 126.82 263.956 130.63C263.956 134.44 261.279 136.006 257.991 134.118C254.703 132.231 252.029 127.599 252.028 123.787Z" fill="#0A6191" stroke="#0A6191" stroke-width="0.756543"/>
<path d="M245.504 138.908L258.712 131.275C259.209 130.988 259.516 130.374 259.52 129.503C259.526 127.751 258.295 125.618 256.769 124.739C256.001 124.297 255.305 124.256 254.803 124.548L241.595 132.181C242.099 131.89 242.794 131.929 243.562 132.372C245.087 133.251 246.319 135.384 246.312 137.136C246.309 138.007 246.002 138.619 245.504 138.908Z" fill="#FFC450" stroke="#1A1B1D" stroke-width="0.756543" stroke-linejoin="round"/>
<path d="M245.496 138.918C244.38 139.566 242.6 138.585 241.52 136.726C240.44 134.867 240.469 132.834 241.584 132.186C242.699 131.538 244.479 132.52 245.559 134.379C246.64 136.238 246.611 138.27 245.496 138.918Z" fill="#EC9C00" stroke="#1A1B1D" stroke-width="0.756543" stroke-linejoin="round"/>
<path d="M285.632 143.156C285.633 139.346 288.308 137.781 291.596 139.669C294.884 141.556 297.56 146.189 297.56 149.999C297.559 153.809 294.883 155.375 291.595 153.487C288.307 151.6 285.632 146.968 285.632 143.156Z" fill="#0A6191" stroke="#0A6191" stroke-width="0.756543"/>
<path d="M279.108 158.277L292.315 150.644C292.813 150.357 293.12 149.743 293.123 148.872C293.13 147.12 291.898 144.987 290.373 144.108C289.605 143.666 288.909 143.625 288.406 143.917L275.199 151.55C275.702 151.259 276.397 151.298 277.165 151.741C278.691 152.62 279.922 154.753 279.916 156.505C279.913 157.376 279.606 157.988 279.108 158.277Z" fill="#90CB62" stroke="#1A1B1D" stroke-width="0.756543" stroke-linejoin="round"/>
<path d="M279.099 158.287C277.984 158.935 276.204 157.954 275.124 156.095C274.044 154.236 274.072 152.203 275.187 151.555C276.303 150.907 278.083 151.889 279.163 153.748C280.243 155.607 280.215 157.639 279.099 158.287Z" fill="#4D8622" stroke="#1A1B1D" stroke-width="0.756543" stroke-linejoin="round"/>
<path d="M218.433 104.422C218.433 100.612 221.108 99.0468 224.397 100.934C227.685 102.822 230.361 107.454 230.361 111.264C230.36 115.074 227.684 116.64 224.396 114.753C221.107 112.865 218.433 108.233 218.433 104.422Z" fill="#0A6191" stroke="#0A6191" stroke-width="0.756543"/>
<path d="M211.909 119.542L225.116 111.91C225.614 111.623 225.921 111.009 225.924 110.138C225.931 108.385 224.699 106.252 223.173 105.373C222.406 104.931 221.71 104.891 221.207 105.183L207.999 112.816C208.503 112.525 209.198 112.564 209.966 113.006C211.492 113.885 212.723 116.018 212.717 117.771C212.713 118.641 212.406 119.253 211.909 119.542Z" fill="#8FE3E8" stroke="#1A1B1D" stroke-width="0.756543" stroke-linejoin="round"/>
<path d="M211.898 119.554C210.783 120.203 209.003 119.221 207.923 117.362C206.842 115.503 206.871 113.471 207.986 112.822C209.102 112.174 210.882 113.156 211.962 115.015C213.042 116.874 213.013 118.906 211.898 119.554Z" fill="#5CC3C9" stroke="#1A1B1D" stroke-width="0.756543" stroke-linejoin="round"/>
<path d="M454.236 125.485C451.975 135.027 444.569 143.676 432.82 150.496C403.233 167.695 354.942 167.695 325.156 150.496L190.914 73.0135C161.137 55.8233 160.966 27.8488 190.562 10.6495C220.159 -6.54971 268.441 -6.5407 298.218 10.6495L311.588 18.3618C350.59 3.64917 402.278 6.72115 435.595 25.9566C452.579 35.759 462.867 48.7599 464.597 62.5716C466.246 75.8066 459.957 88.9427 446.866 99.6912C453.714 107.62 456.317 116.728 454.236 125.485ZM330.237 147.55C357.203 163.11 400.927 163.11 427.712 147.55C438.343 141.37 445.047 133.54 447.092 124.909C449.074 116.557 446.371 107.89 439.505 100.493L438.424 99.3216L439.785 98.2583C452.75 88.1136 459.011 75.5456 457.435 62.8602C455.858 50.1747 446.281 38.0026 430.55 28.912C399.017 10.6856 349.644 8.10903 313.246 22.7676L310.777 23.7583L293.172 13.5957C266.216 -1.97284 222.483 -1.96383 195.707 13.5957C168.93 29.1552 169.056 54.49 196.022 70.0586L330.265 147.541" fill="white"/>
<path d="M330.237 147.55C357.203 163.11 400.927 163.11 427.712 147.55C438.343 141.37 445.047 133.54 447.092 124.909C449.074 116.557 446.371 107.89 439.506 100.493L438.424 99.3216L439.785 98.2583C452.75 88.1136 459.011 75.5456 457.435 62.8602C455.858 50.1747 446.281 38.0026 430.55 28.912C399.017 10.6856 349.644 8.10903 313.246 22.7676L310.777 23.7583L293.172 13.5957C266.216 -1.97284 222.483 -1.96383 195.707 13.5957C168.93 29.1552 169.056 54.49 196.022 70.0586L330.265 147.541M454.236 125.485C451.975 135.027 444.569 143.676 432.82 150.496C403.233 167.695 354.942 167.695 325.156 150.496L190.914 73.0135C161.137 55.8233 160.966 27.8488 190.562 10.6495C220.159 -6.54971 268.441 -6.5407 298.218 10.6495L311.588 18.3618C350.59 3.64917 402.278 6.72115 435.595 25.9566C452.579 35.759 462.867 48.7599 464.597 62.5716C466.246 75.8066 459.957 88.9427 446.866 99.6912C453.714 107.62 456.317 116.728 454.236 125.485Z" stroke="#1A1B1D" stroke-width="0.756543" stroke-linejoin="round"/>
<path opacity="0.2" d="M234.567 218.748C247.333 211.378 268.031 211.378 280.797 218.748C293.563 226.117 293.563 238.066 280.797 245.436C268.031 252.806 247.333 252.806 234.567 245.436C221.801 238.066 221.801 226.117 234.567 218.748Z" fill="#4C99A4"/>
<path d="M234.567 210.833C247.333 203.463 268.031 203.463 280.797 210.833C293.563 218.203 293.563 230.152 280.797 237.522C268.031 244.892 247.333 244.892 234.567 237.522C221.801 230.152 221.801 218.203 234.567 210.833Z" fill="#5CC3C9" stroke="white" stroke-width="0.756543" stroke-linejoin="round"/>
<path d="M233.647 216.696L233.647 221.887C233.647 225.443 235.976 229.027 240.579 231.729C249.868 237.219 264.996 237.219 274.369 231.729C279.112 228.998 281.442 225.357 281.442 221.745L281.66 216.691C281.66 220.303 279.084 223.779 274.369 226.539C264.996 232.029 249.868 232.029 240.579 226.539C235.976 223.808 233.647 220.252 233.647 216.696Z" fill="#8FE3E8" stroke="#1A1B1D" stroke-width="0.756543" stroke-miterlimit="10" stroke-linejoin="round"/>
<path d="M233.693 216.869C233.671 209.194 244.394 202.941 257.643 202.903C270.892 202.866 281.65 209.058 281.672 216.733C281.693 224.408 270.971 230.661 257.722 230.698C244.473 230.736 233.714 224.544 233.693 216.869Z" fill="white" stroke="#1A1B1D" stroke-width="0.756543"/>
<path d="M240.46 210.4L240.46 213.655C240.46 216.203 242.13 218.771 245.428 220.708C252.085 224.642 262.925 224.642 269.642 220.708C273.041 218.751 274.711 216.142 274.711 213.553L274.867 210.396C274.867 212.984 273.021 215.476 269.642 217.453C262.925 221.387 252.085 221.387 245.428 217.453C242.13 215.496 240.46 212.948 240.46 210.4Z" fill="#8FE3E8" stroke="#1A1B1D" stroke-width="0.756543" stroke-miterlimit="10" stroke-linejoin="round"/>
<path d="M240.482 210.519C240.467 205.019 248.151 200.538 257.645 200.512C267.139 200.485 274.849 204.922 274.864 210.422C274.88 215.922 267.196 220.403 257.702 220.43C248.207 220.457 240.498 216.02 240.482 210.519Z" fill="white" stroke="#1A1B1D" stroke-width="0.756543"/>
<path d="M253.776 210.48C253.772 209.232 255.516 208.215 257.67 208.209C259.825 208.203 261.574 209.21 261.578 210.458C261.581 211.706 259.837 212.723 257.683 212.729C255.529 212.735 253.779 211.728 253.776 210.48Z" fill="#0A6191" stroke="#0A6191" stroke-width="0.756543" stroke-miterlimit="10" stroke-linejoin="round"/>
<mask id="mask0_981_43087" style="mask-type:alpha" maskUnits="userSpaceOnUse" x="253" y="176" width="9" height="38">
<path d="M257.689 212.729C255.535 212.735 253.785 211.728 253.782 210.48C253.78 209.964 254.077 209.488 254.579 209.106L254.579 177.259L260.808 177.259L260.808 209.111C261.294 209.486 261.582 209.952 261.583 210.458C261.587 211.706 259.843 212.723 257.689 212.729Z" fill="#0056B3" stroke="#0056B3" stroke-width="0.756543" stroke-miterlimit="10" stroke-linejoin="round"/>
</mask>
<g mask="url(#mask0_981_43087)">
<path d="M259.827 177.546L259.724 212.266C259.724 212.574 259.519 212.882 259.108 213.113C258.286 213.576 256.977 213.576 256.155 213.113C255.744 212.882 255.539 212.574 255.539 212.266L255.642 177.546C255.642 177.854 255.847 178.162 256.258 178.393C257.08 178.855 258.389 178.855 259.211 178.393C259.621 178.162 259.827 177.854 259.827 177.546Z" fill="white" stroke="#1A1B1D" stroke-width="0.756543" stroke-miterlimit="10" stroke-linejoin="round"/>
<path opacity="0.4" d="M259.827 149.136L259.724 183.856C259.724 184.164 259.519 184.473 259.108 184.704C258.286 185.166 256.977 185.166 256.155 184.704C255.744 184.473 255.539 184.164 255.539 183.856L255.642 149.136C255.642 149.444 255.847 149.752 256.258 149.983C257.08 150.445 258.389 150.445 259.211 149.983C259.621 149.752 259.827 149.444 259.827 149.136Z" fill="#4C99A4"/>
<path d="M259.827 177.546L259.724 212.266C259.724 212.574 259.519 212.882 259.108 213.113C258.286 213.576 256.977 213.576 256.155 213.113C255.744 212.882 255.539 212.574 255.539 212.266L255.642 177.546C255.642 177.854 255.847 178.162 256.258 178.393C257.08 178.855 258.389 178.855 259.211 178.393C259.621 178.162 259.827 177.854 259.827 177.546Z" stroke="#1A1B1D" stroke-width="0.756543" stroke-miterlimit="10" stroke-linejoin="round"/>
</g>
<path d="M255.581 208.566C254.494 208.97 253.773 209.677 253.776 210.48C253.779 211.728 255.529 212.735 257.683 212.729C259.837 212.723 261.581 211.706 261.578 210.458C261.575 209.663 260.865 208.966 259.794 208.566" stroke="#1A1B1D" stroke-width="0.756543" stroke-miterlimit="10" stroke-linejoin="round"/>
<circle cx="257.685" cy="168.31" r="11.9359" transform="rotate(90 257.685 168.31)" fill="#5DB3BF"/>
<path opacity="0.5" fill-rule="evenodd" clip-rule="evenodd" d="M246.128 165.311C247.457 170.454 252.127 174.252 257.685 174.252C263.243 174.252 267.914 170.454 269.242 165.311C269.49 166.268 269.621 167.271 269.621 168.305C269.621 174.897 264.277 180.241 257.685 180.241C251.093 180.241 245.749 174.897 245.749 168.305C245.749 167.271 245.881 166.268 246.128 165.311Z" fill="#30839D"/>
<circle cx="257.685" cy="168.31" r="11.5576" transform="rotate(90 257.685 168.31)" stroke="#1A1B1D" stroke-width="0.756543"/>
<path opacity="0.2" d="M91.1527 140.687C112.932 128.114 148.243 128.114 170.022 140.687C191.801 153.26 191.801 173.645 170.022 186.218C148.243 198.791 112.932 198.791 91.1527 186.218C69.3736 173.645 69.3736 153.26 91.1527 140.687Z" fill="#30839D"/>
<path d="M91.1507 127.187C112.93 114.614 148.241 114.614 170.02 127.187C191.799 139.76 191.799 160.145 170.02 172.718C148.241 185.292 112.93 185.292 91.1507 172.718C69.3716 160.145 69.3716 139.76 91.1507 127.187Z" fill="white" stroke="#1A1B1D" stroke-width="0.756543" stroke-linejoin="round"/>
<path d="M176.918 149.558L179.383 146.817L174.038 146.955L176.918 149.558ZM130.684 122.867V123.134V122.867ZM84.4091 145.925C84.3748 146.072 84.5525 146.207 84.8061 146.226C85.0597 146.246 85.293 146.144 85.3273 145.997L84.4091 145.925ZM163.049 130.873C170.937 135.427 175.344 141.229 176.27 147.178L177.193 147.13C176.248 141.061 171.751 135.141 163.704 130.495L163.049 130.873ZM98.3184 130.873C107.256 125.714 118.969 123.134 130.684 123.134L130.684 122.599C118.733 122.599 106.781 125.231 97.6632 130.495L98.3184 130.873ZM130.684 123.134C142.398 123.134 154.111 125.714 163.049 130.873L163.704 130.495C154.586 125.231 142.634 122.599 130.684 122.599L130.684 123.134ZM85.3273 145.997C86.623 140.465 90.953 135.125 98.3184 130.873L97.6632 130.495C90.1495 134.833 85.731 140.282 84.4091 145.925L85.3273 145.997Z" fill="#5CC3C9"/>
<path d="M84.449 148.758L81.9845 151.499L87.3288 151.36L84.449 148.758ZM130.684 175.449V175.181V175.449ZM176.958 152.39C176.992 152.244 176.815 152.109 176.561 152.089C176.308 152.069 176.074 152.172 176.04 152.318L176.958 152.39ZM98.3184 167.442C90.4303 162.888 86.0235 157.086 85.0972 151.138L84.1743 151.185C85.1194 157.255 89.616 163.175 97.6632 167.82L98.3184 167.442ZM163.049 167.442C154.111 172.602 142.398 175.181 130.684 175.181L130.684 175.716C142.634 175.716 154.586 173.084 163.704 167.82L163.049 167.442ZM130.684 175.181C118.969 175.181 107.256 172.602 98.3184 167.442L97.6632 167.82C106.781 173.084 118.733 175.716 130.684 175.716L130.684 175.181ZM176.04 152.318C174.744 157.85 170.414 163.19 163.049 167.442L163.704 167.82C171.218 163.483 175.636 158.034 176.958 152.39L176.04 152.318Z" fill="#FFC450"/>
<path opacity="0.2" d="M152.629 158.176C153.732 158.812 153.737 159.845 152.629 160.48L147.5 163.482C146.884 163.796 146.203 163.959 145.511 163.959C144.82 163.959 144.138 163.796 143.522 163.482L141.905 162.548C141.123 162.098 139.935 162 138.909 162.239C137.882 162.478 137.156 163.043 137.159 163.687V165.077C137.159 165.977 135.907 166.709 134.345 166.709H126.845C126.151 166.723 125.466 166.558 124.854 166.231C124.342 165.935 124.026 165.527 124.01 165.077V163.561C124.01 163.159 123.728 162.79 123.242 162.517C122.959 162.359 122.656 162.24 122.341 162.166C121.343 161.921 120.167 162.014 119.404 162.447L117.643 163.471C117.027 163.784 116.346 163.948 115.654 163.948C114.963 163.948 114.281 163.784 113.665 163.471L108.475 160.475C107.375 159.839 107.366 158.806 108.475 158.171L110.346 157.082C111.083 156.654 111.24 155.999 110.838 155.436C110.677 155.222 110.473 155.045 110.239 154.916C109.697 154.621 109.088 154.472 108.472 154.482H105.864C105.17 154.496 104.484 154.332 103.872 154.004C103.363 153.723 103.045 153.304 103.028 152.854L103.006 148.507C103.006 147.607 104.255 146.878 105.819 146.878H108.433C109.482 146.878 110.402 146.487 110.787 145.922C111.173 145.356 111.018 144.706 110.275 144.279L108.393 143.19C107.29 142.554 107.285 141.522 108.379 140.886L113.536 137.89C114.152 137.576 114.834 137.413 115.525 137.413C116.216 137.413 116.898 137.576 117.514 137.89L119.286 138.917C120.054 139.358 121.23 139.451 122.226 139.198C123.222 138.945 123.883 138.422 123.88 137.806V136.382C123.88 135.482 125.129 134.753 126.693 134.753H134.196C134.89 134.742 135.575 134.907 136.188 135.231C136.7 135.513 137.018 135.935 137.032 136.385V137.682C137.032 138.095 137.336 138.475 137.825 138.759C138.13 138.929 138.458 139.054 138.799 139.131C139.82 139.37 141.016 139.271 141.792 138.821L143.399 137.887C144.015 137.574 144.696 137.41 145.387 137.41C146.079 137.41 146.76 137.574 147.376 137.887L152.567 140.883C153.67 141.519 153.673 142.552 152.567 143.187L151.07 144.057C150.268 144.524 150.102 145.241 150.55 145.851C150.724 146.082 150.944 146.273 151.197 146.414C151.781 146.731 152.437 146.892 153.101 146.881H155.352C156.046 146.868 156.731 147.031 157.344 147.357C157.853 147.638 158.171 148.06 158.174 148.51L158.199 152.854C158.199 153.754 156.947 154.485 155.386 154.485H153.135C152.01 154.485 151.025 154.907 150.603 155.509C150.181 156.111 150.322 156.837 151.146 157.304L152.629 158.176ZM121.486 156.044C126.612 159.003 134.894 159.003 139.986 156.044C145.078 153.084 145.05 148.288 139.924 145.328C134.798 142.369 126.519 142.369 121.424 145.328C116.329 148.288 116.36 153.084 121.486 156.044Z" fill="#30839D"/>
<path d="M123.869 125.194L123.843 134.368L123.832 132.945L123.857 123.771L123.869 125.194Z" fill="#6FA646" stroke="#1A1B1D" stroke-width="0.756543" stroke-linejoin="round"/>
<path fill-rule="evenodd" clip-rule="evenodd" d="M153.362 129.433L153.337 138.602C153.337 139.015 153.056 139.429 152.518 139.747L152.518 139.74L152.518 139.744L151.023 140.613L151.023 140.614C150.809 140.713 150.625 140.867 150.49 141.061C150.356 141.255 150.275 141.481 150.258 141.717L150.286 132.543C150.286 132.135 150.539 131.738 151.048 131.44L151.048 131.442L152.543 130.57L152.544 130.576L152.544 130.573C153.087 130.259 153.36 129.848 153.362 129.433Z" fill="#6FA646"/>
<path d="M153.337 138.602L152.959 138.601V138.602H153.337ZM153.362 129.433L153.741 129.434C153.741 129.225 153.573 129.056 153.364 129.055C153.155 129.054 152.985 129.222 152.984 129.431L153.362 129.433ZM152.518 139.747L152.14 139.746C152.14 139.882 152.213 140.008 152.331 140.075C152.449 140.143 152.594 140.142 152.711 140.072L152.518 139.747ZM152.518 139.74L152.897 139.741C152.897 139.541 152.743 139.375 152.544 139.362C152.344 139.349 152.169 139.493 152.143 139.691L152.518 139.74ZM152.518 139.744L152.708 140.072C152.809 140.013 152.878 139.91 152.893 139.794L152.518 139.744ZM151.023 140.613L150.833 140.286C150.717 140.353 150.645 140.477 150.645 140.612L151.023 140.613ZM151.023 140.614L151.181 140.957C151.315 140.896 151.401 140.762 151.401 140.615L151.023 140.614ZM150.49 141.061L150.801 141.277L150.801 141.277L150.49 141.061ZM150.258 141.717L149.88 141.716C149.879 141.919 150.04 142.087 150.243 142.095C150.447 142.103 150.62 141.948 150.635 141.745L150.258 141.717ZM150.286 132.543L150.664 132.544V132.543H150.286ZM151.048 131.44L151.427 131.441C151.427 131.305 151.355 131.18 151.237 131.112C151.119 131.044 150.974 131.045 150.857 131.113L151.048 131.44ZM151.048 131.442L150.67 131.44C150.67 131.576 150.742 131.702 150.859 131.769C150.977 131.837 151.122 131.837 151.239 131.768L151.048 131.442ZM152.543 130.57L152.919 130.524C152.903 130.398 152.825 130.288 152.711 130.232C152.597 130.175 152.463 130.18 152.353 130.244L152.543 130.57ZM152.544 130.576L152.168 130.622C152.193 130.82 152.367 130.965 152.566 130.953C152.766 130.941 152.922 130.777 152.922 130.577L152.544 130.576ZM152.544 130.573L152.355 130.245C152.238 130.313 152.166 130.437 152.166 130.572L152.544 130.573ZM153.715 138.603L153.741 129.434L152.984 129.432L152.959 138.601L153.715 138.603ZM152.711 140.072C153.311 139.717 153.715 139.2 153.715 138.602H152.959C152.959 138.83 152.8 139.141 152.326 139.421L152.711 140.072ZM152.14 139.738L152.14 139.746L152.897 139.748L152.897 139.741L152.14 139.738ZM152.893 139.794L152.894 139.789L152.143 139.691L152.143 139.695L152.893 139.794ZM151.213 140.94L152.708 140.072L152.328 139.417L150.833 140.286L151.213 140.94ZM150.645 140.612L150.645 140.613L151.401 140.615L151.401 140.614L150.645 140.612ZM150.865 140.27C150.589 140.397 150.352 140.596 150.179 140.845L150.801 141.277C150.897 141.138 151.028 141.028 151.181 140.957L150.865 140.27ZM150.179 140.845C150.006 141.095 149.903 141.386 149.881 141.689L150.635 141.745C150.648 141.577 150.705 141.415 150.801 141.277L150.179 140.845ZM150.636 141.718L150.664 132.544L149.908 132.542L149.88 141.716L150.636 141.718ZM150.664 132.543C150.664 132.31 150.806 132.02 151.239 131.766L150.857 131.113C150.272 131.456 149.908 131.96 149.908 132.543H150.664ZM150.67 131.439L150.67 131.44L151.427 131.443L151.427 131.441L150.67 131.439ZM152.353 130.244L150.858 131.115L151.239 131.768L152.734 130.897L152.353 130.244ZM152.919 130.529L152.919 130.524L152.168 130.617L152.168 130.622L152.919 130.529ZM152.166 130.572L152.166 130.575L152.922 130.577L152.922 130.574L152.166 130.572ZM152.984 129.431C152.983 129.665 152.829 129.971 152.355 130.245L152.733 130.9C153.346 130.546 153.737 130.031 153.741 129.435L152.984 129.431Z" fill="#1A1B1D"/>
<path fill-rule="evenodd" clip-rule="evenodd" d="M107.525 138.588L107.551 129.414C107.551 129.833 107.832 130.258 108.395 130.573L108.395 130.587L110.26 131.662L110.261 131.662C110.463 131.754 110.637 131.9 110.764 132.082C110.892 132.265 110.967 132.478 110.984 132.7L110.955 141.872C110.955 141.491 110.722 141.118 110.24 140.838L110.24 140.841L108.358 139.752L108.356 139.741C107.798 139.421 107.525 139.005 107.525 138.588Z" fill="#6FA646"/>
<path d="M107.551 129.414H107.929C107.929 129.205 107.76 129.036 107.551 129.036C107.343 129.036 107.173 129.204 107.172 129.413L107.551 129.414ZM107.525 138.588L107.147 138.587V138.588H107.525ZM108.395 130.573L108.773 130.574C108.773 130.437 108.699 130.31 108.58 130.243L108.395 130.573ZM108.395 130.587L108.016 130.586C108.016 130.722 108.088 130.847 108.206 130.915L108.395 130.587ZM110.26 131.662L110.071 131.99C110.091 132.001 110.111 132.011 110.133 132.018L110.26 131.662ZM110.261 131.662L110.417 131.318C110.408 131.314 110.398 131.31 110.388 131.306L110.261 131.662ZM110.984 132.7L111.362 132.701C111.362 132.692 111.362 132.682 111.361 132.673L110.984 132.7ZM110.955 141.872H110.577C110.577 142.08 110.746 142.249 110.955 142.25C111.164 142.25 111.333 142.081 111.334 141.873L110.955 141.872ZM110.24 140.838L110.43 140.511C110.313 140.443 110.169 140.442 110.052 140.509C109.934 140.577 109.862 140.701 109.861 140.836L110.24 140.838ZM110.24 140.841L110.05 141.168C110.167 141.236 110.311 141.236 110.428 141.168C110.545 141.101 110.618 140.977 110.618 140.842L110.24 140.841ZM108.358 139.752L107.982 139.8C107.997 139.917 108.066 140.02 108.168 140.079L108.358 139.752ZM108.356 139.741L108.732 139.694C108.717 139.576 108.647 139.472 108.544 139.413L108.356 139.741ZM107.172 129.413L107.147 138.587L107.904 138.589L107.929 129.415L107.172 129.413ZM108.58 130.243C108.088 129.968 107.929 129.649 107.929 129.414H107.172C107.172 130.017 107.576 130.548 108.21 130.903L108.58 130.243ZM108.773 130.588L108.773 130.574L108.016 130.572L108.016 130.586L108.773 130.588ZM110.449 131.334L108.583 130.26L108.206 130.915L110.071 131.99L110.449 131.334ZM110.133 132.018L110.134 132.018L110.388 131.306L110.387 131.306L110.133 132.018ZM110.104 132.006C110.245 132.071 110.366 132.171 110.454 132.298L111.075 131.866C110.909 131.628 110.682 131.438 110.417 131.318L110.104 132.006ZM110.454 132.298C110.542 132.425 110.595 132.574 110.606 132.728L111.361 132.673C111.34 132.383 111.241 132.104 111.075 131.866L110.454 132.298ZM110.605 132.699L110.577 141.87L111.334 141.873L111.362 132.701L110.605 132.699ZM111.334 141.872C111.334 141.317 110.99 140.837 110.43 140.511L110.049 141.164C110.453 141.4 110.577 141.665 110.577 141.872H111.334ZM110.618 140.842L110.618 140.839L109.861 140.836L109.861 140.839L110.618 140.842ZM108.168 140.079L110.05 141.168L110.429 140.513L108.547 139.424L108.168 140.079ZM107.981 139.789L107.982 139.8L108.733 139.704L108.732 139.694L107.981 139.789ZM107.147 138.588C107.147 139.187 107.54 139.709 108.168 140.07L108.544 139.413C108.056 139.133 107.904 138.822 107.904 138.588H107.147Z" fill="#1A1B1D"/>
<path d="M143.782 138.103L143.757 147.274C143.757 145.325 142.474 143.369 139.894 141.881C134.771 138.922 126.489 138.922 121.394 141.881C118.863 143.35 117.599 145.274 117.594 147.201L117.619 138.027C117.619 136.1 118.891 134.178 121.42 132.707C126.515 129.748 134.797 129.748 139.92 132.707C142.499 134.195 143.788 136.151 143.782 138.103Z" fill="#6FA646" stroke="#1A1B1D" stroke-width="0.756543" stroke-linejoin="round"/>
<path d="M103.026 140.237L103.001 149.411L102.979 145.065L103.004 135.891L103.026 140.237Z" fill="#6FA646" stroke="#1A1B1D" stroke-width="0.756543" stroke-linejoin="round"/>
<path d="M105.863 141.867L105.863 141.856C105.169 141.87 104.483 141.705 103.871 141.378C103.351 141.071 103.027 140.677 103.027 140.227L103.002 149.401C103.016 149.848 103.334 150.256 103.846 150.552C104.455 150.877 105.136 151.042 105.827 151.03L105.827 151.038H108.437C109.054 151.028 109.664 151.176 110.207 151.469C110.442 151.598 110.646 151.777 110.806 151.992C110.942 152.172 111.018 152.391 111.023 152.617L111.048 143.443C111.045 143.217 110.969 142.998 110.831 142.818C110.671 142.604 110.467 142.427 110.232 142.298C109.691 142.003 109.082 141.854 108.466 141.864L105.863 141.867Z" fill="#6FA646" stroke="#1A1B1D" stroke-width="0.756543" stroke-linejoin="round"/>
<path d="M158.169 140.233L158.169 140.245C158.169 140.241 158.169 140.237 158.169 140.233Z" fill="#6FA646"/>
<path d="M155.335 151.038C156.895 151.036 158.14 150.305 158.14 149.407L158.169 140.245C158.16 141.139 156.91 141.856 155.375 141.856L155.36 141.884L155.36 141.864H153.121L153.121 141.94L153.104 141.864C151.979 141.864 151.005 142.286 150.572 142.888C150.425 143.083 150.344 143.32 150.339 143.564L150.311 152.735C150.318 152.492 150.399 152.257 150.544 152.063C150.969 151.46 151.951 151.038 153.076 151.038L153.093 150.967L153.093 151.038L155.335 151.038Z" fill="#6FA646"/>
<path d="M158.169 140.245L158.169 140.233C158.169 140.237 158.169 140.241 158.169 140.245ZM158.169 140.245L158.14 149.407C158.14 150.305 156.895 151.036 155.335 151.038L153.093 151.038L153.093 150.967L153.076 151.038C151.951 151.038 150.969 151.46 150.544 152.063C150.399 152.257 150.318 152.492 150.311 152.735L150.339 143.564C150.344 143.32 150.425 143.083 150.572 142.888C151.005 142.286 151.979 141.864 153.104 141.864L153.121 141.94L153.121 141.864H155.36L155.36 141.884L155.375 141.856C156.91 141.856 158.16 141.139 158.169 140.245Z" stroke="#1A1B1D" stroke-width="0.756543" stroke-linejoin="round"/>
<path d="M153.435 155.886L153.46 146.72C153.458 147.132 153.185 147.543 152.645 147.857L152.645 147.86L147.488 150.853L147.463 160.027L152.62 157.031C153.154 156.713 153.435 156.3 153.435 155.886Z" fill="#6FA646" stroke="#1A1B1D" stroke-width="0.756543" stroke-linejoin="round"/>
<path d="M123.988 160.106L124.014 150.935C124.011 150.533 123.718 150.164 123.246 149.894C122.963 149.736 122.66 149.617 122.345 149.542C121.347 149.286 120.171 149.379 119.408 149.824L119.408 149.832L117.647 150.856L117.619 160.03L119.383 159.006L119.388 158.992C120.151 158.561 121.324 158.469 122.317 158.714C122.632 158.787 122.935 158.905 123.218 159.062C123.707 159.338 123.988 159.707 123.988 160.106Z" fill="#6FA646" stroke="#1A1B1D" stroke-width="0.756543" stroke-linejoin="round"/>
<path d="M141.889 149.919C141.106 149.469 139.922 149.365 138.892 149.61C137.863 149.854 137.143 150.414 137.143 151.058L137.117 160.213C137.117 160.219 137.117 160.226 137.117 160.232L137.117 160.213C137.126 159.574 137.851 159.034 138.867 158.783C139.894 158.53 141.081 158.64 141.863 159.093L143.481 160.027L143.495 160.033C144.111 160.347 144.792 160.51 145.484 160.51C146.175 160.51 146.638 160.604 147.473 160.033L147.498 150.859C146.882 151.172 146.201 151.336 145.51 151.337C144.818 151.337 144.137 151.174 143.52 150.861L143.506 150.921L143.506 150.853L141.889 149.919Z" fill="#6FA646"/>
<path d="M137.117 160.213L137.143 151.058C137.143 150.414 137.863 149.854 138.892 149.61C139.922 149.365 141.106 149.469 141.889 149.919L143.506 150.853L143.506 150.921L143.52 150.861C144.137 151.174 144.818 151.337 145.51 151.337C146.201 151.336 146.882 151.172 147.498 150.859L147.473 160.033C146.638 160.604 146.175 160.51 145.484 160.51C144.792 160.51 144.111 160.347 143.495 160.033L143.481 160.027L141.863 159.093C141.081 158.64 139.894 158.53 138.867 158.783C137.851 159.034 137.126 159.574 137.117 160.213ZM137.117 160.213C137.117 160.219 137.117 160.226 137.117 160.232L137.117 160.213Z" stroke="#1A1B1D" stroke-width="0.756543" stroke-linejoin="round"/>
<path d="M107.621 155.87L107.646 146.696C107.646 147.118 107.928 147.54 108.476 147.858L113.667 150.854L113.667 150.86C114.283 151.173 114.965 151.337 115.656 151.337C116.347 151.337 117.029 151.173 117.645 150.86L117.619 160.031C117.003 160.346 116.321 160.51 115.629 160.51C114.937 160.51 114.255 160.346 113.639 160.031L113.638 160.028L108.451 157.032L108.451 157.029C107.897 156.711 107.618 156.289 107.621 155.87Z" fill="#6FA646" stroke="#1A1B1D" stroke-width="0.756543" stroke-linejoin="round"/>
<path d="M124.014 152.456L123.989 161.627L123.98 160.111L124.006 150.937L124.014 152.456Z" fill="#6FA646" stroke="#1A1B1D" stroke-width="0.756543" stroke-linejoin="round"/>
<path d="M126.841 154.078C126.152 154.09 125.471 153.925 124.863 153.6C124.337 153.29 124.019 152.897 124.019 152.446L123.994 161.621C123.997 162.071 124.312 162.479 124.824 162.774C125.437 163.099 126.122 163.263 126.816 163.249L134.319 163.252C135.876 163.247 137.124 162.519 137.124 161.621L137.149 152.458C137.141 153.353 135.891 154.078 134.336 154.078L126.841 154.078Z" fill="#6FA646" stroke="#1A1B1D" stroke-width="0.756543" stroke-linejoin="round"/>
<path d="M152.629 145.554C153.732 146.19 153.737 147.223 152.629 147.859L147.5 150.86C146.884 151.174 146.203 151.337 145.511 151.337C144.82 151.337 144.138 151.174 143.522 150.86L141.905 149.926C141.123 149.476 139.935 149.378 138.909 149.617C137.882 149.856 137.156 150.421 137.159 151.066V152.455C137.159 153.356 135.907 154.087 134.345 154.087H126.845C126.151 154.101 125.466 153.936 124.854 153.609C124.342 153.313 124.026 152.906 124.01 152.455V150.939C124.01 150.537 123.728 150.168 123.242 149.895C122.959 149.737 122.656 149.619 122.341 149.544C121.343 149.299 120.167 149.392 119.404 149.825L117.643 150.849C117.027 151.163 116.346 151.326 115.654 151.326C114.963 151.326 114.281 151.163 113.665 150.849L108.475 147.853C107.375 147.217 107.366 146.185 108.475 145.549L110.346 144.46C111.083 144.033 111.24 143.377 110.838 142.814C110.677 142.6 110.473 142.423 110.239 142.294C109.697 141.999 109.088 141.85 108.472 141.861H105.864C105.17 141.874 104.484 141.71 103.872 141.382C103.363 141.101 103.045 140.682 103.028 140.232L103.006 135.885C103.006 134.985 104.255 134.257 105.819 134.257H108.433C109.482 134.257 110.402 133.865 110.787 133.3C111.173 132.735 111.018 132.085 110.275 131.657L108.393 130.568C107.29 129.933 107.285 128.9 108.379 128.264L113.536 125.268C114.152 124.955 114.834 124.791 115.525 124.791C116.216 124.791 116.898 124.955 117.514 125.268L119.286 126.295C120.054 126.737 121.23 126.83 122.226 126.576C123.222 126.323 123.883 125.8 123.88 125.184V123.76C123.88 122.86 125.129 122.131 126.693 122.131H134.196C134.89 122.12 135.575 122.285 136.188 122.61C136.7 122.891 137.018 123.313 137.032 123.763V125.06C137.032 125.474 137.336 125.853 137.825 126.138C138.13 126.307 138.458 126.432 138.799 126.509C139.82 126.748 141.016 126.65 141.792 126.199L143.399 125.265C144.015 124.952 144.696 124.788 145.387 124.788C146.079 124.788 146.76 124.952 147.376 125.265L152.567 128.261C153.67 128.897 153.673 129.93 152.567 130.566L151.07 131.435C150.268 131.902 150.102 132.619 150.55 133.23C150.724 133.46 150.944 133.652 151.197 133.792C151.781 134.109 152.437 134.27 153.101 134.259H155.352C156.046 134.246 156.731 134.41 157.344 134.735C157.853 135.016 158.171 135.438 158.174 135.888L158.199 140.232C158.199 141.132 156.947 141.864 155.386 141.864H153.135C152.01 141.864 151.025 142.286 150.603 142.888C150.181 143.49 150.322 144.215 151.146 144.682L152.629 145.554ZM121.486 143.422C126.612 146.382 134.894 146.382 139.986 143.422C145.078 140.463 145.05 135.666 139.924 132.706C134.798 129.747 126.519 129.747 121.424 132.706C116.329 135.666 116.36 140.463 121.486 143.422Z" fill="#BCF194" stroke="#1A1B1D" stroke-width="0.756543" stroke-linejoin="round"/>
<path d="M292.004 174.366C294.253 172.989 294.262 170.756 292.031 169.379C289.8 168.002 286.169 168.002 283.92 169.379C281.671 170.756 281.662 172.989 283.893 174.366C286.125 175.752 289.755 175.752 292.004 174.366Z" stroke="#1A1B1D" stroke-width="0.756543" stroke-linejoin="round"/>
<path d="M252.295 151.557C254.544 150.353 254.553 148.399 252.322 147.194C250.091 145.989 246.46 145.989 244.211 147.194C241.962 148.399 241.953 150.353 244.184 151.557C246.416 152.77 250.046 152.77 252.295 151.557Z" stroke="#1A1B1D" stroke-width="0.756543" stroke-linejoin="round"/>
<path d="M220.524 133.775C222.773 132.398 222.782 130.165 220.55 128.788C218.319 127.411 214.689 127.411 212.44 128.788C210.19 130.165 210.182 132.398 212.413 133.775C214.644 135.162 218.275 135.162 220.524 133.775Z" stroke="#1A1B1D" stroke-width="0.756543" stroke-linejoin="round"/>
<defs>
<radialGradient id="paint0_radial_981_43087" cx="0" cy="0" r="1" gradientUnits="userSpaceOnUse" gradientTransform="translate(280.587 147.794) rotate(-134.75) scale(219.346 379.95)">
<stop offset="0.0546285" stop-color="#7AD1FF"/>
<stop offset="1" stop-color="#7AD1FF" stop-opacity="0"/>
</radialGradient>
<clipPath id="clip0_981_43087">
<rect width="493.525" height="332.109" fill="white" transform="translate(0 -2.26318)"/>
</clipPath>
<clipPath id="clip1_981_43087">
<rect width="493.525" height="332.109" fill="white" transform="translate(0.115234 -2.26254)"/>
</clipPath>
</defs>
</svg>
