<?xml version="1.0" encoding="UTF-8" standalone="no"?>
<!-- Created with Inkscape (http://www.inkscape.org/) -->

<svg
   width="292"
   height="40"
   viewBox="0 0 77.258332 10.583333"
   version="1.1"
   id="svg5"
   inkscape:version="1.2.2 (732a01da63, 2022-12-09)"
   sodipodi:docname="email-logo.svg"
   xmlns:inkscape="http://www.inkscape.org/namespaces/inkscape"
   xmlns:sodipodi="http://sodipodi.sourceforge.net/DTD/sodipodi-0.dtd"
   xmlns="http://www.w3.org/2000/svg"
   xmlns:svg="http://www.w3.org/2000/svg">
  <sodipodi:namedview
     id="namedview7"
     pagecolor="#ffffff"
     bordercolor="#000000"
     borderopacity="0.25"
     inkscape:showpageshadow="2"
     inkscape:pageopacity="0.0"
     inkscape:pagecheckerboard="0"
     inkscape:deskcolor="#d1d1d1"
     inkscape:document-units="mm"
     showgrid="false"
     inkscape:zoom="2.9540685"
     inkscape:cx="126.4358"
     inkscape:cy="17.602842"
     inkscape:window-width="1920"
     inkscape:window-height="1009"
     inkscape:window-x="1912"
     inkscape:window-y="-8"
     inkscape:window-maximized="1"
     inkscape:current-layer="layer1" />
  <defs
     id="defs2" />
  <g
     inkscape:label="Layer 1"
     inkscape:groupmode="layer"
     id="layer1">
    <g
       id="Full_color"
       transform="matrix(0.00459585,0,0,0.00459585,-0.27712976,-0.15763765)">
	<g
   id="g388">
		<path
   class="st0"
   d="m 88.6,1288.8 c 19.2,-33.3 46.2,-59.4 77.3,-77.3 33.3,-19.2 69.7,-28.3 105.6,-28.3 38.5,0 74.5,10.3 105.6,28.3 33.3,19.2 59.4,46.2 77.3,77.3 12.1,20.9 20.1,43 24.5,65.4 38.8,189.2 175.1,267.5 358.5,205.9 22.2,-7.5 45,-11.2 67.7,-11.1 38.5,0 74.5,10.3 105.6,28.3 33.3,19.2 59.4,46.2 77.3,77.3 19.2,33.3 28.3,69.7 28.3,105.6 0,38.5 -10.3,74.5 -28.3,105.6 -19.2,33.3 -46.2,59.4 -77.3,77.3 -33.3,19.2 -69.7,28.3 -105.6,28.3 -23.6,0 -46.2,-3.9 -67.4,-11 v 0 c -183.9,-61.9 -320.4,16.7 -359,206.5 0,0 0,-0.1 0,-0.2 -4.5,23.2 -12.9,45 -24.3,64.8 -19.2,33.3 -46.2,59.4 -77.3,77.3 -33.3,19.2 -69.7,28.3 -105.6,28.3 -38.5,0 -74.5,-10.3 -105.6,-28.3 -33.3,-19.2 -59.4,-46.2 -77.3,-77.3 -19.2,-33.3 -28.3,-69.7 -28.3,-105.6 0,-38.5 10.3,-74.5 28.3,-105.6 19.2,-33.3 46.2,-59.4 77.3,-77.3 33.3,-19.2 69.7,-28.3 105.6,-28.3 24.3,0 47.6,4.1 69.4,11.7 122.3,40.6 223.5,18.8 288.6,-56.8 54.7,-63.4 54.6,-155.7 -0.1,-219.1 -65.3,-75.7 -166.9,-97.4 -289.7,-56.3 0,0 0,0 0,0 -22.3,7.6 -45.4,11.4 -68.2,11.3 -38.5,0 -74.5,-10.3 -105.6,-28.3 -33.3,-19.2 -59.4,-46.2 -77.3,-77.3 -19.2,-33.3 -28.3,-69.7 -28.3,-105.6 0,-38.4 10.3,-74.4 28.3,-105.5 z M 6849.1,456.7 c 35.9,0 72.3,-9.1 105.6,-28.3 31.1,-17.9 58.1,-44 77.3,-77.3 18,-31.1 28.3,-67.1 28.3,-105.6 0,-35.9 -9.1,-72.3 -28.3,-105.6 -17.9,-31.1 -44,-58.1 -77.3,-77.3 -31.1,-18 -67.1,-28.3 -105.6,-28.3 -35.9,0 -72.3,9.1 -105.6,28.3 -31.1,17.9 -58.1,44 -77.3,77.3 -18,31.1 -28.3,67.1 -28.3,105.6 0,35.9 9.1,72.3 28.3,105.6 17.9,31.1 44,58.1 77.3,77.3 31.1,17.9 67.1,28.3 105.6,28.3 z"
   id="path384"
   style="fill:#014063" />

		<path
   d="m 3556.4,1192.7 c 0,-391.3 -279.9,-679 -684.2,-679 -404.3,0 -689.4,287.7 -689.4,679 0,391.3 287.7,679 692,679 298,0 531.3,-152.9 629.8,-393.9 h -272.1 c -75.2,111.4 -191.8,163.3 -357.6,163.3 -222.9,0 -393.9,-127 -430.2,-357.6 h 1111.8 v -90.8 z m -1104,-129.6 c 49.2,-204.7 215.1,-318.8 422.4,-318.8 207.3,0 375.8,111.4 425,318.8 z M 4380.6,513.7 c -404.3,0 -689.4,287.7 -689.4,679 0,391.3 285.1,679 689.4,679 404.3,0 689.4,-287.7 689.4,-679 -0.1,-391.4 -285.1,-679 -689.4,-679 z m 2.5,1127.3 c -264.3,0 -440.6,-186.6 -440.6,-448.4 0,-261.8 176.2,-448.4 440.6,-448.4 264.3,0 440.6,186.6 440.6,448.4 0,261.8 -178.8,448.4 -440.6,448.4 z m 2096.7,453.6 h 28.5 c 158.1,0 217.7,-70 217.7,-254 V 557.7 h 246.2 V 1825 c 0,318.8 -124.4,482 -440.6,482 h -51.8 z M 6358,1438.9 V 648.4 c 0,-137.4 -82.9,-254 -212.5,-295.4 -127,-41.5 -264.3,2.6 -344.7,111.4 L 5238.4,1203 c -67.4,90.7 -80.3,199.6 -33.7,292.9 49.2,98.5 158.1,160.7 282.5,160.7 h 624.6 v 305.8 H 6358 v -303.2 h 186.6 v -220.3 z m -246.2,-2.6 H 5495 c -33.7,0 -62.2,-28.5 -62.2,-62.2 0,-13 2.6,-25.9 10.4,-36.3 l 552,-733.4 c 15.5,-20.7 33.7,-25.9 49.2,-25.9 10.4,0 18.1,0 23.3,2.6 13,2.6 44.1,18.1 44.1,59.6 z M 2048.1,1166.8 V 1838 h -246.2 v -671.2 c 0,-279.9 -152.9,-422.4 -386.2,-422.4 -233.3,0 -386.2,142.5 -386.2,422.4 V 1469 c -38.2,-16.4 -80.2,-25.6 -124.4,-25.6 -41,0 -82.3,8 -121.8,24.4 v -298.5 c 0,-430.2 254,-653.1 632.4,-653.1 378.4,0.1 635,217.8 632.4,650.6 z"
   id="path386" />

	</g>

</g>
    <text
       xml:space="preserve"
       style="font-style:normal;font-variant:normal;font-weight:normal;font-stretch:normal;font-size:4.93889px;font-family:'Public Sans';-inkscape-font-specification:'Public Sans';fill:#6a82ff;stroke-width:0.264583;-inkscape-stroke:none;stop-color:#000000"
       x="39.519505"
       y="6.7190061"
       id="text673"><tspan
         sodipodi:role="line"
         id="tspan671"
         style="font-style:normal;font-variant:normal;font-weight:normal;font-stretch:normal;font-size:4.93889px;font-family:'Public Sans';-inkscape-font-specification:'Public Sans';fill:#5e636a;fill-opacity:1;stroke-width:0.264583"
         x="39.519505"
         y="6.7190061">GraphAcademy</tspan></text>
    <path
       style="fill:#5e636a;fill-opacity:1;stroke:#cfd1d4;stroke-width:0.298879;stroke-opacity:1;-inkscape-stroke:none;stop-color:#000000"
       d="M 36.685277,3.0493229 V 7.4133604"
       id="path8701" />
  </g>
</svg>
