<svg xmlns="http://www.w3.org/2000/svg" width="421" height="108" viewBox="0 0 421 108"><defs><style type="text/css"/></defs><g transform="translate(366.5 54) scale(1)"><g class="relationship"><g transform="translate(-312.5 0) rotate(0)" stroke-width="5" stroke="#000000"><path d="M 59 0 L 228.6378493822517 0"/><polygon points="-24.8621506177483,0 -27.62461179749811,9.20820393249937 0,0 -27.62461179749811,-9.20820393249937" fill="#000000" transform="translate(253.5 0) rotate(0)" stroke="none"/></g><g transform="translate(-168.68107530887414 0) rotate(0) translate(0 -22.6)"><g transform="translate(0 0)"><g transform="translate(-44.5625 0)" fill="#ffffff" stroke="#000000" stroke-width="0"><rect x="0" y="0" width="89.125" height="26" rx="5" ry="5" stroke="none"/><text xml:space="preserve" x="5" y="17.5" stroke="none" text-anchor="left" font-family="sans-serif" font-size="16" font-weight="normal" fill="#000000">ACTED_IN</text></g></g><g transform="translate(0 26)"><g transform="translate(-22.23046875 0)" fill="white"><rect x="0" y="0" width="44.4609375" height="19.2" rx="0" ry="0" stroke="none"/><g font-family="sans-serif" font-size="16" font-weight="normal" fill="#000000" text-anchor="end"><text xml:space="preserve" x="35.5703125" y="14.1" stroke="none">role:</text><text xml:space="preserve" x="40.015625" y="14.1" stroke="none" text-anchor="start"></text></g></g></g></g></g><g class="node"><g fill="#ffffff" stroke="#000000" stroke-width="4"><circle cx="0" cy="0" r="52"/></g><g transform="translate(0 0)"><g transform="scale(0.6132816367187499) translate(0 0)"><g transform="translate(0 0)"><g font-family="sans-serif" font-size="50" font-weight="normal" fill="#000000" text-anchor="middle"><text xml:space="preserve" x="0" y="13" stroke="none">Movie</text></g></g></g></g></g><g class="node"><g fill="#ffffff" stroke="#000000" stroke-width="4"><circle cx="-312.5" cy="0" r="52"/></g><g transform="translate(-312.5 0)"><g transform="scale(0.5312504687499999) translate(0 0)"><g transform="translate(0 0)"><g font-family="sans-serif" font-size="50" font-weight="normal" fill="#000000" text-anchor="middle"><text xml:space="preserve" x="0" y="13" stroke="none">Person</text></g></g></g></g></g></g></svg>