<svg xmlns="http://www.w3.org/2000/svg" width="586" height="108" viewBox="0 0 586 108"><defs><style type="text/css"/></defs><g transform="translate(558.6796875 171) scale(1)"><g class="relationship"><g transform="translate(-87 -117) rotate(180)" stroke-width="5" stroke="#000000"><path d="M 59 0 L 289.1378493822517 0"/><polygon points="-24.8621506177483,0 -27.62461179749811,9.20820393249937 0,0 -27.62461179749811,-9.20820393249937" fill="#000000" transform="translate(314 0) rotate(0)" stroke="none"/></g><g transform="translate(-261.06892469112586 -116.99999999999997) rotate(360) translate(0 -13)"><g transform="translate(0 0)"><g transform="translate(-34.7734375 0)" fill="#ffffff" stroke="#000000" stroke-width="0"><rect x="0" y="0" width="69.546875" height="26" rx="5" ry="5" stroke="none"/><text xml:space="preserve" x="5" y="17.5" stroke="none" text-anchor="left" font-family="sans-serif" font-size="16" font-weight="normal" fill="#000000">WROTE</text></g></g></g></g><g class="node"><g fill="#ffffff" stroke="#000000" stroke-width="4"><circle cx="-460" cy="-117" r="52"/></g><g transform="translate(-460 -117)"><g transform="scale(0.6953128046874999) translate(0 0)"><g transform="translate(0 0)"><g font-family="sans-serif" font-size="50" font-weight="normal" fill="#000000" text-anchor="middle"><text xml:space="preserve" x="0" y="13" stroke="none">Book</text></g></g></g><g transform="translate(-56 -19.199999999999992)"><g transform="translate(0 0)"><g transform="translate(-42.6796875 0)" fill="white"><rect x="0" y="0" width="42.6796875" height="38.4" rx="0" ry="0" stroke="none"/><g font-family="sans-serif" font-size="16" font-weight="normal" fill="#000000" text-anchor="end"><text xml:space="preserve" x="33.7890625" y="14.1" stroke="none">id:</text><text xml:space="preserve" x="38.234375" y="14.1" stroke="none" text-anchor="start"></text><text xml:space="preserve" x="33.7890625" y="33.3" stroke="none" text-anchor="end">title:</text><text xml:space="preserve" x="38.234375" y="33.3" stroke="none" text-anchor="start"></text></g></g></g></g></g></g><g class="node"><g fill="#ffffff" stroke="#000000" stroke-width="4"><circle cx="-87" cy="-117" r="52"/></g><g transform="translate(-87 -117)"><g transform="scale(0.5625004375) translate(0 0)"><g transform="translate(0 0)"><g font-family="sans-serif" font-size="50" font-weight="normal" fill="#000000" text-anchor="middle"><text xml:space="preserve" x="0" y="13" stroke="none">Author</text></g></g></g><g transform="translate(56 -9.6)"><g transform="translate(0 0)"><g transform="translate(0 0)" fill="white"><rect x="0" y="0" width="57.8046875" height="19.2" rx="0" ry="0" stroke="none"/><g font-family="sans-serif" font-size="16" font-weight="normal" fill="#000000" text-anchor="end"><text xml:space="preserve" x="48.9140625" y="14.1" stroke="none">name:</text><text xml:space="preserve" x="53.359375" y="14.1" stroke="none" text-anchor="start"></text></g></g></g></g></g></g></g></svg>