<svg version="1.1" viewBox="0.0 0.0 807.0971128608924 456.7742782152231" fill="none" stroke="none" stroke-linecap="square" stroke-miterlimit="10" xmlns:xlink="http://www.w3.org/1999/xlink" xmlns="http://www.w3.org/2000/svg"><clipPath id="p.0"><path d="m0 0l807.0971 0l0 456.7743l-807.0971 0l0 -456.7743z" clip-rule="nonzero"/></clipPath><g clip-path="url(#p.0)"><path fill="#000000" fill-opacity="0.0" d="m0 0l807.0971 0l0 456.7743l-807.0971 0z" fill-rule="evenodd"/><path fill="#014063" d="m516.4173 239.49869l0 0c0 -57.524582 46.632935 -104.157486 104.15753 -104.157486l0 0c27.624268 0 54.117126 10.973709 73.65045 30.507019c19.533325 19.533325 30.507019 46.026184 30.507019 73.65047l0 0c0 57.524597 -46.632935 104.15747 -104.15747 104.15747l0 0c-57.524597 0 -104.15753 -46.632874 -104.15753 -104.15747z" fill-rule="evenodd"/><path stroke="#8fe3e8" stroke-width="3.0" stroke-linejoin="round" stroke-linecap="butt" d="m516.4173 239.49869l0 0c0 -57.524582 46.632935 -104.157486 104.15753 -104.157486l0 0c27.624268 0 54.117126 10.973709 73.65045 30.507019c19.533325 19.533325 30.507019 46.026184 30.507019 73.65047l0 0c0 57.524597 -46.632935 104.15747 -104.15747 104.15747l0 0c-57.524597 0 -104.15753 -46.632874 -104.15753 -104.15747z" fill-rule="evenodd"/><path fill="#8fe3e8" d="m603.8493 232.65868l0 -17.53125l-7.109375 0l0 -3.140625l17.953125 0l0 3.140625l-7.09375 0l0 17.53125l-3.75 0zm17.127869 0.296875q-2.234375 0 -3.875 -0.90625q-1.640625 -0.921875 -2.5625 -2.59375q-0.90625 -1.6875 -0.90625 -3.984375q0 -2.28125 0.90625 -3.953125q0.921875 -1.671875 2.5625 -2.578125q1.640625 -0.921875 3.875 -0.921875q2.21875 0 3.859375 0.921875q1.640625 0.90625 2.546875 2.578125q0.921875 1.671875 0.921875 3.953125q0 2.296875 -0.921875 3.984375q-0.90625 1.671875 -2.546875 2.59375q-1.640625 0.90625 -3.859375 0.90625zm0 -2.796875q1.640625 0 2.625 -1.1875q1.0 -1.1875 1.0 -3.53125q0 -2.3125 -1.0 -3.46875q-0.984375 -1.15625 -2.625 -1.15625q-1.65625 0 -2.65625 1.15625q-0.984375 1.15625 -0.984375 3.46875q0 2.34375 0.984375 3.53125q1.0 1.1875 2.65625 1.1875zm11.34967 7.78125l2.984375 -6.59375l0 1.515625l-6.3125 -14.546875l3.90625 0l4.453125 11.125l-0.875 0l4.546875 -11.125l3.703125 0l-8.625 19.625l-3.78125 0z" fill-rule="nonzero"/><path fill="#8fe3e8" d="m592.88 267.95557q-1.625 0 -3.109375 -0.28125q-1.46875 -0.28125 -2.71875 -0.796875q-1.25 -0.53125 -2.21875 -1.265625l1.15625 -2.96875q0.953125 0.671875 2.03125 1.15625q1.078125 0.484375 2.28125 0.734375q1.21875 0.25 2.578125 0.25q2.3125 0 3.359375 -0.765625q1.0625 -0.78125 1.0625 -2.015625q0 -0.671875 -0.328125 -1.15625q-0.3125 -0.484375 -1.046875 -0.828125q-0.734375 -0.359375 -1.9375 -0.59375l-3.234375 -0.6875q-2.78125 -0.578125 -4.140625 -1.96875q-1.359375 -1.3906403 -1.359375 -3.6875153q0 -1.9375 1.015625 -3.375q1.03125 -1.4375 2.84375 -2.21875q1.828125 -0.796875 4.203125 -0.796875q1.40625 0 2.703125 0.28125q1.3125 0.28125 2.40625 0.828125q1.109375 0.53125 1.921875 1.296875l-1.140625 2.8125q-1.234375 -1.03125 -2.703125 -1.53125q-1.453125 -0.515625 -3.21875 -0.515625q-1.34375 0 -2.3125 0.375q-0.96875 0.375 -1.484375 1.078125q-0.515625 0.6875 -0.515625 1.625q0 1.046875 0.703125 1.6875q0.703125 0.625 2.40625 0.984375l3.203125 0.67189026q2.890625 0.609375 4.3125 1.9375q1.421875 1.3125 1.421875 3.515625q0 1.84375 -1.0 3.25q-0.984375 1.40625 -2.828125 2.1875q-1.828125 0.78125 -4.3125 0.78125zm17.4375 0q-2.859375 0 -4.28125 -1.4375q-1.40625 -1.4375 -1.40625 -4.203125l0 -6.234375l-2.75 0l0 -2.7656403l2.75 0l0 -4.28125l3.671875 0l0 4.28125l4.34375 0l0 2.7656403l-4.34375 0l0 6.03125q0 1.40625 0.609375 2.109375q0.625 0.703125 2.0 0.703125q0.40625 0 0.84375 -0.09375q0.453125 -0.109375 0.921875 -0.21875l0.546875 2.6875q-0.53125 0.296875 -1.34375 0.46875q-0.796875 0.1875 -1.5625 0.1875zm11.09967 0q-2.234375 0 -3.875 -0.90625q-1.640625 -0.921875 -2.5625 -2.59375q-0.90625 -1.6875 -0.90625 -3.984375q0 -2.28125 0.90625 -3.953125q0.921875 -1.6718903 2.5625 -2.5781403q1.640625 -0.921875 3.875 -0.921875q2.21875 0 3.859375 0.921875q1.640625 0.90625 2.546875 2.5781403q0.921875 1.671875 0.921875 3.953125q0 2.296875 -0.921875 3.984375q-0.90625 1.671875 -2.546875 2.59375q-1.640625 0.90625 -3.859375 0.90625zm0 -2.796875q1.640625 0 2.625 -1.1875q1.0 -1.1875 1.0 -3.53125q0 -2.3125 -1.0 -3.46875q-0.984375 -1.1562653 -2.625 -1.1562653q-1.65625 0 -2.65625 1.1562653q-0.984375 1.15625 -0.984375 3.46875q0 2.34375 0.984375 3.53125q1.0 1.1875 2.65625 1.1875zm10.34613 2.5l0 -14.343765l3.578125 0l0 3.4687653l-0.296875 0q0.421875 -1.7656403 1.609375 -2.6875153q1.203125 -0.921875 3.203125 -1.078125l1.109375 -0.078125l0.234375 3.1093903l-2.109375 0.203125q-1.78125 0.171875 -2.703125 1.09375q-0.90625 0.921875 -0.90625 2.59375l0 7.71875l-3.71875 0zm13.673462 5.28125l2.984375 -6.59375l0 1.515625l-6.3125 -14.54689l3.90625 0l4.453125 11.125015l-0.875 0l4.546875 -11.125015l3.703125 0l-8.625 19.625015l-3.78125 0z" fill-rule="nonzero"/><path fill="#014063" d="m658.8216 161.28621l0 0c0 -3.2442017 2.6299438 -5.8741302 5.8740845 -5.8741302l127.02344 0c1.5578613 0 3.052002 0.6188812 4.1536255 1.7204895c1.1016235 1.1016083 1.720459 2.5957184 1.720459 4.1536407l0 23.49582c0 3.2442017 -2.6299438 5.8741455 -5.8740845 5.8741455l-127.02344 0c-3.2441406 0 -5.8740845 -2.6299438 -5.8740845 -5.8741455z" fill-rule="evenodd"/><path stroke="#8fe3e8" stroke-width="2.0" stroke-linejoin="round" stroke-linecap="butt" d="m658.8216 161.28621l0 0c0 -3.2442017 2.6299438 -5.8741302 5.8740845 -5.8741302l127.02344 0c1.5578613 0 3.052002 0.6188812 4.1536255 1.7204895c1.1016235 1.1016083 1.720459 2.5957184 1.720459 4.1536407l0 23.49582c0 3.2442017 -2.6299438 5.8741455 -5.8740845 5.8741455l-127.02344 0c-3.2441406 0 -5.8740845 -2.6299438 -5.8740845 -5.8741455z" fill-rule="evenodd"/><path fill="#8fe3e8" d="m699.8298 181.29411l0 -15.96875l1.5625 0l6.484375 12.15625l-0.6875 0l6.4375 -12.15625l1.5625 0l0 15.96875l-1.71875 0l0 -13.484375l0.546875 0l-5.875 11.015625l-1.21875 0l-5.9375 -11.03125l0.546875 0l0 13.5l-1.703125 0zm23.652283 0.203125q-1.609375 0 -2.796875 -0.703125q-1.171875 -0.703125 -1.8125 -1.984375q-0.640625 -1.28125 -0.640625 -3.015625q0 -1.75 0.640625 -3.03125q0.640625 -1.28125 1.8125 -1.984375q1.1875 -0.703125 2.796875 -0.703125q1.609375 0 2.78125 0.703125q1.1875 0.703125 1.828125 1.984375q0.640625 1.28125 0.640625 3.03125q0 1.734375 -0.640625 3.015625q-0.640625 1.28125 -1.828125 1.984375q-1.171875 0.703125 -2.78125 0.703125zm0 -1.46875q1.5625 0 2.484375 -1.09375q0.921875 -1.109375 0.921875 -3.171875q0 -2.03125 -0.921875 -3.109375q-0.921875 -1.09375 -2.484375 -1.09375q-1.546875 0 -2.46875 1.09375q-0.921875 1.078125 -0.921875 3.109375q0 2.0625 0.921875 3.171875q0.921875 1.09375 2.46875 1.09375zm11.110046 1.265625l-4.75 -11.015625l2.0 0l3.9375 9.65625l-0.609375 0l4.015625 -9.65625l1.875 0l-4.75 11.015625l-1.71875 0zm8.199219 -13.75l0 -2.0625l2.265625 0l0 2.0625l-2.265625 0zm0.21875 13.75l0 -11.015625l1.84375 0l0 11.015625l-1.84375 0zm10.224976 0.203125q-1.75 0 -3.015625 -0.6875q-1.25 -0.6875 -1.9375 -1.953125q-0.6875 -1.28125 -0.6875 -3.046875q0 -1.71875 0.671875 -3.0q0.6875 -1.28125 1.875 -2.0q1.1875 -0.734375 2.75 -0.734375q1.5 0 2.5625 0.65625q1.0625 0.65625 1.640625 1.859375q0.578125 1.203125 0.578125 2.875l0 0.703125l-8.671875 0l0 -1.203125l7.453125 0l-0.375 0.296875q0 -1.8125 -0.8125 -2.8125q-0.796875 -1.015625 -2.328125 -1.015625q-1.15625 0 -1.96875 0.53125q-0.796875 0.53125 -1.203125 1.484375q-0.40625 0.9375 -0.40625 2.1875l0 0.125q0 1.390625 0.4375 2.34375q0.4375 0.9375 1.3125 1.4375q0.890625 0.484375 2.125 0.484375q0.96875 0 1.890625 -0.296875q0.921875 -0.3125 1.734375 -1.015625l0.625 1.28125q-0.75 0.6875 -1.90625 1.09375q-1.140625 0.40625 -2.34375 0.40625z" fill-rule="nonzero"/><path fill="#000000" fill-opacity="0.0" d="m216.72966 112.15748l330.2047 53.700783" fill-rule="evenodd"/><path stroke="#8fe3e8" stroke-width="3.0" stroke-linejoin="round" stroke-linecap="butt" d="m216.72966 112.15748l312.4381 50.81144" fill-rule="evenodd"/><path fill="#8fe3e8" stroke="#8fe3e8" stroke-width="3.0" stroke-linecap="butt" d="m528.3724 167.85985l14.233154 -2.7055664l-12.642334 -7.076309z" fill-rule="evenodd"/><path fill="#014063" d="m287.58005 132.07886l0 0c0 -3.2441864 2.6299438 -5.8741302 5.8741455 -5.8741302l146.23596 0c1.5579224 0 3.0520325 0.6188736 4.153656 1.7204895c1.101593 1.1016083 1.7204895 2.5957184 1.7204895 4.1536407l0 23.495834c0 3.2441864 -2.6299438 5.8741302 -5.8741455 5.8741302l-146.23596 0c-3.2442017 0 -5.8741455 -2.6299438 -5.8741455 -5.8741302z" fill-rule="evenodd"/><path stroke="#8fe3e8" stroke-width="2.0" stroke-linejoin="round" stroke-linecap="butt" d="m287.58005 132.07886l0 0c0 -3.2441864 2.6299438 -5.8741302 5.8741455 -5.8741302l146.23596 0c1.5579224 0 3.0520325 0.6188736 4.153656 1.7204895c1.101593 1.1016083 1.7204895 2.5957184 1.7204895 4.1536407l0 23.495834c0 3.2441864 -2.6299438 5.8741302 -5.8741455 5.8741302l-146.23596 0c-3.2442017 0 -5.8741455 -2.6299438 -5.8741455 -5.8741302z" fill-rule="evenodd"/><path fill="#8fe3e8" d="m313.0089 152.08678l7.03125 -15.96875l1.59375 0l7.046875 15.96875l-1.921875 0l-1.96875 -4.546875l0.90625 0.46875l-9.75 0l0.921875 -0.46875l-1.9375 4.546875l-1.921875 0zm7.8125 -13.796875l-3.65625 8.59375l-0.53125 -0.4375l8.375 0l-0.5 0.4375l-3.640625 -8.59375l-0.046875 0zm16.869385 14.0q-2.34375 0 -4.03125 -1.0q-1.671875 -1.0 -2.578125 -2.828125q-0.890625 -1.828125 -0.890625 -4.375q0 -2.53125 0.890625 -4.359375q0.90625 -1.828125 2.578125 -2.8125q1.6875 -1.0 4.03125 -1.0q1.65625 0 3.0625 0.515625q1.40625 0.515625 2.359375 1.515625l-0.71875 1.515625q-1.046875 -0.96875 -2.171875 -1.40625q-1.125 -0.453125 -2.484375 -0.453125q-2.6875 0 -4.125 1.703125q-1.421875 1.703125 -1.421875 4.78125q0 3.078125 1.421875 4.796875q1.4375 1.703125 4.125 1.703125q1.359375 0 2.484375 -0.4375q1.125 -0.4375 2.171875 -1.421875l0.71875 1.53125q-0.953125 0.96875 -2.359375 1.5q-1.40625 0.53125 -3.0625 0.53125zm12.03656 -0.203125l0 -14.359375l-5.796875 0l0 -1.609375l13.484375 0l0 1.609375l-5.8125 0l0 14.359375l-1.875 0zm9.717163 0l0 -15.96875l10.078125 0l0 1.5625l-8.265625 0l0 5.53125l7.796875 0l0 1.5625l-7.796875 0l0 5.75l8.265625 0l0 1.5625l-10.078125 0zm13.208588 0l0 -15.96875l5.390625 0q2.609375 0 4.40625 0.921875q1.8125 0.90625 2.75 2.6875q0.9375 1.78125 0.9375 4.359375q0 2.578125 -0.9375 4.375q-0.9375 1.796875 -2.75 2.71875q-1.796875 0.90625 -4.40625 0.90625l-5.390625 0zm1.859375 -1.578125l3.40625 0q3.140625 0 4.6875 -1.609375q1.5625 -1.609375 1.5625 -4.8125q0 -3.1875 -1.5625 -4.78125q-1.5625 -1.609375 -4.6875 -1.609375l-3.40625 0l0 12.8125zm12.619904 2.78125l0 -1.203125l10.421875 0l0 1.203125l-10.421875 0zm12.8437195 -1.203125l0 -15.96875l1.859375 0l0 15.96875l-1.859375 0zm5.799988 0l0 -15.96875l1.453125 0l10.1718445 13.5625l-0.5468445 0l0 -13.5625l1.7187195 0l0 15.96875l-1.4062195 0l-10.171875 -13.578125l0.53125 0l0 13.578125l-1.75 0z" fill-rule="nonzero"/><path fill="#014063" d="m8.414699 112.15748l0 0c0 -57.524586 46.632893 -104.15748 104.157486 -104.15748l0 0c27.624275 0 54.117134 10.973703 73.65046 30.507019c19.53331 19.533318 30.507019 46.026176 30.507019 73.65046l0 0c0 57.52459 -46.63289 104.15748 -104.15748 104.15748l0 0c-57.52459 0 -104.157486 -46.63289 -104.157486 -104.15748z" fill-rule="evenodd"/><path stroke="#8fe3e8" stroke-width="3.0" stroke-linejoin="round" stroke-linecap="butt" d="m8.414699 112.15748l0 0c0 -57.524586 46.632893 -104.15748 104.157486 -104.15748l0 0c27.624275 0 54.117134 10.973703 73.65046 30.507019c19.53331 19.533318 30.507019 46.026176 30.507019 73.65046l0 0c0 57.52459 -46.63289 104.15748 -104.15748 104.15748l0 0c-57.52459 0 -104.157486 -46.63289 -104.157486 -104.15748z" fill-rule="evenodd"/><path fill="#8fe3e8" d="m90.552925 105.317474l0 -17.53125l-7.109375 0l0 -3.140625l17.953125 0l0 3.140625l-7.09375 0l0 17.53125l-3.75 0zm17.127884 0.296875q-2.234375 0 -3.875 -0.90625q-1.640625 -0.921875 -2.5625 -2.59375q-0.90625 -1.6875 -0.90625 -3.984375q0 -2.28125 0.90625 -3.953125q0.921875 -1.671875 2.5625 -2.578125q1.640625 -0.921875 3.875 -0.921875q2.21875 0 3.859375 0.921875q1.640625 0.90625 2.546875 2.578125q0.921875 1.671875 0.921875 3.953125q0 2.296875 -0.921875 3.984375q-0.90625 1.671875 -2.546875 2.59375q-1.640625 0.90625 -3.859375 0.90625zm0 -2.796875q1.640625 0 2.625 -1.1875q1.0 -1.1875 1.0 -3.53125q0 -2.3125 -1.0 -3.46875q-0.984375 -1.15625 -2.625 -1.15625q-1.65625 0 -2.65625 1.15625q-0.984375 1.15625 -0.984375 3.46875q0 2.34375 0.984375 3.53125q1.0 1.1875 2.65625 1.1875zm10.408615 2.5l0 -14.34375l3.578125 0l0 2.875l-0.328125 0q0.390625 -1.0 1.0625 -1.703125q0.671875 -0.703125 1.609375 -1.078125q0.9375 -0.390625 2.078125 -0.390625q1.734375 0 2.8437576 0.828125q1.125 0.8125 1.5625 2.515625l-0.421875 0q0.59375 -1.546875 1.9375 -2.4375q1.359375 -0.90625 3.109375 -0.90625q1.640625 0 2.703125 0.65625q1.078125 0.640625 1.609375 1.953125q0.53125 1.296875 0.53125 3.296875l0 8.734375l-3.671875 0l0 -8.59375q0 -1.640625 -0.546875 -2.40625q-0.53125 -0.765625 -1.828125 -0.765625q-0.9375 0 -1.640625 0.46875q-0.703125 0.453125 -1.078125 1.296875q-0.359375 0.84375 -0.359375 2.046875l0 7.953125l-3.6562576 0l0 -8.59375q0 -1.640625 -0.546875 -2.40625q-0.546875 -0.765625 -1.8125 -0.765625q-0.953125 0 -1.65625 0.46875q-0.6875 0.453125 -1.0625 1.296875q-0.359375 0.84375 -0.359375 2.046875l0 7.953125l-3.65625 0z" fill-rule="nonzero"/><path fill="#8fe3e8" d="m72.00412 140.31747l0 -20.671875l3.75 0l0 8.625l10.640625 0l0 -8.625l3.75 0l0 20.671875l-3.75 0l0 -8.921875l-10.640625 0l0 8.921875l-3.75 0zm27.029999 0.296875q-1.546875 0 -2.765625 -0.59375q-1.21875 -0.609375 -1.90625 -1.640625q-0.6875 -1.03125 -0.6875 -2.3125q0 -1.59375 0.8125 -2.515625q0.828125 -0.921875 2.671875 -1.328125q1.84375 -0.40625 4.953125 -0.40625l1.46875 0l0 2.109375l-1.4375 0q-1.375 0 -2.3125 0.109375q-0.9375 0.09375 -1.515625 0.3125q-0.5625 0.21875 -0.8125 0.609375q-0.25 0.375 -0.25 0.9375q0 0.96875 0.671875 1.578125q0.671875 0.609375 1.875 0.609375q0.96875 0 1.71875 -0.453125q0.75 -0.453125 1.1875 -1.234375q0.4375 -0.796875 0.4375 -1.828125l0 -3.375q0 -1.46875 -0.65625 -2.109375q-0.640625 -0.640625 -2.15625 -0.640625q-1.203125 0 -2.46875 0.375q-1.265625 0.359375 -2.546875 1.125l-1.0625 -2.5q0.765625 -0.53125 1.796875 -0.921875q1.046875 -0.390625 2.203125 -0.609375q1.171875 -0.234375 2.1875 -0.234375q2.109375 0 3.46875 0.65625q1.375 0.640625 2.046875 1.953125q0.671875 1.296875 0.671875 3.34375l0 8.6875l-3.421875 0l0 -3.046875l0.234375 0q-0.203125 1.015625 -0.8125 1.765625q-0.59375 0.75 -1.515625 1.171875q-0.90625 0.40625 -2.078125 0.40625zm11.32373 -0.296875l0 -14.34375l3.578125 0l0 2.875l-0.328125 0q0.65625 -1.546875 2.015625 -2.359375q1.359375 -0.8125 3.09375 -0.8125q1.734375 0 2.84375 0.65625q1.109375 0.640625 1.671875 1.953125q0.5625 1.296875 0.5625 3.296875l0 8.734375l-3.671875 0l0 -8.5625q0 -1.109375 -0.28125 -1.8125q-0.28125 -0.71875 -0.859375 -1.046875q-0.5625 -0.34375 -1.4375 -0.34375q-1.0625 0 -1.859375 0.46875q-0.78125 0.453125 -1.21875 1.28125q-0.4375 0.828125 -0.4375 1.953125l0 8.0625l-3.671875 0zm17.156937 0l0 -20.671875l3.671875 0l0 12.4375l0.046875 0l5.78125 -6.109375l4.4375 0l-7.21875 7.625l0 -1.515625l7.625 8.234375l-4.484375 0l-6.140625 -6.390625l-0.046875 0l0 6.390625l-3.671875 0zm20.735199 0.296875q-1.203125 0 -2.328125 -0.21875q-1.125 -0.203125 -2.078125 -0.5625q-0.9375 -0.359375 -1.640625 -0.921875l0.9375 -2.40625q0.734375 0.46875 1.578125 0.828125q0.859375 0.34375 1.765625 0.53125q0.921875 0.171875 1.796875 0.171875q1.40625 0 2.09375 -0.484375q0.6875 -0.484375 0.6875 -1.28125q0 -0.671875 -0.453125 -1.03125q-0.453125 -0.375 -1.359375 -0.546875l-2.9375 -0.5625q-1.8125 -0.359375 -2.765625 -1.328125q-0.953125 -0.984375 -0.953125 -2.546875q0 -1.40625 0.765625 -2.421875q0.78125 -1.03125 2.15625 -1.59375q1.390625 -0.5625 3.171875 -0.5625q1.03125 0 2.0 0.203125q0.96875 0.1875 1.828125 0.5625q0.859375 0.359375 1.515625 0.9375l-1.0 2.40625q-0.5625 -0.46875 -1.296875 -0.796875q-0.734375 -0.34375 -1.515625 -0.53125q-0.765625 -0.1875 -1.5 -0.1875q-1.4375 0 -2.125 0.5q-0.6875 0.484375 -0.6875 1.3125q0 0.609375 0.40625 1.03125q0.40625 0.40625 1.265625 0.546875l2.9375 0.5625q1.90625 0.34375 2.875 1.296875q0.984375 0.9375 0.984375 2.515625q0 1.4375 -0.765625 2.46875q-0.75 1.015625 -2.140625 1.5625q-1.375 0.546875 -3.21875 0.546875z" fill-rule="nonzero"/><path fill="#014063" d="m134.81894 17.945l0 0c0 -3.244195 2.6299438 -5.874133 5.8741455 -5.874133l127.02338 0c1.5579224 0 3.0520325 0.6188793 4.153656 1.7204933c1.101593 1.101614 1.7204895 2.5957232 1.7204895 4.15364l0 23.495827c0 3.244194 -2.6299438 5.874134 -5.8741455 5.874134l-127.02338 0c-3.2442017 0 -5.8741455 -2.62994 -5.8741455 -5.874134z" fill-rule="evenodd"/><path stroke="#8fe3e8" stroke-width="2.0" stroke-linejoin="round" stroke-linecap="butt" d="m134.81894 17.945l0 0c0 -3.244195 2.6299438 -5.874133 5.8741455 -5.874133l127.02338 0c1.5579224 0 3.0520325 0.6188793 4.153656 1.7204933c1.101593 1.101614 1.7204895 2.5957232 1.7204895 4.15364l0 23.495827c0 3.244194 -2.6299438 5.874134 -5.8741455 5.874134l-127.02338 0c-3.2442017 0 -5.8741455 -2.62994 -5.8741455 -5.874134z" fill-rule="evenodd"/><path fill="#8fe3e8" d="m171.04523 37.95291l0 -15.968748l6.328125 0q1.71875 0 2.90625 0.5625q1.1875 0.546875 1.796875 1.625q0.609375 1.078125 0.609375 2.609375q0 1.5 -0.609375 2.59375q-0.609375 1.078125 -1.796875 1.65625q-1.1875 0.5625 -2.90625 0.5625l-4.46875 0l0 6.359373l-1.859375 0zm1.859375 -7.921873l4.234375 0q1.84375 0 2.78125 -0.828125q0.9375 -0.828125 0.9375 -2.421875q0 -1.609375 -0.9375 -2.4375q-0.9375 -0.828125 -2.78125 -0.828125l-4.234375 0l0 6.515625zm16.702072 8.124998q-1.75 0 -3.015625 -0.6875q-1.25 -0.6875 -1.9375 -1.953125q-0.6875 -1.28125 -0.6875 -3.046875q0 -1.7187481 0.671875 -2.999998q0.6875 -1.28125 1.875 -2.0q1.1875 -0.734375 2.75 -0.734375q1.5 0 2.5625 0.65625q1.0625 0.65625 1.640625 1.859375q0.578125 1.203125 0.578125 2.874998l0 0.703125l-8.671875 0l0 -1.2031231l7.453125 0l-0.375 0.296875q0 -1.8125 -0.8125 -2.8125q-0.796875 -1.015625 -2.328125 -1.015625q-1.15625 0 -1.96875 0.53125q-0.796875 0.53125 -1.203125 1.484375q-0.40625 0.9375 -0.40625 2.187498l0 0.125q0 1.390625 0.4375 2.34375q0.4375 0.9375 1.3125 1.4375q0.890625 0.484375 2.125 0.484375q0.96875 0 1.890625 -0.296875q0.921875 -0.3125 1.734375 -1.015625l0.625 1.28125q-0.75 0.6875 -1.90625 1.09375q-1.140625 0.40625 -2.34375 0.40625zm7.0843506 -0.203125l0 -11.015623l1.796875 0l0 2.609375l-0.234375 0q0.390625 -1.328125 1.34375 -2.015625q0.953125 -0.703125 2.515625 -0.8125l0.65625 -0.078125l0.125 1.59375l-1.140625 0.140625q-1.546875 0.125 -2.375 0.984375q-0.828125 0.84375 -0.828125 2.3125l0 6.281248l-1.859375 0zm11.716339 0.203125q-0.859375 0 -1.671875 -0.171875q-0.796875 -0.171875 -1.5 -0.46875q-0.6875 -0.3125 -1.171875 -0.734375l0.578125 -1.296875q0.546875 0.4375 1.171875 0.71875q0.640625 0.28125 1.296875 0.421875q0.65625 0.125 1.34375 0.125q1.296875 0 1.953125 -0.46875q0.65625 -0.484375 0.65625 -1.296875q0 -0.640625 -0.4375 -1.0q-0.421875 -0.375 -1.359375 -0.578125l-2.0625 -0.453125q-1.421875 -0.296875 -2.125 -1.0156231q-0.6875 -0.734375 -0.6875 -1.890625q0 -1.015625 0.53125 -1.75q0.53125 -0.75 1.5 -1.15625q0.984375 -0.40625 2.28125 -0.40625q0.765625 0 1.46875 0.171875q0.703125 0.15625 1.328125 0.46875q0.625 0.296875 1.078125 0.75l-0.609375 1.28125q-0.4375 -0.40625 -0.984375 -0.6875q-0.546875 -0.28125 -1.125 -0.421875q-0.5625 -0.15625 -1.15625 -0.15625q-1.265625 0 -1.921875 0.5q-0.65625 0.5 -0.65625 1.3125q0 0.640625 0.40625 1.046875q0.40625 0.40625 1.265625 0.59375l2.0625 0.4218731q1.46875 0.3125 2.203125 1.015625q0.734375 0.6875 0.734375 1.859375q0 1.0 -0.546875 1.734375q-0.53125 0.734375 -1.515625 1.140625q-0.984375 0.390625 -2.328125 0.390625zm11.757004 0q-1.609375 0 -2.796875 -0.703125q-1.171875 -0.703125 -1.8125 -1.984375q-0.640625 -1.28125 -0.640625 -3.015625q0 -1.7499981 0.640625 -3.031248q0.640625 -1.28125 1.8125 -1.984375q1.1875 -0.703125 2.796875 -0.703125q1.609375 0 2.78125 0.703125q1.1875 0.703125 1.828125 1.984375q0.640625 1.28125 0.640625 3.031248q0 1.734375 -0.640625 3.015625q-0.640625 1.28125 -1.828125 1.984375q-1.171875 0.703125 -2.78125 0.703125zm0 -1.46875q1.5625 0 2.484375 -1.09375q0.921875 -1.109375 0.921875 -3.171875q0 -2.031248 -0.921875 -3.109373q-0.921875 -1.09375 -2.484375 -1.09375q-1.546875 0 -2.46875 1.09375q-0.921875 1.078125 -0.921875 3.109373q0 2.0625 0.921875 3.171875q0.921875 1.09375 2.46875 1.09375zm8.018723 1.265625l0 -11.015623l1.796875 0l0 2.453125l-0.25 0q0.46875 -1.3125 1.546875 -1.984375q1.078125 -0.671875 2.484375 -0.671875q1.3125 0 2.1875 0.46875q0.875 0.46875 1.296875 1.4375q0.4375 0.96875 0.4375 2.453125l0 6.859373l-1.84375 0l0 -6.749998q0 -1.015625 -0.265625 -1.671875q-0.25 -0.65625 -0.8125 -0.96875q-0.546875 -0.328125 -1.4375 -0.328125q-0.984375 0 -1.734375 0.4375q-0.75 0.421875 -1.15625 1.203125q-0.40625 0.765625 -0.40625 1.796875l0 6.281248l-1.84375 0z" fill-rule="nonzero"/><path fill="#014063" d="m8.0 343.65616l0 0c0 -57.524567 46.632893 -104.15747 104.15748 -104.15747l0 0c27.62429 0 54.11715 10.973709 73.65046 30.507019c19.533325 19.533325 30.507019 46.026184 30.507019 73.65045l0 0c0 57.524597 -46.63289 104.1575 -104.15748 104.1575l0 0c-57.524586 0 -104.15748 -46.632904 -104.15748 -104.1575z" fill-rule="evenodd"/><path stroke="#8fe3e8" stroke-width="3.0" stroke-linejoin="round" stroke-linecap="butt" d="m8.0 343.65616l0 0c0 -57.524567 46.632893 -104.15747 104.15748 -104.15747l0 0c27.62429 0 54.11715 10.973709 73.65046 30.507019c19.533325 19.533325 30.507019 46.026184 30.507019 73.65045l0 0c0 57.524597 -46.63289 104.1575 -104.15748 104.1575l0 0c-57.524586 0 -104.15748 -46.632904 -104.15748 -104.1575z" fill-rule="evenodd"/><path fill="#8fe3e8" d="m81.317055 337.0818l-0.265625 -3.078125l2.078125 -0.125q0.890625 -0.046875 1.453125 -0.390625q0.578125 -0.34375 0.875 -0.96875q0.296875 -0.625 0.296875 -1.515625l0 -14.859375l3.75 0l0 14.828125q0 1.859375 -0.65625 3.15625q-0.640625 1.28125 -1.9375 1.984375q-1.28125 0.703125 -3.1875 0.84375l-2.40625 0.125zm18.895859 0.03125q-2.234375 0 -3.875 -0.90625q-1.640625 -0.921875 -2.5625 -2.59375q-0.90625 -1.6875 -0.90625 -3.984375q0 -2.28125 0.90625 -3.953125q0.921875 -1.671875 2.5625 -2.578125q1.640625 -0.921875 3.875 -0.921875q2.21875 0 3.859375 0.921875q1.640625 0.90625 2.546875 2.578125q0.921875 1.671875 0.921875 3.953125q0 2.296875 -0.921875 3.984375q-0.90625 1.671875 -2.546875 2.59375q-1.640625 0.90625 -3.859375 0.90625zm0 -2.796875q1.640625 0 2.625 -1.1875q1.0 -1.1875 1.0 -3.53125q0 -2.3125 -1.0 -3.46875q-0.984375 -1.15625 -2.625 -1.15625q-1.65625 0 -2.65625 1.15625q-0.984375 1.15625 -0.984375 3.46875q0 2.34375 0.984375 3.53125q1.0 1.1875 2.65625 1.1875zm10.346115 2.5l0 -20.671875l3.671875 0l0 9.203125l-0.421875 0q0.65625 -1.546875 2.015625 -2.359375q1.359375 -0.8125 3.09375 -0.8125q1.734375 0 2.84375 0.65625q1.109375 0.640625 1.671875 1.953125q0.5625 1.296875 0.5625 3.296875l0 8.734375l-3.671875 0l0 -8.5625q0 -1.109375 -0.28125 -1.8125q-0.28125 -0.71875 -0.859375 -1.046875q-0.5625 -0.34375 -1.4375 -0.34375q-1.0625 0 -1.859375 0.46875q-0.78125 0.453125 -1.21875 1.28125q-0.4375 0.828125 -0.4375 1.953125l0 8.0625l-3.671875 0zm17.156937 0l0 -14.34375l3.5781326 0l0 2.875l-0.328125 0q0.65625 -1.546875 2.015625 -2.359375q1.359375 -0.8125 3.09375 -0.8125q1.734375 0 2.84375 0.65625q1.109375 0.640625 1.671875 1.953125q0.5625 1.296875 0.5625 3.296875l0 8.734375l-3.671875 0l0 -8.5625q0 -1.109375 -0.28125 -1.8125q-0.28125 -0.71875 -0.859375 -1.046875q-0.5625 -0.34375 -1.4375 -0.34375q-1.0625 0 -1.859375 0.46875q-0.78125 0.453125 -1.21875 1.28125q-0.4375 0.828125 -0.4375 1.953125l0 8.0625l-3.6718826 0z" fill-rule="nonzero"/><path fill="#8fe3e8" d="m56.676086 371.81616l0 -20.671875l3.75 0l0 17.46875l9.90625 0l0 3.203125l-13.65625 0zm20.841766 0.296875q-1.546875 0 -2.765625 -0.59375q-1.21875 -0.609375 -1.90625 -1.640625q-0.6875 -1.03125 -0.6875 -2.3125q0 -1.59375 0.8125 -2.515625q0.828125 -0.921875 2.671875 -1.328125q1.84375 -0.40625 4.953125 -0.40625l1.46875 0l0 2.109375l-1.4375 0q-1.375 0 -2.3125 0.109375q-0.9375 0.09375 -1.515625 0.3125q-0.5625 0.21875 -0.8125 0.609375q-0.25 0.375 -0.25 0.9375q0 0.96875 0.671875 1.578125q0.671875 0.609375 1.875 0.609375q0.96875 0 1.71875 -0.453125q0.75 -0.453125 1.1875 -1.234375q0.4375 -0.796875 0.4375 -1.828125l0 -3.375q0 -1.46875 -0.65625 -2.109375q-0.640625 -0.640625 -2.15625 -0.640625q-1.203125 0 -2.46875 0.375q-1.265625 0.359375 -2.546875 1.125l-1.0625 -2.5q0.765625 -0.53125 1.796875 -0.921875q1.046875 -0.390625 2.203125 -0.609375q1.171875 -0.234375 2.1875 -0.234375q2.109375 0 3.46875 0.65625q1.375 0.640625 2.046875 1.953125q0.671875 1.296875 0.671875 3.34375l0 8.6875l-3.421875 0l0 -3.046875l0.234375 0q-0.203125 1.015625 -0.8125 1.765625q-0.59375 0.75 -1.515625 1.171875q-0.90625 0.40625 -2.078125 0.40625zm16.57373 0q-1.203125 0 -2.328125 -0.21875q-1.125 -0.203125 -2.078125 -0.5625q-0.9375 -0.359375 -1.640625 -0.921875l0.9375 -2.40625q0.734375 0.46875 1.578125 0.828125q0.859375 0.34375 1.765625 0.53125q0.921875 0.171875 1.796875 0.171875q1.40625 0 2.09375 -0.484375q0.6875 -0.484375 0.6875 -1.28125q0 -0.671875 -0.453125 -1.03125q-0.453125 -0.375 -1.359375 -0.546875l-2.9375 -0.5625q-1.8125 -0.359375 -2.765625 -1.328125q-0.953125 -0.984375 -0.953125 -2.546875q0 -1.40625 0.765625 -2.421875q0.78125 -1.03125 2.15625 -1.59375q1.390625 -0.5625 3.171875 -0.5625q1.03125 0 2.0 0.203125q0.96875 0.1875 1.828125 0.5625q0.859375 0.359375 1.515625 0.9375l-1.0 2.40625q-0.5625 -0.46875 -1.296875 -0.796875q-0.734375 -0.34375 -1.515625 -0.53125q-0.765625 -0.1875 -1.5 -0.1875q-1.4375 0 -2.125 0.5q-0.6875 0.484375 -0.6875 1.3125q0 0.609375 0.40625 1.03125q0.40625 0.40625 1.265625 0.546875l2.9375 0.5625q1.90625 0.34375 2.875 1.296875q0.984375 0.9375 0.984375 2.515625q0 1.4375 -0.765625 2.46875q-0.75 1.015625 -2.140625 1.5625q-1.375 0.546875 -3.21875 0.546875zm14.312119 0q-1.203125 0 -2.328125 -0.21875q-1.125 -0.203125 -2.078125 -0.5625q-0.9375 -0.359375 -1.640625 -0.921875l0.9375 -2.40625q0.734375 0.46875 1.578125 0.828125q0.859375 0.34375 1.765625 0.53125q0.921875 0.171875 1.796875 0.171875q1.40625 0 2.09375 -0.484375q0.6875 -0.484375 0.6875 -1.28125q0 -0.671875 -0.453125 -1.03125q-0.453125 -0.375 -1.359375 -0.546875l-2.9375 -0.5625q-1.8125 -0.359375 -2.765625 -1.328125q-0.953125 -0.984375 -0.953125 -2.546875q0 -1.40625 0.765625 -2.421875q0.78125 -1.03125 2.15625 -1.59375q1.390625 -0.5625 3.171875 -0.5625q1.03125 0 2.0 0.203125q0.96875 0.1875 1.828125 0.5625q0.859375 0.359375 1.515625 0.9375l-1.0 2.40625q-0.5625 -0.46875 -1.296875 -0.796875q-0.734375 -0.34375 -1.515625 -0.53125q-0.765625 -0.1875 -1.5 -0.1875q-1.4375 0 -2.125 0.5q-0.6875 0.484375 -0.6875 1.3125q0 0.609375 0.40625 1.03125q0.40625 0.40625 1.265625 0.546875l2.9375 0.5625q1.90625 0.34375 2.875 1.296875q0.984375 0.9375 0.984375 2.515625q0 1.4375 -0.765625 2.46875q-0.75 1.015625 -2.140625 1.5625q-1.375 0.546875 -3.21875 0.546875zm16.124619 0q-2.421875 0 -4.1875 -0.90625q-1.765625 -0.921875 -2.71875 -2.59375q-0.953125 -1.671875 -0.953125 -3.953125q0 -2.234375 0.921875 -3.90625q0.9375 -1.671875 2.5625 -2.625q1.625 -0.953125 3.703125 -0.953125q2.0625 0 3.515625 0.890625q1.46875 0.875 2.28125 2.484375q0.8125 1.609375 0.8125 3.84375l0 1.09375l-10.828125 0l0 -2.125l8.234375 0l-0.46875 0.453125q0 -2.0 -0.875 -3.0625q-0.875 -1.078125 -2.515625 -1.078125q-1.234375 0 -2.109375 0.578125q-0.859375 0.5625 -1.3125 1.609375q-0.453125 1.03125 -0.453125 2.46875l0 0.21875q0 1.609375 0.5 2.671875q0.5 1.046875 1.484375 1.578125q1.0 0.515625 2.46875 0.515625q1.203125 0 2.40625 -0.359375q1.203125 -0.359375 2.203125 -1.15625l1.015625 2.46875q-1.015625 0.84375 -2.578125 1.34375q-1.546875 0.5 -3.109375 0.5zm15.337158 0q-2.859375 0 -4.28125 -1.4375q-1.40625 -1.4375 -1.40625 -4.203125l0 -6.234375l-2.75 0l0 -2.765625l2.75 0l0 -4.28125l3.671875 0l0 4.28125l4.34375 0l0 2.765625l-4.34375 0l0 6.03125q0 1.40625 0.609375 2.109375q0.625 0.703125 2.0 0.703125q0.40625 0 0.84375 -0.09375q0.453125 -0.109375 0.921875 -0.21875l0.546875 2.6875q-0.53125 0.296875 -1.34375 0.46875q-0.796875 0.1875 -1.5625 0.1875zm11.615326 0q-2.421875 0 -4.1875 -0.90625q-1.765625 -0.921875 -2.71875 -2.59375q-0.953125 -1.671875 -0.953125 -3.953125q0 -2.234375 0.921875 -3.90625q0.9375 -1.671875 2.5625 -2.625q1.625 -0.953125 3.703125 -0.953125q2.0625 0 3.515625 0.890625q1.46875 0.875 2.28125 2.484375q0.8125 1.609375 0.8125 3.84375l0 1.09375l-10.828125 0l0 -2.125l8.234375 0l-0.46875 0.453125q0 -2.0 -0.875 -3.0625q-0.875 -1.078125 -2.515625 -1.078125q-1.234375 0 -2.109375 0.578125q-0.859375 0.5625 -1.3125 1.609375q-0.453125 1.03125 -0.453125 2.46875l0 0.21875q0 1.609375 0.5 2.671875q0.5 1.046875 1.484375 1.578125q1.0 0.515625 2.46875 0.515625q1.203125 0 2.40625 -0.359375q1.203125 -0.359375 2.203125 -1.15625l1.015625 2.46875q-1.015625 0.84375 -2.578125 1.34375q-1.546875 0.5 -3.109375 0.5zm8.833328 -0.296875l0 -14.34375l3.578125 0l0 3.46875l-0.296875 0q0.421875 -1.765625 1.609375 -2.6875q1.203125 -0.921875 3.203125 -1.078125l1.109375 -0.078125l0.234375 3.109375l-2.109375 0.203125q-1.78125 0.171875 -2.703125 1.09375q-0.90625 0.921875 -0.90625 2.59375l0 7.71875l-3.71875 0z" fill-rule="nonzero"/><path fill="#014063" d="m126.40425 241.44368l0 0c0 -3.2441864 2.6299286 -5.8741302 5.8741302 -5.8741302l127.02338 0c1.5579224 0 3.0520325 0.6188812 4.153656 1.7205048c1.101593 1.1016083 1.7204895 2.5957184 1.7204895 4.1536255l0 23.495834c0 3.2442017 -2.6299438 5.8741455 -5.8741455 5.8741455l-127.02338 0c-3.2442017 0 -5.8741302 -2.6299438 -5.8741302 -5.8741455z" fill-rule="evenodd"/><path stroke="#8fe3e8" stroke-width="2.0" stroke-linejoin="round" stroke-linecap="butt" d="m126.40425 241.44368l0 0c0 -3.2441864 2.6299286 -5.8741302 5.8741302 -5.8741302l127.02338 0c1.5579224 0 3.0520325 0.6188812 4.153656 1.7205048c1.101593 1.1016083 1.7204895 2.5957184 1.7204895 4.1536255l0 23.495834c0 3.2442017 -2.6299438 5.8741455 -5.8741455 5.8741455l-127.02338 0c-3.2442017 0 -5.8741302 -2.6299438 -5.8741302 -5.8741455z" fill-rule="evenodd"/><path fill="#8fe3e8" d="m162.63052 261.4516l0 -15.96875l6.328125 0q1.71875 0 2.90625 0.5625q1.1875 0.546875 1.796875 1.625q0.609375 1.078125 0.609375 2.609375q0 1.5 -0.609375 2.59375q-0.609375 1.078125 -1.796875 1.65625q-1.1875 0.5625 -2.90625 0.5625l-4.46875 0l0 6.359375l-1.859375 0zm1.859375 -7.921875l4.234375 0q1.84375 0 2.78125 -0.828125q0.9375 -0.828125 0.9375 -2.421875q0 -1.609375 -0.9375 -2.4375q-0.9375 -0.828125 -2.78125 -0.828125l-4.234375 0l0 6.515625zm16.702072 8.125q-1.75 0 -3.015625 -0.6875q-1.25 -0.6875 -1.9375 -1.953125q-0.6875 -1.28125 -0.6875 -3.046875q0 -1.71875 0.671875 -3.0q0.6875 -1.28125 1.875 -2.0q1.1875 -0.734375 2.75 -0.734375q1.5 0 2.5625 0.65625q1.0625 0.65625 1.640625 1.859375q0.578125 1.203125 0.578125 2.875l0 0.703125l-8.671875 0l0 -1.203125l7.453125 0l-0.375 0.296875q0 -1.8125 -0.8125 -2.8125q-0.796875 -1.015625 -2.328125 -1.015625q-1.15625 0 -1.96875 0.53125q-0.796875 0.53125 -1.203125 1.484375q-0.40625 0.9375 -0.40625 2.1875l0 0.125q0 1.390625 0.4375 2.34375q0.4375 0.9375 1.3125 1.4375q0.890625 0.484375 2.125 0.484375q0.96875 0 1.890625 -0.296875q0.921875 -0.3125 1.734375 -1.015625l0.625 1.28125q-0.75 0.6875 -1.90625 1.09375q-1.140625 0.40625 -2.34375 0.40625zm7.0843506 -0.203125l0 -11.015625l1.796875 0l0 2.609375l-0.234375 0q0.390625 -1.328125 1.34375 -2.015625q0.953125 -0.703125 2.515625 -0.8125l0.65625 -0.078125l0.125 1.59375l-1.140625 0.140625q-1.546875 0.125 -2.375 0.984375q-0.828125 0.84375 -0.828125 2.3125l0 6.28125l-1.859375 0zm11.716339 0.203125q-0.859375 0 -1.671875 -0.171875q-0.796875 -0.171875 -1.5 -0.46875q-0.6875 -0.3125 -1.171875 -0.734375l0.578125 -1.296875q0.546875 0.4375 1.171875 0.71875q0.640625 0.28125 1.296875 0.421875q0.65625 0.125 1.34375 0.125q1.296875 0 1.953125 -0.46875q0.65625 -0.484375 0.65625 -1.296875q0 -0.640625 -0.4375 -1.0q-0.421875 -0.375 -1.359375 -0.578125l-2.0625 -0.453125q-1.421875 -0.296875 -2.125 -1.015625q-0.6875 -0.734375 -0.6875 -1.890625q0 -1.015625 0.53125 -1.75q0.53125 -0.75 1.5 -1.15625q0.984375 -0.40625 2.28125 -0.40625q0.765625 0 1.46875 0.171875q0.703125 0.15625 1.328125 0.46875q0.625 0.296875 1.078125 0.75l-0.609375 1.28125q-0.4375 -0.40625 -0.984375 -0.6875q-0.546875 -0.28125 -1.125 -0.421875q-0.5625 -0.15625 -1.15625 -0.15625q-1.265625 0 -1.921875 0.5q-0.65625 0.5 -0.65625 1.3125q0 0.640625 0.40625 1.046875q0.40625 0.40625 1.265625 0.59375l2.0625 0.421875q1.46875 0.3125 2.203125 1.015625q0.734375 0.6875 0.734375 1.859375q0 1.0 -0.546875 1.734375q-0.53125 0.734375 -1.515625 1.140625q-0.984375 0.390625 -2.328125 0.390625zm11.757004 0q-1.609375 0 -2.796875 -0.703125q-1.171875 -0.703125 -1.8125 -1.984375q-0.640625 -1.28125 -0.640625 -3.015625q0 -1.75 0.640625 -3.03125q0.640625 -1.28125 1.8125 -1.984375q1.1875 -0.703125 2.796875 -0.703125q1.609375 0 2.78125 0.703125q1.1875 0.703125 1.828125 1.984375q0.640625 1.28125 0.640625 3.03125q0 1.734375 -0.640625 3.015625q-0.640625 1.28125 -1.828125 1.984375q-1.171875 0.703125 -2.78125 0.703125zm0 -1.46875q1.5625 0 2.484375 -1.09375q0.921875 -1.109375 0.921875 -3.171875q0 -2.03125 -0.921875 -3.109375q-0.921875 -1.09375 -2.484375 -1.09375q-1.546875 0 -2.46875 1.09375q-0.921875 1.078125 -0.921875 3.109375q0 2.0625 0.921875 3.171875q0.921875 1.09375 2.46875 1.09375zm8.018723 1.265625l0 -11.015625l1.796875 0l0 2.453125l-0.25 0q0.46875 -1.3125 1.546875 -1.984375q1.078125 -0.671875 2.484375 -0.671875q1.3125 0 2.1875 0.46875q0.875 0.46875 1.296875 1.4375q0.4375 0.96875 0.4375 2.453125l0 6.859375l-1.84375 0l0 -6.75q0 -1.015625 -0.265625 -1.671875q-0.25 -0.65625 -0.8125 -0.96875q-0.546875 -0.328125 -1.4375 -0.328125q-0.984375 0 -1.734375 0.4375q-0.75 0.421875 -1.15625 1.203125q-0.40625 0.765625 -0.40625 1.796875l0 6.28125l-1.84375 0z" fill-rule="nonzero"/><path fill="#000000" fill-opacity="0.0" d="m216.31496 343.65616l330.6142 -30.519684" fill-rule="evenodd"/><path stroke="#8fe3e8" stroke-width="3.0" stroke-linejoin="round" stroke-linecap="butt" d="m216.31496 343.65616l312.69037 -28.865082" fill-rule="evenodd"/><path fill="#8fe3e8" stroke="#8fe3e8" stroke-width="3.0" stroke-linecap="butt" d="m529.4608 319.72528l13.101196 -6.185669l-14.012146 -3.6827698z" fill-rule="evenodd"/><path fill="#014063" d="m295.3701 319.7324l0 0c0 -3.2441711 2.6299133 -5.874115 5.874115 -5.874115l146.236 0c1.5579224 0 3.0520325 0.61886597 4.1536255 1.7204895c1.1016235 1.1016235 1.7204895 2.5957031 1.7204895 4.1536255l0 23.49585c0 3.2441711 -2.6299133 5.874115 -5.874115 5.874115l-146.236 0c-3.2442017 0 -5.874115 -2.6299438 -5.874115 -5.874115z" fill-rule="evenodd"/><path stroke="#8fe3e8" stroke-width="2.0" stroke-linejoin="round" stroke-linecap="butt" d="m295.3701 319.7324l0 0c0 -3.2441711 2.6299133 -5.874115 5.874115 -5.874115l146.236 0c1.5579224 0 3.0520325 0.61886597 4.1536255 1.7204895c1.1016235 1.1016235 1.7204895 2.5957031 1.7204895 4.1536255l0 23.49585c0 3.2441711 -2.6299133 5.874115 -5.874115 5.874115l-146.236 0c-3.2442017 0 -5.874115 -2.6299438 -5.874115 -5.874115z" fill-rule="evenodd"/><path fill="#8fe3e8" d="m321.537 339.74033l0 -15.96875l5.390625 0q2.609375 0 4.40625 0.921875q1.8125 0.90625 2.75 2.6875q0.9375 1.78125 0.9375 4.359375q0 2.578125 -0.9375 4.375q-0.9375 1.796875 -2.75 2.71875q-1.796875 0.90625 -4.40625 0.90625l-5.390625 0zm1.859375 -1.578125l3.40625 0q3.140625 0 4.6875 -1.609375q1.5625 -1.609375 1.5625 -4.8125q0 -3.1875 -1.5625 -4.78125q-1.5625 -1.609375 -4.6875 -1.609375l-3.40625 0l0 12.8125zm14.951538 1.578125l0 -15.96875l1.859375 0l0 15.96875l-1.859375 0zm5.799988 0l0 -15.96875l6.328125 0q2.5625 0 3.9375 1.203125q1.375 1.1875 1.375 3.421875q0 1.390625 -0.625 2.421875q-0.609375 1.03125 -1.8125 1.578125q-1.203125 0.53125 -2.875 0.53125l0.21875 -0.296875l0.453125 0q0.890625 0 1.546875 0.453125q0.65625 0.453125 1.203125 1.453125l2.796875 5.203125l-2.03125 0l-2.765625 -5.125q-0.34375 -0.625 -0.765625 -0.984375q-0.40625 -0.375 -0.953125 -0.5q-0.53125 -0.140625 -1.265625 -0.140625l-2.90625 0l0 6.75l-1.859375 0zm1.859375 -8.21875l4.1875 0q1.859375 0 2.8125 -0.78125q0.953125 -0.78125 0.953125 -2.34375q0 -1.53125 -0.953125 -2.3125q-0.953125 -0.78125 -2.8125 -0.78125l-4.1875 0l0 6.21875zm13.297607 8.21875l0 -15.96875l10.078125 0l0 1.5625l-8.265625 0l0 5.53125l7.796875 0l0 1.5625l-7.796875 0l0 5.75l8.265625 0l0 1.5625l-10.078125 0zm20.046844 0.203125q-2.34375 0 -4.03125 -1.0q-1.671875 -1.0 -2.578125 -2.828125q-0.890625 -1.828125 -0.890625 -4.375q0 -2.53125 0.890625 -4.359375q0.90625 -1.828125 2.578125 -2.8125q1.6875 -1.0 4.03125 -1.0q1.65625 0 3.0625 0.515625q1.40625 0.515625 2.359375 1.515625l-0.71875 1.515625q-1.046875 -0.96875 -2.171875 -1.40625q-1.125 -0.453125 -2.484375 -0.453125q-2.6875 0 -4.125 1.703125q-1.421875 1.703125 -1.421875 4.78125q0 3.078125 1.421875 4.796875q1.4375 1.703125 4.125 1.703125q1.359375 0 2.484375 -0.4375q1.125 -0.4375 2.171875 -1.421875l0.71875 1.53125q-0.953125 0.96875 -2.359375 1.5q-1.40625 0.53125 -3.0625 0.53125zm12.03656 -0.203125l0 -14.359375l-5.796875 0l0 -1.609375l13.484375 0l0 1.609375l-5.8125 0l0 14.359375l-1.875 0zm9.717163 0l0 -15.96875l10.078125 0l0 1.5625l-8.265625 0l0 5.53125l7.796875 0l0 1.5625l-7.796875 0l0 5.75l8.265625 0l0 1.5625l-10.078125 0zm13.208588 0l0 -15.96875l5.390625 0q2.609375 0 4.40625 0.921875q1.8125 0.90625 2.75 2.6875q0.9375 1.78125 0.9375 4.359375q0 2.578125 -0.9375 4.375q-0.9375 1.796875 -2.75 2.71875q-1.796875 0.90625 -4.40625 0.90625l-5.390625 0zm1.859375 -1.578125l3.40625 0q3.140625 0 4.6875 -1.609375q1.5625 -1.609375 1.5625 -4.8125q0 -3.1875 -1.5625 -4.78125q-1.5625 -1.609375 -4.6875 -1.609375l-3.40625 0l0 12.8125z" fill-rule="nonzero"/><path fill="#014063" d="m148.59848 58.787518l0 0c0 -3.244194 2.6299286 -5.8741302 5.8741302 -5.8741302l127.02339 0c1.5579224 0 3.0520325 0.6188774 4.1536255 1.7204933c1.1016235 1.1016121 1.7204895 2.5957222 1.7204895 4.153637l0 23.49583c0 3.244194 -2.6299438 5.8741302 -5.874115 5.8741302l-127.02339 0c-3.2442017 0 -5.8741302 -2.6299362 -5.8741302 -5.8741302z" fill-rule="evenodd"/><path stroke="#8fe3e8" stroke-width="2.0" stroke-linejoin="round" stroke-linecap="butt" d="m148.59848 58.787518l0 0c0 -3.244194 2.6299286 -5.8741302 5.8741302 -5.8741302l127.02339 0c1.5579224 0 3.0520325 0.6188774 4.1536255 1.7204933c1.1016235 1.1016121 1.7204895 2.5957222 1.7204895 4.153637l0 23.49583c0 3.244194 -2.6299438 5.8741302 -5.874115 5.8741302l-127.02339 0c-3.2442017 0 -5.8741302 -2.6299362 -5.8741302 -5.8741302z" fill-rule="evenodd"/><path fill="#8fe3e8" d="m190.71332 78.79543l7.03125 -15.96875l1.59375 0l7.046875 15.96875l-1.921875 0l-1.96875 -4.546875l0.90625 0.46875l-9.75 0l0.921875 -0.46875l-1.9375 4.546875l-1.921875 0zm7.8125 -13.796875l-3.65625 8.59375l-0.53125 -0.4375l8.375 0l-0.5 0.4375l-3.640625 -8.59375l-0.046875 0zm14.543671 14.0q-1.65625 0 -2.859375 -0.71875q-1.203125 -0.734375 -1.84375 -2.03125q-0.640625 -1.296875 -0.640625 -3.03125q0 -1.734375 0.640625 -3.0q0.640625 -1.28125 1.84375 -1.953125q1.203125 -0.6875 2.859375 -0.6875q1.015625 0 2.015625 0.375q1.0 0.359375 1.65625 1.015625l-0.640625 1.328125q-0.65625 -0.625 -1.4375 -0.921875q-0.78125 -0.296875 -1.484375 -0.296875q-1.71875 0 -2.65625 1.078125q-0.921875 1.078125 -0.921875 3.09375q0 1.96875 0.921875 3.109375q0.9375 1.140625 2.65625 1.140625q0.703125 0 1.484375 -0.28125q0.78125 -0.296875 1.4375 -0.953125l0.640625 1.328125q-0.65625 0.65625 -1.671875 1.03125q-1.0 0.375 -2.0 0.375zm10.239822 0q-1.953125 0 -2.921875 -1.03125q-0.96875 -1.046875 -0.96875 -2.984375l0 -5.765625l-2.15625 0l0 -1.4375l2.15625 0l0 -3.375l1.828125 0l0 3.375l3.484375 0l0 1.4375l-3.484375 0l0 5.59375q0 1.28125 0.546875 1.953125q0.546875 0.671875 1.765625 0.671875q0.359375 0 0.71875 -0.09375q0.359375 -0.09375 0.65625 -0.171875l0.328125 1.40625q-0.296875 0.15625 -0.875 0.28125q-0.5625 0.140625 -1.078125 0.140625zm7.972595 0q-1.609375 0 -2.796875 -0.703125q-1.171875 -0.703125 -1.8125 -1.984375q-0.640625 -1.28125 -0.640625 -3.015625q0 -1.75 0.640625 -3.03125q0.640625 -1.28125 1.8125 -1.984375q1.1875 -0.703125 2.796875 -0.703125q1.609375 0 2.78125 0.703125q1.1875 0.703125 1.828125 1.984375q0.640625 1.28125 0.640625 3.03125q0 1.734375 -0.640625 3.015625q-0.640625 1.28125 -1.828125 1.984375q-1.171875 0.703125 -2.78125 0.703125zm0 -1.46875q1.5625 0 2.484375 -1.09375q0.921875 -1.109375 0.921875 -3.171875q0 -2.03125 -0.921875 -3.109375q-0.921875 -1.09375 -2.484375 -1.09375q-1.546875 0 -2.46875 1.09375q-0.921875 1.078125 -0.921875 3.109375q0 2.0625 0.921875 3.171875q0.921875 1.09375 2.46875 1.09375zm8.018723 1.265625l0 -11.015625l1.796875 0l0 2.609375l-0.234375 0q0.390625 -1.328125 1.34375 -2.015625q0.953125 -0.703125 2.515625 -0.8125l0.65625 -0.078125l0.125 1.59375l-1.140625 0.140625q-1.546875 0.125 -2.375 0.984375q-0.828125 0.84375 -0.828125 2.3125l0 6.28125l-1.859375 0z" fill-rule="nonzero"/><path fill="#014063" d="m140.80844 282.2862l0 0c0 -3.2441711 2.6299438 -5.874115 5.8741455 -5.874115l127.02338 0c1.5579224 0 3.0520325 0.61886597 4.153656 1.7204895c1.101593 1.1016235 1.7204895 2.5957336 1.7204895 4.1536255l0 23.49585c0 3.2441711 -2.6299438 5.874115 -5.8741455 5.874115l-127.02338 0c-3.2442017 0 -5.8741455 -2.6299438 -5.8741455 -5.874115z" fill-rule="evenodd"/><path stroke="#8fe3e8" stroke-width="2.0" stroke-linejoin="round" stroke-linecap="butt" d="m140.80844 282.2862l0 0c0 -3.2441711 2.6299438 -5.874115 5.8741455 -5.874115l127.02338 0c1.5579224 0 3.0520325 0.61886597 4.153656 1.7204895c1.101593 1.1016235 1.7204895 2.5957336 1.7204895 4.1536255l0 23.49585c0 3.2441711 -2.6299438 5.874115 -5.8741455 5.874115l-127.02338 0c-3.2442017 0 -5.8741455 -2.6299438 -5.8741455 -5.874115z" fill-rule="evenodd"/><path fill="#8fe3e8" d="m171.60847 302.29413l0 -15.96875l5.390625 0q2.609375 0 4.40625 0.921875q1.8125 0.90625 2.75 2.6875q0.9375 1.78125 0.9375 4.359375q0 2.578125 -0.9375 4.375q-0.9375 1.796875 -2.75 2.71875q-1.796875 0.90625 -4.40625 0.90625l-5.390625 0zm1.859375 -1.578125l3.40625 0q3.140625 0 4.6875 -1.609375q1.5625 -1.609375 1.5625 -4.8125q0 -3.1875 -1.5625 -4.78125q-1.5625 -1.609375 -4.6875 -1.609375l-3.40625 0l0 12.8125zm14.482773 -12.171875l0 -2.0625l2.265625 0l0 2.0625l-2.265625 0zm0.21875 13.75l0 -11.015625l1.84375 0l0 11.015625l-1.84375 0zm5.256241 0l0 -11.015625l1.796875 0l0 2.609375l-0.234375 0q0.390625 -1.328125 1.34375 -2.015625q0.953125 -0.703125 2.515625 -0.8125l0.65625 -0.078125l0.125 1.59375l-1.140625 0.140625q-1.546875 0.125 -2.375 0.984375q-0.828125 0.84375 -0.828125 2.3125l0 6.28125l-1.859375 0zm12.943665 0.203125q-1.75 0 -3.015625 -0.6875q-1.25 -0.6875 -1.9375 -1.953125q-0.6875 -1.28125 -0.6875 -3.046875q0 -1.71875 0.671875 -3.0q0.6875 -1.28125 1.875 -2.0q1.1875 -0.734375 2.75 -0.734375q1.5 0 2.5625 0.65625q1.0625 0.65625 1.640625 1.859375q0.578125 1.203125 0.578125 2.875l0 0.703125l-8.671875 0l0 -1.203125l7.453125 0l-0.375 0.296875q0 -1.8125 -0.8125 -2.8125q-0.796875 -1.015625 -2.328125 -1.015625q-1.15625 0 -1.96875 0.53125q-0.796875 0.53125 -1.203125 1.484375q-0.40625 0.9375 -0.40625 2.1875l0 0.125q0 1.390625 0.4375 2.34375q0.4375 0.9375 1.3125 1.4375q0.890625 0.484375 2.125 0.484375q0.96875 0 1.890625 -0.296875q0.921875 -0.3125 1.734375 -1.015625l0.625 1.28125q-0.75 0.6875 -1.90625 1.09375q-1.140625 0.40625 -2.34375 0.40625zm11.756226 0q-1.65625 0 -2.859375 -0.71875q-1.203125 -0.734375 -1.84375 -2.03125q-0.640625 -1.296875 -0.640625 -3.03125q0 -1.734375 0.640625 -3.0q0.640625 -1.28125 1.84375 -1.953125q1.203125 -0.6875 2.859375 -0.6875q1.015625 0 2.015625 0.375q1.0 0.359375 1.65625 1.015625l-0.640625 1.328125q-0.65625 -0.625 -1.4375 -0.921875q-0.78125 -0.296875 -1.484375 -0.296875q-1.71875 0 -2.65625 1.078125q-0.921875 1.078125 -0.921875 3.09375q0 1.96875 0.921875 3.109375q0.9375 1.140625 2.65625 1.140625q0.703125 0 1.484375 -0.28125q0.78125 -0.296875 1.4375 -0.953125l0.640625 1.328125q-0.65625 0.65625 -1.671875 1.03125q-1.0 0.375 -2.0 0.375zm10.239822 0q-1.953125 0 -2.921875 -1.03125q-0.96875 -1.046875 -0.96875 -2.984375l0 -5.765625l-2.15625 0l0 -1.4375l2.15625 0l0 -3.375l1.828125 0l0 3.375l3.484375 0l0 1.4375l-3.484375 0l0 5.59375q0 1.28125 0.546875 1.953125q0.546875 0.671875 1.765625 0.671875q0.359375 0 0.71875 -0.09375q0.359375 -0.09375 0.65625 -0.171875l0.328125 1.40625q-0.296875 0.15625 -0.875 0.28125q-0.5625 0.140625 -1.078125 0.140625zm7.972595 0q-1.609375 0 -2.796875 -0.703125q-1.171875 -0.703125 -1.8125 -1.984375q-0.640625 -1.28125 -0.640625 -3.015625q0 -1.75 0.640625 -3.03125q0.640625 -1.28125 1.8125 -1.984375q1.1875 -0.703125 2.796875 -0.703125q1.609375 0 2.78125 0.703125q1.1875 0.703125 1.828125 1.984375q0.640625 1.28125 0.640625 3.03125q0 1.734375 -0.640625 3.015625q-0.640625 1.28125 -1.828125 1.984375q-1.171875 0.703125 -2.78125 0.703125zm0 -1.46875q1.5625 0 2.484375 -1.09375q0.921875 -1.109375 0.921875 -3.171875q0 -2.03125 -0.921875 -3.109375q-0.921875 -1.09375 -2.484375 -1.09375q-1.546875 0 -2.46875 1.09375q-0.921875 1.078125 -0.921875 3.109375q0 2.0625 0.921875 3.171875q0.921875 1.09375 2.46875 1.09375zm8.018723 1.265625l0 -11.015625l1.796875 0l0 2.609375l-0.234375 0q0.390625 -1.328125 1.34375 -2.015625q0.953125 -0.703125 2.515625 -0.8125l0.65625 -0.078125l0.125 1.59375l-1.140625 0.140625q-1.546875 0.125 -2.375 0.984375q-0.828125 0.84375 -0.828125 2.3125l0 6.28125l-1.859375 0z" fill-rule="nonzero"/></g></svg>