<svg version="1.1" viewBox="0.0 0.0 899.0314960629921 501.29133858267716" fill="none" stroke="none" stroke-linecap="square" stroke-miterlimit="10" xmlns:xlink="http://www.w3.org/1999/xlink" xmlns="http://www.w3.org/2000/svg"><clipPath id="p.0"><path d="m0 0l899.0315 0l0 501.29135l-899.0315 0l0 -501.29135z" clip-rule="nonzero"/></clipPath><g clip-path="url(#p.0)"><path fill="#000000" fill-opacity="0.0" d="m0 0l899.0315 0l0 501.29135l-899.0315 0z" fill-rule="evenodd"/><path fill="#014063" d="m425.10498 60.2231l0 0c0 -16.455479 13.339813 -29.795277 29.795288 -29.795277l0 0c7.902191 0 15.480743 3.1391373 21.06842 8.726833c5.5877075 5.5877 8.726837 13.1662445 8.726837 21.068443l0 0c0 16.455475 -13.339783 29.795273 -29.795258 29.795273l0 0c-16.455475 0 -29.795288 -13.339798 -29.795288 -29.795273z" fill-rule="evenodd"/><path stroke="#8fe3e8" stroke-width="3.0" stroke-linejoin="round" stroke-linecap="butt" d="m425.10498 60.2231l0 0c0 -16.455479 13.339813 -29.795277 29.795288 -29.795277l0 0c7.902191 0 15.480743 3.1391373 21.06842 8.726833c5.5877075 5.5877 8.726837 13.1662445 8.726837 21.068443l0 0c0 16.455475 -13.339783 29.795273 -29.795258 29.795273l0 0c-16.455475 0 -29.795288 -13.339798 -29.795288 -29.795273z" fill-rule="evenodd"/><path fill="#014063" d="m282.41733 391.7638l0 0c0 -16.455505 13.339783 -29.795288 29.795258 -29.795288l0 0c7.9022217 0 15.480743 3.1391296 21.06845 8.726837c5.5877075 5.5877075 8.726837 13.166229 8.726837 21.06845l0 0c0 16.455475 -13.339813 29.795258 -29.795288 29.795258l0 0c-16.455475 0 -29.795258 -13.339783 -29.795258 -29.795258z" fill-rule="evenodd"/><path stroke="#8fe3e8" stroke-width="3.0" stroke-linejoin="round" stroke-linecap="butt" d="m282.41733 391.7638l0 0c0 -16.455505 13.339783 -29.795288 29.795258 -29.795288l0 0c7.9022217 0 15.480743 3.1391296 21.06845 8.726837c5.5877075 5.5877075 8.726837 13.166229 8.726837 21.06845l0 0c0 16.455475 -13.339813 29.795258 -29.795288 29.795258l0 0c-16.455475 0 -29.795258 -13.339783 -29.795258 -29.795258z" fill-rule="evenodd"/><path fill="#014063" d="m425.10498 437.64566l0 0c0 -16.455475 13.339813 -29.795258 29.795288 -29.795258l0 0c7.902191 0 15.480743 3.1391296 21.06842 8.726837c5.5877075 5.587677 8.726837 13.166229 8.726837 21.06842l0 0c0 16.455475 -13.339783 29.795288 -29.795258 29.795288l0 0c-16.455475 0 -29.795288 -13.339813 -29.795288 -29.795288z" fill-rule="evenodd"/><path stroke="#8fe3e8" stroke-width="3.0" stroke-linejoin="round" stroke-linecap="butt" d="m425.10498 437.64566l0 0c0 -16.455475 13.339813 -29.795258 29.795288 -29.795258l0 0c7.902191 0 15.480743 3.1391296 21.06842 8.726837c5.5877075 5.587677 8.726837 13.166229 8.726837 21.06842l0 0c0 16.455475 -13.339783 29.795288 -29.795258 29.795288l0 0c-16.455475 0 -29.795288 -13.339813 -29.795288 -29.795288z" fill-rule="evenodd"/><path fill="#014063" d="m560.4278 392.23883l0 0c0 -16.455475 13.339844 -29.795258 29.795288 -29.795258l0 0c7.9022217 0 15.480774 3.1391296 21.068481 8.726837c5.5876465 5.587677 8.726807 13.166229 8.726807 21.06842l0 0c0 16.455505 -13.339783 29.795288 -29.795288 29.795288l0 0c-16.455444 0 -29.795288 -13.339783 -29.795288 -29.795288z" fill-rule="evenodd"/><path stroke="#8fe3e8" stroke-width="3.0" stroke-linejoin="round" stroke-linecap="butt" d="m560.4278 392.23883l0 0c0 -16.455475 13.339844 -29.795258 29.795288 -29.795258l0 0c7.9022217 0 15.480774 3.1391296 21.068481 8.726837c5.5876465 5.587677 8.726807 13.166229 8.726807 21.06842l0 0c0 16.455505 -13.339783 29.795288 -29.795288 29.795288l0 0c-16.455444 0 -29.795288 -13.339783 -29.795288 -29.795288z" fill-rule="evenodd"/><path fill="#014063" d="m291.15485 110.603676l0 0c0 -16.455475 13.339813 -29.79528 29.795288 -29.79528l0 0c7.902191 0 15.480743 3.1391373 21.06845 8.726837c5.587677 5.5877 8.726807 13.1662445 8.726807 21.068443l0 0c0 16.455475 -13.339783 29.79528 -29.795258 29.79528l0 0c-16.455475 0 -29.795288 -13.339806 -29.795288 -29.79528z" fill-rule="evenodd"/><path stroke="#8fe3e8" stroke-width="3.0" stroke-linejoin="round" stroke-linecap="butt" d="m291.15485 110.603676l0 0c0 -16.455475 13.339813 -29.79528 29.795288 -29.79528l0 0c7.902191 0 15.480743 3.1391373 21.06845 8.726837c5.587677 5.5877 8.726807 13.1662445 8.726807 21.068443l0 0c0 16.455475 -13.339783 29.79528 -29.795258 29.79528l0 0c-16.455475 0 -29.795288 -13.339806 -29.795288 -29.79528z" fill-rule="evenodd"/><path fill="#014063" d="m551.69293 117.23097l0 0c0 -16.455475 13.339783 -29.79528 29.795227 -29.79528l0 0c7.9022217 0 15.480774 3.1391373 21.068481 8.726837c5.5877075 5.5877 8.726807 13.1662445 8.726807 21.068443l0 0c0 16.455475 -13.339783 29.795273 -29.795288 29.795273l0 0c-16.455444 0 -29.795227 -13.339798 -29.795227 -29.795273z" fill-rule="evenodd"/><path stroke="#8fe3e8" stroke-width="3.0" stroke-linejoin="round" stroke-linecap="butt" d="m551.69293 117.23097l0 0c0 -16.455475 13.339783 -29.79528 29.795227 -29.79528l0 0c7.9022217 0 15.480774 3.1391373 21.068481 8.726837c5.5877075 5.5877 8.726807 13.1662445 8.726807 21.068443l0 0c0 16.455475 -13.339783 29.795273 -29.795288 29.795273l0 0c-16.455444 0 -29.795227 -13.339798 -29.795227 -29.795273z" fill-rule="evenodd"/><path fill="#000000" fill-opacity="0.0" d="m528.5562 324.8397l40.59845 46.33072" fill-rule="evenodd"/><path stroke="#faff00" stroke-width="2.0" stroke-linejoin="round" stroke-linecap="butt" d="m528.5562 324.8397l36.081238 41.17569" fill-rule="evenodd"/><path fill="#faff00" stroke="#faff00" stroke-width="2.0" stroke-linecap="butt" d="m564.63745 366.01535l-3.1739502 -0.20928955l5.764221 3.1653442l-2.3809814 -6.129944z" fill-rule="evenodd"/><path fill="#000000" fill-opacity="0.0" d="m454.90027 355.34647l0 52.503937" fill-rule="evenodd"/><path stroke="#faff00" stroke-width="2.0" stroke-linejoin="round" stroke-linecap="butt" d="m454.90027 355.34647l0 45.64975" fill-rule="evenodd"/><path fill="#faff00" stroke="#faff00" stroke-width="2.0" stroke-linecap="butt" d="m454.90027 400.99622l-2.249176 -2.249176l2.249176 6.179535l2.249176 -6.179535z" fill-rule="evenodd"/><path fill="#000000" fill-opacity="0.0" d="m381.24954 324.83707l-47.968506 45.858276" fill-rule="evenodd"/><path stroke="#faff00" stroke-width="2.0" stroke-linejoin="round" stroke-linecap="butt" d="m381.24954 324.83707l-43.01413 41.121826" fill-rule="evenodd"/><path fill="#faff00" stroke="#faff00" stroke-width="2.0" stroke-linecap="butt" d="m338.23544 365.9589l0.071502686 -3.1799927l-2.912506 5.895996l6.020996 -2.6444702z" fill-rule="evenodd"/><path fill="#000000" fill-opacity="0.0" d="m381.26266 177.53038l-39.24408 -45.85826" fill-rule="evenodd"/><path stroke="#faff00" stroke-width="2.0" stroke-linejoin="round" stroke-linecap="butt" d="m381.26266 177.5304l-34.787567 -40.650665" fill-rule="evenodd"/><path fill="#faff00" stroke="#faff00" stroke-width="2.0" stroke-linecap="butt" d="m346.4751 136.87973l3.1712341 0.24647522l-5.726715 -3.232666l2.3089905 6.157425z" fill-rule="evenodd"/><path fill="#000000" fill-opacity="0.0" d="m454.90027 147.02625l0 -57.007874" fill-rule="evenodd"/><path stroke="#faff00" stroke-width="2.0" stroke-linejoin="round" stroke-linecap="butt" d="m454.90027 147.02625l0 -50.153694" fill-rule="evenodd"/><path fill="#faff00" stroke="#faff00" stroke-width="2.0" stroke-linecap="butt" d="m454.90027 96.87254l2.249176 2.2491684l-2.249176 -6.179535l-2.249176 6.179535z" fill-rule="evenodd"/><path fill="#000000" fill-opacity="0.0" d="m528.5457 177.5435l31.874023 -39.244095" fill-rule="evenodd"/><path stroke="#faff00" stroke-width="2.0" stroke-linejoin="round" stroke-linecap="butt" d="m528.5457 177.54352l27.552795 -33.92369" fill-rule="evenodd"/><path fill="#faff00" stroke="#faff00" stroke-width="2.0" stroke-linecap="butt" d="m556.0985 143.61983l0.32788086 3.1638489l2.1500244 -6.2147217l-5.6417847 3.3787384z" fill-rule="evenodd"/><path fill="#014063" d="m627.28345 37.795277l0 0c0 -16.455477 13.339844 -29.795277 29.795288 -29.795277l0 0c7.9022217 0 15.480774 3.1391363 21.06842 8.726833c5.5877075 5.587698 8.726868 13.1662445 8.726868 21.068443l0 0c0 16.455475 -13.339783 29.795277 -29.795288 29.795277l0 0c-16.455444 0 -29.795288 -13.339802 -29.795288 -29.795277z" fill-rule="evenodd"/><path stroke="#8fe3e8" stroke-width="3.0" stroke-linejoin="round" stroke-linecap="butt" d="m627.28345 37.795277l0 0c0 -16.455477 13.339844 -29.795277 29.795288 -29.795277l0 0c7.9022217 0 15.480774 3.1391363 21.06842 8.726833c5.5877075 5.587698 8.726868 13.1662445 8.726868 21.068443l0 0c0 16.455475 -13.339783 29.795277 -29.795288 29.795277l0 0c-16.455444 0 -29.795288 -13.339802 -29.795288 -29.795277z" fill-rule="evenodd"/><path fill="#000000" fill-opacity="0.0" d="m602.55664 96.16253l33.44879 -37.291336" fill-rule="evenodd"/><path stroke="#faff00" stroke-width="2.0" stroke-linejoin="round" stroke-linecap="butt" d="m607.13324 91.06015l28.872192 -32.188957" fill-rule="evenodd"/><path fill="#faff00" stroke="#faff00" stroke-width="2.0" stroke-linecap="butt" d="m607.13324 91.06015l-0.17248535 -3.176117l-2.4518433 6.101959l5.800476 -3.0983658z" fill-rule="evenodd"/><path fill="#014063" d="m630.59845 465.84253l0 0c0 -16.455475 13.339783 -29.795288 29.795227 -29.795288l0 0c7.9022217 0 15.480774 3.1391296 21.068481 8.726837c5.5877075 5.5877075 8.726807 13.166229 8.726807 21.06845l0 0c0 16.455475 -13.339783 29.795258 -29.795288 29.795258l0 0c-16.455444 0 -29.795227 -13.339783 -29.795227 -29.795258z" fill-rule="evenodd"/><path stroke="#8fe3e8" stroke-width="3.0" stroke-linejoin="round" stroke-linecap="butt" d="m630.59845 465.84253l0 0c0 -16.455475 13.339783 -29.795288 29.795227 -29.795288l0 0c7.9022217 0 15.480774 3.1391296 21.068481 8.726837c5.5877075 5.5877075 8.726807 13.166229 8.726807 21.06845l0 0c0 16.455475 -13.339783 29.795258 -29.795288 29.795258l0 0c-16.455444 0 -29.795227 -13.339783 -29.795227 -29.795258z" fill-rule="evenodd"/><path fill="#000000" fill-opacity="0.0" d="m611.29156 413.30728l28.031494 31.46457" fill-rule="evenodd"/><path stroke="#faff00" stroke-width="2.0" stroke-linejoin="round" stroke-linecap="butt" d="m615.85095 418.42508l23.472107 26.346771" fill-rule="evenodd"/><path fill="#faff00" stroke="#faff00" stroke-width="2.0" stroke-linecap="butt" d="m615.85095 418.42508l3.175476 0.18322754l-5.789978 -3.11792l2.4312134 6.110199z" fill-rule="evenodd"/><path fill="#014063" d="m649.1102 117.23097l0 0c0 -16.455475 13.339783 -29.79528 29.795288 -29.79528l0 0c7.9022217 0 15.480713 3.1391373 21.06842 8.726837c5.5877075 5.5877 8.726868 13.1662445 8.726868 21.068443l0 0c0 16.455475 -13.339844 29.795273 -29.795288 29.795273l0 0c-16.455505 0 -29.795288 -13.339798 -29.795288 -29.795273z" fill-rule="evenodd"/><path stroke="#8fe3e8" stroke-width="3.0" stroke-linejoin="round" stroke-linecap="butt" d="m649.1102 117.23097l0 0c0 -16.455475 13.339783 -29.79528 29.795288 -29.79528l0 0c7.9022217 0 15.480713 3.1391373 21.06842 8.726837c5.5877075 5.5877 8.726868 13.1662445 8.726868 21.068443l0 0c0 16.455475 -13.339844 29.795273 -29.795288 29.795273l0 0c-16.455505 0 -29.795288 -13.339798 -29.795288 -29.795273z" fill-rule="evenodd"/><path fill="#000000" fill-opacity="0.0" d="m611.28345 117.23097l37.826782 0" fill-rule="evenodd"/><path stroke="#faff00" stroke-width="2.0" stroke-linejoin="round" stroke-linecap="butt" d="m618.13763 117.23097l30.972595 0" fill-rule="evenodd"/><path fill="#faff00" stroke="#faff00" stroke-width="2.0" stroke-linecap="butt" d="m618.13763 117.23097l2.2491455 -2.2491684l-6.1795044 2.2491684l6.1795044 2.2491684z" fill-rule="evenodd"/><path fill="#014063" d="m728.43066 465.40207l0 0c0 -16.455505 13.339844 -29.795288 29.795288 -29.795288l0 0c7.9022217 0 15.480774 3.1391296 21.06842 8.726837c5.5877075 5.5877075 8.726868 13.166229 8.726868 21.06845l0 0c0 16.455475 -13.339783 29.795258 -29.795288 29.795258l0 0c-16.455444 0 -29.795288 -13.339783 -29.795288 -29.795258z" fill-rule="evenodd"/><path stroke="#8fe3e8" stroke-width="3.0" stroke-linejoin="round" stroke-linecap="butt" d="m728.43066 465.40207l0 0c0 -16.455505 13.339844 -29.795288 29.795288 -29.795288l0 0c7.9022217 0 15.480774 3.1391296 21.06842 8.726837c5.5877075 5.5877075 8.726868 13.166229 8.726868 21.06845l0 0c0 16.455475 -13.339783 29.795258 -29.795288 29.795258l0 0c-16.455444 0 -29.795288 -13.339783 -29.795288 -29.795258z" fill-rule="evenodd"/><path fill="#000000" fill-opacity="0.0" d="m690.60394 465.40207l37.82672 0" fill-rule="evenodd"/><path stroke="#faff00" stroke-width="2.0" stroke-linejoin="round" stroke-linecap="butt" d="m697.45807 465.40207l30.972595 0" fill-rule="evenodd"/><path fill="#faff00" stroke="#faff00" stroke-width="2.0" stroke-linecap="butt" d="m697.45807 465.40207l2.2492065 -2.249176l-6.1795654 2.249176l6.1795654 2.249176z" fill-rule="evenodd"/><path fill="#014063" d="m702.6037 383.7638l0 0c0 -16.455505 13.339783 -29.795288 29.795227 -29.795288l0 0c7.9022217 0 15.480774 3.1391296 21.068481 8.726837c5.5877075 5.5877075 8.726807 13.166229 8.726807 21.06845l0 0c0 16.455475 -13.339783 29.795258 -29.795288 29.795258l0 0c-16.455444 0 -29.795227 -13.339783 -29.795227 -29.795258z" fill-rule="evenodd"/><path stroke="#8fe3e8" stroke-width="3.0" stroke-linejoin="round" stroke-linecap="butt" d="m702.6037 383.7638l0 0c0 -16.455505 13.339783 -29.795288 29.795227 -29.795288l0 0c7.9022217 0 15.480774 3.1391296 21.068481 8.726837c5.5877075 5.5877075 8.726807 13.166229 8.726807 21.06845l0 0c0 16.455475 -13.339783 29.795258 -29.795288 29.795258l0 0c-16.455444 0 -29.795227 -13.339783 -29.795227 -29.795258z" fill-rule="evenodd"/><path fill="#000000" fill-opacity="0.0" d="m677.8817 442.12357l33.44879 -37.29135" fill-rule="evenodd"/><path stroke="#faff00" stroke-width="2.0" stroke-linejoin="round" stroke-linecap="butt" d="m682.4583 437.0212l28.872253 -32.188995" fill-rule="evenodd"/><path fill="#faff00" stroke="#faff00" stroke-width="2.0" stroke-linecap="butt" d="m682.4583 437.02118l-0.17254639 -3.176117l-2.4518433 6.101959l5.800537 -3.0983582z" fill-rule="evenodd"/><path fill="#014063" d="m683.0171 251.18373l0 0c0 -57.524597 46.632874 -104.157486 104.15747 -104.157486l0 0c27.624268 0 54.117126 10.973709 73.65045 30.507019c19.533325 19.533325 30.507019 46.026184 30.507019 73.65047l0 0c0 57.524582 -46.632874 104.157486 -104.15747 104.157486l0 0c-57.524597 0 -104.15747 -46.632904 -104.15747 -104.157486z" fill-rule="evenodd"/><path stroke="#8fe3e8" stroke-width="3.0" stroke-linejoin="round" stroke-linecap="butt" d="m683.0171 251.18373l0 0c0 -57.524597 46.632874 -104.157486 104.15747 -104.157486l0 0c27.624268 0 54.117126 10.973709 73.65045 30.507019c19.533325 19.533325 30.507019 46.026184 30.507019 73.65047l0 0c0 57.524582 -46.632874 104.157486 -104.15747 104.157486l0 0c-57.524597 0 -104.15747 -46.632904 -104.15747 -104.157486z" fill-rule="evenodd"/><path fill="#8fe3e8" d="m736.0777 261.84372l0 -20.671875l8.96875 0q2.28125 0 3.859375 0.765625q1.59375 0.75 2.40625 2.1875q0.828125 1.4375 0.828125 3.5q0 2.015625 -0.828125 3.46875q-0.8125 1.453125 -2.40625 2.234375q-1.578125 0.765625 -3.859375 0.765625l-5.21875 0l0 7.75l-3.75 0zm3.75 -10.703125l4.625 0q2.0 0 3.015625 -0.890625q1.03125 -0.90625 1.03125 -2.625q0 -1.734375 -1.03125 -2.609375q-1.015625 -0.890625 -3.015625 -0.890625l-4.625 0l0 7.015625zm14.719238 10.703125l0 -14.34375l3.578125 0l0 3.46875l-0.296875 0q0.421875 -1.765625 1.609375 -2.6875q1.203125 -0.921875 3.203125 -1.078125l1.109375 -0.078125l0.234375 3.109375l-2.109375 0.203125q-1.78125 0.171875 -2.703125 1.09375q-0.90625 0.921875 -0.90625 2.59375l0 7.71875l-3.71875 0zm17.808838 0.296875q-2.234375 0 -3.875 -0.90625q-1.640625 -0.921875 -2.5625 -2.59375q-0.90625 -1.6875 -0.90625 -3.984375q0 -2.28125 0.90625 -3.953125q0.921875 -1.671875 2.5625 -2.578125q1.640625 -0.921875 3.875 -0.921875q2.21875 0 3.859375 0.921875q1.640625 0.90625 2.546875 2.578125q0.921875 1.671875 0.921875 3.953125q0 2.296875 -0.921875 3.984375q-0.90625 1.671875 -2.546875 2.59375q-1.640625 0.90625 -3.859375 0.90625zm0 -2.796875q1.640625 0 2.625 -1.1875q1.0 -1.1875 1.0 -3.53125q0 -2.3125 -1.0 -3.46875q-0.984375 -1.15625 -2.625 -1.15625q-1.65625 0 -2.65625 1.15625q-0.984375 1.15625 -0.984375 3.46875q0 2.34375 0.984375 3.53125q1.0 1.1875 2.65625 1.1875zm15.861755 2.796875q-1.875 0 -3.296875 -0.90625q-1.421875 -0.921875 -2.21875 -2.59375q-0.796875 -1.6875 -0.796875 -3.984375q0 -2.3125 0.796875 -3.96875q0.796875 -1.65625 2.21875 -2.5625q1.421875 -0.921875 3.296875 -0.921875q1.78125 0 3.109375 0.890625q1.34375 0.875 1.8125 2.3125l-0.3125 0l0 -9.234375l3.65625 0l0 20.671875l-3.578125 0l0 -3.046875l0.265625 0q-0.4375 1.515625 -1.796875 2.4375q-1.34375 0.90625 -3.15625 0.90625zm1.03125 -2.796875q1.640625 0 2.625 -1.1875q1.0 -1.1875 1.0 -3.5q0 -2.34375 -1.0 -3.5q-0.984375 -1.15625 -2.625 -1.15625q-1.65625 0 -2.65625 1.15625q-0.984375 1.15625 -0.984375 3.5q0 2.3125 0.984375 3.5q1.0 1.1875 2.65625 1.1875zm16.237488 2.796875q-1.78125 0 -2.953125 -0.65625q-1.171875 -0.671875 -1.75 -1.984375q-0.578125 -1.328125 -0.578125 -3.28125l0 -8.71875l3.671875 0l0 8.765625q0 1.0 0.28125 1.6875q0.28125 0.671875 0.84375 1.0q0.578125 0.3125 1.453125 0.3125q1.0 0 1.75 -0.453125q0.75 -0.453125 1.171875 -1.28125q0.421875 -0.84375 0.421875 -1.96875l0 -8.0625l3.671875 0l0 14.34375l-3.578125 0l0 -2.984375l0.40625 0q-0.609375 1.578125 -1.859375 2.4375q-1.25 0.84375 -2.953125 0.84375zm18.418457 0q-2.25 0 -3.921875 -0.921875q-1.671875 -0.921875 -2.59375 -2.625q-0.90625 -1.703125 -0.90625 -4.0q0 -2.28125 0.90625 -3.9375q0.921875 -1.65625 2.59375 -2.546875q1.671875 -0.90625 3.921875 -0.90625q1.375 0 2.71875 0.453125q1.359375 0.4375 2.234375 1.21875l-1.078125 2.5625q-0.765625 -0.6875 -1.71875 -1.03125q-0.953125 -0.359375 -1.828125 -0.359375q-1.90625 0 -2.953125 1.1875q-1.03125 1.1875 -1.03125 3.390625q0 2.171875 1.03125 3.421875q1.046875 1.25 2.953125 1.25q0.84375 0 1.8125 -0.34375q0.96875 -0.359375 1.734375 -1.0625l1.078125 2.578125q-0.875 0.765625 -2.234375 1.21875q-1.359375 0.453125 -2.71875 0.453125zm13.83905 0q-2.859375 0 -4.28125 -1.4375q-1.40625 -1.4375 -1.40625 -4.203125l0 -6.234375l-2.75 0l0 -2.765625l2.75 0l0 -4.28125l3.671875 0l0 4.28125l4.34375 0l0 2.765625l-4.34375 0l0 6.03125q0 1.40625 0.609375 2.109375q0.625 0.703125 2.0 0.703125q0.40625 0 0.84375 -0.09375q0.453125 -0.109375 0.921875 -0.21875l0.546875 2.6875q-0.53125 0.296875 -1.34375 0.46875q-0.796875 0.1875 -1.5625 0.1875z" fill-rule="nonzero"/><path fill="#014063" d="m7.9986877 251.18373l0 0c0 -57.524597 46.632893 -104.157486 104.15748 -104.157486l0 0c27.62429 0 54.11715 10.973709 73.65046 30.507019c19.533325 19.533325 30.507019 46.026184 30.507019 73.65047l0 0c0 57.524582 -46.63289 104.157486 -104.15748 104.157486l0 0c-57.524586 0 -104.15748 -46.632904 -104.15748 -104.157486z" fill-rule="evenodd"/><path stroke="#8fe3e8" stroke-width="3.0" stroke-linejoin="round" stroke-linecap="butt" d="m7.9986877 251.18373l0 0c0 -57.524597 46.632893 -104.157486 104.15748 -104.157486l0 0c27.62429 0 54.11715 10.973709 73.65046 30.507019c19.533325 19.533325 30.507019 46.026184 30.507019 73.65047l0 0c0 57.524582 -46.63289 104.157486 -104.15748 104.157486l0 0c-57.524586 0 -104.15748 -46.632904 -104.15748 -104.157486z" fill-rule="evenodd"/><path fill="#8fe3e8" d="m67.423584 261.84372l0 -20.671875l8.96875 0q2.28125 0 3.859375 0.765625q1.59375 0.75 2.40625 2.1875q0.828125 1.4375 0.828125 3.5q0 2.015625 -0.828125 3.46875q-0.8125 1.453125 -2.40625 2.234375q-1.578125 0.765625 -3.859375 0.765625l-5.21875 0l0 7.75l-3.75 0zm3.75 -10.703125l4.625 0q2.0 0 3.015625 -0.890625q1.03125 -0.90625 1.03125 -2.625q0 -1.734375 -1.03125 -2.609375q-1.015625 -0.890625 -3.015625 -0.890625l-4.625 0l0 7.015625zm21.34172 11.0q-2.421875 0 -4.1875 -0.90625q-1.765625 -0.921875 -2.71875 -2.59375q-0.953125 -1.671875 -0.953125 -3.953125q0 -2.234375 0.921875 -3.90625q0.9375 -1.671875 2.5625 -2.625q1.625 -0.953125 3.703125 -0.953125q2.0625 0 3.515625 0.890625q1.46875 0.875 2.28125 2.484375q0.8125 1.609375 0.8125 3.84375l0 1.09375l-10.828125 0l0 -2.125l8.234375 0l-0.46875 0.453125q0 -2.0 -0.875 -3.0625q-0.875 -1.078125 -2.515625 -1.078125q-1.234375 0 -2.109375 0.578125q-0.859375 0.5625 -1.3125 1.609375q-0.453125 1.03125 -0.453125 2.46875l0 0.21875q0 1.609375 0.5 2.671875q0.5 1.046875 1.484375 1.578125q1.0 0.515625 2.46875 0.515625q1.203125 0 2.40625 -0.359375q1.203125 -0.359375 2.203125 -1.15625l1.015625 2.46875q-1.015625 0.84375 -2.578125 1.34375q-1.546875 0.5 -3.109375 0.5zm8.833328 -0.296875l0 -14.34375l3.578125 0l0 3.46875l-0.296875 0q0.421875 -1.765625 1.609375 -2.6875q1.203125 -0.921875 3.203125 -1.078125l1.109375 -0.078125l0.234375 3.109375l-2.109375 0.203125q-1.78125 0.171875 -2.703125 1.09375q-0.90625 0.921875 -0.90625 2.59375l0 7.71875l-3.71875 0zm16.599945 0.296875q-1.203125 0 -2.328125 -0.21875q-1.125 -0.203125 -2.078125 -0.5625q-0.9375 -0.359375 -1.640625 -0.921875l0.9375 -2.40625q0.734375 0.46875 1.578125 0.828125q0.859375 0.34375 1.765625 0.53125q0.921875 0.171875 1.796875 0.171875q1.40625 0 2.09375 -0.484375q0.6875 -0.484375 0.6875 -1.28125q0 -0.671875 -0.453125 -1.03125q-0.453125 -0.375 -1.359375 -0.546875l-2.9375 -0.5625q-1.8125 -0.359375 -2.765625 -1.328125q-0.953125 -0.984375 -0.953125 -2.546875q0 -1.40625 0.765625 -2.421875q0.78125 -1.03125 2.15625 -1.59375q1.390625 -0.5625 3.171875 -0.5625q1.03125 0 2.0 0.203125q0.96875 0.1875 1.828125 0.5625q0.859375 0.359375 1.515625 0.9375l-1.0 2.40625q-0.5625 -0.46875 -1.296875 -0.796875q-0.734375 -0.34375 -1.515625 -0.53125q-0.765625 -0.1875 -1.5 -0.1875q-1.4375 0 -2.125 0.5q-0.6875 0.484375 -0.6875 1.3125q0 0.609375 0.40625 1.03125q0.40625 0.40625 1.265625 0.546875l2.9375 0.5625q1.90625 0.34375 2.875 1.296875q0.984375 0.9375 0.984375 2.515625q0 1.4375 -0.765625 2.46875q-0.75 1.015625 -2.140625 1.5625q-1.375 0.546875 -3.21875 0.546875zm15.608994 0q-2.234375 0 -3.875 -0.90625q-1.640625 -0.921875 -2.5625 -2.59375q-0.90625 -1.6875 -0.90625 -3.984375q0 -2.28125 0.90625 -3.953125q0.921875 -1.671875 2.5625 -2.578125q1.640625 -0.921875 3.875 -0.921875q2.21875 0 3.859375 0.921875q1.640625 0.90625 2.546875 2.578125q0.921875 1.671875 0.921875 3.953125q0 2.296875 -0.921875 3.984375q-0.90625 1.671875 -2.546875 2.59375q-1.640625 0.90625 -3.859375 0.90625zm0 -2.796875q1.640625 0 2.625 -1.1875q1.0 -1.1875 1.0 -3.53125q0 -2.3125 -1.0 -3.46875q-0.984375 -1.15625 -2.625 -1.15625q-1.65625 0 -2.65625 1.15625q-0.984375 1.15625 -0.984375 3.46875q0 2.34375 0.984375 3.53125q1.0 1.1875 2.65625 1.1875zm10.346115 2.5l0 -14.34375l3.578125 0l0 2.875l-0.328125 0q0.65625 -1.546875 2.015625 -2.359375q1.359375 -0.8125 3.09375 -0.8125q1.734375 0 2.84375 0.65625q1.109375 0.640625 1.671875 1.953125q0.5625 1.296875 0.5625 3.296875l0 8.734375l-3.671875 0l0 -8.5625q0 -1.109375 -0.28125 -1.8125q-0.28125 -0.71875 -0.859375 -1.046875q-0.5625 -0.34375 -1.4375 -0.34375q-1.0625 0 -1.859375 0.46875q-0.78125 0.453125 -1.21875 1.28125q-0.4375 0.828125 -0.4375 1.953125l0 8.0625l-3.671875 0z" fill-rule="nonzero"/><path fill="#000000" fill-opacity="0.0" d="m216.31364 251.18373l134.42519 0" fill-rule="evenodd"/><path stroke="#8fe3e8" stroke-width="3.0" stroke-linejoin="round" stroke-linecap="butt" d="m216.31364 251.18373l116.425186 0" fill-rule="evenodd"/><path fill="#8fe3e8" stroke="#8fe3e8" stroke-width="3.0" stroke-linecap="butt" d="m332.73886 256.13892l13.614288 -4.955185l-13.614288 -4.9552z" fill-rule="evenodd"/><path fill="#014063" d="m233.34383 239.4358l0 0c0 -3.2441864 2.6299438 -5.8741302 5.8741455 -5.8741302l69.03914 0c1.5578918 0 3.052002 0.6188812 4.1536255 1.7205048c1.1016235 1.1016083 1.7204895 2.5957184 1.7204895 4.1536255l0 23.495834c0 3.2442017 -2.6299438 5.8741455 -5.874115 5.8741455l-69.03914 0c-3.2442017 0 -5.8741455 -2.6299438 -5.8741455 -5.8741455z" fill-rule="evenodd"/><path stroke="#8fe3e8" stroke-width="2.0" stroke-linejoin="round" stroke-linecap="butt" d="m233.34383 239.4358l0 0c0 -3.2441864 2.6299438 -5.8741302 5.8741455 -5.8741302l69.03914 0c1.5578918 0 3.052002 0.6188812 4.1536255 1.7205048c1.1016235 1.1016083 1.7204895 2.5957184 1.7204895 4.1536255l0 23.495834c0 3.2442017 -2.6299438 5.8741455 -5.874115 5.8741455l-69.03914 0c-3.2442017 0 -5.8741455 -2.6299438 -5.8741455 -5.8741455z" fill-rule="evenodd"/><path fill="#8fe3e8" d="m249.09737 255.98373l0 -9.390625l3.71875 0q1.015625 0 1.71875 0.328125q0.703125 0.3125 1.0625 0.953125q0.359375 0.625 0.359375 1.53125q0 0.890625 -0.359375 1.53125q-0.359375 0.640625 -1.0625 0.96875q-0.703125 0.328125 -1.71875 0.328125l-2.625 0l0 3.75l-1.09375 0zm1.09375 -4.671875l2.5 0q1.078125 0 1.625 -0.484375q0.5625 -0.484375 0.5625 -1.421875q0 -0.9375 -0.5625 -1.421875q-0.546875 -0.484375 -1.625 -0.484375l-2.5 0l0 3.8125zm7.3429413 4.671875l0 -9.390625l1.09375 0l0 8.4375l4.78125 0l0 0.953125l-5.875 0zm6.0642395 0l4.140625 -9.390625l0.9375 0l4.140625 9.390625l-1.125 0l-1.15625 -2.671875l0.53125 0.265625l-5.734375 0l0.546875 -0.265625l-1.140625 2.671875l-1.140625 0zm4.59375 -8.109375l-2.140625 5.046875l-0.3125 -0.25l4.921875 0l-0.28125 0.25l-2.15625 -5.046875l-0.03125 0zm9.931152 8.234375q-1.375 0 -2.375 -0.578125q-0.984375 -0.59375 -1.515625 -1.671875q-0.515625 -1.09375 -0.515625 -2.578125q0 -1.5 0.515625 -2.5625q0.53125 -1.078125 1.515625 -1.65625q1.0 -0.59375 2.375 -0.59375q0.984375 0 1.796875 0.3125q0.828125 0.296875 1.390625 0.890625l-0.421875 0.890625q-0.609375 -0.578125 -1.28125 -0.828125q-0.65625 -0.265625 -1.453125 -0.265625q-1.578125 0 -2.421875 1.0q-0.84375 1.0 -0.84375 2.8125q0 1.8125 0.84375 2.828125q0.84375 1.0 2.421875 1.0q0.796875 0 1.453125 -0.265625q0.671875 -0.265625 1.28125 -0.828125l0.421875 0.890625q-0.5625 0.578125 -1.390625 0.890625q-0.8125 0.3125 -1.796875 0.3125zm4.9072876 -0.125l0 -9.390625l5.9375 0l0 0.90625l-4.875 0l0 3.265625l4.59375 0l0 0.90625l-4.59375 0l0 3.390625l4.875 0l0 0.921875l-5.9375 0zm7.7702637 0l0 -9.390625l3.171875 0q1.53125 0 2.59375 0.546875q1.0625 0.53125 1.609375 1.578125q0.5625 1.046875 0.5625 2.5625q0 1.515625 -0.5625 2.578125q-0.546875 1.046875 -1.609375 1.59375q-1.0625 0.53125 -2.59375 0.53125l-3.171875 0zm1.09375 -0.9375l2.0 0q1.859375 0 2.765625 -0.9375q0.921875 -0.953125 0.921875 -2.828125q0 -1.875 -0.921875 -2.8125q-0.921875 -0.953125 -2.765625 -0.953125l-2.0 0l0 7.53125z" fill-rule="nonzero"/><path fill="#014063" d="m350.7454 251.18373l0 0c0 -57.524597 46.632904 -104.157486 104.1575 -104.157486l0 0c27.624268 0 54.117126 10.973709 73.65045 30.507019c19.533325 19.533325 30.507019 46.026184 30.507019 73.65047l0 0c0 57.524582 -46.632874 104.157486 -104.15747 104.157486l0 0c-57.524597 0 -104.1575 -46.632904 -104.1575 -104.157486z" fill-rule="evenodd"/><path stroke="#8fe3e8" stroke-width="3.0" stroke-linejoin="round" stroke-linecap="butt" d="m350.7454 251.18373l0 0c0 -57.524597 46.632904 -104.157486 104.1575 -104.157486l0 0c27.624268 0 54.117126 10.973709 73.65045 30.507019c19.533325 19.533325 30.507019 46.026184 30.507019 73.65047l0 0c0 57.524582 -46.632874 104.157486 -104.15747 104.157486l0 0c-57.524597 0 -104.1575 -46.632904 -104.1575 -104.157486z" fill-rule="evenodd"/><path fill="#8fe3e8" d="m434.45285 258.88248q-1.640625 0 -2.96875 -0.546875q-1.328125 -0.546875 -2.28125 -1.5625q-0.953125 -1.03125 -1.46875 -2.453125q-0.5 -1.4375 -0.5 -3.1875q0 -1.765625 0.5 -3.1875q0.515625 -1.421875 1.46875 -2.421875q0.953125 -1.015625 2.28125 -1.5625q1.328125 -0.546875 2.96875 -0.546875q1.65625 0 2.984375 0.546875q1.328125 0.546875 2.28125 1.546875q0.953125 1.0 1.453125 2.421875q0.515625 1.40625 0.515625 3.1875q0 1.765625 -0.515625 3.203125q-0.5 1.421875 -1.453125 2.453125q-0.953125 1.015625 -2.28125 1.5625q-1.328125 0.546875 -2.984375 0.546875zm0 -2.359375q1.390625 0 2.359375 -0.625q0.96875 -0.640625 1.484375 -1.859375q0.53125 -1.21875 0.53125 -2.90625q0 -1.703125 -0.515625 -2.90625q-0.5 -1.203125 -1.484375 -1.828125q-0.984375 -0.640625 -2.375 -0.640625q-1.359375 0 -2.34375 0.640625q-0.96875 0.625 -1.5 1.828125q-0.515625 1.203125 -0.515625 2.90625q0 1.6875 0.515625 2.90625q0.53125 1.21875 1.5 1.859375q0.984375 0.625 2.34375 0.625zm9.75827 2.140625l0 -10.421875l2.59375 0l0 2.515625l-0.203125 0q0.296875 -1.28125 1.171875 -1.953125q0.875 -0.671875 2.3125 -0.78125l0.8125 -0.0625l0.171875 2.25l-1.53125 0.15625q-1.296875 0.125 -1.96875 0.796875q-0.65625 0.671875 -0.65625 1.890625l0 5.609375l-2.703125 0zm12.189972 0.21875q-1.359375 0 -2.390625 -0.65625q-1.03125 -0.671875 -1.609375 -1.890625q-0.578125 -1.234375 -0.578125 -2.890625q0 -1.6875 0.578125 -2.890625q0.578125 -1.21875 1.609375 -1.875q1.03125 -0.65625 2.390625 -0.65625q1.3125 0 2.28125 0.640625q0.96875 0.640625 1.3125 1.6875l-0.234375 0l0 -6.71875l2.65625 0l0 15.03125l-2.59375 0l0 -2.21875l0.1875 0q-0.3125 1.109375 -1.296875 1.78125q-0.984375 0.65625 -2.3125 0.65625zm0.75 -2.03125q1.203125 0 1.921875 -0.859375q0.71875 -0.875 0.71875 -2.546875q0 -1.71875 -0.71875 -2.546875q-0.71875 -0.84375 -1.921875 -0.84375q-1.1875 0 -1.921875 0.84375q-0.71875 0.828125 -0.71875 2.546875q0 1.671875 0.71875 2.546875q0.734375 0.859375 1.921875 0.859375zm13.187561 2.03125q-1.78125 0 -3.0625 -0.65625q-1.265625 -0.671875 -1.96875 -1.890625q-0.6875 -1.21875 -0.6875 -2.875q0 -1.625 0.671875 -2.828125q0.671875 -1.21875 1.84375 -1.90625q1.1875 -0.703125 2.703125 -0.703125q1.5 0 2.5625 0.640625q1.0625 0.640625 1.640625 1.8125q0.59375 1.171875 0.59375 2.796875l0 0.78125l-7.859375 0l0 -1.53125l5.984375 0l-0.34375 0.3125q0 -1.4375 -0.640625 -2.21875q-0.625 -0.78125 -1.828125 -0.78125q-0.890625 0 -1.53125 0.421875q-0.625 0.40625 -0.953125 1.171875q-0.328125 0.75 -0.328125 1.796875l0 0.140625q0 1.1875 0.359375 1.953125q0.359375 0.765625 1.078125 1.15625q0.734375 0.375 1.796875 0.375q0.875 0 1.75 -0.265625q0.875 -0.265625 1.609375 -0.84375l0.75 1.796875q-0.75 0.609375 -1.890625 0.984375q-1.125 0.359375 -2.25 0.359375zm6.4192505 -0.21875l0 -10.421875l2.59375 0l0 2.515625l-0.203125 0q0.296875 -1.28125 1.171875 -1.953125q0.875 -0.671875 2.3125 -0.78125l0.8125 -0.0625l0.171875 2.25l-1.53125 0.15625q-1.296875 0.125 -1.96875 0.796875q-0.65625 0.671875 -0.65625 1.890625l0 5.609375l-2.703125 0z" fill-rule="nonzero"/><path fill="#000000" fill-opacity="0.0" d="m559.06036 251.18373l123.968506 0" fill-rule="evenodd"/><path stroke="#8fe3e8" stroke-width="3.0" stroke-linejoin="round" stroke-linecap="butt" d="m559.06036 251.18373l105.968506 0" fill-rule="evenodd"/><path fill="#8fe3e8" stroke="#8fe3e8" stroke-width="3.0" stroke-linecap="butt" d="m665.0289 256.13892l13.614319 -4.955185l-13.614319 -4.9552z" fill-rule="evenodd"/><path fill="#014063" d="m574.06824 239.4358l0 0c0 -3.2441864 2.6299438 -5.8741302 5.8741455 -5.8741302l66.23596 0c1.5579224 0 3.052063 0.6188812 4.1536255 1.7205048c1.1016235 1.1016083 1.72052 2.5957184 1.72052 4.1536255l0 23.495834c0 3.2442017 -2.6299438 5.8741455 -5.8741455 5.8741455l-66.23596 0c-3.2442017 0 -5.8741455 -2.6299438 -5.8741455 -5.8741455z" fill-rule="evenodd"/><path stroke="#8fe3e8" stroke-width="2.0" stroke-linejoin="round" stroke-linecap="butt" d="m574.06824 239.4358l0 0c0 -3.2441864 2.6299438 -5.8741302 5.8741455 -5.8741302l66.23596 0c1.5579224 0 3.052063 0.6188812 4.1536255 1.7205048c1.1016235 1.1016083 1.72052 2.5957184 1.72052 4.1536255l0 23.495834c0 3.2442017 -2.6299438 5.8741455 -5.8741455 5.8741455l-66.23596 0c-3.2442017 0 -5.8741455 -2.6299438 -5.8741455 -5.8741455z" fill-rule="evenodd"/><path fill="#8fe3e8" d="m584.7926 256.10873q-1.375 0 -2.375 -0.578125q-0.984375 -0.59375 -1.515625 -1.671875q-0.515625 -1.09375 -0.515625 -2.578125q0 -1.5 0.515625 -2.5625q0.53125 -1.078125 1.515625 -1.65625q1.0 -0.59375 2.375 -0.59375q0.984375 0 1.796875 0.3125q0.828125 0.296875 1.390625 0.890625l-0.421875 0.890625q-0.609375 -0.578125 -1.28125 -0.828125q-0.65625 -0.265625 -1.453125 -0.265625q-1.578125 0 -2.421875 1.0q-0.84375 1.0 -0.84375 2.8125q0 1.8125 0.84375 2.828125q0.84375 1.0 2.421875 1.0q0.796875 0 1.453125 -0.265625q0.671875 -0.265625 1.28125 -0.828125l0.421875 0.890625q-0.5625 0.578125 -1.390625 0.890625q-0.8125 0.3125 -1.796875 0.3125zm8.580383 0q-0.984375 0 -1.78125 -0.34375q-0.796875 -0.34375 -1.359375 -0.96875q-0.5625 -0.625 -0.859375 -1.515625q-0.296875 -0.890625 -0.296875 -2.0q0 -1.125 0.296875 -2.0q0.296875 -0.890625 0.859375 -1.515625q0.5625 -0.625 1.359375 -0.953125q0.796875 -0.34375 1.78125 -0.34375q1.0 0 1.78125 0.34375q0.796875 0.328125 1.359375 0.953125q0.578125 0.625 0.875 1.515625q0.296875 0.875 0.296875 1.984375q0 1.125 -0.3125 2.015625q-0.296875 0.890625 -0.859375 1.515625q-0.5625 0.625 -1.359375 0.96875q-0.78125 0.34375 -1.78125 0.34375zm0 -0.984375q1.015625 0 1.703125 -0.453125q0.703125 -0.453125 1.078125 -1.3125q0.375 -0.859375 0.375 -2.078125q0 -1.234375 -0.375 -2.078125q-0.375 -0.859375 -1.078125 -1.3125q-0.6875 -0.453125 -1.703125 -0.453125q-0.984375 0 -1.6875 0.453125q-0.703125 0.453125 -1.078125 1.3125q-0.375 0.859375 -0.375 2.078125q0 1.21875 0.375 2.078125q0.375 0.859375 1.078125 1.3125q0.703125 0.453125 1.6875 0.453125zm6.2695312 0.859375l0 -9.390625l0.859375 0l5.984375 7.984375l-0.328125 0l0 -7.984375l1.015625 0l0 9.390625l-0.828125 0l-5.984375 -7.984375l0.3125 0l0 7.984375l-1.03125 0zm12.175293 0l0 -8.453125l-3.421875 0l0 -0.9375l7.9375 0l0 0.9375l-3.40625 0l0 8.453125l-1.109375 0zm3.7913818 0l4.140625 -9.390625l0.9375 0l4.140625 9.390625l-1.125 0l-1.15625 -2.671875l0.53125 0.265625l-5.734375 0l0.546875 -0.265625l-1.140625 2.671875l-1.140625 0zm4.59375 -8.109375l-2.140625 5.046875l-0.3125 -0.25l4.921875 0l-0.28125 0.25l-2.15625 -5.046875l-0.03125 0zm6.0286865 8.109375l0 -9.390625l1.09375 0l0 9.390625l-1.09375 0zm3.4119873 0l0 -9.390625l0.859375 0l5.984375 7.984375l-0.328125 0l0 -7.984375l1.015625 0l0 9.390625l-0.828125 0l-5.984375 -7.984375l0.3125 0l0 7.984375l-1.03125 0zm12.909668 0.125q-0.734375 0 -1.390625 -0.125q-0.640625 -0.140625 -1.1875 -0.390625q-0.53125 -0.25 -0.96875 -0.609375l0.390625 -0.875q0.453125 0.328125 0.921875 0.5625q0.46875 0.234375 1.015625 0.34375q0.5625 0.109375 1.21875 0.109375q1.1875 0 1.765625 -0.4375q0.59375 -0.453125 0.59375 -1.1875q0 -0.375 -0.1875 -0.65625q-0.171875 -0.28125 -0.578125 -0.484375q-0.40625 -0.203125 -1.0625 -0.328125l-1.390625 -0.28125q-1.25 -0.265625 -1.875 -0.875q-0.609375 -0.609375 -0.609375 -1.625q0 -0.84375 0.421875 -1.46875q0.4375 -0.625 1.21875 -0.96875q0.78125 -0.34375 1.78125 -0.34375q0.640625 0 1.203125 0.140625q0.578125 0.125 1.0625 0.390625q0.484375 0.25 0.859375 0.625l-0.375 0.859375q-0.609375 -0.546875 -1.28125 -0.796875q-0.65625 -0.25 -1.484375 -0.25q-0.703125 0 -1.21875 0.21875q-0.515625 0.21875 -0.8125 0.625q-0.28125 0.40625 -0.28125 0.9375q0 0.640625 0.390625 1.015625q0.40625 0.359375 1.296875 0.53125l1.390625 0.296875q1.34375 0.28125 1.984375 0.859375q0.640625 0.5625 0.640625 1.53125q0 0.765625 -0.421875 1.375q-0.40625 0.609375 -1.1875 0.953125q-0.78125 0.328125 -1.84375 0.328125z" fill-rule="nonzero"/></g></svg>