<svg version="1.1" viewBox="0.0 0.0 746.1286089238845 224.51706036745406" fill="none" stroke="none" stroke-linecap="square" stroke-miterlimit="10" xmlns:xlink="http://www.w3.org/1999/xlink" xmlns="http://www.w3.org/2000/svg"><clipPath id="p.0"><path d="m0 0l746.1286 0l0 224.51706l-746.1286 0l0 -224.51706z" clip-rule="nonzero"/></clipPath><g clip-path="url(#p.0)"><path fill="#000000" fill-opacity="0.0" d="m0 0l746.1286 0l0 224.51706l-746.1286 0z" fill-rule="evenodd"/><path fill="#014063" d="m530.0032 112.15748l0 0c0 -57.524586 46.632874 -104.15748 104.15747 -104.15748l0 0c27.624268 0 54.117126 10.973703 73.65045 30.507019c19.533325 19.533318 30.507019 46.026176 30.507019 73.65046l0 0c0 57.52459 -46.632874 104.15748 -104.15747 104.15748l0 0c-57.524597 0 -104.15747 -46.63289 -104.15747 -104.15748z" fill-rule="evenodd"/><path stroke="#8fe3e8" stroke-width="3.0" stroke-linejoin="round" stroke-linecap="butt" d="m530.0032 112.15748l0 0c0 -57.524586 46.632874 -104.15748 104.15747 -104.15748l0 0c27.624268 0 54.117126 10.973703 73.65045 30.507019c19.533325 19.533318 30.507019 46.026176 30.507019 73.65046l0 0c0 57.52459 -46.632874 104.15748 -104.15747 104.15748l0 0c-57.524597 0 -104.15747 -46.63289 -104.15747 -104.15748z" fill-rule="evenodd"/><path fill="#8fe3e8" d="m583.06384 122.817474l0 -20.671875l8.96875 0q2.28125 0 3.859375 0.765625q1.59375 0.75 2.40625 2.1875q0.828125 1.4375 0.828125 3.5q0 2.015625 -0.828125 3.46875q-0.8125 1.453125 -2.40625 2.234375q-1.578125 0.765625 -3.859375 0.765625l-5.21875 0l0 7.75l-3.75 0zm3.75 -10.703125l4.625 0q2.0 0 3.015625 -0.890625q1.03125 -0.90625 1.03125 -2.625q0 -1.734375 -1.03125 -2.609375q-1.015625 -0.890625 -3.015625 -0.890625l-4.625 0l0 7.015625zm14.719238 10.703125l0 -14.34375l3.578125 0l0 3.46875l-0.296875 0q0.421875 -1.765625 1.609375 -2.6875q1.203125 -0.921875 3.203125 -1.078125l1.109375 -0.078125l0.234375 3.109375l-2.109375 0.203125q-1.78125 0.171875 -2.703125 1.09375q-0.90625 0.921875 -0.90625 2.59375l0 7.71875l-3.71875 0zm17.808777 0.296875q-2.234375 0 -3.875 -0.90625q-1.640625 -0.921875 -2.5625 -2.59375q-0.90625 -1.6875 -0.90625 -3.984375q0 -2.28125 0.90625 -3.953125q0.921875 -1.671875 2.5625 -2.578125q1.640625 -0.921875 3.875 -0.921875q2.21875 0 3.859375 0.921875q1.640625 0.90625 2.546875 2.578125q0.921875 1.671875 0.921875 3.953125q0 2.296875 -0.921875 3.984375q-0.90625 1.671875 -2.546875 2.59375q-1.640625 0.90625 -3.859375 0.90625zm0 -2.796875q1.640625 0 2.625 -1.1875q1.0 -1.1875 1.0 -3.53125q0 -2.3125 -1.0 -3.46875q-0.984375 -1.15625 -2.625 -1.15625q-1.65625 0 -2.65625 1.15625q-0.984375 1.15625 -0.984375 3.46875q0 2.34375 0.984375 3.53125q1.0 1.1875 2.65625 1.1875zm15.861755 2.796875q-1.875 0 -3.296875 -0.90625q-1.421875 -0.921875 -2.21875 -2.59375q-0.796875 -1.6875 -0.796875 -3.984375q0 -2.3125 0.796875 -3.96875q0.796875 -1.65625 2.21875 -2.5625q1.421875 -0.921875 3.296875 -0.921875q1.78125 0 3.109375 0.890625q1.34375 0.875 1.8125 2.3125l-0.3125 0l0 -9.234375l3.65625 0l0 20.671875l-3.578125 0l0 -3.046875l0.265625 0q-0.4375 1.515625 -1.796875 2.4375q-1.34375 0.90625 -3.15625 0.90625zm1.03125 -2.796875q1.640625 0 2.625 -1.1875q1.0 -1.1875 1.0 -3.5q0 -2.34375 -1.0 -3.5q-0.984375 -1.15625 -2.625 -1.15625q-1.65625 0 -2.65625 1.15625q-0.984375 1.15625 -0.984375 3.5q0 2.3125 0.984375 3.5q1.0 1.1875 2.65625 1.1875zm16.237488 2.796875q-1.78125 0 -2.953125 -0.65625q-1.171875 -0.671875 -1.75 -1.984375q-0.578125 -1.328125 -0.578125 -3.28125l0 -8.71875l3.671875 0l0 8.765625q0 1.0 0.28125 1.6875q0.28125 0.671875 0.84375 1.0q0.578125 0.3125 1.453125 0.3125q1.0 0 1.75 -0.453125q0.75 -0.453125 1.171875 -1.28125q0.421875 -0.84375 0.421875 -1.96875l0 -8.0625l3.671875 0l0 14.34375l-3.578125 0l0 -2.984375l0.40625 0q-0.609375 1.578125 -1.859375 2.4375q-1.25 0.84375 -2.953125 0.84375zm18.418457 0q-2.25 0 -3.921875 -0.921875q-1.671875 -0.921875 -2.59375 -2.625q-0.90625 -1.703125 -0.90625 -4.0q0 -2.28125 0.90625 -3.9375q0.921875 -1.65625 2.59375 -2.546875q1.671875 -0.90625 3.921875 -0.90625q1.375 0 2.71875 0.453125q1.359375 0.4375 2.234375 1.21875l-1.078125 2.5625q-0.765625 -0.6875 -1.71875 -1.03125q-0.953125 -0.359375 -1.828125 -0.359375q-1.90625 0 -2.953125 1.1875q-1.03125 1.1875 -1.03125 3.390625q0 2.171875 1.03125 3.421875q1.046875 1.25 2.953125 1.25q0.84375 0 1.8125 -0.34375q0.96875 -0.359375 1.734375 -1.0625l1.078125 2.578125q-0.875 0.765625 -2.234375 1.21875q-1.359375 0.453125 -2.71875 0.453125zm13.83905 0q-2.859375 0 -4.28125 -1.4375q-1.40625 -1.4375 -1.40625 -4.203125l0 -6.234375l-2.75 0l0 -2.765625l2.75 0l0 -4.28125l3.671875 0l0 4.28125l4.34375 0l0 2.765625l-4.34375 0l0 6.03125q0 1.40625 0.609375 2.109375q0.625 0.703125 2.0 0.703125q0.40625 0 0.84375 -0.09375q0.453125 -0.109375 0.921875 -0.21875l0.546875 2.6875q-0.53125 0.296875 -1.34375 0.46875q-0.796875 0.1875 -1.5625 0.1875z" fill-rule="nonzero"/><path fill="#014063" d="m8.96643 112.15748l0 0c0 -57.524586 46.632893 -104.15748 104.15748 -104.15748l0 0c27.624275 0 54.11715 10.973703 73.65046 30.507019c19.533325 19.533318 30.507019 46.026176 30.507019 73.65046l0 0c0 57.52459 -46.63289 104.15748 -104.15748 104.15748l0 0c-57.524586 0 -104.15748 -46.63289 -104.15748 -104.15748z" fill-rule="evenodd"/><path stroke="#8fe3e8" stroke-width="3.0" stroke-linejoin="round" stroke-linecap="butt" d="m8.96643 112.15748l0 0c0 -57.524586 46.632893 -104.15748 104.15748 -104.15748l0 0c27.624275 0 54.11715 10.973703 73.65046 30.507019c19.533325 19.533318 30.507019 46.026176 30.507019 73.65046l0 0c0 57.52459 -46.63289 104.15748 -104.15748 104.15748l0 0c-57.524586 0 -104.15748 -46.63289 -104.15748 -104.15748z" fill-rule="evenodd"/><path fill="#8fe3e8" d="m68.39133 122.817474l0 -20.671875l8.96875 0q2.28125 0 3.859375 0.765625q1.59375 0.75 2.40625 2.1875q0.828125 1.4375 0.828125 3.5q0 2.015625 -0.828125 3.46875q-0.8125 1.453125 -2.40625 2.234375q-1.578125 0.765625 -3.859375 0.765625l-5.21875 0l0 7.75l-3.75 0zm3.75 -10.703125l4.625 0q2.0 0 3.015625 -0.890625q1.03125 -0.90625 1.03125 -2.625q0 -1.734375 -1.03125 -2.609375q-1.015625 -0.890625 -3.015625 -0.890625l-4.625 0l0 7.015625zm21.34172 11.0q-2.421875 0 -4.1875 -0.90625q-1.765625 -0.921875 -2.71875 -2.59375q-0.953125 -1.671875 -0.953125 -3.953125q0 -2.234375 0.921875 -3.90625q0.9375 -1.671875 2.5625 -2.625q1.625 -0.953125 3.703125 -0.953125q2.0625 0 3.515625 0.890625q1.46875 0.875 2.28125 2.484375q0.8125 1.609375 0.8125 3.84375l0 1.09375l-10.828125 0l0 -2.125l8.234375 0l-0.46875 0.453125q0 -2.0 -0.875 -3.0625q-0.875 -1.078125 -2.515625 -1.078125q-1.234375 0 -2.109375 0.578125q-0.859375 0.5625 -1.3125 1.609375q-0.453125 1.03125 -0.453125 2.46875l0 0.21875q0 1.609375 0.5 2.671875q0.5 1.046875 1.484375 1.578125q1.0 0.515625 2.46875 0.515625q1.203125 0 2.40625 -0.359375q1.203125 -0.359375 2.203125 -1.15625l1.015625 2.46875q-1.015625 0.84375 -2.578125 1.34375q-1.546875 0.5 -3.109375 0.5zm8.833328 -0.296875l0 -14.34375l3.578125 0l0 3.46875l-0.296875 0q0.421875 -1.765625 1.609375 -2.6875q1.203125 -0.921875 3.203125 -1.078125l1.109375 -0.078125l0.234375 3.109375l-2.109375 0.203125q-1.78125 0.171875 -2.703125 1.09375q-0.90625 0.921875 -0.90625 2.59375l0 7.71875l-3.71875 0zm16.599945 0.296875q-1.203125 0 -2.328125 -0.21875q-1.125 -0.203125 -2.078125 -0.5625q-0.9375 -0.359375 -1.640625 -0.921875l0.9375 -2.40625q0.734375 0.46875 1.578125 0.828125q0.859375 0.34375 1.765625 0.53125q0.921875 0.171875 1.796875 0.171875q1.40625 0 2.09375 -0.484375q0.6875 -0.484375 0.6875 -1.28125q0 -0.671875 -0.453125 -1.03125q-0.453125 -0.375 -1.359375 -0.546875l-2.9375 -0.5625q-1.8125 -0.359375 -2.765625 -1.328125q-0.953125 -0.984375 -0.953125 -2.546875q0 -1.40625 0.765625 -2.421875q0.78125 -1.03125 2.15625 -1.59375q1.390625 -0.5625 3.171875 -0.5625q1.03125 0 2.0 0.203125q0.96875 0.1875 1.828125 0.5625q0.859375 0.359375 1.515625 0.9375l-1.0 2.40625q-0.5625 -0.46875 -1.296875 -0.796875q-0.734375 -0.34375 -1.515625 -0.53125q-0.765625 -0.1875 -1.5 -0.1875q-1.4375 0 -2.125 0.5q-0.6875 0.484375 -0.6875 1.3125q0 0.609375 0.40625 1.03125q0.40625 0.40625 1.265625 0.546875l2.9375 0.5625q1.90625 0.34375 2.875 1.296875q0.984375 0.9375 0.984375 2.515625q0 1.4375 -0.765625 2.46875q-0.75 1.015625 -2.140625 1.5625q-1.375 0.546875 -3.21875 0.546875zm15.608994 0q-2.234375 0 -3.875 -0.90625q-1.640625 -0.921875 -2.5625 -2.59375q-0.90625 -1.6875 -0.90625 -3.984375q0 -2.28125 0.90625 -3.953125q0.921875 -1.671875 2.5625 -2.578125q1.640625 -0.921875 3.875 -0.921875q2.21875 0 3.859375 0.921875q1.640625 0.90625 2.546875 2.578125q0.921875 1.671875 0.921875 3.953125q0 2.296875 -0.921875 3.984375q-0.90625 1.671875 -2.546875 2.59375q-1.640625 0.90625 -3.859375 0.90625zm0 -2.796875q1.640625 0 2.625 -1.1875q1.0 -1.1875 1.0 -3.53125q0 -2.3125 -1.0 -3.46875q-0.984375 -1.15625 -2.625 -1.15625q-1.65625 0 -2.65625 1.15625q-0.984375 1.15625 -0.984375 3.46875q0 2.34375 0.984375 3.53125q1.0 1.1875 2.65625 1.1875zm10.346115 2.5l0 -14.34375l3.578125 0l0 2.875l-0.328125 0q0.65625 -1.546875 2.015625 -2.359375q1.359375 -0.8125 3.09375 -0.8125q1.734375 0 2.84375 0.65625q1.109375 0.640625 1.671875 1.953125q0.5625 1.296875 0.5625 3.296875l0 8.734375l-3.671875 0l0 -8.5625q0 -1.109375 -0.28125 -1.8125q-0.28125 -0.71875 -0.859375 -1.046875q-0.5625 -0.34375 -1.4375 -0.34375q-1.0625 0 -1.859375 0.46875q-0.78125 0.453125 -1.21875 1.28125q-0.4375 0.828125 -0.4375 1.953125l0 8.0625l-3.671875 0z" fill-rule="nonzero"/><path fill="#000000" fill-opacity="0.0" d="m217.27876 112.15748l312.72443 0" fill-rule="evenodd"/><path stroke="#8fe3e8" stroke-width="3.0" stroke-linejoin="round" stroke-linecap="butt" d="m217.27876 112.15748l294.72443 0" fill-rule="evenodd"/><path fill="#8fe3e8" stroke="#8fe3e8" stroke-width="3.0" stroke-linecap="butt" d="m512.0032 117.11268l13.614258 -4.9552l-13.614258 -4.9551926z" fill-rule="evenodd"/><path fill="#014063" d="m288.02548 102.41219l0 0c0 -3.244194 2.6299438 -5.874138 5.8741455 -5.874138l166.61392 0c1.5579224 0 3.0520325 0.6188812 4.153656 1.7204971c1.101593 1.1016159 1.7204895 2.5957184 1.7204895 4.1536407l0 23.495827c0 3.2441864 -2.6299438 5.8741302 -5.8741455 5.8741302l-166.61392 0l0 0c-3.2442017 0 -5.8741455 -2.6299438 -5.8741455 -5.8741302z" fill-rule="evenodd"/><path stroke="#8fe3e8" stroke-width="2.0" stroke-linejoin="round" stroke-linecap="butt" d="m288.02548 102.41219l0 0c0 -3.244194 2.6299438 -5.874138 5.8741455 -5.874138l166.61392 0c1.5579224 0 3.0520325 0.6188812 4.153656 1.7204971c1.101593 1.1016159 1.7204895 2.5957184 1.7204895 4.1536407l0 23.495827c0 3.2441864 -2.6299438 5.8741302 -5.8741455 5.8741302l-166.61392 0l0 0c-3.2442017 0 -5.8741455 -2.6299438 -5.8741455 -5.8741302z" fill-rule="evenodd"/><path fill="#8fe3e8" d="m309.82477 122.420105l0 -15.96875l6.328125 0q1.71875 0 2.90625 0.5625q1.1875 0.546875 1.796875 1.625q0.609375 1.078125 0.609375 2.609375q0 1.5 -0.609375 2.59375q-0.609375 1.078125 -1.796875 1.65625q-1.1875 0.5625 -2.90625 0.5625l-4.46875 0l0 6.359375l-1.859375 0zm1.859375 -7.921875l4.234375 0q1.84375 0 2.78125 -0.828125q0.9375 -0.828125 0.9375 -2.421875q0 -1.609375 -0.9375 -2.4375q-0.9375 -0.828125 -2.78125 -0.828125l-4.234375 0l0 6.515625zm18.77887 8.125q-3.125 0 -4.765625 -1.65625q-1.640625 -1.671875 -1.640625 -4.875l0 -9.640625l1.859375 0l0 9.5625q0 2.484375 1.15625 3.71875q1.15625 1.234375 3.390625 1.234375q2.25 0 3.375 -1.234375q1.140625 -1.234375 1.140625 -3.71875l0 -9.5625l1.859375 0l0 9.640625q0 3.203125 -1.625 4.875q-1.625 1.65625 -4.75 1.65625zm10.196838 -0.203125l0 -15.96875l6.328125 0q2.5625 0 3.9375 1.203125q1.375 1.1875 1.375 3.421875q0 1.390625 -0.625 2.421875q-0.609375 1.03125 -1.8125 1.578125q-1.203125 0.53125 -2.875 0.53125l0.21875 -0.296875l0.453125 0q0.890625 0 1.546875 0.453125q0.65625 0.453125 1.203125 1.453125l2.796875 5.203125l-2.03125 0l-2.765625 -5.125q-0.34375 -0.625 -0.765625 -0.984375q-0.40625 -0.375 -0.953125 -0.5q-0.53125 -0.140625 -1.265625 -0.140625l-2.90625 0l0 6.75l-1.859375 0zm1.859375 -8.21875l4.1875 0q1.859375 0 2.8125 -0.78125q0.953125 -0.78125 0.953125 -2.34375q0 -1.53125 -0.953125 -2.3125q-0.953125 -0.78125 -2.8125 -0.78125l-4.1875 0l0 6.21875zm20.090546 8.421875q-2.34375 0 -4.03125 -1.0q-1.671875 -1.0 -2.578125 -2.828125q-0.890625 -1.828125 -0.890625 -4.375q0 -2.53125 0.890625 -4.359375q0.90625 -1.828125 2.578125 -2.8125q1.6875 -1.0 4.03125 -1.0q1.65625 0 3.0625 0.515625q1.40625 0.515625 2.359375 1.515625l-0.71875 1.515625q-1.046875 -0.96875 -2.171875 -1.40625q-1.125 -0.453125 -2.484375 -0.453125q-2.6875 0 -4.125 1.703125q-1.421875 1.703125 -1.421875 4.78125q0 3.078125 1.421875 4.796875q1.4375 1.703125 4.125 1.703125q1.359375 0 2.484375 -0.4375q1.125 -0.4375 2.171875 -1.421875l0.71875 1.53125q-0.953125 0.96875 -2.359375 1.5q-1.40625 0.53125 -3.0625 0.53125zm8.34137 -0.203125l0 -15.96875l1.859375 0l0 7.0625l9.578125 0l0 -7.0625l1.859375 0l0 15.96875l-1.859375 0l0 -7.296875l-9.578125 0l0 7.296875l-1.859375 0zm15.710114 0l7.03125 -15.96875l1.59375 0l7.046875 15.96875l-1.921875 0l-1.96875 -4.546875l0.90625 0.46875l-9.75 0l0.921875 -0.46875l-1.9375 4.546875l-1.921875 0zm7.8125 -13.796875l-3.65625 8.59375l-0.53125 -0.4375l8.375 0l-0.5 0.4375l-3.640625 -8.59375l-0.046875 0zm15.270996 14.0q-1.25 0 -2.359375 -0.21875q-1.09375 -0.234375 -2.015625 -0.65625q-0.90625 -0.421875 -1.65625 -1.03125l0.65625 -1.484375q0.765625 0.5625 1.5625 0.96875q0.8125 0.390625 1.75 0.578125q0.953125 0.1875 2.0625 0.1875q2.03125 0 3.015625 -0.75q0.984375 -0.765625 0.984375 -2.015625q0 -0.65625 -0.3125 -1.125q-0.296875 -0.484375 -0.984375 -0.8125q-0.6875 -0.34375 -1.796875 -0.578125l-2.359375 -0.46875q-2.125 -0.453125 -3.1875 -1.484375q-1.046875 -1.03125 -1.046875 -2.75q0 -1.4375 0.734375 -2.5q0.734375 -1.0625 2.0625 -1.640625q1.328125 -0.59375 3.015625 -0.59375q1.09375 0 2.0625 0.234375q0.984375 0.21875 1.8125 0.65625q0.828125 0.4375 1.453125 1.078125l-0.65625 1.453125q-1.015625 -0.9375 -2.15625 -1.34375q-1.125 -0.421875 -2.53125 -0.421875q-1.203125 0 -2.078125 0.359375q-0.875 0.359375 -1.359375 1.046875q-0.484375 0.6875 -0.484375 1.59375q0 1.09375 0.671875 1.734375q0.671875 0.625 2.1875 0.921875l2.359375 0.5q2.28125 0.46875 3.375 1.4375q1.109375 0.96875 1.109375 2.625q0 1.3125 -0.71875 2.34375q-0.71875 1.03125 -2.046875 1.59375q-1.3125 0.5625 -3.125 0.5625zm8.761688 -0.203125l0 -15.96875l10.078125 0l0 1.5625l-8.265625 0l0 5.53125l7.796875 0l0 1.5625l-7.796875 0l0 5.75l8.265625 0l0 1.5625l-10.078125 0zm13.208588 0l0 -15.96875l5.390625 0q2.609375 0 4.40625 0.921875q1.8125 0.90625 2.75 2.6875q0.9375 1.78125 0.9375 4.359375q0 2.578125 -0.9375 4.375q-0.9375 1.796875 -2.75 2.71875q-1.796875 0.90625 -4.40625 0.90625l-5.390625 0zm1.859375 -1.578125l3.40625 0q3.140625 0 4.6875 -1.609375q1.5625 -1.609375 1.5625 -4.8125q0 -3.1875 -1.5625 -4.78125q-1.5625 -1.609375 -4.6875 -1.609375l-3.40625 0l0 12.8125z" fill-rule="nonzero"/></g></svg>