<svg version="1.1" viewBox="0.0 0.0 743.5800524934383 312.7742782152231" fill="none" stroke="none" stroke-linecap="square" stroke-miterlimit="10" xmlns:xlink="http://www.w3.org/1999/xlink" xmlns="http://www.w3.org/2000/svg"><clipPath id="p.0"><path d="m0 0l743.5801 0l0 312.7743l-743.5801 0l0 -312.7743z" clip-rule="nonzero"/></clipPath><g clip-path="url(#p.0)"><path fill="#000000" fill-opacity="0.0" d="m0 0l743.5801 0l0 312.7743l-743.5801 0z" fill-rule="evenodd"/><path fill="#014063" d="m529.03546 112.15748l0 0c0 -57.524586 46.632874 -104.15748 104.15747 -104.15748l0 0c27.624268 0 54.117126 10.973703 73.65045 30.507019c19.533325 19.533318 30.507019 46.026176 30.507019 73.65046l0 0c0 57.52459 -46.632874 104.15748 -104.15747 104.15748l0 0c-57.524597 0 -104.15747 -46.63289 -104.15747 -104.15748z" fill-rule="evenodd"/><path stroke="#8fe3e8" stroke-width="3.0" stroke-linejoin="round" stroke-linecap="butt" d="m529.03546 112.15748l0 0c0 -57.524586 46.632874 -104.15748 104.15747 -104.15748l0 0c27.624268 0 54.117126 10.973703 73.65045 30.507019c19.533325 19.533318 30.507019 46.026176 30.507019 73.65046l0 0c0 57.52459 -46.632874 104.15748 -104.15747 104.15748l0 0c-57.524597 0 -104.15747 -46.63289 -104.15747 -104.15748z" fill-rule="evenodd"/><path fill="#8fe3e8" d="m588.4603 122.817474l0 -20.671875l8.96875 0q2.28125 0 3.859375 0.765625q1.59375 0.75 2.40625 2.1875q0.828125 1.4375 0.828125 3.5q0 2.015625 -0.828125 3.46875q-0.8125 1.453125 -2.40625 2.234375q-1.578125 0.765625 -3.859375 0.765625l-5.21875 0l0 7.75l-3.75 0zm3.75 -10.703125l4.625 0q2.0 0 3.015625 -0.890625q1.03125 -0.90625 1.03125 -2.625q0 -1.734375 -1.03125 -2.609375q-1.015625 -0.890625 -3.015625 -0.890625l-4.625 0l0 7.015625zm21.341736 11.0q-2.421875 0 -4.1875 -0.90625q-1.765625 -0.921875 -2.71875 -2.59375q-0.953125 -1.671875 -0.953125 -3.953125q0 -2.234375 0.921875 -3.90625q0.9375 -1.671875 2.5625 -2.625q1.625 -0.953125 3.703125 -0.953125q2.0625 0 3.515625 0.890625q1.46875 0.875 2.28125 2.484375q0.8125 1.609375 0.8125 3.84375l0 1.09375l-10.828125 0l0 -2.125l8.234375 0l-0.46875 0.453125q0 -2.0 -0.875 -3.0625q-0.875 -1.078125 -2.515625 -1.078125q-1.234375 0 -2.109375 0.578125q-0.859375 0.5625 -1.3125 1.609375q-0.453125 1.03125 -0.453125 2.46875l0 0.21875q0 1.609375 0.5 2.671875q0.5 1.046875 1.484375 1.578125q1.0 0.515625 2.46875 0.515625q1.203125 0 2.40625 -0.359375q1.203125 -0.359375 2.203125 -1.15625l1.015625 2.46875q-1.015625 0.84375 -2.578125 1.34375q-1.546875 0.5 -3.109375 0.5zm8.833313 -0.296875l0 -14.34375l3.578125 0l0 3.46875l-0.296875 0q0.421875 -1.765625 1.609375 -2.6875q1.203125 -0.921875 3.203125 -1.078125l1.109375 -0.078125l0.234375 3.109375l-2.109375 0.203125q-1.78125 0.171875 -2.703125 1.09375q-0.90625 0.921875 -0.90625 2.59375l0 7.71875l-3.71875 0zm16.599976 0.296875q-1.203125 0 -2.328125 -0.21875q-1.125 -0.203125 -2.078125 -0.5625q-0.9375 -0.359375 -1.640625 -0.921875l0.9375 -2.40625q0.734375 0.46875 1.578125 0.828125q0.859375 0.34375 1.765625 0.53125q0.921875 0.171875 1.796875 0.171875q1.40625 0 2.09375 -0.484375q0.6875 -0.484375 0.6875 -1.28125q0 -0.671875 -0.453125 -1.03125q-0.453125 -0.375 -1.359375 -0.546875l-2.9375 -0.5625q-1.8125 -0.359375 -2.765625 -1.328125q-0.953125 -0.984375 -0.953125 -2.546875q0 -1.40625 0.765625 -2.421875q0.78125 -1.03125 2.15625 -1.59375q1.390625 -0.5625 3.171875 -0.5625q1.03125 0 2.0 0.203125q0.96875 0.1875 1.828125 0.5625q0.859375 0.359375 1.515625 0.9375l-1.0 2.40625q-0.5625 -0.46875 -1.296875 -0.796875q-0.734375 -0.34375 -1.515625 -0.53125q-0.765625 -0.1875 -1.5 -0.1875q-1.4375 0 -2.125 0.5q-0.6875 0.484375 -0.6875 1.3125q0 0.609375 0.40625 1.03125q0.40625 0.40625 1.265625 0.546875l2.9375 0.5625q1.90625 0.34375 2.875 1.296875q0.984375 0.9375 0.984375 2.515625q0 1.4375 -0.765625 2.46875q-0.75 1.015625 -2.140625 1.5625q-1.375 0.546875 -3.21875 0.546875zm15.608948 0q-2.234375 0 -3.875 -0.90625q-1.640625 -0.921875 -2.5625 -2.59375q-0.90625 -1.6875 -0.90625 -3.984375q0 -2.28125 0.90625 -3.953125q0.921875 -1.671875 2.5625 -2.578125q1.640625 -0.921875 3.875 -0.921875q2.21875 0 3.859375 0.921875q1.640625 0.90625 2.546875 2.578125q0.921875 1.671875 0.921875 3.953125q0 2.296875 -0.921875 3.984375q-0.90625 1.671875 -2.546875 2.59375q-1.640625 0.90625 -3.859375 0.90625zm0 -2.796875q1.640625 0 2.625 -1.1875q1.0 -1.1875 1.0 -3.53125q0 -2.3125 -1.0 -3.46875q-0.984375 -1.15625 -2.625 -1.15625q-1.65625 0 -2.65625 1.15625q-0.984375 1.15625 -0.984375 3.46875q0 2.34375 0.984375 3.53125q1.0 1.1875 2.65625 1.1875zm10.34613 2.5l0 -14.34375l3.578125 0l0 2.875l-0.328125 0q0.65625 -1.546875 2.015625 -2.359375q1.359375 -0.8125 3.09375 -0.8125q1.734375 0 2.84375 0.65625q1.109375 0.640625 1.671875 1.953125q0.5625 1.296875 0.5625 3.296875l0 8.734375l-3.671875 0l0 -8.5625q0 -1.109375 -0.28125 -1.8125q-0.28125 -0.71875 -0.859375 -1.046875q-0.5625 -0.34375 -1.4375 -0.34375q-1.0625 0 -1.859375 0.46875q-0.78125 0.453125 -1.21875 1.28125q-0.4375 0.828125 -0.4375 1.953125l0 8.0625l-3.671875 0z" fill-rule="nonzero"/><path fill="#014063" d="m7.9986877 112.15748l0 0c0 -57.524586 46.632893 -104.15748 104.15748 -104.15748l0 0c27.62429 0 54.11715 10.973703 73.65046 30.507019c19.533325 19.533318 30.507019 46.026176 30.507019 73.65046l0 0c0 57.52459 -46.63289 104.15748 -104.15748 104.15748l0 0c-57.524586 0 -104.15748 -46.63289 -104.15748 -104.15748z" fill-rule="evenodd"/><path stroke="#8fe3e8" stroke-width="3.0" stroke-linejoin="round" stroke-linecap="butt" d="m7.9986877 112.15748l0 0c0 -57.524586 46.632893 -104.15748 104.15748 -104.15748l0 0c27.62429 0 54.11715 10.973703 73.65046 30.507019c19.533325 19.533318 30.507019 46.026176 30.507019 73.65046l0 0c0 57.52459 -46.63289 104.15748 -104.15748 104.15748l0 0c-57.524586 0 -104.15748 -46.63289 -104.15748 -104.15748z" fill-rule="evenodd"/><path fill="#8fe3e8" d="m67.423584 122.817474l0 -20.671875l8.96875 0q2.28125 0 3.859375 0.765625q1.59375 0.75 2.40625 2.1875q0.828125 1.4375 0.828125 3.5q0 2.015625 -0.828125 3.46875q-0.8125 1.453125 -2.40625 2.234375q-1.578125 0.765625 -3.859375 0.765625l-5.21875 0l0 7.75l-3.75 0zm3.75 -10.703125l4.625 0q2.0 0 3.015625 -0.890625q1.03125 -0.90625 1.03125 -2.625q0 -1.734375 -1.03125 -2.609375q-1.015625 -0.890625 -3.015625 -0.890625l-4.625 0l0 7.015625zm21.34172 11.0q-2.421875 0 -4.1875 -0.90625q-1.765625 -0.921875 -2.71875 -2.59375q-0.953125 -1.671875 -0.953125 -3.953125q0 -2.234375 0.921875 -3.90625q0.9375 -1.671875 2.5625 -2.625q1.625 -0.953125 3.703125 -0.953125q2.0625 0 3.515625 0.890625q1.46875 0.875 2.28125 2.484375q0.8125 1.609375 0.8125 3.84375l0 1.09375l-10.828125 0l0 -2.125l8.234375 0l-0.46875 0.453125q0 -2.0 -0.875 -3.0625q-0.875 -1.078125 -2.515625 -1.078125q-1.234375 0 -2.109375 0.578125q-0.859375 0.5625 -1.3125 1.609375q-0.453125 1.03125 -0.453125 2.46875l0 0.21875q0 1.609375 0.5 2.671875q0.5 1.046875 1.484375 1.578125q1.0 0.515625 2.46875 0.515625q1.203125 0 2.40625 -0.359375q1.203125 -0.359375 2.203125 -1.15625l1.015625 2.46875q-1.015625 0.84375 -2.578125 1.34375q-1.546875 0.5 -3.109375 0.5zm8.833328 -0.296875l0 -14.34375l3.578125 0l0 3.46875l-0.296875 0q0.421875 -1.765625 1.609375 -2.6875q1.203125 -0.921875 3.203125 -1.078125l1.109375 -0.078125l0.234375 3.109375l-2.109375 0.203125q-1.78125 0.171875 -2.703125 1.09375q-0.90625 0.921875 -0.90625 2.59375l0 7.71875l-3.71875 0zm16.599945 0.296875q-1.203125 0 -2.328125 -0.21875q-1.125 -0.203125 -2.078125 -0.5625q-0.9375 -0.359375 -1.640625 -0.921875l0.9375 -2.40625q0.734375 0.46875 1.578125 0.828125q0.859375 0.34375 1.765625 0.53125q0.921875 0.171875 1.796875 0.171875q1.40625 0 2.09375 -0.484375q0.6875 -0.484375 0.6875 -1.28125q0 -0.671875 -0.453125 -1.03125q-0.453125 -0.375 -1.359375 -0.546875l-2.9375 -0.5625q-1.8125 -0.359375 -2.765625 -1.328125q-0.953125 -0.984375 -0.953125 -2.546875q0 -1.40625 0.765625 -2.421875q0.78125 -1.03125 2.15625 -1.59375q1.390625 -0.5625 3.171875 -0.5625q1.03125 0 2.0 0.203125q0.96875 0.1875 1.828125 0.5625q0.859375 0.359375 1.515625 0.9375l-1.0 2.40625q-0.5625 -0.46875 -1.296875 -0.796875q-0.734375 -0.34375 -1.515625 -0.53125q-0.765625 -0.1875 -1.5 -0.1875q-1.4375 0 -2.125 0.5q-0.6875 0.484375 -0.6875 1.3125q0 0.609375 0.40625 1.03125q0.40625 0.40625 1.265625 0.546875l2.9375 0.5625q1.90625 0.34375 2.875 1.296875q0.984375 0.9375 0.984375 2.515625q0 1.4375 -0.765625 2.46875q-0.75 1.015625 -2.140625 1.5625q-1.375 0.546875 -3.21875 0.546875zm15.608994 0q-2.234375 0 -3.875 -0.90625q-1.640625 -0.921875 -2.5625 -2.59375q-0.90625 -1.6875 -0.90625 -3.984375q0 -2.28125 0.90625 -3.953125q0.921875 -1.671875 2.5625 -2.578125q1.640625 -0.921875 3.875 -0.921875q2.21875 0 3.859375 0.921875q1.640625 0.90625 2.546875 2.578125q0.921875 1.671875 0.921875 3.953125q0 2.296875 -0.921875 3.984375q-0.90625 1.671875 -2.546875 2.59375q-1.640625 0.90625 -3.859375 0.90625zm0 -2.796875q1.640625 0 2.625 -1.1875q1.0 -1.1875 1.0 -3.53125q0 -2.3125 -1.0 -3.46875q-0.984375 -1.15625 -2.625 -1.15625q-1.65625 0 -2.65625 1.15625q-0.984375 1.15625 -0.984375 3.46875q0 2.34375 0.984375 3.53125q1.0 1.1875 2.65625 1.1875zm10.346115 2.5l0 -14.34375l3.578125 0l0 2.875l-0.328125 0q0.65625 -1.546875 2.015625 -2.359375q1.359375 -0.8125 3.09375 -0.8125q1.734375 0 2.84375 0.65625q1.109375 0.640625 1.671875 1.953125q0.5625 1.296875 0.5625 3.296875l0 8.734375l-3.671875 0l0 -8.5625q0 -1.109375 -0.28125 -1.8125q-0.28125 -0.71875 -0.859375 -1.046875q-0.5625 -0.34375 -1.4375 -0.34375q-1.0625 0 -1.859375 0.46875q-0.78125 0.453125 -1.21875 1.28125q-0.4375 0.828125 -0.4375 1.953125l0 8.0625l-3.671875 0z" fill-rule="nonzero"/><path fill="#014063" d="m115.53281 216.31496l42.85565 0l-35.043922 -21.29927l99.327385 21.29927l149.99474 0l0 15.086624l0 0l0 22.629913l0 52.80316l-149.99474 0l-64.28346 0l0 0l-42.85565 0l0 -52.80316l0 -22.629913l0 0z" fill-rule="evenodd"/><path stroke="#8fe3e8" stroke-width="2.0" stroke-linejoin="round" stroke-linecap="butt" d="m115.53281 216.31496l42.85565 0l-35.043922 -21.29927l99.327385 21.29927l149.99474 0l0 15.086624l0 0l0 22.629913l0 52.80316l-149.99474 0l-64.28346 0l0 0l-42.85565 0l0 -52.80316l0 -22.629913l0 0z" fill-rule="evenodd"/><path fill="#8fe3e8" d="m126.09531 234.96231l1.515625 0l0.0625 1.59375q0.4375 -0.515625 0.828125 -0.84375q0.40625 -0.34375 0.78125 -0.546875q0.390625 -0.203125 0.796875 -0.28125q0.40625 -0.09375 0.828125 -0.09375q1.515625 0 2.28125 0.90625q0.78125 0.890625 0.78125 2.6875l0 6.390625l-1.6875 0l0 -6.265625q0 -1.140625 -0.4375 -1.6875q-0.421875 -0.5625 -1.28125 -0.5625q-0.3125 0 -0.609375 0.09375q-0.296875 0.09375 -0.625 0.328125q-0.3125 0.21875 -0.6875 0.609375q-0.375 0.390625 -0.84375 0.984375l0 6.5l-1.703125 0l0 -9.8125zm17.292969 9.8125l-0.03125 -1.3125q-0.8125 0.78125 -1.640625 1.140625q-0.8125 0.34375 -1.71875 0.34375q-0.84375 0 -1.4375 -0.203125q-0.59375 -0.21875 -0.984375 -0.59375q-0.390625 -0.375 -0.578125 -0.875q-0.171875 -0.515625 -0.171875 -1.125q0 -1.46875 1.09375 -2.296875q1.109375 -0.84375 3.25 -0.84375l2.03125 0l0 -0.859375q0 -0.859375 -0.5625 -1.375q-0.546875 -0.53125 -1.6875 -0.53125q-0.828125 0 -1.640625 0.1875q-0.796875 0.171875 -1.65625 0.515625l0 -1.53125q0.3125 -0.109375 0.703125 -0.21875q0.40625 -0.125 0.84375 -0.203125q0.4375 -0.09375 0.90625 -0.140625q0.484375 -0.0625 0.984375 -0.0625q0.890625 0 1.59375 0.203125q0.71875 0.1875 1.203125 0.59375q0.5 0.390625 0.765625 1.0q0.265625 0.609375 0.265625 1.421875l0 6.765625l-1.53125 0zm-0.1875 -4.46875l-2.15625 0q-0.625 0 -1.09375 0.140625q-0.453125 0.125 -0.75 0.359375q-0.296875 0.234375 -0.4375 0.5625q-0.140625 0.3125 -0.140625 0.734375q0 0.28125 0.078125 0.546875q0.09375 0.25 0.28125 0.453125q0.203125 0.203125 0.515625 0.328125q0.3125 0.109375 0.765625 0.109375q0.59375 0 1.34375 -0.359375q0.765625 -0.359375 1.59375 -1.125l0 -1.75zm11.886719 4.46875l0 -7.046875q0 -0.453125 -0.046875 -0.75q-0.03125 -0.296875 -0.109375 -0.453125q-0.0625 -0.171875 -0.1875 -0.234375q-0.109375 -0.078125 -0.265625 -0.078125q-0.203125 0 -0.375 0.125q-0.15625 0.109375 -0.34375 0.375q-0.1875 0.265625 -0.421875 0.703125q-0.234375 0.421875 -0.546875 1.0625l0 6.296875l-1.546875 0l0 -6.859375q0 -0.53125 -0.03125 -0.859375q-0.03125 -0.34375 -0.109375 -0.515625q-0.078125 -0.1875 -0.203125 -0.25q-0.109375 -0.078125 -0.265625 -0.078125q-0.1875 0 -0.34375 0.09375q-0.15625 0.09375 -0.34375 0.359375q-0.1875 0.25 -0.421875 0.6875q-0.234375 0.4375 -0.5625 1.125l0 6.296875l-1.5625 0l0 -9.8125l1.296875 0l0.078125 1.875q0.265625 -0.5625 0.5 -0.953125q0.234375 -0.390625 0.484375 -0.625q0.265625 -0.234375 0.546875 -0.34375q0.296875 -0.125 0.640625 -0.125q0.796875 0 1.203125 0.515625q0.40625 0.515625 0.40625 1.609375q0.234375 -0.515625 0.453125 -0.90625q0.234375 -0.390625 0.484375 -0.65625q0.265625 -0.28125 0.578125 -0.421875q0.3125 -0.140625 0.71875 -0.140625q1.859375 0 1.859375 2.84375l0 7.140625l-1.5625 0zm12.277344 -5.421875q0 0.359375 -0.015625 0.609375q0 0.234375 -0.015625 0.453125l-6.890625 0q0 1.5 0.828125 2.3125q0.84375 0.8125 2.4375 0.8125q0.421875 0 0.84375 -0.03125q0.4375 -0.046875 0.828125 -0.09375q0.40625 -0.0625 0.765625 -0.140625q0.375 -0.078125 0.6875 -0.15625l0 1.390625q-0.6875 0.203125 -1.5625 0.3125q-0.875 0.125 -1.8125 0.125q-1.265625 0 -2.171875 -0.34375q-0.90625 -0.34375 -1.484375 -0.984375q-0.578125 -0.65625 -0.859375 -1.59375q-0.28125 -0.9375 -0.28125 -2.140625q0 -1.03125 0.296875 -1.953125q0.296875 -0.921875 0.859375 -1.609375q0.578125 -0.703125 1.40625 -1.109375q0.84375 -0.421875 1.890625 -0.421875q1.03125 0 1.8125 0.328125q0.796875 0.3125 1.328125 0.90625q0.546875 0.59375 0.828125 1.4375q0.28125 0.84375 0.28125 1.890625zm-1.765625 -0.25q0.03125 -0.640625 -0.125 -1.1875q-0.15625 -0.546875 -0.484375 -0.9375q-0.328125 -0.390625 -0.828125 -0.609375q-0.484375 -0.21875 -1.125 -0.21875q-0.546875 0 -1.015625 0.21875q-0.453125 0.21875 -0.796875 0.609375q-0.328125 0.390625 -0.53125 0.9375q-0.203125 0.546875 -0.25 1.1875l5.15625 0zm8.417969 -4.3125q0.296875 0 0.5625 0.125q0.28125 0.125 0.484375 0.328125q0.21875 0.203125 0.328125 0.484375q0.125 0.265625 0.125 0.5625q0 0.3125 -0.125 0.59375q-0.109375 0.265625 -0.328125 0.46875q-0.203125 0.203125 -0.484375 0.328125q-0.265625 0.109375 -0.5625 0.109375q-0.3125 0 -0.578125 -0.109375q-0.265625 -0.125 -0.484375 -0.328125q-0.203125 -0.203125 -0.328125 -0.46875q-0.109375 -0.28125 -0.109375 -0.59375q0 -0.296875 0.109375 -0.5625q0.125 -0.28125 0.328125 -0.484375q0.21875 -0.203125 0.484375 -0.328125q0.265625 -0.125 0.578125 -0.125zm0 7.15625q0.296875 0 0.5625 0.125q0.28125 0.125 0.484375 0.328125q0.21875 0.203125 0.328125 0.484375q0.125 0.265625 0.125 0.578125q0 0.3125 -0.125 0.578125q-0.109375 0.265625 -0.328125 0.46875q-0.203125 0.203125 -0.484375 0.3125q-0.265625 0.125 -0.5625 0.125q-0.3125 0 -0.578125 -0.125q-0.265625 -0.109375 -0.484375 -0.3125q-0.203125 -0.203125 -0.328125 -0.46875q-0.109375 -0.265625 -0.109375 -0.578125q0 -0.3125 0.109375 -0.578125q0.125 -0.28125 0.328125 -0.484375q0.21875 -0.203125 0.484375 -0.328125q0.265625 -0.125 0.578125 -0.125zm27.007812 2.828125l-1.703125 0l-0.25 -7.953125l-0.109375 -3.0625l-0.59375 1.78125l-1.875 5.078125l-1.203125 0l-1.796875 -4.890625l-0.59375 -1.96875l-0.046875 3.1875l-0.21875 7.828125l-1.640625 0l0.625 -12.765625l2.0625 0l1.71875 4.8125l0.546875 1.609375l0.546875 -1.609375l1.796875 -4.8125l2.125 0l0.609375 12.765625zm8.339844 0l-0.03125 -1.3125q-0.8125 0.78125 -1.640625 1.140625q-0.8125 0.34375 -1.71875 0.34375q-0.84375 0 -1.4375 -0.203125q-0.59375 -0.21875 -0.984375 -0.59375q-0.390625 -0.375 -0.578125 -0.875q-0.171875 -0.515625 -0.171875 -1.125q0 -1.46875 1.09375 -2.296875q1.109375 -0.84375 3.25 -0.84375l2.03125 0l0 -0.859375q0 -0.859375 -0.5625 -1.375q-0.546875 -0.53125 -1.6875 -0.53125q-0.828125 0 -1.640625 0.1875q-0.796875 0.171875 -1.65625 0.515625l0 -1.53125q0.3125 -0.109375 0.703125 -0.21875q0.40625 -0.125 0.84375 -0.203125q0.4375 -0.09375 0.90625 -0.140625q0.484375 -0.0625 0.984375 -0.0625q0.890625 0 1.59375 0.203125q0.71875 0.1875 1.203125 0.59375q0.5 0.390625 0.765625 1.0q0.265625 0.609375 0.265625 1.421875l0 6.765625l-1.53125 0zm-0.1875 -4.46875l-2.15625 0q-0.625 0 -1.09375 0.140625q-0.453125 0.125 -0.75 0.359375q-0.296875 0.234375 -0.4375 0.5625q-0.140625 0.3125 -0.140625 0.734375q0 0.28125 0.078125 0.546875q0.09375 0.25 0.28125 0.453125q0.203125 0.203125 0.515625 0.328125q0.3125 0.109375 0.765625 0.109375q0.59375 0 1.34375 -0.359375q0.765625 -0.359375 1.59375 -1.125l0 -1.75zm5.2929688 -5.34375l1.546875 0l0.046875 1.8125q0.875 -1.046875 1.71875 -1.515625q0.84375 -0.46875 1.703125 -0.46875q1.515625 0 2.296875 0.984375q0.796875 0.984375 0.734375 2.9375l-1.71875 0q0.03125 -1.296875 -0.375 -1.875q-0.40625 -0.578125 -1.1875 -0.578125q-0.34375 0 -0.6875 0.125q-0.34375 0.125 -0.71875 0.390625q-0.359375 0.265625 -0.765625 0.6875q-0.40625 0.421875 -0.875 1.015625l0 6.296875l-1.71875 0l0 -9.8125zm18.496094 9.671875q-0.578125 0.15625 -1.203125 0.21875q-0.609375 0.0625 -1.25 0.0625q-1.84375 0 -2.75 -0.828125q-0.90625 -0.84375 -0.90625 -2.578125l0 -5.109375l-2.75 0l0 -1.4375l2.75 0l0 -2.6875l1.703125 -0.4375l0 3.125l4.40625 0l0 1.4375l-4.40625 0l0 4.96875q0 1.0625 0.5625 1.59375q0.5625 0.515625 1.65625 0.515625q0.46875 0 1.015625 -0.078125q0.5625 -0.078125 1.171875 -0.234375l0 1.46875zm6.4335938 -8.265625l-2.90625 0l0 -1.40625l4.625 0l0 8.390625l2.921875 0l0 1.421875l-7.859375 0l0 -1.421875l3.21875 0l0 -6.984375zm0.59375 -5.515625q0.28125 0 0.515625 0.109375q0.25 0.09375 0.421875 0.28125q0.1875 0.1875 0.296875 0.4375q0.109375 0.234375 0.109375 0.515625q0 0.265625 -0.109375 0.515625q-0.109375 0.25 -0.296875 0.4375q-0.171875 0.171875 -0.421875 0.28125q-0.234375 0.109375 -0.515625 0.109375q-0.28125 0 -0.53125 -0.109375q-0.234375 -0.109375 -0.421875 -0.28125q-0.1875 -0.1875 -0.296875 -0.4375q-0.09375 -0.25 -0.09375 -0.515625q0 -0.28125 0.09375 -0.515625q0.109375 -0.25 0.296875 -0.4375q0.1875 -0.1875 0.421875 -0.28125q0.25 -0.109375 0.53125 -0.109375zm7.0585938 4.109375l1.515625 0l0.0625 1.59375q0.4375 -0.515625 0.828125 -0.84375q0.40625 -0.34375 0.78125 -0.546875q0.390625 -0.203125 0.796875 -0.28125q0.40625 -0.09375 0.828125 -0.09375q1.515625 0 2.28125 0.90625q0.78125 0.890625 0.78125 2.6875l0 6.390625l-1.6875 0l0 -6.265625q0 -1.140625 -0.4375 -1.6875q-0.421875 -0.5625 -1.28125 -0.5625q-0.3125 0 -0.609375 0.09375q-0.296875 0.09375 -0.625 0.328125q-0.3125 0.21875 -0.6875 0.609375q-0.375 0.390625 -0.84375 0.984375l0 6.5l-1.703125 0l0 -9.8125z" fill-rule="nonzero"/><path fill="#8fe3e8" d="m129.43906 256.36856l-2.90625 0l0 -1.3906403l4.625 0l0 12.375015l2.921875 0l0 1.421875l-7.859375 0l0 -1.421875l3.21875 0l0 -10.984375zm10.996094 4.0l-2.90625 0l0 -1.40625l4.625 0l0 8.390625l2.921875 0l0 1.421875l-7.859375 0l0 -1.421875l3.21875 0l0 -6.984375zm0.59375 -5.5156403q0.28125 0 0.515625 0.109375q0.25 0.09375 0.421875 0.28125q0.1875 0.1875 0.296875 0.4375q0.109375 0.234375 0.109375 0.51564026q0 0.265625 -0.109375 0.515625q-0.109375 0.25 -0.296875 0.4375q-0.171875 0.171875 -0.421875 0.28125q-0.234375 0.109375 -0.515625 0.109375q-0.28125 0 -0.53125 -0.109375q-0.234375 -0.109375 -0.421875 -0.28125q-0.1875 -0.1875 -0.296875 -0.4375q-0.09375 -0.25 -0.09375 -0.515625q0 -0.28126526 0.09375 -0.51564026q0.109375 -0.25 0.296875 -0.4375q0.1875 -0.1875 0.421875 -0.28125q0.25 -0.109375 0.53125 -0.109375zm6.1367188 4.1093903l1.9375 0l2.40625 6.484375l0.515625 1.59375l0.53125 -1.625l2.390625 -6.453125l1.859375 0l-3.84375 9.8125l-1.953125 0l-3.84375 -9.8125zm20.199219 4.390625q0 0.359375 -0.015625 0.609375q0 0.234375 -0.015625 0.453125l-6.890625 0q0 1.5 0.828125 2.3125q0.84375 0.8125 2.4375 0.8125q0.421875 0 0.84375 -0.03125q0.4375 -0.046875 0.828125 -0.09375q0.40625 -0.0625 0.765625 -0.140625q0.375 -0.078125 0.6875 -0.15625l0 1.390625q-0.6875 0.203125 -1.5625 0.3125q-0.875 0.125 -1.8125 0.125q-1.265625 0 -2.171875 -0.34375q-0.90625 -0.34375 -1.484375 -0.984375q-0.578125 -0.65625 -0.859375 -1.59375q-0.28125 -0.9375 -0.28125 -2.140625q0 -1.03125 0.296875 -1.953125q0.296875 -0.921875 0.859375 -1.609375q0.578125 -0.703125 1.40625 -1.109375q0.84375 -0.421875 1.890625 -0.421875q1.03125 0 1.8125 0.328125q0.796875 0.3125 1.328125 0.90625q0.546875 0.59375 0.828125 1.4375q0.28125 0.84375 0.28125 1.890625zm-1.765625 -0.25q0.03125 -0.640625 -0.125 -1.1875q-0.15625 -0.546875 -0.484375 -0.9375q-0.328125 -0.390625 -0.828125 -0.609375q-0.484375 -0.21875 -1.125 -0.21875q-0.546875 0 -1.015625 0.21875q-0.453125 0.21875 -0.796875 0.609375q-0.328125 0.390625 -0.53125 0.9375q-0.203125 0.546875 -0.25 1.1875l5.15625 0zm12.246094 3.0q0 0.515625 -0.1875 0.921875q-0.171875 0.40625 -0.46875 0.734375q-0.296875 0.3125 -0.703125 0.546875q-0.40625 0.21875 -0.859375 0.375q-0.453125 0.140625 -0.9375 0.203125q-0.46875 0.0625 -0.921875 0.0625q-1.0 0 -1.84375 -0.09375q-0.828125 -0.078125 -1.625 -0.28125l0 -1.5625q0.859375 0.25 1.703125 0.375q0.859375 0.125 1.6875 0.125q1.21875 0 1.796875 -0.328125q0.59375 -0.328125 0.59375 -0.953125q0 -0.25 -0.09375 -0.453125q-0.078125 -0.21875 -0.328125 -0.40625q-0.25 -0.203125 -0.765625 -0.40625q-0.5 -0.203125 -1.390625 -0.46875q-0.671875 -0.1875 -1.234375 -0.4375q-0.5625 -0.25 -0.96875 -0.59375q-0.40625 -0.34375 -0.640625 -0.796875q-0.234375 -0.46875 -0.234375 -1.09375q0 -0.40625 0.1875 -0.890625q0.1875 -0.484375 0.640625 -0.90625q0.46875 -0.421875 1.25 -0.703125q0.78125 -0.28125 1.953125 -0.28125q0.578125 0 1.28125 0.0625q0.703125 0.0625 1.46875 0.21875l0 1.515625q-0.8125 -0.1875 -1.53125 -0.28125q-0.703125 -0.09375 -1.234375 -0.09375q-0.640625 0 -1.078125 0.09375q-0.421875 0.09375 -0.703125 0.265625q-0.265625 0.171875 -0.390625 0.40625q-0.109375 0.234375 -0.109375 0.484375q0 0.265625 0.09375 0.484375q0.109375 0.21875 0.390625 0.421875q0.28125 0.1875 0.78125 0.390625q0.5 0.203125 1.296875 0.4375q0.875 0.25 1.46875 0.53125q0.59375 0.28125 0.953125 0.625q0.375 0.34375 0.53125 0.78125q0.171875 0.421875 0.171875 0.96875zm7.1679688 -7.3125q0.296875 0 0.5625 0.125q0.28125 0.125 0.484375 0.328125q0.21875 0.203125 0.328125 0.484375q0.125 0.265625 0.125 0.5625q0 0.3125 -0.125 0.59375q-0.109375 0.265625 -0.328125 0.46875q-0.203125 0.203125 -0.484375 0.328125q-0.265625 0.109375 -0.5625 0.109375q-0.3125 0 -0.578125 -0.109375q-0.265625 -0.125 -0.484375 -0.328125q-0.203125 -0.203125 -0.328125 -0.46875q-0.109375 -0.28125 -0.109375 -0.59375q0 -0.296875 0.109375 -0.5625q0.125 -0.28125 0.328125 -0.484375q0.21875 -0.203125 0.484375 -0.328125q0.265625 -0.125 0.578125 -0.125zm0 7.15625q0.296875 0 0.5625 0.125q0.28125 0.125 0.484375 0.328125q0.21875 0.203125 0.328125 0.484375q0.125 0.265625 0.125 0.578125q0 0.3125 -0.125 0.578125q-0.109375 0.265625 -0.328125 0.46875q-0.203125 0.203125 -0.484375 0.3125q-0.265625 0.125 -0.5625 0.125q-0.3125 0 -0.578125 -0.125q-0.265625 -0.109375 -0.484375 -0.3125q-0.203125 -0.203125 -0.328125 -0.46875q-0.109375 -0.265625 -0.109375 -0.578125q0 -0.3125 0.109375 -0.578125q0.125 -0.28125 0.328125 -0.484375q0.21875 -0.203125 0.484375 -0.328125q0.265625 -0.125 0.578125 -0.125zm26.429688 -1.609375q0 1.046875 -0.296875 1.90625q-0.296875 0.84375 -0.875 1.453125q-0.578125 0.59375 -1.40625 0.921875q-0.828125 0.328125 -1.921875 0.328125q-1.1875 0 -2.015625 -0.3125q-0.828125 -0.3125 -1.359375 -0.875q-0.515625 -0.578125 -0.765625 -1.375q-0.234375 -0.796875 -0.234375 -1.796875l0 -8.578125l1.734375 0l0 8.453125q0 0.75 0.140625 1.3125q0.15625 0.5625 0.46875 0.953125q0.328125 0.375 0.828125 0.578125q0.515625 0.1875 1.265625 0.1875q1.390625 0 2.046875 -0.796875q0.65625 -0.796875 0.65625 -2.265625l0 -8.421875l1.734375 0l0 8.328125zm11.277344 4.4375l-2.1875 0l-4.765625 -6.265625l0 6.265625l-1.734375 0l0 -12.765625l1.734375 0l0 5.921875l4.671875 -5.921875l2.0625 0l-5.03125 6.0625l5.25 6.703125z" fill-rule="nonzero"/><path fill="#8fe3e8" d="m134.1578 292.7748l-7.34375 0l0 -12.765625l1.765625 0l0 11.28125l5.578125 0l0 1.484375zm9.230469 0l-0.03125 -1.3125q-0.8125 0.78125 -1.640625 1.140625q-0.8125 0.34375 -1.71875 0.34375q-0.84375 0 -1.4375 -0.203125q-0.59375 -0.21875 -0.984375 -0.59375q-0.390625 -0.375 -0.578125 -0.875q-0.171875 -0.515625 -0.171875 -1.125q0 -1.46875 1.09375 -2.296875q1.109375 -0.84375 3.25 -0.84375l2.03125 0l0 -0.859375q0 -0.859375 -0.5625 -1.375q-0.546875 -0.53125 -1.6875 -0.53125q-0.828125 0 -1.640625 0.1875q-0.796875 0.171875 -1.65625 0.515625l0 -1.53125q0.3125 -0.109375 0.703125 -0.21875q0.40625 -0.125 0.84375 -0.203125q0.4375 -0.09375 0.90625 -0.140625q0.484375 -0.0625 0.984375 -0.0625q0.890625 0 1.59375 0.203125q0.71875 0.1875 1.203125 0.59375q0.5 0.390625 0.765625 1.0q0.265625 0.609375 0.265625 1.421875l0 6.765625l-1.53125 0zm-0.1875 -4.46875l-2.15625 0q-0.625 0 -1.09375 0.140625q-0.453125 0.125 -0.75 0.359375q-0.296875 0.234375 -0.4375 0.5625q-0.140625 0.3125 -0.140625 0.734375q0 0.28125 0.078125 0.546875q0.09375 0.25 0.28125 0.453125q0.203125 0.203125 0.515625 0.328125q0.3125 0.109375 0.765625 0.109375q0.59375 0 1.34375 -0.359375q0.765625 -0.359375 1.59375 -1.125l0 -1.75zm12.652344 1.796875q0 0.515625 -0.1875 0.921875q-0.171875 0.40625 -0.46875 0.734375q-0.296875 0.3125 -0.703125 0.546875q-0.40625 0.21875 -0.859375 0.375q-0.453125 0.140625 -0.9375 0.203125q-0.46875 0.0625 -0.921875 0.0625q-1.0 0 -1.84375 -0.09375q-0.828125 -0.078125 -1.625 -0.28125l0 -1.5625q0.859375 0.25 1.703125 0.375q0.859375 0.125 1.6875 0.125q1.21875 0 1.796875 -0.328125q0.59375 -0.328125 0.59375 -0.953125q0 -0.25 -0.09375 -0.453125q-0.078125 -0.21875 -0.328125 -0.40625q-0.25 -0.203125 -0.765625 -0.40625q-0.5 -0.203125 -1.390625 -0.46875q-0.671875 -0.1875 -1.234375 -0.4375q-0.5625 -0.25 -0.96875 -0.59375q-0.40625 -0.34375 -0.640625 -0.796875q-0.234375 -0.46875 -0.234375 -1.09375q0 -0.40625 0.1875 -0.890625q0.1875 -0.484375 0.640625 -0.90625q0.46875 -0.421875 1.25 -0.703125q0.78125 -0.28125 1.953125 -0.28125q0.578125 0 1.28125 0.0625q0.703125 0.0625 1.46875 0.21875l0 1.515625q-0.8125 -0.1875 -1.53125 -0.28125q-0.703125 -0.09375 -1.234375 -0.09375q-0.640625 0 -1.078125 0.09375q-0.421875 0.09375 -0.703125 0.265625q-0.265625 0.171875 -0.390625 0.40625q-0.109375 0.234375 -0.109375 0.484375q0 0.265625 0.09375 0.484375q0.109375 0.21875 0.390625 0.421875q0.28125 0.1875 0.78125 0.390625q0.5 0.203125 1.296875 0.4375q0.875 0.25 1.46875 0.53125q0.59375 0.28125 0.953125 0.625q0.375 0.34375 0.53125 0.78125q0.171875 0.421875 0.171875 0.96875zm11.136719 2.53125q-0.578125 0.15625 -1.203125 0.21875q-0.609375 0.0625 -1.25 0.0625q-1.84375 0 -2.75 -0.828125q-0.90625 -0.84375 -0.90625 -2.578125l0 -5.109375l-2.75 0l0 -1.4375l2.75 0l0 -2.6875l1.703125 -0.4375l0 3.125l4.40625 0l0 1.4375l-4.40625 0l0 4.96875q0 1.0625 0.5625 1.59375q0.5625 0.515625 1.65625 0.515625q0.46875 0 1.015625 -0.078125q0.5625 -0.078125 1.171875 -0.234375l0 1.46875zm12.527344 4.140625l-11.0 0l0 -1.40625l11.0 0l0 1.40625zm9.324219 -6.671875q0 0.515625 -0.1875 0.921875q-0.171875 0.40625 -0.46875 0.734375q-0.296875 0.3125 -0.703125 0.546875q-0.40625 0.21875 -0.859375 0.375q-0.453125 0.140625 -0.9375 0.203125q-0.46875 0.0625 -0.921875 0.0625q-1.0 0 -1.84375 -0.09375q-0.828125 -0.078125 -1.625 -0.28125l0 -1.5625q0.859375 0.25 1.703125 0.375q0.859375 0.125 1.6875 0.125q1.21875 0 1.796875 -0.328125q0.59375 -0.328125 0.59375 -0.953125q0 -0.25 -0.09375 -0.453125q-0.078125 -0.21875 -0.328125 -0.40625q-0.25 -0.203125 -0.765625 -0.40625q-0.5 -0.203125 -1.390625 -0.46875q-0.671875 -0.1875 -1.234375 -0.4375q-0.5625 -0.25 -0.96875 -0.59375q-0.40625 -0.34375 -0.640625 -0.796875q-0.234375 -0.46875 -0.234375 -1.09375q0 -0.40625 0.1875 -0.890625q0.1875 -0.484375 0.640625 -0.90625q0.46875 -0.421875 1.25 -0.703125q0.78125 -0.28125 1.953125 -0.28125q0.578125 0 1.28125 0.0625q0.703125 0.0625 1.46875 0.21875l0 1.515625q-0.8125 -0.1875 -1.53125 -0.28125q-0.703125 -0.09375 -1.234375 -0.09375q-0.640625 0 -1.078125 0.09375q-0.421875 0.09375 -0.703125 0.265625q-0.265625 0.171875 -0.390625 0.40625q-0.109375 0.234375 -0.109375 0.484375q0 0.265625 0.09375 0.484375q0.109375 0.21875 0.390625 0.421875q0.28125 0.1875 0.78125 0.390625q0.5 0.203125 1.296875 0.4375q0.875 0.25 1.46875 0.53125q0.59375 0.28125 0.953125 0.625q0.375 0.34375 0.53125 0.78125q0.171875 0.421875 0.171875 0.96875zm11.511719 -2.75q0 0.359375 -0.015625 0.609375q0 0.234375 -0.015625 0.453125l-6.890625 0q0 1.5 0.828125 2.3125q0.84375 0.8125 2.4375 0.8125q0.421875 0 0.84375 -0.03125q0.4375 -0.046875 0.828125 -0.09375q0.40625 -0.0625 0.765625 -0.140625q0.375 -0.078125 0.6875 -0.15625l0 1.390625q-0.6875 0.203125 -1.5625 0.3125q-0.875 0.125 -1.8125 0.125q-1.265625 0 -2.171875 -0.34375q-0.90625 -0.34375 -1.484375 -0.984375q-0.578125 -0.65625 -0.859375 -1.59375q-0.28125 -0.9375 -0.28125 -2.140625q0 -1.03125 0.296875 -1.953125q0.296875 -0.921875 0.859375 -1.609375q0.578125 -0.703125 1.40625 -1.109375q0.84375 -0.421875 1.890625 -0.421875q1.03125 0 1.8125 0.328125q0.796875 0.3125 1.328125 0.90625q0.546875 0.59375 0.828125 1.4375q0.28125 0.84375 0.28125 1.890625zm-1.765625 -0.25q0.03125 -0.640625 -0.125 -1.1875q-0.15625 -0.546875 -0.484375 -0.9375q-0.328125 -0.390625 -0.828125 -0.609375q-0.484375 -0.21875 -1.125 -0.21875q-0.546875 0 -1.015625 0.21875q-0.453125 0.21875 -0.796875 0.609375q-0.328125 0.390625 -0.53125 0.9375q-0.203125 0.546875 -0.25 1.1875l5.15625 0zm12.761719 0.25q0 0.359375 -0.015625 0.609375q0 0.234375 -0.015625 0.453125l-6.890625 0q0 1.5 0.828125 2.3125q0.84375 0.8125 2.4375 0.8125q0.421875 0 0.84375 -0.03125q0.4375 -0.046875 0.828125 -0.09375q0.40625 -0.0625 0.765625 -0.140625q0.375 -0.078125 0.6875 -0.15625l0 1.390625q-0.6875 0.203125 -1.5625 0.3125q-0.875 0.125 -1.8125 0.125q-1.265625 0 -2.171875 -0.34375q-0.90625 -0.34375 -1.484375 -0.984375q-0.578125 -0.65625 -0.859375 -1.59375q-0.28125 -0.9375 -0.28125 -2.140625q0 -1.03125 0.296875 -1.953125q0.296875 -0.921875 0.859375 -1.609375q0.578125 -0.703125 1.40625 -1.109375q0.84375 -0.421875 1.890625 -0.421875q1.03125 0 1.8125 0.328125q0.796875 0.3125 1.328125 0.90625q0.546875 0.59375 0.828125 1.4375q0.28125 0.84375 0.28125 1.890625zm-1.765625 -0.25q0.03125 -0.640625 -0.125 -1.1875q-0.15625 -0.546875 -0.484375 -0.9375q-0.328125 -0.390625 -0.828125 -0.609375q-0.484375 -0.21875 -1.125 -0.21875q-0.546875 0 -1.015625 0.21875q-0.453125 0.21875 -0.796875 0.609375q-0.328125 0.390625 -0.53125 0.9375q-0.203125 0.546875 -0.25 1.1875l5.15625 0zm4.4804688 -4.140625l1.515625 0l0.0625 1.59375q0.4375 -0.515625 0.828125 -0.84375q0.40625 -0.34375 0.78125 -0.546875q0.390625 -0.203125 0.796875 -0.28125q0.40625 -0.09375 0.828125 -0.09375q1.515625 0 2.28125 0.90625q0.78125 0.890625 0.78125 2.6875l0 6.390625l-1.6875 0l0 -6.265625q0 -1.140625 -0.4375 -1.6875q-0.421875 -0.5625 -1.28125 -0.5625q-0.3125 0 -0.609375 0.09375q-0.296875 0.09375 -0.625 0.328125q-0.3125 0.21875 -0.6875 0.609375q-0.375 0.390625 -0.84375 0.984375l0 6.5l-1.703125 0l0 -9.8125zm14.933594 -0.171875q0.296875 0 0.5625 0.125q0.28125 0.125 0.484375 0.328125q0.21875 0.203125 0.328125 0.484375q0.125 0.265625 0.125 0.5625q0 0.3125 -0.125 0.59375q-0.109375 0.265625 -0.328125 0.46875q-0.203125 0.203125 -0.484375 0.328125q-0.265625 0.109375 -0.5625 0.109375q-0.3125 0 -0.578125 -0.109375q-0.265625 -0.125 -0.484375 -0.328125q-0.203125 -0.203125 -0.328125 -0.46875q-0.109375 -0.28125 -0.109375 -0.59375q0 -0.296875 0.109375 -0.5625q0.125 -0.28125 0.328125 -0.484375q0.21875 -0.203125 0.484375 -0.328125q0.265625 -0.125 0.578125 -0.125zm0 7.15625q0.296875 0 0.5625 0.125q0.28125 0.125 0.484375 0.328125q0.21875 0.203125 0.328125 0.484375q0.125 0.265625 0.125 0.578125q0 0.3125 -0.125 0.578125q-0.109375 0.265625 -0.328125 0.46875q-0.203125 0.203125 -0.484375 0.3125q-0.265625 0.125 -0.5625 0.125q-0.3125 0 -0.578125 -0.125q-0.265625 -0.109375 -0.484375 -0.3125q-0.203125 -0.203125 -0.328125 -0.46875q-0.109375 -0.265625 -0.109375 -0.578125q0 -0.3125 0.109375 -0.578125q0.125 -0.28125 0.328125 -0.484375q0.21875 -0.203125 0.484375 -0.328125q0.265625 -0.125 0.578125 -0.125zm26.335938 2.828125l-8.40625 0l0 -1.53125l3.296875 -3.28125q0.8125 -0.796875 1.3125 -1.375q0.515625 -0.59375 0.796875 -1.078125q0.28125 -0.484375 0.375 -0.90625q0.109375 -0.4375 0.109375 -0.9375q0 -0.46875 -0.125 -0.890625q-0.125 -0.421875 -0.390625 -0.734375q-0.265625 -0.328125 -0.6875 -0.515625q-0.421875 -0.1875 -1.0 -0.1875q-0.8125 0 -1.484375 0.359375q-0.65625 0.359375 -1.21875 0.9375l-0.9375 -1.125q0.71875 -0.75 1.65625 -1.203125q0.953125 -0.46875 2.203125 -0.46875q0.84375 0 1.546875 0.25q0.703125 0.25 1.203125 0.734375q0.515625 0.484375 0.78125 1.171875q0.28125 0.6875 0.28125 1.5625q0 0.734375 -0.203125 1.359375q-0.1875 0.625 -0.578125 1.25q-0.390625 0.609375 -1.0 1.28125q-0.59375 0.65625 -1.421875 1.453125l-2.3125 2.25l6.203125 0l0 1.625zm11.292969 -6.375q0 1.46875 -0.296875 2.671875q-0.296875 1.203125 -0.890625 2.078125q-0.59375 0.859375 -1.484375 1.328125q-0.875 0.46875 -2.0625 0.46875q-1.03125 0 -1.875 -0.375q-0.828125 -0.390625 -1.4375 -1.1875q-0.59375 -0.8125 -0.921875 -2.046875q-0.3125 -1.234375 -0.3125 -2.9375q0 -1.46875 0.296875 -2.671875q0.296875 -1.21875 0.890625 -2.078125q0.59375 -0.875 1.484375 -1.34375q0.890625 -0.46875 2.0625 -0.46875q1.03125 0 1.859375 0.390625q0.84375 0.375 1.4375 1.1875q0.609375 0.796875 0.921875 2.046875q0.328125 1.234375 0.328125 2.9375zm-1.71875 0.0625q0 -0.34375 -0.03125 -0.671875q-0.015625 -0.328125 -0.046875 -0.640625l-5.40625 4.015625q0.15625 0.515625 0.375 0.953125q0.21875 0.421875 0.53125 0.734375q0.328125 0.296875 0.734375 0.46875q0.40625 0.171875 0.921875 0.171875q0.65625 0 1.203125 -0.3125q0.546875 -0.328125 0.921875 -0.953125q0.390625 -0.640625 0.59375 -1.578125q0.203125 -0.953125 0.203125 -2.1875zm-5.84375 -0.125q0 0.296875 0 0.609375q0.015625 0.296875 0.046875 0.578125l5.390625 -3.984375q-0.140625 -0.5 -0.375 -0.90625q-0.21875 -0.421875 -0.53125 -0.71875q-0.3125 -0.296875 -0.71875 -0.453125q-0.390625 -0.171875 -0.890625 -0.171875q-0.671875 0 -1.21875 0.328125q-0.53125 0.3125 -0.921875 0.953125q-0.375 0.640625 -0.578125 1.59375q-0.203125 0.9375 -0.203125 2.171875zm18.261719 6.4375l-8.40625 0l0 -1.53125l3.296875 -3.28125q0.8125 -0.796875 1.3125 -1.375q0.515625 -0.59375 0.796875 -1.078125q0.28125 -0.484375 0.375 -0.90625q0.109375 -0.4375 0.109375 -0.9375q0 -0.46875 -0.125 -0.890625q-0.125 -0.421875 -0.390625 -0.734375q-0.265625 -0.328125 -0.6875 -0.515625q-0.421875 -0.1875 -1.0 -0.1875q-0.8125 0 -1.484375 0.359375q-0.65625 0.359375 -1.21875 0.9375l-0.9375 -1.125q0.71875 -0.75 1.65625 -1.203125q0.953125 -0.46875 2.203125 -0.46875q0.84375 0 1.546875 0.25q0.703125 0.25 1.203125 0.734375q0.515625 0.484375 0.78125 1.171875q0.28125 0.6875 0.28125 1.5625q0 0.734375 -0.203125 1.359375q-0.1875 0.625 -0.578125 1.25q-0.390625 0.609375 -1.0 1.28125q-0.59375 0.65625 -1.421875 1.453125l-2.3125 2.25l6.203125 0l0 1.625zm11.636719 -2.828125l-2.1875 0l0 2.828125l-1.734375 0l0 -2.828125l-6.140625 0l0 -1.484375l5.4375 -8.453125l2.4375 0l0 8.453125l2.1875 0l0 1.484375zm-3.921875 -8.296875l-4.4375 6.8125l4.4375 0l0 -6.8125zm12.855469 6.609375l-5.84375 0l0 -1.609375l5.84375 0l0 1.609375zm12.714844 -1.859375q0 1.46875 -0.296875 2.671875q-0.296875 1.203125 -0.890625 2.078125q-0.59375 0.859375 -1.484375 1.328125q-0.875 0.46875 -2.0625 0.46875q-1.03125 0 -1.875 -0.375q-0.828125 -0.390625 -1.4375 -1.1875q-0.59375 -0.8125 -0.921875 -2.046875q-0.3125 -1.234375 -0.3125 -2.9375q0 -1.46875 0.296875 -2.671875q0.296875 -1.21875 0.890625 -2.078125q0.59375 -0.875 1.484375 -1.34375q0.890625 -0.46875 2.0625 -0.46875q1.03125 0 1.859375 0.390625q0.84375 0.375 1.4375 1.1875q0.609375 0.796875 0.921875 2.046875q0.328125 1.234375 0.328125 2.9375zm-1.71875 0.0625q0 -0.34375 -0.03125 -0.671875q-0.015625 -0.328125 -0.046875 -0.640625l-5.40625 4.015625q0.15625 0.515625 0.375 0.953125q0.21875 0.421875 0.53125 0.734375q0.328125 0.296875 0.734375 0.46875q0.40625 0.171875 0.921875 0.171875q0.65625 0 1.203125 -0.3125q0.546875 -0.328125 0.921875 -0.953125q0.390625 -0.640625 0.59375 -1.578125q0.203125 -0.953125 0.203125 -2.1875zm-5.84375 -0.125q0 0.296875 0 0.609375q0.015625 0.296875 0.046875 0.578125l5.390625 -3.984375q-0.140625 -0.5 -0.375 -0.90625q-0.21875 -0.421875 -0.53125 -0.71875q-0.3125 -0.296875 -0.71875 -0.453125q-0.390625 -0.171875 -0.890625 -0.171875q-0.671875 0 -1.21875 0.328125q-0.53125 0.3125 -0.921875 0.953125q-0.375 0.640625 -0.578125 1.59375q-0.203125 0.9375 -0.203125 2.171875zm18.417969 2.390625q0 0.875 -0.328125 1.65625q-0.3125 0.765625 -0.90625 1.34375q-0.578125 0.5625 -1.40625 0.890625q-0.8125 0.328125 -1.828125 0.328125q-1.046875 0 -1.859375 -0.328125q-0.8125 -0.34375 -1.359375 -1.03125q-0.546875 -0.703125 -0.828125 -1.765625q-0.28125 -1.078125 -0.28125 -2.53125q0 -0.96875 0.125 -1.890625q0.125 -0.921875 0.421875 -1.71875q0.296875 -0.8125 0.78125 -1.484375q0.484375 -0.6875 1.203125 -1.171875q0.734375 -0.484375 1.71875 -0.75q1.0 -0.265625 2.296875 -0.265625l1.25 0l0 1.484375l-1.359375 0q-1.140625 0 -1.984375 0.28125q-0.84375 0.265625 -1.40625 0.765625q-0.5625 0.5 -0.875 1.203125q-0.296875 0.703125 -0.375 1.5625l-0.046875 0.40625q0.625 -0.359375 1.421875 -0.578125q0.8125 -0.21875 1.75 -0.21875q0.96875 0 1.6875 0.28125q0.734375 0.28125 1.21875 0.78125q0.484375 0.5 0.71875 1.203125q0.25 0.703125 0.25 1.546875zm-1.78125 0.109375q0 -0.578125 -0.140625 -1.046875q-0.140625 -0.484375 -0.453125 -0.8125q-0.296875 -0.328125 -0.765625 -0.5q-0.453125 -0.1875 -1.09375 -0.1875q-0.375 0 -0.765625 0.078125q-0.375 0.0625 -0.75 0.1875q-0.359375 0.109375 -0.6875 0.265625q-0.328125 0.15625 -0.609375 0.34375q0 1.25 0.171875 2.09375q0.1875 0.84375 0.53125 1.359375q0.34375 0.5 0.84375 0.71875q0.515625 0.21875 1.1875 0.21875q0.546875 0 1.015625 -0.171875q0.46875 -0.1875 0.796875 -0.53125q0.34375 -0.359375 0.53125 -0.859375q0.1875 -0.515625 0.1875 -1.15625zm11.199219 -0.578125l-5.84375 0l0 -1.609375l5.84375 0l0 1.609375zm12.714844 -1.859375q0 1.46875 -0.296875 2.671875q-0.296875 1.203125 -0.890625 2.078125q-0.59375 0.859375 -1.484375 1.328125q-0.875 0.46875 -2.0625 0.46875q-1.03125 0 -1.875 -0.375q-0.828125 -0.390625 -1.4375 -1.1875q-0.59375 -0.8125 -0.921875 -2.046875q-0.3125 -1.234375 -0.3125 -2.9375q0 -1.46875 0.296875 -2.671875q0.296875 -1.21875 0.890625 -2.078125q0.59375 -0.875 1.484375 -1.34375q0.890625 -0.46875 2.0625 -0.46875q1.03125 0 1.859375 0.390625q0.84375 0.375 1.4375 1.1875q0.609375 0.796875 0.921875 2.046875q0.328125 1.234375 0.328125 2.9375zm-1.71875 0.0625q0 -0.34375 -0.03125 -0.671875q-0.015625 -0.328125 -0.046875 -0.640625l-5.40625 4.015625q0.15625 0.515625 0.375 0.953125q0.21875 0.421875 0.53125 0.734375q0.328125 0.296875 0.734375 0.46875q0.40625 0.171875 0.921875 0.171875q0.65625 0 1.203125 -0.3125q0.546875 -0.328125 0.921875 -0.953125q0.390625 -0.640625 0.59375 -1.578125q0.203125 -0.953125 0.203125 -2.1875zm-5.84375 -0.125q0 0.296875 0 0.609375q0.015625 0.296875 0.046875 0.578125l5.390625 -3.984375q-0.140625 -0.5 -0.375 -0.90625q-0.21875 -0.421875 -0.53125 -0.71875q-0.3125 -0.296875 -0.71875 -0.453125q-0.390625 -0.171875 -0.890625 -0.171875q-0.671875 0 -1.21875 0.328125q-0.53125 0.3125 -0.921875 0.953125q-0.375 0.640625 -0.578125 1.59375q-0.203125 0.9375 -0.203125 2.171875zm18.152344 6.4375l-8.015625 0l0 -1.578125l3.28125 0l0 -9.328125l-3.0625 1.671875l-0.625 -1.453125l4.0625 -2.140625l1.515625 0l0 11.25l2.84375 0l0 1.578125z" fill-rule="nonzero"/><path fill="#014063" d="m426.41208 216.31496l125.74277 0l57.661316 -35.5851l-3.7715454 35.5851l35.926514 0l0 15.086624l0 0l0 22.629913l0 52.80316l-35.926514 0l-53.88977 0l0 0l-125.74277 0l0 -52.80316l0 -22.629913l0 0z" fill-rule="evenodd"/><path stroke="#8fe3e8" stroke-width="2.0" stroke-linejoin="round" stroke-linecap="butt" d="m426.41208 216.31496l125.74277 0l57.661316 -35.5851l-3.7715454 35.5851l35.926514 0l0 15.086624l0 0l0 22.629913l0 52.80316l-35.926514 0l-53.88977 0l0 0l-125.74277 0l0 -52.80316l0 -22.629913l0 0z" fill-rule="evenodd"/><path fill="#8fe3e8" d="m436.97458 234.96231l1.515625 0l0.0625 1.59375q0.4375 -0.515625 0.828125 -0.84375q0.40625 -0.34375 0.78125 -0.546875q0.390625 -0.203125 0.796875 -0.28125q0.40625 -0.09375 0.828125 -0.09375q1.515625 0 2.28125 0.90625q0.78125 0.890625 0.78125 2.6875l0 6.390625l-1.6875 0l0 -6.265625q0 -1.140625 -0.4375 -1.6875q-0.421875 -0.5625 -1.28125 -0.5625q-0.3125 0 -0.609375 0.09375q-0.296875 0.09375 -0.625 0.328125q-0.3125 0.21875 -0.6875 0.609375q-0.375 0.390625 -0.84375 0.984375l0 6.5l-1.703125 0l0 -9.8125zm17.292969 9.8125l-0.03125 -1.3125q-0.8125 0.78125 -1.640625 1.140625q-0.8125 0.34375 -1.71875 0.34375q-0.84375 0 -1.4375 -0.203125q-0.59375 -0.21875 -0.984375 -0.59375q-0.390625 -0.375 -0.578125 -0.875q-0.171875 -0.515625 -0.171875 -1.125q0 -1.46875 1.09375 -2.296875q1.109375 -0.84375 3.25 -0.84375l2.03125 0l0 -0.859375q0 -0.859375 -0.5625 -1.375q-0.546875 -0.53125 -1.6875 -0.53125q-0.828125 0 -1.640625 0.1875q-0.796875 0.171875 -1.65625 0.515625l0 -1.53125q0.3125 -0.109375 0.703125 -0.21875q0.40625 -0.125 0.84375 -0.203125q0.4375 -0.09375 0.90625 -0.140625q0.484375 -0.0625 0.984375 -0.0625q0.890625 0 1.59375 0.203125q0.71875 0.1875 1.203125 0.59375q0.5 0.390625 0.765625 1.0q0.265625 0.609375 0.265625 1.421875l0 6.765625l-1.53125 0zm-0.1875 -4.46875l-2.15625 0q-0.625 0 -1.09375 0.140625q-0.453125 0.125 -0.75 0.359375q-0.296875 0.234375 -0.4375 0.5625q-0.140625 0.3125 -0.140625 0.734375q0 0.28125 0.078125 0.546875q0.09375 0.25 0.28125 0.453125q0.203125 0.203125 0.515625 0.328125q0.3125 0.109375 0.765625 0.109375q0.59375 0 1.34375 -0.359375q0.765625 -0.359375 1.59375 -1.125l0 -1.75zm11.886719 4.46875l0 -7.046875q0 -0.453125 -0.046875 -0.75q-0.03125 -0.296875 -0.109375 -0.453125q-0.0625 -0.171875 -0.1875 -0.234375q-0.109375 -0.078125 -0.265625 -0.078125q-0.203125 0 -0.375 0.125q-0.15625 0.109375 -0.34375 0.375q-0.1875 0.265625 -0.421875 0.703125q-0.234375 0.421875 -0.546875 1.0625l0 6.296875l-1.546875 0l0 -6.859375q0 -0.53125 -0.03125 -0.859375q-0.03125 -0.34375 -0.109375 -0.515625q-0.078125 -0.1875 -0.203125 -0.25q-0.109375 -0.078125 -0.265625 -0.078125q-0.1875 0 -0.34375 0.09375q-0.15625 0.09375 -0.34375 0.359375q-0.1875 0.25 -0.421875 0.6875q-0.234375 0.4375 -0.5625 1.125l0 6.296875l-1.5625 0l0 -9.8125l1.296875 0l0.078125 1.875q0.265625 -0.5625 0.5 -0.953125q0.234375 -0.390625 0.484375 -0.625q0.265625 -0.234375 0.546875 -0.34375q0.296875 -0.125 0.640625 -0.125q0.796875 0 1.203125 0.515625q0.40625 0.515625 0.40625 1.609375q0.234375 -0.515625 0.453125 -0.90625q0.234375 -0.390625 0.484375 -0.65625q0.265625 -0.28125 0.578125 -0.421875q0.3125 -0.140625 0.71875 -0.140625q1.859375 0 1.859375 2.84375l0 7.140625l-1.5625 0zm12.277344 -5.421875q0 0.359375 -0.015625 0.609375q0 0.234375 -0.015625 0.453125l-6.890625 0q0 1.5 0.828125 2.3125q0.84375 0.8125 2.4375 0.8125q0.421875 0 0.84375 -0.03125q0.4375 -0.046875 0.828125 -0.09375q0.40625 -0.0625 0.765625 -0.140625q0.375 -0.078125 0.6875 -0.15625l0 1.390625q-0.6875 0.203125 -1.5625 0.3125q-0.875 0.125 -1.8125 0.125q-1.265625 0 -2.171875 -0.34375q-0.90625 -0.34375 -1.484375 -0.984375q-0.578125 -0.65625 -0.859375 -1.59375q-0.28125 -0.9375 -0.28125 -2.140625q0 -1.03125 0.296875 -1.953125q0.296875 -0.921875 0.859375 -1.609375q0.578125 -0.703125 1.40625 -1.109375q0.84375 -0.421875 1.890625 -0.421875q1.03125 0 1.8125 0.328125q0.796875 0.3125 1.328125 0.90625q0.546875 0.59375 0.828125 1.4375q0.28125 0.84375 0.28125 1.890625zm-1.765625 -0.25q0.03125 -0.640625 -0.125 -1.1875q-0.15625 -0.546875 -0.484375 -0.9375q-0.328125 -0.390625 -0.828125 -0.609375q-0.484375 -0.21875 -1.125 -0.21875q-0.546875 0 -1.015625 0.21875q-0.453125 0.21875 -0.796875 0.609375q-0.328125 0.390625 -0.53125 0.9375q-0.203125 0.546875 -0.25 1.1875l5.15625 0zm8.417969 -4.3125q0.296875 0 0.5625 0.125q0.28125 0.125 0.484375 0.328125q0.21875 0.203125 0.328125 0.484375q0.125 0.265625 0.125 0.5625q0 0.3125 -0.125 0.59375q-0.109375 0.265625 -0.328125 0.46875q-0.203125 0.203125 -0.484375 0.328125q-0.265625 0.109375 -0.5625 0.109375q-0.3125 0 -0.578125 -0.109375q-0.265625 -0.125 -0.484375 -0.328125q-0.203125 -0.203125 -0.328125 -0.46875q-0.109375 -0.28125 -0.109375 -0.59375q0 -0.296875 0.109375 -0.5625q0.125 -0.28125 0.328125 -0.484375q0.21875 -0.203125 0.484375 -0.328125q0.265625 -0.125 0.578125 -0.125zm0 7.15625q0.296875 0 0.5625 0.125q0.28125 0.125 0.484375 0.328125q0.21875 0.203125 0.328125 0.484375q0.125 0.265625 0.125 0.578125q0 0.3125 -0.125 0.578125q-0.109375 0.265625 -0.328125 0.46875q-0.203125 0.203125 -0.484375 0.3125q-0.265625 0.125 -0.5625 0.125q-0.3125 0 -0.578125 -0.125q-0.265625 -0.109375 -0.484375 -0.3125q-0.203125 -0.203125 -0.328125 -0.46875q-0.109375 -0.265625 -0.109375 -0.578125q0 -0.3125 0.109375 -0.578125q0.125 -0.28125 0.328125 -0.484375q0.21875 -0.203125 0.484375 -0.328125q0.265625 -0.125 0.578125 -0.125zm27.398407 2.828125l-1.9062195 0l-0.890625 -2.78125l-5.3125 0l-0.890625 2.78125l-1.8125 0l4.25 -12.765625l2.375 0l4.1874695 12.765625zm-3.2812195 -4.34375l-2.171875 -6.8125l-2.15625 6.8125l4.328125 0zm8.277313 -8.0625l-2.90625 0l0 -1.390625l4.625 0l0 12.375l2.921875 0l0 1.421875l-7.859375 0l0 -1.421875l3.21875 0l0 -10.984375zm15.933594 6.984375q0 0.359375 -0.015625 0.609375q0 0.234375 -0.015625 0.453125l-6.890625 0q0 1.5 0.828125 2.3125q0.84375 0.8125 2.4375 0.8125q0.421875 0 0.84375 -0.03125q0.4375 -0.046875 0.828125 -0.09375q0.40625 -0.0625 0.765625 -0.140625q0.375 -0.078125 0.6875 -0.15625l0 1.390625q-0.6875 0.203125 -1.5625 0.3125q-0.875 0.125 -1.8125 0.125q-1.265625 0 -2.171875 -0.34375q-0.90625 -0.34375 -1.484375 -0.984375q-0.578125 -0.65625 -0.859375 -1.59375q-0.28125 -0.9375 -0.28125 -2.140625q0 -1.03125 0.296875 -1.953125q0.296875 -0.921875 0.859375 -1.609375q0.578125 -0.703125 1.40625 -1.109375q0.84375 -0.421875 1.890625 -0.421875q1.03125 0 1.8125 0.328125q0.796875 0.3125 1.328125 0.90625q0.546875 0.59375 0.828125 1.4375q0.28125 0.84375 0.28125 1.890625zm-1.765625 -0.25q0.03125 -0.640625 -0.125 -1.1875q-0.15625 -0.546875 -0.484375 -0.9375q-0.328125 -0.390625 -0.828125 -0.609375q-0.484375 -0.21875 -1.125 -0.21875q-0.546875 0 -1.015625 0.21875q-0.453125 0.21875 -0.796875 0.609375q-0.328125 0.390625 -0.53125 0.9375q-0.203125 0.546875 -0.25 1.1875l5.15625 0zm13.324219 5.671875l-2.265625 0l-2.640625 -3.734375l-2.625 3.734375l-2.1875 0l3.796875 -4.921875l-3.625 -4.890625l2.171875 0l2.578125 3.78125l2.53125 -3.78125l2.109375 0l-3.6875 4.921875l3.84375 4.890625z" fill-rule="nonzero"/><path fill="#8fe3e8" d="m440.31833 256.36856l-2.90625 0l0 -1.3906403l4.625 0l0 12.375015l2.921875 0l0 1.421875l-7.859375 0l0 -1.421875l3.21875 0l0 -10.984375zm10.996094 4.0l-2.90625 0l0 -1.40625l4.625 0l0 8.390625l2.921875 0l0 1.421875l-7.859375 0l0 -1.421875l3.21875 0l0 -6.984375zm0.59375 -5.5156403q0.28125 0 0.515625 0.109375q0.25 0.09375 0.421875 0.28125q0.1875 0.1875 0.296875 0.4375q0.109375 0.234375 0.109375 0.51564026q0 0.265625 -0.109375 0.515625q-0.109375 0.25 -0.296875 0.4375q-0.171875 0.171875 -0.421875 0.28125q-0.234375 0.109375 -0.515625 0.109375q-0.28125 0 -0.53125 -0.109375q-0.234375 -0.109375 -0.421875 -0.28125q-0.1875 -0.1875 -0.296875 -0.4375q-0.09375 -0.25 -0.09375 -0.515625q0 -0.28126526 0.09375 -0.51564026q0.109375 -0.25 0.296875 -0.4375q0.1875 -0.1875 0.421875 -0.28125q0.25 -0.109375 0.53125 -0.109375zm6.1367188 4.1093903l1.9375 0l2.40625 6.484375l0.515625 1.59375l0.53125 -1.625l2.390625 -6.453125l1.859375 0l-3.84375 9.8125l-1.953125 0l-3.84375 -9.8125zm20.199219 4.390625q0 0.359375 -0.015625 0.609375q0 0.234375 -0.015625 0.453125l-6.890625 0q0 1.5 0.828125 2.3125q0.84375 0.8125 2.4375 0.8125q0.421875 0 0.84375 -0.03125q0.4375 -0.046875 0.828125 -0.09375q0.40625 -0.0625 0.765625 -0.140625q0.375 -0.078125 0.6875 -0.15625l0 1.390625q-0.6875 0.203125 -1.5625 0.3125q-0.875 0.125 -1.8125 0.125q-1.265625 0 -2.171875 -0.34375q-0.90625 -0.34375 -1.484375 -0.984375q-0.578125 -0.65625 -0.859375 -1.59375q-0.28125 -0.9375 -0.28125 -2.140625q0 -1.03125 0.296875 -1.953125q0.296875 -0.921875 0.859375 -1.609375q0.578125 -0.703125 1.40625 -1.109375q0.84375 -0.421875 1.890625 -0.421875q1.03125 0 1.8125 0.328125q0.796875 0.3125 1.328125 0.90625q0.546875 0.59375 0.828125 1.4375q0.28125 0.84375 0.28125 1.890625zm-1.765625 -0.25q0.03125 -0.640625 -0.125 -1.1875q-0.15625 -0.546875 -0.484375 -0.9375q-0.328125 -0.390625 -0.828125 -0.609375q-0.484375 -0.21875 -1.125 -0.21875q-0.546875 0 -1.015625 0.21875q-0.453125 0.21875 -0.796875 0.609375q-0.328125 0.390625 -0.53125 0.9375q-0.203125 0.546875 -0.25 1.1875l5.15625 0zm12.246094 3.0q0 0.515625 -0.1875 0.921875q-0.171875 0.40625 -0.46875 0.734375q-0.296875 0.3125 -0.703125 0.546875q-0.40625 0.21875 -0.859375 0.375q-0.453125 0.140625 -0.9375 0.203125q-0.46875 0.0625 -0.921875 0.0625q-1.0 0 -1.84375 -0.09375q-0.828125 -0.078125 -1.625 -0.28125l0 -1.5625q0.859375 0.25 1.703125 0.375q0.859375 0.125 1.6875 0.125q1.21875 0 1.796875 -0.328125q0.59375 -0.328125 0.59375 -0.953125q0 -0.25 -0.09375 -0.453125q-0.078125 -0.21875 -0.328125 -0.40625q-0.25 -0.203125 -0.765625 -0.40625q-0.5 -0.203125 -1.390625 -0.46875q-0.671875 -0.1875 -1.234375 -0.4375q-0.5625 -0.25 -0.96875 -0.59375q-0.40625 -0.34375 -0.640625 -0.796875q-0.234375 -0.46875 -0.234375 -1.09375q0 -0.40625 0.1875 -0.890625q0.1875 -0.484375 0.640625 -0.90625q0.46875 -0.421875 1.25 -0.703125q0.78125 -0.28125 1.953125 -0.28125q0.578125 0 1.28125 0.0625q0.703125 0.0625 1.46875 0.21875l0 1.515625q-0.8125 -0.1875 -1.53125 -0.28125q-0.703125 -0.09375 -1.234375 -0.09375q-0.640625 0 -1.078125 0.09375q-0.421875 0.09375 -0.703125 0.265625q-0.265625 0.171875 -0.390625 0.40625q-0.109375 0.234375 -0.109375 0.484375q0 0.265625 0.09375 0.484375q0.109375 0.21875 0.390625 0.421875q0.28125 0.1875 0.78125 0.390625q0.5 0.203125 1.296875 0.4375q0.875 0.25 1.46875 0.53125q0.59375 0.28125 0.953125 0.625q0.375 0.34375 0.53125 0.78125q0.171875 0.421875 0.171875 0.96875zm7.1679688 -7.3125q0.296875 0 0.5625 0.125q0.28125 0.125 0.484375 0.328125q0.21875 0.203125 0.328125 0.484375q0.125 0.265625 0.125 0.5625q0 0.3125 -0.125 0.59375q-0.109375 0.265625 -0.328125 0.46875q-0.203125 0.203125 -0.484375 0.328125q-0.265625 0.109375 -0.5625 0.109375q-0.3125 0 -0.578125 -0.109375q-0.265625 -0.125 -0.484375 -0.328125q-0.203125 -0.203125 -0.328125 -0.46875q-0.109375 -0.28125 -0.109375 -0.59375q0 -0.296875 0.109375 -0.5625q0.125 -0.28125 0.328125 -0.484375q0.21875 -0.203125 0.484375 -0.328125q0.265625 -0.125 0.578125 -0.125zm0 7.15625q0.296875 0 0.5625 0.125q0.28125 0.125 0.484375 0.328125q0.21875 0.203125 0.328125 0.484375q0.125 0.265625 0.125 0.578125q0 0.3125 -0.125 0.578125q-0.109375 0.265625 -0.328125 0.46875q-0.203125 0.203125 -0.484375 0.3125q-0.265625 0.125 -0.5625 0.125q-0.3125 0 -0.578125 -0.125q-0.265625 -0.109375 -0.484375 -0.3125q-0.203125 -0.203125 -0.328125 -0.46875q-0.109375 -0.265625 -0.109375 -0.578125q0 -0.3125 0.109375 -0.578125q0.125 -0.28125 0.328125 -0.484375q0.21875 -0.203125 0.484375 -0.328125q0.265625 -0.125 0.578125 -0.125zm26.320282 -7.75q-0.71875 -0.375 -1.46875 -0.578125q-0.75 -0.21875 -1.640625 -0.21875q-1.015625 0 -1.8125 0.359375q-0.78125 0.359375 -1.328125 1.015625q-0.546875 0.65625 -0.828125 1.59375q-0.28125 0.921875 -0.28125 2.046875q0 1.171875 0.234375 2.109375q0.234375 0.921875 0.71875 1.5625q0.5 0.640625 1.28125 0.984375q0.78125 0.34375 1.859375 0.34375q0.1875 0 0.390625 -0.015625q0.21875 -0.015625 0.4375 -0.046875q0.21875 -0.046875 0.421875 -0.09375q0.203125 -0.046875 0.359375 -0.109375l0 -4.0625l-2.609375 0l0 -1.4375l4.328125 0l0 6.53125q-0.40625 0.1875 -0.859375 0.328125q-0.4375 0.140625 -0.90625 0.25q-0.453125 0.09375 -0.921875 0.140625q-0.453125 0.046875 -0.890625 0.046875q-1.296875 0 -2.359375 -0.40625q-1.046875 -0.40625 -1.78125 -1.203125q-0.734375 -0.8125 -1.140625 -2.015625q-0.390625 -1.203125 -0.390625 -2.78125q0 -1.578125 0.4375 -2.8125q0.453125 -1.25 1.234375 -2.109375q0.796875 -0.875 1.921875 -1.328125q1.125 -0.45314026 2.46875 -0.45314026q0.859375 0 1.625 0.15625q0.78125 0.14064026 1.5 0.46876526l0 1.734375zm11.011719 5.15625q0 0.359375 -0.015625 0.609375q0 0.234375 -0.015625 0.453125l-6.890625 0q0 1.5 0.828125 2.3125q0.84375 0.8125 2.4375 0.8125q0.421875 0 0.84375 -0.03125q0.4375 -0.046875 0.828125 -0.09375q0.40625 -0.0625 0.765625 -0.140625q0.375 -0.078125 0.6875 -0.15625l0 1.390625q-0.6875 0.203125 -1.5625 0.3125q-0.875 0.125 -1.8125 0.125q-1.265625 0 -2.171875 -0.34375q-0.90625 -0.34375 -1.484375 -0.984375q-0.578125 -0.65625 -0.859375 -1.59375q-0.28125 -0.9375 -0.28125 -2.140625q0 -1.03125 0.296875 -1.953125q0.296875 -0.921875 0.859375 -1.609375q0.578125 -0.703125 1.40625 -1.109375q0.84375 -0.421875 1.890625 -0.421875q1.03125 0 1.8125 0.328125q0.796875 0.3125 1.328125 0.90625q0.546875 0.59375 0.828125 1.4375q0.28125 0.84375 0.28125 1.890625zm-1.765625 -0.25q0.03125 -0.640625 -0.125 -1.1875q-0.15625 -0.546875 -0.484375 -0.9375q-0.328125 -0.390625 -0.828125 -0.609375q-0.484375 -0.21875 -1.125 -0.21875q-0.546875 0 -1.015625 0.21875q-0.453125 0.21875 -0.796875 0.609375q-0.328125 0.390625 -0.53125 0.9375q-0.203125 0.546875 -0.25 1.1875l5.15625 0zm4.8867188 -4.140625l1.546875 0l0.046875 1.8125q0.875 -1.046875 1.71875 -1.515625q0.84375 -0.46875 1.703125 -0.46875q1.515625 0 2.296875 0.984375q0.796875 0.984375 0.734375 2.9375l-1.71875 0q0.03125 -1.296875 -0.375 -1.875q-0.40625 -0.578125 -1.1875 -0.578125q-0.34375 0 -0.6875 0.125q-0.34375 0.125 -0.71875 0.390625q-0.359375 0.265625 -0.765625 0.6875q-0.40625 0.421875 -0.875 1.015625l0 6.296875l-1.71875 0l0 -9.8125zm17.589844 9.8125l0 -7.046875q0 -0.453125 -0.046875 -0.75q-0.03125 -0.296875 -0.109375 -0.453125q-0.0625 -0.171875 -0.1875 -0.234375q-0.109375 -0.078125 -0.265625 -0.078125q-0.203125 0 -0.375 0.125q-0.15625 0.109375 -0.34375 0.375q-0.1875 0.265625 -0.421875 0.703125q-0.234375 0.421875 -0.546875 1.0625l0 6.296875l-1.546875 0l0 -6.859375q0 -0.53125 -0.03125 -0.859375q-0.03125 -0.34375 -0.109375 -0.515625q-0.078125 -0.1875 -0.203125 -0.25q-0.109375 -0.078125 -0.265625 -0.078125q-0.1875 0 -0.34375 0.09375q-0.15625 0.09375 -0.34375 0.359375q-0.1875 0.25 -0.421875 0.6875q-0.234375 0.4375 -0.5625 1.125l0 6.296875l-1.5625 0l0 -9.8125l1.296875 0l0.078125 1.875q0.265625 -0.5625 0.5 -0.953125q0.234375 -0.390625 0.484375 -0.625q0.265625 -0.234375 0.546875 -0.34375q0.296875 -0.125 0.640625 -0.125q0.796875 0 1.203125 0.515625q0.40625 0.515625 0.40625 1.609375q0.234375 -0.515625 0.453125 -0.90625q0.234375 -0.390625 0.484375 -0.65625q0.265625 -0.28125 0.578125 -0.421875q0.3125 -0.140625 0.71875 -0.140625q1.859375 0 1.859375 2.84375l0 7.140625l-1.5625 0zm10.292969 0l-0.03125 -1.3125q-0.8125 0.78125 -1.640625 1.140625q-0.8125 0.34375 -1.71875 0.34375q-0.84375 0 -1.4375 -0.203125q-0.59375 -0.21875 -0.984375 -0.59375q-0.390625 -0.375 -0.578125 -0.875q-0.171875 -0.515625 -0.171875 -1.125q0 -1.46875 1.09375 -2.296875q1.109375 -0.84375 3.25 -0.84375l2.03125 0l0 -0.859375q0 -0.859375 -0.5625 -1.375q-0.546875 -0.53125 -1.6875 -0.53125q-0.828125 0 -1.640625 0.1875q-0.796875 0.171875 -1.65625 0.515625l0 -1.53125q0.3125 -0.109375 0.703125 -0.21875q0.40625 -0.125 0.84375 -0.203125q0.4375 -0.09375 0.90625 -0.140625q0.484375 -0.0625 0.984375 -0.0625q0.890625 0 1.59375 0.203125q0.71875 0.1875 1.203125 0.59375q0.5 0.390625 0.765625 1.0q0.265625 0.609375 0.265625 1.421875l0 6.765625l-1.53125 0zm-0.1875 -4.46875l-2.15625 0q-0.625 0 -1.09375 0.140625q-0.453125 0.125 -0.75 0.359375q-0.296875 0.234375 -0.4375 0.5625q-0.140625 0.3125 -0.140625 0.734375q0 0.28125 0.078125 0.546875q0.09375 0.25 0.28125 0.453125q0.203125 0.203125 0.515625 0.328125q0.3125 0.109375 0.765625 0.109375q0.59375 0 1.34375 -0.359375q0.765625 -0.359375 1.59375 -1.125l0 -1.75zm4.8867188 -5.34375l1.515625 0l0.0625 1.59375q0.4375 -0.515625 0.828125 -0.84375q0.40625 -0.34375 0.78125 -0.546875q0.390625 -0.203125 0.796875 -0.28125q0.40625 -0.09375 0.828125 -0.09375q1.515625 0 2.28125 0.90625q0.78125 0.890625 0.78125 2.6875l0 6.390625l-1.6875 0l0 -6.265625q0 -1.140625 -0.4375 -1.6875q-0.421875 -0.5625 -1.28125 -0.5625q-0.3125 0 -0.609375 0.09375q-0.296875 0.09375 -0.625 0.328125q-0.3125 0.21875 -0.6875 0.609375q-0.375 0.390625 -0.84375 0.984375l0 6.5l-1.703125 0l0 -9.8125zm19.714844 0l-3.34375 8.78125q-0.515625 1.328125 -1.0625 2.296875q-0.546875 0.96875 -1.203125 1.59375q-0.65625 0.625 -1.4375 0.90625q-0.78125 0.296875 -1.75 0.296875q-0.25 0 -0.453125 -0.015625q-0.203125 0 -0.453125 -0.015625l0 -1.546875q0.21875 0.03125 0.46875 0.046875q0.25 0.03125 0.53125 0.03125q0.46875 0 0.875 -0.140625q0.40625 -0.140625 0.765625 -0.453125q0.359375 -0.296875 0.6875 -0.796875q0.34375 -0.484375 0.65625 -1.171875l-3.921875 -9.8125l1.9375 0l2.484375 6.484375l0.5 1.53125l0.5625 -1.5625l2.296875 -6.453125l1.859375 0z" fill-rule="nonzero"/><path fill="#8fe3e8" d="m445.34958 287.6967q0 1.3125 -0.375 2.296875q-0.359375 0.96875 -1.0 1.609375q-0.640625 0.640625 -1.53125 0.96875q-0.875 0.328125 -1.890625 0.328125q-0.46875 0 -0.9375 -0.0625q-0.46875 -0.046875 -0.9375 -0.15625l0 4.09375l-1.703125 0l0 -13.8125l1.515625 0l0.109375 1.640625q0.734375 -1.0 1.5625 -1.40625q0.828125 -0.40625 1.796875 -0.40625q0.84375 0 1.46875 0.359375q0.640625 0.34375 1.0625 0.984375q0.4375 0.640625 0.640625 1.546875q0.21875 0.90625 0.21875 2.015625zm-1.734375 0.078125q0 -0.765625 -0.109375 -1.40625q-0.109375 -0.65625 -0.359375 -1.109375q-0.25 -0.46875 -0.625 -0.71875q-0.375 -0.265625 -0.90625 -0.265625q-0.328125 0 -0.65625 0.109375q-0.328125 0.09375 -0.6875 0.34375q-0.359375 0.234375 -0.75 0.640625q-0.390625 0.390625 -0.84375 0.96875l0 4.75q0.46875 0.203125 0.984375 0.3125q0.515625 0.109375 1.015625 0.109375q1.375 0 2.15625 -0.921875q0.78125 -0.9375 0.78125 -2.8125zm12.230469 5.0l-1.515625 0l-0.0625 -1.578125q-0.4375 0.5 -0.84375 0.84375q-0.390625 0.328125 -0.78125 0.546875q-0.390625 0.203125 -0.78125 0.28125q-0.390625 0.078125 -0.828125 0.078125q-1.515625 0 -2.296875 -0.890625q-0.765625 -0.890625 -0.765625 -2.6875l0 -6.40625l1.703125 0l0 6.28125q0 2.25 1.703125 2.25q0.3125 0 0.609375 -0.09375q0.296875 -0.09375 0.625 -0.3125q0.328125 -0.234375 0.703125 -0.625q0.375 -0.390625 0.84375 -0.984375l0 -6.515625l1.6875 0l0 9.8125zm3.5273438 -9.8125l1.546875 0l0.046875 1.8125q0.875 -1.046875 1.71875 -1.515625q0.84375 -0.46875 1.703125 -0.46875q1.515625 0 2.296875 0.984375q0.796875 0.984375 0.734375 2.9375l-1.71875 0q0.03125 -1.296875 -0.375 -1.875q-0.40625 -0.578125 -1.1875 -0.578125q-0.34375 0 -0.6875 0.125q-0.34375 0.125 -0.71875 0.390625q-0.359375 0.265625 -0.765625 0.6875q-0.40625 0.421875 -0.875 1.015625l0 6.296875l-1.71875 0l0 -9.8125zm18.214844 9.453125q-0.671875 0.25 -1.375 0.375q-0.6875 0.125 -1.4375 0.125q-2.328125 0 -3.578125 -1.265625q-1.25 -1.265625 -1.25 -3.6875q0 -1.15625 0.359375 -2.09375q0.359375 -0.953125 1.015625 -1.625q0.65625 -0.671875 1.5625 -1.03125q0.90625 -0.375 2.0 -0.375q0.765625 0 1.421875 0.109375q0.671875 0.09375 1.28125 0.34375l0 1.625q-0.640625 -0.328125 -1.296875 -0.484375q-0.65625 -0.15625 -1.359375 -0.15625q-0.65625 0 -1.25 0.25q-0.578125 0.25 -1.015625 0.71875q-0.4375 0.46875 -0.6875 1.140625q-0.25 0.671875 -0.25 1.53125q0 1.765625 0.859375 2.65625q0.859375 0.890625 2.390625 0.890625q0.703125 0 1.34375 -0.15625q0.65625 -0.15625 1.265625 -0.46875l0 1.578125zm11.246094 0.359375l-1.6875 0l0 -6.265625q0 -1.125 -0.4375 -1.6875q-0.421875 -0.5625 -1.203125 -0.5625q-0.34375 0 -0.640625 0.09375q-0.296875 0.09375 -0.625 0.328125q-0.328125 0.21875 -0.703125 0.609375q-0.375 0.390625 -0.875 0.984375l0 6.5l-1.703125 0l0 -13.796875l1.703125 0l0 3.984375l-0.0625 1.546875q0.40625 -0.46875 0.78125 -0.796875q0.390625 -0.328125 0.765625 -0.53125q0.390625 -0.21875 0.796875 -0.296875q0.40625 -0.09375 0.828125 -0.09375q1.46875 0 2.265625 0.90625q0.796875 0.890625 0.796875 2.6875l0 6.390625zm9.417969 0l-0.03125 -1.3125q-0.8125 0.78125 -1.640625 1.140625q-0.8125 0.34375 -1.71875 0.34375q-0.84375 0 -1.4375 -0.203125q-0.59375 -0.21875 -0.984375 -0.59375q-0.390625 -0.375 -0.578125 -0.875q-0.171875 -0.515625 -0.171875 -1.125q0 -1.46875 1.09375 -2.296875q1.109375 -0.84375 3.25 -0.84375l2.03125 0l0 -0.859375q0 -0.859375 -0.5625 -1.375q-0.546875 -0.53125 -1.6875 -0.53125q-0.828125 0 -1.640625 0.1875q-0.796875 0.171875 -1.65625 0.515625l0 -1.53125q0.3125 -0.109375 0.703125 -0.21875q0.40625 -0.125 0.84375 -0.203125q0.4375 -0.09375 0.90625 -0.140625q0.484375 -0.0625 0.984375 -0.0625q0.890625 0 1.59375 0.203125q0.71875 0.1875 1.203125 0.59375q0.5 0.390625 0.765625 1.0q0.265625 0.609375 0.265625 1.421875l0 6.765625l-1.53125 0zm-0.1875 -4.46875l-2.15625 0q-0.625 0 -1.09375 0.140625q-0.453125 0.125 -0.75 0.359375q-0.296875 0.234375 -0.4375 0.5625q-0.140625 0.3125 -0.140625 0.734375q0 0.28125 0.078125 0.546875q0.09375 0.25 0.28125 0.453125q0.203125 0.203125 0.515625 0.328125q0.3125 0.109375 0.765625 0.109375q0.59375 0 1.34375 -0.359375q0.765625 -0.359375 1.59375 -1.125l0 -1.75zm12.652344 1.796875q0 0.515625 -0.1875 0.921875q-0.171875 0.40625 -0.46875 0.734375q-0.296875 0.3125 -0.703125 0.546875q-0.40625 0.21875 -0.859375 0.375q-0.453125 0.140625 -0.9375 0.203125q-0.46875 0.0625 -0.921875 0.0625q-1.0 0 -1.84375 -0.09375q-0.828125 -0.078125 -1.625 -0.28125l0 -1.5625q0.859375 0.25 1.703125 0.375q0.859375 0.125 1.6875 0.125q1.21875 0 1.796875 -0.328125q0.59375 -0.328125 0.59375 -0.953125q0 -0.25 -0.09375 -0.453125q-0.078125 -0.21875 -0.328125 -0.40625q-0.25 -0.203125 -0.765625 -0.40625q-0.5 -0.203125 -1.390625 -0.46875q-0.671875 -0.1875 -1.234375 -0.4375q-0.5625 -0.25 -0.96875 -0.59375q-0.40625 -0.34375 -0.640625 -0.796875q-0.234375 -0.46875 -0.234375 -1.09375q0 -0.40625 0.1875 -0.890625q0.1875 -0.484375 0.640625 -0.90625q0.46875 -0.421875 1.25 -0.703125q0.78125 -0.28125 1.953125 -0.28125q0.578125 0 1.28125 0.0625q0.703125 0.0625 1.46875 0.21875l0 1.515625q-0.8125 -0.1875 -1.53125 -0.28125q-0.703125 -0.09375 -1.234375 -0.09375q-0.640625 0 -1.078125 0.09375q-0.421875 0.09375 -0.703125 0.265625q-0.265625 0.171875 -0.390625 0.40625q-0.109375 0.234375 -0.109375 0.484375q0 0.265625 0.09375 0.484375q0.109375 0.21875 0.390625 0.421875q0.28125 0.1875 0.78125 0.390625q0.5 0.203125 1.296875 0.4375q0.875 0.25 1.46875 0.53125q0.59375 0.28125 0.953125 0.625q0.375 0.34375 0.53125 0.78125q0.171875 0.421875 0.171875 0.96875zm11.511688 -2.75q0 0.359375 -0.015625 0.609375q0 0.234375 -0.015625 0.453125l-6.890625 0q0 1.5 0.828125 2.3125q0.84375 0.8125 2.4375 0.8125q0.421875 0 0.84375 -0.03125q0.4375 -0.046875 0.828125 -0.09375q0.40625 -0.0625 0.765625 -0.140625q0.375 -0.078125 0.6875 -0.15625l0 1.390625q-0.6875 0.203125 -1.5625 0.3125q-0.875 0.125 -1.8125 0.125q-1.265625 0 -2.171875 -0.34375q-0.90625 -0.34375 -1.484375 -0.984375q-0.578125 -0.65625 -0.859375 -1.59375q-0.28125 -0.9375 -0.28125 -2.140625q0 -1.03125 0.296875 -1.953125q0.296875 -0.921875 0.859375 -1.609375q0.578125 -0.703125 1.40625 -1.109375q0.84375 -0.421875 1.890625 -0.421875q1.03125 0 1.8125 0.328125q0.796875 0.3125 1.328125 0.90625q0.546875 0.59375 0.828125 1.4375q0.28125 0.84375 0.28125 1.890625zm-1.765625 -0.25q0.03125 -0.640625 -0.125 -1.1875q-0.15625 -0.546875 -0.484375 -0.9375q-0.328125 -0.390625 -0.828125 -0.609375q-0.484375 -0.21875 -1.125 -0.21875q-0.546875 0 -1.015625 0.21875q-0.453125 0.21875 -0.796875 0.609375q-0.328125 0.390625 -0.53125 0.9375q-0.203125 0.546875 -0.25 1.1875l5.15625 0zm12.246094 3.0q0 0.515625 -0.1875 0.921875q-0.171875 0.40625 -0.46875 0.734375q-0.296875 0.3125 -0.703125 0.546875q-0.40625 0.21875 -0.859375 0.375q-0.453125 0.140625 -0.9375 0.203125q-0.46875 0.0625 -0.921875 0.0625q-1.0 0 -1.84375 -0.09375q-0.828125 -0.078125 -1.625 -0.28125l0 -1.5625q0.859375 0.25 1.703125 0.375q0.859375 0.125 1.6875 0.125q1.21875 0 1.796875 -0.328125q0.59375 -0.328125 0.59375 -0.953125q0 -0.25 -0.09375 -0.453125q-0.078125 -0.21875 -0.328125 -0.40625q-0.25 -0.203125 -0.765625 -0.40625q-0.5 -0.203125 -1.390625 -0.46875q-0.671875 -0.1875 -1.234375 -0.4375q-0.5625 -0.25 -0.96875 -0.59375q-0.40625 -0.34375 -0.640625 -0.796875q-0.234375 -0.46875 -0.234375 -1.09375q0 -0.40625 0.1875 -0.890625q0.1875 -0.484375 0.640625 -0.90625q0.46875 -0.421875 1.25 -0.703125q0.78125 -0.28125 1.953125 -0.28125q0.578125 0 1.28125 0.0625q0.703125 0.0625 1.46875 0.21875l0 1.515625q-0.8125 -0.1875 -1.53125 -0.28125q-0.703125 -0.09375 -1.234375 -0.09375q-0.640625 0 -1.078125 0.09375q-0.421875 0.09375 -0.703125 0.265625q-0.265625 0.171875 -0.390625 0.40625q-0.109375 0.234375 -0.109375 0.484375q0 0.265625 0.09375 0.484375q0.109375 0.21875 0.390625 0.421875q0.28125 0.1875 0.78125 0.390625q0.5 0.203125 1.296875 0.4375q0.875 0.25 1.46875 0.53125q0.59375 0.28125 0.953125 0.625q0.375 0.34375 0.53125 0.78125q0.171875 0.421875 0.171875 0.96875zm7.1679688 -7.3125q0.296875 0 0.5625 0.125q0.28125 0.125 0.484375 0.328125q0.21875 0.203125 0.328125 0.484375q0.125 0.265625 0.125 0.5625q0 0.3125 -0.125 0.59375q-0.109375 0.265625 -0.328125 0.46875q-0.203125 0.203125 -0.484375 0.328125q-0.265625 0.109375 -0.5625 0.109375q-0.3125 0 -0.578125 -0.109375q-0.265625 -0.125 -0.484375 -0.328125q-0.203125 -0.203125 -0.328125 -0.46875q-0.109375 -0.28125 -0.109375 -0.59375q0 -0.296875 0.109375 -0.5625q0.125 -0.28125 0.328125 -0.484375q0.21875 -0.203125 0.484375 -0.328125q0.265625 -0.125 0.578125 -0.125zm0 7.15625q0.296875 0 0.5625 0.125q0.28125 0.125 0.484375 0.328125q0.21875 0.203125 0.328125 0.484375q0.125 0.265625 0.125 0.578125q0 0.3125 -0.125 0.578125q-0.109375 0.265625 -0.328125 0.46875q-0.203125 0.203125 -0.484375 0.3125q-0.265625 0.125 -0.5625 0.125q-0.3125 0 -0.578125 -0.125q-0.265625 -0.109375 -0.484375 -0.3125q-0.203125 -0.203125 -0.328125 -0.46875q-0.109375 -0.265625 -0.109375 -0.578125q0 -0.3125 0.109375 -0.578125q0.125 -0.28125 0.328125 -0.484375q0.21875 -0.203125 0.484375 -0.328125q0.265625 -0.125 0.578125 -0.125zm26.007812 -1.25q0 0.9375 -0.40625 1.71875q-0.40625 0.78125 -1.125 1.34375q-0.71875 0.5625 -1.703125 0.875q-0.96875 0.3125 -2.09375 0.3125q-0.296875 0 -0.625 -0.015625q-0.3125 -0.015625 -0.640625 -0.046875q-0.328125 -0.015625 -0.640625 -0.046875q-0.296875 -0.015625 -0.546875 -0.0625l0 -1.546875q0.53125 0.125 1.203125 0.1875q0.6875 0.0625 1.375 0.0625q0.78125 0 1.40625 -0.1875q0.625 -0.1875 1.0625 -0.53125q0.453125 -0.34375 0.6875 -0.828125q0.234375 -0.5 0.234375 -1.125q0 -1.1875 -0.859375 -1.71875q-0.859375 -0.546875 -2.453125 -0.546875l-2.421875 0l0 -6.53125l6.875 0l0 1.484375l-5.28125 0l0 3.578125l1.109375 0q0.921875 0 1.78125 0.171875q0.875 0.171875 1.546875 0.59375q0.6875 0.40625 1.09375 1.109375q0.421875 0.6875 0.421875 1.75z" fill-rule="nonzero"/></g></svg>