<svg version="1.1" viewBox="0.0 0.0 690.9685039370079 483.87139107611546" fill="none" stroke="none" stroke-linecap="square" stroke-miterlimit="10" xmlns:xlink="http://www.w3.org/1999/xlink" xmlns="http://www.w3.org/2000/svg"><clipPath id="p.0"><path d="m0 0l690.9685 0l0 483.8714l-690.9685 0l0 -483.8714z" clip-rule="nonzero"/></clipPath><g clip-path="url(#p.0)"><path fill="#000000" fill-opacity="0.0" d="m0 0l690.9685 0l0 483.8714l-690.9685 0z" fill-rule="evenodd"/><path fill="#014063" d="m446.55872 95.67003l0 0c0 -48.418446 39.250916 -87.66935 87.66937 -87.66935l0 0c23.251343 0 45.550354 9.236567 61.991577 25.67776c16.441162 16.441193 25.677734 38.740234 25.677734 61.991592l0 0c0 48.41844 -39.250916 87.66936 -87.66931 87.66936l0 0c-48.418457 0 -87.66937 -39.250916 -87.66937 -87.66936z" fill-rule="evenodd"/><path stroke="#8fe3e8" stroke-width="3.0" stroke-linejoin="round" stroke-linecap="butt" d="m446.55872 95.67003l0 0c0 -48.418446 39.250916 -87.66935 87.66937 -87.66935l0 0c23.251343 0 45.550354 9.236567 61.991577 25.67776c16.441162 16.441193 25.677734 38.740234 25.677734 61.991592l0 0c0 48.41844 -39.250916 87.66936 -87.66931 87.66936l0 0c-48.418457 0 -87.66937 -39.250916 -87.66937 -87.66936z" fill-rule="evenodd"/><path fill="#8fe3e8" d="m517.50256 88.830025l0 -17.53125l-7.109375 0l0 -3.140625l17.953125 0l0 3.140625l-7.09375 0l0 17.53125l-3.75 0zm17.127869 0.296875q-2.234375 0 -3.875 -0.90625q-1.640625 -0.921875 -2.5625 -2.59375q-0.90625 -1.6875 -0.90625 -3.984375q0 -2.28125 0.90625 -3.953125q0.921875 -1.671875 2.5625 -2.578125q1.640625 -0.921875 3.875 -0.921875q2.21875 0 3.859375 0.921875q1.640625 0.90625 2.546875 2.578125q0.921875 1.671875 0.921875 3.953125q0 2.296875 -0.921875 3.984375q-0.90625 1.671875 -2.546875 2.59375q-1.640625 0.90625 -3.859375 0.90625zm0 -2.796875q1.640625 0 2.625 -1.1875q1.0 -1.1875 1.0 -3.53125q0 -2.3125 -1.0 -3.46875q-0.984375 -1.15625 -2.625 -1.15625q-1.65625 0 -2.65625 1.15625q-0.984375 1.15625 -0.984375 3.46875q0 2.34375 0.984375 3.53125q1.0 1.1875 2.65625 1.1875zm11.34967 7.78125l2.984375 -6.59375l0 1.515625l-6.3125 -14.546875l3.90625 0l4.453125 11.125l-0.875 0l4.546875 -11.125l3.703125 0l-8.625 19.625l-3.78125 0z" fill-rule="nonzero"/><path fill="#8fe3e8" d="m506.53323 124.12691q-1.625 0 -3.109375 -0.28125q-1.46875 -0.28125 -2.71875 -0.796875q-1.25 -0.53125 -2.21875 -1.265625l1.15625 -2.96875q0.953125 0.671875 2.03125 1.15625q1.078125 0.484375 2.28125 0.734375q1.21875 0.25 2.578125 0.25q2.3125 0 3.359375 -0.765625q1.0625 -0.78125 1.0625 -2.015625q0 -0.671875 -0.328125 -1.15625q-0.3125 -0.484375 -1.046875 -0.828125q-0.734375 -0.359375 -1.9375 -0.59375l-3.234375 -0.6875q-2.78125 -0.578125 -4.140625 -1.96875q-1.359375 -1.390625 -1.359375 -3.6875q0 -1.9375 1.015625 -3.375q1.03125 -1.4375 2.84375 -2.21875q1.828125 -0.796875 4.203125 -0.796875q1.40625 0 2.703125 0.28125q1.3125 0.28125 2.4062805 0.828125q1.109375 0.53125 1.921875 1.296875l-1.140625 2.8125q-1.2344055 -1.03125 -2.7031555 -1.53125q-1.453125 -0.515625 -3.21875 -0.515625q-1.34375 0 -2.3125 0.375q-0.96875 0.375 -1.484375 1.078125q-0.515625 0.6875 -0.515625 1.625q0 1.046875 0.703125 1.6875q0.703125 0.625 2.40625 0.984375l3.203125 0.671875q2.890625 0.609375 4.3125305 1.9375q1.421875 1.3125 1.421875 3.515625q0 1.84375 -1.0 3.25q-0.984375 1.40625 -2.8281555 2.1875q-1.828125 0.78125 -4.3125 0.78125zm17.43753 0q-2.859375 0 -4.28125 -1.4375q-1.40625 -1.4375 -1.40625 -4.203125l0 -6.234375l-2.75 0l0 -2.765625l2.75 0l0 -4.28125l3.671875 0l0 4.28125l4.34375 0l0 2.765625l-4.34375 0l0 6.03125q0 1.40625 0.609375 2.109375q0.625 0.703125 2.0 0.703125q0.40625 0 0.84375 -0.09375q0.453125 -0.109375 0.921875 -0.21875l0.546875 2.6875q-0.53125 0.296875 -1.34375 0.46875q-0.796875 0.1875 -1.5625 0.1875zm11.09967 0q-2.234375 0 -3.875 -0.90625q-1.640625 -0.921875 -2.5625 -2.59375q-0.90625 -1.6875 -0.90625 -3.984375q0 -2.28125 0.90625 -3.953125q0.921875 -1.671875 2.5625 -2.578125q1.640625 -0.921875 3.875 -0.921875q2.21875 0 3.859375 0.921875q1.640625 0.90625 2.546875 2.578125q0.921875 1.671875 0.921875 3.953125q0 2.296875 -0.921875 3.984375q-0.90625 1.671875 -2.546875 2.59375q-1.640625 0.90625 -3.859375 0.90625zm0 -2.796875q1.640625 0 2.625 -1.1875q1.0 -1.1875 1.0 -3.53125q0 -2.3125 -1.0 -3.46875q-0.984375 -1.15625 -2.625 -1.15625q-1.65625 0 -2.65625 1.15625q-0.984375 1.15625 -0.984375 3.46875q0 2.34375 0.984375 3.53125q1.0 1.1875 2.65625 1.1875zm10.34613 2.5l0 -14.34375l3.578125 0l0 3.46875l-0.296875 0q0.421875 -1.765625 1.609375 -2.6875q1.203125 -0.921875 3.203125 -1.078125l1.109375 -0.078125l0.234375 3.109375l-2.109375 0.203125q-1.78125 0.171875 -2.703125 1.09375q-0.90625 0.921875 -0.90625 2.59375l0 7.71875l-3.71875 0zm13.673462 5.28125l2.984375 -6.59375l0 1.515625l-6.3125 -14.546875l3.90625 0l4.453125 11.125l-0.875 0l4.546875 -11.125l3.703125 0l-8.625 19.625l-3.78125 0z" fill-rule="nonzero"/><path fill="#014063" d="m566.42035 29.838583l0 0c0 -2.7306385 2.213623 -4.9442577 4.944275 -4.9442577l106.91559 0c1.3112793 0 2.5689087 0.5209122 3.4960938 1.4481392c0.9272461 0.9272289 1.4481812 2.1848202 1.4481812 3.4961185l0 19.776438c0 2.7306404 -2.213623 4.9442596 -4.944275 4.9442596l-106.91559 0c-2.7306519 0 -4.944275 -2.2136192 -4.944275 -4.9442596z" fill-rule="evenodd"/><path stroke="#8fe3e8" stroke-width="2.0" stroke-linejoin="round" stroke-linecap="butt" d="m566.42035 29.838583l0 0c0 -2.7306385 2.213623 -4.9442577 4.944275 -4.9442577l106.91559 0c1.3112793 0 2.5689087 0.5209122 3.4960938 1.4481392c0.9272461 0.9272289 1.4481812 2.1848202 1.4481812 3.4961185l0 19.776438c0 2.7306404 -2.213623 4.9442596 -4.944275 4.9442596l-106.91559 0c-2.7306519 0 -4.944275 -2.2136192 -4.944275 -4.9442596z" fill-rule="evenodd"/><path fill="#8fe3e8" d="m596.44476 47.9868l0 -15.96875l1.5625 0l6.484375 12.15625l-0.6875 0l6.4375 -12.15625l1.5625 0l0 15.96875l-1.71875 0l0 -13.484375l0.546875 0l-5.875 11.015625l-1.21875 0l-5.9375 -11.03125l0.546875 0l0 13.5l-1.703125 0zm23.652344 0.203125q-1.609375 0 -2.796875 -0.703125q-1.171875 -0.703125 -1.8125 -1.984375q-0.640625 -1.28125 -0.640625 -3.015625q0 -1.75 0.640625 -3.03125q0.640625 -1.28125 1.8125 -1.984375q1.1875 -0.703125 2.796875 -0.703125q1.609375 0 2.78125 0.703125q1.1875 0.703125 1.828125 1.984375q0.640625 1.28125 0.640625 3.03125q0 1.734375 -0.640625 3.015625q-0.640625 1.28125 -1.828125 1.984375q-1.171875 0.703125 -2.78125 0.703125zm0 -1.46875q1.5625 0 2.484375 -1.09375q0.921875 -1.109375 0.921875 -3.171875q0 -2.03125 -0.921875 -3.109375q-0.921875 -1.09375 -2.484375 -1.09375q-1.546875 0 -2.46875 1.09375q-0.921875 1.078125 -0.921875 3.109375q0 2.0625 0.921875 3.171875q0.921875 1.09375 2.46875 1.09375zm11.110046 1.265625l-4.75 -11.015625l2.0 0l3.9375 9.65625l-0.609375 0l4.015625 -9.65625l1.875 0l-4.75 11.015625l-1.71875 0zm8.199158 -13.75l0 -2.0625l2.265625 0l0 2.0625l-2.265625 0zm0.21875 13.75l0 -11.015625l1.84375 0l0 11.015625l-1.84375 0zm10.225037 0.203125q-1.75 0 -3.015625 -0.6875q-1.25 -0.6875 -1.9375 -1.953125q-0.6875 -1.28125 -0.6875 -3.046875q0 -1.71875 0.671875 -3.0q0.6875 -1.28125 1.875 -2.0q1.1875 -0.734375 2.75 -0.734375q1.5 0 2.5625 0.65625q1.0625 0.65625 1.640625 1.859375q0.578125 1.203125 0.578125 2.875l0 0.703125l-8.671875 0l0 -1.203125l7.453125 0l-0.375 0.296875q0 -1.8125 -0.8125 -2.8125q-0.796875 -1.015625 -2.328125 -1.015625q-1.15625 0 -1.96875 0.53125q-0.796875 0.53125 -1.203125 1.484375q-0.40625 0.9375 -0.40625 2.1875l0 0.125q0 1.390625 0.4375 2.34375q0.4375 0.9375 1.3125 1.4375q0.890625 0.484375 2.125 0.484375q0.96875 0 1.890625 -0.296875q0.921875 -0.3125 1.734375 -1.015625l0.625 1.28125q-0.75 0.6875 -1.90625 1.09375q-1.140625 0.40625 -2.34375 0.40625z" fill-rule="nonzero"/><path fill="#000000" fill-opacity="0.0" d="m183.34612 95.67003l263.2126 0" fill-rule="evenodd"/><path stroke="#8fe3e8" stroke-width="3.0" stroke-linejoin="round" stroke-linecap="butt" d="m183.34613 95.67003l245.21259 0" fill-rule="evenodd"/><path fill="#8fe3e8" stroke="#8fe3e8" stroke-width="3.0" stroke-linecap="butt" d="m428.55872 100.62523l13.614319 -4.9552l-13.614319 -4.9552z" fill-rule="evenodd"/><path fill="#014063" d="m248.45898 85.783485l0 0c0 -2.731041 2.2139282 -4.9449844 4.944977 -4.9449844l123.086426 0c1.3114624 0 2.5692444 0.52098846 3.4966125 1.4483566c0.92736816 0.92736053 1.4483643 2.185135 1.4483643 3.4966278l0 19.779327c0 2.731041 -2.2139587 4.9449844 -4.944977 4.9449844l-123.086426 0c-2.7310486 0 -4.944977 -2.2139435 -4.944977 -4.9449844z" fill-rule="evenodd"/><path stroke="#8fe3e8" stroke-width="2.0" stroke-linejoin="round" stroke-linecap="butt" d="m248.45898 85.783485l0 0c0 -2.731041 2.2139282 -4.9449844 4.944977 -4.9449844l123.086426 0c1.3114624 0 2.5692444 0.52098846 3.4966125 1.4483566c0.92736816 0.92736053 1.4483643 2.185135 1.4483643 3.4966278l0 19.779327c0 2.731041 -2.2139587 4.9449844 -4.944977 4.9449844l-123.086426 0c-2.7310486 0 -4.944977 -2.2139435 -4.944977 -4.9449844z" fill-rule="evenodd"/><path fill="#8fe3e8" d="m280.23596 103.93315l0 -15.96875l6.328125 0q2.5625 0 3.9375 1.203125q1.375 1.1875 1.375 3.421875q0 1.390625 -0.625 2.421875q-0.609375 1.03125 -1.8125 1.578125q-1.203125 0.53125 -2.875 0.53125l0.21875 -0.296875l0.453125 0q0.890625 0 1.546875 0.453125q0.65625 0.453125 1.203125 1.453125l2.796875 5.203125l-2.03125 0l-2.765625 -5.125q-0.34375 -0.625 -0.765625 -0.984375q-0.40625 -0.375 -0.953125 -0.5q-0.53125 -0.140625 -1.265625 -0.140625l-2.90625 0l0 6.75l-1.859375 0zm1.859375 -8.21875l4.1875 0q1.859375 0 2.8125 -0.78125q0.953125 -0.78125 0.953125 -2.34375q0 -1.53125 -0.953125 -2.3125q-0.953125 -0.78125 -2.8125 -0.78125l-4.1875 0l0 6.21875zm11.517059 8.21875l7.03125 -15.96875l1.59375 0l7.046875 15.96875l-1.921875 0l-1.96875 -4.546875l0.90625 0.46875l-9.75 0l0.921875 -0.46875l-1.9375 4.546875l-1.921875 0zm7.8125 -13.796875l-3.65625 8.59375l-0.53125 -0.4375l8.375 0l-0.5 0.4375l-3.640625 -8.59375l-0.046875 0zm12.434326 13.796875l0 -14.359375l-5.796875 0l0 -1.609375l13.484375 0l0 1.609375l-5.8125 0l0 14.359375l-1.875 0zm9.717163 0l0 -15.96875l10.078125 0l0 1.5625l-8.265625 0l0 5.53125l7.796875 0l0 1.5625l-7.796875 0l0 5.75l8.265625 0l0 1.5625l-10.078125 0zm13.208557 0l0 -15.96875l5.390625 0q2.609375 0 4.40625 0.921875q1.8125 0.90625 2.75 2.6875q0.9375 1.78125 0.9375 4.359375q0 2.578125 -0.9375 4.375q-0.9375 1.796875 -2.75 2.71875q-1.796875 0.90625 -4.40625 0.90625l-5.390625 0zm1.859375 -1.578125l3.40625 0q3.140625 0 4.6875 -1.609375q1.5625 -1.609375 1.5625 -4.8125q0 -3.1875 -1.5625 -4.78125q-1.5625 -1.609375 -4.6875 -1.609375l-3.40625 0l0 12.8125z" fill-rule="nonzero"/><path fill="#014063" d="m8.00128 95.66995l0 0c0 -48.418446 39.250908 -87.66935 87.66935 -87.66935l0 0c23.251358 0 45.550407 9.236567 61.9916 25.677757c16.441193 16.441193 25.67775 38.740234 25.67775 61.991592l0 0c0 48.41844 -39.2509 87.66936 -87.66935 87.66936l0 0c-48.418446 0 -87.66935 -39.250916 -87.66935 -87.66936z" fill-rule="evenodd"/><path stroke="#8fe3e8" stroke-width="3.0" stroke-linejoin="round" stroke-linecap="butt" d="m8.00128 95.66995l0 0c0 -48.418446 39.250908 -87.66935 87.66935 -87.66935l0 0c23.251358 0 45.550407 9.236567 61.9916 25.677757c16.441193 16.441193 25.67775 38.740234 25.67775 61.991592l0 0c0 48.41844 -39.2509 87.66936 -87.66935 87.66936l0 0c-48.418446 0 -87.66935 -39.250916 -87.66935 -87.66936z" fill-rule="evenodd"/><path fill="#8fe3e8" d="m53.125717 106.329956l0 -20.671875l3.140625 0l7.796875 14.390625l-0.9375 0l7.78125 -14.390625l3.078125 0l0 20.671875l-3.40625 0l0 -15.109375l0.640625 0l-6.5625 11.96875l-2.203125 0l-6.625 -12.0l0.703125 0l0 15.140625l-3.40625 0zm29.769302 0.296875q-1.546875 0 -2.765625 -0.59375q-1.21875 -0.609375 -1.90625 -1.640625q-0.6875 -1.03125 -0.6875 -2.3125q0 -1.59375 0.8125 -2.515625q0.828125 -0.921875 2.671875 -1.328125q1.84375 -0.40625 4.953125 -0.40625l1.46875 0l0 2.109375l-1.4375 0q-1.375 0 -2.3125 0.109375q-0.9375 0.09375 -1.515625 0.3125q-0.5625 0.21875 -0.8125 0.609375q-0.25 0.375 -0.25 0.9375q0 0.96875 0.671875 1.578125q0.671875 0.609375 1.875 0.609375q0.96875 0 1.71875 -0.453125q0.75 -0.453125 1.1875 -1.234375q0.4375 -0.796875 0.4375 -1.828125l0 -3.375q0 -1.46875 -0.65625 -2.109375q-0.640625 -0.640625 -2.15625 -0.640625q-1.203125 0 -2.46875 0.375q-1.265625 0.359375 -2.546875 1.125l-1.0625 -2.5q0.765625 -0.53125 1.796875 -0.921875q1.046875 -0.390625 2.203125 -0.609375q1.171875 -0.234375 2.1875 -0.234375q2.109375 0 3.46875 0.65625q1.375 0.640625 2.046875 1.953125q0.671875 1.296875 0.671875 3.34375l0 8.6875l-3.421875 0l0 -3.046875l0.234375 0q-0.203125 1.015625 -0.8125 1.765625q-0.59375 0.75 -1.515625 1.171875q-0.90625 0.40625 -2.078125 0.40625zm11.32373 -0.296875l0 -14.34375l3.578125 0l0 3.46875l-0.296875 0q0.421875 -1.765625 1.609375 -2.6875q1.203125 -0.921875 3.203125 -1.078125l1.109375 -0.078125l0.234375 3.109375l-2.109375 0.203125q-1.78125 0.171875 -2.703125 1.09375q-0.90625 0.921875 -0.90625 2.59375l0 7.71875l-3.71875 0zm18.880447 0.296875q-2.859375 0 -4.28125 -1.4375q-1.40625 -1.4375 -1.40625 -4.203125l0 -6.234375l-2.75 0l0 -2.765625l2.75 0l0 -4.28125l3.671875 0l0 4.28125l4.34375 0l0 2.765625l-4.34375 0l0 6.03125q0 1.40625 0.609375 2.109375q0.625 0.703125 2.0 0.703125q0.40625 0 0.84375 -0.09375q0.453125 -0.109375 0.921875 -0.21875l0.546875 2.6875q-0.53125 0.296875 -1.34375 0.46875q-0.796875 0.1875 -1.5625 0.1875zm4.4651184 -17.71875l0 -3.578125l4.109375 0l0 3.578125l-4.109375 0zm0.234375 17.421875l0 -14.34375l3.671875 0l0 14.34375l-3.671875 0zm7.478668 0l0 -14.34375l3.578125 0l0 2.875l-0.328125 0q0.65625 -1.546875 2.015625 -2.359375q1.359375 -0.8125 3.09375 -0.8125q1.734375 0 2.84375 0.65625q1.109375 0.640625 1.671875 1.953125q0.5625 1.296875 0.5625 3.296875l0 8.734375l-3.671875 0l0 -8.5625q0 -1.109375 -0.28125 -1.8125q-0.28125 -0.71875 -0.859375 -1.046875q-0.5625 -0.34375 -1.4375 -0.34375q-1.0625 0 -1.859375 0.46875q-0.78125 0.453125 -1.21875 1.28125q-0.4375 0.828125 -0.4375 1.953125l0 8.0625l-3.671875 0z" fill-rule="nonzero"/><path fill="#014063" d="m127.86294 29.838509l0 0c0 -2.7306385 2.2136154 -4.9442577 4.944252 -4.9442577l106.91559 0c1.3112946 0 2.5688934 0.5209122 3.4961243 1.4481392c0.9272156 0.9272289 1.4481354 2.1848202 1.4481354 3.4961185l0 19.77644c0 2.7306366 -2.213623 4.944256 -4.9442596 4.944256l-106.91559 0c-2.7306366 0 -4.944252 -2.2136192 -4.944252 -4.944256z" fill-rule="evenodd"/><path stroke="#8fe3e8" stroke-width="2.0" stroke-linejoin="round" stroke-linecap="butt" d="m127.86294 29.838509l0 0c0 -2.7306385 2.2136154 -4.9442577 4.944252 -4.9442577l106.91559 0c1.3112946 0 2.5688934 0.5209122 3.4961243 1.4481392c0.9272156 0.9272289 1.4481354 2.1848202 1.4481354 3.4961185l0 19.77644c0 2.7306366 -2.213623 4.944256 -4.9442596 4.944256l-106.91559 0c-2.7306366 0 -4.944252 -2.2136192 -4.944252 -4.944256z" fill-rule="evenodd"/><path fill="#8fe3e8" d="m170.75293 48.189854q-3.125 0 -4.765625 -1.65625q-1.640625 -1.671875 -1.640625 -4.875l0 -9.640625l1.859375 0l0 9.5625q0 2.484375 1.15625 3.71875q1.15625 1.234375 3.390625 1.234375q2.25 0 3.375 -1.234375q1.140625 -1.234375 1.140625 -3.71875l0 -9.5625l1.859375 0l0 9.640625q0 3.203125 -1.625 4.875q-1.625 1.65625 -4.75 1.65625zm13.665588 0q-0.859375 0 -1.671875 -0.171875q-0.796875 -0.171875 -1.5 -0.46875q-0.6875 -0.3125 -1.171875 -0.734375l0.578125 -1.296875q0.546875 0.4375 1.171875 0.71875q0.640625 0.28125 1.296875 0.421875q0.65625 0.125 1.34375 0.125q1.296875 0 1.953125 -0.46875q0.65625 -0.484375 0.65625 -1.296875q0 -0.640625 -0.4375 -1.0q-0.421875 -0.375 -1.359375 -0.578125l-2.0625 -0.453125q-1.421875 -0.296875 -2.125 -1.015625q-0.6875 -0.734375 -0.6875 -1.890625q0 -1.015625 0.53125 -1.75q0.53125 -0.75 1.5 -1.15625q0.984375 -0.40625 2.28125 -0.40625q0.765625 0 1.46875 0.171875q0.703125 0.15625 1.328125 0.46875q0.625 0.296875 1.078125 0.75l-0.609375 1.28125q-0.4375 -0.40625 -0.984375 -0.6875q-0.546875 -0.28125 -1.125 -0.421875q-0.5625 -0.15625 -1.15625 -0.15625q-1.265625 0 -1.921875 0.5q-0.65625 0.5 -0.65625 1.3125q0 0.640625 0.40625 1.046875q0.40625 0.40625 1.265625 0.59375l2.0625 0.421875q1.46875 0.3125 2.203125 1.015625q0.734375 0.6875 0.734375 1.859375q0 1.0 -0.546875 1.734375q-0.53125 0.734375 -1.515625 1.140625q-0.984375 0.390625 -2.328125 0.390625zm12.147629 0q-1.75 0 -3.015625 -0.6875q-1.25 -0.6875 -1.9375 -1.953125q-0.6875 -1.28125 -0.6875 -3.046875q0 -1.71875 0.671875 -3.0q0.6875 -1.28125 1.875 -2.0q1.1875 -0.734375 2.75 -0.734375q1.5 0 2.5625 0.65625q1.0625 0.65625 1.640625 1.859375q0.578125 1.203125 0.578125 2.875l0 0.703125l-8.671875 0l0 -1.203125l7.453125 0l-0.375 0.296875q0 -1.8125 -0.8125 -2.8125q-0.796875 -1.015625 -2.328125 -1.015625q-1.15625 0 -1.96875 0.53125q-0.796875 0.53125 -1.203125 1.484375q-0.40625 0.9375 -0.40625 2.1875l0 0.125q0 1.390625 0.4375 2.34375q0.4375 0.9375 1.3125 1.4375q0.890625 0.484375 2.125 0.484375q0.96875 0 1.890625 -0.296875q0.921875 -0.3125 1.734375 -1.015625l0.625 1.28125q-0.75 0.6875 -1.90625 1.09375q-1.140625 0.40625 -2.34375 0.40625zm7.0843506 -0.203125l0 -11.015625l1.796875 0l0 2.609375l-0.234375 0q0.390625 -1.328125 1.34375 -2.015625q0.953125 -0.703125 2.515625 -0.8125l0.65625 -0.078125l0.125 1.59375l-1.140625 0.140625q-1.546875 0.125 -2.375 0.984375q-0.828125 0.84375 -0.828125 2.3125l0 6.28125l-1.859375 0z" fill-rule="nonzero"/><path fill="#000000" fill-opacity="0.0" d="m534.228 301.20984l0 -117.85828" fill-rule="evenodd"/><path stroke="#8fe3e8" stroke-width="3.0" stroke-linejoin="round" stroke-linecap="butt" d="m534.228 301.20984l0 -99.85828" fill-rule="evenodd"/><path fill="#8fe3e8" stroke="#8fe3e8" stroke-width="3.0" stroke-linecap="butt" d="m539.1832 201.35156l-4.9552 -13.614288l-4.9552 13.614288z" fill-rule="evenodd"/><path fill="#014063" d="m455.2362 229.59816l0 0c0 -2.7310333 2.2139587 -4.944977 4.9450073 -4.944977l143.81079 0c1.3115234 0 2.569275 0.52098083 3.496643 1.448349c0.92736816 0.9273529 1.4483643 2.185135 1.4483643 3.4966278l0 19.779327c0 2.7310333 -2.2139282 4.944977 -4.9450073 4.944977l-143.81079 0l0 0c-2.7310486 0 -4.9450073 -2.2139435 -4.9450073 -4.944977z" fill-rule="evenodd"/><path stroke="#8fe3e8" stroke-width="2.0" stroke-linejoin="round" stroke-linecap="butt" d="m455.2362 229.59816l0 0c0 -2.7310333 2.2139587 -4.944977 4.9450073 -4.944977l143.81079 0c1.3115234 0 2.569275 0.52098083 3.496643 1.448349c0.92736816 0.9273529 1.4483643 2.185135 1.4483643 3.4966278l0 19.779327c0 2.7310333 -2.2139282 4.944977 -4.9450073 4.944977l-143.81079 0l0 0c-2.7310486 0 -4.9450073 -2.2139435 -4.9450073 -4.944977z" fill-rule="evenodd"/><path fill="#8fe3e8" d="m478.52338 247.74782l7.03125 -15.96875l1.59375 0l7.046875 15.96875l-1.921875 0l-1.96875 -4.546875l0.90625 0.46875l-9.75 0l0.921875 -0.46875l-1.9375 4.546875l-1.921875 0zm7.8125 -13.796875l-3.65625 8.59375l-0.53125 -0.4375l8.375 0l-0.5 0.4375l-3.640625 -8.59375l-0.046875 0zm16.869354 14.0q-2.34375 0 -4.03125 -1.0q-1.671875 -1.0 -2.578125 -2.828125q-0.890625 -1.828125 -0.890625 -4.375q0 -2.53125 0.890625 -4.359375q0.90625 -1.828125 2.578125 -2.8125q1.6875 -1.0 4.03125 -1.0q1.65625 0 3.0625 0.515625q1.40625 0.515625 2.359375 1.515625l-0.71875 1.515625q-1.046875 -0.96875 -2.171875 -1.40625q-1.125 -0.453125 -2.484375 -0.453125q-2.6875 0 -4.125 1.703125q-1.421875 1.703125 -1.421875 4.78125q0 3.078125 1.421875 4.796875q1.4375 1.703125 4.125 1.703125q1.359375 0 2.484375 -0.4375q1.125 -0.4375 2.171875 -1.421875l0.71875 1.53125q-0.953125 0.96875 -2.359375 1.5q-1.40625 0.53125 -3.0625 0.53125zm12.036591 -0.203125l0 -14.359375l-5.796875 0l0 -1.609375l13.484375 0l0 1.609375l-5.8125 0l0 14.359375l-1.875 0zm9.717163 0l0 -15.96875l10.078125 0l0 1.5625l-8.265625 0l0 5.53125l7.796875 0l0 1.5625l-7.796875 0l0 5.75l8.265625 0l0 1.5625l-10.078125 0zm13.208557 0l0 -15.96875l5.390625 0q2.609375 0 4.40625 0.921875q1.8125 0.90625 2.75 2.6875q0.9375 1.78125 0.9375 4.359375q0 2.578125 -0.9375 4.375q-0.9375 1.796875 -2.75 2.71875q-1.796875 0.90625 -4.40625 0.90625l-5.390625 0zm1.859375 -1.578125l3.40625 0q3.140625 0 4.6875 -1.609375q1.5625 -1.609375 1.5625 -4.8125q0 -3.1875 -1.5625 -4.78125q-1.5625 -1.609375 -4.6875 -1.609375l-3.40625 0l0 12.8125zm12.619934 2.78125l0 -1.203125l10.421875 0l0 1.203125l-10.421875 0zm12.843689 -1.203125l0 -15.96875l1.859375 0l0 15.96875l-1.859375 0zm5.799988 0l0 -15.96875l1.453125 0l10.171875 13.5625l-0.546875 0l0 -13.5625l1.71875 0l0 15.96875l-1.40625 0l-10.171875 -13.578125l0.53125 0l0 13.578125l-1.75 0z" fill-rule="nonzero"/><path fill="#014063" d="m446.55865 388.87918l0 0c0 -48.418457 39.250885 -87.66934 87.66937 -87.66934l0 0c23.251343 0 45.550354 9.236572 61.991577 25.677765c16.441162 16.441193 25.677734 38.740234 25.677734 61.991577l0 0c0 48.418457 -39.250916 87.66934 -87.66931 87.66934l0 0c-48.418488 0 -87.66937 -39.250885 -87.66937 -87.66934z" fill-rule="evenodd"/><path stroke="#8fe3e8" stroke-width="3.0" stroke-linejoin="round" stroke-linecap="butt" d="m446.55865 388.87918l0 0c0 -48.418457 39.250885 -87.66934 87.66937 -87.66934l0 0c23.251343 0 45.550354 9.236572 61.991577 25.677765c16.441162 16.441193 25.677734 38.740234 25.677734 61.991577l0 0c0 48.418457 -39.250916 87.66934 -87.66931 87.66934l0 0c-48.418488 0 -87.66937 -39.250885 -87.66937 -87.66934z" fill-rule="evenodd"/><path fill="#8fe3e8" d="m512.20874 382.03918l0 -17.53125l-7.109375 0l0 -3.140625l17.953125 0l0 3.140625l-7.09375 0l0 17.53125l-3.75 0zm17.127869 0.296875q-2.234375 0 -3.875 -0.90625q-1.640625 -0.921875 -2.5625 -2.59375q-0.90625 -1.6875 -0.90625 -3.984375q0 -2.28125 0.90625 -3.953125q0.921875 -1.671875 2.5625 -2.578125q1.640625 -0.921875 3.875 -0.921875q2.21875 0 3.859375 0.921875q1.640625 0.90625 2.546875 2.578125q0.921875 1.671875 0.921875 3.953125q0 2.296875 -0.921875 3.984375q-0.90625 1.671875 -2.546875 2.59375q-1.640625 0.90625 -3.859375 0.90625zm0 -2.796875q1.640625 0 2.625 -1.1875q1.0 -1.1875 1.0 -3.53125q0 -2.3125 -1.0 -3.46875q-0.984375 -1.15625 -2.625 -1.15625q-1.65625 0 -2.65625 1.15625q-0.984375 1.15625 -0.984375 3.46875q0 2.34375 0.984375 3.53125q1.0 1.1875 2.65625 1.1875zm10.40863 2.5l0 -14.34375l3.578125 0l0 2.875l-0.328125 0q0.390625 -1.0 1.0625 -1.703125q0.671875 -0.703125 1.609375 -1.078125q0.9375 -0.390625 2.078125 -0.390625q1.734375 0 2.84375 0.828125q1.125 0.8125 1.5625 2.515625l-0.421875 0q0.59375 -1.546875 1.9375 -2.4375q1.359375 -0.90625 3.109375 -0.90625q1.640625 0 2.703125 0.65625q1.078125 0.640625 1.609375 1.953125q0.53125 1.296875 0.53125 3.296875l0 8.734375l-3.671875 0l0 -8.59375q0 -1.640625 -0.546875 -2.40625q-0.53125 -0.765625 -1.828125 -0.765625q-0.9375 0 -1.640625 0.46875q-0.703125 0.453125 -1.078125 1.296875q-0.359375 0.84375 -0.359375 2.046875l0 7.953125l-3.65625 0l0 -8.59375q0 -1.640625 -0.546875 -2.40625q-0.546875 -0.765625 -1.8125 -0.765625q-0.953125 0 -1.65625 0.46875q-0.6875 0.453125 -1.0625 1.296875q-0.359375 0.84375 -0.359375 2.046875l0 7.953125l-3.65625 0z" fill-rule="nonzero"/><path fill="#8fe3e8" d="m493.65994 417.03918l0 -20.671875l3.75 0l0 8.625l10.640625 0l0 -8.625l3.75 0l0 20.671875l-3.75 0l0 -8.921875l-10.640625 0l0 8.921875l-3.75 0zm27.029999 0.296875q-1.546875 0 -2.765625 -0.59375q-1.21875 -0.609375 -1.90625 -1.640625q-0.6875 -1.03125 -0.6875 -2.3125q0 -1.59375 0.8125 -2.515625q0.828125 -0.921875 2.671875 -1.328125q1.84375 -0.40625 4.953125 -0.40625l1.46875 0l0 2.109375l-1.4375 0q-1.375 0 -2.3125 0.109375q-0.9375 0.09375 -1.515625 0.3125q-0.5625 0.21875 -0.8125 0.609375q-0.25 0.375 -0.25 0.9375q0 0.96875 0.671875 1.578125q0.671875 0.609375 1.875 0.609375q0.96875 0 1.71875 -0.453125q0.75 -0.453125 1.1875 -1.234375q0.4375 -0.796875 0.4375 -1.828125l0 -3.375q0 -1.46875 -0.65625 -2.109375q-0.640625 -0.640625 -2.15625 -0.640625q-1.203125 0 -2.46875 0.375q-1.265625 0.359375 -2.546875 1.125l-1.0625 -2.5q0.765625 -0.53125 1.796875 -0.921875q1.046875 -0.390625 2.203125 -0.609375q1.171875 -0.234375 2.1875 -0.234375q2.109375 0 3.46875 0.65625q1.375 0.640625 2.046875 1.953125q0.671875 1.296875 0.671875 3.34375l0 8.6875l-3.421875 0l0 -3.046875l0.234375 0q-0.203125 1.015625 -0.8125 1.765625q-0.59375 0.75 -1.515625 1.171875q-0.90625 0.40625 -2.078125 0.40625zm11.32373 -0.296875l0 -14.34375l3.578125 0l0 2.875l-0.328125 0q0.65625 -1.546875 2.015625 -2.359375q1.359375 -0.8125 3.09375 -0.8125q1.734375 0 2.84375 0.65625q1.109375 0.640625 1.671875 1.953125q0.5625 1.296875 0.5625 3.296875l0 8.734375l-3.671875 0l0 -8.5625q0 -1.109375 -0.28125 -1.8125q-0.28125 -0.71875 -0.859375 -1.046875q-0.5625 -0.34375 -1.4375 -0.34375q-1.0625 0 -1.859375 0.46875q-0.78125 0.453125 -1.21875 1.28125q-0.4375 0.828125 -0.4375 1.953125l0 8.0625l-3.671875 0zm17.156921 0l0 -20.671875l3.671875 0l0 12.4375l0.046875 0l5.78125 -6.109375l4.4375 0l-7.21875 7.625l0 -1.515625l7.625 8.234375l-4.484375 0l-6.140625 -6.390625l-0.046875 0l0 6.390625l-3.671875 0zm20.73523 0.296875q-1.203125 0 -2.328125 -0.21875q-1.125 -0.203125 -2.078125 -0.5625q-0.9375 -0.359375 -1.640625 -0.921875l0.9375 -2.40625q0.734375 0.46875 1.578125 0.828125q0.859375 0.34375 1.765625 0.53125q0.921875 0.171875 1.796875 0.171875q1.40625 0 2.09375 -0.484375q0.6875 -0.484375 0.6875 -1.28125q0 -0.671875 -0.453125 -1.03125q-0.453125 -0.375 -1.359375 -0.546875l-2.9375 -0.5625q-1.8125 -0.359375 -2.765625 -1.328125q-0.953125 -0.984375 -0.953125 -2.546875q0 -1.40625 0.765625 -2.421875q0.78125 -1.03125 2.15625 -1.59375q1.390625 -0.5625 3.171875 -0.5625q1.03125 0 2.0 0.203125q0.96875 0.1875 1.828125 0.5625q0.859375 0.359375 1.515625 0.9375l-1.0 2.40625q-0.5625 -0.46875 -1.296875 -0.796875q-0.734375 -0.34375 -1.515625 -0.53125q-0.765625 -0.1875 -1.5 -0.1875q-1.4375 0 -2.125 0.5q-0.6875 0.484375 -0.6875 1.3125q0 0.609375 0.40625 1.03125q0.40625 0.40625 1.265625 0.546875l2.9375 0.5625q1.90625 0.34375 2.875 1.296875q0.984375 0.9375 0.984375 2.515625q0 1.4375 -0.765625 2.46875q-0.75 1.015625 -2.140625 1.5625q-1.375 0.546875 -3.21875 0.546875z" fill-rule="nonzero"/><path fill="#014063" d="m566.4229 326.60022l0 0c0 -2.7306213 2.213623 -4.9442444 4.944275 -4.9442444l106.91559 0c1.3112793 0 2.5689087 0.52090454 3.4960938 1.4481506c0.9272461 0.9272156 1.4481812 2.1848145 1.4481812 3.4960938l0 19.776459c0 2.7306213 -2.213623 4.9442444 -4.944275 4.9442444l-106.91559 0c-2.7306519 0 -4.944275 -2.213623 -4.944275 -4.9442444z" fill-rule="evenodd"/><path stroke="#8fe3e8" stroke-width="2.0" stroke-linejoin="round" stroke-linecap="butt" d="m566.4229 326.60022l0 0c0 -2.7306213 2.213623 -4.9442444 4.944275 -4.9442444l106.91559 0c1.3112793 0 2.5689087 0.52090454 3.4960938 1.4481506c0.9272461 0.9272156 1.4481812 2.1848145 1.4481812 3.4960938l0 19.776459c0 2.7306213 -2.213623 4.9442444 -4.944275 4.9442444l-106.91559 0c-2.7306519 0 -4.944275 -2.213623 -4.944275 -4.9442444z" fill-rule="evenodd"/><path fill="#8fe3e8" d="m591.6654 344.74844l0 -15.96875l6.328125 0q1.71875 0 2.90625 0.5625q1.1875 0.546875 1.796875 1.625q0.609375 1.078125 0.609375 2.609375q0 1.5 -0.609375 2.59375q-0.609375 1.078125 -1.796875 1.65625q-1.1875 0.5625 -2.90625 0.5625l-4.46875 0l0 6.359375l-1.859375 0zm1.859375 -7.921875l4.234375 0q1.84375 0 2.78125 -0.828125q0.9375 -0.828125 0.9375 -2.421875q0 -1.609375 -0.9375 -2.4375q-0.9375 -0.828125 -2.78125 -0.828125l-4.234375 0l0 6.515625zm16.702087 8.125q-1.75 0 -3.015625 -0.6875q-1.25 -0.6875 -1.9375 -1.953125q-0.6875 -1.28125 -0.6875 -3.046875q0 -1.71875 0.671875 -3.0q0.6875 -1.28125 1.875 -2.0q1.1875 -0.734375 2.75 -0.734375q1.5 0 2.5625 0.65625q1.0625 0.65625 1.640625 1.859375q0.578125 1.203125 0.578125 2.875l0 0.703125l-8.671875 0l0 -1.203125l7.453125 0l-0.375 0.296875q0 -1.8125 -0.8125 -2.8125q-0.796875 -1.015625 -2.328125 -1.015625q-1.15625 0 -1.96875 0.53125q-0.796875 0.53125 -1.203125 1.484375q-0.40625 0.9375 -0.40625 2.1875l0 0.125q0 1.390625 0.4375 2.34375q0.4375 0.9375 1.3125 1.4375q0.890625 0.484375 2.125 0.484375q0.96875 0 1.890625 -0.296875q0.921875 -0.3125 1.734375 -1.015625l0.625 1.28125q-0.75 0.6875 -1.90625 1.09375q-1.140625 0.40625 -2.34375 0.40625zm7.0843506 -0.203125l0 -11.015625l1.796875 0l0 2.609375l-0.234375 0q0.390625 -1.328125 1.34375 -2.015625q0.953125 -0.703125 2.515625 -0.8125l0.65625 -0.078125l0.125 1.59375l-1.140625 0.140625q-1.546875 0.125 -2.375 0.984375q-0.828125 0.84375 -0.828125 2.3125l0 6.28125l-1.859375 0zm11.71637 0.203125q-0.859375 0 -1.671875 -0.171875q-0.796875 -0.171875 -1.5 -0.46875q-0.6875 -0.3125 -1.171875 -0.734375l0.578125 -1.296875q0.546875 0.4375 1.171875 0.71875q0.640625 0.28125 1.296875 0.421875q0.65625 0.125 1.34375 0.125q1.296875 0 1.953125 -0.46875q0.65625 -0.484375 0.65625 -1.296875q0 -0.640625 -0.4375 -1.0q-0.421875 -0.375 -1.359375 -0.578125l-2.0625 -0.453125q-1.421875 -0.296875 -2.125 -1.015625q-0.6875 -0.734375 -0.6875 -1.890625q0 -1.015625 0.53125 -1.75q0.53125 -0.75 1.5 -1.15625q0.984375 -0.40625 2.28125 -0.40625q0.765625 0 1.46875 0.171875q0.703125 0.15625 1.328125 0.46875q0.625 0.296875 1.078125 0.75l-0.609375 1.28125q-0.4375 -0.40625 -0.984375 -0.6875q-0.546875 -0.28125 -1.125 -0.421875q-0.5625 -0.15625 -1.15625 -0.15625q-1.265625 0 -1.921875 0.5q-0.65625 0.5 -0.65625 1.3125q0 0.640625 0.40625 1.046875q0.40625 0.40625 1.265625 0.59375l2.0625 0.421875q1.46875 0.3125 2.203125 1.015625q0.734375 0.6875 0.734375 1.859375q0 1.0 -0.546875 1.734375q-0.53125 0.734375 -1.515625 1.140625q-0.984375 0.390625 -2.328125 0.390625zm11.756958 0q-1.609375 0 -2.796875 -0.703125q-1.171875 -0.703125 -1.8125 -1.984375q-0.640625 -1.28125 -0.640625 -3.015625q0 -1.75 0.640625 -3.03125q0.640625 -1.28125 1.8125 -1.984375q1.1875 -0.703125 2.796875 -0.703125q1.609375 0 2.78125 0.703125q1.1875 0.703125 1.828125 1.984375q0.640625 1.28125 0.640625 3.03125q0 1.734375 -0.640625 3.015625q-0.640625 1.28125 -1.828125 1.984375q-1.171875 0.703125 -2.78125 0.703125zm0 -1.46875q1.5625 0 2.484375 -1.09375q0.921875 -1.109375 0.921875 -3.171875q0 -2.03125 -0.921875 -3.109375q-0.921875 -1.09375 -2.484375 -1.09375q-1.546875 0 -2.46875 1.09375q-0.921875 1.078125 -0.921875 3.109375q0 2.0625 0.921875 3.171875q0.921875 1.09375 2.46875 1.09375zm8.018738 1.265625l0 -11.015625l1.796875 0l0 2.453125l-0.25 0q0.46875 -1.3125 1.546875 -1.984375q1.078125 -0.671875 2.484375 -0.671875q1.3125 0 2.1875 0.46875q0.875 0.46875 1.296875 1.4375q0.4375 0.96875 0.4375 2.453125l0 6.859375l-1.84375 0l0 -6.75q0 -1.015625 -0.265625 -1.671875q-0.25 -0.65625 -0.8125 -0.96875q-0.546875 -0.328125 -1.4375 -0.328125q-0.984375 0 -1.734375 0.4375q-0.75 0.421875 -1.15625 1.203125q-0.40625 0.765625 -0.40625 1.796875l0 6.28125l-1.84375 0z" fill-rule="nonzero"/><path fill="#000000" fill-opacity="0.0" d="m157.66223 157.66154l314.58267 169.22835" fill-rule="evenodd"/><path stroke="#8fe3e8" stroke-width="3.0" stroke-linejoin="round" stroke-linecap="butt" d="m157.66223 157.66154l298.73077 160.70088" fill-rule="evenodd"/><path fill="#8fe3e8" stroke="#8fe3e8" stroke-width="3.0" stroke-linecap="butt" d="m454.0455 322.7263l14.337097 2.0858765l-9.642059 -10.813568z" fill-rule="evenodd"/><path fill="#014063" d="m157.66176 215.58015l0 0c0 -2.7310333 2.2139435 -4.944977 4.944992 -4.944977l253.32263 0c1.3114929 0 2.569275 0.52098083 3.496643 1.448349c0.92733765 0.9273529 1.4483337 2.185135 1.4483337 3.4966278l0 19.779327c0 2.7310333 -2.2139282 4.944977 -4.944977 4.944977l-253.32263 0c-2.7310486 0 -4.944992 -2.2139435 -4.944992 -4.944977z" fill-rule="evenodd"/><path stroke="#8fe3e8" stroke-width="2.0" stroke-linejoin="round" stroke-linecap="butt" d="m157.66176 215.58015l0 0c0 -2.7310333 2.2139435 -4.944977 4.944992 -4.944977l253.32263 0c1.3114929 0 2.569275 0.52098083 3.496643 1.448349c0.92733765 0.9273529 1.4483337 2.185135 1.4483337 3.4966278l0 19.779327c0 2.7310333 -2.2139282 4.944977 -4.944977 4.944977l-253.32263 0c-2.7310486 0 -4.944992 -2.2139435 -4.944992 -4.944977z" fill-rule="evenodd"/><path fill="#8fe3e8" d="m210.8535 233.72981l0 -15.96875l6.328125 0q2.5625 0 3.9375 1.203125q1.375 1.1875 1.375 3.421875q0 1.390625 -0.625 2.421875q-0.609375 1.03125 -1.8125 1.578125q-1.203125 0.53125 -2.875 0.53125l0.21875 -0.296875l0.453125 0q0.890625 0 1.546875 0.453125q0.65625 0.453125 1.203125 1.453125l2.796875 5.203125l-2.03125 0l-2.765625 -5.125q-0.34375 -0.625 -0.765625 -0.984375q-0.40625 -0.375 -0.953125 -0.5q-0.53125 -0.140625 -1.265625 -0.140625l-2.90625 0l0 6.75l-1.859375 0zm1.859375 -8.21875l4.1875 0q1.859375 0 2.8125 -0.78125q0.953125 -0.78125 0.953125 -2.34375q0 -1.53125 -0.953125 -2.3125q-0.953125 -0.78125 -2.8125 -0.78125l-4.1875 0l0 6.21875zm11.517044 8.21875l7.03125 -15.96875l1.59375 0l7.046875 15.96875l-1.921875 0l-1.96875 -4.546875l0.90625 0.46875l-9.75 0l0.921875 -0.46875l-1.9375 4.546875l-1.921875 0zm7.8125 -13.796875l-3.65625 8.59375l-0.53125 -0.4375l8.375 0l-0.5 0.4375l-3.640625 -8.59375l-0.046875 0zm12.434326 13.796875l0 -14.359375l-5.796875 0l0 -1.609375l13.484375 0l0 1.609375l-5.8125 0l0 14.359375l-1.875 0zm9.717163 0l0 -15.96875l10.078125 0l0 1.5625l-8.265625 0l0 5.53125l7.796875 0l0 1.5625l-7.796875 0l0 5.75l8.265625 0l0 1.5625l-10.078125 0zm13.208557 0l0 -15.96875l5.390625 0q2.609375 0 4.40625 0.921875q1.8125 0.90625 2.75 2.6875q0.9375 1.78125 0.9375 4.359375q0 2.578125 -0.9375 4.375q-0.9375 1.796875 -2.75 2.71875q-1.796875 0.90625 -4.40625 0.90625l-5.390625 0zm1.859375 -1.578125l3.40625 0q3.140625 0 4.6875 -1.609375q1.5625 -1.609375 1.5625 -4.8125q0 -3.1875 -1.5625 -4.78125q-1.5625 -1.609375 -4.6875 -1.609375l-3.40625 0l0 12.8125zm12.619904 2.78125l0 -1.203125l10.421875 0l0 1.203125l-10.421875 0zm11.765808 -1.203125l7.03125 -15.96875l1.59375 0l7.046875 15.96875l-1.921875 0l-1.96875 -4.546875l0.90625 0.46875l-9.75 0l0.921875 -0.46875l-1.9375 4.546875l-1.921875 0zm7.8125 -13.796875l-3.65625 8.59375l-0.53125 -0.4375l8.375 0l-0.5 0.4375l-3.640625 -8.59375l-0.046875 0zm16.869385 14.0q-2.34375 0 -4.03125 -1.0q-1.671875 -1.0 -2.578125 -2.828125q-0.890625 -1.828125 -0.890625 -4.375q0 -2.53125 0.890625 -4.359375q0.90625 -1.828125 2.578125 -2.8125q1.6875 -1.0 4.03125 -1.0q1.65625 0 3.0625 0.515625q1.40625 0.515625 2.359375 1.515625l-0.71875 1.515625q-1.046875 -0.96875 -2.171875 -1.40625q-1.125 -0.453125 -2.484375 -0.453125q-2.6875 0 -4.125 1.703125q-1.421875 1.703125 -1.421875 4.78125q0 3.078125 1.421875 4.796875q1.4375 1.703125 4.125 1.703125q1.359375 0 2.484375 -0.4375q1.125 -0.4375 2.171875 -1.421875l0.71875 1.53125q-0.953125 0.96875 -2.359375 1.5q-1.40625 0.53125 -3.0625 0.53125zm12.03656 -0.203125l0 -14.359375l-5.796875 0l0 -1.609375l13.484375 0l0 1.609375l-5.8125 0l0 14.359375l-1.875 0zm15.422974 0.203125q-1.65625 0 -3.015625 -0.578125q-1.359375 -0.578125 -2.3125 -1.640625q-0.9375 -1.0625 -1.453125 -2.578125q-0.515625 -1.515625 -0.515625 -3.40625q0 -1.90625 0.515625 -3.40625q0.515625 -1.5 1.453125 -2.546875q0.953125 -1.0625 2.296875 -1.640625q1.359375 -0.578125 3.03125 -0.578125q1.703125 0 3.046875 0.5625q1.359375 0.5625 2.3125 1.640625q0.96875 1.0625 1.46875 2.5625q0.515625 1.5 0.515625 3.390625q0 1.90625 -0.53125 3.421875q-0.515625 1.515625 -1.46875 2.578125q-0.9375 1.0625 -2.296875 1.640625q-1.34375 0.578125 -3.046875 0.578125zm0 -1.65625q1.734375 0 2.921875 -0.765625q1.1875 -0.765625 1.8125 -2.234375q0.640625 -1.484375 0.640625 -3.546875q0 -2.078125 -0.640625 -3.53125q-0.625 -1.453125 -1.8125 -2.21875q-1.1875 -0.765625 -2.921875 -0.765625q-1.671875 0 -2.859375 0.765625q-1.1875 0.765625 -1.828125 2.234375q-0.625 1.453125 -0.625 3.515625q0 2.0625 0.625 3.53125q0.640625 1.453125 1.828125 2.234375q1.1875 0.78125 2.859375 0.78125zm10.674164 1.453125l0 -15.96875l6.328125 0q2.5625 0 3.9375 1.203125q1.375 1.1875 1.375 3.421875q0 1.390625 -0.625 2.421875q-0.609375 1.03125 -1.8125 1.578125q-1.203125 0.53125 -2.875 0.53125l0.21875 -0.296875l0.453125 0q0.890625 0 1.546875 0.453125q0.65625 0.453125 1.203125 1.453125l2.796875 5.203125l-2.03125 0l-2.765625 -5.125q-0.34375 -0.625 -0.765625 -0.984375q-0.40625 -0.375 -0.953125 -0.5q-0.53125 -0.140625 -1.265625 -0.140625l-2.90625 0l0 6.75l-1.859375 0zm1.859375 -8.21875l4.1875 0q1.859375 0 2.8125 -0.78125q0.953125 -0.78125 0.953125 -2.34375q0 -1.53125 -0.953125 -2.3125q-0.953125 -0.78125 -2.8125 -0.78125l-4.1875 0l0 6.21875z" fill-rule="nonzero"/></g></svg>