<svg width="85" height="98" viewBox="0 0 85 98" fill="none" xmlns="http://www.w3.org/2000/svg">
    <path
        d="M83.9974 56.3211L84.0001 66.8255C83.9844 72.815 80.0163 78.7941 72.0879 83.3634C56.1213 92.5643 30.1716 92.5617 14.1082 83.3634C6.02539 78.7343 1.98663 72.6592 2.00495 66.5919L2.00223 56.09C1.98391 62.1573 6.02005 68.2324 14.1028 72.8614C30.1663 82.0597 56.1238 82.0597 72.0826 72.8614C80.0109 68.2921 83.9686 62.3105 83.9974 56.3211Z"
        fill="#D4E7F8" stroke="#0056B3" stroke-miterlimit="10" stroke-linejoin="round" />
    <path
        d="M71.8941 39.5497C87.9576 48.748 88.0413 63.6631 72.0825 72.8615C56.1238 82.0598 30.1662 82.0598 14.1028 72.8615C-1.96069 63.6631 -2.04444 48.7506 13.9143 39.5497C29.8731 30.3488 55.8306 30.3514 71.8941 39.5497Z"
        fill="white" stroke="#0056B3" />
    <path
        d="M9.4671 75.4498C9.46735 73.5732 10.785 72.8024 12.4046 73.732C14.0242 74.6616 15.3424 76.9434 15.3422 78.8201C15.3419 80.6967 14.0237 81.4679 12.4041 80.5383C10.7845 79.6087 9.46722 77.3271 9.4671 75.4498Z"
        fill="#A3E2FF" stroke="#A3E2FF" />
    <path
        d="M6.25349 82.8981L12.7589 79.1386C13.0038 78.9972 13.1551 78.6947 13.1568 78.2659C13.1599 77.4027 12.5534 76.3521 11.8019 75.9192C11.4238 75.7013 11.081 75.6813 10.8333 75.8252L4.32789 79.5848C4.576 79.4416 4.91833 79.4607 5.2965 79.6787C6.04803 80.1117 6.65458 81.1623 6.6514 82.0255C6.64977 82.4543 6.49855 82.7558 6.25349 82.8981Z"
        fill="#A3E2FF" stroke="#0056B3" stroke-linejoin="round" />
    <path
        d="M6.24989 82.9033C5.70051 83.2225 4.82381 82.739 4.29175 81.8234C3.75969 80.9077 3.77374 79.9067 4.32313 79.5874C4.87251 79.2682 5.74919 79.7517 6.28125 80.6673C6.81331 81.583 6.79927 82.584 6.24989 82.9033Z"
        fill="#018BFF" stroke="#0056B3" stroke-linejoin="round" />
    <path
        d="M76.5322 75.4498C76.532 73.5732 75.2144 72.8024 73.5948 73.732C71.9752 74.6616 70.6569 76.9434 70.6572 78.8201C70.6574 80.6967 71.9756 81.4679 73.5953 80.5383C75.2149 79.6087 76.5321 77.3271 76.5322 75.4498Z"
        fill="#A3E2FF" stroke="#A3E2FF" />
    <path
        d="M79.7461 82.8981L73.2407 79.1386C72.9958 78.9972 72.8444 78.6947 72.8428 78.2659C72.8396 77.4027 73.4462 76.3521 74.1977 75.9192C74.5758 75.7013 74.9186 75.6813 75.1663 75.8252L81.6717 79.5848C81.4236 79.4416 81.0812 79.4607 80.7031 79.6787C79.9515 80.1117 79.345 81.1623 79.3482 82.0255C79.3498 82.4543 79.501 82.7558 79.7461 82.8981Z"
        fill="#A3E2FF" stroke="#0056B3" stroke-linejoin="round" />
    <path
        d="M79.7497 82.9033C80.2991 83.2225 81.1758 82.739 81.7078 81.8234C82.2399 80.9077 82.2258 79.9067 81.6764 79.5874C81.1271 79.2682 80.2504 79.7517 79.7183 80.6673C79.1863 81.583 79.2003 82.584 79.7497 82.9033Z"
        fill="#018BFF" stroke="#0056B3" stroke-linejoin="round" />
    <path
        d="M6.25502 53.8481C6.25502 59.4172 9.8772 64.792 17.1216 69.0012C31.5456 77.3549 54.7664 77.3549 69.0611 69.0012C76.4995 64.6625 79.9923 58.8344 79.7336 53.1357C79.4748 28.1395 63.0457 8.00001 43.059 8.00001C22.7489 8.06477 6.25502 28.528 6.25502 53.8481Z"
        fill="white" fill-opacity="0.3" stroke="#0056B3" />
    <path opacity="0.3" fill-rule="evenodd" clip-rule="evenodd"
        d="M29.8513 40.0173C29.2478 40.0897 28.7739 40.3597 28.6405 40.7072L26.7843 45.5413L18.4107 46.6128C17.8089 46.6899 17.3412 46.9634 17.2157 47.3119L14.2339 55.5909C14.1264 55.8894 14.2866 56.1991 14.66 56.4147L19.4461 59.1777L18.7977 63.5952C18.7587 63.8608 18.9246 64.1228 19.251 64.3112L24.1102 67.1164C24.1279 67.1272 24.146 67.1376 24.1647 67.1479L27.7231 69.2022C28.0568 69.3948 28.523 69.4903 28.9924 69.4623L36.4859 69.0148L41.7801 72.0711C42.1687 72.2955 42.7325 72.3859 43.2659 72.3094L58.5062 70.1235C59.0719 70.0424 59.5128 69.7867 59.6508 69.4597L61.3288 65.4838L68.2159 64.5151C68.7822 64.4354 69.2252 64.1808 69.3657 63.8543L73.1521 55.0561C73.2846 54.7481 73.128 54.4227 72.7394 54.1983L67.4452 51.142L68.2204 46.8159C68.2689 46.545 68.1034 46.2758 67.7698 46.0832L59.2977 41.1923C58.9712 41.0038 58.5174 40.908 58.0574 40.9305L50.4054 41.3049L48.5598 40.2394C48.486 40.1533 48.387 40.0726 48.2628 40.0009C48.1386 39.9292 47.9988 39.872 47.8496 39.8294L45.6193 38.5419C45.2459 38.3263 44.7094 38.2338 44.1923 38.2959L29.8513 40.0173ZM39.8471 43.5799L44.8806 40.6741L44.0017 40.1667L31.481 41.6696L29.8715 45.861L39.083 51.1788L43.792 50.5829C43.9218 50.3037 44.1764 50.0399 44.5559 49.8208C45.7094 49.1549 47.5795 49.1549 48.733 49.8208C49.8864 50.4867 49.8864 51.5663 48.733 52.2322C47.6315 52.8681 45.8765 52.8968 44.7161 52.3182L38.9166 53.052C38.3948 53.118 37.8508 53.0261 37.4731 52.808L28.0263 47.3544C27.919 47.3538 27.8103 47.3467 27.7014 47.3328C27.6363 47.3245 27.573 47.3139 27.5118 47.3013L20.0778 48.2526L19.214 50.651L25.6318 54.3559C26.2437 54.7092 26.2437 55.282 25.6318 55.6352C25.0198 55.9885 24.0277 55.9885 23.4157 55.6352L18.4511 52.7692L17.4745 55.4809L21.5885 57.8559L28.4838 57.1458L29.8087 54.0461L25.1857 51.3772C24.5737 51.024 24.5738 50.4512 25.1857 50.0979C25.7976 49.7447 26.7898 49.7447 27.4017 50.0979L32.6498 53.1276C33.0378 53.3516 33.1946 53.6765 33.0631 53.984L31.4943 57.6544L35.4691 59.9491L40.8667 58.8642C41.4343 58.7501 42.065 58.8335 42.4899 59.0789L46.7747 61.5525L47.9994 59.0692L43.9298 56.7198L39.9773 57.1969C39.1302 57.2992 38.2999 56.9857 38.1228 56.4966C37.9457 56.0076 38.4888 55.5283 39.3359 55.426L44.1212 54.8483C44.6388 54.7859 45.176 54.8783 45.5499 55.0942L50.754 58.0985C50.8348 58.1366 50.9082 58.1791 50.9735 58.2252L53.5183 59.6943L57.098 57.6278C56.8784 57.0746 57.1418 56.4704 57.8882 56.0395C59.0417 55.3736 60.9118 55.3736 62.0653 56.0395C63.2187 56.7054 63.2187 57.785 62.0653 58.4509C61.3188 58.8818 60.2723 59.0339 59.314 58.9071L55.7344 60.9736L60.5186 63.7356L66.5529 62.8868L69.8971 55.1161L64.7018 52.1168C64.3681 51.9242 64.2026 51.655 64.2511 51.3841L64.7035 48.8597L60.6083 49.3876C60.4745 49.6554 60.2248 49.908 59.8592 50.119C58.7057 50.7849 56.8356 50.7849 55.6821 50.119C54.5287 49.4531 54.5287 48.3735 55.6821 47.7076C56.7983 47.0633 58.5855 47.0424 59.745 47.6451L64.8935 46.9814L57.5965 42.7688L49.9446 43.1432C49.4845 43.1657 49.0307 43.0699 48.7043 42.8814L47.0967 41.9534L42.0631 44.8593C42.2828 45.4124 42.0194 46.0166 41.2729 46.4475C40.1195 47.1134 38.2493 47.1134 37.0959 46.4475C35.9424 45.7816 35.9424 44.702 37.0959 44.0361C37.8423 43.6052 38.8889 43.4531 39.8471 43.5799ZM26.9984 66.2252L29.4117 67.6184L36.9053 67.1709C37.0298 67.1634 37.1541 67.1647 37.2757 67.1742L38.841 63.9133C39.0721 63.4319 39.9355 63.1497 40.7695 63.2831C41.6035 63.4166 42.0922 63.915 41.8611 64.3965L39.9206 68.439L43.3699 70.4303L49.4782 69.5542L51.4458 65.4552C51.6769 64.9738 52.5403 64.6916 53.3743 64.825C54.2083 64.9584 54.697 65.4569 54.4659 65.9384L52.9707 69.0532L56.8304 68.4997L58.3006 65.0161L50.5358 60.5335L47.0639 67.573C46.8269 68.0535 45.96 68.3321 45.1277 68.1953C44.2954 68.0585 43.8127 67.5581 44.0497 67.0776L45.7927 63.5435C45.7804 63.5369 45.7683 63.5301 45.7563 63.5232L40.9689 60.7594L36.4103 61.6756L35.0725 65.4041C34.897 65.8933 34.0677 66.2077 33.2203 66.1064C32.3728 66.0051 31.8282 65.5263 32.0037 65.0371L33.3502 61.2844L29.2314 58.9066L22.5298 59.5967L21.9819 63.3291L24.452 64.7551L25.8897 61.7599C26.1208 61.2785 26.9842 60.9963 27.8182 61.1297C28.6522 61.2632 29.1409 61.7616 28.9098 62.2431L26.9984 66.2252Z"
        fill="#006FD6" />
    <path fill-rule="evenodd" clip-rule="evenodd"
        d="M29.8513 38.512C29.2478 38.5845 28.7739 38.8545 28.6405 39.2019L26.7843 44.036L18.4107 45.1076C17.8089 45.1846 17.3412 45.4582 17.2157 45.8066L14.2339 54.0857C14.1264 54.3842 14.2866 54.6939 14.66 54.9095L19.4461 57.6725L18.7977 62.0899C18.7587 62.3555 18.9246 62.6175 19.251 62.806L24.1102 65.6112C24.1279 65.6219 24.146 65.6324 24.1647 65.6426L27.7231 67.6969C28.0568 67.8895 28.523 67.9851 28.9924 67.9571L36.4859 67.5095L41.7801 70.5659C42.1687 70.7902 42.7325 70.8807 43.2659 70.8042L58.5062 68.6183C59.0719 68.5371 59.5128 68.2814 59.6508 67.9545L61.3288 63.9785L68.2159 63.0098C68.7822 62.9301 69.2252 62.6756 69.3657 62.349L73.1521 53.5508C73.2846 53.2429 73.128 52.9174 72.7394 52.6931L67.4452 49.6367L68.2204 45.3107C68.2689 45.0397 68.1034 44.7706 67.7698 44.5779L59.2977 39.687C58.9712 39.4986 58.5174 39.4028 58.0574 39.4253L50.4054 39.7997L48.5598 38.7342C48.486 38.648 48.387 38.5673 48.2628 38.4956C48.1386 38.4239 47.9988 38.3668 47.8496 38.3242L45.6193 37.0366C45.2459 36.821 44.7094 36.7286 44.1923 36.7906L29.8513 38.512ZM39.8471 42.0747L44.8806 39.1688L44.0017 38.6614L31.481 40.1643L29.8715 44.3558L39.083 49.6735L43.792 49.0777C43.9218 48.7985 44.1764 48.5346 44.5559 48.3156C45.7094 47.6497 47.5795 47.6497 48.733 48.3156C49.8864 48.9814 49.8864 50.0611 48.733 50.727C47.6315 51.3629 45.8765 51.3915 44.7161 50.8129L38.9166 51.5467C38.3948 51.6128 37.8508 51.5208 37.4731 51.3028L28.0263 45.8491C27.919 45.8485 27.8103 45.8415 27.7014 45.8275C27.6363 45.8192 27.573 45.8087 27.5118 45.796L20.0778 46.7474L19.214 49.1457L25.6318 52.8507C26.2437 53.2039 26.2437 53.7767 25.6318 54.13C25.0198 54.4833 24.0277 54.4833 23.4157 54.13L18.4511 51.2639L17.4745 53.9756L21.5885 56.3506L28.4838 55.6406L29.8087 52.5408L25.1857 49.872C24.5737 49.5187 24.5738 48.946 25.1857 48.5927C25.7976 48.2394 26.7898 48.2394 27.4017 48.5927L32.6498 51.6224C33.0378 51.8464 33.1946 52.1712 33.0631 52.4788L31.4943 56.1491L35.4691 58.4438L40.8667 57.359C41.4343 57.2449 42.065 57.3283 42.4899 57.5736L46.7747 60.0472L47.9994 57.564L43.9298 55.2146L39.9773 55.6917C39.1302 55.7939 38.2999 55.4804 38.1228 54.9914C37.9457 54.5024 38.4888 54.023 39.3359 53.9208L44.1212 53.3431C44.6388 53.2806 45.176 53.373 45.5499 53.5889L50.754 56.5932C50.8348 56.6314 50.9082 56.6739 50.9735 56.72L53.5183 58.1891L57.098 56.1225C56.8784 55.5693 57.1418 54.9652 57.8882 54.5343C59.0417 53.8684 60.9118 53.8684 62.0653 54.5343C63.2187 55.2001 63.2187 56.2798 62.0653 56.9457C61.3188 57.3766 60.2723 57.5286 59.314 57.4018L55.7344 59.4684L60.5186 62.2303L66.5529 61.3816L69.8971 53.6108L64.7018 50.6116C64.3681 50.4189 64.2026 50.1498 64.2511 49.8788L64.7035 47.3544L60.6083 47.8823C60.4745 48.1502 60.2248 48.4027 59.8592 48.6138C58.7057 49.2797 56.8356 49.2797 55.6821 48.6138C54.5287 47.9479 54.5287 46.8683 55.6821 46.2024C56.7983 45.558 58.5855 45.5372 59.745 46.1398L64.8935 45.4761L57.5965 41.2636L49.9446 41.6379C49.4845 41.6604 49.0307 41.5647 48.7043 41.3762L47.0967 40.4481L42.0631 43.354C42.2828 43.9072 42.0194 44.5114 41.2729 44.9423C40.1195 45.6082 38.2493 45.6082 37.0959 44.9423C35.9424 44.2764 35.9424 43.1968 37.0959 42.5309C37.8423 42.1 38.8889 41.9479 39.8471 42.0747ZM26.9984 64.7199L29.4117 66.1131L36.9053 65.6656C37.0298 65.6582 37.1541 65.6594 37.2757 65.6689L38.841 62.4081C39.0721 61.9266 39.9355 61.6445 40.7695 61.7779C41.6035 61.9113 42.0922 62.4098 41.8611 62.8912L39.9206 66.9338L43.3699 68.925L49.4782 68.0489L51.4458 63.95C51.6769 63.4685 52.5403 63.1864 53.3743 63.3198C54.2083 63.4532 54.697 63.9517 54.4659 64.4331L52.9707 67.548L56.8304 66.9944L58.3006 63.5108L50.5358 59.0282L47.0639 66.0678C46.8269 66.5483 45.96 66.8269 45.1277 66.6901C44.2954 66.5533 43.8127 66.0528 44.0497 65.5723L45.7927 62.0383C45.7804 62.0316 45.7683 62.0248 45.7563 62.0179L40.9689 59.2542L36.4103 60.1704L35.0725 63.8988C34.897 64.388 34.0677 64.7025 33.2203 64.6011C32.3728 64.4998 31.8282 64.0211 32.0037 63.5318L33.3502 59.7792L29.2314 57.4014L22.5298 58.0915L21.9819 61.8239L24.452 63.2499L25.8897 60.2547C26.1208 59.7732 26.9842 59.4911 27.8182 59.6245C28.6522 59.7579 29.1409 60.2564 28.9098 60.7378L26.9984 64.7199Z"
        fill="#018BFF" stroke="#0056B3" />
</svg>