<svg xmlns="http://www.w3.org/2000/svg" width="1158" height="355" viewBox="0 0 1158 355"><defs><style type="text/css"/></defs><g transform="translate(-345.5013000457919 518.9525947315256) scale(1)"><g class="relationship"><g transform="translate(472.2555297922385 -223.28564514472907) rotate(-29.7647958797161)" stroke-width="5" stroke="#000000"><path d="M 59 0 L 402.9370892833713 0"/><polygon points="-24.8621506177483,0 -27.62461179749811,9.20820393249937 0,0 -27.62461179749811,-9.20820393249937" fill="#000000" transform="translate(427.79923990111956 0) rotate(0)" stroke="none"/></g><g transform="translate(672.7525431227613 -337.94782835889316) rotate(-29.7647958797161) translate(0 -13)"><g transform="translate(0 0)"><g transform="translate(-41.453125 0)" fill="#ffffff" stroke="#000000" stroke-width="0"><rect x="0" y="0" width="82.90625" height="26" rx="5" ry="5" stroke="none"/><text xml:space="preserve" x="5" y="17.5" stroke="none" text-anchor="left" font-family="sans-serif" font-size="16" font-weight="normal" fill="#000000">TYPE_OF</text></g></g></g></g><g class="relationship"><g transform="translate(778.5790985193426 -223.28564514472907) rotate(-64.31037419501804)" stroke-width="5" stroke="#000000"><path d="M 59 0 L 184.31236806376114 0"/><polygon points="-24.8621506177483,0 -27.62461179749811,9.20820393249937 0,0 -27.62461179749811,-9.20820393249937" fill="#000000" transform="translate(209.17451868150943 0) rotate(0)" stroke="none"/></g><g transform="translate(831.3165585477205 -332.916787722712) rotate(-64.31037419501804) translate(0 -13)"><g transform="translate(0 0)"><g transform="translate(-41.453125 0)" fill="#ffffff" stroke="#000000" stroke-width="0"><rect x="0" y="0" width="82.90625" height="26" rx="5" ry="5" stroke="none"/><text xml:space="preserve" x="5" y="17.5" stroke="none" text-anchor="left" font-family="sans-serif" font-size="16" font-weight="normal" fill="#000000">TYPE_OF</text></g></g></g></g><g class="relationship"><g transform="translate(1062.5485989947492 -223.28564514472907) rotate(-124.76066023221733)" stroke-width="5" stroke="#000000"><path d="M 59 0 L 210.30087611648727 0"/><polygon points="-24.8621506177483,0 -27.62461179749811,9.20820393249937 0,0 -27.62461179749811,-9.20820393249937" fill="#000000" transform="translate(235.1630267342356 0) rotate(0)" stroke="none"/></g><g transform="translate(985.7777022032839 -333.90648348503044) rotate(55.23933976778268) translate(0 -13)"><g transform="translate(0 0)"><g transform="translate(-41.453125 0)" fill="#ffffff" stroke="#000000" stroke-width="0"><rect x="0" y="0" width="82.90625" height="26" rx="5" ry="5" stroke="none"/><text xml:space="preserve" x="5" y="17.5" stroke="none" text-anchor="left" font-family="sans-serif" font-size="16" font-weight="normal" fill="#000000">TYPE_OF</text></g></g></g></g><g class="relationship"><g transform="translate(1346.518099470156 -223.28564514472907) rotate(-151.85176866197085)" stroke-width="5" stroke="#000000"><path d="M 59 0 L 428.41077910364334 0"/><polygon points="-24.8621506177483,0 -27.62461179749811,9.20820393249937 0,0 -27.62461179749811,-9.20820393249937" fill="#000000" transform="translate(453.2729297213916 0) rotate(0)" stroke="none"/></g><g transform="translate(1131.6357322630151 -338.2547068964051) rotate(28.148231338029156) translate(0 -13)"><g transform="translate(0 0)"><g transform="translate(-41.453125 0)" fill="#ffffff" stroke="#000000" stroke-width="0"><rect x="0" y="0" width="82.90625" height="26" rx="5" ry="5" stroke="none"/><text xml:space="preserve" x="5" y="17.5" stroke="none" text-anchor="left" font-family="sans-serif" font-size="16" font-weight="normal" fill="#000000">TYPE_OF</text></g></g></g></g><g class="node"><g fill="#ffffff" stroke="#000000" stroke-width="4"><circle cx="472.2555297922385" cy="-223.28564514472907" r="52"/></g><g transform="translate(472.2555297922385 -223.28564514472907)"><g transform="scale(0.72265652734375) translate(0 0)"><g transform="translate(0 0)"><g font-family="sans-serif" font-size="50" font-weight="normal" fill="#000000" text-anchor="middle"><text xml:space="preserve" x="0" y="13" stroke="none">Type</text></g></g></g><g transform="translate(-39.597979746446654 39.59797974644666)"><g transform="translate(0 0)"><g transform="translate(-87.15625 0)" fill="white"><rect x="0" y="0" width="87.15625" height="19.2" rx="0" ry="0" stroke="none"/><g font-family="sans-serif" font-size="16" font-weight="normal" fill="#000000" text-anchor="end"><text xml:space="preserve" x="48.9140625" y="14.1" stroke="none">name:</text><text xml:space="preserve" x="53.359375" y="14.1" stroke="none" text-anchor="start">quiz</text></g></g></g></g></g></g><g class="node"><g fill="#ffffff" stroke="#000000" stroke-width="4"><circle cx="778.5790985193426" cy="-223.28564514472907" r="52"/></g><g transform="translate(778.5790985193426 -223.28564514472907)"><g transform="scale(0.72265652734375) translate(0 0)"><g transform="translate(0 0)"><g font-family="sans-serif" font-size="50" font-weight="normal" fill="#000000" text-anchor="middle"><text xml:space="preserve" x="0" y="13" stroke="none">Type</text></g></g></g><g transform="translate(-39.597979746446654 39.59797974644666)"><g transform="translate(0 0)"><g transform="translate(-126.3046875 0)" fill="white"><rect x="0" y="0" width="126.3046875" height="19.2" rx="0" ry="0" stroke="none"/><g font-family="sans-serif" font-size="16" font-weight="normal" fill="#000000" text-anchor="end"><text xml:space="preserve" x="48.9140625" y="14.1" stroke="none">name:</text><text xml:space="preserve" x="53.359375" y="14.1" stroke="none" text-anchor="start">challenge</text></g></g></g></g></g></g><g class="node"><g fill="#ffffff" stroke="#000000" stroke-width="4"><circle cx="1062.5485989947492" cy="-223.28564514472907" r="52"/></g><g transform="translate(1062.5485989947492 -223.28564514472907)"><g transform="scale(0.72265652734375) translate(0 0)"><g transform="translate(0 0)"><g font-family="sans-serif" font-size="50" font-weight="normal" fill="#000000" text-anchor="middle"><text xml:space="preserve" x="0" y="13" stroke="none">Type</text></g></g></g><g transform="translate(39.59797974644666 39.597979746446654)"><g transform="translate(0 0)"><g transform="translate(0 0)" fill="white"><rect x="0" y="0" width="96.0546875" height="19.2" rx="0" ry="0" stroke="none"/><g font-family="sans-serif" font-size="16" font-weight="normal" fill="#000000" text-anchor="end"><text xml:space="preserve" x="48.9140625" y="14.1" stroke="none">name:</text><text xml:space="preserve" x="53.359375" y="14.1" stroke="none" text-anchor="start">video</text></g></g></g></g></g></g><g class="node"><g fill="#ffffff" stroke="#000000" stroke-width="4"><circle cx="1346.518099470156" cy="-223.28564514472907" r="52"/></g><g transform="translate(1346.518099470156 -223.28564514472907)"><g transform="scale(0.72265652734375) translate(0 0)"><g transform="translate(0 0)"><g font-family="sans-serif" font-size="50" font-weight="normal" fill="#000000" text-anchor="middle"><text xml:space="preserve" x="0" y="13" stroke="none">Type</text></g></g></g><g transform="translate(39.59797974644666 39.597979746446654)"><g transform="translate(0 0)"><g transform="translate(0 0)" fill="white"><rect x="0" y="0" width="117.3828125" height="19.2" rx="0" ry="0" stroke="none"/><g font-family="sans-serif" font-size="16" font-weight="normal" fill="#000000" text-anchor="end"><text xml:space="preserve" x="48.9140625" y="14.1" stroke="none">name:</text><text xml:space="preserve" x="53.359375" y="14.1" stroke="none" text-anchor="start">practical</text></g></g></g></g></g></g><g class="node"><g fill="#ffffff" stroke="#000000" stroke-width="4"><circle cx="894.8316595555281" cy="-464.9525947315255" r="52"/></g><g transform="translate(894.8316595555281 -464.9525947315255)"><g transform="scale(0.484375515625) translate(0 0)"><g transform="translate(0 0)"><g font-family="sans-serif" font-size="50" font-weight="normal" fill="#000000" text-anchor="middle"><text xml:space="preserve" x="0" y="13" stroke="none">Content</text></g></g></g></g></g></g></svg>