<svg xmlns="http://www.w3.org/2000/svg" width="1727" height="862" viewBox="0 0 1727 862"><defs><style type="text/css"/></defs><g transform="translate(206.296875 518.9525947315256) scale(1)"><g class="relationship"><g transform="translate(0 0) rotate(0)" stroke-width="5" stroke="#000000"><path d="M 59 0 L 250.6378493822517 0"/><polygon points="-24.8621506177483,0 -27.62461179749811,9.20820393249937 0,0 -27.62461179749811,-9.20820393249937" fill="#000000" transform="translate(275.5 0) rotate(0)" stroke="none"/></g><g transform="translate(154.81892469112586 0) rotate(0) translate(0 -13)"><g transform="translate(0 0)"><g transform="translate(-60.125 0)" fill="#ffffff" stroke="#000000" stroke-width="0"><rect x="0" y="0" width="120.25" height="26" rx="5" ry="5" stroke="none"/><text xml:space="preserve" x="5" y="17.5" stroke="none" text-anchor="left" font-family="sans-serif" font-size="16" font-weight="normal" fill="#000000">HAS_MODULE</text></g></g></g></g><g class="relationship"><g transform="translate(334.5 0) rotate(-7.016709298534877e-15)" stroke-width="5" stroke="#000000"><path d="M 59 0 L 224.1378493822517 0"/><polygon points="-24.8621506177483,0 -27.62461179749811,9.20820393249937 0,0 -27.62461179749811,-9.20820393249937" fill="#000000" transform="translate(249 0) rotate(0)" stroke="none"/></g><g transform="translate(476.06892469112586 -1.7337193048172e-14) rotate(-7.016709298534877e-15) translate(0 -13)"><g transform="translate(0 0)"><g transform="translate(-58.35546875 0)" fill="#ffffff" stroke="#000000" stroke-width="0"><rect x="0" y="0" width="116.7109375" height="26" rx="5" ry="5" stroke="none"/><text xml:space="preserve" x="5" y="17.5" stroke="none" text-anchor="left" font-family="sans-serif" font-size="16" font-weight="normal" fill="#000000">HAS_LESSON</text></g></g></g></g><g class="relationship"><g transform="translate(472.2555297922385 -223.28564514472907) rotate(-29.7647958797161)" stroke-width="5" stroke="#000000"><path d="M 59 0 L 402.9370892833713 0"/><polygon points="-24.8621506177483,0 -27.62461179749811,9.20820393249937 0,0 -27.62461179749811,-9.20820393249937" fill="#000000" transform="translate(427.79923990111956 0) rotate(0)" stroke="none"/></g><g transform="translate(672.7525431227613 -337.94782835889316) rotate(-29.7647958797161) translate(0 -13)"><g transform="translate(0 0)"><g transform="translate(-41.453125 0)" fill="#ffffff" stroke="#000000" stroke-width="0"><rect x="0" y="0" width="82.90625" height="26" rx="5" ry="5" stroke="none"/><text xml:space="preserve" x="5" y="17.5" stroke="none" text-anchor="left" font-family="sans-serif" font-size="16" font-weight="normal" fill="#000000">TYPE_OF</text></g></g></g></g><g class="relationship"><g transform="translate(778.5790985193426 -223.28564514472907) rotate(-64.31037419501804)" stroke-width="5" stroke="#000000"><path d="M 59 0 L 184.31236806376114 0"/><polygon points="-24.8621506177483,0 -27.62461179749811,9.20820393249937 0,0 -27.62461179749811,-9.20820393249937" fill="#000000" transform="translate(209.17451868150943 0) rotate(0)" stroke="none"/></g><g transform="translate(831.3165585477205 -332.916787722712) rotate(-64.31037419501804) translate(0 -13)"><g transform="translate(0 0)"><g transform="translate(-41.453125 0)" fill="#ffffff" stroke="#000000" stroke-width="0"><rect x="0" y="0" width="82.90625" height="26" rx="5" ry="5" stroke="none"/><text xml:space="preserve" x="5" y="17.5" stroke="none" text-anchor="left" font-family="sans-serif" font-size="16" font-weight="normal" fill="#000000">TYPE_OF</text></g></g></g></g><g class="relationship"><g transform="translate(1062.5485989947492 -223.28564514472907) rotate(-124.76066023221733)" stroke-width="5" stroke="#000000"><path d="M 59 0 L 210.30087611648727 0"/><polygon points="-24.8621506177483,0 -27.62461179749811,9.20820393249937 0,0 -27.62461179749811,-9.20820393249937" fill="#000000" transform="translate(235.1630267342356 0) rotate(0)" stroke="none"/></g><g transform="translate(985.7777022032839 -333.90648348503044) rotate(55.23933976778268) translate(0 -13)"><g transform="translate(0 0)"><g transform="translate(-41.453125 0)" fill="#ffffff" stroke="#000000" stroke-width="0"><rect x="0" y="0" width="82.90625" height="26" rx="5" ry="5" stroke="none"/><text xml:space="preserve" x="5" y="17.5" stroke="none" text-anchor="left" font-family="sans-serif" font-size="16" font-weight="normal" fill="#000000">TYPE_OF</text></g></g></g></g><g class="relationship"><g transform="translate(1346.518099470156 -223.28564514472907) rotate(-151.85176866197085)" stroke-width="5" stroke="#000000"><path d="M 59 0 L 428.41077910364334 0"/><polygon points="-24.8621506177483,0 -27.62461179749811,9.20820393249937 0,0 -27.62461179749811,-9.20820393249937" fill="#000000" transform="translate(453.2729297213916 0) rotate(0)" stroke="none"/></g><g transform="translate(1131.6357322630151 -338.2547068964051) rotate(28.148231338029156) translate(0 -13)"><g transform="translate(0 0)"><g transform="translate(-41.453125 0)" fill="#ffffff" stroke="#000000" stroke-width="0"><rect x="0" y="0" width="82.90625" height="26" rx="5" ry="5" stroke="none"/><text xml:space="preserve" x="5" y="17.5" stroke="none" text-anchor="left" font-family="sans-serif" font-size="16" font-weight="normal" fill="#000000">TYPE_OF</text></g></g></g></g><g class="relationship"><g transform="translate(334.5 0) rotate(25.6969399467561)" stroke-width="5" stroke="#000000"><path d="M 59 0 L 489.1731445397146 0"/><polygon points="-24.8621506177483,0 -27.62461179749811,9.20820393249937 0,0 -27.62461179749811,-9.20820393249937" fill="#000000" transform="translate(514.0352951574629 0) rotate(0)" stroke="none"/></g><g transform="translate(581.4794598555208 118.84694151771399) rotate(25.6969399467561) translate(0 -13)"><g transform="translate(0 0)"><g transform="translate(-58.35546875 0)" fill="#ffffff" stroke="#000000" stroke-width="0"><rect x="0" y="0" width="116.7109375" height="26" rx="5" ry="5" stroke="none"/><text xml:space="preserve" x="5" y="17.5" stroke="none" text-anchor="left" font-family="sans-serif" font-size="16" font-weight="normal" fill="#000000">HAS_LESSON</text></g></g></g></g><g class="relationship"><g transform="translate(642.5 -3.7719121413738476e-14) rotate(-127.32376245427919)" stroke-width="5" stroke="#000000"><path d="M 59 0 L 196.9218570536631 0"/><polygon points="-24.8621506177483,0 -27.62461179749811,9.20820393249937 0,0 -27.62461179749811,-9.20820393249937" fill="#000000" transform="translate(221.78400767141142 0) rotate(0)" stroke="none"/></g><g transform="translate(564.9149528137043 -101.75735689643855) rotate(52.6762375457208) translate(0 -13)"><g transform="translate(0 0)"><g transform="translate(-41.453125 0)" fill="#ffffff" stroke="#000000" stroke-width="0"><rect x="0" y="0" width="82.90625" height="26" rx="5" ry="5" stroke="none"/><text xml:space="preserve" x="5" y="17.5" stroke="none" text-anchor="left" font-family="sans-serif" font-size="16" font-weight="normal" fill="#000000">TYPE_OF</text></g></g></g></g><g class="relationship"><g transform="translate(642.5 -3.7719121413738476e-14) rotate(-58.640218750773506)" stroke-width="5" stroke="#000000"><path d="M 59 0 L 177.62207525741763 0"/><polygon points="-24.8621506177483,0 -27.62461179749811,9.20820393249937 0,0 -27.62461179749811,-9.20820393249937" fill="#000000" transform="translate(202.48422587516592 0) rotate(0)" stroke="none"/></g><g transform="translate(704.0702889591848 -101.02772462182968) rotate(-58.640218750773506) translate(0 -13)"><g transform="translate(0 0)"><g transform="translate(-41.453125 0)" fill="#ffffff" stroke="#000000" stroke-width="0"><rect x="0" y="0" width="82.90625" height="26" rx="5" ry="5" stroke="none"/><text xml:space="preserve" x="5" y="17.5" stroke="none" text-anchor="left" font-family="sans-serif" font-size="16" font-weight="normal" fill="#000000">TYPE_OF</text></g></g></g></g><g class="relationship"><g transform="translate(850.8622081303383 248.47438401364784) rotate(-98.7111170007091)" stroke-width="5" stroke="#000000"><path d="M 59 0 L 393.40336567957223 0"/><polygon points="-24.8621506177483,0 -27.62461179749811,9.20820393249937 0,0 -27.62461179749811,-9.20820393249937" fill="#000000" transform="translate(418.2655162973205 0) rotate(0)" stroke="none"/></g><g transform="translate(816.6033721646698 24.88204631436841) rotate(81.2888829992909) translate(0 -13)"><g transform="translate(0 0)"><g transform="translate(-41.453125 0)" fill="#ffffff" stroke="#000000" stroke-width="0"><rect x="0" y="0" width="82.90625" height="26" rx="5" ry="5" stroke="none"/><text xml:space="preserve" x="5" y="17.5" stroke="none" text-anchor="left" font-family="sans-serif" font-size="16" font-weight="normal" fill="#000000">TYPE_OF</text></g></g></g></g><g class="relationship"><g transform="translate(850.8622081303383 248.47438401364784) rotate(-65.83345120617096)" stroke-width="5" stroke="#000000"><path d="M 59 0 L 433.21487767563156 0"/><polygon points="-24.8621506177483,0 -27.62461179749811,9.20820393249937 0,0 -27.62461179749811,-9.20820393249937" fill="#000000" transform="translate(458.07702829337984 0) rotate(0)" stroke="none"/></g><g transform="translate(951.6162402025227 23.935976447132646) rotate(-65.83345120617096) translate(0 -13)"><g transform="translate(0 0)"><g transform="translate(-41.453125 0)" fill="#ffffff" stroke="#000000" stroke-width="0"><rect x="0" y="0" width="82.90625" height="26" rx="5" ry="5" stroke="none"/><text xml:space="preserve" x="5" y="17.5" stroke="none" text-anchor="left" font-family="sans-serif" font-size="16" font-weight="normal" fill="#000000">TYPE_OF</text></g></g></g></g><g class="relationship"><g transform="translate(850.8622081303383 248.47438401364784) rotate(-43.58504116337799)" stroke-width="5" stroke="#000000"><path d="M 59 0 L 600.4128582283894 0"/><polygon points="-24.8621506177483,0 -27.62461179749811,9.20820393249937 0,0 -27.62461179749811,-9.20820393249937" fill="#000000" transform="translate(625.2750088461377 0) rotate(0)" stroke="none"/></g><g transform="translate(1089.6856809890562 21.16473131289979) rotate(-43.58504116337799) translate(0 -13)"><g transform="translate(0 0)"><g transform="translate(-41.453125 0)" fill="#ffffff" stroke="#000000" stroke-width="0"><rect x="0" y="0" width="82.90625" height="26" rx="5" ry="5" stroke="none"/><text xml:space="preserve" x="5" y="17.5" stroke="none" text-anchor="left" font-family="sans-serif" font-size="16" font-weight="normal" fill="#000000">TYPE_OF</text></g></g></g></g><g class="node"><g fill="#ffffff" stroke="#000000" stroke-width="4"><circle cx="0" cy="0" r="52"/></g><g transform="translate(0 0)"><g transform="scale(0.5195317304687499) translate(0 0)"><g transform="translate(0 0)"><g font-family="sans-serif" font-size="50" font-weight="normal" fill="#000000" text-anchor="middle"><text xml:space="preserve" x="0" y="13" stroke="none">Course</text></g></g></g><g transform="translate(-56 -9.599999999999993)"><g transform="translate(0 0)"><g transform="translate(-150.296875 0)" fill="white"><rect x="0" y="0" width="150.296875" height="19.2" rx="0" ry="0" stroke="none"/><g font-family="sans-serif" font-size="16" font-weight="normal" fill="#000000" text-anchor="end"><text xml:space="preserve" x="48.9140625" y="14.1" stroke="none">name:</text><text xml:space="preserve" x="53.359375" y="14.1" stroke="none" text-anchor="start">Neo4j &amp; LLM</text></g></g></g></g></g></g><g class="node"><g fill="#ffffff" stroke="#000000" stroke-width="4"><circle cx="334.5" cy="0" r="52"/></g><g transform="translate(334.5 0)"><g transform="scale(0.5117192382812499) translate(0 0)"><g transform="translate(0 0)"><g font-family="sans-serif" font-size="50" font-weight="normal" fill="#000000" text-anchor="middle"><text xml:space="preserve" x="0" y="13" stroke="none">Module</text></g></g></g><g transform="translate(3.429011037612589e-15 -94.4)"><g transform="translate(0 0)"><g transform="translate(-77.81640625 0)" fill="white"><rect x="0" y="0" width="155.6328125" height="38.4" rx="0" ry="0" stroke="none"/><g font-family="sans-serif" font-size="16" font-weight="normal" fill="#000000" text-anchor="end"><text xml:space="preserve" x="48.9140625" y="14.1" stroke="none">name:</text><text xml:space="preserve" x="53.359375" y="14.1" stroke="none" text-anchor="start">Generative AI</text><text xml:space="preserve" x="48.9140625" y="33.3" stroke="none" text-anchor="end">order:</text><text xml:space="preserve" x="53.359375" y="33.3" stroke="none" text-anchor="start">1</text></g></g></g></g></g></g><g class="node"><g fill="#ffffff" stroke="#000000" stroke-width="4"><circle cx="642.5" cy="-3.7719121413738476e-14" r="52"/></g><g transform="translate(642.5 -3.7719121413738476e-14)"><g transform="scale(0.5195317304687499) translate(0 0)"><g transform="translate(0 0)"><g font-family="sans-serif" font-size="50" font-weight="normal" fill="#000000" text-anchor="middle"><text xml:space="preserve" x="0" y="13" stroke="none">Lesson</text></g></g></g><g transform="translate(39.59797974644666 39.597979746446654)"><g transform="translate(0 0)"><g transform="translate(0 0)" fill="white"><rect x="0" y="0" width="217" height="38.4" rx="0" ry="0" stroke="none"/><g font-family="sans-serif" font-size="16" font-weight="normal" fill="#000000" text-anchor="end"><text xml:space="preserve" x="48.9140625" y="14.1" stroke="none">name:</text><text xml:space="preserve" x="53.359375" y="14.1" stroke="none" text-anchor="start">Neo4j &amp; Generative AI</text><text xml:space="preserve" x="48.9140625" y="33.3" stroke="none" text-anchor="end">order:</text><text xml:space="preserve" x="53.359375" y="33.3" stroke="none" text-anchor="start">1</text></g></g></g></g></g></g><g class="node"><g fill="#ffffff" stroke="#000000" stroke-width="4"><circle cx="472.2555297922385" cy="-223.28564514472907" r="52"/></g><g transform="translate(472.2555297922385 -223.28564514472907)"><g transform="scale(0.72265652734375) translate(0 0)"><g transform="translate(0 0)"><g font-family="sans-serif" font-size="50" font-weight="normal" fill="#000000" text-anchor="middle"><text xml:space="preserve" x="0" y="13" stroke="none">Type</text></g></g></g><g transform="translate(-56 -9.599999999999993)"><g transform="translate(0 0)"><g transform="translate(-87.15625 0)" fill="white"><rect x="0" y="0" width="87.15625" height="19.2" rx="0" ry="0" stroke="none"/><g font-family="sans-serif" font-size="16" font-weight="normal" fill="#000000" text-anchor="end"><text xml:space="preserve" x="48.9140625" y="14.1" stroke="none">name:</text><text xml:space="preserve" x="53.359375" y="14.1" stroke="none" text-anchor="start">quiz</text></g></g></g></g></g></g><g class="node"><g fill="#ffffff" stroke="#000000" stroke-width="4"><circle cx="778.5790985193426" cy="-223.28564514472907" r="52"/></g><g transform="translate(778.5790985193426 -223.28564514472907)"><g transform="scale(0.72265652734375) translate(0 0)"><g transform="translate(0 0)"><g font-family="sans-serif" font-size="50" font-weight="normal" fill="#000000" text-anchor="middle"><text xml:space="preserve" x="0" y="13" stroke="none">Type</text></g></g></g><g transform="translate(-39.597979746446654 -58.79797974644666)"><g transform="translate(0 0)"><g transform="translate(-126.3046875 0)" fill="white"><rect x="0" y="0" width="126.3046875" height="19.2" rx="0" ry="0" stroke="none"/><g font-family="sans-serif" font-size="16" font-weight="normal" fill="#000000" text-anchor="end"><text xml:space="preserve" x="48.9140625" y="14.1" stroke="none">name:</text><text xml:space="preserve" x="53.359375" y="14.1" stroke="none" text-anchor="start">challenge</text></g></g></g></g></g></g><g class="node"><g fill="#ffffff" stroke="#000000" stroke-width="4"><circle cx="1062.5485989947492" cy="-223.28564514472907" r="52"/></g><g transform="translate(1062.5485989947492 -223.28564514472907)"><g transform="scale(0.72265652734375) translate(0 0)"><g transform="translate(0 0)"><g font-family="sans-serif" font-size="50" font-weight="normal" fill="#000000" text-anchor="middle"><text xml:space="preserve" x="0" y="13" stroke="none">Type</text></g></g></g><g transform="translate(56 -9.6)"><g transform="translate(0 0)"><g transform="translate(0 0)" fill="white"><rect x="0" y="0" width="96.0546875" height="19.2" rx="0" ry="0" stroke="none"/><g font-family="sans-serif" font-size="16" font-weight="normal" fill="#000000" text-anchor="end"><text xml:space="preserve" x="48.9140625" y="14.1" stroke="none">name:</text><text xml:space="preserve" x="53.359375" y="14.1" stroke="none" text-anchor="start">video</text></g></g></g></g></g></g><g class="node"><g fill="#ffffff" stroke="#000000" stroke-width="4"><circle cx="1346.518099470156" cy="-223.28564514472907" r="52"/></g><g transform="translate(1346.518099470156 -223.28564514472907)"><g transform="scale(0.72265652734375) translate(0 0)"><g transform="translate(0 0)"><g font-family="sans-serif" font-size="50" font-weight="normal" fill="#000000" text-anchor="middle"><text xml:space="preserve" x="0" y="13" stroke="none">Type</text></g></g></g><g transform="translate(56 -9.6)"><g transform="translate(0 0)"><g transform="translate(0 0)" fill="white"><rect x="0" y="0" width="117.3828125" height="19.2" rx="0" ry="0" stroke="none"/><g font-family="sans-serif" font-size="16" font-weight="normal" fill="#000000" text-anchor="end"><text xml:space="preserve" x="48.9140625" y="14.1" stroke="none">name:</text><text xml:space="preserve" x="53.359375" y="14.1" stroke="none" text-anchor="start">practical</text></g></g></g></g></g></g><g class="node"><g fill="#ffffff" stroke="#000000" stroke-width="4"><circle cx="894.8316595555281" cy="-464.9525947315255" r="52"/></g><g transform="translate(894.8316595555281 -464.9525947315255)"><g transform="scale(0.484375515625) translate(0 0)"><g transform="translate(0 0)"><g font-family="sans-serif" font-size="50" font-weight="normal" fill="#000000" text-anchor="middle"><text xml:space="preserve" x="0" y="13" stroke="none">Content</text></g></g></g></g></g><g class="node"><g fill="#ffffff" stroke="#000000" stroke-width="4"><circle cx="850.8622081303383" cy="248.47438401364784" r="52"/></g><g transform="translate(850.8622081303383 248.47438401364784)"><g transform="scale(0.5195317304687499) translate(0 0)"><g transform="translate(0 0)"><g font-family="sans-serif" font-size="50" font-weight="normal" fill="#000000" text-anchor="middle"><text xml:space="preserve" x="0" y="13" stroke="none">Lesson</text></g></g></g><g transform="translate(3.429011037612589e-15 56)"><g transform="translate(0 0)"><g transform="translate(-89.3828125 0)" fill="white"><rect x="0" y="0" width="178.765625" height="38.4" rx="0" ry="0" stroke="none"/><g font-family="sans-serif" font-size="16" font-weight="normal" fill="#000000" text-anchor="end"><text xml:space="preserve" x="48.9140625" y="14.1" stroke="none">name:</text><text xml:space="preserve" x="53.359375" y="14.1" stroke="none" text-anchor="start">Grounding LLMS</text><text xml:space="preserve" x="48.9140625" y="33.3" stroke="none" text-anchor="end">order:</text><text xml:space="preserve" x="53.359375" y="33.3" stroke="none" text-anchor="start">2</text></g></g></g></g></g></g></g></svg>