<svg xmlns="http://www.w3.org/2000/svg" width="1005" height="441" viewBox="0 0 1005 441"><defs><style type="text/css"/></defs><g transform="translate(398.2391688853986 254.1473670974871) scale(1)"><g class="relationship"><g transform="translate(-238.91594867582347 -107.63438344783985) rotate(-15.098000158231832)" stroke-width="5" stroke="#000000"><path d="M 59 0 L 271.3138620858124 0"/><polygon points="-24.8621506177483,0 -27.62461179749811,9.20820393249937 0,0 -27.62461179749811,-9.20820393249937" fill="#000000" transform="translate(296.1760127035607 0) rotate(0)" stroke="none"/></g><g transform="translate(-79.4599503445545 -150.6529430203037) rotate(-15.098000158231832) translate(0 -13)"><g transform="translate(0 0)"><g transform="translate(-41.15625 0)" fill="#ffffff" stroke="#000000" stroke-width="0"><rect x="0" y="0" width="82.3125" height="26" rx="5" ry="5" stroke="none"/><text xml:space="preserve" x="5" y="17.5" stroke="none" text-anchor="left" font-family="sans-serif" font-size="16" font-weight="normal" fill="#000000">PART_OF</text></g></g></g></g><g class="relationship"><g transform="translate(-71.07368354874353 -25.07368354874353) rotate(-45.00000000000001)" stroke-width="5" stroke="#000000"><path d="M 59 0 L 163.72942707150025 0"/><polygon points="-24.8621506177483,0 -27.62461179749811,9.20820393249937 0,0 -27.62461179749811,-9.20820393249937" fill="#000000" transform="translate(188.59157768924854 0) rotate(0)" stroke="none"/></g><g transform="translate(7.673060577282669 -103.82042767476975) rotate(-45.00000000000001) translate(0 -13)"><g transform="translate(0 0)"><g transform="translate(-41.15625 0)" fill="#ffffff" stroke="#000000" stroke-width="0"><rect x="0" y="0" width="82.3125" height="26" rx="5" ry="5" stroke="none"/><text xml:space="preserve" x="5" y="17.5" stroke="none" text-anchor="left" font-family="sans-serif" font-size="16" font-weight="normal" fill="#000000">PART_OF</text></g></g></g></g><g class="relationship"><g transform="translate(446.9159486758235 -107.63438344783985) rotate(-164.90199984176814)" stroke-width="5" stroke="#000000"><path d="M 59 0 L 271.3138620858124 0"/><polygon points="-24.8621506177483,0 -27.62461179749811,9.20820393249937 0,0 -27.62461179749811,-9.20820393249937" fill="#000000" transform="translate(296.1760127035607 0) rotate(0)" stroke="none"/></g><g transform="translate(287.4599503445545 -150.65294302030372) rotate(15.098000158231839) translate(0 -13)"><g transform="translate(0 0)"><g transform="translate(-41.15625 0)" fill="#ffffff" stroke="#000000" stroke-width="0"><rect x="0" y="0" width="82.3125" height="26" rx="5" ry="5" stroke="none"/><text xml:space="preserve" x="5" y="17.5" stroke="none" text-anchor="left" font-family="sans-serif" font-size="16" font-weight="normal" fill="#000000">PART_OF</text></g></g></g></g><g class="relationship"><g transform="translate(-238.91594867582347 -107.63438344783985) rotate(113.67016405497685)" stroke-width="5" stroke="#000000"><path d="M 59 0 L 178.48119509415693 0"/><polygon points="-24.8621506177483,0 -27.62461179749811,9.20820393249937 0,0 -27.62461179749811,-9.20820393249937" fill="#000000" transform="translate(203.34334571190522 0) rotate(0)" stroke="none"/></g><g transform="translate(-286.5868437363798 1.1167787066984545) rotate(293.6701640549768) translate(0 -13)"><g transform="translate(0 0)"><g transform="translate(-54.34375 0)" fill="#ffffff" stroke="#000000" stroke-width="0"><rect x="0" y="0" width="108.6875" height="26" rx="5" ry="5" stroke="none"/><text xml:space="preserve" x="5" y="17.5" stroke="none" text-anchor="left" font-family="sans-serif" font-size="16" font-weight="normal" fill="#000000">HAS_ENTITY</text></g></g></g></g><g class="relationship"><g transform="translate(-344.2391688853986 132.63848294368918) rotate(1.0200892155450455e-14)" stroke-width="5" stroke="#000000"><path d="M 59 0 L 395.0500774776808 0"/><polygon points="-24.8621506177483,0 -27.62461179749811,9.20820393249937 0,0 -27.62461179749811,-9.20820393249937" fill="#000000" transform="translate(419.9122280954291 0) rotate(0)" stroke="none"/></g><g transform="translate(-117.2141301465582 132.6384829436892) rotate(1.0200892155450455e-14) translate(0 -13)"><g transform="translate(0 0)"><g transform="translate(-56.27734375 0)" fill="#ffffff" stroke="#000000" stroke-width="0"><rect x="0" y="0" width="112.5546875" height="26" rx="5" ry="5" stroke="none"/><text xml:space="preserve" x="5" y="17.5" stroke="none" text-anchor="left" font-family="sans-serif" font-size="16" font-weight="normal" fill="#000000">RELATES_TO</text></g></g></g></g><g class="relationship"><g transform="translate(-71.07368354874353 -25.07368354874353) rotate(149.99999999999997)" stroke-width="5" stroke="#000000"><path d="M 59 0 L 231.5621823671169 0"/><polygon points="-24.8621506177483,0 -27.62461179749811,9.20820393249937 0,0 -27.62461179749811,-9.20820393249937" fill="#000000" transform="translate(256.4243329848652 0) rotate(0)" stroke="none"/></g><g transform="translate(-196.89079920322854 47.56686204303573) rotate(329.99999999999994) translate(0 -13)"><g transform="translate(0 0)"><g transform="translate(-54.34375 0)" fill="#ffffff" stroke="#000000" stroke-width="0"><rect x="0" y="0" width="108.6875" height="26" rx="5" ry="5" stroke="none"/><text xml:space="preserve" x="5" y="17.5" stroke="none" text-anchor="left" font-family="sans-serif" font-size="16" font-weight="normal" fill="#000000">HAS_ENTITY</text></g></g></g></g><g class="relationship"><g transform="translate(-71.07368354874353 -25.07368354874353) rotate(37.4714432660345)" stroke-width="5" stroke="#000000"><path d="M 59 0 L 175.3768310489408 0"/><polygon points="-24.8621506177483,0 -27.62461179749811,9.20820393249937 0,0 -27.62461179749811,-9.20820393249937" fill="#000000" transform="translate(200.23898166668909 0) rotate(0)" stroke="none"/></g><g transform="translate(21.933682196204103 46.21975689511129) rotate(37.4714432660345) translate(0 -13)"><g transform="translate(0 0)"><g transform="translate(-54.34375 0)" fill="#ffffff" stroke="#000000" stroke-width="0"><rect x="0" y="0" width="108.6875" height="26" rx="5" ry="5" stroke="none"/><text xml:space="preserve" x="5" y="17.5" stroke="none" text-anchor="left" font-family="sans-serif" font-size="16" font-weight="normal" fill="#000000">HAS_ENTITY</text></g></g></g></g><g class="relationship"><g transform="translate(446.9159486758235 -107.63438344783985) rotate(66.32983594502308)" stroke-width="5" stroke="#000000"><path d="M 59 0 L 178.48119509415716 0"/><polygon points="-24.8621506177483,0 -27.62461179749811,9.20820393249937 0,0 -27.62461179749811,-9.20820393249937" fill="#000000" transform="translate(203.34334571190544 0) rotate(0)" stroke="none"/></g><g transform="translate(494.58684373638 1.1167787066984687) rotate(66.32983594502308) translate(0 -13)"><g transform="translate(0 0)"><g transform="translate(-54.34375 0)" fill="#ffffff" stroke="#000000" stroke-width="0"><rect x="0" y="0" width="108.6875" height="26" rx="5" ry="5" stroke="none"/><text xml:space="preserve" x="5" y="17.5" stroke="none" text-anchor="left" font-family="sans-serif" font-size="16" font-weight="normal" fill="#000000">HAS_ENTITY</text></g></g></g></g><g class="relationship"><g transform="translate(134.6730592100305 132.63848294368927) rotate(-7.799694272005618e-15)" stroke-width="5" stroke="#000000"><path d="M 59 0 L 333.7039590576203 0"/><polygon points="-24.8621506177483,0 -27.62461179749811,9.20820393249937 0,0 -27.62461179749811,-9.20820393249937" fill="#000000" transform="translate(358.5661096753686 0) rotate(0)" stroke="none"/></g><g transform="translate(331.02503873884064 132.63848294368924) rotate(-7.799694272005618e-15) translate(0 -13)"><g transform="translate(0 0)"><g transform="translate(-56.27734375 0)" fill="#ffffff" stroke="#000000" stroke-width="0"><rect x="0" y="0" width="112.5546875" height="26" rx="5" ry="5" stroke="none"/><text xml:space="preserve" x="5" y="17.5" stroke="none" text-anchor="left" font-family="sans-serif" font-size="16" font-weight="normal" fill="#000000">RELATES_TO</text></g></g></g></g><g class="relationship"><g transform="translate(279.07368354874353 -25.07368354874353) rotate(-135)" stroke-width="5" stroke="#000000"><path d="M 59 0 L 163.72942707150025 0"/><polygon points="-24.8621506177483,0 -27.62461179749811,9.20820393249937 0,0 -27.62461179749811,-9.20820393249937" fill="#000000" transform="translate(188.59157768924854 0) rotate(0)" stroke="none"/></g><g transform="translate(200.32693942271732 -103.82042767476975) rotate(45) translate(0 -13)"><g transform="translate(0 0)"><g transform="translate(-41.15625 0)" fill="#ffffff" stroke="#000000" stroke-width="0"><rect x="0" y="0" width="82.3125" height="26" rx="5" ry="5" stroke="none"/><text xml:space="preserve" x="5" y="17.5" stroke="none" text-anchor="left" font-family="sans-serif" font-size="16" font-weight="normal" fill="#000000">PART_OF</text></g></g></g></g><g class="relationship"><g transform="translate(279.07368354874353 -25.07368354874353) rotate(29.999999999999986)" stroke-width="5" stroke="#000000"><path d="M 59 0 L 231.5621823671173 0"/><polygon points="-24.8621506177483,0 -27.62461179749811,9.20820393249937 0,0 -27.62461179749811,-9.20820393249937" fill="#000000" transform="translate(256.4243329848656 0) rotate(0)" stroke="none"/></g><g transform="translate(404.89079920322877 47.56686204303577) rotate(29.999999999999986) translate(0 -13)"><g transform="translate(0 0)"><g transform="translate(-54.34375 0)" fill="#ffffff" stroke="#000000" stroke-width="0"><rect x="0" y="0" width="108.6875" height="26" rx="5" ry="5" stroke="none"/><text xml:space="preserve" x="5" y="17.5" stroke="none" text-anchor="left" font-family="sans-serif" font-size="16" font-weight="normal" fill="#000000">HAS_ENTITY</text></g></g></g></g><g class="node"><g fill="#ffffff" stroke="#000000" stroke-width="4"><circle cx="104" cy="-200.1473670974871" r="52"/></g><g transform="translate(104 -200.1473670974871)"><g transform="scale(0.380859994140625) translate(0 0)"><g transform="translate(0 0)"><g font-family="sans-serif" font-size="50" font-weight="normal" fill="#000000" text-anchor="middle"><text xml:space="preserve" x="0" y="13" stroke="none">Document</text></g></g></g></g></g><g class="node"><g fill="#ffffff" stroke="#000000" stroke-width="4"><circle cx="-238.91594867582347" cy="-107.63438344783985" r="52"/></g><g transform="translate(-238.91594867582347 -107.63438344783985)"><g transform="scale(0.49218800781249994) translate(0 0)"><g transform="translate(0 0)"><g font-family="sans-serif" font-size="50" font-weight="normal" fill="#000000" text-anchor="middle"><text xml:space="preserve" x="0" y="13" stroke="none">Chunk</text><text xml:space="preserve" x="0" y="73" stroke="none" text-anchor="middle">1</text></g></g></g></g></g><g class="node"><g fill="#ffffff" stroke="#000000" stroke-width="4"><circle cx="-71.07368354874353" cy="-25.07368354874353" r="52"/></g><g transform="translate(-71.07368354874353 -25.07368354874353)"><g transform="scale(0.49218800781249994) translate(0 0)"><g transform="translate(0 0)"><g font-family="sans-serif" font-size="50" font-weight="normal" fill="#000000" text-anchor="middle"><text xml:space="preserve" x="0" y="13" stroke="none">Chunk</text><text xml:space="preserve" x="0" y="73" stroke="none" text-anchor="middle">2</text></g></g></g></g></g><g class="node"><g fill="#ffffff" stroke="#000000" stroke-width="4"><circle cx="446.9159486758235" cy="-107.63438344783985" r="52"/></g><g transform="translate(446.9159486758235 -107.63438344783985)"><g transform="scale(0.49218800781249994) translate(0 0)"><g transform="translate(0 0)"><g font-family="sans-serif" font-size="50" font-weight="normal" fill="#000000" text-anchor="middle"><text xml:space="preserve" x="0" y="13" stroke="none">Chunk</text><text xml:space="preserve" x="0" y="73" stroke="none" text-anchor="middle">3</text></g></g></g></g></g><g class="node"><g fill="#ffffff" stroke="#000000" stroke-width="4"><circle cx="-344.2391688853986" cy="132.63848294368918" r="52"/></g><g transform="translate(-344.2391688853986 132.63848294368918)"><g transform="scale(0.5156254843749999) translate(0 0)"><g transform="translate(0 0)"><g font-family="sans-serif" font-size="50" font-weight="normal" fill="#000000" text-anchor="middle"><text xml:space="preserve" x="0" y="-17" stroke="none">Entity</text><text xml:space="preserve" x="0" y="43" stroke="none" text-anchor="middle">A</text></g></g></g></g></g><g class="node"><g fill="#ffffff" stroke="#000000" stroke-width="4"><circle cx="134.6730592100305" cy="132.63848294368927" r="52"/></g><g transform="translate(134.6730592100305 132.63848294368927)"><g transform="scale(0.5156254843749999) translate(0 0)"><g transform="translate(0 0)"><g font-family="sans-serif" font-size="50" font-weight="normal" fill="#000000" text-anchor="middle"><text xml:space="preserve" x="0" y="-17" stroke="none">Entity</text><text xml:space="preserve" x="0" y="43" stroke="none" text-anchor="middle">B</text></g></g></g></g></g><g class="node"><g fill="#ffffff" stroke="#000000" stroke-width="4"><circle cx="552.2391688853991" cy="132.6384829436892" r="52"/></g><g transform="translate(552.2391688853991 132.6384829436892)"><g transform="scale(0.5156254843749999) translate(0 0)"><g transform="translate(0 0)"><g font-family="sans-serif" font-size="50" font-weight="normal" fill="#000000" text-anchor="middle"><text xml:space="preserve" x="0" y="-17" stroke="none">Entity</text><text xml:space="preserve" x="0" y="43" stroke="none" text-anchor="middle">D</text></g></g></g></g></g><g class="node"><g fill="#ffffff" stroke="#000000" stroke-width="4"><circle cx="279.07368354874353" cy="-25.07368354874353" r="52"/></g><g transform="translate(279.07368354874353 -25.07368354874353)"><g transform="scale(0.49218800781249994) translate(0 0)"><g transform="translate(0 0)"><g font-family="sans-serif" font-size="50" font-weight="normal" fill="#000000" text-anchor="middle"><text xml:space="preserve" x="0" y="13" stroke="none">Chunk</text><text xml:space="preserve" x="0" y="73" stroke="none" text-anchor="middle">2</text></g></g></g></g></g></g></svg>