<svg xmlns="http://www.w3.org/2000/svg" width="722" height="704" viewBox="0 0 722 704"><defs><style type="text/css"/></defs><g transform="translate(201.14736709748712 254.1473670974871) scale(1)"><g class="relationship"><g transform="translate(-147.14736709748712 51) rotate(-45)" stroke-width="5" stroke="#000000"><path d="M 59 0 L 271.3138620858124 0"/><polygon points="-24.8621506177483,0 -27.62461179749811,9.20820393249937 0,0 -27.62461179749811,-9.20820393249937" fill="#000000" transform="translate(296.1760127035607 0) rotate(0)" stroke="none"/></g><g transform="translate(-30.363781197089125 -65.78358590039798) rotate(-45) translate(0 -13)"><g transform="translate(0 0)"><g transform="translate(-41.15625 0)" fill="#ffffff" stroke="#000000" stroke-width="0"><rect x="0" y="0" width="82.3125" height="26" rx="5" ry="5" stroke="none"/><text xml:space="preserve" x="5" y="17.5" stroke="none" text-anchor="left" font-family="sans-serif" font-size="16" font-weight="normal" fill="#000000">PART_OF</text></g></g></g></g><g class="relationship"><g transform="translate(104 51) rotate(-90)" stroke-width="5" stroke="#000000"><path d="M 59 0 L 167.28521647973878 0"/><polygon points="-24.8621506177483,0 -27.62461179749811,9.20820393249937 0,0 -27.62461179749811,-9.20820393249937" fill="#000000" transform="translate(192.1473670974871 0) rotate(0)" stroke="none"/></g><g transform="translate(104 -62.14260823986939) rotate(90) translate(0 -13)"><g transform="translate(0 0)"><g transform="translate(-41.15625 0)" fill="#ffffff" stroke="#000000" stroke-width="0"><rect x="0" y="0" width="82.3125" height="26" rx="5" ry="5" stroke="none"/><text xml:space="preserve" x="5" y="17.5" stroke="none" text-anchor="left" font-family="sans-serif" font-size="16" font-weight="normal" fill="#000000">PART_OF</text></g></g></g></g><g class="relationship"><g transform="translate(355.1473670974871 51) rotate(-135)" stroke-width="5" stroke="#000000"><path d="M 59 0 L 271.3138620858124 0"/><polygon points="-24.8621506177483,0 -27.62461179749811,9.20820393249937 0,0 -27.62461179749811,-9.20820393249937" fill="#000000" transform="translate(296.1760127035607 0) rotate(0)" stroke="none"/></g><g transform="translate(238.36378119708914 -65.783585900398) rotate(45) translate(0 -13)"><g transform="translate(0 0)"><g transform="translate(-41.15625 0)" fill="#ffffff" stroke="#000000" stroke-width="0"><rect x="0" y="0" width="82.3125" height="26" rx="5" ry="5" stroke="none"/><text xml:space="preserve" x="5" y="17.5" stroke="none" text-anchor="left" font-family="sans-serif" font-size="16" font-weight="normal" fill="#000000">PART_OF</text></g></g></g></g><g class="relationship"><g transform="translate(-147.14736709748712 51) rotate(90)" stroke-width="5" stroke="#000000"><path d="M 59 0 L 152.36941471213538 0"/><polygon points="-24.8621506177483,0 -27.62461179749811,9.20820393249937 0,0 -27.62461179749811,-9.20820393249937" fill="#000000" transform="translate(177.23156532988367 0) rotate(0)" stroke="none"/></g><g transform="translate(-147.14736709748712 156.6847073560677) rotate(270) translate(0 -13)"><g transform="translate(0 0)"><g transform="translate(-54.34375 0)" fill="#ffffff" stroke="#000000" stroke-width="0"><rect x="0" y="0" width="108.6875" height="26" rx="5" ry="5" stroke="none"/><text xml:space="preserve" x="5" y="17.5" stroke="none" text-anchor="left" font-family="sans-serif" font-size="16" font-weight="normal" fill="#000000">HAS_ENTITY</text></g></g></g></g><g class="relationship"><g transform="translate(-147.14736709748712 287.23156532988367) rotate(23.376469794760226)" stroke-width="5" stroke="#000000"><path d="M 59 0 L 189.74340367612461 0"/><polygon points="-24.8621506177483,0 -27.62461179749811,9.20820393249937 0,0 -27.62461179749811,-9.20820393249937" fill="#000000" transform="translate(214.6055542938729 0) rotate(0)" stroke="none"/></g><g transform="translate(-32.98438696838622 336.5786441303394) rotate(23.376469794760226) translate(0 -13)"><g transform="translate(0 0)"><g transform="translate(-56.27734375 0)" fill="#ffffff" stroke="#000000" stroke-width="0"><rect x="0" y="0" width="112.5546875" height="26" rx="5" ry="5" stroke="none"/><text xml:space="preserve" x="5" y="17.5" stroke="none" text-anchor="left" font-family="sans-serif" font-size="16" font-weight="normal" fill="#000000">RELATES_TO</text></g></g></g></g><g class="relationship"><g transform="translate(104 51) rotate(136.75293958952042)" stroke-width="5" stroke="#000000"><path d="M 59 0 L 260.9281515344542 0"/><polygon points="-24.8621506177483,0 -27.62461179749811,9.20820393249937 0,0 -27.62461179749811,-9.20820393249937" fill="#000000" transform="translate(285.79030215220246 0) rotate(0)" stroke="none"/></g><g transform="translate(-12.518812183376227 160.59868586547134) rotate(316.75293958952045) translate(0 -13)"><g transform="translate(0 0)"><g transform="translate(-54.34375 0)" fill="#ffffff" stroke="#000000" stroke-width="0"><rect x="0" y="0" width="108.6875" height="26" rx="5" ry="5" stroke="none"/><text xml:space="preserve" x="5" y="17.5" stroke="none" text-anchor="left" font-family="sans-serif" font-size="16" font-weight="normal" fill="#000000">HAS_ENTITY</text></g></g></g></g><g class="relationship"><g transform="translate(104 51) rotate(90)" stroke-width="5" stroke="#000000"><path d="M 59 0 L 260.9281515344542 0"/><polygon points="-24.8621506177483,0 -27.62461179749811,9.20820393249937 0,0 -27.62461179749811,-9.20820393249937" fill="#000000" transform="translate(285.79030215220246 0) rotate(0)" stroke="none"/></g><g transform="translate(104.00000000000001 210.9640757672271) rotate(270) translate(0 -13)"><g transform="translate(0 0)"><g transform="translate(-54.34375 0)" fill="#ffffff" stroke="#000000" stroke-width="0"><rect x="0" y="0" width="108.6875" height="26" rx="5" ry="5" stroke="none"/><text xml:space="preserve" x="5" y="17.5" stroke="none" text-anchor="left" font-family="sans-serif" font-size="16" font-weight="normal" fill="#000000">HAS_ENTITY</text></g></g></g></g><g class="relationship"><g transform="translate(355.1473670974871 51) rotate(72.13964791128052)" stroke-width="5" stroke="#000000"><path d="M 59 0 L 278.38602773480034 0"/><polygon points="-24.8621506177483,0 -27.62461179749811,9.20820393249937 0,0 -27.62461179749811,-9.20820393249937" fill="#000000" transform="translate(303.2481783525486 0) rotate(0)" stroke="none"/></g><g transform="translate(406.8851861224579 211.56316828652277) rotate(72.13964791128052) translate(0 -13)"><g transform="translate(0 0)"><g transform="translate(-54.34375 0)" fill="#ffffff" stroke="#000000" stroke-width="0"><rect x="0" y="0" width="108.6875" height="26" rx="5" ry="5" stroke="none"/><text xml:space="preserve" x="5" y="17.5" stroke="none" text-anchor="left" font-family="sans-serif" font-size="16" font-weight="normal" fill="#000000">HAS_ENTITY</text></g></g></g></g><g class="relationship"><g transform="translate(466.2481783525487 395.79030215220246) rotate(-149.99999999999997)" stroke-width="5" stroke="#000000"><path d="M 59 0 L 184.74912538629627 0"/><polygon points="-24.8621506177483,0 -27.62461179749811,9.20820393249937 0,0 -27.62461179749811,-9.20820393249937" fill="#000000" transform="translate(209.61127600404456 0) rotate(0)" stroke="none"/></g><g transform="translate(360.70171098516323 334.8530208056284) rotate(30.000000000000014) translate(0 -13)"><g transform="translate(0 0)"><g transform="translate(-56.27734375 0)" fill="#ffffff" stroke="#000000" stroke-width="0"><rect x="0" y="0" width="112.5546875" height="26" rx="5" ry="5" stroke="none"/><text xml:space="preserve" x="5" y="17.5" stroke="none" text-anchor="left" font-family="sans-serif" font-size="16" font-weight="normal" fill="#000000">RELATES_TO</text></g></g></g></g><g class="relationship"><g transform="translate(355.1473670974871 51) rotate(119.99999999999999)" stroke-width="5" stroke="#000000"><path d="M 59 0 L 159.18460439704063 0"/><polygon points="-24.8621506177483,0 -27.62461179749811,9.20820393249937 0,0 -27.62461179749811,-9.20820393249937" fill="#000000" transform="translate(184.0467550147889 0) rotate(0)" stroke="none"/></g><g transform="translate(300.60121599822696 145.47670506124757) rotate(299.99999999999994) translate(0 -13)"><g transform="translate(0 0)"><g transform="translate(-54.34375 0)" fill="#ffffff" stroke="#000000" stroke-width="0"><rect x="0" y="0" width="108.6875" height="26" rx="5" ry="5" stroke="none"/><text xml:space="preserve" x="5" y="17.5" stroke="none" text-anchor="left" font-family="sans-serif" font-size="16" font-weight="normal" fill="#000000">HAS_ENTITY</text></g></g></g></g><g class="relationship"><g transform="translate(104 395.79030215220246) rotate(0)" stroke-width="5" stroke="#000000"><path d="M 59 0 L 278.38602773480034 0"/><polygon points="-24.8621506177483,0 -27.62461179749811,9.20820393249937 0,0 -27.62461179749811,-9.20820393249937" fill="#000000" transform="translate(303.2481783525487 0) rotate(0)" stroke="none"/></g><g transform="translate(272.69301386740017 395.79030215220246) rotate(0) translate(0 -13)"><g transform="translate(0 0)"><g transform="translate(-56.27734375 0)" fill="#ffffff" stroke="#000000" stroke-width="0"><rect x="0" y="0" width="112.5546875" height="26" rx="5" ry="5" stroke="none"/><text xml:space="preserve" x="5" y="17.5" stroke="none" text-anchor="left" font-family="sans-serif" font-size="16" font-weight="normal" fill="#000000">RELATES_TO</text></g></g></g></g><g class="node"><g fill="#ffffff" stroke="#000000" stroke-width="4"><circle cx="104" cy="-200.1473670974871" r="52"/></g><g transform="translate(104 -200.1473670974871)"><g transform="scale(0.380859994140625) translate(0 0)"><g transform="translate(0 0)"><g font-family="sans-serif" font-size="50" font-weight="normal" fill="#000000" text-anchor="middle"><text xml:space="preserve" x="0" y="13" stroke="none">Document</text></g></g></g></g></g><g class="node"><g fill="#ffffff" stroke="#000000" stroke-width="4"><circle cx="-147.14736709748712" cy="51" r="52"/></g><g transform="translate(-147.14736709748712 51)"><g transform="scale(0.49218800781249994) translate(0 0)"><g transform="translate(0 0)"><g font-family="sans-serif" font-size="50" font-weight="normal" fill="#000000" text-anchor="middle"><text xml:space="preserve" x="0" y="13" stroke="none">Chunk</text><text xml:space="preserve" x="0" y="73" stroke="none" text-anchor="middle">1</text></g></g></g></g></g><g class="node"><g fill="#ffffff" stroke="#000000" stroke-width="4"><circle cx="104" cy="51" r="52"/></g><g transform="translate(104 51)"><g transform="scale(0.49218800781249994) translate(0 0)"><g transform="translate(0 0)"><g font-family="sans-serif" font-size="50" font-weight="normal" fill="#000000" text-anchor="middle"><text xml:space="preserve" x="0" y="13" stroke="none">Chunk</text><text xml:space="preserve" x="0" y="73" stroke="none" text-anchor="middle">2</text></g></g></g></g></g><g class="node"><g fill="#ffffff" stroke="#000000" stroke-width="4"><circle cx="355.1473670974871" cy="51" r="52"/></g><g transform="translate(355.1473670974871 51)"><g transform="scale(0.49218800781249994) translate(0 0)"><g transform="translate(0 0)"><g font-family="sans-serif" font-size="50" font-weight="normal" fill="#000000" text-anchor="middle"><text xml:space="preserve" x="0" y="13" stroke="none">Chunk</text><text xml:space="preserve" x="0" y="73" stroke="none" text-anchor="middle">3</text></g></g></g></g></g><g class="node"><g fill="#ffffff" stroke="#000000" stroke-width="4"><circle cx="-147.14736709748712" cy="287.23156532988367" r="52"/></g><g transform="translate(-147.14736709748712 287.23156532988367)"><g transform="scale(0.5156254843749999) translate(0 0)"><g transform="translate(0 0)"><g font-family="sans-serif" font-size="50" font-weight="normal" fill="#000000" text-anchor="middle"><text xml:space="preserve" x="0" y="-17" stroke="none">Entity</text><text xml:space="preserve" x="0" y="43" stroke="none" text-anchor="middle">A</text></g></g></g></g></g><g class="node"><g fill="#ffffff" stroke="#000000" stroke-width="4"><circle cx="104" cy="395.79030215220246" r="52"/></g><g transform="translate(104 395.79030215220246)"><g transform="scale(0.5156254843749999) translate(0 0)"><g transform="translate(0 0)"><g font-family="sans-serif" font-size="50" font-weight="normal" fill="#000000" text-anchor="middle"><text xml:space="preserve" x="0" y="-17" stroke="none">Entity</text><text xml:space="preserve" x="0" y="43" stroke="none" text-anchor="middle">B</text></g></g></g></g></g><g class="node"><g fill="#ffffff" stroke="#000000" stroke-width="4"><circle cx="466.2481783525487" cy="395.79030215220246" r="52"/></g><g transform="translate(466.2481783525487 395.79030215220246)"><g transform="scale(0.5156254843749999) translate(0 0)"><g transform="translate(0 0)"><g font-family="sans-serif" font-size="50" font-weight="normal" fill="#000000" text-anchor="middle"><text xml:space="preserve" x="0" y="-17" stroke="none">Entity</text><text xml:space="preserve" x="0" y="43" stroke="none" text-anchor="middle">D</text></g></g></g></g></g><g class="node"><g fill="#ffffff" stroke="#000000" stroke-width="4"><circle cx="233.62398959009272" cy="261.48466415018015" r="52"/></g><g transform="translate(233.62398959009272 261.48466415018015)"><g transform="scale(0.5156254843749999) translate(0 0)"><g transform="translate(0 0)"><g font-family="sans-serif" font-size="50" font-weight="normal" fill="#000000" text-anchor="middle"><text xml:space="preserve" x="0" y="-17" stroke="none">Entity</text><text xml:space="preserve" x="0" y="43" stroke="none" text-anchor="middle">C</text></g></g></g></g></g></g></svg>