<svg width="166" height="137" viewBox="0 0 166 137" fill="none" xmlns="http://www.w3.org/2000/svg">
  <path fill-rule="evenodd" clip-rule="evenodd"
    d="M154.992 57.8826L145.587 63.3772L145.42 123.223L145.444 123.214L145.428 123.223C145.469 123.661 145.395 124.102 145.214 124.503C145.032 124.903 144.75 125.249 144.394 125.505L153.791 120.01C154.148 119.753 154.431 119.406 154.613 119.004C154.794 118.602 154.867 118.159 154.825 117.72L154.825 117.72L154.992 57.8826Z"
    fill="#F5F7FA" />
  <path
    d="M145.587 63.3772L145.334 62.9455C145.181 63.0349 145.087 63.1986 145.087 63.3759L145.587 63.3772ZM154.992 57.8826L155.492 57.884C155.492 57.7046 155.397 57.5388 155.241 57.4493C155.086 57.3598 154.895 57.3604 154.74 57.4508L154.992 57.8826ZM145.42 123.223L144.92 123.222C144.919 123.387 145.001 123.542 145.137 123.636C145.274 123.729 145.448 123.749 145.602 123.689L145.42 123.223ZM145.444 123.214L145.697 123.645C145.922 123.513 146.008 123.23 145.894 122.996C145.78 122.761 145.505 122.653 145.262 122.748L145.444 123.214ZM145.428 123.223L145.175 122.792C145.008 122.89 144.912 123.076 144.93 123.27L145.428 123.223ZM145.214 124.503L145.669 124.709L145.214 124.503ZM144.394 125.505L144.102 125.099C143.885 125.255 143.829 125.554 143.975 125.777C144.12 126.001 144.416 126.071 144.646 125.936L144.394 125.505ZM153.791 120.01L154.043 120.442C154.057 120.434 154.07 120.425 154.083 120.416L153.791 120.01ZM154.613 119.004L155.069 119.21L154.613 119.004ZM154.825 117.72L154.52 117.324C154.383 117.429 154.311 117.597 154.327 117.768L154.825 117.72ZM154.825 117.72L155.131 118.116C155.253 118.021 155.325 117.876 155.325 117.721L154.825 117.72ZM145.839 63.809L155.244 58.3143L154.74 57.4508L145.334 62.9455L145.839 63.809ZM145.92 123.224L146.087 63.3786L145.087 63.3759L144.92 123.222L145.92 123.224ZM145.262 122.748L145.238 122.757L145.602 123.689L145.626 123.679L145.262 122.748ZM145.681 123.654L145.697 123.645L145.191 122.782L145.175 122.792L145.681 123.654ZM145.669 124.709C145.886 124.229 145.975 123.701 145.926 123.176L144.93 123.27C144.963 123.621 144.904 123.975 144.758 124.296L145.669 124.709ZM144.686 125.91C145.113 125.603 145.452 125.189 145.669 124.709L144.758 124.296C144.613 124.617 144.386 124.894 144.102 125.099L144.686 125.91ZM153.539 119.578L144.142 125.073L144.646 125.936L154.043 120.442L153.539 119.578ZM154.157 118.798C154.012 119.121 153.784 119.399 153.499 119.604L154.083 120.416C154.511 120.108 154.851 119.692 155.069 119.21L154.157 118.798ZM154.327 117.768C154.361 118.121 154.303 118.476 154.157 118.798L155.069 119.21C155.286 118.728 155.373 118.198 155.323 117.672L154.327 117.768ZM154.52 117.324L154.52 117.324L155.13 118.116L155.131 118.116L154.52 117.324ZM154.492 57.8812L154.325 117.719L155.325 117.721L155.492 57.884L154.492 57.8812Z"
    fill="#151E29" />
  <path fill-rule="evenodd" clip-rule="evenodd"
    d="M77.9145 10.2257L68.5176 15.7204C68.9184 15.5381 69.36 15.4653 69.7977 15.5095C70.2354 15.5537 70.6538 15.7133 71.0106 15.9721L74.0681 17.7328L142.051 57.2196L151.457 51.7249L80.4415 10.4688L80.4213 10.4806L80.4159 10.4774C80.0581 10.2171 79.6382 10.0567 79.1989 10.0125C78.7596 9.9683 78.3164 10.0418 77.9145 10.2257Z"
    fill="#F5F7FA" />
  <path
    d="M68.5176 15.7204L68.2652 15.2888L68.7246 16.1756L68.5176 15.7204ZM77.9145 10.2257L77.7065 9.77103L77.6837 9.78144L77.6621 9.79407L77.9145 10.2257ZM69.7977 15.5095L69.7475 16.0069H69.7475L69.7977 15.5095ZM71.0106 15.9721L70.7171 16.3769L70.7384 16.3923L70.7611 16.4054L71.0106 15.9721ZM74.0681 17.7328L74.3192 17.3004L74.3176 17.2995L74.0681 17.7328ZM142.051 57.2196L141.8 57.652L142.052 57.7983L142.303 57.6513L142.051 57.2196ZM151.457 51.7249L151.709 52.1567L152.45 51.7237L151.708 51.2926L151.457 51.7249ZM80.4415 10.4688L80.6927 10.0364L80.4406 9.88998L80.189 10.0372L80.4415 10.4688ZM80.4213 10.4806L80.165 10.9099L80.4187 11.0614L80.6738 10.9122L80.4213 10.4806ZM80.4159 10.4774L80.1217 10.8817L80.1401 10.8951L80.1597 10.9068L80.4159 10.4774ZM68.77 16.152L78.1669 10.6573L77.6621 9.79407L68.2652 15.2888L68.77 16.152ZM69.8479 15.012C69.3221 14.9589 68.7918 15.0464 68.3106 15.2653L68.7246 16.1756C69.0451 16.0298 69.3979 15.9716 69.7475 16.0069L69.8479 15.012ZM71.3042 15.5674C70.8761 15.2569 70.3738 15.0651 69.8479 15.012L69.7475 16.0069C70.097 16.0422 70.4315 16.1698 70.7171 16.3769L71.3042 15.5674ZM74.3176 17.2995L71.2602 15.5388L70.7611 16.4054L73.8185 18.1661L74.3176 17.2995ZM142.302 56.7873L74.3192 17.3004L73.8169 18.1652L141.8 57.652L142.302 56.7873ZM151.204 51.2932L141.799 56.7879L142.303 57.6513L151.709 52.1567L151.204 51.2932ZM80.1903 10.9011L151.205 52.1573L151.708 51.2926L80.6927 10.0364L80.1903 10.9011ZM80.6738 10.9122L80.694 10.9003L80.189 10.0372L80.1688 10.049L80.6738 10.9122ZM80.1597 10.9068L80.165 10.9099L80.6775 10.0513L80.6722 10.0481L80.1597 10.9068ZM79.1488 10.51C79.4998 10.5453 79.8355 10.6734 80.1217 10.8817L80.7101 10.0731C80.2808 9.76072 79.7767 9.5681 79.249 9.51501L79.1488 10.51ZM78.1225 10.6804C78.4438 10.5334 78.7978 10.4747 79.1488 10.51L79.249 9.51501C78.7213 9.46192 78.1891 9.55023 77.7065 9.77103L78.1225 10.6804Z"
    fill="#151E29" />
  <path
    d="M142.051 57.2199C143.083 57.8911 143.943 58.7991 144.559 59.8695C145.175 60.9399 145.53 62.1422 145.594 63.3774L145.428 123.223C145.428 125.488 143.827 126.394 141.859 125.253L70.844 84.0054C69.8131 83.3322 68.9549 82.4237 68.3391 81.3538C67.7233 80.2838 67.3674 79.0827 67.3003 77.8481L67.4754 18.0106C67.4754 15.7456 69.0763 14.8313 71.0357 15.9722L142.051 57.2199Z"
    fill="#8FE3E8" stroke="#151E29" />
  <mask id="mask0_1171_5314" style="mask-type:alpha" maskUnits="userSpaceOnUse" x="66" y="14"
    width="81" height="113">
    <path
      d="M142.051 57.2195C143.083 57.8906 143.943 58.7986 144.559 59.869C145.175 60.9394 145.53 62.1417 145.594 63.3769L145.428 123.223C145.428 125.488 143.827 126.394 141.859 125.253L70.844 84.0049C69.8131 83.3317 68.9549 82.4233 68.3391 81.3533C67.7233 80.2833 67.3674 79.0822 67.3003 77.8476L67.4754 18.0101C67.4754 15.7452 69.0763 14.8308 71.0357 15.9717L142.051 57.2195Z"
      fill="#F5F7FA" stroke="black" />
  </mask>
  <g mask="url(#mask0_1171_5314)">
    <path
      d="M143.088 50.0352L77.6197 88.0602M157.483 58.3964L92.0153 96.4214M171.879 66.7576L106.411 104.783M186.275 75.1188L120.806 113.144M187.577 91.0849L115.599 49.2791M174.483 98.6899L102.505 56.8841M161.389 106.295L89.4114 64.4891M148.296 113.9L76.3178 72.0941M128.692 41.6741L63.2242 79.6991L135.202 121.505L200.67 83.4799L128.692 41.6741Z"
      stroke="#E6F8FF" />
    <path
      d="M142.051 57.2195C143.083 57.8906 143.943 58.7986 144.559 59.869C145.175 60.9394 145.53 62.1417 145.594 63.3769L145.428 123.223C145.428 125.488 143.827 126.394 141.859 125.253L70.844 84.0049C69.8131 83.3317 68.9549 82.4233 68.3391 81.3533C67.7233 80.2833 67.3674 79.0822 67.3003 77.8476L67.4754 18.0101C67.4754 15.7452 69.0763 14.8308 71.0357 15.9717L142.051 57.2195Z"
      stroke="#151E29" />
    <path
      d="M142.051 57.2195C143.083 57.8906 143.943 58.7986 144.559 59.869C145.175 60.9394 145.53 62.1417 145.594 63.3769L145.428 123.223C145.428 125.488 143.827 126.394 141.859 125.253L70.844 84.0049C69.8131 83.3317 68.9549 82.4233 68.3391 81.3533C67.7233 80.2833 67.3674 79.0822 67.3003 77.8476L67.4754 18.0101C67.4754 15.7452 69.0763 14.8308 71.0357 15.9717L142.051 57.2195Z"
      stroke="black" stroke-opacity="0.2" />
  </g>
  <path d="M145.616 72.042L154.983 66.6018" stroke="#F5F7FA" />
  <path
    d="M155 66.6024L145.616 72.0426L145.595 63.3775C145.53 62.1423 145.176 60.94 144.56 59.8696C143.944 58.7992 143.084 57.8912 142.051 57.2201L151.457 51.7253C152.488 52.3975 153.347 53.3057 153.963 54.3759C154.579 55.4461 154.934 56.6479 155 57.8828V66.6024Z"
    fill="#F5F7FA" />
  <path
    d="M145.616 72.0426L145.116 72.0438L145.118 72.9092L145.866 72.4752L145.616 72.0426ZM155 66.6024L155.251 67.035L155.5 66.8905V66.6024H155ZM142.051 57.2201L141.799 56.7883C141.649 56.8758 141.556 57.0347 141.551 57.2082C141.547 57.3816 141.633 57.5448 141.779 57.6393L142.051 57.2201ZM151.457 51.7253L151.73 51.3064C151.571 51.2031 151.368 51.1982 151.204 51.2936L151.457 51.7253ZM153.963 54.3759L153.53 54.6253L153.963 54.3759ZM155 57.8828H155.5C155.5 57.8739 155.5 57.8651 155.5 57.8562L155 57.8828ZM145.595 63.3775L146.095 63.3763C146.095 63.368 146.095 63.3597 146.094 63.3515L145.595 63.3775ZM145.866 72.4752L155.251 67.035L154.749 66.1698L145.365 71.61L145.866 72.4752ZM142.303 57.6518L151.709 52.1571L151.204 51.2936L141.799 56.7883L142.303 57.6518ZM151.184 52.1443C152.149 52.7732 152.953 53.6233 153.53 54.6253L154.396 54.1265C153.741 52.9882 152.828 52.0218 151.73 51.3064L151.184 52.1443ZM153.53 54.6253C154.106 55.6274 154.439 56.7528 154.501 57.9094L155.5 57.8562C155.43 56.543 155.052 55.2649 154.396 54.1265L153.53 54.6253ZM146.094 63.3515C146.026 62.0378 145.648 60.7589 144.993 59.6202L144.126 60.119C144.703 61.1211 145.035 62.2469 145.096 63.4036L146.094 63.3515ZM144.993 59.6202C144.338 58.4815 143.423 57.5152 142.324 56.8008L141.779 57.6393C142.745 58.2672 143.55 59.117 144.126 60.119L144.993 59.6202ZM145.095 63.3787L145.116 72.0438L146.116 72.0414L146.095 63.3763L145.095 63.3787ZM154.5 57.8828V66.6024H155.5V57.8828H154.5Z"
    fill="#151E29" />
  <path
    d="M142.051 57.2201L151.457 51.7253C152.488 52.3975 153.347 53.3057 153.963 54.3759C154.579 55.4461 154.934 56.6479 155 57.8828L145.595 63.3775C145.53 62.1423 145.176 60.94 144.56 59.8696C143.944 58.7992 143.084 57.8912 142.051 57.2201Z"
    fill="#F5F7FA" stroke="#151E29" stroke-linejoin="round" />
  <path d="M145.596 63.3774L145.428 123.223" stroke="#151E29" />
  <path d="M145.596 63.3774L145.428 123.223" stroke="black" stroke-opacity="0.2" />
  <path
    d="M144.559 59.87C143.943 58.7996 143.084 57.8916 142.051 57.2204L71.0359 15.9727C69.0765 14.8318 67.4756 15.7461 67.4756 18.0111L67.4536 26.5327L145.574 71.9005L145.595 63.3779C145.53 62.1427 145.175 60.9404 144.559 59.87Z"
    stroke="#151E29" />
  <path
    d="M144.559 59.87C143.943 58.7996 143.084 57.8916 142.051 57.2204L71.0359 15.9727C69.0765 14.8318 67.4756 15.7461 67.4756 18.0111L67.4536 26.5327L145.574 71.9005L145.595 63.3779C145.53 62.1427 145.175 60.9404 144.559 59.87Z"
    fill="#F5F7FA" stroke="#151E29" />
  <ellipse cx="72.9848" cy="23.2984" rx="2.50141" ry="2.51664" fill="#FFAA97" stroke="#151E29" />
  <ellipse cx="80.165" cy="27.4869" rx="2.50141" ry="2.51664" fill="#FFCF72" stroke="#151E29" />
  <ellipse cx="87.3452" cy="31.6756" rx="2.50141" ry="2.51664" fill="#8FE3E8" stroke="#151E29" />
  <path opacity="0.2"
    d="M103.941 76.4715C108.153 78.9188 108.176 82.8992 103.99 85.3446C99.8048 87.79 92.9749 87.7919 88.763 85.3446C84.5511 82.8973 84.5284 78.915 88.7138 76.4696C92.8992 74.0242 99.7272 74.0242 103.941 76.4715Z"
    fill="#30839D" />
  <path
    d="M110.095 69.7355C110.059 77.3815 103.887 83.5686 96.2794 83.5686C88.6493 83.5686 82.4639 77.3455 82.4639 69.6689C82.4639 69.6629 82.4639 69.657 82.4639 69.6511C82.4684 71.7196 83.8274 73.7896 86.5378 75.3645C91.9444 78.506 100.712 78.5036 106.084 75.3645C108.742 73.8115 110.078 71.7762 110.095 69.7355Z"
    fill="#FFCF72" />
  <path
    d="M110.095 69.6689C110.095 69.6746 110.095 69.6804 110.095 69.6861M110.095 69.7355C110.059 77.3815 103.887 83.5686 96.2794 83.5686C88.6493 83.5686 82.4639 77.3455 82.4639 69.6689C82.4639 69.6629 82.4639 69.657 82.4639 69.6511C82.4684 71.7196 83.8274 73.7896 86.5378 75.3645C91.9444 78.506 100.712 78.5036 106.084 75.3645C108.742 73.8115 110.078 71.7762 110.095 69.7355Z"
    stroke="#151E29" stroke-width="0.8" stroke-linejoin="round" />
  <path
    d="M106.021 63.9751C111.428 67.1166 111.457 72.2261 106.084 75.3652C100.712 78.5042 91.9444 78.5067 86.5378 75.3652C81.1311 72.2236 81.102 67.1117 86.4746 63.9726C91.8472 60.8336 100.612 60.8336 106.021 63.9751Z"
    fill="white" stroke="#624100" stroke-width="0.8" stroke-linejoin="round" />
  <path opacity="0.2"
    d="M101.58 69.7118C101.584 68.056 99.2851 66.7072 96.4443 66.6991C93.6035 66.691 91.2968 68.0267 91.2921 69.6824C91.2875 71.3382 93.5866 72.687 96.4274 72.6951C99.2682 72.7032 101.575 71.3675 101.58 69.7118Z"
    fill="#30839D" />
  <path
    d="M91.9201 68.2988C91.8989 68.4742 91.8876 68.6527 91.8868 68.8337L91.8868 68.8334C91.8867 68.8389 91.8867 68.8445 91.8867 68.85C91.8867 68.8519 91.8867 68.8537 91.8867 68.8556L91.8867 68.8614C91.8853 69.5376 92.3243 70.2134 93.2049 70.7278C94.0915 71.2459 95.2592 71.5038 96.4273 71.5015C97.5953 71.5038 98.763 71.2459 99.6497 70.7278C100.53 70.2134 100.969 69.5376 100.968 68.8614L100.968 68.8556C100.968 66.3326 98.9349 64.2874 96.4273 64.2874C96.271 64.2874 96.1166 64.2953 95.9643 64.3108C93.8566 64.5255 92.1747 66.1907 91.9201 68.2988Z"
    fill="#FFCF72" />
  <path
    d="M91.8867 68.85C91.8867 68.8445 91.8867 68.8389 91.8868 68.8334L91.8868 68.8337C91.8876 68.6527 91.8989 68.4742 91.9201 68.2988C92.1747 66.1907 93.8566 64.5255 95.9643 64.3108C96.1166 64.2953 96.271 64.2874 96.4273 64.2874C98.9349 64.2874 100.968 66.3326 100.968 68.8556L100.968 68.8614C100.969 69.5376 100.53 70.2134 99.6497 70.7278C98.763 71.2459 97.5953 71.5038 96.4273 71.5015C95.2592 71.5038 94.0915 71.2459 93.2049 70.7278C92.3243 70.2134 91.8853 69.5376 91.8867 68.8614L91.8867 68.8556M91.8867 68.85C91.8867 68.8519 91.8867 68.8537 91.8867 68.8556M91.8867 68.85L91.8867 68.8556"
    stroke="#624100" stroke-width="0.8" stroke-linejoin="round" />
  <path opacity="0.4" fill-rule="evenodd" clip-rule="evenodd"
    d="M95.7116 64.6236C95.5499 64.5573 95.3836 64.5001 95.2132 64.4526C95.4562 64.3849 95.7073 64.337 95.9648 64.3108C96.117 64.2953 96.2714 64.2874 96.4277 64.2874C98.9354 64.2874 100.968 66.3326 100.968 68.8556L100.968 68.8614C100.97 69.5376 100.531 70.2134 99.6501 70.7278C98.7635 71.2459 97.5958 71.5038 96.4277 71.5015C96.0188 71.5023 95.61 71.4712 95.2132 71.4082C95.9499 71.2913 96.6449 71.0645 97.2211 70.7278C98.1017 70.2134 98.5407 69.5376 98.5393 68.8614L98.5393 68.8556C98.5393 67.9716 98.2897 67.1463 97.8577 66.4471C97.6583 66.5415 97.4356 66.5942 97.2007 66.5942C96.3474 66.5942 95.6556 65.8982 95.6556 65.0397C95.6556 64.8956 95.6751 64.756 95.7116 64.6236Z"
    fill="#FFA901" />
  <path
    d="M91.8867 68.8556C91.8867 68.8537 91.8867 68.8519 91.8867 68.85C91.8867 68.8445 91.8867 68.839 91.8868 68.8335L91.8868 68.8334L91.8868 68.8337C91.8876 68.6527 91.8989 68.4742 91.9201 68.2988C92.1747 66.1907 93.8566 64.5255 95.9643 64.3108C96.1166 64.2953 96.271 64.2874 96.4273 64.2874C98.9349 64.2874 100.968 66.3326 100.968 68.8556L100.968 68.8614C100.969 69.5376 100.53 70.2134 99.6497 70.7278C98.763 71.2459 97.5953 71.5038 96.4273 71.5015C95.2592 71.5038 94.0915 71.2459 93.2049 70.7278C92.3243 70.2134 91.8853 69.5376 91.8867 68.8614L91.8867 68.8556ZM91.8867 68.8556L91.8867 68.8499"
    stroke="#624100" stroke-width="0.8" stroke-linejoin="round" />
  <ellipse cx="2.36593" cy="2.3516" rx="2.36593" ry="2.3516"
    transform="matrix(-4.34468e-08 1 1 4.39776e-08 94.084 61.0408)" fill="#FFCF72" />
  <path fill-rule="evenodd" clip-rule="evenodd"
    d="M97.6357 62.914C97.6357 64.2207 96.5828 65.28 95.2841 65.28C95.179 65.28 95.0755 65.273 94.9741 65.2596C95.3756 65.5807 95.8837 65.7725 96.4364 65.7725C97.7352 65.7725 98.788 64.7133 98.788 63.4066C98.788 62.2056 97.8986 61.2137 96.7464 61.061C97.2882 61.4945 97.6357 62.1634 97.6357 62.914Z"
    fill="#DA9105" />
  <path
    d="M96.4356 65.3726C97.5111 65.3726 98.3872 64.4947 98.3872 63.4067C98.3872 62.3187 97.5111 61.4408 96.4356 61.4408C95.36 61.4408 94.484 62.3187 94.484 63.4067C94.484 64.4947 95.36 65.3726 96.4356 65.3726Z"
    stroke="#624100" stroke-width="0.8" />
  <path
    d="M82.5654 67.9755C82.501 68.5092 82.4666 69.0522 82.464 69.6029L82.464 69.602C82.4639 69.6188 82.4638 69.6359 82.4639 69.6526C82.4639 69.6583 82.4639 69.6639 82.4639 69.6695L82.4639 69.6872C82.4594 71.7449 83.7953 73.8009 86.4746 75.3663C89.1723 76.9426 92.7254 77.7273 96.2794 77.7203C99.8335 77.7273 103.387 76.9426 106.084 75.3663C108.764 73.8009 110.099 71.7449 110.095 69.6872L110.095 69.6695C110.095 61.9929 103.91 55.7698 96.2794 55.7698C95.8039 55.7698 95.334 55.7939 94.8709 55.8411C88.4575 56.4945 83.3401 61.5611 82.5654 67.9755Z"
    fill="white" fill-opacity="0.3" />
  <path
    d="M82.4639 69.6526C82.4638 69.6359 82.4639 69.6188 82.464 69.602L82.464 69.6029C82.4666 69.0522 82.501 68.5092 82.5654 67.9755C83.3401 61.5611 88.4575 56.4945 94.8709 55.8411C95.334 55.7939 95.8039 55.7698 96.2794 55.7698C103.91 55.7698 110.095 61.9929 110.095 69.6695L110.095 69.6872C110.099 71.7449 108.764 73.8009 106.084 75.3663C103.387 76.9426 99.8335 77.7273 96.2794 77.7203C92.7254 77.7273 89.1723 76.9426 86.4746 75.3663C83.7953 73.8009 82.4594 71.7449 82.4639 69.6872L82.4639 69.6695M82.4639 69.6526C82.4639 69.6583 82.4639 69.6639 82.4639 69.6695M82.4639 69.6526L82.4639 69.6695"
    stroke="#151E29" stroke-width="0.8" stroke-linejoin="round" />
  <path opacity="0.2"
    d="M66.4772 87.2408C70.6891 89.6881 70.7118 93.6685 66.5264 96.1139C62.341 98.5593 55.5111 98.5612 51.2991 96.1139C47.0872 93.6666 47.0645 89.6842 51.2499 87.2388C55.4353 84.7934 62.2634 84.7934 66.4772 87.2408Z"
    fill="#30839D" />
  <path
    d="M72.631 80.5048C72.5953 88.1507 66.4236 94.3379 58.8156 94.3379C51.1854 94.3379 45 88.1148 45 80.4381C45 80.4322 45 80.4263 45 80.4204C45.0045 82.4889 46.3635 84.5589 49.0739 86.1338C54.4805 89.2753 63.2478 89.2729 68.6204 86.1338C71.2785 84.5808 72.6144 82.5455 72.631 80.5048Z"
    fill="#FFAA97" />
  <path
    d="M72.6312 80.4381C72.6312 80.4439 72.6312 80.4496 72.6311 80.4554M72.631 80.5048C72.5953 88.1507 66.4236 94.3379 58.8156 94.3379C51.1854 94.3379 45 88.1148 45 80.4381C45 80.4322 45 80.4263 45 80.4204C45.0045 82.4889 46.3635 84.5589 49.0739 86.1338C54.4805 89.2753 63.2478 89.2729 68.6204 86.1338C71.2785 84.5808 72.6144 82.5455 72.631 80.5048Z"
    stroke="#151E29" stroke-width="0.8" stroke-linejoin="round" />
  <path
    d="M68.5573 74.7439C73.9639 77.8854 73.9931 82.9949 68.6204 86.134C63.2478 89.273 54.4805 89.2755 49.0739 86.134C43.6672 82.9924 43.6381 77.8805 49.0107 74.7414C54.3833 71.6024 63.1482 71.6024 68.5573 74.7439Z"
    fill="white" stroke="#D43300" stroke-width="0.8" stroke-linejoin="round" />
  <path opacity="0.2"
    d="M64.1157 80.4808C64.1204 78.825 61.8212 77.4762 58.9804 77.4681C56.1396 77.46 53.8329 78.7957 53.8283 80.4515C53.8236 82.1072 56.1227 83.456 58.9636 83.4641C61.8044 83.4722 64.1111 82.1365 64.1157 80.4808Z"
    fill="#30839D" />
  <path
    d="M54.4557 79.0678C54.4346 79.2433 54.4233 79.4217 54.4224 79.6027L54.4224 79.6024C54.4224 79.6079 54.4224 79.6136 54.4224 79.6191C54.4224 79.6209 54.4224 79.6228 54.4224 79.6246L54.4224 79.6304C54.4209 80.3067 54.86 80.9824 55.7405 81.4969C56.6271 82.0149 57.7949 82.2728 58.9629 82.2705C60.131 82.2728 61.2987 82.0149 62.1853 81.4969C63.0659 80.9824 63.5049 80.3067 63.5035 79.6304L63.5035 79.6246C63.5035 77.1017 61.4706 75.0564 58.9629 75.0564C58.8066 75.0564 58.6522 75.0643 58.5 75.0798C56.3922 75.2946 54.7103 76.9597 54.4557 79.0678Z"
    fill="#FFAA97" />
  <path
    d="M54.4224 79.6191C54.4224 79.6136 54.4224 79.6079 54.4224 79.6024L54.4224 79.6027C54.4233 79.4217 54.4346 79.2433 54.4557 79.0678C54.7103 76.9597 56.3922 75.2946 58.5 75.0798C58.6522 75.0643 58.8066 75.0564 58.9629 75.0564C61.4706 75.0564 63.5035 77.1017 63.5035 79.6246L63.5035 79.6304C63.5049 80.3067 63.0659 80.9824 62.1853 81.4969C61.2987 82.0149 60.131 82.2728 58.9629 82.2705C57.7949 82.2728 56.6271 82.0149 55.7405 81.4969C54.86 80.9824 54.4209 80.3067 54.4224 79.6304L54.4224 79.6246M54.4224 79.6191C54.4224 79.6209 54.4224 79.6228 54.4224 79.6246M54.4224 79.6191L54.4224 79.6246"
    stroke="#D43300" stroke-width="0.8" stroke-linejoin="round" />
  <path opacity="0.4" fill-rule="evenodd" clip-rule="evenodd"
    d="M58.2471 75.3926C58.0855 75.3263 57.9192 75.2691 57.7489 75.2216C57.9483 75.1661 58.1532 75.1239 58.3627 75.096C58.3627 75.096 58.3627 75.096 58.3627 75.096C58.4083 75.0899 58.4541 75.0845 58.5002 75.0798C58.6524 75.0643 58.8068 75.0564 58.9631 75.0564C58.9632 75.0564 58.9632 75.0564 58.9632 75.0564C58.9633 75.0564 58.9633 75.0564 58.9634 75.0564C61.471 75.0564 63.5039 77.1017 63.5039 79.6246L63.5039 79.6304C63.5054 80.3067 63.0663 80.9824 62.1858 81.4969C61.2991 82.0149 60.1314 82.2728 58.9634 82.2705C58.5545 82.2713 58.1456 82.2403 57.7489 82.1773C58.4855 82.0604 59.1805 81.8336 59.7568 81.4969C60.6373 80.9824 61.0764 80.3067 61.0749 79.6304L61.0749 79.6246C61.0749 78.7405 60.8253 77.9151 60.3931 77.2158C60.1938 77.3101 59.9712 77.3628 59.7364 77.3628C58.883 77.3628 58.1913 76.6669 58.1913 75.8083C58.1913 75.6643 58.2107 75.5249 58.2471 75.3926Z"
    fill="#F96746" />
  <path
    d="M54.4224 79.6246C54.4224 79.6228 54.4224 79.6209 54.4224 79.6191C54.4224 79.6136 54.4224 79.6081 54.4224 79.6025L54.4224 79.6024L54.4224 79.6027C54.4233 79.4217 54.4346 79.2433 54.4557 79.0678C54.7103 76.9597 56.3922 75.2946 58.5 75.0798C58.6522 75.0643 58.8066 75.0564 58.9629 75.0564C61.4706 75.0564 63.5035 77.1017 63.5035 79.6246L63.5035 79.6304C63.5049 80.3067 63.0659 80.9824 62.1853 81.4969C61.2987 82.0149 60.131 82.2728 58.9629 82.2705C57.7949 82.2728 56.6271 82.0149 55.7405 81.4969C54.86 80.9824 54.4209 80.3067 54.4224 79.6304L54.4224 79.6246ZM54.4224 79.6246L54.4224 79.6189"
    stroke="#D43300" stroke-width="0.8" stroke-linejoin="round" />
  <ellipse cx="2.36593" cy="2.3516" rx="2.36593" ry="2.3516"
    transform="matrix(-4.34468e-08 1 1 4.39776e-08 56.6196 71.8098)" fill="#FFAA97" />
  <path fill-rule="evenodd" clip-rule="evenodd"
    d="M60.1709 73.6828C60.1709 74.9895 59.1181 76.0488 57.8193 76.0488C57.7141 76.0488 57.6104 76.0418 57.5088 76.0283C57.9103 76.3497 58.4187 76.5417 58.9717 76.5417C60.2704 76.5417 61.3233 75.4825 61.3233 74.1758C61.3233 72.9751 60.4342 71.9832 59.2822 71.8303C59.8238 72.2638 60.1709 72.9325 60.1709 73.6828Z"
    fill="#ED1252" fill-opacity="0.5" />
  <path
    d="M58.9712 76.1417C60.0468 76.1417 60.9228 75.2638 60.9228 74.1757C60.9228 73.0877 60.0468 72.2098 58.9712 72.2098C57.8957 72.2098 57.0196 73.0877 57.0196 74.1757C57.0196 75.2638 57.8957 76.1417 58.9712 76.1417Z"
    stroke="#D43300" stroke-width="0.8" />
  <path
    d="M45.1016 78.7443C45.0371 79.278 45.0027 79.821 45.0002 80.3717L45.0002 80.3708C45 80.3876 45 80.4047 45 80.4214C45 80.4271 45 80.4327 45 80.4383L45 80.456C44.9956 82.5137 46.3315 84.5697 49.0107 86.1351C51.7085 87.7114 55.2615 88.4961 58.8156 88.4891C62.3696 88.4961 65.9227 87.7114 68.6204 86.1351C71.2997 84.5697 72.6356 82.5137 72.6311 80.456L72.6311 80.4383C72.6311 72.7617 66.4457 66.5386 58.8156 66.5386C58.3401 66.5386 57.8702 66.5627 57.407 66.6099C50.9937 67.2633 45.8762 72.3299 45.1016 78.7443Z"
    fill="white" fill-opacity="0.3" />
  <path
    d="M45 80.4214C45 80.4047 45 80.3876 45.0002 80.3708L45.0002 80.3717C45.0027 79.821 45.0371 79.278 45.1016 78.7443C45.8762 72.3299 50.9937 67.2633 57.407 66.6099C57.8702 66.5627 58.3401 66.5386 58.8156 66.5386C66.4457 66.5386 72.6311 72.7617 72.6311 80.4383L72.6311 80.456C72.6356 82.5137 71.2997 84.5697 68.6204 86.1351C65.9227 87.7114 62.3696 88.4961 58.8156 88.4891C55.2615 88.4961 51.7085 87.7114 49.0107 86.1351C46.3315 84.5697 44.9956 82.5137 45 80.456L45 80.4383M45 80.4214C45 80.4271 45 80.4327 45 80.4383M45 80.4214L45 80.4383"
    stroke="#151E29" stroke-width="0.8" stroke-linejoin="round" />
  <path opacity="0.2"
    d="M125.128 114.735C129.821 117.462 129.846 121.898 125.183 124.622C120.519 127.347 112.908 127.349 108.215 124.622C103.522 121.895 103.496 117.458 108.16 114.733C112.824 112.008 120.432 112.008 125.128 114.735Z"
    fill="#5DB3BF" />
  <path
    d="M131.985 107.229C131.945 115.749 125.068 122.643 116.591 122.643C108.089 122.643 101.196 115.709 101.196 107.155C101.196 107.148 101.196 107.142 101.196 107.135C101.201 109.44 102.716 111.747 105.736 113.501C111.76 117.002 121.53 116.999 127.516 113.501C130.478 111.771 131.967 109.503 131.985 107.229Z"
    fill="#8FE3E8" />
  <path
    d="M131.985 107.155C131.985 107.161 131.985 107.168 131.985 107.174M131.985 107.229C131.945 115.749 125.068 122.643 116.591 122.643C108.089 122.643 101.196 115.709 101.196 107.155C101.196 107.148 101.196 107.142 101.196 107.135C101.201 109.44 102.716 111.747 105.736 113.501C111.76 117.002 121.53 116.999 127.516 113.501C130.478 111.771 131.967 109.503 131.985 107.229Z"
    stroke="#151E29" stroke-width="0.8" stroke-linejoin="round" />
  <path
    d="M127.446 100.81C133.47 104.31 133.503 110.004 127.516 113.502C121.53 116.999 111.76 117.002 105.736 113.502C99.7112 110.001 99.6787 104.305 105.665 100.807C111.652 97.3093 121.419 97.3093 127.446 100.81Z"
    fill="white" stroke="#02507B" stroke-width="0.8" stroke-linejoin="round" />
  <path opacity="0.2"
    d="M122.497 107.202C122.502 105.357 119.94 103.854 116.774 103.845C113.609 103.836 111.039 105.325 111.033 107.17C111.028 109.015 113.59 110.518 116.756 110.527C119.921 110.536 122.491 109.047 122.497 107.202Z"
    fill="#5DB3BF" />
  <path
    d="M111.733 105.628C111.709 105.823 111.697 106.022 111.696 106.224L111.696 106.224C111.696 106.23 111.696 106.236 111.696 106.242C111.696 106.244 111.696 106.246 111.696 106.248L111.696 106.255C111.694 107.008 112.183 107.761 113.165 108.335C114.153 108.912 115.454 109.199 116.755 109.197C118.057 109.199 119.358 108.912 120.346 108.335C121.327 107.761 121.816 107.008 121.815 106.255L121.815 106.248C121.815 103.437 119.55 101.158 116.755 101.158C116.581 101.158 116.409 101.167 116.239 101.184C113.891 101.423 112.017 103.279 111.733 105.628Z"
    fill="#8FE3E8" />
  <path
    d="M111.696 106.242C111.696 106.236 111.696 106.23 111.696 106.224L111.696 106.224C111.697 106.022 111.709 105.823 111.733 105.628C112.017 103.279 113.891 101.423 116.239 101.184C116.409 101.167 116.581 101.158 116.755 101.158C119.55 101.158 121.815 103.437 121.815 106.248L121.815 106.255C121.816 107.008 121.327 107.761 120.346 108.335C119.358 108.912 118.057 109.199 116.755 109.197C115.454 109.199 114.153 108.912 113.165 108.335C112.183 107.761 111.694 107.008 111.696 106.255L111.696 106.248M111.696 106.242C111.696 106.244 111.696 106.246 111.696 106.248M111.696 106.242L111.696 106.248"
    stroke="#02507B" stroke-width="0.8" stroke-linejoin="round" />
  <path opacity="0.4" fill-rule="evenodd" clip-rule="evenodd"
    d="M115.958 101.533C115.777 101.459 115.592 101.395 115.402 101.342C115.625 101.28 115.853 101.233 116.087 101.202C116.087 101.202 116.087 101.202 116.087 101.202C116.137 101.195 116.188 101.189 116.24 101.184C116.371 101.171 116.503 101.162 116.637 101.159C116.677 101.158 116.716 101.158 116.755 101.158C119.55 101.158 121.815 103.437 121.815 106.248L121.815 106.255C121.817 107.008 121.327 107.761 120.346 108.335C119.358 108.912 118.057 109.199 116.755 109.197C116.3 109.197 115.844 109.163 115.402 109.093C116.223 108.962 116.998 108.71 117.64 108.335C118.621 107.761 119.11 107.008 119.108 106.255L119.108 106.248C119.108 105.263 118.83 104.344 118.349 103.565C118.127 103.67 117.879 103.729 117.617 103.729C116.666 103.729 115.895 102.953 115.895 101.996C115.895 101.836 115.917 101.68 115.958 101.533Z"
    fill="#30839D" />
  <path
    d="M111.696 106.248C111.696 106.246 111.696 106.244 111.696 106.242C111.696 106.236 111.696 106.23 111.696 106.224L111.696 106.224L111.696 106.224C111.697 106.022 111.709 105.823 111.733 105.628C112.017 103.279 113.891 101.423 116.239 101.184C116.409 101.167 116.581 101.158 116.755 101.158C119.55 101.158 121.815 103.437 121.815 106.248L121.815 106.255C121.816 107.008 121.327 107.761 120.346 108.335C119.358 108.912 118.057 109.199 116.755 109.197C115.454 109.199 114.153 108.912 113.165 108.335C112.183 107.761 111.694 107.008 111.696 106.255L111.696 106.248ZM111.696 106.248L111.696 106.242"
    stroke="#02507B" stroke-width="0.8" stroke-linejoin="round" />
  <ellipse cx="2.63632" cy="2.62036" rx="2.63632" ry="2.62036"
    transform="matrix(-4.34468e-08 1 1 4.39776e-08 114.144 97.5405)" fill="#8FE3E8" />
  <path fill-rule="evenodd" clip-rule="evenodd"
    d="M118.101 99.6277C118.101 101.084 116.928 102.264 115.48 102.264C115.363 102.264 115.248 102.256 115.135 102.241C115.582 102.599 116.149 102.813 116.765 102.813C118.212 102.813 119.385 101.633 119.385 100.177C119.385 98.8387 118.394 97.7335 117.11 97.5632C117.714 98.0462 118.101 98.7915 118.101 99.6277Z"
    fill="#30839D" />
  <path
    d="M116.764 102.413C117.988 102.413 118.984 101.414 118.984 100.177C118.984 98.9395 117.988 97.9405 116.764 97.9405C115.54 97.9405 114.544 98.9395 114.544 100.177C114.544 101.414 115.54 102.413 116.764 102.413Z"
    stroke="#02507B" stroke-width="0.8" />
  <path
    d="M101.309 105.267C101.238 105.862 101.199 106.467 101.196 107.081C101.196 107.099 101.196 107.118 101.196 107.136C101.196 107.142 101.196 107.149 101.196 107.155L101.196 107.175C101.191 109.468 102.68 111.759 105.665 113.503C108.671 115.259 112.631 116.134 116.591 116.126C120.551 116.134 124.51 115.259 127.516 113.503C130.502 111.759 131.99 109.468 131.985 107.175L131.985 107.155C131.985 98.6011 125.093 91.6667 116.591 91.6667C116.061 91.6667 115.537 91.6937 115.021 91.7463C107.875 92.4743 102.173 98.1199 101.309 105.267Z"
    fill="white" fill-opacity="0.3" />
  <path
    d="M101.196 107.136C101.196 107.118 101.196 107.099 101.196 107.081C101.199 106.467 101.238 105.862 101.309 105.267C102.173 98.1199 107.875 92.4743 115.021 91.7463C115.537 91.6937 116.061 91.6667 116.591 91.6667C125.093 91.6667 131.985 98.6011 131.985 107.155L131.985 107.175C131.99 109.468 130.502 111.759 127.516 113.503C124.51 115.259 120.551 116.134 116.591 116.126C112.631 116.134 108.671 115.259 105.665 113.503C102.68 111.759 101.191 109.468 101.196 107.175L101.196 107.155M101.196 107.136C101.196 107.142 101.196 107.149 101.196 107.155M101.196 107.136L101.196 107.155"
    stroke="#151E29" stroke-width="0.8" stroke-linejoin="round" />
</svg>