<svg width="166" height="137" viewBox="0 0 166 137" fill="none" xmlns="http://www.w3.org/2000/svg">
  <path opacity="0.1"
    d="M137.003 69.3934C157.475 81.1983 157.555 100.341 137.244 112.146C116.933 123.951 83.8873 123.951 63.4149 112.146C42.9426 100.341 42.862 81.1982 63.1731 69.3934C83.4843 57.5088 116.53 57.5088 137.003 69.3934Z"
    fill="#5CC3C9" />
  <path
    d="M152.159 74.4603L152.159 84.4306C152.159 91.9283 147.131 99.5057 136.995 105.328C116.885 116.974 83.7185 116.974 63.3647 105.328C53.1473 99.5057 48.0386 91.8485 48.0386 84.3508L48.0386 74.3008C48.0386 82.0377 53.0662 89.5354 63.3647 95.2783C83.7185 106.924 116.722 106.924 136.995 95.2783C147.131 89.5354 152.159 82.0377 152.159 74.4603Z"
    fill="#30839D" stroke="#151E29" stroke-linejoin="round" />
  <path
    d="M137.003 52.527C157.475 64.3318 157.555 83.4748 137.244 95.2796C116.933 107.084 83.8873 107.084 63.4149 95.2796C42.9426 83.4748 42.862 64.3318 63.1731 52.527C83.4843 40.6424 116.53 40.6424 137.003 52.527Z"
    fill="#8FE3E8" stroke="#151E29" stroke-linejoin="round" />
  <path fill-rule="evenodd" clip-rule="evenodd"
    d="M88.354 79.8399C94.1882 77.2186 101.195 72.3127 107.896 65.6889C114.597 59.0651 119.56 52.1393 122.212 46.3725C123.542 43.4799 124.231 41.008 124.348 39.0879C124.465 37.1638 124.002 36.1074 123.429 35.5412C122.857 34.975 121.788 34.5177 119.841 34.6334C117.899 34.7488 115.398 35.4295 112.472 36.7444C106.638 39.3656 99.6309 44.2716 92.9297 50.8954C86.2286 57.5192 81.2654 64.445 78.6135 70.2118C77.2833 73.1044 76.5946 75.5763 76.4778 77.4964C76.3608 79.4205 76.8235 80.4768 77.3963 81.0431C77.9691 81.6093 79.0378 82.0666 80.9844 81.9509C82.9269 81.8355 85.4276 81.1548 88.354 79.8399ZM81.2961 87.0774C78.4973 87.2437 75.7232 86.6523 73.7224 84.6746C71.7215 82.6969 71.1232 79.9548 71.2915 77.1883C71.4599 74.4177 72.4026 71.3068 73.8835 68.0866C76.8536 61.6277 82.2307 54.2079 89.2558 47.2639C96.2809 40.3199 103.787 35.0048 110.322 32.0689C113.579 30.6052 116.727 29.6734 119.53 29.5068C122.328 29.3405 125.102 29.9319 127.103 31.9097C129.104 33.8874 129.702 36.6295 129.534 39.396C129.366 42.1665 128.423 45.2775 126.942 48.4977C123.972 54.9565 118.595 62.3764 111.57 69.3204C104.545 76.2644 97.0383 81.5795 90.504 84.5154C87.2462 85.9791 84.099 86.9109 81.2961 87.0774Z"
    fill="white" stroke="#151E29" stroke-linejoin="round" />
  <path fill-rule="evenodd" clip-rule="evenodd"
    d="M78.6141 46.373C81.266 52.1398 86.2292 59.0656 92.9303 65.6894C99.6315 72.3132 106.638 77.2192 112.472 79.8404C115.399 81.1553 117.899 81.836 119.842 81.9514C121.788 82.0671 122.857 81.6098 123.43 81.0436C124.003 80.4774 124.465 79.421 124.348 77.4969C124.232 75.5768 123.543 73.1049 122.213 70.2123C119.561 64.4455 114.598 57.5197 107.897 50.8959C101.195 44.2721 94.1888 39.3662 88.3546 36.7449C85.4282 35.43 82.9275 34.7493 80.985 34.6339C79.0384 34.5182 77.9697 34.9755 77.3969 35.5417C76.8241 36.108 76.3614 37.1643 76.4784 39.0884C76.5952 41.0085 77.2839 43.4804 78.6141 46.373ZM71.2921 39.3965C71.1238 36.63 71.7221 33.8879 73.723 31.9102C75.7238 29.9325 78.4979 29.3411 81.2967 29.5074C84.0996 29.6739 87.2468 30.6057 90.5046 32.0694C97.0389 35.0053 104.545 40.3204 111.57 47.2644C118.596 54.2084 123.973 61.6283 126.943 68.0871C128.424 71.3073 129.366 74.4183 129.535 77.1888C129.703 79.9553 129.105 82.6974 127.104 84.6751C125.103 86.6529 122.329 87.2443 119.53 87.078C116.727 86.9114 113.58 85.9796 110.322 84.5159C103.788 81.58 96.2815 76.2649 89.2564 69.3209C82.2313 62.3769 76.8542 54.9571 73.8841 48.4982C72.4032 45.278 71.4605 42.167 71.2921 39.3965Z"
    fill="#FFCF72" stroke="#151E29" stroke-linejoin="round" />
  <path
    d="M54.2184 71.4716C54.2184 78.3312 58.732 84.9515 67.7592 90.136C85.7329 100.425 114.668 100.425 132.481 90.136C141.75 84.7919 146.102 77.6133 145.78 70.5942C145.457 39.806 124.985 14.9999 100.08 14.9999C74.7714 15.0796 54.2184 40.2845 54.2184 71.4716Z"
    stroke="#151E29" />
  <ellipse cx="8.34421" cy="8.39278" rx="8.34421" ry="8.39278"
    transform="matrix(0.504359 0.863494 -0.86852 0.495654 103.289 46.9275)" fill="#FFCF72" />
  <path opacity="0.5" fill-rule="evenodd" clip-rule="evenodd"
    d="M95.6103 58.9143C97.9346 62.8936 103.082 64.257 107.108 61.9596C107.436 61.7726 107.746 61.5671 108.038 61.3452C107.365 63.0347 106.131 64.5192 104.416 65.4976C100.39 67.7951 95.2427 66.4316 92.9184 62.4523C90.7834 58.7969 91.7735 54.2057 95.0694 51.7017C94.1622 53.9794 94.2758 56.6296 95.6103 58.9143Z"
    fill="#D9B54A" />
  <path
    d="M104.165 65.066C100.376 67.228 95.5368 65.9432 93.3532 62.2047C91.1696 58.4662 92.4636 53.6811 96.2519 51.5191C100.04 49.3572 104.88 50.642 107.063 54.3805C109.247 58.119 107.953 62.9041 104.165 65.066Z"
    stroke="#151E29" />
  <path
    d="M123.429 35.5414C122.856 34.9752 121.788 34.5179 119.841 34.6335C117.899 34.749 115.398 35.4297 112.472 36.7445C106.637 39.3658 99.6308 44.2718 92.9297 50.8956C86.2285 57.5194 81.2653 64.4452 78.6134 70.212C77.2832 73.1046 76.5945 75.5765 76.4778 77.4966C76.3608 79.4207 76.8234 80.477 77.3962 81.0433L73.7223 84.6748C71.7215 82.6971 71.1232 79.955 71.2914 77.1885C71.4599 74.4179 72.4026 71.307 73.8834 68.0868C76.8535 61.6279 82.2307 54.208 89.2557 47.264C96.2808 40.3201 103.787 35.0049 110.322 32.0691C113.579 30.6054 116.727 29.6736 119.53 29.507C122.328 29.3407 125.102 29.9321 127.103 31.9099L123.429 35.5414Z"
    fill="white" />
  <path
    d="M77.3962 81.0433C76.8234 80.477 76.3608 79.4207 76.4778 77.4966C76.5945 75.5765 77.2832 73.1046 78.6134 70.212C81.2653 64.4452 86.2285 57.5194 92.9297 50.8956C99.6308 44.2718 106.637 39.3658 112.472 36.7445C115.398 35.4297 117.899 34.749 119.841 34.6335C121.788 34.5179 122.856 34.9752 123.429 35.5414L127.103 31.9099C125.102 29.9321 122.328 29.3407 119.53 29.507C116.727 29.6736 113.579 30.6054 110.322 32.0691C103.787 35.0049 96.2808 40.3201 89.2557 47.2641C82.2307 54.208 76.8535 61.6279 73.8834 68.0868C72.4026 71.307 71.4599 74.4179 71.2914 77.1885C71.1232 79.955 71.7215 82.6971 73.7223 84.6748M77.3962 81.0433C77.9691 81.6095 79.0377 82.0668 80.9843 81.9511M77.3962 81.0433L73.7223 84.6748M73.7223 84.6748C75.7231 86.6525 78.4972 87.2439 81.296 87.0776"
    stroke="#151E29" stroke-linejoin="round" />
  <path
    d="M123.43 81.044C124.003 80.4778 124.465 79.4215 124.348 77.4974C124.231 75.5773 123.543 73.1054 122.212 70.2128C119.561 64.4459 114.597 57.5202 107.896 50.8964C101.195 44.2726 94.1885 39.3666 88.3543 36.7453C85.4279 35.4305 82.9272 34.7497 80.9847 34.6343C79.0381 34.5187 77.9694 34.976 77.3966 35.5422L73.7227 31.9106C75.7235 29.9329 78.4976 29.3415 81.2964 29.5078C84.0993 29.6743 87.2465 30.6062 90.5043 32.0699C97.0386 35.0057 104.545 40.3208 111.57 47.2648C118.595 54.2088 123.972 61.6287 126.943 68.0876C128.423 71.3078 129.366 74.4187 129.535 77.1892C129.703 79.9558 129.104 82.6978 127.104 84.6756L123.43 81.044Z"
    fill="#FFCF72" stroke="#151E29" stroke-linejoin="round" />
</svg>