<svg width="85" height="98" viewBox="0 0 85 98" fill="none" xmlns="http://www.w3.org/2000/svg">
    <g clip-path="url(#clip0_676_35348)">
        <rect opacity="0.4" width="48.9447" height="48.9447" rx="11"
            transform="matrix(0.866049 0.499959 -0.866049 0.499959 42.5586 38.0586)" fill="#006FD6" />
        <rect width="54.9139" height="54.9139" rx="11"
            transform="matrix(0.866049 0.499959 -0.866049 0.499959 42.5586 17.5)" fill="#A3E2FF"
            stroke="white" stroke-linejoin="round" />
        <path opacity="0.3"
            d="M26.7449 29.7021L31.0024 32.1653L34.0283 30.4512C34.6166 30.0773 35.2992 29.8786 35.9964 29.8786C36.6935 29.8786 37.3762 30.0773 37.9645 30.4512L46.6671 35.5124C48.0088 36.2672 49.4976 36.7238 51.0318 36.8512C52.4828 37.0327 53.956 36.8859 55.3429 36.4224C54.9785 36.7112 54.7114 37.1042 54.5774 37.5494C54.4433 37.9946 54.449 38.4711 54.5934 38.9131C54.7868 39.4626 55.0874 39.9675 55.4782 40.3997C55.869 40.8318 56.342 41.1824 56.8694 41.4299L65.572 46.4911C66.8841 47.2676 66.9108 48.017 65.572 48.7935L62.4925 50.5599L66.75 53.0506L72.1055 50.0252C73.8728 49.0076 74.7832 47.936 74.7832 46.8114C74.7832 45.6868 73.8996 44.6701 72.1055 43.6526L63.3225 38.5379C62.0639 37.8149 61.4213 37.1717 61.3678 36.6094C61.3142 36.047 61.689 35.4588 62.653 34.7894L64.1527 33.7447L60.0557 31.3612L58.2618 32.2189C57.2868 32.7517 56.1855 33.0102 55.0752 32.9681C53.8961 32.856 52.7593 32.4711 51.7548 31.8437L42.9986 26.7289C41.3792 25.7569 39.5316 25.2308 37.6431 25.2031C35.6926 25.2092 33.7791 25.7356 32.1004 26.7289L26.7449 29.7021Z"
            fill="#006FD6" stroke="#006FD6" stroke-linejoin="round" />
        <path d="M26.745 17.498L26.7718 26.2272L31.0293 28.7175L31.0025 19.9883L26.745 17.498Z"
            fill="#0056B3" stroke="#0056B3" stroke-linejoin="round" />
        <path fill-rule="evenodd" clip-rule="evenodd"
            d="M62.6534 22.5327L62.6534 22.5326L64.1529 21.4883L64.1797 30.2442L62.6802 31.2618L62.68 31.1846L62.653 31.2615C61.7962 31.8506 61.341 32.4132 61.341 32.922V24.1934C61.341 23.6043 61.7962 23.122 62.653 22.5329L62.6534 22.5327Z"
            fill="#0056B3" />
        <path
            d="M62.6534 22.5326L62.1534 22.5339C62.153 22.3699 62.233 22.216 62.3677 22.1223L62.6534 22.5326ZM62.6534 22.5327L63.1534 22.5314C63.1539 22.7038 63.0654 22.8643 62.9194 22.9561L62.6534 22.5327ZM64.1529 21.4883L63.8672 21.078C64.0197 20.9717 64.2187 20.9589 64.3837 21.0447C64.5486 21.1305 64.6523 21.3008 64.6529 21.4868L64.1529 21.4883ZM64.1797 30.2442L64.6797 30.2427C64.6802 30.409 64.598 30.5646 64.4604 30.658L64.1797 30.2442ZM62.6802 31.2618L62.9609 31.6755C62.808 31.7793 62.6102 31.7902 62.4467 31.7039C62.2833 31.6176 62.1808 31.4482 62.1802 31.2633L62.6802 31.2618ZM62.68 31.1846L62.208 31.0194C62.2884 30.7896 62.5228 30.6511 62.7629 30.6915C63.0031 30.7319 63.1792 30.9395 63.18 31.183L62.68 31.1846ZM62.653 31.2615L63.125 31.4267C63.0899 31.5269 63.0238 31.6134 62.9363 31.6735L62.653 31.2615ZM61.841 32.922C61.841 33.1981 61.6171 33.422 61.341 33.422C61.0649 33.422 60.841 33.1981 60.841 32.922H61.841ZM62.653 22.5329L62.3698 22.1209C62.3754 22.117 62.3812 22.1132 62.387 22.1096L62.653 22.5329ZM63.1534 22.5312L63.1534 22.5314L62.1534 22.534L62.1534 22.5339L63.1534 22.5312ZM64.4387 21.8986L62.9392 22.9429L62.3677 22.1223L63.8672 21.078L64.4387 21.8986ZM63.6797 30.2458L63.6529 21.4898L64.6529 21.4868L64.6797 30.2427L63.6797 30.2458ZM62.3994 30.848L63.8989 29.8305L64.4604 30.658L62.9609 31.6755L62.3994 30.848ZM63.18 31.183L63.1802 31.2602L62.1802 31.2633L62.18 31.1861L63.18 31.183ZM62.1811 31.0964L62.208 31.0194L63.1519 31.3497L63.125 31.4267L62.1811 31.0964ZM60.841 32.922C60.841 32.5149 61.0226 32.1399 61.2843 31.8107C61.5471 31.4801 61.9183 31.1599 62.3698 30.8495L62.9363 31.6735C62.5309 31.9523 62.2461 32.2078 62.0671 32.433C61.887 32.6596 61.841 32.8203 61.841 32.922H60.841ZM61.841 24.1934V32.922H60.841V24.1934H61.841ZM62.9363 22.945C62.0637 23.5449 61.841 23.8925 61.841 24.1934H60.841C60.841 23.3162 61.5286 22.6992 62.3698 22.1209L62.9363 22.945ZM62.9194 22.9561L62.919 22.9563L62.387 22.1096L62.3874 22.1093L62.9194 22.9561Z"
            fill="#0056B3" />
        <path
            d="M34.1358 26.9102C34.6972 26.5731 35.3404 26.3952 35.9969 26.3952C36.6955 26.3952 37.379 26.5967 37.965 26.977V26.9357L46.7748 32.0116L46.7748 31.9997C48.1066 32.7525 49.5873 33.2044 51.1127 33.3234C52.5619 33.5003 54.0322 33.3636 55.4238 32.922V24.166C54.0369 24.6295 52.5637 24.7763 51.1127 24.5948C49.5785 24.4674 48.0898 24.0108 46.748 23.256V23.2824L37.674 17.9638V18.0816C37.1566 17.8157 36.5819 17.6758 35.9969 17.6758C35.3313 17.6758 34.6788 17.8569 34.1091 18.1988L34.1091 18.1948L31.0029 19.9889L31.0297 28.7181L34.1359 26.924L34.1358 26.9102Z"
            fill="#0056B3" stroke="#0056B3" stroke-linejoin="round" />
        <path fill-rule="evenodd" clip-rule="evenodd"
            d="M54.674 26.6562V35.3848C54.8647 35.9358 55.1648 36.4428 55.5559 36.8753C55.9469 37.3078 56.4212 37.6566 56.9503 37.9017L56.977 37.9166L56.977 37.9287L65.6795 42.9895L65.6794 42.9628C66.3219 43.3644 66.6699 43.7397 66.6699 44.1146V35.3847C66.6699 35.0098 66.3218 34.6358 65.6792 34.2341L65.6527 34.2503L65.6527 34.2335L56.9638 29.2073L56.9503 29.1731C56.4229 28.9255 55.9499 28.575 55.5591 28.1428C55.1684 27.7107 54.8674 27.2058 54.674 26.6562Z"
            fill="#0056B3" />
        <path
            d="M54.674 35.3848L54.2015 35.5484C54.1833 35.4958 54.174 35.4405 54.174 35.3848H54.674ZM54.674 26.6562H54.174C54.174 26.4126 54.3496 26.2044 54.5898 26.1634C54.83 26.1224 55.0647 26.2604 55.1456 26.4902L54.674 26.6562ZM55.5559 36.8753L55.185 37.2107L55.185 37.2107L55.5559 36.8753ZM56.9503 37.9017L57.1604 37.448C57.1719 37.4533 57.1831 37.459 57.1941 37.4652L56.9503 37.9017ZM56.977 37.9166L57.2209 37.4801C57.3785 37.5682 57.4765 37.7345 57.477 37.9151L56.977 37.9166ZM56.977 37.9287L56.7257 38.3609C56.5722 38.2717 56.4776 38.1078 56.4771 37.9303L56.977 37.9287ZM65.6795 42.9895L66.1795 42.988C66.18 43.1672 66.0846 43.3329 65.9294 43.4225C65.7743 43.5121 65.583 43.5118 65.4281 43.4217L65.6795 42.9895ZM65.6794 42.9628L65.1794 42.9643C65.1788 42.7823 65.2773 42.6144 65.4363 42.5259C65.5954 42.4374 65.79 42.4423 65.9444 42.5388L65.6794 42.9628ZM67.1699 44.1146C67.1699 44.3907 66.9461 44.6146 66.6699 44.6146C66.3938 44.6146 66.1699 44.3907 66.1699 44.1146H67.1699ZM65.6792 34.2341L65.4186 33.8074C65.5802 33.7087 65.7836 33.7098 65.9442 33.8101L65.6792 34.2341ZM65.6527 34.2503L65.9134 34.677C65.7593 34.7711 65.5664 34.7748 65.4088 34.6867C65.2512 34.5986 65.1533 34.4324 65.1527 34.2518L65.6527 34.2503ZM65.6527 34.2335L65.9031 33.8007C66.0571 33.8898 66.1521 34.0541 66.1527 34.232L65.6527 34.2335ZM56.9638 29.2073L56.7134 29.6401C56.6158 29.5837 56.5401 29.4958 56.4987 29.3909L56.9638 29.2073ZM56.9503 29.1731L57.1628 28.7205C57.2782 28.7747 57.3686 28.8709 57.4154 28.9896L56.9503 29.1731ZM55.5591 28.1428L55.1883 28.4782L55.1883 28.4782L55.5591 28.1428ZM54.174 35.3848V26.6562H55.174V35.3848H54.174ZM55.185 37.2107C54.7489 36.7284 54.4143 36.1629 54.2015 35.5484L55.1465 35.2212C55.3152 35.7087 55.5807 36.1573 55.9267 36.54L55.185 37.2107ZM56.7401 38.3554C56.1503 38.0821 55.6213 37.6931 55.185 37.2107L55.9267 36.54C56.2726 36.9224 56.6922 37.2311 57.1604 37.448L56.7401 38.3554ZM56.7332 38.3531L56.7064 38.3382L57.1941 37.4652L57.2209 37.4801L56.7332 38.3531ZM56.4771 37.9303L56.477 37.9181L57.477 37.9151L57.477 37.9272L56.4771 37.9303ZM65.4281 43.4217L56.7257 38.3609L57.2284 37.4965L65.9308 42.5573L65.4281 43.4217ZM66.1794 42.9613L66.1795 42.988L65.1795 42.991L65.1794 42.9643L66.1794 42.9613ZM65.9444 42.5388C66.2851 42.7518 66.5786 42.9761 66.7916 43.2192C67.0054 43.4631 67.1699 43.7633 67.1699 44.1146H66.1699C66.1699 44.091 66.1604 44.0162 66.0396 43.8783C65.918 43.7396 65.7162 43.5755 65.4144 43.3868L65.9444 42.5388ZM66.1699 44.1146V35.3847H67.1699V44.1146H66.1699ZM66.1699 35.3847C66.1699 35.3613 66.1606 35.2869 66.0398 35.1494C65.9182 35.0108 65.7163 34.847 65.4142 34.6581L65.9442 33.8101C66.2847 34.0229 66.5782 34.2469 66.7913 34.4895C67.0052 34.7332 67.1699 35.0332 67.1699 35.3847H66.1699ZM65.9398 34.6608L65.9134 34.677L65.3921 33.8236L65.4186 33.8074L65.9398 34.6608ZM66.1527 34.232L66.1527 34.2488L65.1527 34.2518L65.1527 34.2351L66.1527 34.232ZM57.2141 28.7745L65.9031 33.8007L65.4023 34.6664L56.7134 29.6401L57.2141 28.7745ZM57.4154 28.9896L57.4289 29.0238L56.4987 29.3909L56.4852 29.3566L57.4154 28.9896ZM55.93 27.8075C56.2764 28.1905 56.6956 28.5012 57.1628 28.7205L56.7378 29.6257C56.1502 29.3498 55.6234 28.9594 55.1883 28.4782L55.93 27.8075ZM55.1456 26.4902C55.317 26.977 55.5836 27.4244 55.93 27.8075L55.1883 28.4782C54.7532 27.997 54.4179 27.4346 54.2024 26.8223L55.1456 26.4902Z"
            fill="#0056B3" />
        <path d="M62.5731 38.3301L62.5999 47.0593L66.8574 49.5227L66.8306 40.7935L62.5731 38.3301Z"
            fill="#0056B3" stroke="#0056B3" stroke-linejoin="round" />
        <path fill-rule="evenodd" clip-rule="evenodd"
            d="M72.0782 37.7688V37.7684C73.8455 36.7509 74.7023 35.6793 74.7559 34.5547V43.2846C74.7559 44.4034 73.8547 45.4685 72.1052 46.4814L72.1052 46.4979L66.857 49.5236L66.8302 40.7944L72.0782 37.7688Z"
            fill="#0056B3" />
        <path
            d="M72.0782 37.7684H71.5782C71.5782 37.5896 71.6737 37.4243 71.8287 37.3351L72.0782 37.7684ZM72.0782 37.7688H72.5782C72.5782 37.9476 72.4828 38.1127 72.3279 38.202L72.0782 37.7688ZM74.7559 34.5547L74.2564 34.5309C74.2693 34.2597 74.4963 34.0484 74.7678 34.0548C75.0392 34.0613 75.2559 34.2832 75.2559 34.5547H74.7559ZM72.1052 46.4814L71.6052 46.4829C71.6046 46.304 71.6998 46.1384 71.8547 46.0487L72.1052 46.4814ZM72.1052 46.4979L72.6052 46.4963C72.6058 46.6756 72.5103 46.8415 72.355 46.931L72.1052 46.4979ZM66.857 49.5236L67.1067 49.9568C66.9523 50.0459 66.7621 50.0459 66.6075 49.9569C66.453 49.868 66.3575 49.7035 66.357 49.5252L66.857 49.5236ZM66.8302 40.7944L66.3302 40.796C66.3297 40.6167 66.4252 40.4508 66.5805 40.3613L66.8302 40.7944ZM72.5782 37.7684V37.7688H71.5782V37.7684H72.5782ZM75.2553 34.5785C75.1892 35.9665 74.1375 37.1597 72.3277 38.2017L71.8287 37.3351C73.5534 36.3421 74.2154 35.3921 74.2564 34.5309L75.2553 34.5785ZM74.2559 43.2846V34.5547H75.2559V43.2846H74.2559ZM71.8547 46.0487C73.5806 45.0495 74.2559 44.1131 74.2559 43.2846H75.2559C75.2559 44.6938 74.1288 45.8876 72.3557 46.9141L71.8547 46.0487ZM71.6052 46.4994L71.6052 46.4829L72.6052 46.4799L72.6052 46.4963L71.6052 46.4994ZM66.6073 49.0905L71.8555 46.0647L72.355 46.931L67.1067 49.9568L66.6073 49.0905ZM67.3302 40.7929L67.357 49.5221L66.357 49.5252L66.3302 40.796L67.3302 40.7929ZM72.3279 38.202L67.08 41.2276L66.5805 40.3613L71.8285 37.3357L72.3279 38.202Z"
            fill="#0056B3" />
        <path
            d="M26.7449 17.499L31.0024 19.9622L34.0283 18.2481C34.6166 17.8741 35.2992 17.6755 35.9964 17.6755C36.6935 17.6755 37.3762 17.8741 37.9645 18.2481L46.6671 23.3093C48.0088 24.064 49.4976 24.5207 51.0318 24.6481C52.4828 24.8296 53.956 24.6828 55.3429 24.2193C54.9785 24.5081 54.7114 24.9011 54.5774 25.3463C54.4433 25.7915 54.449 26.268 54.5934 26.71C54.7868 27.2595 55.0874 27.7644 55.4782 28.1965C55.869 28.6287 56.342 28.9792 56.8694 29.2268L65.572 34.288C66.8841 35.0645 66.9108 35.8139 65.572 36.5904L62.4925 38.3568L66.75 40.8475L72.1055 37.822C73.8728 36.8045 74.7832 35.7329 74.7832 34.6083C74.7832 33.4837 73.8996 32.467 72.1055 31.4495L63.3225 26.3347C62.0639 25.6118 61.4213 24.9685 61.3678 24.4062C61.3142 23.8439 61.689 23.2557 62.653 22.5863L64.1527 21.5416L60.0557 19.1581L58.2618 20.0158C57.2868 20.5486 56.1855 20.8071 55.0752 20.765C53.8961 20.6528 52.7593 20.268 51.7548 19.6406L42.9986 14.5258C41.3792 13.5538 39.5316 13.0277 37.6431 13C35.6926 13.0061 33.7791 13.5325 32.1004 14.5258L26.7449 17.499Z"
            fill="white" stroke="#0056B3" stroke-linejoin="round" />
        <path opacity="0.3"
            d="M12.8649 40.8651C11.2213 41.826 10.3362 42.8126 10.3362 43.8494C10.3362 44.8861 11.0948 45.9234 12.8649 46.8843L21.1589 51.7132C22.2969 52.3706 22.9291 52.9527 23.0555 53.4838C23.1819 54.0148 22.7015 54.6222 21.7911 55.2543L20.3752 56.2149L24.2692 58.4645L25.9383 57.6558C26.8725 57.1641 27.9175 56.9208 28.9729 56.9483C30.0719 57.0659 31.1281 57.4374 32.0579 58.0349L40.3522 62.865C41.927 63.7923 43.7211 64.2812 45.5486 64.2812C47.3761 64.2812 49.1705 63.7923 50.7453 62.865L55.8027 60.0079L51.7818 57.6558L48.8234 59.3758C48.2728 59.7297 47.6321 59.9178 46.9775 59.9178C46.3229 59.9178 45.6819 59.7297 45.1313 59.3758L36.9129 54.5962C35.6437 53.8923 34.2383 53.4704 32.7914 53.3578C31.4192 53.1893 30.0265 53.3361 28.7198 53.7875C29.0551 53.5022 29.3004 53.1253 29.4261 52.7034C29.5518 52.2815 29.5525 51.8329 29.4279 51.4107C29.0633 50.3618 28.3003 49.4983 27.3039 49.008L19.0855 44.2284C17.8212 43.5204 17.8212 42.8127 19.0855 42.1047L22.0693 40.3848L18.0233 38.0586L12.8649 40.8651Z"
            fill="#006FD6" stroke="#006FD6" stroke-linejoin="round" />
        <path fill-rule="evenodd" clip-rule="evenodd"
            d="M18.8832 29.9039L18.9083 38.0939L21.8921 36.3997L22.0703 36.3036L22.0703 28.2277L21.8669 28.1562L18.8832 29.8504V29.7999C18.3016 30.2045 17.9979 30.5337 17.9979 30.8877V39.1306C17.9979 38.7766 18.3016 38.4474 18.8832 38.0934V29.9039Z"
            fill="#0056B3" />
        <path
            d="M18.8832 29.9039H18.3832C18.3832 29.6281 18.6066 29.4043 18.8824 29.4039C19.1583 29.4035 19.3823 29.6265 19.3832 29.9024L18.8832 29.9039ZM18.9083 38.0939L19.1552 38.5287C19.0006 38.6165 18.8111 38.6156 18.6574 38.5264C18.5037 38.4373 18.4089 38.2732 18.4083 38.0955L18.9083 38.0939ZM21.8921 36.3997L21.6452 35.9648L21.6548 35.9597L21.8921 36.3997ZM22.0703 36.3036L22.5703 36.3036C22.5703 36.4874 22.4695 36.6564 22.3077 36.7437L22.0703 36.3036ZM22.0703 28.2277L22.2359 27.7559C22.4362 27.8262 22.5703 28.0154 22.5703 28.2277L22.0703 28.2277ZM21.8669 28.1562L21.62 27.7214C21.7457 27.6501 21.8961 27.6366 22.0325 27.6845L21.8669 28.1562ZM18.8832 29.8504L19.1301 30.2852C18.9753 30.373 18.7854 30.372 18.6316 30.2825C18.4778 30.1929 18.3832 30.0284 18.3832 29.8504H18.8832ZM18.8832 29.7999L18.5976 29.3895C18.7505 29.2831 18.9497 29.2705 19.1147 29.3568C19.2797 29.443 19.3832 29.6137 19.3832 29.7999H18.8832ZM18.4979 39.1306C18.4979 39.4067 18.274 39.6306 17.9979 39.6306C17.7218 39.6306 17.4979 39.4067 17.4979 39.1306H18.4979ZM18.8832 38.0934H19.3832C19.3832 38.2679 19.2922 38.4298 19.1432 38.5205L18.8832 38.0934ZM19.3832 29.9024L19.4083 38.0924L18.4083 38.0955L18.3832 29.9055L19.3832 29.9024ZM18.6614 37.6591L21.6453 35.9649L22.139 36.8345L19.1552 38.5287L18.6614 37.6591ZM21.6548 35.9597L21.8329 35.8636L22.3077 36.7437L22.1295 36.8398L21.6548 35.9597ZM21.5703 36.3036L21.5703 28.2277L22.5703 28.2277L22.5703 36.3036L21.5703 36.3036ZM21.9047 28.6994L21.7012 28.628L22.0325 27.6845L22.2359 27.7559L21.9047 28.6994ZM22.1137 28.5911L19.1301 30.2852L18.6363 29.4156L21.62 27.7214L22.1137 28.5911ZM18.3832 29.8504V29.7999H19.3832V29.8504H18.3832ZM19.1687 30.2104C18.8902 30.4041 18.7116 30.5577 18.6055 30.6842C18.5035 30.8056 18.4979 30.8664 18.4979 30.8877H17.4979C17.4979 30.5549 17.6441 30.2741 17.8394 30.0414C18.0305 29.8136 18.2945 29.6003 18.5976 29.3895L19.1687 30.2104ZM18.4979 30.8877V39.1306H17.4979V30.8877H18.4979ZM17.4979 39.1306C17.4979 38.7979 17.6439 38.5151 17.8453 38.2838C18.0422 38.0575 18.3126 37.8554 18.6232 37.6663L19.1432 38.5205C18.8722 38.6855 18.6999 38.8249 18.5996 38.9402C18.5037 39.0504 18.4979 39.1092 18.4979 39.1306H17.4979ZM18.3832 38.0934V29.9039H19.3832V38.0934H18.3832Z"
            fill="#0056B3" />
        <path
            d="M10.411 31.748V39.9156C10.411 40.9121 11.1963 41.8843 12.8636 42.8075L21.1327 47.7398V47.7548C22.2707 48.4122 22.9029 48.9931 23.0293 49.5241V41.2812C22.9029 40.7502 22.2707 40.1681 21.1327 39.5106L12.9397 34.6052C11.2202 33.7454 10.411 32.7595 10.411 31.748Z"
            fill="#0056B3" stroke="#0056B3" stroke-linejoin="round" />
        <path
            d="M29.4792 48.0589V39.916C29.4827 40.2426 29.4143 40.5659 29.2788 40.863C29.1434 41.1602 28.944 41.4244 28.6951 41.636V49.8788C28.9518 49.6518 29.1554 49.3713 29.2909 49.0565C29.4264 48.7418 29.4906 48.4014 29.4792 48.0589Z"
            fill="#0056B3" stroke="#0056B3" stroke-linejoin="round" />
        <path d="M20.3501 44.0371L20.3754 52.2806L24.2695 54.5311L24.2443 46.2876L20.3501 44.0371Z"
            fill="#0056B3" stroke="#0056B3" stroke-linejoin="round" />
        <path
            d="M25.9127 45.4521C26.8469 44.9604 27.8919 44.7168 28.9473 44.7443C29.903 44.8466 30.8264 45.1409 31.6625 45.6088V45.5738L40.3265 50.6613C41.9025 51.5965 43.703 52.0861 45.5356 52.0776C47.3596 52.0816 49.1509 51.5921 50.7196 50.6614L55.6759 47.8039L55.7012 56.0474L50.7449 58.9048L50.7448 58.889L50.7196 58.9042C49.151 59.835 47.3597 60.3245 45.5356 60.3204C43.703 60.329 41.9027 59.8394 40.3266 58.9042V58.8902L32.0575 54.1003L31.6625 53.8675V53.8529C30.8264 53.3847 29.903 53.0894 28.9473 52.9872C27.9014 52.9599 26.8657 53.1998 25.9379 53.6827L25.938 53.6956L24.269 54.5301L24.2437 46.2866L25.9127 45.4521Z"
            fill="#0056B3" stroke="#0056B3" stroke-linejoin="round" />
        <path
            d="M12.8649 28.662C11.2213 29.6228 10.3362 30.6095 10.3362 31.6462C10.3362 32.683 11.0948 33.7202 12.8649 34.6811L21.1589 39.5101C22.2969 40.1675 22.9291 40.7496 23.0555 41.2806C23.1819 41.8116 22.7015 42.419 21.7911 43.0512L20.3752 44.0118L24.2692 46.2614L25.9383 45.4527C26.8725 44.961 27.9175 44.7177 28.9729 44.7452C30.0719 44.8628 31.1281 45.2343 32.0579 45.8317L40.3522 50.6619C41.927 51.5892 43.7211 52.0781 45.5486 52.0781C47.3761 52.0781 49.1705 51.5892 50.7453 50.6619L55.8027 47.8048L51.7818 45.4527L48.8234 47.1726C48.2728 47.5266 47.6321 47.7147 46.9775 47.7147C46.3229 47.7147 45.6819 47.5266 45.1313 47.1726L36.9129 42.3931C35.6437 41.6892 34.2383 41.2672 32.7914 41.1547C31.4192 40.9861 30.0265 41.133 28.7198 41.5844C29.0551 41.2991 29.3004 40.9222 29.4261 40.5003C29.5518 40.0784 29.5525 39.6298 29.4279 39.2076C29.0633 38.1587 28.3003 37.2952 27.3039 36.8048L19.0855 32.0253C17.8212 31.3173 17.8212 30.6096 19.0855 29.9016L22.0693 28.1817L18.0233 25.8555L12.8649 28.662Z"
            fill="white" stroke="#0056B3" stroke-linejoin="round" />
    </g>
    <defs>
        <clipPath id="clip0_676_35348">
            <rect width="85" height="98" fill="white" />
        </clipPath>
    </defs>
</svg>