<svg version="1" xmlns="http://www.w3.org/2000/svg" width="346.667" height="346.667" viewBox="0 0 260.000000 260.000000"><path d="M145 37.6c-3.5.7-10.1 3.1-14.5 5.2-14.7 7.1-24.6 18.7-30.2 35.7-2.6 7.6-2.7 9.1-3.1 33.4l-.4 25.4 2.4-.7c5.3-1.6 15.3-1.8 19.6-.3l4.2 1.5v-19.7c0-27.7 2.6-37.7 12.1-47.2 11.2-11.2 33.7-14.1 49.5-6.4 8 3.9 15 12.5 18.7 23 .7 1.9 1.3 19.2 1.7 46l.5 43h26l-.1-43c0-48.5-.2-50.2-7.4-65.2-7.6-15.6-22.2-26.6-40.7-30.7-8.9-2-29.2-2-38.3 0z"/><path d="M41.5 100.1c-1.6.4-4.7 2.3-6.9 4.1-9.9 8.1-10.3 24.1-.9 33 6.1 5.8 16.9 7.6 24.1 3.9l3.7-1.9 13.2 9.7c8.2 5.9 13.1 10.1 12.8 10.9-.3.8-.5 3.9-.5 7l-.1 5.7-12.1 8.2-12.1 8.2-3.1-2.2c-4.4-3.2-14.9-3.6-20.2-.9-8.7 4.5-12.8 11.5-12.2 21.3.5 8.9 3.9 14.2 11.7 18.2 9.3 4.7 17.9 3.2 25.2-4.2 4.9-5.1 7.3-11.3 6.7-17.4-.3-3.5-.2-3.6 12.1-12.1l12.3-8.4 3.1 1.9c8.1 4.8 18.5 3.2 25.8-4.1 7.9-7.9 8.9-18.4 2.6-27.7-5.8-8.6-17.9-12.1-27-7.8-2 .9-4 1.5-4.5 1.3-.4-.1-6.3-4.3-13-9.3l-12.2-9 .6-4.6c1.7-12.7-9.2-25.1-21.8-24.8-2.4 0-5.6.5-7.3 1z"/></svg>