<svg width="85" height="98" viewBox="0 0 85 98" fill="none" xmlns="http://www.w3.org/2000/svg">
    <g clip-path="url(#clip0_67_5616)">
        <path
            d="M62.1096 85.9961L71.0026 80.8648C76.0648 77.9244 79.1866 71.6435 79.1797 62.6994C79.165 44.6876 66.481 22.7233 50.8445 13.6214C42.9761 9.0418 35.8599 8.59207 30.7331 11.5727L21.8422 16.7028C26.9691 13.7222 34.084 14.1697 41.9524 18.7492C57.5888 27.8511 70.2745 49.8233 70.2876 67.8272C70.2945 76.7714 67.1653 83.0446 62.1096 85.9961Z"
            fill="#D4E7F8" stroke="#151E29" stroke-linejoin="round" />
        <path
            d="M41.9983 83.9472C57.6347 93.0491 70.3009 85.8309 70.2878 67.827C70.2747 49.8231 57.589 27.8509 41.9526 18.749C26.3162 9.64711 13.6522 16.8641 13.6631 34.8692C13.674 52.8744 26.3619 74.8453 41.9983 83.9472Z"
            fill="white" stroke="#151E29" stroke-linejoin="round" />
        <path
            d="M24.6075 32.7519L24.6264 35.0529L30.9797 38.721L31.1511 59.6144L35.6595 62.2173L35.4881 41.3239L41.8414 44.992L41.8229 42.7333C41.8124 41.4627 41.804 40.4322 41.7549 40.3757C41.7545 40.3334 37.8814 38.0832 33.1775 35.3674L24.6253 30.4719L24.6443 32.7871L24.6075 32.7519ZM53.1414 46.8795C54.3904 47.9378 55.3487 49.1374 56.2124 50.6617C56.6691 51.4874 57.3492 52.8636 57.4001 53.1459C57.4008 53.2306 55.3007 53.662 54.0253 53.8389C53.9768 53.853 53.7794 53.5002 53.5809 53.0203C52.937 51.6088 52.2857 50.7832 51.2709 50.113C49.8039 49.1536 48.8337 49.4787 48.8459 50.961C48.8496 51.4127 48.925 51.7091 49.0746 52.1608C49.4109 53.1277 50.0256 53.9463 51.9272 55.9996C55.4358 59.7535 56.9602 61.7717 57.8899 63.9383C58.9435 66.3731 59.1993 69.387 58.5206 71.1449C57.758 73.051 55.8651 73.5458 53.1448 72.4951C52.2909 72.1707 50.3358 71.0138 49.418 70.3013C47.4596 68.7491 45.581 66.5405 44.4206 64.4233C43.9639 63.5977 43.0841 61.5863 43.1321 61.5157L43.5936 61.4449L45.4162 61.2748L46.7892 61.1402L47.1109 61.8177C47.5202 62.7846 48.4324 64.2948 48.9605 64.9369C50.5566 66.7998 52.6815 67.9001 53.7232 67.4056C54.1713 67.1866 54.3626 66.7913 54.3568 66.0854C54.3515 65.4361 54.2636 65.0902 53.9785 64.4339C53.5824 63.587 52.7963 62.6273 50.5878 60.2282C48.0485 57.5257 46.9669 56.1144 45.9551 54.3219C45.3748 53.2563 44.84 51.8095 44.5879 50.7226C44.3979 49.798 44.3204 47.7581 44.4849 47.0521C44.9871 44.532 46.8158 43.6208 49.4502 44.5798C50.3038 44.8759 52.3205 46.1245 53.1656 46.8654L53.1414 46.8795Z"
            fill="#0056B3" />
    </g>
    <defs>
        <clipPath id="clip0_67_5616">
            <rect width="85" height="98" fill="white" />
        </clipPath>
    </defs>
</svg>