<svg width="85" height="98" viewBox="0 0 85 98" fill="none" xmlns="http://www.w3.org/2000/svg">
    <g clip-path="url(#clip0_67_5619)">
        <path
            d="M62.1095 85.996L71.0025 80.8647C76.0647 77.9243 79.1866 71.6434 79.1797 62.6993C79.1649 44.6875 66.4809 22.7232 50.8445 13.6213C42.9761 9.04171 35.8599 8.59198 30.7331 11.5726L21.8422 16.7027C26.969 13.7221 34.0839 14.1696 41.9523 18.7491C57.5888 27.851 70.2744 49.8233 70.2875 67.8271C70.2944 76.7713 67.1653 83.0445 62.1095 85.996Z"
            fill="#D4E7F8" stroke="#151E29" stroke-linejoin="round" />
        <path
            d="M41.9983 83.9472C57.6347 93.0491 70.3008 85.8308 70.2877 67.8269C70.2746 49.8231 57.589 27.8509 41.9525 18.749C26.3161 9.64704 13.6522 16.864 13.6631 34.8692C13.674 52.8743 26.3619 74.8453 41.9983 83.9472Z"
            fill="white" stroke="#151E29" stroke-linejoin="round" />
        <path
            d="M41.1701 28.0027C31.3354 22.3246 31.9494 27.5997 31.9494 27.5997L31.9603 32.7038L41.3455 38.1223V39.6528L28.2327 32.0822C28.2327 32.0822 21.9395 27.6253 21.9395 39.0739C21.9395 50.5229 27.4324 53.2882 27.4324 53.2882L30.7105 55.1808V49.8681C30.7105 49.8681 30.5338 43.4287 36.1157 46.6515L45.4241 52.0256C45.4241 52.0256 50.6538 55.1425 50.6538 49.2137V39.4108C50.6538 39.4108 51.4481 33.9367 41.1701 28.0027ZM35.9951 28.4431C36.2169 28.5709 36.4366 28.748 36.6415 28.9641C36.8464 29.1802 37.0326 29.4312 37.1894 29.7027C37.3463 29.9741 37.4706 30.2608 37.5554 30.5462C37.6402 30.8315 37.6837 31.1101 37.6835 31.3658C37.6837 31.6218 37.6402 31.8501 37.5554 32.0376C37.4706 32.2251 37.3463 32.3681 37.1894 32.4585C37.0326 32.5489 36.8464 32.5848 36.6415 32.5643C36.4366 32.5438 36.2169 32.4672 35.9951 32.339C35.7734 32.2112 35.5537 32.0341 35.3488 31.818C35.1439 31.6019 34.9577 31.3509 34.8008 31.0794C34.644 30.8079 34.5197 30.5213 34.4349 30.2359C34.3501 29.9506 34.3066 29.672 34.3068 29.4163C34.3066 29.1603 34.3501 28.932 34.4349 28.7445C34.5197 28.557 34.644 28.414 34.8008 28.3236C34.9577 28.2332 35.1439 28.1973 35.3488 28.2178C35.5537 28.2383 35.7734 28.3149 35.9951 28.4431Z"
            fill="#0056B3" />
        <path
            d="M41.4495 72.6269C51.2842 78.305 50.6702 73.03 50.6702 73.03L50.6592 67.926L41.274 62.5074V60.9769L54.3867 68.5475C54.3867 68.5475 60.68 73.0044 60.68 61.5554C60.68 50.1067 55.1871 47.3414 55.1871 47.3414L51.9089 45.4487V50.7613C51.9089 50.7613 52.0856 57.2006 46.5037 53.9779L37.1953 48.6037C37.1953 48.6037 31.9656 45.4869 31.9656 51.4159V61.219C31.9656 61.219 31.1715 66.6929 41.4493 72.6269L41.4495 72.6269ZM46.6244 72.1869C46.4027 72.059 46.183 71.882 45.9781 71.6659C45.7732 71.4498 45.587 71.1988 45.4301 70.9273C45.2733 70.6558 45.149 70.3692 45.0642 70.0838C44.9794 69.7984 44.9359 69.5199 44.9361 69.2642C44.9359 69.0081 44.9794 68.7799 45.0641 68.5923C45.1489 68.4048 45.2733 68.2618 45.4301 68.1714C45.5869 68.081 45.7731 68.045 45.9781 68.0655C46.183 68.086 46.4027 68.1626 46.6244 68.2909C46.8462 68.4187 47.0659 68.5957 47.2708 68.8118C47.4757 69.028 47.6619 69.2789 47.8188 69.5504C47.9756 69.8219 48.0999 70.1085 48.1847 70.3939C48.2695 70.6793 48.313 70.9578 48.3128 71.2135C48.313 71.4695 48.2695 71.6978 48.1847 71.8853C48.0999 72.0728 47.9756 72.2158 47.8188 72.3062C47.6619 72.3966 47.4757 72.4325 47.2708 72.412C47.0659 72.3915 46.8462 72.3151 46.6244 72.1869Z"
            fill="#FFDE63" />
    </g>
    <defs>
        <clipPath id="clip0_67_5619">
            <rect width="85" height="98" fill="white" />
        </clipPath>
    </defs>
</svg>