<svg width="166" height="137" viewBox="0 0 166 137" fill="none" xmlns="http://www.w3.org/2000/svg">
    <path
        d="M127.764 115.719L139.565 108.814C146.282 104.857 150.425 96.4054 150.416 84.3699C150.396 60.1327 133.565 30.577 112.816 18.3292C102.374 12.1668 92.9314 11.5616 86.1282 15.5725L74.3301 22.4757C81.1333 18.4648 90.5747 19.067 101.016 25.2294C121.765 37.4772 138.599 67.0436 138.616 91.2701C138.625 103.306 134.473 111.747 127.764 115.719Z"
        fill="#E7FAFB" stroke="#151E29" stroke-width="1.33967" stroke-linejoin="round" />
    <path
        d="M101.077 112.962C121.826 125.209 138.634 115.496 138.617 91.2698C138.599 67.0432 121.765 37.4768 101.016 25.229C80.267 12.9812 63.4621 22.6926 63.4766 46.9209C63.4911 71.1491 80.3276 100.714 101.077 112.962Z"
        fill="white" stroke="#151E29" stroke-width="1.33967" stroke-linejoin="round" />
    <path
        d="M99.9781 37.6812C86.9276 30.0406 87.7425 37.1389 87.7425 37.1389L87.757 44.0072L100.211 51.2985V53.358L82.8105 43.1707C82.8105 43.1707 74.4595 37.1734 74.4595 52.579C74.4595 67.985 81.7485 71.7061 81.7485 71.7061L86.0985 74.2529V67.1039C86.0985 67.1039 85.864 58.4389 93.2711 62.7755L105.623 70.0072C105.623 70.0072 112.563 74.2013 112.563 66.2233V53.0322C112.563 53.0322 113.617 45.6662 99.9781 37.6812ZM93.1111 38.2739C93.4054 38.4459 93.6968 38.6841 93.9688 38.9749C94.2407 39.2657 94.4878 39.6035 94.6959 39.9688C94.904 40.334 95.069 40.7197 95.1815 41.1038C95.294 41.4878 95.3518 41.8626 95.3515 42.2067C95.3518 42.5512 95.294 42.8584 95.1815 43.1107C95.069 43.3629 94.904 43.5554 94.6959 43.677C94.4878 43.7987 94.2407 43.8471 93.9688 43.8195C93.6968 43.7919 93.4054 43.6888 93.1111 43.5162C92.8168 43.3442 92.5253 43.106 92.2534 42.8152C91.9815 42.5243 91.7344 42.1866 91.5263 41.8213C91.3182 41.456 91.1531 41.0703 91.0406 40.6863C90.9282 40.3023 90.8704 39.9275 90.8706 39.5833C90.8704 39.2389 90.9282 38.9317 91.0406 38.6794C91.1531 38.4271 91.3182 38.2347 91.5263 38.113C91.7344 37.9914 91.9815 37.943 92.2534 37.9706C92.5253 37.9982 92.8168 38.1013 93.1111 38.2739Z"
        fill="#30839D" />
    <path
        d="M100.349 97.7288C113.399 105.369 112.585 98.2711 112.585 98.2711L112.57 91.403L100.116 84.1117V82.0522L117.516 92.2394C117.516 92.2394 125.867 98.2367 125.867 82.8307C125.867 67.4249 118.578 63.7038 118.578 63.7038L114.228 61.157V68.3058C114.228 68.3058 114.463 76.9707 107.056 72.6341L94.7037 65.4025C94.7037 65.4025 87.764 61.2083 87.764 69.1865V82.3779C87.764 82.3779 86.7102 89.7438 100.349 97.7287L100.349 97.7288ZM107.216 97.1366C106.922 96.9646 106.63 96.7264 106.358 96.4356C106.086 96.1447 105.839 95.807 105.631 95.4417C105.423 95.0764 105.258 94.6907 105.146 94.3067C105.033 93.9227 104.975 93.5479 104.976 93.2037C104.975 92.8592 105.033 92.552 105.145 92.2997C105.258 92.0474 105.423 91.8549 105.631 91.7332C105.839 91.6116 106.086 91.5632 106.358 91.5908C106.63 91.6183 106.922 91.7214 107.216 91.894C107.51 92.066 107.802 92.3042 108.074 92.5951C108.346 92.8859 108.593 93.2236 108.801 93.5889C109.009 93.9542 109.174 94.3399 109.286 94.7239C109.399 95.1079 109.457 95.4827 109.456 95.8269C109.457 96.1713 109.399 96.4785 109.286 96.7308C109.174 96.9831 109.009 97.1756 108.801 97.2972C108.593 97.4188 108.346 97.4672 108.074 97.4396C107.802 97.412 107.51 97.3092 107.216 97.1366Z"
        fill="#F4C318" />
</svg>