<svg width="85" height="98" viewBox="0 0 85 98" fill="none" xmlns="http://www.w3.org/2000/svg">
    <path
        d="M25.1522 13.4625L64.867 36.3958C74.8217 42.1442 82.8917 56.1229 82.8917 67.6182C82.8917 73.0748 81.0734 76.9909 78.0983 78.9848L71.1298 83.1504C67.8998 84.8167 63.5387 84.4642 58.7395 81.6929L19.0247 58.7596C9.06993 53.0112 1 39.0324 1 27.5372C1 22.0798 2.81882 18.1634 5.79465 16.1698L12.7552 12.0084C15.9859 10.3382 20.3497 10.6893 25.1522 13.4625Z"
        fill="#D4E7F8" stroke="#151E29" stroke-linejoin="round" />
    <path
        d="M19.0249 17.1315C9.07018 11.3831 1.00024 16.0419 1.00024 27.5371C1.00024 39.0324 9.07017 53.0112 19.0249 58.7595L58.7397 81.6929C68.6945 87.4413 76.7644 82.7825 76.7644 71.2872C76.7644 59.792 68.6945 45.8132 58.7397 40.0648L19.0249 17.1315Z"
        fill="white" stroke="#151E29" stroke-linejoin="round" />
    <path
        d="M11.0791 28.5565C10.9615 28.4865 10.9321 28.4006 10.9909 28.333L11.6084 27.7773C11.6672 27.7098 11.8142 27.7289 11.9318 27.7988L22.4295 34.0443C22.5472 34.1143 22.5766 34.2343 22.5178 34.3019L22.0179 34.8934C21.959 34.961 21.812 34.9761 21.7238 34.9236L11.0791 28.5565ZM6.63888 29.0602C6.52126 28.9902 6.49185 28.9043 6.55066 28.8367L7.16817 28.281C7.22698 28.2135 7.37401 28.2325 7.49163 28.3025L20.9005 36.2799C21.0181 36.3499 21.0769 36.4875 21.0475 36.5725L20.8122 37.2531C20.7828 37.3724 20.6652 37.3708 20.5476 37.3008L6.63888 29.0602ZM13.755 36.4391C13.6373 36.3691 13.6079 36.2491 13.6667 36.1815L14.0784 35.5717C14.1372 35.5041 14.2549 35.4716 14.3725 35.5415L20.2535 39.0404C20.3712 39.1104 20.43 39.2479 20.43 39.3847L20.3712 40.1702C20.3712 40.307 20.2535 40.3396 20.1653 40.2871L13.755 36.4391ZM44.2777 47.6922C42.4252 47.137 41.1607 46.7951 39.3376 46.2574C38.8965 46.1318 38.8671 46.1485 38.4848 45.4082C38.0438 44.5646 37.7203 43.9961 37.1028 43.2868C35.2503 41.1248 33.4565 40.3654 31.7804 40.6332C29.7809 40.9478 28.7517 42.5578 28.7811 45.3445C28.8105 48.0971 30.4278 51.3157 32.7508 53.0739C34.7504 54.5712 36.4265 54.7478 37.7497 53.7915C38.0144 53.5728 38.2496 53.3025 38.5437 52.9988L32.8684 49.6224C32.2509 49.255 32.1039 48.7231 32.3097 48.2644C32.692 47.432 33.3977 46.074 33.8094 45.4301C33.8976 45.2774 34.1034 45.058 34.5445 45.3204L45.2481 51.6883C45.1893 52.5764 45.1893 53.4995 45.0716 54.3526C44.7482 56.6218 43.9542 58.4058 42.6604 59.619C40.5432 61.6073 37.7791 61.98 34.2799 60.4452C31.3982 59.1752 28.7223 56.9336 26.3698 53.4828C24.1939 50.2736 22.9588 47.0089 22.6354 43.6711C22.2531 39.7172 23.1941 36.9265 25.1348 35.141C27.2226 33.2035 29.9867 32.8309 33.3683 34.1248C36.1324 35.188 38.7789 37.1386 41.1607 40.436C42.7192 42.5598 43.8366 44.8656 44.5717 47.2859C44.7482 47.6986 44.6306 47.7995 44.2777 47.6922Z"
        fill="#0056B3" />
    <path
        d="M54.0108 72.389C51.3349 70.7286 48.8943 68.3877 46.8359 65.1118C45.101 62.336 44.013 59.4665 43.6601 56.624C43.1308 52.4458 44.0424 49.5693 46.0419 47.7162C48.1885 45.7112 50.7762 45.5412 54.2754 46.9051C57.2748 48.0741 60.0977 50.0955 62.6559 53.6346C64.979 56.8628 66.4198 60.2158 66.8021 63.7253C67.302 68.6382 66.1552 71.7166 63.4205 73.3033C61.4797 74.4393 59.0979 74.4582 56.3632 73.4808C55.5693 73.1794 54.7753 72.7413 54.0108 72.389ZM61.0093 62.7405C60.9798 62.2786 60.9798 61.9367 60.921 61.5598C60.3917 57.8602 57.7159 54.3537 54.9224 53.4439C52.1877 52.5349 50.4233 53.5023 49.7764 56.3312C49.2471 58.683 50.3645 62.0486 52.4817 64.4023C54.099 66.185 55.7163 67.0446 57.2748 67.0487C59.5978 67.029 60.8622 65.5932 61.0093 62.7405Z"
        fill="#0056B3" />
</svg>