<svg width="83" height="98" viewBox="0 0 83 98" fill="none" xmlns="http://www.w3.org/2000/svg">
    <path
        d="M60.1098 85.9954L69.0029 80.8641C74.0651 77.9237 77.1869 71.6428 77.18 62.6987C77.1653 44.6869 64.4813 22.7226 48.8448 13.6207C40.9764 9.04116 33.8602 8.59143 28.7334 11.5721L19.8425 16.7022C24.9694 13.7215 32.0842 14.169 39.9527 18.7486C55.5891 27.8505 68.2748 49.8227 68.2879 67.8266C68.2947 76.7707 65.1656 83.044 60.1098 85.9954Z"
        fill="#D4E7F8" stroke="#151E29" stroke-linejoin="round" />
    <path
        d="M39.9983 83.947C55.6347 93.0489 68.3008 85.8306 68.2877 67.8268C68.2746 49.8229 55.5889 27.8507 39.9525 18.7488C24.3161 9.64686 11.6522 16.8639 11.6631 34.869C11.674 52.8741 24.3618 74.8451 39.9983 83.947Z"
        fill="white" stroke="#151E29" stroke-linejoin="round" />
    <path
        d="M51.5243 70.0951C51.5243 71.8156 45.7385 69.8548 38.6238 65.7471C31.5091 61.6394 25.7234 56.8885 25.7234 55.1989C25.7234 54.5944 26.4349 54.4316 27.643 54.6641"
        stroke="#0056B3" stroke-width="2" stroke-linecap="round" stroke-linejoin="round" />
    <path
        d="M44.7319 63.4299C44.7319 64.5149 42.0471 63.8329 38.624 61.8565C35.2009 59.8802 32.5161 57.4621 32.5161 56.3771C32.5161 56.0515 32.7577 55.881 33.2007 55.8578"
        stroke="#0056B3" stroke-width="2" stroke-linecap="round" stroke-linejoin="round" />
    <path
        d="M46.0877 58.7254C46.0877 59.8105 42.7451 58.7487 38.624 56.3693C34.5028 53.99 31.1602 51.1921 31.1602 50.107C31.1602 49.704 31.6301 49.5878 32.5026 49.7815"
        stroke="#0056B3" stroke-width="2" stroke-linecap="round" stroke-linejoin="round" />
    <path
        d="M48.1284 54.4164C48.1284 55.5014 43.873 53.9126 38.6242 50.8822C33.3754 47.8518 29.12 44.5269 29.12 43.4419C29.12 42.8374 30.4624 43.0699 32.5163 43.8526"
        stroke="#0056B3" stroke-width="2" stroke-linecap="round" stroke-linejoin="round" />
    <path
        d="M49.2155 51.3551C49.7188 51.4371 50.2528 51.6532 50.7869 51.9912C51.3211 52.3292 51.8449 52.7825 52.3286 53.3251C52.8122 53.8678 53.2462 54.4892 53.6057 55.1538C53.9653 55.8185 54.2433 56.5134 54.424 57.1989C54.6047 57.8843 54.6845 58.547 54.6589 59.1489C54.6332 59.7509 54.5026 60.2804 54.2745 60.7071C54.0463 61.1339 53.7252 61.4496 53.3294 61.6362C52.9335 61.8229 52.4707 61.8767 51.9674 61.7948L50.1418 61.5003"
        stroke="#0056B3" stroke-width="2" stroke-linecap="round" stroke-linejoin="round" />
    <path
        d="M39.8185 31.5914C39.7251 32.5408 39.4348 33.3386 38.9695 33.9242C38.5043 34.5097 37.8764 34.8676 37.1338 34.9706C34.3818 35.5829 33.4824 41.3414 38.7312 46.1543"
        stroke="#0056B3" stroke-width="2" stroke-linecap="round" stroke-linejoin="round" />
    <path
        d="M42.0605 38.7606C42.0605 38.7606 39.2147 38.3885 39.6174 41.4112C40.0201 44.4338 41.9934 44.8446 41.7249 47.8827"
        stroke="#0056B3" stroke-width="2" stroke-linecap="round" stroke-linejoin="round" />
</svg>