<svg width="640px" height="640px" viewBox="0 0 640 640" version="1.1"
    xmlns="http://www.w3.org/2000/svg">
    <defs>
        <radialGradient cx="49.9999909%" cy="50.0000434%" fx="49.9999909%" fy="50.0000434%"
            r="50.0000504%"
            gradientTransform="translate(0.500000,0.500000),scale(0.193333,1.000000),rotate(-89.999996),translate(-0.500000,-0.500000)"
            id="radialGradient-1">
            <stop stop-color="#B8B8B8" stop-opacity="0.49803922" offset="0%"></stop>
            <stop stop-color="#7F7F7F" stop-opacity="0" offset="100%"></stop>
        </radialGradient>
    </defs>
    <g id="app-python" stroke="none" stroke-width="1" fill="none" fill-rule="evenodd">
        <circle id="lg" fill="#002B66" cx="320" cy="320" r="320"></circle>
        <circle id="md" fill="#0070D9" cx="320.5" cy="320.5" r="269.5"></circle>
        <circle id="sm" fill="#008BFF" cx="320.5" cy="320.5" r="206.5"></circle>
        <g id="python-logo" transform="translate(204.000000, 203.000000)" fill-rule="nonzero">
            <path
                d="M114.784258,0.00191389392 C105.20409,0.0462561595 96.0552433,0.860135759 88.0052006,2.27906057 C64.2907835,6.45236266 59.9851646,15.1874417 59.9851625,31.2964155 L59.9851625,52.5714716 L116.025239,52.5714716 L116.025239,59.663157 L59.9851625,59.663157 L38.9538053,59.663157 C22.6669989,59.663157 8.40580496,69.4144809 3.94508596,87.9648371 C-1.20029698,109.227851 -1.42852269,122.496318 3.94508596,144.69832 C7.9286148,161.224631 17.4418212,173 33.7286233,173 L52.9964817,173 L52.9964817,147.495957 C52.9964817,129.070792 69.0004699,112.818271 88.0052006,112.818266 L143.979962,112.818266 C159.561352,112.818266 172,100.038838 172,84.451525 L172,31.2964155 C172,16.168169 159.187896,4.80390375 143.979962,2.27906057 C134.353114,0.682767113 124.364426,-0.0424283717 114.784258,0.00191389392 Z M84.4782028,17.1130448 C90.2667575,17.1130448 94.9938814,21.89874 94.9938814,27.7831035 C94.9938814,33.64661 90.2667575,38.3881009 84.4782028,38.3881009 C78.6688957,38.3881009 73.9625242,33.6466079 73.9625242,27.7831035 C73.9625242,21.8987421 78.6688957,17.1130448 84.4782028,17.1130448 Z"
                id="path1948" fill="#FFFFFF"></path>
            <path
                d="M178.761745,59 L178.761745,83.8841303 C178.761745,103.176461 162.438286,119.414225 143.824151,119.414227 L87.9631112,119.414227 C72.6618365,119.414227 60,132.536292 60,147.890555 L60,201.251006 C60,216.437698 73.1794781,225.370341 87.9631112,229.727334 C105.666211,234.943173 122.642556,235.885807 143.824151,229.727334 C157.903803,225.642648 171.787269,217.422196 171.787263,201.251006 L171.787263,179.893767 L115.926222,179.893767 L115.926222,172.774685 L171.787263,172.774685 L199.750382,172.774685 C216.004101,172.774685 222.060904,161.414651 227.713472,144.36367 C233.552389,126.809951 233.303946,109.929204 227.713472,87.4110149 C223.696629,71.1979191 216.024772,59 199.750382,59 L178.761745,59 Z M147.343984,194.131931 C153.141492,194.131931 157.838298,198.891745 157.838298,204.777891 C157.838298,210.684979 153.141486,215.48917 147.343984,215.48917 C141.567183,215.48917 136.849669,210.684979 136.849669,204.777891 C136.849669,198.891745 141.567177,194.131931 147.343984,194.131931 Z"
                id="path1950" fill="#FFFFFF"></path>
            <path
                d="M191,266.5 C191,271.680351 176.705081,276.467193 153.5,279.057368 C130.294919,281.647544 101.705081,281.647544 78.5,279.057368 C55.2949188,276.467193 41,271.680351 41,266.5 C41,261.319649 55.2949186,256.532807 78.5,253.942632 C101.705081,251.352456 130.294919,251.352456 153.5,253.942632 C176.705081,256.532807 191,261.319649 191,266.5 Z"
                id="path1894" fill="url(#radialGradient-1)" opacity="0.44382022"></path>
        </g>
    </g>
</svg>