<svg width="640px" height="640px" viewBox="0 0 640 640" version="1.1" xmlns="http://www.w3.org/2000/svg"><g stroke="none" stroke-width="1" fill="none" fill-rule="evenodd"><g><circle id="lg" fill="#002B66" cx="320" cy="320" r="320"></circle><circle id="md" fill="#0070D9" cx="320.5" cy="320.5" r="269.5"></circle><circle id="sm" fill="#008BFF" cx="320.5" cy="320.5" r="206.5"></circle><g id="dotnet-logo-text_White" transform="translate(205.000000, 277.000000)" fill="#FFFFFF" fill-rule="nonzero"><path d="M8.44134771,86 C6.09655072,86 4.10344928,85.2299074 2.4620652,83.6890052 C0.820688401,82.1086662 0,80.232193 0,78.0595854 C0,75.846824 0.820688401,73.9509908 2.4620652,72.3706519 C4.10344928,70.7900978 6.09655072,70 8.44134771,70 C10.8252559,70 12.8379057,70.7900978 14.4792971,72.3706519 C16.1597414,73.9509908 17,75.846824 17,78.0595854 C17,80.232193 16.1597414,82.1086662 14.4792971,83.6890052 C12.8379057,85.2299074 10.8252559,86 8.44134771,86 Z" id="Path"></path><path d="M100,85 L85.0333258,85 L45.6003493,22.5244442 C44.6025234,20.9437877 43.7774531,19.3038181 43.1249955,17.604607 L42.7796272,17.604607 C43.0866451,19.4223727 43.2401897,23.3147365 43.2401897,29.2817702 L43.2401897,85 L30,85 L30,0 L45.9457891,0 L84.0542109,60.9938025 C85.6660726,63.5228241 86.7023203,65.2615534 87.1629542,66.2099903 L87.3936283,66.2099903 C87.0094096,63.9575244 86.8173002,60.1441969 86.8173002,54.7699363 L86.8173002,0 L100,0 L100,85 Z" id="Path"></path><polygon id="Path" points="165 85 119 85 119 0 163.171711 0 163.171711 11.9735139 132.599803 11.9735139 132.599803 36.0390963 160.771329 36.0390963 160.771329 47.9532971 132.599803 47.9532971 132.599803 73.0857275 165 73.0857275"></polygon><polygon id="Path" points="231 11.9735139 207.312965 11.9735139 207.312965 85 193.629975 85 193.629975 11.9735139 170 11.9735139 170 0 231 0"></polygon></g></g></g></svg>