<svg width="166" height="137" viewBox="0 0 166 137" fill="none" xmlns="http://www.w3.org/2000/svg">
    <path
        d="M127.573 117.029L139.352 110.221C146.057 106.319 150.194 97.989 150.189 86.1285C150.178 62.2438 133.391 33.1235 112.688 21.0609C102.271 14.9917 92.8471 14.3985 86.0565 18.3534L74.2803 25.1602C81.0709 21.2054 90.4927 21.7956 100.91 27.8648C121.613 39.9274 138.402 69.0582 138.411 92.9324C138.416 104.793 134.27 113.113 127.573 117.029Z"
        fill="#E7FAFB" stroke="#151E29" stroke-width="1.33967" stroke-linejoin="round" />
    <path
        d="M100.95 114.313C121.651 126.375 138.426 116.798 138.417 92.9244C138.408 69.0512 121.62 39.9217 100.919 27.8596C80.2173 15.7975 63.4448 25.373 63.4511 49.2479C63.4574 73.1228 80.2484 102.251 100.95 114.313Z"
        fill="white" stroke="#151E29" stroke-width="1.33967" stroke-linejoin="round" />
    <path
        d="M94.8623 87.0691L98.6499 91.9759C98.9116 92.3081 99.2085 92.5779 99.5107 92.7582C99.8129 92.9385 100.11 93.023 100.371 93.0032L115.746 91.4288C116 91.4049 116.211 91.2819 116.359 91.0715C116.507 90.8611 116.586 90.5705 116.589 90.2277V70.5767C116.586 70.2303 116.507 69.8451 116.359 69.4584C116.211 69.0717 116 68.6965 115.746 68.3689L100.406 48.468C100.144 48.1358 99.8473 47.866 99.5451 47.6857C99.2429 47.5053 98.946 47.4209 98.6843 47.4407L83.2757 48.9946C83.0212 49.0184 82.8099 49.1415 82.6621 49.3519C82.5144 49.5622 82.4351 49.8528 82.4321 50.1956V69.8467C82.4351 70.1931 82.5144 70.5782 82.6621 70.9649C82.8099 71.3516 83.0212 71.7269 83.2757 72.0545L87.8897 78.036C88.4588 78.7677 89.1068 79.3645 89.7681 79.7657C90.4294 80.167 91.0804 80.3585 91.6553 80.321C92.2302 80.2834 92.7086 80.0181 93.042 79.5518C93.3754 79.0856 93.5519 78.435 93.5538 77.6659V58.6365"
        stroke="#0A6190" stroke-width="4.01902" stroke-linecap="round" stroke-linejoin="round" />
    <path
        d="M98.6843 73.7262C98.6868 74.6563 98.9804 75.727 99.5098 76.7371C100.039 77.7473 100.768 78.6273 101.559 79.2119C102.285 79.7393 103.015 80.2218 103.746 80.657C104.476 81.0924 105.206 81.4811 105.932 81.8214C106.721 82.1748 107.445 82.1602 107.971 81.7802C108.497 81.4003 108.788 80.681 108.79 79.7567C108.791 78.9336 108.541 77.9868 108.083 77.0856C107.626 76.1844 106.992 75.3877 106.294 74.8379L103.746 72.7359L101.249 70.7449C100.527 70.1962 99.867 69.38 99.3942 68.451C98.9214 67.5221 98.6688 66.5449 98.6843 65.7048C98.6905 64.7811 98.9853 64.0639 99.514 63.686C100.043 63.3082 100.77 63.2956 101.559 63.6504C102.285 63.9894 103.015 64.3781 103.746 64.8147C104.476 65.2512 105.206 65.7336 105.932 66.2598C106.721 66.8471 107.445 67.7266 107.971 68.7342C108.497 69.7418 108.788 70.8086 108.79 71.7353"
        stroke="#0A6190" stroke-width="4.01902" stroke-linecap="round" stroke-linejoin="round" />
</svg>