<svg width="85" height="98" viewBox="0 0 85 98" fill="none" xmlns="http://www.w3.org/2000/svg">
    <g clip-path="url(#clip0_67_5618)">
        <path
            d="M62.1098 85.9959L71.0028 80.8645C76.065 77.9242 79.1868 71.6433 79.18 62.6991C79.1652 44.6874 66.4812 22.7231 50.8448 13.6211C42.9763 9.04158 35.8602 8.59186 30.7334 11.5725L21.8425 16.7026C26.9693 13.7219 34.0842 14.1695 41.9526 18.749C57.589 27.8509 70.2747 49.8231 70.2878 67.827C70.2947 76.7711 67.1656 83.0444 62.1098 85.9959Z"
            fill="#D4E7F8" stroke="#151E29" stroke-linejoin="round" />
        <path
            d="M41.9982 83.9471C57.6346 93.049 70.3008 85.8308 70.2876 67.8269C70.2745 49.823 57.5889 27.8508 41.9525 18.7489C26.316 9.64701 13.6521 16.864 13.663 34.8691C13.6739 52.8743 26.3618 74.8452 41.9982 83.9471Z"
            fill="white" stroke="#151E29" stroke-linejoin="round" />
        <path
            d="M37.3889 63.4133L40.2498 67.1128C40.4475 67.3632 40.6718 67.5665 40.9001 67.7023C41.1283 67.8381 41.3526 67.9016 41.5503 67.8864L53.1629 66.6847C53.3551 66.6665 53.5148 66.5735 53.6264 66.4146C53.738 66.2557 53.7978 66.0363 53.8001 65.7777V50.9488C53.7978 50.6874 53.738 50.3969 53.6264 50.1052C53.5148 49.8135 53.3551 49.5305 53.1629 49.2835L41.5763 34.2798C41.3786 34.0293 41.1543 33.826 40.9261 33.6902C40.6978 33.5544 40.4735 33.4909 40.2759 33.5061L28.6372 34.6923C28.445 34.7105 28.2853 34.8036 28.1737 34.9625C28.0621 35.1213 28.0023 35.3407 28 35.5994V50.4282C28.0023 50.6896 28.0621 50.9801 28.1737 51.2718C28.2853 51.5635 28.445 51.8465 28.6372 52.0935L32.1223 56.6031C32.5522 57.1548 33.0417 57.6045 33.5411 57.9067C34.0406 58.2089 34.5324 58.3529 34.9666 58.324C35.4009 58.2952 35.7622 58.0945 36.014 57.7424C36.2658 57.3903 36.3992 56.8992 36.4006 56.3188V41.9591"
            stroke="#0056B3" stroke-width="2" stroke-linecap="round" stroke-linejoin="round" />
        <path
            d="M40.2758 53.3437C40.2777 54.0455 40.4995 54.8531 40.8994 55.6149C41.2993 56.3766 41.8498 57.04 42.4475 57.4804C42.9959 57.8777 43.5473 58.2411 44.099 58.5689C44.6508 58.8967 45.2021 59.1894 45.7505 59.4455C46.3459 59.7115 46.8933 59.6998 47.2906 59.4127C47.6878 59.1255 47.9077 58.5825 47.9092 57.8851C47.9101 57.264 47.7209 56.5498 47.3754 55.8702C47.0299 55.1906 46.5508 54.59 46.0236 54.1758L44.099 52.592L42.2134 51.0919C41.6679 50.6785 41.1692 50.0632 40.8121 49.3627C40.455 48.6621 40.2641 47.925 40.2758 47.2911C40.2805 46.5941 40.5032 46.0526 40.9026 45.7671C41.302 45.4816 41.8509 45.4714 42.4475 45.7384C42.9959 45.9936 43.5473 46.2862 44.099 46.615C44.6508 46.9437 45.2021 47.307 45.7505 47.7035C46.3459 48.1459 46.8933 48.8089 47.2906 49.5687C47.6878 50.3286 47.9077 51.1332 47.9092 51.8325"
            stroke="#0056B3" stroke-width="2" stroke-linecap="round" stroke-linejoin="round" />
    </g>
    <defs>
        <clipPath id="clip0_67_5618">
            <rect width="85" height="98" fill="white" />
        </clipPath>
    </defs>
</svg>