<svg width="166" height="137" viewBox="0 0 166 137" fill="none" xmlns="http://www.w3.org/2000/svg">
<path d="M121.489 96.4553C123.32 97.5127 123.33 99.2325 121.511 100.289C119.691 101.346 116.722 101.346 114.891 100.289C113.061 99.2316 113.051 97.511 114.87 96.4544C116.689 95.3979 119.658 95.3979 121.489 96.4553Z" fill="#FFB422" stroke="#1A1B1D" stroke-linejoin="round"/>
<path d="M116.032 67.4069L116.036 97.589C116.036 97.9076 116.246 98.2256 116.663 98.4688C117.504 98.9582 118.87 98.9582 119.716 98.4688C120.142 98.2226 120.354 97.8994 120.354 97.5766L120.35 67.3945C120.35 67.7173 120.138 68.0405 119.713 68.2867C118.867 68.7761 117.5 68.7761 116.66 68.2867C116.242 68.0435 116.033 67.7262 116.032 67.4069Z" fill="#8FE3E8" stroke="#1A1B1D" stroke-linejoin="round"/>
<path d="M116.029 67.4005C116.027 66.6846 116.993 66.1016 118.186 66.0982C119.379 66.0949 120.348 66.6725 120.35 67.3884C120.352 68.1043 119.386 68.6873 118.193 68.6906C117 68.6939 116.031 68.1163 116.029 67.4005Z" fill="#F5F6F6" stroke="#1A1B1D" stroke-linejoin="round"/>
<path d="M111.899 91.4582C113.73 92.5156 113.739 94.2354 111.92 95.292C110.101 96.3485 107.132 96.3494 105.301 95.292C103.47 94.2346 103.46 92.5139 105.279 91.4574C107.099 90.4008 110.067 90.4008 111.899 91.4582Z" fill="#90CB62" stroke="#1A1B1D" stroke-linejoin="round"/>
<path d="M106.442 62.4098L106.445 92.5919C106.445 92.9106 106.655 93.2286 107.073 93.4717C107.913 93.9611 109.28 93.9611 110.126 93.4717C110.551 93.2255 110.764 92.9023 110.763 92.5796L110.759 62.3975C110.759 62.7202 110.548 63.0434 110.122 63.2896C109.276 63.779 107.91 63.779 107.069 63.2896C106.652 63.0465 106.443 62.7291 106.442 62.4098Z" fill="#8FE3E8" stroke="#1A1B1D" stroke-linejoin="round"/>
<path d="M106.439 62.4034C106.437 61.6875 107.402 61.1045 108.595 61.1012C109.788 61.0978 110.757 61.6755 110.759 62.3913C110.761 63.1072 109.796 63.6902 108.603 63.6935C107.41 63.6969 106.441 63.1192 106.439 62.4034Z" fill="#F5F6F6" stroke="#1A1B1D" stroke-linejoin="round"/>
<path d="M102.308 86.0539C104.139 87.1113 104.149 88.8311 102.329 89.8877C100.51 90.9443 97.541 90.9451 95.7101 89.8877C93.8792 88.8303 93.8693 87.1096 95.6887 86.0531C97.5081 84.9965 100.476 84.9965 102.308 86.0539Z" fill="#4C99A4" stroke="#1A1B1D" stroke-linejoin="round"/>
<path d="M96.851 57.0055L96.8546 87.1876C96.8546 87.5063 97.0645 87.8243 97.482 88.0674C98.3224 88.5568 99.6891 88.5568 100.535 88.0674C100.96 87.8212 101.173 87.498 101.172 87.1753L101.169 56.9932C101.169 57.3159 100.957 57.6391 100.531 57.8853C99.6855 58.3747 98.3188 58.3747 97.4784 57.8853C97.0609 57.6422 96.8519 57.3248 96.851 57.0055Z" fill="#8FE3E8" stroke="#1A1B1D" stroke-linejoin="round"/>
<path d="M96.8479 56.9991C96.8459 56.2832 97.8115 55.7002 99.0046 55.6969C100.198 55.6935 101.167 56.2712 101.169 56.987C101.171 57.7029 100.205 58.2859 99.0119 58.2892C97.8188 58.2926 96.8499 57.7149 96.8479 56.9991Z" fill="#F5F6F6" stroke="#1A1B1D" stroke-linejoin="round"/>
<path d="M77.4636 24.972L88.5805 17.741C91.3091 15.9759 95.0892 16.2171 99.261 18.9177L88.1441 26.1487C83.9723 23.4481 80.1922 23.2069 77.4636 24.972Z" fill="#8FE3E8" stroke="#1A1B1D" stroke-linejoin="round"/>
<path d="M87.0004 26.1322L98.6278 19.3359L103.349 22.0788L91.7212 28.8723L87.0004 26.1322Z" fill="#8FE3E8" stroke="#1A1B1D" stroke-linejoin="round"/>
<path d="M97.8984 19.2662L108.722 12.5501C112.224 10.377 117.07 10.6832 122.421 13.9824L111.594 20.6985C106.247 17.402 101.398 17.0958 97.8984 19.2662Z" fill="#F5F6F6" stroke="#1A1B1D" stroke-linejoin="round"/>
<path d="M147.999 77.0061L136.844 83.3663C139.548 81.8137 141.225 78.5457 141.238 73.8881C141.259 66.2238 136.775 57.1933 130.596 51.5809L141.75 45.2207C147.927 50.8357 152.414 59.8662 152.393 67.5305C152.38 72.1829 150.702 75.4665 147.999 77.0061Z" fill="#F5F6F6" stroke="#1A1B1D" stroke-linejoin="round"/>
<path d="M111.523 20.522L122.404 13.8867C132.125 19.7767 140.159 33.2984 141.494 45.3943L130.612 52.0323C129.269 39.9364 121.244 26.412 111.523 20.522Z" fill="#F5F6F6" stroke="#1A1B1D" stroke-linejoin="round"/>
<path d="M111.853 20.6883C121.63 26.4274 129.709 39.6054 131.052 51.3914C137.116 57.0989 141.515 66.2824 141.494 74.0766C141.468 83.6127 134.828 87.4598 126.666 82.6681L88.1072 60.0381C79.9451 55.2464 73.3565 43.6314 73.3772 34.0952C73.3979 24.5591 80.0513 20.7067 88.2107 25.5037L92.654 28.1141C94.3283 18.4622 102.307 15.0782 111.853 20.6883Z" fill="#8FE3E8" stroke="#1A1B1D" stroke-linejoin="round"/>
<path d="M118.206 65.4209C119.418 65.421 120.605 65.6901 121.487 66.1992C122.371 66.7099 122.705 67.3123 122.707 67.8125C122.71 68.3111 122.385 68.9101 121.509 69.4189C120.634 69.927 119.451 70.1962 118.238 70.1963C117.025 70.1964 115.838 69.928 114.956 69.4189C114.072 68.9084 113.739 68.3061 113.736 67.8057C113.733 67.3066 114.058 66.7063 114.934 66.1973C115.809 65.6892 116.993 65.4208 118.206 65.4209Z" fill="#90CB62" stroke="#1A1B1D"/>
<path d="M108.574 59.9453C109.787 59.9455 110.973 60.2145 111.856 60.7236C112.74 61.2343 113.073 61.8367 113.076 62.3369C113.079 62.8356 112.754 63.4345 111.878 63.9434C111.003 64.4515 109.819 64.7206 108.607 64.7207C107.394 64.7208 106.207 64.4524 105.325 63.9434C104.441 63.4328 104.108 62.8306 104.105 62.3301C104.102 61.831 104.426 61.2307 105.303 60.7217C106.178 60.2136 107.362 59.9452 108.574 59.9453Z" fill="#4C99A4" stroke="#1A1B1D"/>
<path d="M98.9423 54.4697C100.155 54.4699 101.341 54.7389 102.224 55.248C103.108 55.7588 103.441 56.3611 103.444 56.8613C103.447 57.36 103.122 57.9589 102.246 58.4678C101.371 58.9759 100.187 59.245 98.9745 59.2451C97.762 59.2452 96.5749 58.9768 95.6932 58.4678C94.8092 57.9572 94.4755 57.355 94.4725 56.8545C94.4697 56.3554 94.7943 55.7551 95.6708 55.2461C96.5457 54.738 97.7295 54.4696 98.9423 54.4697Z" fill="#FFB422" stroke="#1A1B1D"/>
<path fill-rule="evenodd" clip-rule="evenodd" d="M73.5036 31.9414L141.297 71.0788C141.344 71.4359 141.382 71.7914 141.412 72.1451L73.4163 32.891C73.4373 32.5669 73.4664 32.2504 73.5036 31.9414Z" fill="#1A1B1D"/>
<path d="M98.3753 44.4565L106.046 57.544L114.152 57.6985L106.478 44.6121L98.3753 44.4565Z" fill="#8FE3E8" stroke="#0A6190" stroke-linejoin="round"/>
<path d="M114.152 57.6992L125.449 48.6998L117.779 35.6162L106.477 44.6128L114.152 57.6992Z" fill="#0A6190" stroke="#0A6190" stroke-linejoin="round"/>
<path d="M106.477 44.6126L117.779 35.616L109.673 35.4615L98.3752 44.4571L106.477 44.6126Z" fill="#E7FAFB" stroke="#0A6190" stroke-linejoin="round"/>
</svg>
