<svg width="166" height="137" viewBox="0 0 166 137" fill="none" xmlns="http://www.w3.org/2000/svg">
  <path fill-rule="evenodd" clip-rule="evenodd"
    d="M155.107 58.5762L145.443 64.1505L145.271 124.863L145.295 124.854L145.28 124.863C145.322 125.308 145.246 125.755 145.059 126.161C144.873 126.568 144.583 126.918 144.217 127.178L153.873 121.604C154.24 121.343 154.531 120.991 154.718 120.583C154.904 120.176 154.979 119.727 154.936 119.281L154.936 119.281L155.107 58.5762Z"
    fill="#30839D" />
  <path
    d="M145.443 64.1505L145.193 63.7173C145.039 63.8064 144.943 63.9708 144.943 64.1491L145.443 64.1505ZM155.107 58.5762L155.607 58.5776C155.608 58.3987 155.513 58.2332 155.358 58.1436C155.203 58.0539 155.012 58.0537 154.857 58.1431L155.107 58.5762ZM145.271 124.863L144.771 124.862C144.771 125.027 144.852 125.182 144.988 125.275C145.124 125.369 145.297 125.389 145.451 125.33L145.271 124.863ZM145.295 124.854L145.546 125.287C145.772 125.156 145.859 124.874 145.746 124.638C145.634 124.403 145.359 124.294 145.116 124.388L145.295 124.854ZM145.28 124.863L145.029 124.43C144.86 124.528 144.763 124.716 144.782 124.91L145.28 124.863ZM145.059 126.161L145.514 126.37H145.514L145.059 126.161ZM144.217 127.178L143.927 126.771C143.71 126.925 143.652 127.224 143.797 127.448C143.941 127.673 144.236 127.745 144.467 127.611L144.217 127.178ZM153.873 121.604L154.123 122.037C154.137 122.029 154.15 122.02 154.163 122.011L153.873 121.604ZM154.718 120.583L155.172 120.791V120.791L154.718 120.583ZM154.936 119.281L154.633 118.883C154.495 118.988 154.421 119.157 154.438 119.329L154.936 119.281ZM154.936 119.281L155.239 119.679C155.362 119.584 155.435 119.438 155.436 119.282L154.936 119.281ZM145.693 64.5836L155.357 59.0093L154.857 58.1431L145.193 63.7173L145.693 64.5836ZM145.771 124.865L145.943 64.1519L144.943 64.1491L144.771 124.862L145.771 124.865ZM145.116 124.388L145.092 124.397L145.451 125.33L145.475 125.321L145.116 124.388ZM145.53 125.296L145.546 125.287L145.045 124.421L145.029 124.43L145.53 125.296ZM145.514 126.37C145.737 125.884 145.828 125.348 145.777 124.816L144.782 124.91C144.816 125.267 144.755 125.627 144.605 125.953L145.514 126.37ZM144.507 127.586C144.944 127.275 145.291 126.856 145.514 126.37L144.605 125.953C144.455 126.279 144.222 126.561 143.927 126.771L144.507 127.586ZM153.623 121.171L143.967 126.745L144.467 127.611L154.123 122.037L153.623 121.171ZM154.263 120.375C154.113 120.703 153.879 120.986 153.583 121.196L154.163 122.011C154.601 121.7 154.949 121.279 155.172 120.791L154.263 120.375ZM154.438 119.329C154.473 119.687 154.413 120.048 154.263 120.375L155.172 120.791C155.395 120.303 155.485 119.766 155.433 119.232L154.438 119.329ZM154.633 118.883L154.633 118.883L155.238 119.679L155.239 119.679L154.633 118.883ZM154.607 58.5748L154.436 119.279L155.436 119.282L155.607 58.5776L154.607 58.5748Z"
    fill="#151E29" />
  <path fill-rule="evenodd" clip-rule="evenodd"
    d="M75.9067 10.229L66.251 15.8033C66.6629 15.6183 67.1166 15.5445 67.5664 15.5893C68.0161 15.6341 68.446 15.7961 68.8127 16.0587L71.8623 17.7925L141.81 57.9041L151.474 52.3298L78.503 10.4758L78.4826 10.4876L78.477 10.4843C78.1094 10.2202 77.6779 10.0575 77.2265 10.0127C76.775 9.96784 76.3197 10.0424 75.9067 10.229Z"
    fill="#30839D" />
  <path
    d="M66.251 15.8033L66.001 15.3703L66.4558 16.2594L66.251 15.8033ZM75.9067 10.229L75.7009 9.7733L75.6782 9.78353L75.6567 9.79595L75.9067 10.229ZM67.5664 15.5893L67.6159 15.0918L67.5664 15.5893ZM68.8127 16.0587L68.5216 16.4652L68.5429 16.4804L68.5656 16.4933L68.8127 16.0587ZM71.8623 17.7925L72.111 17.3588L72.1094 17.3578L71.8623 17.7925ZM141.81 57.9041L141.561 58.3378L141.81 58.4809L142.059 58.3372L141.81 57.9041ZM151.474 52.3298L151.724 52.7629L152.477 52.3286L151.723 51.8961L151.474 52.3298ZM78.503 10.4758L78.7518 10.0421L78.5021 9.89888L78.2529 10.0428L78.503 10.4758ZM78.4826 10.4876L78.2287 10.9184L78.4801 11.0665L78.7327 10.9205L78.4826 10.4876ZM78.477 10.4843L78.1853 10.8904L78.2037 10.9036L78.2232 10.9151L78.477 10.4843ZM77.2265 10.0127L77.1771 10.5102L77.2265 10.0127ZM66.501 16.2363L76.1567 10.662L75.6567 9.79595L66.001 15.3703L66.501 16.2363ZM67.6159 15.0918C67.0792 15.0383 66.5378 15.1264 66.0462 15.3472L66.4558 16.2594C66.7879 16.1103 67.1539 16.0507 67.5168 16.0868L67.6159 15.0918ZM69.1038 15.6521C68.6659 15.3386 68.1527 15.1453 67.6159 15.0918L67.5168 16.0868C67.8796 16.123 68.2262 16.2536 68.5216 16.4652L69.1038 15.6521ZM72.1094 17.3578L69.0598 15.624L68.5656 16.4933L71.6151 18.2272L72.1094 17.3578ZM142.058 57.4703L72.111 17.3588L71.6135 18.2262L141.561 58.3378L142.058 57.4703ZM151.224 51.8967L141.56 57.471L142.059 58.3372L151.724 52.7629L151.224 51.8967ZM78.2542 10.9095L151.225 52.7635L151.723 51.8961L78.7518 10.0421L78.2542 10.9095ZM78.7327 10.9205L78.7531 10.9087L78.2529 10.0428L78.2325 10.0546L78.7327 10.9205ZM78.2232 10.9151L78.2287 10.9184L78.7364 10.0568L78.7309 10.0536L78.2232 10.9151ZM77.1771 10.5102C77.5413 10.5464 77.8892 10.6777 78.1853 10.8904L78.7687 10.0782C78.3296 9.76277 77.8145 9.56863 77.2759 9.51513L77.1771 10.5102ZM76.1126 10.6846C76.4455 10.5343 76.8128 10.474 77.1771 10.5102L77.2759 9.51513C76.7373 9.46163 76.194 9.55057 75.7009 9.7733L76.1126 10.6846Z"
    fill="#151E29" />
  <path
    d="M141.809 57.9038C142.87 58.5847 143.754 59.5059 144.387 60.5918C145.02 61.6777 145.384 62.8974 145.451 64.1505L145.279 124.863C145.279 127.161 143.634 128.08 141.612 126.923L68.6413 85.0774C67.5821 84.3945 66.7002 83.4728 66.0675 82.3873C65.4347 81.3019 65.069 80.0833 65 78.8309L65.1799 18.1264C65.1799 15.8286 66.8249 14.901 68.8383 16.0584L141.809 57.9038Z"
    fill="white" stroke="#151E29" />
  <path d="M145.472 72.9404L155.098 67.4214" stroke="#30839D" />
  <path
    d="M155.116 67.4222L145.473 72.9412L145.451 64.1506C145.385 62.8975 145.02 61.6778 144.387 60.5919C143.754 59.506 142.871 58.5848 141.81 57.9039L151.474 52.3296C152.535 53.0115 153.417 53.9329 154.05 55.0186C154.683 56.1043 155.048 57.3235 155.116 58.5763V67.4222Z"
    fill="#30839D" />
  <path
    d="M145.473 72.9412L144.973 72.9424L144.975 73.8023L145.721 73.3752L145.473 72.9412ZM155.116 67.4222L155.364 67.8561L155.616 67.7121V67.4222H155.116ZM141.81 57.9039L141.56 57.4708C141.409 57.558 141.314 57.7177 141.31 57.8921C141.306 58.0665 141.393 58.2305 141.54 58.3247L141.81 57.9039ZM151.474 52.3296L151.745 51.9091C151.588 51.8078 151.387 51.803 151.225 51.8965L151.474 52.3296ZM154.05 55.0186L153.618 55.2704V55.2704L154.05 55.0186ZM155.116 58.5763H155.616C155.616 58.5673 155.615 58.5583 155.615 58.5493L155.116 58.5763ZM145.451 64.1506L145.951 64.1494C145.951 64.141 145.951 64.1326 145.951 64.1242L145.451 64.1506ZM144.387 60.5919L143.956 60.8437L144.387 60.5919ZM145.721 73.3752L155.364 67.8561L154.867 66.9882L145.224 72.5073L145.721 73.3752ZM142.06 58.337L151.724 52.7627L151.225 51.8965L141.56 57.4708L142.06 58.337ZM151.204 52.7501C152.198 53.3894 153.025 54.2531 153.618 55.2704L154.482 54.7668C153.809 53.6127 152.871 52.6335 151.745 51.9091L151.204 52.7501ZM153.618 55.2704C154.211 56.2877 154.553 57.4298 154.616 58.6032L155.615 58.5493C155.543 57.2172 155.155 55.9209 154.482 54.7668L153.618 55.2704ZM145.951 64.1242C145.88 62.7916 145.492 61.4946 144.819 60.3401L143.956 60.8437C144.549 61.861 144.89 63.0035 144.952 64.177L145.951 64.1242ZM144.819 60.3401C144.146 59.1856 143.208 58.2066 142.08 57.4831L141.54 58.3247C142.535 58.963 143.362 59.8264 143.956 60.8437L144.819 60.3401ZM144.951 64.1518L144.973 72.9424L145.973 72.94L145.951 64.1494L144.951 64.1518ZM154.616 58.5763V67.4222H155.616V58.5763H154.616Z"
    fill="#151E29" />
  <path
    d="M141.81 57.9039L151.474 52.3296C152.535 53.0115 153.417 53.9329 154.05 55.0186C154.683 56.1043 155.048 57.3235 155.116 58.5763L145.451 64.1506C145.385 62.8975 145.02 61.6778 144.387 60.5919C143.754 59.506 142.871 58.5848 141.81 57.9039Z"
    fill="#30839D" stroke="#151E29" stroke-linejoin="round" />
  <path
    d="M144.387 60.5918C143.754 59.5059 142.87 58.5847 141.809 57.9038L68.8382 16.0584C66.8248 14.901 65.1798 15.8286 65.1798 18.1264L65.1572 26.7715L145.429 72.7967L145.45 64.1505C145.384 62.8974 145.02 61.6777 144.387 60.5918Z"
    fill="#5CC3C9" stroke="#151E29" />
  <ellipse cx="71.498" cy="22.9559" rx="2.57031" ry="2.55311" fill="#C9458D" stroke="#151E29" />
  <ellipse cx="78.876" cy="27.2055" rx="2.57031" ry="2.55311" fill="#FFDF81" stroke="#151E29" />
  <ellipse cx="86.2534" cy="31.455" rx="2.57031" ry="2.55311" fill="#5CC3C9" stroke="#151E29" />
  <path
    d="M69.7079 64.0321L69.3182 63.6035L70.9029 60.729L71.2888 61.1598L69.7079 64.0321ZM71.5811 65.1065L71.1915 64.6779L72.7761 61.8034L73.162 62.2342L71.5811 65.1065ZM77.9168 65.283L77.9169 67.2805C77.9169 67.4835 77.8807 67.6441 77.8083 67.7624C77.7371 67.8799 77.6328 67.9447 77.4954 67.9566C77.3581 67.9685 77.1888 67.9168 76.9878 67.8015C76.7855 67.6854 76.6156 67.5441 76.4782 67.3775C76.3409 67.2095 76.2372 67.0262 76.1673 66.8277C76.0973 66.6292 76.0623 66.4256 76.0623 66.2169L76.0623 64.2193L76.5755 64.5137L76.5756 66.345C76.5756 66.5998 76.6056 66.8085 76.6656 66.971C76.7255 67.132 76.8329 67.257 76.9878 67.3458C77.1439 67.4353 77.2519 67.434 77.3118 67.3416C77.3718 67.2479 77.4017 67.0736 77.4017 66.8188L77.4017 64.9875L77.9168 65.283ZM79.2349 68.6692C79.3511 68.7358 79.4441 68.7661 79.5141 68.7602C79.5852 68.7535 79.6208 68.7077 79.6208 68.6228C79.6208 68.5666 79.609 68.5123 79.5852 68.4598C79.5628 68.408 79.5178 68.3463 79.4504 68.2745C79.3829 68.2012 79.2818 68.1051 79.1469 67.986C79.0195 67.8755 78.9077 67.7653 78.8116 67.6554C78.7166 67.5449 78.6423 67.4303 78.5886 67.3116C78.5362 67.1937 78.5099 67.0678 78.5099 66.934C78.5099 66.8001 78.5424 66.7014 78.6073 66.6378C78.6723 66.5728 78.7659 66.5474 78.8883 66.5614C79.012 66.5748 79.1606 66.6312 79.3342 66.7308C79.504 66.8282 79.6526 66.9393 79.78 67.0642C79.9074 67.1877 80.0167 67.3137 80.1078 67.4423L79.9055 67.6739C79.8256 67.569 79.7388 67.4718 79.6451 67.382C79.5527 67.2916 79.4528 67.2156 79.3454 67.154C79.2293 67.0874 79.1443 67.0581 79.0906 67.0662C79.0382 67.075 79.012 67.1139 79.012 67.183C79.012 67.232 79.0251 67.2812 79.0513 67.3308C79.0788 67.3797 79.1275 67.44 79.1974 67.5118C79.2686 67.5829 79.3698 67.6776 79.5009 67.796C79.6295 67.9101 79.7413 68.0217 79.8362 68.1308C79.9324 68.2407 80.0067 68.356 80.0592 68.4768C80.1116 68.5976 80.1379 68.7314 80.1379 68.8783C80.1379 69.0438 80.096 69.1566 80.0124 69.2166C79.9287 69.2766 79.8182 69.2938 79.6808 69.2683C79.5447 69.242 79.3967 69.1831 79.2368 69.0914C79.0495 68.9839 78.8859 68.8592 78.746 68.717C78.6062 68.5749 78.4875 68.427 78.3901 68.2732L78.6467 68.0878C78.7242 68.2028 78.8122 68.3116 78.9109 68.4142C79.0108 68.5176 79.1188 68.6026 79.2349 68.6692ZM81.2142 69.1911C81.2242 69.3394 81.2523 69.4714 81.2985 69.5871C81.346 69.7036 81.4066 69.8039 81.4803 69.8879C81.5539 69.9719 81.6357 70.0397 81.7257 70.0912C81.8206 70.1457 81.9099 70.1796 81.9935 70.1931C82.0772 70.2065 82.1596 70.2055 82.2408 70.1902L82.4469 70.6345C82.3545 70.6707 82.2439 70.6793 82.1153 70.6602C81.9879 70.6419 81.8474 70.5887 81.6938 70.5006C81.479 70.3774 81.2979 70.2224 81.1506 70.0357C81.0045 69.8496 80.8939 69.6444 80.819 69.4201C80.744 69.1957 80.7066 68.9655 80.7066 68.7293C80.7066 68.5019 80.7434 68.3179 80.8171 68.1773C80.8907 68.0367 80.9969 67.9529 81.1355 67.9259C81.2741 67.8974 81.4415 67.9394 81.6375 68.0518C81.8199 68.1564 81.9772 68.2927 82.1096 68.4608C82.242 68.6289 82.3444 68.82 82.4168 69.0343C82.4893 69.2472 82.5255 69.4746 82.5255 69.7164C82.5255 69.7553 82.5243 69.7942 82.5218 69.8331C82.5205 69.8727 82.5187 69.9076 82.5162 69.9378L81.2142 69.1911ZM81.6394 68.4546C81.5195 68.3858 81.4209 68.3789 81.3435 68.4338C81.2673 68.488 81.2223 68.6177 81.2086 68.8229L82.0441 69.3021C82.0416 69.1078 82.0066 68.9373 81.9392 68.7906C81.873 68.6432 81.7731 68.5312 81.6394 68.4546ZM83.1243 71.2562L83.1242 70.861L83.4034 71.0211L83.4033 69.5224L83.1242 69.3623L83.1242 68.9693L83.7798 69.3453L83.8716 69.9227C83.9441 69.7699 84.0352 69.6761 84.1451 69.6412C84.255 69.6049 84.393 69.6344 84.5591 69.7296C84.6228 69.7662 84.679 69.8041 84.7277 69.8436C84.7777 69.8838 84.8251 69.9261 84.8701 69.9706L84.7221 70.3651C84.6834 70.3314 84.6465 70.3016 84.6116 70.2758C84.5766 70.2486 84.5373 70.2224 84.4936 70.1973C84.3562 70.1186 84.2363 70.1117 84.1339 70.1768C84.0327 70.2411 83.9541 70.3623 83.8979 70.5403L83.8979 71.3047L84.2932 71.5314L84.2932 71.9266L83.1243 71.2562ZM84.4524 70.6229L84.4523 70.0161L84.5198 69.7697L84.8701 69.9706L84.7821 70.812L84.4524 70.6229ZM89.0179 73.1291C89.0179 72.9074 88.9998 72.7178 88.9636 72.5602C88.9286 72.4034 88.8805 72.2715 88.8193 72.1644C88.7581 72.0559 88.6888 71.9664 88.6114 71.8961C88.5339 71.8258 88.4534 71.7666 88.3697 71.7186L88.1786 71.6091L88.1787 73.7167L88.3717 73.8274C88.4591 73.8775 88.5415 73.909 88.6189 73.9217C88.6976 73.9352 88.7669 73.9202 88.8269 73.8769C88.8868 73.832 88.9336 73.7502 88.9674 73.6313C89.0011 73.511 89.0179 73.3436 89.0179 73.1291ZM89.5537 73.4364C89.5537 73.6811 89.5306 73.8774 89.4844 74.0251C89.4394 74.1735 89.377 74.2823 89.2971 74.3517C89.2171 74.4196 89.1247 74.4558 89.0198 74.4604C88.9162 74.4658 88.805 74.4481 88.6864 74.4074C88.569 74.366 88.4497 74.3106 88.3286 74.2411L87.6655 73.8607L87.6653 70.8741L88.2835 71.2287C88.4446 71.3211 88.6007 71.4308 88.7519 71.5577C88.903 71.6833 89.0385 71.833 89.1584 72.0068C89.2795 72.1814 89.3757 72.3863 89.4469 72.6215C89.5181 72.8552 89.5537 73.1269 89.5537 73.4364ZM90.4652 74.4969C90.4752 74.6452 90.5033 74.7772 90.5495 74.8929C90.597 75.0094 90.6576 75.1097 90.7313 75.1937C90.8049 75.2777 90.8867 75.3455 90.9767 75.397C91.0716 75.4515 91.1609 75.4854 91.2445 75.4989C91.3282 75.5123 91.4106 75.5113 91.4918 75.496L91.6979 75.9403C91.6055 75.9765 91.4949 75.9851 91.3663 75.966C91.2389 75.9477 91.0984 75.8945 90.9448 75.8064C90.73 75.6832 90.5489 75.5282 90.4016 75.3415C90.2554 75.1554 90.1449 74.9502 90.07 74.7259C89.995 74.5015 89.9576 74.2713 89.9576 74.0351C89.9576 73.8077 89.9944 73.6237 90.0681 73.4831C90.1417 73.3425 90.2479 73.2587 90.3865 73.2317C90.5251 73.2032 90.6925 73.2452 90.8885 73.3576C91.0709 73.4622 91.2282 73.5985 91.3606 73.7666C91.493 73.9347 91.5954 74.1258 91.6678 74.3401C91.7403 74.553 91.7765 74.7804 91.7765 75.0222C91.7765 75.0611 91.7753 75.1 91.7728 75.1389C91.7715 75.1785 91.7697 75.2134 91.7672 75.2436L90.4652 74.4969ZM90.8904 73.7604C90.7705 73.6916 90.6719 73.6847 90.5944 73.7396C90.5183 73.7938 90.4733 73.9235 90.4596 74.1287L91.2951 74.6079C91.2926 74.4136 91.2576 74.2431 91.1902 74.0964C91.124 73.949 91.0241 73.837 90.8904 73.7604ZM93.5871 73.9963C93.7195 74.0722 93.8369 74.1517 93.9393 74.2349C94.0417 74.3182 94.1348 74.4046 94.2184 74.4944L94.0761 74.7971C94.0099 74.7275 93.9406 74.6647 93.8682 74.6087C93.7957 74.5528 93.7233 74.5041 93.6509 74.4625C93.526 74.3909 93.4348 74.366 93.3774 74.3877C93.3212 74.4088 93.2931 74.4783 93.2931 74.5964L93.2931 74.957L93.9487 75.333L93.8944 75.71L93.2931 75.3651L93.2932 77.0884L92.8005 76.8059L92.8004 75.0826L92.3639 74.8322L92.3639 74.4241L92.8004 74.6744L92.8004 74.3008C92.8004 74.1525 92.8316 74.0402 92.894 73.9637C92.9565 73.8858 93.0464 73.8481 93.1638 73.8506C93.2824 73.8539 93.4235 73.9024 93.5871 73.9963ZM95.81 76.4006L95.8101 78.1282L96.3327 78.4279L96.3327 78.8318L94.7348 77.9153L94.7348 77.5115L95.3155 77.8445L95.3155 76.5251L94.7535 76.2027L94.7535 75.7946L95.81 76.4006ZM95.4896 75.0334C95.5808 75.0857 95.6545 75.1604 95.7107 75.2574C95.7681 75.3551 95.7969 75.4522 95.7969 75.5487C95.7969 75.6451 95.7682 75.71 95.7107 75.7433C95.6545 75.7758 95.5808 75.766 95.4897 75.7137C95.3985 75.6614 95.3242 75.5864 95.2667 75.4886C95.2093 75.3895 95.1806 75.2916 95.1806 75.1952C95.1806 75.0987 95.2093 75.0346 95.2667 75.0027C95.3242 74.9709 95.3985 74.9811 95.4896 75.0334ZM96.982 79.2041L96.9819 76.9172L97.4128 77.1643L97.4484 77.4676C97.5333 77.4012 97.6288 77.3696 97.735 77.3729C97.8411 77.3747 97.9554 77.4108 98.0778 77.4809C98.2564 77.5834 98.3925 77.7212 98.4862 77.8944C98.5799 78.0662 98.6267 78.2593 98.6267 78.4738L98.6268 80.1475L98.1322 79.8638L98.1322 78.4126C98.1322 78.2975 98.1259 78.2017 98.1134 78.1255C98.1009 78.0478 98.0772 77.9838 98.0422 77.9335C98.0073 77.8817 97.9567 77.8369 97.8905 77.7989C97.8368 77.7681 97.785 77.7521 97.735 77.7508C97.6863 77.7502 97.6401 77.7604 97.5964 77.7814C97.5539 77.8031 97.514 77.8313 97.4765 77.866L97.4766 79.4878L96.982 79.2041ZM99.7162 79.8027C99.7262 79.951 99.7543 80.083 99.8005 80.1987C99.848 80.3152 99.9086 80.4155 99.9822 80.4995C100.056 80.5835 100.138 80.6513 100.228 80.7028C100.323 80.7573 100.412 80.7912 100.496 80.8047C100.579 80.8181 100.662 80.8171 100.743 80.8018L100.949 81.2461C100.856 81.2823 100.746 81.2909 100.617 81.2718C100.49 81.2535 100.349 81.2003 100.196 81.1122C99.981 80.989 99.7999 80.834 99.6526 80.6473C99.5064 80.4612 99.3959 80.256 99.321 80.0317C99.246 79.8073 99.2086 79.577 99.2086 79.3409C99.2085 79.1135 99.2454 78.9294 99.3191 78.7889C99.3927 78.6483 99.4989 78.5645 99.6375 78.5375C99.7761 78.509 99.9435 78.551 100.14 78.6634C100.322 78.768 100.479 78.9043 100.612 79.0724C100.744 79.2405 100.846 79.4316 100.919 79.6459C100.991 79.8588 101.027 80.0862 101.028 80.328C101.028 80.3669 101.026 80.4058 101.024 80.4447C101.023 80.4843 101.021 80.5192 101.018 80.5494L99.7162 79.8027ZM100.141 79.0662C100.022 78.9974 99.9229 78.9905 99.8454 79.0454C99.7693 79.0996 99.7243 79.2293 99.7106 79.4345L100.546 79.9137C100.544 79.7194 100.509 79.5489 100.441 79.4022C100.375 79.2548 100.275 79.1428 100.141 79.0662ZM102.758 79.2558L103.252 79.6L103.252 82.8004L102.814 82.549L102.784 82.2618C102.723 82.3275 102.646 82.3648 102.554 82.3737C102.461 82.3812 102.354 82.3498 102.231 82.2796C102.064 82.1836 101.925 82.0537 101.815 81.8899C101.707 81.7268 101.626 81.5392 101.572 81.327C101.519 81.1141 101.493 80.8867 101.493 80.6448C101.493 80.4116 101.524 80.2222 101.587 80.0766C101.649 79.931 101.739 79.84 101.857 79.8037C101.975 79.7681 102.116 79.7968 102.278 79.89C102.375 79.9458 102.464 80.0161 102.544 80.1008C102.624 80.1855 102.695 80.284 102.758 80.3961L102.758 79.2558ZM102.411 80.3917C102.286 80.32 102.188 80.3261 102.115 80.4098C102.044 80.4928 102.008 80.6703 102.008 80.9424C102.008 81.1339 102.023 81.2958 102.053 81.4282C102.083 81.5591 102.126 81.6655 102.181 81.7474C102.236 81.8293 102.301 81.8918 102.376 81.9347C102.458 81.982 102.53 81.9955 102.593 81.9752C102.657 81.9541 102.711 81.9143 102.758 81.8559L102.758 80.815C102.711 80.718 102.66 80.6335 102.602 80.5617C102.546 80.4892 102.482 80.4325 102.411 80.3917ZM107.951 82.5085L108.097 85.579L107.64 85.3168L107.591 83.9133C107.587 83.7959 107.585 83.688 107.584 83.5894C107.584 83.49 107.584 83.3968 107.585 83.3097C107.587 83.2212 107.589 83.1366 107.591 83.0559C107.595 82.976 107.599 82.8979 107.604 82.8216L107.261 84.5815L106.846 84.343L106.478 82.1759C106.483 82.255 106.488 82.3375 106.491 82.4231C106.495 82.5088 106.498 82.5973 106.499 82.6887C106.501 82.7808 106.503 82.8773 106.503 82.9781C106.504 83.0796 106.503 83.1839 106.499 83.2912L106.463 84.6421L106.014 84.3842L106.16 81.4814L106.729 81.808L107.063 83.9709L107.381 82.1819L107.951 82.5085ZM110.129 86.1417C110.129 86.2296 110.14 86.3001 110.162 86.3533C110.185 86.405 110.221 86.4553 110.271 86.5041L110.164 86.8251C110.058 86.7513 109.968 86.6691 109.893 86.5786C109.819 86.4874 109.762 86.3821 109.722 86.2628C109.647 86.3249 109.552 86.3489 109.437 86.3348C109.324 86.3215 109.205 86.279 109.08 86.2074C108.877 86.0913 108.717 85.9331 108.598 85.7326C108.48 85.5321 108.42 85.326 108.42 85.1144C108.42 84.8711 108.503 84.7312 108.667 84.6947C108.834 84.6575 109.068 84.726 109.372 84.9L109.649 85.059L109.649 84.936C109.649 84.8006 109.613 84.682 109.54 84.5799C109.468 84.4765 109.364 84.3857 109.228 84.3077C109.164 84.2711 109.084 84.2354 108.988 84.2004C108.893 84.1646 108.795 84.1379 108.694 84.1202L108.576 83.6617C108.702 83.6793 108.829 83.7117 108.956 83.7588C109.085 83.8067 109.201 83.8607 109.306 83.9209C109.585 84.0806 109.791 84.2675 109.926 84.4817C110.061 84.6943 110.129 84.9252 110.129 85.1743L110.129 86.1417ZM109.241 85.8873C109.316 85.9303 109.391 85.9491 109.467 85.9439C109.545 85.9393 109.605 85.9057 109.649 85.8429L109.649 85.3981L109.454 85.2864C109.271 85.1811 109.138 85.1386 109.055 85.159C108.974 85.1801 108.934 85.2526 108.934 85.3764C108.934 85.4829 108.96 85.5807 109.012 85.6698C109.065 85.7575 109.141 85.83 109.241 85.8873ZM111.883 85.3988C112.058 85.4991 112.198 85.629 112.303 85.7885C112.409 85.9473 112.486 86.1303 112.533 86.3374C112.582 86.5453 112.606 86.7716 112.606 87.0164C112.606 87.2511 112.577 87.443 112.518 87.5922C112.46 87.7413 112.373 87.8359 112.26 87.8758C112.147 87.915 112.009 87.8873 111.844 87.7928C111.642 87.6767 111.478 87.5001 111.353 87.2629L111.353 88.3276L110.859 88.1044L110.858 84.8759L111.293 85.1252L111.319 85.4188C111.398 85.3459 111.486 85.31 111.583 85.3111C111.681 85.3109 111.781 85.3401 111.883 85.3988ZM111.739 85.7437C111.655 85.6957 111.582 85.6822 111.518 85.7033C111.455 85.7251 111.4 85.7648 111.353 85.8225L111.353 86.8461C111.398 86.9497 111.449 87.0373 111.507 87.1092C111.564 87.181 111.629 87.2377 111.701 87.2792C111.828 87.3515 111.924 87.3462 111.99 87.2633C112.057 87.1796 112.091 87.0009 112.091 86.7274C112.091 86.5345 112.077 86.3733 112.05 86.2438C112.024 86.1136 111.984 86.009 111.932 85.9299C111.879 85.8494 111.815 85.7874 111.739 85.7437ZM114.196 86.7253C114.371 86.8255 114.511 86.9554 114.615 87.1149C114.722 87.2737 114.798 87.4567 114.846 87.6639C114.895 87.8718 114.919 88.0981 114.919 88.3428C114.919 88.5775 114.89 88.7694 114.831 88.9186C114.772 89.0678 114.686 89.1623 114.572 89.2022C114.46 89.2414 114.321 89.2138 114.157 89.1192C113.954 89.0032 113.791 88.8266 113.666 88.5894L113.666 89.654L113.171 89.4308L113.171 86.2024L113.606 86.4516L113.632 86.7452C113.711 86.6723 113.799 86.6364 113.896 86.6376C113.994 86.6373 114.093 86.6665 114.196 86.7253ZM114.052 87.0701C113.968 87.0221 113.894 87.0087 113.831 87.0297C113.768 87.0515 113.713 87.0912 113.666 87.149L113.666 88.1726C113.711 88.2761 113.762 88.3638 113.819 88.4356C113.877 88.5074 113.942 88.5641 114.014 88.6056C114.14 88.678 114.237 88.6727 114.303 88.5897C114.37 88.506 114.404 88.3274 114.404 88.0539C114.404 87.8609 114.39 87.6997 114.363 87.5702C114.336 87.44 114.297 87.3354 114.245 87.2564C114.192 87.1759 114.128 87.1138 114.052 87.0701ZM116.625 88.1831L116.625 90.0662L117.147 90.366L117.147 90.7698L115.55 89.8533L115.55 89.4495L116.13 89.7826L116.13 88.3033L115.568 87.981L115.568 87.5772L116.625 88.1831ZM116.304 86.8462C116.396 86.8985 116.469 86.9732 116.525 87.0702C116.583 87.1679 116.612 87.265 116.612 87.3615C116.612 87.4579 116.583 87.5228 116.525 87.5561C116.469 87.5886 116.396 87.5787 116.304 87.5265C116.213 87.4742 116.139 87.3992 116.081 87.3014C116.024 87.2023 115.995 87.1044 115.995 87.008C115.995 86.9115 116.024 86.8474 116.081 86.8155C116.139 86.7837 116.213 86.7939 116.304 86.8462ZM117.797 91.1422L117.797 88.8553L118.228 89.1024L118.263 89.4057C118.348 89.3392 118.444 89.3076 118.55 89.3109C118.656 89.3128 118.77 89.3488 118.893 89.419C119.071 89.5214 119.207 89.6592 119.301 89.8325C119.395 90.0042 119.441 90.1974 119.441 90.4119L119.441 92.0855L118.947 91.8019L118.947 90.3507C118.947 90.2355 118.941 90.1398 118.928 90.0635C118.916 89.9858 118.892 89.9218 118.857 89.8715C118.822 89.8198 118.771 89.7749 118.705 89.737C118.652 89.7062 118.6 89.6901 118.55 89.6888C118.501 89.6883 118.455 89.6985 118.411 89.7195C118.369 89.7412 118.329 89.7694 118.291 89.804L118.291 91.4258L117.797 91.1422ZM121.82 90.8409L121.943 91.3566C121.868 91.3439 121.784 91.3171 121.69 91.2764C121.597 91.2342 121.489 91.1783 121.368 91.1089C121.489 91.2388 121.581 91.3685 121.644 91.4979C121.707 91.6265 121.739 91.7621 121.739 91.9047C121.739 92.0529 121.706 92.1664 121.64 92.2451C121.575 92.3244 121.482 92.3625 121.361 92.3592C121.241 92.3567 121.098 92.3078 120.932 92.2125C120.881 92.1832 120.835 92.1541 120.795 92.1255C120.755 92.0968 120.716 92.0667 120.679 92.0351C120.654 92.0366 120.635 92.0485 120.621 92.0709C120.607 92.0933 120.6 92.1203 120.6 92.1519C120.6 92.1951 120.615 92.2408 120.643 92.2889C120.673 92.3364 120.737 92.388 120.834 92.4439L121.172 92.6373C121.318 92.7211 121.446 92.8233 121.556 92.9439C121.667 93.0638 121.753 93.1895 121.814 93.3211C121.877 93.4534 121.908 93.5821 121.908 93.7074C121.908 93.9377 121.821 94.0679 121.647 94.0979C121.474 94.1279 121.22 94.0473 120.887 93.8561C120.648 93.7193 120.462 93.5845 120.329 93.4517C120.196 93.3196 120.103 93.1842 120.05 93.0454C119.996 92.9081 119.969 92.7638 119.969 92.6126L120.409 92.8651C120.409 92.9385 120.422 93.0062 120.447 93.068C120.473 93.1306 120.521 93.1934 120.591 93.2566C120.662 93.3204 120.764 93.3903 120.896 93.4662C121.029 93.5422 121.132 93.5894 121.207 93.6079C121.283 93.6271 121.337 93.6226 121.368 93.5945C121.4 93.5677 121.415 93.5241 121.415 93.4637C121.415 93.3816 121.385 93.3004 121.325 93.2199C121.265 93.1395 121.18 93.0677 121.07 93.0047L120.743 92.8167C120.543 92.7021 120.397 92.574 120.306 92.4324C120.215 92.2895 120.169 92.1589 120.169 92.0409C120.169 91.9603 120.188 91.894 120.226 91.842C120.264 91.7894 120.319 91.7576 120.39 91.7466C120.268 91.6015 120.179 91.4614 120.124 91.3262C120.071 91.1903 120.044 91.0482 120.044 90.8999C120.044 90.7344 120.08 90.6112 120.153 90.5303C120.225 90.4495 120.325 90.4122 120.454 90.4183C120.583 90.4244 120.731 90.4754 120.898 90.5714C121.052 90.6609 121.182 90.725 121.29 90.7636C121.398 90.8028 121.494 90.826 121.576 90.8329C121.66 90.8406 121.741 90.8432 121.82 90.8409ZM120.907 90.9568C120.79 90.8895 120.7 90.8775 120.638 90.9209C120.577 90.965 120.546 91.0525 120.546 91.1836C120.546 91.3189 120.578 91.4444 120.641 91.5601C120.705 91.6758 120.794 91.7666 120.909 91.8325C121.023 91.8977 121.109 91.909 121.168 91.8663C121.228 91.823 121.258 91.7293 121.258 91.5853C121.258 91.4414 121.228 91.3169 121.168 91.212C121.109 91.1078 121.022 91.0227 120.907 90.9568ZM69.7081 71.0321L69.3185 70.6035L70.9031 67.729L71.289 68.1598L69.7081 71.0321ZM71.5814 72.1065L71.1918 71.6779L72.7764 68.8034L73.1623 69.2342L71.5814 72.1065ZM77.3982 71.7111C77.5305 71.787 77.6479 71.8666 77.7503 71.9498C77.8528 72.033 77.9458 72.1195 78.0295 72.2092L77.8871 72.512C77.8209 72.4423 77.7516 72.3795 77.6792 72.3236C77.6067 72.2677 77.5343 72.2189 77.4619 72.1774C77.337 72.1058 77.2458 72.0808 77.1884 72.1026C77.1322 72.1236 77.1041 72.1932 77.1041 72.3112L77.1041 72.6719L77.7598 73.0479L77.7054 73.4249L77.1041 73.08L77.1042 74.8033L76.6115 74.5207L76.6114 72.7974L76.175 72.5471L76.175 72.139L76.6114 72.3893L76.6114 72.0157C76.6114 71.8674 76.6426 71.755 76.7051 71.6785C76.7675 71.6006 76.8574 71.5629 76.9748 71.5655C77.0934 71.5687 77.2346 71.6173 77.3982 71.7111ZM79.3044 73.7136C79.5018 73.8267 79.6691 73.9724 79.8065 74.1505C79.9439 74.3286 80.0482 74.5288 80.1193 74.751C80.1918 74.9725 80.228 75.2042 80.228 75.4461C80.228 75.6937 80.1918 75.8875 80.1194 76.0273C80.047 76.1672 79.9421 76.2474 79.8047 76.2679C79.6673 76.2885 79.5 76.2422 79.3027 76.129C79.1066 76.0165 78.9392 75.8723 78.8006 75.6964C78.6632 75.5197 78.5583 75.3206 78.4859 75.0991C78.4135 74.8761 78.3772 74.6394 78.3772 74.3889C78.3772 74.1499 78.4134 73.9605 78.4858 73.8206C78.5583 73.6808 78.6638 73.6002 78.8024 73.579C78.941 73.5562 79.1084 73.6011 79.3044 73.7136ZM79.3045 74.1433C79.1658 74.0638 79.0622 74.067 78.9935 74.1528C78.9261 74.2394 78.8924 74.4166 78.8924 74.6844C78.8924 74.955 78.9261 75.1723 78.9936 75.3363C79.061 75.4987 79.164 75.6197 79.3027 75.6992C79.4413 75.7788 79.5443 75.7759 79.6117 75.6908C79.6792 75.6042 79.7129 75.4242 79.7129 75.1506C79.7129 74.8843 79.6791 74.6699 79.6117 74.5074C79.5442 74.3435 79.4418 74.2221 79.3045 74.1433ZM80.8118 76.9297L80.8118 76.5345L81.0909 76.6946L81.0908 75.1959L80.8117 75.0358L80.8117 74.6428L81.4673 75.0189L81.5591 75.5963C81.6316 75.4434 81.7227 75.3496 81.8326 75.3147C81.9425 75.2784 82.0805 75.3079 82.2466 75.4032C82.3103 75.4397 82.3665 75.4777 82.4152 75.5171C82.4652 75.5573 82.5126 75.5996 82.5576 75.6442L82.4096 76.0387C82.3709 76.005 82.3341 75.9752 82.2991 75.9494C82.2641 75.9221 82.2248 75.896 82.1811 75.8709C82.0437 75.7921 81.9238 75.7853 81.8214 75.8503C81.7203 75.9147 81.6416 76.0358 81.5854 76.2138L81.5854 76.9783L81.9807 77.205L81.9807 77.6002L80.8118 76.9297ZM82.1399 76.2964L82.1399 75.6896L82.2073 75.4432L82.5576 75.6442L82.4696 76.4855L82.1399 76.2964ZM86.5593 77.9393L86.5594 79.8224L87.082 80.1221L87.082 80.526L85.4841 79.6095L85.4841 79.2057L86.0648 79.5387L86.0648 78.0595L85.5028 77.7371L85.5028 77.3333L86.5593 77.9393ZM86.2389 76.6024C86.3301 76.6547 86.4038 76.7293 86.46 76.8263C86.5174 76.9241 86.5461 77.0212 86.5461 77.1176C86.5461 77.2141 86.5174 77.2789 86.46 77.3122C86.4038 77.3448 86.3301 77.3349 86.2389 77.2826C86.1478 77.2303 86.0735 77.1553 86.016 77.0576C85.9586 76.9584 85.9298 76.8606 85.9298 76.7641C85.9298 76.6677 85.9585 76.6035 86.016 76.5717C86.0734 76.5399 86.1477 76.5501 86.2389 76.6024ZM89.1418 79.3557C89.2267 79.4044 89.2991 79.4668 89.3591 79.5429C89.419 79.6176 89.4652 79.7125 89.4977 79.8276C89.5302 79.9412 89.5464 80.0801 89.5464 80.2442L89.5465 81.9394L89.1156 81.6923L89.1156 80.0684C89.1156 79.9647 89.1081 79.887 89.0931 79.8352C89.0794 79.7841 89.0475 79.7443 88.9976 79.7156C88.9563 79.692 88.9145 79.6824 88.872 79.6868C88.8308 79.6905 88.7878 79.7155 88.7428 79.7617L88.7429 81.4785L88.3701 81.2647L88.37 79.6408C88.37 79.5371 88.3625 79.4594 88.3475 79.4076C88.3338 79.3565 88.3019 79.3167 88.252 79.288C88.2095 79.2637 88.1677 79.2541 88.1265 79.2592C88.0853 79.2629 88.0422 79.2879 87.9972 79.3341L87.9973 81.0509L87.5608 80.8006L87.5607 78.5136L87.9298 78.7253L87.9616 78.9811C88.0203 78.9198 88.0821 78.8811 88.1471 78.865C88.212 78.849 88.2901 78.8672 88.3812 78.9194C88.4562 78.9624 88.5223 79.022 88.5798 79.0981C88.6385 79.1735 88.6803 79.2695 88.7053 79.3861C88.7628 79.3355 88.8271 79.3047 88.8983 79.2937C88.9694 79.2827 89.0506 79.3034 89.1418 79.3557ZM91.0686 80.4608C91.2435 80.5611 91.3833 80.6909 91.4883 80.8504C91.5944 81.0092 91.6712 81.1922 91.7187 81.3994C91.7674 81.6073 91.7918 81.8336 91.7918 82.0783C91.7918 82.313 91.7624 82.5049 91.7037 82.6541C91.6451 82.8033 91.5589 82.8978 91.4452 82.9377C91.3329 82.9769 91.1942 82.9493 91.0294 82.8547C90.8271 82.7387 90.6635 82.5621 90.5386 82.3249L90.5386 83.3895L90.0441 83.1663L90.044 79.9379L90.4786 80.1871L90.5048 80.4807C90.5835 80.4078 90.6715 80.3719 90.7689 80.3731C90.8663 80.3728 90.9662 80.402 91.0686 80.4608ZM90.9244 80.8056C90.8407 80.7576 90.7671 80.7442 90.7034 80.7652C90.6409 80.787 90.586 80.8268 90.5385 80.8845L90.5386 81.9081C90.5835 82.0116 90.6347 82.0993 90.6922 82.1711C90.7496 82.2429 90.8146 82.2996 90.887 82.3412C91.0131 82.4135 91.1093 82.4082 91.1755 82.3252C91.2429 82.2415 91.2766 82.0629 91.2766 81.7894C91.2766 81.5964 91.2629 81.4352 91.2354 81.3057C91.2092 81.1755 91.1698 81.0709 91.1174 80.9919C91.0649 80.9114 91.0006 80.8493 90.9244 80.8056ZM93.3008 80.8923L93.3009 83.4276C93.3009 83.5269 93.3259 83.6118 93.3758 83.6822C93.427 83.7533 93.4957 83.8136 93.5819 83.863C93.6356 83.8938 93.6874 83.9171 93.7374 83.9328C93.7873 83.947 93.8348 83.957 93.8797 83.9626L94.0015 84.4211C93.9391 84.4213 93.8629 84.4093 93.773 84.3851C93.6843 84.363 93.5813 84.3183 93.4639 84.251C93.2478 84.1271 93.0842 83.962 92.9731 83.7557C92.8619 83.5494 92.8064 83.3254 92.8063 83.0835L92.8063 81.0125L92.2124 80.6719L92.2124 80.2681L93.3008 80.8923ZM95.091 84.1498C95.101 84.2981 95.1291 84.4301 95.1753 84.5458C95.2228 84.6623 95.2833 84.7626 95.357 84.8466C95.4307 84.9306 95.5125 84.9984 95.6024 85.0499C95.6973 85.1044 95.7866 85.1383 95.8703 85.1518C95.954 85.1652 96.0364 85.1642 96.1176 85.1489L96.3236 85.5932C96.2312 85.6294 96.1207 85.638 95.9921 85.6189C95.8647 85.6006 95.7242 85.5474 95.5706 85.4593C95.3558 85.3361 95.1747 85.1811 95.0273 84.9944C94.8812 84.8083 94.7707 84.6031 94.6957 84.3788C94.6208 84.1544 94.5833 83.9242 94.5833 83.688C94.5833 83.4606 94.6201 83.2766 94.6938 83.136C94.7675 82.9954 94.8736 82.9116 95.0123 82.8846C95.1509 82.8561 95.3182 82.8981 95.5143 83.0105C95.6966 83.1151 95.854 83.2514 95.9864 83.4195C96.1188 83.5876 96.2212 83.7787 96.2936 83.993C96.366 84.2059 96.4023 84.4333 96.4023 84.6751C96.4023 84.714 96.401 84.7529 96.3985 84.7918C96.3973 84.8314 96.3954 84.8663 96.3929 84.8965L95.091 84.1498ZM95.5162 83.4133C95.3963 83.3445 95.2976 83.3376 95.2202 83.3925C95.144 83.4467 95.0991 83.5764 95.0854 83.7816L95.9208 84.2608C95.9183 84.0665 95.8834 83.896 95.8159 83.7493C95.7497 83.6019 95.6498 83.4899 95.5162 83.4133ZM98.3928 84.6614C98.4777 84.7102 98.5501 84.7726 98.6101 84.8487C98.67 84.9234 98.7162 85.0183 98.7487 85.1334C98.7812 85.247 98.7974 85.3859 98.7974 85.55L98.7975 87.2452L98.3666 86.9981L98.3666 85.3742C98.3666 85.2705 98.3591 85.1928 98.3441 85.141C98.3304 85.0899 98.2985 85.0501 98.2486 85.0214C98.2073 84.9978 98.1655 84.9882 98.123 84.9926C98.0818 84.9963 98.0387 85.0213 97.9938 85.0675L97.9939 86.7843L97.6211 86.5705L97.621 84.9466C97.621 84.8429 97.6135 84.7652 97.5985 84.7134C97.5848 84.6623 97.5529 84.6225 97.503 84.5938C97.4605 84.5695 97.4187 84.5599 97.3775 84.565C97.3363 84.5687 97.2932 84.5937 97.2482 84.6399L97.2483 86.3567L96.8118 86.1064L96.8117 83.8194L97.1808 84.0311L97.2126 84.2869C97.2713 84.2256 97.3331 84.1869 97.3981 84.1708C97.463 84.1548 97.5411 84.173 97.6322 84.2252C97.7072 84.2682 97.7733 84.3278 97.8308 84.4039C97.8895 84.4793 97.9313 84.5753 97.9563 84.6919C98.0138 84.6413 98.0781 84.6105 98.1493 84.5995C98.2204 84.5885 98.3016 84.6092 98.3928 84.6614ZM99.7165 86.8027C99.7265 86.951 99.7546 87.083 99.8008 87.1987C99.8483 87.3152 99.9088 87.4155 99.9825 87.4995C100.056 87.5835 100.138 87.6513 100.228 87.7028C100.323 87.7573 100.412 87.7912 100.496 87.8047C100.579 87.8181 100.662 87.8171 100.743 87.8018L100.949 88.2461C100.857 88.2823 100.746 88.2909 100.618 88.2718C100.49 88.2535 100.35 88.2003 100.196 88.1122C99.9813 87.989 99.8002 87.834 99.6528 87.6473C99.5067 87.4612 99.3962 87.256 99.3212 87.0317C99.2463 86.8073 99.2088 86.5771 99.2088 86.3409C99.2088 86.1135 99.2456 85.9295 99.3193 85.7889C99.393 85.6483 99.4991 85.5645 99.6378 85.5375C99.7764 85.509 99.9437 85.551 100.14 85.6634C100.322 85.768 100.479 85.9043 100.612 86.0724C100.744 86.2405 100.847 86.4316 100.919 86.6459C100.992 86.8588 101.028 87.0862 101.028 87.328C101.028 87.3669 101.027 87.4058 101.024 87.4447C101.023 87.4843 101.021 87.5192 101.018 87.5494L99.7165 86.8027ZM100.142 86.0662C100.022 85.9974 99.9231 85.9905 99.8457 86.0454C99.7695 86.0996 99.7246 86.2293 99.7109 86.4345L100.546 86.9137C100.544 86.7194 100.509 86.5489 100.441 86.4022C100.375 86.2548 100.275 86.1428 100.142 86.0662ZM101.608 88.857L101.608 86.5701L102.039 86.8172L102.074 87.1205C102.159 87.0541 102.255 87.0225 102.361 87.0258C102.467 87.0276 102.581 87.0637 102.704 87.1338C102.882 87.2363 103.018 87.3741 103.112 87.5473C103.206 87.7191 103.252 87.9122 103.252 88.1267L103.253 89.8004L102.758 89.5167L102.758 88.0655C102.758 87.9504 102.752 87.8546 102.739 87.7784C102.727 87.7007 102.703 87.6367 102.668 87.5864C102.633 87.5346 102.582 87.4898 102.516 87.4518C102.463 87.421 102.411 87.405 102.361 87.4037C102.312 87.4031 102.266 87.4133 102.222 87.4343C102.18 87.456 102.14 87.4842 102.102 87.5189L102.102 89.1407L101.608 88.857ZM105.633 91.0381C105.559 91.052 105.47 91.0468 105.365 91.0226C105.26 90.9985 105.146 90.9513 105.024 90.8811C104.782 90.7421 104.599 90.5656 104.477 90.3514C104.354 90.1358 104.293 89.9078 104.293 89.6674L104.293 88.5142L103.862 88.2671L103.862 87.8633L104.293 88.1104L104.293 87.6072L104.788 87.8217L104.788 88.394L105.443 88.77L105.393 89.1449L104.788 88.7978L104.788 89.9489C104.788 90.0669 104.813 90.1676 104.863 90.251C104.913 90.3343 104.993 90.4079 105.104 90.4716C105.176 90.5125 105.241 90.5404 105.299 90.5553C105.359 90.5695 105.414 90.5755 105.462 90.5732L105.633 91.0381ZM107.374 89.8773L107.374 91.7604L107.897 92.0602L107.897 92.464L106.299 91.5475L106.299 91.1437L106.88 91.4768L106.879 89.9975L106.318 89.6752L106.317 89.2714L107.374 89.8773ZM107.054 88.5404C107.145 88.5927 107.218 88.6674 107.275 88.7644C107.332 88.8621 107.361 88.9592 107.361 89.0557C107.361 89.1521 107.332 89.217 107.275 89.2503C107.219 89.2828 107.145 89.2729 107.054 89.2207C106.963 89.1684 106.888 89.0934 106.831 88.9956C106.773 88.8965 106.745 88.7986 106.745 88.7022C106.745 88.6057 106.773 88.5416 106.831 88.5097C106.888 88.4779 106.962 88.4881 107.054 88.5404ZM108.546 92.8364L108.546 90.5495L108.977 90.7966L109.012 91.0999C109.097 91.0334 109.193 91.0018 109.299 91.0051C109.405 91.007 109.519 91.043 109.642 91.1132C109.82 91.2156 109.957 91.3534 110.05 91.5267C110.144 91.6984 110.191 91.8916 110.191 92.1061L110.191 93.7797L109.696 93.4961L109.696 92.0449C109.696 91.9297 109.69 91.834 109.677 91.7577C109.665 91.68 109.641 91.616 109.606 91.5657C109.571 91.514 109.521 91.4691 109.454 91.4312C109.401 91.4004 109.349 91.3843 109.299 91.383C109.25 91.3825 109.204 91.3927 109.16 91.4137C109.118 91.4354 109.078 91.4636 109.041 91.4982L109.041 93.12L108.546 92.8364ZM112.569 92.5351L112.693 93.0508C112.618 93.0381 112.533 93.0113 112.44 92.9706C112.346 92.9284 112.239 92.8725 112.118 92.8031C112.239 92.933 112.33 93.0627 112.393 93.1921C112.457 93.3207 112.488 93.4563 112.488 93.5989C112.488 93.7471 112.455 93.8606 112.389 93.9393C112.324 94.0186 112.231 94.0567 112.11 94.0534C111.99 94.0509 111.847 94.002 111.681 93.9067C111.63 93.8774 111.584 93.8484 111.544 93.8197C111.504 93.791 111.466 93.7609 111.428 93.7293C111.403 93.7308 111.384 93.7427 111.37 93.7651C111.356 93.7875 111.35 93.8145 111.35 93.8461C111.35 93.8893 111.364 93.935 111.393 93.9831C111.423 94.0306 111.486 94.0822 111.584 94.1381L111.921 94.3315C112.067 94.4153 112.195 94.5175 112.305 94.6381C112.416 94.758 112.502 94.8837 112.563 95.0153C112.626 95.1476 112.657 95.2763 112.657 95.4016C112.657 95.6319 112.57 95.7621 112.397 95.7921C112.223 95.8221 111.97 95.7415 111.636 95.5503C111.398 95.4135 111.212 95.2787 111.078 95.1459C110.946 95.0138 110.853 94.8784 110.799 94.7396C110.745 94.6023 110.718 94.458 110.718 94.3068L111.159 94.5593C111.159 94.6328 111.171 94.7004 111.196 94.7622C111.222 94.8248 111.27 94.8876 111.34 94.9508C111.411 95.0146 111.513 95.0845 111.646 95.1604C111.778 95.2364 111.882 95.2836 111.957 95.3021C112.033 95.3213 112.086 95.3168 112.118 95.2887C112.149 95.2619 112.164 95.2183 112.164 95.1579C112.164 95.0758 112.134 94.9946 112.075 94.9141C112.015 94.8337 111.93 94.7619 111.82 94.6989L111.492 94.5109C111.292 94.3963 111.147 94.2682 111.055 94.1266C110.964 93.9837 110.919 93.8531 110.919 93.7351C110.919 93.6545 110.937 93.5882 110.975 93.5362C111.014 93.4836 111.069 93.4518 111.14 93.4408C111.017 93.2957 110.929 93.1556 110.874 93.0204C110.82 92.8845 110.793 92.7424 110.793 92.5941C110.793 92.4286 110.829 92.3054 110.902 92.2245C110.974 92.1437 111.075 92.1064 111.203 92.1125C111.332 92.1186 111.48 92.1696 111.647 92.2656C111.801 92.3551 111.931 92.4192 112.039 92.4578C112.148 92.497 112.243 92.5202 112.325 92.5271C112.409 92.5348 112.49 92.5375 112.569 92.5351ZM111.657 92.6511C111.539 92.5837 111.449 92.5717 111.387 92.6151C111.326 92.6592 111.295 92.7467 111.295 92.8778C111.295 93.0131 111.327 93.1386 111.391 93.2543C111.454 93.37 111.544 93.4608 111.659 93.5267C111.772 93.5919 111.858 93.6032 111.917 93.5605C111.977 93.5172 112.007 93.4235 112.007 93.2795C112.007 93.1356 111.977 93.0111 111.917 92.9062C111.858 92.802 111.772 92.7169 111.657 92.6511Z"
    fill="#151E29" />
  <rect x="0.433698" y="-0.251258" width="80.4288" height="16.1646" rx="3.33914"
    transform="matrix(0.867473 0.497485 -7.59232e-05 -1 68.9857 52.4541)" fill="white"
    stroke="#151E29" />
  <circle cx="5.20957" cy="5.20957" r="5.20957"
    transform="matrix(3.7899e-05 0.997476 0.869638 0.49877 127.132 72.4165)" fill="#5CC3C9" />
  <path
    d="M132.584 81.8782L133.739 84.0005M131.285 81.727C132.328 82.3249 133.173 81.8402 133.173 80.6445C133.173 79.4487 132.328 77.9946 131.285 77.3966C130.243 76.7987 129.397 77.2833 129.398 78.4791C129.398 79.6749 130.243 81.129 131.285 81.727Z"
    stroke="#151E29" stroke-linecap="round" />
</svg>