<svg width="141" height="121" viewBox="0 0 141 121" fill="none" xmlns="http://www.w3.org/2000/svg">
    <rect opacity="0.1" width="81.81" height="81.81" rx="11"
        transform="matrix(0.866044 0.499967 -0.866044 0.499967 79.4912 39.1956)" fill="#0A6190" />
    <rect width="91.7874" height="91.7874" rx="11"
        transform="matrix(0.866044 0.499967 -0.866044 0.499967 79.4917 8.52295)" fill="#F5F6F6"
        stroke="#1A1B1D" stroke-linejoin="round" />
    <path opacity="0.3"
        d="M53.0581 28.919L60.1743 33.0363L65.2319 30.1712C66.2153 29.5461 67.3563 29.214 68.5215 29.214C69.6868 29.214 70.8278 29.5461 71.8111 30.1712L86.3573 38.631C88.6 39.8925 91.0884 40.6558 93.6528 40.8688C96.0781 41.1722 98.5405 40.9268 100.859 40.152C100.25 40.6348 99.8031 41.2917 99.5791 42.0358C99.355 42.78 99.3646 43.5765 99.6058 44.3152C99.9292 45.2338 100.432 46.0777 101.085 46.8001C101.738 47.5224 102.529 48.1083 103.41 48.5222L117.956 56.9819C120.149 58.2799 120.194 59.5325 117.956 60.8304L112.809 63.7829L119.925 67.9462L128.877 62.8891C131.831 61.1883 133.353 59.3972 133.353 57.5173C133.353 55.6375 131.876 53.9382 128.877 52.2374L114.196 43.688C112.093 42.4796 111.019 41.4044 110.929 40.4645C110.84 39.5246 111.466 38.5414 113.077 37.4224L115.584 35.6763L108.736 31.6922L105.738 33.1259C104.108 34.0164 102.267 34.4485 100.411 34.3781C98.4404 34.1907 96.5403 33.5474 94.8613 32.4987L80.2255 23.9493C77.5188 22.3246 74.4306 21.4452 71.2741 21.3989C68.0137 21.4091 64.8155 22.289 62.0095 23.9493L53.0581 28.919Z"
        fill="#0A6190" stroke="#0A6190" stroke-linejoin="round" />
    <path d="M53.0576 8.51929L53.1023 23.1102L60.2188 27.2726L60.174 12.6817L53.0576 8.51929Z"
        fill="#0A6190" stroke="#0A6190" stroke-linejoin="round" />
    <path fill-rule="evenodd" clip-rule="evenodd"
        d="M113.077 16.9342L113.077 16.9335L115.584 15.188L115.628 29.8236L113.122 31.5244L113.122 31.3972L113.077 31.5241C111.645 32.5088 110.884 33.4492 110.884 34.2996V19.7097C110.884 18.7251 111.645 17.9189 113.077 16.9342L113.077 16.9342Z"
        fill="#0A6190" />
    <path
        d="M113.077 16.9335L112.577 16.9351C112.577 16.7709 112.657 16.617 112.792 16.5232L113.077 16.9335ZM113.077 16.9342L113.577 16.9327C113.578 17.105 113.49 17.2654 113.344 17.3573L113.077 16.9342ZM115.584 15.188L115.298 14.7777C115.45 14.6714 115.649 14.6586 115.814 14.7444C115.979 14.8302 116.083 15.0005 116.084 15.1865L115.584 15.188ZM115.628 29.8236L116.128 29.8221C116.129 29.9884 116.047 30.144 115.909 30.2374L115.628 29.8236ZM113.122 31.5244L113.403 31.9382C113.25 32.042 113.052 32.0529 112.889 31.9666C112.725 31.8803 112.623 31.7108 112.622 31.526L113.122 31.5244ZM113.122 31.3972L112.65 31.2321C112.73 31.0022 112.964 30.8638 113.205 30.9042C113.445 30.9446 113.621 31.1522 113.622 31.3957L113.122 31.3972ZM113.077 31.5241L113.549 31.6892C113.514 31.7895 113.448 31.876 113.36 31.9361L113.077 31.5241ZM111.384 34.2996C111.384 34.5757 111.16 34.7996 110.884 34.7996C110.608 34.7996 110.384 34.5757 110.384 34.2996H111.384ZM113.077 16.9342L112.794 16.5222C112.799 16.5184 112.805 16.5148 112.811 16.5112L113.077 16.9342ZM113.577 16.932L113.577 16.9327L112.577 16.9358L112.577 16.9351L113.577 16.932ZM115.869 15.5983L113.363 17.3438L112.792 16.5232L115.298 14.7777L115.869 15.5983ZM115.128 29.8252L115.084 15.1895L116.084 15.1865L116.128 29.8221L115.128 29.8252ZM112.841 31.1107L115.348 29.4099L115.909 30.2374L113.403 31.9382L112.841 31.1107ZM113.622 31.3957L113.622 31.5229L112.622 31.526L112.622 31.3988L113.622 31.3957ZM112.605 31.359L112.65 31.2321L113.594 31.5624L113.549 31.6892L112.605 31.359ZM110.384 34.2996C110.384 33.7217 110.642 33.1669 111.052 32.6511C111.463 32.1338 112.055 31.6202 112.794 31.1121L113.36 31.9361C112.667 32.4126 112.162 32.8616 111.835 33.2733C111.507 33.6865 111.384 34.0271 111.384 34.2996H110.384ZM111.384 19.7097V34.2996H110.384V19.7097H111.384ZM113.36 17.3463C111.913 18.3417 111.384 19.0132 111.384 19.7097H110.384C110.384 18.4369 111.377 17.4961 112.794 16.5222L113.36 17.3463ZM113.344 17.3573L113.344 17.3573L112.811 16.5112L112.811 16.5112L113.344 17.3573Z"
        fill="#0A6190" />
    <path
        d="M65.4109 24.2506C66.3493 23.6872 67.4244 23.3897 68.5217 23.3897C69.6893 23.3897 70.8319 23.7265 71.8113 24.3623V24.2932L86.5366 32.7776L86.5366 32.7578C88.7626 34.0161 91.2376 34.7714 93.7873 34.9703C96.2096 35.266 98.6672 35.0375 100.993 34.2994V19.6636C98.675 20.4384 96.2126 20.6838 93.7873 20.3804C91.2229 20.1674 88.7345 19.4041 86.4918 18.1426V18.1867L71.3249 9.29656V9.49357C70.4601 9.049 69.4994 8.81519 68.5217 8.81519C67.4091 8.81519 66.3185 9.11794 65.3663 9.68949L65.3662 9.6828L60.1744 12.6816L60.2191 27.2724L65.411 24.2737L65.4109 24.2506Z"
        fill="#0A6190" stroke="#0A6190" stroke-linejoin="round" />
    <path fill-rule="evenodd" clip-rule="evenodd"
        d="M99.7403 23.8269V38.4168C100.059 39.3377 100.561 40.1853 101.214 40.9081C101.868 41.631 102.661 42.2141 103.545 42.6237L103.589 42.6485L103.59 42.669L118.136 51.1281L118.136 51.0835C119.209 51.7547 119.791 52.382 119.791 53.0085V38.4165C119.791 37.7899 119.209 37.1647 118.135 36.4933L118.091 36.5202L118.091 36.4925L103.568 28.0914L103.545 28.0338C102.664 27.62 101.873 27.034 101.22 26.3117C100.567 25.5894 100.064 24.7455 99.7403 23.8269Z"
        fill="#0A6190" />
    <path
        d="M99.7403 38.4168L99.2678 38.5803C99.2496 38.5277 99.2403 38.4724 99.2403 38.4168H99.7403ZM99.7403 23.8269H99.2403C99.2403 23.5833 99.4159 23.3751 99.656 23.334C99.8962 23.293 100.131 23.4311 100.212 23.6609L99.7403 23.8269ZM101.214 40.9081L100.843 41.2435L101.214 40.9081ZM103.545 42.6237L103.755 42.17C103.767 42.1753 103.778 42.181 103.789 42.1872L103.545 42.6237ZM103.589 42.6485L103.833 42.212C103.991 42.3 104.089 42.4663 104.089 42.6469L103.589 42.6485ZM103.59 42.669L103.338 43.1012C103.185 43.012 103.09 42.8481 103.09 42.6705L103.59 42.669ZM118.136 51.1281L118.636 51.1266C118.636 51.3058 118.541 51.4716 118.386 51.5612C118.23 51.6507 118.039 51.6504 117.884 51.5604L118.136 51.1281ZM118.136 51.0835L117.636 51.085C117.635 50.903 117.733 50.735 117.892 50.6465C118.052 50.558 118.246 50.563 118.401 50.6595L118.136 51.0835ZM120.291 53.0085C120.291 53.2847 120.067 53.5085 119.791 53.5085C119.515 53.5085 119.291 53.2847 119.291 53.0085H120.291ZM118.135 36.4933L117.874 36.0666C118.036 35.9679 118.239 35.969 118.4 36.0693L118.135 36.4933ZM118.091 36.5202L118.352 36.9469C118.198 37.041 118.005 37.0447 117.847 36.9566C117.689 36.8685 117.592 36.7023 117.591 36.5217L118.091 36.5202ZM118.091 36.4925L118.341 36.0597C118.495 36.1488 118.59 36.313 118.591 36.491L118.091 36.4925ZM103.568 28.0914L103.317 28.5242C103.22 28.4677 103.144 28.3799 103.103 28.275L103.568 28.0914ZM103.545 28.0338L103.758 27.5812C103.873 27.6354 103.963 27.7317 104.01 27.8503L103.545 28.0338ZM101.22 26.3117L100.849 26.6471L101.22 26.3117ZM99.2403 38.4168V23.8269H100.24V38.4168H99.2403ZM100.843 41.2435C100.145 40.4708 99.6086 39.5648 99.2678 38.5803L100.213 38.2532C100.51 39.1106 100.977 39.8997 101.585 40.5728L100.843 41.2435ZM103.335 43.0774C102.39 42.6396 101.542 42.0163 100.843 41.2435L101.585 40.5728C102.194 41.2457 102.932 41.7886 103.755 42.17L103.335 43.0774ZM103.346 43.085L103.301 43.0602L103.789 42.1872L103.833 42.212L103.346 43.085ZM103.09 42.6705L103.089 42.65L104.089 42.6469L104.089 42.6675L103.09 42.6705ZM117.884 51.5604L103.338 43.1012L103.841 42.2368L118.387 50.6959L117.884 51.5604ZM118.636 51.0819L118.636 51.1266L117.636 51.1297L117.636 51.085L118.636 51.0819ZM118.401 50.6595C118.957 51.0073 119.417 51.362 119.742 51.7332C120.068 52.1053 120.291 52.5314 120.291 53.0085H119.291C119.291 52.8591 119.223 52.6583 118.99 52.3923C118.756 52.1254 118.388 51.8309 117.87 51.5075L118.401 50.6595ZM119.291 53.0085V38.4165H120.291V53.0085H119.291ZM119.291 38.4165C119.291 38.2672 119.223 38.0671 118.99 37.8016C118.756 37.5351 118.388 37.241 117.87 36.9173L118.4 36.0693C118.956 36.417 119.416 36.7712 119.742 37.1418C120.068 37.5134 120.291 37.9391 120.291 38.4165H119.291ZM118.396 36.92L118.352 36.9469L117.83 36.0935L117.874 36.0666L118.396 36.92ZM118.591 36.491L118.591 36.5187L117.591 36.5217L117.591 36.494L118.591 36.491ZM103.818 27.6586L118.341 36.0597L117.841 36.9253L103.317 28.5242L103.818 27.6586ZM104.01 27.8503L104.033 27.9079L103.103 28.275L103.08 28.2174L104.01 27.8503ZM101.591 25.9764C102.199 26.6496 102.936 27.1956 103.758 27.5812L103.333 28.4864C102.391 28.0443 101.546 27.4184 100.849 26.6471L101.591 25.9764ZM100.212 23.6609C100.513 24.5167 100.982 25.3031 101.591 25.9764L100.849 26.6471C100.151 25.8758 99.6141 24.9743 99.2686 23.9929L100.212 23.6609Z"
        fill="#0A6190" />
    <path d="M112.943 43.3403L112.988 57.9312L120.104 62.0489L120.06 47.458L112.943 43.3403Z"
        fill="#0A6190" stroke="#0A6190" stroke-linejoin="round" />
    <path fill-rule="evenodd" clip-rule="evenodd"
        d="M128.832 42.4014V42.4008C131.786 40.7 133.218 38.9089 133.308 37.0291V51.6211C133.308 53.4914 131.801 55.2717 128.877 56.9647L128.877 56.9921L120.104 62.0497L120.06 47.4588L128.832 42.4014Z"
        fill="#0A6190" />
    <path
        d="M128.832 42.4008H128.332C128.332 42.222 128.427 42.0567 128.582 41.9675L128.832 42.4008ZM128.832 42.4014H129.332C129.332 42.5801 129.236 42.7453 129.082 42.8345L128.832 42.4014ZM133.308 37.0291L132.808 37.0053C132.821 36.7341 133.048 36.5227 133.32 36.5292C133.591 36.5357 133.808 36.7575 133.808 37.0291H133.308ZM128.877 56.9647L128.377 56.9663C128.376 56.7873 128.471 56.6217 128.626 56.532L128.877 56.9647ZM128.877 56.9921L129.377 56.9906C129.377 57.1699 129.282 57.3357 129.127 57.4253L128.877 56.9921ZM120.104 62.0497L120.354 62.4829C120.2 62.5719 120.009 62.572 119.855 62.483C119.7 62.3941 119.605 62.2295 119.604 62.0512L120.104 62.0497ZM120.06 47.4588L119.56 47.4603C119.559 47.281 119.655 47.1152 119.81 47.0256L120.06 47.4588ZM129.332 42.4008V42.4014H128.332V42.4008H129.332ZM133.807 37.0528C133.705 39.1961 132.078 41.1088 129.081 42.8341L128.582 41.9675C131.494 40.2912 132.731 38.6216 132.808 37.0053L133.807 37.0528ZM132.808 51.6211V37.0291H133.808V51.6211H132.808ZM128.626 56.532C131.527 54.8526 132.808 53.201 132.808 51.6211H133.808C133.808 53.7817 132.075 55.6908 129.127 57.3975L128.626 56.532ZM128.377 56.9937L128.377 56.9663L129.377 56.9632L129.377 56.9906L128.377 56.9937ZM119.855 61.6165L128.627 56.559L129.127 57.4253L120.354 62.4829L119.855 61.6165ZM120.56 47.4573L120.604 62.0482L119.604 62.0512L119.56 47.4603L120.56 47.4573ZM129.082 42.8345L120.309 47.892L119.81 47.0256L128.582 41.9682L129.082 42.8345Z"
        fill="#0A6190" />
    <path
        d="M53.0581 8.52027L60.1743 12.6376L65.2319 9.77252C66.2153 9.14738 67.3563 8.8153 68.5215 8.8153C69.6868 8.8153 70.8278 9.14738 71.8111 9.77252L86.3573 18.2323C88.6 19.4939 91.0884 20.2571 93.6528 20.4701C96.0781 20.7735 98.5405 20.5281 100.859 19.7533C100.25 20.2361 99.8031 20.893 99.5791 21.6372C99.355 22.3813 99.3646 23.1778 99.6058 23.9165C99.9292 24.8351 100.432 25.6791 101.085 26.4014C101.738 27.1237 102.529 27.7096 103.41 28.1235L117.956 36.5832C120.149 37.8812 120.194 39.1338 117.956 40.4318L112.809 43.3843L119.925 47.5475L128.877 42.4904C131.831 40.7896 133.353 38.9985 133.353 37.1187C133.353 35.2389 131.876 33.5395 128.877 31.8387L114.196 23.2893C112.093 22.0809 111.019 21.0057 110.929 20.0658C110.84 19.1259 111.466 18.1427 113.077 17.0237L115.584 15.2776L108.736 11.2936L105.738 12.7272C104.108 13.6178 102.267 14.0498 100.411 13.9794C98.4404 13.792 96.5403 13.1488 94.8613 12.1L80.2256 3.55063C77.5188 1.92588 74.4306 1.04653 71.2741 1.00024C68.0137 1.01041 64.8155 1.89036 62.0095 3.55063L53.0581 8.52027Z"
        fill="#F5F6F6" stroke="#0A6190" stroke-linejoin="round" />
    <path opacity="0.3"
        d="M29.8568 47.578C27.1094 49.1842 25.6301 50.8333 25.6301 52.5663C25.6301 54.2992 26.8981 56.033 29.8568 57.6391L43.7199 65.7107C45.622 66.8096 46.6786 67.7826 46.89 68.6702C47.1013 69.5578 46.2982 70.5731 44.7766 71.6297L42.4099 73.2354L48.9187 76.9957L51.7085 75.6439C53.27 74.8219 55.0167 74.4153 56.7808 74.4613C58.6176 74.6579 60.3831 75.2789 61.9372 76.2774L75.8009 84.3511C78.4331 85.901 81.4319 86.7183 84.4865 86.7183C87.5411 86.7183 90.5404 85.901 93.1726 84.3511L101.626 79.5754L94.9052 75.6439L89.9603 78.5187C89.0399 79.1104 87.969 79.4248 86.8749 79.4248C85.7807 79.4248 84.7093 79.1104 83.7889 78.5187L70.0522 70.5297C67.9308 69.3531 65.5816 68.6478 63.1632 68.4597C60.8697 68.178 58.5417 68.4234 56.3577 69.1779C56.9181 68.7011 57.3282 68.0711 57.5382 67.3659C57.7483 66.6607 57.7494 65.9108 57.5413 65.2051C56.9318 63.4519 55.6564 62.0085 53.991 61.1889L40.2543 53.1999C38.1409 52.0164 38.1409 50.8336 40.2543 49.6501L45.2415 46.7752L38.4789 42.887L29.8568 47.578Z"
        fill="#0A6190" stroke="#0A6190" stroke-linejoin="round" />
    <path fill-rule="evenodd" clip-rule="evenodd"
        d="M39.9163 29.244L39.9583 42.9456L44.9458 40.1137L45.2437 39.9531L45.2436 26.4541L44.9036 26.3347L39.9163 29.1665V29.0822C38.9442 29.7585 38.4365 30.3087 38.4365 30.9004V44.6785C38.4365 44.0867 38.9442 43.5366 39.9163 42.9449V29.244Z"
        fill="#0A6190" />
    <path
        d="M39.9163 29.244H39.4163C39.4163 28.9681 39.6397 28.7444 39.9155 28.744C40.1914 28.7436 40.4155 28.9666 40.4163 29.2425L39.9163 29.244ZM39.9583 42.9456L40.2052 43.3804C40.0507 43.4682 39.8612 43.4673 39.7074 43.3781C39.5537 43.289 39.4589 43.1249 39.4583 42.9472L39.9583 42.9456ZM44.9458 40.1137L44.6989 39.6788L44.7085 39.6737L44.9458 40.1137ZM45.2437 39.9531L45.7437 39.9531C45.7437 40.1369 45.6428 40.3059 45.481 40.3932L45.2437 39.9531ZM45.2436 26.4541L45.4093 25.9823C45.6096 26.0527 45.7436 26.2418 45.7436 26.4541L45.2436 26.4541ZM44.9036 26.3347L44.6567 25.8999C44.7824 25.8285 44.9328 25.8151 45.0692 25.8629L44.9036 26.3347ZM39.9163 29.1665L40.1632 29.6013C40.0084 29.6891 39.8186 29.6881 39.6647 29.5986C39.5109 29.509 39.4163 29.3445 39.4163 29.1665H39.9163ZM39.9163 29.0822L39.6308 28.6717C39.7836 28.5654 39.9828 28.5528 40.1479 28.639C40.3129 28.7253 40.4163 28.896 40.4163 29.0822H39.9163ZM38.9365 44.6785C38.9365 44.9546 38.7127 45.1785 38.4365 45.1785C38.1604 45.1785 37.9365 44.9546 37.9365 44.6785H38.9365ZM39.9163 42.9449H40.4163C40.4163 43.1194 40.3253 43.2812 40.1763 43.372L39.9163 42.9449ZM40.4163 29.2425L40.4583 42.9441L39.4583 42.9472L39.4163 29.2455L40.4163 29.2425ZM39.7115 42.5108L44.699 39.6789L45.1927 40.5485L40.2052 43.3804L39.7115 42.5108ZM44.7085 39.6737L45.0063 39.513L45.481 40.3932L45.1832 40.5538L44.7085 39.6737ZM44.7437 39.9531L44.7436 26.4541L45.7436 26.4541L45.7437 39.9531L44.7437 39.9531ZM45.078 26.9259L44.7379 26.8065L45.0692 25.8629L45.4093 25.9823L45.078 26.9259ZM45.1504 26.7695L40.1632 29.6013L39.6694 28.7317L44.6567 25.8999L45.1504 26.7695ZM39.4163 29.1665V29.0822H40.4163V29.1665H39.4163ZM40.2018 29.4927C39.7281 29.8222 39.4008 30.099 39.1949 30.3444C38.9932 30.5848 38.9365 30.7603 38.9365 30.9004H37.9365C37.9365 30.4488 38.1337 30.0533 38.4289 29.7016C38.7198 29.3549 39.1324 29.0184 39.6308 28.6717L40.2018 29.4927ZM38.9365 30.9004V44.6785H37.9365V30.9004H38.9365ZM37.9365 44.6785C37.9365 44.2269 38.1336 43.8295 38.4347 43.4834C38.7314 43.1425 39.1505 42.8257 39.6563 42.5178L40.1763 43.372C39.71 43.6558 39.3892 43.9099 39.1891 44.1399C38.9933 44.3648 38.9365 44.5383 38.9365 44.6785H37.9365ZM39.4163 42.9449V29.244H40.4163V42.9449H39.4163Z"
        fill="#0A6190" />
    <path
        d="M25.756 32.3369V45.9891C25.756 47.6546 27.0686 49.2798 29.8556 50.8229L43.6771 59.0673V59.0922C45.5792 60.1912 46.6358 61.1621 46.8472 62.0497V48.2716C46.6358 47.384 45.5792 46.4111 43.6771 45.3121L29.9827 37.1126C27.1085 35.6755 25.756 34.0276 25.756 32.3369Z"
        fill="#0A6190" stroke="#0A6190" stroke-linejoin="round" />
    <path
        d="M57.6257 59.5999V45.989C57.6316 46.5349 57.5173 47.0752 57.2909 47.572C57.0644 48.0687 56.7312 48.5103 56.3152 48.8639V62.6419C56.7443 62.2625 57.0845 61.7935 57.311 61.2674C57.5375 60.7414 57.6449 60.1723 57.6257 59.5999Z"
        fill="#0A6190" stroke="#0A6190" stroke-linejoin="round" />
    <path d="M42.3676 52.8787L42.4098 66.6577L48.9189 70.4194L48.8767 56.6404L42.3676 52.8787Z"
        fill="#0A6190" stroke="#0A6190" stroke-linejoin="round" />
    <path
        d="M51.6659 55.2453C53.2275 54.4234 54.9742 54.0161 56.7383 54.0621C58.3357 54.233 59.8792 54.725 61.2766 55.5071V55.4486L75.7582 63.9524C78.3925 65.5156 81.402 66.3341 84.4651 66.3197C87.5139 66.3264 90.508 65.5083 93.1299 63.9526L101.414 59.1763L101.457 72.9554L93.1722 77.7315L93.1721 77.7051L93.1301 77.7305C90.5081 79.2864 87.514 80.1044 84.4651 80.0977C81.402 80.1121 78.3927 79.2937 75.7584 77.7305V77.7071L61.9369 69.7007L61.2766 69.3117V69.2871C59.8792 68.5046 58.3357 68.0111 56.7383 67.8401C54.9901 67.7946 53.259 68.1955 51.7082 69.0027L51.7083 69.0243L48.9186 70.4191L48.8764 56.6401L51.6659 55.2453Z"
        fill="#0A6190" stroke="#0A6190" stroke-linejoin="round" />
    <path
        d="M29.8568 27.1793C27.1094 28.7855 25.6301 30.4346 25.6301 32.1676C25.6301 33.9005 26.8981 35.6343 29.8568 37.2404L43.7199 45.312C45.622 46.411 46.6786 47.3839 46.89 48.2715C47.1013 49.1591 46.2982 50.1744 44.7766 51.231L42.4099 52.8367L48.9187 56.597L51.7085 55.2452C53.27 54.4232 55.0167 54.0167 56.7808 54.0626C58.6176 54.2592 60.3831 54.8802 61.9372 55.8788L75.8009 63.9524C78.4331 65.5024 81.4319 66.3196 84.4865 66.3196C87.5411 66.3196 90.5404 65.5024 93.1726 63.9524L101.626 59.1767L94.9052 55.2452L89.9603 58.1201C89.0399 58.7117 87.969 59.0261 86.8749 59.0261C85.7807 59.0261 84.7093 58.7117 83.7889 58.1201L70.0522 50.131C67.9308 48.9544 65.5816 48.2491 63.1632 48.061C60.8697 47.7793 58.5417 48.0247 56.3577 48.7792C56.9181 48.3024 57.3282 47.6724 57.5382 46.9672C57.7483 46.262 57.7494 45.5122 57.5413 44.8064C56.9318 43.0532 55.6564 41.6098 53.991 40.7902L40.2543 32.8012C38.1409 31.6177 38.1409 30.4349 40.2543 29.2514L45.2415 26.3765L38.4789 22.4883L29.8568 27.1793Z"
        fill="#F5F6F6" stroke="#0A6190" stroke-linejoin="round" />
</svg>