<svg width="85" height="98" viewBox="0 0 85 98" fill="none" xmlns="http://www.w3.org/2000/svg">
    <g clip-path="url(#clip0_62_4268)">
        <rect opacity="0.1" width="48.8852" height="48.8852" rx="11"
            transform="matrix(0.866044 0.499967 -0.866044 0.499967 42.4996 40.8235)" fill="#006FD6" />
        <rect width="54.8471" height="54.8471" rx="11"
            transform="matrix(0.866044 0.499967 -0.866044 0.499967 42.5 22.4952)" fill="#F5F7FA"
            stroke="#151E29" stroke-linejoin="round" />
        <path opacity="0.3"
            d="M26.7048 34.6827L30.957 37.143L33.9792 35.431C34.5668 35.0574 35.2486 34.859 35.9449 34.859C36.6411 34.859 37.323 35.0574 37.9106 35.431L46.6025 40.4861C47.9427 41.2399 49.4296 41.696 50.9619 41.8233C52.4111 42.0046 53.8825 41.8579 55.2677 41.395C54.9038 41.6834 54.637 42.076 54.5031 42.5206C54.3693 42.9653 54.375 43.4412 54.5191 43.8827C54.7124 44.4316 55.0126 44.9359 55.4029 45.3675C55.7932 45.7991 56.2656 46.1492 56.7924 46.3965L65.4843 51.4516C66.7948 52.2272 66.8216 52.9757 65.4843 53.7513L62.4087 55.5155L66.6609 58.0032L72.0099 54.9814C73.775 53.9651 74.6843 52.8948 74.6843 51.7715C74.6843 50.6483 73.8017 49.6328 72.0099 48.6165L63.2376 43.5079C61.9806 42.7858 61.3388 42.1433 61.2853 41.5817C61.2318 41.0201 61.6061 40.4325 62.569 39.7639L64.0668 38.7205L59.9748 36.3399L58.1831 37.1965C57.2092 37.7287 56.1094 37.9869 55.0004 37.9448C53.8227 37.8328 52.6874 37.4484 51.6841 36.8217L42.9385 31.7131C41.3212 30.7423 39.4758 30.2168 37.5896 30.1891C35.6414 30.1952 33.7303 30.721 32.0537 31.7131L26.7048 34.6827Z"
            fill="#006FD6" stroke="#006FD6" stroke-linejoin="round" />
        <path d="M26.7045 22.4929L26.7313 31.2116L30.9836 33.6989L30.9569 24.9802L26.7045 22.4929Z"
            fill="#0056B3" stroke="#0056B3" stroke-linejoin="round" />
        <path fill-rule="evenodd" clip-rule="evenodd"
            d="M62.5689 27.5212L62.5689 27.5208L64.0666 26.4777L64.0934 35.2232L62.5957 36.2395L62.5954 36.1634L62.5689 36.2393C61.7131 36.8277 61.2584 37.3896 61.2584 37.8977V29.1797C61.2584 28.5913 61.7131 28.1096 62.5689 27.5212L62.5689 27.5212Z"
            fill="#0056B3" />
        <path
            d="M62.5689 27.5208L62.0689 27.5223C62.0684 27.3581 62.1485 27.2042 62.2832 27.1105L62.5689 27.5208ZM62.5689 27.5212L63.0689 27.5197C63.0694 27.6922 62.981 27.8528 62.8349 27.9446L62.5689 27.5212ZM64.0666 26.4777L63.7809 26.0674C63.9334 25.9612 64.1324 25.9483 64.2974 26.0342C64.4623 26.12 64.566 26.2902 64.5666 26.4762L64.0666 26.4777ZM64.0934 35.2232L64.5934 35.2217C64.5939 35.3879 64.5117 35.5436 64.3741 35.6369L64.0934 35.2232ZM62.5957 36.2395L62.8764 36.6532C62.7234 36.757 62.5257 36.7679 62.3622 36.6816C62.1987 36.5953 62.0962 36.4259 62.0957 36.241L62.5957 36.2395ZM62.5954 36.1634L62.1235 35.9983C62.2039 35.7684 62.4383 35.63 62.6784 35.6704C62.9186 35.7108 63.0947 35.9184 63.0954 36.1619L62.5954 36.1634ZM62.5689 36.2393L63.0408 36.4044C63.0058 36.5047 62.9397 36.5911 62.8522 36.6513L62.5689 36.2393ZM61.7584 37.8977C61.7584 38.1739 61.5346 38.3977 61.2584 38.3977C60.9823 38.3977 60.7584 38.1739 60.7584 37.8977H61.7584ZM62.5689 27.5212L62.2856 27.1092C62.2913 27.1052 62.2971 27.1014 62.3029 27.0978L62.5689 27.5212ZM63.0689 27.5193L63.0689 27.5197L62.0689 27.5227L62.0689 27.5223L63.0689 27.5193ZM64.3524 26.888L62.8547 27.9311L62.2832 27.1105L63.7809 26.0674L64.3524 26.888ZM63.5934 35.2247L63.5666 26.4793L64.5666 26.4762L64.5934 35.2217L63.5934 35.2247ZM62.3149 35.8257L63.8126 34.8094L64.3741 35.6369L62.8764 36.6532L62.3149 35.8257ZM63.0954 36.1619L63.0957 36.2379L62.0957 36.241L62.0954 36.165L63.0954 36.1619ZM62.0969 36.0741L62.1235 35.9983L63.0674 36.3286L63.0408 36.4044L62.0969 36.0741ZM60.7584 37.8977C60.7584 37.4909 60.9399 37.1163 61.2013 36.7875C61.4639 36.4572 61.8347 36.1373 62.2856 35.8273L62.8522 36.6513C62.4473 36.9297 62.1628 37.1849 61.9841 37.4097C61.8043 37.636 61.7584 37.7964 61.7584 37.8977H60.7584ZM61.7584 29.1797V37.8977H60.7584V29.1797H61.7584ZM62.8522 27.9332C61.9806 28.5324 61.7584 28.8794 61.7584 29.1797H60.7584C60.7584 28.3031 61.4455 27.6867 62.2856 27.1092L62.8522 27.9332ZM62.8349 27.9446L62.8348 27.9446L62.3029 27.0978L62.303 27.0977L62.8349 27.9446Z"
            fill="#0056B3" />
        <path
            d="M34.086 31.893C34.6467 31.5564 35.2891 31.3786 35.9448 31.3786C36.6425 31.3786 37.3252 31.5799 37.9105 31.9598V31.9185L46.7095 36.9883L46.7095 36.9765C48.0397 37.7284 49.5186 38.1797 51.0421 38.2985C52.4896 38.4753 53.9581 38.3387 55.348 37.8976V29.1521C53.9628 29.6151 52.4914 29.7617 51.0421 29.5804C49.5098 29.4532 48.0229 28.9971 46.6828 28.2432V28.2696L37.6199 22.9573V23.075C37.1031 22.8094 36.529 22.6697 35.9448 22.6697C35.28 22.6697 34.6283 22.8506 34.0593 23.1921L34.0593 23.1881L30.9569 24.98L30.9837 33.6987L34.086 31.9068L34.086 31.893Z"
            fill="#0056B3" stroke="#0056B3" stroke-linejoin="round" />
        <path fill-rule="evenodd" clip-rule="evenodd"
            d="M54.5997 31.64V40.3581C54.7902 40.9084 55.0899 41.4149 55.4805 41.8468C55.8711 42.2788 56.3448 42.6272 56.8732 42.872L56.8997 42.8868L56.8998 42.899L65.5917 47.9538L65.5917 47.927C66.2333 48.3281 66.5809 48.703 66.5809 49.0773V40.3579C66.5809 39.9835 66.2332 39.6099 65.5914 39.2088L65.565 39.2248L65.565 39.2083L56.8868 34.1883L56.8732 34.1539C56.3465 33.9066 55.874 33.5564 55.4837 33.1248C55.0935 32.6932 54.7929 32.1889 54.5997 31.64Z"
            fill="#0056B3" />
        <path
            d="M54.5997 40.3581L54.1272 40.5217C54.109 40.4691 54.0997 40.4138 54.0997 40.3581H54.5997ZM54.5997 31.64H54.0997C54.0997 31.3964 54.2753 31.1882 54.5154 31.1472C54.7556 31.1061 54.9904 31.2442 55.0713 31.474L54.5997 31.64ZM55.4805 41.8468L55.1096 42.1822V42.1822L55.4805 41.8468ZM56.8732 42.872L57.0833 42.4183C57.0948 42.4236 57.106 42.4293 57.117 42.4354L56.8732 42.872ZM56.8997 42.8868L57.1436 42.4503C57.3013 42.5384 57.3992 42.7046 57.3997 42.8853L56.8997 42.8868ZM56.8998 42.899L56.6484 43.3313C56.4949 43.242 56.4003 43.0781 56.3998 42.9006L56.8998 42.899ZM65.5917 47.9538L66.0917 47.9522C66.0923 48.1314 65.9969 48.2972 65.8417 48.3868C65.6865 48.4764 65.4953 48.4761 65.3404 48.386L65.5917 47.9538ZM65.5917 47.927L65.0917 47.9286C65.0911 47.7465 65.1895 47.5786 65.3486 47.4901C65.5077 47.4016 65.7023 47.4066 65.8567 47.503L65.5917 47.927ZM67.0809 49.0773C67.0809 49.3535 66.8571 49.5773 66.5809 49.5773C66.3048 49.5773 66.0809 49.3535 66.0809 49.0773H67.0809ZM65.5914 39.2088L65.3308 38.7821C65.4923 38.6834 65.6958 38.6844 65.8564 38.7848L65.5914 39.2088ZM65.565 39.2248L65.8257 39.6515C65.6716 39.7457 65.4787 39.7494 65.3211 39.6613C65.1635 39.5732 65.0656 39.4069 65.065 39.2264L65.565 39.2248ZM65.565 39.2083L65.8154 38.7755C65.9694 38.8646 66.0644 39.0288 66.065 39.2068L65.565 39.2083ZM56.8868 34.1883L56.6364 34.6211C56.5388 34.5646 56.4631 34.4768 56.4217 34.3718L56.8868 34.1883ZM56.8732 34.1539L57.0857 33.7013C57.2011 33.7555 57.2915 33.8517 57.3383 33.9703L56.8732 34.1539ZM54.0997 40.3581V31.64H55.0997V40.3581H54.0997ZM55.1096 42.1822C54.674 41.7004 54.3397 41.1356 54.1272 40.5217L55.0721 40.1945C55.2407 40.6813 55.5058 41.1293 55.8513 41.5115L55.1096 42.1822ZM56.6631 43.3257C56.0738 43.0527 55.5454 42.6641 55.1096 42.1822L55.8513 41.5115C56.1967 41.8934 56.6157 42.2017 57.0833 42.4183L56.6631 43.3257ZM56.6559 43.3233L56.6294 43.3085L57.117 42.4354L57.1436 42.4503L56.6559 43.3233ZM56.3998 42.9006L56.3997 42.8883L57.3997 42.8853L57.3998 42.8975L56.3998 42.9006ZM65.3404 48.386L56.6484 43.3313L57.1511 42.4668L65.8431 47.5215L65.3404 48.386ZM66.0917 47.9255L66.0917 47.9522L65.0917 47.9553L65.0917 47.9286L66.0917 47.9255ZM65.8567 47.503C66.197 47.7157 66.4901 47.9399 66.7029 48.1826C66.9165 48.4263 67.0809 48.7263 67.0809 49.0773H66.0809C66.0809 49.054 66.0715 48.9794 65.9509 48.8418C65.8295 48.7033 65.628 48.5394 65.3266 48.351L65.8567 47.503ZM66.0809 49.0773V40.3579H67.0809V49.0773H66.0809ZM66.0809 40.3579C66.0809 40.3348 66.0717 40.2606 65.9511 40.1233C65.8297 39.985 65.6281 39.8214 65.3264 39.6328L65.8564 38.7848C66.1965 38.9973 66.4897 39.2211 66.7025 39.4635C66.9163 39.7069 67.0809 40.0067 67.0809 40.3579H66.0809ZM65.852 39.6355L65.8257 39.6515L65.3044 38.7981L65.3308 38.7821L65.852 39.6355ZM66.065 39.2068L66.065 39.2233L65.065 39.2264L65.065 39.2098L66.065 39.2068ZM57.1371 33.7555L65.8154 38.7755L65.3146 39.6411L56.6364 34.6211L57.1371 33.7555ZM57.3383 33.9703L57.3519 34.0048L56.4217 34.3718L56.4081 34.3374L57.3383 33.9703ZM55.8546 32.7895C56.2005 33.172 56.6192 33.4822 57.0857 33.7013L56.6607 34.6065C56.0738 34.3309 55.5475 33.9409 55.1129 33.4602L55.8546 32.7895ZM55.0713 31.474C55.2424 31.9601 55.5086 32.4069 55.8546 32.7895L55.1129 33.4602C54.6783 32.9795 54.3433 32.4177 54.128 31.806L55.0713 31.474Z"
            fill="#0056B3" />
        <path d="M62.4887 43.3002L62.5155 52.0189L66.7679 54.4794L66.7411 45.7607L62.4887 43.3002Z"
            fill="#0056B3" stroke="#0056B3" stroke-linejoin="round" />
        <path fill-rule="evenodd" clip-rule="evenodd"
            d="M71.983 42.7391V42.7387C73.7482 41.7224 74.604 40.6521 74.6575 39.5288V48.2482C74.6575 49.3658 73.7574 50.4296 72.0099 51.4413L72.0099 51.4577L66.768 54.4798L66.7412 45.7611L71.983 42.7391Z"
            fill="#0056B3" />
        <path
            d="M71.983 42.7387H71.483C71.483 42.5598 71.5785 42.3946 71.7335 42.3054L71.983 42.7387ZM71.983 42.7391H72.483C72.483 42.9178 72.3876 43.0829 72.2327 43.1722L71.983 42.7391ZM74.6575 39.5288L74.158 39.505C74.171 39.2338 74.3979 39.0225 74.6694 39.029C74.9408 39.0354 75.1575 39.2573 75.1575 39.5288H74.6575ZM72.0099 51.4413L71.5099 51.4428C71.5093 51.2638 71.6045 51.0982 71.7594 51.0086L72.0099 51.4413ZM72.0099 51.4577L72.5099 51.4562C72.5105 51.6354 72.415 51.8013 72.2597 51.8909L72.0099 51.4577ZM66.768 54.4798L67.0177 54.913C66.8633 55.002 66.673 55.0021 66.5185 54.9131C66.364 54.8242 66.2685 54.6596 66.268 54.4813L66.768 54.4798ZM66.7412 45.7611L66.2412 45.7626C66.2407 45.5833 66.3362 45.4175 66.4915 45.3279L66.7412 45.7611ZM72.483 42.7387V42.7391H71.483V42.7387H72.483ZM75.1569 39.5526C75.0909 40.9393 74.0402 42.1312 72.2325 43.172L71.7335 42.3054C73.4561 41.3136 74.1171 40.3648 74.158 39.505L75.1569 39.5526ZM74.1575 48.2482V39.5288H75.1575V48.2482H74.1575ZM71.7594 51.0086C73.4833 50.0105 74.1575 49.0755 74.1575 48.2482H75.1575C75.1575 49.6561 74.0315 50.8487 72.2604 51.874L71.7594 51.0086ZM71.5099 51.4592L71.5099 51.4428L72.5099 51.4397L72.5099 51.4562L71.5099 51.4592ZM66.5183 54.0466L71.7602 51.0245L72.2597 51.8909L67.0177 54.913L66.5183 54.0466ZM67.2412 45.7596L67.268 54.4783L66.268 54.4813L66.2412 45.7626L67.2412 45.7596ZM72.2327 43.1722L66.991 46.1943L66.4915 45.3279L71.7333 42.3059L72.2327 43.1722Z"
            fill="#0056B3" />
        <path
            d="M26.7047 22.4936L30.957 24.9538L33.9792 23.2418C34.5667 22.8683 35.2486 22.6698 35.9448 22.6698C36.6411 22.6698 37.3229 22.8683 37.9105 23.2418L46.6025 28.2969C47.9426 29.0508 49.4295 29.5069 50.9619 29.6341C52.4111 29.8154 53.8825 29.6688 55.2677 29.2058C54.9038 29.4943 54.637 29.8868 54.5031 30.3315C54.3692 30.7762 54.3749 31.2521 54.5191 31.6935C54.7123 32.2424 55.0126 32.7467 55.4029 33.1783C55.7932 33.6099 56.2656 33.9601 56.7923 34.2074L65.4843 39.2624C66.7948 40.038 66.8215 40.7865 65.4843 41.5621L62.4086 43.3264L66.6609 45.8141L72.0098 42.7922C73.775 41.776 74.6843 40.7057 74.6843 39.5824C74.6843 38.4591 73.8017 37.4437 72.0098 36.4274L63.2375 31.3187C61.9805 30.5966 61.3387 29.9542 61.2852 29.3926C61.2317 28.8309 61.6061 28.2434 62.5689 27.5748L64.0668 26.5314L59.9748 24.1507L58.1831 25.0074C57.2092 25.5395 56.1093 25.7977 55.0003 25.7557C53.8227 25.6436 52.6873 25.2593 51.684 24.6326L42.9385 19.524C41.3211 18.5531 39.4758 18.0277 37.5896 18C35.6414 18.0061 33.7303 18.5319 32.0536 19.524L26.7047 22.4936Z"
            fill="#F5F7FA" stroke="#0056B3" stroke-linejoin="round" />
        <path opacity="0.3"
            d="M12.8407 45.8323C11.199 46.792 10.315 47.7775 10.315 48.813C10.315 49.8485 11.0727 50.8845 12.8407 51.8443L21.1246 56.6674C22.2611 57.3241 22.8925 57.9054 23.0188 58.4358C23.1451 58.9662 22.6652 59.5729 21.756 60.2043L20.3418 61.1637L24.231 63.4106L25.8981 62.6029C26.8312 62.1117 27.8749 61.8688 28.929 61.8963C30.0266 62.0137 31.0816 62.3848 32.0102 62.9815L40.2944 67.8059C41.8672 68.732 43.6591 69.2204 45.4844 69.2204C47.3097 69.2204 49.1019 68.732 50.6747 67.8059L55.726 64.9522L51.71 62.6029L48.7552 64.3208C48.2053 64.6743 47.5653 64.8622 46.9116 64.8622C46.2578 64.8622 45.6175 64.6743 45.0676 64.3208L36.8592 59.547C35.5917 58.8439 34.1879 58.4224 32.7427 58.31C31.3723 58.1417 29.9812 58.2883 28.6762 58.7392C29.0111 58.4543 29.2561 58.0778 29.3816 57.6564C29.5071 57.2351 29.5078 56.787 29.3834 56.3652C29.0192 55.3176 28.2571 54.4551 27.262 53.9654L19.0537 49.1916C17.7908 48.4844 17.7908 47.7776 19.0537 47.0704L22.0337 45.3526L17.9928 43.0292L12.8407 45.8323Z"
            fill="#006FD6" stroke="#006FD6" stroke-linejoin="round" />
        <path fill-rule="evenodd" clip-rule="evenodd"
            d="M18.8516 34.8694L18.8768 43.0643L21.857 41.3721L22.035 41.2761L22.035 33.2099L21.8318 33.1385L18.8516 34.8307V34.7803C18.2707 35.1844 17.9674 35.5132 17.9674 35.8667V44.0997C17.9674 43.7462 18.2707 43.4174 18.8516 43.0638V34.8694Z"
            fill="#0056B3" />
        <path
            d="M18.8516 34.8694H18.3516C18.3516 34.5936 18.575 34.3698 18.8509 34.3694C19.1267 34.369 19.3508 34.592 19.3516 34.8679L18.8516 34.8694ZM18.8768 43.0643L19.1236 43.4991C18.9691 43.5869 18.7796 43.586 18.6259 43.4968C18.4722 43.4076 18.3773 43.2436 18.3768 43.0659L18.8768 43.0643ZM21.857 41.3721L21.6101 40.9372L21.6196 40.9321L21.857 41.3721ZM22.035 41.2761L22.535 41.2761C22.535 41.4599 22.4341 41.6289 22.2724 41.7162L22.035 41.2761ZM22.035 33.2099L22.2006 32.7381C22.4009 32.8084 22.535 32.9976 22.535 33.2099L22.035 33.2099ZM21.8318 33.1385L21.5849 32.7037C21.7106 32.6324 21.861 32.6189 21.9974 32.6668L21.8318 33.1385ZM18.8516 34.8307L19.0985 35.2655C18.9437 35.3533 18.7539 35.3523 18.6001 35.2628C18.4462 35.1732 18.3516 35.0086 18.3516 34.8307H18.8516ZM18.8516 34.7803L18.5661 34.3698C18.7189 34.2635 18.9182 34.2509 19.0832 34.3371C19.2482 34.4233 19.3516 34.5941 19.3516 34.7803H18.8516ZM18.4674 44.0997C18.4674 44.3759 18.2435 44.5997 17.9674 44.5997C17.6913 44.5997 17.4674 44.3759 17.4674 44.0997H18.4674ZM18.8516 43.0638H19.3516C19.3516 43.2383 19.2607 43.4002 19.1116 43.4909L18.8516 43.0638ZM19.3516 34.8679L19.3768 43.0628L18.3768 43.0659L18.3516 34.871L19.3516 34.8679ZM18.6299 42.6295L21.6101 40.9373L22.1039 41.8069L19.1236 43.4991L18.6299 42.6295ZM21.6196 40.9321L21.7976 40.8361L22.2724 41.7162L22.0944 41.8122L21.6196 40.9321ZM21.535 41.2761L21.535 33.2099L22.535 33.2099L22.535 41.2761L21.535 41.2761ZM21.8693 33.6817L21.6661 33.6103L21.9974 32.6668L22.2006 32.7381L21.8693 33.6817ZM22.0786 33.5734L19.0985 35.2655L18.6047 34.3959L21.5849 32.7037L22.0786 33.5734ZM18.3516 34.8307V34.7803H19.3516V34.8307H18.3516ZM19.1372 35.1907C18.859 35.3842 18.6806 35.5376 18.5747 35.6638C18.473 35.7851 18.4674 35.8457 18.4674 35.8667H17.4674C17.4674 35.5342 17.6135 35.2536 17.8087 35.0211C17.9996 34.7935 18.2633 34.5804 18.5661 34.3698L19.1372 35.1907ZM18.4674 35.8667V44.0997H17.4674V35.8667H18.4674ZM17.4674 44.0997C17.4674 43.7673 17.6134 43.4847 17.8145 43.2536C18.0112 43.0275 18.2814 42.8256 18.5917 42.6367L19.1116 43.4909C18.841 43.6557 18.669 43.7949 18.5689 43.91C18.4731 44.02 18.4674 44.0786 18.4674 44.0997H17.4674ZM18.3516 43.0638V34.8694H19.3516V43.0638H18.3516Z"
            fill="#0056B3" />
        <path
            d="M10.3904 36.7251V44.8829C10.3904 45.8781 11.1748 46.8492 12.8401 47.7713L21.0991 52.6977V52.7126C22.2357 53.3693 22.8671 53.9494 22.9933 54.4798V46.2468C22.8671 45.7164 22.2357 45.135 21.0991 44.4784L12.9161 39.5788C11.1986 38.7201 10.3904 37.7354 10.3904 36.7251Z"
            fill="#0056B3" stroke="#0056B3" stroke-linejoin="round" />
        <path
            d="M29.4339 53.0159V44.8828C29.4374 45.209 29.3691 45.5319 29.2338 45.8287C29.0985 46.1255 28.8993 46.3894 28.6508 46.6007V54.8337C28.9072 54.607 29.1105 54.3267 29.2458 54.0124C29.3812 53.698 29.4454 53.358 29.4339 53.0159Z"
            fill="#0056B3" stroke="#0056B3" stroke-linejoin="round" />
        <path d="M20.3164 48.9996L20.3416 57.2332L24.2311 59.481L24.2059 51.2475L20.3164 48.9996Z"
            fill="#0056B3" stroke="#0056B3" stroke-linejoin="round" />
        <path
            d="M25.8727 50.4139C26.8058 49.9227 27.8495 49.6794 28.9036 49.7069C29.8581 49.809 30.7804 50.103 31.6154 50.5703V50.5354L40.2689 55.6168C41.843 56.5508 43.6413 57.0399 45.4716 57.0313C47.2934 57.0353 49.0825 56.5465 50.6493 55.6169L55.5995 52.7628L55.6248 60.9964L50.6745 63.8504L50.6745 63.8346L50.6493 63.8498C49.0826 64.7795 47.2935 65.2683 45.4716 65.2643C43.6413 65.2729 41.8431 64.7839 40.269 63.8498V63.8358L32.01 59.0516L31.6154 58.8192V58.8045C30.7804 58.3369 29.8581 58.042 28.9036 57.9399C27.859 57.9127 26.8246 58.1522 25.8979 58.6345L25.8979 58.6475L24.231 59.4809L24.2058 51.2473L25.8727 50.4139Z"
            fill="#0056B3" stroke="#0056B3" stroke-linejoin="round" />
        <path
            d="M12.8408 33.6432C11.1991 34.6029 10.3152 35.5884 10.3152 36.6239C10.3152 37.6594 11.0728 38.6954 12.8408 39.6552L21.1247 44.4783C22.2612 45.135 22.8926 45.7164 23.0189 46.2467C23.1452 46.7771 22.6653 47.3838 21.7561 48.0152L20.3419 48.9746L24.2311 51.2216L25.8982 50.4138C26.8313 49.9227 27.875 49.6797 28.9291 49.7072C30.0267 49.8246 31.0817 50.1957 32.0103 50.7924L40.2945 55.6168C41.8674 56.5429 43.6592 57.0313 45.4845 57.0313C47.3098 57.0313 49.102 56.5429 50.6748 55.6168L55.7261 52.7631L51.7101 50.4138L48.7553 52.1317C48.2054 52.4852 47.5654 52.6731 46.9117 52.6731C46.2579 52.6731 45.6176 52.4852 45.0677 52.1317L36.8594 47.3579C35.5918 46.6548 34.188 46.2334 32.7429 46.121C31.3724 45.9526 29.9814 46.0993 28.6763 46.5501C29.0112 46.2652 29.2562 45.8887 29.3817 45.4673C29.5072 45.046 29.5079 44.5979 29.3836 44.1762C29.0194 43.1285 28.2572 42.266 27.2621 41.7763L19.0538 37.0025C17.791 36.2953 17.791 35.5885 19.0538 34.8814L22.0339 33.1635L17.9929 30.8401L12.8408 33.6432Z"
            fill="#F5F7FA" stroke="#0056B3" stroke-linejoin="round" />
    </g>
    <defs>
        <clipPath id="clip0_62_4268">
            <rect width="85" height="98" fill="white" />
        </clipPath>
    </defs>
</svg>