<svg width="166" height="137" viewBox="0 0 166 137" fill="none" xmlns="http://www.w3.org/2000/svg">
    <path
        d="M75.4921 19.5191L132.209 52.2931C146.425 60.5081 157.95 80.4851 157.95 96.913C157.95 104.711 155.353 110.307 151.105 113.157L141.153 119.11C136.54 121.491 130.312 120.988 123.458 117.027L66.7414 84.2531C52.525 76.0381 41.0002 56.0611 41.0002 39.6332C41.0002 31.8342 43.5977 26.2371 47.8475 23.3881L57.7879 17.4411C62.4016 15.0543 68.6336 15.5559 75.4921 19.5191Z"
        fill="#E7FAFB" stroke="#151E29" stroke-width="1.77197" stroke-linejoin="round" />
    <path
        d="M66.7416 24.7625C52.5251 16.5475 41.0004 23.2053 41.0004 39.6332C41.0004 56.0611 52.5251 76.0381 66.7416 84.2531L123.459 117.027C137.675 125.242 149.2 118.584 149.2 102.156C149.2 85.7285 137.675 65.7515 123.459 57.5365L66.7416 24.7625Z"
        fill="white" stroke="#151E29" stroke-width="1.77197" stroke-linejoin="round" />
    <path
        d="M55.3938 41.0899C55.2258 40.9899 55.1839 40.8672 55.2678 40.7706L56.1497 39.9765C56.2337 39.8799 56.4437 39.9072 56.6116 40.0072L71.6035 48.9326C71.7714 49.0326 71.8134 49.2042 71.7295 49.3007L71.0156 50.146C70.9316 50.2426 70.7216 50.2642 70.5956 50.1892L55.3938 41.0899ZM49.0527 41.8098C48.8848 41.7098 48.8428 41.587 48.9268 41.4905L49.8086 40.6963C49.8926 40.5997 50.1026 40.627 50.2706 40.727L69.4198 52.1275C69.5878 52.2275 69.6718 52.4241 69.6298 52.5457L69.2938 53.5183C69.2518 53.6887 69.0838 53.6864 68.9159 53.5864L49.0527 41.8098ZM59.2153 52.355C59.0473 52.255 59.0053 52.0834 59.0893 51.9869L59.6772 51.1154C59.7612 51.0188 59.9292 50.9723 60.0971 51.0723L68.4959 56.0725C68.6639 56.1725 68.7479 56.3691 68.7479 56.5645L68.6639 57.6871C68.6639 57.8825 68.4959 57.9291 68.3699 57.8541L59.2153 52.355ZM102.805 68.4367C100.159 67.6434 98.3536 67.1546 95.75 66.3863C95.1201 66.2067 95.0781 66.2306 94.5321 65.1727C93.9022 63.9671 93.4403 63.1546 92.5584 62.141C89.9128 59.0513 87.3512 57.966 84.9575 58.3487C82.1019 58.7984 80.6322 61.0992 80.6742 65.0817C80.7162 69.0154 83.0258 73.6151 86.3433 76.1277C89.1989 78.2675 91.5926 78.5199 93.4823 77.1532C93.8602 76.8408 94.1962 76.4545 94.6161 76.0205L86.5113 71.1952C85.6294 70.6702 85.4195 69.9101 85.7134 69.2545C86.2593 68.0649 87.2672 66.1242 87.8551 65.2039C87.9811 64.9858 88.2751 64.6722 88.905 65.0472L104.191 74.1476C104.107 75.4168 104.107 76.736 103.939 77.9552C103.477 81.198 102.343 83.7476 100.495 85.4814C97.4717 88.3228 93.5243 88.8554 88.527 86.662C84.4116 84.8471 80.5902 81.6436 77.2307 76.712C74.1231 72.1259 72.3594 67.4603 71.8974 62.6903C71.3515 57.0397 72.6953 53.0516 75.4669 50.4998C78.4485 47.731 82.3959 47.1985 87.2252 49.0476C91.1726 50.5671 94.9521 53.3546 98.3536 58.0669C100.579 61.1021 102.175 64.3973 103.225 67.8561C103.477 68.4459 103.309 68.5902 102.805 68.4367Z"
        fill="#0A6190" />
    <path
        d="M116.705 103.731C112.883 101.358 109.398 98.0126 106.458 93.331C103.981 89.3641 102.427 85.2633 101.923 81.2012C101.167 75.2301 102.469 71.1193 105.324 68.471C108.39 65.6056 112.085 65.3628 117.083 67.3119C121.366 68.9825 125.398 71.8712 129.051 76.929C132.368 81.5424 134.426 86.3342 134.972 91.3496C135.686 98.3705 134.048 102.77 130.143 105.038C127.371 106.661 123.97 106.688 120.064 105.291C118.93 104.86 117.797 104.234 116.705 103.731ZM126.699 89.9422C126.657 89.282 126.657 88.7935 126.573 88.2549C125.817 82.9678 121.996 77.9567 118.007 76.6564C114.101 75.3574 111.582 76.74 110.658 80.7826C109.902 84.1436 111.498 88.9535 114.521 92.317C116.831 94.8647 119.14 96.0932 121.366 96.0991C124.684 96.0709 126.489 94.019 126.699 89.9422Z"
        fill="#0A6190" />
</svg>