<svg width="160" height="160" viewBox="0 0 160 160" fill="none" xmlns="http://www.w3.org/2000/svg">
<path d="M102.918 54.944C104.924 56.2452 106.593 58.0029 107.789 60.0733C108.985 62.1437 109.674 64.4678 109.799 66.8556L109.588 135.106C109.588 139.488 106.472 141.257 102.658 139.05L50.8972 109.165C48.8872 107.866 47.2139 106.109 46.0149 104.038C44.8159 101.968 44.1254 99.6418 44 97.2522L44.227 28.9861C44.227 24.6043 47.3267 22.8518 51.1567 25.0589L102.918 54.944Z" fill="white" stroke="#1A1B1D" stroke-linejoin="round"/>
<path d="M85.2514 94.41L64.9234 100.115M85.2514 94.41L78.5786 105.968M85.2514 94.41L72.221 91.4679L63.9221 82.0955L64.4228 91.1051M85.2514 94.41L96.5553 100.115L87.5669 103.041M64.9234 100.115L64.4228 91.1051M64.9234 100.115L68.4137 106.251M64.9234 100.115L53.2646 88.2767M64.9234 100.115L58.6385 106.251M64.9234 100.115L78.5786 105.968M78.5786 105.968L84.7884 120.515L71.9041 112.388L68.4137 106.251M78.5786 105.968L87.5669 103.041M87.5669 103.041L94.1063 112.388M64.4228 91.1051L53.2646 88.2767M53.2646 88.2767L58.6385 106.251M58.6385 106.251L68.4137 106.251" stroke="#1A1B1D"/>
<circle cx="84.4069" cy="94.7485" r="4.71095" transform="rotate(-90 84.4069 94.7485)" fill="#FFB422"/>
<path d="M81.4763 91.0619C82.2808 90.4214 83.2987 90.0376 84.407 90.0375C87.0088 90.0375 89.1179 92.1467 89.1179 94.7484C89.1179 97.1387 87.3378 99.1121 85.031 99.4174C86.1157 98.5543 86.8112 97.2237 86.8113 95.7299C86.8113 93.1281 84.7021 91.019 82.1003 91.019C81.8887 91.019 81.6806 91.0349 81.4763 91.0619Z" fill="#FFA901"/>
<circle cx="84.4069" cy="94.7485" r="4.21095" transform="rotate(-90 84.4069 94.7485)" stroke="#1A1B1D"/>
<circle cx="95.4579" cy="99.944" r="5.20543" transform="rotate(-90 95.4579 99.944)" fill="white"/>
<path d="M92.2196 95.8705C93.1086 95.1628 94.2333 94.7388 95.4579 94.7387C98.3327 94.7387 100.664 97.069 100.664 99.9438C100.664 102.585 98.6968 104.765 96.1483 105.103C97.3466 104.149 98.115 102.679 98.1151 101.029C98.1151 98.1539 95.7849 95.8227 92.91 95.8227C92.6759 95.8227 92.4456 95.8406 92.2196 95.8705Z" fill="#E7FAFB"/>
<circle cx="95.4579" cy="99.944" r="4.70543" transform="rotate(-90 95.4579 99.944)" stroke="#1A1B1D"/>
<circle cx="84.224" cy="119.498" r="3.80758" transform="rotate(-75 84.224 119.498)" fill="white"/>
<path d="M82.7074 116.007C83.4694 115.676 84.3441 115.588 85.2092 115.82C87.2403 116.364 88.4458 118.452 87.9016 120.483C87.4013 122.35 85.5972 123.519 83.7317 123.274C84.7599 122.827 85.5828 121.934 85.8956 120.767C86.4398 118.736 85.2342 116.648 83.2032 116.104C83.0382 116.059 82.8723 116.029 82.7074 116.007Z" fill="#E7FAFB"/>
<circle cx="84.224" cy="119.498" r="3.30758" transform="rotate(-75 84.224 119.498)" stroke="#1A1B1D"/>
<circle cx="63.833" cy="81.6586" r="2.91565" transform="rotate(-90 63.833 81.6586)" fill="white"/>
<path d="M62.0192 79.3792C62.5173 78.9822 63.1472 78.7434 63.8336 78.7434C65.4436 78.7436 66.7485 80.0485 66.7487 81.6585C66.7487 83.1377 65.647 84.3571 64.2194 84.5462C64.8901 84.012 65.3219 83.19 65.3219 82.2659C65.3217 80.6558 64.016 79.3509 62.4059 79.3509C62.2746 79.3509 62.1458 79.3624 62.0192 79.3792Z" fill="#E7FAFB"/>
<circle cx="63.833" cy="81.6586" r="2.41565" transform="rotate(-90 63.833 81.6586)" stroke="#1A1B1D"/>
<circle cx="71.9709" cy="112.104" r="3.80758" transform="rotate(-90 71.9709 112.104)" fill="white"/>
<path d="M69.6022 109.125C70.2524 108.607 71.0747 108.297 71.9703 108.297C74.0732 108.297 75.778 110.002 75.778 112.104C75.7779 114.037 74.339 115.631 72.4742 115.878C73.3511 115.18 73.9137 114.105 73.9137 112.897C73.9136 110.795 72.2089 109.09 70.1061 109.09C69.9352 109.09 69.7671 109.103 69.6022 109.125Z" fill="#E7FAFB"/>
<circle cx="71.9709" cy="112.104" r="3.30758" transform="rotate(-90 71.9709 112.104)" stroke="#1A1B1D"/>
<circle cx="64.6588" cy="99.9441" r="2.82395" transform="rotate(-90 64.6588 99.9441)" fill="white"/>
<path d="M62.9015 97.7365C63.384 97.3518 63.9942 97.1203 64.6593 97.1203C66.2187 97.1204 67.4833 98.3842 67.4835 99.9436C67.4835 101.376 66.4159 102.557 65.0333 102.74C65.6827 102.223 66.0996 101.427 66.0997 100.532C66.0997 98.9729 64.836 97.7083 63.2765 97.7082C63.1493 97.7082 63.0243 97.7202 62.9015 97.7365Z" fill="#E7FAFB"/>
<circle cx="64.6588" cy="99.9441" r="2.32395" transform="rotate(-90 64.6588 99.9441)" stroke="#1A1B1D"/>
<circle cx="59.1952" cy="105.975" r="2.82395" transform="rotate(-90 59.1952 105.975)" fill="white"/>
<path d="M57.438 103.768C57.9204 103.383 58.53 103.152 59.1948 103.151C60.7543 103.151 62.0188 104.415 62.019 105.975C62.019 107.407 60.9522 108.588 59.5698 108.772C60.219 108.254 60.6361 107.458 60.6362 106.564C60.6362 105.004 59.3716 103.739 57.812 103.739C57.685 103.739 57.5605 103.751 57.438 103.768Z" fill="#E7FAFB"/>
<circle cx="59.1952" cy="105.975" r="2.32395" transform="rotate(-90 59.1952 105.975)" stroke="#1A1B1D"/>
<circle cx="53.5471" cy="89.1075" r="2.82395" transform="rotate(-90 53.5471 89.1075)" fill="white"/>
<path d="M51.7899 86.8999C52.2723 86.5153 52.8819 86.2838 53.5468 86.2837C55.1062 86.2837 56.3708 87.5475 56.371 89.1069C56.371 90.5394 55.3041 91.7204 53.9218 91.9038C54.571 91.3865 54.988 90.5904 54.9882 89.6958C54.9882 88.1361 53.7236 86.8716 52.1639 86.8716C52.037 86.8716 51.9125 86.8836 51.7899 86.8999Z" fill="#E7FAFB"/>
<circle cx="53.5471" cy="89.1075" r="2.32395" transform="rotate(-90 53.5471 89.1075)" stroke="#1A1B1D"/>
<circle cx="94.1739" cy="113.088" r="2.82395" transform="rotate(-90 94.1739 113.088)" fill="white"/>
<path d="M92.4165 110.881C92.899 110.496 93.5092 110.264 94.1743 110.264C95.7337 110.264 96.9973 111.528 96.9976 113.088C96.9976 114.52 95.9309 115.701 94.5483 115.884C95.1977 115.367 95.6146 114.571 95.6147 113.676C95.6147 112.117 94.351 110.852 92.7915 110.852C92.6643 110.852 92.5393 110.864 92.4165 110.881Z" fill="#E7FAFB"/>
<circle cx="94.1739" cy="113.088" r="2.32395" transform="rotate(-90 94.1739 113.088)" stroke="#1A1B1D"/>
<circle cx="78.8115" cy="106.409" r="2.82395" transform="rotate(-90 78.8115 106.409)" fill="white"/>
<path d="M77.0542 104.201C77.5366 103.817 78.1462 103.585 78.811 103.585C80.3705 103.585 81.6351 104.849 81.6353 106.408C81.6353 107.841 80.5684 109.022 79.186 109.205C79.8354 108.688 80.2524 107.891 80.2524 106.996C80.2522 105.437 78.9877 104.173 77.4282 104.173C77.3012 104.173 77.1767 104.185 77.0542 104.201Z" fill="#E7FAFB"/>
<circle cx="78.8115" cy="106.409" r="2.32395" transform="rotate(-90 78.8115 106.409)" stroke="#1A1B1D"/>
<circle cx="72.4011" cy="91.217" r="2.82395" transform="rotate(-90 72.4011 91.217)" fill="white"/>
<path d="M70.6455 89.0098C71.1279 88.6256 71.7367 88.3937 72.4014 88.3936C73.9609 88.3936 75.2254 89.6574 75.2256 91.2169C75.2256 92.6497 74.1582 93.8307 72.7754 94.0137C73.4249 93.4963 73.8428 92.6997 73.8428 91.8047C73.8426 90.2453 72.578 88.9816 71.0186 88.9815C70.8919 88.9815 70.7677 88.9937 70.6455 89.0098Z" fill="#E7FAFB"/>
<circle cx="72.4011" cy="91.217" r="2.32395" transform="rotate(-90 72.4011 91.217)" stroke="#1A1B1D"/>
<path d="M107.789 60.0733C106.593 58.0029 104.924 56.2452 102.918 54.944L51.1567 25.0589C47.3267 22.8518 44.227 24.6043 44.227 28.9861L44.1986 38.63L102.866 72.5063L109.773 76.4975L109.799 66.8556C109.674 64.4678 108.985 62.1437 107.789 60.0733Z" fill="#8FE3E8" stroke="#1A1B1D" stroke-linejoin="round"/>
<path d="M53.266 20.437L46.2394 24.5731C47.0217 24.2174 47.8843 24.0748 48.7394 24.1603C49.5946 24.2458 59.4032 29.7012 60.0995 30.2049L102.889 54.9522C104.895 56.2534 106.564 58.011 107.76 60.0815C108.945 62.1323 109.632 64.432 109.766 66.7959L109.478 135.107L109.496 135.096V135.271C109.496 137.43 108.722 138.795 107.498 139.518L114.807 135.271C115.912 134.501 116.586 133.028 116.586 130.99L116.601 125.252L116.586 125.259L116.797 62.721C116.671 60.3357 115.982 58.0137 114.787 55.9453C113.591 53.8749 111.922 52.1103 109.916 50.8091L58.1346 20.9243C57.4383 20.4207 56.6212 20.1097 55.7661 20.0241C54.911 19.9386 54.0483 20.0812 53.266 20.437Z" fill="#4C99A4" stroke="#1A1B1D" stroke-linejoin="round"/>
<path d="M109.408 76.4975L116.797 72.2402" stroke="#1A1B1D" stroke-linejoin="round"/>
<circle cx="52.1774" cy="34.7448" r="3.45014" transform="rotate(-90 52.1774 34.7448)" fill="#FFB422"/>
<path opacity="0.5" d="M51.3175 31.4032C51.5923 31.3328 51.8802 31.2948 52.1769 31.2948C54.0823 31.2948 55.627 32.8396 55.6271 34.745C55.6271 36.6505 54.0823 38.1952 52.1769 38.1952C51.8802 38.1952 51.5922 38.1582 51.3175 38.0878C52.8073 37.706 53.9083 36.3539 53.9083 34.745C53.9083 33.1363 52.8072 31.7851 51.3175 31.4032Z" fill="#EC9C00"/>
<circle cx="52.1774" cy="34.7448" r="2.95014" transform="rotate(-90 52.1774 34.7448)" stroke="#1A1B1D"/>
<circle cx="61.2357" cy="40.0926" r="3.45014" transform="rotate(-90 61.2357 40.0926)" fill="#80BB53"/>
<path opacity="0.5" d="M60.1097 36.8319C60.4627 36.71 60.8413 36.6424 61.2357 36.6424C63.1412 36.6424 64.6859 38.1872 64.6859 40.0926C64.6859 41.9981 63.1412 43.5428 61.2357 43.5428C61.0024 43.5428 60.7744 43.5196 60.5541 43.4754C61.9069 43.0088 62.8793 41.7251 62.8793 40.2137C62.8791 38.5415 61.689 37.148 60.1097 36.8319Z" fill="#4D8622"/>
<circle cx="61.2357" cy="40.0926" r="2.95014" transform="rotate(-90 61.2357 40.0926)" stroke="#1A1B1D"/>
<circle cx="70.2944" cy="45.4399" r="3.45014" transform="rotate(-90 70.2944 45.4399)" fill="#8FE3E8"/>
<path opacity="0.5" d="M69.4141 48.7777C70.8949 48.3898 71.9873 47.0423 71.9873 45.4398C71.9872 43.8379 70.8952 42.4922 69.415 42.1039C69.6956 42.0302 69.9903 41.9906 70.2939 41.9906C72.1993 41.9908 73.7441 43.5355 73.7441 45.4408C73.7441 47.3462 72.1993 48.8908 70.2939 48.891C69.9899 48.891 69.6949 48.8515 69.4141 48.7777Z" fill="#0A6190"/>
<circle cx="70.2944" cy="45.4399" r="2.95014" transform="rotate(-90 70.2944 45.4399)" stroke="#1A1B1D"/>
<circle cx="4.95941" cy="4.95941" r="4.95941" transform="matrix(3.77346e-05 1 0.866007 0.500033 89.8643 75.8064)" fill="#8FE3E8"/>
<path d="M95.032 84.8364L96.1277 86.8619M93.8013 84.6921C94.7896 85.2628 95.5908 84.8002 95.5907 83.6589C95.5907 82.5177 94.7895 81.1299 93.8011 80.5592C92.8128 79.9886 92.0116 80.4511 92.0117 81.5924C92.0117 82.7336 92.813 84.1214 93.8013 84.6921Z" stroke="#1A1B1D" stroke-linecap="round"/>
<rect x="0.432975" y="-0.25" width="61.304" height="13.7912" rx="3.5" transform="matrix(0.866025 0.5 -7.54153e-05 -1 48.7865 63.5775)" stroke="#1A1B1D"/>
</svg>
