<svg width="68" height="88" viewBox="0 0 68 88" fill="none" xmlns="http://www.w3.org/2000/svg">
    <g clip-path="url(#clip0_649_9278)">
        <circle opacity="0.35" cx="2.8238" cy="2.8238" r="2.8238"
            transform="matrix(0.807351 0.590072 -0.914723 0.404081 54.8129 36.5439)" fill="#006FD6" />
        <path
            d="M61.3812 4.79685C59.7741 3.62232 56.9954 3.3222 55.1746 4.12652C54.2629 4.5293 53.7641 5.13264 53.6953 5.78218L50.8179 32.4231C50.5562 34.847 52.3089 37.0241 54.7328 37.2859C57.1566 37.5477 59.3338 35.795 59.5956 33.3711L62.4728 6.73018C62.5442 6.08092 62.1859 5.38501 61.3812 4.79685Z"
            fill="#A4D5FE" />
        <path
            d="M54.2262 5.83843L54.2261 5.83951L51.3488 32.4804C51.1187 34.6111 52.6594 36.5249 54.7901 36.7551L54.7328 37.2859C52.3089 37.0241 50.5562 34.847 50.8179 32.4231L53.6953 5.78218C53.7641 5.13264 54.2629 4.5293 55.1747 4.12652C56.085 3.72436 57.2349 3.59831 58.3581 3.71962L58.3007 4.25047C57.246 4.13656 56.1949 4.25955 55.3904 4.61493C54.5814 4.97229 54.2678 5.44611 54.2262 5.83843Z"
            fill="url(#paint0_linear_649_9278)" fill-opacity="0.5" />
        <path
            d="M53.3924 20.6287C54.9994 21.8032 57.7781 22.1034 59.5989 21.299C60.4684 20.9149 60.9622 20.3483 61.0658 19.7332L59.5956 33.3711C59.3338 35.795 57.1566 37.5477 54.7328 37.2859C52.3089 37.0242 50.5562 34.847 50.8179 32.4231L52.2 19.6272L52.2964 18.7411C52.2463 19.3772 52.6064 20.0543 53.3924 20.6287Z"
            fill="#018BFF" fill-opacity="0.7" />
        <path fill-rule="evenodd" clip-rule="evenodd"
            d="M50.8793 31.8555L50.8179 32.4233C50.5562 34.8471 52.3089 37.0243 54.7328 37.2861C57.1566 37.5479 59.3338 35.7952 59.5956 33.3713L61.0658 19.7334C60.9622 20.3485 60.4685 20.9151 59.5989 21.2992C58.7881 21.6574 57.7873 21.7965 56.7846 21.737L56.1099 27.9959C55.8481 30.4198 53.6709 32.1725 51.2471 31.9107C51.1226 31.8973 51 31.8788 50.8793 31.8555Z"
            fill="#A4D5FE" fill-opacity="0.5" />
        <path fill-rule="evenodd" clip-rule="evenodd"
            d="M51.3334 35.0156C51.9542 35.4923 52.7097 35.8098 53.5448 35.9C55.9687 36.1618 58.1459 34.4091 58.4076 31.9852L61.2848 5.34428C61.3089 5.12552 61.2842 4.90146 61.21 4.678C61.2684 4.71654 61.3254 4.75614 61.381 4.79679C62.1857 5.38496 62.544 6.08087 62.4726 6.73012L59.5954 33.3711C59.3336 35.7949 57.1565 37.5477 54.7326 37.2859C53.241 37.1248 52.0036 36.2384 51.3334 35.0156Z"
            fill="#2B99F7" fill-opacity="0.4" />
        <path
            d="M59.5989 21.299C57.7781 22.1033 54.9994 21.8032 53.3924 20.6287C51.7853 19.4542 51.9586 17.85 53.7793 17.0457C55.6001 16.2414 58.3788 16.5415 59.9858 17.716C61.5929 18.8905 61.4196 20.4947 59.5989 21.299Z"
            fill="#018BFF" fill-opacity="0.7" />
        <path
            d="M59.5989 21.299C57.7781 22.1033 54.9994 21.8032 53.3924 20.6287C51.7853 19.4542 51.9586 17.85 53.7793 17.0457C55.6001 16.2414 58.3788 16.5415 59.9858 17.716C61.5929 18.8905 61.4196 20.4947 59.5989 21.299Z"
            fill="#6BBBFF" />
        <path
            d="M59.4372 20.9331C58.6062 21.3003 57.5303 21.424 56.4584 21.3082C55.3866 21.1925 54.3619 20.8419 53.6284 20.3058C52.8928 19.7681 52.6488 19.1975 52.6981 18.7413C52.7474 18.2851 53.1076 17.7797 53.941 17.4116C54.772 17.0445 55.8479 16.9207 56.9198 17.0365C57.9916 17.1522 59.0163 17.5029 59.7498 18.039C60.4854 18.5766 60.7293 19.1472 60.6801 19.6034C60.6308 20.0596 60.2706 20.565 59.4372 20.9331Z"
            stroke="#0056B3" stroke-opacity="0.5" stroke-width="0.8" />
        <path
            d="M53.9738 29.3035C53.8444 29.4077 53.655 29.3873 53.5508 29.2579C53.4466 29.1285 53.4671 28.9392 53.5965 28.835C53.7259 28.7309 53.9153 28.7513 54.0194 28.8807C54.1236 29.0101 54.1031 29.1994 53.9738 29.3035Z"
            fill="#F5F7FA" fill-opacity="0.5" stroke="#151E29" stroke-width="0.8" />
        <path
            d="M56.7754 27.0507C56.56 27.2241 56.2447 27.19 56.0713 26.9746C55.8978 26.7592 55.9319 26.444 56.1473 26.2706C56.3627 26.0971 56.678 26.1312 56.8515 26.3466C57.0249 26.562 56.9908 26.8772 56.7754 27.0507Z"
            fill="#F5F7FA" fill-opacity="0.5" stroke="#151E29" stroke-width="0.4" />
        <path
            d="M57.1007 32.3266C56.7702 32.5926 56.2866 32.5404 56.0205 32.2099C55.7545 31.8795 55.8067 31.3959 56.1372 31.1299C56.4677 30.8638 56.9513 30.9161 57.2174 31.2466C57.4834 31.577 57.4312 32.0606 57.1007 32.3266Z"
            fill="#F5F7FA" fill-opacity="0.5" stroke="#151E29" stroke-width="0.3" />
        <path d="M55.217 7.3664L52.5616 31.9518C52.4326 33.1463 52.8229 34.2771 53.5512 35.1194"
            stroke="white" stroke-opacity="0.3" stroke-width="0.8" stroke-linecap="round"
            stroke-linejoin="round" />
        <path
            d="M62.4764 6.44239C62.4848 6.54281 62.4831 6.64267 62.4715 6.74142M62.4715 6.74142C62.3958 7.38445 61.898 7.98076 60.9942 8.38001C59.1734 9.18432 56.3947 8.88421 54.7877 7.70968C54.0178 7.14703 53.6565 6.48578 53.6892 5.8611L53.6429 6.26678L53.6135 6.53968L53.4485 8.06709L50.8179 32.4232C50.5562 34.8471 52.3089 37.0243 54.7328 37.2861C57.1566 37.5479 59.3338 35.7951 59.5956 33.3713L62.3683 7.69873L62.3995 7.40984L62.4715 6.74142Z"
            stroke="#151E29" stroke-width="0.8" />
        <ellipse cx="3.60409" cy="3.60409" rx="3.60409" ry="3.60409"
            transform="matrix(0.807351 0.590072 -0.914723 0.404081 58.4714 2.67041)" fill="#A4D5FE" />
        <path
            d="M60.6712 8.14407C59.0526 8.85912 56.5822 8.59231 55.1536 7.54814C53.7249 6.50396 53.8789 5.07783 55.4976 4.36278C57.1163 3.64773 59.5866 3.91454 61.0153 4.95871C62.4439 6.00289 62.2899 7.42902 60.6712 8.14407Z"
            stroke="#F5F7FA" stroke-opacity="0.5" stroke-width="0.8" />
        <path fill-rule="evenodd" clip-rule="evenodd"
            d="M62.1399 7.5343C61.9671 7.16162 61.6552 6.7955 61.2012 6.46368C59.5941 5.28915 56.8154 4.98904 54.9947 5.79336C54.4802 6.0206 54.0973 6.31169 53.8489 6.6389C53.41 5.69243 53.8683 4.70359 55.1746 4.1265C56.9954 3.32218 59.7741 3.6223 61.3811 4.79683C62.5341 5.63952 62.7707 6.70337 62.1399 7.5343Z"
            fill="#F5F7FA" fill-opacity="0.5" />
        <path
            d="M60.9942 8.37984C59.1734 9.18416 56.3947 8.88405 54.7877 7.70952C53.1806 6.53499 53.3539 4.93082 55.1746 4.1265C56.9954 3.32218 59.7741 3.6223 61.3811 4.79683C62.9882 5.97136 62.8149 7.57553 60.9942 8.37984Z"
            stroke="#151E29" stroke-width="0.8" />
        <path
            d="M67 41.0625L64.2422 42.654L64.1347 83.097L64.1249 83.1027C64.1249 84.3895 63.668 85.2905 62.9287 85.719L65.6798 84.1313C66.423 83.7044 66.8826 82.8018 66.8826 81.5112L67 41.0625Z"
            fill="#7AD1FF" stroke="#151E29" stroke-linejoin="round" />
        <path
            d="M2.44313 3.79368L2.3202 3.86488H2.31042C2.35368 3.83947 2.39793 3.81573 2.44313 3.79368Z"
            fill="#A3E2FF" />
        <path
            d="M7.99215 2.55476C6.84798 1.90456 5.82117 1.84633 5.06817 2.27333L2.44313 3.79368C3.11494 3.46611 3.99813 3.51343 4.97248 4.00472L60.135 35.5989L62.8927 34.017L7.99215 2.55476Z"
            fill="#A3E2FF" />
        <path
            d="M2.44313 3.79368L2.3202 3.86488H2.31042C2.35368 3.83946 2.39793 3.81573 2.44313 3.79368ZM2.44313 3.79368L5.06817 2.27333C5.82117 1.84633 6.84798 1.90456 7.99215 2.55476L62.8927 34.017L60.135 35.5988L4.97248 4.00472C3.99813 3.51343 3.11494 3.46611 2.44313 3.79368Z"
            stroke="#151E29" stroke-linejoin="round" />
        <path
            d="M60.135 35.5989C62.4037 36.8993 64.252 40.063 64.2422 42.6541L64.1249 83.1028C64.1249 85.6939 62.2668 86.742 59.9883 85.4416L5.09749 53.9891C2.82871 52.6887 1 49.525 1 46.9338L1.11735 6.48518C1.11735 3.89406 2.9754 2.84597 5.24418 4.14638L60.135 35.5989Z"
            fill="#D4E7F8" stroke="#151E29" stroke-linejoin="round" />
        <path
            d="M60.1349 35.5989L62.8927 34.0073C65.1615 35.3077 67.0097 38.4714 67 41.0625L64.2422 42.6541C64.2422 40.063 62.4037 36.8993 60.1349 35.5989Z"
            fill="#A3E2FF" stroke="#151E29" stroke-linejoin="round" />
        <path fill-rule="evenodd" clip-rule="evenodd"
            d="M5.12166 45.0246C5.12167 45.0246 5.12168 45.0246 5.12168 45.0246C7.02017 46.1123 8.57919 48.7792 8.57938 50.9672L56.9831 78.6998C56.9831 78.6996 56.9831 78.6995 56.9831 78.6993C56.9829 76.5113 58.5416 75.6307 60.4401 76.7184L60.4377 45.0246C58.5392 43.9369 56.9802 41.2699 56.98 39.0819C56.98 39.0819 56.98 39.0819 56.98 39.0819L8.57642 11.3494C8.57637 13.5371 7.01769 14.4175 5.11932 13.3298C5.1193 13.3298 5.11928 13.3298 5.11926 13.3298L5.12166 45.0246Z"
            fill="#F5F7FA" />
        <path
            d="M8.27391 51.8136C7.86962 51.582 7.53758 51.0154 7.53754 50.5452C7.53741 48.8274 6.32139 46.7333 4.81621 45.8709C4.41192 45.6393 4.07988 45.0727 4.07984 44.6025L4.07744 12.9081C4.0774 12.4378 4.40944 12.2518 4.81369 12.4834C6.31888 13.3458 7.53468 12.645 7.53457 10.9273C7.53454 10.457 7.86653 10.2709 8.27081 10.5026L56.6744 38.235C56.8689 38.3465 57.0559 38.5421 57.1942 38.7798C57.3325 39.0176 57.4108 39.278 57.4108 39.5035C57.4109 41.2213 58.6269 43.3154 60.1321 44.1777C60.5364 44.4094 60.8684 44.9759 60.8685 45.4462L60.8709 77.1404C60.8709 77.6107 60.5389 77.7968 60.1347 77.5652C58.6295 76.7028 57.4137 77.4037 57.4138 79.1214C57.4139 79.5917 57.0819 79.7778 56.6776 79.5462L8.27391 51.8136ZM5.5501 14.5245L5.55239 44.6735C7.27662 46.0117 8.63842 48.3499 8.94525 50.5051L56.006 77.4683C56.3125 75.6645 57.6741 74.8866 59.3982 75.5241L59.3959 45.3751C57.6717 44.0369 56.3099 41.6987 56.0031 39.5435L8.9424 12.5804C8.63585 14.3842 7.27428 15.1621 5.5501 14.5245Z"
            fill="#A3E2FF" stroke="#0056B3" stroke-linejoin="round" />
        <mask id="path-26-outside-1_649_9278" maskUnits="userSpaceOnUse" x="8" y="26" width="31"
            height="32" fill="black">
            <rect fill="white" x="8" y="26" width="31" height="32" />
            <path fill-rule="evenodd" clip-rule="evenodd"
                d="M10.8385 28.0742C10.5701 27.9204 10.2279 28.0133 10.0742 28.2817C9.92044 28.5501 10.0133 28.8922 10.2817 29.046L29.0847 39.819C29.353 39.9728 29.6952 39.8799 29.849 39.6115C30.0027 39.3432 29.9098 39.001 29.6415 38.8472L10.8385 28.0742ZM10.8385 33.4607C10.5701 33.3069 10.2279 33.3998 10.0742 33.6682C9.92044 33.9365 10.0133 34.2787 10.2817 34.4325L36.9507 49.7123C37.219 49.866 37.5612 49.7731 37.715 49.5048C37.8687 49.2364 37.7758 48.8942 37.5075 48.7405L10.8385 33.4607ZM10.0742 44.04C10.2279 43.7716 10.5701 43.6787 10.8385 43.8325L30.4441 55.0654C30.7125 55.2192 30.8054 55.5614 30.6516 55.8297C30.4979 56.0981 30.1557 56.191 29.8874 56.0372L10.2817 44.8043C10.0133 44.6505 9.92044 44.3084 10.0742 44.04ZM10.8385 38.6589C10.5701 38.5052 10.2279 38.5981 10.0742 38.8664C9.92044 39.1348 10.0133 39.477 10.2817 39.6307L23.6162 47.2706L30.2834 51.0906C30.5518 51.2443 30.894 51.1514 31.0477 50.8831C31.2015 50.6147 31.1086 50.2725 30.8402 50.1188L24.173 46.2988L10.8385 38.6589Z" />
        </mask>
        <path fill-rule="evenodd" clip-rule="evenodd"
            d="M10.8385 28.0742C10.5701 27.9204 10.2279 28.0133 10.0742 28.2817C9.92044 28.5501 10.0133 28.8922 10.2817 29.046L29.0847 39.819C29.353 39.9728 29.6952 39.8799 29.849 39.6115C30.0027 39.3432 29.9098 39.001 29.6415 38.8472L10.8385 28.0742ZM10.8385 33.4607C10.5701 33.3069 10.2279 33.3998 10.0742 33.6682C9.92044 33.9365 10.0133 34.2787 10.2817 34.4325L36.9507 49.7123C37.219 49.866 37.5612 49.7731 37.715 49.5048C37.8687 49.2364 37.7758 48.8942 37.5075 48.7405L10.8385 33.4607ZM10.0742 44.04C10.2279 43.7716 10.5701 43.6787 10.8385 43.8325L30.4441 55.0654C30.7125 55.2192 30.8054 55.5614 30.6516 55.8297C30.4979 56.0981 30.1557 56.191 29.8874 56.0372L10.2817 44.8043C10.0133 44.6505 9.92044 44.3084 10.0742 44.04ZM10.8385 38.6589C10.5701 38.5052 10.2279 38.5981 10.0742 38.8664C9.92044 39.1348 10.0133 39.477 10.2817 39.6307L23.6162 47.2706L30.2834 51.0906C30.5518 51.2443 30.894 51.1514 31.0477 50.8831C31.2015 50.6147 31.1086 50.2725 30.8402 50.1188L24.173 46.2988L10.8385 38.6589Z"
            fill="#D4E7F8" />
        <path
            d="M10.0742 28.2817L10.9419 28.7788L10.9419 28.7788L10.0742 28.2817ZM10.8385 28.0742L10.3414 28.9419L10.3414 28.9419L10.8385 28.0742ZM10.2817 29.046L9.78457 29.9137L9.78457 29.9137L10.2817 29.046ZM29.0847 39.819L28.5876 40.6867H28.5876L29.0847 39.819ZM29.6415 38.8472L29.1443 39.7149H29.1443L29.6415 38.8472ZM10.8385 33.4607L10.3414 34.3283H10.3414L10.8385 33.4607ZM10.2817 34.4325L9.78457 35.3001H9.78457L10.2817 34.4325ZM36.9507 49.7123L36.4535 50.5799L36.4536 50.5799L36.9507 49.7123ZM37.715 49.5048L38.5826 50.0019L38.5826 50.0019L37.715 49.5048ZM37.5075 48.7405L37.0103 49.6081L37.0103 49.6081L37.5075 48.7405ZM10.8385 43.8325L11.3356 42.9648L11.3356 42.9648L10.8385 43.8325ZM10.0742 44.04L9.20652 43.5429H9.20652L10.0742 44.04ZM30.4441 55.0654L29.947 55.9331L29.947 55.9331L30.4441 55.0654ZM30.6516 55.8297L29.784 55.3326L29.784 55.3326L30.6516 55.8297ZM29.8874 56.0372L29.3902 56.9049L29.3902 56.9049L29.8874 56.0372ZM10.2817 44.8043L10.7788 43.9366H10.7788L10.2817 44.8043ZM10.0742 38.8664L9.20652 38.3693L9.20652 38.3693L10.0742 38.8664ZM10.8385 38.6589L11.3356 37.7912L11.3356 37.7912L10.8385 38.6589ZM10.2817 39.6307L9.78457 40.4984L9.78457 40.4984L10.2817 39.6307ZM23.6162 47.2706L23.1191 48.1383L23.6162 47.2706ZM30.2834 51.0906L29.7863 51.9582L29.7863 51.9582L30.2834 51.0906ZM31.0477 50.8831L30.1801 50.3859L30.18 50.3859L31.0477 50.8831ZM30.8402 50.1188L30.3431 50.9864L30.3431 50.9864L30.8402 50.1188ZM24.173 46.2988L23.6758 47.1665L24.173 46.2988ZM10.9419 28.7788C10.8211 28.9897 10.5522 29.0627 10.3414 28.9419L11.3356 27.2065C10.5881 26.7782 9.63483 27.037 9.20652 27.7846L10.9419 28.7788ZM10.7788 28.1783C10.9897 28.2991 11.0627 28.568 10.9419 28.7788L9.20652 27.7846C8.77821 28.5321 9.03701 29.4854 9.78457 29.9137L10.7788 28.1783ZM29.5818 38.9514L10.7788 28.1783L9.78457 29.9137L28.5876 40.6867L29.5818 38.9514ZM28.9813 39.1144C29.1021 38.9035 29.371 38.8305 29.5818 38.9514L28.5876 40.6867C29.3351 41.115 30.2883 40.8562 30.7167 40.1087L28.9813 39.1144ZM29.1443 39.7149C28.9335 39.5941 28.8605 39.3252 28.9813 39.1144L30.7167 40.1087C31.145 39.3611 30.8862 38.4079 30.1386 37.9796L29.1443 39.7149ZM10.3414 28.9419L29.1443 39.7149L30.1386 37.9796L11.3356 27.2065L10.3414 28.9419ZM10.9419 34.1653C10.8211 34.3762 10.5522 34.4492 10.3414 34.3283L11.3356 32.593C10.5881 32.1647 9.63483 32.4235 9.20652 33.171L10.9419 34.1653ZM10.7788 33.5648C10.9897 33.6856 11.0627 33.9545 10.9419 34.1653L9.20652 33.171C8.77821 33.9186 9.03701 34.8718 9.78457 35.3001L10.7788 33.5648ZM37.4478 48.8446L10.7788 33.5648L9.78457 35.3001L36.4535 50.5799L37.4478 48.8446ZM36.8473 49.0076C36.9681 48.7968 37.237 48.7238 37.4478 48.8446L36.4536 50.5799C37.2011 51.0083 38.1543 50.7495 38.5826 50.0019L36.8473 49.0076ZM37.0103 49.6081C36.7995 49.4873 36.7265 49.2185 36.8473 49.0076L38.5826 50.0019C39.011 49.2543 38.7521 48.3011 38.0046 47.8728L37.0103 49.6081ZM10.3414 34.3283L37.0103 49.6081L38.0046 47.8728L11.3356 32.593L10.3414 34.3283ZM11.3356 42.9648C10.5881 42.5365 9.63483 42.7953 9.20652 43.5429L10.9419 44.5371C10.8211 44.748 10.5522 44.821 10.3414 44.7002L11.3356 42.9648ZM30.9413 54.1977L11.3356 42.9648L10.3414 44.7002L29.947 55.9331L30.9413 54.1977ZM31.5193 56.3268C31.9476 55.5793 31.6888 54.626 30.9413 54.1977L29.947 55.9331C29.7362 55.8123 29.6632 55.5434 29.784 55.3326L31.5193 56.3268ZM29.3902 56.9049C30.1378 57.3332 31.091 57.0744 31.5193 56.3268L29.784 55.3326C29.9048 55.1217 30.1736 55.0487 30.3845 55.1695L29.3902 56.9049ZM9.78457 45.672L29.3902 56.9049L30.3845 55.1695L10.7788 43.9366L9.78457 45.672ZM9.20652 43.5429C8.77821 44.2904 9.03701 45.2437 9.78457 45.672L10.7788 43.9366C10.9897 44.0574 11.0627 44.3263 10.9419 44.5371L9.20652 43.5429ZM10.9419 39.3635C10.8211 39.5744 10.5522 39.6474 10.3414 39.5266L11.3356 37.7912C10.5881 37.3629 9.63483 37.6217 9.20652 38.3693L10.9419 39.3635ZM10.7788 38.763C10.9897 38.8838 11.0627 39.1527 10.9419 39.3635L9.20652 38.3693C8.77821 39.1168 9.03701 40.0701 9.78457 40.4984L10.7788 38.763ZM24.1133 46.4029L10.7788 38.763L9.78457 40.4984L23.1191 48.1383L24.1133 46.4029ZM30.7806 50.2229L24.1133 46.4029L23.1191 48.1383L29.7863 51.9582L30.7806 50.2229ZM30.18 50.3859C30.3009 50.1751 30.5697 50.1021 30.7806 50.2229L29.7863 51.9582C30.5339 52.3865 31.4871 52.1277 31.9154 51.3802L30.18 50.3859ZM30.3431 50.9864C30.1322 50.8656 30.0592 50.5968 30.1801 50.3859L31.9154 51.3802C32.3437 50.6326 32.0849 49.6794 31.3373 49.2511L30.3431 50.9864ZM23.6758 47.1665L30.3431 50.9864L31.3373 49.2511L24.6701 45.4311L23.6758 47.1665ZM10.3414 39.5266L23.6758 47.1665L24.6701 45.4311L11.3356 37.7912L10.3414 39.5266Z"
            fill="#3D8ACF" mask="url(#path-26-outside-1_649_9278)" />
        <path
            d="M42.256 48.9215C42.3118 48.713 42.5271 48.6932 42.737 48.8774L47.4599 53.0215C47.6698 53.2057 47.7947 53.524 47.739 53.7326L44.5899 65.5073C44.5101 65.8056 44.1301 65.695 43.9201 65.3124L42.2996 62.3596C42.196 62.1709 42.0363 62.0307 41.8903 62.0004L39.6066 61.5274C39.3107 61.4662 39.0272 60.9946 39.107 60.6963L42.256 48.9215Z"
            fill="#7AD1FF" stroke="#0056B3" />
        <path
            d="M52.7734 54.9474C52.7176 54.675 52.5023 54.4084 52.2924 54.3521L47.5695 53.0843C47.3596 53.0279 47.2347 53.2031 47.2904 53.4756L50.4395 68.8587C50.5192 69.2485 50.8993 69.5733 51.1092 69.4313L52.7298 68.3355C52.8334 68.2654 52.9931 68.3083 53.1391 68.4454L55.4228 70.5893C55.7187 70.8671 56.0022 70.7203 55.9224 70.3306L52.7734 54.9474Z"
            fill="#7AD1FF" stroke="#0056B3" />
        <path
            d="M55.2689 55.3969L55.6705 55.4378L55.2689 55.3969L55.4726 56.0877C55.7086 56.8881 55.3369 57.4182 54.7192 57.1622L54.1646 56.9323C53.3564 56.5973 52.7205 56.9647 52.6081 57.8316L52.5322 58.4174C52.4466 59.0776 51.8051 59.1375 51.2291 58.5391L50.698 57.9873C49.9446 57.2047 49.0806 56.976 48.5799 57.4268L48.2295 57.7423C47.8474 58.0864 47.1081 57.6628 46.726 56.8809L46.3756 56.1639C45.875 55.1394 45.011 54.378 44.2576 54.2973L43.7264 54.2405C43.1504 54.1788 42.509 53.3839 42.4234 52.6256L42.3474 51.9528C42.235 50.9571 41.5992 49.8611 40.7909 49.2699L40.2363 48.8643C39.6186 48.4125 39.2469 47.4564 39.4829 46.9265L39.6866 46.4691C39.9966 45.773 39.7627 44.6341 39.1147 43.6854L38.8493 43.9288L39.1147 43.6854L38.6856 43.0571C38.1915 42.3336 38.1915 41.474 38.6856 41.3167L39.1147 41.1802L38.8493 40.6326L39.1147 41.1802C39.7627 40.9739 39.9966 40.1032 39.6866 39.0517L39.4829 38.3609C39.2469 37.5606 39.6186 37.0305 40.2363 37.2865L40.7909 37.5164C41.5992 37.8514 42.235 37.484 42.3474 36.6171L42.4234 36.0313C42.509 35.3711 43.1504 35.3112 43.7264 35.9096L44.2576 36.4614C45.011 37.244 45.875 37.4726 46.3757 37.0218L46.726 36.7064C47.1081 36.3623 47.8474 36.7859 48.2295 37.5678L48.5712 37.4555L48.2295 37.5678L48.5799 38.2848C49.0806 39.3093 49.9446 40.0707 50.698 40.1513L51.2291 40.2082C51.8051 40.2699 52.4466 41.0648 52.5322 41.8231L52.6081 42.4959C52.7205 43.4916 53.3564 44.5876 54.1646 45.1788L54.7192 45.5844C55.3369 46.0362 55.7086 46.9922 55.4726 47.5222L55.2689 47.9796C54.9589 48.6757 55.1929 49.8146 55.8409 50.7633L56.2699 51.3916C56.7641 52.1151 56.7641 52.9747 56.2699 53.1319L55.8409 53.2685C55.1929 53.4747 54.9589 54.3455 55.2689 55.3969Z"
            fill="#FFDE63" stroke="#D9B54A" />
        <path
            d="M53.4113 50.8014C53.4113 52.7618 52.7219 54.007 51.75 54.5638C50.7772 55.1212 49.3439 55.0909 47.6315 54.1099C45.9221 53.1305 44.3466 51.43 43.1972 49.4545C42.0479 47.4789 41.352 45.2751 41.352 43.3174C41.352 41.3569 42.0414 40.1117 43.0133 39.5549C43.986 38.9976 45.4194 39.0278 47.1317 40.0089C48.8411 40.9883 50.4167 42.6888 51.566 44.6643C52.7154 46.6399 53.4113 48.8437 53.4113 50.8014Z"
            fill="#FFF4B5" stroke="#D9B54A" />
        <path
            d="M47.3704 44.2101C47.3708 44.2098 47.3711 44.2098 47.3716 44.2097C47.3727 44.2096 47.3762 44.2099 47.3817 44.213C47.3872 44.2162 47.3907 44.2199 47.3918 44.2213C47.3922 44.2218 47.3926 44.2223 47.393 44.2231C47.3934 44.2238 47.395 44.2267 47.3971 44.2327L47.9285 45.7302C48.0574 46.0937 48.2986 46.4332 48.5776 46.6438L49.7278 47.5124C49.7325 47.516 49.7346 47.5183 49.7351 47.5189L49.7364 47.5206C49.7373 47.5221 49.7398 47.5269 49.7416 47.5339C49.7433 47.541 49.7429 47.5452 49.7426 47.5465L49.7421 47.5478C49.7418 47.5482 49.7407 47.5499 49.7373 47.5518L48.9175 48.0227C48.7162 48.1383 48.6233 48.4135 48.6678 48.7623L48.849 50.1822C48.8497 50.188 48.8495 50.1905 48.8494 50.1911C48.8494 50.1914 48.8493 50.1916 48.8493 50.1918C48.8492 50.1921 48.8491 50.1923 48.849 50.1926C48.8485 50.1937 48.8465 50.1963 48.8421 50.1975C48.8376 50.1987 48.8339 50.1976 48.8326 50.197C48.8321 50.1967 48.8317 50.1965 48.8311 50.196C48.8305 50.1956 48.8282 50.1937 48.824 50.1889L47.7811 48.9834C47.53 48.6931 47.2334 48.5232 46.9822 48.5257L45.9394 48.5361C45.9351 48.5361 45.9328 48.5354 45.9323 48.5352C45.9317 48.5349 45.9313 48.5347 45.9308 48.5344C45.9295 48.5335 45.9258 48.5304 45.9213 48.5241C45.9168 48.5178 45.9149 48.5129 45.9144 48.5112C45.9142 48.5106 45.9141 48.5101 45.914 48.5093C45.9139 48.5086 45.9136 48.5058 45.9144 48.5008L46.0955 47.2885C46.14 46.9907 46.0472 46.6091 45.8458 46.2628L45.5738 46.4219L45.8458 46.2628L45.0261 44.8526C45.0227 44.8467 45.0215 44.8437 45.0213 44.843L45.0207 44.8411C45.0205 44.8395 45.0201 44.8349 45.0218 44.8298C45.0235 44.8247 45.026 44.8228 45.027 44.8224L45.0283 44.8221C45.0288 44.8222 45.0309 44.8223 45.0356 44.8241L46.1858 45.2735C46.4648 45.3825 46.7059 45.3194 46.8349 45.1037L47.3662 44.215L46.9803 43.7656L47.3662 44.215C47.3684 44.2114 47.37 44.2104 47.3704 44.2101Z"
            fill="#FFDE63" stroke="#D9B54A" />
        <path opacity="0.35"
            d="M24.1494 82.7068C19.4538 86.278 11.2367 87.3244 5.79597 85.044C1.65318 83.3076 0.31462 80.143 1.98471 77.1553C2.50795 76.2192 3.32652 75.3006 4.44669 74.4486C9.14225 70.8774 17.3593 69.8309 22.8001 72.1114C24.098 72.6554 25.1207 73.3396 25.8619 74.1146C28.2275 76.5884 27.7248 79.9875 24.1494 82.7068Z"
            fill="#006FD6" />
        <path
            d="M13.0936 45.9586C11.3728 45.2374 8.77389 45.5683 7.28877 46.6978C6.54507 47.2635 6.22155 47.9221 6.30013 48.5293L7.82612 60.5124C7.97158 61.6546 7.76665 62.8141 7.23847 63.8372L1.66389 74.6361C-0.00620198 77.6238 1.33235 80.7884 5.47515 82.5248C10.9159 84.8053 19.133 83.7589 23.8285 80.1876C27.4039 77.4683 27.9066 74.0692 25.541 71.5955L17.4378 62.5384C16.67 61.6803 16.181 60.6092 16.0356 59.4669L14.5096 47.4839C14.4335 46.8764 13.9553 46.3198 13.0936 45.9586Z"
            fill="#D4E7F8" />
        <path fill-rule="evenodd" clip-rule="evenodd"
            d="M6.45306 82.8896C10.7658 82.932 15.3288 81.6768 18.3925 79.3466C21.9679 76.6273 22.4706 73.2282 20.105 70.7545L14.2512 62.9535C13.6304 62.1262 13.2352 61.1518 13.1046 60.1257L11.3507 46.3529L9.07354 46.6429C9.04245 46.3947 8.94427 46.155 8.78027 45.9337C10.1811 45.4651 11.8622 45.4424 13.0936 45.9586C13.9553 46.3198 14.4335 46.8763 14.5096 47.4838L16.0356 59.4669C16.1811 60.6091 16.67 61.6802 17.4378 62.5383L25.5411 71.5954C27.9066 74.0692 27.4039 77.4683 23.8286 80.1876C19.4065 83.5508 11.8614 84.6747 6.45306 82.8896Z"
            fill="url(#paint1_linear_649_9278)" />
        <path
            d="M5.47517 82.5246C10.9159 84.8051 19.133 83.7587 23.8286 80.1874C27.404 77.4681 27.9067 74.069 25.5411 71.5953L17.4373 62.5376C16.6699 61.6798 16.181 60.6093 16.0353 59.4676L15.8757 58.2172L15.7242 57.027C15.6648 56.4036 15.1848 55.8301 14.3037 55.4608C12.5829 54.7396 9.98397 55.0705 8.49885 56.2C7.73847 56.7784 7.41749 57.4539 7.51626 58.0723L7.66782 59.2624L7.82672 60.513C7.97181 61.6547 7.76682 62.8136 7.23888 63.8363L1.66391 74.6359C-0.00617893 77.6236 1.33238 80.7882 5.47517 82.5246Z"
            fill="#018BFF" fill-opacity="0.7" />
        <path
            d="M23.8286 80.1875C19.133 83.7587 10.9159 84.8051 5.47516 82.5247C1.33236 80.7883 -0.00619631 77.6237 1.66389 74.636C2.18714 73.7 3.0057 72.7813 4.12588 71.9293C8.82143 68.3581 17.0385 67.3117 22.4793 69.5921C23.7772 70.1361 24.7999 70.8203 25.5411 71.5954C27.9066 74.0691 27.4039 77.4682 23.8286 80.1875Z"
            fill="white" fill-opacity="0.2" />
        <path
            d="M23.5864 79.8691C21.3077 81.6022 18.1509 82.7372 14.8808 83.1537C11.6106 83.5701 8.27016 83.2625 5.62978 82.1558C3.6193 81.3131 2.3417 80.1458 1.75227 78.8807C1.16852 77.6277 1.23381 76.2252 2.01305 74.8312C2.50432 73.9523 3.28234 73.0734 4.36802 72.2477C6.64677 70.5146 9.80354 69.3796 13.0737 68.9631C16.3438 68.5467 19.6843 68.8543 22.3246 69.961C23.5826 70.4883 24.5561 71.1441 25.252 71.8718C26.3557 73.026 26.7704 74.3674 26.5193 75.7267C26.2658 77.0992 25.3215 78.5494 23.5864 79.8691Z"
            stroke="#0056B3" stroke-opacity="0.5" stroke-width="0.8" />
        <path
            d="M11.3771 66.3929C11.1973 66.6251 10.8633 66.6677 10.6311 66.4879C10.3989 66.3082 10.3563 65.9742 10.5361 65.742C10.7159 65.5098 11.0499 65.4673 11.2821 65.647C11.5143 65.8268 11.5569 66.1607 11.3771 66.3929Z"
            fill="#9ACFFB" stroke="#151E29" stroke-width="0.4" />
        <path
            d="M15.1437 68.7669C14.9639 68.9992 14.6299 69.0417 14.3977 68.8619C14.1654 68.6822 14.1229 68.3483 14.3027 68.1161C14.4824 67.8838 14.8165 67.8413 15.0487 68.0211C15.2809 68.2008 15.3234 68.5347 15.1437 68.7669Z"
            fill="#9ACFFB" stroke="#151E29" stroke-width="0.4" />
        <path
            d="M13.1498 62.6237C13.1009 62.6869 13.0099 62.6985 12.9466 62.6496C12.8834 62.6006 12.8718 62.5097 12.9207 62.4465C12.9697 62.3832 13.0607 62.3716 13.124 62.4206C13.1872 62.4695 13.1988 62.5605 13.1498 62.6237Z"
            fill="#9ACFFB" stroke="#151E29" stroke-width="0.8" />
        <path
            d="M11.1911 72.0134C10.8813 72.4136 10.3057 72.4869 9.90547 72.1771C9.50526 71.8673 9.43197 71.2918 9.74177 70.8916C10.0516 70.4914 10.6272 70.4181 11.0274 70.7279C11.4276 71.0377 11.5009 71.6132 11.1911 72.0134Z"
            fill="#9ACFFB" stroke="#151E29" stroke-width="0.5" />
        <path
            d="M17.3944 75.4871C16.9029 76.1219 15.9898 76.2382 15.3549 75.7468C14.72 75.2554 14.6037 74.3424 15.0952 73.7075C15.5866 73.0727 16.4998 72.9564 17.1347 73.4478C17.7696 73.9392 17.8858 74.8522 17.3944 75.4871Z"
            fill="#9ACFFB" stroke="#151E29" stroke-width="0.5" />
        <path
            d="M6.69692 48.4788L6.69682 48.478C6.64311 48.063 6.85423 47.5309 7.53091 47.0162C8.20444 46.504 9.15406 46.1582 10.1533 46.031C11.1526 45.9037 12.1586 46.0004 12.939 46.3275C13.723 46.6561 14.0606 47.1183 14.1127 47.5336L14.1128 47.5344L15.6388 59.5175C15.7945 60.7401 16.3179 61.8866 17.1397 62.8051L25.2429 71.8622L25.2428 71.8623L25.252 71.8719C26.3557 73.0262 26.7704 74.3675 26.5193 75.7268C26.2658 77.0993 25.3215 78.5496 23.5864 79.8692C21.3077 81.6024 18.1509 82.7374 14.8808 83.1538C11.6106 83.5702 8.27016 83.2626 5.62977 82.1559C3.61929 81.3133 2.3417 80.1459 1.75227 78.8808C1.16851 77.6278 1.2338 76.2253 2.01304 74.8313L2.01323 74.8314L2.01932 74.8196L7.59391 64.0207C8.15926 62.9255 8.37861 61.6845 8.22291 60.4618L6.69692 48.4788ZM16.0356 59.4669L14.5096 47.4839C14.4335 46.8764 13.9553 46.3198 13.0936 45.9586C11.3728 45.2374 8.77389 45.5683 7.28877 46.6978C6.54507 47.2635 6.22155 47.9221 6.30013 48.5293L7.82612 60.5124C7.97158 61.6546 7.76665 62.8141 7.23847 63.8372L1.66389 74.6361C-0.00620198 77.6238 1.33235 80.7884 5.47515 82.5248C10.9159 84.8053 19.133 83.7589 23.8285 80.1876C27.4039 77.4683 27.9066 74.0692 25.541 71.5955L17.4378 62.5384C16.67 61.6803 16.181 60.6092 16.0356 59.4669Z"
            stroke="#F5F7FA" stroke-opacity="0.5" stroke-width="0.8" />
        <path fill-rule="evenodd" clip-rule="evenodd"
            d="M12.7666 45.8374C11.0574 45.2811 8.68256 45.6378 7.28877 46.6978C6.54507 47.2635 6.22155 47.9221 6.30013 48.5293L7.82612 60.5124C7.97158 61.6546 7.76665 62.8141 7.23847 63.8372L1.66389 74.6361C-0.00620192 77.6238 1.33235 80.7884 5.47515 82.5248C7.2269 83.2591 9.26646 83.6484 11.3836 83.7197C10.1473 83.5224 8.97049 83.2027 7.90093 82.7544C3.75813 81.018 2.41958 77.8534 4.08967 74.8657L9.66425 64.0668C10.1924 63.0436 10.3974 61.8842 10.2519 60.7419L8.72591 48.7589C8.64733 48.1517 8.97085 47.493 9.71455 46.9274C10.5131 46.32 11.6337 45.9436 12.7666 45.8374Z"
            fill="#F5F7FA" fill-opacity="0.5" />
        <ellipse cx="3.37842" cy="3.37842" rx="3.37842" ry="3.37842"
            transform="matrix(0.922265 0.386558 -0.795948 0.605365 9.97781 44.6528)" fill="#D4E7F8" />
        <path fill-rule="evenodd" clip-rule="evenodd"
            d="M14.3457 48.3655C14.1074 48.0899 13.7613 47.8471 13.31 47.6579C11.5892 46.9367 8.99025 47.2676 7.50513 48.3972C7.1156 48.6934 6.84139 49.0152 6.67984 49.3417C6.00981 48.5665 6.19319 47.5314 7.28877 46.6982C8.77389 45.5687 11.3728 45.2377 13.0936 45.9589C14.3631 46.491 14.8 47.4471 14.3457 48.3655Z"
            fill="#F5F7FA" fill-opacity="0.5" />
        <path
            d="M13.1515 49.1553C11.8422 50.1511 9.55097 50.4429 8.0339 49.807C6.51683 49.1711 6.34839 47.8484 7.65767 46.8526C8.96696 45.8568 11.2582 45.5651 12.7752 46.2009C14.2923 46.8368 14.4607 48.1595 13.1515 49.1553Z"
            stroke="white" stroke-opacity="0.5" stroke-width="0.8" />
        <path
            d="M13.2782 48.9917C12.6047 49.504 11.6551 49.8497 10.6558 49.9769C9.65652 50.1042 8.65057 50.0075 7.87015 49.6804C7.08734 49.3523 6.74953 48.891 6.69672 48.4763C6.64392 48.0616 6.85533 47.5304 7.53092 47.0165C8.20445 46.5043 9.15406 46.1586 10.1533 46.0313C11.1526 45.9041 12.1586 46.0008 12.939 46.3279C13.7218 46.656 14.0596 47.1173 14.1124 47.5319C14.1652 47.9466 13.9538 48.4779 13.2782 48.9917Z"
            stroke="#151E29" stroke-width="0.8" />
        <path
            d="M14.7304 58.812C13.2453 59.9415 10.6464 60.2725 8.92558 59.5513C7.20477 58.83 7.01371 57.3296 8.49883 56.2001C9.98395 55.0706 12.5829 54.7396 14.3037 55.4609C16.0245 56.1822 16.2155 57.6825 14.7304 58.812Z"
            fill="#F5F7FA" fill-opacity="0.5" />
        <path
            d="M14.4883 58.4937C13.8148 59.0059 12.8651 59.3516 11.8659 59.4789C10.8666 59.6061 9.86062 59.5094 9.0802 59.1823C8.29739 58.8542 7.95959 58.3929 7.90678 57.9783C7.85397 57.5636 8.06538 57.0323 8.74097 56.5185C9.4145 56.0062 10.3641 55.6605 11.3634 55.5333C12.3627 55.406 13.3686 55.5027 14.149 55.8298C14.9319 56.1579 15.2697 56.6192 15.3225 57.0339C15.3753 57.4486 15.1639 57.9798 14.4883 58.4937Z"
            stroke="#0056B3" stroke-opacity="0.5" stroke-width="0.8" />
        <path
            d="M6.69692 48.4788L6.69682 48.478C6.64311 48.063 6.85423 47.5309 7.53091 47.0162C8.20444 46.504 9.15406 46.1582 10.1533 46.031C11.1526 45.9037 12.1586 46.0004 12.939 46.3275C13.723 46.6561 14.0606 47.1183 14.1127 47.5336L14.1128 47.5344L15.6388 59.5175C15.7945 60.7401 16.3179 61.8866 17.1397 62.8051L25.2429 71.8622L25.2428 71.8623L25.252 71.8719C26.3557 73.0262 26.7704 74.3675 26.5193 75.7268C26.2658 77.0993 25.3215 78.5496 23.5864 79.8692C21.3077 81.6024 18.1509 82.7374 14.8808 83.1538C11.6106 83.5702 8.27016 83.2626 5.62977 82.1559C3.61929 81.3133 2.3417 80.1459 1.75227 78.8808C1.16851 77.6278 1.2338 76.2253 2.01304 74.8313L2.01323 74.8314L2.01932 74.8196L7.59391 64.0207C8.15926 62.9255 8.37861 61.6845 8.22291 60.4618L6.69692 48.4788ZM16.0356 59.4669L14.5096 47.4839C14.4335 46.8764 13.9553 46.3198 13.0936 45.9586C11.3728 45.2374 8.77389 45.5683 7.28877 46.6978C6.54507 47.2635 6.22155 47.9221 6.30013 48.5293L7.82612 60.5124C7.97158 61.6546 7.76665 62.8141 7.23847 63.8372L1.66389 74.6361C-0.00620198 77.6238 1.33235 80.7884 5.47515 82.5248C10.9159 84.8053 19.133 83.7589 23.8285 80.1876C27.4039 77.4683 27.9066 74.0692 25.541 71.5955L17.4378 62.5384C16.67 61.6803 16.181 60.6092 16.0356 59.4669Z"
            stroke="#151E29" stroke-width="0.8" />
        <path
            d="M12.8915 19.8966C11.7523 19.2439 10.9879 19.5683 10.988 21.0472L10.9881 22.1016C11.1038 22.1025 11.2307 22.1406 11.3596 22.213C11.4887 22.287 11.6161 22.3938 11.7321 22.5254L11.7321 21.4685C11.732 20.5094 12.1928 20.2809 12.8948 20.6831C13.5969 21.0853 14.0513 21.8382 14.0513 22.7973L14.0515 25.1017L14.7934 25.5268L14.7932 23.2224C14.7953 21.736 14.0307 20.5493 12.8915 19.8966Z"
            fill="#151E29" />
        <path
            d="M15.199 23.5447C15.1989 22.1995 16.0602 21.7067 17.2737 22.4019C18.4872 23.0972 19.3336 24.5721 19.3337 25.9137L19.3337 26.2268L15.9786 24.3045C16.0863 25.1558 16.6032 25.8912 17.2708 26.2737C17.7704 26.56 18.1214 26.5816 18.3475 26.3263L19.1658 26.7951C18.8697 27.4497 18.1677 27.5772 17.2708 27.0633C16.0573 26.368 15.1991 24.89 15.199 23.5447ZM18.553 25.0184C18.4044 24.2241 17.8983 23.5493 17.2738 23.1915C16.6493 22.8337 16.1508 22.9429 16.0022 23.557L18.553 25.0184Z"
            fill="#151E29" />
        <path
            d="M19.7301 26.1414C19.7299 24.7974 20.5913 24.3046 21.8047 24.9998C23.0182 25.6951 23.8797 27.1787 23.8798 28.519C23.8799 29.8593 23.0186 30.3571 21.8051 29.6618C20.5916 28.9666 19.7302 27.4867 19.7301 26.1414ZM23.1315 28.0902C23.1314 27.1942 22.6005 26.2441 21.8048 25.7882C21.0091 25.3323 20.4794 25.6748 20.4795 26.5708C20.4795 27.4668 21.0093 28.4163 21.804 28.8716C22.5986 29.3269 23.1315 28.9875 23.1315 28.0902Z"
            fill="#151E29" />
        <path
            d="M28.1179 34.043L28.2041 34.0923C28.68 34.365 28.8587 34.2199 28.8587 33.6011L28.8583 29.1879L29.6002 29.6129L29.6005 33.9692C29.6006 35.0632 29.2259 35.4129 28.2741 34.8676L28.118 34.7781L28.1179 34.043Z"
            fill="#151E29" />
        <path
            d="M27.7476 33.3755L27.0057 32.9504L27.0056 31.8997L25.1267 30.8232C24.9552 30.7318 24.7853 30.5867 24.6359 30.4039C24.4866 30.2211 24.3635 30.0078 24.2803 29.7876C24.2128 29.5867 24.1865 29.3908 24.2044 29.2224C24.2223 29.054 24.2836 28.92 24.3815 28.8357L26.0675 27.2585C26.184 27.1445 26.3471 27.104 26.5337 27.1428C26.7202 27.1815 26.9207 27.2975 27.1067 27.4744C27.2927 27.6512 27.4547 27.8799 27.5696 28.1278C27.6846 28.3758 27.7467 28.6305 27.7472 28.8558L27.7474 31.5686L28.3041 31.8875L28.3041 32.6437L27.7475 32.3248L27.7476 33.3755ZM24.9985 29.6545C24.9763 29.6781 24.9643 29.7144 24.964 29.7585C24.9639 29.7866 24.9686 29.8172 24.9779 29.8486C24.9872 29.88 25.001 29.9115 25.0183 29.9414C25.0356 29.9712 25.0562 29.9988 25.0789 30.0225C25.1015 30.0462 25.1258 30.0655 25.1503 30.0794L27.0055 31.1423L27.0053 28.4097C27.0067 28.3645 26.9949 28.3125 26.9718 28.2617C26.9486 28.2109 26.9154 28.164 26.8772 28.1284C26.8551 28.1085 26.8323 28.0917 26.8094 28.0784C26.7804 28.0617 26.7518 28.0536 26.7262 28.0547C26.7007 28.0559 26.6789 28.0662 26.6629 28.0848L24.9985 29.6545Z"
            fill="#151E29" />
        <path
            d="M29.2329 27.5921C29.1072 27.5199 28.9842 27.4921 28.8796 27.5122C28.775 27.5324 28.6935 27.5996 28.6452 27.7053C28.597 27.8111 28.5843 27.9506 28.6087 28.1063C28.6331 28.262 28.6935 28.4269 28.7823 28.58C28.8711 28.7331 28.9843 28.8676 29.1076 28.9665C29.2308 29.0654 29.3586 29.1242 29.4748 29.1355C29.5909 29.1469 29.6902 29.1102 29.76 29.0301C29.8298 28.95 29.8671 28.8301 29.8671 28.6857C29.8671 28.4922 29.8003 28.2684 29.6814 28.0634C29.5625 27.8584 29.4012 27.6889 29.2329 27.5921Z"
            fill="#018BFF" />
        <path
            d="M11.3272 22.4656C11.1894 22.3868 11.0555 22.3623 10.946 22.3957L10.2483 21.4477C10.2638 21.3925 10.2717 21.3309 10.2719 21.2645C10.2734 21.1209 10.2375 20.9586 10.1688 20.7982C10.1 20.6379 10.0016 20.4867 9.8859 20.3639C9.77021 20.2411 9.64252 20.1522 9.51904 20.1085C9.39556 20.0647 9.28186 20.0682 9.19237 20.1184C9.10289 20.1686 9.04166 20.2632 9.01646 20.3904C8.99126 20.5175 9.00323 20.6713 9.05085 20.8323C9.09846 20.9933 9.17958 21.1542 9.28389 21.2946C9.38821 21.435 9.51101 21.5485 9.63672 21.6208C9.77454 21.6999 9.90853 21.7244 10.0179 21.6907L10.7135 22.6412C10.6819 22.7522 10.6819 22.8888 10.7135 23.036L10.0158 23.1845C9.90706 23.0262 9.77389 22.8978 9.63681 22.8188C9.51107 22.7465 9.3881 22.7187 9.28348 22.7389C9.17885 22.7591 9.09726 22.8264 9.04906 22.9322C9.00085 23.0381 8.98819 23.1777 9.01268 23.3335C9.03717 23.4893 9.09771 23.6542 9.18662 23.8073C9.27554 23.9604 9.38884 24.0949 9.51217 24.1937C9.63551 24.2925 9.76333 24.3512 9.87945 24.3623C9.99557 24.3734 10.0948 24.3365 10.1645 24.2561C10.2342 24.1758 10.2713 24.0557 10.2711 23.9111C10.271 23.8454 10.2634 23.7757 10.2484 23.7038L10.9461 23.5553C11.0556 23.7142 11.1895 23.8431 11.3273 23.9222C11.4875 24.0009 11.6375 24.0044 11.7469 23.9319C11.8564 23.8595 11.9173 23.7166 11.9172 23.532C11.9172 23.3473 11.8563 23.1346 11.7469 22.9368C11.6374 22.7389 11.4874 22.5706 11.3272 22.4656Z"
            fill="#018BFF" />
    </g>
    <defs>
        <linearGradient id="paint0_linear_649_9278" x1="54.1293" y1="22.3185" x2="52.5383"
            y2="37.0489" gradientUnits="userSpaceOnUse">
            <stop stop-color="white" />
            <stop offset="1" stop-color="white" stop-opacity="0" />
        </linearGradient>
        <linearGradient id="paint1_linear_649_9278" x1="16.6862" y1="78.5073" x2="14.2327"
            y2="59.2413" gradientUnits="userSpaceOnUse">
            <stop stop-color="#2B99F7" />
            <stop offset="1" stop-color="#2B99F7" stop-opacity="0" />
        </linearGradient>
        <clipPath id="clip0_649_9278">
            <rect width="68" height="88" fill="white" />
        </clipPath>
    </defs>
</svg>