<svg width="166" height="137" viewBox="0 0 166 137" fill="none" xmlns="http://www.w3.org/2000/svg">
  <g clip-path="url(#clip0_1171_3743)">
    <path
      d="M44.5944 58.5775V14.5344L82.8613 14.5345H82.8614L121.628 14.5395H121.628L160.395 14.5345H199.037L237.438 36.7363V80.9854L198.912 103.259L160.395 125.528L121.879 103.26L83.1116 80.8463L44.5944 58.5775Z"
      stroke="#51A6B1" />
    <path
      d="M137.129 52.8221L137.13 56.7995C137.124 59.0672 135.623 61.3311 132.626 63.0612C126.589 66.545 116.779 66.544 110.705 63.0612C107.649 61.3085 106.123 59.0083 106.129 56.711L106.128 52.7346C106.122 55.0319 107.647 57.3321 110.703 59.0848C116.777 62.5676 126.59 62.5676 132.624 59.0848C135.621 57.3547 137.118 55.0899 137.129 52.8221Z"
      fill="#51A6B1" stroke="#51A6B1" />
    <path
      d="M132.553 46.4718C138.626 49.9546 138.657 55.602 132.624 59.0847C126.59 62.5675 116.776 62.5675 110.703 59.0847C104.63 55.602 104.598 49.9556 110.632 46.4718C116.666 42.9881 126.479 42.989 132.553 46.4718Z"
      fill="#C3F8FB" stroke="#51A6B1" />
    <path
      d="M98.195 32.7447L98.196 36.7221C98.1901 38.9898 96.6898 41.2537 93.6924 42.9838C87.6558 46.4676 77.8449 46.4666 71.7718 42.9838C68.7159 41.2311 67.1889 38.9309 67.1959 36.6336L67.1948 32.6572C67.1879 34.9545 68.7139 37.2547 71.7698 39.0074C77.8429 42.4902 87.6568 42.4902 93.6903 39.0074C96.6878 37.2773 98.1841 35.0125 98.195 32.7447Z"
      fill="#F5F6F6" stroke="#1A1B1D" />
    <path
      d="M93.6189 26.3944C99.6921 29.8772 99.7237 35.5246 93.6902 39.0073C87.6566 42.4901 77.8427 42.4901 71.7696 39.0073C65.6964 35.5246 65.6648 29.8782 71.6983 26.3944C77.7319 22.9107 87.5458 22.9117 93.6189 26.3944Z"
      fill="white" stroke="#1A1B1D" />
    <path
      d="M127.033 34.6467L127.033 36.0332C127.031 36.8238 126.508 37.613 125.463 38.2161C123.359 39.4305 119.939 39.4302 117.822 38.2161C116.756 37.6051 116.224 36.8032 116.226 36.0024L116.226 34.6162C116.224 35.417 116.756 36.2189 117.821 36.8299C119.938 38.044 123.359 38.044 125.462 36.8299C126.507 36.2268 127.029 35.4373 127.033 34.6467Z"
      fill="#F5F6F6" stroke="#1A1B1D" />
    <path
      d="M125.437 32.4329C127.554 33.647 127.566 35.6157 125.462 36.8298C123.359 38.0439 119.938 38.0439 117.821 36.8298C115.704 35.6157 115.693 33.6474 117.796 32.4329C119.899 31.2185 123.32 31.2188 125.437 32.4329Z"
      fill="white" stroke="#1A1B1D" />
    <path
      d="M62.9387 54.6403L62.94 59.5077C62.9327 62.283 61.0967 65.0535 57.4284 67.1708C50.041 71.4342 38.0345 71.433 30.6022 67.1708C26.8625 65.0258 24.9938 62.2108 25.0023 59.3995L25.001 54.5332C24.9925 57.3446 26.86 60.1596 30.5997 62.3045C38.032 66.5667 50.0421 66.5667 57.426 62.3045C61.0943 60.1873 62.9254 57.4156 62.9387 54.6403Z"
      fill="#5B992B" stroke="#4D8622" />
    <path
      d="M57.3388 46.869C64.7711 51.1312 64.8098 58.0423 57.426 62.3045C50.0421 66.5667 38.032 66.5667 30.5997 62.3045C23.1675 58.0423 23.1287 51.1324 30.5126 46.869C37.8964 42.6056 49.9065 42.6068 57.3388 46.869Z"
      fill="#BCF194" stroke="#4D8622" />
    <path
      d="M170.515 78.2863L170.516 80.8135C170.512 82.2545 169.559 83.6929 167.654 84.7922C163.819 87.0058 157.585 87.0052 153.726 84.7922C151.784 83.6786 150.814 82.217 150.819 80.7573L150.818 78.2307C150.813 79.6904 151.783 81.152 153.725 82.2656C157.584 84.4786 163.819 84.4786 167.653 82.2656C169.558 81.1663 170.508 79.7273 170.515 78.2863Z"
      fill="#FFB422" stroke="#DA9105" />
    <path
      d="M167.608 74.2515C171.467 76.4645 171.487 80.0528 167.653 82.2657C163.819 84.4787 157.584 84.4787 153.725 82.2657C149.866 80.0528 149.846 76.4651 153.68 74.2515C157.513 72.0379 163.749 72.0385 167.608 74.2515Z"
      fill="#FFCF72" stroke="#DA9105" />
    <path
      d="M170.515 34.4736L170.516 37.0008C170.512 38.4417 169.559 39.8802 167.654 40.9795C163.819 43.193 157.585 43.1924 153.726 40.9795C151.784 39.8658 150.814 38.4042 150.819 36.9446L150.818 34.418C150.813 35.8777 151.783 37.3392 153.725 38.4529C157.584 40.6658 163.819 40.6658 167.653 38.4529C169.558 37.3536 170.508 35.9145 170.515 34.4736Z"
      fill="#5B992B" stroke="#4D8622" />
    <path
      d="M167.608 30.4388C171.467 32.6517 171.487 36.24 167.653 38.453C163.819 40.666 157.584 40.666 153.725 38.453C149.866 36.24 149.846 32.6523 153.68 30.4388C157.513 28.2252 163.749 28.2258 167.608 30.4388Z"
      fill="#BCF194" stroke="#4D8622" />
    <path
      d="M131.476 13.6948L131.477 16.222C131.473 17.6629 130.52 19.1014 128.615 20.2007C124.78 22.4142 118.546 22.4136 114.687 20.2007C112.745 19.087 111.775 17.6254 111.779 16.1657L111.779 13.6392C111.774 15.0988 112.744 16.5604 114.686 17.6741C118.545 19.887 124.78 19.887 128.614 17.6741C130.519 16.5748 131.469 15.1357 131.476 13.6948Z"
      fill="#FFB422" stroke="#DA9105" />
    <path
      d="M128.569 9.65995C132.428 11.8729 132.448 15.4612 128.614 17.6742C124.78 19.8871 118.545 19.8871 114.686 17.6742C110.827 15.4612 110.807 11.8735 114.64 9.65995C118.474 7.44637 124.71 7.447 128.569 9.65995Z"
      fill="#FFCF72" stroke="#DA9105" />
    <path
      d="M53.8181 13.6948L53.8188 16.222C53.815 17.6629 52.8617 19.1014 50.9571 20.2007C47.1215 22.4142 40.8877 22.4136 37.0288 20.2007C35.0871 19.087 34.1169 17.6254 34.1213 16.1657L34.1206 13.6392C34.1162 15.0988 35.0858 16.5604 37.0275 17.6741C40.8864 19.887 47.1221 19.887 50.9559 17.6741C52.8605 16.5748 53.8112 15.1357 53.8181 13.6948Z"
      fill="#FFB422" stroke="#DA9105" />
    <path
      d="M50.9106 9.65995C54.7695 11.8729 54.7896 15.4612 50.9559 17.6742C47.1221 19.8871 40.8864 19.8871 37.0275 17.6742C33.1687 15.4612 33.1485 11.8735 36.9823 9.65995C40.816 7.44637 47.0517 7.447 50.9106 9.65995Z"
      fill="#FFCF72" stroke="#DA9105" />
    <path
      d="M92.5437 80.1601L92.5443 82.6873C92.5406 84.1282 91.5873 85.5667 89.6827 86.666C85.8471 88.8796 79.6133 88.879 75.7544 86.666C73.8127 85.5523 72.8425 84.0908 72.8469 82.6311L72.8462 80.1045C72.8418 81.5642 73.8114 83.0258 75.7531 84.1394C79.612 86.3524 85.8477 86.3524 89.6814 84.1394C91.586 83.0401 92.5368 81.601 92.5437 80.1601Z"
      fill="#FFB422" stroke="#DA9105" />
    <path
      d="M89.6362 76.1253C93.4951 78.3382 93.5152 81.9266 89.6815 84.1395C85.8477 86.3525 79.612 86.3525 75.7531 84.1395C71.8942 81.9266 71.8741 78.3389 75.7079 76.1253C79.5416 73.9117 85.7773 73.9123 89.6362 76.1253Z"
      fill="#FFCF72" stroke="#DA9105" />
    <path
      d="M137.127 101.736L137.128 105.713C137.122 107.98 135.622 110.244 132.625 111.974C126.589 115.457 116.779 115.456 110.707 111.974C107.651 110.221 106.124 107.921 106.131 105.624L106.13 101.648C106.123 103.945 107.649 106.245 110.705 107.998C116.777 111.48 126.59 111.48 132.623 107.998C135.62 106.268 137.116 104.003 137.127 101.736Z"
      fill="#F5F6F6" stroke="#1A1B1D" />
    <path
      d="M132.552 95.3864C138.624 98.8688 138.656 104.516 132.623 107.998C126.59 111.48 116.777 111.48 110.705 107.998C104.632 104.516 104.6 98.8698 110.633 95.3864C116.666 91.903 126.479 91.9039 132.552 95.3864Z"
      fill="white" stroke="#1A1B1D" />
    <path
      d="M166.924 102.895L166.924 104.501C166.922 105.417 166.316 106.331 165.106 107.029C162.669 108.436 158.708 108.435 156.256 107.029C155.022 106.321 154.406 105.393 154.409 104.465L154.408 102.86C154.405 103.787 155.021 104.716 156.255 105.424C158.707 106.83 162.669 106.83 165.105 105.424C166.315 104.725 166.92 103.811 166.924 102.895Z"
      fill="#51A6B1" stroke="#51A6B1" />
    <path
      d="M165.076 100.331C167.528 101.737 167.541 104.017 165.105 105.424C162.669 106.83 158.707 106.83 156.255 105.424C153.803 104.017 153.79 101.738 156.226 100.331C158.662 98.9248 162.624 98.9252 165.076 100.331Z"
      fill="#C3F8FB" stroke="#51A6B1" />
    <path
      d="M168.33 124.35L168.33 126.316C168.327 127.438 167.586 128.557 166.103 129.412C163.119 131.135 158.268 131.134 155.265 129.412C153.754 128.546 152.999 127.408 153.002 126.272L153.002 124.306C152.999 125.442 153.753 126.58 155.264 127.446C158.267 129.168 163.119 129.168 166.103 127.446C167.585 126.591 168.324 125.471 168.33 124.35Z"
      fill="#F5F6F6" stroke="#1A1B1D" />
    <path
      d="M166.067 121.21C169.07 122.932 169.086 125.724 166.102 127.446C163.119 129.168 158.267 129.168 155.264 127.446C152.261 125.724 152.245 122.932 155.229 121.21C158.212 119.487 163.064 119.488 166.067 121.21Z"
      fill="white" stroke="#1A1B1D" />
    <path
      d="M166.924 12.882L166.924 14.4878C166.922 15.4034 166.316 16.3174 165.106 17.0158C162.669 18.4224 158.708 18.422 156.256 17.0158C155.022 16.3082 154.406 15.3796 154.409 14.4521L154.408 12.8467C154.405 13.7742 155.021 14.7028 156.255 15.4105C158.707 16.8166 162.669 16.8166 165.105 15.4105C166.315 14.712 166.92 13.7976 166.924 12.882Z"
      fill="#F5F6F6" stroke="#1A1B1D" />
    <path
      d="M165.076 10.3182C167.528 11.7243 167.541 14.0043 165.105 15.4104C162.669 16.8165 158.707 16.8165 156.255 15.4104C153.803 14.0043 153.79 11.7247 156.226 10.3182C158.662 8.91165 162.624 8.91205 165.076 10.3182Z"
      fill="white" stroke="#1A1B1D" />
    <path
      d="M88.9523 12.5614L88.9527 14.1672C88.9503 15.0828 88.3446 15.9968 87.1344 16.6953C84.6973 18.1018 80.7363 18.1014 78.2844 16.6953C77.0506 15.9877 76.4342 15.059 76.4369 14.1315L76.4365 12.5261C76.4337 13.4536 77.0498 14.3823 78.2836 15.0899C80.7355 16.496 84.6977 16.496 87.1336 15.0899C88.3438 14.3914 88.9479 13.477 88.9523 12.5614Z"
      fill="#51A6B1" stroke="#51A6B1" />
    <path
      d="M87.1047 9.9976C89.5566 11.4037 89.5694 13.6837 87.1334 15.0898C84.6975 16.4959 80.7353 16.4959 78.2834 15.0898C75.8315 13.6837 75.8187 11.4041 78.2546 9.9976C80.6906 8.5911 84.6528 8.59149 87.1047 9.9976Z"
      fill="#C3F8FB" stroke="#51A6B1" />
    <path
      d="M166.923 57.0378L166.924 58.6435C166.922 59.5591 166.316 60.4731 165.106 61.1716C162.668 62.5781 158.708 62.5777 156.256 61.1716C155.022 60.464 154.405 59.5353 154.408 58.6078L154.408 57.0024C154.405 57.9299 155.021 58.8586 156.255 59.5662C158.707 60.9723 162.669 60.9723 165.105 59.5662C166.315 58.8677 166.919 57.9533 166.923 57.0378Z"
      fill="#51A6B1" stroke="#51A6B1" />
    <path
      d="M165.076 54.4739C167.528 55.88 167.541 58.16 165.105 59.5662C162.669 60.9723 158.707 60.9723 156.255 59.5662C153.803 58.16 153.79 55.8804 156.226 54.4739C158.662 53.0674 162.624 53.0678 165.076 54.4739Z"
      fill="#C3F8FB" stroke="#51A6B1" />
    <path
      d="M127.885 80.4267L127.886 82.0325C127.883 82.948 127.278 83.862 126.068 84.5605C123.63 85.967 119.669 85.9666 117.217 84.5605C115.984 83.8529 115.367 82.9242 115.37 81.9967L115.37 80.3914C115.367 81.3188 115.983 82.2475 117.217 82.9551C119.669 84.3612 123.631 84.3612 126.067 82.9551C127.277 82.2566 127.881 81.3423 127.885 80.4267Z"
      fill="#5B992B" stroke="#4D8622" />
    <path
      d="M126.038 77.8628C128.49 79.2689 128.502 81.549 126.067 82.9551C123.631 84.3612 119.668 84.3612 117.217 82.9551C114.765 81.549 114.752 79.2693 117.188 77.8628C119.624 76.4563 123.586 76.4567 126.038 77.8628Z"
      fill="#BCF194" stroke="#4D8622" />
  </g>
  <defs>
    <clipPath id="clip0_1171_3743">
      <path d="M0 0H150C158.837 0 166 7.16344 166 16V137H0V0Z" fill="white" />
    </clipPath>
  </defs>
</svg>