<svg width="166" height="137" viewBox="0 0 166 137" fill="none" xmlns="http://www.w3.org/2000/svg">
  <!-- Base ellipse shadow -->
  <path opacity="0.1"
    d="M137.003 69.3934C157.475 81.1983 157.555 100.341 137.244 112.146C116.933 123.951 83.8873 123.951 63.4149 112.146C42.9426 100.341 42.862 81.1982 63.1731 69.3934C83.4843 57.5088 116.53 57.5088 137.003 69.3934Z"
    fill="#5CC3C9" />
  
  <!-- Base platform -->
  <path
    d="M152.159 74.4603L152.159 84.4306C152.159 91.9283 147.131 99.5057 136.995 105.328C116.885 116.974 83.7185 116.974 63.3647 105.328C53.1473 99.5057 48.0386 91.8485 48.0386 84.3508L48.0386 74.3008C48.0386 82.0377 53.0662 89.5354 63.3647 95.2783C83.7185 106.924 116.722 106.924 136.995 95.2783C147.131 89.5354 152.159 82.0377 152.159 74.4603Z"
    fill="#30839D" stroke="#151E29" stroke-linejoin="round" />
  <path
    d="M137.003 52.527C157.475 64.3318 157.555 83.4748 137.244 95.2796C116.933 107.084 83.8873 107.084 63.4149 95.2796C42.9426 83.4748 42.862 64.3318 63.1731 52.527C83.4843 40.6424 116.53 40.6424 137.003 52.527Z"
    fill="#8FE3E8" stroke="#151E29" stroke-linejoin="round" />
  
  <!-- Gear shape (industry/applied) -->
  <g transform="translate(70, 25)" stroke="#151E29" stroke-width="1">
    <path fill="#FFCF72"
      d="M30 8 L34 8 L34 12 C37 13 39 15 41 17 L45 15 L48 20 L44 24 C45 27 45 30 44 33 L48 37 L45 42 L41 40 C39 42 37 44 34 45 L34 49 L30 49 L30 45 C27 44 25 42 23 40 L19 42 L16 37 L20 33 C19 30 19 27 20 24 L16 20 L19 15 L23 17 C25 15 27 13 30 12 L30 8 Z" />
    <circle cx="32" cy="28" r="8" fill="#8FE3E8" />
  </g>
  
  <!-- Graph network overlay -->
  <g stroke="#151E29" stroke-width="1.5">
    <!-- Edges -->
    <line x1="83" y1="60" x2="65" y2="45" />
    <line x1="83" y1="60" x2="105" y2="48" />
    <line x1="65" y1="45" x2="55" y2="25" />
    <line x1="105" y1="48" x2="118" y2="30" />
    <line x1="83" y1="60" x2="83" y2="80" />
  </g>
  
  <!-- Graph nodes -->
  <circle cx="83" cy="60" r="6" fill="#FFCF72" stroke="#151E29" />
  <circle cx="65" cy="45" r="5" fill="white" stroke="#151E29" />
  <circle cx="105" cy="48" r="5" fill="white" stroke="#151E29" />
  <circle cx="55" cy="25" r="4" fill="white" stroke="#151E29" />
  <circle cx="118" cy="30" r="4" fill="white" stroke="#151E29" />
  <circle cx="83" cy="80" r="5" fill="#8FE3E8" stroke="#151E29" />
  
  <!-- Dome/container -->
  <path
    d="M54.2184 71.4716C54.2184 78.3312 58.732 84.9515 67.7592 90.136C85.7329 100.425 114.668 100.425 132.481 90.136C141.75 84.7919 146.102 77.6133 145.78 70.5942C145.457 39.806 124.985 14.9999 100.08 14.9999C74.7714 15.0796 54.2184 40.2845 54.2184 71.4716Z"
    stroke="#151E29" fill="none" />
</svg>

