<svg width="166" height="137" viewBox="0 0 166 137" fill="none" xmlns="http://www.w3.org/2000/svg">
  <path fill-rule="evenodd" clip-rule="evenodd"
    d="M80.17 105.081C90.1625 100.542 102.163 92.0483 113.641 80.5798C125.118 69.1113 133.619 57.12 138.161 47.1353C140.439 42.127 141.619 37.8472 141.819 34.5227C142.019 31.1913 141.227 29.3623 140.246 28.382C139.265 27.4016 137.434 26.6098 134.1 26.8101C130.773 27.0099 126.49 28.1886 121.478 30.4651C111.485 35.0036 99.4846 43.4978 88.0071 54.9663C76.5296 66.4348 68.0288 78.426 63.4867 88.4107C61.2084 93.419 60.0288 97.6989 59.8289 101.023C59.6285 104.355 60.4208 106.184 61.402 107.164C62.3831 108.144 64.2135 108.936 67.5475 108.736C70.8746 108.536 75.1578 107.357 80.17 105.081ZM68.0814 117.612C63.2877 117.9 58.5363 116.876 55.1094 113.452C51.6824 110.027 50.6577 105.28 50.9458 100.49C51.2344 95.693 52.849 90.3067 55.3853 84.7312C60.4724 73.5483 69.6822 60.7015 81.7145 48.6786C93.7468 36.6557 106.604 27.4531 117.795 22.37C123.375 19.8357 128.766 18.2224 133.566 17.934C138.36 17.6461 143.112 18.67 146.538 22.0943C149.965 25.5186 150.99 30.2662 150.702 35.0562C150.413 39.8531 148.799 45.2394 146.263 50.8149C141.175 61.9977 131.966 74.8446 119.933 86.8674C107.901 98.8903 95.0441 108.093 83.8525 113.176C78.2726 115.71 72.882 117.324 68.0814 117.612Z"
    fill="white" stroke="#151E29" stroke-linejoin="round" />
  <path fill-rule="evenodd" clip-rule="evenodd"
    d="M63.4867 47.136C68.0288 57.1207 76.5296 69.112 88.0071 80.5805C99.4846 92.049 111.485 100.543 121.478 105.082C126.49 107.358 130.773 108.537 134.1 108.737C137.434 108.937 139.265 108.145 140.246 107.165C141.227 106.184 142.019 104.356 141.819 101.024C141.619 97.6996 140.439 93.4198 138.161 88.4115C133.619 78.4268 125.118 66.4355 113.641 54.967C102.163 43.4985 90.1625 35.0043 80.17 30.4658C75.1578 28.1893 70.8746 27.0107 67.5475 26.8108C64.2135 26.6106 62.3831 27.4023 61.402 28.3827C60.4208 29.3631 59.6285 31.192 59.8289 34.5234C60.0289 37.8479 61.2085 42.1277 63.4867 47.136ZM50.9458 35.0569C50.6577 30.267 51.6824 25.5193 55.1094 22.095C58.5363 18.6708 63.2877 17.6468 68.0814 17.9348C72.8821 18.2231 78.2726 19.8364 83.8525 22.3708C95.0441 27.4539 107.901 36.6565 119.933 48.6793C131.966 60.7022 141.175 73.549 146.263 84.7319C148.799 90.3074 150.413 95.6937 150.702 100.491C150.99 105.281 149.965 110.028 146.538 113.452C143.112 116.877 138.36 117.901 133.566 117.613C128.766 117.324 123.375 115.711 117.795 113.177C106.604 108.094 93.7468 98.891 81.7145 86.8682C69.6822 74.8453 60.4724 61.9985 55.3853 50.8156C52.849 45.2401 51.2344 39.8538 50.9458 35.0569Z"
    fill="#FFCF72" stroke="#151E29" stroke-linejoin="round" />
  <ellipse cx="14.4079" cy="14.4136" rx="14.4079" ry="14.4136"
    transform="matrix(0.500294 0.865856 -0.866195 0.499706 105.75 48.095)" fill="#FFCF72" />
  <path opacity="0.5" fill-rule="evenodd" clip-rule="evenodd"
    d="M92.5983 68.8496C96.5793 75.7395 105.396 78.1001 112.291 74.1223C112.853 73.7985 113.384 73.4428 113.884 73.0587C112.731 75.9838 110.617 78.554 107.681 80.2479C100.786 84.2258 91.9686 81.8651 87.9876 74.9753C84.3306 68.6461 86.0266 60.6966 91.672 56.3611C90.1181 60.3049 90.3126 64.8938 92.5983 68.8496Z"
    fill="#D9B54A" />
  <path
    d="M107.431 79.8149C100.775 83.6549 92.2641 81.376 88.4214 74.7254C84.5786 68.0748 86.859 59.5704 93.5152 55.7304C100.171 51.8905 108.682 54.1694 112.525 60.82C116.368 67.4706 114.088 75.975 107.431 79.8149Z"
    stroke="#151E29" />
  <path
    d="M140.246 28.3823C139.265 27.402 137.434 26.6102 134.1 26.8105C130.773 27.0103 126.49 28.189 121.478 30.4655C111.485 35.004 99.4847 43.4981 88.0072 54.9666C76.5297 66.4351 68.0289 78.4264 63.4868 88.4111C61.2085 93.4194 60.0289 97.6992 59.8289 101.024C59.6285 104.355 60.4209 106.184 61.402 107.164L55.1094 113.452C51.6825 110.028 50.6577 105.28 50.9459 100.49C51.2345 95.6933 52.8491 90.307 55.3854 84.7315C60.4725 73.5487 69.6823 60.7018 81.7146 48.679C93.7469 36.6561 106.604 27.4535 117.795 22.3704C123.375 19.8361 128.766 18.2227 133.566 17.9344C138.36 17.6465 143.112 18.6704 146.539 22.0947L140.246 28.3823Z"
    fill="white" />
  <path
    d="M61.402 107.164C60.4209 106.184 59.6285 104.355 59.8289 101.024C60.0289 97.6992 61.2085 93.4194 63.4868 88.4111C68.0289 78.4264 76.5297 66.4351 88.0072 54.9666C99.4847 43.4981 111.485 35.004 121.478 30.4655C126.49 28.189 130.773 27.0103 134.1 26.8105C137.434 26.6102 139.265 27.402 140.246 28.3823L146.539 22.0947C143.112 18.6704 138.36 17.6465 133.566 17.9344C128.766 18.2227 123.375 19.8361 117.795 22.3704C106.604 27.4535 93.7469 36.6561 81.7146 48.679C69.6823 60.7018 60.4725 73.5487 55.3854 84.7315C52.8491 90.307 51.2345 95.6933 50.9459 100.49C50.6577 105.28 51.6825 110.028 55.1094 113.452M61.402 107.164C62.3832 108.145 64.2135 108.937 67.5475 108.736M61.402 107.164L55.1094 113.452M55.1094 113.452C58.5364 116.876 63.2878 117.9 68.0815 117.612"
    stroke="#151E29" stroke-linejoin="round" />
  <path
    d="M140.246 107.165C141.227 106.184 142.019 104.355 141.819 101.024C141.619 97.6995 140.439 93.4197 138.161 88.4114C133.619 78.4267 125.118 66.4354 113.641 54.9669C102.163 43.4984 90.1625 35.0043 80.17 30.4658C75.1578 28.1893 70.8746 27.0106 67.5475 26.8108C64.2135 26.6105 62.3831 27.4023 61.402 28.3826L55.1094 22.095C58.5363 18.6707 63.2877 17.6468 68.0814 17.9347C72.8821 18.223 78.2726 19.8364 83.8525 22.3707C95.0441 27.4538 107.901 36.6564 119.933 48.6793C131.966 60.7021 141.175 73.549 146.263 84.7318C148.799 90.3073 150.413 95.6936 150.702 100.491C150.99 105.28 149.965 110.028 146.538 113.452L140.246 107.165Z"
    fill="#FFCF72" stroke="#151E29" stroke-linejoin="round" />
</svg>