<svg width="166" height="137" viewBox="0 0 166 137" fill="none" xmlns="http://www.w3.org/2000/svg">
    <path d="M117.046 90.4793L98.7478 101.068L98.7486 79.8921L117.047 69.3036L117.046 90.4793Z"
        fill="#30839D" stroke="#151E29" stroke-width="1.09964" stroke-linejoin="round" />
    <path d="M80.4533 90.4822L98.7517 101.071L98.7509 79.8951L80.4525 69.3065L80.4533 90.4822Z"
        fill="#30839D" stroke="#151E29" stroke-width="1.09964" stroke-linejoin="round" />
    <path d="M98.7489 58.7197L117.048 69.3069L98.7489 79.8941L80.4497 69.3069L98.7489 58.7197Z"
        fill="#30839D" stroke="#151E29" stroke-width="1.09964" stroke-linejoin="round" />
    <path d="M98.743 101.067L80.4446 111.656L80.4454 90.48L98.7438 79.8915L98.743 101.067Z"
        fill="#30839D" stroke="#151E29" stroke-width="1.09964" stroke-linejoin="round" />
    <path d="M62.1496 101.071L80.448 111.659L80.4472 90.4834L62.1488 79.8949L62.1496 101.071Z"
        fill="#5DB3BF" stroke="#151E29" stroke-width="1.09964" stroke-linejoin="round" />
    <path d="M80.4457 69.3081L98.7448 79.8953L80.4457 90.4824L62.1465 79.8953L80.4457 69.3081Z"
        fill="#30839D" stroke="#151E29" stroke-width="1.09964" stroke-linejoin="round" />
    <path d="M135.255 101.012L116.957 111.6L116.958 90.4244L135.256 79.8358L135.255 101.012Z"
        fill="#C3F8FB" stroke="#151E29" stroke-width="1.09964" stroke-linejoin="round" />
    <path d="M98.6628 101.015L116.961 111.604L116.96 90.4278L98.662 79.8392L98.6628 101.015Z"
        fill="#30839D" stroke="#151E29" stroke-width="1.09964" stroke-linejoin="round" />
    <path d="M116.958 69.2529L135.258 79.8401L116.958 90.4273L98.6592 79.8401L116.958 69.2529Z"
        fill="#30839D" stroke="#151E29" stroke-width="1.09964" stroke-linejoin="round" />
    <path d="M116.952 111.6L98.6536 122.189L98.6544 101.013L116.953 90.4247L116.952 111.6Z"
        fill="#C3F8FB" stroke="#151E29" stroke-width="1.09964" stroke-linejoin="round" />
    <path d="M80.3591 111.604L98.6574 122.193L98.6566 101.017L80.3583 90.4286L80.3591 111.604Z"
        fill="#5DB3BF" stroke="#151E29" stroke-width="1.09964" stroke-linejoin="round" />
    <path d="M98.6551 79.8413L116.954 90.4285L98.6551 101.016L80.356 90.4285L98.6551 79.8413Z"
        fill="#30839D" stroke="#151E29" stroke-width="1.09964" stroke-linejoin="round" />
    <path d="M116.972 58.9075L98.6741 69.4961L98.6749 48.3204L116.973 37.7318L116.972 58.9075Z"
        fill="#FFB422" stroke="#151E29" stroke-width="1.09964" stroke-linejoin="round" />
    <path d="M80.3791 58.9105L98.6774 69.499L98.6766 48.3233L80.3783 37.7347L80.3791 58.9105Z"
        fill="#5DB3BF" stroke="#151E29" stroke-width="1.09964" stroke-linejoin="round" />
    <path d="M98.6751 27.1484L116.974 37.7356L98.6751 48.3228L80.376 37.7356L98.6751 27.1484Z"
        fill="#FFDE9D" stroke="#151E29" stroke-width="1.09964" stroke-linejoin="round" />
    <path d="M98.743 60.3992L80.4446 70.9878L80.4454 49.8121L98.7438 39.2235L98.743 60.3992Z"
        fill="#30839D" stroke="#081E2B" stroke-width="1.09964" stroke-linejoin="round" />
    <path d="M62.1496 60.4017L80.448 70.9902L80.4472 49.8145L62.1488 39.2259L62.1496 60.4017Z"
        fill="#30839D" stroke="#081E2B" stroke-width="1.09964" stroke-linejoin="round" />
    <path d="M80.4457 28.6396L98.7448 39.2268L80.4457 49.814L62.1465 39.2268L80.4457 28.6396Z"
        fill="#5DB3BF" stroke="#081E2B" stroke-width="1.09964" stroke-linejoin="round" />
    <path d="M135.255 79.846L116.957 90.4346L116.958 69.2588L135.256 58.6703L135.255 79.846Z"
        fill="#C3F8FB" stroke="#151E29" stroke-width="1.09964" stroke-linejoin="round" />
    <path d="M98.6628 79.8489L116.961 90.4375L116.96 69.2618L98.662 58.6732L98.6628 79.8489Z"
        fill="#30839D" stroke="#151E29" stroke-width="1.09964" stroke-linejoin="round" />
    <path d="M116.958 48.0869L135.258 58.6741L116.958 69.2613L98.6592 58.6741L116.958 48.0869Z"
        fill="#E7FAFB" stroke="#151E29" stroke-width="1.09964" stroke-linejoin="round" />
    <path d="M116.952 80.0296L98.6536 90.6181L98.6544 69.4424L116.953 58.8539L116.952 80.0296Z"
        fill="#C3F8FB" stroke="#151E29" stroke-width="1.09964" stroke-linejoin="round" />
    <path d="M80.3591 80.032L98.6574 90.6206L98.6566 69.4449L80.3583 58.8563L80.3591 80.032Z"
        fill="#5DB3BF" stroke="#151E29" stroke-width="1.09964" stroke-linejoin="round" />
    <path d="M98.6551 48.27L116.954 58.8572L98.6551 69.4444L80.356 58.8572L98.6551 48.27Z"
        fill="#E7FAFB" stroke="#151E29" stroke-width="1.09964" stroke-linejoin="round" />
    <path
        d="M82.1087 37.567C83.3584 38.2903 83.3651 39.4667 82.1233 40.1895C80.8814 40.9122 78.8549 40.9128 77.6052 40.1895C76.3555 39.4662 76.3488 38.2892 77.5906 37.5664C78.8325 36.8437 80.8584 36.8437 82.1087 37.567Z"
        fill="#30839D" stroke="#151E29" stroke-width="1.09964" stroke-linejoin="round" />
    <path
        d="M78.384 17.6959L78.3865 38.3421C78.3865 38.5601 78.5297 38.7776 78.8147 38.944C79.3883 39.2787 80.3212 39.2787 80.8985 38.944C81.1889 38.7756 81.3341 38.5545 81.3335 38.3337L81.331 17.6875C81.331 17.9083 81.1866 18.1294 80.8961 18.2978C80.3187 18.6325 79.3859 18.6325 78.8122 18.2978C78.5273 18.1315 78.3846 17.9144 78.384 17.6959Z"
        fill="#E7FAFB" stroke="#151E29" stroke-width="1.09964" stroke-linejoin="round" />
    <path
        d="M78.3819 17.6919C78.3806 17.2022 79.0396 16.8034 79.854 16.8011C80.6684 16.7988 81.3297 17.194 81.331 17.6837C81.3324 18.1733 80.6733 18.5722 79.8589 18.5744C79.0446 18.5767 78.3833 18.1816 78.3819 17.6919Z"
        fill="#E7FAFB" stroke="#151E29" stroke-width="1.09964" stroke-linejoin="round" />
    <path
        d="M126.906 98.5493C125.656 99.2723 124.636 98.69 124.632 97.2508C124.629 95.8116 125.641 94.0525 126.891 93.3295C128.141 92.6065 129.162 93.1891 129.165 94.6283C129.169 96.0675 128.156 97.8259 126.906 98.5493Z"
        fill="#E7FAFB" stroke="#151E29" stroke-width="1.09964" />
    <path
        d="M145.94 105.252L128.097 94.9314C127.909 94.8224 127.649 94.8379 127.363 95.0021C126.787 95.3326 126.321 96.1422 126.321 96.8106C126.321 97.1469 126.44 97.3834 126.631 97.4933L144.473 107.814C144.283 107.704 144.164 107.468 144.164 107.132C144.163 106.463 144.629 105.654 145.205 105.323C145.492 105.159 145.751 105.144 145.94 105.252Z"
        fill="#E7FAFB" stroke="#151E29" stroke-width="1.09964" stroke-linejoin="round" />
    <path
        d="M145.944 105.252C146.368 105.496 146.383 106.268 145.978 106.976C145.572 107.683 144.9 108.06 144.476 107.816C144.053 107.573 144.037 106.801 144.443 106.093C144.848 105.385 145.52 105.009 145.944 105.252Z"
        fill="#E7FAFB" stroke="#151E29" stroke-width="1.09964" stroke-linejoin="round" />
    <ellipse cx="79.6934" cy="16.413" rx="5.4132" ry="5.40141"
        transform="rotate(-90 79.6934 16.413)" fill="#FFAA97" />
    <path opacity="0.5" fill-rule="evenodd" clip-rule="evenodd"
        d="M82.4501 17.5406C82.4501 14.551 80.0318 12.1274 77.0486 12.1274C76.8059 12.1274 76.5668 12.1435 76.3325 12.1746C77.2549 11.439 78.4228 10.9996 79.6931 10.9996C82.6762 10.9996 85.0945 13.4231 85.0945 16.4128C85.0945 19.1591 83.0538 21.4277 80.4092 21.7788C81.6528 20.7871 82.4501 19.2571 82.4501 17.5406Z"
        fill="#E84E2C" />
    <path
        d="M79.6934 11.5496C82.3717 11.5496 84.545 13.7259 84.545 16.413C84.545 19.1001 82.3717 21.2764 79.6934 21.2764C77.0151 21.2764 74.8418 19.1001 74.8418 16.413C74.8418 13.7259 77.0151 11.5496 79.6934 11.5496Z"
        stroke="#151E29" stroke-width="1.09964" />
    <ellipse cx="147.038" cy="107.956" rx="5.4132" ry="5.40141"
        transform="rotate(-90 147.038 107.956)" fill="#FFB422" />
    <path
        d="M147.038 103.093C149.716 103.093 151.889 105.269 151.889 107.956C151.889 110.643 149.716 112.819 147.038 112.819C144.359 112.819 142.186 110.643 142.186 107.956C142.186 105.269 144.359 103.093 147.038 103.093Z"
        stroke="#151E29" stroke-width="1.09964" />
</svg>