<svg width="166" height="137" viewBox="0 0 166 137" fill="none" xmlns="http://www.w3.org/2000/svg">
<g clip-path="url(#clip0_1929_10684)">
<path d="M107.17 52.8995C109.291 51.7265 109.3 49.8244 107.195 48.6515C105.091 47.4785 101.667 47.4785 99.5461 48.6515C97.425 49.8244 97.4166 51.7265 99.521 52.8995C101.625 54.0804 105.049 54.0804 107.17 52.8995Z" fill="#5CC3C9" stroke="#1A1B1D" stroke-linejoin="round"/>
<path d="M91.8861 76.1265L100.822 70.9676C104.17 69.0348 104.17 65.901 100.822 63.9681L96.7559 61.6206C93.8663 59.9525 93.8663 57.2479 96.7559 55.5797L100.505 53.415" stroke="#1A1B1D" stroke-linejoin="bevel"/>
<path d="M98.1347 76.9434C100.256 75.7705 100.264 73.8684 98.1598 72.6954C96.0554 71.5225 92.6315 71.5225 90.5104 72.6954C88.3893 73.8684 88.381 75.7705 90.4854 76.9434C92.5898 78.1243 96.0136 78.1243 98.1347 76.9434Z" fill="#BCF194" stroke="#1A1B1D" stroke-linejoin="round"/>
<path d="M107.17 52.8985C109.291 51.7256 109.3 49.8235 107.195 48.6505C105.091 47.4775 101.667 47.4775 99.5461 48.6505C97.425 49.8235 97.4166 51.7256 99.521 52.8985C101.625 54.0794 105.049 54.0794 107.17 52.8985Z" stroke="#1A1B1D" stroke-linejoin="round"/>
<rect opacity="0.4" width="100.234" height="39.3723" rx="11" transform="matrix(0.866044 0.499967 -0.866044 0.499967 40.0981 57.7461)" fill="#4C99A4"/>
<path d="M34.2586 53.6913C37.4837 51.8295 42.7127 51.8295 45.9378 53.6913L121.066 97.0628C124.291 98.9246 124.291 101.943 121.066 103.805L98.647 116.748C95.4218 118.61 90.1929 118.61 86.9677 116.748L11.8396 73.3762C8.6145 71.5144 8.61449 68.4957 11.8396 66.6338L34.2586 53.6913Z" fill="white" stroke="#1A1B1D" stroke-linejoin="round"/>
<path d="M45.6223 80.2058L45.6222 84.3403C45.6222 87.1726 47.4777 90.0276 51.144 92.1802C58.5436 96.5533 70.5932 96.5533 78.0598 92.1802C81.8379 90.0049 83.6934 87.1046 83.6934 84.227L83.8674 80.2012C83.8674 83.0788 81.8155 85.8478 78.0598 88.0457C70.5932 92.4188 58.5436 92.4188 51.144 88.0457C47.4778 85.8705 45.6223 83.0382 45.6223 80.2058Z" fill="#0A6190" stroke="#0A6190" stroke-miterlimit="10" stroke-linejoin="round"/>
<path d="M45.6527 80.3409C45.6354 74.2271 54.1767 69.2466 64.7302 69.2167C75.2838 69.1867 83.8531 74.1188 83.8705 80.2326C83.8878 86.3465 75.3465 91.327 64.793 91.3569C54.2394 91.3868 45.6701 86.4548 45.6527 80.3409Z" fill="#C3F8FB" stroke="#0A6190" stroke-miterlimit="10" stroke-linejoin="round"/>
<path d="M51.0458 75.1879L51.0458 77.7806C51.0458 79.8103 52.3755 81.8562 55.0028 83.3988C60.3054 86.5326 68.9402 86.5326 74.2909 83.3988C76.9982 81.84 78.3279 79.7616 78.3279 77.6994L78.4526 75.1846C78.4526 77.2467 76.9822 79.231 74.2909 80.806C68.9402 83.9398 60.3054 83.9398 55.0028 80.806C52.3755 79.2472 51.0458 77.2176 51.0458 75.1879Z" fill="#0A6190" stroke="#0A6190" stroke-miterlimit="10" stroke-linejoin="round"/>
<path d="M51.0679 75.2843C51.0555 70.9031 57.1762 67.334 64.739 67.3126C72.3017 67.2911 78.4426 70.8255 78.4551 75.2067C78.4675 79.588 72.3467 83.157 64.784 83.1785C57.2212 83.1999 51.0803 79.6656 51.0679 75.2843Z" fill="#C3F8FB" stroke="#0A6190" stroke-miterlimit="10" stroke-linejoin="round"/>
<path d="M61.6542 75.2546C61.6514 74.2604 63.0403 73.4506 64.7564 73.4457C66.4725 73.4408 67.866 74.2428 67.8688 75.237C67.8716 76.2312 66.4827 77.0411 64.7666 77.0459C63.0505 77.0508 61.657 76.2488 61.6542 75.2546Z" fill="#0A6190" stroke="#0A6190" stroke-miterlimit="10" stroke-linejoin="round"/>
<mask id="mask0_1929_10684" style="mask-type:alpha" maskUnits="userSpaceOnUse" x="61" y="48" width="8" height="30">
<path d="M64.7666 77.0459C63.0505 77.0508 61.657 76.2488 61.6542 75.2546C61.6531 74.8436 61.8898 74.464 62.2892 74.1598L62.2892 48.7921L67.251 48.7921L67.251 74.1637C67.638 74.4626 67.8677 74.834 67.8688 75.237C67.8716 76.2312 66.4827 77.0411 64.7666 77.0459Z" fill="#0056B3" stroke="#0056B3" stroke-miterlimit="10" stroke-linejoin="round"/>
</mask>
<g mask="url(#mask0_1929_10684)">
<path d="M66.4692 49.0195L66.3874 76.6764C66.3874 76.9219 66.2238 77.1673 65.8965 77.3513C65.2421 77.7194 64.1991 77.7194 63.5447 77.3513C63.2174 77.1673 63.0538 76.9219 63.0538 76.6764L63.1356 49.0195C63.1356 49.2649 63.2992 49.5104 63.6265 49.6944C64.2809 50.0625 65.3239 50.0625 65.9783 49.6944C66.3056 49.5104 66.4692 49.2649 66.4692 49.0195Z" fill="white" stroke="#1A1B1D" stroke-miterlimit="10" stroke-linejoin="round"/>
<path opacity="0.4" d="M66.4692 26.3926L66.3874 54.0495C66.3874 54.2949 66.2238 54.5403 65.8965 54.7244C65.2421 55.0925 64.1991 55.0925 63.5447 54.7244C63.2174 54.5403 63.0538 54.2949 63.0538 54.0495L63.1356 26.3926C63.1356 26.638 63.2992 26.8834 63.6265 27.0675C64.2809 27.4356 65.3239 27.4356 65.9783 27.0675C66.3056 26.8834 66.4692 26.638 66.4692 26.3926Z" fill="#4C99A4"/>
<path d="M66.4692 49.0195L66.3874 76.6764C66.3874 76.9219 66.2238 77.1673 65.8965 77.3513C65.2421 77.7194 64.1991 77.7194 63.5447 77.3513C63.2174 77.1673 63.0538 76.9219 63.0538 76.6764L63.1356 49.0195C63.1356 49.2649 63.2992 49.5104 63.6265 49.6944C64.2809 50.0625 65.3239 50.0625 65.9783 49.6944C66.3056 49.5104 66.4692 49.2649 66.4692 49.0195Z" stroke="#1A1B1D" stroke-miterlimit="10" stroke-linejoin="round"/>
</g>
<path d="M63.0922 73.7304C62.2261 74.0522 61.6524 74.6153 61.6542 75.2546C61.657 76.2488 63.0505 77.0508 64.7666 77.0459C66.4827 77.0411 67.8716 76.2312 67.8688 75.237C67.867 74.604 67.3014 74.0489 66.4478 73.7304" stroke="#1A1B1D" stroke-miterlimit="10" stroke-linejoin="round"/>
<circle cx="64.7619" cy="41.6629" r="9.5076" transform="rotate(90 64.7619 41.6629)" fill="#FFC450"/>
<path opacity="0.5" d="M72.4421 47.2637C70.7129 49.6306 67.9182 51.1698 64.7625 51.1699C59.5116 51.1699 55.2546 46.913 55.2546 41.6621C55.2547 38.3055 56.9951 35.3568 59.6218 33.665C58.4731 35.2366 57.7937 37.1729 57.7937 39.2686C57.7937 44.5195 62.0506 48.7764 67.3015 48.7764C69.1962 48.7763 70.9596 48.2189 72.4421 47.2637Z" fill="#DA9105"/>
<circle cx="64.7619" cy="41.6629" r="9.0076" transform="rotate(90 64.7619 41.6629)" stroke="#1A1B1D"/>
<path d="M85.9536 96.3641C85.6285 96.1764 85.6285 95.8722 85.9536 95.6845C86.2786 95.4969 86.8057 95.4969 87.1307 95.6845L88.7119 96.5973C90.6447 97.7131 93.9494 96.9229 93.9494 95.3449L93.9494 94.054C93.9494 93.7886 94.3222 93.5734 94.782 93.5735C95.2417 93.5735 95.6142 93.7886 95.6142 94.054L95.6142 95.3447C95.6142 96.9228 98.9193 97.7132 100.852 96.5973L102.433 95.6845C102.758 95.4969 103.285 95.4969 103.61 95.6845C103.935 95.8722 103.935 96.1764 103.61 96.3641L102.029 97.2769C100.096 98.3928 101.465 100.301 104.199 100.301L106.435 100.301C106.895 100.301 107.267 100.516 107.267 100.781C107.267 101.047 106.895 101.262 106.435 101.262H104.199C101.465 101.262 100.097 103.17 102.029 104.286L103.61 105.198C103.935 105.386 103.935 105.69 103.61 105.878C103.285 106.065 102.758 106.065 102.433 105.878L100.852 104.965C98.9192 103.849 95.6142 104.639 95.6142 106.217L95.6142 107.508C95.6142 107.774 95.2416 107.989 94.782 107.989C94.3223 107.989 93.9497 107.774 93.9497 107.508L93.9497 106.217C93.9497 104.639 90.6448 103.849 88.7119 104.965L87.1307 105.878C86.8057 106.065 86.2786 106.065 85.9536 105.878C85.6285 105.69 85.6285 105.386 85.9536 105.198L87.5348 104.285C89.4677 103.17 88.0987 101.262 85.3652 101.262H83.1292C82.6695 101.262 82.2969 101.047 82.2969 100.781C82.2969 100.516 82.6695 100.301 83.1292 100.301H85.3652C88.0987 100.301 89.4677 98.3927 87.5348 97.2769L85.9536 96.3641Z" fill="#5CC3C9"/>
<path d="M101.924 96.5776C98.0527 94.3426 91.7758 94.3426 87.9043 96.5776L87.6395 96.7305C83.768 98.9655 83.768 102.589 87.6395 104.824C91.511 107.059 97.788 107.059 101.659 104.824L101.924 104.671C105.796 102.436 105.796 98.8127 101.924 96.5776Z" fill="#C3F8FB" stroke="#5CC3C9"/>
<path d="M90.0161 92.1685C92.6945 90.6222 97.0371 90.6222 99.7155 92.1685C100.971 92.8935 101.638 93.8299 101.717 94.7793L101.716 100.223C101.638 101.172 100.971 102.109 99.7152 102.834L99.532 102.939C96.8536 104.486 92.511 104.486 89.8326 102.939C88.4961 102.168 87.8265 101.157 87.8238 100.146L87.8241 95.0642C87.8284 94.0541 88.498 93.0449 89.8329 92.2742L90.0161 92.1685Z" fill="#BCF194" stroke="#1A1B1D"/>
<path d="M99.7141 92.1138C97.0357 90.5675 92.6931 90.5675 90.0147 92.1138L89.8315 92.2195C87.1531 93.7658 87.1531 96.2728 89.8315 97.819C92.5099 99.3653 96.8525 99.3653 99.5309 97.819L99.7141 97.7133C102.393 96.167 102.393 93.66 99.7141 92.1138Z" fill="#E7FCD7" stroke="#1A1B1D"/>
<path d="M94.77 95.0908L101.163 96.0041" stroke="#1A1B1D" stroke-linecap="round"/>
<rect width="24.6977" height="3.77853" rx="1.88927" transform="matrix(-0.866044 0.499968 0.866044 0.499967 46.7368 63.0166)" fill="white" stroke="#1A1B1D"/>
<path d="M32.7431 69.5758C33.6467 69.0542 35.1118 69.0542 36.0155 69.5758C36.438 69.8197 36.6629 70.1345 36.6903 70.4538L36.6904 71.9393C36.7208 72.3026 36.496 72.6716 36.0155 72.949L30.1725 76.3221C29.2688 76.8438 27.8038 76.8438 26.9001 76.3221C26.4515 76.0631 26.2256 75.7242 26.2224 75.3848L26.2224 73.8864C26.2256 73.5469 26.4515 73.208 26.9001 72.949L32.7431 69.5758Z" fill="#EC9C00" stroke="#1A1B1D"/>
<path d="M35.9144 69.3317C35.0108 68.81 33.5457 68.81 32.6421 69.3317L26.9082 72.6419C26.0045 73.1635 26.0045 74.0093 26.9082 74.531C27.8118 75.0527 29.2769 75.0527 30.1805 74.531L35.9144 71.2208C36.8181 70.6992 36.8181 69.8534 35.9144 69.3317Z" fill="#FFC450" stroke="#1A1B1D"/>
<rect width="24.6977" height="3.77853" rx="1.88927" transform="matrix(-0.866044 0.499968 0.866044 0.499967 39.2937 58.7119)" fill="white" stroke="#1A1B1D"/>
<path d="M37.7324 58.0563C38.636 57.5346 40.1011 57.5346 41.0047 58.0563C41.4272 58.3002 41.6522 58.6149 41.6796 58.9343L41.6796 60.4198C41.7101 60.783 41.4852 61.1521 41.0047 61.4295L35.1617 64.8026C34.2581 65.3243 32.793 65.3243 31.8894 64.8026C31.4407 64.5436 31.2148 64.2047 31.2117 63.8652L31.2117 62.3668C31.2148 62.0274 31.4407 61.6885 31.8894 61.4294L37.7324 58.0563Z" fill="#4D8622" stroke="#1A1B1D"/>
<path d="M40.9037 57.8122C40 57.2905 38.535 57.2905 37.6313 57.8122L31.8974 61.1223C30.9938 61.644 30.9938 62.4898 31.8974 63.0115C32.8011 63.5331 34.2662 63.5331 35.1698 63.0115L40.9037 59.7013C41.8073 59.1796 41.8073 58.3338 40.9037 57.8122Z" fill="#BCF194" stroke="#1A1B1D"/>
<path d="M91.8861 76.1265L100.822 70.9676C104.17 69.0348 104.17 65.901 100.822 63.9681L96.7559 61.6206C93.8663 59.9525 93.8663 57.2479 96.7559 55.5797L100.505 53.415" stroke="#1A1B1D" stroke-linejoin="bevel"/>
<path d="M98.1347 76.9434C100.256 75.7705 100.264 73.8684 98.1598 72.6954C96.0554 71.5225 92.6315 71.5225 90.5104 72.6954C88.3893 73.8684 88.381 75.7705 90.4854 76.9434C92.5898 78.1243 96.0136 78.1243 98.1347 76.9434Z" fill="#BCF194" stroke="#1A1B1D" stroke-linejoin="round"/>
<path d="M107.17 52.8985C109.291 51.7256 109.3 49.8235 107.195 48.6505C105.091 47.4775 101.667 47.4775 99.5461 48.6505C97.425 49.8235 97.4166 51.7256 99.521 52.8985C101.625 54.0794 105.049 54.0794 107.17 52.8985Z" stroke="#1A1B1D" stroke-linejoin="round"/>
<rect opacity="0.4" width="100.234" height="39.3723" rx="11" transform="matrix(0.866044 0.499967 -0.866044 0.499967 40.0981 57.7461)" fill="#4C99A4"/>
<path d="M34.2586 53.6913C37.4837 51.8295 42.7127 51.8295 45.9378 53.6913L121.066 97.0628C124.291 98.9246 124.291 101.943 121.066 103.805L98.647 116.748C95.4218 118.61 90.1929 118.61 86.9677 116.748L11.8396 73.3762C8.6145 71.5144 8.61449 68.4957 11.8396 66.6338L34.2586 53.6913Z" fill="white" stroke="#1A1B1D" stroke-linejoin="round"/>
<path d="M45.6223 80.2058L45.6222 84.3403C45.6222 87.1726 47.4777 90.0276 51.144 92.1802C58.5436 96.5533 70.5932 96.5533 78.0598 92.1802C81.8379 90.0049 83.6934 87.1046 83.6934 84.227L83.8674 80.2012C83.8674 83.0788 81.8155 85.8478 78.0598 88.0457C70.5932 92.4188 58.5436 92.4188 51.144 88.0457C47.4778 85.8705 45.6223 83.0382 45.6223 80.2058Z" fill="#0A6190" stroke="#0A6190" stroke-miterlimit="10" stroke-linejoin="round"/>
<path d="M45.6527 80.3409C45.6354 74.2271 54.1767 69.2466 64.7302 69.2167C75.2838 69.1867 83.8531 74.1188 83.8705 80.2326C83.8878 86.3465 75.3465 91.327 64.793 91.3569C54.2394 91.3868 45.6701 86.4548 45.6527 80.3409Z" fill="#C3F8FB" stroke="#0A6190" stroke-miterlimit="10" stroke-linejoin="round"/>
<path d="M51.0458 75.1879L51.0458 77.7806C51.0458 79.8103 52.3755 81.8562 55.0028 83.3988C60.3054 86.5326 68.9402 86.5326 74.2909 83.3988C76.9982 81.84 78.3279 79.7616 78.3279 77.6994L78.4526 75.1846C78.4526 77.2467 76.9822 79.231 74.2909 80.806C68.9402 83.9398 60.3054 83.9398 55.0028 80.806C52.3755 79.2472 51.0458 77.2176 51.0458 75.1879Z" fill="#0A6190" stroke="#0A6190" stroke-miterlimit="10" stroke-linejoin="round"/>
<path d="M51.0679 75.2843C51.0555 70.9031 57.1762 67.334 64.739 67.3126C72.3017 67.2911 78.4426 70.8255 78.4551 75.2067C78.4675 79.588 72.3467 83.157 64.784 83.1785C57.2212 83.1999 51.0803 79.6656 51.0679 75.2843Z" fill="#C3F8FB" stroke="#0A6190" stroke-miterlimit="10" stroke-linejoin="round"/>
<path d="M61.6542 75.2546C61.6514 74.2604 63.0403 73.4506 64.7564 73.4457C66.4725 73.4408 67.866 74.2428 67.8688 75.237C67.8716 76.2312 66.4827 77.0411 64.7666 77.0459C63.0505 77.0508 61.657 76.2488 61.6542 75.2546Z" fill="#0A6190" stroke="#0A6190" stroke-miterlimit="10" stroke-linejoin="round"/>
<mask id="mask1_1929_10684" style="mask-type:alpha" maskUnits="userSpaceOnUse" x="61" y="48" width="8" height="30">
<path d="M64.7666 77.0459C63.0505 77.0508 61.657 76.2488 61.6542 75.2546C61.6531 74.8436 61.8898 74.464 62.2892 74.1598L62.2892 48.7921L67.251 48.7921L67.251 74.1637C67.638 74.4626 67.8677 74.834 67.8688 75.237C67.8716 76.2312 66.4827 77.0411 64.7666 77.0459Z" fill="#0056B3" stroke="#0056B3" stroke-miterlimit="10" stroke-linejoin="round"/>
</mask>
<g mask="url(#mask1_1929_10684)">
<path d="M66.4692 49.0195L66.3874 76.6764C66.3874 76.9219 66.2238 77.1673 65.8965 77.3513C65.2421 77.7194 64.1991 77.7194 63.5447 77.3513C63.2174 77.1673 63.0538 76.9219 63.0538 76.6764L63.1356 49.0195C63.1356 49.2649 63.2992 49.5104 63.6265 49.6944C64.2809 50.0625 65.3239 50.0625 65.9783 49.6944C66.3056 49.5104 66.4692 49.2649 66.4692 49.0195Z" fill="white" stroke="#1A1B1D" stroke-miterlimit="10" stroke-linejoin="round"/>
<path opacity="0.4" d="M66.4692 26.3926L66.3874 54.0495C66.3874 54.2949 66.2238 54.5403 65.8965 54.7244C65.2421 55.0925 64.1991 55.0925 63.5447 54.7244C63.2174 54.5403 63.0538 54.2949 63.0538 54.0495L63.1356 26.3926C63.1356 26.638 63.2992 26.8834 63.6265 27.0675C64.2809 27.4356 65.3239 27.4356 65.9783 27.0675C66.3056 26.8834 66.4692 26.638 66.4692 26.3926Z" fill="#4C99A4"/>
<path d="M66.4692 49.0195L66.3874 76.6764C66.3874 76.9219 66.2238 77.1673 65.8965 77.3513C65.2421 77.7194 64.1991 77.7194 63.5447 77.3513C63.2174 77.1673 63.0538 76.9219 63.0538 76.6764L63.1356 49.0195C63.1356 49.2649 63.2992 49.5104 63.6265 49.6944C64.2809 50.0625 65.3239 50.0625 65.9783 49.6944C66.3056 49.5104 66.4692 49.2649 66.4692 49.0195Z" stroke="#1A1B1D" stroke-miterlimit="10" stroke-linejoin="round"/>
</g>
<path d="M63.0922 73.7304C62.2261 74.0522 61.6524 74.6153 61.6542 75.2546C61.657 76.2488 63.0505 77.0508 64.7666 77.0459C66.4827 77.0411 67.8716 76.2312 67.8688 75.237C67.867 74.604 67.3014 74.0489 66.4478 73.7304" stroke="#1A1B1D" stroke-miterlimit="10" stroke-linejoin="round"/>
<circle cx="64.7619" cy="41.6629" r="9.5076" transform="rotate(90 64.7619 41.6629)" fill="#FFC450"/>
<path opacity="0.5" d="M72.4421 47.2637C70.7129 49.6306 67.9182 51.1698 64.7625 51.1699C59.5116 51.1699 55.2546 46.913 55.2546 41.6621C55.2547 38.3055 56.9951 35.3568 59.6218 33.665C58.4731 35.2366 57.7937 37.1729 57.7937 39.2686C57.7937 44.5195 62.0506 48.7764 67.3015 48.7764C69.1962 48.7763 70.9596 48.2189 72.4421 47.2637Z" fill="#DA9105"/>
<circle cx="64.7619" cy="41.6629" r="9.0076" transform="rotate(90 64.7619 41.6629)" stroke="#1A1B1D"/>
<path d="M85.9536 96.3641C85.6285 96.1764 85.6285 95.8722 85.9536 95.6845C86.2786 95.4969 86.8057 95.4969 87.1307 95.6845L88.7119 96.5973C90.6447 97.7131 93.9494 96.9229 93.9494 95.3449L93.9494 94.054C93.9494 93.7886 94.3222 93.5734 94.782 93.5735C95.2417 93.5735 95.6142 93.7886 95.6142 94.054L95.6142 95.3447C95.6142 96.9228 98.9193 97.7132 100.852 96.5973L102.433 95.6845C102.758 95.4969 103.285 95.4969 103.61 95.6845C103.935 95.8722 103.935 96.1764 103.61 96.3641L102.029 97.2769C100.096 98.3928 101.465 100.301 104.199 100.301L106.435 100.301C106.895 100.301 107.267 100.516 107.267 100.781C107.267 101.047 106.895 101.262 106.435 101.262H104.199C101.465 101.262 100.097 103.17 102.029 104.286L103.61 105.198C103.935 105.386 103.935 105.69 103.61 105.878C103.285 106.065 102.758 106.065 102.433 105.878L100.852 104.965C98.9192 103.849 95.6142 104.639 95.6142 106.217L95.6142 107.508C95.6142 107.774 95.2416 107.989 94.782 107.989C94.3223 107.989 93.9497 107.774 93.9497 107.508L93.9497 106.217C93.9497 104.639 90.6448 103.849 88.7119 104.965L87.1307 105.878C86.8057 106.065 86.2786 106.065 85.9536 105.878C85.6285 105.69 85.6285 105.386 85.9536 105.198L87.5348 104.285C89.4677 103.17 88.0987 101.262 85.3652 101.262H83.1292C82.6695 101.262 82.2969 101.047 82.2969 100.781C82.2969 100.516 82.6695 100.301 83.1292 100.301H85.3652C88.0987 100.301 89.4677 98.3927 87.5348 97.2769L85.9536 96.3641Z" fill="#5CC3C9"/>
<path d="M101.924 96.5776C98.0527 94.3426 91.7758 94.3426 87.9043 96.5776L87.6395 96.7305C83.768 98.9655 83.768 102.589 87.6395 104.824C91.511 107.059 97.788 107.059 101.659 104.824L101.924 104.671C105.796 102.436 105.796 98.8127 101.924 96.5776Z" fill="#C3F8FB" stroke="#5CC3C9"/>
<path d="M90.0161 92.1685C92.6945 90.6222 97.0371 90.6222 99.7155 92.1685C100.971 92.8935 101.638 93.8299 101.717 94.7793L101.716 100.223C101.638 101.172 100.971 102.109 99.7152 102.834L99.532 102.939C96.8536 104.486 92.511 104.486 89.8326 102.939C88.4961 102.168 87.8265 101.157 87.8238 100.146L87.8241 95.0642C87.8284 94.0541 88.498 93.0449 89.8329 92.2742L90.0161 92.1685Z" fill="#BCF194" stroke="#1A1B1D"/>
<path d="M99.7141 92.1138C97.0357 90.5675 92.6931 90.5675 90.0147 92.1138L89.8315 92.2195C87.1531 93.7658 87.1531 96.2728 89.8315 97.819C92.5099 99.3653 96.8525 99.3653 99.5309 97.819L99.7141 97.7133C102.393 96.167 102.393 93.66 99.7141 92.1138Z" fill="#E7FCD7" stroke="#1A1B1D"/>
<path d="M94.77 95.0908L101.163 96.0041" stroke="#1A1B1D" stroke-linecap="round"/>
<rect width="24.6977" height="3.77853" rx="1.88927" transform="matrix(-0.866044 0.499968 0.866044 0.499967 46.7368 63.0166)" fill="white" stroke="#1A1B1D"/>
<path d="M32.7431 69.5758C33.6467 69.0542 35.1118 69.0542 36.0155 69.5758C36.438 69.8197 36.6629 70.1345 36.6903 70.4538L36.6904 71.9393C36.7208 72.3026 36.496 72.6716 36.0155 72.949L30.1725 76.3221C29.2688 76.8438 27.8038 76.8438 26.9001 76.3221C26.4515 76.0631 26.2256 75.7242 26.2224 75.3848L26.2224 73.8864C26.2256 73.5469 26.4515 73.208 26.9001 72.949L32.7431 69.5758Z" fill="#EC9C00" stroke="#1A1B1D"/>
<path d="M35.9144 69.3317C35.0108 68.81 33.5457 68.81 32.6421 69.3317L26.9082 72.6419C26.0045 73.1635 26.0045 74.0093 26.9082 74.531C27.8118 75.0527 29.2769 75.0527 30.1805 74.531L35.9144 71.2208C36.8181 70.6992 36.8181 69.8534 35.9144 69.3317Z" fill="#FFC450" stroke="#1A1B1D"/>
<rect width="24.6977" height="3.77853" rx="1.88927" transform="matrix(-0.866044 0.499968 0.866044 0.499967 39.2937 58.7119)" fill="white" stroke="#1A1B1D"/>
<path d="M37.7324 58.0563C38.636 57.5346 40.1011 57.5346 41.0047 58.0563C41.4272 58.3002 41.6522 58.6149 41.6796 58.9343L41.6796 60.4198C41.7101 60.783 41.4852 61.1521 41.0047 61.4295L35.1617 64.8026C34.2581 65.3243 32.793 65.3243 31.8894 64.8026C31.4407 64.5436 31.2148 64.2047 31.2117 63.8652L31.2117 62.3668C31.2148 62.0274 31.4407 61.6885 31.8894 61.4294L37.7324 58.0563Z" fill="#4D8622" stroke="#1A1B1D"/>
<path d="M40.9037 57.8122C40 57.2905 38.535 57.2905 37.6313 57.8122L31.8974 61.1223C30.9938 61.644 30.9938 62.4898 31.8974 63.0115C32.8011 63.5331 34.2662 63.5331 35.1698 63.0115L40.9037 59.7013C41.8073 59.1796 41.8073 58.3338 40.9037 57.8122Z" fill="#BCF194" stroke="#1A1B1D"/>
<path d="M112.317 59.5899C112.317 59.5899 107.025 63.6733 92.7669 55.4422C85.6784 51.3501 83.9096 48.381 84.0035 46.3927V40.8978C83.8922 38.4985 86.4724 37.4075 86.4724 37.4075L98.7907 30.2961C106.241 25.9951 113.7 30.4428 113.7 30.4428L127.195 38.2333C135.287 42.905 142.994 38.1599 142.994 38.1599L149.67 34.306L154.422 37.0496C154.422 37.0496 156.981 38.3489 156.899 40.8978L156.897 46.3927C157 48.498 155.305 51.528 148.51 55.4512C134.123 63.7565 126.034 57.8922 126.034 57.8922L118.707 53.6623V55.8828L112.317 59.5899Z" fill="#FFA901"/>
<path d="M118.707 50.089L112.317 53.7961C112.317 53.7961 107.025 57.8795 92.7669 49.6484C86.0253 45.7565 84.0954 42.8804 84.0035 40.8978M118.707 50.089L105.101 42.2341L107.024 41.1239L126.034 52.0984C126.034 52.0984 134.123 57.9627 148.51 49.6574C154.99 45.9162 156.832 42.9872 156.899 40.8978M118.707 50.089L118.707 53.6623M84.0035 40.8978C83.8922 38.4985 86.4724 37.4075 86.4724 37.4075L98.7907 30.2961C106.241 25.9951 113.7 30.4428 113.7 30.4428L127.195 38.2333C135.287 42.905 142.994 38.1599 142.994 38.1599L149.67 34.306L154.422 37.0496C154.422 37.0496 156.981 38.3489 156.899 40.8978M84.0035 40.8978V46.3927C83.9096 48.381 85.6784 51.3501 92.7669 55.4422C107.025 63.6733 112.317 59.5899 112.317 59.5899L118.707 55.8828V53.6623M156.899 40.8978L156.897 46.3927C157 48.498 155.305 51.528 148.51 55.4512C134.123 63.7565 126.034 57.8922 126.034 57.8922L118.707 53.6623" stroke="#1A1B1D" stroke-linejoin="round"/>
<path d="M91.3301 38.2966L86.5776 35.553C86.5776 35.553 84.2582 34.3752 84.1066 32.0627L84.1066 26.2688C83.9686 24.1613 85.631 21.1113 92.4906 17.1512C106.877 8.84618 114.965 14.7106 114.965 14.7106L122.293 18.9406V16.7201L128.683 13.0129C128.683 13.0129 133.975 8.92947 148.233 17.1605C155.392 21.2933 157.125 24.2804 156.993 26.2688V32.0627C156.851 34.2129 154.527 35.1952 154.527 35.1952L142.209 42.3065C134.759 46.6073 127.3 42.1597 127.3 42.1597L113.805 34.3692C105.713 29.6975 98.0059 34.4426 98.0059 34.4426L91.3301 38.2966Z" fill="#0A6190"/>
<path d="M135.899 30.3686L133.975 31.4789L114.965 20.5044M91.3301 32.5028L86.5776 29.7592C86.5776 29.7592 84.2582 28.5814 84.1066 26.2688M113.805 28.5754L127.3 36.3659C127.3 36.3659 134.759 40.8135 142.209 36.5127M84.1066 26.2688C83.9686 24.1613 85.631 21.1113 92.4906 17.1512C106.877 8.84619 114.965 14.7106 114.965 14.7106L122.293 18.9406V16.7201L128.683 13.0129C128.683 13.0129 133.975 8.92947 148.233 17.1605C155.392 21.2933 157.125 24.2804 156.993 26.2688V32.0627C156.851 34.2129 154.527 35.1952 154.527 35.1952L142.209 42.3065C134.759 46.6073 127.3 42.1597 127.3 42.1597L113.805 34.3692C105.713 29.6975 98.0059 34.4426 98.0059 34.4426L91.3301 38.2966L86.5776 35.553C86.5776 35.553 84.2582 34.3752 84.1066 32.0627L84.1066 26.2688Z" stroke="#1A1B1D" stroke-linejoin="round"/>
<path d="M148.233 17.1605C133.975 8.92947 128.683 13.0129 128.683 13.0129L122.293 16.7201L135.899 24.5748L133.975 25.6851L114.965 14.7106C114.965 14.7106 106.877 8.84619 92.4906 17.1512C78.1041 25.4565 86.5776 29.7592 86.5776 29.7592L91.3301 32.5028L98.0059 28.6488C98.0059 28.6488 105.713 23.9037 113.805 28.5754L127.3 36.3659C127.3 36.3659 134.759 40.8135 142.209 36.5127L154.527 29.4014C154.527 29.4014 163.134 25.7625 148.233 17.1605ZM136.423 15.3163C136.745 15.5017 137 15.722 137.174 15.9645C137.349 16.2069 137.438 16.4669 137.438 16.7293C137.438 16.9918 137.349 17.2518 137.174 17.4942C137 17.7367 136.745 17.957 136.423 18.1424C136.102 18.3282 135.72 18.4756 135.3 18.5761C134.88 18.6767 134.43 18.7285 133.975 18.7285C133.521 18.7285 133.071 18.6767 132.651 18.5761C132.231 18.4756 131.849 18.3282 131.528 18.1424C131.206 17.957 130.951 17.7367 130.776 17.4942C130.602 17.2518 130.513 16.9918 130.513 16.7293C130.513 16.4669 130.602 16.2069 130.776 15.9645C130.951 15.722 131.206 15.5017 131.528 15.3163C131.849 15.1305 132.231 14.9831 132.651 14.8826C133.071 14.782 133.521 14.7302 133.975 14.7302C134.43 14.7302 134.88 14.782 135.3 14.8826C135.72 14.9831 136.102 15.1305 136.423 15.3163Z" fill="#5DB3BF" stroke="#1A1B1D" stroke-linejoin="round"/>
<path d="M92.767 49.6484C107.025 57.8795 112.318 53.7961 112.318 53.7961L118.707 50.089L105.101 42.2341L107.024 41.1239L126.034 52.0984C126.034 52.0984 134.123 57.9627 148.51 49.6574C162.896 41.3523 154.422 37.0496 154.422 37.0496L149.67 34.306L142.994 38.1599C142.994 38.1599 135.287 42.905 127.195 38.2333L113.7 30.4428C113.7 30.4428 106.241 25.9951 98.7908 30.2961L86.4725 37.4075C86.4725 37.4075 77.8668 41.0466 92.767 49.6484ZM104.577 51.4929C104.255 51.3074 104 51.0872 103.825 50.8447C103.651 50.6023 103.562 50.3423 103.562 50.0798C103.562 49.8173 103.651 49.5574 103.825 49.315C104 49.0725 104.255 48.8522 104.577 48.6668C104.898 48.481 105.279 48.3336 105.699 48.233C106.119 48.1324 106.57 48.0806 107.024 48.0806C107.479 48.0806 107.929 48.1323 108.349 48.2329C108.769 48.3335 109.151 48.4809 109.472 48.6667C109.794 48.8521 110.049 49.0724 110.224 49.3148C110.398 49.5573 110.487 49.8172 110.487 50.0797C110.487 50.3422 110.398 50.6021 110.224 50.8446C110.049 51.0871 109.794 51.3073 109.472 51.4928C109.151 51.6785 108.77 51.8259 108.35 51.9265C107.93 52.0271 107.479 52.0788 107.025 52.0788C106.57 52.0788 106.12 52.0271 105.7 51.9265C105.28 51.8259 104.898 51.6787 104.577 51.4929Z" fill="#FFC450" stroke="#1A1B1D" stroke-linejoin="round"/>
</g>
</svg>
