<svg width="166" height="137" viewBox="0 0 166 137" fill="none" xmlns="http://www.w3.org/2000/svg">
    <path
        d="M127.764 117.115L139.565 110.306C146.283 106.404 150.425 98.0693 150.416 86.2006C150.397 62.2993 133.565 33.1532 112.816 21.0751C102.375 14.9981 92.9318 14.4014 86.1286 18.3566L74.3306 25.1641C81.1338 21.2089 90.5751 21.8027 101.016 27.8797C121.766 39.9577 138.599 69.1144 138.617 93.0051C138.626 104.874 134.473 113.198 127.764 117.115Z"
        fill="#E7FAFB" stroke="#151E29" stroke-width="1.33967" stroke-linejoin="round" />
    <path
        d="M101.077 114.396C121.826 126.474 138.634 116.896 138.616 93.0048C138.599 69.114 121.765 39.9573 101.016 27.8793C80.2669 15.8013 63.4621 25.3781 63.4766 49.2705C63.491 73.163 80.3276 102.318 101.077 114.396Z"
        fill="white" stroke="#151E29" stroke-width="1.33967" stroke-linejoin="round" />
    <path
        d="M101.308 51.6662L115.119 87.7177C114.803 87.8808 114.532 88.122 114.314 88.4338L101.308 51.6662ZM101.308 51.6662C100.902 51.5615 100.474 51.3795 100.03 51.1156L101.308 51.6662ZM103.773 49.7307L103.673 50.0648L103.889 50.3387L114.441 63.706L114.816 64.1809L115.326 63.8561C115.532 63.7251 115.775 63.6432 116.056 63.6206C116.887 63.5599 117.957 64.017 119.024 64.985C120.074 65.9369 121.031 67.3062 121.63 68.8634C122.226 70.4237 122.318 71.7991 122.062 72.7578C121.814 73.6875 121.271 74.1703 120.526 74.2313C120.244 74.2522 119.92 74.2134 119.561 74.1L118.69 73.8247V74.7387V88.9228V89.2262L118.918 89.4263C119.307 89.7683 119.686 90.1687 120.039 90.6161C121.078 91.9316 121.768 93.4562 122.05 94.8444C122.336 96.2571 122.178 97.4068 121.696 98.085L121.694 98.0887C121.267 98.6982 120.578 98.9195 119.649 98.6561C118.691 98.3849 117.553 97.5997 116.517 96.2899L116.517 96.2897C116.119 95.7876 115.759 95.2345 115.453 94.6523L115.248 94.2625L114.809 94.2963L104.321 95.1024L103.536 95.1628L103.721 95.9283C103.864 96.5162 103.934 97.0753 103.934 97.5845V97.5851C103.934 98.9108 103.476 99.6563 102.933 99.9661C102.391 100.275 101.518 100.292 100.372 99.6105C99.231 98.9314 98.162 97.7536 97.3769 96.3728C96.5918 94.9921 96.1262 93.4711 96.1262 92.1432C96.1262 91.6742 96.1842 91.2727 96.2835 90.9382L96.3823 90.6052L96.1671 90.3325L85.6177 76.9689L85.2458 76.4978L84.7369 76.816C84.5336 76.9431 84.2948 77.0228 84.0184 77.0453C83.1787 77.1027 82.105 76.6418 81.0389 75.675C79.9892 74.723 79.0357 73.356 78.4429 71.8035C77.8471 70.2429 77.7546 68.8671 78.0106 67.9081C78.2589 66.9783 78.8015 66.4954 79.5467 66.4344C79.8258 66.4137 80.1459 66.4515 80.5007 66.5622L81.3701 66.8335V65.9228V51.7389V51.4347L81.141 51.2345C80.7469 50.8901 80.3645 50.486 80.007 50.0338L80.0068 50.0335C78.9759 48.7307 78.2883 47.2086 78.0068 45.8176C77.7203 44.402 77.8751 43.2445 78.3529 42.5617C78.7795 41.9521 79.4687 41.7307 80.398 41.9941C81.3549 42.2653 82.493 43.0503 83.5292 44.3597C83.8873 44.8143 84.2148 45.3101 84.5008 45.8313L84.7086 46.21L85.1394 46.1769L95.6947 45.3653L96.4631 45.3062L96.2975 44.5535C96.1822 44.0295 96.1258 43.531 96.1262 43.0734V43.0728C96.1262 41.7384 96.5848 40.9945 97.1257 40.6869C97.6666 40.3793 98.5404 40.3653 99.6874 41.0477C100.829 41.7267 101.898 42.9046 102.683 44.2852C103.468 45.6659 103.934 47.1868 103.934 48.5148C103.934 48.989 103.874 49.394 103.773 49.7307ZM103.841 51.0389L103.474 50.5747L102.968 50.8808C102.94 50.8979 102.912 50.9139 102.884 50.9284L102.353 51.204L102.567 51.7626L116.381 87.8228L116.504 88.1438L116.837 88.2311C116.888 88.2444 116.937 88.2583 116.985 88.2733L117.854 88.5444V87.6338V73.4321V73.1302L117.628 72.9303C116.548 71.9752 115.56 70.5785 114.953 68.9895L114.953 68.9889C114.665 68.238 114.485 67.497 114.417 66.8119C114.349 66.1251 114.396 65.5244 114.536 65.0382L114.631 64.7077L114.418 64.4378L103.841 51.0389ZM97.4181 48.1507L97.6665 47.7978L97.448 47.4258C97.4067 47.3555 97.3658 47.2836 97.3252 47.2106L97.1165 46.8355L96.6885 46.8684L86.1141 47.6813L85.349 47.7401L85.5107 48.4903C85.668 49.2205 85.709 49.8947 85.6441 50.4741C85.5791 51.0546 85.4119 51.5075 85.1845 51.831L85.1836 51.8322C84.7486 52.454 84.0359 52.6749 83.0714 52.3801L82.2057 52.1154V53.0206V67.2238V67.5264L82.4328 67.7264C82.4885 67.7755 82.544 67.8257 82.5992 67.8772L83.1613 68.4007L83.6035 67.7727L97.4181 48.1507ZM101.933 51.4266L101.81 51.1039L101.475 51.0176C101.14 50.9312 100.77 50.7766 100.372 50.5399L100.372 50.5396C99.9867 50.3109 99.5956 50.0154 99.212 49.6587L98.65 49.136L98.2081 49.7636L84.394 69.3853L84.1459 69.7377L84.3639 70.1096C84.6606 70.6159 84.9152 71.1439 85.1202 71.6771C85.3239 72.21 85.4747 72.7398 85.5695 73.2498L85.625 73.548L85.8856 73.703L113.49 90.1257L114.272 90.5914L114.484 89.7053C114.57 89.3429 114.702 89.048 114.862 88.8185L114.863 88.8171C115.023 88.5883 115.213 88.4229 115.426 88.3131L115.959 88.0383L115.745 87.4781L101.933 51.4266ZM102.821 93.6065L103.027 93.9926L103.464 93.9591L113.972 93.1511L114.752 93.0912L114.573 92.33C114.544 92.2057 114.518 92.0825 114.495 91.9606L114.439 91.663L114.179 91.5082L86.5647 75.0795L85.7847 74.6154L85.5712 75.4975C85.5591 75.5472 85.5459 75.5963 85.5316 75.6456L85.4351 75.977L85.649 76.2479L96.2091 89.6251L96.5782 90.0927L97.0857 89.7806C97.3702 89.6056 97.731 89.5211 98.1721 89.5656C98.6188 89.6107 99.1343 89.7879 99.6865 90.1175L99.6882 90.1186C100.258 90.4563 100.837 90.9388 101.382 91.5429C101.926 92.1462 102.417 92.8494 102.821 93.6065Z"
        fill="#D346A7" stroke="#D346A7" stroke-width="1.33967" />
</svg>