<svg width="236" height="236" viewBox="0 0 236 236" fill="none" xmlns="http://www.w3.org/2000/svg">
<path fill-rule="evenodd" clip-rule="evenodd" d="M49.4589 102.723L63.9292 111.125L64.1858 202.642L64.151 202.629L64.1733 202.642C64.1103 203.312 64.224 203.986 64.5031 204.598C64.7822 205.211 65.217 205.739 65.764 206.131L51.3066 197.728C50.7575 197.335 50.3214 196.805 50.0422 196.19C49.7631 195.576 49.6506 194.899 49.7158 194.227L49.7155 194.227L49.4589 102.723Z" fill="#F5F6F6"/>
<path d="M63.9292 111.125L64.1803 110.693C64.3339 110.782 64.4287 110.946 64.4292 111.124L63.9292 111.125ZM49.4589 102.723L48.9589 102.724C48.9584 102.545 49.0537 102.379 49.2088 102.29C49.3639 102.2 49.5551 102.2 49.71 102.29L49.4589 102.723ZM64.1858 202.642L64.6858 202.641C64.6862 202.806 64.605 202.961 64.4688 203.054C64.3325 203.148 64.1589 203.168 64.0048 203.108L64.1858 202.642ZM64.151 202.629L63.8994 203.061C63.6739 202.929 63.5873 202.647 63.7005 202.412C63.8137 202.177 64.0887 202.068 64.332 202.162L64.151 202.629ZM64.1733 202.642L64.4249 202.209C64.5933 202.308 64.6894 202.494 64.6711 202.688L64.1733 202.642ZM64.5031 204.598L64.0482 204.806H64.0482L64.5031 204.598ZM65.764 206.131L66.0552 205.724C66.2722 205.88 66.3288 206.178 66.1839 206.402C66.039 206.626 65.7436 206.697 65.5128 206.563L65.764 206.131ZM51.3066 197.728L51.0553 198.161C51.0417 198.153 51.0284 198.144 51.0156 198.135L51.3066 197.728ZM50.0422 196.19L49.587 196.397L49.587 196.397L50.0422 196.19ZM49.7158 194.227L50.0197 193.83C50.1569 193.935 50.2301 194.103 50.2134 194.275L49.7158 194.227ZM49.7155 194.227L49.4116 194.624C49.2884 194.529 49.2159 194.383 49.2155 194.228L49.7155 194.227ZM63.6781 111.558L49.2078 103.155L49.71 102.29L64.1803 110.693L63.6781 111.558ZM63.6858 202.643L63.4292 111.127L64.4292 111.124L64.6858 202.641L63.6858 202.643ZM64.332 202.162L64.3667 202.176L64.0048 203.108L63.9701 203.095L64.332 202.162ZM63.9218 203.074L63.8994 203.061L64.4026 202.196L64.4249 202.209L63.9218 203.074ZM64.0482 204.806C63.7328 204.114 63.6043 203.352 63.6755 202.595L64.6711 202.688C64.6163 203.271 64.7152 203.858 64.9581 204.391L64.0482 204.806ZM65.4729 206.537C64.8548 206.095 64.3636 205.498 64.0482 204.806L64.9581 204.391C65.2009 204.924 65.5792 205.383 66.0552 205.724L65.4729 206.537ZM51.5578 197.296L66.0153 205.699L65.5128 206.563L51.0553 198.161L51.5578 197.296ZM50.4974 195.983C50.7404 196.518 51.1198 196.98 51.5975 197.322L51.0156 198.135C50.3952 197.691 49.9025 197.092 49.587 196.397L50.4974 195.983ZM50.2134 194.275C50.1567 194.86 50.2546 195.449 50.4974 195.983L49.587 196.397C49.2716 195.703 49.1445 194.938 49.2181 194.179L50.2134 194.275ZM50.0194 193.83L50.0197 193.83L49.4119 194.624L49.4116 194.624L50.0194 193.83ZM49.9589 102.721L50.2155 194.225L49.2155 194.228L48.9589 102.724L49.9589 102.721Z" fill="#1A1B1D"/>
<path fill-rule="evenodd" clip-rule="evenodd" d="M168.045 29.8451L182.502 38.2477C181.885 37.9689 181.206 37.8576 180.532 37.9251C179.859 37.9927 179.215 38.2369 178.666 38.6326L174.13 41.2289L69.3694 101.709L54.8991 93.3066L164.157 30.2172L164.188 30.2349L164.196 30.2301C164.747 29.832 165.393 29.5867 166.068 29.5191C166.744 29.4515 167.426 29.5639 168.045 29.8451Z" fill="#F5F6F6"/>
<path d="M182.502 38.2477L182.753 37.8154L182.296 38.7033L182.502 38.2477ZM168.045 29.8451L168.252 29.39L168.274 29.4003L168.296 29.4129L168.045 29.8451ZM180.532 37.9251L180.483 37.4276L180.532 37.9251ZM178.666 38.6326L178.959 39.0382L178.937 39.0536L178.915 39.0666L178.666 38.6326ZM174.13 41.2289L173.881 40.7959L173.882 40.7949L174.13 41.2289ZM69.3694 101.709L69.6194 102.142L69.3687 102.287L69.1183 102.142L69.3694 101.709ZM54.8991 93.3066L54.648 93.739L53.9013 93.3054L54.6491 92.8736L54.8991 93.3066ZM164.157 30.2172L163.907 29.7842L164.158 29.6393L164.409 29.785L164.157 30.2172ZM164.188 30.2349L164.443 30.6649L164.19 30.8147L163.937 30.6671L164.188 30.2349ZM164.196 30.2301L164.489 30.6352L164.471 30.6485L164.451 30.6601L164.196 30.2301ZM166.068 29.5191L166.019 29.0216V29.0216L166.068 29.5191ZM182.251 38.68L167.793 30.2774L168.296 29.4129L182.753 37.8154L182.251 38.68ZM180.483 37.4276C181.244 37.3513 182.011 37.4771 182.708 37.7921L182.296 38.7033C181.759 38.4607 181.168 38.3639 180.582 38.4226L180.483 37.4276ZM178.374 38.227C178.994 37.7799 179.722 37.504 180.483 37.4276L180.582 38.4226C179.997 38.4814 179.436 38.6938 178.959 39.0382L178.374 38.227ZM173.882 40.7949L178.418 38.1987L178.915 39.0666L174.379 41.6628L173.882 40.7949ZM69.1194 101.276L173.881 40.7959L174.38 41.6619L69.6194 102.142L69.1194 101.276ZM55.1502 92.8742L69.6205 101.277L69.1183 102.142L54.648 93.739L55.1502 92.8742ZM164.408 30.6502L55.1491 93.7396L54.6491 92.8736L163.907 29.7842L164.408 30.6502ZM163.937 30.6671L163.906 30.6494L164.409 29.785L164.439 29.8027L163.937 30.6671ZM164.451 30.6601L164.443 30.6649L163.933 29.8049L163.941 29.8L164.451 30.6601ZM166.118 30.0166C165.53 30.0754 164.968 30.2888 164.489 30.6352L163.903 29.8249C164.525 29.3751 165.255 29.098 166.019 29.0216L166.118 30.0166ZM167.838 30.3003C167.3 30.0556 166.706 29.9578 166.118 30.0166L166.019 29.0216C166.782 28.9452 167.553 29.0722 168.252 29.39L167.838 30.3003Z" fill="#1A1B1D"/>
<path d="M69.3695 101.709C67.7807 102.735 66.4582 104.124 65.5104 105.761C64.5626 107.398 64.0167 109.236 63.9175 111.125L64.1742 202.642C64.1742 206.105 66.6371 207.491 69.6646 205.746L178.923 142.67C180.509 141.64 181.829 140.251 182.777 138.615C183.724 136.979 184.272 135.142 184.375 133.254L184.106 41.7498C184.106 38.2861 181.643 36.8879 178.628 38.6326L69.3695 101.709Z" fill="#8FE3E8" stroke="#1A1B1D"/>
<mask id="mask0_4671_4240" style="mask-type:alpha" maskUnits="userSpaceOnUse" x="63" y="37" width="122" height="171">
<path d="M69.3695 101.709C67.7807 102.735 66.4582 104.124 65.5104 105.761C64.5626 107.398 64.0167 109.236 63.9175 111.125L64.1742 202.642C64.1742 206.105 66.6371 207.491 69.6646 205.746L178.923 142.67C180.509 141.64 181.829 140.251 182.777 138.615C183.724 136.979 184.272 135.142 184.375 133.254L184.106 41.7498C184.106 38.2861 181.643 36.8879 178.628 38.6326L69.3695 101.709Z" fill="#F5F7FA" stroke="black"/>
</mask>
<g mask="url(#mask0_4671_4240)">
<path d="M67.7737 96.8387L168.498 154.987M45.6258 109.625L146.35 167.773M23.4779 122.411L124.202 180.559M1.32993 135.197L102.054 193.345M-0.673093 159.612L110.067 95.6824M19.4718 171.242L130.211 107.312M39.6167 182.872L150.356 118.942M59.7616 194.501L170.501 130.571M89.9216 84.0527L190.646 142.201L79.9065 206.131L-20.818 147.983L89.9216 84.0527Z" stroke="#E7FAFB"/>
<path d="M168.256 95.9425L153.5 120.434L138.32 120.502L153.083 96.0128L168.256 95.9425Z" fill="#8FE3E8" stroke="#0A6190" stroke-linejoin="round"/>
<path d="M137.938 120.689L117.025 103.413L131.819 78.9791L152.742 96.2502L137.938 120.689Z" fill="#0A6190" stroke="#0A6190" stroke-linejoin="round"/>
<path d="M152.745 95.8337L131.594 78.7918L146.956 78.7103L168.1 95.7502L152.745 95.8337Z" fill="#E7FAFB" stroke="#0A6190" stroke-linejoin="round"/>
<path d="M97.9951 117.298L121.557 103.695L133.338 96.893L136.237 95.2194L145.118 100.341L145.113 168.737L97.9892 195.944L97.9951 117.298Z" fill="white" stroke="#1A1B1D" stroke-linejoin="round"/>
<path d="M102.259 119.762L125.821 106.159L137.602 99.3569L140.501 97.6833L149.382 102.805L149.377 171.201L102.253 198.408L102.259 119.762Z" fill="white" stroke="#1A1B1D" stroke-linejoin="round"/>
<path d="M107.091 122.565L130.653 108.961L142.434 102.16L145.333 100.486L154.215 105.608L154.21 174.003L107.086 201.21L107.091 122.565Z" fill="white"/>
<path d="M145.333 100.486L142.434 102.16L130.653 108.961L107.091 122.565L107.086 201.21L154.21 174.003L154.215 105.608M145.333 100.486L145.332 110.736L154.215 105.608M145.333 100.486L154.215 105.608" stroke="#1A1B1D" stroke-linejoin="round"/>
<path d="M114.095 134.492L138.93 120.153M147.208 124.565L114.094 143.683" stroke="#1A1B1D" stroke-linecap="round" stroke-linejoin="round"/>
<path d="M114.094 152.874L147.207 133.756" stroke="#1A1B1D" stroke-linecap="round" stroke-linejoin="round"/>
<path d="M114.094 162.065L147.207 142.947" stroke="#1A1B1D" stroke-linecap="round" stroke-linejoin="round"/>
<path d="M147.207 152.138L114.094 171.256" stroke="#1A1B1D" stroke-linecap="round" stroke-linejoin="round"/>
<path d="M91.2279 156.605L112.848 185.096L105.889 202.898L84.2746 174.4L91.2279 156.605Z" fill="#8FE3E8" stroke="#0A6190" stroke-linejoin="round"/>
<path d="M105.899 202.913L76.1189 219.432L54.5073 190.944L84.2861 174.412L105.899 202.913Z" fill="#0A6190" stroke="#0A6190" stroke-linejoin="round"/>
<path d="M84.2688 174.412L54.5002 190.953L61.4548 173.144L91.2178 156.611L84.2688 174.412Z" fill="#E7FAFB" stroke="#0A6190" stroke-linejoin="round"/>
<path d="M69.3695 101.709C67.7807 102.735 66.4582 104.124 65.5104 105.761C64.5626 107.398 64.0167 109.236 63.9175 111.125L64.1742 202.642C64.1742 206.105 66.6371 207.491 69.6646 205.746L178.923 142.67C180.509 141.64 181.829 140.251 182.777 138.615C183.724 136.979 184.272 135.142 184.375 133.254L184.106 41.7498C184.106 38.2861 181.643 36.8879 178.628 38.6326L69.3695 101.709Z" stroke="#1A1B1D"/>
</g>
<path d="M49.4463 102.723C49.5475 100.834 50.0944 98.9965 51.042 97.3599C51.9896 95.7234 53.311 94.3345 54.8983 93.3066L69.3687 101.709C67.7799 102.736 66.4573 104.124 65.5095 105.761C64.5617 107.398 64.0158 109.236 63.9166 111.125" stroke="#1A1B1D" stroke-linejoin="round"/>
<path d="M69.3687 101.709L54.8983 93.3066C53.311 94.3345 51.9896 95.7234 51.042 97.3599C50.0944 98.9965 49.5475 100.834 49.4463 102.723L63.9166 111.125C64.0158 109.236 64.5617 107.398 65.5095 105.761C66.4573 104.124 67.7799 102.736 69.3687 101.709Z" fill="#F5F6F6" stroke="#1A1B1D" stroke-linejoin="round"/>
<path d="M65.5105 105.761C66.4583 104.124 67.7808 102.736 69.3696 101.71L178.628 38.6331C181.643 36.8884 184.106 38.2866 184.106 41.7502L184.14 54.7816L63.9498 124.159L63.9176 111.126C64.0168 109.237 64.5627 107.398 65.5105 105.761Z" fill="#F5F6F6" stroke="#1A1B1D"/>
<circle cx="3.84848" cy="3.84848" r="3.84848" transform="matrix(-1 0 0 1 99.1597 93.3066)" fill="#8FE3E8" stroke="#1A1B1D"/>
<circle cx="3.84848" cy="3.84848" r="3.84848" transform="matrix(-1 0 0 1 88.1124 99.7119)" fill="#80BB53" stroke="#1A1B1D"/>
<circle cx="3.84848" cy="3.84848" r="3.84848" transform="matrix(-1 0 0 1 77.0654 106.117)" fill="#FFB422" stroke="#1A1B1D"/>
</svg>
