<svg width="83" height="89" viewBox="0 0 83 89" fill="none" xmlns="http://www.w3.org/2000/svg">
    <path opacity="0.1"
        d="M78.1688 59.912C83.6598 63.0777 83.6878 68.2051 78.1688 71.3848L51.6525 86.7932C48.5822 88.3543 45.1864 89.1679 41.742 89.1679C38.2976 89.1679 34.902 88.3543 31.8317 86.7932L5.13327 71.3848C-0.343704 68.2191 -0.385727 63.0917 5.13327 59.912L31.6636 44.5036C34.7314 42.9426 38.1248 42.1289 41.5669 42.1289C45.009 42.1289 48.4025 42.9426 51.4704 44.5036L78.1688 59.912Z"
        fill="#006FD6" />
    <path fill-rule="evenodd" clip-rule="evenodd"
        d="M1 24.0742V46.907C1 48.9769 2.35018 51.0605 5.13251 52.6524L5.13243 52.6779L31.8449 68.1003L31.901 45.2679L5.20247 29.8455L5.20228 29.9064V29.8455C2.40076 28.2767 1 26.1614 1 24.0742Z"
        fill="#7AD1FF" />
    <path
        d="M1.5 24.0742C1.5 23.7981 1.27614 23.5742 1 23.5742C0.723858 23.5742 0.5 23.7981 0.5 24.0742H1.5ZM5.13251 52.6524L5.63251 52.6539C5.63306 52.474 5.53694 52.3077 5.38081 52.2184L5.13251 52.6524ZM5.13243 52.6779L4.63243 52.6764C4.63188 52.8555 4.72726 53.0213 4.88243 53.1109L5.13243 52.6779ZM31.8449 68.1003L31.5949 68.5333C31.7494 68.6225 31.9398 68.6226 32.0944 68.5336C32.249 68.4446 32.3445 68.2799 32.3449 68.1015L31.8449 68.1003ZM31.901 45.2679L32.401 45.2691C32.4014 45.0901 32.3061 44.9245 32.1511 44.8349L31.901 45.2679ZM5.20247 29.8455L5.45257 29.4125C5.29811 29.3233 5.10781 29.3231 4.95318 29.4121C4.79855 29.501 4.70302 29.6656 4.70247 29.844L5.20247 29.8455ZM5.20228 29.9064H4.70228C4.70228 30.1823 4.92567 30.406 5.20152 30.4064C5.47736 30.4069 5.70143 30.1838 5.70228 29.908L5.20228 29.9064ZM5.20228 29.8455H5.70228C5.70228 29.6645 5.60449 29.4977 5.44658 29.4093L5.20228 29.8455ZM1.5 46.907V24.0742H0.5V46.907H1.5ZM5.38081 52.2184C2.69289 50.6805 1.5 48.7367 1.5 46.907H0.5C0.5 49.2171 2.00746 51.4404 4.8842 53.0863L5.38081 52.2184ZM5.63243 52.6794L5.63251 52.6539L4.63251 52.6508L4.63243 52.6764L5.63243 52.6794ZM32.0949 67.6673L5.38243 52.2449L4.88243 53.1109L31.5949 68.5333L32.0949 67.6673ZM31.401 45.2666L31.3449 68.099L32.3449 68.1015L32.401 45.2691L31.401 45.2666ZM4.95237 30.2785L31.6509 45.7008L32.1511 44.8349L5.45257 29.4125L4.95237 30.2785ZM5.70228 29.908L5.70247 29.847L4.70247 29.844L4.70228 29.9049L5.70228 29.908ZM4.70228 29.8455V29.9064H5.70228V29.8455H4.70228ZM0.5 24.0742C0.5 26.4048 2.06191 28.66 4.95798 30.2818L5.44658 29.4093C2.73961 27.8934 1.5 25.9179 1.5 24.0742H0.5Z"
        fill="#0056B3" />
    <path fill-rule="evenodd" clip-rule="evenodd"
        d="M82.2969 24.2422V47.075C82.2969 49.1448 80.9468 51.2283 78.1646 52.8202L78.1647 52.8457L51.4522 68.2681L51.3962 45.4357L78.0946 30.0133L78.0947 30.0135C80.8961 28.4446 82.2969 26.3293 82.2969 24.2422Z"
        fill="#A3E2FF" />
    <path
        d="M81.7969 24.2422C81.7969 23.966 82.0207 23.7422 82.2969 23.7422C82.573 23.7422 82.7969 23.966 82.7969 24.2422H81.7969ZM78.1646 52.8202L77.6646 52.8217C77.6641 52.6418 77.7602 52.4755 77.9163 52.3862L78.1646 52.8202ZM78.1647 52.8457L78.6647 52.8442C78.6652 53.0234 78.5699 53.1891 78.4147 53.2787L78.1647 52.8457ZM51.4522 68.2681L51.7022 68.7011C51.5477 68.7903 51.3573 68.7904 51.2027 68.7014C51.0481 68.6124 50.9526 68.4477 50.9522 68.2693L51.4522 68.2681ZM51.3962 45.4357L50.8962 45.4369C50.8957 45.2579 50.991 45.0923 51.1461 45.0027L51.3962 45.4357ZM78.0946 30.0133L77.8446 29.5804C77.999 29.4912 78.1892 29.491 78.3438 29.5798C78.4985 29.6687 78.594 29.8332 78.5946 30.0116L78.0946 30.0133ZM78.0947 30.0135L78.339 30.4497C78.1844 30.5363 77.9956 30.5346 77.8426 30.4453C77.6896 30.356 77.5953 30.1924 77.5947 30.0152L78.0947 30.0135ZM81.7969 47.075V24.2422H82.7969V47.075H81.7969ZM77.9163 52.3862C80.6041 50.8483 81.7969 48.9046 81.7969 47.075H82.7969C82.7969 49.3851 81.2895 51.6083 78.4129 53.2542L77.9163 52.3862ZM77.6647 52.8472L77.6646 52.8217L78.6646 52.8187L78.6647 52.8442L77.6647 52.8472ZM51.2022 67.8351L77.9147 52.4127L78.4147 53.2787L51.7022 68.7011L51.2022 67.8351ZM51.8962 45.4345L51.9522 68.2669L50.9522 68.2693L50.8962 45.4369L51.8962 45.4345ZM78.3447 30.4463L51.6462 45.8686L51.1461 45.0027L77.8446 29.5804L78.3447 30.4463ZM77.5947 30.0152L77.5947 30.0151L78.5946 30.0116L78.5946 30.0117L77.5947 30.0152ZM82.7969 24.2422C82.7969 26.5728 81.235 28.8279 78.339 30.4497L77.8503 29.5772C80.5573 28.0613 81.7969 26.0858 81.7969 24.2422H82.7969Z"
        fill="#0056B3" />
    <path
        d="M78.1688 18.3866C83.6598 21.5523 83.6878 26.6797 78.1688 29.8594L51.6525 45.2678C48.5822 46.8289 45.1864 47.6425 41.742 47.6425C38.2976 47.6425 34.902 46.8289 31.8317 45.2678L5.13327 29.8594C-0.343704 26.6937 -0.385727 21.5663 5.13327 18.3866L31.6636 2.97824C34.7314 1.41724 38.1248 0.603516 41.5669 0.603516C45.009 0.603516 48.4025 1.41724 51.4704 2.97824L78.1688 18.3866Z"
        fill="white" stroke="#0056B3" stroke-linejoin="round" />
    <path
        d="M51.7207 45.2676V68.0997C48.6548 69.6673 45.2607 70.4847 41.8174 70.4847C38.374 70.4847 34.9799 69.6673 31.9141 68.0997V45.2676C34.9826 46.8264 38.3756 47.6382 41.8174 47.6382C45.2591 47.6382 48.6522 46.8264 51.7207 45.2676Z"
        fill="#7AD1FF" stroke="#0056B3" stroke-linejoin="round" />
    <path
        d="M49.7637 8.19188C45.2787 5.60271 38.0071 5.60271 33.5222 8.19188L8.46374 22.6581C6.96875 23.5212 6.96875 24.9205 8.46374 25.7835L33.5222 40.2498C38.0071 42.8389 45.2787 42.8389 49.7637 40.2498L74.8221 25.7835C76.3171 24.9205 76.3171 23.5212 74.8221 22.6581L49.7637 8.19188Z"
        fill="#A3E2FF" stroke="#0056B3" />
    <path fill-rule="evenodd" clip-rule="evenodd"
        d="M36.596 6.41765C39.3831 4.8087 43.9018 4.8087 46.6888 6.41766L75.0053 22.7648C76.3989 23.5693 76.3989 24.8736 75.0053 25.6781L71.2182 27.8644L44.1656 12.2469C42.7721 11.4424 40.5128 11.4424 39.1192 12.2469L12.0666 27.8644L8.27951 25.6781C6.886 24.8736 6.886 23.5693 8.27951 22.7648L36.596 6.41765Z"
        fill="#7AD1FF" />
    <path
        d="M46.6888 6.41766L46.9388 5.98463V5.98463L46.6888 6.41766ZM36.596 6.41765L36.846 6.85068L36.596 6.41765ZM75.0053 22.7648L74.7554 23.1978L75.0053 22.7648ZM75.0053 25.6781L74.7554 25.245V25.245L75.0053 25.6781ZM71.2182 27.8644L70.9682 28.2974L71.2182 28.4417L71.4682 28.2974L71.2182 27.8644ZM44.1656 12.2469L44.4156 11.8139L44.1656 12.2469ZM39.1192 12.2469L38.8693 11.8139L39.1192 12.2469ZM12.0666 27.8644L11.8166 28.2974L12.0666 28.4417L12.3166 28.2974L12.0666 27.8644ZM8.27951 25.6781L8.5295 25.245H8.5295L8.27951 25.6781ZM8.27951 22.7648L8.02953 22.3318H8.02953L8.27951 22.7648ZM46.9388 5.98463C45.4514 5.12595 43.5334 4.71094 41.6424 4.71094C39.7515 4.71094 37.8335 5.12595 36.3461 5.98463L36.846 6.85068C38.1457 6.1004 39.8805 5.71094 41.6424 5.71094C43.4044 5.71094 45.1392 6.1004 46.4388 6.85068L46.9388 5.98463ZM75.2553 22.3318L46.9388 5.98463L46.4388 6.85068L74.7554 23.1978L75.2553 22.3318ZM75.2553 26.1111C76.0432 25.6563 76.5505 24.9902 76.5505 24.2214C76.5505 23.4526 76.0432 22.7866 75.2553 22.3318L74.7554 23.1978C75.361 23.5475 75.5505 23.9358 75.5505 24.2214C75.5505 24.507 75.361 24.8954 74.7554 25.245L75.2553 26.1111ZM71.4682 28.2974L75.2553 26.1111L74.7554 25.245L70.9682 27.4313L71.4682 28.2974ZM71.4682 27.4313L44.4156 11.8139L43.9156 12.6799L70.9682 28.2974L71.4682 27.4313ZM44.4156 11.8139C43.625 11.3574 42.6201 11.1435 41.6424 11.1435C40.6647 11.1435 39.6599 11.3574 38.8693 11.8139L39.3692 12.6799C39.9721 12.3319 40.7937 12.1435 41.6424 12.1435C42.4911 12.1435 43.3128 12.3319 43.9156 12.6799L44.4156 11.8139ZM38.8693 11.8139L11.8166 27.4313L12.3166 28.2974L39.3692 12.6799L38.8693 11.8139ZM8.02953 26.1111L11.8166 28.2974L12.3166 27.4313L8.5295 25.245L8.02953 26.1111ZM8.02953 22.3318C7.24169 22.7866 6.73437 23.4526 6.73437 24.2214C6.73437 24.9902 7.24169 25.6563 8.02953 26.1111L8.5295 25.245C7.92382 24.8954 7.73437 24.507 7.73437 24.2214C7.73437 23.9358 7.92382 23.5475 8.5295 23.1978L8.02953 22.3318ZM36.3461 5.98463L8.02953 22.3318L8.5295 23.1978L36.846 6.85068L36.3461 5.98463Z"
        fill="#0056B3" />
    <path opacity="0.3" fill-rule="evenodd" clip-rule="evenodd"
        d="M19.0864 28.0594C17.7794 28.7879 17.7846 29.9692 19.1019 30.6977C20.2505 31.3372 22.0142 31.4191 23.3136 30.9435L31.7005 35.1011C30.7789 36.0426 31.0388 37.2475 32.4803 38.0447C34.2319 39.0199 37.0594 39.0199 38.7972 38.0447C39.2018 37.8191 39.5119 37.561 39.7273 37.2854L46.1079 37.7659C46.2661 37.9702 46.4959 38.1616 46.7973 38.3283C48.0607 39.0317 50.1001 39.0317 51.3536 38.3283C52.3497 37.7731 52.5511 36.9436 51.9578 36.2758L58.4701 31.8505C60.1687 32.5511 62.5684 32.4725 64.0973 31.6145C65.7806 30.6763 65.7739 29.1548 64.0773 28.2166C63.0322 27.6386 61.5917 27.4167 60.2461 27.5508L47.2127 18.9733C48.0935 18.2751 47.9694 17.304 46.8404 16.6797C45.577 15.981 43.5376 15.981 42.2841 16.6797C41.3903 17.1778 41.1363 17.8968 41.5222 18.5217L33.6554 22.2908C31.9161 21.7771 29.7128 21.9265 28.2554 22.7388C26.8245 23.5363 26.5448 24.7311 27.4161 25.6865L23.5394 27.9128C22.2166 27.3347 20.2989 27.3835 19.0864 28.0594ZM46.1895 19.4969C44.9783 19.889 43.4046 19.8019 42.3462 19.2358L34.8772 22.8143C35.7897 23.3612 36.192 24.0754 36.0842 24.7691L42.0536 27.1049C42.1886 26.9692 42.3594 26.8416 42.5662 26.7263C43.7625 26.0595 45.7088 26.0595 46.9145 26.7263C48.1203 27.3931 48.1251 28.4744 46.9288 29.1412C45.7325 29.8124 43.7862 29.8124 42.5804 29.1412C42.0227 28.8327 41.7219 28.4356 41.6781 28.0318L35.6363 25.6677C35.4212 25.9116 35.1316 26.1404 34.7674 26.3434C34.35 26.5776 33.8715 26.7571 33.3603 26.8818L35.35 33.8143C36.5788 33.7744 37.8335 34.0151 38.7765 34.5366C39.6614 35.0259 40.101 35.6689 40.0954 36.3103L45.8946 36.747C46.0045 36.3994 46.3004 36.0666 46.7823 35.7979C47.9518 35.1461 49.8054 35.1024 51.0747 35.6669L57.4999 31.3008C56.2993 30.363 56.4523 29.0562 57.9587 28.2166C58.2327 28.0638 58.5348 27.9359 58.8558 27.8329L46.1895 19.4969ZM24.3524 30.3424C24.9488 29.7912 24.9857 29.1049 24.4629 28.5356L28.2785 26.3444C29.3942 26.9649 30.934 27.2006 32.3686 27.0516L34.3379 33.9129C33.7206 34.0148 33.1357 34.1926 32.6306 34.4461L24.3524 30.3424Z"
        fill="#006FD6" />
    <path
        d="M35.5933 33.6168L49.4412 34.1955L61.7414 26.1529L44.3004 15.301L31.5729 19.755M35.5933 33.6168L20.938 26.8931L31.5729 19.755M35.5933 33.6168L31.5729 19.755M31.5729 19.755L44.908 24.3172"
        stroke="#151E29" />
    <circle cx="3.45397" cy="3.45397" r="3.45397"
        transform="matrix(-1 -8.9407e-08 -8.9407e-08 1 48.2012 21.0898)" fill="white" />
    <path opacity="0.5" fill-rule="evenodd" clip-rule="evenodd"
        d="M41.5713 23.1836C42.0453 24.5255 43.3249 25.4871 44.8291 25.4871C46.2537 25.4871 47.4769 24.6245 48.0049 23.3932C48.132 23.7531 48.2012 24.1403 48.2012 24.5437C48.2012 26.4513 46.6548 27.9977 44.7472 27.9977C42.8396 27.9977 41.2932 26.4513 41.2932 24.5437C41.2932 24.0608 41.3923 23.601 41.5713 23.1836Z"
        fill="#D4E7F8" />
    <circle cx="3.45397" cy="3.45397" r="2.95397"
        transform="matrix(-1 -8.9407e-08 -8.9407e-08 1 48.2012 21.0898)" stroke="#151E29" />
    <circle cx="3.45397" cy="3.45397" r="3.45397"
        transform="matrix(-1 -8.9407e-08 -8.9407e-08 1 48.2012 11.7109)" fill="white" />
    <path opacity="0.5" fill-rule="evenodd" clip-rule="evenodd"
        d="M41.5714 13.8047C42.0453 15.1466 43.3249 16.1081 44.8291 16.1081C46.2537 16.1081 47.4769 15.2456 48.0049 14.0143C48.132 14.3742 48.2012 14.7614 48.2012 15.1648C48.2012 17.0724 46.6548 18.6188 44.7472 18.6188C42.8396 18.6188 41.2932 17.0724 41.2932 15.1648C41.2932 14.6819 41.3923 14.2221 41.5714 13.8047Z"
        fill="#D4E7F8" />
    <circle cx="3.45397" cy="3.45397" r="2.95397"
        transform="matrix(-1 -8.9407e-08 -8.9407e-08 1 48.2012 11.7109)" stroke="#151E29" />
    <circle cx="4.89281" cy="4.89281" r="4.89281"
        transform="matrix(-1 -8.9407e-08 -8.9407e-08 1 40.5215 27.6641)" fill="white" />
    <path opacity="0.5" fill-rule="evenodd" clip-rule="evenodd"
        d="M31.1299 30.6309C31.8012 32.5319 33.614 33.8941 35.7448 33.8941C37.7628 33.8941 39.4955 32.6724 40.2436 30.9283C40.4236 31.438 40.5215 31.9865 40.5215 32.5578C40.5215 35.2601 38.3309 37.4507 35.6287 37.4507C32.9264 37.4507 30.7359 35.2601 30.7359 32.5578C30.7359 31.8736 30.8763 31.2222 31.1299 30.6309Z"
        fill="#D4E7F8" />
    <circle cx="4.89281" cy="4.89281" r="4.39281"
        transform="matrix(-1 -8.9407e-08 -8.9407e-08 1 40.5215 27.6641)" stroke="#151E29" />
    <circle cx="3.04428" cy="3.04428" r="3.04428"
        transform="matrix(-1 -8.9407e-08 -8.9407e-08 1 24.5137 23.3379)" fill="white" />
    <path opacity="0.5" fill-rule="evenodd" clip-rule="evenodd"
        d="M18.6704 25.1836C19.0881 26.3665 20.2159 27.214 21.5418 27.214C22.7973 27.214 23.8753 26.454 24.3408 25.3689C24.4527 25.6861 24.5137 26.0273 24.5137 26.3828C24.5137 28.0641 23.1507 29.427 21.4694 29.427C19.7881 29.427 18.4251 28.0641 18.4251 26.3828C18.4251 25.957 18.5125 25.5516 18.6704 25.1836Z"
        fill="#D4E7F8" />
    <circle cx="3.04428" cy="3.04428" r="2.54428"
        transform="matrix(-1 -8.9407e-08 -8.9407e-08 1 24.5137 23.3379)" stroke="#151E29" />
    <circle cx="3.93037" cy="3.93037" r="3.93037"
        transform="matrix(-1 -8.9407e-08 -8.9407e-08 1 53.0625 28.8652)" fill="white" />
    <path opacity="0.5" fill-rule="evenodd" clip-rule="evenodd"
        d="M45.5183 31.248C46.0576 32.7752 47.5137 33.8694 49.2255 33.8694C50.8465 33.8694 52.2383 32.888 52.8392 31.487C52.9838 31.8965 53.0625 32.3371 53.0625 32.796C53.0625 34.9667 51.3028 36.7264 49.1321 36.7264C46.9614 36.7264 45.2018 34.9667 45.2018 32.796C45.2018 32.2464 45.3146 31.7231 45.5183 31.248Z"
        fill="#D4E7F8" />
    <circle cx="3.93037" cy="3.93037" r="3.43037"
        transform="matrix(-1 -8.9407e-08 -8.9407e-08 1 53.0625 28.8652)" stroke="#151E29" />
    <circle cx="4.58995" cy="4.58995" r="4.58995"
        transform="matrix(-1 -8.9407e-08 -8.9407e-08 1 36.1016 15.1641)" fill="white" />
    <path opacity="0.5" fill-rule="evenodd" clip-rule="evenodd"
        d="M27.2914 17.9453C27.9211 19.7288 29.6217 21.0067 31.6207 21.0067C33.5137 21.0067 35.1391 19.8607 35.8409 18.2246C36.0097 18.7028 36.1016 19.2173 36.1016 19.7532C36.1016 22.2882 34.0466 24.3432 31.5116 24.3432C28.9767 24.3432 26.9217 22.2882 26.9217 19.7532C26.9217 19.1113 27.0535 18.5001 27.2914 17.9453Z"
        fill="#D4E7F8" />
    <circle cx="4.58995" cy="4.58995" r="4.08995"
        transform="matrix(-1 -8.9407e-08 -8.9407e-08 1 36.1016 15.1641)" stroke="#151E29" />
    <circle cx="4.58995" cy="4.58995" r="4.58995"
        transform="matrix(-1 -8.9407e-08 -8.9407e-08 1 65.6172 21.5312)" fill="white" />
    <path opacity="0.5" fill-rule="evenodd" clip-rule="evenodd"
        d="M56.807 24.3145C57.4368 26.0978 59.1373 27.3757 61.1362 27.3757C63.0293 27.3757 64.6547 26.2296 65.3565 24.5935C65.5253 25.0717 65.6172 25.5862 65.6172 26.1222C65.6172 28.6572 63.5622 30.7122 61.0272 30.7122C58.4923 30.7122 56.4373 28.6572 56.4373 26.1222C56.4373 25.4803 56.5691 24.8692 56.807 24.3145Z"
        fill="#D4E7F8" />
    <circle cx="4.58995" cy="4.58995" r="4.08995"
        transform="matrix(-1 -8.9407e-08 -8.9407e-08 1 65.6172 21.5312)" stroke="#151E29" />
</svg>