<svg width="71" height="44" viewBox="0 0 71 44" fill="none" xmlns="http://www.w3.org/2000/svg">
    <g opacity="0.2">
        <path
            d="M12.5441 22.9499C13.3597 23.4882 13.9301 24.1663 14.1569 24.9259L22.1774 25.7911C22.7329 25.2383 23.4948 24.782 24.3859 24.4512L23.0126 19.9392C21.6764 19.8165 20.4354 19.4469 19.4625 18.8682C19.3409 18.796 19.2238 18.7208 19.1117 18.6428C18.3715 18.128 17.8442 17.491 17.6124 16.7796C17.3419 15.9493 17.501 15.0957 18.0376 14.3395C18.5684 13.5913 19.4428 12.9649 20.5332 12.5407L20.5354 12.5398C21.7019 12.0977 22.937 11.8758 24.1807 11.8851C25.4195 11.8752 26.6497 12.0984 27.8099 12.5438L27.8133 12.545C28.1432 12.6768 28.4629 12.8338 28.7698 13.0148C29.3537 13.3425 29.8602 13.7976 30.2535 14.3481L30.2576 14.3539C30.7719 15.1142 30.901 15.9703 30.6056 16.7966C30.3143 17.6114 29.6338 18.3308 28.6932 18.8776C28.3154 19.0979 27.92 19.2849 27.5115 19.4364L28.9181 23.9448C30.2546 24.0683 31.4952 24.4368 32.4694 25.0145C32.472 25.016 32.4744 25.0175 32.4769 25.0191C32.478 25.0198 32.4791 25.0205 32.4802 25.0212L32.484 25.0238C33.5868 25.7768 34.2168 26.7935 34.1463 27.8836C34.0762 28.9676 33.323 29.9479 32.1365 30.6546C30.946 31.3636 29.3665 31.7737 27.7178 31.8145C26.0687 31.8553 24.4529 31.5249 23.19 30.879C23.1849 30.8764 23.1799 30.8736 23.175 30.8707C22.2361 30.3126 21.5671 29.5762 21.3177 28.7418L13.2951 27.8751C12.9908 28.169 12.6533 28.4248 12.2897 28.637C11.3584 29.1935 10.1833 29.569 8.91677 29.7287L8.91614 29.7288C7.65433 29.8848 6.37571 29.8152 5.13713 29.5231C4.38686 29.3503 3.66506 29.0666 2.99445 28.6809L2.99281 28.6799C2.69738 28.5073 2.41888 28.3059 2.16105 28.0786L2.16056 28.0782C1.41768 27.4203 0.99484 26.6168 1.00005 25.7656C1.00524 24.9161 1.43189 24.1107 2.17933 23.4442C2.92629 22.7781 3.96825 22.2771 5.16569 21.9751L5.16791 21.9745C6.40584 21.6736 7.68529 21.595 8.94944 21.7422C10.2127 21.8876 11.3809 22.2528 12.3072 22.8015C12.3881 22.8496 12.4675 22.8993 12.5441 22.9499Z"
            fill="#006FD6" />
        <path
            d="M50.4966 15.3253C55.3098 15.2903 60.0437 16.5824 64.2023 19.0662C68.2325 21.4532 70.5537 24.1894 70.6284 27.0899C70.7034 29.9982 68.518 32.8989 63.9671 35.6048L49.9454 43.9618C49.8612 44.0119 49.7574 44.0121 49.6731 43.9623L44.4469 40.8736C44.3629 40.824 44.3111 40.7322 44.3109 40.6329C44.3107 40.5336 44.3622 40.4416 44.446 40.3917L58.4684 32.0344C61.3755 30.3078 62.6636 28.5802 62.7123 27.0063C62.7607 25.4408 61.585 23.8569 59.1315 22.4069C54.2714 19.5346 48.1336 19.3985 42.3679 22.8336L35.9557 26.6669C35.8306 26.7417 35.6703 26.7028 35.5912 26.5785C35.1041 25.8129 34.4362 25.1858 33.6495 24.7553L33.6459 24.7532C32.6712 24.2001 31.6162 23.8109 30.5211 23.6004C30.4096 23.5789 30.3228 23.4887 30.3035 23.374C30.2842 23.2594 30.3365 23.1445 30.4346 23.0861L36.8454 19.2645C40.9689 16.7209 45.6838 15.3604 50.4966 15.3253Z"
            fill="#006FD6" />
    </g>
    <path
        d="M35.8092 15.2637V22.4051C35.3 21.6016 34.6017 20.9424 33.7785 20.4883C32.7784 19.9208 31.6959 19.5214 30.5723 19.3054V12.1641C31.6959 12.3801 32.7784 12.7795 33.7785 13.347C34.6017 13.8011 35.3 14.4603 35.8092 15.2637Z"
        fill="#0056B3" stroke="#0056B3" stroke-linejoin="round" />
    <path fill-rule="evenodd" clip-rule="evenodd"
        d="M62.9871 22.9089V15.7566C62.9871 14.0479 61.6939 12.4378 59.2785 11.003C54.3302 8.07856 48.0887 7.94713 42.2426 11.4302V11.4625L42.2317 11.4412L35.8085 15.2638L35.7871 22.4051L42.2692 18.5557L42.2693 18.5556C48.097 15.0889 54.3377 15.2243 59.2678 18.1443C61.6939 19.623 62.9871 21.2111 62.9871 22.9089Z"
        fill="#0056B3" />
    <path
        d="M62.4871 22.9089C62.4871 23.185 62.7109 23.4089 62.9871 23.4089C63.2632 23.4089 63.4871 23.185 63.4871 22.9089H62.4871ZM59.2785 11.003L59.5339 10.5731L59.5329 10.5726L59.2785 11.003ZM42.2426 11.4302L41.9867 11.0006C41.8353 11.0908 41.7426 11.254 41.7426 11.4302H42.2426ZM42.2426 11.4625L41.7973 11.69C41.9024 11.8958 42.1349 12.0027 42.3595 11.9487C42.5842 11.8946 42.7426 11.6936 42.7426 11.4625H42.2426ZM42.2317 11.4412L42.677 11.2138C42.6141 11.0907 42.5031 10.9991 42.3703 10.9608C42.2375 10.9225 42.0947 10.9408 41.976 11.0115L42.2317 11.4412ZM35.8085 15.2638L35.5528 14.8341C35.4018 14.924 35.309 15.0865 35.3085 15.2623L35.8085 15.2638ZM35.7871 22.4051L35.2871 22.4036C35.2866 22.5836 35.3828 22.75 35.5391 22.8392C35.6954 22.9285 35.8876 22.9269 36.0424 22.835L35.7871 22.4051ZM42.2692 18.5557L42.5245 18.9857C42.5857 18.9493 42.6385 18.9002 42.6792 18.8418L42.2692 18.5557ZM42.2693 18.5556L42.0136 18.1259C41.9525 18.1622 41.8999 18.2112 41.8592 18.2695L42.2693 18.5556ZM59.2678 18.1443L59.528 17.7173L59.5226 17.7141L59.2678 18.1443ZM62.4871 15.7566V22.9089H63.4871V15.7566H62.4871ZM59.0231 11.4329C61.3974 12.8433 62.4871 14.3231 62.4871 15.7566H63.4871C63.4871 13.7727 61.9904 12.0324 59.5339 10.5731L59.0231 11.4329ZM42.4985 11.8597C48.1948 8.46591 54.2405 8.60634 59.0241 11.4334L59.5329 10.5726C54.4199 7.55079 47.9825 7.42834 41.9867 11.0006L42.4985 11.8597ZM42.7426 11.4625V11.4302H41.7426V11.4625H42.7426ZM41.7864 11.6686L41.7973 11.69L42.6879 11.2351L42.677 11.2138L41.7864 11.6686ZM36.0642 15.6934L42.4874 11.8708L41.976 11.0115L35.5528 14.8341L36.0642 15.6934ZM36.2871 22.4066L36.3085 15.2653L35.3085 15.2623L35.2871 22.4036L36.2871 22.4066ZM42.0139 18.1258L35.5318 21.9752L36.0424 22.835L42.5245 18.9857L42.0139 18.1258ZM41.8592 18.2695L41.8591 18.2697L42.6792 18.8418L42.6793 18.8417L41.8592 18.2695ZM59.5226 17.7141C54.4279 14.6966 47.9913 14.57 42.0136 18.1259L42.5249 18.9853C48.2027 15.6077 54.2475 15.7521 59.013 18.5745L59.5226 17.7141ZM63.4871 22.9089C63.4871 20.9343 61.9872 19.2162 59.528 17.7174L59.0076 18.5713C61.4005 20.0297 62.4871 21.488 62.4871 22.9089H63.4871Z"
        fill="#0056B3" />
    <path
        d="M64.0669 8.14341C72.0933 12.897 72.8948 18.8116 63.8318 24.2004L49.8098 32.5575L44.5836 29.4688L58.6056 21.1117C64.4517 17.6396 64.2166 13.9266 59.2683 11.0021C54.3199 8.07769 48.0784 7.94625 42.2323 11.4293L35.8198 15.2628C35.3077 14.458 34.6056 13.7987 33.7785 13.3461C32.7784 12.7785 31.6959 12.3792 30.5723 12.1631L36.9848 8.34056C41.0669 5.82201 45.7348 4.47483 50.4995 4.44014C55.2642 4.40545 59.9503 5.68454 64.0669 8.14341Z"
        fill="#7AD1FF" stroke="#0056B3" stroke-linejoin="round" />
    <path fill-rule="evenodd" clip-rule="evenodd"
        d="M70.3494 16.084V23.2253C70.3494 25.9197 68.2653 28.7018 63.8193 31.3524V31.292L63.8089 31.3524L49.7869 39.6986L49.8082 32.5572L63.8193 24.2112V24.2001C68.276 21.5495 70.3494 18.7784 70.3494 16.084ZM49.8081 32.5573L49.7867 39.6986L44.5605 36.6099L44.5819 29.4686L49.8081 32.5573Z"
        fill="#0056B3" />
    <path
        d="M70.8494 16.084C70.8494 15.8078 70.6255 15.584 70.3494 15.584C70.0732 15.584 69.8494 15.8078 69.8494 16.084H70.8494ZM63.8193 31.3524H63.3193C63.3193 31.5323 63.4159 31.6983 63.5723 31.7871C63.7288 31.876 63.9208 31.874 64.0753 31.7819L63.8193 31.3524ZM63.8193 31.292H64.3193C64.3193 31.0325 64.1207 30.816 63.862 30.7939C63.6034 30.7717 63.3708 30.9511 63.3266 31.2069L63.8193 31.292ZM63.8089 31.3524L64.0646 31.7821C64.1902 31.7073 64.2767 31.5815 64.3016 31.4375L63.8089 31.3524ZM49.7869 39.6986L49.2869 39.6971C49.2863 39.8771 49.3827 40.0436 49.5391 40.1328C49.6955 40.2221 49.8878 40.2203 50.0426 40.1282L49.7869 39.6986ZM49.8082 32.5572L49.5524 32.1277C49.4014 32.2176 49.3088 32.3801 49.3082 32.5557L49.8082 32.5572ZM63.8193 24.2112L64.0752 24.6408C64.2266 24.5506 64.3193 24.3874 64.3193 24.2112H63.8193ZM63.8193 24.2001L63.5637 23.7704C63.4122 23.8605 63.3193 24.0238 63.3193 24.2001H63.8193ZM49.7867 39.6986L49.5323 40.1291C49.6867 40.2203 49.878 40.2219 50.0339 40.1333C50.1897 40.0447 50.2862 39.8794 50.2867 39.7001L49.7867 39.6986ZM49.8081 32.5573L50.3081 32.5588C50.3086 32.3814 50.2152 32.2171 50.0625 32.1269L49.8081 32.5573ZM44.5605 36.6099L44.0605 36.6084C44.06 36.7857 44.1535 36.9501 44.3062 37.0403L44.5605 36.6099ZM44.5819 29.4686L44.8363 29.0381C44.682 28.9469 44.4906 28.9453 44.3348 29.0339C44.1789 29.1225 44.0825 29.2878 44.0819 29.4671L44.5819 29.4686ZM70.8494 23.2253V16.084H69.8494V23.2253H70.8494ZM64.0753 31.7819C68.5597 29.1084 70.8494 26.1963 70.8494 23.2253H69.8494C69.8494 25.6432 67.9709 28.2952 63.5633 30.9229L64.0753 31.7819ZM63.3193 31.292V31.3524H64.3193V31.292H63.3193ZM63.3266 31.2069L63.3162 31.2673L64.3016 31.4375L64.312 31.3771L63.3266 31.2069ZM63.5532 30.9228L49.5311 39.2689L50.0426 40.1282L64.0646 31.7821L63.5532 30.9228ZM50.2869 39.7L50.3082 32.5587L49.3082 32.5557L49.2869 39.6971L50.2869 39.7ZM50.0641 32.9868L64.0752 24.6408L63.5634 23.7817L49.5524 32.1277L50.0641 32.9868ZM63.3193 24.2001V24.2112H64.3193V24.2001H63.3193ZM69.8494 16.084C69.8494 18.5017 67.9817 21.1428 63.5637 23.7704L64.0749 24.6299C68.5703 21.9562 70.8494 19.0551 70.8494 16.084H69.8494ZM50.2867 39.7001L50.3081 32.5588L49.3081 32.5558L49.2867 39.6971L50.2867 39.7001ZM44.3062 37.0403L49.5323 40.1291L50.0411 39.2682L44.8149 36.1794L44.3062 37.0403ZM44.0819 29.4671L44.0605 36.6084L45.0605 36.6114L45.0819 29.4701L44.0819 29.4671ZM50.0625 32.1269L44.8363 29.0381L44.3275 29.899L49.5537 32.9877L50.0625 32.1269Z"
        fill="#0056B3" />
    <path
        d="M30.4897 4.75977L30.4748 10.5016C30.4731 10.7682 30.4258 11.0324 30.335 11.2823C30.0727 12.0172 29.4484 12.691 28.5434 13.217C28.1032 13.4738 27.6384 13.6834 27.1562 13.8427L27.1723 8.10086C27.6544 7.9416 28.1193 7.73192 28.5595 7.47513C29.4645 6.94803 30.0888 6.27535 30.3511 5.54045C30.442 5.29069 30.489 5.02635 30.4897 4.75977Z"
        fill="#0056B3" stroke="#0056B3" stroke-linejoin="round" />
    <path
        d="M17.7402 10.5563L17.7563 4.81445C17.7556 5.05954 17.7943 5.30308 17.8708 5.53527C18.1103 6.27016 18.7116 6.94401 19.5994 7.47112C20.5742 8.04871 21.8469 8.4185 23.2181 8.52063L23.2021 14.2625C21.8274 14.1603 20.5594 13.7929 19.5834 13.2129C18.6956 12.6858 18.0942 12.012 17.8548 11.2771C17.7782 11.0449 17.7395 10.8014 17.7402 10.5563Z"
        fill="#0056B3" stroke="#0056B3" stroke-linejoin="round" />
    <path d="M24.7235 13.4709L24.7075 19.2127L23.2012 14.2633L23.2172 8.52148L24.7235 13.4709Z"
        fill="#0056B3" stroke="#0056B3" stroke-linejoin="round" />
    <path d="M21.5324 17.3262L21.5164 23.068L13.1816 22.1676L13.1977 16.4258L21.5324 17.3262Z"
        fill="#0056B3" stroke="#0056B3" stroke-linejoin="round" />
    <path
        d="M13.1978 16.4247L13.1818 22.1665C12.8701 22.4827 12.5193 22.7554 12.1382 22.9778C11.2447 23.5119 10.1073 23.877 8.86783 24.0343C7.637 24.1865 6.38972 24.1186 5.18156 23.8336C4.45675 23.6667 3.75949 23.3926 3.11165 23.02C2.83135 22.8562 2.56703 22.6651 2.32238 22.4495C1.62362 21.8296 1.25132 21.0982 1.2559 20.3493L1.27195 14.6074C1.27195 15.3564 1.63852 16.0878 2.33843 16.7076C2.58309 16.9233 2.84734 17.1143 3.12765 17.2782C3.77549 17.6508 4.4728 17.9248 5.19762 18.0917C6.40577 18.3767 7.653 18.4447 8.88383 18.2925C10.1221 18.141 11.2608 17.7748 12.1543 17.2359C12.5353 17.0136 12.8862 16.7408 13.1978 16.4247Z"
        fill="#0056B3" stroke="#0056B3" stroke-linejoin="round" />
    <path
        d="M23.3126 19.469L23.2965 25.2109C22.3228 24.6321 21.6986 23.8784 21.5176 23.0661L21.5336 17.3242C21.7135 18.1378 22.3389 18.8915 23.3126 19.469Z"
        fill="#0056B3" stroke="#0056B3" stroke-linejoin="round" />
    <path
        d="M28.6366 2.09445C29.1867 2.40261 29.6638 2.83106 30.0341 3.3494C30.5026 4.04204 30.6126 4.80394 30.3503 5.53766C30.088 6.27138 29.4636 6.94642 28.5587 7.47235C28.1185 7.72914 27.6536 7.93881 27.1715 8.09807L28.7145 13.044C30.0891 13.1473 31.3572 13.5135 32.3332 14.0923C33.387 14.8119 33.9369 15.7452 33.875 16.702C33.8132 17.6588 33.143 18.5698 31.9998 19.2507C30.8566 19.9316 29.3239 20.3331 27.711 20.373C26.0982 20.4129 24.5276 20.0889 23.3111 19.4667C22.3374 18.8879 21.7074 18.1342 21.5322 17.3219L13.1974 16.4214C12.8858 16.7376 12.5349 17.0103 12.1539 17.2326C11.2604 17.7668 10.1217 18.1331 8.8834 18.2892C7.65257 18.4414 6.40535 18.3735 5.19719 18.0885C4.47237 17.9216 3.77506 17.6475 3.12722 17.2749C2.84692 17.1111 2.58266 16.92 2.338 16.7044C1.6381 16.0845 1.26694 15.3531 1.27153 14.6042C1.27611 13.8552 1.65183 13.1203 2.35747 12.491C3.0631 11.8618 4.06199 11.3769 5.23041 11.0823C6.4379 10.7888 7.68587 10.7121 8.91892 10.8557C10.1526 10.9977 11.2833 11.3535 12.171 11.8794C13.147 12.4593 13.7667 13.2095 13.942 14.0195L22.2779 14.9188C22.8506 14.3107 23.6994 13.807 24.7235 13.4631L23.2172 8.51366C21.8426 8.41152 20.5733 8.04406 19.5985 7.46413C18.7107 6.93702 18.1094 6.26317 17.8699 5.52827C17.6305 4.79338 17.7657 4.03265 18.2571 3.34001C18.7485 2.64738 19.5733 2.04866 20.6295 1.63777C21.7658 1.20703 22.969 0.991056 24.1805 1.00032C25.3869 0.990434 26.5847 1.20769 27.7144 1.6413C28.0325 1.76833 28.3408 1.91981 28.6366 2.09445Z"
        fill="#7AD1FF" stroke="#0056B3" stroke-linejoin="round" />
    <path
        d="M33.8807 16.5645L33.8647 22.3063C33.8647 22.3532 33.8647 22.4002 33.8647 22.4472C33.8028 23.4039 33.1327 24.3149 31.9895 24.9958C30.8463 25.6767 29.3136 26.0782 27.7007 26.1181C26.0878 26.158 24.5173 25.834 23.3008 25.2118L23.3168 19.47C24.5334 20.0922 26.105 20.4162 27.7168 20.3763C29.3285 20.3364 30.8612 19.9349 32.0055 19.254C33.1499 18.5731 33.8189 17.6621 33.8807 16.7053C33.8796 16.6584 33.8807 16.6114 33.8807 16.5645Z"
        fill="#0056B3" stroke="#0056B3" stroke-linejoin="round" />
</svg>