<svg width="640px" height="640px" viewBox="0 0 640 640" version="1.1" xmlns="http://www.w3.org/2000/svg"><g id="Page-1" stroke="none" stroke-width="1" fill="none" fill-rule="evenodd"><g id="certified-professional"><circle id="lg" fill="#002B66" cx="320" cy="320" r="320"></circle><circle id="md" fill="#0070D9" cx="320.5" cy="320.5" r="269.5"></circle><circle id="sm" fill="#008BFF" cx="320.5" cy="320.5" r="206.5"></circle><g id="lan" transform="translate(322.000000, 356.000000)" stroke="#FFFFFF" stroke-linecap="round" stroke-linejoin="round" stroke-width="12"><path d="M70.0338842,0.752929603 L0,28.5735139 L70.4141014,53.3978729 C72.6898993,54.200709 75.1723204,54.200709 77.4481184,53.3978729 L141.240105,30.9156336 C142.277334,30.5491425 142.978354,29.5786025 143,28.4797977 C143.020662,27.3809929 142.357515,26.3842474 141.335159,25.978192 L77.8705819,0.752929603 C75.3550124,-0.250976534 72.5494537,-0.250976534 70.0338842,0.752929603 Z" id="Shape"></path><line x1="0" y1="29" x2="0" y2="68" id="Shape"></line><path d="M32,40 L32,73.3267163 C31.9834351,76.5841947 33.9678329,79.5208978 37.004466,80.7326532 L71.5356249,93.4285451 C73.4341268,94.190485 75.5552324,94.190485 77.4537343,93.4285451 L111.984893,80.7326532 C115.027657,79.5266816 117.017802,76.5877119 117,73.3267163 L117,40" id="Shape"></path></g><g id="graph" transform="translate(301.500000, 287.500000) rotate(-1.000000) translate(-301.500000, -287.500000) translate(176.165362, 193.359948)" stroke="#FFFFFF" stroke-linecap="round" stroke-linejoin="round" stroke-width="12"><circle id="Oval" cx="47" cy="141.280103" r="47"></circle><circle id="Oval" cx="203.669276" cy="47" r="47"></circle><line x1="86.8434404" y1="116.631402" x2="162.84344" y2="70.6314017" id="Shape"></line><line x1="90.4644719" y1="158.645548" x2="124.412191" y2="175.636365" id="Shape"></line></g></g></g></svg>