<svg width="166" height="137" viewBox="0 0 166 137" fill="none" xmlns="http://www.w3.org/2000/svg">
    <g clip-path="url(#clip0_1165_1302)">
        <path
            d="M140.616 18.145L148.489 32.7444M140.616 18.145L132.768 33.8282M140.616 18.145L127.525 20.9893L132.768 33.8282M140.616 18.145L122.213 10.6042M148.489 32.7444L132.768 33.8282M148.489 32.7444L137.599 47.3822L131.412 59.1907L132.768 33.8282M132.768 33.8282L124.095 39.9324"
            stroke="#151E29" stroke-width="0.781678" />
        <circle cx="4.99529" cy="4.99529" r="4.99529"
            transform="matrix(0.658516 0.752567 0.752567 -0.658516 123.397 59.3872)" fill="#BCF194" />
        <path opacity="0.5" fill-rule="evenodd" clip-rule="evenodd"
            d="M131.99 64.6079C133 62.814 132.828 60.5052 131.395 58.8679C130.038 57.3174 127.935 56.8075 126.092 57.4054C126.362 56.9245 126.718 56.4806 127.157 56.0966C129.233 54.2798 132.389 54.4902 134.206 56.5664C136.022 58.6426 135.812 61.7984 133.736 63.6151C133.21 64.0752 132.615 64.4052 131.99 64.6079Z"
            fill="#6FA646" />
        <circle cx="4.99529" cy="4.99529" r="4.60445"
            transform="matrix(0.658516 0.752567 0.752567 -0.658516 123.397 59.3872)"
            stroke="#151E29" stroke-width="0.781678" />
        <circle cx="4.46138" cy="4.46138" r="4.46138"
            transform="matrix(0.658516 0.752567 0.752567 -0.658516 134.89 18.041)" fill="#C3F8FB" />
        <path opacity="0.5" fill-rule="evenodd" clip-rule="evenodd"
            d="M142.565 22.7045C143.466 21.1025 143.312 19.0411 142.033 17.5792C140.821 16.1942 138.942 15.7389 137.296 16.2732C137.538 15.8433 137.855 15.4464 138.248 15.1031C140.102 13.4806 142.92 13.6685 144.543 15.5227C146.166 17.377 145.978 20.1956 144.123 21.8181C143.654 22.2288 143.123 22.5235 142.565 22.7045Z"
            fill="#4C99A4" />
        <circle cx="4.46138" cy="4.46138" r="4.18674"
            transform="matrix(0.658516 0.752567 0.752567 -0.658516 134.89 18.041)" stroke="#151E29"
            stroke-width="0.549272" />
        <circle cx="3.99871" cy="3.99871" r="3.99871"
            transform="matrix(0.658516 0.752567 0.752567 -0.658516 142.501 32.48)" fill="#C3F8FB" />
        <path opacity="0.5" fill-rule="evenodd" clip-rule="evenodd"
            d="M149.379 36.6613C150.188 35.2253 150.05 33.377 148.903 32.0662C147.817 30.8252 146.134 30.417 144.658 30.8953C144.875 30.5105 145.159 30.1552 145.511 29.8479C147.173 28.3936 149.699 28.562 151.153 30.224C152.608 31.886 152.439 34.4122 150.777 35.8665C150.356 36.2348 149.88 36.4991 149.379 36.6613Z"
            fill="#4C99A4" />
        <circle cx="3.99871" cy="3.99871" r="3.60787"
            transform="matrix(0.658516 0.752567 0.752567 -0.658516 142.501 32.48)" stroke="#151E29"
            stroke-width="0.781678" />
        <circle cx="3.97638" cy="3.97638" r="3.97638"
            transform="matrix(0.658516 0.752567 0.752567 -0.658516 115.456 10.5781)" fill="#C3F8FB" />
        <path opacity="0.5" fill-rule="evenodd" clip-rule="evenodd"
            d="M122.296 14.7355C123.099 13.3074 122.962 11.4694 121.822 10.166C120.742 8.93192 119.068 8.52597 117.601 9.00159C117.816 8.61892 118.099 8.26569 118.448 7.96007C120.101 6.51391 122.613 6.68135 124.06 8.33406C125.506 9.98676 125.338 12.4989 123.686 13.9451C123.267 14.3114 122.793 14.5742 122.296 14.7355Z"
            fill="#4C99A4" />
        <circle cx="3.97638" cy="3.97638" r="3.58773"
            transform="matrix(0.658516 0.752567 0.752567 -0.658516 115.456 10.5781)"
            stroke="#151E29" stroke-width="0.777314" />
        <circle cx="3.99871" cy="3.99871" r="3.99871"
            transform="matrix(0.658516 0.752567 0.752567 -0.658516 127.035 33.3354)" fill="#FFDE63" />
        <path opacity="0.5" fill-rule="evenodd" clip-rule="evenodd"
            d="M133.913 37.5142C134.721 36.0784 134.583 34.2309 133.436 32.9206C132.35 31.6793 130.666 31.2712 129.19 31.7501C129.407 31.3647 129.692 31.0089 130.044 30.7012C131.706 29.2469 134.232 29.4153 135.686 31.0773C137.14 32.7393 136.972 35.2655 135.31 36.7198C134.889 37.0878 134.413 37.3519 133.913 37.5142Z"
            fill="#D9B54A" />
        <circle cx="3.99871" cy="3.99871" r="3.60787"
            transform="matrix(0.658516 0.752567 0.752567 -0.658516 127.035 33.3354)"
            stroke="#151E29" stroke-width="0.781678" />
        <circle cx="3.18994" cy="3.18994" r="3.18994"
            transform="matrix(0.658516 0.752567 0.752567 -0.658516 119.985 39.5039)" fill="#BCF194" />
        <path opacity="0.5" fill-rule="evenodd" clip-rule="evenodd"
            d="M125.472 42.8383C126.117 41.6928 126.007 40.2185 125.092 39.173C124.226 38.183 122.883 37.8573 121.706 38.239C121.879 37.9318 122.106 37.6483 122.386 37.403C123.712 36.2429 125.727 36.3772 126.887 37.703C128.047 39.0289 127.913 41.0442 126.587 42.2043C126.252 42.4981 125.872 42.7089 125.472 42.8383Z"
            fill="#6FA646" />
        <circle cx="3.18994" cy="3.18994" r="2.7991"
            transform="matrix(0.658516 0.752567 0.752567 -0.658516 119.985 39.5039)"
            stroke="#151E29" stroke-width="0.781678" />
        <circle cx="3.09334" cy="3.09334" r="3.09334"
            transform="matrix(0.658516 0.752567 0.752567 -0.658516 133.334 46.9409)" fill="white" />
        <path opacity="0.22" fill-rule="evenodd" clip-rule="evenodd"
            d="M138.656 50.1744C139.281 49.0636 139.174 47.6339 138.287 46.6201C137.447 45.6599 136.144 45.3442 135.003 45.7143C135.17 45.4165 135.391 45.1416 135.662 44.9038C136.948 43.7787 138.902 43.909 140.027 45.1947C141.152 46.4804 141.022 48.4346 139.737 49.5596C139.411 49.8445 139.043 50.0489 138.656 50.1744Z"
            fill="#4C99A4" />
        <circle cx="3.09334" cy="3.09334" r="2.7025"
            transform="matrix(0.658516 0.752567 0.752567 -0.658516 133.334 46.9409)"
            stroke="#151E29" stroke-width="0.781678" />
        <circle cx="3.09334" cy="3.09334" r="3.09334"
            transform="matrix(0.658516 0.752567 0.752567 -0.658516 123.447 21.2188)" fill="white" />
        <path opacity="0.22" fill-rule="evenodd" clip-rule="evenodd"
            d="M128.767 24.453C129.393 23.3421 129.286 21.9121 128.399 20.8981C127.559 19.9381 126.257 19.6223 125.116 19.9921C125.283 19.6945 125.503 19.4198 125.775 19.1821C127.061 18.0571 129.015 18.1874 130.14 19.473C131.265 20.7587 131.135 22.713 129.849 23.838C129.523 24.1231 129.154 24.3275 128.767 24.453Z"
            fill="#4C99A4" />
        <circle cx="3.09334" cy="3.09334" r="2.7025"
            transform="matrix(0.658516 0.752567 0.752567 -0.658516 123.447 21.2188)"
            stroke="#151E29" stroke-width="0.781678" />
        <path
            d="M95.2212 103.272L71.9816 117.711M95.2212 103.272L78.748 100.33M95.2212 103.272L90.821 116.185M95.2212 103.272L105.904 102.167M71.9816 117.711L78.748 100.33M71.9816 117.711L66.2527 102.882M71.9816 117.711L80.6272 126.805M78.748 100.33L69.4393 88.3776"
            stroke="#151E29" stroke-width="0.830903" />
        <circle cx="4.25052" cy="4.25052" r="4.25052"
            transform="matrix(-0.175828 0.984421 0.984421 0.175828 75.4409 95.2446)" fill="#C3F8FB" />
        <path opacity="0.5" fill-rule="evenodd" clip-rule="evenodd"
            d="M76.5426 103.729C78.271 103.445 79.7129 102.103 80.0384 100.28C80.3466 98.5548 79.5667 96.8866 78.1896 95.9804C78.6529 95.9044 79.1368 95.9044 79.6253 95.9917C81.9363 96.4044 83.475 98.6124 83.0623 100.923C82.6495 103.234 80.4416 104.773 78.1306 104.36C77.5454 104.256 77.0096 104.036 76.5426 103.729Z"
            fill="#4C99A4" />
        <circle cx="4.25052" cy="4.25052" r="3.83507"
            transform="matrix(-0.175828 0.984421 0.984421 0.175828 75.4409 95.2446)"
            stroke="#151E29" stroke-width="0.830903" />
        <circle cx="4.25052" cy="4.25052" r="4.25052"
            transform="matrix(-0.175828 0.984421 0.984421 0.175828 91.7539 98.1592)" fill="#FFDE63" />
        <path opacity="0.5" fill-rule="evenodd" clip-rule="evenodd"
            d="M92.8546 106.644C94.5835 106.361 96.0258 105.018 96.3514 103.195C96.6596 101.47 95.88 99.8023 94.5034 98.896C94.9665 98.8201 95.4501 98.8202 95.9383 98.9074C98.2493 99.3201 99.788 101.528 99.3753 103.839C98.9625 106.15 96.7545 107.689 94.4436 107.276C93.858 107.171 93.3219 106.951 92.8546 106.644Z"
            fill="#D9B54A" />
        <circle cx="4.25052" cy="4.25052" r="3.83507"
            transform="matrix(-0.175828 0.984421 0.984421 0.175828 91.7539 98.1592)"
            stroke="#151E29" stroke-width="0.830903" />
        <circle cx="4.25052" cy="4.25052" r="4.25052"
            transform="matrix(-0.175828 0.984421 0.984421 0.175828 68.1401 112.514)" fill="#BCF194" />
        <path opacity="0.5" fill-rule="evenodd" clip-rule="evenodd"
            d="M69.2418 120.999C70.9702 120.715 72.4122 119.373 72.7377 117.551C73.0459 115.825 72.2659 114.157 70.8888 113.25C71.3521 113.174 71.8361 113.174 72.3246 113.262C74.6355 113.674 76.1743 115.882 75.7615 118.193C75.3488 120.504 73.1408 122.043 70.8299 121.63C70.2446 121.526 69.7088 121.306 69.2418 120.999Z"
            fill="#6FA646" />
        <circle cx="4.25052" cy="4.25052" r="3.83507"
            transform="matrix(-0.175828 0.984421 0.984421 0.175828 68.1401 112.514)"
            stroke="#151E29" stroke-width="0.830903" />
        <circle cx="3.28814" cy="3.28814" r="3.28814"
            transform="matrix(-0.175828 0.984421 0.984421 0.175828 63.7324 99.5327)" fill="#C3F8FB" />
        <path opacity="0.5" fill-rule="evenodd" clip-rule="evenodd"
            d="M64.5851 106.096C65.922 105.877 67.0373 104.838 67.289 103.429C67.5275 102.093 66.9239 100.803 65.8582 100.102C66.2168 100.043 66.5913 100.043 66.9693 100.11C68.757 100.43 69.9474 102.138 69.6281 103.926C69.3088 105.713 67.6007 106.904 65.813 106.584C65.3605 106.503 64.9463 106.334 64.5851 106.096Z"
            fill="#4C99A4" />
        <circle cx="3.28814" cy="3.28814" r="2.87269"
            transform="matrix(-0.175828 0.984421 0.984421 0.175828 63.7324 99.5327)"
            stroke="#151E29" stroke-width="0.830903" />
        <circle cx="3.28814" cy="3.28814" r="3.28814"
            transform="matrix(-0.175828 0.984421 0.984421 0.175828 78.4717 123.084)" fill="#FFDE63" />
        <path opacity="0.5" fill-rule="evenodd" clip-rule="evenodd"
            d="M79.3234 129.647C80.6607 129.428 81.7763 128.39 82.0281 126.98C82.2665 125.645 81.6633 124.355 80.5983 123.654C80.9566 123.595 81.3308 123.595 81.7086 123.662C83.4963 123.982 84.6867 125.69 84.3674 127.477C84.0481 129.265 82.34 130.456 80.5523 130.136C80.0994 130.055 79.6848 129.885 79.3234 129.647Z"
            fill="#D9B54A" />
        <circle cx="3.28814" cy="3.28814" r="2.87269"
            transform="matrix(-0.175828 0.984421 0.984421 0.175828 78.4717 123.084)"
            stroke="#151E29" stroke-width="0.830903" />
        <circle cx="3.28814" cy="3.28814" r="3.28814"
            transform="matrix(-0.175828 0.984421 0.984421 0.175828 87.6055 113.244)" fill="#C3F8FB" />
        <path opacity="0.5" fill-rule="evenodd" clip-rule="evenodd"
            d="M88.4572 119.807C89.7945 119.587 90.9101 118.549 91.1619 117.139C91.4003 115.804 90.7971 114.514 89.7321 113.813C90.0904 113.754 90.4646 113.754 90.8424 113.822C92.6301 114.141 93.8205 115.849 93.5012 117.637C93.1819 119.424 91.4738 120.615 89.6861 120.295C89.2332 120.215 88.8186 120.044 88.4572 119.807Z"
            fill="#4C99A4" />
        <circle cx="3.28814" cy="3.28814" r="2.87269"
            transform="matrix(-0.175828 0.984421 0.984421 0.175828 87.6055 113.244)"
            stroke="#151E29" stroke-width="0.830903" />
        <circle cx="3.28814" cy="3.28814" r="3.28814"
            transform="matrix(-0.175828 0.984421 0.984421 0.175828 67.0264 83.9966)" fill="#C3F8FB" />
        <path opacity="0.5" fill-rule="evenodd" clip-rule="evenodd"
            d="M67.879 90.5604C69.2159 90.3408 70.3311 89.3026 70.5829 87.893C70.8214 86.5578 70.2178 85.2671 69.1521 84.5662C69.5107 84.5073 69.8852 84.5073 70.2633 84.5748C72.051 84.8941 73.2414 86.6022 72.9221 88.3899C72.6028 90.1776 70.8947 91.3679 69.107 91.0486C68.6545 90.9678 68.2402 90.798 67.879 90.5604Z"
            fill="#4C99A4" />
        <circle cx="3.28814" cy="3.28814" r="2.87269"
            transform="matrix(-0.175828 0.984421 0.984421 0.175828 67.0264 83.9966)"
            stroke="#151E29" stroke-width="0.830903" />
        <circle cx="3.28814" cy="3.28814" r="3.28814"
            transform="matrix(-0.175828 0.984421 0.984421 0.175828 103.274 98.188)" fill="white" />
        <path opacity="0.22" fill-rule="evenodd" clip-rule="evenodd"
            d="M104.126 104.752C105.463 104.533 106.579 103.495 106.831 102.085C107.069 100.75 106.466 99.4597 105.401 98.7586C105.759 98.6998 106.134 98.6999 106.511 98.7674C108.299 99.0867 109.489 100.795 109.17 102.582C108.851 104.37 107.143 105.561 105.355 105.241C104.902 105.16 104.488 104.99 104.126 104.752Z"
            fill="#4C99A4" />
        <circle cx="3.28814" cy="3.28814" r="2.87269"
            transform="matrix(-0.175828 0.984421 0.984421 0.175828 103.274 98.188)" stroke="#151E29"
            stroke-width="0.830903" />
        <path
            d="M154.693 65.2607L150.713 67.5576L150.558 125.924L150.544 125.932C150.544 127.789 149.885 129.09 148.818 129.708L152.788 127.417C153.861 126.801 154.524 125.498 154.524 123.636L154.693 65.2607Z"
            fill="#8FE3E8" stroke="#151E29" stroke-width="1.44318" stroke-linejoin="round" />
        <path
            d="M61.526 11.4753L61.3486 11.5781H61.3345C61.3969 11.5414 61.4608 11.5071 61.526 11.4753Z"
            fill="#C3F8FB" />
        <path
            d="M69.5342 9.68734C67.883 8.74898 66.4011 8.66494 65.3144 9.28118L61.526 11.4753C62.4955 11.0026 63.7701 11.0709 65.1763 11.7799L144.786 57.376L148.766 55.0931L69.5342 9.68734Z"
            fill="#C3F8FB" />
        <path
            d="M61.526 11.4753L61.3486 11.5781H61.3345C61.3969 11.5414 61.4608 11.5071 61.526 11.4753ZM61.526 11.4753L65.3144 9.28118C66.4011 8.66494 67.883 8.74898 69.5342 9.68734L148.766 55.0931L144.786 57.376L65.1763 11.7799C63.7701 11.0709 62.4955 11.0026 61.526 11.4753Z"
            stroke="#151E29" stroke-width="1.44318" stroke-linejoin="round" />
        <path
            d="M144.786 57.3759C148.06 59.2527 150.728 63.8184 150.713 67.5579L150.544 125.933C150.544 129.672 147.863 131.185 144.574 129.308L65.3568 83.9163C62.0825 82.0396 59.4434 77.4738 59.4434 73.7343L59.6127 15.3595C59.6127 11.6201 62.2942 10.1075 65.5685 11.9842L144.786 57.3759Z"
            fill="#D4E7F8" stroke="#151E29" stroke-width="1.44318" stroke-linejoin="round" />
        <path
            d="M144.786 57.376L148.766 55.0791C152.04 56.9558 154.707 61.5216 154.693 65.2611L150.713 67.558C150.713 63.8185 148.06 59.2527 144.786 57.376Z"
            fill="#C3F8FB" stroke="#151E29" stroke-width="1.44318" stroke-linejoin="round" />
        <path fill-rule="evenodd" clip-rule="evenodd"
            d="M65.3917 70.9792C65.3917 70.9792 65.3917 70.9792 65.3917 70.9792C68.1314 72.5489 70.3813 76.3974 70.3818 79.5551L140.237 119.578C140.237 119.578 140.237 119.578 140.237 119.578C140.237 116.42 142.486 115.149 145.226 116.719L145.223 70.9789C142.483 69.4091 140.233 65.5603 140.233 62.4025C140.233 62.4025 140.233 62.4024 140.233 62.4023L70.3775 22.3793C70.3777 25.537 68.1281 26.8079 65.3882 25.2381C65.3882 25.2381 65.3882 25.2381 65.3882 25.2381L65.3917 70.9792Z"
            fill="#F5F7FA" />
        <path
            d="M69.9409 80.7763C69.3574 80.442 68.8782 79.6244 68.8782 78.9457C68.878 76.4666 67.123 73.4445 64.9508 72.1999C64.3673 71.8656 63.8881 71.048 63.8881 70.3693L63.8846 24.6286C63.8845 23.9498 64.3637 23.6814 64.9472 24.0156C67.1194 25.2602 68.874 24.2489 68.8739 21.7699C68.8738 21.0912 69.3529 20.8226 69.9364 21.1569L139.792 61.1799C140.072 61.3407 140.342 61.6231 140.542 61.9661C140.741 62.3093 140.854 62.6851 140.854 63.0106C140.854 65.4896 142.609 68.5117 144.782 69.7563C145.365 70.0906 145.844 70.9083 145.844 71.5869L145.848 117.327C145.848 118.006 145.369 118.275 144.785 117.94C142.613 116.696 140.859 117.707 140.859 120.186C140.859 120.865 140.38 121.134 139.796 120.799L69.9409 80.7763ZM66.0099 26.9613L66.0132 70.4719C68.5016 72.4031 70.4669 75.7776 70.9097 78.8879L138.827 117.801C139.269 115.197 141.234 114.075 143.723 114.995L143.719 71.4844C141.231 69.5531 139.266 66.1787 138.823 63.0683L70.9056 24.1557C70.4632 26.7588 68.4982 27.8814 66.0099 26.9613Z"
            fill="#C3F8FB" stroke="#02507B" stroke-width="1.44318" stroke-linejoin="round" />
        <mask id="path-59-outside-1_1165_1302" maskUnits="userSpaceOnUse" x="68.6104" y="42.9756"
            width="44" height="45" fill="black">
            <rect fill="white" x="68.6104" y="42.9756" width="44" height="45" />
            <path fill-rule="evenodd" clip-rule="evenodd"
                d="M71.8204 45.0827C71.4332 44.8608 70.9393 44.9949 70.7174 45.3821C70.4955 45.7694 70.6296 46.2633 71.0169 46.4851L98.153 62.0326C98.5403 62.2545 99.0341 62.1204 99.256 61.7331C99.4779 61.3458 99.3438 60.852 98.9566 60.6301L71.8204 45.0827ZM71.8204 52.8565C71.4332 52.6346 70.9393 52.7686 70.7174 53.1559C70.4955 53.5432 70.6296 54.037 71.0169 54.2589L109.505 76.3105C109.892 76.5324 110.386 76.3983 110.608 76.011C110.83 75.6237 110.696 75.1299 110.309 74.908L71.8204 52.8565ZM70.7174 68.1241C70.9393 67.7368 71.4332 67.6027 71.8204 67.8246L100.115 84.0358C100.502 84.2577 100.636 84.7515 100.414 85.1388C100.193 85.5261 99.6987 85.6601 99.3114 85.4382L71.0169 69.2271C70.6296 69.0052 70.4955 68.5114 70.7174 68.1241ZM71.8204 60.3586C71.4332 60.1367 70.9393 60.2708 70.7174 60.6581C70.4955 61.0454 70.6296 61.5392 71.0169 61.7611L90.261 72.7868L99.883 78.2997C100.27 78.5216 100.764 78.3875 100.986 78.0003C101.208 77.613 101.074 77.1191 100.687 76.8972L91.0645 71.3844L71.8204 60.3586Z" />
        </mask>
        <path fill-rule="evenodd" clip-rule="evenodd"
            d="M71.8204 45.0827C71.4332 44.8608 70.9393 44.9949 70.7174 45.3821C70.4955 45.7694 70.6296 46.2633 71.0169 46.4851L98.153 62.0326C98.5403 62.2545 99.0341 62.1204 99.256 61.7331C99.4779 61.3458 99.3438 60.852 98.9566 60.6301L71.8204 45.0827ZM71.8204 52.8565C71.4332 52.6346 70.9393 52.7686 70.7174 53.1559C70.4955 53.5432 70.6296 54.037 71.0169 54.2589L109.505 76.3105C109.892 76.5324 110.386 76.3983 110.608 76.011C110.83 75.6237 110.696 75.1299 110.309 74.908L71.8204 52.8565ZM70.7174 68.1241C70.9393 67.7368 71.4332 67.6027 71.8204 67.8246L100.115 84.0358C100.502 84.2577 100.636 84.7515 100.414 85.1388C100.193 85.5261 99.6987 85.6601 99.3114 85.4382L71.0169 69.2271C70.6296 69.0052 70.4955 68.5114 70.7174 68.1241ZM71.8204 60.3586C71.4332 60.1367 70.9393 60.2708 70.7174 60.6581C70.4955 61.0454 70.6296 61.5392 71.0169 61.7611L90.261 72.7868L99.883 78.2997C100.27 78.5216 100.764 78.3875 100.986 78.0003C101.208 77.613 101.074 77.1191 100.687 76.8972L91.0645 71.3844L71.8204 60.3586Z"
            fill="#D4E7F8" />
        <path
            d="M70.7174 45.3821L69.4652 44.6647L69.4652 44.6647L70.7174 45.3821ZM71.8204 45.0827L72.5379 43.8304L72.5379 43.8304L71.8204 45.0827ZM71.0169 46.4851L71.7343 45.2329L71.7343 45.2329L71.0169 46.4851ZM98.153 62.0326L97.4356 63.2848L97.4356 63.2848L98.153 62.0326ZM98.9566 60.6301L99.674 59.3779H99.674L98.9566 60.6301ZM70.7174 53.1559L71.9696 53.8734H71.9696L70.7174 53.1559ZM71.8204 52.8565L72.5379 51.6042L72.5379 51.6042L71.8204 52.8565ZM71.0169 54.2589L70.2995 55.5112L70.2995 55.5112L71.0169 54.2589ZM109.505 76.3105L108.788 77.5627L109.505 76.3105ZM110.608 76.011L109.356 75.2935L109.356 75.2936L110.608 76.011ZM110.309 74.908L111.026 73.6558L111.026 73.6558L110.309 74.908ZM71.8204 67.8246L72.5379 66.5724H72.5379L71.8204 67.8246ZM70.7174 68.1241L69.4652 67.4066L69.4652 67.4066L70.7174 68.1241ZM100.115 84.0358L99.3975 85.288L99.3975 85.288L100.115 84.0358ZM100.414 85.1388L99.1622 84.4213L100.414 85.1388ZM99.3114 85.4382L98.594 86.6905L98.594 86.6905L99.3114 85.4382ZM71.0169 69.2271L71.7343 67.9749H71.7343L71.0169 69.2271ZM71.8204 60.3586L72.5379 59.1064H72.5379L71.8204 60.3586ZM71.0169 61.7611L71.7343 60.5089H71.7343L71.0169 61.7611ZM90.261 72.7868L90.9784 71.5346H90.9784L90.261 72.7868ZM99.883 78.2997L99.1656 79.5519L99.1656 79.5519L99.883 78.2997ZM100.986 78.0003L99.7338 77.2828L99.7338 77.2828L100.986 78.0003ZM100.687 76.8972L101.404 75.645H101.404L100.687 76.8972ZM91.0645 71.3844L90.3471 72.6366L91.0645 71.3844ZM71.9696 46.0996C71.7953 46.4039 71.4073 46.5092 71.103 46.3349L72.5379 43.8304C71.459 43.2123 70.0833 43.5858 69.4652 44.6647L71.9696 46.0996ZM71.7343 45.2329C72.0386 45.4073 72.144 45.7953 71.9696 46.0996L69.4652 44.6647C68.8471 45.7436 69.2206 47.1192 70.2995 47.7374L71.7343 45.2329ZM98.8705 60.7804L71.7343 45.2329L70.2995 47.7374L97.4356 63.2848L98.8705 60.7804ZM98.0038 61.0157C98.1782 60.7114 98.5662 60.606 98.8705 60.7804L97.4356 63.2848C98.5144 63.9029 99.8901 63.5294 100.508 62.4506L98.0038 61.0157ZM98.2391 61.8823C97.9348 61.708 97.8295 61.32 98.0038 61.0157L100.508 62.4506C101.126 61.3717 100.753 59.996 99.674 59.3779L98.2391 61.8823ZM71.103 46.3349L98.2391 61.8823L99.674 59.3779L72.5379 43.8304L71.103 46.3349ZM71.9696 53.8734C71.7953 54.1777 71.4073 54.283 71.103 54.1087L72.5379 51.6042C71.459 50.9861 70.0833 51.3596 69.4652 52.4385L71.9696 53.8734ZM71.7343 53.0067C72.0386 53.1811 72.144 53.5691 71.9696 53.8734L69.4652 52.4385C68.8471 53.5173 69.2206 54.893 70.2995 55.5112L71.7343 53.0067ZM110.223 75.0583L71.7343 53.0067L70.2995 55.5112L108.788 77.5627L110.223 75.0583ZM109.356 75.2936C109.53 74.9893 109.918 74.8839 110.223 75.0583L108.788 77.5627C109.866 78.1808 111.242 77.8073 111.86 76.7284L109.356 75.2936ZM109.591 76.1602C109.287 75.9859 109.182 75.5979 109.356 75.2935L111.86 76.7285C112.478 75.6496 112.105 74.2739 111.026 73.6558L109.591 76.1602ZM71.103 54.1087L109.591 76.1602L111.026 73.6558L72.5379 51.6042L71.103 54.1087ZM72.5379 66.5724C71.459 65.9543 70.0833 66.3278 69.4652 67.4066L71.9696 68.8415C71.7953 69.1458 71.4073 69.2512 71.103 69.0768L72.5379 66.5724ZM100.832 82.7836L72.5379 66.5724L71.103 69.0768L99.3975 85.288L100.832 82.7836ZM101.667 85.8562C102.285 84.7774 101.911 83.4017 100.832 82.7835L99.3975 85.288C99.0932 85.1136 98.9879 84.7256 99.1622 84.4213L101.667 85.8562ZM98.594 86.6905C99.6728 87.3086 101.049 86.9351 101.667 85.8562L99.1622 84.4213C99.3366 84.117 99.7246 84.0117 100.029 84.186L98.594 86.6905ZM70.2995 70.4793L98.594 86.6905L100.029 84.186L71.7343 67.9749L70.2995 70.4793ZM69.4652 67.4066C68.8471 68.4855 69.2206 69.8612 70.2995 70.4793L71.7343 67.9749C72.0386 68.1492 72.144 68.5372 71.9696 68.8415L69.4652 67.4066ZM71.9696 61.3755C71.7953 61.6798 71.4073 61.7852 71.103 61.6108L72.5379 59.1064C71.459 58.4883 70.0833 58.8618 69.4652 59.9406L71.9696 61.3755ZM71.7343 60.5089C72.0386 60.6832 72.144 61.0712 71.9696 61.3755L69.4652 59.9406C68.8471 61.0195 69.2206 62.3952 70.2995 63.0133L71.7343 60.5089ZM90.9784 71.5346L71.7343 60.5089L70.2995 63.0133L89.5435 74.0391L90.9784 71.5346ZM100.6 77.0475L90.9784 71.5346L89.5435 74.0391L99.1656 79.5519L100.6 77.0475ZM99.7338 77.2828C99.9082 76.9785 100.296 76.8732 100.6 77.0475L99.1656 79.5519C100.244 80.1701 101.62 79.7966 102.238 78.7177L99.7338 77.2828ZM99.9691 78.1495C99.6648 77.9751 99.5595 77.5871 99.7338 77.2828L102.238 78.7177C102.856 77.6388 102.483 76.2632 101.404 75.645L99.9691 78.1495ZM90.3471 72.6366L99.9691 78.1495L101.404 75.645L91.782 70.1321L90.3471 72.6366ZM71.103 61.6108L90.3471 72.6366L91.782 70.1321L72.5379 59.1064L71.103 61.6108Z"
            fill="#51A6B1" mask="url(#path-59-outside-1_1165_1302)" />
        <path
            d="M119.25 78.9802C119.331 78.6792 119.642 78.6507 119.945 78.9164L126.761 84.8972C127.063 85.163 127.244 85.6224 127.163 85.9233L122.619 102.916C122.503 103.347 121.955 103.187 121.652 102.635L119.313 98.3738C119.164 98.1013 118.933 97.899 118.723 97.8554L115.427 97.1728C115 97.0843 114.591 96.4037 114.706 95.9732L119.25 78.9802Z"
            fill="#8FE3E8" stroke="#4C99A4" stroke-width="1.44318" />
        <path
            d="M134.429 87.6772C134.349 87.284 134.038 86.8993 133.735 86.818L126.919 84.9884C126.616 84.907 126.436 85.1599 126.516 85.5531L131.061 107.754C131.176 108.316 131.724 108.785 132.027 108.58L134.366 106.999C134.516 106.898 134.746 106.959 134.957 107.157L138.253 110.251C138.68 110.652 139.089 110.44 138.974 109.878L134.429 87.6772Z"
            fill="#8FE3E8" stroke="#4C99A4" stroke-width="1.44318" />
        <path
            d="M125.701 61.3522C126.253 60.8556 127.32 61.4669 127.871 62.5954L128.377 63.6301C129.099 65.1086 130.346 66.2075 131.434 66.3239L132.2 66.4059C133.032 66.4949 133.957 67.6421 134.081 68.7365L134.19 69.7075C134.353 71.1445 135.27 72.7262 136.437 73.5794L137.237 74.1648C138.129 74.8168 138.665 76.1966 138.324 76.9613L138.03 77.6214C137.583 78.6261 137.921 80.2697 138.856 81.6389L139.475 82.5456C140.188 83.5897 140.188 84.8303 139.475 85.0572L138.856 85.2543C137.921 85.552 137.583 86.8087 138.03 88.326L138.324 89.323C138.665 90.4781 138.129 91.2431 137.237 90.8736L136.437 90.5419C135.27 90.0584 134.353 90.5886 134.19 91.8397L134.081 92.6851C133.957 93.6379 133.032 93.7244 132.2 92.8608L131.434 92.0644C130.346 90.9349 129.099 90.605 128.377 91.2556L127.871 91.7108C127.32 92.2074 126.253 91.5961 125.701 90.4676L125.196 89.433C124.473 87.9544 123.226 86.8555 122.139 86.7391L121.372 86.6571C120.541 86.5681 119.615 85.4209 119.492 84.3266L119.382 83.3555C119.22 81.9185 118.302 80.3368 117.136 79.4836L116.336 78.8982C115.444 78.2462 114.908 76.8665 115.248 76.1017L115.542 75.4416C115.99 74.4369 115.652 72.7933 114.717 71.4241L114.098 70.5174C113.385 69.4733 113.385 68.2327 114.098 68.0058L114.717 67.8087C115.652 67.511 115.99 66.2544 115.542 64.737L115.248 63.74C114.908 62.585 115.444 61.8199 116.336 62.1894L117.136 62.5211C118.302 63.0046 119.22 62.4744 119.382 61.2233L119.492 60.3779C119.615 59.4251 120.541 59.3387 121.372 60.2023L122.139 60.9986C123.226 62.1281 124.473 62.458 125.196 61.8075L125.701 61.3522Z"
            fill="#FFE500" stroke="#D7AA0A" stroke-width="1.44318" />
        <path
            d="M135.35 81.693C135.35 84.5223 134.355 86.3193 132.952 87.1229C131.548 87.9272 129.48 87.8836 127.008 86.4678C124.542 85.0543 122.268 82.6002 120.609 79.7492C118.95 76.8981 117.946 73.7176 117.946 70.8922C117.946 68.0629 118.941 66.2659 120.344 65.4623C121.747 64.658 123.816 64.7016 126.287 66.1175C128.754 67.5309 131.028 69.985 132.687 72.836C134.345 75.6872 135.35 78.8677 135.35 81.693Z"
            fill="#FFFAD1" stroke="#D7AA0A" stroke-width="1.44318" />
        <path
            d="M126.625 72.1883C126.628 72.1832 126.631 72.1816 126.631 72.1813C126.632 72.1809 126.632 72.1807 126.633 72.1806C126.635 72.1805 126.64 72.1809 126.648 72.1854C126.655 72.19 126.66 72.1953 126.662 72.1974C126.663 72.1982 126.663 72.1989 126.664 72.2C126.664 72.201 126.667 72.2051 126.67 72.2139L127.437 74.375C127.623 74.8996 127.971 75.3895 128.373 75.6936L130.033 76.9471C130.04 76.9522 130.043 76.9556 130.044 76.9564C130.045 76.9573 130.045 76.958 130.046 76.9588C130.047 76.9611 130.051 76.9679 130.053 76.9781C130.056 76.9883 130.055 76.9943 130.055 76.9962C130.055 76.9969 130.054 76.9974 130.054 76.9981C130.054 76.9987 130.052 77.0011 130.047 77.0039L128.864 77.6835C128.573 77.8504 128.439 78.2474 128.504 78.7509L128.765 80.8C128.766 80.8084 128.766 80.812 128.766 80.8129C128.766 80.8139 128.765 80.8144 128.765 80.815C128.764 80.8166 128.762 80.8204 128.755 80.8221C128.749 80.8239 128.743 80.8222 128.741 80.8213C128.741 80.821 128.74 80.8207 128.739 80.8199C128.738 80.8193 128.735 80.8167 128.729 80.8096L127.224 79.07C126.862 78.651 126.433 78.4058 126.071 78.4094L124.566 78.4244C124.56 78.4245 124.557 78.4234 124.556 78.4231C124.555 78.4227 124.554 78.4224 124.554 78.4219C124.552 78.4206 124.546 78.4162 124.54 78.4071C124.533 78.398 124.531 78.3909 124.53 78.3885C124.53 78.3876 124.529 78.3868 124.529 78.3857C124.529 78.3847 124.529 78.3807 124.53 78.3735L124.791 76.624C124.856 76.1941 124.722 75.6435 124.431 75.1436L123.248 73.1084C123.243 73.1 123.241 73.0956 123.241 73.0947C123.241 73.0941 123.241 73.0936 123.241 73.0931C123.24 73.0927 123.24 73.0923 123.24 73.0919C123.24 73.0895 123.239 73.0829 123.242 73.0755C123.244 73.0681 123.248 73.0655 123.249 73.0648C123.25 73.0646 123.25 73.0645 123.251 73.0645C123.252 73.0645 123.255 73.0647 123.262 73.0673L124.922 73.7158C125.324 73.8731 125.672 73.7821 125.858 73.4708L126.625 72.1883Z"
            fill="#FFE500" stroke="#D7AA0A" stroke-width="1.44318" />
        <path
            d="M75.7293 33.703C74.0852 32.761 72.982 33.2291 72.9822 35.3635L72.9823 36.8852C73.1492 36.8865 73.3324 36.9414 73.5184 37.0459C73.7047 37.1527 73.8886 37.3069 74.0561 37.4968L74.0559 35.9715C74.0558 34.5873 74.7209 34.2575 75.734 34.838C76.7472 35.4185 77.403 36.5051 77.4031 37.8893L77.4033 41.2149L78.474 41.8283L78.4737 38.5027C78.4767 36.3576 77.3733 34.6449 75.7293 33.703Z"
            fill="#151E29" />
        <path
            d="M79.0598 38.968C79.0597 37.0265 80.3027 36.3153 82.054 37.3187C83.8052 38.322 85.0267 40.4507 85.0269 42.3868L85.0269 42.8386L80.1849 40.0644C80.3404 41.293 81.0863 42.3544 82.0497 42.9064C82.7708 43.3195 83.2773 43.3507 83.6036 42.9822L84.7846 43.6589C84.3573 44.6035 83.3442 44.7875 82.0498 44.0459C80.2986 43.0425 79.06 40.9094 79.0598 38.968ZM83.9002 41.0947C83.6857 39.9485 82.9553 38.9745 82.0541 38.4582C81.1528 37.9418 80.4334 38.0993 80.219 38.9856L83.9002 41.0947Z"
            fill="#151E29" />
        <path
            d="M85.5989 42.7152C85.5987 40.7755 86.8418 40.0643 88.593 41.0677C90.3443 42.0711 91.5876 44.2122 91.5877 46.1465C91.5878 48.0808 90.3448 48.7992 88.5936 47.7958C86.8423 46.7924 85.599 44.6567 85.5989 42.7152ZM90.5077 45.5277C90.5076 44.2346 89.7415 42.8633 88.5931 42.2054C87.4448 41.5475 86.6803 42.0418 86.6804 43.3349C86.6805 44.628 87.4451 45.9983 88.5919 46.6554C89.7387 47.3124 90.5078 46.8226 90.5077 45.5277Z"
            fill="#151E29" />
        <path
            d="M97.7037 54.1189L97.828 54.1901C98.5149 54.5836 98.7728 54.3742 98.7727 53.4811L98.7722 47.112L99.8429 47.7255L99.8434 54.0124C99.8435 55.5913 99.3028 56.0959 97.9291 55.3089L97.7038 55.1798L97.7037 54.1189Z"
            fill="#151E29" />
        <path
            d="M97.1696 53.155L96.0989 52.5415L96.0988 51.0252L93.3872 49.4716C93.1397 49.3397 92.8945 49.1302 92.679 48.8665C92.4634 48.6027 92.2858 48.2948 92.1658 47.977C92.0683 47.6871 92.0303 47.4043 92.0561 47.1613C92.0819 46.9183 92.1705 46.7249 92.3117 46.6033L94.7449 44.3271C94.9131 44.1626 95.1485 44.1041 95.4177 44.16C95.687 44.216 95.9763 44.3834 96.2447 44.6386C96.5131 44.8938 96.7469 45.2238 96.9128 45.5817C97.0787 45.9396 97.1684 46.3072 97.1691 46.6323L97.1694 50.5473L97.9728 51.0076L97.9728 52.0989L97.1695 51.6386L97.1696 53.155ZM93.2022 47.785C93.1702 47.819 93.1528 47.8713 93.1525 47.9351C93.1523 47.9756 93.1591 48.0198 93.1725 48.0651C93.186 48.1104 93.2058 48.1559 93.2308 48.199C93.2558 48.242 93.2855 48.2818 93.3182 48.316C93.3509 48.3502 93.386 48.3781 93.4213 48.3981L96.0987 49.9321L96.0984 45.9885C96.1004 45.9232 96.0834 45.8482 96.05 45.7749C96.0166 45.7015 95.9686 45.6339 95.9135 45.5825C95.8816 45.5538 95.8487 45.5295 95.8156 45.5103C95.7737 45.4863 95.7325 45.4746 95.6956 45.4762C95.6588 45.4778 95.6274 45.4927 95.6043 45.5196L93.2022 47.785Z"
            fill="#151E29" />
        <path
            d="M99.3129 44.8089C99.1315 44.7046 98.9541 44.6645 98.8031 44.6935C98.6522 44.7226 98.5344 44.8196 98.4648 44.9722C98.3952 45.1249 98.3768 45.3263 98.4121 45.551C98.4473 45.7757 98.5345 46.0136 98.6626 46.2345C98.7908 46.4555 98.9542 46.6496 99.1321 46.7924C99.31 46.9351 99.4944 47.02 99.662 47.0363C99.8296 47.0527 99.9729 46.9997 100.074 46.8841C100.174 46.7685 100.228 46.5956 100.228 46.3871C100.228 46.1079 100.132 45.7849 99.9602 45.489C99.7886 45.1931 99.5558 44.9485 99.3129 44.8089Z"
            fill="#014063" />
        <path
            d="M73.4719 37.4099C73.119 37.2081 72.7251 37.0417 72.4335 36.6456L72.121 36.221C71.9978 36.0536 71.9485 35.8481 71.949 35.6765C71.9512 35.4692 71.8994 35.235 71.8002 35.0036C71.701 34.7722 71.5589 34.554 71.3919 34.3767C71.225 34.1995 71.0407 34.0712 70.8625 34.0081C70.6843 33.945 70.5202 33.95 70.391 34.0224C70.2619 34.0949 70.1735 34.2315 70.1372 34.4149C70.1008 34.5984 70.1181 34.8204 70.1868 35.0527C70.2555 35.2851 70.3726 35.5173 70.5231 35.7199C70.6736 35.9225 70.8509 36.0864 71.0323 36.1907C71.3848 36.393 71.7789 36.5601 72.0693 36.9569L72.3806 37.3822C72.5036 37.5503 72.5522 37.7558 72.5521 37.9279C72.552 38.1006 72.5028 38.2508 72.379 38.2771L72.0652 38.3439C71.7753 38.4056 71.3834 38.1218 71.0324 37.9196C70.851 37.8153 70.6735 37.7752 70.5225 37.8043C70.3715 37.8334 70.2538 37.9305 70.1842 38.0833C70.1146 38.236 70.0964 38.4376 70.1317 38.6624C70.167 38.8872 70.2544 39.1252 70.3827 39.3462C70.511 39.5672 70.6746 39.7613 70.8526 39.9039C71.0305 40.0464 71.215 40.1311 71.3826 40.1471C71.5502 40.1632 71.6933 40.1099 71.7939 39.994C71.8946 39.878 71.9481 39.7047 71.9478 39.496C71.9477 39.3261 71.9968 39.1795 72.1185 39.1536L72.4337 39.0865C72.7253 39.0245 73.1192 39.3094 73.4721 39.5121C73.7034 39.6256 73.9198 39.6306 74.0777 39.5261C74.2357 39.4216 74.3235 39.2153 74.3235 38.9488C74.3235 38.6823 74.2356 38.3754 74.0776 38.0899C73.9196 37.8043 73.7032 37.5614 73.4719 37.4099Z"
            fill="#014063" />
    </g>
    <defs>
        <clipPath id="clip0_1165_1302">
            <rect width="98.1364" height="127" fill="white" transform="translate(58 6)" />
        </clipPath>
    </defs>
</svg>