<svg width="166" height="137" viewBox="0 0 166 137" fill="none" xmlns="http://www.w3.org/2000/svg">
<g transform="translate(22, 0) scale(0.85625)">
<path opacity="0.35" d="M123.42 85.6809C147.669 99.8266 147.765 122.766 123.707 136.911C99.6488 151.057 60.507 151.057 36.2582 136.911C12.0094 122.766 11.914 99.8266 35.9718 85.6809C60.0297 71.4397 99.1715 71.4397 123.42 85.6809Z" fill="#30839D"/>
<path d="M141.372 83.2512L141.372 95.1985C141.372 104.183 135.417 113.263 123.411 120.24C99.5907 134.195 60.3066 134.195 36.1983 120.24C24.096 113.263 18.0449 104.087 18.0449 95.1029L18.0449 83.06C18.0449 92.3311 24 101.316 36.1983 108.197C60.3066 122.152 99.3986 122.152 123.411 108.197C135.417 101.316 141.372 92.3312 141.372 83.2512Z" fill="#0A6190" stroke="#0A6190" stroke-linejoin="round"/>
<path d="M123.42 56.9681C147.669 71.1138 147.765 94.0527 123.707 108.198C99.649 122.344 60.5073 122.344 36.2585 108.198C12.0097 94.0527 11.9142 71.1138 35.9721 56.9681C60.0299 42.7269 99.1717 42.7269 123.42 56.9681Z" fill="#8FE3E8" stroke="#0A6190" stroke-linejoin="round"/>
<path d="M25.3659 79.6698C25.3659 87.8896 30.7121 95.8227 41.4045 102.035C62.6938 114.365 96.9667 114.365 118.065 102.035C129.044 95.6315 134.199 87.0294 133.817 78.6185C133.435 41.7251 109.187 12 79.687 12C49.7102 12.0956 25.3659 42.2985 25.3659 79.6698Z" stroke="#0A6190"/>
<path opacity="0.3" d="M25.3659 79.67C25.3659 87.8898 30.7121 95.8228 41.4045 102.035C62.6938 114.365 96.9667 114.365 118.065 102.035C129.044 95.6317 134.199 87.0296 133.817 78.6187C133.435 41.7252 109.187 12.0002 79.687 12.0002C49.7102 12.0958 25.3659 42.2987 25.3659 79.67Z" fill="white"/>
<g opacity="0.35">
<path fill-rule="evenodd" clip-rule="evenodd" d="M74.5078 78.4835C74.2101 79.1248 74.2713 79.7728 74.6203 80.3565C74.9111 80.8429 75.4018 81.2846 76.0512 81.6406C76.7006 81.9965 77.5087 82.2666 78.4345 82.4098C79.6961 82.605 80.9727 82.533 82.084 82.2538C83.5822 81.8776 84.7801 81.1248 85.2358 80.1429C86.0296 78.4327 84.2715 76.6748 81.3091 76.2165C79.9117 76.0004 78.496 76.112 77.3069 76.4697C75.9749 76.8704 74.9271 77.5799 74.5078 78.4835Z" fill="#0A6190"/>
<path fill-rule="evenodd" clip-rule="evenodd" d="M73.7274 96.8476C75.3767 97.9216 77.4911 98.7091 80.0001 98.7091C82.5091 98.7091 84.6235 97.9216 86.2729 96.8476C87.7009 95.9178 88.9276 94.6852 89.9536 93.2599C92.4249 93.8488 94.8019 94.2197 96.9506 94.2942C98.5016 94.348 100.044 94.2486 101.416 93.9164C102.239 93.7171 103.001 93.4339 103.666 93.0499C105.44 92.0257 105.971 90.6057 105.822 89.173C105.692 87.9325 105.05 86.5603 104.03 85.1336C106.499 84.5412 108.634 83.8331 110.245 83.0086C112.105 82.0565 113.469 80.8358 113.469 79.3874C113.469 77.939 112.105 76.7183 110.245 75.7661C109.754 75.5149 109.215 75.2745 108.632 75.0449C108.258 74.8977 107.867 74.755 107.459 74.6166C106.415 74.2625 105.264 73.9373 104.03 73.6411C105.05 72.2145 105.692 70.8423 105.822 69.6018C105.971 68.1692 105.44 66.7492 103.666 65.725C103.034 65.3599 102.314 65.086 101.538 64.8886C100.136 64.5323 98.5476 64.4252 96.9504 64.4806C94.8017 64.5551 92.4247 64.926 89.9535 65.5149C88.9275 64.0897 87.7009 62.8572 86.2728 61.9273C85.8605 61.6589 85.4191 61.4083 84.9497 61.1834C84.3887 60.9146 83.7877 60.6826 83.1486 60.5008C82.1837 60.2261 81.132 60.0658 79.9999 60.0658C77.491 60.0658 75.3767 60.8534 73.7274 61.9273C72.2993 62.8572 71.0727 64.0897 70.0466 65.515C67.5753 64.926 65.1982 64.5552 63.0494 64.4806C60.5677 64.3945 58.108 64.7008 56.3339 65.725C54.7815 66.6211 54.1813 67.8203 54.1555 69.0659C54.1518 69.2439 54.1598 69.4228 54.1784 69.6018C54.3076 70.8423 54.9499 72.2145 55.97 73.6411C53.5012 74.2335 51.3662 74.9416 49.7555 75.766C47.8952 76.7182 46.531 77.9388 46.531 79.3873C46.531 80.8357 47.8956 82.0565 49.7559 83.0086C51.3665 83.833 53.5014 84.5411 55.97 85.1334C54.9498 86.5602 54.3074 87.9325 54.1783 89.173C54.0291 90.6056 54.5596 92.0256 56.3337 93.0498C58.1078 94.074 60.5677 94.3803 63.0494 94.2942C65.1982 94.2197 67.5752 93.8488 70.0465 93.2599C71.0726 94.6852 72.2993 95.9177 73.7274 96.8476ZM99.2745 67.2381C99.5917 67.2924 99.8514 67.3634 100.063 67.4441C100.196 67.4947 100.31 67.5491 100.408 67.6056C100.916 67.8988 101.327 68.4459 101.223 69.4423C101.13 70.3359 100.627 71.4604 99.6702 72.7663C97.6046 72.4211 95.3562 72.1303 92.9667 71.9016C92.5706 70.5222 92.0669 69.2243 91.4689 68.0319C93.7312 67.4794 95.679 67.1892 97.227 67.1354C98.09 67.1055 98.7584 67.1497 99.2745 67.2381ZM57.9814 82.7351C55.7052 82.2024 53.9725 81.6125 52.8122 81.0185C51.5183 80.3563 51.1384 79.8021 51.1384 79.3874C51.1384 78.9727 51.5183 78.4184 52.8122 77.7562C53.9725 77.1623 55.7052 76.5724 57.9815 76.0396C59.0192 77.1269 60.2529 78.2503 61.6623 79.3873C60.2528 80.5244 59.0191 81.6479 57.9814 82.7351ZM64.6047 77.1751C63.8062 76.499 63.0826 75.8345 62.4379 75.1879C63.6858 74.9938 65.0115 74.8193 66.4044 74.6671C66.3246 75.1342 66.2565 75.6078 66.2004 76.0873C65.6526 76.4494 65.1205 76.8122 64.6047 77.1751ZM74.2841 71.4206C73.4534 71.453 72.6328 71.4924 71.8237 71.5385C72.0874 70.7344 72.3895 69.9692 72.7256 69.2488C73.8457 69.621 74.9967 70.0388 76.1679 70.4997C75.5394 70.7974 74.911 71.1045 74.2841 71.4206ZM79.9999 68.801C78.0303 67.9874 76.0843 67.2752 74.201 66.6762C75.1239 65.362 76.1458 64.3617 77.1746 63.6918C78.3217 62.9448 79.2818 62.7255 80.0001 62.7255C80.3593 62.7255 80.7789 62.7803 81.2521 62.9285C81.5031 63.0071 81.7691 63.112 82.0492 63.2489C82.2972 63.3701 82.5562 63.5163 82.8254 63.6917C83.8542 64.3616 84.8761 65.3619 85.799 66.6761C83.9156 67.2751 81.9696 67.9874 79.9999 68.801ZM101.223 89.3326C101.327 90.329 100.916 90.876 100.408 91.1692C99.9323 91.4441 99.0697 91.6695 97.5416 91.6472C97.4397 91.6457 97.3349 91.6431 97.227 91.6394C95.679 91.5857 93.7312 91.2955 91.469 90.743C92.067 89.5505 92.5707 88.2525 92.9668 86.8731C95.3562 86.6444 97.6046 86.3536 99.6701 86.0084C100.627 87.3144 101.13 88.4389 101.223 89.3326ZM62.773 67.1354C61.047 67.0756 60.0994 67.3124 59.5915 67.6056C59.0836 67.8988 58.6734 68.4458 58.7771 69.4423C58.8702 70.3359 59.3728 71.4604 60.3298 72.7663C62.3954 72.4211 64.644 72.1303 67.0335 71.9016C67.4297 70.5222 67.9333 69.2243 68.5313 68.0319C66.2689 67.4794 64.3211 67.1892 62.773 67.1354ZM70.6166 79.3875C70.6166 80.1417 70.6475 80.8833 70.7073 81.6096C71.5546 82.1476 72.4411 82.6846 73.3648 83.2179C74.2885 83.7512 75.2188 84.2629 76.1507 84.7521C77.409 84.7866 78.6938 84.8045 80.0003 84.8045C81.3066 84.8045 82.5912 84.7866 83.8493 84.7521C84.7812 84.2629 85.7114 83.7512 86.6352 83.2179C87.5589 82.6846 88.4454 82.1476 89.2927 81.6096C89.3525 80.8833 89.3835 80.1416 89.3835 79.3874C89.3835 78.6332 89.3525 77.8916 89.2927 77.1652C88.4454 76.6272 87.5589 76.0902 86.6352 75.5569C85.7114 75.0236 84.7811 74.5118 83.8491 74.0226C82.5911 73.9881 81.3066 73.9703 80.0003 73.9703C78.6939 73.9703 77.4091 73.9881 76.1509 74.0227C75.2189 74.5118 74.2886 75.0236 73.3648 75.5569C72.4411 76.0902 71.5547 76.6272 70.7073 77.1652C70.6475 77.8916 70.6166 78.6333 70.6166 79.3875ZM65.5908 82.2798C65.2558 82.0532 64.9271 81.8264 64.6048 81.5996C63.8063 82.2758 63.0826 82.9403 62.4379 83.5869C63.6859 83.781 65.0115 83.9554 66.4044 84.1076C66.3246 83.6406 66.2564 83.1669 66.2003 82.6874C65.9949 82.5516 65.7917 82.4157 65.5908 82.2798ZM76.168 88.2751C75.5394 87.9774 74.9109 87.6702 74.2838 87.354C73.4532 87.3216 72.6327 87.2822 71.8236 87.2362C72.0872 88.0403 72.3895 88.8056 72.7256 89.526C73.8457 89.1538 74.9967 88.736 76.168 88.2751ZM80 89.9737C81.7235 90.6857 83.4288 91.32 85.0899 91.8688C85.3272 91.9471 85.5637 92.0238 85.7991 92.0987C84.8761 93.4129 83.8543 94.4132 82.8254 95.0831C81.6783 95.8301 80.7182 96.0494 79.9999 96.0494C79.2816 96.0494 78.3216 95.8301 77.1746 95.0832C76.1457 94.4133 75.1239 93.4129 74.2009 92.0987C76.0843 91.4996 78.0303 90.7874 80 89.9737ZM88.1763 71.5385C87.9127 70.7344 87.6105 69.9692 87.2744 69.2488C86.1543 69.621 85.0033 70.0388 83.832 70.4997C84.4605 70.7974 85.0888 71.1045 85.7157 71.4206C86.5465 71.453 87.3671 71.4924 88.1763 71.5385ZM108.862 79.3873C108.862 78.9726 108.482 78.4183 107.188 77.7561C106.741 77.527 106.208 77.2986 105.592 77.0738C104.61 76.7156 103.417 76.3668 102.019 76.0395C100.981 77.1268 99.7472 78.2503 98.3377 79.3874C99.7471 80.5245 100.981 81.648 102.019 82.7353C104.295 82.2025 106.028 81.6125 107.189 81.0186C108.482 80.3563 108.862 79.8019 108.862 79.3873ZM83.832 88.2751C84.4606 87.9774 85.089 87.6702 85.7161 87.354C86.5468 87.3216 87.3673 87.2823 88.1764 87.2362C87.9127 88.0403 87.6105 88.8056 87.2744 89.526C86.1543 89.1538 85.0033 88.736 83.832 88.2751ZM95.3952 81.5996C94.8796 81.9625 94.3476 82.3252 93.7999 82.6872C93.7438 83.1668 93.6756 83.6405 93.5958 84.1077C94.9886 83.9555 96.3143 83.781 97.5622 83.587C96.9174 82.9404 96.1937 82.2758 95.3952 81.5996ZM97.5623 75.1878C96.3143 74.9937 94.9886 74.8193 93.5958 74.6671C93.6756 75.1342 93.7438 75.608 93.7999 76.0876C94.3476 76.4496 94.8796 76.8124 95.3952 77.1752C96.1938 76.499 96.9175 75.8344 97.5623 75.1878ZM67.0334 86.873C67.4295 88.2525 67.9332 89.5505 68.5312 90.7429C66.2689 91.2955 64.321 91.5857 62.773 91.6394C61.047 91.6993 60.0994 91.4625 59.5915 91.1692C59.0836 90.876 58.6734 90.329 58.7771 89.3326C58.8702 88.4389 59.3729 87.3144 60.33 86.0083C62.3955 86.3535 64.644 86.6443 67.0334 86.873Z" fill="#0A6190"/>
</g>
<path fill-rule="evenodd" clip-rule="evenodd" d="M67.8263 83.4215C73.6152 80.7902 80.5674 75.8655 87.2165 69.2164C93.8656 62.5673 98.7903 55.6151 101.422 49.8262C102.741 46.9226 103.425 44.4412 103.541 42.5138C103.657 40.5823 103.198 39.522 102.629 38.9536C102.061 38.3852 101.001 37.9262 99.0692 38.0423C97.1417 38.1581 94.6604 38.8415 91.7567 40.1613C85.9678 42.7926 79.0156 47.7173 72.3665 54.3664C65.7174 61.0155 60.7927 67.9678 58.1614 73.7566C56.8416 76.6603 56.1582 79.1416 56.0423 81.0691C55.9262 83.0005 56.3853 84.0609 56.9537 84.6293C57.5221 85.1977 58.5824 85.6567 60.5139 85.5406C62.4413 85.4247 64.9226 84.7414 67.8263 83.4215ZM60.8232 90.6867C58.0461 90.8536 55.2935 90.26 53.3083 88.2747C51.323 86.2894 50.7293 83.5368 50.8962 80.7597C51.0634 77.9786 51.9988 74.8558 53.4681 71.6233C56.4152 65.1398 61.7506 57.6915 68.7211 50.721C75.6916 43.7505 83.1399 38.4151 89.6234 35.468C92.8559 33.9987 95.9787 33.0633 98.7598 32.8962C101.537 32.7292 104.289 33.3229 106.275 35.3082C108.26 37.2935 108.854 40.046 108.687 42.8231C108.52 45.6042 107.584 48.727 106.115 51.9596C103.168 58.4431 97.8324 65.8913 90.8619 72.8618C83.8914 79.8324 76.4432 85.1678 69.9596 88.1148C66.7271 89.5842 63.6043 90.5195 60.8232 90.6867Z" fill="white" stroke="#1A1B1D" stroke-linejoin="round"/>
<path fill-rule="evenodd" clip-rule="evenodd" d="M58.1611 49.8261C60.7924 55.6149 65.7171 62.5671 72.3662 69.2163C79.0153 75.8654 85.9675 80.7901 91.7564 83.4214C94.6601 84.7412 97.1414 85.4246 99.0689 85.5404C101 85.6565 102.061 85.1975 102.629 84.6291C103.197 84.0607 103.656 83.0004 103.54 81.0689C103.425 79.1415 102.741 76.6601 101.421 73.7564C98.79 67.9676 93.8653 61.0154 87.2162 54.3663C80.5671 47.7171 73.6149 42.7925 67.826 40.1612C64.9224 38.8413 62.441 38.1579 60.5136 38.0421C58.5821 37.926 57.5218 38.385 56.9534 38.9534C56.385 39.5218 55.9259 40.5822 56.042 42.5136C56.1579 44.4411 56.8413 46.9224 58.1611 49.8261ZM50.8959 42.8229C50.729 40.0459 51.3227 37.2933 53.308 35.308C55.2933 33.3227 58.0458 32.7291 60.8229 32.896C63.604 33.0632 66.7268 33.9985 69.9593 35.4679C76.4429 38.4149 83.8911 43.7503 90.8616 50.7209C97.8322 57.6914 103.168 65.1396 106.115 71.6231C107.584 74.8556 108.519 77.9785 108.686 80.7596C108.853 83.5367 108.26 86.2892 106.274 88.2745C104.289 90.2598 101.537 90.8535 98.7595 90.6865C95.9784 90.5194 92.8556 89.584 89.6231 88.1147C83.1396 85.1676 75.6913 79.8322 68.7208 72.8617C61.7503 65.8911 56.4149 58.4429 53.4678 51.9594C51.9985 48.7269 51.0631 45.604 50.8959 42.8229Z" fill="#90CB62" stroke="#1A1B1D" stroke-linejoin="round"/>
<circle cx="79.588" cy="61.7912" r="6.21427" transform="rotate(60 79.588 61.7912)" fill="#90CB62"/>
<path opacity="0.5" d="M85.3691 64.0686C84.8726 65.3315 83.9616 66.4419 82.695 67.1731C79.7228 68.8891 75.9222 67.8701 74.2062 64.8979C72.63 62.1675 73.3625 58.7405 75.796 56.8702C75.1266 58.5713 75.2082 60.5493 76.1932 62.2554C77.9092 65.2276 81.7098 66.2465 84.682 64.5307C84.9245 64.3907 85.153 64.2348 85.3691 64.0686Z" fill="#4D8622"/>
<circle cx="79.588" cy="61.7912" r="5.71427" transform="rotate(60 79.588 61.7912)" stroke="#1A1B1D"/>
<path fill-rule="evenodd" clip-rule="evenodd" d="M103.547 54.9572C97.593 52.7244 89.1948 51.2908 79.7915 51.2908C70.3883 51.2908 61.99 52.7244 56.0361 54.9572C53.0496 56.0771 50.8118 57.3485 49.367 58.6295C47.9191 59.9131 47.4939 60.9875 47.4939 61.7913C47.4939 62.5951 47.9191 63.6695 49.367 64.9532C50.8118 66.2341 53.0496 67.5055 56.0361 68.6254C61.99 70.8582 70.3883 72.2918 79.7915 72.2918C89.1948 72.2918 97.593 70.8582 103.547 68.6254C106.533 67.5055 108.771 66.2341 110.216 64.9532C111.664 63.6695 112.089 62.5951 112.089 61.7913C112.089 60.9875 111.664 59.9131 110.216 58.6295C108.771 57.3485 106.533 56.0771 103.547 54.9572ZM113.636 54.7719C115.718 56.6175 117.245 58.9837 117.245 61.7913C117.245 64.5989 115.718 66.9651 113.636 68.8107C111.551 70.659 108.682 72.2058 105.357 73.4526C98.6887 75.9532 89.6493 77.4472 79.7915 77.4472C69.9337 77.4472 60.8943 75.9532 54.2259 73.4526C50.9012 72.2058 48.0316 70.659 45.9469 68.8107C43.8651 66.9651 42.3385 64.5989 42.3385 61.7913C42.3385 58.9837 43.8651 56.6175 45.9469 54.7719C48.0316 52.9236 50.9012 51.3768 54.2259 50.13C60.8943 47.6294 69.9337 46.1354 79.7915 46.1354C89.6493 46.1354 98.6887 47.6294 105.357 50.13C108.682 51.3768 111.551 52.9236 113.636 54.7719Z" fill="#FFB422" stroke="#1A1B1D" stroke-linejoin="round"/>
<path fill-rule="evenodd" clip-rule="evenodd" d="M86.6254 85.5471C88.8581 79.5932 90.2918 71.1949 90.2918 61.7916C90.2918 52.3884 88.8581 43.9901 86.6254 38.0362C85.5054 35.0497 84.2341 32.8119 82.9531 31.3671C81.6694 29.9193 80.595 29.4941 79.7912 29.4941C78.9874 29.4941 77.913 29.9193 76.6294 31.3671C75.3484 32.8119 74.077 35.0497 72.9571 38.0362C70.7244 43.9901 69.2907 52.3884 69.2907 61.7916C69.2907 71.1949 70.7244 79.5932 72.9571 85.5471C74.077 88.5336 75.3484 90.7714 76.6294 92.2162C77.913 93.664 78.9874 94.0892 79.7912 94.0892C80.595 94.0892 81.6694 93.664 82.9531 92.2162C84.2341 90.7714 85.5054 88.5336 86.6254 85.5471ZM86.8106 95.6363C84.965 97.7181 82.5988 99.2446 79.7912 99.2446C76.9836 99.2446 74.6175 97.7181 72.7718 95.6363C70.9235 93.5516 69.3767 90.682 68.1299 87.3573C65.6293 80.6889 64.1353 71.6495 64.1353 61.7916C64.1353 51.9338 65.6293 42.8944 68.1299 36.226C69.3767 32.9013 70.9235 30.0317 72.7718 27.947C74.6175 25.8652 76.9836 24.3387 79.7912 24.3387C82.5988 24.3387 84.965 25.8652 86.8106 27.947C88.659 30.0317 90.2057 32.9013 91.4525 36.226C93.9532 42.8944 95.4471 51.9338 95.4471 61.7916C95.4471 71.6495 93.9532 80.6889 91.4525 87.3573C90.2057 90.682 88.659 93.5516 86.8106 95.6363Z" fill="#8FE3E8" stroke="#1A1B1D" stroke-linejoin="round"/>
<path d="M102.629 38.9533C102.061 38.3849 101 37.9259 99.069 38.0419C97.1416 38.1578 94.6602 38.8412 91.7566 40.161C85.9677 42.7923 79.0155 47.717 72.3664 54.3661C65.7173 61.0152 60.7926 67.9674 58.1613 73.7563C56.8414 76.66 56.1581 79.1413 56.0422 81.0688C55.9261 83.0002 56.3851 84.0606 56.9535 84.629L53.3081 88.2744C51.3228 86.2891 50.7292 83.5365 50.8961 80.7594C51.0633 77.9783 51.9987 74.8555 53.468 71.623C56.415 65.1395 61.7504 57.6912 68.721 50.7207C75.6915 43.7502 83.1397 38.4148 89.6233 35.4677C92.8558 33.9984 95.9786 33.063 98.7597 32.8958C101.537 32.7289 104.289 33.3226 106.275 35.3079L102.629 38.9533Z" fill="white"/>
<path d="M56.9535 84.629C56.3851 84.0606 55.9261 83.0002 56.0422 81.0688C56.1581 79.1413 56.8414 76.66 58.1613 73.7563C60.7926 67.9674 65.7173 61.0152 72.3664 54.3661C79.0155 47.717 85.9677 42.7923 91.7566 40.161C94.6602 38.8412 97.1416 38.1578 99.069 38.0419C101 37.9259 102.061 38.3849 102.629 38.9533L106.275 35.3079C104.289 33.3226 101.537 32.7289 98.7597 32.8958C95.9786 33.063 92.8558 33.9984 89.6233 35.4677C83.1397 38.4148 75.6915 43.7502 68.721 50.7207C61.7504 57.6912 56.415 65.1395 53.468 71.623C51.9987 74.8555 51.0633 77.9783 50.8961 80.7594C50.7292 83.5365 51.3228 86.2891 53.3081 88.2744M56.9535 84.629C57.5219 85.1974 58.5823 85.6564 60.5137 85.5403M56.9535 84.629L53.3081 88.2744M53.3081 88.2744C55.2934 90.2597 58.046 90.8533 60.8231 90.6864" stroke="#1A1B1D" stroke-linejoin="round"/>
<path d="M102.629 84.6293C103.197 84.0609 103.657 83.0006 103.54 81.0691C103.425 79.1417 102.741 76.6603 101.421 73.7567C98.79 67.9678 93.8654 61.0156 87.2162 54.3665C80.5671 47.7174 73.6149 42.7927 67.8261 40.1614C64.9224 38.8415 62.441 38.1582 60.5136 38.0423C58.5821 37.9262 57.5218 38.3852 56.9534 38.9536L53.308 35.3082C55.2933 33.3229 58.0458 32.7293 60.8229 32.8962C63.604 33.0634 66.7269 33.9988 69.9594 35.4681C76.4429 38.4151 83.8911 43.7505 90.8617 50.7211C97.8322 57.6916 103.168 65.1398 106.115 71.6234C107.584 74.8559 108.519 77.9787 108.687 80.7598C108.853 83.5369 108.26 86.2894 106.274 88.2747L102.629 84.6293Z" fill="#90CB62" stroke="#1A1B1D" stroke-linejoin="round"/>
<path d="M47.4939 61.7913C47.4939 62.5951 47.9191 63.6695 49.367 64.9532C50.8118 66.2342 53.0496 67.5055 56.0361 68.6255C61.99 70.8582 70.3883 72.2919 79.7915 72.2919C89.1948 72.2919 97.593 70.8582 103.547 68.6255C106.533 67.5055 108.771 66.2342 110.216 64.9532C111.664 63.6695 112.089 62.5951 112.089 61.7913L117.245 61.7913C117.245 64.5989 115.718 66.9651 113.636 68.8107C111.551 70.6591 108.682 72.2058 105.357 73.4526C98.6887 75.9533 89.6493 77.4472 79.7915 77.4472C69.9337 77.4472 60.8943 75.9533 54.2259 73.4526C50.9012 72.2058 48.0316 70.6591 45.9469 68.8107C43.8651 66.9651 42.3385 64.5989 42.3385 61.7913L47.4939 61.7913Z" fill="#FFB422" stroke="#1A1B1D" stroke-linejoin="round"/>
<path d="M79.791 29.4941C78.9872 29.4941 77.9128 29.9193 76.6292 31.3671C75.3482 32.8119 74.0768 35.0497 72.9569 38.0362C70.7242 43.9901 69.2905 52.3884 69.2905 61.7916C69.2905 71.1949 70.7242 79.5932 72.9569 85.5471C74.0768 88.5336 75.3482 90.7714 76.6292 92.2162C77.9128 93.664 78.9872 94.0892 79.791 94.0892L79.791 99.2446C76.9834 99.2446 74.6173 97.7181 72.7716 95.6363C70.9233 93.5516 69.3765 90.682 68.1297 87.3573C65.6291 80.6889 64.1351 71.6495 64.1351 61.7916C64.1351 51.9338 65.6291 42.8944 68.1297 36.226C69.3765 32.9013 70.9233 30.0317 72.7716 27.947C74.6173 25.8652 76.9834 24.3387 79.791 24.3387L79.791 29.4941Z" fill="#8FE3E8" stroke="#1A1B1D" stroke-linejoin="round"/>
</g>
</svg>
