<svg xmlns="http://www.w3.org/2000/svg" height="1328" width="362.52500000000003" viewBox="-1.0717968940734863 -1276 362.52500000000003 1328"><g height="1226" width="262.1435852050781"><g class="layer links"><g class="link"><path fill="#e2e3e5ff" d="M 150.63787827345556 -1210 C 150.63787827345556 -1198.1384813685972 150.63787827345556 -1198.1384813685972 150.63787827345556 -1160 L 109.36212172654444 -1160 C 109.36212172654444 -1171.8615186314028 109.36212172654444 -1171.8615186314028 109.36212172654444 -1210 Z"/><text class="text-[12px] font-bold" fill="#1a1b1dff" x="130" y="-1184" text-anchor="middle" font-family="Helvetica Neue, Helvetica, Arial, sans-serif">91 estimated rows</text></g><g class="link"><path fill="#e2e3e5ff" d="M 150.63787827345556 -1094 C 150.63787827345556 -1082.1384813685972 150.63787827345556 -1082.1384813685972 150.63787827345556 -1044 L 109.36212172654444 -1044 C 109.36212172654444 -1055.8615186314028 109.36212172654444 -1055.8615186314028 109.36212172654444 -1094 Z"/><text class="text-[12px] font-bold" fill="#1a1b1dff" x="130" y="-1068" text-anchor="middle" font-family="Helvetica Neue, Helvetica, Arial, sans-serif">91 estimated rows</text></g><g class="link"><path fill="#e2e3e5ff" d="M 160.1960102378411 -978 C 160.1960102378411 -968.9154943091895 160.1960102378411 -968.9154943091895 160.1960102378411 -928 L 99.80398976215889 -928 C 99.80398976215889 -937.0845056908105 99.80398976215889 -937.0845056908105 99.80398976215889 -978 Z"/><text class="text-[12px] font-bold" fill="#1a1b1dff" x="130" y="-952" text-anchor="middle" font-family="Helvetica Neue, Helvetica, Arial, sans-serif">830 estimated rows</text></g><g class="link"><path fill="#e2e3e5ff" d="M 160.1960102378411 -862 C 160.1960102378411 -852.9154943091895 160.1960102378411 -852.9154943091895 160.1960102378411 -812 L 99.80398976215889 -812 C 99.80398976215889 -821.0845056908105 99.80398976215889 -821.0845056908105 99.80398976215889 -862 Z"/><text class="text-[12px] font-bold" fill="#1a1b1dff" x="130" y="-836" text-anchor="middle" font-family="Helvetica Neue, Helvetica, Arial, sans-serif">830 estimated rows</text></g><g class="link"><path fill="#e2e3e5ff" d="M 160.1960102378411 -746 C 160.1960102378411 -736.9154943091895 160.1960102378411 -736.9154943091895 160.1960102378411 -696 L 99.80398976215889 -696 C 99.80398976215889 -705.0845056908105 99.80398976215889 -705.0845056908105 99.80398976215889 -746 Z"/><text class="text-[12px] font-bold" fill="#1a1b1dff" x="130" y="-720" text-anchor="middle" font-family="Helvetica Neue, Helvetica, Arial, sans-serif">830 estimated rows</text></g><g class="link"><path fill="#e2e3e5ff" d="M 160.1960102378411 -610 C 160.1960102378411 -600.9154943091895 160.1960102378411 -600.9154943091895 160.1960102378411 -560 L 99.80398976215889 -560 C 99.80398976215889 -569.0845056908105 99.80398976215889 -569.0845056908105 99.80398976215889 -610 Z"/><text class="text-[12px] font-bold" fill="#1a1b1dff" x="130" y="-584" text-anchor="middle" font-family="Helvetica Neue, Helvetica, Arial, sans-serif">830 estimated rows</text></g><g class="link"><path fill="#e2e3e5ff" d="M 160.1960102378411 -474 C 160.1960102378411 -464.9154943091895 160.1960102378411 -464.9154943091895 160.1960102378411 -424 L 99.80398976215889 -424 C 99.80398976215889 -433.0845056908105 99.80398976215889 -433.0845056908105 99.80398976215889 -474 Z"/><text class="text-[12px] font-bold" fill="#1a1b1dff" x="130" y="-448" text-anchor="middle" font-family="Helvetica Neue, Helvetica, Arial, sans-serif">830 estimated rows</text></g><g class="link"><path fill="#e2e3e5ff" d="M 160.1960102378411 -296 C 160.1960102378411 -286.9154943091895 160.1960102378411 -286.9154943091895 160.1960102378411 -246 L 99.80398976215889 -246 C 99.80398976215889 -255.08450569081046 99.80398976215889 -255.08450569081046 99.80398976215889 -296 Z"/><text class="text-[12px] font-bold" fill="#1a1b1dff" x="130" y="-270" text-anchor="middle" font-family="Helvetica Neue, Helvetica, Arial, sans-serif">830 estimated rows</text></g><g class="link"><path fill="#e2e3e5ff" d="M 160.1960102378411 -132 C 160.1960102378411 -122.91549430918954 160.1960102378411 -122.91549430918954 160.1960102378411 -82 L 99.80398976215889 -82 C 99.80398976215889 -91.08450569081046 99.80398976215889 -91.08450569081046 99.80398976215889 -132 Z"/><text class="text-[12px] font-bold" fill="#1a1b1dff" x="130" y="-106" text-anchor="middle" font-family="Helvetica Neue, Helvetica, Arial, sans-serif">830 estimated rows</text></g></g><g class="layer operators"><g class="operator" transform="translate(0, -82)"><rect class="background" width="260" height="32" rx="8" ry="8" fill="rgb(255, 255, 255)"/><g class="header" pointer-events="all"><path class="banner" d="M 252 0 A 8 8 0 0 1 260 8 L 260 18 A 8 8 0 0 1 259.7459666924148 26 L 0.25403330758516596 26 A 8 8 0 0 1 0 18 L 0 8 A 8 8 0 0 1 8 0 Z" style="fill: rgb(247, 243, 255);"/><text class="title text-[12px] font-bold" x="26" y="17" fill="#000000" font-family="Helvetica Neue, Helvetica, Arial, sans-serif">Result</text></g><path class="cost" fill="#bb2d00ff" d="M 252 32 A 8 8 0 0 1 252 32 L 8 32 A 8 8 0 0 1 8 32 Z"/><rect class="b-outline" width="260" rx="8" ry="8" fill="none" stroke-width="1" style="stroke: rgb(187, 190, 195);" height="32"/></g><g class="operator" transform="translate(0, -246)"><rect class="background" width="260" height="114" rx="8" ry="8" fill="rgb(255, 255, 255)"/><g class="header" pointer-events="all"><path class="banner" d="M 252 0 A 8 8 0 0 1 260 8 L 260 18 A 8 8 0 0 1 260 26 L 0 26 A 8 8 0 0 1 0 18 L 0 8 A 8 8 0 0 1 8 0 Z" style="fill: rgb(247, 243, 255);"/><path class="expand" fill="#000000" d="M -5 -10 L 8.66 0 L -5 10 Z" transform="translate(13, 13) rotate(90) scale(0.5,0.5)"/><text class="title text-[12px] font-bold" x="26" y="17" fill="#000000" font-family="Helvetica Neue, Helvetica, Arial, sans-serif">ProduceResults@neo4j</text></g><g class="detail identifiers text-[10px] font-mono" transform="translate(0, 40)"><text font-size="10" x="3" text-anchor="start" fill="#1a1b1dff" font-family="Helvetica Neue, Helvetica, Arial, sans-serif">`o.requiredDate`, `o.orderID`, `o.</text></g><g class="detail identifiers text-[10px] font-mono" transform="translate(0, 54)"><text font-size="10" x="3" text-anchor="start" fill="#1a1b1dff" font-family="Helvetica Neue, Helvetica, Arial, sans-serif">orderDate`, c, `c.companyName`, o</text></g><g class="detail padding text-[10px]" transform="translate(0, 68)"><text font-size="10" x="3" text-anchor="start" fill="#1a1b1dff" font-family="Helvetica Neue, Helvetica, Arial, sans-serif"/><path class="divider" visibility="visible" d="M 0 -6 L 260 -6" stroke="#DFE1E3"/></g><g class="detail expression text-[10px] font-mono" transform="translate(0, 74)"><text font-size="10" x="3" text-anchor="start" fill="#1a1b1dff" font-family="Helvetica Neue, Helvetica, Arial, sans-serif">`c.companyName`, `o.orderID`, `o.orderDate</text></g><g class="detail expression text-[10px] font-mono" transform="translate(0, 88)"><text font-size="10" x="3" text-anchor="start" fill="#1a1b1dff" font-family="Helvetica Neue, Helvetica, Arial, sans-serif">`</text></g><g class="detail padding text-[10px]" transform="translate(0, 102)"><text font-size="10" x="3" text-anchor="start" fill="#1a1b1dff" font-family="Helvetica Neue, Helvetica, Arial, sans-serif"/><path class="divider" visibility="visible" d="M 0 -6 L 260 -6" stroke="#DFE1E3"/></g><g class="detail order text-[10px]" transform="translate(0, 108)"><text font-size="10" x="3" text-anchor="start" fill="#1a1b1dff" font-family="Helvetica Neue, Helvetica, Arial, sans-serif">Ordered by o.requiredDate ASC</text></g><path class="cost" fill="#bb2d00ff" d="M 252 114 A 8 8 0 0 1 252 114 L 8 114 A 8 8 0 0 1 8 114 Z"/><rect class="b-outline" width="260" rx="8" ry="8" fill="none" stroke-width="1" style="stroke: rgb(187, 190, 195);" height="114"/></g><g class="operator" transform="translate(0, -424)"><rect class="background" width="260" height="128" rx="8" ry="8" fill="rgb(255, 255, 255)"/><g class="header" pointer-events="all"><path class="banner" d="M 252 0 A 8 8 0 0 1 260 8 L 260 18 A 8 8 0 0 1 260 26 L 0 26 A 8 8 0 0 1 0 18 L 0 8 A 8 8 0 0 1 8 0 Z" style="fill: rgb(160, 123, 236);"/><path class="expand" fill="#000000" d="M -5 -10 L 8.66 0 L -5 10 Z" transform="translate(13, 13) rotate(90) scale(0.5,0.5)"/><text class="title text-[12px] font-bold" x="26" y="17" fill="#000000" font-family="Helvetica Neue, Helvetica, Arial, sans-serif">Projection@neo4j</text></g><g class="detail identifiers text-[10px] font-mono" transform="translate(0, 40)"><text font-size="10" x="3" text-anchor="start" fill="#1a1b1dff" font-family="Helvetica Neue, Helvetica, Arial, sans-serif">`o.requiredDate`, `o.orderID`, `o.</text></g><g class="detail identifiers text-[10px] font-mono" transform="translate(0, 54)"><text font-size="10" x="3" text-anchor="start" fill="#1a1b1dff" font-family="Helvetica Neue, Helvetica, Arial, sans-serif">orderDate`, c, `c.companyName`, o</text></g><g class="detail padding text-[10px]" transform="translate(0, 68)"><text font-size="10" x="3" text-anchor="start" fill="#1a1b1dff" font-family="Helvetica Neue, Helvetica, Arial, sans-serif"/><path class="divider" visibility="visible" d="M 0 -6 L 260 -6" stroke="#DFE1E3"/></g><g class="detail expression text-[10px] font-mono" transform="translate(0, 74)"><text font-size="10" x="3" text-anchor="start" fill="#1a1b1dff" font-family="Helvetica Neue, Helvetica, Arial, sans-serif">cache[c.companyName] AS `c.companyName`, </text></g><g class="detail expression text-[10px] font-mono" transform="translate(0, 88)"><text font-size="10" x="3" text-anchor="start" fill="#1a1b1dff" font-family="Helvetica Neue, Helvetica, Arial, sans-serif">cache[o.orderID] AS `o.orderID`, cache[o.</text></g><g class="detail expression text-[10px] font-mono" transform="translate(0, 102)"><text font-size="10" x="3" text-anchor="start" fill="#1a1b1dff" font-family="Helvetica Neue, Helvetica, Arial, sans-serif">orderDate] AS `o.orderDate`</text></g><g class="detail padding text-[10px]" transform="translate(0, 116)"><text font-size="10" x="3" text-anchor="start" fill="#1a1b1dff" font-family="Helvetica Neue, Helvetica, Arial, sans-serif"/><path class="divider" visibility="visible" d="M 0 -6 L 260 -6" stroke="#DFE1E3"/></g><g class="detail order text-[10px]" transform="translate(0, 122)"><text font-size="10" x="3" text-anchor="start" fill="#1a1b1dff" font-family="Helvetica Neue, Helvetica, Arial, sans-serif">Ordered by o.requiredDate ASC</text></g><path class="cost" fill="#bb2d00ff" d="M 252 128 A 8 8 0 0 1 252 128 L 8 128 A 8 8 0 0 1 8 128 Z"/><rect class="b-outline" width="260" rx="8" ry="8" fill="none" stroke-width="1" style="stroke: rgb(187, 190, 195);" height="128"/></g><g class="operator" transform="translate(0, -560)"><rect class="background" width="260" height="86" rx="8" ry="8" fill="rgb(255, 255, 255)"/><g class="header" pointer-events="all"><path class="banner" d="M 252 0 A 8 8 0 0 1 260 8 L 260 18 A 8 8 0 0 1 260 26 L 0 26 A 8 8 0 0 1 0 18 L 0 8 A 8 8 0 0 1 8 0 Z" style="fill: rgb(117, 78, 200);"/><path class="expand" fill="#FFFFFF" d="M -5 -10 L 8.66 0 L -5 10 Z" transform="translate(13, 13) rotate(90) scale(0.5,0.5)"/><text class="title text-[12px] font-bold" x="26" y="17" fill="#FFFFFF" font-family="Helvetica Neue, Helvetica, Arial, sans-serif">CacheProperties@neo4j</text></g><g class="detail identifiers text-[10px] font-mono" transform="translate(0, 40)"><text font-size="10" x="3" text-anchor="start" fill="#1a1b1dff" font-family="Helvetica Neue, Helvetica, Arial, sans-serif">c, o, `o.requiredDate`</text></g><g class="detail padding text-[10px]" transform="translate(0, 54)"><text font-size="10" x="3" text-anchor="start" fill="#1a1b1dff" font-family="Helvetica Neue, Helvetica, Arial, sans-serif"/><path class="divider" visibility="visible" d="M 0 -6 L 260 -6" stroke="#DFE1E3"/></g><g class="detail expression text-[10px] font-mono" transform="translate(0, 60)"><text font-size="10" x="3" text-anchor="start" fill="#1a1b1dff" font-family="Helvetica Neue, Helvetica, Arial, sans-serif">cache[o.orderID], cache[o.orderDate]</text></g><g class="detail padding text-[10px]" transform="translate(0, 74)"><text font-size="10" x="3" text-anchor="start" fill="#1a1b1dff" font-family="Helvetica Neue, Helvetica, Arial, sans-serif"/><path class="divider" visibility="visible" d="M 0 -6 L 260 -6" stroke="#DFE1E3"/></g><g class="detail order text-[10px]" transform="translate(0, 80)"><text font-size="10" x="3" text-anchor="start" fill="#1a1b1dff" font-family="Helvetica Neue, Helvetica, Arial, sans-serif">Ordered by o.requiredDate ASC</text></g><path class="cost" fill="#bb2d00ff" d="M 252 86 A 8 8 0 0 1 252 86 L 8 86 A 8 8 0 0 1 8 86 Z"/><rect class="b-outline" width="260" rx="8" ry="8" fill="none" stroke-width="1" style="stroke: rgb(187, 190, 195);" height="86"/></g><g class="operator" transform="translate(0, -696)"><rect class="background" width="260" height="86" rx="8" ry="8" fill="rgb(255, 255, 255)"/><g class="header" pointer-events="all"><path class="banner" d="M 252 0 A 8 8 0 0 1 260 8 L 260 18 A 8 8 0 0 1 260 26 L 0 26 A 8 8 0 0 1 0 18 L 0 8 A 8 8 0 0 1 8 0 Z" style="fill: rgb(160, 123, 236);"/><path class="expand" fill="#000000" d="M -5 -10 L 8.66 0 L -5 10 Z" transform="translate(13, 13) rotate(90) scale(0.5,0.5)"/><text class="title text-[12px] font-bold" x="26" y="17" fill="#000000" font-family="Helvetica Neue, Helvetica, Arial, sans-serif">Sort@neo4j</text></g><g class="detail identifiers text-[10px] font-mono" transform="translate(0, 40)"><text font-size="10" x="3" text-anchor="start" fill="#1a1b1dff" font-family="Helvetica Neue, Helvetica, Arial, sans-serif">c, o, `o.requiredDate`</text></g><g class="detail padding text-[10px]" transform="translate(0, 54)"><text font-size="10" x="3" text-anchor="start" fill="#1a1b1dff" font-family="Helvetica Neue, Helvetica, Arial, sans-serif"/><path class="divider" visibility="visible" d="M 0 -6 L 260 -6" stroke="#DFE1E3"/></g><g class="detail expression text-[10px] font-mono" transform="translate(0, 60)"><text font-size="10" x="3" text-anchor="start" fill="#1a1b1dff" font-family="Helvetica Neue, Helvetica, Arial, sans-serif">`o.requiredDate` ASC</text></g><g class="detail padding text-[10px]" transform="translate(0, 74)"><text font-size="10" x="3" text-anchor="start" fill="#1a1b1dff" font-family="Helvetica Neue, Helvetica, Arial, sans-serif"/><path class="divider" visibility="visible" d="M 0 -6 L 260 -6" stroke="#DFE1E3"/></g><g class="detail order text-[10px]" transform="translate(0, 80)"><text font-size="10" x="3" text-anchor="start" fill="#1a1b1dff" font-family="Helvetica Neue, Helvetica, Arial, sans-serif">Ordered by o.requiredDate ASC</text></g><path class="cost" fill="#bb2d00ff" d="M 252 86 A 8 8 0 0 1 252 86 L 8 86 A 8 8 0 0 1 8 86 Z"/><rect class="b-outline" width="260" rx="8" ry="8" fill="none" stroke-width="1" style="stroke: rgb(187, 190, 195);" height="86"/></g><g class="operator" transform="translate(0, -812)"><rect class="background" width="260" height="66" rx="8" ry="8" fill="rgb(255, 255, 255)"/><g class="header" pointer-events="all"><path class="banner" d="M 252 0 A 8 8 0 0 1 260 8 L 260 18 A 8 8 0 0 1 260 26 L 0 26 A 8 8 0 0 1 0 18 L 0 8 A 8 8 0 0 1 8 0 Z" style="fill: rgb(160, 123, 236);"/><path class="expand" fill="#000000" d="M -5 -10 L 8.66 0 L -5 10 Z" transform="translate(13, 13) rotate(90) scale(0.5,0.5)"/><text class="title text-[12px] font-bold" x="26" y="17" fill="#000000" font-family="Helvetica Neue, Helvetica, Arial, sans-serif">Projection@neo4j</text></g><g class="detail identifiers text-[10px] font-mono" transform="translate(0, 40)"><text font-size="10" x="3" text-anchor="start" fill="#1a1b1dff" font-family="Helvetica Neue, Helvetica, Arial, sans-serif">c, o, `o.requiredDate`</text></g><g class="detail padding text-[10px]" transform="translate(0, 54)"><text font-size="10" x="3" text-anchor="start" fill="#1a1b1dff" font-family="Helvetica Neue, Helvetica, Arial, sans-serif"/><path class="divider" visibility="visible" d="M 0 -6 L 260 -6" stroke="#DFE1E3"/></g><g class="detail expression text-[10px] font-mono" transform="translate(0, 60)"><text font-size="10" x="3" text-anchor="start" fill="#1a1b1dff" font-family="Helvetica Neue, Helvetica, Arial, sans-serif">o.requiredDate AS `o.requiredDate`</text></g><path class="cost" fill="#bb2d00ff" d="M 252 66 A 8 8 0 0 1 252 66 L 8 66 A 8 8 0 0 1 8 66 Z"/><rect class="b-outline" width="260" rx="8" ry="8" fill="none" stroke-width="1" style="stroke: rgb(187, 190, 195);" height="66"/></g><g class="operator" transform="translate(0, -928)"><rect class="background" width="260" height="66" rx="8" ry="8" fill="rgb(255, 255, 255)"/><g class="header" pointer-events="all"><path class="banner" d="M 252 0 A 8 8 0 0 1 260 8 L 260 18 A 8 8 0 0 1 260 26 L 0 26 A 8 8 0 0 1 0 18 L 0 8 A 8 8 0 0 1 8 0 Z" style="fill: rgb(75, 40, 148);"/><path class="expand" fill="#FFFFFF" d="M -5 -10 L 8.66 0 L -5 10 Z" transform="translate(13, 13) rotate(90) scale(0.5,0.5)"/><text class="title text-[12px] font-bold" x="26" y="17" fill="#FFFFFF" font-family="Helvetica Neue, Helvetica, Arial, sans-serif">Filter@neo4j</text></g><g class="detail identifiers text-[10px] font-mono" transform="translate(0, 40)"><text font-size="10" x="3" text-anchor="start" fill="#1a1b1dff" font-family="Helvetica Neue, Helvetica, Arial, sans-serif">c, o</text></g><g class="detail padding text-[10px]" transform="translate(0, 54)"><text font-size="10" x="3" text-anchor="start" fill="#1a1b1dff" font-family="Helvetica Neue, Helvetica, Arial, sans-serif"/><path class="divider" visibility="visible" d="M 0 -6 L 260 -6" stroke="#DFE1E3"/></g><g class="detail expression text-[10px] font-mono" transform="translate(0, 60)"><text font-size="10" x="3" text-anchor="start" fill="#1a1b1dff" font-family="Helvetica Neue, Helvetica, Arial, sans-serif">o:Order</text></g><path class="cost" fill="#bb2d00ff" d="M 252 66 A 8 8 0 0 1 252 66 L 8 66 A 8 8 0 0 1 8 66 Z"/><rect class="b-outline" width="260" rx="8" ry="8" fill="none" stroke-width="1" style="stroke: rgb(187, 190, 195);" height="66"/></g><g class="operator" transform="translate(0, -1044)"><rect class="background" width="260" height="66" rx="8" ry="8" fill="rgb(255, 255, 255)"/><g class="header" pointer-events="all"><path class="banner" d="M 252 0 A 8 8 0 0 1 260 8 L 260 18 A 8 8 0 0 1 260 26 L 0 26 A 8 8 0 0 1 0 18 L 0 8 A 8 8 0 0 1 8 0 Z" style="fill: rgb(44, 42, 52);"/><path class="expand" fill="#FFFFFF" d="M -5 -10 L 8.66 0 L -5 10 Z" transform="translate(13, 13) rotate(90) scale(0.5,0.5)"/><text class="title text-[12px] font-bold" x="26" y="17" fill="#FFFFFF" font-family="Helvetica Neue, Helvetica, Arial, sans-serif">Expand(All)@neo4j</text></g><g class="detail identifiers text-[10px] font-mono" transform="translate(0, 40)"><text font-size="10" x="3" text-anchor="start" fill="#1a1b1dff" font-family="Helvetica Neue, Helvetica, Arial, sans-serif">c, o</text></g><g class="detail padding text-[10px]" transform="translate(0, 54)"><text font-size="10" x="3" text-anchor="start" fill="#1a1b1dff" font-family="Helvetica Neue, Helvetica, Arial, sans-serif"/><path class="divider" visibility="visible" d="M 0 -6 L 260 -6" stroke="#DFE1E3"/></g><g class="detail expression text-[10px] font-mono" transform="translate(0, 60)"><text font-size="10" x="3" text-anchor="start" fill="#1a1b1dff" font-family="Helvetica Neue, Helvetica, Arial, sans-serif">(c)-[:PURCHASED]-&gt;(o)</text></g><path class="cost" fill="#bb2d00ff" d="M 252 66 A 8 8 0 0 1 252 66 L 8 66 A 8 8 0 0 1 8 66 Z"/><rect class="b-outline" width="260" rx="8" ry="8" fill="none" stroke-width="1" style="stroke: rgb(187, 190, 195);" height="66"/></g><g class="operator" transform="translate(0, -1160)"><rect class="background" width="260" height="66" rx="8" ry="8" fill="rgb(255, 255, 255)"/><g class="header" pointer-events="all"><path class="banner" d="M 252 0 A 8 8 0 0 1 260 8 L 260 18 A 8 8 0 0 1 260 26 L 0 26 A 8 8 0 0 1 0 18 L 0 8 A 8 8 0 0 1 8 0 Z" style="fill: rgb(117, 78, 200);"/><path class="expand" fill="#FFFFFF" d="M -5 -10 L 8.66 0 L -5 10 Z" transform="translate(13, 13) rotate(90) scale(0.5,0.5)"/><text class="title text-[12px] font-bold" x="26" y="17" fill="#FFFFFF" font-family="Helvetica Neue, Helvetica, Arial, sans-serif">CacheProperties@neo4j</text></g><g class="detail identifiers text-[10px] font-mono" transform="translate(0, 40)"><text font-size="10" x="3" text-anchor="start" fill="#1a1b1dff" font-family="Helvetica Neue, Helvetica, Arial, sans-serif">c</text></g><g class="detail padding text-[10px]" transform="translate(0, 54)"><text font-size="10" x="3" text-anchor="start" fill="#1a1b1dff" font-family="Helvetica Neue, Helvetica, Arial, sans-serif"/><path class="divider" visibility="visible" d="M 0 -6 L 260 -6" stroke="#DFE1E3"/></g><g class="detail expression text-[10px] font-mono" transform="translate(0, 60)"><text font-size="10" x="3" text-anchor="start" fill="#1a1b1dff" font-family="Helvetica Neue, Helvetica, Arial, sans-serif">cache[c.companyName]</text></g><path class="cost" fill="#bb2d00ff" d="M 252 66 A 8 8 0 0 1 252 66 L 8 66 A 8 8 0 0 1 8 66 Z"/><rect class="b-outline" width="260" rx="8" ry="8" fill="none" stroke-width="1" style="stroke: rgb(187, 190, 195);" height="66"/></g><g class="operator" transform="translate(0, -1276)"><rect class="background" width="260" height="66" rx="8" ry="8" fill="rgb(255, 255, 255)"/><g class="header" pointer-events="all"><path class="banner" d="M 252 0 A 8 8 0 0 1 260 8 L 260 18 A 8 8 0 0 1 260 26 L 0 26 A 8 8 0 0 1 0 18 L 0 8 A 8 8 0 0 1 8 0 Z" style="fill: rgb(204, 180, 255);"/><path class="expand" fill="#000000" d="M -5 -10 L 8.66 0 L -5 10 Z" transform="translate(13, 13) rotate(90) scale(0.5,0.5)"/><text class="title text-[12px] font-bold" x="26" y="17" fill="#000000" font-family="Helvetica Neue, Helvetica, Arial, sans-serif">NodeByLabelScan@neo4j</text></g><g class="detail identifiers text-[10px] font-mono" transform="translate(0, 40)"><text font-size="10" x="3" text-anchor="start" fill="#1a1b1dff" font-family="Helvetica Neue, Helvetica, Arial, sans-serif">c</text></g><g class="detail padding text-[10px]" transform="translate(0, 54)"><text font-size="10" x="3" text-anchor="start" fill="#1a1b1dff" font-family="Helvetica Neue, Helvetica, Arial, sans-serif"/><path class="divider" visibility="visible" d="M 0 -6 L 260 -6" stroke="#DFE1E3"/></g><g class="detail expression text-[10px] font-mono" transform="translate(0, 60)"><text font-size="10" x="3" text-anchor="start" fill="#1a1b1dff" font-family="Helvetica Neue, Helvetica, Arial, sans-serif">c:Customer</text></g><path class="cost" fill="#bb2d00ff" d="M 252 66 A 8 8 0 0 1 252 66 L 8 66 A 8 8 0 0 1 8 66 Z"/><rect class="b-outline" width="260" rx="8" ry="8" fill="none" stroke-width="1" style="stroke: rgb(187, 190, 195);" height="66"/></g></g></g><g><rect fill="#ffffffff" width="362.52500000000003" height="38"/><text font-size="10" fill="#1a1b1dff" font-family="Helvetica Neue, Helvetica, Arial, sans-serif" x="12" y="12">Cypher version: 5, Planner: COST, Runtime: SLOTTED</text><text font-size="10" fill="#1a1b1dff" font-family="Helvetica Neue, Helvetica, Arial, sans-serif" x="12" y="30">Total database accesses: 0, Total allocated memory: -, Total time: 28 ms</text><rect fill="none" stroke="#bbbec3ff" width="362.52500000000003" height="38" stroke-width="1"/></g></svg>