<svg xmlns="http://www.w3.org/2000/svg" height="2004.971435546875" width="447.22500000000014" viewBox="-1.0717968940734863 -1952.971435546875 447.22500000000014 2004.971435546875"><g height="1902.971435546875" width="262.1435852050781"><g class="layer links"><g class="link"><path fill="#e2e3e5ff" d="M 150.63787827345556 -1808.5674202368236 C 150.63787827345556 -1796.7059016054209 150.63787827345556 -1796.7059016054209 150.63787827345556 -1758.5674202368236 L 109.36212172654444 -1758.5674202368236 C 109.36212172654444 -1770.4289388682264 109.36212172654444 -1770.4289388682264 109.36212172654444 -1808.5674202368236 Z"/><text class="text-[12px] font-bold" fill="#1a1b1dff" x="130" y="-1782.5674202368236" text-anchor="middle" font-family="Helvetica Neue, Helvetica, Arial, sans-serif">91 rows</text></g><g class="link"><path fill="#e2e3e5ff" d="M 150.63787827345556 -1614.2025216756106 C 150.63787827345556 -1602.3410030442078 150.63787827345556 -1602.3410030442078 150.63787827345556 -1564.2025216756106 L 109.36212172654444 -1564.2025216756106 C 109.36212172654444 -1576.0640403070133 109.36212172654444 -1576.0640403070133 109.36212172654444 -1614.2025216756106 Z"/><text class="text-[12px] font-bold" fill="#1a1b1dff" x="130" y="-1588.2025216756106" text-anchor="middle" font-family="Helvetica Neue, Helvetica, Arial, sans-serif">91 rows</text></g><g class="link"><path fill="#e2e3e5ff" d="M 160.1960102378411 -1411.4964306668303 C 160.1960102378411 -1404.9555865694467 160.1960102378411 -1404.9555865694467 160.1960102378411 -1375.4964306668303 L 99.80398976215889 -1375.4964306668303 C 99.80398976215889 -1382.0372747642139 99.80398976215889 -1382.0372747642139 99.80398976215889 -1411.4964306668303 Z"/><text class="text-[12px] font-bold" fill="#1a1b1dff" x="130" y="-1385.4964306668303" text-anchor="middle" font-family="Helvetica Neue, Helvetica, Arial, sans-serif">830 rows</text></g><g class="link"><path fill="#e2e3e5ff" d="M 160.1960102378411 -1223.166422135296 C 160.1960102378411 -1216.6255780379124 160.1960102378411 -1216.6255780379124 160.1960102378411 -1187.166422135296 L 99.80398976215889 -1187.166422135296 C 99.80398976215889 -1193.7072662326796 99.80398976215889 -1193.7072662326796 99.80398976215889 -1223.166422135296 Z"/><text class="text-[12px] font-bold" fill="#1a1b1dff" x="130" y="-1197.166422135296" text-anchor="middle" font-family="Helvetica Neue, Helvetica, Arial, sans-serif">830 rows</text></g><g class="link"><path fill="#e2e3e5ff" d="M 160.1960102378411 -1034.8364136037617 C 160.1960102378411 -1028.2955695063781 160.1960102378411 -1028.2955695063781 160.1960102378411 -998.8364136037617 L 99.80398976215889 -998.8364136037617 C 99.80398976215889 -1005.3772577011453 99.80398976215889 -1005.3772577011453 99.80398976215889 -1034.8364136037617 Z"/><text class="text-[12px] font-bold" fill="#1a1b1dff" x="130" y="-1008.8364136037617" text-anchor="middle" font-family="Helvetica Neue, Helvetica, Arial, sans-serif">830 rows</text></g><g class="link"><path fill="#e2e3e5ff" d="M 160.1960102378411 -836.8364136037617 C 160.1960102378411 -827.7519079129512 160.1960102378411 -827.7519079129512 160.1960102378411 -786.8364136037617 L 99.80398976215889 -786.8364136037617 C 99.80398976215889 -795.9209192945722 99.80398976215889 -795.9209192945722 99.80398976215889 -836.8364136037617 Z"/><text class="text-[12px] font-bold" fill="#1a1b1dff" x="130" y="-810.8364136037617" text-anchor="middle" font-family="Helvetica Neue, Helvetica, Arial, sans-serif">830 rows</text></g><g class="link"><path fill="#e2e3e5ff" d="M 160.1960102378411 -612 C 160.1960102378411 -605.4591559026164 160.1960102378411 -605.4591559026164 160.1960102378411 -576 L 99.80398976215889 -576 C 99.80398976215889 -582.5408440973836 99.80398976215889 -582.5408440973836 99.80398976215889 -612 Z"/><text class="text-[12px] font-bold" fill="#1a1b1dff" x="130" y="-586" text-anchor="middle" font-family="Helvetica Neue, Helvetica, Arial, sans-serif">830 rows</text></g><g class="link"><path fill="#e2e3e5ff" d="M 160.1960102378411 -386 C 160.1960102378411 -376.9154943091895 160.1960102378411 -376.9154943091895 160.1960102378411 -336 L 99.80398976215889 -336 C 99.80398976215889 -345.0845056908105 99.80398976215889 -345.0845056908105 99.80398976215889 -386 Z"/><text class="text-[12px] font-bold" fill="#1a1b1dff" x="130" y="-360" text-anchor="middle" font-family="Helvetica Neue, Helvetica, Arial, sans-serif">830 rows</text></g><g class="link"><path fill="#e2e3e5ff" d="M 160.1960102378411 -132 C 160.1960102378411 -122.91549430918954 160.1960102378411 -122.91549430918954 160.1960102378411 -82 L 99.80398976215889 -82 C 99.80398976215889 -91.08450569081046 99.80398976215889 -91.08450569081046 99.80398976215889 -132 Z"/><text class="text-[12px] font-bold" fill="#1a1b1dff" x="130" y="-106" text-anchor="middle" font-family="Helvetica Neue, Helvetica, Arial, sans-serif">830 rows</text></g></g><g class="layer operators"><g class="operator" transform="translate(0, -82)"><rect class="background" width="260" height="32" rx="8" ry="8" fill="rgb(255, 255, 255)"/><g class="header" pointer-events="all"><path class="banner" d="M 252 0 A 8 8 0 0 1 260 8 L 260 18 A 8 8 0 0 1 259.7459666924148 26 L 0.25403330758516596 26 A 8 8 0 0 1 0 18 L 0 8 A 8 8 0 0 1 8 0 Z" style="fill: rgb(247, 243, 255);"/><text class="title text-[12px] font-bold" x="26" y="17" fill="#000000" font-family="Helvetica Neue, Helvetica, Arial, sans-serif">Result</text></g><path class="cost" fill="#bb2d00ff" d="M 252 32 A 8 8 0 0 1 252 32 L 8 32 A 8 8 0 0 1 8 32 Z"/><rect class="b-outline" width="260" rx="8" ry="8" fill="none" stroke-width="1" style="stroke: rgb(187, 190, 195);" height="32"/></g><g class="operator" transform="translate(0, -336)"><rect class="background" width="260" height="204" rx="8" ry="8" fill="rgb(255, 255, 255)"/><g class="header" pointer-events="all"><path class="banner" d="M 252 0 A 8 8 0 0 1 260 8 L 260 18 A 8 8 0 0 1 260 26 L 0 26 A 8 8 0 0 1 0 18 L 0 8 A 8 8 0 0 1 8 0 Z" style="fill: rgb(247, 243, 255);"/><path class="expand" fill="#000000" d="M -5 -10 L 8.66 0 L -5 10 Z" transform="translate(13, 13) rotate(90) scale(0.5,0.5)"/><text class="title text-[12px] font-bold" x="26" y="17" fill="#000000" font-family="Helvetica Neue, Helvetica, Arial, sans-serif">ProduceResults@neo4j</text></g><g class="detail identifiers text-[10px] font-mono" transform="translate(0, 40)"><text font-size="10" x="3" text-anchor="start" fill="#1a1b1dff" font-family="Helvetica Neue, Helvetica, Arial, sans-serif">`o.requiredDate`, `o.orderID`, `o.</text></g><g class="detail identifiers text-[10px] font-mono" transform="translate(0, 54)"><text font-size="10" x="3" text-anchor="start" fill="#1a1b1dff" font-family="Helvetica Neue, Helvetica, Arial, sans-serif">orderDate`, c, `c.companyName`, o</text></g><g class="detail padding text-[10px]" transform="translate(0, 68)"><text font-size="10" x="3" text-anchor="start" fill="#1a1b1dff" font-family="Helvetica Neue, Helvetica, Arial, sans-serif"/><path class="divider" visibility="visible" d="M 0 -6 L 260 -6" stroke="#DFE1E3"/></g><g class="detail expression text-[10px] font-mono" transform="translate(0, 74)"><text font-size="10" x="3" text-anchor="start" fill="#1a1b1dff" font-family="Helvetica Neue, Helvetica, Arial, sans-serif">`c.companyName`, `o.orderID`, `o.orderDate</text></g><g class="detail expression text-[10px] font-mono" transform="translate(0, 88)"><text font-size="10" x="3" text-anchor="start" fill="#1a1b1dff" font-family="Helvetica Neue, Helvetica, Arial, sans-serif">`</text></g><g class="detail padding text-[10px]" transform="translate(0, 102)"><text font-size="10" x="3" text-anchor="start" fill="#1a1b1dff" font-family="Helvetica Neue, Helvetica, Arial, sans-serif"/><path class="divider" visibility="visible" d="M 0 -6 L 260 -6" stroke="#DFE1E3"/></g><g class="detail order text-[10px]" transform="translate(0, 108)"><text font-size="10" x="3" text-anchor="start" fill="#1a1b1dff" font-family="Helvetica Neue, Helvetica, Arial, sans-serif">Ordered by o.requiredDate ASC</text></g><g class="detail padding text-[10px]" transform="translate(0, 122)"><text font-size="10" x="3" text-anchor="start" fill="#1a1b1dff" font-family="Helvetica Neue, Helvetica, Arial, sans-serif"/><path class="divider" visibility="visible" d="M 0 -6 L 260 -6" stroke="#DFE1E3"/></g><g class="detail global-memory text-[10px]" transform="translate(0, 128)"><text font-size="10" x="3" text-anchor="start" fill="#1a1b1dff" font-family="Helvetica Neue, Helvetica, Arial, sans-serif">156,408 total memory (bytes)</text></g><g class="detail operator-memory text-[10px]" transform="translate(0, 142)"><text font-size="10" x="3" text-anchor="start" fill="#1a1b1dff" font-family="Helvetica Neue, Helvetica, Arial, sans-serif">0 memory (bytes)</text></g><g class="detail pagecache-hits text-[10px]" transform="translate(0, 156)"><text font-size="10" x="3" text-anchor="start" fill="#1a1b1dff" font-family="Helvetica Neue, Helvetica, Arial, sans-serif">0 pagecache hits</text></g><g class="detail pagecache-misses text-[10px]" transform="translate(0, 170)"><text font-size="10" x="3" text-anchor="start" fill="#1a1b1dff" font-family="Helvetica Neue, Helvetica, Arial, sans-serif">0 pagecache misses</text></g><g class="detail estimated-rows text-[10px]" transform="translate(0, 184)"><text font-size="10" x="3" text-anchor="start" fill="#1a1b1dff" font-family="Helvetica Neue, Helvetica, Arial, sans-serif">830 estimated rows</text></g><g class="detail db-hits text-[10px]" transform="translate(0, 198)"><text font-size="10" x="3" text-anchor="start" fill="#1a1b1dff" font-family="Helvetica Neue, Helvetica, Arial, sans-serif">0 db hits</text></g><path class="cost" fill="#bb2d00ff" d="M 252 204 A 8 8 0 0 1 252 204 L 8 204 A 8 8 0 0 1 8 204 Z"/><rect class="b-outline" width="260" rx="8" ry="8" fill="none" stroke-width="1" style="stroke: rgb(187, 190, 195);" height="204"/></g><g class="operator" transform="translate(0, -576)"><rect class="background" width="260" height="190" rx="8" ry="8" fill="rgb(255, 255, 255)"/><g class="header" pointer-events="all"><path class="banner" d="M 252 0 A 8 8 0 0 1 260 8 L 260 18 A 8 8 0 0 1 260 26 L 0 26 A 8 8 0 0 1 0 18 L 0 8 A 8 8 0 0 1 8 0 Z" style="fill: rgb(160, 123, 236);"/><path class="expand" fill="#000000" d="M -5 -10 L 8.66 0 L -5 10 Z" transform="translate(13, 13) rotate(90) scale(0.5,0.5)"/><text class="title text-[12px] font-bold" x="26" y="17" fill="#000000" font-family="Helvetica Neue, Helvetica, Arial, sans-serif">Projection@neo4j</text></g><g class="detail identifiers text-[10px] font-mono" transform="translate(0, 40)"><text font-size="10" x="3" text-anchor="start" fill="#1a1b1dff" font-family="Helvetica Neue, Helvetica, Arial, sans-serif">`o.requiredDate`, `o.orderID`, `o.</text></g><g class="detail identifiers text-[10px] font-mono" transform="translate(0, 54)"><text font-size="10" x="3" text-anchor="start" fill="#1a1b1dff" font-family="Helvetica Neue, Helvetica, Arial, sans-serif">orderDate`, c, `c.companyName`, o</text></g><g class="detail padding text-[10px]" transform="translate(0, 68)"><text font-size="10" x="3" text-anchor="start" fill="#1a1b1dff" font-family="Helvetica Neue, Helvetica, Arial, sans-serif"/><path class="divider" visibility="visible" d="M 0 -6 L 260 -6" stroke="#DFE1E3"/></g><g class="detail expression text-[10px] font-mono" transform="translate(0, 74)"><text font-size="10" x="3" text-anchor="start" fill="#1a1b1dff" font-family="Helvetica Neue, Helvetica, Arial, sans-serif">cache[c.companyName] AS `c.companyName`, </text></g><g class="detail expression text-[10px] font-mono" transform="translate(0, 88)"><text font-size="10" x="3" text-anchor="start" fill="#1a1b1dff" font-family="Helvetica Neue, Helvetica, Arial, sans-serif">cache[o.orderID] AS `o.orderID`, cache[o.</text></g><g class="detail expression text-[10px] font-mono" transform="translate(0, 102)"><text font-size="10" x="3" text-anchor="start" fill="#1a1b1dff" font-family="Helvetica Neue, Helvetica, Arial, sans-serif">orderDate] AS `o.orderDate`</text></g><g class="detail padding text-[10px]" transform="translate(0, 116)"><text font-size="10" x="3" text-anchor="start" fill="#1a1b1dff" font-family="Helvetica Neue, Helvetica, Arial, sans-serif"/><path class="divider" visibility="visible" d="M 0 -6 L 260 -6" stroke="#DFE1E3"/></g><g class="detail order text-[10px]" transform="translate(0, 122)"><text font-size="10" x="3" text-anchor="start" fill="#1a1b1dff" font-family="Helvetica Neue, Helvetica, Arial, sans-serif">Ordered by o.requiredDate ASC</text></g><g class="detail padding text-[10px]" transform="translate(0, 136)"><text font-size="10" x="3" text-anchor="start" fill="#1a1b1dff" font-family="Helvetica Neue, Helvetica, Arial, sans-serif"/><path class="divider" visibility="visible" d="M 0 -6 L 260 -6" stroke="#DFE1E3"/></g><g class="detail pagecache-hits text-[10px]" transform="translate(0, 142)"><text font-size="10" x="3" text-anchor="start" fill="#1a1b1dff" font-family="Helvetica Neue, Helvetica, Arial, sans-serif">0 pagecache hits</text></g><g class="detail pagecache-misses text-[10px]" transform="translate(0, 156)"><text font-size="10" x="3" text-anchor="start" fill="#1a1b1dff" font-family="Helvetica Neue, Helvetica, Arial, sans-serif">0 pagecache misses</text></g><g class="detail estimated-rows text-[10px]" transform="translate(0, 170)"><text font-size="10" x="3" text-anchor="start" fill="#1a1b1dff" font-family="Helvetica Neue, Helvetica, Arial, sans-serif">830 estimated rows</text></g><g class="detail db-hits text-[10px]" transform="translate(0, 184)"><text font-size="10" x="3" text-anchor="start" fill="#1a1b1dff" font-family="Helvetica Neue, Helvetica, Arial, sans-serif">0 db hits</text></g><path class="cost" fill="#bb2d00ff" d="M 252 190 A 8 8 0 0 1 252 190 L 8 190 A 8 8 0 0 1 8 190 Z"/><rect class="b-outline" width="260" rx="8" ry="8" fill="none" stroke-width="1" style="stroke: rgb(187, 190, 195);" height="190"/></g><g class="operator" transform="translate(0, -786.83642578125)"><rect class="background" width="260" height="174.83641360376163" rx="8" ry="8" fill="rgb(255, 255, 255)"/><g class="header" pointer-events="all"><path class="banner" d="M 252 0 A 8 8 0 0 1 260 8 L 260 18 A 8 8 0 0 1 260 26 L 0 26 A 8 8 0 0 1 0 18 L 0 8 A 8 8 0 0 1 8 0 Z" style="fill: rgb(117, 78, 200);"/><path class="expand" fill="#FFFFFF" d="M -5 -10 L 8.66 0 L -5 10 Z" transform="translate(13, 13) rotate(90) scale(0.5,0.5)"/><text class="title text-[12px] font-bold" x="26" y="17" fill="#FFFFFF" font-family="Helvetica Neue, Helvetica, Arial, sans-serif">CacheProperties@neo4j</text></g><g class="detail identifiers text-[10px] font-mono" transform="translate(0, 40)"><text font-size="10" x="3" text-anchor="start" fill="#1a1b1dff" font-family="Helvetica Neue, Helvetica, Arial, sans-serif">c, o, `o.requiredDate`</text></g><g class="detail padding text-[10px]" transform="translate(0, 54)"><text font-size="10" x="3" text-anchor="start" fill="#1a1b1dff" font-family="Helvetica Neue, Helvetica, Arial, sans-serif"/><path class="divider" visibility="visible" d="M 0 -6 L 260 -6" stroke="#DFE1E3"/></g><g class="detail expression text-[10px] font-mono" transform="translate(0, 60)"><text font-size="10" x="3" text-anchor="start" fill="#1a1b1dff" font-family="Helvetica Neue, Helvetica, Arial, sans-serif">cache[o.orderID], cache[o.orderDate]</text></g><g class="detail padding text-[10px]" transform="translate(0, 74)"><text font-size="10" x="3" text-anchor="start" fill="#1a1b1dff" font-family="Helvetica Neue, Helvetica, Arial, sans-serif"/><path class="divider" visibility="visible" d="M 0 -6 L 260 -6" stroke="#DFE1E3"/></g><g class="detail order text-[10px]" transform="translate(0, 80)"><text font-size="10" x="3" text-anchor="start" fill="#1a1b1dff" font-family="Helvetica Neue, Helvetica, Arial, sans-serif">Ordered by o.requiredDate ASC</text></g><g class="detail padding text-[10px]" transform="translate(0, 94)"><text font-size="10" x="3" text-anchor="start" fill="#1a1b1dff" font-family="Helvetica Neue, Helvetica, Arial, sans-serif"/><path class="divider" visibility="visible" d="M 0 -6 L 260 -6" stroke="#DFE1E3"/></g><g class="detail pagecache-hits text-[10px]" transform="translate(0, 100)"><text font-size="10" x="3" text-anchor="start" fill="#1a1b1dff" font-family="Helvetica Neue, Helvetica, Arial, sans-serif">282 pagecache hits</text></g><g class="detail pagecache-misses text-[10px]" transform="translate(0, 114)"><text font-size="10" x="3" text-anchor="start" fill="#1a1b1dff" font-family="Helvetica Neue, Helvetica, Arial, sans-serif">0 pagecache misses</text></g><g class="detail estimated-rows text-[10px]" transform="translate(0, 128)"><text font-size="10" x="3" text-anchor="start" fill="#1a1b1dff" font-family="Helvetica Neue, Helvetica, Arial, sans-serif">830 estimated rows</text></g><path class="cost" fill="#bb2d00ff" d="M 0 148 L 260 148 L 260 166.83641360376163 A 8 8 0 0 1 252 174.83641360376163 L 8 174.83641360376163 A 8 8 0 0 1 0 166.83641360376163 Z"/><text class="cost text-[10px] font-bold" fill="#ffffffff" x="3" text-anchor="start" y="162" font-family="Helvetica Neue, Helvetica, Arial, sans-serif">1,660 db hits</text><rect class="b-outline" width="260" rx="8" ry="8" fill="none" stroke-width="1" style="stroke: rgb(187, 190, 195);" height="174.83641360376163"/></g><g class="operator" transform="translate(0, -998.83642578125)"><rect class="background" width="260" height="162" rx="8" ry="8" fill="rgb(255, 255, 255)"/><g class="header" pointer-events="all"><path class="banner" d="M 252 0 A 8 8 0 0 1 260 8 L 260 18 A 8 8 0 0 1 260 26 L 0 26 A 8 8 0 0 1 0 18 L 0 8 A 8 8 0 0 1 8 0 Z" style="fill: rgb(160, 123, 236);"/><path class="expand" fill="#000000" d="M -5 -10 L 8.66 0 L -5 10 Z" transform="translate(13, 13) rotate(90) scale(0.5,0.5)"/><text class="title text-[12px] font-bold" x="26" y="17" fill="#000000" font-family="Helvetica Neue, Helvetica, Arial, sans-serif">Sort@neo4j</text></g><g class="detail identifiers text-[10px] font-mono" transform="translate(0, 40)"><text font-size="10" x="3" text-anchor="start" fill="#1a1b1dff" font-family="Helvetica Neue, Helvetica, Arial, sans-serif">c, o, `o.requiredDate`</text></g><g class="detail padding text-[10px]" transform="translate(0, 54)"><text font-size="10" x="3" text-anchor="start" fill="#1a1b1dff" font-family="Helvetica Neue, Helvetica, Arial, sans-serif"/><path class="divider" visibility="visible" d="M 0 -6 L 260 -6" stroke="#DFE1E3"/></g><g class="detail expression text-[10px] font-mono" transform="translate(0, 60)"><text font-size="10" x="3" text-anchor="start" fill="#1a1b1dff" font-family="Helvetica Neue, Helvetica, Arial, sans-serif">`o.requiredDate` ASC</text></g><g class="detail padding text-[10px]" transform="translate(0, 74)"><text font-size="10" x="3" text-anchor="start" fill="#1a1b1dff" font-family="Helvetica Neue, Helvetica, Arial, sans-serif"/><path class="divider" visibility="visible" d="M 0 -6 L 260 -6" stroke="#DFE1E3"/></g><g class="detail order text-[10px]" transform="translate(0, 80)"><text font-size="10" x="3" text-anchor="start" fill="#1a1b1dff" font-family="Helvetica Neue, Helvetica, Arial, sans-serif">Ordered by o.requiredDate ASC</text></g><g class="detail padding text-[10px]" transform="translate(0, 94)"><text font-size="10" x="3" text-anchor="start" fill="#1a1b1dff" font-family="Helvetica Neue, Helvetica, Arial, sans-serif"/><path class="divider" visibility="visible" d="M 0 -6 L 260 -6" stroke="#DFE1E3"/></g><g class="detail operator-memory text-[10px]" transform="translate(0, 100)"><text font-size="10" x="3" text-anchor="start" fill="#1a1b1dff" font-family="Helvetica Neue, Helvetica, Arial, sans-serif">156,344 memory (bytes)</text></g><g class="detail pagecache-hits text-[10px]" transform="translate(0, 114)"><text font-size="10" x="3" text-anchor="start" fill="#1a1b1dff" font-family="Helvetica Neue, Helvetica, Arial, sans-serif">0 pagecache hits</text></g><g class="detail pagecache-misses text-[10px]" transform="translate(0, 128)"><text font-size="10" x="3" text-anchor="start" fill="#1a1b1dff" font-family="Helvetica Neue, Helvetica, Arial, sans-serif">0 pagecache misses</text></g><g class="detail estimated-rows text-[10px]" transform="translate(0, 142)"><text font-size="10" x="3" text-anchor="start" fill="#1a1b1dff" font-family="Helvetica Neue, Helvetica, Arial, sans-serif">830 estimated rows</text></g><g class="detail db-hits text-[10px]" transform="translate(0, 156)"><text font-size="10" x="3" text-anchor="start" fill="#1a1b1dff" font-family="Helvetica Neue, Helvetica, Arial, sans-serif">0 db hits</text></g><path class="cost" fill="#bb2d00ff" d="M 252 162 A 8 8 0 0 1 252 162 L 8 162 A 8 8 0 0 1 8 162 Z"/><rect class="b-outline" width="260" rx="8" ry="8" fill="none" stroke-width="1" style="stroke: rgb(187, 190, 195);" height="162"/></g><g class="operator" transform="translate(0, -1187.1663818359375)"><rect class="background" width="260" height="152.33000853153425" rx="8" ry="8" fill="rgb(255, 255, 255)"/><g class="header" pointer-events="all"><path class="banner" d="M 252 0 A 8 8 0 0 1 260 8 L 260 18 A 8 8 0 0 1 260 26 L 0 26 A 8 8 0 0 1 0 18 L 0 8 A 8 8 0 0 1 8 0 Z" style="fill: rgb(160, 123, 236);"/><path class="expand" fill="#000000" d="M -5 -10 L 8.66 0 L -5 10 Z" transform="translate(13, 13) rotate(90) scale(0.5,0.5)"/><text class="title text-[12px] font-bold" x="26" y="17" fill="#000000" font-family="Helvetica Neue, Helvetica, Arial, sans-serif">Projection@neo4j</text></g><g class="detail identifiers text-[10px] font-mono" transform="translate(0, 40)"><text font-size="10" x="3" text-anchor="start" fill="#1a1b1dff" font-family="Helvetica Neue, Helvetica, Arial, sans-serif">c, o, `o.requiredDate`</text></g><g class="detail padding text-[10px]" transform="translate(0, 54)"><text font-size="10" x="3" text-anchor="start" fill="#1a1b1dff" font-family="Helvetica Neue, Helvetica, Arial, sans-serif"/><path class="divider" visibility="visible" d="M 0 -6 L 260 -6" stroke="#DFE1E3"/></g><g class="detail expression text-[10px] font-mono" transform="translate(0, 60)"><text font-size="10" x="3" text-anchor="start" fill="#1a1b1dff" font-family="Helvetica Neue, Helvetica, Arial, sans-serif">o.requiredDate AS `o.requiredDate`</text></g><g class="detail padding text-[10px]" transform="translate(0, 74)"><text font-size="10" x="3" text-anchor="start" fill="#1a1b1dff" font-family="Helvetica Neue, Helvetica, Arial, sans-serif"/><path class="divider" visibility="visible" d="M 0 -6 L 260 -6" stroke="#DFE1E3"/></g><g class="detail pagecache-hits text-[10px]" transform="translate(0, 80)"><text font-size="10" x="3" text-anchor="start" fill="#1a1b1dff" font-family="Helvetica Neue, Helvetica, Arial, sans-serif">683 pagecache hits</text></g><g class="detail pagecache-misses text-[10px]" transform="translate(0, 94)"><text font-size="10" x="3" text-anchor="start" fill="#1a1b1dff" font-family="Helvetica Neue, Helvetica, Arial, sans-serif">0 pagecache misses</text></g><g class="detail estimated-rows text-[10px]" transform="translate(0, 108)"><text font-size="10" x="3" text-anchor="start" fill="#1a1b1dff" font-family="Helvetica Neue, Helvetica, Arial, sans-serif">830 estimated rows</text></g><path class="cost" fill="#bb2d00ff" d="M 0 127.99999999999999 L 260 127.99999999999999 L 260 144.33000853153425 A 8 8 0 0 1 252 152.33000853153425 L 8 152.33000853153425 A 8 8 0 0 1 0 144.33000853153425 Z"/><text class="cost text-[10px] font-bold" fill="#ffffffff" x="3" text-anchor="start" y="142" font-family="Helvetica Neue, Helvetica, Arial, sans-serif">830 db hits</text><rect class="b-outline" width="260" rx="8" ry="8" fill="none" stroke-width="1" style="stroke: rgb(187, 190, 195);" height="152.33000853153425"/></g><g class="operator" transform="translate(0, -1375.4964599609375)"><rect class="background" width="260" height="152.33000853153425" rx="8" ry="8" fill="rgb(255, 255, 255)"/><g class="header" pointer-events="all"><path class="banner" d="M 252 0 A 8 8 0 0 1 260 8 L 260 18 A 8 8 0 0 1 260 26 L 0 26 A 8 8 0 0 1 0 18 L 0 8 A 8 8 0 0 1 8 0 Z" style="fill: rgb(75, 40, 148);"/><path class="expand" fill="#FFFFFF" d="M -5 -10 L 8.66 0 L -5 10 Z" transform="translate(13, 13) rotate(90) scale(0.5,0.5)"/><text class="title text-[12px] font-bold" x="26" y="17" fill="#FFFFFF" font-family="Helvetica Neue, Helvetica, Arial, sans-serif">Filter@neo4j</text></g><g class="detail identifiers text-[10px] font-mono" transform="translate(0, 40)"><text font-size="10" x="3" text-anchor="start" fill="#1a1b1dff" font-family="Helvetica Neue, Helvetica, Arial, sans-serif">c, o</text></g><g class="detail padding text-[10px]" transform="translate(0, 54)"><text font-size="10" x="3" text-anchor="start" fill="#1a1b1dff" font-family="Helvetica Neue, Helvetica, Arial, sans-serif"/><path class="divider" visibility="visible" d="M 0 -6 L 260 -6" stroke="#DFE1E3"/></g><g class="detail expression text-[10px] font-mono" transform="translate(0, 60)"><text font-size="10" x="3" text-anchor="start" fill="#1a1b1dff" font-family="Helvetica Neue, Helvetica, Arial, sans-serif">o:Order</text></g><g class="detail padding text-[10px]" transform="translate(0, 74)"><text font-size="10" x="3" text-anchor="start" fill="#1a1b1dff" font-family="Helvetica Neue, Helvetica, Arial, sans-serif"/><path class="divider" visibility="visible" d="M 0 -6 L 260 -6" stroke="#DFE1E3"/></g><g class="detail pagecache-hits text-[10px]" transform="translate(0, 80)"><text font-size="10" x="3" text-anchor="start" fill="#1a1b1dff" font-family="Helvetica Neue, Helvetica, Arial, sans-serif">578 pagecache hits</text></g><g class="detail pagecache-misses text-[10px]" transform="translate(0, 94)"><text font-size="10" x="3" text-anchor="start" fill="#1a1b1dff" font-family="Helvetica Neue, Helvetica, Arial, sans-serif">0 pagecache misses</text></g><g class="detail estimated-rows text-[10px]" transform="translate(0, 108)"><text font-size="10" x="3" text-anchor="start" fill="#1a1b1dff" font-family="Helvetica Neue, Helvetica, Arial, sans-serif">830 estimated rows</text></g><path class="cost" fill="#bb2d00ff" d="M 0 127.99999999999999 L 260 127.99999999999999 L 260 144.33000853153425 A 8 8 0 0 1 252 152.33000853153425 L 8 152.33000853153425 A 8 8 0 0 1 0 144.33000853153425 Z"/><text class="cost text-[10px] font-bold" fill="#ffffffff" x="3" text-anchor="start" y="142" font-family="Helvetica Neue, Helvetica, Arial, sans-serif">830 db hits</text><rect class="b-outline" width="260" rx="8" ry="8" fill="none" stroke-width="1" style="stroke: rgb(187, 190, 195);" height="152.33000853153425"/></g><g class="operator" transform="translate(0, -1564.2025146484375)"><rect class="background" width="260" height="152.70609100878025" rx="8" ry="8" fill="rgb(255, 255, 255)"/><g class="header" pointer-events="all"><path class="banner" d="M 252 0 A 8 8 0 0 1 260 8 L 260 18 A 8 8 0 0 1 260 26 L 0 26 A 8 8 0 0 1 0 18 L 0 8 A 8 8 0 0 1 8 0 Z" style="fill: rgb(44, 42, 52);"/><path class="expand" fill="#FFFFFF" d="M -5 -10 L 8.66 0 L -5 10 Z" transform="translate(13, 13) rotate(90) scale(0.5,0.5)"/><text class="title text-[12px] font-bold" x="26" y="17" fill="#FFFFFF" font-family="Helvetica Neue, Helvetica, Arial, sans-serif">Expand(All)@neo4j</text></g><g class="detail identifiers text-[10px] font-mono" transform="translate(0, 40)"><text font-size="10" x="3" text-anchor="start" fill="#1a1b1dff" font-family="Helvetica Neue, Helvetica, Arial, sans-serif">c, o</text></g><g class="detail padding text-[10px]" transform="translate(0, 54)"><text font-size="10" x="3" text-anchor="start" fill="#1a1b1dff" font-family="Helvetica Neue, Helvetica, Arial, sans-serif"/><path class="divider" visibility="visible" d="M 0 -6 L 260 -6" stroke="#DFE1E3"/></g><g class="detail expression text-[10px] font-mono" transform="translate(0, 60)"><text font-size="10" x="3" text-anchor="start" fill="#1a1b1dff" font-family="Helvetica Neue, Helvetica, Arial, sans-serif">(c)-[:PURCHASED]-&gt;(o)</text></g><g class="detail padding text-[10px]" transform="translate(0, 74)"><text font-size="10" x="3" text-anchor="start" fill="#1a1b1dff" font-family="Helvetica Neue, Helvetica, Arial, sans-serif"/><path class="divider" visibility="visible" d="M 0 -6 L 260 -6" stroke="#DFE1E3"/></g><g class="detail pagecache-hits text-[10px]" transform="translate(0, 80)"><text font-size="10" x="3" text-anchor="start" fill="#1a1b1dff" font-family="Helvetica Neue, Helvetica, Arial, sans-serif">3 pagecache hits</text></g><g class="detail pagecache-misses text-[10px]" transform="translate(0, 94)"><text font-size="10" x="3" text-anchor="start" fill="#1a1b1dff" font-family="Helvetica Neue, Helvetica, Arial, sans-serif">0 pagecache misses</text></g><g class="detail estimated-rows text-[10px]" transform="translate(0, 108)"><text font-size="10" x="3" text-anchor="start" fill="#1a1b1dff" font-family="Helvetica Neue, Helvetica, Arial, sans-serif">830 estimated rows</text></g><path class="cost" fill="#bb2d00ff" d="M 0 128 L 260 128 L 260 144.70609100878025 A 8 8 0 0 1 252 152.70609100878025 L 8 152.70609100878025 A 8 8 0 0 1 0 144.70609100878025 Z"/><text class="cost text-[10px] font-bold" fill="#ffffffff" x="3" text-anchor="start" y="142" font-family="Helvetica Neue, Helvetica, Arial, sans-serif">921 db hits</text><rect class="b-outline" width="260" rx="8" ry="8" fill="none" stroke-width="1" style="stroke: rgb(187, 190, 195);" height="152.70609100878025"/></g><g class="operator" transform="translate(0, -1758.5673828125)"><rect class="background" width="260" height="144.36489856121295" rx="8" ry="8" fill="rgb(255, 255, 255)"/><g class="header" pointer-events="all"><path class="banner" d="M 252 0 A 8 8 0 0 1 260 8 L 260 18 A 8 8 0 0 1 260 26 L 0 26 A 8 8 0 0 1 0 18 L 0 8 A 8 8 0 0 1 8 0 Z" style="fill: rgb(117, 78, 200);"/><path class="expand" fill="#FFFFFF" d="M -5 -10 L 8.66 0 L -5 10 Z" transform="translate(13, 13) rotate(90) scale(0.5,0.5)"/><text class="title text-[12px] font-bold" x="26" y="17" fill="#FFFFFF" font-family="Helvetica Neue, Helvetica, Arial, sans-serif">CacheProperties@neo4j</text></g><g class="detail identifiers text-[10px] font-mono" transform="translate(0, 40)"><text font-size="10" x="3" text-anchor="start" fill="#1a1b1dff" font-family="Helvetica Neue, Helvetica, Arial, sans-serif">c</text></g><g class="detail padding text-[10px]" transform="translate(0, 54)"><text font-size="10" x="3" text-anchor="start" fill="#1a1b1dff" font-family="Helvetica Neue, Helvetica, Arial, sans-serif"/><path class="divider" visibility="visible" d="M 0 -6 L 260 -6" stroke="#DFE1E3"/></g><g class="detail expression text-[10px] font-mono" transform="translate(0, 60)"><text font-size="10" x="3" text-anchor="start" fill="#1a1b1dff" font-family="Helvetica Neue, Helvetica, Arial, sans-serif">cache[c.companyName]</text></g><g class="detail padding text-[10px]" transform="translate(0, 74)"><text font-size="10" x="3" text-anchor="start" fill="#1a1b1dff" font-family="Helvetica Neue, Helvetica, Arial, sans-serif"/><path class="divider" visibility="visible" d="M 0 -6 L 260 -6" stroke="#DFE1E3"/></g><g class="detail pagecache-hits text-[10px]" transform="translate(0, 80)"><text font-size="10" x="3" text-anchor="start" fill="#1a1b1dff" font-family="Helvetica Neue, Helvetica, Arial, sans-serif">170 pagecache hits</text></g><g class="detail pagecache-misses text-[10px]" transform="translate(0, 94)"><text font-size="10" x="3" text-anchor="start" fill="#1a1b1dff" font-family="Helvetica Neue, Helvetica, Arial, sans-serif">0 pagecache misses</text></g><g class="detail estimated-rows text-[10px]" transform="translate(0, 108)"><text font-size="10" x="3" text-anchor="start" fill="#1a1b1dff" font-family="Helvetica Neue, Helvetica, Arial, sans-serif">91 estimated rows</text></g><g class="detail db-hits text-[10px]" transform="translate(0, 122)"><text font-size="10" x="3" text-anchor="start" fill="#1a1b1dff" font-family="Helvetica Neue, Helvetica, Arial, sans-serif">91 db hits</text></g><path class="cost" fill="#bb2d00ff" d="M 0 128 L 260 128 L 260 136.36489856121295 A 8 8 0 0 1 252 144.36489856121295 L 8 144.36489856121295 A 8 8 0 0 1 0 136.36489856121295 Z"/><rect class="b-outline" width="260" rx="8" ry="8" fill="none" stroke-width="1" style="stroke: rgb(187, 190, 195);" height="144.36489856121295"/></g><g class="operator" transform="translate(0, -1952.971435546875)"><rect class="background" width="260" height="144.4040245712828" rx="8" ry="8" fill="rgb(255, 255, 255)"/><g class="header" pointer-events="all"><path class="banner" d="M 252 0 A 8 8 0 0 1 260 8 L 260 18 A 8 8 0 0 1 260 26 L 0 26 A 8 8 0 0 1 0 18 L 0 8 A 8 8 0 0 1 8 0 Z" style="fill: rgb(204, 180, 255);"/><path class="expand" fill="#000000" d="M -5 -10 L 8.66 0 L -5 10 Z" transform="translate(13, 13) rotate(90) scale(0.5,0.5)"/><text class="title text-[12px] font-bold" x="26" y="17" fill="#000000" font-family="Helvetica Neue, Helvetica, Arial, sans-serif">NodeByLabelScan@neo4j</text></g><g class="detail identifiers text-[10px] font-mono" transform="translate(0, 40)"><text font-size="10" x="3" text-anchor="start" fill="#1a1b1dff" font-family="Helvetica Neue, Helvetica, Arial, sans-serif">c</text></g><g class="detail padding text-[10px]" transform="translate(0, 54)"><text font-size="10" x="3" text-anchor="start" fill="#1a1b1dff" font-family="Helvetica Neue, Helvetica, Arial, sans-serif"/><path class="divider" visibility="visible" d="M 0 -6 L 260 -6" stroke="#DFE1E3"/></g><g class="detail expression text-[10px] font-mono" transform="translate(0, 60)"><text font-size="10" x="3" text-anchor="start" fill="#1a1b1dff" font-family="Helvetica Neue, Helvetica, Arial, sans-serif">c:Customer</text></g><g class="detail padding text-[10px]" transform="translate(0, 74)"><text font-size="10" x="3" text-anchor="start" fill="#1a1b1dff" font-family="Helvetica Neue, Helvetica, Arial, sans-serif"/><path class="divider" visibility="visible" d="M 0 -6 L 260 -6" stroke="#DFE1E3"/></g><g class="detail pagecache-hits text-[10px]" transform="translate(0, 80)"><text font-size="10" x="3" text-anchor="start" fill="#1a1b1dff" font-family="Helvetica Neue, Helvetica, Arial, sans-serif">1 pagecache hits</text></g><g class="detail pagecache-misses text-[10px]" transform="translate(0, 94)"><text font-size="10" x="3" text-anchor="start" fill="#1a1b1dff" font-family="Helvetica Neue, Helvetica, Arial, sans-serif">0 pagecache misses</text></g><g class="detail estimated-rows text-[10px]" transform="translate(0, 108)"><text font-size="10" x="3" text-anchor="start" fill="#1a1b1dff" font-family="Helvetica Neue, Helvetica, Arial, sans-serif">91 estimated rows</text></g><g class="detail db-hits text-[10px]" transform="translate(0, 122)"><text font-size="10" x="3" text-anchor="start" fill="#1a1b1dff" font-family="Helvetica Neue, Helvetica, Arial, sans-serif">92 db hits</text></g><path class="cost" fill="#bb2d00ff" d="M 0 128 L 260 128 L 260 136.4040245712828 A 8 8 0 0 1 252 144.4040245712828 L 8 144.4040245712828 A 8 8 0 0 1 0 136.4040245712828 Z"/><rect class="b-outline" width="260" rx="8" ry="8" fill="none" stroke-width="1" style="stroke: rgb(187, 190, 195);" height="144.4040245712828"/></g></g></g><g><rect fill="#ffffffff" width="447.22500000000014" height="38"/><text font-size="10" fill="#1a1b1dff" font-family="Helvetica Neue, Helvetica, Arial, sans-serif" x="12" y="12">Cypher version: 5, Planner: COST, Runtime: SLOTTED</text><text font-size="10" fill="#1a1b1dff" font-family="Helvetica Neue, Helvetica, Arial, sans-serif" x="12" y="30">Total database accesses: 4,424, Total allocated memory: 156,408 bytes, Total time: 53 ms</text><rect fill="none" stroke="#bbbec3ff" width="447.22500000000014" height="38" stroke-width="1"/></g></svg>