<svg width="166" height="137" viewBox="0 0 166 137" fill="none" xmlns="http://www.w3.org/2000/svg">
  <path
    d="M132.371 16.5029C146.487 25.1152 146.543 39.0811 132.537 47.6934C118.532 56.3057 95.7457 56.3057 81.6292 47.6934C67.5127 39.0811 67.4571 25.1152 81.4625 16.5029C95.4678 7.83238 118.254 7.83238 132.371 16.5029Z"
    fill="#51A6B1" stroke="#151E29" stroke-linejoin="round" />
  <path
    d="M143 92.1081L143 99.382C143 104.852 139.525 110.38 132.518 114.628C118.616 123.124 95.6902 123.124 81.6206 114.628C74.5578 110.38 71.0264 104.794 71.0264 99.3238L71.0264 91.9917C71.0264 97.6362 74.5017 103.106 81.6206 107.296C95.6902 115.792 118.504 115.792 132.518 107.296C139.525 103.106 143 97.6363 143 92.1081Z"
    fill="#02507B" stroke="#151E29" stroke-linejoin="round" />
  <path
    d="M132.371 76.4184C146.487 85.0307 146.543 98.9966 132.537 107.609C118.532 116.221 95.7457 116.221 81.6292 107.609C67.5127 98.9966 67.4571 85.0307 81.4625 76.4184C95.4678 67.7479 118.254 67.7479 132.371 76.4184Z"
    fill="white" stroke="#151E29" stroke-linejoin="round" />
  <path
    d="M143 39.7785L143 32.5046C143 38.0327 139.525 43.5027 132.518 47.6925C118.504 56.1884 95.6902 56.1884 81.6206 47.6925C74.5017 43.5027 71.0264 38.0327 71.0264 32.3882L71.0264 39.7203L71.0264 92.3148C71.0309 97.9555 74.5064 103.421 81.6206 107.608C95.6902 116.104 118.504 116.104 132.518 107.608C139.525 103.418 143 97.9484 143 92.4202L143 39.7785Z"
    fill="#A3E2FF" fill-opacity="0.3" />
  <path
    d="M71.0264 92.3148L71.0264 39.7203L71.0264 32.3882C71.0264 38.0327 74.5017 43.5027 81.6206 47.6925C95.6902 56.1884 118.504 56.1884 132.518 47.6925C139.525 43.5027 143 38.0327 143 32.5046L143 39.7785L143 92.4202C143 97.9484 139.525 103.418 132.518 107.608C118.504 116.104 95.6902 116.104 81.6206 107.608C74.5017 103.418 71.0264 97.9484 71.0264 92.3038"
    stroke="#151E29" stroke-linejoin="round" />
  <path opacity="0.1" fill-rule="evenodd" clip-rule="evenodd"
    d="M89.9319 80.8237C90.2914 80.1657 90.0245 79.4161 89.131 78.894C87.8569 78.1493 85.791 78.1493 84.5167 78.8938C83.2425 79.6384 83.2425 80.8456 84.5166 81.5903C85.2713 82.0314 86.3037 82.2112 87.2848 82.1299L91.7111 92.6109C90.3046 92.5674 88.8733 92.8596 87.7989 93.4874C85.7891 94.6618 85.789 96.5659 87.7988 97.7405C89.2898 98.6119 91.4684 98.8369 93.3143 98.4153L97.51 105.019C96.6273 105.539 96.6294 106.378 97.5163 106.897C98.4054 107.416 99.8469 107.416 100.736 106.897C101.625 106.377 101.625 105.535 100.736 105.015C100.097 104.642 99.1726 104.537 98.3731 104.7L94.2104 98.1485C94.5175 98.0336 94.8083 97.8976 95.0767 97.7408C95.7606 97.3411 96.2118 96.857 96.4303 96.3459L104.44 99.7601C104.25 100.199 104.449 100.684 105.037 101.028C105.926 101.548 107.368 101.548 108.257 101.028C109.014 100.586 109.126 99.909 108.594 99.3971L113.849 95.1527C114.643 95.5161 115.714 95.5724 116.594 95.3217L119.55 99.8386C119.129 99.9716 118.733 100.142 118.377 100.35C116.404 101.503 116.404 103.373 118.377 104.526C120.351 105.679 123.55 105.68 125.524 104.526C127.497 103.373 127.497 101.503 125.524 100.35C124.953 100.016 124.279 99.7793 123.562 99.6387L123.714 97.712L124.017 98.351L124.289 98.9239L124.74 98.4782L131.096 92.1956C131.841 92.3739 132.73 92.2862 133.335 91.9325C134.14 91.4621 134.14 90.6994 133.335 90.229C132.53 89.7586 131.225 89.7585 130.42 90.2289C129.688 90.6564 129.622 91.3253 130.22 91.7968L124.558 97.3928L123.874 95.9502L126.895 84.0561C127.778 84.0391 128.652 83.8336 129.326 83.4398C130.735 82.6165 130.735 81.2815 129.326 80.4581C127.918 79.6346 125.633 79.6345 124.224 80.4579C123.045 81.1469 122.853 82.1942 123.647 83.0002L114.309 87.5606C114.099 87.3316 113.829 87.1164 113.498 86.9233C112.338 86.245 110.715 86.0016 109.222 86.1929L106.325 83.7587C106.801 83.3607 106.735 82.8084 106.127 82.453C105.445 82.0545 104.34 82.0544 103.658 82.4529C102.976 82.8514 102.976 83.4975 103.658 83.896C104.128 84.1708 104.8 84.2562 105.395 84.1521L108.104 86.4278C107.685 86.5533 107.293 86.7183 106.943 86.923C106.681 87.0759 106.457 87.2425 106.271 87.4189L89.9319 80.8237ZM88.1949 81.973C88.5339 81.8813 88.8514 81.7538 89.1309 81.5905C89.1715 81.5668 89.2108 81.5426 89.2488 81.518L105.728 88.1695C105.537 88.6085 105.538 89.07 105.729 89.5089L94.7049 93.2903C94.1115 93.0047 93.4344 92.8086 92.7259 92.702L88.1949 81.973ZM96.5745 95.4297C96.5186 94.8948 96.2193 94.367 95.6766 93.9078L106.284 90.2694C106.467 90.4415 106.687 90.6042 106.943 90.7538C108.753 91.8117 111.688 91.8118 113.498 90.754C114.624 90.0961 115.05 89.184 114.775 88.3338L124.499 83.5849C124.942 83.7957 125.45 83.936 125.98 84.0056L122.963 95.8858L122.953 95.923L122.95 95.9612L122.67 99.515C121.938 99.4539 121.189 99.4865 120.477 99.6128L117.425 94.9478C118.31 94.3496 118.267 93.4443 117.295 92.8761C116.277 92.2815 114.628 92.2814 113.61 92.876C112.81 93.3433 112.639 94.0389 113.097 94.6039L107.75 98.9229C106.927 98.6566 105.882 98.7106 105.15 99.0849L96.5745 95.4297Z"
    fill="#4C99A4" />
  <ellipse cx="2.36882" cy="2.34013" rx="2.36882" ry="2.34013"
    transform="matrix(-4.28603e-08 1 1 4.46033e-08 105.382 82.5542)" stroke="#151E29" />
  <ellipse cx="2.36882" cy="2.34013" rx="2.36882" ry="2.34013"
    transform="matrix(-4.28603e-08 1 1 4.46033e-08 105.382 82.5542)" stroke="white" />
  <path
    d="M127.979 93.2305L121.489 71.1183M127.979 93.2305L131.904 80.8541M127.979 93.2305L106.84 96.3335M121.489 71.1183L111.266 74.5537M121.489 71.1183L126.731 57.5983M111.266 74.5537L91.2754 90.7853M111.266 74.5537L105.761 58.8619M111.266 74.5537L115.369 64.1688M91.2754 90.7853L84.9937 62.2296L84.9937 54.4395M91.2754 90.7853L106.84 96.3335M91.2754 90.7853L99.2628 103.23M91.2754 90.7853L97.1476 73.7718M106.84 96.3335L107.424 88.6687M106.84 96.3335L117.12 82.4903"
    stroke="#151E29" />
  <ellipse cx="3.55794" cy="3.51486" rx="3.55794" ry="3.51486"
    transform="matrix(-4.28604e-08 1 1 4.46032e-08 87.9233 86.9995)" fill="#8FE3E8" />
  <path opacity="0.5" fill-rule="evenodd" clip-rule="evenodd"
    d="M94.9531 90.5578C94.9531 92.5228 93.3794 94.1157 91.4382 94.1157C89.497 94.1157 87.9233 92.5228 87.9233 90.5578C87.9233 90.2724 87.9565 89.9949 88.0192 89.729C88.3879 91.2946 89.7788 92.4588 91.4384 92.4588C93.0977 92.4588 94.4884 91.2949 94.8574 89.7297C94.9199 89.9954 94.9531 90.2727 94.9531 90.5578Z"
    fill="#4C99A4" />
  <ellipse cx="3.55794" cy="3.51486" rx="3.55794" ry="3.51486"
    transform="matrix(-4.28604e-08 1 1 4.46032e-08 87.9233 86.9995)" stroke="#151E29" />
  <ellipse cx="3.21102" cy="3.17732" rx="3.21102" ry="3.17732"
    transform="matrix(0.255891 0.966706 0.965129 -0.261775 122.308 56.668)" stroke="#151E29" />
  <ellipse cx="3.21102" cy="3.17732" rx="3.21102" ry="3.17732"
    transform="matrix(0.255891 0.966706 0.965129 -0.261775 122.308 56.668)" stroke="white" />
  <ellipse cx="3.20832" cy="3.17998" rx="3.20832" ry="3.17998"
    transform="matrix(0.25543 0.966831 0.965003 -0.262248 122.308 56.6724)" fill="#8FE3E8" />
  <path opacity="0.5" fill-rule="evenodd" clip-rule="evenodd"
    d="M129.277 58.1498C129.7 59.848 128.695 61.5832 127.014 62.0403C125.319 62.5015 123.578 61.4871 123.126 59.7745C122.982 59.2278 122.986 58.676 123.114 58.1631C123.118 58.1782 123.122 58.1933 123.126 58.2084C123.578 59.921 125.319 60.9354 127.014 60.4742C128.168 60.1603 129.004 59.2435 129.277 58.1498Z"
    fill="#4C99A4" />
  <ellipse cx="3.20832" cy="3.17998" rx="3.20832" ry="3.17998"
    transform="matrix(0.25543 0.966831 0.965003 -0.262248 122.308 56.6724)" stroke="#151E29" />
  <ellipse cx="4.37106" cy="4.31813" rx="4.37106" ry="4.31813"
    transform="matrix(-4.28603e-08 1 1 4.46033e-08 123.241 88.8599)" fill="#8FE3E8" />
  <path opacity="0.5" fill-rule="evenodd" clip-rule="evenodd"
    d="M131.781 92.3071C131.362 94.2778 129.631 95.7549 127.559 95.7549C125.487 95.7549 123.756 94.2778 123.338 92.3071C123.274 92.6048 123.241 92.9137 123.241 93.2304C123.241 95.6445 125.175 97.6015 127.559 97.6015C129.944 97.6015 131.877 95.6445 131.877 93.2304C131.877 92.9137 131.844 92.6048 131.781 92.3071Z"
    fill="#4C99A4" />
  <ellipse cx="4.37106" cy="4.31813" rx="4.37106" ry="4.31813"
    transform="matrix(-4.28603e-08 1 1 4.46033e-08 123.241 88.8599)" stroke="#151E29" />
  <ellipse cx="3.82662" cy="3.80976" rx="3.82662" ry="3.80976"
    transform="matrix(-0.495246 0.868756 0.863256 0.504772 83.3628 52.7856)" stroke="#151E29" />
  <ellipse cx="3.82662" cy="3.80976" rx="3.82662" ry="3.80976"
    transform="matrix(-0.495246 0.868756 0.863256 0.504772 83.3628 52.7856)" stroke="white" />
  <ellipse cx="3.82662" cy="3.80976" rx="3.82662" ry="3.80976"
    transform="matrix(-0.495246 0.868756 0.863256 0.504772 83.3628 52.7856)" fill="#8FE3E8" />
  <path opacity="0.5" fill-rule="evenodd" clip-rule="evenodd"
    d="M88.0048 58.0971C86.9583 59.933 84.6374 60.5601 82.8208 59.4978C81.9167 58.9691 81.308 58.1216 81.0535 57.1772C80.6949 58.7759 81.3836 60.4926 82.8618 61.357C84.6783 62.4193 86.9993 61.7921 88.0457 59.9563C88.5714 59.0342 88.6755 57.9825 88.4187 57.0295C88.3366 57.3954 88.1997 57.7552 88.0048 58.0971Z"
    fill="#4C99A4" />
  <ellipse cx="3.82662" cy="3.80976" rx="3.82662" ry="3.80976"
    transform="matrix(-0.495246 0.868756 0.863256 0.504772 83.3628 52.7856)" stroke="#151E29" />
  <ellipse cx="4.65129" cy="4.59497" rx="4.65129" ry="4.59497"
    transform="matrix(-4.28603e-08 1 1 4.46032e-08 106.647 69.6646)" fill="#8FE3E8" />
  <path opacity="0.5" fill-rule="evenodd" clip-rule="evenodd"
    d="M115.64 72.9634C115.067 74.8726 113.315 76.2622 111.242 76.2622C109.169 76.2622 107.417 74.8726 106.844 72.9634C106.716 73.3914 106.647 73.8454 106.647 74.3158C106.647 76.8847 108.704 78.9671 111.242 78.9671C113.78 78.9671 115.837 76.8847 115.837 74.3158C115.837 73.8454 115.768 73.3914 115.64 72.9634Z"
    fill="#4C99A4" />
  <ellipse cx="4.65129" cy="4.59497" rx="4.65129" ry="4.59497"
    transform="matrix(-4.28603e-08 1 1 4.46032e-08 106.647 69.6646)" stroke="#151E29" />
  <ellipse cx="2.36882" cy="2.34013" rx="2.36882" ry="2.34013"
    transform="matrix(-4.28603e-08 1 1 4.46033e-08 105.382 82.5542)" fill="#51A6B1" />
  <path opacity="0.5" fill-rule="evenodd" clip-rule="evenodd"
    d="M109.962 84.2344C109.67 85.2068 108.778 85.9147 107.722 85.9147C106.666 85.9147 105.774 85.2068 105.482 84.2344C105.417 84.4523 105.382 84.6834 105.382 84.9229C105.382 86.2312 106.43 87.2917 107.722 87.2917C109.014 87.2917 110.062 86.2312 110.062 84.9229C110.062 84.6834 110.027 84.4523 109.962 84.2344Z"
    fill="#4C99A4" />
  <ellipse cx="2.36882" cy="2.34013" rx="2.36882" ry="2.34013"
    transform="matrix(-4.28603e-08 1 1 4.46033e-08 105.382 82.5542)" stroke="#151E29" />
  <ellipse cx="2.36882" cy="2.34013" rx="2.36882" ry="2.34013"
    transform="matrix(-4.28603e-08 1 1 4.46032e-08 114.494 80.5703)" fill="#51A6B1" />
  <path opacity="0.5" fill-rule="evenodd" clip-rule="evenodd"
    d="M119.074 82.2505C118.783 83.2229 117.89 83.9308 116.834 83.9308C115.778 83.9308 114.886 83.2229 114.595 82.2505C114.529 82.4684 114.494 82.6995 114.494 82.939C114.494 84.2473 115.542 85.3078 116.834 85.3078C118.127 85.3078 119.174 84.2473 119.174 82.939C119.174 82.6995 119.139 82.4684 119.074 82.2505Z"
    fill="#4C99A4" />
  <ellipse cx="2.36882" cy="2.34013" rx="2.36882" ry="2.34013"
    transform="matrix(-4.28603e-08 1 1 4.46032e-08 114.494 80.5703)" stroke="#151E29" />
  <ellipse cx="2.46271" cy="2.43289" rx="2.46271" ry="2.43289"
    transform="matrix(-4.28603e-08 1 1 4.46032e-08 129.445 78.0137)" fill="#8FE3E8" />
  <path opacity="0.5" fill-rule="evenodd" clip-rule="evenodd"
    d="M134.206 79.7607C133.903 80.7717 132.975 81.5075 131.878 81.5075C130.78 81.5075 129.852 80.7717 129.549 79.7607C129.481 79.9873 129.445 80.2277 129.445 80.4767C129.445 81.8368 130.534 82.9394 131.878 82.9394C133.221 82.9394 134.311 81.8368 134.311 80.4767C134.311 80.2277 134.274 79.9873 134.206 79.7607Z"
    fill="#4C99A4" />
  <ellipse cx="2.46271" cy="2.43289" rx="2.46271" ry="2.43289"
    transform="matrix(-4.28603e-08 1 1 4.46032e-08 129.445 78.0137)" stroke="#151E29" />
  <ellipse cx="2.38408" cy="2.35521" rx="2.38408" ry="2.35521"
    transform="matrix(-4.28603e-08 1 1 4.46032e-08 104.292 93.2305)" fill="#8FE3E8" />
  <path opacity="0.5" fill-rule="evenodd" clip-rule="evenodd"
    d="M108.901 94.9209C108.608 95.8995 107.71 96.6117 106.647 96.6117C105.585 96.6117 104.686 95.8995 104.393 94.9209C104.327 95.1403 104.292 95.373 104.292 95.6141C104.292 96.9308 105.346 97.9982 106.647 97.9982C107.948 97.9982 109.002 96.9308 109.002 95.6141C109.002 95.373 108.967 95.1403 108.901 94.9209Z"
    fill="#4C99A4" />
  <ellipse cx="2.38408" cy="2.35521" rx="2.38408" ry="2.35521"
    transform="matrix(-4.28603e-08 1 1 4.46032e-08 104.292 93.2305)" stroke="#151E29" />
  <ellipse cx="1.93257" cy="1.90917" rx="1.93257" ry="1.90917"
    transform="matrix(-4.28603e-08 1 1 4.46033e-08 97.4448 101.297)" fill="#51A6B1" />
  <path opacity="0.5" fill-rule="evenodd" clip-rule="evenodd"
    d="M101.181 102.668C100.943 103.462 100.215 104.039 99.354 104.039C98.4926 104.039 97.7645 103.462 97.5268 102.668C97.4735 102.846 97.4448 103.035 97.4448 103.23C97.4448 104.298 98.2996 105.163 99.354 105.163C100.408 105.163 101.263 104.298 101.263 103.23C101.263 103.035 101.235 102.846 101.181 102.668Z"
    fill="#4C99A4" />
  <ellipse cx="1.93257" cy="1.90917" rx="1.93257" ry="1.90917"
    transform="matrix(-4.28603e-08 1 1 4.46033e-08 97.4448 101.297)" stroke="#151E29" />
  <ellipse cx="2.38408" cy="2.35521" rx="2.38408" ry="2.35521"
    transform="matrix(-4.28603e-08 1 1 4.46032e-08 103.738 57.353)" fill="#51A6B1" />
  <path opacity="0.5" fill-rule="evenodd" clip-rule="evenodd"
    d="M108.348 59.0439C108.054 60.0225 107.156 60.7348 106.093 60.7348C105.031 60.7348 104.133 60.0225 103.839 59.0439C103.774 59.2633 103.738 59.4961 103.738 59.7372C103.738 61.0539 104.793 62.1213 106.093 62.1213C107.394 62.1213 108.449 61.0539 108.449 59.7372C108.449 59.4961 108.413 59.2633 108.348 59.0439Z"
    fill="#4C99A4" />
  <ellipse cx="2.38408" cy="2.35521" rx="2.38408" ry="2.35521"
    transform="matrix(-4.28603e-08 1 1 4.46032e-08 103.738 57.353)" stroke="#151E29" />
  <ellipse cx="2.38408" cy="2.35521" rx="2.38408" ry="2.35521"
    transform="matrix(-4.28603e-08 1 1 4.46032e-08 112.851 62.1211)" fill="#51A6B1" />
  <path opacity="0.5" fill-rule="evenodd" clip-rule="evenodd"
    d="M117.46 63.812C117.167 64.7906 116.268 65.5028 115.206 65.5028C114.143 65.5028 113.245 64.7906 112.952 63.812C112.886 64.0314 112.851 64.2641 112.851 64.5053C112.851 65.8219 113.905 66.8893 115.206 66.8893C116.507 66.8893 117.561 65.8219 117.561 64.5053C117.561 64.2641 117.526 64.0314 117.46 63.812Z"
    fill="#4C99A4" />
  <ellipse cx="2.38408" cy="2.35521" rx="2.38408" ry="2.35521"
    transform="matrix(-4.28603e-08 1 1 4.46032e-08 112.851 62.1211)" stroke="#151E29" />
  <ellipse cx="2.38408" cy="2.35521" rx="2.38408" ry="2.35521"
    transform="matrix(-4.28603e-08 1 1 4.46033e-08 94.4155 72.4165)" fill="#51A6B1" />
  <path opacity="0.5" fill-rule="evenodd" clip-rule="evenodd"
    d="M99.0248 74.1074C98.7315 75.086 97.8333 75.7982 96.7707 75.7982C95.7082 75.7982 94.81 75.086 94.5166 74.1074C94.4509 74.3268 94.4155 74.5596 94.4155 74.8007C94.4155 76.1174 95.47 77.1847 96.7707 77.1847C98.0715 77.1847 99.1259 76.1174 99.1259 74.8007C99.1259 74.5596 99.0906 74.3268 99.0248 74.1074Z"
    fill="#4C99A4" />
  <ellipse cx="2.38408" cy="2.35521" rx="2.38408" ry="2.35521"
    transform="matrix(-4.28603e-08 1 1 4.46033e-08 94.4155 72.4165)" stroke="#151E29" />
  <path d="M83.4136 65.5L88.3791 86.1512" stroke="#151E29" stroke-dasharray="1.8 1.8" />
  <path d="M94.5864 94.2699L102.761 97.7673M105.759 88.7324V92.3755" stroke="#151E29"
    stroke-dasharray="1.8 1.8" />
  <path d="M124.379 70.6626L128.104 87.4417" stroke="#151E29" stroke-dasharray="1.8 1.8" />
  <rect width="36.0085" height="36.0085" rx="9.89386"
    transform="matrix(0.858296 0.513154 -0.858296 0.513154 106.951 15.3672)" fill="#F5F7FA"
    stroke="#151E29" stroke-linejoin="round" />
  <path opacity="0.3"
    d="M96.6741 23.5802L99.4409 25.238L101.407 24.0844C101.79 23.8327 102.233 23.699 102.686 23.699C103.139 23.699 103.583 23.8327 103.965 24.0844L109.621 27.4907C110.493 27.9987 111.46 28.306 112.457 28.3918C113.4 28.514 114.357 28.4151 115.259 28.1032C115.022 28.2976 114.848 28.5621 114.761 28.8617C114.674 29.1613 114.678 29.482 114.772 29.7795C114.897 30.1494 115.093 30.4892 115.347 30.78C115.601 31.0709 115.908 31.3068 116.251 31.4734L121.906 34.8798C122.759 35.4024 122.776 35.9067 121.906 36.4294L119.905 37.6182L122.672 39.2945L126.152 37.2583C127.3 36.5735 127.892 35.8522 127.892 35.0953C127.892 34.3384 127.318 33.6542 126.152 32.9694L120.444 29.527C119.626 29.0404 119.209 28.6075 119.174 28.229C119.139 27.8506 119.383 27.4547 120.009 27.0041L120.984 26.301L118.321 24.6969L117.156 25.2741C116.522 25.6327 115.806 25.8067 115.085 25.7783C114.318 25.7029 113.58 25.4439 112.927 25.0216L107.237 21.5792C106.184 20.925 104.984 20.5709 103.756 20.5522C102.489 20.5563 101.245 20.9107 100.154 21.5792L96.6741 23.5802Z"
    fill="#4C99A4" stroke="#4C99A4" stroke-linejoin="round" />
  <path d="M96.6738 15.3657L96.6912 21.2408L99.458 22.9168L99.4406 17.0417L96.6738 15.3657Z"
    fill="#02507B" stroke="#02507B" stroke-linejoin="round" />
  <path fill-rule="evenodd" clip-rule="evenodd"
    d="M120.009 18.7547L120.009 18.7541L120.984 18.0513L121.001 23.9443L120.026 24.6291L120.026 24.5783L120.009 24.6293C119.452 25.0258 119.156 25.4044 119.156 25.7469V19.8722C119.156 19.4758 119.452 19.1512 120.009 18.7547Z"
    fill="#02507B" />
  <path
    d="M120.009 18.7541L119.509 18.7556C119.509 18.5944 119.586 18.4429 119.717 18.3486L120.009 18.7541ZM120.009 18.7547L120.509 18.7532C120.51 18.9155 120.431 19.0679 120.299 19.162L120.009 18.7547ZM120.984 18.0513L120.691 17.6457C120.843 17.5361 121.044 17.5207 121.211 17.6058C121.378 17.691 121.483 17.8624 121.484 18.0498L120.984 18.0513ZM121.001 23.9443L121.501 23.9428C121.501 24.1062 121.422 24.2595 121.288 24.3534L121.001 23.9443ZM120.026 24.6291L120.314 25.0382C120.162 25.1454 119.962 25.1588 119.797 25.0732C119.631 24.9875 119.527 24.817 119.526 24.6306L120.026 24.6291ZM120.026 24.5783L119.553 24.4183C119.631 24.1866 119.865 24.0455 120.107 24.0848C120.348 24.1241 120.526 24.3323 120.526 24.5768L120.026 24.5783ZM120.009 24.6293L120.483 24.7893C120.449 24.889 120.385 24.9756 120.299 25.0366L120.009 24.6293ZM119.656 25.7469C119.656 26.023 119.433 26.2469 119.156 26.2469C118.88 26.2469 118.656 26.023 118.656 25.7469H119.656ZM120.509 18.7526L120.509 18.7532L119.509 18.7562L119.509 18.7556L120.509 18.7526ZM121.276 18.4568L120.302 19.1596L119.717 18.3486L120.691 17.6457L121.276 18.4568ZM120.501 23.9458L120.484 18.0527L121.484 18.0498L121.501 23.9428L120.501 23.9458ZM119.739 24.2201L120.713 23.5352L121.288 24.3534L120.314 25.0382L119.739 24.2201ZM120.526 24.5768L120.526 24.6277L119.526 24.6306L119.526 24.5798L120.526 24.5768ZM119.535 24.4693L119.553 24.4183L120.5 24.7384L120.483 24.7893L119.535 24.4693ZM118.656 25.7469C118.656 25.4283 118.794 25.1432 118.977 24.9039C119.162 24.6637 119.417 24.4368 119.719 24.222L120.299 25.0366C120.044 25.2183 119.873 25.379 119.771 25.5128C119.667 25.6476 119.656 25.723 119.656 25.7469H118.656ZM119.656 19.8722V25.7469H118.656V19.8722H119.656ZM120.299 19.162C119.732 19.5658 119.656 19.7559 119.656 19.8722H118.656C118.656 19.1956 119.173 18.7365 119.719 18.3474L120.299 19.162Z"
    fill="#02507B" />
  <path
    d="M101.476 21.6999C101.841 21.4731 102.259 21.3533 102.686 21.3533C103.14 21.3533 103.584 21.4889 103.965 21.7449V21.7171L109.69 25.1334L109.69 25.1254C110.555 25.632 111.518 25.9361 112.509 26.0162C113.451 26.1353 114.406 26.0433 115.311 25.7461V19.853C114.409 20.1649 113.452 20.2638 112.509 20.1416C111.512 20.0558 110.544 19.7485 109.673 19.2405V19.2583L103.776 15.6787V15.758C103.439 15.579 103.066 15.4849 102.686 15.4849C102.253 15.4849 101.829 15.6068 101.459 15.8369L101.459 15.8342L99.4405 17.0417L99.4579 22.9167L101.476 21.7092L101.476 21.6999Z"
    fill="#02507B" stroke="#02507B" stroke-linejoin="round" />
  <path fill-rule="evenodd" clip-rule="evenodd"
    d="M114.823 21.5298V27.4044C114.947 27.7752 115.142 28.1165 115.397 28.4076C115.651 28.6986 115.959 28.9334 116.303 29.0983L116.32 29.1083L116.32 29.1165L121.975 32.5226L121.975 32.5049C122.393 32.7752 122.619 33.0278 122.619 33.2801V27.4046C122.619 27.1523 122.393 26.9005 121.975 26.6302L121.958 26.6411L121.958 26.6295L116.312 23.2469L116.303 23.2237C115.96 23.0571 115.653 22.8211 115.399 22.5303C115.145 22.2395 114.949 21.8996 114.823 21.5298Z"
    fill="#02507B" />
  <path
    d="M114.823 27.4044L114.349 27.5629C114.332 27.5118 114.323 27.4583 114.323 27.4044H114.823ZM114.823 21.5298H114.323C114.323 21.2851 114.501 21.0764 114.742 21.0365C114.983 20.9966 115.218 21.1372 115.297 21.3689L114.823 21.5298ZM116.303 29.0983L116.519 28.6475C116.531 28.6531 116.542 28.6591 116.553 28.6655L116.303 29.0983ZM116.32 29.1083L116.57 28.6755C116.724 28.7646 116.819 28.9288 116.82 29.1068L116.32 29.1083ZM116.32 29.1165L116.062 29.5448C115.912 29.4546 115.82 29.2928 115.82 29.118L116.32 29.1165ZM121.975 32.5226L122.475 32.5211C122.476 32.7017 122.379 32.8685 122.222 32.9575C122.065 33.0466 121.872 33.0441 121.717 32.9509L121.975 32.5226ZM121.975 32.5049L121.475 32.5063C121.475 32.3229 121.575 32.1539 121.736 32.066C121.897 31.9781 122.093 31.9854 122.247 32.0851L121.975 32.5049ZM123.119 33.2801C123.119 33.5562 122.895 33.7801 122.619 33.7801C122.343 33.7801 122.119 33.5562 122.119 33.2801H123.119ZM121.975 26.6302L121.708 26.2076C121.873 26.1034 122.083 26.1045 122.247 26.2105L121.975 26.6302ZM121.958 26.6411L122.225 27.0637C122.072 27.1609 121.877 27.167 121.718 27.0794C121.558 26.9919 121.459 26.8246 121.458 26.6426L121.958 26.6411ZM121.958 26.6295L122.215 26.2006C122.365 26.2907 122.458 26.4528 122.458 26.6281L121.958 26.6295ZM116.312 23.2469L116.055 23.6758C115.958 23.6181 115.884 23.5298 115.844 23.4249L116.312 23.2469ZM116.303 23.2237L116.521 22.774C116.636 22.8297 116.725 22.9268 116.77 23.0457L116.303 23.2237ZM115.399 22.5303L115.022 22.8592L115.399 22.5303ZM114.323 27.4044V21.5298H115.323V27.4044H114.323ZM115.02 28.7364C114.722 28.395 114.494 27.9957 114.349 27.5629L115.298 27.2459C115.401 27.5548 115.563 27.838 115.773 28.0787L115.02 28.7364ZM116.087 29.5491C115.681 29.3545 115.318 29.078 115.02 28.7364L115.773 28.0787C115.983 28.3192 116.237 28.5122 116.519 28.6475L116.087 29.5491ZM116.07 29.5411L116.052 29.5311L116.553 28.6655L116.57 28.6755L116.07 29.5411ZM115.82 29.118L115.82 29.1097L116.82 29.1068L116.82 29.115L115.82 29.118ZM121.717 32.9509L116.062 29.5448L116.578 28.6882L122.233 32.0943L121.717 32.9509ZM122.475 32.5034L122.475 32.5211L121.475 32.5241L121.475 32.5063L122.475 32.5034ZM122.247 32.0851C122.476 32.2331 122.682 32.3948 122.835 32.5762C122.99 32.759 123.119 32.9958 123.119 33.2801H122.119C122.119 33.312 122.135 33.2963 122.072 33.2222C122.008 33.1467 121.893 33.0469 121.704 32.9246L122.247 32.0851ZM122.119 33.2801V27.4046H123.119V33.2801H122.119ZM122.119 27.4046C122.119 27.4367 122.135 27.4214 122.072 27.3475C122.009 27.2721 121.893 27.1724 121.704 27.0499L122.247 26.2105C122.475 26.3583 122.682 26.5197 122.835 26.7008C122.99 26.8834 123.119 27.1201 123.119 27.4046H122.119ZM122.243 27.0528L122.225 27.0637L121.691 26.2185L121.708 26.2076L122.243 27.0528ZM122.458 26.6281L122.458 26.6396L121.458 26.6426L121.458 26.631L122.458 26.6281ZM116.569 22.818L122.215 26.2006L121.701 27.0585L116.055 23.6758L116.569 22.818ZM116.77 23.0457L116.779 23.0688L115.844 23.4249L115.836 23.4017L116.77 23.0457ZM115.775 22.2014C115.986 22.4427 116.24 22.6372 116.521 22.774L116.084 23.6734C115.68 23.477 115.319 23.1996 115.022 22.8592L115.775 22.2014ZM115.297 21.3689C115.402 21.6775 115.565 21.9602 115.775 22.2014L115.022 22.8592C114.725 22.5188 114.497 22.1218 114.35 21.6907L115.297 21.3689Z"
    fill="#02507B" />
  <path d="M119.957 29.3867L119.974 35.2618L122.741 36.9197L122.724 31.0447L119.957 29.3867Z"
    fill="#02507B" stroke="#02507B" stroke-linejoin="round" />
  <path fill-rule="evenodd" clip-rule="evenodd"
    d="M126.152 34.8728C127.289 34.1911 127.875 33.4743 127.875 32.7212V26.8457C127.84 27.6026 127.283 28.3238 126.134 29.0086L126.134 29.0085L122.724 31.0449L122.741 36.92L126.152 34.8835L126.152 34.8728Z"
    fill="#02507B" />
  <path
    d="M126.152 34.8728L125.652 34.8743C125.651 34.6981 125.744 34.5346 125.895 34.444L126.152 34.8728ZM127.875 26.8457L127.375 26.8227C127.388 26.5514 127.614 26.3396 127.886 26.3458C128.158 26.3521 128.375 26.574 128.375 26.8457L127.875 26.8457ZM126.134 29.0086L126.391 29.438C126.236 29.53 126.045 29.5322 125.888 29.4438C125.732 29.3554 125.635 29.1899 125.634 29.0103L126.134 29.0086ZM126.134 29.0085L125.878 28.5792C126.032 28.4871 126.224 28.4848 126.381 28.5732C126.537 28.6616 126.634 28.8271 126.634 29.0068L126.134 29.0085ZM122.724 31.0449L122.224 31.0464C122.223 30.8699 122.316 30.7062 122.467 30.6156L122.724 31.0449ZM122.741 36.92L122.998 37.3493C122.843 37.4414 122.651 37.4436 122.495 37.3552C122.339 37.2667 122.242 37.1011 122.241 36.9215L122.741 36.92ZM126.152 34.8835L126.652 34.8821C126.652 35.0586 126.56 35.2223 126.408 35.3128L126.152 34.8835ZM125.895 34.444C127.002 33.7798 127.375 33.1926 127.375 32.7212H128.375C128.375 33.7559 127.575 34.6024 126.409 35.3016L125.895 34.444ZM127.375 32.7212V26.8457H128.375V32.7212H127.375ZM128.374 26.8687C128.327 27.8812 127.586 28.725 126.391 29.438L125.878 28.5791C126.979 27.9226 127.352 27.324 127.375 26.8227L128.374 26.8687ZM125.634 29.0103L125.634 29.0103L126.634 29.0068L126.634 29.0068L125.634 29.0103ZM126.391 29.4378L122.98 31.4742L122.467 30.6156L125.878 28.5792L126.391 29.4378ZM123.224 31.0435L123.241 36.9185L122.241 36.9215L122.224 31.0464L123.224 31.0435ZM122.485 36.4907L125.896 34.4543L126.408 35.3128L122.998 37.3493L122.485 36.4907ZM125.652 34.885L125.652 34.8743L126.652 34.8713L126.652 34.8821L125.652 34.885Z"
    fill="#02507B" />
  <path
    d="M96.6741 15.3663L99.4409 17.0242L101.407 15.8705C101.79 15.6188 102.233 15.4851 102.686 15.4851C103.139 15.4851 103.583 15.6188 103.965 15.8705L109.621 19.2769C110.493 19.7848 111.46 20.0922 112.457 20.1779C113.4 20.3001 114.357 20.2013 115.259 19.8893C115.022 20.0837 114.848 20.3482 114.761 20.6478C114.674 20.9475 114.678 21.2682 114.772 21.5656C114.897 21.9355 115.093 22.2753 115.347 22.5662C115.601 22.857 115.908 23.0929 116.251 23.2596L121.906 26.6659C122.759 27.1885 122.776 27.6929 121.906 28.2155L119.905 29.4043L122.672 31.0806L126.152 29.0444C127.3 28.3596 127.892 27.6384 127.892 26.8815C127.892 26.1246 127.318 25.4403 126.152 24.7555L120.444 21.3131C119.626 20.8265 119.209 20.3936 119.174 20.0151C119.139 19.6367 119.383 19.2408 120.009 18.7902L120.984 18.0872L118.321 16.483L117.156 17.0602C116.522 17.4188 115.806 17.5928 115.085 17.5645C114.318 17.489 113.58 17.23 112.927 16.8077L107.237 13.3653C106.184 12.7111 104.984 12.357 103.756 12.3384C102.489 12.3425 101.245 12.6968 100.154 13.3653L96.6741 15.3663Z"
    fill="#F5F7FA" stroke="#02507B" stroke-linejoin="round" />
  <path opacity="0.3"
    d="M87.6532 31.093C86.5851 31.7397 86.0099 32.4037 86.0099 33.1015C86.0099 33.7992 86.5029 34.4973 87.6532 35.1441L93.0431 38.3941C93.7826 38.8366 94.1935 39.2283 94.2756 39.5857C94.3578 39.9431 94.0456 40.3519 93.454 40.7774L92.5338 41.4239L95.0644 42.938L96.149 42.3937C96.7562 42.0627 97.4353 41.899 98.1211 41.9175C98.8353 41.9967 99.5217 42.2467 100.126 42.6488L105.516 45.8996C106.539 46.5237 107.705 46.8528 108.893 46.8528C110.081 46.8528 111.247 46.5237 112.27 45.8996L115.557 43.9767L112.944 42.3937L111.021 43.5513C110.663 43.7895 110.247 43.9161 109.821 43.9161C109.396 43.9161 108.98 43.7895 108.622 43.5513L103.281 40.3345C102.456 39.8607 101.543 39.5767 100.603 39.501C99.7109 39.3875 98.8058 39.4864 97.9566 39.7902C98.1745 39.5982 98.3339 39.3445 98.4156 39.0605C98.4973 38.7766 98.4977 38.4747 98.4168 38.1905C98.1798 37.4846 97.684 36.9034 97.0365 36.5734L91.6957 33.3566C90.8741 32.8801 90.8741 32.4038 91.6957 31.9273L93.6347 30.7697L91.0055 29.2041L87.6532 31.093Z"
    fill="#4C99A4" stroke="#4C99A4" stroke-linejoin="round" />
  <path fill-rule="evenodd" clip-rule="evenodd"
    d="M91.5646 23.7463L91.5808 29.2279L93.52 28.0877L93.6357 28.023L93.6357 22.5876L93.5035 22.5396L91.5646 23.6797V23.6463C91.1866 23.9186 90.9893 24.1401 90.9893 24.3784V29.9261C90.9893 29.6878 91.1866 29.4663 91.5646 29.2281V23.7463Z"
    fill="#02507B" />
  <path
    d="M91.5646 23.7463H91.0646C91.0646 23.4704 91.288 23.2467 91.5639 23.2463C91.8397 23.2459 92.0638 23.4689 92.0646 23.7448L91.5646 23.7463ZM91.5808 29.2279L91.8343 29.6589C91.6799 29.7497 91.4888 29.751 91.3332 29.6623C91.1776 29.5736 91.0814 29.4085 91.0809 29.2294L91.5808 29.2279ZM93.52 28.0877L93.2664 27.6566L93.2761 27.6512L93.52 28.0877ZM93.6357 28.023L94.1357 28.023C94.1357 28.2042 94.0378 28.3711 93.8796 28.4595L93.6357 28.023ZM93.6357 22.5876L93.8066 22.1177C94.0042 22.1896 94.1357 22.3774 94.1357 22.5876L93.6357 22.5876ZM93.5035 22.5396L93.2501 22.1085C93.3786 22.033 93.5342 22.0187 93.6744 22.0696L93.5035 22.5396ZM91.5646 23.6797L91.8181 24.1107C91.6635 24.2016 91.472 24.2028 91.3163 24.1137C91.1607 24.0246 91.0646 23.859 91.0646 23.6797H91.5646ZM91.5646 23.6463L91.2723 23.2406C91.4246 23.1309 91.6255 23.1157 91.7925 23.2012C91.9595 23.2867 92.0646 23.4586 92.0646 23.6463H91.5646ZM91.4893 29.9261C91.4893 30.2022 91.2654 30.4261 90.9893 30.4261C90.7131 30.4261 90.4893 30.2022 90.4893 29.9261H91.4893ZM91.5646 29.2281H92.0646C92.0646 29.3998 91.9765 29.5595 91.8312 29.651L91.5646 29.2281ZM92.0646 23.7448L92.0808 29.2265L91.0809 29.2294L91.0646 23.7478L92.0646 23.7448ZM91.3274 28.7969L93.2665 27.6567L93.7734 28.5187L91.8343 29.6589L91.3274 28.7969ZM93.2761 27.6512L93.3919 27.5865L93.8796 28.4595L93.7638 28.5242L93.2761 27.6512ZM93.1357 28.023L93.1357 22.5876L94.1357 22.5876L94.1357 28.023L93.1357 28.023ZM93.4649 23.0575L93.3327 23.0095L93.6744 22.0696L93.8066 22.1177L93.4649 23.0575ZM93.757 22.9706L91.8181 24.1107L91.3112 23.2487L93.2501 22.1085L93.757 22.9706ZM91.0646 23.6797V23.6463H92.0646V23.6797H91.0646ZM91.8569 24.0519C91.6805 24.179 91.5787 24.2719 91.5237 24.3398C91.4731 24.4023 91.4893 24.4095 91.4893 24.3784H90.4893C90.4893 24.109 90.6042 23.8862 90.7467 23.7103C90.8849 23.5398 91.0708 23.3858 91.2723 23.2406L91.8569 24.0519ZM91.4893 24.3784V29.9261H90.4893V24.3784H91.4893ZM90.4893 29.9261C90.4893 29.6569 90.604 29.4321 90.7524 29.2554C90.8963 29.0841 91.0887 28.937 91.298 28.8051L91.8312 29.651C91.6625 29.7574 91.5673 29.8401 91.518 29.8987C91.4733 29.952 91.4893 29.957 91.4893 29.9261H90.4893ZM91.0646 29.2281V23.7463H92.0646V29.2281H91.0646Z"
    fill="#02507B" />
  <path
    d="M86.0587 24.9561V30.4531C86.0587 31.1237 86.569 31.7781 87.6526 32.3994L93.0263 35.719V35.7291C93.7658 36.1716 94.1766 36.5625 94.2588 36.9199V31.3722C94.1766 31.0148 93.7658 30.623 93.0263 30.1805L87.702 26.879C86.5845 26.3003 86.0587 25.6368 86.0587 24.9561Z"
    fill="#02507B" stroke="#02507B" stroke-linejoin="round" />
  <path
    d="M98.4498 35.9335V30.4531C98.4521 30.6729 98.4077 30.8905 98.3196 31.0905C98.2316 31.2905 98.102 31.4683 97.9403 31.6107V37.1584C98.1071 37.0057 98.2394 36.8168 98.3275 36.605C98.4155 36.3932 98.4573 36.164 98.4498 35.9335Z"
    fill="#02507B" stroke="#02507B" stroke-linejoin="round" />
  <path d="M92.5173 33.2275L92.5338 38.7757L95.0645 40.2903L95.048 34.7422L92.5173 33.2275Z"
    fill="#02507B" stroke="#02507B" stroke-linejoin="round" />
  <path
    d="M96.1325 34.1805C96.7396 33.8495 97.4187 33.6855 98.1046 33.704C98.7256 33.7729 99.3257 33.971 99.869 34.2859V34.2623L105.499 37.6864C106.524 38.3158 107.694 38.6454 108.885 38.6396C110.07 38.6423 111.234 38.3129 112.253 37.6865L115.474 35.7633L115.491 41.3114L112.27 43.2345L112.27 43.2239L112.253 43.2342C111.234 43.8606 110.07 44.19 108.885 44.1873C107.694 44.1931 106.524 43.8636 105.499 43.2342V43.2247L100.126 40.0009L99.869 39.8443V39.8344C99.3257 39.5193 98.7256 39.3206 98.1046 39.2518C97.4249 39.2334 96.7518 39.3949 96.1489 39.7199L96.1489 39.7286L95.0643 40.2902L95.0479 34.7421L96.1325 34.1805Z"
    fill="#02507B" stroke="#02507B" stroke-linejoin="round" />
  <path
    d="M87.6532 22.8796C86.5851 23.5263 86.0099 24.1903 86.0099 24.8881C86.0099 25.5859 86.5029 26.284 87.6532 26.9307L93.0432 30.1807C93.7826 30.6232 94.1935 31.015 94.2756 31.3724C94.3578 31.7298 94.0456 32.1385 93.454 32.564L92.5338 33.2105L95.0644 34.7246L96.149 34.1803C96.7562 33.8493 97.4353 33.6856 98.1211 33.7041C98.8353 33.7833 99.5217 34.0333 100.126 34.4354L105.516 37.6863C106.539 38.3104 107.705 38.6394 108.893 38.6394C110.081 38.6394 111.247 38.3104 112.27 37.6863L115.557 35.7633L112.944 34.1803L111.021 35.3379C110.663 35.5761 110.247 35.7027 109.821 35.7027C109.396 35.7027 108.98 35.5761 108.622 35.3379L103.281 32.1211C102.456 31.6473 101.543 31.3633 100.603 31.2876C99.7109 31.1742 98.8058 31.273 97.9566 31.5768C98.1745 31.3848 98.3339 31.1311 98.4156 30.8472C98.4973 30.5632 98.4977 30.2613 98.4168 29.9771C98.1798 29.2712 97.684 28.69 97.0365 28.36L91.6957 25.1432C90.8741 24.6667 90.8741 24.1904 91.6957 23.7139L93.6347 22.5563L91.0055 20.9907L87.6532 22.8796Z"
    fill="#F5F7FA" stroke="#02507B" stroke-linejoin="round" />
</svg>