<svg width="48" height="48" viewBox="0 0 48 48" fill="none" xmlns="http://www.w3.org/2000/svg">
  <path
    d="M0 8C0 3.58172 3.58172 0 8 0H40C44.4183 0 48 3.58172 48 8V40C48 44.4183 44.4183 48 40 48H8C3.58172 48 0 44.4183 0 40V8Z"
  />
  <path d="M19.7812 19.3594V26.9531" stroke="#4D5157" stroke-width="1.5" stroke-linecap="round"
    stroke-linejoin="round" />
  <path
    d="M13.0313 13.4531H19.7813C19.7813 13.4531 21.4688 13.4531 21.4688 15.1406V17.6719C21.4688 17.6719 21.4688 19.3594 19.7813 19.3594H13.0313C13.0313 19.3594 11.3438 19.3594 11.3438 17.6719V15.1406C11.3438 15.1406 11.3438 13.4531 13.0313 13.4531Z"
    stroke="#4D5157" stroke-width="1.5" stroke-linecap="round" stroke-linejoin="round" />
  <path d="M28.2188 26.9531V19.3594" stroke="#4D5157" stroke-width="1.5" stroke-linecap="round"
    stroke-linejoin="round" />
  <path
    d="M28.2188 13.4531H34.9688C34.9688 13.4531 36.6563 13.4531 36.6563 15.1406V17.6719C36.6563 17.6719 36.6563 19.3594 34.9688 19.3594H28.2188C28.2188 19.3594 26.5312 19.3594 26.5312 17.6719V15.1406C26.5312 15.1406 26.5312 13.4531 28.2188 13.4531Z"
    stroke="#4D5157" stroke-width="1.5" stroke-linecap="round" stroke-linejoin="round" />
  <path d="M19.7812 23.5781H28.2188" stroke="#4D5157" stroke-width="1.5" stroke-linecap="round"
    stroke-linejoin="round" />
  <path
    d="M34.9688 19.3594V33.7031C34.9688 33.9269 34.8799 34.1415 34.7216 34.2997C34.5634 34.458 34.3488 34.5469 34.125 34.5469H13.875C13.6512 34.5469 13.4366 34.458 13.2784 34.2997C13.1201 34.1415 13.0312 33.9269 13.0312 33.7031V19.3594"
    stroke="#4D5157" stroke-width="1.5" stroke-linecap="round" stroke-linejoin="round" />
  <path d="M16.4062 13.4531V15.9844" stroke="#4D5157" stroke-width="1.5" stroke-linecap="round"
    stroke-linejoin="round" />
  <path d="M31.5938 13.4531V15.9844" stroke="#4D5157" stroke-width="1.5" stroke-linecap="round"
    stroke-linejoin="round" />
  <path
    d="M21.4688 34.5469V31.1719C21.4688 30.5005 21.7354 29.8567 22.2101 29.382C22.6848 28.9073 23.3287 28.6406 24 28.6406C24.6713 28.6406 25.3152 28.9073 25.7899 29.382C26.2646 29.8567 26.5313 30.5005 26.5313 31.1719V34.5469"
    stroke="#4D5157" stroke-width="1.5" stroke-linecap="round" stroke-linejoin="round" />
</svg>