<svg width="16" height="14" viewBox="0 0 16 14" fill="none" xmlns="http://www.w3.org/2000/svg">
<path fill-rule="evenodd" clip-rule="evenodd" d="M3 0.333313H13C14.6561 0.33515 15.9982 1.67722 16 3.33331V10.6666C15.9982 12.3227 14.6561 13.6648 13 13.6666H3C1.34391 13.6648 0.00183704 12.3227 0 10.6666V3.33331C0.00183704 1.67722 1.34391 0.33515 3 0.333313ZM6.78067 9.81598L10.6233 7.89465C10.9624 7.72535 11.1766 7.37894 11.1766 6.99998C11.1766 6.62101 10.9624 6.27461 10.6233 6.10531L6.78067 4.18398C6.47063 4.02891 6.1024 4.04547 5.80753 4.22774C5.51266 4.41001 5.33323 4.73199 5.33333 5.07864V8.92131C5.33323 9.26797 5.51266 9.58995 5.80753 9.77222C6.1024 9.95449 6.47063 9.97105 6.78067 9.81598Z" fill="#E6E9EE"/>
</svg>
