<svg width="16" height="16" viewBox="0 0 16 16" fill="none"><path fill-rule="evenodd" clip-rule="evenodd" d="M8 0C3.58172 0 0 3.58172 0 8C0 12.4183 3.58172 16 8 16C12.4183 16 16 12.4183 16 8C15.9952 3.5837 12.4163 0.00477657 8 0ZM8 12.6667C7.44772 12.6667 7 12.219 7 11.6667C7 11.1144 7.44772 10.6667 8 10.6667C8.55229 10.6667 9 11.1144 9 11.6667C9 12.219 8.55229 12.6667 8 12.6667ZM8.66667 9.22467C8.66654 8.95947 8.82361 8.71942 9.06667 8.61334V8.614C10.2873 8.08126 10.9278 6.72956 10.5669 5.44751C10.2061 4.16546 8.95467 3.34621 7.63533 3.52835C6.31598 3.71048 5.33331 4.83814 5.33333 6.17C5.33333 6.53819 5.63181 6.83667 6 6.83667C6.36819 6.83667 6.66667 6.53819 6.66667 6.17C6.66632 5.50399 7.1575 4.93987 7.81722 4.84857C8.47695 4.75727 9.10287 5.1668 9.28341 5.80787C9.46395 6.44895 9.14375 7.12493 8.53333 7.39134C7.80438 7.70948 7.33321 8.42932 7.33333 9.22467C7.33333 9.59286 7.63181 9.89134 8 9.89134C8.36819 9.89134 8.66667 9.59286 8.66667 9.22467Z" fill="#E6E9EE"/></svg>