<svg width="48" height="48" viewBox="0 0 48 48" fill="none" xmlns="http://www.w3.org/2000/svg">
  <path
    d="M31.9754 32.9664C30.1495 30.5566 27.2565 29 24 29C20.7435 29 17.8505 30.5566 16.0246 32.9664M31.9754 32.9664C34.4447 30.7685 36 27.5659 36 24C36 17.3726 30.6274 12 24 12C17.3726 12 12 17.3726 12 24C12 27.5659 13.5553 30.7685 16.0246 32.9664M31.9754 32.9664C29.8553 34.8535 27.0616 36 24 36C20.9384 36 18.1447 34.8535 16.0246 32.9664M28 21C28 23.2091 26.2091 25 24 25C21.7909 25 20 23.2091 20 21C20 18.7909 21.7909 17 24 17C26.2091 17 28 18.7909 28 21Z"
    stroke="white" stroke-width="1.5" stroke-linecap="round" stroke-linejoin="round" />
</svg>