<svg width="24px" height="24px" viewBox="0 0 24 24" version="1.1" xmlns="http://www.w3.org/2000/svg"
    xmlns:xlink="http://www.w3.org/1999/xlink">
    <g id="Page-1" stroke="none" stroke-width="2" fill="none" fill-rule="evenodd"
        stroke-linecap="round" stroke-linejoin="round">
        <g id="conversation-question-warning-1" stroke="#fff">
            <path
                d="M8.5,11.499998 C8.63807119,11.499998 8.74999798,11.6119288 8.74999798,11.75 C8.74999798,11.8880712 8.63807119,11.999998 8.5,11.999998 C8.36192881,11.999998 8.24999798,11.8880712 8.24999798,11.75 C8.24973285,11.6836143 8.27598627,11.6198705 8.3229284,11.5729284 C8.36987053,11.5259863 8.43361434,11.4997329 8.5,11.499998"
                id="Shape"></path>
            <path
                d="M16.5,18 C16.6380712,18 16.75,18.1119288 16.75,18.25 C16.75,18.3880712 16.6380712,18.5 16.5,18.5 C16.3619288,18.5 16.25,18.3880712 16.25,18.25 C16.25,18.1119288 16.3619288,18 16.5,18"
                id="Shape"></path>
            <line x1="16.5" y1="16" x2="16.5" y2="14" id="Shape"></line>
            <path
                d="M7.971,18.673 L1.362,21.749 L3.95,16.583 C1.83201484,14.9980668 0.559944977,12.5276703 0.5,9.883 C0.5,4.7 5.648,0.5 12,0.5 C18.352,0.5 23.5,4.7 23.5,9.883"
                id="Shape"></path>
            <path
                d="M9.7,16.381 C9.7,19.489 12.789,22.01 16.6,22.01 C17.4191769,22.0116571 18.2340608,21.8916824 19.018,21.654 L22.983,23.5 L21.43,20.4 C22.7006591,19.449374 23.4639068,17.9674935 23.5,16.381 C23.5,13.272 20.411,10.751 16.6,10.751 C12.789,10.751 9.7,13.272 9.7,16.381 Z"
                id="Shape"></path>
            <path
                d="M6.49999756,6 C6.49841448,4.97556285 7.2711722,4.11555879 8.28994486,4.00796574 C9.30871752,3.90037269 10.2440745,4.57998197 10.4565197,5.58215014 C10.6689649,6.58431831 10.089802,7.58498397 9.115,7.9 C8.74664528,8.01900096 8.49781979,8.36290612 8.49999756,8.75 L8.49999756,9.5"
                id="Shape"></path>
        </g>
    </g>
</svg>