<svg width="48" height="48" viewBox="0 0 48 48" fill="none" xmlns="http://www.w3.org/2000/svg">
    <path
        d="M33.8988 19.8132C34.9597 20.1545 35.6988 21.167 35.6988 22.3298V27.4725C35.6988 28.8365 34.6819 29.9931 33.3225 30.104C32.9158 30.1372 32.5079 30.1662 32.0988 30.1911V33.9L28.4988 30.3C26.8743 30.2999 25.2655 30.2337 23.6751 30.1039C23.3171 30.0747 22.9829 29.9729 22.6848 29.814M33.8988 19.8132C33.7171 19.7547 33.526 19.716 33.3275 19.6995C31.7354 19.5673 30.125 19.5 28.4988 19.5C26.8726 19.5 25.2622 19.5673 23.6701 19.6995C22.3128 19.8121 21.2988 20.9678 21.2988 22.3298V27.4724C21.2988 28.4772 21.8507 29.3694 22.6848 29.814M33.8988 19.8132V17.5647C33.8988 15.619 32.5167 13.9327 30.5872 13.6822C28.1362 13.3641 25.6369 13.2 23.0992 13.2C20.5612 13.2 18.0616 13.3641 15.6104 13.6823C13.6809 13.9328 12.2988 15.6191 12.2988 17.5648V25.0351C12.2988 26.9808 13.6809 28.6671 15.6104 28.9176C16.3028 29.0075 16.999 29.0851 17.6988 29.1501V34.8L22.6848 29.814"
        stroke="#4D5157" stroke-width="1.8125" stroke-linecap="round" stroke-linejoin="round" />
</svg>