<svg width="16" height="16" viewBox="0 0 16 16" fill="none" xmlns="http://www.w3.org/2000/svg">
<circle cx="8" cy="8" r="7.9" fill="#E1FAEF" stroke="#44D4A4" stroke-width="0.2"/>
<path d="M11.304 5.7178C11.175 5.62272 11.0135 5.5828 10.8551 5.60683C10.6966 5.63086 10.5543 5.71688 10.4593 5.84593L7.59492 9.73341L5.77351 8.27609C5.51229 8.07598 5.13903 8.12141 4.93342 8.37832C4.72781 8.63523 4.76529 9.00937 5.01778 9.2204L7.33044 11.0703C7.45953 11.1713 7.6238 11.2162 7.7863 11.1948C7.94879 11.1734 8.09588 11.0876 8.19448 10.9567L11.434 6.56299C11.529 6.43368 11.5686 6.27196 11.5442 6.11344C11.5198 5.95491 11.4334 5.81258 11.304 5.7178Z" fill="#009471"/>
</svg>
