<svg width="16" height="16" viewBox="0 0 16 16" fill="none" xmlns="http://www.w3.org/2000/svg">
<path d="M14.6667 13.3333H1.33333C0.596954 13.3333 0 13.9303 0 14.6666V15.6666C0 15.8507 0.149238 16 0.333333 16H15.6667C15.8508 16 16 15.8507 16 15.6666V14.6666C16 13.9303 15.403 13.3333 14.6667 13.3333Z" fill="#E6F8FF"/>
<path d="M1 4H4.66667C5.21895 4 5.66667 3.55228 5.66667 3V1C5.66667 0.447715 5.21895 0 4.66667 0H4.16667C3.70658 0.000367627 3.3337 0.373248 3.33333 0.833333C3.33297 0.925229 3.25856 0.999635 3.16667 1H2.5C2.4081 0.999635 2.3337 0.925229 2.33333 0.833333C2.33297 0.373248 1.96008 0.000367627 1.5 0H1C0.447715 0 0 0.447715 0 1V3C0 3.55228 0.447715 4 1 4Z" fill="#E6F8FF"/>
<path d="M9.33398 12.6666H10.334C10.5181 12.6666 10.6673 12.5174 10.6673 12.3333V6.66665C10.6673 6.48255 10.5181 6.33331 10.334 6.33331H5.66732C5.48322 6.33331 5.33398 6.48255 5.33398 6.66665V12.3333C5.33398 12.5174 5.48322 12.6666 5.66732 12.6666H6.66732C6.85141 12.6666 7.00065 12.5174 7.00065 12.3333V9.99998C7.00065 9.4477 7.44837 8.99998 8.00065 8.99998C8.55294 8.99998 9.00065 9.4477 9.00065 9.99998V12.3333C9.00065 12.5174 9.14989 12.6666 9.33398 12.6666Z" fill="#E6F8FF"/>
<path fill-rule="evenodd" clip-rule="evenodd" d="M1 5.00002C1 4.81593 1.14924 4.66669 1.33333 4.66669H4.33333C4.51743 4.66669 4.66667 4.81593 4.66667 5.00002V12.3334C4.66667 12.5174 4.51743 12.6667 4.33333 12.6667H1.33333C1.14924 12.6667 1 12.5174 1 12.3334V5.00002ZM2.19974 7.66669C2.19974 8.03488 2.49822 8.33335 2.86641 8.33335C3.2346 8.33335 3.53307 8.03488 3.53307 7.66669C3.53307 7.2985 3.2346 7.00002 2.86641 7.00002C2.49822 7.00002 2.19974 7.2985 2.19974 7.66669Z" fill="#E6F8FF"/>
<path d="M15.0007 0H14.5007C14.0406 0.000367627 13.6677 0.373248 13.6673 0.833333C13.667 0.925229 13.5925 0.999635 13.5007 1H12.834C12.7421 0.999635 12.6677 0.925229 12.6673 0.833333C12.667 0.373248 12.2941 0.000367627 11.834 0H11.334C10.7817 0 10.334 0.447715 10.334 1V3C10.334 3.55228 10.7817 4 11.334 4H15.0007C15.5529 4 16.0007 3.55228 16.0007 3V1C16.0007 0.447715 15.5529 0 15.0007 0Z" fill="#E6F8FF"/>
<path fill-rule="evenodd" clip-rule="evenodd" d="M15.0007 12.3334C15.0007 12.5174 14.8514 12.6667 14.6673 12.6667H11.6673C11.4832 12.6667 11.334 12.5174 11.334 12.3334V5.00002C11.334 4.81593 11.4832 4.66669 11.6673 4.66669H14.6673C14.8514 4.66669 15.0007 4.81593 15.0007 5.00002V12.3334ZM13.8009 7.66669C13.8009 7.2985 13.5024 7.00002 13.1342 7.00002C12.7661 7.00002 12.4676 7.2985 12.4676 7.66669C12.4676 8.03488 12.7661 8.33335 13.1342 8.33335C13.5024 8.33335 13.8009 8.03488 13.8009 7.66669Z" fill="#E6F8FF"/>
</svg>
