<svg width="15" height="16" viewBox="0 0 15 16" fill="none"><path d="M14.1925 4.57799L10.3233 2.44466L10.465 2.14733C10.6129 1.82099 10.4903 1.42768 10.1892 1.26236C9.88807 1.09704 9.519 1.22043 9.35875 1.53999L7.59564 5.23666C7.569 5.29243 7.51546 5.32745 7.45705 5.32733C7.39874 5.32767 7.34529 5.29254 7.31908 5.23666L5.55536 1.54133C5.39511 1.22176 5.02603 1.09837 4.72491 1.2637C4.42379 1.42902 4.30123 1.82232 4.44914 2.14866L4.59084 2.44599L0.72157 4.57933C0.35366 4.77933 0.326316 5.03999 0.343717 5.17599C0.361118 5.31199 0.448745 5.55333 0.853321 5.64599L2.53129 6.02999C2.5746 6.03988 2.61192 6.06912 2.63387 6.11037C2.65583 6.15162 2.66034 6.20096 2.64626 6.24599L2.07513 8.08266C1.96001 8.32126 2.0087 8.61306 2.19383 8.79399C2.24541 8.83866 2.46852 9.01999 2.86626 8.76466L6.3527 6.53066C6.39022 6.50696 6.43519 6.50092 6.47699 6.51399C6.51812 6.52674 6.55253 6.55714 6.57208 6.59799L10.322 14.456C10.4204 14.6731 10.6206 14.8162 10.8453 14.8301C11.07 14.8439 11.2841 14.7264 11.405 14.5227C11.526 14.3191 11.5349 14.0613 11.4282 13.8487L8.19163 7.06666C8.16863 7.019 8.16863 6.96232 8.19163 6.91466L8.34264 6.59799C8.36257 6.55729 8.39717 6.52712 8.43839 6.51452C8.47962 6.50192 8.52385 6.508 8.56078 6.53133L12.0472 8.76533C12.4456 9.02066 12.6687 8.83933 12.7203 8.79466C12.9048 8.61327 12.9529 8.32167 12.8377 8.08333L12.2672 6.24466C12.2531 6.19963 12.2577 6.15029 12.2796 6.10904C12.3016 6.06779 12.3389 6.03855 12.3822 6.02866L14.0602 5.64466C14.4647 5.55199 14.553 5.31133 14.5698 5.17466C14.5865 5.03799 14.5604 4.78066 14.1925 4.57799Z" fill="#E6E9EE"/><path d="M3.48627 13.8487C3.37965 14.0613 3.38852 14.3191 3.50947 14.5227C3.63041 14.7264 3.84453 14.8439 4.06922 14.8301C4.29392 14.8162 4.49407 14.6731 4.59249 14.456L7.07215 9.26066C7.09454 9.21284 7.09454 9.15648 7.07215 9.10866L6.54825 8.01133C6.52167 7.95567 6.46827 7.92065 6.40997 7.92065C6.35167 7.92065 6.29828 7.95567 6.2717 8.01133L3.48627 13.8487Z" fill="#E6E9EE"/></svg>