<svg width="18px" height="18px" viewBox="0 0 18 18"><g stroke="none" stroke-width="1" fill="none" fill-rule="evenodd" stroke-linecap="round" stroke-linejoin="round"><g transform="translate(1.000000, 1.000000)"><circle stroke="#FFFFFF" fill="#FFFFFF" cx="8" cy="8" r="8"></circle><path d="M5,5.76773647 C4.99807337,4.318646 6.00897732,3.11399967 7.31625653,3.00756663 C8.62353574,2.90113359 9.78317307,3.92906379 9.97329862,5.36283214 C10.1634242,6.79660049 9.31946182,8.14922783 8.03955312,8.46206644 C7.72831441,8.52994898 7.50261862,8.82953742 7.49853714,9.1802107 L7.49853714,10" stroke="#002A66"></path><path d="M7.25,12 C7.38807119,12 7.5,12.1119288 7.5,12.25 C7.5,12.3880712 7.38807119,12.5 7.25,12.5 C7.11192881,12.5 7,12.3880712 7,12.25 C7,12.1119288 7.11192881,12 7.25,12" stroke="#002A66"></path></g></g></svg>