<svg width="32" height="32" viewBox="0 0 32 32" fill="none"><rect x="0.27193" y="0.27193" width="31.4561" height="31.4561" rx="15.7281" fill="#E6F8FF"/><rect x="0.27193" y="0.27193" width="31.4561" height="31.4561" rx="15.7281" stroke="#A3E2FF" stroke-width="0.54386"/><path fill-rule="evenodd" clip-rule="evenodd" d="M17.6844 11.9575C17.3847 11.6715 16.91 11.6825 16.624 11.9821C16.338 12.2818 16.349 12.7565 16.6486 13.0425L18.9612 15.25H11.1665C10.7523 15.25 10.4165 15.5858 10.4165 16C10.4165 16.4142 10.7523 16.75 11.1665 16.75H18.9612L16.6486 18.9575C16.349 19.2435 16.338 19.7182 16.624 20.0179C16.91 20.3175 17.3847 20.3285 17.6844 20.0425L21.351 16.5425C21.4993 16.401 21.5832 16.205 21.5832 16C21.5832 15.795 21.4993 15.599 21.351 15.4575L17.6844 11.9575Z" fill="#018BFF"/></svg>