<svg width="22px" height="22px" viewBox="0 0 22 22" role="button" class="yes" aria-label="Yes, this page is helpful">
    <circle cx="10" cy="10" r="9.58333333" fill="transparent" stroke="white"></circle>
    <path d="M5.41666667,8.125 C5.53172599,8.125 5.625,8.21827401 5.625,8.33333333 C5.625,8.44839266 5.53172599,8.54166667 5.41666667,8.54166667 C5.30160734,8.54166667 5.20833333,8.44839266 5.20833333,8.33333333 C5.20833333,8.21827401 5.30160734,8.125 5.41666667,8.125"  fill="transparent" stroke="white"></path>
    <path d="M14.5833333,8.125 C14.468274,8.125 14.375,8.21827401 14.375,8.33333333 C14.375,8.44839266 14.468274,8.54166667 14.5833333,8.54166667 C14.6983927,8.54166667 14.7916667,8.44839266 14.7916667,8.33333333 C14.7916667,8.21827401 14.6983927,8.125 14.5833333,8.125" fill="transparent" stroke="white"></path>
    <path d="M13.2275,12.9166657 C13.4853075,12.9162808 13.7287776,13.035241 13.8869095,13.2388563 C14.0450415,13.4424715 14.1000278,13.7078123 14.0358333,13.9575 C13.562901,15.7999679 11.9021969,17.0882321 10,17.0882321 C8.09780311,17.0882321 6.43709903,15.7999679 5.96416667,13.9575 C5.89997223,13.7078123 5.95495852,13.4424715 6.11309045,13.2388563 C6.27122239,13.035241 6.51469246,12.9162808 6.7725,12.9166657 L13.2275,12.9166657 Z" fill="transparent" stroke="white"></path>
</svg>