<svg width="22px" height="22px" viewBox="0 0 22 22" role="button" class="no" aria-label="No, this page isn't helpful"><path d="M6.25,15.8333333 C6.25,13.7622655 7.92893219,12.0833333 10,12.0833333 C12.0710678,12.0833333 13.75,13.7622655 13.75,15.8333333" fill="transparent" stroke="white"></path><circle cx="10" cy="10" r="9.58333333" fill="transparent" stroke="white"></circle><path d="M12.5,4.58333333 C12.8934466,4.05873783 13.5109223,3.75 14.1666667,3.75 C14.822411,3.75 15.4398867,4.05873783 15.8333333,4.58333333" fill="transparent" stroke="white"></path><line x1="4.58333333" y1="7.91666667" x2="7.08333333" y2="7.91666667" fill="transparent" stroke="white"></line><path d="M7.08333333,8.54166667 C6.96827401,8.54166667 6.875,8.44839266 6.875,8.33333333 C6.875,8.21827401 6.96827401,8.125 7.08333333,8.125 C7.19839266,8.125 7.29166667,8.21827401 7.29166667,8.33333333 C7.29166667,8.44839266 7.19839266,8.54166667 7.08333333,8.54166667" fill="transparent" stroke="white"></path><line x1="12.9166667" y1="7.91666667" x2="15.4166667" y2="7.91666667" fill="transparent" stroke="white"></line><path d="M15.4166667,8.54166667 C15.3016073,8.54166667 15.2083333,8.44839266 15.2083333,8.33333333 C15.2083333,8.21827401 15.3016073,8.125 15.4166667,8.125 C15.531726,8.125 15.625,8.21827401 15.625,8.33333333 C15.625,8.44839266 15.531726,8.54166667 15.4166667,8.54166667" fill="transparent" stroke="white"></path><path d="M4.16666667,4.58333333 C4.5601133,4.05873783 5.17758895,3.75 5.83333333,3.75 C6.48907772,3.75 7.10655337,4.05873783 7.5,4.58333333" fill="transparent" stroke="white"></path></svg>