<svg width="255" height="35" viewBox="0 0 255 35" fill="none" xmlns="http://www.w3.org/2000/svg">
    <path
        d="M19.6961 7.36426C13.93 7.36426 10.0605 10.7317 10.0605 17.2644V21.922C10.646 21.6334 11.2885 21.4802 11.9408 21.4737C12.5943 21.4739 13.2392 21.6234 13.8265 21.9111V17.2425C13.8265 13.0059 16.1591 10.8301 19.7125 10.8301C23.2659 10.8301 25.5658 13.0059 25.5658 17.2425V27.4215H29.3208V17.2425C29.3317 10.6716 25.4622 7.36426 19.6961 7.36426Z"
        fill="black" />
    <path
        d="M31.375 17.641C31.375 11.6987 35.735 7.3418 41.8771 7.3418C48.0193 7.3418 52.303 11.7151 52.303 17.641V19.0241H35.3208C35.8658 22.5118 38.4818 24.4525 41.8608 24.4525C44.3896 24.4525 46.1663 23.6598 47.3108 21.9597H51.4528C49.954 25.6005 46.4006 27.9402 41.8608 27.9402C35.7187 27.9402 31.375 23.5833 31.375 17.641ZM48.3517 15.6621C47.5996 12.5297 45.0381 10.8295 41.8771 10.8295C38.7161 10.8295 36.1928 12.5734 35.4407 15.6621H48.3517Z"
        fill="black" />
    <path
        d="M54.3086 17.6424C54.3086 11.7056 58.6686 7.34863 64.8107 7.34863C70.9529 7.34863 75.3129 11.722 75.3129 17.6424C75.3129 23.5628 70.9529 27.9416 64.8107 27.9416C58.6686 27.9416 54.3086 23.5846 54.3086 17.6424ZM71.5251 17.6424C71.5251 13.6845 68.8383 10.8309 64.8107 10.8309C60.7832 10.8309 58.1018 13.6845 58.1018 17.6424C58.1018 21.6002 60.7832 24.4538 64.8053 24.4538C68.8274 24.4538 71.5251 21.6057 71.5251 17.6424V17.6424Z"
        fill="black" />
    <path
        d="M96.7656 31.3188H97.2016C99.6105 31.3188 100.515 30.2255 100.515 27.4922V7.99805H104.27V27.2407C104.27 32.0733 102.374 34.5661 97.5559 34.5661H96.7656V31.3188Z"
        fill="black" />
    <path
        d="M94.8907 29.3071H91.1357V24.666H81.6254C80.7572 24.6963 79.8975 24.4851 79.1414 24.0558C78.3854 23.6265 77.7625 22.9957 77.3417 22.2333C76.9999 21.5167 76.8667 20.718 76.9573 19.9289C77.048 19.1398 77.3588 18.3923 77.854 17.7725L86.3887 6.53848C86.9786 5.73992 87.8044 5.1481 88.7487 4.84709C89.693 4.54608 90.7079 4.55117 91.6492 4.86165C92.5904 5.17213 93.4103 5.77221 93.9922 6.57665C94.5741 7.38109 94.8885 8.349 94.8907 9.34288V21.3258H97.7084V24.666H94.8907V29.3071ZM80.9769 19.8279C80.8647 19.9881 80.8038 20.1788 80.8025 20.3746C80.8018 20.499 80.8257 20.6223 80.8728 20.7374C80.9199 20.8525 80.9893 20.957 81.077 21.045C81.1647 21.1329 81.269 21.2026 81.3837 21.2498C81.4984 21.2971 81.6213 21.3211 81.7453 21.3203H91.1357V9.24995C91.1426 9.04679 91.0829 8.84696 90.9658 8.68108C90.8486 8.5152 90.6805 8.39242 90.4871 8.33155C90.3754 8.29968 90.2599 8.28313 90.1438 8.28235C89.997 8.28226 89.8524 8.31866 89.7231 8.3883C89.5938 8.45794 89.4836 8.55865 89.4026 8.68142L80.9769 19.8279Z"
        fill="black" />
    <path
        d="M102.41 4.63489e-06C101.774 -0.00107696 101.152 0.187166 100.622 0.540912C100.093 0.894658 99.68 1.39801 99.4358 1.98726C99.1916 2.57652 99.1271 3.2252 99.2506 3.85121C99.374 4.47722 99.6798 5.05243 100.129 5.50405C100.579 5.95567 101.152 6.2634 101.776 6.38829C102.4 6.51319 103.046 6.44963 103.634 6.20568C104.222 5.96172 104.725 5.54833 105.078 5.0178C105.432 4.48728 105.62 3.86348 105.62 3.22534C105.62 2.37087 105.282 1.55132 104.681 0.946613C104.079 0.341903 103.262 0.00145288 102.41 4.63489e-06V4.63489e-06Z"
        fill="#018BFF" />
    <path
        d="M11.7774 22.6714C11.0801 22.6721 10.4022 22.9026 9.84815 23.3274L6.31655 20.9057C6.39515 20.6226 6.43547 20.3303 6.43645 20.0365C6.44401 19.3983 6.26233 18.7722 5.91447 18.2379C5.56661 17.7035 5.06828 17.2848 4.48275 17.0351C3.89721 16.7853 3.25089 16.7158 2.62587 16.8352C2.00084 16.9547 1.42529 17.2577 0.972322 17.7059C0.51935 18.1541 0.209384 18.7272 0.0817852 19.3525C-0.0458137 19.9777 0.0147107 20.6269 0.255673 21.2176C0.496635 21.8083 0.907164 22.3138 1.43513 22.67C1.96309 23.0262 2.58468 23.2169 3.22095 23.2181C3.91853 23.2185 4.59674 22.9879 5.15025 22.5621L8.67095 25.0002C8.51103 25.5704 8.51103 26.1738 8.67095 26.7441L5.13935 29.1658C4.58881 28.7422 3.9148 28.5117 3.22095 28.5098C2.58452 28.5087 1.96208 28.6971 1.43246 29.0511C0.902842 29.4051 0.489859 29.9087 0.24581 30.4983C0.00176102 31.0879 -0.0623759 31.7368 0.0615211 32.363C0.185418 32.9892 0.491776 33.5644 0.9418 34.0158C1.39182 34.4672 1.96527 34.7745 2.58952 34.8987C3.21378 35.023 3.86076 34.9587 4.44854 34.7139C5.03631 34.4691 5.53845 34.0548 5.89136 33.5236C6.24427 32.9924 6.43207 32.368 6.431 31.7297C6.43083 31.4397 6.39234 31.1511 6.31655 30.8714L9.84815 28.4497C10.4022 28.8744 11.0801 29.1049 11.7774 29.1057C12.5885 29.0475 13.3475 28.6833 13.9016 28.0864C14.4557 27.4895 14.7638 26.7041 14.7638 25.8885C14.7638 25.0729 14.4557 24.2876 13.9016 23.6906C13.3475 23.0937 12.5885 22.7295 11.7774 22.6714V22.6714Z"
        fill="#018BFF" />
    <path
        d="M126.973 27.5035C124.836 27.5035 123.13 26.6234 122.519 24.6479H123.74C124.225 25.9051 125.465 26.4438 126.973 26.4438C129.021 26.4438 130.475 25.4201 130.475 22.798V21.5049C129.793 22.8878 128.428 23.6601 126.74 23.6601C124.243 23.6601 122.142 21.9359 122.142 19.0444C122.142 16.3504 124.118 14.3748 126.919 14.3748C129.721 14.3748 131.679 16.2786 131.679 19.0983V22.7441C131.679 26.1744 129.613 27.5035 126.973 27.5035ZM126.919 22.5466C129.039 22.5466 130.475 21.0918 130.475 19.0444C130.475 16.997 129.039 15.4883 126.919 15.4883C124.8 15.4883 123.363 16.997 123.363 19.0444C123.363 21.0918 124.8 22.5466 126.919 22.5466ZM133.445 23.4805V18.1643C133.445 15.614 134.972 14.3748 137.181 14.3748C139.39 14.3748 140.899 15.614 140.899 18.1823V18.2901H139.713V18.1643C139.713 16.3145 138.69 15.4883 137.181 15.4883C135.654 15.4883 134.649 16.3145 134.649 18.1643V23.4805H133.445ZM146.331 23.7139C143.834 23.7139 141.733 21.9359 141.733 19.0983C141.733 16.3324 143.709 14.3748 146.51 14.3748C149.312 14.3748 151.27 16.2965 151.27 19.0983V23.4805H150.156V21.2894C149.528 22.8698 148.055 23.7139 146.331 23.7139ZM146.51 22.6004C148.63 22.6004 150.066 21.0918 150.066 19.0444C150.066 16.997 148.63 15.4883 146.51 15.4883C144.391 15.4883 142.954 16.997 142.954 19.0444C142.954 21.0918 144.391 22.6004 146.51 22.6004ZM153.036 27.27V19.0983C153.036 16.2426 155.03 14.3748 157.778 14.3748C160.598 14.3748 162.573 16.3504 162.573 19.0803C162.573 21.8102 160.58 23.7139 157.975 23.7139C156.287 23.7139 154.904 22.9237 154.24 21.5767V27.27H153.036ZM157.796 22.6004C159.915 22.6004 161.352 21.0918 161.352 19.0444C161.352 16.997 159.915 15.4883 157.796 15.4883C155.659 15.4883 154.24 16.997 154.24 19.0444C154.24 21.0918 155.659 22.6004 157.796 22.6004ZM164.268 23.4805V10.729H165.471V16.3324C166.1 15.0573 167.285 14.3748 168.83 14.3748C171.201 14.3748 173.032 15.8116 173.032 18.8468V23.4805H171.829V18.8468C171.829 16.6557 170.572 15.4883 168.65 15.4883C166.747 15.4883 165.471 16.6916 165.471 18.8468V23.4805H164.268ZM179.023 23.7139C176.527 23.7139 174.425 21.9359 174.425 19.0983C174.425 16.3324 176.401 14.3748 179.203 14.3748C182.005 14.3748 183.962 16.2965 183.962 19.0983V23.4805H182.849V21.2894C182.22 22.8698 180.747 23.7139 179.023 23.7139ZM179.203 22.6004C181.322 22.6004 182.759 21.0918 182.759 19.0444C182.759 16.997 181.322 15.4883 179.203 15.4883C177.084 15.4883 175.647 16.997 175.647 19.0444C175.647 21.0918 177.084 22.6004 179.203 22.6004ZM190.147 23.7139C187.345 23.7139 185.37 21.7384 185.37 19.0444C185.37 16.3504 187.345 14.3748 190.147 14.3748C192.446 14.3748 194.188 15.7038 194.709 17.6794H193.488C193.003 16.3504 191.763 15.4883 190.147 15.4883C188.028 15.4883 186.591 16.997 186.591 19.0444C186.591 21.0918 188.028 22.6004 190.147 22.6004C191.763 22.6004 193.003 21.7384 193.488 20.4093H194.709C194.188 22.3849 192.446 23.7139 190.147 23.7139ZM200.386 23.7139C197.889 23.7139 195.788 21.9359 195.788 19.0983C195.788 16.3324 197.763 14.3748 200.565 14.3748C203.367 14.3748 205.325 16.2965 205.325 19.0983V23.4805H204.211V21.2894C203.582 22.8698 202.11 23.7139 200.386 23.7139ZM200.565 22.6004C202.685 22.6004 204.121 21.0918 204.121 19.0444C204.121 16.997 202.685 15.4883 200.565 15.4883C198.446 15.4883 197.009 16.997 197.009 19.0444C197.009 21.0918 198.446 22.6004 200.565 22.6004ZM211.527 23.7139C208.708 23.7139 206.732 21.7384 206.732 19.0085C206.732 16.2786 208.726 14.3748 211.33 14.3748C213.018 14.3748 214.401 15.165 215.066 16.512V10.729H216.269V18.9905C216.269 21.8461 214.275 23.7139 211.527 23.7139ZM211.51 22.6004C213.647 22.6004 215.066 21.0918 215.066 19.0444C215.066 16.997 213.647 15.4883 211.51 15.4883C209.39 15.4883 207.953 16.997 207.953 19.0444C207.953 21.0918 209.39 22.6004 211.51 22.6004ZM222.454 23.7139C219.652 23.7139 217.676 21.7384 217.676 19.0444C217.676 16.3504 219.652 14.3748 222.454 14.3748C225.256 14.3748 227.195 16.3504 227.195 19.0444V19.4395H218.916C219.077 21.2894 220.46 22.6004 222.454 22.6004C223.855 22.6004 224.932 22.0257 225.507 21.002H226.818C226.136 22.6364 224.519 23.7139 222.454 23.7139ZM218.952 18.3619H225.938C225.651 16.5659 224.25 15.4883 222.454 15.4883C220.604 15.4883 219.221 16.6198 218.952 18.3619ZM228.594 23.4805V18.2901C228.594 15.65 230.139 14.3748 232.186 14.3748C233.623 14.3748 234.808 15.0573 235.383 16.3684C235.94 15.0573 237.125 14.3748 238.58 14.3748C240.627 14.3748 242.172 15.65 242.172 18.2901V23.4805H240.968V18.2901C240.968 16.4043 239.927 15.4883 238.49 15.4883C237.053 15.4883 235.994 16.4402 235.994 18.2901V23.4805H234.79V18.2901C234.79 16.4402 233.713 15.4883 232.276 15.4883C230.839 15.4883 229.797 16.4043 229.797 18.2901V23.4805H228.594ZM248.251 27.5035C246.24 27.5035 244.57 26.5696 244.013 24.6479H245.216C245.683 25.8512 246.779 26.4438 248.251 26.4438C250.155 26.4438 251.484 25.5099 251.484 23.1931V21.7024C250.856 22.9776 249.67 23.6601 248.126 23.6601C245.755 23.6601 243.923 22.2233 243.923 19.1881V14.6083H245.126V19.1881C245.126 21.3792 246.384 22.5466 248.305 22.5466C250.209 22.5466 251.484 21.3612 251.484 19.1881V14.6083H252.688V23.1572C252.688 26.2463 250.73 27.5035 248.251 27.5035Z"
        fill="black" />
</svg>