<svg width="20" height="16" viewBox="0 0 20 16" fill="none" xmlns="http://www.w3.org/2000/svg">
<path d="M3.54919 6.45523C3.32216 8.19193 3.18425 9.95665 3.1402 11.7447C5.55351 12.7522 7.84886 13.986 9.99976 15.4193C12.1506 13.986 14.446 12.7522 16.8593 11.7447C16.8153 9.95666 16.6774 8.19195 16.4503 6.45527M3.54919 6.45523C2.81944 6.20994 2.08083 5.98392 1.33398 5.77778C4.03847 3.88208 6.93926 2.24736 9.99979 0.910156C13.0603 2.24736 15.9611 3.88209 18.6656 5.77779C17.9187 5.98394 17.1801 6.20997 16.4503 6.45527M3.54919 6.45523C5.78856 7.20794 7.94459 8.1421 9.9998 9.24023C12.055 8.14211 14.211 7.20797 16.4503 6.45527M5.62476 10.4997C5.96993 10.4997 6.24976 10.2199 6.24976 9.8747C6.24976 9.52952 5.96993 9.2497 5.62476 9.2497C5.27958 9.2497 4.99976 9.52952 4.99976 9.8747C4.99976 10.2199 5.27958 10.4997 5.62476 10.4997ZM5.62476 10.4997V7.43676C7.03432 6.56094 8.49445 5.75881 9.99976 5.03577M4.16029 14.6602C5.1366 13.6839 5.62475 12.4043 5.62476 11.1247V9.8747" stroke="#717780" stroke-linecap="round" stroke-linejoin="round"/>
</svg>
