<svg width="20" height="20" viewBox="0 0 20 20" fill="none" xmlns="http://www.w3.org/2000/svg">
    <path
        d="M10 6.25H11.25M10 8.75H11.25M5 11.25H11.25M5 13.75H11.25M13.75 6.25H16.5625C17.0803 6.25 17.5 6.66973 17.5 7.1875V15C17.5 16.0355 16.6605 16.875 15.625 16.875M13.75 6.25V15C13.75 16.0355 14.5895 16.875 15.625 16.875M13.75 6.25V4.0625C13.75 3.54473 13.3303 3.125 12.8125 3.125H3.4375C2.91973 3.125 2.5 3.54473 2.5 4.0625V15C2.5 16.0355 3.33947 16.875 4.375 16.875H15.625M5 6.25H7.5V8.75H5V6.25Z"
        stroke="#151E29" stroke-linecap="round" stroke-linejoin="round" />
</svg>