<svg width="28" height="28" viewBox="0 0 28 28" fill="none" xmlns="http://www.w3.org/2000/svg">
    <path
        d="M10.5 14C10.5 14.2761 10.2761 14.5 10 14.5C9.72386 14.5 9.5 14.2761 9.5 14C9.5 13.7239 9.72386 13.5 10 13.5C10.2761 13.5 10.5 13.7239 10.5 14Z"
        fill="#535B66" />
    <path
        d="M14.5 14C14.5 14.2761 14.2761 14.5 14 14.5C13.7239 14.5 13.5 14.2761 13.5 14C13.5 13.7239 13.7239 13.5 14 13.5C14.2761 13.5 14.5 13.7239 14.5 14Z"
        fill="#535B66" />
    <path
        d="M18.5 14C18.5 14.2761 18.2761 14.5 18 14.5C17.7239 14.5 17.5 14.2761 17.5 14C17.5 13.7239 17.7239 13.5 18 13.5C18.2761 13.5 18.5 13.7239 18.5 14Z"
        fill="#535B66" />
    <path
        d="M10.5 14C10.5 14.2761 10.2761 14.5 10 14.5C9.72386 14.5 9.5 14.2761 9.5 14C9.5 13.7239 9.72386 13.5 10 13.5C10.2761 13.5 10.5 13.7239 10.5 14Z"
        stroke="#535B66" stroke-width="1.5" stroke-linecap="round" stroke-linejoin="round" />
    <path
        d="M14.5 14C14.5 14.2761 14.2761 14.5 14 14.5C13.7239 14.5 13.5 14.2761 13.5 14C13.5 13.7239 13.7239 13.5 14 13.5C14.2761 13.5 14.5 13.7239 14.5 14Z"
        stroke="#535B66" stroke-width="1.5" stroke-linecap="round" stroke-linejoin="round" />
    <path
        d="M18.5 14C18.5 14.2761 18.2761 14.5 18 14.5C17.7239 14.5 17.5 14.2761 17.5 14C17.5 13.7239 17.7239 13.5 18 13.5C18.2761 13.5 18.5 13.7239 18.5 14Z"
        stroke="#535B66" stroke-width="1.5" stroke-linecap="round" stroke-linejoin="round" />
</svg>