<svg width="20" height="20" viewBox="0 0 20 20" fill="none" xmlns="http://www.w3.org/2000/svg">
    <path
        d="M3.54944 8.45523C3.3224 10.1919 3.18449 11.9567 3.14044 13.7447C5.55376 14.7522 7.84911 15.986 10 17.4193C12.1509 15.986 14.4462 14.7522 16.8596 13.7447C16.8155 11.9567 16.6776 10.192 16.4506 8.45527M3.54944 8.45523C2.81968 8.20994 2.08108 7.98392 1.33423 7.77778C4.03872 5.88208 6.93951 4.24736 10 2.91016C13.0606 4.24736 15.9614 5.88209 18.6659 7.77779C17.919 7.98394 17.1803 8.20997 16.4506 8.45527M3.54944 8.45523C5.7888 9.20794 7.94483 10.1421 10 11.2402C12.0552 10.1421 14.2112 9.20797 16.4506 8.45527M5.625 12.4997C5.97018 12.4997 6.25 12.2199 6.25 11.8747C6.25 11.5295 5.97018 11.2497 5.625 11.2497C5.27982 11.2497 5 11.5295 5 11.8747C5 12.2199 5.27982 12.4997 5.625 12.4997ZM5.625 12.4997V9.43676C7.03456 8.56094 8.49469 7.75881 10 7.03577M4.16053 16.6602C5.13684 15.6839 5.625 14.4043 5.625 13.1247V11.8747"
        stroke="#151E29" stroke-linecap="round" stroke-linejoin="round" />
</svg>