<svg width="24" height="24" viewBox="0 0 24 24" fill="none" xmlns="http://www.w3.org/2000/svg">
    <path
        d="M4.25981 10.1463C3.98737 12.2303 3.82188 14.348 3.76902 16.4936C6.665 17.7027 9.41942 19.1831 12.0005 20.9032C14.5816 19.1831 17.336 17.7027 20.232 16.4936C20.1791 14.348 20.0136 12.2303 19.7412 10.1463M4.25981 10.1463C3.38411 9.85193 2.49778 9.58071 1.60156 9.33333C4.84695 7.0585 8.3279 5.09683 12.0005 3.49219C15.6732 5.09683 19.1541 7.05851 22.3995 9.33334C21.5033 9.58073 20.6169 9.85196 19.7412 10.1463M4.25981 10.1463C6.94705 11.0495 9.53428 12.1705 12.0005 13.4883C14.4668 12.1705 17.054 11.0496 19.7412 10.1463M6.75049 14.9996C7.1647 14.9996 7.50049 14.6638 7.50049 14.2496C7.50049 13.8354 7.1647 13.4996 6.75049 13.4996C6.33627 13.4996 6.00049 13.8354 6.00049 14.2496C6.00049 14.6638 6.33627 14.9996 6.75049 14.9996ZM6.75049 14.9996V11.3241C8.44196 10.2731 10.1941 9.31058 12.0005 8.44293M4.99313 19.9923C6.1647 18.8207 6.75049 17.2852 6.75049 15.7496V14.2496"
        stroke="#006FD6" stroke-width="1.5" stroke-linecap="round" stroke-linejoin="round" />
</svg>