<svg width="49" height="48" viewBox="0 0 49 48" fill="none" xmlns="http://www.w3.org/2000/svg">
    <path
        d="M22.3567 3.34706C23.6901 1.91877 25.9544 1.91877 27.2878 3.34706L28.7986 4.96526C29.8179 6.05705 31.3273 6.54749 32.7937 6.26334L34.9671 5.84218C36.8854 5.47046 38.7172 6.80136 38.9565 8.74065L39.2275 10.9378C39.4104 12.4202 40.3433 13.7042 41.6966 14.3362L43.7025 15.273C45.4729 16.0998 46.1726 18.2532 45.2263 19.9628L44.1541 21.8997C43.4308 23.2065 43.4308 24.7935 44.1541 26.1003L45.2263 28.0372C46.1726 29.7468 45.4729 31.9002 43.7025 32.727L41.6966 33.6638C40.3433 34.2958 39.4104 35.5798 39.2275 37.0622L38.9565 39.2594C38.7172 41.1986 36.8854 42.5295 34.9671 42.1578L32.7937 41.7367C31.3273 41.4525 29.8179 41.9429 28.7986 43.0347L27.2878 44.6529C25.9544 46.0812 23.6901 46.0812 22.3567 44.6529L20.8459 43.0347C19.8266 41.9429 18.3172 41.4525 16.8509 41.7367L14.6775 42.1578C12.7592 42.5295 10.9273 41.1986 10.6881 39.2593L10.417 37.0622C10.2341 35.5798 9.30125 34.2958 7.94791 33.6638L5.94206 32.727C4.17162 31.9002 3.47192 29.7468 4.41824 28.0372L5.4904 26.1003C6.21377 24.7935 6.21377 23.2065 5.4904 21.8997L4.41824 19.9628C3.47192 18.2532 4.17162 16.0998 5.94206 15.273L7.94791 14.3362C9.30125 13.7042 10.2341 12.4202 10.417 10.9378L10.6881 8.74065C10.9273 6.80136 12.7592 5.47046 14.6775 5.84218L16.8509 6.26334C18.3172 6.54749 19.8266 6.05705 20.8459 4.96526L22.3567 3.34706Z"
        fill="#00BA88" stroke="#00BA88" stroke-width="0.963739" />
    <path
        d="M22.0041 4.61978C23.528 2.98745 26.1157 2.98745 27.6397 4.61978L28.7648 5.8249C29.6708 6.79539 31.0125 7.23133 32.316 6.97875L33.9345 6.6651C36.1269 6.24027 38.2204 7.76131 38.4939 9.97764L38.6957 11.6139C38.8583 12.9316 39.6875 14.0729 40.8905 14.6347L42.3843 15.3324C44.4076 16.2773 45.2073 18.7384 44.1258 20.6922L43.3273 22.1346C42.6843 23.2962 42.6843 24.7069 43.3273 25.8685L44.1258 27.311C45.2073 29.2647 44.4076 31.7258 42.3843 32.6708L40.8905 33.3684C39.6875 33.9302 38.8583 35.0715 38.6957 36.3892L38.4939 38.0255C38.2204 40.2418 36.1269 41.7628 33.9345 41.338L32.316 41.0244C31.0125 40.7718 29.6708 41.2077 28.7648 42.1782L27.6397 43.3833C26.1157 45.0157 23.528 45.0157 22.0041 43.3833L20.879 42.1782C19.9729 41.2077 18.6312 40.7718 17.3278 41.0244L15.7092 41.338C13.5169 41.7628 11.4233 40.2418 11.1499 38.0255L10.948 36.3892C10.7854 35.0715 9.95624 33.9302 8.75327 33.3684L7.25946 32.6708C5.23609 31.7258 4.43644 29.2647 5.51795 27.311L6.31642 25.8685C6.95942 24.7069 6.95942 23.2962 6.31642 22.1346L5.51795 20.6922C4.43644 18.7384 5.23609 16.2773 7.25946 15.3324L8.75327 14.6347C9.95624 14.0729 10.7854 12.9316 10.948 11.6139L11.1499 9.97764C11.4233 7.76131 13.5168 6.24027 15.7092 6.6651L17.3278 6.97875C18.6312 7.23133 19.9729 6.79539 20.879 5.8249L22.0041 4.61978Z"
        fill="#00BA88" />
    <path
        d="M22.3695 4.96099C23.6958 3.54038 25.9479 3.54038 27.2742 4.96099L28.3993 6.16611C29.4229 7.26247 30.9386 7.75496 32.4111 7.46962L34.0297 7.15597C35.9377 6.78624 37.7596 8.10999 37.9976 10.0389L38.1995 11.6751C38.3831 13.1638 39.3199 14.4531 40.6789 15.0878L42.1727 15.7854C43.9336 16.6078 44.6296 18.7496 43.6883 20.45L42.8899 21.8924C42.1635 23.2047 42.1635 24.7984 42.8899 26.1107L43.6883 27.5531C44.6296 29.2535 43.9336 31.3953 42.1727 32.2177L40.6789 32.9154C39.3199 33.55 38.3831 34.8394 38.1995 36.328L37.9976 37.9643C37.7596 39.8931 35.9377 41.2169 34.0297 40.8471L32.4111 40.5335C30.9386 40.2482 29.4229 40.7406 28.3993 41.837L27.2742 43.0421C25.9479 44.4627 23.6958 44.4627 22.3695 43.0421L21.2444 41.837C20.2209 40.7406 18.7052 40.2482 17.2327 40.5335L15.6141 40.8471C13.7061 41.2169 11.8841 39.8931 11.6461 37.9643L11.4443 36.328C11.2606 34.8394 10.3238 33.55 8.96484 32.9154L7.47103 32.2177C5.7101 31.3953 5.01417 29.2535 5.9554 27.5531L6.75387 26.1107C7.48027 24.7984 7.48027 23.2047 6.75387 21.8924L5.9554 20.45C5.01417 18.7496 5.7101 16.6078 7.47103 15.7854L8.96484 15.0878C10.3238 14.4531 11.2606 13.1638 11.4443 11.6751L11.6461 10.0389C11.8841 8.10999 13.7061 6.78624 15.6141 7.15597L17.2327 7.46962C18.7052 7.75496 20.2209 7.26247 21.2444 6.16611L22.3695 4.96099Z"
        stroke="white" stroke-opacity="0.5" />
    <path
        d="M27.2948 13.8652C22.8897 13.8652 19.9336 16.3383 19.9336 21.136V24.5566C20.3808 24.3446 20.8717 24.2321 21.37 24.2274C21.8693 24.2275 22.362 24.3374 22.8106 24.5486V21.12C22.8106 18.0085 24.5926 16.4106 27.3073 16.4106C30.0219 16.4106 31.7789 18.0085 31.7789 21.12V28.5955H34.6476V21.12C34.656 16.2942 31.6998 13.8652 27.2948 13.8652Z"
        fill="white" />
    <path
        d="M21.2455 25.1072C20.7127 25.1078 20.1949 25.2771 19.7716 25.589L17.0736 23.8105C17.1337 23.6026 17.1645 23.3879 17.1652 23.1721C17.171 22.7034 17.0322 22.2437 16.7664 21.8512C16.5007 21.4587 16.12 21.1513 15.6727 20.9679C15.2253 20.7844 14.7316 20.7334 14.2541 20.8211C13.7766 20.9088 13.3369 21.1314 12.9909 21.4605C12.6448 21.7897 12.408 22.2106 12.3105 22.6698C12.213 23.129 12.2593 23.6057 12.4434 24.0395C12.6275 24.4734 12.9411 24.8446 13.3444 25.1062C13.7478 25.3678 14.2226 25.5079 14.7087 25.5087C15.2416 25.5091 15.7598 25.3397 16.1826 25.0269L18.8723 26.8175C18.7501 27.2363 18.7501 27.6795 18.8723 28.0983L16.1743 29.8768C15.7537 29.5657 15.2388 29.3965 14.7087 29.395C14.2225 29.3942 13.747 29.5326 13.3424 29.7926C12.9378 30.0525 12.6223 30.4224 12.4358 30.8554C12.2494 31.2884 12.2004 31.765 12.295 32.2249C12.3897 32.6847 12.6237 33.1072 12.9675 33.4387C13.3113 33.7702 13.7494 33.9959 14.2263 34.0872C14.7032 34.1784 15.1975 34.1312 15.6465 33.9514C16.0956 33.7716 16.4792 33.4674 16.7488 33.0772C17.0184 32.6871 17.1619 32.2286 17.1611 31.7597C17.1609 31.5468 17.1315 31.3349 17.0736 31.1294L19.7716 29.3509C20.1949 29.6628 20.7127 29.8321 21.2455 29.8326C21.8651 29.79 22.445 29.5225 22.8683 29.0841C23.2916 28.6457 23.527 28.0689 23.527 27.4699C23.527 26.8709 23.2916 26.2942 22.8683 25.8558C22.445 25.4174 21.8651 25.1499 21.2455 25.1072Z"
        fill="white" />
</svg>