<svg width="24" height="24" viewBox="0 0 24 24" fill="none"><path d="M13.3992 5.49797C13.3896 5.61903 13.4753 5.72805 13.5992 5.75237C14.1028 5.87308 14.4477 6.31827 14.4232 6.81605V8.16005C14.4232 8.81961 14.9801 9.35429 15.6672 9.35429C15.9973 9.35454 16.3139 9.22883 16.5475 9.00484C16.781 8.78085 16.9122 8.47695 16.9122 8.16005V4.77605C16.9122 4.39466 16.7539 4.02898 16.4725 3.75985C16.191 3.49071 15.8094 3.34028 15.4122 3.34181H13.6882C13.6216 3.34152 13.5577 3.36715 13.5112 3.41285C13.4642 3.45788 13.4379 3.51905 13.4382 3.58277C13.4402 4.03685 13.4392 5.01509 13.3992 5.49797Z" fill="#90979F"/><path d="M8.954 21.3716C8.954 20.712 8.39704 20.1773 7.71 20.1773H3.484C2.89491 20.1398 2.44804 19.6525 2.484 19.0868V6.81603C2.45659 6.31026 2.81177 5.85874 3.326 5.74563C3.44736 5.72202 3.53243 5.61667 3.526 5.49795C3.487 4.76259 3.475 3.96195 3.471 3.57795C3.46936 3.44653 3.35791 3.34082 3.221 3.34083H1.5C1.10256 3.3393 0.720855 3.48986 0.439348 3.75921C0.15784 4.02855 -0.000268892 4.39448 3.43287e-07 4.77603V21.1316C2.54428e-07 21.5118 0.157435 21.8766 0.437643 22.1454C0.717852 22.4142 1.09786 22.5651 1.494 22.5648H7.71C8.39665 22.5648 8.95345 22.0307 8.954 21.3716Z" fill="#90979F"/><path d="M11.9367 5.25312V3.34464C11.9367 3.07954 11.7128 2.86464 11.4367 2.86464H10.6787C10.5514 2.86448 10.4444 2.77289 10.4297 2.65152C10.3163 1.68577 9.4655 0.955811 8.45316 0.955811C7.44081 0.955811 6.58997 1.68577 6.47666 2.65152C6.46282 2.77332 6.35529 2.86536 6.22766 2.86464H5.47266C5.19651 2.86464 4.97266 3.07954 4.97266 3.34464V5.25312C4.97266 5.51821 5.19651 5.73312 5.47266 5.73312H11.4397C11.7146 5.73153 11.9367 5.51709 11.9367 5.25312Z" fill="#90979F"/><path d="M19.02 17.5383H15.041C14.6268 17.5383 14.291 17.8607 14.291 18.2583C14.291 18.656 14.6268 18.9783 15.041 18.9783H19.02C19.4342 18.9783 19.77 18.656 19.77 18.2583C19.77 17.8607 19.4342 17.5383 19.02 17.5383Z" fill="#90979F"/><path d="M14.291 14.9185C14.2916 15.3157 14.6272 15.6375 15.041 15.6375H17.527C17.9412 15.6375 18.277 15.3152 18.277 14.9175C18.277 14.5199 17.9412 14.1975 17.527 14.1975H15.041C14.8419 14.1975 14.651 14.2735 14.5103 14.4087C14.3697 14.544 14.2908 14.7273 14.291 14.9185Z" fill="#90979F"/><path fill-rule="evenodd" clip-rule="evenodd" d="M22.916 12.5289C23.29 12.8875 23.5001 13.3741 23.5 13.8815V22.0799C23.5 23.1403 22.6046 23.9999 21.5 23.9999H12.5C11.3954 23.9999 10.5 23.1403 10.5 22.0799V12.5327C10.5028 11.4776 11.3949 10.6237 12.494 10.6243H20.1C20.6288 10.6243 21.136 10.8259 21.51 11.1849L22.916 12.5289ZM13.5 12.5375C12.9477 12.5375 12.5 12.9674 12.5 13.4975L12.505 21.1199C12.505 21.6501 12.9527 22.0799 13.505 22.0799H20.505C21.0573 22.0799 21.505 21.6501 21.505 21.1199V14.2809C21.5052 14.026 21.3998 13.7815 21.212 13.6012L20.394 12.8179C20.2063 12.6382 19.9521 12.5373 19.687 12.5375H13.5Z" fill="#90979F"/></svg>