<svg width="24" height="24" viewBox="0 0 24 24" fill="none" xmlns="http://www.w3.org/2000/svg">
<path fill-rule="evenodd" clip-rule="evenodd" d="M0 12C0 5.37258 5.37258 0 12 0C18.6244 0.00716485 23.9928 5.37555 24 12C24 18.6274 18.6274 24 12 24C5.37258 24 0 18.6274 0 12ZM15.787 17.283C16.1974 17.6474 16.8231 17.6199 17.2 17.221V17.222C17.379 17.0259 17.4726 16.7666 17.4602 16.5013C17.4479 16.2361 17.3305 15.9866 17.134 15.808L12.5 11.56V6.5C12.5 5.94772 12.0523 5.5 11.5 5.5C10.9477 5.5 10.5 5.94772 10.5 6.5V12C10.501 12.2808 10.62 12.5483 10.828 12.737L15.787 17.283Z" fill="#B6C4D0"/>
</svg>
