<svg width="20" height="20" viewBox="0 0 20 20" fill="none" xmlns="http://www.w3.org/2000/svg">
    <path
        d="M7.59328 1.94005C7.68369 1.39759 8.15303 1 8.70298 1H11.2969C11.8469 1 12.3162 1.39759 12.4066 1.94005L12.6201 3.2211C12.6825 3.59514 12.9325 3.90671 13.2642 4.09036C13.3384 4.13142 13.4117 4.17383 13.4841 4.21757C13.8092 4.41384 14.2045 4.47486 14.5601 4.34166L15.7769 3.88578C16.2919 3.69284 16.8709 3.90051 17.1459 4.37677L18.4429 6.62321C18.7179 7.09948 18.6082 7.70473 18.1836 8.05426L17.1793 8.88108C16.8868 9.12188 16.7418 9.49372 16.7488 9.87253C16.7496 9.91492 16.75 9.95742 16.75 10C16.75 10.0426 16.7496 10.0851 16.7488 10.1275C16.7418 10.5063 16.8868 10.8781 17.1793 11.1189L18.1836 11.9457C18.6082 12.2953 18.7179 12.9005 18.4429 13.3768L17.1459 15.6232C16.8709 16.0995 16.2919 16.3071 15.7769 16.1142L14.5601 15.6583C14.2045 15.5251 13.8092 15.5862 13.4842 15.7824C13.4117 15.8262 13.3384 15.8686 13.2642 15.9096C12.9325 16.0933 12.6825 16.4049 12.6201 16.7789L12.4066 18.0599C12.3162 18.6024 11.8469 19 11.2969 19H8.70298C8.15303 19 7.68369 18.6024 7.59328 18.0599L7.37978 16.7789C7.31743 16.4049 7.06746 16.0933 6.73569 15.9096C6.66152 15.8686 6.5882 15.8262 6.51577 15.7824C6.19073 15.5862 5.7954 15.5251 5.43984 15.6583L4.22297 16.1142C3.70798 16.3072 3.12899 16.0995 2.85402 15.6232L1.55703 13.3768C1.28206 12.9005 1.39172 12.2953 1.8163 11.9457L2.82065 11.1189C3.11316 10.8781 3.25815 10.5063 3.25114 10.1275C3.25035 10.0851 3.24996 10.0426 3.24996 10C3.24996 9.95742 3.25035 9.91493 3.25114 9.87254C3.25815 9.49373 3.11315 9.12189 2.82065 8.88109L1.8163 8.05427C1.39171 7.70475 1.28206 7.09949 1.55703 6.62323L2.85402 4.37679C3.12899 3.90052 3.70798 3.69286 4.22297 3.88579L5.43982 4.34167C5.79539 4.47487 6.19072 4.41385 6.51575 4.21758C6.58819 4.17384 6.66151 4.13142 6.73569 4.09036C7.06746 3.90671 7.31743 3.59514 7.37977 3.2211L7.59328 1.94005Z"
        stroke="#151E29" stroke-width="1.5" stroke-linecap="round" stroke-linejoin="round" />
    <path
        d="M12.9997 9.99992C12.9997 11.6568 11.6566 12.9999 9.99973 12.9999C8.34287 12.9999 6.99973 11.6568 6.99973 9.99992C6.99973 8.34307 8.34287 6.99992 9.99973 6.99992C11.6566 6.99992 12.9997 8.34307 12.9997 9.99992Z"
        stroke="#151E29" stroke-width="1.5" stroke-linecap="round" stroke-linejoin="round" />
</svg>