<svg width="22" height="24" viewBox="0 0 22 24" fill="none" xmlns="http://www.w3.org/2000/svg">
<path fill-rule="evenodd" clip-rule="evenodd" d="M20.4425 7.97599C21.0558 7.97751 21.6036 8.35985 21.8165 8.93499C22.0278 9.51096 21.8591 10.1576 21.3935 10.557L16.3515 14.736L18.4635 21.074C18.6647 21.679 18.4514 22.3447 17.9361 22.7202C17.4208 23.0957 16.7218 23.0948 16.2075 22.718L11.0005 18.9L5.79247 22.716C5.27752 23.0936 4.57732 23.0941 4.06178 22.7174C3.54623 22.3406 3.33411 21.6733 3.53747 21.068L5.64847 14.734L0.617473 10.565C0.145559 10.169 -0.0284322 9.5202 0.182009 8.94121C0.39245 8.36222 0.942422 7.97656 1.55847 7.97599H7.50047L9.62147 1.96799C9.82921 1.38947 10.376 1.00216 10.9907 0.99814C11.6054 0.994118 12.1572 1.37424 12.3725 1.94999L14.5005 7.97599H20.4425ZM14.2385 14.721C14.1082 14.3295 14.2317 13.8982 14.5495 13.635L18.4245 10.419C18.506 10.3519 18.5365 10.2409 18.5009 10.1415C18.4652 10.0422 18.371 9.97595 18.2655 9.97599H13.7905C13.3663 9.97587 12.9883 9.70813 12.8475 9.30799L11.2365 4.73999C11.2014 4.63967 11.1067 4.57248 11.0005 4.57248C10.8942 4.57248 10.7995 4.63967 10.7645 4.73999L9.15247 9.30799C9.01164 9.70813 8.63367 9.97587 8.20947 9.97599H3.73447C3.62893 9.97595 3.53473 10.0422 3.49908 10.1415C3.46342 10.2409 3.49399 10.3519 3.57547 10.419L7.45347 13.631C7.7709 13.8944 7.89401 14.3257 7.76347 14.717L6.21547 19.364C6.18151 19.4672 6.21805 19.5805 6.30589 19.6444C6.39374 19.7082 6.51278 19.7081 6.60047 19.644L10.4075 16.851C10.7595 16.5927 11.2384 16.5927 11.5905 16.851L15.4025 19.649C15.4903 19.7135 15.6098 19.7137 15.6978 19.6494C15.7859 19.5852 15.8221 19.4713 15.7875 19.368L14.2385 14.721Z" fill="#C4C8CD"/>
</svg>
