<svg width="20" height="20" viewBox="0 0 20 20" fill="none" xmlns="http://www.w3.org/2000/svg">
    <path fill-rule="evenodd" clip-rule="evenodd"
        d="M10 0.25C4.615 0.25 0.25 4.615 0.25 10C0.25 15.385 4.615 19.75 10 19.75C15.385 19.75 19.75 15.385 19.75 10C19.75 4.615 15.385 0.25 10 0.25ZM10.75 4C10.75 3.80109 10.671 3.61032 10.5303 3.46967C10.3897 3.32902 10.1989 3.25 10 3.25C9.80109 3.25 9.61032 3.32902 9.46967 3.46967C9.32902 3.61032 9.25 3.80109 9.25 4V10C9.25 10.414 9.586 10.75 10 10.75H14.5C14.6989 10.75 14.8897 10.671 15.0303 10.5303C15.171 10.3897 15.25 10.1989 15.25 10C15.25 9.80109 15.171 9.61032 15.0303 9.46967C14.8897 9.32902 14.6989 9.25 14.5 9.25H10.75V4Z"
        fill="#018BFF" />
</svg>