<svg width="20" height="20" viewBox="0 0 20 20" fill="none" xmlns="http://www.w3.org/2000/svg">
    <path
        d="M13.75 6.875V5C13.75 3.96447 12.9105 3.125 11.875 3.125H5C3.96447 3.125 3.125 3.96447 3.125 5V11.875C3.125 12.9105 3.96447 13.75 5 13.75H6.875M13.75 6.875H15C16.0355 6.875 16.875 7.71447 16.875 8.75V15C16.875 16.0355 16.0355 16.875 15 16.875H8.75C7.71447 16.875 6.875 16.0355 6.875 15V13.75M13.75 6.875H8.75C7.71447 6.875 6.875 7.71447 6.875 8.75V13.75"
        stroke="#535B66" stroke-width="1.5" stroke-linecap="round" stroke-linejoin="round" />
</svg>