<svg width="160" height="160" viewBox="0 0 160 160" fill="none" xmlns="http://www.w3.org/2000/svg">
  <path
    d="M66.2518 48.4653V62.3324C65.2386 60.7722 63.8489 59.4922 62.2108 58.6104C60.2205 57.5084 58.0662 56.7329 55.8302 56.3134V42.4463C58.0662 42.8658 60.2205 43.6413 62.2108 44.7433C63.8489 45.6251 65.2386 46.9051 66.2518 48.4653Z"
    fill="#0A6190" stroke="#0A6190" stroke-linejoin="round" />
  <path opacity="0.5"
    d="M117.073 64.014C127.335 63.9411 137.428 66.6292 146.295 71.7967C154.888 76.7626 159.837 82.4552 159.996 88.4895C160.156 94.54 155.496 100.575 145.793 106.204L115.898 123.59C115.718 123.695 115.497 123.695 115.317 123.591L104.174 117.166C103.995 117.062 103.885 116.871 103.884 116.665C103.884 116.458 103.994 116.267 104.172 116.163L134.07 98.7761C140.268 95.184 143.014 91.5899 143.118 88.3155C143.221 85.0587 140.714 81.7634 135.483 78.7468C125.121 72.7711 112.035 72.4879 99.7415 79.6344L86.0701 87.6094C85.8035 87.765 85.4617 87.6841 85.2931 87.4255C84.2544 85.8327 82.8304 84.528 81.1531 83.6323L81.1454 83.6281C79.0672 82.4775 76.8178 81.6677 74.4831 81.2297C74.2452 81.1851 74.0602 80.9973 74.0191 80.7588C73.978 80.5203 74.0894 80.2814 74.2986 80.1597L87.967 72.2093C96.7587 66.9174 106.812 64.0868 117.073 64.014Z"
    fill="#51A6B1" />
  <path
    d="M85.7558 63.8842V78.7412C84.6703 77.0696 83.1813 75.6982 81.4263 74.7535C79.2939 73.5728 76.9859 72.742 74.5902 72.2925V57.4355C76.9859 57.8849 79.2939 58.7158 81.4263 59.8964C83.1813 60.8412 84.6703 62.2126 85.7558 63.8842Z"
    fill="#0A6190" stroke="#0A6190" stroke-linejoin="round" />
  <path fill-rule="evenodd" clip-rule="evenodd"
    d="M143.702 79.7888V64.909C143.702 61.3542 140.945 58.0045 135.795 55.0194C125.245 48.9353 111.937 48.6619 99.473 55.9081V55.975L99.45 55.931L85.755 63.8836L85.7095 78.7407L99.5299 70.7324L99.5302 70.732C111.955 63.5198 125.261 63.8017 135.773 69.8765C140.945 72.9527 143.702 76.2568 143.702 79.7888Z"
    fill="#0A6190" />
  <path
    d="M143.202 79.7888C143.202 80.065 143.426 80.2888 143.702 80.2888C143.979 80.2888 144.202 80.065 144.202 79.7888H143.202ZM135.795 55.0194L136.046 54.5869L136.045 54.5863L135.795 55.0194ZM99.473 55.9081L99.2217 55.4759C99.0678 55.5654 98.973 55.73 98.973 55.9081H99.473ZM99.473 55.975L99.0301 56.2069C99.1368 56.4108 99.3689 56.5155 99.5924 56.4606C99.8159 56.4056 99.973 56.2052 99.973 55.975H99.473ZM99.45 55.931L99.893 55.6991C99.8297 55.5782 99.7198 55.4885 99.5887 55.4506C99.4577 55.4128 99.3169 55.4301 99.1989 55.4986L99.45 55.931ZM85.755 63.8836L85.504 63.4512C85.3503 63.5404 85.2556 63.7044 85.255 63.8821L85.755 63.8836ZM85.7095 78.7407L85.2095 78.7391C85.2089 78.9182 85.3042 79.0839 85.4591 79.1735C85.6141 79.2631 85.8052 79.2631 85.9602 79.1733L85.7095 78.7407ZM99.5299 70.7324L99.7806 71.165C99.842 71.1294 99.8952 71.0811 99.9365 71.0234L99.5299 70.7324ZM99.5302 70.732L99.2792 70.2996C99.2179 70.3351 99.1648 70.3834 99.1236 70.441L99.5302 70.732ZM135.773 69.8765L136.028 69.4467L136.023 69.4436L135.773 69.8765ZM143.202 64.909V79.7888H144.202V64.909H143.202ZM135.545 55.452C140.657 58.4155 143.202 61.6355 143.202 64.909H144.202C144.202 61.0729 141.233 57.5936 136.046 54.5869L135.545 55.452ZM99.7243 56.3404C112.041 49.18 125.157 49.462 135.546 55.4526L136.045 54.5863C125.333 48.4087 111.834 48.1438 99.2217 55.4759L99.7243 56.3404ZM99.973 55.975V55.9081H98.973V55.975H99.973ZM99.007 56.1628L99.0301 56.2069L99.916 55.7432L99.893 55.6991L99.007 56.1628ZM86.0061 64.316L99.7011 56.3634L99.1989 55.4986L85.504 63.4512L86.0061 64.316ZM86.2095 78.7422L86.255 63.8851L85.255 63.8821L85.2095 78.7391L86.2095 78.7422ZM99.2792 70.2998L85.4588 78.3081L85.9602 79.1733L99.7806 71.165L99.2792 70.2998ZM99.1236 70.441L99.1233 70.4414L99.9365 71.0234L99.9368 71.023L99.1236 70.441ZM136.023 69.4436C125.349 63.2751 111.852 63.0016 99.2792 70.2996L99.7812 71.1644C112.059 64.038 125.173 64.3283 135.522 70.3094L136.023 69.4436ZM144.202 79.7888C144.202 75.974 141.23 72.5405 136.028 69.4468L135.517 70.3063C140.66 73.365 143.202 76.5397 143.202 79.7888H144.202Z"
    fill="#0A6190" />
  <path
    d="M146.004 49.0722C163.117 58.9617 164.826 71.2666 145.503 82.4778L115.607 99.8642L104.464 93.4383L134.36 76.0519C146.825 68.8285 146.323 61.1037 135.773 55.0196C125.223 48.9355 111.915 48.662 99.4507 55.9083L85.7786 63.8837C84.6867 62.2092 83.1896 60.8376 81.4263 59.896C79.2939 58.7153 76.9859 57.8844 74.5902 57.435L88.2624 49.4824C96.9659 44.2427 106.918 41.44 117.077 41.3678C127.236 41.2956 137.227 43.9567 146.004 49.0722Z"
    fill="#5CC3C9" stroke="#0A6190" stroke-linejoin="round" />
  <path fill-rule="evenodd" clip-rule="evenodd"
    d="M159.403 65.5926V80.4497C159.403 86.0553 154.959 91.8432 145.48 97.3576V97.2306L145.458 97.358L115.561 114.722L115.561 114.721L104.419 108.295L104.464 93.4384L115.607 99.8643V99.8644L145.48 82.5011V82.4777C154.982 76.9633 159.403 71.1982 159.403 65.5926Z"
    fill="#0A6190" />
  <path
    d="M159.903 65.5926C159.903 65.3165 159.679 65.0926 159.403 65.0926C159.127 65.0926 158.903 65.3165 158.903 65.5926H159.903ZM145.48 97.3576H144.98C144.98 97.5365 145.076 97.7018 145.231 97.791C145.386 97.8802 145.577 97.8798 145.732 97.7898L145.48 97.3576ZM145.48 97.2306H145.98C145.98 96.9714 145.782 96.7552 145.524 96.7325C145.266 96.7098 145.033 96.8882 144.988 97.1435L145.48 97.2306ZM145.458 97.358L145.709 97.7903C145.836 97.7164 145.924 97.5901 145.95 97.4451L145.458 97.358ZM115.561 114.722L115.061 114.72C115.061 114.899 115.156 115.065 115.311 115.155C115.466 115.244 115.657 115.244 115.812 115.154L115.561 114.722ZM115.561 114.721L116.061 114.723C116.062 114.543 115.966 114.378 115.811 114.288L115.561 114.721ZM104.419 108.295L103.919 108.294C103.918 108.473 104.013 108.639 104.169 108.729L104.419 108.295ZM104.464 93.4384L104.714 93.0053C104.559 92.9162 104.369 92.9161 104.215 93.0051C104.06 93.094 103.965 93.2586 103.964 93.4369L104.464 93.4384ZM115.607 99.8643H116.107C116.107 99.6856 116.012 99.5205 115.857 99.4312L115.607 99.8643ZM115.607 99.8644H115.107C115.107 100.043 115.202 100.209 115.358 100.298C115.513 100.387 115.704 100.387 115.858 100.297L115.607 99.8644ZM145.48 82.5011L145.731 82.9333C145.885 82.8438 145.98 82.6792 145.98 82.5011H145.48ZM145.48 82.4777L145.229 82.0453C145.075 82.1348 144.98 82.2995 144.98 82.4777H145.48ZM159.903 80.4497V65.5926H158.903V80.4497H159.903ZM145.732 97.7898C155.245 92.2552 159.903 86.3379 159.903 80.4497H158.903C158.903 85.7727 154.673 91.4311 145.229 96.9254L145.732 97.7898ZM144.98 97.2306V97.3576H145.98V97.2306H144.98ZM144.988 97.1435L144.965 97.2708L145.95 97.4451L145.972 97.3177L144.988 97.1435ZM145.206 96.9256L115.31 114.289L115.812 115.154L145.709 97.7903L145.206 96.9256ZM116.061 114.723L116.061 114.723L115.061 114.72L115.061 114.72L116.061 114.723ZM104.169 108.729L115.311 115.154L115.811 114.288L104.668 107.862L104.169 108.729ZM103.964 93.4369L103.919 108.294L104.919 108.297L104.964 93.4399L103.964 93.4369ZM115.857 99.4312L104.714 93.0053L104.214 93.8715L115.357 100.297L115.857 99.4312ZM116.107 99.8644V99.8643H115.107V99.8644H116.107ZM115.858 100.297L145.731 82.9333L145.229 82.0688L115.356 99.4321L115.858 100.297ZM144.98 82.4777V82.5011H145.98V82.4777H144.98ZM158.903 65.5926C158.903 70.9155 154.696 76.5511 145.229 82.0453L145.731 82.9102C155.268 77.3755 159.903 71.481 159.903 65.5926H158.903Z"
    fill="#0A6190" />
  <path opacity="0.5"
    d="M56.6381 58.9708C54.2687 58.648 51.5229 58.6968 48.7958 59.1711C46.0686 59.6454 43.8825 60.5224 42.2311 61.6601C39.1771 63.6407 38.1163 66.3157 39.5337 68.8115C40.8113 71.1002 44.4026 72.4354 48.1152 73.5521C52.7512 74.8417 56.3425 76.1768 57.7723 78.9562C57.7723 78.9562 57.7723 78.9562 57.906 79.0214C60.4674 83.7407 52.4345 88.5674 43.4979 87.6787C43.4979 87.6787 43.4979 87.6787 43.3642 87.6135C38.1092 87.1325 35.283 85.3377 32.432 82.9755C30.2557 81.0813 27.4294 79.2864 22.8305 78.8478C18.0979 78.3439 13.2997 79.3349 9.97218 81.0432C8.05341 82.0506 6.66944 83.3188 6.08145 84.8365C5.49346 86.3541 5.55537 87.7723 6.52841 89.0797C8.06719 91.357 11.677 93.1177 16.4096 93.6215C20.7473 94.0715 25.017 92.9615 28.6243 91.6673C33.264 90.0438 37.2724 88.9452 42.5336 89.568C47.7886 90.049 50.6148 91.8439 53.4658 94.206C55.6422 96.1003 58.4684 97.8951 63.0673 98.3337C67.7999 98.8376 72.5981 97.8466 75.9256 96.1383C76.1807 95.9851 76.3082 95.9085 76.5632 95.7552C76.8182 95.602 76.9457 95.5254 77.2007 95.3722C80.2546 93.3916 81.3155 90.7166 79.898 88.2208C78.6204 85.9321 75.0292 84.5969 71.3166 83.4802C66.6805 82.1906 63.0893 80.8555 61.6594 78.0761C60.2295 75.2966 61.5702 73.0357 64.0708 70.3689C66.0737 68.2921 67.5418 65.9545 66.3918 63.5892C64.5918 61.3233 60.982 59.5626 56.6381 58.9708Z"
    fill="#51A6B1" />
  <path
    d="M67.5459 45.1137V57.5785C67.5423 58.1331 67.4415 58.6828 67.248 59.2026C66.6887 60.7316 65.3576 62.1335 63.4281 63.2276C62.4895 63.7618 61.4984 64.1981 60.4705 64.5294L60.5047 52.5839C61.5326 52.2526 62.5237 51.8163 63.4623 51.2821C65.3918 50.1855 65.6575 48.7469 66.2168 47.218C66.4107 46.6984 66.2152 44.4752 66.2168 43.9206L67.5459 45.1137Z"
    fill="#0A6190" stroke="#0A6190" stroke-linejoin="round" />
  <path
    d="M38.1273 59.4577L38.1616 47.5122C38.16 48.0221 38.2426 48.5287 38.4058 49.0118C38.9163 50.5407 40.8621 51.8641 42.7549 52.9607C44.8333 54.1624 47.4106 54.8867 50.3341 55.0992L50.2999 67.0447C47.3691 66.8322 44.138 66.1912 42.0572 64.9847C40.1643 63.8881 38.882 62.4862 38.3716 60.9573C38.2083 60.4742 38.1258 59.9676 38.1273 59.4577Z"
    fill="#0A6190" stroke="#0A6190" stroke-linejoin="round" />
  <path d="M56.8802 58.9404V62.2378L51.1097 67.5885L51.1439 55.643L56.8802 58.9404Z" fill="#0A6190"
    stroke="#0A6190" stroke-linejoin="round" />
  <path
    d="M56.0556 76.0701L56.88 86.7866C56.88 86.7866 51.9339 80.1918 43.6904 79.3675C35.4469 78.5431 29.9129 83.1406 29.9129 83.1406L29.9128 70.6619L44.5147 69.4753L56.0556 76.0701Z"
    fill="#0A6190" stroke="#0A6190" stroke-linejoin="round" />
  <path
    d="M30.4916 70.6614L30.4573 82.6069C29.7929 83.2646 29.0448 83.832 28.2324 84.2946C26.3274 85.4059 23.9022 86.1654 21.2596 86.4927C18.6353 86.8093 15.976 86.668 13.4 86.0751C11.8547 85.7279 10.368 85.1577 8.98677 84.3825C8.38914 84.0417 7.82559 83.6442 7.30396 83.1956C5.81413 81.906 5.02035 80.3844 5.03012 78.8262L5.06434 66.8807C5.06434 68.4389 5.84591 69.9605 7.33818 71.25C7.85982 71.6987 8.42324 72.0961 9.02087 72.437C10.4021 73.2122 11.8889 73.7823 13.4343 74.1296C16.0102 74.7225 18.6694 74.8638 21.2937 74.5472C23.9338 74.2321 26.3616 73.4701 28.2666 72.3491C29.0791 71.8865 29.8271 71.3191 30.4916 70.6614Z"
    fill="#0A6190" stroke="#0A6190" stroke-linejoin="round" />
  <path
    d="M59.7201 77.6849L60.8629 89.6796C55.8329 88.6736 56.8389 85.6556 52.3119 82.6376L55.9272 73.2227C56.3106 74.9153 57.6441 76.4833 59.7201 77.6849Z"
    fill="#0A6190" stroke="#0A6190" stroke-linejoin="round" />
  <path
    d="M80.7398 70.7078L80.7056 82.6533C80.7056 82.751 80.7056 82.8487 80.7056 82.9464C80.5737 84.9369 79.1449 86.8321 76.7075 88.2487C74.27 89.6652 71.0022 90.5005 67.5633 90.5836C64.1245 90.6666 60.776 89.9925 58.1823 88.6981L58.2165 76.7526C60.8102 78.047 64.1612 78.7211 67.5976 78.6381C71.0339 78.555 74.3018 77.7197 76.7417 76.3032C79.1816 74.8866 80.608 72.9913 80.7398 71.0008C80.7374 70.9031 80.7398 70.8055 80.7398 70.7078Z"
    fill="#0A6190" stroke="#0A6190" stroke-linejoin="round" />
  <path
    d="M47.7918 54.0659L47.8 54.0684L47.8084 54.0707C52.416 55.3524 55.8131 56.6353 57.1736 59.2799L57.2193 59.3686L57.3437 59.4294L57.3437 59.4294L57.3438 59.4294L57.3438 59.4294L57.3438 59.4294L57.3438 59.4294L57.3438 59.4294L57.3438 59.4294L57.3439 59.4294L57.3439 59.4294L57.3439 59.4294L57.3439 59.4294L57.3439 59.4295L57.344 59.4295L57.344 59.4295L57.344 59.4295L57.344 59.4295L57.344 59.4295L57.344 59.4295L57.3441 59.4295L57.3441 59.4295L57.3441 59.4295L57.3441 59.4295L57.3441 59.4295L57.3441 59.4296L57.3442 59.4296L57.3442 59.4296L57.3442 59.4296L57.3442 59.4296L57.3442 59.4296L57.3442 59.4296L57.3443 59.4296L57.3443 59.4296L57.3443 59.4296L57.3443 59.4296L57.3443 59.4297L57.3444 59.4297L57.3444 59.4297L57.3444 59.4297L57.3444 59.4297L57.3445 59.4297L57.3445 59.4297L57.3445 59.4297L57.3445 59.4297L57.3446 59.4298L57.3446 59.4298L57.3446 59.4298L57.3446 59.4298L57.3447 59.4298L57.3447 59.4298L57.3447 59.4298L57.3448 59.4299L57.3448 59.4299L57.3448 59.4299L57.3449 59.4299L57.3449 59.4299L57.3449 59.4299L57.345 59.43L57.345 59.43L57.345 59.43L57.3451 59.43L57.3451 59.43L57.3451 59.43L57.3452 59.4301L57.3452 59.4301L57.3453 59.4301L57.3453 59.4301L57.3453 59.4301L57.3454 59.4302L57.3454 59.4302L57.3455 59.4302L57.3455 59.4302L57.3455 59.4302L57.3456 59.4303L57.3456 59.4303L57.3457 59.4303L57.3457 59.4303L57.3458 59.4304L57.3458 59.4304L57.3459 59.4304L57.3459 59.4304L57.346 59.4305L57.346 59.4305L57.3461 59.4305L57.3461 59.4305L57.3462 59.4306L57.3462 59.4306L57.3463 59.4306L57.3464 59.4306L57.3464 59.4307L57.3465 59.4307L57.3465 59.4307L57.3466 59.4308L57.3466 59.4308L57.3467 59.4308L57.3468 59.4308L57.3468 59.4309L57.3469 59.4309L57.347 59.4309L57.347 59.431L57.3471 59.431L57.3472 59.431L57.3472 59.4311L57.3473 59.4311L57.3474 59.4311L57.3474 59.4312L57.3475 59.4312L57.3476 59.4312L57.3477 59.4313L57.3477 59.4313L57.3478 59.4313L57.3479 59.4314L57.348 59.4314L57.3481 59.4315L57.3481 59.4315L57.3482 59.4315L57.3483 59.4316L57.3484 59.4316L57.3485 59.4317L57.3485 59.4317L57.3486 59.4317L57.3487 59.4318L57.3488 59.4318L57.3489 59.4319L57.349 59.4319L57.3491 59.432L57.3492 59.432L57.3493 59.4321L57.3494 59.4321L57.3495 59.4321L57.3495 59.4322L57.3496 59.4322L57.3497 59.4323L57.3498 59.4323L57.3499 59.4324L57.35 59.4324L57.3501 59.4325L57.3503 59.4325L57.3504 59.4326L57.3505 59.4326L57.3506 59.4327L57.3507 59.4327L57.3508 59.4328L57.3509 59.4329L57.351 59.4329L57.3511 59.433L57.3512 59.433L57.3514 59.4331L57.3515 59.4331L57.3516 59.4332L57.3517 59.4332L57.3518 59.4333L57.3519 59.4334L57.3521 59.4334L57.3522 59.4335L57.3523 59.4335L57.3524 59.4336L57.3526 59.4337L57.3527 59.4337L57.3528 59.4338L57.353 59.4339L57.3531 59.4339L57.3532 59.434L57.3534 59.4341L57.3535 59.4341L57.3536 59.4342L57.3538 59.4343L57.3539 59.4343L57.3541 59.4344L57.3542 59.4345L57.3543 59.4345L57.3545 59.4346L57.3546 59.4347C59.6269 63.8537 52.1585 68.3411 43.8037 67.5769L43.8034 67.5768L43.8027 67.5764L43.802 67.5761L43.8012 67.5757L43.8005 67.5753L43.7997 67.575L43.7989 67.5746L43.7982 67.5742L43.7974 67.5739L43.7967 67.5735L43.7959 67.5731L43.7951 67.5727L43.7943 67.5724L43.7936 67.572L43.7928 67.5716L43.6683 67.5109L43.5005 67.4955C38.5025 67.038 35.7925 65.3435 32.9602 62.9973C30.7637 61.0861 27.8248 59.1944 22.9767 58.7307C18.0208 58.2043 13.0187 59.2434 9.55993 61.019L9.5599 61.019L9.55446 61.0219C7.54475 62.077 6.09064 63.409 5.47409 65.0004L6.08145 65.0521L5.47409 65.0004C4.8679 66.565 4.9224 68.052 5.94739 69.4325C7.55633 71.8086 11.3234 73.6438 16.2576 74.1691L16.2605 74.1694C20.8504 74.6456 25.3069 73.4672 28.9417 72.1633C33.5554 70.5491 37.368 69.5222 42.3693 70.1143L42.3832 70.1159L42.3973 70.1172C47.3953 70.5747 50.1053 72.2693 52.9376 74.6154C55.1342 76.5266 58.073 78.4183 62.9211 78.882C67.877 79.4084 72.8791 78.3694 76.3379 76.5937L76.3572 76.5838L76.375 76.5731L76.3765 76.5722L76.378 76.5713L76.3795 76.5704L76.381 76.5695L76.3825 76.5686L76.384 76.5677L76.3854 76.5668L76.3869 76.566L76.3884 76.5651L76.3898 76.5642L76.3913 76.5633L76.3928 76.5624L76.3942 76.5616L76.3957 76.5607L76.3971 76.5598L76.3986 76.5589L76.4 76.5581L76.4015 76.5572L76.4029 76.5563L76.4044 76.5555L76.4058 76.5546L76.4072 76.5537L76.4087 76.5529L76.4101 76.552L76.4115 76.5512L76.4129 76.5503L76.4144 76.5495L76.4158 76.5486L76.4172 76.5478L76.4186 76.5469L76.42 76.5461L76.4214 76.5452L76.4228 76.5444L76.4242 76.5435L76.4256 76.5427L76.427 76.5418L76.4284 76.541L76.4298 76.5402L76.4312 76.5393L76.4326 76.5385L76.434 76.5377L76.4354 76.5368L76.4367 76.536L76.4381 76.5352L76.4395 76.5344L76.4409 76.5335L76.4422 76.5327L76.4436 76.5319L76.445 76.5311L76.4463 76.5302L76.4477 76.5294L76.4491 76.5286L76.4504 76.5278L76.4518 76.527L76.4531 76.5262L76.4545 76.5254L76.4558 76.5245L76.4572 76.5237L76.4585 76.5229L76.4598 76.5221L76.4612 76.5213L76.4625 76.5205L76.4639 76.5197L76.4652 76.5189L76.4665 76.5181L76.4678 76.5173L76.4692 76.5165L76.4705 76.5157L76.4718 76.5149L76.4731 76.5141L76.4745 76.5134L76.4758 76.5126L76.4771 76.5118L76.4784 76.511L76.4797 76.5102L76.481 76.5094L76.4823 76.5086L76.4836 76.5078L76.4849 76.5071L76.4862 76.5063L76.4875 76.5055L76.4888 76.5047L76.4901 76.504L76.4914 76.5032L76.4927 76.5024L76.494 76.5016L76.4952 76.5009L76.4965 76.5001L76.4978 76.4993L76.4991 76.4986L76.5004 76.4978L76.5016 76.497L76.5029 76.4963L76.5042 76.4955L76.5054 76.4947L76.5067 76.494L76.508 76.4932L76.5092 76.4924L76.5105 76.4917L76.5118 76.4909L76.513 76.4902L76.5143 76.4894L76.5155 76.4887L76.5168 76.4879L76.518 76.4872L76.5193 76.4864L76.5205 76.4857L76.5218 76.4849L76.523 76.4842L76.5243 76.4834L76.5255 76.4827L76.5268 76.4819L76.528 76.4812L76.5292 76.4804L76.5305 76.4797L76.5317 76.479L76.5329 76.4782L76.5342 76.4775L76.5354 76.4767L76.5366 76.476L76.5378 76.4753L76.5391 76.4745L76.5403 76.4738L76.5415 76.4731L76.5427 76.4723L76.5439 76.4716L76.5452 76.4709L76.5464 76.4701L76.5476 76.4694L76.5488 76.4687L76.55 76.468L76.5512 76.4672L76.5524 76.4665L76.5536 76.4658L76.5548 76.4651L76.556 76.4643L76.5572 76.4636L76.5584 76.4629L76.5596 76.4622L76.5608 76.4614L76.562 76.4607L76.5632 76.46L76.5644 76.4593L76.5656 76.4586L76.5668 76.4579L76.568 76.4571L76.5692 76.4564L76.5704 76.4557L76.5716 76.455L76.5727 76.4543L76.5739 76.4536L76.5751 76.4529L76.5763 76.4522L76.5775 76.4514L76.5787 76.4507L76.5798 76.45L76.581 76.4493L76.5822 76.4486L76.5834 76.4479L76.5845 76.4472L76.5857 76.4465L76.5869 76.4458L76.5881 76.4451L76.5892 76.4444L76.5904 76.4437L76.5916 76.443L76.5927 76.4423L76.5939 76.4416L76.5951 76.4409L76.5962 76.4402L76.5974 76.4395L76.5985 76.4388L76.5997 76.4381L76.6009 76.4374L76.602 76.4367L76.6032 76.436L76.6043 76.4353L76.6055 76.4346L76.6066 76.4339L76.6078 76.4332L76.609 76.4325L76.6101 76.4318L76.6113 76.4312L76.6124 76.4305L76.6136 76.4298L76.6147 76.4291L76.6159 76.4284L76.617 76.4277L76.6181 76.427L76.6193 76.4263L76.6204 76.4256L76.6216 76.4249L76.6227 76.4243L76.6239 76.4236L76.625 76.4229L76.6262 76.4222L76.6273 76.4215L76.6284 76.4208L76.6296 76.4201L76.6307 76.4195L76.6318 76.4188L76.633 76.4181L76.6341 76.4174L76.6353 76.4167L76.6364 76.416L76.6375 76.4154L76.6387 76.4147L76.6398 76.414L76.6409 76.4133L76.6421 76.4126L76.6432 76.412L76.6443 76.4113L76.6455 76.4106L76.6466 76.4099L76.6477 76.4092L76.6489 76.4086L76.65 76.4079L76.6511 76.4072L76.6522 76.4065L76.6534 76.4058L76.6545 76.4052L76.6556 76.4045L76.6568 76.4038L76.6579 76.4031L76.659 76.4025L76.6601 76.4018L76.6613 76.4011L76.6624 76.4004L76.6635 76.3998L76.6646 76.3991L76.6658 76.3984L76.6669 76.3977L76.668 76.3971L76.6691 76.3964L76.6702 76.3957L76.6714 76.395L76.6725 76.3944L76.6736 76.3937L76.6747 76.393L76.6759 76.3923L76.677 76.3917L76.6781 76.391L76.6792 76.3903L76.6803 76.3896L76.6815 76.389L76.6826 76.3883L76.6837 76.3876L76.6848 76.3869L76.686 76.3863L76.6871 76.3856L76.6882 76.3849L76.6893 76.3842L76.6904 76.3836L76.6916 76.3829L76.6927 76.3822L76.6938 76.3816L76.6949 76.3809L76.696 76.3802L76.6972 76.3795L76.6983 76.3789L76.6994 76.3782L76.7005 76.3775L76.7016 76.3768L76.7028 76.3762L76.7039 76.3755L76.705 76.3748L76.7061 76.3741L76.7073 76.3735L76.7084 76.3728L76.7095 76.3721L76.7106 76.3714L76.7117 76.3708L76.7129 76.3701L76.714 76.3694L76.7151 76.3688L76.7162 76.3681L76.7174 76.3674L76.7185 76.3667L76.7196 76.3661L76.7207 76.3654L76.7218 76.3647L76.723 76.364L76.7241 76.3634L76.7252 76.3627L76.7263 76.362L76.7275 76.3613L76.7286 76.3606L76.7297 76.36L76.7309 76.3593L76.732 76.3586L76.7331 76.3579L76.7342 76.3573L76.7354 76.3566L76.7365 76.3559L76.7376 76.3552L76.7387 76.3545L76.7399 76.3539L76.741 76.3532L76.7421 76.3525L76.7433 76.3518L76.7444 76.3511L76.7455 76.3505L76.7467 76.3498L76.7478 76.3491L76.7489 76.3484L76.7501 76.3477L76.7512 76.3471L76.7523 76.3464L76.7535 76.3457L76.7546 76.345L76.7558 76.3443L76.7569 76.3436L76.758 76.343L76.7592 76.3423L76.7603 76.3416L76.7615 76.3409L76.7626 76.3402L76.7637 76.3395L76.7649 76.3388L76.766 76.3382L76.7672 76.3375L76.7683 76.3368L76.7695 76.3361L76.7706 76.3354L76.7717 76.3347L76.7729 76.334L76.774 76.3333L76.7752 76.3326L76.7763 76.332L76.7775 76.3313L76.7787 76.3306L76.7798 76.3299L76.781 76.3292L76.7821 76.3285L76.7833 76.3278L76.7844 76.3271L76.7856 76.3264L76.7867 76.3257L76.7879 76.325L76.7891 76.3243L76.7902 76.3236L76.7914 76.3229L76.7925 76.3222L76.7937 76.3215L76.7949 76.3208L76.796 76.3201L76.7972 76.3194L76.7984 76.3187L76.7995 76.318L76.8007 76.3173L76.8019 76.3166L76.8031 76.3159L76.8042 76.3152L76.8054 76.3145L76.8066 76.3138L76.8078 76.3131L76.8089 76.3124L76.8101 76.3117L76.8113 76.311L76.8125 76.3102L76.8137 76.3095L76.8149 76.3088L76.816 76.3081L76.8172 76.3074L76.8184 76.3067L76.8196 76.306L76.8208 76.3052L76.822 76.3045L76.8232 76.3038L76.8244 76.3031L76.8256 76.3024L76.8268 76.3017L76.828 76.3009L76.8292 76.3002L76.8304 76.2995L76.8316 76.2988L76.8328 76.2981L76.834 76.2973L76.8352 76.2966L76.8364 76.2959L76.8376 76.2952L76.8388 76.2944L76.84 76.2937L76.8412 76.293L76.8424 76.2922L76.8437 76.2915L76.8449 76.2908L76.8461 76.29L76.8473 76.2893L76.8485 76.2886L76.8498 76.2878L76.851 76.2871L76.8522 76.2864L76.8534 76.2856L76.8547 76.2849L76.8559 76.2842L76.8571 76.2834L76.8584 76.2827L76.8596 76.2819L76.8608 76.2812L76.8621 76.2804L76.8633 76.2797L76.8646 76.2789L76.8658 76.2782L76.8671 76.2774L76.8683 76.2767L76.8696 76.2759L76.8708 76.2752L76.8721 76.2744L76.8733 76.2737L76.8746 76.2729L76.8758 76.2722L76.8771 76.2714L76.8784 76.2707L76.8796 76.2699L76.8809 76.2691L76.8822 76.2684L76.8834 76.2676L76.8847 76.2669L76.886 76.2661L76.8872 76.2653L76.8885 76.2646L76.8898 76.2638L76.8911 76.263L76.8924 76.2622L76.8936 76.2615L76.8949 76.2607L76.8962 76.2599L76.8975 76.2592L76.8988 76.2584L76.9001 76.2576L76.9014 76.2568L76.9027 76.256L76.904 76.2553L76.9053 76.2545L76.9066 76.2537L76.9079 76.2529L76.9092 76.2521L76.9105 76.2513L76.9118 76.2505L76.9132 76.2498L76.9145 76.249L76.9158 76.2482L76.9171 76.2474L76.9184 76.2466L76.9198 76.2458L76.9211 76.245L76.9224 76.2442L76.9237 76.2434L76.9251 76.2426L76.9264 76.2418L76.9278 76.241L76.9291 76.2402L76.9304 76.2394L76.9318 76.2386L76.9331 76.2377L76.9345 76.2369L76.9358 76.2361L76.9372 76.2353L76.9385 76.2345L76.9399 76.2337L76.9413 76.2329L76.9426 76.232L76.944 76.2312L76.9454 76.2304L76.9467 76.2296L76.9481 76.2288L76.9495 76.2279L76.9509 76.2271L76.9522 76.2263L76.9536 76.2254L76.955 76.2246L76.9564 76.2238L76.9578 76.2229L76.9592 76.2221L76.9606 76.2213L76.962 76.2204L76.9634 76.2196L76.9648 76.2187L76.9662 76.2179L76.9676 76.217L76.969 76.2162L76.9704 76.2153L76.9718 76.2145L76.9732 76.2136L76.9747 76.2128L76.9761 76.2119L76.9775 76.2111L76.9789 76.2102L76.9804 76.2094L76.9818 76.2085L76.9832 76.2076L76.9847 76.2068L76.9861 76.2059L76.9876 76.205L76.989 76.2042L76.9905 76.2033L76.9919 76.2024L76.9934 76.2015L76.9948 76.2007L76.9963 76.1998L76.9978 76.1989L76.9992 76.198L77.0007 76.1971L77.0022 76.1963L77.0037 76.1954L77.0051 76.1945L77.0066 76.1936L77.0081 76.1927L77.0096 76.1918L77.0111 76.1909L77.0126 76.19L77.0141 76.1891L77.0155 76.1882L77.017 76.1873L77.0185 76.1864L77.02 76.1856L77.0215 76.1847L77.023 76.1838L77.0244 76.1829L77.0259 76.182L77.0274 76.1811L77.0288 76.1802L77.0303 76.1794L77.0317 76.1785L77.0332 76.1776L77.0347 76.1767L77.0361 76.1759L77.0376 76.175L77.039 76.1741L77.0404 76.1733L77.0419 76.1724L77.0433 76.1715L77.0448 76.1707L77.0462 76.1698L77.0476 76.169L77.049 76.1681L77.0505 76.1673L77.0519 76.1664L77.0533 76.1655L77.0547 76.1647L77.0561 76.1638L77.0575 76.163L77.0589 76.1622L77.0604 76.1613L77.0618 76.1605L77.0632 76.1596L77.0646 76.1588L77.0659 76.1579L77.0673 76.1571L77.0687 76.1563L77.0701 76.1554L77.0715 76.1546L77.0729 76.1538L77.0743 76.1529L77.0756 76.1521L77.077 76.1513L77.0784 76.1505L77.0798 76.1496L77.0811 76.1488L77.0825 76.148L77.0839 76.1472L77.0852 76.1464L77.0866 76.1455L77.0879 76.1447L77.0893 76.1439L77.0906 76.1431L77.092 76.1423L77.0933 76.1415L77.0947 76.1407L77.096 76.1399L77.0974 76.1391L77.0987 76.1383L77.1 76.1375L77.1014 76.1367L77.1027 76.1359L77.104 76.1351L77.1054 76.1343L77.1067 76.1335L77.108 76.1327L77.1093 76.1319L77.1107 76.1311L77.112 76.1303L77.1133 76.1295L77.1146 76.1287L77.1159 76.1279L77.1172 76.1271L77.1185 76.1264L77.1198 76.1256L77.1211 76.1248L77.1224 76.124L77.1237 76.1232L77.125 76.1224L77.1263 76.1217L77.1276 76.1209L77.1289 76.1201L77.1302 76.1193L77.1315 76.1186L77.1328 76.1178L77.134 76.117L77.1353 76.1163L77.1366 76.1155L77.1379 76.1147L77.1392 76.114L77.1404 76.1132L77.1417 76.1124L77.143 76.1117L77.1442 76.1109L77.1455 76.1101L77.1468 76.1094L77.148 76.1086L77.1493 76.1079L77.1506 76.1071L77.1518 76.1064L77.1531 76.1056L77.1543 76.1048L77.1556 76.1041L77.1568 76.1033L77.1581 76.1026L77.1593 76.1018L77.1606 76.1011L77.1618 76.1004L77.163 76.0996L77.1643 76.0989L77.1655 76.0981L77.1668 76.0974L77.168 76.0966L77.1692 76.0959L77.1705 76.0952L77.1717 76.0944L77.1729 76.0937L77.1741 76.0929L77.1754 76.0922L77.1766 76.0915L77.1778 76.0907L77.179 76.09L77.1803 76.0893L77.1815 76.0885L77.1827 76.0878L77.1839 76.0871L77.1851 76.0863L77.1863 76.0856L77.1875 76.0849L77.1887 76.0842L77.19 76.0834L77.1912 76.0827L77.1924 76.082L77.1936 76.0813L77.1948 76.0805L77.196 76.0798L77.1972 76.0791L77.1984 76.0784L77.1996 76.0777L77.2008 76.0769L77.202 76.0762L77.2031 76.0755L77.2043 76.0748L77.2055 76.0741L77.2067 76.0734L77.2079 76.0726L77.2091 76.0719L77.2103 76.0712L77.2115 76.0705L77.2126 76.0698L77.2138 76.0691L77.215 76.0684L77.2162 76.0677L77.2174 76.067L77.2185 76.0663L77.2197 76.0656L77.2209 76.0648L77.2221 76.0641L77.2232 76.0634L77.2244 76.0627L77.2256 76.062L77.2267 76.0613L77.2279 76.0606L77.2291 76.0599L77.2303 76.0592L77.2314 76.0585L77.2326 76.0578L77.2337 76.0571L77.2349 76.0564L77.2361 76.0557L77.2372 76.055L77.2384 76.0543L77.2395 76.0536L77.2407 76.0529L77.2419 76.0522L77.243 76.0516L77.2442 76.0509L77.2453 76.0502L77.2465 76.0495L77.2476 76.0488L77.2488 76.0481L77.2499 76.0474L77.2511 76.0467L77.2522 76.046L77.2534 76.0453L77.2545 76.0446L77.2557 76.0439L77.2568 76.0433L77.258 76.0426L77.2591 76.0419L77.2603 76.0412L77.2614 76.0405L77.2625 76.0398L77.2637 76.0391L77.2648 76.0385L77.266 76.0378L77.2671 76.0371L77.2682 76.0364L77.2694 76.0357L77.2705 76.035L77.2717 76.0343L77.2728 76.0337L77.2739 76.033L77.2751 76.0323L77.2762 76.0316L77.2773 76.0309L77.2785 76.0303L77.2796 76.0296L77.2807 76.0289L77.2819 76.0282L77.283 76.0275L77.2841 76.0269L77.2853 76.0262L77.2864 76.0255L77.2875 76.0248L77.2886 76.0241L77.2898 76.0235L77.2909 76.0228L77.292 76.0221L77.2932 76.0214L77.2943 76.0208L77.2954 76.0201L77.2965 76.0194L77.2977 76.0187L77.2988 76.018L77.2999 76.0174L77.301 76.0167L77.3022 76.016L77.3033 76.0153L77.3044 76.0147L77.3055 76.014L77.3067 76.0133L77.3078 76.0126L77.3089 76.012L77.31 76.0113L77.3111 76.0106L77.3123 76.0099L77.3134 76.0093L77.3145 76.0086L77.3156 76.0079L77.3168 76.0072L77.3179 76.0066L77.319 76.0059L77.3201 76.0052L77.3212 76.0045L77.3224 76.0039L77.3235 76.0032L77.3246 76.0025L77.3257 76.0019L77.3268 76.0012L77.328 76.0005L77.3291 75.9998L77.3302 75.9992L77.3313 75.9985L77.3324 75.9978L77.3336 75.9971L77.3347 75.9965L77.3358 75.9958L77.3369 75.9951L77.3381 75.9944L77.3392 75.9938L77.3403 75.9931L77.3414 75.9924L77.3425 75.9918L77.3437 75.9911L77.3448 75.9904L77.3459 75.9897L77.347 75.9891L77.3481 75.9884L77.3493 75.9877L77.3504 75.987L77.3515 75.9864L77.3526 75.9857L77.3538 75.985L77.3549 75.9843L77.356 75.9837L77.3571 75.983L77.3583 75.9823L77.3594 75.9816L77.3605 75.981L77.3616 75.9803L77.3627 75.9796L77.3639 75.9789L77.365 75.9783L77.3661 75.9776L77.3673 75.9769L77.3684 75.9762L77.3695 75.9756L77.3706 75.9749L77.3718 75.9742L77.3729 75.9735L77.374 75.9728L77.3751 75.9722L77.3763 75.9715L77.3774 75.9708L77.3785 75.9701L77.3797 75.9694L77.3808 75.9688L77.3819 75.9681L77.3831 75.9674L77.3842 75.9667L77.3853 75.966L77.3865 75.9654L77.3876 75.9647L77.3887 75.964L77.3899 75.9633L77.391 75.9626L77.3921 75.9619L77.3933 75.9613L77.3944 75.9606L77.3956 75.9599L77.3967 75.9592L77.3978 75.9585L77.399 75.9578L77.4001 75.9572L77.4013 75.9565L77.4024 75.9558L77.4035 75.9551L77.4047 75.9544L77.4058 75.9537L77.407 75.953L77.4081 75.9523L77.4093 75.9517L77.4104 75.951L77.4116 75.9503L77.4127 75.9496L77.4139 75.9489L77.415 75.9482L77.4162 75.9475L77.4173 75.9468L77.4185 75.9461L77.4196 75.9454L77.4208 75.9447L77.422 75.944L77.4231 75.9433L77.4243 75.9426L77.4254 75.9419L77.4266 75.9413L77.4278 75.9406L77.4289 75.9399L77.4301 75.9392L77.4312 75.9385L77.4324 75.9378L77.4336 75.9371L77.4347 75.9364L77.4359 75.9357L77.4371 75.9349L77.4382 75.9342L77.4394 75.9335L77.4406 75.9328L77.4418 75.9321L77.4429 75.9314L77.4441 75.9307L77.4453 75.93L77.4465 75.9293L77.4477 75.9286L77.4488 75.9279L77.45 75.9272L77.4512 75.9265L77.4524 75.9258L77.4536 75.925L77.4548 75.9243L77.4559 75.9236L77.4571 75.9229L77.4583 75.9222L77.4595 75.9215L77.4607 75.9208L77.4619 75.92L77.4631 75.9193L77.4643 75.9186L77.4655 75.9179L77.4667 75.9172L77.4679 75.9164L77.4691 75.9157L77.4703 75.915L77.4715 75.9143L77.4727 75.9135L77.4739 75.9128L77.4751 75.9121L77.4763 75.9114L77.4775 75.9106L77.4788 75.9099L77.48 75.9092L77.4812 75.9084L77.4824 75.9077L77.4836 75.907L77.4848 75.9062L77.4861 75.9055L77.4873 75.9048L77.4885 75.904L77.4897 75.9033L77.491 75.9026L77.4922 75.9018L77.4934 75.9011L77.4947 75.9003L77.4959 75.8996L77.4971 75.8989L77.4984 75.8981L77.4996 75.8974L77.5009 75.8966L77.5021 75.8959L77.5033 75.8951L77.5046 75.8944L77.5058 75.8936L77.5071 75.8929L77.5083 75.8921L77.5096 75.8914L77.5108 75.8906L77.5121 75.8899L77.5134 75.8891L77.5146 75.8884L77.5159 75.8876L77.5171 75.8868L77.5184 75.8861L77.5197 75.8853L77.521 75.8846L77.5222 75.8838L77.5235 75.883L77.5248 75.8823L77.526 75.8815L77.5273 75.8807L77.5286 75.88L77.5299 75.8792L77.5312 75.8784L77.5325 75.8776L77.5337 75.8769L77.535 75.8761L77.5363 75.8753L77.5376 75.8745L77.5389 75.8738L77.5402 75.873L77.5415 75.8722L77.5428 75.8714L77.5441 75.8706L77.5454 75.8698L77.5467 75.8691L77.5481 75.8683L77.5494 75.8675L77.5507 75.8667L77.552 75.8659L77.5533 75.8651L77.5546 75.8643L77.556 75.8635L77.5573 75.8627L77.5586 75.8619L77.5599 75.8611L77.5613 75.8603L77.5626 75.8595L77.5639 75.8587L77.5653 75.8579L77.5666 75.8571L77.568 75.8563L77.5693 75.8555L77.5707 75.8547L77.572 75.8539L77.5734 75.8531L77.5747 75.8522L77.5761 75.8514L77.5774 75.8506L77.5788 75.8498L77.5802 75.849L77.5815 75.8482L77.5829 75.8473L77.5843 75.8465L77.5856 75.8457L77.587 75.8449L77.5884 75.844L77.5898 75.8432L77.5912 75.8424L77.5925 75.8415L77.5939 75.8407L77.5953 75.8399L77.5967 75.839L77.5981 75.8382L77.5995 75.8374L77.6009 75.8365L77.6023 75.8357L77.6037 75.8348L77.6051 75.834L77.6065 75.8331L77.6079 75.8323L77.6094 75.8314L77.6108 75.8306L77.6122 75.8297L77.6136 75.8289L77.615 75.828L77.6165 75.8272L77.6179 75.8263L77.6193 75.8254L77.6208 75.8246L77.6222 75.8237L77.6237 75.8228L77.6251 75.822L77.6266 75.8211L77.628 75.8202L77.6295 75.8194L77.6309 75.8185L77.6324 75.8176L77.6338 75.8167L77.6353 75.8158L77.6368 75.815L77.6382 75.8141L77.6397 75.8132L77.6412 75.8123L77.6427 75.8114L77.6441 75.8105L77.6456 75.8096L77.6471 75.8087L77.6486 75.8079L77.6501 75.807L77.6587 75.8018L77.6669 75.7965C80.8664 73.7215 81.9702 70.9234 80.4927 68.3208C79.1416 65.9017 75.3565 64.5155 71.6399 63.3976L71.6317 63.3951L71.6234 63.3928C67.0157 62.1112 63.6186 60.8282 62.2581 58.1836C60.8904 55.5251 62.1478 53.3621 64.6189 50.7263C66.6456 48.6244 68.2024 46.1891 66.9927 43.7012L66.9814 43.678L66.964 43.656C65.0986 41.3078 61.3543 39.4758 56.8204 38.858C54.3347 38.5194 51.4709 38.5723 48.6377 39.0651C45.7815 39.5618 43.4874 40.4816 41.7585 41.6712C38.5639 43.7457 37.4625 46.5419 38.9391 49.1427C40.2901 51.5618 44.0753 52.948 47.7918 54.0659Z"
    fill="#5CC3C9" stroke="#0A6190" />
</svg>