<svg width="166" height="137" viewBox="0 0 166 137" fill="none" xmlns="http://www.w3.org/2000/svg">
  <g opacity="0.2">
    <g clip-path="url(#clip0_1165_888)">
      <path fill-rule="evenodd" clip-rule="evenodd"
        d="M127.822 112.472L115.537 119.626C108.975 123.431 99.9011 122.907 89.8845 117.113L89.8843 117.114C69.9906 105.631 53.9011 77.7799 53.9709 54.9196C54.0058 43.5418 58.0195 35.5494 64.5111 31.815L76.639 24.7519C76.6913 24.7211 76.7437 24.6905 76.7963 24.6603L76.639 24.7519C70.2399 28.5245 66.2908 36.4793 66.2562 47.7649C66.2213 70.6252 82.2758 98.4763 102.17 109.959L102.17 109.959C112.186 115.752 121.261 116.276 127.822 112.472Z"
        fill="#80BB53" />
      <path
        d="M115.537 119.626L115.789 120.058L115.788 120.059L115.537 119.626ZM127.822 112.472L127.571 112.039L128.074 112.904L127.822 112.472ZM89.8845 117.113L89.5715 116.723L89.8385 116.509L90.1348 116.681L89.8845 117.113ZM89.8843 117.114L90.1973 117.504L89.9305 117.718L89.6343 117.547L89.8843 117.114ZM53.9709 54.9196L53.4709 54.9181L53.4709 54.9181L53.9709 54.9196ZM64.5111 31.815L64.7627 32.2471L64.7604 32.2484L64.5111 31.815ZM76.7963 24.6603L76.547 24.2269L77.048 25.0923L76.7963 24.6603ZM66.2562 47.7649L65.7562 47.7641L65.7562 47.7633L66.2562 47.7649ZM102.17 109.959L102.48 110.351L102.214 110.562L101.92 110.392L102.17 109.959ZM102.17 109.959L101.859 109.567L102.126 109.356L102.42 109.526L102.17 109.959ZM115.285 119.194L127.57 112.039L128.074 112.904L115.789 120.058L115.285 119.194ZM90.1348 116.681C100.059 122.421 108.934 122.877 115.286 119.194L115.788 120.059C109.017 123.984 99.743 123.393 89.6342 117.546L90.1348 116.681ZM89.5713 116.724L89.5715 116.723L90.1975 117.503L90.1973 117.504L89.5713 116.724ZM54.4709 54.9212C54.4364 66.242 58.4063 78.8336 64.8743 90.0332C71.3422 101.233 80.2811 110.993 90.1342 116.681L89.6343 117.547C79.5938 111.751 70.5411 101.845 64.0083 90.5333C57.4756 79.2217 53.4357 66.4575 53.4709 54.9181L54.4709 54.9212ZM64.7604 32.2484C58.4776 35.8627 54.5055 43.6488 54.4709 54.9212L53.4709 54.9181C53.5062 43.4349 57.5613 35.2362 64.2618 31.3816L64.7604 32.2484ZM76.8906 25.184L64.7627 32.2471L64.2595 31.3829L76.3874 24.3198L76.8906 25.184ZM76.3851 24.3212C76.4389 24.2894 76.4929 24.258 76.547 24.2269L77.0456 25.0937C76.9946 25.123 76.9437 25.1527 76.893 25.1826L76.3851 24.3212ZM77.048 25.0923L76.8906 25.184L76.3874 24.3198L76.5447 24.2282L77.048 25.0923ZM65.7562 47.7633C65.7911 36.3732 69.7809 28.2147 76.3851 24.3212L76.8929 25.1826C70.699 28.8343 66.7905 36.5854 66.7562 47.7664L65.7562 47.7633ZM101.92 110.392C91.8789 104.596 82.8349 94.6902 76.3066 83.3785C69.7783 72.0668 65.7385 59.303 65.7562 47.7641L66.7562 47.7656C66.7389 59.087 70.709 71.6789 77.1727 82.8786C83.6363 94.0782 92.5664 103.839 102.419 109.526L101.92 110.392ZM102.48 110.35L102.48 110.351L101.859 109.567L101.859 109.567L102.48 110.35ZM128.073 112.904C121.303 116.829 112.028 116.238 101.919 110.391L102.42 109.526C112.345 115.266 121.219 115.722 127.571 112.039L128.073 112.904Z"
        fill="#0A6190" />
      <path fill-rule="evenodd" clip-rule="evenodd"
        d="M64.4643 31.8444L76.7495 24.6896C83.311 20.8854 92.3853 21.4089 102.402 27.2025L102.402 27.2026C122.295 38.6853 138.385 66.5362 138.315 89.3964C138.28 100.774 134.266 108.767 127.775 112.501L115.647 119.564C115.594 119.595 115.542 119.625 115.489 119.656L115.647 119.564C122.046 115.792 125.995 107.837 126.029 96.5511C126.064 73.6908 110.01 45.8397 90.1161 34.3572L90.1163 34.3571C80.0998 28.5636 71.0257 28.0402 64.4643 31.8444Z"
        fill="#80BB53" />
      <path
        d="M76.7495 24.6896L76.4979 24.2576L76.4987 24.2571L76.7495 24.6896ZM64.4643 31.8444L64.7151 32.2769L64.2127 31.4123L64.4643 31.8444ZM102.402 27.2025L102.652 26.7697L103.401 27.2026L102.652 27.6354L102.402 27.2025ZM102.402 27.2026L102.152 27.6357L101.402 27.203L102.151 26.7698L102.402 27.2026ZM138.315 89.3964L138.815 89.3979L138.815 89.3979L138.315 89.3964ZM127.775 112.501L127.523 112.069L127.525 112.068L127.775 112.501ZM115.489 119.656L115.739 120.089L115.238 119.224L115.489 119.656ZM126.029 96.5511L126.529 96.5519L126.529 96.5527L126.029 96.5511ZM90.1161 34.3572L89.8662 34.7902L89.1228 34.3612L89.8627 33.9262L90.1161 34.3572ZM90.1163 34.3571L90.3667 33.9242L91.1089 34.3535L90.3698 34.7881L90.1163 34.3571ZM77.0012 25.1217L64.7159 32.2764L64.2127 31.4123L76.4979 24.2576L77.0012 25.1217ZM102.152 27.6353C92.2271 21.895 83.3528 21.4391 77.0003 25.1222L76.4987 24.2571C83.2691 20.3317 92.5434 20.9228 102.652 26.7697L102.152 27.6353ZM102.151 26.7698L102.152 26.7696L102.652 27.6354L102.652 27.6355L102.151 26.7698ZM137.815 89.3949C137.849 78.0741 133.879 65.4826 127.411 54.283C120.944 43.0835 112.005 33.3229 102.152 27.6357L102.652 26.7696C112.692 32.565 121.745 42.4712 128.277 53.7829C134.81 65.0945 138.85 77.8586 138.815 89.3979L137.815 89.3949ZM127.525 112.068C133.808 108.453 137.78 100.667 137.815 89.3949L138.815 89.3979C138.779 100.881 134.724 109.08 128.024 112.934L127.525 112.068ZM115.395 119.132L127.523 112.069L128.026 112.933L115.898 119.996L115.395 119.132ZM115.901 119.995C115.847 120.027 115.793 120.058 115.739 120.089L115.24 119.222C115.291 119.193 115.342 119.163 115.393 119.133L115.901 119.995ZM115.238 119.224L115.395 119.132L115.898 119.996L115.741 120.088L115.238 119.224ZM126.529 96.5527C126.495 107.943 122.505 116.101 115.901 119.995L115.393 119.133C121.587 115.482 125.495 107.731 125.529 96.5496L126.529 96.5527ZM90.3661 33.9241C100.407 39.7195 109.451 49.6258 115.979 60.9376C122.507 72.2492 126.547 85.013 126.529 96.5519L125.529 96.5504C125.547 85.229 121.577 72.6371 115.113 61.4374C108.649 50.2378 99.7192 40.4773 89.8662 34.7902L90.3661 33.9241ZM90.3698 34.7881L90.3696 34.7882L89.8627 33.9262L89.8629 33.926L90.3698 34.7881ZM64.2135 31.4118C70.9838 27.4865 80.258 28.0775 90.3667 33.9242L89.866 34.7899C79.9417 29.0498 71.0675 28.5939 64.7151 32.2769L64.2135 31.4118Z"
        fill="#1A1B1D" />
      <path
        d="M76.7495 24.6896L76.4979 24.2576L76.4987 24.2571L76.7495 24.6896ZM64.4643 31.8444L64.7151 32.2769L64.2127 31.4123L64.4643 31.8444ZM102.402 27.2025L102.652 26.7697L103.401 27.2026L102.652 27.6354L102.402 27.2025ZM102.402 27.2026L102.152 27.6357L101.402 27.203L102.151 26.7698L102.402 27.2026ZM138.315 89.3964L138.815 89.3979L138.815 89.3979L138.315 89.3964ZM127.775 112.501L127.523 112.069L127.525 112.068L127.775 112.501ZM115.489 119.656L115.739 120.089L115.238 119.224L115.489 119.656ZM126.029 96.5511L126.529 96.5519L126.529 96.5527L126.029 96.5511ZM90.1161 34.3572L89.8662 34.7902L89.1228 34.3612L89.8627 33.9262L90.1161 34.3572ZM90.1163 34.3571L90.3667 33.9242L91.1089 34.3535L90.3698 34.7881L90.1163 34.3571ZM77.0012 25.1217L64.7159 32.2764L64.2127 31.4123L76.4979 24.2576L77.0012 25.1217ZM102.152 27.6353C92.2271 21.895 83.3528 21.4391 77.0003 25.1222L76.4987 24.2571C83.2691 20.3317 92.5434 20.9228 102.652 26.7697L102.152 27.6353ZM102.151 26.7698L102.152 26.7696L102.652 27.6354L102.652 27.6355L102.151 26.7698ZM137.815 89.3949C137.849 78.0741 133.879 65.4826 127.411 54.283C120.944 43.0835 112.005 33.3229 102.152 27.6357L102.652 26.7696C112.692 32.565 121.745 42.4712 128.277 53.7829C134.81 65.0945 138.85 77.8586 138.815 89.3979L137.815 89.3949ZM127.525 112.068C133.808 108.453 137.78 100.667 137.815 89.3949L138.815 89.3979C138.779 100.881 134.724 109.08 128.024 112.934L127.525 112.068ZM115.395 119.132L127.523 112.069L128.026 112.933L115.898 119.996L115.395 119.132ZM115.901 119.995C115.847 120.027 115.793 120.058 115.739 120.089L115.24 119.222C115.291 119.193 115.342 119.163 115.393 119.133L115.901 119.995ZM115.238 119.224L115.395 119.132L115.898 119.996L115.741 120.088L115.238 119.224ZM126.529 96.5527C126.495 107.943 122.505 116.101 115.901 119.995L115.393 119.133C121.587 115.482 125.495 107.731 125.529 96.5496L126.529 96.5527ZM90.3661 33.9241C100.407 39.7195 109.451 49.6258 115.979 60.9376C122.507 72.2492 126.547 85.013 126.529 96.5519L125.529 96.5504C125.547 85.229 121.577 72.6371 115.113 61.4374C108.649 50.2378 99.7192 40.4773 89.8662 34.7902L90.3661 33.9241ZM90.3698 34.7881L90.3696 34.7882L89.8627 33.9262L89.8629 33.926L90.3698 34.7881ZM64.2135 31.4118C70.9838 27.4865 80.258 28.0775 90.3667 33.9242L89.866 34.7899C79.9417 29.0498 71.0675 28.5939 64.7151 32.2769L64.2135 31.4118Z"
        fill="#1A1B1D" />
      <path
        d="M127.775 112.501C134.266 108.767 138.28 100.774 138.315 89.3965L126.03 96.5512C125.995 107.837 122.046 115.792 115.647 119.564L115.49 119.656C115.542 119.626 115.595 119.595 115.647 119.564L127.775 112.501Z"
        fill="#5B992B" />
      <path
        d="M115.647 119.564L127.775 112.501C134.266 108.767 138.28 100.774 138.315 89.3965L126.03 96.5512C125.995 107.837 122.046 115.792 115.647 119.564ZM115.647 119.564C115.595 119.595 115.542 119.626 115.49 119.656L115.647 119.564Z"
        stroke="#1A1B1D" />
      <path
        d="M64.5351 90.5365C50.4325 66.2715 50.389 39.9816 64.438 31.8164C78.487 23.6512 101.309 36.7027 115.411 60.9677C129.514 85.2327 129.557 111.523 115.508 119.688C101.459 127.853 78.6378 114.801 64.5351 90.5365Z"
        fill="#F5F7FA" fill-opacity="0.8" stroke="#1A1B1D" />
      <path
        d="M64.5351 90.5365C50.4325 66.2715 50.389 39.9816 64.438 31.8164C78.487 23.6512 101.309 36.7027 115.411 60.9677C129.514 85.2327 129.557 111.523 115.508 119.688C101.459 127.853 78.6378 114.801 64.5351 90.5365Z"
        stroke="#1A1B1D" />
      <path opacity="0.2" fill-rule="evenodd" clip-rule="evenodd"
        d="M113.117 120.843C124.972 111.324 124.214 86.5547 110.871 63.5975C97.5429 40.6651 76.4274 27.7484 62.2892 33.2912C62.9645 32.749 63.6808 32.2563 64.4379 31.8162C78.487 23.651 101.308 36.7025 115.411 60.9674C129.514 85.2324 129.557 111.522 115.508 119.688C114.737 120.136 113.939 120.52 113.117 120.843Z"
        fill="#0A6190" />
      <path fill-rule="evenodd" clip-rule="evenodd"
        d="M108.611 9.57186C108.463 14.9199 105.234 19.3521 100.925 20.7522C100.426 20.914 100.136 21.501 100.276 22.0633C100.415 22.6255 100.932 22.95 101.431 22.7882C106.505 21.1395 110.31 15.9229 110.484 9.62399C110.708 1.86164 105.337 -4.60857 98.4904 -4.81504C91.6422 -5.02154 85.9078 1.11782 85.6834 8.88096C85.5486 13.547 87.4335 17.7473 90.4417 20.3998C90.8484 20.7584 91.4374 20.6744 91.7573 20.2121C92.0773 19.7498 92.0069 19.0843 91.6002 18.7257C89.0413 16.4694 87.4417 12.9008 87.5562 8.9357C87.747 2.33593 92.6206 -2.8722 98.4277 -2.6971C104.236 -2.52196 108.802 2.97015 108.611 9.57026L108.611 9.57186Z"
        fill="#80BB53" />
      <path
        d="M100.925 20.7522L101.079 21.2277L100.925 20.7522ZM108.611 9.57186L108.111 9.55809L108.111 9.55772L108.611 9.57186ZM100.276 22.0633L99.7903 22.1839L100.276 22.0633ZM101.431 22.7882L101.585 23.2637L101.431 22.7882ZM110.484 9.62399L109.984 9.6102L109.984 9.60958L110.484 9.62399ZM98.4904 -4.81504L98.5055 -5.31481L98.4904 -4.81504ZM85.6834 8.88096L85.1836 8.86651L85.6834 8.88096ZM90.4417 20.3998L90.111 20.7749L90.4417 20.3998ZM91.7573 20.2121L91.3462 19.9275L91.7573 20.2121ZM91.6002 18.7257L91.9309 18.3507L91.6002 18.7257ZM87.5562 8.9357L88.056 8.95015L87.5562 8.9357ZM98.4277 -2.6971L98.4126 -2.19732L98.4277 -2.6971ZM108.611 9.57026L108.111 9.55612L108.111 9.55581L108.611 9.57026ZM100.77 20.2766C104.854 18.9498 107.969 14.7212 108.111 9.55809L109.111 9.58563C108.958 15.1185 105.613 19.7544 101.079 21.2277L100.77 20.2766ZM99.7903 22.1839C99.5978 21.4094 99.9826 20.5325 100.77 20.2766L101.079 21.2277C100.87 21.2956 100.674 21.5927 100.761 21.9426L99.7903 22.1839ZM101.585 23.2637C100.762 23.5311 99.987 22.9751 99.7903 22.1839L100.761 21.9426C100.844 22.2759 101.103 22.369 101.276 22.3126L101.585 23.2637ZM110.984 9.63778C110.805 16.1217 106.885 21.5418 101.585 23.2637L101.276 22.3126C106.125 20.7371 109.815 15.724 109.984 9.6102L110.984 9.63778ZM98.5055 -5.31481C105.686 -5.0983 111.214 1.66134 110.984 9.6384L109.984 9.60958C110.202 2.06194 104.989 -4.11885 98.4753 -4.31527L98.5055 -5.31481ZM85.1836 8.86651C85.4142 0.888564 91.3233 -5.53139 98.5055 -5.31481L98.4753 -4.31527C91.9611 -4.5117 86.4014 1.34707 86.1832 8.8954L85.1836 8.86651ZM90.111 20.7749C86.986 18.0194 85.0447 13.6738 85.1836 8.86651L86.1832 8.8954C86.0525 13.4202 87.8809 17.4752 90.7724 20.0248L90.111 20.7749ZM92.1685 20.4966C91.6899 21.1881 90.7574 21.3448 90.111 20.7749L90.7724 20.0248C90.9394 20.172 91.1849 20.1607 91.3462 19.9275L92.1685 20.4966ZM91.9309 18.3507C92.5384 18.8864 92.6244 19.8378 92.1685 20.4966L91.3462 19.9275C91.5301 19.6618 91.4754 19.2823 91.2696 19.1008L91.9309 18.3507ZM88.056 8.95015C87.9455 12.7741 89.4889 16.1974 91.9309 18.3507L91.2696 19.1008C88.5938 16.7414 86.9378 13.0275 87.0564 8.92126L88.056 8.95015ZM98.4126 -2.19732C92.9394 -2.36236 88.2405 2.56527 88.056 8.95015L87.0564 8.92126C87.2534 2.10659 92.3018 -3.38205 98.4427 -3.19687L98.4126 -2.19732ZM108.111 9.55581C108.296 3.17051 103.888 -2.03223 98.4126 -2.19732L98.4427 -3.19687C104.584 -3.01169 109.308 2.7698 109.111 9.5847L108.111 9.55581ZM108.111 9.55772L108.111 9.55612L109.111 9.5844L109.111 9.586L108.111 9.55772Z"
        fill="#1A1B1D" />
      <path
        d="M92.2998 18.5625L92.3019 29.6995C92.3041 30.1553 92.6044 30.6112 93.203 30.9605C94.4087 31.6614 96.3727 31.6614 97.5869 30.9605C98.1983 30.6069 98.5029 30.1447 98.5029 29.6824L98.5008 18.5454C98.5029 19.0077 98.1962 19.472 97.5848 19.8235C96.3706 20.5244 94.4066 20.5244 93.2009 19.8235C92.6002 19.4742 92.2998 19.0183 92.2998 18.5625Z"
        fill="#80BB53" stroke="#1A1B1D" />
      <path
        d="M93.2135 17.2842C91.9993 17.9851 91.9929 19.1226 93.1986 19.8234C94.4043 20.5243 96.3683 20.5243 97.5825 19.8234C98.7967 19.1226 98.8053 17.9851 97.5996 17.2842C96.3939 16.5834 94.4277 16.5813 93.2135 17.2842Z"
        fill="#80BB53" stroke="#1A1B1D" />
      <path
        d="M92.2998 18.5629L92.3019 29.6999C92.3041 30.1558 92.6044 30.6117 93.203 30.961C94.4087 31.6618 96.3727 31.6618 97.5869 30.961C98.1983 30.6074 98.5029 30.1452 98.5029 29.6829L98.5008 18.5459C98.5029 19.0081 98.1962 19.4725 97.5848 19.824C96.3706 20.5248 94.4066 20.5248 93.2009 19.824C92.6002 19.4747 92.2998 19.0188 92.2998 18.5629Z"
        fill="#80BB53" stroke="#1A1B1D" />
      <path opacity="0.2"
        d="M92.2998 15.3789L92.3019 26.5159C92.3041 26.9717 92.6044 27.4276 93.203 27.7769C94.4087 28.4778 96.3727 28.4778 97.5869 27.7769C98.1983 27.4233 98.5029 26.9611 98.5029 26.4988L98.5008 15.3618C98.5029 15.8241 98.1962 16.2884 97.5848 16.6399C96.3706 17.3408 94.4066 17.3408 93.2009 16.6399C92.6002 16.2906 92.2998 15.8347 92.2998 15.3789Z"
        fill="#0A6190" />
      <path
        d="M92.2998 18.5625L92.3019 29.6995C92.3041 30.1553 92.6044 30.6112 93.203 30.9605C94.4087 31.6614 96.3727 31.6614 97.5869 30.9605C98.1983 30.6069 98.5029 30.1447 98.5029 29.6824L98.5008 18.5454C98.5029 19.0077 98.1962 19.472 97.5848 19.8235C96.3706 20.5244 94.4066 20.5244 93.2009 19.8235C92.6002 19.4742 92.2998 19.0183 92.2998 18.5625Z"
        stroke="#1A1B1D" />
      <path
        d="M86.9531 15.5948L86.9589 21.0568C86.9647 22.2986 87.7829 23.5404 89.4135 24.4921C92.6979 26.4012 98.0482 26.4012 101.356 24.4921C103.021 23.5288 103.851 22.2696 103.851 21.0103L103.845 15.5483C103.851 16.8076 103.015 18.0726 101.35 19.0301C98.0424 20.9392 92.6921 20.9392 89.4077 19.0301C87.7713 18.0784 86.9531 16.8366 86.9531 15.5948Z"
        fill="#80BB53" stroke="#1A1B1D" stroke-linejoin="round" />
      <path
        d="M89.4458 12.0913C86.1381 14.0004 86.1207 17.0992 89.4051 19.0083C92.6896 20.9174 98.0398 20.9174 101.347 19.0083C104.655 17.0992 104.678 14.0004 101.394 12.0913C98.1095 10.1821 92.7534 10.1763 89.4458 12.0913Z"
        fill="#F5F6F6" stroke="#1A1B1D" />
      <mask id="mask0_1165_888" style="mask-type:alpha" maskUnits="userSpaceOnUse" x="94" y="10"
        width="11" height="17">
        <path
          d="M101.356 24.6602C103.021 23.6969 103.851 22.4377 103.851 21.1784L103.845 15.5688C103.845 15.5621 103.845 15.5554 103.845 15.5486L103.845 15.5688C103.842 16.8214 103.007 18.078 101.35 19.0304C99.5962 20.0426 97.2682 21.5894 94.9783 21.5282V26.0866C97.2701 26.1488 99.6006 25.6733 101.356 24.6602Z"
          fill="#D9D9D9" />
        <path
          d="M101.356 24.6602L101.606 25.093L101.606 25.0932L101.356 24.6602ZM103.851 21.1784L104.351 21.1779V21.1784H103.851ZM103.845 15.5486L103.345 15.5491C103.345 15.2733 103.568 15.0494 103.844 15.0486C104.12 15.0478 104.344 15.2705 104.345 15.5463L103.845 15.5486ZM101.35 19.0304L101.1 18.5973L101.101 18.5969L101.35 19.0304ZM101.394 12.0913L101.142 12.5235L101.394 12.0913ZM94.9783 10.664H94.4783V10.1789L94.9631 10.1642L94.9783 10.664ZM94.9783 26.0866L94.9648 26.5865L94.4783 26.5733V26.0866H94.9783ZM101.105 24.2274C102.68 23.3168 103.351 22.1964 103.351 21.1784H104.351C104.351 22.6789 103.363 24.077 101.606 25.093L101.105 24.2274ZM103.351 21.179L103.345 15.5694L104.345 15.5683L104.351 21.1779L103.351 21.179ZM103.345 15.5694L103.345 15.5491L104.345 15.5481L104.345 15.5683L103.345 15.5694ZM104.345 15.5463C104.345 15.5543 104.345 15.5622 104.345 15.5701L103.345 15.5676C103.345 15.562 103.345 15.5565 103.345 15.5509L104.345 15.5463ZM104.345 15.5701C104.341 17.0642 103.347 18.4592 101.599 19.4638L101.101 18.5969C102.666 17.6968 103.343 16.5785 103.345 15.5676L104.345 15.5701ZM101.097 18.5753C102.66 17.673 103.335 16.5586 103.342 15.5463C103.349 14.5358 102.692 13.4243 101.142 12.5235L101.645 11.659C103.38 12.6674 104.353 14.0598 104.342 15.5533C104.332 17.0449 103.342 18.4344 101.597 19.4413L101.097 18.5753ZM101.142 12.5235C99.4862 11.5609 97.236 11.0957 94.9935 11.1637L94.9631 10.1642C97.3423 10.092 99.7887 10.5801 101.645 11.659L101.142 12.5235ZM94.9919 25.5868C97.2156 25.6471 99.4493 25.1833 101.106 24.2271L101.606 25.0932C99.7518 26.1633 97.3245 26.6505 94.9648 26.5865L94.9919 25.5868ZM95.4783 10.664V21.5282H94.4783V10.664H95.4783ZM95.4783 21.5282V26.0866H94.4783V21.5282H95.4783ZM101.6 19.4634C100.744 19.9573 99.6901 20.6173 98.576 21.1352C97.4587 21.6547 96.2219 22.0616 94.965 22.028L94.9917 21.0284C96.0246 21.056 97.0968 20.7201 98.1544 20.2284C99.2153 19.7352 100.202 19.1157 101.1 18.5973L101.6 19.4634Z"
          fill="#0056B3" />
      </mask>
      <g mask="url(#mask0_1165_888)">
        <path fill-rule="evenodd" clip-rule="evenodd"
          d="M108.61 9.57186C108.463 14.9199 105.233 19.3521 100.924 20.7522C100.426 20.914 100.135 21.501 100.275 22.0633C100.415 22.6255 100.932 22.95 101.43 22.7882C106.504 21.1395 110.309 15.9229 110.483 9.62399C110.707 1.86164 105.337 -4.60857 98.4899 -4.81504C91.6417 -5.02154 85.9073 1.11782 85.683 8.88096C85.5481 13.547 87.433 17.7473 90.4412 20.3998C90.8479 20.7584 91.4369 20.6744 91.7568 20.2121C92.0768 19.7498 92.0064 19.0843 91.5998 18.7257C89.0408 16.4694 87.4412 12.9008 87.5557 8.9357C87.7465 2.33593 92.6201 -2.8722 98.4272 -2.6971C104.235 -2.52196 108.801 2.97015 108.61 9.57026L108.61 9.57186Z"
          fill="#80BB53" />
        <path
          d="M100.924 20.7522L101.079 21.2277L100.924 20.7522ZM108.61 9.57186L108.111 9.55809L108.111 9.55772L108.61 9.57186ZM100.275 22.0633L99.7898 22.1839L100.275 22.0633ZM101.43 22.7882L101.585 23.2637L101.43 22.7882ZM110.483 9.62399L109.983 9.6102L109.983 9.60958L110.483 9.62399ZM98.4899 -4.81504L98.505 -5.31481L98.4899 -4.81504ZM85.683 8.88096L85.1832 8.86651L85.683 8.88096ZM90.4412 20.3998L90.1105 20.7749L90.4412 20.3998ZM91.7568 20.2121L91.3457 19.9275L91.7568 20.2121ZM91.5998 18.7257L91.9304 18.3507L91.5998 18.7257ZM87.5557 8.9357L88.0555 8.95015L87.5557 8.9357ZM98.4272 -2.6971L98.4121 -2.19732L98.4272 -2.6971ZM108.61 9.57026L108.111 9.55612L108.111 9.55581L108.61 9.57026ZM100.77 20.2766C104.853 18.9498 107.968 14.7212 108.111 9.55809L109.11 9.58563C108.958 15.1185 105.613 19.7544 101.079 21.2277L100.77 20.2766ZM99.7898 22.1839C99.5973 21.4094 99.9822 20.5325 100.77 20.2766L101.079 21.2277C100.87 21.2956 100.673 21.5927 100.76 21.9426L99.7898 22.1839ZM101.585 23.2637C100.762 23.5311 99.9865 22.9751 99.7898 22.1839L100.76 21.9426C100.843 22.2759 101.102 22.369 101.276 22.3126L101.585 23.2637ZM110.983 9.63778C110.804 16.1217 106.884 21.5418 101.585 23.2637L101.276 22.3126C106.125 20.7371 109.815 15.724 109.983 9.6102L110.983 9.63778ZM98.505 -5.31481C105.685 -5.0983 111.213 1.66134 110.983 9.6384L109.983 9.60958C110.201 2.06194 104.989 -4.11885 98.4748 -4.31527L98.505 -5.31481ZM85.1832 8.86651C85.4137 0.888564 91.3229 -5.53139 98.505 -5.31481L98.4748 -4.31527C91.9606 -4.5117 86.4009 1.34707 86.1827 8.8954L85.1832 8.86651ZM90.1105 20.7749C86.9855 18.0194 85.0442 13.6738 85.1832 8.86651L86.1827 8.8954C86.052 13.4202 87.8804 17.4752 90.7719 20.0248L90.1105 20.7749ZM92.168 20.4966C91.6895 21.1881 90.7569 21.3448 90.1105 20.7749L90.7719 20.0248C90.9389 20.172 91.1844 20.1607 91.3457 19.9275L92.168 20.4966ZM91.9304 18.3507C92.5379 18.8864 92.6239 19.8378 92.168 20.4966L91.3457 19.9275C91.5296 19.6618 91.4749 19.2823 91.2691 19.1008L91.9304 18.3507ZM88.0555 8.95015C87.945 12.7741 89.4884 16.1974 91.9304 18.3507L91.2691 19.1008C88.5933 16.7414 86.9373 13.0275 87.056 8.92126L88.0555 8.95015ZM98.4121 -2.19732C92.9389 -2.36236 88.24 2.56527 88.0555 8.95015L87.056 8.92126C87.2529 2.10659 92.3013 -3.38205 98.4422 -3.19687L98.4121 -2.19732ZM108.111 9.55581C108.295 3.17051 103.887 -2.03223 98.4121 -2.19732L98.4422 -3.19687C104.583 -3.01169 109.307 2.7698 109.11 9.5847L108.111 9.55581ZM108.111 9.55772L108.111 9.55612L109.11 9.5844L109.11 9.586L108.111 9.55772Z"
          fill="#1A1B1D" />
      </g>
      <path
        d="M121.725 42.2463L115.656 48.3171C115.409 48.5667 115.324 48.9788 115.46 49.4954C115.735 50.5344 116.806 51.6048 117.849 51.8846C118.375 52.0251 118.793 51.9392 119.045 51.6873L125.114 45.6165C124.863 45.8696 124.443 45.9555 123.918 45.8139C122.874 45.5341 121.804 44.4637 121.529 43.4247C121.392 42.9069 121.476 42.4948 121.725 42.2463Z"
        fill="#EC9C00" stroke="#1A1B1D" />
      <path
        d="M121.725 42.2463L115.656 48.3171C115.409 48.5667 115.324 48.9788 115.46 49.4954C115.735 50.5344 116.806 51.6048 117.849 51.8846C118.375 52.0251 118.793 51.9392 119.045 51.6873L125.114 45.6165C124.863 45.8696 124.443 45.9555 123.918 45.8139C122.874 45.5341 121.804 44.4637 121.529 43.4247C121.392 42.9069 121.476 42.4948 121.725 42.2463Z"
        stroke="#1A1B1D" />
      <path
        d="M120.429 37.7164L117.455 40.6963C116.782 41.3763 116.551 42.499 116.921 43.9063C117.67 46.7367 120.586 49.6526 123.429 50.4148C124.862 50.7974 126.001 50.5634 126.687 49.8771L129.66 46.8972C128.977 47.5867 127.832 47.8207 126.403 47.4349C123.56 46.6727 120.644 43.7568 119.895 40.9264C119.521 39.5159 119.752 38.3932 120.429 37.7164Z"
        fill="#EC9C00" stroke="#1A1B1D" stroke-linejoin="round" />
      <path
        d="M123.696 37.1648C120.853 36.4026 119.155 38.0819 119.904 40.9124C120.654 43.7428 123.569 46.6587 126.413 47.4208C129.256 48.183 130.957 46.5069 130.208 43.6764C129.458 40.8459 126.542 37.9238 123.696 37.1648Z"
        fill="#FFB422" stroke="#1A1B1D" />
      <path opacity="0.2"
        d="M71.1658 52.7761C70.7028 52.5116 70.2398 52.4785 69.9091 52.71C69.38 53.1068 69.347 54.1319 69.8761 55.1571L83.4343 82.439C83.732 83.0673 84.1288 83.6625 84.5587 84.2578C85.5177 85.5474 86.6089 86.5726 87.7002 87.2009C89.0561 87.9945 90.4449 88.193 91.4701 87.6969C93.9833 86.4734 93.8841 81.9429 91.4039 78.0408C91.1725 77.677 90.941 77.3463 90.6764 77.0157L72.0255 53.5367C71.761 53.206 71.4634 52.9415 71.1658 52.7761Z"
        fill="#0A6190" />
      <path
        d="M70.8956 49.421L73.1958 48.0737C73.5265 47.9084 73.9564 47.9414 74.3863 48.206L74.37 48.2155C74.6619 48.3814 74.9533 48.6422 75.2129 48.9666L93.8639 72.4455L91.549 73.8013L72.8982 50.3225C72.6337 49.9918 72.336 49.7273 72.0384 49.5619L72.0553 49.552C71.6371 49.2995 71.2201 49.2355 70.8956 49.421Z"
        fill="#80BB53" />
      <path d="M92.5411 84.3506L92.5915 84.321C92.5749 84.331 92.5581 84.3409 92.5411 84.3506Z"
        fill="#80BB53" />
      <path
        d="M94.8559 82.9947L92.5915 84.321C94.8534 82.9635 94.6729 78.6018 92.2766 74.8267C92.0451 74.4629 91.8136 74.132 91.549 73.8013L93.8639 72.4455C94.1284 72.7762 94.3599 73.1071 94.5583 73.4709C97.0054 77.2738 97.1708 81.672 94.8559 82.9947Z"
        fill="#80BB53" />
      <path
        d="M93.8639 72.4455L75.2129 48.9666C74.9533 48.6422 74.6619 48.3814 74.37 48.2155L74.3863 48.206C73.9564 47.9414 73.5265 47.9084 73.1958 48.0737L70.8956 49.421C71.2201 49.2355 71.6371 49.2995 72.0553 49.552L72.0384 49.5619C72.336 49.7273 72.6337 49.9918 72.8982 50.3225L91.549 73.8013M93.8639 72.4455L91.549 73.8013M93.8639 72.4455C94.1284 72.7762 94.3599 73.1071 94.5583 73.4709C97.0054 77.2738 97.1708 81.672 94.8559 82.9947L92.5915 84.321M91.549 73.8013C91.8136 74.132 92.0451 74.463 92.2766 74.8267C94.6729 78.6018 94.8534 82.9635 92.5915 84.321M92.5915 84.321L92.5411 84.3506C92.5581 84.3409 92.5749 84.331 92.5915 84.321Z"
        stroke="#1A1B1D" stroke-linejoin="round" />
      <path
        d="M72.0388 49.5618C71.5758 49.2972 71.1129 49.2641 70.7822 49.4956C70.2531 49.8924 70.22 50.9176 70.7491 51.9427L84.3074 79.2246C84.605 79.8529 85.0018 80.4482 85.4317 81.0434C86.3907 82.3331 87.482 83.3582 88.5733 83.9865C89.9291 84.7802 91.318 84.9786 92.3431 84.4826C94.8564 83.259 94.7572 78.7286 92.277 74.8264C92.0455 74.4627 91.814 74.132 91.5495 73.8013L72.8986 50.3223C72.634 49.9917 72.3364 49.7271 72.0388 49.5618Z"
        fill="#F5F6F6" stroke="#1A1B1D" stroke-linejoin="round" />
      <path
        d="M87.9903 79.0944C87.3108 77.9253 87.3087 76.6586 87.9856 76.2652C88.6625 75.8718 89.7621 76.5006 90.4416 77.6697C91.121 78.8389 91.1231 80.1055 90.4462 80.499C89.7693 80.8924 88.6698 80.2635 87.9903 79.0944Z"
        fill="#80BB53" stroke="#1A1B1D" />
      <path
        d="M64.5351 90.5365C50.4325 66.2715 50.389 39.9816 64.438 31.8164C78.4871 23.6512 101.309 36.7027 115.411 60.9677C129.514 85.2327 129.557 111.523 115.508 119.688C101.459 127.853 78.6378 114.801 64.5351 90.5365Z"
        stroke="#1A1B1D" />
      <g opacity="0.2">
        <ellipse cx="2.20301" cy="2.20301" rx="2.20301" ry="2.20301"
          transform="matrix(-7.53992e-05 -1 -0.866025 -0.5 120.977 96.6274)" fill="#0A6190" />
        <ellipse cx="2.20301" cy="2.20301" rx="2.20301" ry="2.20301"
          transform="matrix(-7.53992e-05 -1 -0.866025 -0.5 62.7866 63.0317)" fill="#0A6190" />
        <ellipse cx="2.20301" cy="2.20301" rx="2.20301" ry="2.20301"
          transform="matrix(-0.866025 -0.5 7.53992e-05 1 91.8779 41.8276)" fill="#0A6190" />
        <ellipse cx="2.20301" cy="2.20301" rx="2.20301" ry="2.20301"
          transform="matrix(-0.866025 -0.5 7.53992e-05 1 91.8838 109.02)" fill="#0A6190" />
      </g>
    </g>
  </g>
  <defs>
    <clipPath id="clip0_1165_888">
      <path d="M0 0H150C158.837 0 166 7.16344 166 16V137H0V0Z" fill="white" />
    </clipPath>
  </defs>
</svg>