<svg width="109" height="36" viewBox="0 0 109 36" fill="none" xmlns="http://www.w3.org/2000/svg">
    <g id="n">
        <path
            d="M20.3007 7.83423C14.3633 7.83423 10.3779 11.3029 10.3779 17.9995V22.7592C10.947 22.4768 11.598 22.3153 12.2891 22.3153C12.9802 22.3153 13.6312 22.4768 14.2413 22.7592V17.9589C14.2413 13.6025 16.6405 11.3841 20.3007 11.3841C23.961 11.3841 26.3602 13.6025 26.3602 17.9589V28.4066H30.2235V17.9589C30.2645 11.2227 26.2382 7.83423 20.3007 7.83423Z"
            fill="#1A1B1D" />
        <path class="colour"
            d="M1.6757 19.3311C1.18768 19.5728 0.740612 19.9761 0.414645 20.5011C0.0895904 21.0253 -0.032416 21.59 0.00764659 22.1547C0.0486185 23.1633 0.617693 24.0907 1.55279 24.6149C2.40686 25.0984 3.38294 24.9775 4.31804 24.7763C5.45708 24.494 6.43315 24.3731 7.44931 24.9784H7.49028C9.23937 25.987 9.23937 28.5283 7.49028 29.536H7.44931C6.43226 30.1412 5.45619 30.0203 4.31804 29.7381C3.42299 29.4963 2.44691 29.3754 1.55279 29.8997C0.617693 30.4238 0.0886811 31.3917 0.00764659 32.3596C-0.0333289 32.9243 0.0886811 33.4891 0.414645 34.0132C0.739699 34.5376 1.1467 34.9407 1.6757 35.1833C2.57075 35.6271 3.66882 35.6271 4.60392 35.103C5.458 34.6196 5.86499 33.6913 6.10902 32.8034C6.43407 31.6742 6.80009 30.7863 7.85811 30.2215C8.87515 29.6163 9.85122 29.7381 10.9894 30.0203C11.8844 30.2622 12.8605 30.3831 13.7546 29.859C14.6897 29.3348 15.2187 28.3668 15.2998 27.3988V26.9956C15.2588 25.987 14.6897 25.0596 13.7546 24.5355C12.9006 24.051 11.9245 24.1728 10.9894 24.374C9.85034 24.6564 8.87427 24.7772 7.85811 24.1719C6.84106 23.5666 6.43499 22.7195 6.10902 21.59C5.86499 20.7023 5.458 19.8155 4.60392 19.2905C3.66882 18.8872 2.57075 18.8872 1.6757 19.3311Z"
            fill="#014063" />
    </g>
    <g id="eo4j">
        <path
            d="M32.3388 18.3622C32.3388 12.271 36.812 7.7937 43.1566 7.7937C49.5013 7.7937 53.8935 12.271 53.8935 18.3622V19.774H36.4462C37.0151 23.3637 39.6995 25.3402 43.1966 25.3402C45.8 25.3402 47.6299 24.5337 48.8092 22.7989H53.0794C51.5343 26.55 47.8741 28.9298 43.1966 28.9298C36.8523 28.9298 32.3379 24.4525 32.3379 18.3613L32.3388 18.3622ZM49.8671 16.345C49.094 13.1181 46.451 11.3833 43.1977 11.3833C39.9443 11.3833 37.3413 13.1578 36.5689 16.345H49.8682H49.8671Z"
            fill="#1A1B1D" />
        <path
            d="M56.0098 18.3622C56.0098 12.271 60.4831 7.7937 66.8277 7.7937C73.172 7.7937 77.6453 12.271 77.6453 18.3622C77.6453 24.4534 73.172 28.9307 66.8277 28.9307C60.4831 28.9307 56.0098 24.4534 56.0098 18.3622ZM73.7819 18.3622C73.7819 14.2882 71.0169 11.3842 66.8684 11.3842C62.7202 11.3842 59.9548 14.2882 59.9548 18.3622C59.9548 22.4363 62.7202 25.3402 66.8684 25.3402C71.0169 25.3402 73.7819 22.4363 73.7819 18.3622Z"
            fill="#1A1B1D" />
        <path
            d="M99.7676 32.4003H100.215C102.696 32.4003 103.631 31.3115 103.631 28.4472V8.48022H107.494V28.2054C107.494 33.1673 105.542 35.7085 100.581 35.7085H99.7676V32.4014V32.4003Z"
            fill="#1A1B1D" />
        <path
            d="M97.8574 30.3426H93.993V25.583H84.1923C82.2399 25.583 80.532 24.615 79.759 23.0822C79.0269 21.6298 79.23 19.9356 80.2879 18.5238L89.1128 7.02783C90.3738 5.33361 92.5289 4.64799 94.5219 5.29302C96.5553 5.93805 97.8574 7.75314 97.8574 9.8912V22.1936H100.784V25.6227H97.8574V30.3419V30.3426ZM83.5013 20.6212C83.3792 20.7827 83.3382 20.9839 83.3382 21.1859C83.3382 21.7101 83.785 22.1539 84.3143 22.1539H93.993V9.77033C93.993 9.1253 93.5051 8.88264 93.302 8.84292C93.221 8.80233 93.0989 8.80233 92.9358 8.80233C92.692 8.80233 92.4068 8.88264 92.163 9.20558L83.5013 20.6212Z"
            fill="#1A1B1D" />
        <path
            class="colour"
            d="M105.579 0.291504C103.749 0.291504 102.285 1.78363 102.285 3.59963C102.285 5.41563 103.79 6.90688 105.579 6.90688C107.368 6.90688 108.874 5.41472 108.874 3.59963C108.874 1.78454 107.368 0.291504 105.579 0.291504Z"
            fill="#014063" />
    </g>

</svg>