<svg width="24" height="27" viewBox="0 0 24 27" fill="none" xmlns="http://www.w3.org/2000/svg">
  <path
    d="M15.4765 5.75024C10.9501 5.75024 7.91187 8.39461 7.91187 13.4997V17.1282C8.3457 16.913 8.842 16.7898 9.36884 16.7898C9.8957 16.7898 10.392 16.913 10.8571 17.1282V13.4688C10.8571 10.1477 12.6861 8.4565 15.4765 8.4565C18.2669 8.4565 20.0959 10.1477 20.0959 13.4688V21.4335H23.0411V13.4688C23.0723 8.33341 20.0029 5.75024 15.4765 5.75024Z"
    fill="#1A1B1D" />
  <path
    d="M1.27746 14.5149C0.90542 14.6992 0.564603 15.0066 0.316103 15.4069C0.0682989 15.8064 -0.0247122 16.237 0.00582935 16.6675C0.0370641 17.4364 0.470896 18.1434 1.18376 18.5429C1.83486 18.9116 2.57897 18.8194 3.29184 18.666C4.16018 18.4508 4.90429 18.3586 5.67895 18.8201H5.71019C7.0436 19.589 7.0436 21.5264 5.71019 22.2946H5.67895C4.90361 22.7559 4.15951 22.6637 3.29184 22.4486C2.6095 22.2643 1.8654 22.1721 1.18376 22.5718C0.470896 22.9714 0.0676057 23.7092 0.00582935 24.4471C-0.0254081 24.8776 0.0676057 25.3082 0.316103 25.7077C0.563907 26.1075 0.874183 26.4148 1.27746 26.5998C1.9598 26.9381 2.79691 26.9381 3.50978 26.5386C4.16088 26.17 4.47115 25.4624 4.65719 24.7854C4.90499 23.9246 5.18402 23.2477 5.9906 22.8171C6.76594 22.3558 7.51004 22.4486 8.37771 22.6637C9.06005 22.8481 9.80415 22.9404 10.4858 22.5408C11.1987 22.1412 11.6019 21.4032 11.6637 20.6653V20.3579C11.6325 19.589 11.1987 18.882 10.4858 18.4824C9.83469 18.1131 9.09058 18.206 8.37771 18.3593C7.50937 18.5746 6.76526 18.6667 5.9906 18.2053C5.21526 17.7438 4.90569 17.098 4.65719 16.237C4.47115 15.5602 4.16088 14.8842 3.50978 14.4839C2.79691 14.1765 1.9598 14.1765 1.27746 14.5149Z"
    fill="#0A6190" />
</svg>