<svg xmlns="http://www.w3.org/2000/svg" width="966.172607421875" height="468.6936950683594" viewBox="-609.1852416992188 -258.2607421875 966.172607421875 468.6936950683594"><title>Neo4j Graph Visualization</title><desc>Created using Neo4j (http://www.neo4j.com/)</desc><g class="layer relationships"><g class="relationship" transform="translate(115.192254023498 -16.18313000625347) rotate(447.2483081955078)"><path class="b-outline" fill="#A5ABB6" stroke="none" d="M 25 0.5 L 79.16230857467343 0.5 L 79.16230857467343 -0.5 L 25 -0.5 Z M 111.68183982467343 0.5 L 165.84414839934686 0.5 L 165.84414839934686 3.5 L 172.84414839934686 0 L 165.84414839934686 -3.5 L 165.84414839934686 -0.5 L 111.68183982467343 -0.5 Z"/><text text-anchor="middle" pointer-events="none" font-size="8px" fill="#000000" x="95.42207419967343" y="3" font-family="Helvetica Neue, Helvetica, Arial, sans-serif">RATED</text></g><g class="relationship" transform="translate(115.192254023498 -16.18313000625347) rotate(475.3460411234197)"><path class="b-outline" fill="#A5ABB6" stroke="none" d="M 25 0.5 L 84.5586500580944 0.5 L 84.5586500580944 -0.5 L 25 -0.5 Z M 117.0781813080944 0.5 L 176.6368313661888 0.5 L 176.6368313661888 3.5 L 183.6368313661888 0 L 176.6368313661888 -3.5 L 176.6368313661888 -0.5 L 117.0781813080944 -0.5 Z"/><text text-anchor="middle" pointer-events="none" font-size="8px" fill="#000000" x="100.8184156830944" y="3" transform="rotate(180 100.8184156830944 0)" font-family="Helvetica Neue, Helvetica, Arial, sans-serif">RATED</text></g><g class="relationship" transform="translate(115.192254023498 -16.18313000625347) rotate(393.003882660422)"><path class="b-outline" fill="#A5ABB6" stroke="none" d="M 25 0.5 L 76.57673971955707 0.5 L 76.57673971955707 -0.5 L 25 -0.5 Z M 109.09627096955707 0.5 L 160.67301068911414 0.5 L 160.67301068911414 3.5 L 167.67301068911414 0 L 160.67301068911414 -3.5 L 160.67301068911414 -0.5 L 109.09627096955707 -0.5 Z"/><text text-anchor="middle" pointer-events="none" font-size="8px" fill="#000000" x="92.83650534455707" y="3" font-family="Helvetica Neue, Helvetica, Arial, sans-serif">RATED</text></g><g class="relationship" transform="translate(115.192254023498 -16.18313000625347) rotate(466.8219556372203)"><path class="b-outline" fill="#A5ABB6" stroke="none" d="M 25 0.5 L 38.2349682377254 0.5 L 38.2349682377254 -0.5 L 25 -0.5 Z M 70.7544994877254 0.5 L 83.9894677254508 0.5 L 83.9894677254508 3.5 L 90.9894677254508 0 L 83.9894677254508 -3.5 L 83.9894677254508 -0.5 L 70.7544994877254 -0.5 Z"/><text text-anchor="middle" pointer-events="none" font-size="8px" fill="#000000" x="54.4947338627254" y="3" transform="rotate(180 54.4947338627254 0)" font-family="Helvetica Neue, Helvetica, Arial, sans-serif">RATED</text></g><g class="relationship" transform="translate(115.192254023498 -16.18313000625347) rotate(417.64339957850405)"><path class="b-outline" fill="#A5ABB6" stroke="none" d="M 25 0.5 L 40.33228812181117 0.5 L 40.33228812181117 -0.5 L 25 -0.5 Z M 72.85181937181116 0.5 L 88.18410749362234 0.5 L 88.18410749362234 3.5 L 95.18410749362234 0 L 88.18410749362234 -3.5 L 88.18410749362234 -0.5 L 72.85181937181116 -0.5 Z"/><text text-anchor="middle" pointer-events="none" font-size="8px" fill="#000000" x="56.59205374681117" y="3" font-family="Helvetica Neue, Helvetica, Arial, sans-serif">RATED</text></g><g class="relationship" transform="translate(115.192254023498 -16.18313000625347) rotate(365.8731005379365)"><path class="b-outline" fill="#A5ABB6" stroke="none" d="M 25 0.5 L 87.19919328088083 0.5 L 87.19919328088083 -0.5 L 25 -0.5 Z M 119.71872453088083 0.5 L 181.91791781176167 0.5 L 181.91791781176167 3.5 L 188.91791781176167 0 L 181.91791781176167 -3.5 L 181.91791781176167 -0.5 L 119.71872453088083 -0.5 Z"/><text text-anchor="middle" pointer-events="none" font-size="8px" fill="#000000" x="103.45895890588083" y="3" font-family="Helvetica Neue, Helvetica, Arial, sans-serif">RATED</text></g><g class="relationship" transform="translate(115.192254023498 -16.18313000625347) rotate(420.25619413571593)"><path class="b-outline" fill="#A5ABB6" stroke="none" d="M 25 0.5 L 88.20087979691093 0.5 L 88.20087979691093 -0.5 L 25 -0.5 Z M 120.72041104691093 0.5 L 183.92129084382185 0.5 L 183.92129084382185 3.5 L 190.92129084382185 0 L 183.92129084382185 -3.5 L 183.92129084382185 -0.5 L 120.72041104691093 -0.5 Z"/><text text-anchor="middle" pointer-events="none" font-size="8px" fill="#000000" x="104.46064542191093" y="3" font-family="Helvetica Neue, Helvetica, Arial, sans-serif">RATED</text></g><g class="relationship" transform="translate(115.192254023498 -16.18313000625347) rotate(368.52501279126557)"><path class="b-outline" fill="#A5ABB6" stroke="none" d="M 25 0.5 L 38.702209951607635 0.5 L 38.702209951607635 -0.5 L 25 -0.5 Z M 71.22174120160764 0.5 L 84.92395115321527 0.5 L 84.92395115321527 3.5 L 91.92395115321527 0 L 84.92395115321527 -3.5 L 84.92395115321527 -0.5 L 71.22174120160764 -0.5 Z"/><text text-anchor="middle" pointer-events="none" font-size="8px" fill="#000000" x="54.961975576607635" y="3" font-family="Helvetica Neue, Helvetica, Arial, sans-serif">RATED</text></g><g class="relationship" transform="translate(115.192254023498 -16.18313000625347) rotate(502.85794257406604)"><path class="b-outline" fill="#A5ABB6" stroke="none" d="M 25 0.5 L 83.5973791029838 0.5 L 83.5973791029838 -0.5 L 25 -0.5 Z M 116.1169103529838 0.5 L 174.7142894559676 0.5 L 174.7142894559676 3.5 L 181.7142894559676 0 L 174.7142894559676 -3.5 L 174.7142894559676 -0.5 L 116.1169103529838 -0.5 Z"/><text text-anchor="middle" pointer-events="none" font-size="8px" fill="#000000" x="99.8571447279838" y="3" transform="rotate(180 99.8571447279838 0)" font-family="Helvetica Neue, Helvetica, Arial, sans-serif">RATED</text></g><g class="relationship" transform="translate(115.192254023498 -16.18313000625347) rotate(338.801232377671)"><path class="b-outline" fill="#A5ABB6" stroke="none" d="M 25 0.5 L 70.32574779433233 0.5 L 70.32574779433233 -0.5 L 25 -0.5 Z M 102.84527904433233 0.5 L 148.17102683866466 0.5 L 148.17102683866466 3.5 L 155.17102683866466 0 L 148.17102683866466 -3.5 L 148.17102683866466 -0.5 L 102.84527904433233 -0.5 Z"/><text text-anchor="middle" pointer-events="none" font-size="8px" fill="#000000" x="86.58551341933233" y="3" font-family="Helvetica Neue, Helvetica, Arial, sans-serif">RATED</text></g><g class="relationship" transform="translate(115.192254023498 -16.18313000625347) rotate(308.73300412045035)"><path class="b-outline" fill="#A5ABB6" stroke="none" d="M 25 0.5 L 37.76726359488019 0.5 L 37.76726359488019 -0.5 L 25 -0.5 Z M 70.28679484488019 0.5 L 83.05405843976038 0.5 L 83.05405843976038 3.5 L 90.05405843976038 0 L 83.05405843976038 -3.5 L 83.05405843976038 -0.5 L 70.28679484488019 -0.5 Z"/><text text-anchor="middle" pointer-events="none" font-size="8px" fill="#000000" x="54.02702921988019" y="3" font-family="Helvetica Neue, Helvetica, Arial, sans-serif">RATED</text></g><g class="relationship" transform="translate(115.192254023498 -16.18313000625347) rotate(311.18221436446277)"><path class="b-outline" fill="#A5ABB6" stroke="none" d="M 25 0.5 L 86.26738629210132 0.5 L 86.26738629210132 -0.5 L 25 -0.5 Z M 118.78691754210132 0.5 L 180.05430383420264 0.5 L 180.05430383420264 3.5 L 187.05430383420264 0 L 180.05430383420264 -3.5 L 180.05430383420264 -0.5 L 118.78691754210132 -0.5 Z"/><text text-anchor="middle" pointer-events="none" font-size="8px" fill="#000000" x="102.52715191710132" y="3" font-family="Helvetica Neue, Helvetica, Arial, sans-serif">RATED</text></g><g class="relationship" transform="translate(115.192254023498 -16.18313000625347) rotate(283.9038555648753)"><path class="b-outline" fill="#A5ABB6" stroke="none" d="M 25 0.5 L 75.39421056406434 0.5 L 75.39421056406434 -0.5 L 25 -0.5 Z M 107.91374181406434 0.5 L 158.30795237812868 0.5 L 158.30795237812868 3.5 L 165.30795237812868 0 L 158.30795237812868 -3.5 L 158.30795237812868 -0.5 L 107.91374181406434 -0.5 Z"/><text text-anchor="middle" pointer-events="none" font-size="8px" fill="#000000" x="91.65397618906434" y="3" font-family="Helvetica Neue, Helvetica, Arial, sans-serif">RATED</text></g><g class="relationship" transform="translate(115.192254023498 -16.18313000625347) rotate(257.0259343494496)"><path class="b-outline" fill="#A5ABB6" stroke="none" d="M 25 0.5 L 89.57003690377846 0.5 L 89.57003690377846 -0.5 L 25 -0.5 Z M 122.08956815377846 0.5 L 186.65960505755692 0.5 L 186.65960505755692 3.5 L 193.65960505755692 0 L 186.65960505755692 -3.5 L 186.65960505755692 -0.5 L 122.08956815377846 -0.5 Z"/><text text-anchor="middle" pointer-events="none" font-size="8px" fill="#000000" x="105.82980252877846" y="3" transform="rotate(180 105.82980252877846 0)" font-family="Helvetica Neue, Helvetica, Arial, sans-serif">RATED</text></g><g class="relationship" transform="translate(115.192254023498 -16.18313000625347) rotate(257.0038772224419)"><path class="b-outline" fill="#A5ABB6" stroke="none" d="M 25 0.5 L 41.32355875186479 0.5 L 41.32355875186479 -0.5 L 25 -0.5 Z M 73.8430900018648 0.5 L 90.16664875372958 0.5 L 90.16664875372958 3.5 L 97.16664875372958 0 L 90.16664875372958 -3.5 L 90.16664875372958 -0.5 L 73.8430900018648 -0.5 Z"/><text text-anchor="middle" pointer-events="none" font-size="8px" fill="#000000" x="57.58332437686479" y="3" transform="rotate(180 57.58332437686479 0)" font-family="Helvetica Neue, Helvetica, Arial, sans-serif">RATED</text></g><g class="relationship" transform="translate(115.192254023498 -16.18313000625347) rotate(230.43224271917455)"><path class="b-outline" fill="#A5ABB6" stroke="none" d="M 25 0.5 L 76.04124341218589 0.5 L 76.04124341218589 -0.5 L 25 -0.5 Z M 108.56077466218589 0.5 L 159.60201807437178 0.5 L 159.60201807437178 3.5 L 166.60201807437178 0 L 159.60201807437178 -3.5 L 159.60201807437178 -0.5 L 108.56077466218589 -0.5 Z"/><text text-anchor="middle" pointer-events="none" font-size="8px" fill="#000000" x="92.30100903718589" y="3" transform="rotate(180 92.30100903718589 0)" font-family="Helvetica Neue, Helvetica, Arial, sans-serif">RATED</text></g><g class="relationship" transform="translate(115.192254023498 -16.18313000625347) rotate(207.48468291664074)"><path class="b-outline" fill="#A5ABB6" stroke="none" d="M 25 0.5 L 37.50961777366981 0.5 L 37.50961777366981 -0.5 L 25 -0.5 Z M 70.02914902366982 0.5 L 82.53876679733962 0.5 L 82.53876679733962 3.5 L 89.53876679733962 0 L 82.53876679733962 -3.5 L 82.53876679733962 -0.5 L 70.02914902366982 -0.5 Z"/><text text-anchor="middle" pointer-events="none" font-size="8px" fill="#000000" x="53.76938339866981" y="3" transform="rotate(180 53.76938339866981 0)" font-family="Helvetica Neue, Helvetica, Arial, sans-serif">RATED</text></g><g class="relationship" transform="translate(115.192254023498 -16.18313000625347) rotate(534.4815002213759)"><path class="b-outline" fill="#A5ABB6" stroke="none" d="M 25 0.5 L 80.78559761593331 0.5 L 80.78559761593331 -0.5 L 25 -0.5 Z M 113.30512886593331 0.5 L 169.09072648186662 0.5 L 169.09072648186662 3.5 L 176.09072648186662 0 L 169.09072648186662 -3.5 L 169.09072648186662 -0.5 L 113.30512886593331 -0.5 Z"/><text text-anchor="middle" pointer-events="none" font-size="8px" fill="#000000" x="97.04536324093331" y="3" transform="rotate(180 97.04536324093331 0)" font-family="Helvetica Neue, Helvetica, Arial, sans-serif">RATED</text></g><g class="relationship" transform="translate(115.192254023498 -16.18313000625347) rotate(202.09640182541108)"><path class="b-outline" fill="#A5ABB6" stroke="none" d="M 25 0.5 L 85.05042823699347 0.5 L 85.05042823699347 -0.5 L 25 -0.5 Z M 117.56995948699347 0.5 L 177.62038772398694 0.5 L 177.62038772398694 3.5 L 184.62038772398694 0 L 177.62038772398694 -3.5 L 177.62038772398694 -0.5 L 117.56995948699347 -0.5 Z"/><text text-anchor="middle" pointer-events="none" font-size="8px" fill="#000000" x="101.31019386199347" y="3" transform="rotate(180 101.31019386199347 0)" font-family="Helvetica Neue, Helvetica, Arial, sans-serif">RATED</text></g><g class="relationship" transform="translate(115.192254023498 -16.18313000625347) rotate(515.9970570440931)"><path class="b-outline" fill="#A5ABB6" stroke="none" d="M 25 0.5 L 39.024813425044236 0.5 L 39.024813425044236 -0.5 L 25 -0.5 Z M 71.54434467504424 0.5 L 85.56915810008847 0.5 L 85.56915810008847 3.5 L 92.56915810008847 0 L 85.56915810008847 -3.5 L 85.56915810008847 -0.5 L 71.54434467504424 -0.5 Z"/><text text-anchor="middle" pointer-events="none" font-size="8px" fill="#000000" x="55.284579050044236" y="3" transform="rotate(180 55.284579050044236 0)" font-family="Helvetica Neue, Helvetica, Arial, sans-serif">RATED</text></g><g class="relationship" transform="translate(-472.78788625239525 29.586918759103533) rotate(221.80318632472483)"><path class="b-outline" fill="#A5ABB6" stroke="none" d="M 25 0.5 L 52.276540123817284 0.5 L 52.276540123817284 -0.5 L 25 -0.5 Z M 84.79607137381728 0.5 L 112.07261149763457 0.5 L 112.07261149763457 3.5 L 119.07261149763457 0 L 112.07261149763457 -3.5 L 112.07261149763457 -0.5 L 84.79607137381728 -0.5 Z"/><text text-anchor="middle" pointer-events="none" font-size="8px" fill="#000000" x="68.53630574881728" y="3" transform="rotate(180 68.53630574881728 0)" font-family="Helvetica Neue, Helvetica, Arial, sans-serif">RATED</text></g><g class="relationship" transform="translate(-472.78788625239525 29.586918759103533) rotate(485.9415478250834)"><path class="b-outline" fill="#A5ABB6" stroke="none" d="M 25 0.5 L 52.823806741281686 0.5 L 52.823806741281686 -0.5 L 25 -0.5 Z M 85.34333799128169 0.5 L 113.16714473256337 0.5 L 113.16714473256337 3.5 L 120.16714473256337 0 L 113.16714473256337 -3.5 L 113.16714473256337 -0.5 L 85.34333799128169 -0.5 Z"/><text text-anchor="middle" pointer-events="none" font-size="8px" fill="#000000" x="69.08357236628169" y="3" transform="rotate(180 69.08357236628169 0)" font-family="Helvetica Neue, Helvetica, Arial, sans-serif">RATED</text></g><g class="relationship" transform="translate(-472.78788625239525 29.586918759103533) rotate(302.99122597871036)"><path class="b-outline" fill="#A5ABB6" stroke="none" d="M 25 0.5 L 52.83448888751907 0.5 L 52.83448888751907 -0.5 L 25 -0.5 Z M 85.35402013751907 0.5 L 113.18850902503814 0.5 L 113.18850902503814 3.5 L 120.18850902503814 0 L 113.18850902503814 -3.5 L 113.18850902503814 -0.5 L 85.35402013751907 -0.5 Z"/><text text-anchor="middle" pointer-events="none" font-size="8px" fill="#000000" x="69.09425451251907" y="3" font-family="Helvetica Neue, Helvetica, Arial, sans-serif">RATED</text></g><g class="relationship" transform="translate(-472.78788625239525 29.586918759103533) rotate(443.87523383501195)"><path class="b-outline" fill="#A5ABB6" stroke="none" d="M 25 0.5 L 54.80591677909162 0.5 L 54.80591677909162 -0.5 L 25 -0.5 Z M 87.32544802909162 0.5 L 117.13136480818324 0.5 L 117.13136480818324 3.5 L 124.13136480818324 0 L 117.13136480818324 -3.5 L 117.13136480818324 -0.5 L 87.32544802909162 -0.5 Z"/><text text-anchor="middle" pointer-events="none" font-size="8px" fill="#000000" x="71.06568240409162" y="3" font-family="Helvetica Neue, Helvetica, Arial, sans-serif">RATED</text></g><g class="relationship" transform="translate(-472.78788625239525 29.586918759103533) rotate(403.9389044001936)"><path class="b-outline" fill="#A5ABB6" stroke="none" d="M 25 0.5 L 53.60882911756893 0.5 L 53.60882911756893 -0.5 L 25 -0.5 Z M 86.12836036756893 0.5 L 114.73718948513786 0.5 L 114.73718948513786 3.5 L 121.73718948513786 0 L 114.73718948513786 -3.5 L 114.73718948513786 -0.5 L 86.12836036756893 -0.5 Z"/><text text-anchor="middle" pointer-events="none" font-size="8px" fill="#000000" x="69.86859474256893" y="3" font-family="Helvetica Neue, Helvetica, Arial, sans-serif">RATED</text></g></g><g class="layer nodes"><g class="node" aria-label="graph-node9145" transform="translate(115.192254023498,-16.18313000625347)"><circle class="b-outline" cx="0" cy="0" r="25" fill="#C990C0" stroke="#b261a5" stroke-width="2px"/><text class="caption" text-anchor="middle" pointer-events="none" x="0" y="0" font-size="10px" fill="#FFFFFF" font-family="Helvetica Neue, Helvetica, Arial, sans-serif"> Omar</text><text class="caption" text-anchor="middle" pointer-events="none" x="0" y="10" font-size="10px" fill="#FFFFFF" font-family="Helvetica Neue, Helvetica, Arial, sans-serif"> Huffm…</text></g><g class="node" aria-label="graph-node1834" transform="translate(124.69028112560324,181.43289803051903)"><circle class="b-outline" cx="0" cy="0" r="25" fill="#F79767" stroke="#f36924" stroke-width="2px"/><text class="caption" text-anchor="middle" pointer-events="none" x="0" y="5" font-size="10px" fill="#FFFFFF" font-family="Helvetica Neue, Helvetica, Arial, sans-serif"> Antz</text></g><g class="node" aria-label="graph-node1981" transform="translate(25.878119176590342,172.37007924533128)"><circle class="b-outline" cx="0" cy="0" r="25" fill="#F79767" stroke="#f36924" stroke-width="2px"/><text class="caption" text-anchor="middle" pointer-events="none" x="0" y="5" font-size="10px" fill="#FFFFFF" font-family="Helvetica Neue, Helvetica, Arial, sans-serif"> Fly, The</text></g><g class="node" aria-label="graph-node2399" transform="translate(276.7743258607955,88.76506249258814)"><circle class="b-outline" cx="0" cy="0" r="25" fill="#F79767" stroke="#f36924" stroke-width="2px"/><text class="caption" text-anchor="middle" pointer-events="none" x="0" y="0" font-size="10px" fill="#FFFFFF" font-family="Helvetica Neue, Helvetica, Arial, sans-serif"> Time</text><text class="caption" text-anchor="middle" pointer-events="none" x="0" y="10" font-size="10px" fill="#FFFFFF" font-family="Helvetica Neue, Helvetica, Arial, sans-serif"> Bandits</text></g><g class="node" aria-label="graph-node2944" transform="translate(81.62506227031201,94.8429942215076)"><circle class="b-outline" cx="0" cy="0" r="25" fill="#F79767" stroke="#f36924" stroke-width="2px"/><text class="caption" text-anchor="middle" pointer-events="none" x="0" y="0" font-size="10px" fill="#FFFFFF" font-family="Helvetica Neue, Helvetica, Arial, sans-serif"> Blazing</text><text class="caption" text-anchor="middle" pointer-events="none" x="0" y="10" font-size="10px" fill="#FFFFFF" font-family="Helvetica Neue, Helvetica, Arial, sans-serif"> Saddles</text></g><g class="node" aria-label="graph-node1534" transform="translate(179.51323701963105,85.34041820030663)"><circle class="b-outline" cx="0" cy="0" r="25" fill="#F79767" stroke="#f36924" stroke-width="2px"/><text class="caption" text-anchor="middle" pointer-events="none" x="0" y="0" font-size="10px" fill="#FFFFFF" font-family="Helvetica Neue, Helvetica, Arial, sans-serif"> French</text><text class="caption" text-anchor="middle" pointer-events="none" x="0" y="10" font-size="10px" fill="#FFFFFF" font-family="Helvetica Neue, Helvetica, Arial, sans-serif"> Conne…</text></g><g class="node" aria-label="graph-node1684" transform="translate(327.9873096171048,5.7061339337103245)"><circle class="b-outline" cx="0" cy="0" r="25" fill="#F79767" stroke="#f36924" stroke-width="2px"/><text class="caption" text-anchor="middle" pointer-events="none" x="0" y="5" font-size="10px" fill="#FFFFFF" font-family="Helvetica Neue, Helvetica, Arial, sans-serif"> Tron</text></g><g class="node" aria-label="graph-node1727" transform="translate(222.31569518955098,171.29106073051298)"><circle class="b-outline" cx="0" cy="0" r="25" fill="#F79767" stroke="#f36924" stroke-width="2px"/><text class="caption" text-anchor="middle" pointer-events="none" x="0" y="-5" font-size="10px" fill="#FFFFFF" font-family="Helvetica Neue, Helvetica, Arial, sans-serif"> Gods</text><text class="caption" text-anchor="middle" pointer-events="none" x="0" y="5" font-size="10px" fill="#FFFFFF" font-family="Helvetica Neue, Helvetica, Arial, sans-serif"> Must Be</text><text class="caption" text-anchor="middle" pointer-events="none" x="0" y="15" font-size="10px" fill="#FFFFFF" font-family="Helvetica Neue, Helvetica, Arial, sans-serif"> Cra…</text></g><g class="node" aria-label="graph-node1762" transform="translate(230.8243407476659,1.1498118413955902)"><circle class="b-outline" cx="0" cy="0" r="25" fill="#F79767" stroke="#f36924" stroke-width="2px"/><text class="caption" text-anchor="middle" pointer-events="none" x="0" y="5" font-size="10px" fill="#FFFFFF" font-family="Helvetica Neue, Helvetica, Arial, sans-serif"> Willow</text></g><g class="node" aria-label="graph-node878" transform="translate(-49.58816792278745,108.62956970210824)"><circle class="b-outline" cx="0" cy="0" r="25" fill="#F79767" stroke="#f36924" stroke-width="2px"/><text class="caption" text-anchor="middle" pointer-events="none" x="0" y="5" font-size="10px" fill="#FFFFFF" font-family="Helvetica Neue, Helvetica, Arial, sans-serif"> Sleepers</text></g><g class="node" aria-label="graph-node925" transform="translate(283.1713920020898,-81.33378707176611)"><circle class="b-outline" cx="0" cy="0" r="25" fill="#F79767" stroke="#f36924" stroke-width="2px"/><text class="caption" text-anchor="middle" pointer-events="none" x="0" y="-5" font-size="10px" fill="#FFFFFF" font-family="Helvetica Neue, Helvetica, Arial, sans-serif"> Escape</text><text class="caption" text-anchor="middle" pointer-events="none" x="0" y="5" font-size="10px" fill="#FFFFFF" font-family="Helvetica Neue, Helvetica, Arial, sans-serif"> from New</text><text class="caption" text-anchor="middle" pointer-events="none" x="0" y="15" font-size="10px" fill="#FFFFFF" font-family="Helvetica Neue, Helvetica, Arial, sans-serif"> Yor</text></g><g class="node" aria-label="graph-node43" transform="translate(187.18066996277884,-105.93336306451853)"><circle class="b-outline" cx="0" cy="0" r="25" fill="#F79767" stroke="#f36924" stroke-width="2px"/><text class="caption" text-anchor="middle" pointer-events="none" x="0" y="5" font-size="10px" fill="#FFFFFF" font-family="Helvetica Neue, Helvetica, Arial, sans-serif"> Dangero…</text></g><g class="node" aria-label="graph-node852" transform="translate(254.8206541518748,-175.77930054990475)"><circle class="b-outline" cx="0" cy="0" r="25" fill="#F79767" stroke="#f36924" stroke-width="2px"/><text class="caption" text-anchor="middle" pointer-events="none" x="0" y="5" font-size="10px" fill="#FFFFFF" font-family="Helvetica Neue, Helvetica, Arial, sans-serif"> Dumbo</text></g><g class="node" aria-label="graph-node1060" transform="translate(160.92199203540667,-200.91511911403708)"><circle class="b-outline" cx="0" cy="0" r="25" fill="#F79767" stroke="#f36924" stroke-width="2px"/><text class="caption" text-anchor="middle" pointer-events="none" x="0" y="5" font-size="10px" fill="#FFFFFF" font-family="Helvetica Neue, Helvetica, Arial, sans-serif"> Ben-Hur</text></g><g class="node" aria-label="graph-node1066" transform="translate(66.10098769790739,-229.26074603965267)"><circle class="b-outline" cx="0" cy="0" r="25" fill="#F79767" stroke="#f36924" stroke-width="2px"/><text class="caption" text-anchor="middle" pointer-events="none" x="0" y="5" font-size="10px" fill="#FFFFFF" font-family="Helvetica Neue, Helvetica, Arial, sans-serif"> Gandhi</text></g><g class="node" aria-label="graph-node950" transform="translate(87.71879281302054,-135.2205148768626)"><circle class="b-outline" cx="0" cy="0" r="25" fill="#F79767" stroke="#f36924" stroke-width="2px"/><text class="caption" text-anchor="middle" pointer-events="none" x="0" y="-5" font-size="10px" fill="#FFFFFF" font-family="Helvetica Neue, Helvetica, Arial, sans-serif"> Cinema</text><text class="caption" text-anchor="middle" pointer-events="none" x="0" y="5" font-size="10px" fill="#FFFFFF" font-family="Helvetica Neue, Helvetica, Arial, sans-serif"> Paradiso</text><text class="caption" text-anchor="middle" pointer-events="none" x="0" y="15" font-size="10px" fill="#FFFFFF" font-family="Helvetica Neue, Helvetica, Arial, sans-serif"> (Nu</text></g><g class="node" aria-label="graph-node1036" transform="translate(-6.856370838878915,-163.88372749785026)"><circle class="b-outline" cx="0" cy="0" r="25" fill="#F79767" stroke="#f36924" stroke-width="2px"/><text class="caption" text-anchor="middle" pointer-events="none" x="0" y="-5" font-size="10px" fill="#FFFFFF" font-family="Helvetica Neue, Helvetica, Arial, sans-serif"> Deer</text><text class="caption" text-anchor="middle" pointer-events="none" x="0" y="5" font-size="10px" fill="#FFFFFF" font-family="Helvetica Neue, Helvetica, Arial, sans-serif"> Hunter,</text><text class="caption" text-anchor="middle" pointer-events="none" x="0" y="15" font-size="10px" fill="#FFFFFF" font-family="Helvetica Neue, Helvetica, Arial, sans-serif"> The</text></g><g class="node" aria-label="graph-node1130" transform="translate(13.58099191870401,-69.04408452777349)"><circle class="b-outline" cx="0" cy="0" r="25" fill="#F79767" stroke="#f36924" stroke-width="2px"/><text class="caption" text-anchor="middle" pointer-events="none" x="0" y="-5" font-size="10px" fill="#FFFFFF" font-family="Helvetica Neue, Helvetica, Arial, sans-serif"> Star</text><text class="caption" text-anchor="middle" pointer-events="none" x="0" y="5" font-size="10px" fill="#FFFFFF" font-family="Helvetica Neue, Helvetica, Arial, sans-serif"> Trek: The</text><text class="caption" text-anchor="middle" pointer-events="none" x="0" y="15" font-size="10px" fill="#FFFFFF" font-family="Helvetica Neue, Helvetica, Arial, sans-serif"> Moti</text></g><g class="node" aria-label="graph-node1159" transform="translate(-84.96645708053013,3.155190659696519)"><circle class="b-outline" cx="0" cy="0" r="25" fill="#F79767" stroke="#f36924" stroke-width="2px"/><text class="caption" text-anchor="middle" pointer-events="none" x="0" y="-5" font-size="10px" fill="#FFFFFF" font-family="Helvetica Neue, Helvetica, Arial, sans-serif"> Beavis</text><text class="caption" text-anchor="middle" pointer-events="none" x="0" y="5" font-size="10px" fill="#FFFFFF" font-family="Helvetica Neue, Helvetica, Arial, sans-serif"> and</text><text class="caption" text-anchor="middle" pointer-events="none" x="0" y="15" font-size="10px" fill="#FFFFFF" font-family="Helvetica Neue, Helvetica, Arial, sans-serif"> Butt…</text></g><g class="node" aria-label="graph-node1102" transform="translate(-79.0319891102687,-95.03520879096338)"><circle class="b-outline" cx="0" cy="0" r="25" fill="#F79767" stroke="#f36924" stroke-width="2px"/><text class="caption" text-anchor="middle" pointer-events="none" x="0" y="-5" font-size="10px" fill="#FFFFFF" font-family="Helvetica Neue, Helvetica, Arial, sans-serif"> Dracula</text><text class="caption" text-anchor="middle" pointer-events="none" x="0" y="5" font-size="10px" fill="#FFFFFF" font-family="Helvetica Neue, Helvetica, Arial, sans-serif"> (Bram</text><text class="caption" text-anchor="middle" pointer-events="none" x="0" y="15" font-size="10px" fill="#FFFFFF" font-family="Helvetica Neue, Helvetica, Arial, sans-serif"> Stoke</text></g><g class="node" aria-label="graph-node1106" transform="translate(7.789940047189712,31.642071393197984)"><circle class="b-outline" cx="0" cy="0" r="25" fill="#F79767" stroke="#f36924" stroke-width="2px"/><text class="caption" text-anchor="middle" pointer-events="none" x="0" y="0" font-size="10px" fill="#FFFFFF" font-family="Helvetica Neue, Helvetica, Arial, sans-serif"> Cape</text><text class="caption" text-anchor="middle" pointer-events="none" x="0" y="10" font-size="10px" fill="#FFFFFF" font-family="Helvetica Neue, Helvetica, Arial, sans-serif"> Fear</text></g><g class="node" aria-label="graph-node9146" transform="translate(-472.78788625239525,29.586918759103533)"><circle class="b-outline" cx="0" cy="0" r="25" fill="#C990C0" stroke="#b261a5" stroke-width="2px"/><text class="caption" text-anchor="middle" pointer-events="none" x="0" y="0" font-size="10px" fill="#FFFFFF" font-family="Helvetica Neue, Helvetica, Arial, sans-serif"> Mr. Jason</text><text class="caption" text-anchor="middle" pointer-events="none" x="0" y="10" font-size="10px" fill="#FFFFFF" font-family="Helvetica Neue, Helvetica, Arial, sans-serif"> Love</text></g><g class="node" aria-label="graph-node239" transform="translate(-580.1852198142792,-66.4481275914126)"><circle class="b-outline" cx="0" cy="0" r="25" fill="#F79767" stroke="#f36924" stroke-width="2px"/><text class="caption" text-anchor="middle" pointer-events="none" x="0" y="5" font-size="10px" fill="#FFFFFF" font-family="Helvetica Neue, Helvetica, Arial, sans-serif"> Houseg…</text></g><g class="node" aria-label="graph-node226" transform="translate(-557.995135639334,147.1165939978152)"><circle class="b-outline" cx="0" cy="0" r="25" fill="#F79767" stroke="#f36924" stroke-width="2px"/><text class="caption" text-anchor="middle" pointer-events="none" x="0" y="5" font-size="10px" fill="#FFFFFF" font-family="Helvetica Neue, Helvetica, Arial, sans-serif"> Ed Wood</text></g><g class="node" aria-label="graph-node252" transform="translate(-393.7312043307451,-92.1905183811673)"><circle class="b-outline" cx="0" cy="0" r="25" fill="#F79767" stroke="#f36924" stroke-width="2px"/><text class="caption" text-anchor="middle" pointer-events="none" x="0" y="0" font-size="10px" fill="#FFFFFF" font-family="Helvetica Neue, Helvetica, Arial, sans-serif"> Little</text><text class="caption" text-anchor="middle" pointer-events="none" x="0" y="10" font-size="10px" fill="#FFFFFF" font-family="Helvetica Neue, Helvetica, Arial, sans-serif"> Women</text></g><g class="node" aria-label="graph-node244" transform="translate(-456.8764845352009,177.86702957962288)"><circle class="b-outline" cx="0" cy="0" r="25" fill="#F79767" stroke="#f36924" stroke-width="2px"/><text class="caption" text-anchor="middle" pointer-events="none" x="0" y="0" font-size="10px" fill="#FFFFFF" font-family="Helvetica Neue, Helvetica, Arial, sans-serif"> Interview</text><text class="caption" text-anchor="middle" pointer-events="none" x="0" y="10" font-size="10px" fill="#FFFFFF" font-family="Helvetica Neue, Helvetica, Arial, sans-serif">…</text></g><g class="node" aria-label="graph-node214" transform="translate(-367.125353397976,131.40652359425317)"><circle class="b-outline" cx="0" cy="0" r="25" fill="#F79767" stroke="#f36924" stroke-width="2px"/><text class="caption" text-anchor="middle" pointer-events="none" x="0" y="0" font-size="10px" fill="#FFFFFF" font-family="Helvetica Neue, Helvetica, Arial, sans-serif"> Circle of</text><text class="caption" text-anchor="middle" pointer-events="none" x="0" y="10" font-size="10px" fill="#FFFFFF" font-family="Helvetica Neue, Helvetica, Arial, sans-serif"> Friends</text></g></g></svg>