<svg xmlns="http://www.w3.org/2000/svg" width="544.3364868164062" height="511.65484619140625" viewBox="-310.9271545410156 -258.1242370605469 544.3364868164062 511.65484619140625"><title>Neo4j Graph Visualization</title><desc>Created using Neo4j (http://www.neo4j.com/)</desc><g class="layer relationships"><g class="relationship" transform="translate(-210.46467055142796 153.1959028985304) rotate(311.07884499067075)"><path class="b-outline" fill="#A5ABB6" stroke="none" d="M 25 0.5 L 78.08144582274218 0.5 L 78.08144582274218 -0.5 L 25 -0.5 Z M 110.60097707274218 0.5 L 163.68242289548436 0.5 L 163.68242289548436 3.5 L 170.68242289548436 0 L 163.68242289548436 -3.5 L 163.68242289548436 -0.5 L 110.60097707274218 -0.5 Z"/><text text-anchor="middle" pointer-events="none" font-size="8px" fill="#000000" x="94.34121144774218" y="3" font-family="Helvetica Neue, Helvetica, Arial, sans-serif">RATED</text></g><g class="relationship" transform="translate(-53.3334967544198 209.56536778644903) rotate(262.02868106843107)"><path class="b-outline" fill="#A5ABB6" stroke="none" d="M 25 0.5 L 83.1728397181828 0.5 L 83.1728397181828 -0.5 L 25 -0.5 Z M 115.6923709681828 0.5 L 173.8652106863656 0.5 L 173.8652106863656 3.5 L 180.8652106863656 0 L 173.8652106863656 -3.5 L 173.8652106863656 -0.5 L 115.6923709681828 -0.5 Z"/><text text-anchor="middle" pointer-events="none" font-size="8px" fill="#000000" x="99.4326053431828" y="3" transform="rotate(180 99.4326053431828 0)" font-family="Helvetica Neue, Helvetica, Arial, sans-serif">RATED</text></g><g class="relationship" transform="translate(-20.767279382227592 117.76786924538703) rotate(241.39690720719273)"><path class="b-outline" fill="#A5ABB6" stroke="none" d="M 25 0.5 L 44.069411303317224 0.5 L 44.069411303317224 -0.5 L 25 -0.5 Z M 76.58894255331722 0.5 L 95.65835385663445 0.5 L 95.65835385663445 3.5 L 102.65835385663445 0 L 95.65835385663445 -3.5 L 95.65835385663445 -0.5 L 76.58894255331722 -0.5 Z"/><text text-anchor="middle" pointer-events="none" font-size="8px" fill="#000000" x="60.329176928317224" y="3" transform="rotate(180 60.329176928317224 0)" font-family="Helvetica Neue, Helvetica, Arial, sans-serif">RATED</text></g><g class="relationship" transform="translate(135.43989150942252 177.3912330283185) rotate(218.31155360007602)"><path class="b-outline" fill="#A5ABB6" stroke="none" d="M 25 0.5 L 118.72354163320881 0.5 L 118.72354163320881 -0.5 L 25 -0.5 Z M 151.2430728832088 0.5 L 244.96661451641762 0.5 L 244.96661451641762 3.5 L 251.96661451641762 0 L 244.96661451641762 -3.5 L 244.96661451641762 -0.5 L 151.2430728832088 -0.5 Z"/><text text-anchor="middle" pointer-events="none" font-size="8px" fill="#000000" x="134.9833072582088" y="3" transform="rotate(180 134.9833072582088 0)" font-family="Helvetica Neue, Helvetica, Arial, sans-serif">RATED</text></g><g class="relationship" transform="translate(169.35622705181248 87.63026473472905) rotate(198.06363337574976)"><path class="b-outline" fill="#A5ABB6" stroke="none" d="M 25 0.5 L 112.37193022145362 0.5 L 112.37193022145362 -0.5 L 25 -0.5 Z M 144.89146147145362 0.5 L 232.26339169290725 0.5 L 232.26339169290725 3.5 L 239.26339169290725 0 L 232.26339169290725 -3.5 L 232.26339169290725 -0.5 L 144.89146147145362 -0.5 Z"/><text text-anchor="middle" pointer-events="none" font-size="8px" fill="#000000" x="128.63169584645362" y="3" transform="rotate(180 128.63169584645362 0)" font-family="Helvetica Neue, Helvetica, Arial, sans-serif">RATED</text></g><g class="relationship" transform="translate(13.21427100594872 25.729488255200007) rotate(191.9001047655035)"><path class="b-outline" fill="#A5ABB6" stroke="none" d="M 25 0.5 L 28.83286514961344 0.5 L 28.83286514961344 -0.5 L 25 -0.5 Z M 61.35239639961344 0.5 L 65.18526154922688 0.5 L 65.18526154922688 3.5 L 72.18526154922688 0 L 65.18526154922688 -3.5 L 65.18526154922688 -0.5 L 61.35239639961344 -0.5 Z"/><text text-anchor="middle" pointer-events="none" font-size="8px" fill="#000000" x="45.09263077461344" y="3" transform="rotate(180 45.09263077461344 0)" font-family="Helvetica Neue, Helvetica, Arial, sans-serif">RATED</text></g><g class="relationship" transform="translate(38.4846981095223 192.08072806208776) rotate(237.1466101703071)"><path class="b-outline" fill="#A5ABB6" stroke="none" d="M 25 0.5 L 91.17939201324275 0.5 L 91.17939201324275 -0.5 L 25 -0.5 Z M 123.69892326324275 0.5 L 189.8783152764855 0.5 L 189.8783152764855 3.5 L 196.8783152764855 0 L 189.8783152764855 -3.5 L 189.8783152764855 -0.5 L 123.69892326324275 -0.5 Z"/><text text-anchor="middle" pointer-events="none" font-size="8px" fill="#000000" x="107.43915763824275" y="3" transform="rotate(180 107.43915763824275 0)" font-family="Helvetica Neue, Helvetica, Arial, sans-serif">RATED</text></g><g class="relationship" transform="translate(204.40921628828454 -4.0982321193004765) rotate(538.0419739197165)"><path class="b-outline" fill="#A5ABB6" stroke="none" d="M 25 0.5 L 123.46964249864808 0.5 L 123.46964249864808 -0.5 L 25 -0.5 Z M 155.98917374864808 0.5 L 254.45881624729617 0.5 L 254.45881624729617 3.5 L 261.45881624729617 0 L 254.45881624729617 -3.5 L 254.45881624729617 -0.5 L 155.98917374864808 -0.5 Z"/><text text-anchor="middle" pointer-events="none" font-size="8px" fill="#000000" x="139.72940812364808" y="3" transform="rotate(180 139.72940812364808 0)" font-family="Helvetica Neue, Helvetica, Arial, sans-serif">RATED</text></g><g class="relationship" transform="translate(74.20121935272894 101.55574494585586) rotate(211.55822309278653)"><path class="b-outline" fill="#A5ABB6" stroke="none" d="M 25 0.5 L 71.82687741501948 0.5 L 71.82687741501948 -0.5 L 25 -0.5 Z M 104.34640866501948 0.5 L 151.17328608003896 0.5 L 151.17328608003896 3.5 L 158.17328608003896 0 L 151.17328608003896 -3.5 L 151.17328608003896 -0.5 L 104.34640866501948 -0.5 Z"/><text text-anchor="middle" pointer-events="none" font-size="8px" fill="#000000" x="88.08664304001948" y="3" transform="rotate(180 88.08664304001948 0)" font-family="Helvetica Neue, Helvetica, Arial, sans-serif">RATED</text></g><g class="relationship" transform="translate(147.31554569146968 -81.77486493910197) rotate(519.1126531507027)"><path class="b-outline" fill="#A5ABB6" stroke="none" d="M 25 0.5 L 102.89998118941477 0.5 L 102.89998118941477 -0.5 L 25 -0.5 Z M 135.41951243941477 0.5 L 213.31949362882955 0.5 L 213.31949362882955 3.5 L 220.31949362882955 0 L 213.31949362882955 -3.5 L 213.31949362882955 -0.5 L 135.41951243941477 -0.5 Z"/><text text-anchor="middle" pointer-events="none" font-size="8px" fill="#000000" x="119.15974681441477" y="3" transform="rotate(180 119.15974681441477 0)" font-family="Helvetica Neue, Helvetica, Arial, sans-serif">RATED</text></g><g class="relationship" transform="translate(52.5864561284725 -63.16648350192715) rotate(512.8849323937934)"><path class="b-outline" fill="#A5ABB6" stroke="none" d="M 25 0.5 L 55.77661310830618 0.5 L 55.77661310830618 -0.5 L 25 -0.5 Z M 88.29614435830618 0.5 L 119.07275746661236 0.5 L 119.07275746661236 3.5 L 126.07275746661236 0 L 119.07275746661236 -3.5 L 119.07275746661236 -0.5 L 88.29614435830618 -0.5 Z"/><text text-anchor="middle" pointer-events="none" font-size="8px" fill="#000000" x="72.03637873330618" y="3" transform="rotate(180 72.03637873330618 0)" font-family="Helvetica Neue, Helvetica, Arial, sans-serif">RATED</text></g><g class="relationship" transform="translate(110.2884765386749 11.17949879917821) rotate(181.63645705845107)"><path class="b-outline" fill="#A5ABB6" stroke="none" d="M 25 0.5 L 76.36484942558894 0.5 L 76.36484942558894 -0.5 L 25 -0.5 Z M 108.88438067558894 0.5 L 160.2492301011779 0.5 L 160.2492301011779 3.5 L 167.2492301011779 0 L 160.2492301011779 -3.5 L 160.2492301011779 -0.5 L 108.88438067558894 -0.5 Z"/><text text-anchor="middle" pointer-events="none" font-size="8px" fill="#000000" x="92.62461505058894" y="3" transform="rotate(180 92.62461505058894 0)" font-family="Helvetica Neue, Helvetica, Arial, sans-serif">RATED</text></g><g class="relationship" transform="translate(83.85895144380197 -157.17266974505182) rotate(495.50202971069166)"><path class="b-outline" fill="#A5ABB6" stroke="none" d="M 25 0.5 L 96.42349519523512 0.5 L 96.42349519523512 -0.5 L 25 -0.5 Z M 128.94302644523512 0.5 L 200.36652164047024 0.5 L 200.36652164047024 3.5 L 207.36652164047024 0 L 200.36652164047024 -3.5 L 200.36652164047024 -0.5 L 128.94302644523512 -0.5 Z"/><text text-anchor="middle" pointer-events="none" font-size="8px" fill="#000000" x="112.68326082023512" y="3" transform="rotate(180 112.68326082023512 0)" font-family="Helvetica Neue, Helvetica, Arial, sans-serif">RATED</text></g><g class="relationship" transform="translate(-6.91815196579091 -134.1140723656625) rotate(478.2007250817025)"><path class="b-outline" fill="#A5ABB6" stroke="none" d="M 25 0.5 L 59.55702780402467 0.5 L 59.55702780402467 -0.5 L 25 -0.5 Z M 92.07655905402467 0.5 L 126.63358685804934 0.5 L 126.63358685804934 3.5 L 133.63358685804934 0 L 126.63358685804934 -3.5 L 126.63358685804934 -0.5 L 92.07655905402467 -0.5 Z"/><text text-anchor="middle" pointer-events="none" font-size="8px" fill="#000000" x="75.81679342902467" y="3" transform="rotate(180 75.81679342902467 0)" font-family="Helvetica Neue, Helvetica, Arial, sans-serif">RATED</text></g><g class="relationship" transform="translate(-96.42547549970212 -100.29412378531295) rotate(442.1866240256947)"><path class="b-outline" fill="#A5ABB6" stroke="none" d="M 25 0.5 L 33.728527970921554 0.5 L 33.728527970921554 -0.5 L 25 -0.5 Z M 66.24805922092156 0.5 L 74.97658719184311 0.5 L 74.97658719184311 3.5 L 81.97658719184311 0 L 74.97658719184311 -3.5 L 74.97658719184311 -0.5 L 66.24805922092156 -0.5 Z"/><text text-anchor="middle" pointer-events="none" font-size="8px" fill="#000000" x="49.988293595921554" y="3" font-family="Helvetica Neue, Helvetica, Arial, sans-serif">RATED</text></g><g class="relationship" transform="translate(3.9762768861336952 -229.12424231561081) rotate(470.08473403961483)"><path class="b-outline" fill="#A5ABB6" stroke="none" d="M 25 0.5 L 105.24933961527604 0.5 L 105.24933961527604 -0.5 L 25 -0.5 Z M 137.76887086527603 0.5 L 218.01821048055209 0.5 L 218.01821048055209 3.5 L 225.01821048055209 0 L 218.01821048055209 -3.5 L 218.01821048055209 -0.5 L 137.76887086527603 -0.5 Z"/><text text-anchor="middle" pointer-events="none" font-size="8px" fill="#000000" x="121.50910524027604" y="3" transform="rotate(180 121.50910524027604 0)" font-family="Helvetica Neue, Helvetica, Arial, sans-serif">RATED</text></g><g class="relationship" transform="translate(-177.88133505408604 -43.50916356947934) rotate(387.1346609484514)"><path class="b-outline" fill="#A5ABB6" stroke="none" d="M 25 0.5 L 34.17606606203148 0.5 L 34.17606606203148 -0.5 L 25 -0.5 Z M 66.69559731203148 0.5 L 75.87166337406296 0.5 L 75.87166337406296 3.5 L 82.87166337406296 0 L 75.87166337406296 -3.5 L 75.87166337406296 -0.5 L 66.69559731203148 -0.5 Z"/><text text-anchor="middle" pointer-events="none" font-size="8px" fill="#000000" x="50.43583168703148" y="3" font-family="Helvetica Neue, Helvetica, Arial, sans-serif">RATED</text></g><g class="relationship" transform="translate(-86.8800067300435 -196.33987828711113) rotate(448.5829443634762)"><path class="b-outline" fill="#A5ABB6" stroke="none" d="M 25 0.5 L 81.28572934068596 0.5 L 81.28572934068596 -0.5 L 25 -0.5 Z M 113.80526059068596 0.5 L 170.09098993137192 0.5 L 170.09098993137192 3.5 L 177.09098993137192 0 L 170.09098993137192 -3.5 L 170.09098993137192 -0.5 L 113.80526059068596 -0.5 Z"/><text text-anchor="middle" pointer-events="none" font-size="8px" fill="#000000" x="97.54549496568596" y="3" font-family="Helvetica Neue, Helvetica, Arial, sans-serif">RATED</text></g><g class="relationship" transform="translate(-176.0911459075505 -157.7150647620631) rotate(420.0349242350727)"><path class="b-outline" fill="#A5ABB6" stroke="none" d="M 25 0.5 L 74.54862075196307 0.5 L 74.54862075196307 -0.5 L 25 -0.5 Z M 107.06815200196307 0.5 L 156.61677275392614 0.5 L 156.61677275392614 3.5 L 163.61677275392614 0 L 156.61677275392614 -3.5 L 156.61677275392614 -0.5 L 107.06815200196307 -0.5 Z"/><text text-anchor="middle" pointer-events="none" font-size="8px" fill="#000000" x="90.80838637696307" y="3" font-family="Helvetica Neue, Helvetica, Arial, sans-serif">RATED</text></g><g class="relationship" transform="translate(-256.81905978757936 -102.31956963293031) rotate(391.6918810854011)"><path class="b-outline" fill="#A5ABB6" stroke="none" d="M 25 0.5 L 83.03708731125384 0.5 L 83.03708731125384 -0.5 L 25 -0.5 Z M 115.55661856125384 0.5 L 173.59370587250768 0.5 L 173.59370587250768 3.5 L 180.59370587250768 0 L 173.59370587250768 -3.5 L 173.59370587250768 -0.5 L 115.55661856125384 -0.5 Z"/><text text-anchor="middle" pointer-events="none" font-size="8px" fill="#000000" x="99.29685293625384" y="3" font-family="Helvetica Neue, Helvetica, Arial, sans-serif">RATED</text></g><g class="relationship" transform="translate(-190.81374510601853 56.84193975994363) rotate(334.84591923163157)"><path class="b-outline" fill="#A5ABB6" stroke="none" d="M 25 0.5 L 40.412158930285194 0.5 L 40.412158930285194 -0.5 L 25 -0.5 Z M 72.93169018028519 0.5 L 88.34384911057039 0.5 L 88.34384911057039 3.5 L 95.34384911057039 0 L 88.34384911057039 -3.5 L 88.34384911057039 -0.5 L 72.93169018028519 -0.5 Z"/><text text-anchor="middle" pointer-events="none" font-size="8px" fill="#000000" x="56.671924555285194" y="3" font-family="Helvetica Neue, Helvetica, Arial, sans-serif">RATED</text></g><g class="relationship" transform="translate(-268.15027013935907 -6.454433758399525) rotate(363.7301204206604)"><path class="b-outline" fill="#A5ABB6" stroke="none" d="M 25 0.5 L 73.57191541307158 0.5 L 73.57191541307158 -0.5 L 25 -0.5 Z M 106.09144666307158 0.5 L 154.66336207614316 0.5 L 154.66336207614316 3.5 L 161.66336207614316 0 L 154.66336207614316 -3.5 L 154.66336207614316 -0.5 L 106.09144666307158 -0.5 Z"/><text text-anchor="middle" pointer-events="none" font-size="8px" fill="#000000" x="89.83168103807158" y="3" font-family="Helvetica Neue, Helvetica, Arial, sans-serif">RATED</text></g><g class="relationship" transform="translate(-281.92715003957125 91.1598332821878) rotate(336.8650688821971)"><path class="b-outline" fill="#A5ABB6" stroke="none" d="M 25 0.5 L 89.00964108314858 0.5 L 89.00964108314858 -0.5 L 25 -0.5 Z M 121.52917233314858 0.5 L 185.53881341629716 0.5 L 185.53881341629716 3.5 L 192.53881341629716 0 L 185.53881341629716 -3.5 L 185.53881341629716 -0.5 L 121.52917233314858 -0.5 Z"/><text text-anchor="middle" pointer-events="none" font-size="8px" fill="#000000" x="105.26940670814858" y="3" font-family="Helvetica Neue, Helvetica, Arial, sans-serif">RATED</text></g><g class="relationship" transform="translate(-147.45074681908807 224.5305904490627) rotate(286.67906983806984)"><path class="b-outline" fill="#A5ABB6" stroke="none" d="M 25 0.5 L 94.46667935412485 0.5 L 94.46667935412485 -0.5 L 25 -0.5 Z M 126.98621060412485 0.5 L 196.4528899582497 0.5 L 196.4528899582497 3.5 L 203.4528899582497 0 L 196.4528899582497 -3.5 L 196.4528899582497 -0.5 L 126.98621060412485 -0.5 Z"/><text text-anchor="middle" pointer-events="none" font-size="8px" fill="#000000" x="110.72644497912485" y="3" font-family="Helvetica Neue, Helvetica, Arial, sans-serif">RATED</text></g><g class="relationship" transform="translate(-116.58211071531245 133.3248512715326) rotate(285.20917846045967)"><path class="b-outline" fill="#A5ABB6" stroke="none" d="M 25 0.5 L 46.374389796846444 0.5 L 46.374389796846444 -0.5 L 25 -0.5 Z M 78.89392104684644 0.5 L 100.26831084369289 0.5 L 100.26831084369289 3.5 L 107.26831084369289 0 L 100.26831084369289 -3.5 L 100.26831084369289 -0.5 L 78.89392104684644 -0.5 Z"/><text text-anchor="middle" pointer-events="none" font-size="8px" fill="#000000" x="62.634155421846444" y="3" font-family="Helvetica Neue, Helvetica, Arial, sans-serif">RATED</text></g></g><g class="layer nodes"><g class="node" aria-label="graph-node537" transform="translate(-210.46467055142796,153.1959028985304)"><circle class="b-outline" cx="0" cy="0" r="25" fill="#569480" stroke="#447666" stroke-width="2px"/><text class="caption" text-anchor="middle" pointer-events="none" x="0" y="0" font-size="10px" fill="#FFFFFF" font-family="Helvetica Neue, Helvetica, Arial, sans-serif"> Glenn</text><text class="caption" text-anchor="middle" pointer-events="none" x="0" y="10" font-size="10px" fill="#FFFFFF" font-family="Helvetica Neue, Helvetica, Arial, sans-serif"> Mitchell</text></g><g class="node" aria-label="graph-node444" transform="translate(-81.88234399606344,5.689306680406)"><circle class="b-outline" cx="0" cy="0" r="25" fill="#F79767" stroke="#f36924" stroke-width="2px"/><text class="caption" text-anchor="middle" pointer-events="none" x="0" y="5" font-size="10px" fill="#FFFFFF" font-family="Helvetica Neue, Helvetica, Arial, sans-serif"> Toy Story</text></g><g class="node" aria-label="graph-node538" transform="translate(-53.3334967544198,209.56536778644903)"><circle class="b-outline" cx="0" cy="0" r="25" fill="#569480" stroke="#447666" stroke-width="2px"/><text class="caption" text-anchor="middle" pointer-events="none" x="0" y="0" font-size="10px" fill="#FFFFFF" font-family="Helvetica Neue, Helvetica, Arial, sans-serif"> Beverly</text><text class="caption" text-anchor="middle" pointer-events="none" x="0" y="10" font-size="10px" fill="#FFFFFF" font-family="Helvetica Neue, Helvetica, Arial, sans-serif"> Mcdo…</text></g><g class="node" aria-label="graph-node539" transform="translate(-20.767279382227592,117.76786924538703)"><circle class="b-outline" cx="0" cy="0" r="25" fill="#569480" stroke="#447666" stroke-width="2px"/><text class="caption" text-anchor="middle" pointer-events="none" x="0" y="0" font-size="10px" fill="#FFFFFF" font-family="Helvetica Neue, Helvetica, Arial, sans-serif"> Kimberly</text><text class="caption" text-anchor="middle" pointer-events="none" x="0" y="10" font-size="10px" fill="#FFFFFF" font-family="Helvetica Neue, Helvetica, Arial, sans-serif"> Smith</text></g><g class="node" aria-label="graph-node540" transform="translate(135.43989150942252,177.3912330283185)"><circle class="b-outline" cx="0" cy="0" r="25" fill="#569480" stroke="#447666" stroke-width="2px"/><text class="caption" text-anchor="middle" pointer-events="none" x="0" y="0" font-size="10px" fill="#FFFFFF" font-family="Helvetica Neue, Helvetica, Arial, sans-serif"> Elizabeth</text><text class="caption" text-anchor="middle" pointer-events="none" x="0" y="10" font-size="10px" fill="#FFFFFF" font-family="Helvetica Neue, Helvetica, Arial, sans-serif"> Franklin</text></g><g class="node" aria-label="graph-node541" transform="translate(169.35622705181248,87.63026473472905)"><circle class="b-outline" cx="0" cy="0" r="25" fill="#569480" stroke="#447666" stroke-width="2px"/><text class="caption" text-anchor="middle" pointer-events="none" x="0" y="0" font-size="10px" fill="#FFFFFF" font-family="Helvetica Neue, Helvetica, Arial, sans-serif"> Joshua</text><text class="caption" text-anchor="middle" pointer-events="none" x="0" y="10" font-size="10px" fill="#FFFFFF" font-family="Helvetica Neue, Helvetica, Arial, sans-serif"> Elliott</text></g><g class="node" aria-label="graph-node542" transform="translate(13.21427100594872,25.729488255200007)"><circle class="b-outline" cx="0" cy="0" r="25" fill="#569480" stroke="#447666" stroke-width="2px"/><text class="caption" text-anchor="middle" pointer-events="none" x="0" y="0" font-size="10px" fill="#FFFFFF" font-family="Helvetica Neue, Helvetica, Arial, sans-serif"> Elizabeth</text><text class="caption" text-anchor="middle" pointer-events="none" x="0" y="10" font-size="10px" fill="#FFFFFF" font-family="Helvetica Neue, Helvetica, Arial, sans-serif"> Garris…</text></g><g class="node" aria-label="graph-node543" transform="translate(38.4846981095223,192.08072806208776)"><circle class="b-outline" cx="0" cy="0" r="25" fill="#569480" stroke="#447666" stroke-width="2px"/><text class="caption" text-anchor="middle" pointer-events="none" x="0" y="0" font-size="10px" fill="#FFFFFF" font-family="Helvetica Neue, Helvetica, Arial, sans-serif"> Jonathan</text><text class="caption" text-anchor="middle" pointer-events="none" x="0" y="10" font-size="10px" fill="#FFFFFF" font-family="Helvetica Neue, Helvetica, Arial, sans-serif"> Cobb</text></g><g class="node" aria-label="graph-node544" transform="translate(204.40921628828454,-4.0982321193004765)"><circle class="b-outline" cx="0" cy="0" r="25" fill="#569480" stroke="#447666" stroke-width="2px"/><text class="caption" text-anchor="middle" pointer-events="none" x="0" y="0" font-size="10px" fill="#FFFFFF" font-family="Helvetica Neue, Helvetica, Arial, sans-serif"> Jesse</text><text class="caption" text-anchor="middle" pointer-events="none" x="0" y="10" font-size="10px" fill="#FFFFFF" font-family="Helvetica Neue, Helvetica, Arial, sans-serif"> Bradley</text></g><g class="node" aria-label="graph-node545" transform="translate(74.20121935272894,101.55574494585586)"><circle class="b-outline" cx="0" cy="0" r="25" fill="#569480" stroke="#447666" stroke-width="2px"/><text class="caption" text-anchor="middle" pointer-events="none" x="0" y="0" font-size="10px" fill="#FFFFFF" font-family="Helvetica Neue, Helvetica, Arial, sans-serif"> Amber</text><text class="caption" text-anchor="middle" pointer-events="none" x="0" y="10" font-size="10px" fill="#FFFFFF" font-family="Helvetica Neue, Helvetica, Arial, sans-serif"> Lee</text></g><g class="node" aria-label="graph-node546" transform="translate(147.31554569146968,-81.77486493910197)"><circle class="b-outline" cx="0" cy="0" r="25" fill="#569480" stroke="#447666" stroke-width="2px"/><text class="caption" text-anchor="middle" pointer-events="none" x="0" y="0" font-size="10px" fill="#FFFFFF" font-family="Helvetica Neue, Helvetica, Arial, sans-serif"> Donald</text><text class="caption" text-anchor="middle" pointer-events="none" x="0" y="10" font-size="10px" fill="#FFFFFF" font-family="Helvetica Neue, Helvetica, Arial, sans-serif"> Munoz</text></g><g class="node" aria-label="graph-node547" transform="translate(52.5864561284725,-63.16648350192715)"><circle class="b-outline" cx="0" cy="0" r="25" fill="#569480" stroke="#447666" stroke-width="2px"/><text class="caption" text-anchor="middle" pointer-events="none" x="0" y="0" font-size="10px" fill="#FFFFFF" font-family="Helvetica Neue, Helvetica, Arial, sans-serif"> Shawn</text><text class="caption" text-anchor="middle" pointer-events="none" x="0" y="10" font-size="10px" fill="#FFFFFF" font-family="Helvetica Neue, Helvetica, Arial, sans-serif"> Davis</text></g><g class="node" aria-label="graph-node548" transform="translate(110.2884765386749,11.17949879917821)"><circle class="b-outline" cx="0" cy="0" r="25" fill="#569480" stroke="#447666" stroke-width="2px"/><text class="caption" text-anchor="middle" pointer-events="none" x="0" y="0" font-size="10px" fill="#FFFFFF" font-family="Helvetica Neue, Helvetica, Arial, sans-serif"> Sarah</text><text class="caption" text-anchor="middle" pointer-events="none" x="0" y="10" font-size="10px" fill="#FFFFFF" font-family="Helvetica Neue, Helvetica, Arial, sans-serif"> Calho…</text></g><g class="node" aria-label="graph-node549" transform="translate(83.85895144380197,-157.17266974505182)"><circle class="b-outline" cx="0" cy="0" r="25" fill="#569480" stroke="#447666" stroke-width="2px"/><text class="caption" text-anchor="middle" pointer-events="none" x="0" y="0" font-size="10px" fill="#FFFFFF" font-family="Helvetica Neue, Helvetica, Arial, sans-serif"> Michelle</text><text class="caption" text-anchor="middle" pointer-events="none" x="0" y="10" font-size="10px" fill="#FFFFFF" font-family="Helvetica Neue, Helvetica, Arial, sans-serif"> Taylor</text></g><g class="node" aria-label="graph-node550" transform="translate(-6.91815196579091,-134.1140723656625)"><circle class="b-outline" cx="0" cy="0" r="25" fill="#569480" stroke="#447666" stroke-width="2px"/><text class="caption" text-anchor="middle" pointer-events="none" x="0" y="0" font-size="10px" fill="#FFFFFF" font-family="Helvetica Neue, Helvetica, Arial, sans-serif"> Leslie</text><text class="caption" text-anchor="middle" pointer-events="none" x="0" y="10" font-size="10px" fill="#FFFFFF" font-family="Helvetica Neue, Helvetica, Arial, sans-serif"> Brady</text></g><g class="node" aria-label="graph-node551" transform="translate(-96.42547549970212,-100.29412378531295)"><circle class="b-outline" cx="0" cy="0" r="25" fill="#569480" stroke="#447666" stroke-width="2px"/><text class="caption" text-anchor="middle" pointer-events="none" x="0" y="0" font-size="10px" fill="#FFFFFF" font-family="Helvetica Neue, Helvetica, Arial, sans-serif"> Patrick</text><text class="caption" text-anchor="middle" pointer-events="none" x="0" y="10" font-size="10px" fill="#FFFFFF" font-family="Helvetica Neue, Helvetica, Arial, sans-serif"> Thomas</text></g><g class="node" aria-label="graph-node552" transform="translate(3.9762768861336952,-229.12424231561081)"><circle class="b-outline" cx="0" cy="0" r="25" fill="#569480" stroke="#447666" stroke-width="2px"/><text class="caption" text-anchor="middle" pointer-events="none" x="0" y="0" font-size="10px" fill="#FFFFFF" font-family="Helvetica Neue, Helvetica, Arial, sans-serif"> Robert</text><text class="caption" text-anchor="middle" pointer-events="none" x="0" y="10" font-size="10px" fill="#FFFFFF" font-family="Helvetica Neue, Helvetica, Arial, sans-serif"> Galleg…</text></g><g class="node" aria-label="graph-node553" transform="translate(-177.88133505408604,-43.50916356947934)"><circle class="b-outline" cx="0" cy="0" r="25" fill="#569480" stroke="#447666" stroke-width="2px"/><text class="caption" text-anchor="middle" pointer-events="none" x="0" y="0" font-size="10px" fill="#FFFFFF" font-family="Helvetica Neue, Helvetica, Arial, sans-serif"> Jennifer</text><text class="caption" text-anchor="middle" pointer-events="none" x="0" y="10" font-size="10px" fill="#FFFFFF" font-family="Helvetica Neue, Helvetica, Arial, sans-serif"> Berry</text></g><g class="node" aria-label="graph-node554" transform="translate(-86.8800067300435,-196.33987828711113)"><circle class="b-outline" cx="0" cy="0" r="25" fill="#569480" stroke="#447666" stroke-width="2px"/><text class="caption" text-anchor="middle" pointer-events="none" x="0" y="0" font-size="10px" fill="#FFFFFF" font-family="Helvetica Neue, Helvetica, Arial, sans-serif"> Sara</text><text class="caption" text-anchor="middle" pointer-events="none" x="0" y="10" font-size="10px" fill="#FFFFFF" font-family="Helvetica Neue, Helvetica, Arial, sans-serif"> Stewart</text></g><g class="node" aria-label="graph-node555" transform="translate(-176.0911459075505,-157.7150647620631)"><circle class="b-outline" cx="0" cy="0" r="25" fill="#569480" stroke="#447666" stroke-width="2px"/><text class="caption" text-anchor="middle" pointer-events="none" x="0" y="0" font-size="10px" fill="#FFFFFF" font-family="Helvetica Neue, Helvetica, Arial, sans-serif"> Terry</text><text class="caption" text-anchor="middle" pointer-events="none" x="0" y="10" font-size="10px" fill="#FFFFFF" font-family="Helvetica Neue, Helvetica, Arial, sans-serif"> Mullins</text></g><g class="node" aria-label="graph-node556" transform="translate(-256.81905978757936,-102.31956963293031)"><circle class="b-outline" cx="0" cy="0" r="25" fill="#569480" stroke="#447666" stroke-width="2px"/><text class="caption" text-anchor="middle" pointer-events="none" x="0" y="0" font-size="10px" fill="#FFFFFF" font-family="Helvetica Neue, Helvetica, Arial, sans-serif"> Miguel</text><text class="caption" text-anchor="middle" pointer-events="none" x="0" y="10" font-size="10px" fill="#FFFFFF" font-family="Helvetica Neue, Helvetica, Arial, sans-serif"> Marsh…</text></g><g class="node" aria-label="graph-node557" transform="translate(-190.81374510601853,56.84193975994363)"><circle class="b-outline" cx="0" cy="0" r="25" fill="#569480" stroke="#447666" stroke-width="2px"/><text class="caption" text-anchor="middle" pointer-events="none" x="0" y="0" font-size="10px" fill="#FFFFFF" font-family="Helvetica Neue, Helvetica, Arial, sans-serif"> Tiffany</text><text class="caption" text-anchor="middle" pointer-events="none" x="0" y="10" font-size="10px" fill="#FFFFFF" font-family="Helvetica Neue, Helvetica, Arial, sans-serif"> Monto…</text></g><g class="node" aria-label="graph-node558" transform="translate(-268.15027013935907,-6.454433758399525)"><circle class="b-outline" cx="0" cy="0" r="25" fill="#569480" stroke="#447666" stroke-width="2px"/><text class="caption" text-anchor="middle" pointer-events="none" x="0" y="0" font-size="10px" fill="#FFFFFF" font-family="Helvetica Neue, Helvetica, Arial, sans-serif"> Andrea</text><text class="caption" text-anchor="middle" pointer-events="none" x="0" y="10" font-size="10px" fill="#FFFFFF" font-family="Helvetica Neue, Helvetica, Arial, sans-serif"> Wilson</text></g><g class="node" aria-label="graph-node559" transform="translate(-281.92715003957125,91.1598332821878)"><circle class="b-outline" cx="0" cy="0" r="25" fill="#569480" stroke="#447666" stroke-width="2px"/><text class="caption" text-anchor="middle" pointer-events="none" x="0" y="0" font-size="10px" fill="#FFFFFF" font-family="Helvetica Neue, Helvetica, Arial, sans-serif"> Felicia</text><text class="caption" text-anchor="middle" pointer-events="none" x="0" y="10" font-size="10px" fill="#FFFFFF" font-family="Helvetica Neue, Helvetica, Arial, sans-serif"> Green</text></g><g class="node" aria-label="graph-node560" transform="translate(-147.45074681908807,224.5305904490627)"><circle class="b-outline" cx="0" cy="0" r="25" fill="#569480" stroke="#447666" stroke-width="2px"/><text class="caption" text-anchor="middle" pointer-events="none" x="0" y="0" font-size="10px" fill="#FFFFFF" font-family="Helvetica Neue, Helvetica, Arial, sans-serif"> David</text><text class="caption" text-anchor="middle" pointer-events="none" x="0" y="10" font-size="10px" fill="#FFFFFF" font-family="Helvetica Neue, Helvetica, Arial, sans-serif"> Farmer</text></g><g class="node" aria-label="graph-node561" transform="translate(-116.58211071531245,133.3248512715326)"><circle class="b-outline" cx="0" cy="0" r="25" fill="#569480" stroke="#447666" stroke-width="2px"/><text class="caption" text-anchor="middle" pointer-events="none" x="0" y="0" font-size="10px" fill="#FFFFFF" font-family="Helvetica Neue, Helvetica, Arial, sans-serif"> Jackie</text><text class="caption" text-anchor="middle" pointer-events="none" x="0" y="10" font-size="10px" fill="#FFFFFF" font-family="Helvetica Neue, Helvetica, Arial, sans-serif"> Bradfo…</text></g></g></svg>