<svg xmlns="http://www.w3.org/2000/svg" width="421" height="457" viewBox="0 0 421 457"><defs><style type="text/css"/></defs><g transform="translate(366.5 54) scale(1)"><g class="relationship"><g transform="translate(-312.5 0) rotate(0)" stroke-width="5" stroke="#000000"><path d="M 58.695178092152055 -5.989663490593891 L 95.96898050729243 -9.793341079425122 A 40 40 0 0 1 100.02976931447472 -10 L 156.25 -10 L 212.4702306855253 -10 A 40 40 0 0 1 216.5310194927076 -9.79334107942512 L 229.0711209203455 -8.51366206436971 L 229.0711209203455 -8.51366206436971"/><polygon points="-24.8621506177483,0 -27.62461179749811,9.20820393249937 0,0 -27.62461179749811,-9.20820393249937" fill="#000000" transform="translate(312.5 0) rotate(5.826689442008371) translate(-59 0)" stroke="none"/></g><g transform="translate(-156.25 -10) rotate(0) translate(0 -13)"><g transform="translate(0 0)"><g transform="translate(-44.5625 0)" fill="#ffffff" stroke="#000000" stroke-width="0"><rect x="0" y="0" width="89.125" height="26" rx="5" ry="5" stroke="none"/><text xml:space="preserve" x="5" y="17.5" stroke="none" text-anchor="left" font-family="sans-serif" font-size="16" font-weight="normal" fill="#000000">ACTED_IN</text></g></g></g></g><g class="relationship"><g transform="translate(-312.5 0) rotate(0)" stroke-width="5" stroke="#000000"><path d="M 58.695178092152055 5.989663490593891 L 95.96898050729243 9.793341079425122 A 40 40 0 0 0 100.02976931447472 10 L 156.25 10 L 212.4702306855253 10 A 40 40 0 0 0 216.5310194927076 9.79334107942512 L 229.0711209203455 8.51366206436971 L 229.0711209203455 8.51366206436971"/><polygon points="-24.8621506177483,0 -27.62461179749811,9.20820393249937 0,0 -27.62461179749811,-9.20820393249937" fill="#000000" transform="translate(312.5 0) rotate(-5.826689442008371) translate(-59 0)" stroke="none"/></g><g transform="translate(-156.25 10) rotate(0) translate(0 -13)"><g transform="translate(0 0)"><g transform="translate(-45.890625 0)" fill="#ffffff" stroke="#000000" stroke-width="0"><rect x="0" y="0" width="91.78125" height="26" rx="5" ry="5" stroke="none"/><text xml:space="preserve" x="5" y="17.5" stroke="none" text-anchor="left" font-family="sans-serif" font-size="16" font-weight="normal" fill="#000000">DIRECTED</text></g></g></g></g><g class="relationship"><g transform="translate(1.6872297554945898e-32 308) rotate(-90)" stroke-width="5" stroke="#000000"><path d="M 59 0 L 224.1378493822517 0"/><polygon points="-24.8621506177483,0 -27.62461179749811,9.20820393249937 0,0 -27.62461179749811,-9.20820393249937" fill="#000000" transform="translate(249 0) rotate(0)" stroke="none"/></g><g transform="translate(8.668596524086e-15 166.43107530887414) rotate(0) translate(0 -32.2)"><g transform="translate(0 0)"><g transform="translate(-31.51953125 0)" fill="#ffffff" stroke="#000000" stroke-width="0"><rect x="0" y="0" width="63.0390625" height="26" rx="5" ry="5" stroke="none"/><text xml:space="preserve" x="5" y="17.5" stroke="none" text-anchor="left" font-family="sans-serif" font-size="16" font-weight="normal" fill="#000000">RATED</text></g></g><g transform="translate(0 26)"><g transform="translate(-45.7890625 0)" fill="white"><rect x="0" y="0" width="91.578125" height="38.4" rx="0" ry="0" stroke="none"/><g font-family="sans-serif" font-size="16" font-weight="normal" fill="#000000" text-anchor="end"><text xml:space="preserve" x="82.6875" y="14.1" stroke="none">rating:</text><text xml:space="preserve" x="87.1328125" y="14.1" stroke="none" text-anchor="start"></text><text xml:space="preserve" x="82.6875" y="33.3" stroke="none" text-anchor="end">timestamp:</text><text xml:space="preserve" x="87.1328125" y="33.3" stroke="none" text-anchor="start"></text></g></g></g></g></g><g class="node"><g fill="#ffffff" stroke="#000000" stroke-width="4"><circle cx="0" cy="0" r="52"/></g><g transform="translate(0 0)"><g transform="scale(0.6132816367187499) translate(0 0)"><g transform="translate(0 0)"><g font-family="sans-serif" font-size="50" font-weight="normal" fill="#000000" text-anchor="middle"><text xml:space="preserve" x="0" y="13" stroke="none">Movie</text></g></g></g></g></g><g class="node"><g fill="#ffffff" stroke="#000000" stroke-width="4"><circle cx="-312.5" cy="0" r="52"/></g><g transform="translate(-312.5 0)"><g transform="scale(0.5312504687499999) translate(0 0)"><g transform="translate(0 0)"><g font-family="sans-serif" font-size="50" font-weight="normal" fill="#000000" text-anchor="middle"><text xml:space="preserve" x="0" y="13" stroke="none">Person</text></g></g></g></g></g><g class="node"><g fill="#ffffff" stroke="#000000" stroke-width="4"><circle cx="1.6872297554945898e-32" cy="308" r="52"/></g><g transform="translate(1.6872297554945898e-32 308)"><g transform="scale(0.73828151171875) translate(0 0)"><g transform="translate(0 0)"><g font-family="sans-serif" font-size="50" font-weight="normal" fill="#000000" text-anchor="middle"><text xml:space="preserve" x="0" y="13" stroke="none">User</text></g></g></g><g transform="translate(3.429011037612589e-15 56)"><g transform="translate(0 0)"><g transform="translate(-31.125 0)" fill="white"><rect x="0" y="0" width="62.25" height="38.4" rx="0" ry="0" stroke="none"/><g font-family="sans-serif" font-size="16" font-weight="normal" fill="#000000" text-anchor="end"><text xml:space="preserve" x="53.359375" y="14.1" stroke="none">userId:</text><text xml:space="preserve" x="57.8046875" y="14.1" stroke="none" text-anchor="start"></text><text xml:space="preserve" x="53.359375" y="33.3" stroke="none" text-anchor="end">name:</text><text xml:space="preserve" x="57.8046875" y="33.3" stroke="none" text-anchor="start"></text></g></g></g></g></g></g></g></svg>