<svg width="85" height="98" viewBox="0 0 85 98" fill="none" xmlns="http://www.w3.org/2000/svg">
    <g clip-path="url(#clip0_73_8825)">
        <g opacity="0.35">
            <path fill-rule="evenodd" clip-rule="evenodd"
                d="M36.5341 66.1455C36.2315 66.7975 36.2937 67.4563 36.6485 68.0496C36.9441 68.5441 37.4429 68.9932 38.1031 69.355C38.7633 69.7168 39.5848 69.9915 40.526 70.137C41.8085 70.3354 43.1062 70.2622 44.236 69.9785C45.7591 69.5959 46.9768 68.8307 47.4401 67.8325C48.247 66.0939 46.4598 64.3069 43.4482 63.841C42.0277 63.6213 40.5885 63.7347 39.3796 64.0984C38.0256 64.5057 36.9604 65.227 36.5341 66.1455Z"
                fill="#006FD6" />
            <path fill-rule="evenodd" clip-rule="evenodd"
                d="M35.7408 84.8143C37.4175 85.9061 39.567 86.7067 42.1175 86.7067C44.6681 86.7067 46.8176 85.9061 48.4943 84.8143C49.9461 83.869 51.1931 82.616 52.2362 81.1671C54.7484 81.7658 57.1648 82.1427 59.3492 82.2185C60.9259 82.2732 62.494 82.1721 63.8886 81.8344C64.7254 81.6318 65.4998 81.344 66.1761 80.9536C67.9796 79.9124 68.5189 78.4688 68.3673 77.0124C68.236 75.7513 67.583 74.3563 66.5459 72.906C69.0558 72.3038 71.2264 71.5839 72.8639 70.7458C74.755 69.7778 76.1418 68.5369 76.1418 67.0645C76.1418 65.592 74.755 64.3511 72.8639 63.3831C72.365 63.1278 71.8166 62.8834 71.2242 62.65C70.8445 62.5003 70.4466 62.3552 70.0321 62.2146C68.971 61.8545 67.8009 61.524 66.546 61.2229C67.583 59.7726 68.236 58.3776 68.3673 57.1166C68.5189 55.6602 67.9796 54.2166 66.1761 53.1754C65.5332 52.8043 64.8018 52.5259 64.0123 52.3252C62.587 51.9629 60.9726 51.8541 59.349 51.9104C57.1647 51.9862 54.7483 52.3632 52.236 52.9619C51.193 51.513 49.946 50.2601 48.4943 49.3148C48.0751 49.0419 47.6264 48.7872 47.1493 48.5586C46.5789 48.2853 45.968 48.0495 45.3183 47.8646C44.3373 47.5854 43.2682 47.4224 42.1173 47.4224C39.5668 47.4224 37.4174 48.2231 35.7408 49.3148C34.289 50.2601 33.0421 51.5131 31.999 52.962C29.4866 52.3632 27.0701 51.9863 24.8857 51.9105C22.3629 51.8229 19.8623 52.1343 18.0588 53.1754C16.4807 54.0865 15.8705 55.3056 15.8442 56.5718C15.8405 56.7527 15.8486 56.9346 15.8676 57.1166C15.9989 58.3776 16.6518 59.7726 17.6889 61.2229C15.1791 61.8251 13.0087 62.5449 11.3713 63.383C9.48017 64.351 8.09336 65.5919 8.09336 67.0643C8.09335 68.5368 9.48051 69.7778 11.3717 70.7458C13.009 71.5838 15.1793 72.3037 17.6889 72.9058C16.6517 74.3562 15.9987 75.7513 15.8674 77.0123C15.7158 78.4688 16.2551 79.9123 18.0586 80.9535C19.8622 81.9947 22.3629 82.3061 24.8857 82.2185C27.0701 82.1427 29.4866 81.7658 31.9989 81.167C33.042 82.616 34.289 83.869 35.7408 84.8143ZM61.7116 54.7137C62.0341 54.7689 62.2981 54.841 62.5136 54.9231C62.6487 54.9745 62.7648 55.0298 62.8643 55.0872C63.3806 55.3853 63.7978 55.9415 63.6923 56.9544C63.5977 57.8629 63.0867 59.006 62.1138 60.3336C60.0141 59.9826 57.7283 59.687 55.2992 59.4545C54.8965 58.0523 54.3845 56.7328 53.7765 55.5206C56.0763 54.9589 58.0565 54.6639 59.6302 54.6093C60.5075 54.5789 61.1869 54.6238 61.7116 54.7137ZM19.7337 70.4677C17.4196 69.9261 15.6583 69.3264 14.4787 68.7227C13.1634 68.0495 12.7771 67.486 12.7771 67.0645C12.7771 66.6429 13.1634 66.0794 14.4787 65.4062C15.6583 64.8025 17.4197 64.2028 19.7338 63.6612C20.7886 64.7664 22.0428 65.9085 23.4755 67.0644C22.0427 68.2204 20.7885 69.3624 19.7337 70.4677ZM26.4668 64.8155C25.6551 64.1281 24.9194 63.4526 24.264 62.7953C25.5327 62.598 26.8804 62.4207 28.2964 62.2659C28.2152 62.7407 28.1459 63.2222 28.0889 63.7097C27.532 64.0777 26.9911 64.4466 26.4668 64.8155ZM36.3067 58.9656C35.4622 58.9985 34.6281 59.0385 33.8056 59.0853C34.0735 58.268 34.3807 57.4901 34.7224 56.7577C35.861 57.1361 37.0311 57.5608 38.2218 58.0294C37.5828 58.332 36.9441 58.6442 36.3067 58.9656ZM42.1173 56.3025C40.115 55.4754 38.1368 54.7514 36.2222 54.1424C37.1605 52.8064 38.1993 51.7895 39.2452 51.1085C40.4113 50.3492 41.3873 50.1262 42.1175 50.1262C42.4827 50.1262 42.9092 50.182 43.3903 50.3326C43.6454 50.4125 43.9159 50.5191 44.2007 50.6583C44.4527 50.7815 44.716 50.9302 44.9897 51.1084C46.0356 51.7894 47.0744 52.8064 48.0126 54.1423C46.098 54.7513 44.1197 55.4754 42.1173 56.3025ZM63.6923 77.1746C63.7978 78.1875 63.3808 78.7436 62.8644 79.0417C62.3803 79.3212 61.5034 79.5502 59.95 79.5276C59.8464 79.5261 59.7398 79.5235 59.6302 79.5197C58.0565 79.4651 56.0764 79.1701 53.7766 78.6084C54.3846 77.3962 54.8966 76.0766 55.2993 74.6743C57.7283 74.4418 60.014 74.1462 62.1137 73.7953C63.0867 75.123 63.5977 76.2661 63.6923 77.1746ZM24.6047 54.6093C22.8501 54.5484 21.8868 54.7892 21.3704 55.0873C20.8541 55.3854 20.4371 55.9415 20.5426 56.9544C20.6371 57.8629 21.1481 59.006 22.121 60.3336C24.2209 59.9826 26.5067 59.687 28.9359 59.4545C29.3386 58.0523 29.8506 56.7328 30.4585 55.5207C28.1586 54.959 26.1784 54.6639 24.6047 54.6093ZM32.5784 67.0646C32.5784 67.8312 32.6098 68.5852 32.6706 69.3235C33.532 69.8704 34.4332 70.4164 35.3722 70.9585C36.3113 71.5006 37.2569 72.0209 38.2043 72.5181C39.4834 72.5533 40.7896 72.5714 42.1178 72.5714C43.4457 72.5714 44.7516 72.5533 46.0305 72.5182C46.9779 72.0209 47.9236 71.5006 48.8627 70.9585C49.8017 70.4164 50.7029 69.8705 51.5643 69.3236C51.625 68.5852 51.6565 67.8312 51.6565 67.0645C51.6565 66.2978 51.625 65.5438 51.5642 64.8054C50.7029 64.2585 49.8017 63.7126 48.8627 63.1705C47.9236 62.6283 46.9778 62.108 46.0304 61.6107C44.7515 61.5757 43.4457 61.5575 42.1178 61.5575C40.7896 61.5575 39.4835 61.5757 38.2045 61.6108C37.2571 62.1081 36.3113 62.6283 35.3722 63.1705C34.4332 63.7126 33.532 64.2585 32.6706 64.8054C32.6098 65.5438 32.5784 66.2978 32.5784 67.0646ZM27.4692 70.0048C27.1287 69.7745 26.7945 69.544 26.4669 69.3134C25.6552 70.0008 24.9195 70.6763 24.2641 71.3336C25.5327 71.5309 26.8804 71.7083 28.2963 71.863C28.2152 71.3882 28.1459 70.9066 28.0889 70.4192C27.8801 70.2812 27.6735 70.143 27.4692 70.0048ZM38.2219 76.0996C37.5829 75.7969 36.944 75.4846 36.3065 75.1632C35.4621 75.1303 34.6279 75.0903 33.8054 75.0434C34.0734 75.8609 34.3807 76.6389 34.7224 77.3713C35.861 76.9929 37.0312 76.5682 38.2219 76.0996ZM42.1174 77.8264C43.8695 78.5502 45.6031 79.195 47.2918 79.7528C47.533 79.8325 47.7734 79.9105 48.0127 79.9866C47.0744 81.3226 46.0356 82.3395 44.9897 83.0206C43.8236 83.7799 42.8476 84.0029 42.1173 84.0029C41.3871 84.0028 40.4112 83.7799 39.2452 83.0206C38.1992 82.3396 37.1604 81.3226 36.2221 79.9866C38.1368 79.3776 40.1151 78.6536 42.1174 77.8264ZM50.4294 59.0853C50.1614 58.268 49.8542 57.4901 49.5125 56.7577C48.3738 57.1361 47.2037 57.5608 46.013 58.0294C46.6519 58.332 47.2906 58.6442 47.9279 58.9656C48.7725 58.9985 49.6067 59.0385 50.4294 59.0853ZM71.4584 67.0643C71.4584 66.6428 71.0718 66.0793 69.7565 65.4061C69.3016 65.1733 68.7601 64.941 68.1338 64.7125C67.136 64.3484 65.9229 63.9938 64.5012 63.661C63.4463 64.7664 62.1921 65.9085 60.7592 67.0645C62.1921 68.2205 63.4463 69.3626 64.5012 70.4679C66.8155 69.9262 68.5772 69.3265 69.7569 68.7227C71.0722 68.0495 71.4584 67.4859 71.4584 67.0643ZM46.013 76.0996C46.652 75.7969 47.2909 75.4847 47.9284 75.1632C48.7728 75.1303 49.6069 75.0903 50.4294 75.0435C50.1614 75.8609 49.8542 76.6389 49.5125 77.3713C48.3738 76.9929 47.2037 76.5682 46.013 76.0996ZM57.768 69.3134C57.2438 69.6823 56.703 70.0511 56.1462 70.419C56.0892 70.9066 56.0199 71.3882 55.9387 71.863C57.3547 71.7083 58.7023 71.531 59.9709 71.3337C59.3154 70.6764 58.5797 70.0008 57.768 69.3134ZM59.971 62.7952C58.7023 62.5979 57.3547 62.4206 55.9387 62.2659C56.0199 62.7408 56.0892 63.2224 56.1462 63.71C56.703 64.0779 57.2438 64.4467 57.768 64.8156C58.5798 64.1282 59.3155 63.4526 59.971 62.7952ZM28.9358 74.6742C29.3385 76.0766 29.8505 77.3961 30.4585 78.6083C28.1586 79.17 26.1784 79.4651 24.6047 79.5197C22.8501 79.5806 21.8868 79.3398 21.3704 79.0417C20.8541 78.7436 20.4371 78.1875 20.5426 77.1746C20.6371 76.2661 21.1482 75.1229 22.1212 73.7952C24.221 74.1461 26.5067 74.4417 28.9358 74.6742Z"
                fill="#006FD6" />
        </g>
        <path fill-rule="evenodd" clip-rule="evenodd"
            d="M29.7419 71.1656C35.6268 68.4907 42.6943 63.4843 49.4537 56.7249C56.2131 49.9655 61.2195 42.898 63.8944 37.0131C65.2361 34.0613 65.9308 31.5388 66.0486 29.5794C66.1666 27.6159 65.7 26.538 65.1222 25.9601C64.5443 25.3823 63.4664 24.9157 61.5029 25.0337C59.5435 25.1515 57.021 25.8462 54.0692 27.1879C48.1843 29.8628 41.1168 34.8692 34.3574 41.6286C27.598 48.388 22.5916 55.4555 19.9167 61.3404C18.5749 64.2922 17.8803 66.8147 17.7625 68.7741C17.6444 70.7376 18.1111 71.8156 18.6889 72.3934C19.2667 72.9712 20.3447 73.4378 22.3082 73.3198C24.2676 73.202 26.7901 72.5074 29.7419 71.1656ZM22.6226 78.5513C19.7995 78.721 17.0013 78.1175 14.983 76.0992C12.9648 74.081 12.3613 71.2828 12.531 68.4597C12.701 65.6324 13.6519 62.4578 15.1455 59.1717C18.1415 52.5806 23.5654 45.0089 30.6515 37.9227C37.7377 30.8366 45.3094 25.4127 51.9005 22.4168C55.1866 20.9231 58.3612 19.9722 61.1885 19.8022C64.0116 19.6325 66.8098 20.236 68.828 22.2543C70.8463 24.2725 71.4498 27.0707 71.2801 29.8938C71.1101 32.7211 70.1592 35.8957 68.6655 39.1818C65.6696 45.7729 60.2457 53.3446 53.1596 60.4308C46.0734 67.5169 38.5017 72.9408 31.9106 75.9367C28.6245 77.4304 25.4498 78.3813 22.6226 78.5513Z"
            fill="white" stroke="#151E29" stroke-linejoin="round" />
        <path fill-rule="evenodd" clip-rule="evenodd"
            d="M19.9162 37.0129C22.5911 42.8978 27.5975 49.9653 34.3569 56.7247C41.1163 63.4841 48.1838 68.4905 54.0687 71.1654C57.0205 72.5071 59.543 73.2018 61.5024 73.3196C63.4659 73.4376 64.5438 72.971 65.1217 72.3932C65.6995 71.8153 66.1661 70.7374 66.0481 68.7739C65.9303 66.8145 65.2356 64.292 63.8939 61.3402C61.219 55.4553 56.2126 48.3878 49.4532 41.6284C42.6938 34.869 35.6263 29.8626 29.7414 27.1877C26.7896 25.8459 24.2671 25.1512 22.3077 25.0335C20.3442 24.9154 19.2662 25.3821 18.6884 25.9599C18.1106 26.5377 17.6439 27.6157 17.762 29.5792C17.8797 31.5386 18.5744 34.0611 19.9162 37.0129ZM12.5305 29.8936C12.3608 27.0705 12.9643 24.2723 14.9825 22.254C17.0008 20.2358 19.799 19.6323 22.6221 19.802C25.4493 19.9719 28.624 20.9228 31.9101 22.4165C38.5012 25.4125 46.0729 30.8364 53.1591 37.9225C60.2452 45.0086 65.6691 52.5804 68.665 59.1715C70.1587 62.4576 71.1096 65.6322 71.2796 68.4595C71.4493 71.2826 70.8457 74.0808 68.8275 76.099C66.8093 78.1172 64.0111 78.7207 61.188 78.5511C58.3607 78.3811 55.1861 77.4302 51.9 75.9365C45.3089 72.9406 37.7371 67.5167 30.651 60.4306C23.5649 53.3444 18.141 45.7727 15.145 39.1816C13.6513 35.8955 12.7004 32.7208 12.5305 29.8936Z"
            fill="#FFDE63" stroke="#151E29" stroke-linejoin="round" />
        <circle cx="41.6987" cy="49.1765" r="6.31733" transform="rotate(60 41.6987 49.1765)"
            fill="#FFDE63" />
        <path opacity="0.5" fill-rule="evenodd" clip-rule="evenodd"
            d="M38.2477 49.6488C39.9922 52.6703 43.8558 53.7055 46.8773 51.9611C47.1234 51.819 47.3564 51.6628 47.5757 51.4942C47.0707 52.7772 46.1441 53.9045 44.8573 54.6475C41.8357 56.3919 37.9721 55.3567 36.2276 52.3351C34.6252 49.5597 35.3682 46.0738 37.8416 44.1723C37.1608 45.9018 37.2462 47.9141 38.2477 49.6488Z"
            fill="#D9B54A" />
        <circle cx="41.6987" cy="49.1765" r="5.81733" transform="rotate(60 41.6987 49.1765)"
            stroke="#151E29" />
        <path fill-rule="evenodd" clip-rule="evenodd"
            d="M66.0548 42.2293C60.0021 39.9596 51.4646 38.5021 41.9053 38.5021C32.3461 38.5021 23.8086 39.9596 17.7559 42.2293C14.7199 43.3678 12.445 44.6603 10.9762 45.9625C9.50432 47.2675 9.07207 48.3597 9.07207 49.1768C9.07207 49.994 9.50432 51.0862 10.9762 52.3911C12.445 53.6933 14.7199 54.9858 17.7559 56.1243C23.8086 58.3941 32.3461 59.8515 41.9053 59.8515C51.4646 59.8515 60.0021 58.3941 66.0548 56.1243C69.0908 54.9858 71.3657 53.6933 72.8345 52.3911C74.3063 51.0862 74.7386 49.994 74.7386 49.1768C74.7386 48.3597 74.3063 47.2675 72.8345 45.9625C71.3657 44.6603 69.0908 43.3678 66.0548 42.2293ZM76.3113 42.041C78.4276 43.9173 79.9795 46.3226 79.9795 49.1768C79.9795 52.031 78.4276 54.4364 76.3113 56.3127C74.192 58.1916 71.2748 59.7641 67.895 61.0315C61.116 63.5736 51.9266 65.0924 41.9053 65.0924C31.884 65.0924 22.6947 63.5736 15.9157 61.0315C12.5358 59.7641 9.61864 58.1916 7.49932 56.3127C5.38306 54.4364 3.83117 52.031 3.83117 49.1768C3.83117 46.3226 5.38306 43.9173 7.49932 42.041C9.61864 40.162 12.5358 38.5896 15.9157 37.3221C22.6947 34.78 31.884 33.2612 41.9053 33.2612C51.9266 33.2612 61.116 34.78 67.895 37.3221C71.2748 38.5896 74.192 40.162 76.3113 42.041Z"
            fill="#FF668A" stroke="#151E29" stroke-linejoin="round" />
        <path fill-rule="evenodd" clip-rule="evenodd"
            d="M48.8524 73.3265C51.1222 67.2738 52.5797 58.7363 52.5797 49.1771C52.5797 39.6178 51.1222 31.0803 48.8525 25.0276C47.7139 21.9916 46.4215 19.7167 45.1193 18.2479C43.8143 16.776 42.7221 16.3438 41.905 16.3438C41.0878 16.3438 39.9956 16.776 38.6907 18.2479C37.3884 19.7167 36.096 21.9916 34.9575 25.0276C32.6877 31.0803 31.2303 39.6178 31.2303 49.1771C31.2303 58.7363 32.6877 67.2738 34.9575 73.3265C36.096 76.3625 37.3884 78.6374 38.6907 80.1062C39.9956 81.5781 41.0878 82.0103 41.905 82.0103C42.7221 82.0103 43.8143 81.5781 45.1193 80.1062C46.4215 78.6374 47.7139 76.3625 48.8524 73.3265ZM49.0408 83.5831C47.1645 85.6993 44.7592 87.2512 41.905 87.2512C39.0508 87.2512 36.6454 85.6993 34.7691 83.5831C32.8901 81.4638 31.3177 78.5466 30.0503 75.1667C27.5081 68.3877 25.9894 59.1984 25.9894 49.1771C25.9894 39.1557 27.5081 29.9664 30.0503 23.1874C31.3177 19.8076 32.8901 16.8904 34.7691 14.771C36.6454 12.6548 39.0508 11.1029 41.905 11.1029C44.7592 11.1029 47.1645 12.6548 49.0408 14.771C50.9198 16.8904 52.4922 19.8076 53.7597 23.1874C56.3018 29.9664 57.8206 39.1558 57.8206 49.1771C57.8206 59.1984 56.3018 68.3877 53.7597 75.1667C52.4922 78.5466 50.9198 81.4638 49.0408 83.5831Z"
            fill="#A3E2FF" stroke="#151E29" stroke-linejoin="round" />
        <path
            d="M65.1219 25.9599C64.5441 25.382 63.4661 24.9154 61.5026 25.0334C59.5432 25.1512 57.0207 25.8459 54.0689 27.1876C48.184 29.8626 41.1165 34.8689 34.3571 41.6283C27.5977 48.3877 22.5913 55.4552 19.9164 61.3401C18.5747 64.2919 17.88 66.8144 17.7622 68.7738C17.6442 70.7373 18.1108 71.8153 18.6886 72.3931L14.9828 76.099C12.9645 74.0808 12.361 71.2825 12.5307 68.4594C12.7007 65.6322 13.6516 62.4575 15.1453 59.1714C18.1412 52.5804 23.5651 45.0086 30.6512 37.9225C37.7374 30.8363 45.3091 25.4124 51.9002 22.4165C55.1863 20.9228 58.361 19.9719 61.1882 19.802C64.0113 19.6323 66.8095 20.2358 68.8278 22.254L65.1219 25.9599Z"
            fill="white" />
        <path
            d="M18.6886 72.3931C18.1108 71.8153 17.6442 70.7373 17.7622 68.7738C17.88 66.8144 18.5747 64.2919 19.9164 61.3401C22.5913 55.4552 27.5977 48.3877 34.3571 41.6283C41.1165 34.8689 48.184 29.8626 54.0689 27.1876C57.0207 25.8459 59.5432 25.1512 61.5026 25.0334C63.4661 24.9154 64.5441 25.382 65.1219 25.9599L68.8278 22.254C66.8095 20.2358 64.0113 19.6323 61.1882 19.802C58.361 19.9719 55.1863 20.9228 51.9002 22.4165C45.3091 25.4124 37.7374 30.8363 30.6512 37.9225C23.5651 45.0086 18.1412 52.5804 15.1453 59.1714C13.6516 62.4575 12.7007 65.6322 12.5307 68.4594C12.361 71.2825 12.9645 74.0808 14.9828 76.099M18.6886 72.3931C19.2665 72.9709 20.3444 73.4376 22.3079 73.3195M18.6886 72.3931L14.9828 76.099M14.9828 76.099C17.001 78.1172 19.7992 78.7207 22.6223 78.551"
            stroke="#151E29" stroke-linejoin="round" />
        <path
            d="M65.1218 72.3935C65.6996 71.8157 66.1663 70.7378 66.0482 68.7743C65.9305 66.8148 65.2358 64.2924 63.894 61.3405C61.2191 55.4557 56.2127 48.3881 49.4533 41.6287C42.6939 34.8693 35.6264 29.863 29.7415 27.188C26.7897 25.8463 24.2672 25.1516 22.3078 25.0338C20.3443 24.9158 19.2664 25.3825 18.6885 25.9603L14.9827 22.2544C17.0009 20.2362 19.7991 19.6327 22.6222 19.8024C25.4495 19.9723 28.6241 20.9232 31.9102 22.4169C38.5013 25.4128 46.073 30.8367 53.1592 37.9229C60.2453 45.009 65.6692 52.5808 68.6652 59.1718C70.1589 62.458 71.1097 65.6326 71.2797 68.4598C71.4494 71.283 70.8459 74.0812 68.8277 76.0994L65.1218 72.3935Z"
            fill="#FFDE63" stroke="#151E29" stroke-linejoin="round" />
        <path
            d="M9.07207 49.1768C9.07207 49.9939 9.50432 51.0861 10.9762 52.391C12.445 53.6933 14.7199 54.9857 17.7559 56.1242C23.8086 58.394 32.3461 59.8514 41.9053 59.8514C51.4646 59.8514 60.0021 58.394 66.0548 56.1242C69.0908 54.9857 71.3657 53.6933 72.8345 52.3911C74.3063 51.0861 74.7386 49.9939 74.7386 49.1768L79.9795 49.1768C79.9795 52.031 78.4276 54.4363 76.3113 56.3126C74.192 58.1916 71.2748 59.764 67.895 61.0314C61.116 63.5736 51.9266 65.0923 41.9053 65.0923C31.884 65.0923 22.6947 63.5736 15.9157 61.0314C12.5358 59.764 9.61864 58.1916 7.49932 56.3126C5.38306 54.4363 3.83117 52.0309 3.83117 49.1768L9.07207 49.1768Z"
            fill="#FF668A" stroke="#151E29" stroke-linejoin="round" />
        <path
            d="M41.905 16.3438C41.0879 16.3438 39.9957 16.776 38.6907 18.2479C37.3885 19.7167 36.0961 21.9916 34.9576 25.0276C32.6878 31.0803 31.2303 39.6178 31.2303 49.1771C31.2303 58.7363 32.6878 67.2738 34.9576 73.3265C36.0961 76.3625 37.3885 78.6374 38.6907 80.1062C39.9957 81.5781 41.0879 82.0103 41.905 82.0103L41.905 87.2512C39.0508 87.2512 36.6455 85.6993 34.7692 83.5831C32.8902 81.4638 31.3178 78.5466 30.0503 75.1667C27.5082 68.3877 25.9894 59.1984 25.9894 49.1771C25.9894 39.1557 27.5082 29.9664 30.0503 23.1874C31.3178 19.8076 32.8902 16.8904 34.7692 14.771C36.6455 12.6548 39.0508 11.1029 41.905 11.1029L41.905 16.3438Z"
            fill="#A3E2FF" stroke="#151E29" stroke-linejoin="round" />
    </g>
    <defs>
        <clipPath id="clip0_73_8825">
            <rect width="85" height="98" fill="white" />
        </clipPath>
    </defs>
</svg>