<svg width="140" height="122" viewBox="0 0 140 122" fill="none" xmlns="http://www.w3.org/2000/svg">
    <g opacity="0.35">
        <path fill-rule="evenodd" clip-rule="evenodd"
            d="M62.3645 80.3507C61.9272 81.2929 62.0171 82.2449 62.5298 83.1025C62.9571 83.8171 63.6779 84.4661 64.632 84.989C65.5861 85.5119 66.7734 85.9088 68.1336 86.1192C69.9871 86.4059 71.8626 86.3001 73.4953 85.89C75.6966 85.3372 77.4564 84.2313 78.1259 82.7887C79.2922 80.276 76.7093 77.6934 72.3569 77.0201C70.3039 76.7025 68.224 76.8665 66.4769 77.3921C64.52 77.9808 62.9806 79.0232 62.3645 80.3507Z"
            fill="#0A6190" />
        <path fill-rule="evenodd" clip-rule="evenodd"
            d="M61.218 107.331C63.6411 108.909 66.7476 110.066 70.4338 110.066C74.1199 110.066 77.2264 108.909 79.6496 107.331C81.7477 105.965 83.5498 104.154 85.0573 102.06C88.688 102.925 92.1802 103.47 95.3371 103.58C97.6159 103.659 99.8821 103.513 101.898 103.024C103.107 102.732 104.226 102.316 105.203 101.751C107.81 100.247 108.589 98.1604 108.37 96.0555C108.18 94.2331 107.237 92.217 105.738 90.1209C109.365 89.2506 112.502 88.2102 114.869 86.999C117.602 85.6001 119.606 83.8067 119.606 81.6787C119.606 79.5507 117.602 77.7573 114.869 76.3584C114.148 75.9894 113.355 75.6362 112.499 75.2988C111.95 75.0826 111.375 74.8728 110.776 74.6696C109.243 74.1492 107.552 73.6715 105.738 73.2364C107.237 71.1404 108.18 69.1244 108.37 67.3019C108.589 65.1971 107.81 63.1108 105.203 61.6061C104.274 61.0697 103.217 60.6674 102.076 60.3774C100.016 59.8538 97.6834 59.6965 95.3369 59.7779C92.18 59.8874 88.6878 60.4322 85.0571 61.2975C83.5497 59.2036 81.7476 57.3928 79.6496 56.0267C79.0438 55.6323 78.3953 55.2641 77.7057 54.9337C76.8814 54.5389 75.9984 54.198 75.0595 53.9308C73.6418 53.5273 72.0967 53.2917 70.4335 53.2917C66.7475 53.2918 63.6411 54.4489 61.218 56.0267C59.1199 57.3928 57.3178 59.2037 55.8103 61.2976C52.1794 60.4323 48.6871 59.8875 45.5301 59.7779C41.884 59.6514 38.2702 60.1014 35.6637 61.6061C33.383 62.9227 32.5012 64.6846 32.4632 66.5146C32.4578 66.776 32.4696 67.0388 32.497 67.3019C32.6867 69.1244 33.6304 71.1404 35.1292 73.2364C31.502 74.1066 28.3653 75.147 25.9989 76.3582C23.2658 77.7571 21.2616 79.5505 21.2616 81.6785C21.2616 83.8065 23.2663 85.6001 25.9994 86.999C28.3657 88.2101 31.5022 89.2504 35.1292 90.1207C33.6303 92.2168 32.6865 94.233 32.4968 96.0555C32.2776 98.1603 33.057 100.247 35.6635 101.751C38.27 103.256 41.8841 103.706 45.5301 103.58C48.687 103.47 52.1793 102.925 55.8101 102.06C57.3177 104.154 59.1198 105.965 61.218 107.331ZM98.7514 63.8292C99.2174 63.909 99.5989 64.0132 99.9104 64.1318C100.106 64.2061 100.273 64.286 100.417 64.369C101.163 64.7998 101.766 65.6036 101.614 67.0675C101.477 68.3804 100.739 70.0324 99.3327 71.9511C96.298 71.4439 92.9946 71.0167 89.4841 70.6807C88.902 68.6542 88.1621 66.7472 87.2835 64.9954C90.6072 64.1836 93.4689 63.7573 95.7432 63.6784C97.0111 63.6344 97.9931 63.6993 98.7514 63.8292ZM38.0843 86.5971C34.74 85.8144 32.1945 84.9477 30.4897 84.0752C28.5888 83.1022 28.0306 82.2879 28.0306 81.6787C28.0306 81.0694 28.5888 80.2551 30.4897 79.2822C32.1945 78.4096 34.7401 77.543 38.0844 76.7602C39.6089 78.3576 41.4214 80.008 43.4921 81.6786C41.4214 83.3492 39.6088 84.9997 38.0843 86.5971ZM47.8151 78.4285C46.642 77.4351 45.5788 76.4588 44.6316 75.5088C46.4651 75.2237 48.4128 74.9674 50.4592 74.7438C50.342 75.43 50.2418 76.1258 50.1594 76.8303C49.3546 77.3622 48.5728 77.8953 47.8151 78.4285ZM62.0358 69.9741C60.8154 70.0217 59.6099 70.0795 58.4212 70.1472C58.8085 68.9659 59.2524 67.8416 59.7462 66.7833C61.3918 67.3301 63.0828 67.9439 64.8035 68.6211C63.8801 69.0584 62.957 69.5096 62.0358 69.9741ZM70.4334 66.1254C67.5397 64.93 64.6807 63.8837 61.9138 63.0036C63.2697 61.0728 64.771 59.6032 66.2826 58.6189C67.9679 57.5216 69.3784 57.1993 70.4338 57.1993C70.9614 57.1993 71.5779 57.2799 72.2731 57.4976C72.6419 57.6131 73.0327 57.7672 73.4443 57.9683C73.8086 58.1463 74.189 58.3612 74.5847 58.6188C76.0962 59.603 77.5975 61.0727 78.9534 63.0035C76.1864 63.8836 73.3273 64.93 70.4334 66.1254ZM101.614 96.29C101.766 97.7539 101.164 98.5576 100.417 98.9884C99.7178 99.3923 98.4505 99.7233 96.2054 99.6906C96.0557 99.6884 95.9017 99.6846 95.7432 99.6791C93.4689 99.6002 90.6072 99.1738 87.2836 98.3621C88.1622 96.6102 88.9022 94.7032 89.4842 92.6765C92.9946 92.3405 96.2979 91.9133 99.3325 91.4061C100.739 93.3249 101.477 94.977 101.614 96.29ZM45.124 63.6784C42.5882 63.5904 41.196 63.9383 40.4498 64.3691C39.7036 64.7999 39.1009 65.6036 39.2533 67.0675C39.39 68.3804 40.1285 70.0324 41.5345 71.9511C44.5693 71.4439 47.8728 71.0167 51.3835 70.6807C51.9655 68.6542 52.7054 66.7472 53.584 64.9954C50.2602 64.1837 47.3984 63.7573 45.124 63.6784ZM56.6476 81.6788C56.6476 82.7868 56.6931 83.8764 56.7809 84.9435C58.0258 85.7339 59.3282 86.523 60.6853 87.3064C62.0424 88.0899 63.4092 88.8418 64.7783 89.5604C66.6269 89.6112 68.5146 89.6374 70.4341 89.6374C72.3533 89.6374 74.2406 89.6112 76.0889 89.5605C77.458 88.8418 78.8247 88.0899 80.1819 87.3064C81.539 86.523 82.8414 85.734 84.0863 84.9436C84.1741 83.8764 84.2196 82.7868 84.2196 81.6787C84.2196 80.5707 84.1741 79.481 84.0863 78.4139C82.8414 77.6235 81.539 76.8345 80.1819 76.051C78.8247 75.2675 77.4579 74.5156 76.0886 73.7969C74.2404 73.7462 72.3532 73.7199 70.4341 73.7199C68.5146 73.7199 66.6271 73.7462 64.7785 73.7969C63.4093 74.5156 62.0425 75.2676 60.6853 76.0511C59.3282 76.8345 58.0258 77.6235 56.781 78.4139C56.6931 79.4811 56.6476 80.5708 56.6476 81.6788ZM49.2638 85.9282C48.7717 85.5953 48.2888 85.2621 47.8152 84.9289C46.6421 85.9223 45.5789 86.8986 44.6317 87.8485C46.4651 88.1336 48.4128 88.39 50.4592 88.6136C50.3419 87.9274 50.2418 87.2315 50.1593 86.527C49.8576 86.3275 49.559 86.1279 49.2638 85.9282ZM64.8037 94.7363C63.8802 94.2989 62.9568 93.8476 62.0355 93.3831C60.8152 93.3355 59.6097 93.2777 58.421 93.21C58.8083 94.3913 59.2523 95.5157 59.7461 96.5742C61.3918 96.0274 63.0829 95.4136 64.8037 94.7363ZM70.4336 97.232C72.9657 98.278 75.4711 99.2099 77.9116 100.016C78.2603 100.131 78.6076 100.244 78.9535 100.354C77.5975 102.285 76.0962 103.754 74.5847 104.739C72.8994 105.836 71.4888 106.158 70.4335 106.158C69.3782 106.158 67.9677 105.836 66.2826 104.739C64.771 103.755 63.2696 102.285 61.9137 100.354C64.6807 99.4738 67.5398 98.4274 70.4336 97.232ZM82.4461 70.1472C82.0588 68.9659 81.6148 67.8416 81.121 66.7833C79.4754 67.3301 77.7843 67.9439 76.0635 68.6211C76.9868 69.0585 77.9099 69.5096 78.831 69.9741C80.0515 70.0217 81.2572 70.0795 82.4461 70.1472ZM112.838 81.6785C112.838 81.0692 112.279 80.2549 110.378 79.282C109.72 78.9455 108.938 78.6098 108.033 78.2795C106.591 77.7534 104.838 77.2409 102.783 76.76C101.258 78.3575 99.4458 80.0081 97.375 81.6787C99.4457 83.3494 101.258 84.9999 102.783 86.5974C106.128 85.8146 108.674 84.9478 110.378 84.0752C112.279 83.1022 112.838 82.2877 112.838 81.6785ZM76.0635 94.7363C76.987 94.2989 77.9103 93.8477 78.8316 93.3831C80.052 93.3355 81.2575 93.2777 82.4462 93.21C82.0589 94.3914 81.6149 95.5158 81.121 96.5742C79.4754 96.0274 77.7843 95.4136 76.0635 94.7363ZM93.052 84.9289C92.2944 85.462 91.5128 85.9949 90.7082 86.5267C90.6257 87.2313 90.5256 87.9273 90.4083 88.6137C92.4546 88.3901 94.4022 88.1338 96.2357 87.8487C95.2884 86.8986 94.2251 85.9223 93.052 84.9289ZM96.2357 75.5087C94.4023 75.2236 92.4546 74.9673 90.4083 74.7437C90.5256 75.43 90.6257 76.1261 90.7082 76.8307C91.5128 77.3625 92.2944 77.8955 93.052 78.4286C94.2252 77.4351 95.2885 76.4588 96.2357 75.5087ZM51.3833 92.6764C51.9653 94.7031 52.7053 96.6101 53.5839 98.362C50.2601 99.1738 47.3983 99.6002 45.124 99.6791C42.5882 99.7671 41.196 99.4192 40.4498 98.9884C39.7035 98.5576 39.1009 97.7539 39.2533 96.29C39.39 94.977 40.1286 93.3249 41.5348 91.406C44.5694 91.9132 47.8728 92.3404 51.3833 92.6764Z"
            fill="#0A6190" />
    </g>
    <path fill-rule="evenodd" clip-rule="evenodd"
        d="M52.5482 87.6056C61.053 83.7398 71.2671 76.5045 81.0359 66.7357C90.8046 56.967 98.0399 46.7529 101.906 38.248C103.845 33.982 104.849 30.3365 105.019 27.5047C105.19 24.667 104.515 23.1092 103.68 22.2741C102.845 21.439 101.287 20.7646 98.4496 20.9352C95.6178 21.1054 91.9723 22.1094 87.7062 24.0485C79.2014 27.9143 68.9873 35.1496 59.2185 44.9184C49.4497 54.6872 42.2145 64.9012 38.3486 73.4061C36.4095 77.6721 35.4055 81.3176 35.2353 84.1494C35.0648 86.9871 35.7392 88.5449 36.5742 89.38C37.4093 90.2151 38.9672 90.8895 41.8048 90.7189C44.6366 90.5487 48.2821 89.5447 52.5482 87.6056ZM42.2593 98.2795C38.1792 98.5247 34.1352 97.6525 31.2185 94.7358C28.3017 91.819 27.4295 87.775 27.6748 83.695C27.9204 79.609 29.2946 75.021 31.4533 70.2719C35.7831 60.7464 43.6218 49.8036 53.8627 39.5626C64.1037 29.3216 75.0465 21.4829 84.572 17.1532C89.3212 14.9945 93.9092 13.6202 97.9951 13.3746C102.075 13.1294 106.119 14.0016 109.036 16.9183C111.953 19.8351 112.825 23.8791 112.58 27.9591C112.334 32.0451 110.96 36.6331 108.801 41.3823C104.471 50.9077 96.6326 61.8505 86.3916 72.0915C76.1507 82.3325 65.2079 90.1712 55.6824 94.5009C50.9332 96.6596 46.3452 98.0339 42.2593 98.2795Z"
        fill="white" stroke="#1A1B1D" stroke-width="0.973333" stroke-linejoin="round" />
    <path fill-rule="evenodd" clip-rule="evenodd"
        d="M38.3482 38.2479C42.2141 46.7527 49.4494 56.9668 59.2181 66.7356C68.9869 76.5043 79.201 83.7396 87.7058 87.6055C91.9719 89.5446 95.6174 90.5485 98.4492 90.7188C101.287 90.8893 102.845 90.2149 103.68 89.3799C104.515 88.5448 105.189 86.9869 105.019 84.1493C104.848 81.3175 103.844 77.672 101.905 73.4059C98.0395 64.9011 90.8042 54.687 81.0355 44.9182C71.2667 35.1494 61.0526 27.9142 52.5478 24.0483C48.2817 22.1092 44.6362 21.1052 41.8044 20.935C38.9668 20.7645 37.4089 21.4389 36.5738 22.2739C35.7388 23.109 35.0644 24.6669 35.2349 27.5045C35.4051 30.3363 36.4091 33.9818 38.3482 38.2479ZM27.6744 27.959C27.4291 23.8789 28.3013 19.8349 31.2181 16.9182C34.1348 14.0014 38.1788 13.1292 42.2589 13.3745C46.3448 13.6201 50.9328 14.9943 55.682 17.153C65.2075 21.4828 76.1503 29.3215 86.3913 39.5624C96.6322 49.8034 104.471 60.7462 108.801 70.2717C110.959 75.0209 112.334 79.6089 112.579 83.6948C112.824 87.7749 111.952 91.8189 109.036 94.7356C106.119 97.6524 102.075 98.5246 97.9947 98.2793C93.9088 98.0337 89.3208 96.6595 84.5716 94.5008C75.0461 90.171 64.1033 82.3323 53.8623 72.0913C43.6214 61.8504 35.7827 50.9076 31.4529 41.3821C29.2942 36.6329 27.92 32.0449 27.6744 27.959Z"
        fill="#80BB53" stroke="#1A1B1D" stroke-width="0.973333" stroke-linejoin="round" />
    <circle cx="69.8281" cy="55.8269" r="9.12989" transform="rotate(60 69.8281 55.8269)"
        fill="#80BB53" />
    <path opacity="0.5" fill-rule="evenodd" clip-rule="evenodd"
        d="M64.8406 56.5094C67.3618 60.8761 72.9455 62.3723 77.3123 59.8511C77.668 59.6458 78.0046 59.4201 78.3216 59.1764C77.5918 61.0306 76.2527 62.6598 74.3929 63.7336C70.0262 66.2547 64.4424 64.7586 61.9213 60.3918C59.6055 56.3807 60.6792 51.3428 64.2537 48.5948C63.2699 51.0943 63.3932 54.0024 64.8406 56.5094Z"
        fill="#4D8622" />
    <circle cx="69.8281" cy="55.8269" r="8.64322" transform="rotate(60 69.8281 55.8269)"
        stroke="#1A1B1D" stroke-width="0.973333" />
    <path fill-rule="evenodd" clip-rule="evenodd"
        d="M105.028 45.7865C96.2808 42.5062 83.9422 40.3999 70.1271 40.3999C56.312 40.3999 43.9734 42.5062 35.226 45.7865C30.8383 47.4319 27.5506 49.2998 25.4279 51.1818C23.3007 53.0677 22.676 54.6461 22.676 55.8271C22.676 57.0081 23.3007 58.5865 25.4279 60.4724C27.5506 62.3544 30.8383 64.2223 35.226 65.8677C43.9734 69.148 56.312 71.2543 70.1271 71.2543C83.9422 71.2543 96.2808 69.148 105.028 65.8677C109.416 64.2223 112.704 62.3544 114.826 60.4724C116.953 58.5865 117.578 57.0081 117.578 55.8271C117.578 54.6461 116.953 53.0677 114.826 51.1818C112.704 49.2998 109.416 47.4319 105.028 45.7865ZM119.851 45.5143C122.91 48.2259 125.152 51.7022 125.152 55.8271C125.152 59.952 122.91 63.4283 119.851 66.1399C116.788 68.8554 112.572 71.1279 107.688 72.9596C97.8905 76.6336 84.61 78.8285 70.1271 78.8285C55.6442 78.8285 42.3636 76.6336 32.5665 72.9596C27.6819 71.1279 23.4659 68.8554 20.4031 66.1399C17.3446 63.4283 15.1018 59.952 15.1018 55.8271C15.1018 51.7022 17.3446 48.2259 20.4031 45.5143C23.4659 42.7988 27.6819 40.5263 32.5665 38.6946C42.3636 35.0206 55.6442 32.8257 70.1271 32.8257C84.61 32.8257 97.8905 35.0206 107.688 38.6946C112.572 40.5263 116.788 42.7988 119.851 45.5143Z"
        fill="#FFB422" stroke="#1A1B1D" stroke-width="0.973333" stroke-linejoin="round" />
    <path fill-rule="evenodd" clip-rule="evenodd"
        d="M80.1671 90.7286C83.4474 81.9812 85.5537 69.6427 85.5537 55.8275C85.5537 42.0124 83.4474 29.6739 80.1671 20.9264C78.5217 16.5387 76.6539 13.251 74.7719 11.1283C72.8859 9.00117 71.3075 8.37648 70.1265 8.37648C68.9456 8.37648 67.3671 9.00117 65.4812 11.1283C63.5992 13.251 61.7313 16.5387 60.0859 20.9264C56.8056 29.6738 54.6993 42.0124 54.6993 55.8275C54.6993 69.6427 56.8056 81.9812 60.0859 90.7286C61.7313 95.1163 63.5992 98.404 65.4812 100.527C67.3671 102.654 68.9455 103.279 70.1265 103.279C71.3075 103.279 72.8859 102.654 74.7719 100.527C76.6539 98.404 78.5217 95.1163 80.1671 90.7286ZM80.4393 105.552C77.7277 108.61 74.2514 110.853 70.1265 110.853C66.0016 110.853 62.5253 108.61 59.8137 105.552C57.0982 102.489 54.8257 98.2727 52.994 93.3881C49.3201 83.591 47.1251 70.3104 47.1251 55.8275C47.1251 41.3446 49.3201 28.0641 52.994 18.2669C54.8257 13.3823 57.0982 9.16639 59.8137 6.10353C62.5253 3.04508 66.0016 0.802268 70.1265 0.802268C74.2514 0.802268 77.7277 3.04508 80.4393 6.10353C83.1549 9.16639 85.4273 13.3823 87.2591 18.2669C90.933 28.0641 93.1279 41.3446 93.1279 55.8275C93.1279 70.3104 90.933 83.591 87.2591 93.3881C85.4273 98.2727 83.1549 102.489 80.4393 105.552Z"
        fill="#8FE3E8" stroke="#1A1B1D" stroke-width="0.973333" stroke-linejoin="round" />
    <path
        d="M103.68 22.2739C102.845 21.4388 101.287 20.7644 98.4491 20.935C95.6173 21.1052 91.9718 22.1092 87.7058 24.0483C79.2009 27.9141 68.9868 35.1494 59.2181 44.9182C49.4493 54.6869 42.214 64.901 38.3482 73.4059C36.4091 77.6719 35.4051 81.3174 35.2349 84.1492C35.0643 86.9869 35.7387 88.5447 36.5738 89.3798L31.218 94.7356C28.3012 91.8188 27.429 87.7748 27.6743 83.6948C27.9199 79.6088 29.2941 75.0208 31.4528 70.2716C35.7826 60.7462 43.6213 49.8034 53.8623 39.5624C64.1033 29.3214 75.0461 21.4827 84.5715 17.153C89.3207 14.9943 93.9087 13.62 97.9946 13.3744C102.075 13.1292 106.119 14.0014 109.035 16.9181L103.68 22.2739Z"
        fill="white" />
    <path
        d="M36.5738 89.3798C35.7387 88.5447 35.0643 86.9869 35.2349 84.1492C35.4051 81.3174 36.4091 77.6719 38.3482 73.4059C42.214 64.901 49.4493 54.6869 59.2181 44.9182C68.9868 35.1494 79.2009 27.9141 87.7058 24.0483C91.9718 22.1092 95.6173 21.1052 98.4491 20.935C101.287 20.7644 102.845 21.4388 103.68 22.2739L109.035 16.9181C106.119 14.0014 102.075 13.1292 97.9946 13.3744C93.9087 13.62 89.3207 14.9943 84.5715 17.153C75.0461 21.4827 64.1033 29.3214 53.8623 39.5624C43.6213 49.8034 35.7826 60.7462 31.4528 70.2716C29.2941 75.0208 27.9199 79.6088 27.6743 83.6948C27.4291 87.7748 28.3012 91.8188 31.218 94.7356M36.5738 89.3798C37.4088 90.2149 38.9667 90.8893 41.8044 90.7187M36.5738 89.3798L31.218 94.7356M31.218 94.7356C34.1347 97.6523 38.1788 98.5245 42.2588 98.2793"
        stroke="#1A1B1D" stroke-width="0.973333" stroke-linejoin="round" />
    <path
        d="M103.679 89.3801C104.515 88.5451 105.189 86.9872 105.018 84.1496C104.848 81.3178 103.844 77.6723 101.905 73.4062C98.0392 64.9014 90.804 54.6873 81.0352 44.9185C71.2664 35.1497 61.0523 27.9145 52.5475 24.0486C48.2814 22.1095 44.6359 21.1055 41.8041 20.9353C38.9665 20.7648 37.4086 21.4392 36.5736 22.2742L31.2178 16.9185C34.1345 14.0017 38.1785 13.1295 42.2586 13.3748C46.3445 13.6204 50.9325 14.9946 55.6817 17.1533C65.2072 21.4831 76.15 29.3218 86.391 39.5627C96.6319 49.8037 104.471 60.7465 108.8 70.272C110.959 75.0211 112.333 79.6092 112.579 83.6951C112.824 87.7752 111.952 91.8192 109.035 94.7359L103.679 89.3801Z"
        fill="#80BB53" stroke="#1A1B1D" stroke-width="0.973333" stroke-linejoin="round" />
    <path
        d="M22.676 55.8269C22.676 57.0079 23.3007 58.5863 25.4279 60.4722C27.5506 62.3542 30.8383 64.2221 35.226 65.8675C43.9734 69.1478 56.312 71.2541 70.1271 71.2541C83.9422 71.2541 96.2808 69.1478 105.028 65.8675C109.416 64.2221 112.704 62.3542 114.826 60.4722C116.953 58.5863 117.578 57.0079 117.578 55.8269L125.152 55.8269C125.152 59.9518 122.91 63.4281 119.851 66.1397C116.788 68.8552 112.572 71.1277 107.688 72.9594C97.8905 76.6334 84.61 78.8283 70.1271 78.8283C55.6442 78.8283 42.3636 76.6334 32.5665 72.9594C27.6819 71.1277 23.4659 68.8552 20.4031 66.1397C17.3446 63.4281 15.1018 59.9518 15.1018 55.8269L22.676 55.8269Z"
        fill="#FFB422" stroke="#1A1B1D" stroke-width="0.973333" stroke-linejoin="round" />
    <path
        d="M70.1265 8.37648C68.9455 8.37648 67.367 9.00117 65.4811 11.1283C63.5991 13.251 61.7313 16.5387 60.0859 20.9264C56.8056 29.6739 54.6993 42.0124 54.6993 55.8275C54.6993 69.6427 56.8056 81.9812 60.0859 90.7286C61.7313 95.1163 63.5991 98.404 65.4811 100.527C67.367 102.654 68.9455 103.279 70.1265 103.279L70.1265 110.853C66.0015 110.853 62.5253 108.61 59.8137 105.552C57.0981 102.489 54.8256 98.2727 52.9939 93.3881C49.32 83.591 47.1251 70.3104 47.1251 55.8275C47.1251 41.3446 49.32 28.0641 52.9939 18.2669C54.8256 13.3823 57.0981 9.16639 59.8137 6.10353C62.5253 3.04508 66.0016 0.802269 70.1265 0.802269L70.1265 8.37648Z"
        fill="#8FE3E8" stroke="#1A1B1D" stroke-width="0.973333" stroke-linejoin="round" />
</svg>