<svg xmlns="http://www.w3.org/2000/svg" width="812" height="615" viewBox="0 0 812 615"><defs><style type="text/css"/></defs><g transform="translate(181.00000000000006 84.50000000000006) scale(1)"><g class="relationship"><g transform="translate(205.77228543254026 -30.500000000000046) rotate(-1.8350882136931734e-15)" stroke-width="5" stroke="#000000"><path d="M 58.695178092152055 -5.989663490593891 L 95.96898050729243 -9.793341079425122 A 40 40 0 0 1 100.02976931447472 -10 L 166.38614271627017 -10 L 232.74251611806565 -10 A 40 40 0 0 1 236.80330492524794 -9.79334107942512 L 249.34340635288584 -8.51366206436971 L 249.34340635288584 -8.51366206436971"/><polygon points="-24.8621506177483,0 -27.62461179749811,9.20820393249937 0,0 -27.62461179749811,-9.20820393249937" fill="#000000" transform="translate(332.77228543254034 0) rotate(5.826689442008371) translate(-59 0)" stroke="none"/></g><g transform="translate(372.15842814881046 -40.50000000000005) rotate(-1.8350882136931734e-15) translate(0 -13)"><g transform="translate(0 0)"><g transform="translate(-60.109375 0)" fill="#ffffff" stroke="#000000" stroke-width="0"><rect x="0" y="0" width="120.21875" height="26" rx="5" ry="5" stroke="none"/><text xml:space="preserve" x="5" y="17.5" stroke="none" text-anchor="left" font-family="sans-serif" font-size="16" font-weight="normal" fill="#000000">WORKS_WITH</text></g></g></g></g><g class="relationship"><g transform="translate(538.5445708650806 -30.500000000000057) rotate(180)" stroke-width="5" stroke="#000000"><path d="M 58.695178092152055 -5.989663490593891 L 95.96898050729243 -9.793341079425122 A 40 40 0 0 1 100.02976931447472 -10 L 166.38614271627017 -10 L 232.74251611806565 -10 A 40 40 0 0 1 236.80330492524794 -9.79334107942512 L 249.34340635288584 -8.51366206436971 L 249.34340635288584 -8.51366206436971"/><polygon points="-24.8621506177483,0 -27.62461179749811,9.20820393249937 0,0 -27.62461179749811,-9.20820393249937" fill="#000000" transform="translate(332.77228543254034 0) rotate(5.826689442008371) translate(-59 0)" stroke="none"/></g><g transform="translate(372.1584281488104 -20.500000000000036) rotate(360) translate(0 -13)"><g transform="translate(0 0)"><g transform="translate(-60.109375 0)" fill="#ffffff" stroke="#000000" stroke-width="0"><rect x="0" y="0" width="120.21875" height="26" rx="5" ry="5" stroke="none"/><text xml:space="preserve" x="5" y="17.5" stroke="none" text-anchor="left" font-family="sans-serif" font-size="16" font-weight="normal" fill="#000000">WORKS_WITH</text></g></g></g></g><g class="relationship"><g transform="translate(233.39704217134286 476.00310986478354) rotate(-125.43335896541055)" stroke-width="5" stroke="#000000"><path d="M 59 0 L 208.9772642446038 0"/><polygon points="-24.8621506177483,0 -27.62461179749811,9.20820393249937 0,0 -27.62461179749811,-9.20820393249937" fill="#000000" transform="translate(233.8394148623521 0) rotate(0)" stroke="none"/></g><g transform="translate(155.7163741995374 366.83046053602686) rotate(54.566641034589466) translate(0 -22.6)"><g transform="translate(0 0)"><g transform="translate(-44.1171875 0)" fill="#ffffff" stroke="#000000" stroke-width="0"><rect x="0" y="0" width="88.234375" height="26" rx="5" ry="5" stroke="none"/><text xml:space="preserve" x="5" y="17.5" stroke="none" text-anchor="left" font-family="sans-serif" font-size="16" font-weight="normal" fill="#000000">FOLLOWS</text></g></g><g transform="translate(0 26)"><g transform="translate(-64.03125 0)" fill="white"><rect x="0" y="0" width="128.0625" height="19.2" rx="0" ry="0" stroke="none"/><g font-family="sans-serif" font-size="16" font-weight="normal" fill="#000000" text-anchor="end"><text xml:space="preserve" x="64.9140625" y="14.1" stroke="none">network:</text><text xml:space="preserve" x="69.359375" y="14.1" stroke="none" text-anchor="start">linkedin</text></g></g></g></g></g><g class="relationship"><g transform="translate(-127.00000000000006 -30.500000000000057) rotate(1.8350882136931734e-15)" stroke-width="5" stroke="#000000"><path d="M 59 0 L 248.91013481479203 0"/><polygon points="-24.8621506177483,0 -27.62461179749811,9.20820393249937 0,0 -27.62461179749811,-9.20820393249937" fill="#000000" transform="translate(273.77228543254034 0) rotate(0)" stroke="none"/></g><g transform="translate(26.955067407395973 -30.500000000000053) rotate(1.8350882136931734e-15) translate(0 -22.6)"><g transform="translate(0 0)"><g transform="translate(-44.1171875 0)" fill="#ffffff" stroke="#000000" stroke-width="0"><rect x="0" y="0" width="88.234375" height="26" rx="5" ry="5" stroke="none"/><text xml:space="preserve" x="5" y="17.5" stroke="none" text-anchor="left" font-family="sans-serif" font-size="16" font-weight="normal" fill="#000000">FOLLOWS</text></g></g><g transform="translate(0 26)"><g transform="translate(-58.23828125 0)" fill="white"><rect x="0" y="0" width="116.4765625" height="19.2" rx="0" ry="0" stroke="none"/><g font-family="sans-serif" font-size="16" font-weight="normal" fill="#000000" text-anchor="end"><text xml:space="preserve" x="64.9140625" y="14.1" stroke="none">network:</text><text xml:space="preserve" x="69.359375" y="14.1" stroke="none" text-anchor="start">twitter</text></g></g></g></g></g><g class="relationship"><g transform="translate(205.77228543254026 -30.500000000000046) rotate(53.61567692024927)" stroke-width="5" stroke="#000000"><path d="M 59 0 L 248.91013481479192 0"/><polygon points="-24.8621506177483,0 -27.62461179749811,9.20820393249937 0,0 -27.62461179749811,-9.20820393249937" fill="#000000" transform="translate(273.77228543254023 0) rotate(0)" stroke="none"/></g><g transform="translate(297.09822115949845 93.44247151001682) rotate(53.61567692024927) translate(0 -22.6)"><g transform="translate(0 0)"><g transform="translate(-60.5546875 0)" fill="#ffffff" stroke="#000000" stroke-width="0"><rect x="0" y="0" width="121.109375" height="26" rx="5" ry="5" stroke="none"/><text xml:space="preserve" x="5" y="17.5" stroke="none" text-anchor="left" font-family="sans-serif" font-size="16" font-weight="normal" fill="#000000">CONTRACTED</text></g></g><g transform="translate(0 26)"><g transform="translate(-65.3828125 0)" fill="white"><rect x="0" y="0" width="130.765625" height="19.2" rx="0" ry="0" stroke="none"/><g font-family="sans-serif" font-size="16" font-weight="normal" fill="#000000" text-anchor="end"><text xml:space="preserve" x="40.03125" y="14.1" stroke="none">date:</text><text xml:space="preserve" x="44.4765625" y="14.1" stroke="none" text-anchor="start">2024-12-01</text></g></g></g></g></g><g class="relationship"><g transform="translate(-127.00000000000006 -30.500000000000057) rotate(54.56664103458948)" stroke-width="5" stroke="#000000"><path d="M 58.695178092152055 -5.989663490593891 L 95.96898050729243 -9.793341079425122 A 40 40 0 0 1 100.02976931447472 -10 L 164.39833753587124 -10 L 228.76690575726778 -10 A 40 40 0 0 1 232.82769456445007 -9.79334107942512 L 245.36779599208796 -8.51366206436971 L 245.36779599208796 -8.51366206436971"/><polygon points="-24.8621506177483,0 -27.62461179749811,9.20820393249937 0,0 -27.62461179749811,-9.20820393249937" fill="#000000" transform="translate(328.79667507174247 0) rotate(5.826689442008371) translate(-59 0)" stroke="none"/></g><g transform="translate(-23.541229304623656 97.6526283412079) rotate(54.56664103458948) translate(0 -13)"><g transform="translate(0 0)"><g transform="translate(-57.3046875 0)" fill="#ffffff" stroke="#000000" stroke-width="0"><rect x="0" y="0" width="114.609375" height="26" rx="5" ry="5" stroke="none"/><text xml:space="preserve" x="5" y="17.5" stroke="none" text-anchor="left" font-family="sans-serif" font-size="16" font-weight="normal" fill="#000000">MARRIED_TO</text></g></g></g></g><g class="relationship"><g transform="translate(63.621733664451604 237.40036990081188) rotate(-125.43335896541055)" stroke-width="5" stroke="#000000"><path d="M 58.695178092152055 -5.989663490593891 L 95.96898050729243 -9.793341079425122 A 40 40 0 0 1 100.02976931447472 -10 L 164.39833753587124 -10 L 228.76690575726778 -10 A 40 40 0 0 1 232.82769456445007 -9.79334107942512 L 245.36779599208796 -8.51366206436971 L 245.36779599208796 -8.51366206436971"/><polygon points="-24.8621506177483,0 -27.62461179749811,9.20820393249937 0,0 -27.62461179749811,-9.20820393249937" fill="#000000" transform="translate(328.79667507174247 0) rotate(5.826689442008371) translate(-59 0)" stroke="none"/></g><g transform="translate(-39.83703703092484 109.24774155960398) rotate(54.566641034589466) translate(0 -13)"><g transform="translate(0 0)"><g transform="translate(-57.3046875 0)" fill="#ffffff" stroke="#000000" stroke-width="0"><rect x="0" y="0" width="114.609375" height="26" rx="5" ry="5" stroke="none"/><text xml:space="preserve" x="5" y="17.5" stroke="none" text-anchor="left" font-family="sans-serif" font-size="16" font-weight="normal" fill="#000000">MARRIED_TO</text></g></g></g></g><g class="relationship"><g transform="translate(233.39704217134286 476.00310986478354) rotate(-54.56664103458948)" stroke-width="5" stroke="#000000"><path d="M 58.695178092152055 -5.989663490593891 L 95.96898050729243 -9.793341079425122 A 40 40 0 0 1 100.02976931447472 -10 L 146.41970743117605 -10 L 192.8096455478774 -10 A 40 40 0 0 1 196.8704343550597 -9.79334107942512 L 209.4105357826976 -8.51366206436971 L 209.4105357826976 -8.51366206436971"/><polygon points="-24.8621506177483,0 -27.62461179749811,9.20820393249937 0,0 -27.62461179749811,-9.20820393249937" fill="#000000" transform="translate(292.8394148623521 0) rotate(5.826689442008371) translate(-59 0)" stroke="none"/></g><g transform="translate(310.1367925616379 350.9041832735997) rotate(-54.56664103458948) translate(0 -13)"><g transform="translate(0 0)"><g transform="translate(-35.22265625 0)" fill="#ffffff" stroke="#000000" stroke-width="0"><rect x="0" y="0" width="70.4453125" height="26" rx="5" ry="5" stroke="none"/><text xml:space="preserve" x="5" y="17.5" stroke="none" text-anchor="left" font-family="sans-serif" font-size="16" font-weight="normal" fill="#000000">KNOWS</text></g></g></g></g><g class="relationship"><g transform="translate(403.17235067823407 237.40036990081188) rotate(125.43335896541055)" stroke-width="5" stroke="#000000"><path d="M 58.695178092152055 -5.989663490593891 L 95.96898050729243 -9.793341079425122 A 40 40 0 0 1 100.02976931447472 -10 L 146.41970743117605 -10 L 192.8096455478774 -10 A 40 40 0 0 1 196.8704343550597 -9.79334107942512 L 209.4105357826976 -8.51366206436971 L 209.4105357826976 -8.51366206436971"/><polygon points="-24.8621506177483,0 -27.62461179749811,9.20820393249937 0,0 -27.62461179749811,-9.20820393249937" fill="#000000" transform="translate(292.8394148623521 0) rotate(5.826689442008371) translate(-59 0)" stroke="none"/></g><g transform="translate(326.432600287939 362.4992964919957) rotate(305.43335896541055) translate(0 -13)"><g transform="translate(0 0)"><g transform="translate(-35.22265625 0)" fill="#ffffff" stroke="#000000" stroke-width="0"><rect x="0" y="0" width="70.4453125" height="26" rx="5" ry="5" stroke="none"/><text xml:space="preserve" x="5" y="17.5" stroke="none" text-anchor="left" font-family="sans-serif" font-size="16" font-weight="normal" fill="#000000">KNOWS</text></g></g></g></g><g class="relationship"><g transform="translate(403.17235067823407 237.40036990081188) rotate(53.61567692024928)" stroke-width="5" stroke="#000000"><path d="M 59 0 L 208.9772642446038 0"/><polygon points="-24.8621506177483,0 -27.62461179749811,9.20820393249937 0,0 -27.62461179749811,-9.20820393249937" fill="#000000" transform="translate(233.8394148623521 0) rotate(0)" stroke="none"/></g><g transform="translate(482.6542242625818 345.26874019316085) rotate(53.61567692024928) translate(0 -22.6)"><g transform="translate(0 0)"><g transform="translate(-60.5546875 0)" fill="#ffffff" stroke="#000000" stroke-width="0"><rect x="0" y="0" width="121.109375" height="26" rx="5" ry="5" stroke="none"/><text xml:space="preserve" x="5" y="17.5" stroke="none" text-anchor="left" font-family="sans-serif" font-size="16" font-weight="normal" fill="#000000">CONTRACTED</text></g></g><g transform="translate(0 26)"><g transform="translate(-65.3828125 0)" fill="white"><rect x="0" y="0" width="130.765625" height="19.2" rx="0" ry="0" stroke="none"/><g font-family="sans-serif" font-size="16" font-weight="normal" fill="#000000" text-anchor="end"><text xml:space="preserve" x="40.03125" y="14.1" stroke="none">date:</text><text xml:space="preserve" x="44.4765625" y="14.1" stroke="none" text-anchor="start">2024-12-02</text></g></g></g></g></g><g class="node"><g fill="#ffffff" stroke="#000000" stroke-width="4"><circle cx="-127.00000000000006" cy="-30.500000000000057" r="52"/></g><g transform="translate(-127.00000000000006 -30.500000000000057)"><g transform="scale(0.3054356827053969) translate(0 -88)"><g transform="translate(0 0)"><g fill="#000000" font-family="sans-serif" font-size="50" font-weight="normal" text-anchor="middle"><text xml:space="preserve" x="0" y="43" stroke="none">Michael</text></g></g><g transform="translate(0 64)"><g transform="translate(-90.369140625 0)"><g fill="#ffffff" stroke="#000000" stroke-width="4"><rect x="0" y="0" width="180.73828125" height="54" rx="27" ry="27"/><text xml:space="preserve" x="27" y="37.5" stroke="none" font-family="sans-serif" font-size="40" font-weight="normal" fill="#000000">Person</text></g></g><g transform="translate(-118.162109375 62)"><g fill="#ffffff" stroke="#000000" stroke-width="4"><rect x="0" y="0" width="236.32421875" height="54" rx="27" ry="27"/><text xml:space="preserve" x="27" y="37.5" stroke="none" font-family="sans-serif" font-size="40" font-weight="normal" fill="#000000">Developer</text></g></g></g></g></g></g><g class="node"><g fill="#ffffff" stroke="#000000" stroke-width="4"><circle cx="205.77228543254026" cy="-30.500000000000046" r="52"/></g><g transform="translate(205.77228543254026 -30.500000000000046)"><g transform="scale(0.34136114338379775) translate(0 -88)"><g transform="translate(0 0)"><g fill="#000000" font-family="sans-serif" font-size="50" font-weight="normal" text-anchor="middle"><text xml:space="preserve" x="0" y="43" stroke="none">Grace</text></g></g><g transform="translate(0 64)"><g transform="translate(-90.369140625 0)"><g fill="#ffffff" stroke="#000000" stroke-width="4"><rect x="0" y="0" width="180.73828125" height="54" rx="27" ry="27"/><text xml:space="preserve" x="27" y="37.5" stroke="none" font-family="sans-serif" font-size="40" font-weight="normal" fill="#000000">Person</text></g></g><g transform="translate(-98.15234375 62)"><g fill="#ffffff" stroke="#000000" stroke-width="4"><rect x="0" y="0" width="196.3046875" height="54" rx="27" ry="27"/><text xml:space="preserve" x="27" y="37.5" stroke="none" font-family="sans-serif" font-size="40" font-weight="normal" fill="#000000">Teacher</text></g></g></g></g></g></g><g class="node"><g fill="#ffffff" stroke="#000000" stroke-width="4"><circle cx="538.5445708650806" cy="-30.500000000000057" r="52"/></g><g transform="translate(538.5445708650806 -30.500000000000057)"><g transform="scale(0.34136114338379775) translate(0 -88)"><g transform="translate(0 0)"><g fill="#000000" font-family="sans-serif" font-size="50" font-weight="normal" text-anchor="middle"><text xml:space="preserve" x="0" y="43" stroke="none">Arjun</text></g></g><g transform="translate(0 64)"><g transform="translate(-90.369140625 0)"><g fill="#ffffff" stroke="#000000" stroke-width="4"><rect x="0" y="0" width="180.73828125" height="54" rx="27" ry="27"/><text xml:space="preserve" x="27" y="37.5" stroke="none" font-family="sans-serif" font-size="40" font-weight="normal" fill="#000000">Person</text></g></g><g transform="translate(-98.15234375 62)"><g fill="#ffffff" stroke="#000000" stroke-width="4"><rect x="0" y="0" width="196.3046875" height="54" rx="27" ry="27"/><text xml:space="preserve" x="27" y="37.5" stroke="none" font-family="sans-serif" font-size="40" font-weight="normal" fill="#000000">Teacher</text></g></g></g></g></g></g><g class="node"><g fill="#ffffff" stroke="#000000" stroke-width="4"><circle cx="403.17235067823407" cy="237.40036990081188" r="52"/></g><g transform="translate(403.17235067823407 237.40036990081188)"><g transform="scale(0.320785117900325) translate(0 -88)"><g transform="translate(0 0)"><g fill="#000000" font-family="sans-serif" font-size="50" font-weight="normal" text-anchor="middle"><text xml:space="preserve" x="0" y="43" stroke="none">Myra</text></g></g><g transform="translate(0 64)"><g transform="translate(-90.369140625 0)"><g fill="#ffffff" stroke="#000000" stroke-width="4"><rect x="0" y="0" width="180.73828125" height="54" rx="27" ry="27"/><text xml:space="preserve" x="27" y="37.5" stroke="none" font-family="sans-serif" font-size="40" font-weight="normal" fill="#000000">Person</text></g></g><g transform="translate(-109.24609375 62)"><g fill="#ffffff" stroke="#000000" stroke-width="4"><rect x="0" y="0" width="218.4921875" height="54" rx="27" ry="27"/><text xml:space="preserve" x="27" y="37.5" stroke="none" font-family="sans-serif" font-size="40" font-weight="normal" fill="#000000">Illustrator</text></g></g></g></g></g></g><g class="node"><g fill="#ffffff" stroke="#000000" stroke-width="4"><circle cx="233.39704217134286" cy="476.00310986478354" r="52"/></g><g transform="translate(233.39704217134286 476.00310986478354)"><g transform="scale(0.4169602297698577) translate(0 -59)"><g transform="translate(0 0)"><g fill="#000000" font-family="sans-serif" font-size="50" font-weight="normal" text-anchor="middle"><text xml:space="preserve" x="0" y="43" stroke="none">Yuna</text></g></g><g transform="translate(0 64)"><g transform="translate(-90.369140625 0)"><g fill="#ffffff" stroke="#000000" stroke-width="4"><rect x="0" y="0" width="180.73828125" height="54" rx="27" ry="27"/><text xml:space="preserve" x="27" y="37.5" stroke="none" font-family="sans-serif" font-size="40" font-weight="normal" fill="#000000">Person</text></g></g></g></g></g></g><g class="node"><g fill="#ffffff" stroke="#000000" stroke-width="4"><circle cx="63.621733664451604" cy="237.40036990081188" r="52"/></g><g transform="translate(63.621733664451604 237.40036990081188)"><g transform="scale(0.4169602297698577) translate(0 -59)"><g transform="translate(0 0)"><g fill="#000000" font-family="sans-serif" font-size="50" font-weight="normal" text-anchor="middle"><text xml:space="preserve" x="0" y="43" stroke="none">Sarah</text></g></g><g transform="translate(0 64)"><g transform="translate(-90.369140625 0)"><g fill="#ffffff" stroke="#000000" stroke-width="4"><rect x="0" y="0" width="180.73828125" height="54" rx="27" ry="27"/><text xml:space="preserve" x="27" y="37.5" stroke="none" font-family="sans-serif" font-size="40" font-weight="normal" fill="#000000">Person</text></g></g></g></g></g></g><g class="node"><g fill="#ffffff" stroke="#000000" stroke-width="4"><circle cx="576.884291638707" cy="473.1525373662881" r="52"/></g><g transform="translate(576.884291638707 473.1525373662881)"><g transform="scale(0.320785117900325) translate(0 -88)"><g transform="translate(0 0)"><g fill="#000000" font-family="sans-serif" font-size="50" font-weight="normal" text-anchor="middle"><text xml:space="preserve" x="0" y="43" stroke="none">Olivia</text></g></g><g transform="translate(0 64)"><g transform="translate(-90.369140625 0)"><g fill="#ffffff" stroke="#000000" stroke-width="4"><rect x="0" y="0" width="180.73828125" height="54" rx="27" ry="27"/><text xml:space="preserve" x="27" y="37.5" stroke="none" font-family="sans-serif" font-size="40" font-weight="normal" fill="#000000">Person</text></g></g><g transform="translate(-109.24609375 62)"><g fill="#ffffff" stroke="#000000" stroke-width="4"><rect x="0" y="0" width="218.4921875" height="54" rx="27" ry="27"/><text xml:space="preserve" x="27" y="37.5" stroke="none" font-family="sans-serif" font-size="40" font-weight="normal" fill="#000000">Illustrator</text></g></g></g></g></g></g></g></svg>