<?xml version="1.0" encoding="UTF-8" standalone="no"?>
<svg
   width="400"
   height="400"
   viewBox="0 0 400 400"
   fill="none"
   version="1.1"
   id="svg17919"
   sodipodi:docname="key-value.svg"
   inkscape:version="1.2.2 (732a01da63, 2022-12-09)"
   inkscape:export-filename="key-value.png"
   inkscape:export-xdpi="400.40472"
   inkscape:export-ydpi="400.40472"
   xmlns:inkscape="http://www.inkscape.org/namespaces/inkscape"
   xmlns:sodipodi="http://sodipodi.sourceforge.net/DTD/sodipodi-0.dtd"
   xmlns="http://www.w3.org/2000/svg"
   xmlns:svg="http://www.w3.org/2000/svg">
  <defs
     id="defs17923">
    <radialGradient
       id="paint1_radial_915_19824"
       cx="0"
       cy="0"
       r="1"
       gradientUnits="userSpaceOnUse"
       gradientTransform="matrix(-18.460508,-42.992822,74.472154,-31.977288,263.829,237.318)">
      <stop
         stop-color="#7AD1FF"
         id="stop19120" />
      <stop
         offset="1"
         stop-color="#7AD1FF"
         stop-opacity="0"
         id="stop19122" />
    </radialGradient>
    <clipPath
       clipPathUnits="userSpaceOnUse"
       id="clipPath43292">
      <g
         id="g43298"
         transform="translate(42.958678,56.033058)">
        <g
           id="g43296"
           transform="translate(-42.958678,-56.033058)">
          <rect
             width="452"
             height="304"
             fill="#ffffff"
             id="rect43294"
             x="0"
             y="0" />
        </g>
      </g>
    </clipPath>
    <mask
       maskUnits="userSpaceOnUse"
       id="mask42704">
      <g
         id="g42708"
         transform="translate(42.958678,56.033058)">
        <path
           d="m 240.71332,141.96694 c 1.847,1.197 3.383,2.815 4.484,4.721 1.101,1.905 1.734,4.044 1.849,6.242 l -0.194,70.994 c 0,4.033 -2.868,5.661 -6.378,3.63 l -95.28,-55.012 c -1.85,-1.195 -3.39,-2.812 -4.494,-4.718 -1.103,-1.905 -1.739,-4.046 -1.854,-6.246 l 0.209,-71.007998 c 0,-4.033 2.853,-5.646 6.378,-3.615 z"
           fill="#ffffff"
           stroke="#000000"
           stroke-linejoin="round"
           id="path42706" />
      </g>
    </mask>
  </defs>
  <sodipodi:namedview
     id="namedview17921"
     pagecolor="#ffffff"
     bordercolor="#000000"
     borderopacity="0.25"
     inkscape:showpageshadow="2"
     inkscape:pageopacity="0.0"
     inkscape:pagecheckerboard="0"
     inkscape:deskcolor="#d1d1d1"
     showgrid="false"
     inkscape:zoom="2.015"
     inkscape:cx="177.17122"
     inkscape:cy="160.29777"
     inkscape:window-width="1920"
     inkscape:window-height="1009"
     inkscape:window-x="1912"
     inkscape:window-y="-8"
     inkscape:window-maximized="1"
     inkscape:current-layer="svg17919" />
  <mask
     id="mask0_4671_4283"
     style="mask-type:alpha"
     maskUnits="userSpaceOnUse"
     x="107"
     y="63"
     width="206"
     height="288">
    <path
       d="M117.575 172.388C114.883 174.128 112.641 176.481 111.035 179.256C109.428 182.03 108.503 185.146 108.335 188.348L108.77 343.461C108.77 349.331 112.944 351.679 118.076 348.722L303.259 241.813C305.947 240.068 308.185 237.713 309.791 234.94C311.397 232.167 312.325 229.054 312.5 225.854L312.043 70.7622C312.043 64.8916 307.869 62.5218 302.759 65.4788L117.575 172.388Z"
       fill="#F5F7FA"
       stroke="black"
       id="path17870" />
  </mask>
  <g
     id="g117862">
    <path
       fill-rule="evenodd"
       clip-rule="evenodd"
       d="m 402.683,237.378 16.104,9.297 -16.104,9.297 -16.104,-9.297 z m 0,-1 -16.108,-9.3 16.537,-9.547 -0.866,-0.5 -16.537,9.547 -16.105,-9.297 16.538,-9.547 -0.867,-0.5 -16.537,9.547 -16.105,-9.297 16.538,-9.547 -0.866,-0.5 -16.538,9.547 -16.104,-9.297 16.538,-9.547 -0.866,-0.5 -16.538,9.547 -16.104,-9.297 16.537,-9.547 -0.866,-0.5 -16.537,9.547 -16.105,-9.297 16.538,-9.547 -0.866,-0.5 -16.538,9.547 -16.108,-9.299 16.537,-9.548 -0.866,-0.5 -16.537,9.548 -16.104,-9.297 16.537,-9.547 -0.866,-0.5 -16.537,9.547 -16.538,-9.547 -0.866,0.5 16.538,9.547 -16.105,9.297 -16.537,-9.547 -0.866,0.5 16.537,9.547 -16.108,9.299 -16.538,-9.547 -0.866,0.5 16.538,9.547 -16.104,9.297 -16.538,-9.547 -0.866,0.5 16.538,9.547 -16.105,9.297 -16.537,-9.547 -0.866,0.5 16.537,9.547 -16.104,9.297 -16.538,-9.547 -0.866,0.5 16.537,9.547 -16.104,9.297 -16.537,-9.547 -0.866,0.5 16.537,9.547 -16.104,9.297 -16.538,-9.547 -0.866,0.5 16.538,9.547 -16.108,9.3 -16.538,-9.548 -0.866,0.5 16.538,9.547 -16.105,9.298 -16.5374,-9.547 -0.866,0.5 16.5374,9.547 -16.5372,9.547 0.8661,0.499 16.5371,-9.546 16.104,9.296 -16.537,9.547 0.866,0.5 16.537,-9.547 16.108,9.3 -16.537,9.547 0.866,0.5 16.537,-9.547 16.105,9.297 -16.537,9.547 0.866,0.5 16.537,-9.547 16.104,9.297 -16.537,9.547 0.866,0.5 16.537,-9.547 16.105,9.297 -16.538,9.547 0.866,0.5 16.538,-9.547 16.104,9.297 -16.537,9.547 0.866,0.5 16.537,-9.547 16.105,9.297 -16.537,9.547 0.866,0.5 16.537,-9.547 16.108,9.299 -16.537,9.547 0.866,0.5 16.537,-9.547 16.105,9.297 -16.538,9.547 0.866,0.5 16.538,-9.547 16.537,9.547 0.866,-0.5 -16.537,-9.547 16.104,-9.297 16.538,9.547 0.866,-0.5 -16.538,-9.547 16.108,-9.299 16.538,9.547 0.866,-0.5 -16.538,-9.547 16.105,-9.297 16.537,9.547 0.866,-0.5 -16.537,-9.547 16.104,-9.297 16.538,9.547 0.866,-0.5 -16.538,-9.547 16.105,-9.297 16.537,9.547 0.866,-0.5 -16.537,-9.547 16.104,-9.297 16.538,9.547 0.866,-0.5 -16.538,-9.547 16.105,-9.297 16.537,9.547 0.866,-0.5 -16.537,-9.547 16.108,-9.299 16.537,9.547 0.866,-0.5 -16.537,-9.547 16.104,-9.297 16.537,9.546 0.867,-0.499 -16.538,-9.547 16.538,-9.547 -0.866,-0.5 -16.538,9.547 -16.104,-9.297 16.538,-9.547 -0.866,-0.5 z m -287.647,10.297 16.104,9.296 16.105,-9.297 -16.104,-9.297 z m 16.971,-9.798 16.104,9.297 16.108,-9.299 -16.104,-9.297 z m 16.974,-9.799 16.104,9.297 16.104,-9.297 -16.104,-9.297 z m 16.97,-9.797 16.104,9.297 16.104,-9.297 -16.103,-9.297 z m 16.971,-9.797 16.103,9.297 16.105,-9.297 -16.104,-9.297 z m 16.97,-9.797 16.104,9.297 16.105,-9.297 -16.104,-9.297 z m 16.971,-9.797 16.104,9.297 16.104,-9.297 -16.104,-9.297 z m 16.97,-9.797 16.104,9.297 16.108,-9.299 -16.104,-9.297 z m 16.974,-9.799 16.104,9.297 16.105,-9.297 -16.104,-9.297 z m 16.97,9.797 16.105,-9.297 16.108,9.299 -16.104,9.297 z m -16.974,9.799 16.108,-9.299 16.109,9.299 -16.108,9.299 z m -16.97,9.797 16.104,-9.297 16.109,9.299 -16.105,9.297 z m -16.971,9.797 16.105,-9.297 16.108,9.299 -16.104,9.297 z m -16.97,9.797 16.104,-9.297 16.109,9.299 L 216,226.58 Z m -16.971,9.797 16.104,-9.297 16.109,9.299 -16.104,9.297 z m -16.97,9.797 16.104,-9.297 16.109,9.299 -16.105,9.297 z m -16.974,9.799 16.108,-9.299 16.108,9.299 -16.108,9.3 z m -16.971,9.797 16.105,-9.297 16.108,9.3 -16.105,9.297 z m 16.974,9.8 16.105,9.297 16.105,-9.297 -16.105,-9.297 z m 16.971,-9.797 16.105,9.297 16.108,-9.299 -16.105,-9.298 z m 16.974,-9.8 16.105,9.298 16.104,-9.298 -16.104,-9.297 z m 16.971,-9.797 16.104,9.297 16.104,-9.296 L 216,227.58 Z m 16.97,-9.797 16.104,9.298 16.105,-9.298 -16.104,-9.297 z m 16.971,-9.797 16.104,9.297 16.105,-9.297 -16.105,-9.297 z m 16.97,-9.797 16.105,9.297 16.104,-9.297 -16.104,-9.297 z m 16.971,-9.797 16.104,9.297 16.108,-9.299 -16.104,-9.297 z m 16.974,-9.799 16.104,9.297 16.105,-9.297 -16.105,-9.297 z m 16.97,9.797 16.105,-9.297 16.104,9.297 -16.104,9.297 z m -16.974,9.799 16.108,-9.299 16.105,9.297 -16.109,9.299 z m -16.97,9.797 16.104,-9.297 16.104,9.297 -16.104,9.297 z m -16.971,9.797 16.105,-9.297 16.104,9.297 -16.104,9.297 z m -16.97,9.798 16.104,-9.298 16.105,9.297 -16.105,9.298 z m -16.971,9.796 16.104,-9.296 16.105,9.296 -16.104,9.297 z m -16.97,9.798 16.104,-9.298 16.105,9.297 -16.105,9.298 z m -16.974,9.799 16.108,-9.299 16.104,9.296 -16.108,9.3 z m -16.971,9.797 16.105,-9.297 16.104,9.297 -16.105,9.297 z m 16.97,9.797 16.105,9.297 16.104,-9.297 -16.104,-9.297 z m 16.971,-9.797 16.104,9.297 16.108,-9.299 L 216,266.768 Z m 16.974,-9.8 16.104,9.298 16.105,-9.298 -16.104,-9.297 z m 16.971,-9.797 16.104,9.297 16.104,-9.296 -16.104,-9.298 z m 16.97,-9.797 16.104,9.298 16.105,-9.298 -16.104,-9.297 z m 16.971,-9.797 16.104,9.297 16.105,-9.297 -16.105,-9.297 z m 16.97,-9.797 16.105,9.297 16.104,-9.297 -16.105,-9.297 z m 16.97,-9.797 16.105,9.297 16.108,-9.299 -16.104,-9.297 z m 16.975,-9.799 16.104,9.297 16.104,-9.297 -16.104,-9.297 z m 16.97,9.797 16.104,-9.297 16.105,9.297 -16.104,9.297 z m -16.974,9.799 16.108,-9.299 16.105,9.297 -16.108,9.299 z m -16.97,9.797 16.104,-9.297 16.105,9.297 -16.105,9.297 z m -16.971,9.797 16.105,-9.297 16.104,9.297 -16.104,9.297 z m -16.971,9.798 16.105,-9.298 16.105,9.297 -16.105,9.298 z m -16.97,9.796 16.104,-9.296 16.105,9.297 -16.104,9.297 z m -16.97,9.798 16.104,-9.298 16.105,9.298 -16.105,9.297 z m -16.975,9.799 16.108,-9.299 16.105,9.297 -16.108,9.299 z m -16.97,9.797 16.104,-9.297 16.105,9.297 -16.105,9.297 z m 16.971,9.797 16.104,9.297 16.105,-9.297 -16.105,-9.297 z m 16.97,-9.797 16.105,9.297 16.108,-9.299 -16.105,-9.297 z m 16.974,-9.799 16.105,9.297 16.104,-9.297 -16.104,-9.297 z m 16.971,-9.797 16.104,9.297 16.104,-9.297 -16.104,-9.297 z m 16.97,-9.797 16.104,9.297 16.105,-9.297 -16.104,-9.298 z m 16.971,-9.798 16.104,9.298 16.105,-9.298 -16.105,-9.297 z m 16.97,-9.797 16.105,9.298 16.104,-9.298 -16.104,-9.297 z m 16.971,-9.797 16.104,9.298 16.108,-9.3 -16.104,-9.297 z m 16.974,-9.799 16.104,9.297 16.105,-9.297 -16.105,-9.297 z m 16.97,9.797 16.105,-9.297 16.108,9.3 -16.104,9.297 z m -16.974,9.799 16.108,-9.299 16.109,9.3 -16.109,9.299 z m -16.97,9.797 16.104,-9.297 16.108,9.3 -16.104,9.297 z m -16.971,9.798 16.105,-9.298 16.108,9.3 -16.104,9.297 z m -16.971,9.797 16.105,-9.297 16.109,9.299 -16.105,9.297 z m -16.97,9.797 16.104,-9.297 16.109,9.299 -16.104,9.297 z m -16.97,9.797 16.104,-9.297 16.109,9.299 -16.105,9.297 z m -16.974,9.799 16.108,-9.299 16.108,9.299 -16.108,9.299 z m -16.971,9.797 16.105,-9.297 16.108,9.299 -16.105,9.297 z m 16.974,9.799 16.105,9.297 16.104,-9.297 -16.104,-9.297 z m 16.971,-9.797 16.104,9.297 16.108,-9.299 -16.104,-9.297 z m 16.974,-9.799 16.104,9.297 16.105,-9.297 -16.104,-9.297 z m 16.971,-9.797 16.104,9.297 16.104,-9.297 -16.104,-9.297 z m 16.97,-9.797 16.104,9.297 16.105,-9.297 -16.104,-9.297 z m 16.971,-9.797 16.104,9.297 16.104,-9.297 -16.104,-9.297 z m 16.97,-9.797 16.104,9.297 16.105,-9.297 -16.104,-9.297 z m 16.971,-9.797 16.104,9.297 16.108,-9.299 -16.104,-9.297 z"
       fill="url(#paint1_radial_915_19824)"
       id="path18863"
       style="fill:url(#paint1_radial_915_19824)"
       transform="matrix(2.0212418,0,0,2.0057278,-382.2801,-272.36769)"
       mask="url(#mask42704)"
       clip-path="url(#clipPath43292)" />
    <g
       id="g95886"
       transform="translate(-4.4665012,-9.4292804)">
      <rect
         opacity="0.1"
         width="104.85504"
         height="104.85504"
         rx="5.6394353"
         transform="matrix(-0.86604434,0.4999672,0.86604434,0.4999672,0,0)"
         fill="#0a6190"
         id="rect30700"
         x="79.143745"
         y="202.34758"
         style="stroke-width:0.512676" />
      <g
         id="g95862">
        <rect
           width="120.06658"
           height="120.06658"
           rx="5.7556272"
           transform="matrix(-0.86604434,0.4999672,0.86604434,0.4999672,0,0)"
           fill="#f5f6f6"
           stroke="#1a1b1d"
           stroke-linejoin="round"
           id="rect30702"
           x="51.190025"
           y="182.15646"
           style="stroke-width:0.523239" />
        <path
           opacity="0.3"
           d="m 148.00049,143.34559 -9.30894,5.3857 -6.61584,-3.74796 c -1.28612,-0.81783 -2.7784,-1.25211 -4.30312,-1.25211 -1.5242,0 -3.01647,0.43428 -4.30311,1.25211 l -19.0276,11.0665 c -2.9338,1.6503 -6.188864,2.64864 -9.543353,2.927 -3.172399,0.39714 -6.393459,0.0759 -9.42563,-0.93765 0.796367,0.63156 1.380307,1.49071 1.673844,2.46447 0.293015,0.97322 0.280458,2.01499 -0.03504,2.98141 -0.423298,1.20188 -1.080491,2.30591 -1.934943,3.25036 -0.854441,0.94498 -1.88836,1.71152 -3.041583,2.25307 l -19.027593,11.06598 c -2.868916,1.69792 -2.927524,3.33618 0,5.03408 l 6.733047,3.86255 -9.308949,5.44588 -11.709572,-6.61531 c -3.86412,-2.22482 -5.854515,-4.56788 -5.854515,-7.02659 0,-2.45922 1.931799,-4.68193 5.854515,-6.90674 l 19.203926,-11.18372 c 2.751713,-1.58071 4.156612,-2.98718 4.273815,-4.21626 0.116682,-1.22961 -0.70271,-2.51573 -2.81032,-3.97976 l -3.279135,-2.28393 8.957849,-5.21147 3.922205,1.87529 c 2.132201,1.16473 4.540148,1.73035 6.967454,1.63827 2.577991,-0.2454 5.063381,-1.08677 7.259935,-2.4587 l 19.144803,-11.1832 c 3.54075,-2.12539 7.58068,-3.276 11.70957,-3.33616 4.26491,0.0131 8.44874,1.1642 12.11873,3.33616 z"
           fill="#0a6190"
           stroke="#0a6190"
           stroke-linejoin="round"
           id="path30704"
           style="stroke-width:0.523239" />
        <path
           d="m 148.00102,116.66061 -0.0587,19.0865 -9.30895,5.44482 0.0587,-19.08645 z"
           fill="#0a6190"
           stroke="#0a6190"
           stroke-linejoin="round"
           id="path30706"
           style="stroke-width:0.523239" />
        <path
           fill-rule="evenodd"
           clip-rule="evenodd"
           d="m 69.489509,127.6683 v -0.001 l -3.278612,-2.28342 -0.05865,19.1448 3.278624,2.22481 5.22e-4,-0.16639 0.05811,0.16639 c 1.873724,1.2877 2.868927,2.51783 2.868927,3.63024 V 131.2991 c 0,-1.28821 -0.995203,-2.34254 -2.868927,-3.63075 z"
           fill="#0a6190"
           id="path30708"
           style="stroke-width:0.523239" />
        <path
           d="m 69.489509,127.66725 0.261622,0.001 c 5.22e-4,-0.0863 -0.04135,-0.16639 -0.11197,-0.21557 z m 0,0.001 -0.261621,-0.001 c 0,0.09 0.04603,0.17424 0.121915,0.22237 z m -3.278612,-2.28447 0.149641,-0.21453 c -0.08009,-0.0555 -0.184179,-0.0622 -0.270512,-0.0173 -0.08629,0.0445 -0.140228,0.13395 -0.140751,0.23128 z m -0.05865,19.1448 -0.261611,-5.2e-4 c 0,0.0868 0.04287,0.16848 0.114582,0.21715 z m 3.278624,2.22481 -0.146508,0.21663 c 0.07954,0.0544 0.183134,0.0602 0.268945,0.0147 0.08531,-0.0451 0.139173,-0.13343 0.139173,-0.23023 z m 5.22e-4,-0.16639 0.246964,-0.0863 c -0.04189,-0.12034 -0.16482,-0.19255 -0.290392,-0.17162 -0.125582,0.0214 -0.217672,0.12976 -0.218194,0.25744 z m 0.05811,0.16639 -0.246965,0.0863 c 0.01828,0.0523 0.05288,0.0973 0.09891,0.12924 z m 2.607305,3.63024 c 0,0.14441 0.117204,0.26162 0.261622,0.26162 0.144407,0 0.261611,-0.11721 0.261611,-0.26162 z m -2.607305,-22.71538 0.148074,-0.21557 c -0.0022,-0.002 -0.0054,-0.003 -0.0087,-0.005 z m -0.261622,-0.001 v 5.2e-4 l 0.523243,10e-4 v -5.2e-4 z m -3.166643,-2.06784 3.278623,2.28289 0.299294,-0.42906 -3.278624,-2.28342 z m 0.352667,18.93078 0.05865,-19.14478 -0.523243,-10e-4 -0.05865,19.14479 z m 3.164031,2.00768 -3.278624,-2.22482 -0.294059,0.43272 3.279146,2.22482 z m -0.408129,0.0492 -5.23e-4,0.16639 0.523233,0.001 5.33e-4,-0.16639 z m 0.566671,0.0801 -0.05811,-0.16587 -0.49394,0.17319 0.05811,0.16587 z m 2.883563,3.71709 c 0,-0.63574 -0.284114,-1.27775 -0.788522,-1.91192 -0.504919,-0.63521 -1.244779,-1.28193 -2.193942,-1.93389 l -0.296149,0.43114 c 0.924561,0.63574 1.619426,1.24794 2.080395,1.82821 0.461503,0.5808 0.674985,1.11031 0.674985,1.58646 z m -0.523233,-19.08463 v 19.08463 h 0.523233 v -19.08463 z m -2.75538,-3.41518 c 1.88157,1.29345 2.75538,2.27766 2.75538,3.41518 h 0.523233 c 0,-1.4389 -1.117108,-2.56386 -2.982464,-3.84632 z m 0.0087,0.005 v 0 l 0.279413,-0.44266 v 0 z"
           fill="#0a6190"
           id="path30710"
           style="stroke-width:0.523239" />
        <path
           d="m 131.84182,137.23887 c -1.22699,-0.73725 -2.63347,-1.12601 -4.0687,-1.12601 -1.52734,0 -3.02224,0.44057 -4.30312,1.27199 v -0.0905 l -19.26252,11.09842 v -0.0257 c -2.91184,1.64558 -6.149111,2.63398 -9.484242,2.89404 -3.168731,0.38667 -6.383514,0.0879 -9.426152,-0.87748 V 131.2383 c 3.032171,1.01352 6.253231,1.33478 9.426152,0.93765 3.353967,-0.27836 6.609032,-1.27722 9.542832,-2.927 v 0.0576 l 19.83966,-11.62924 v 0.25775 c 1.13125,-0.58158 2.38806,-0.88741 3.66739,-0.88741 1.45512,0 2.88147,0.39604 4.12731,1.14369 v -0.009 l 6.79164,3.92267 -0.0587,19.08619 -6.79165,-3.92271 z"
           fill="#0a6190"
           stroke="#0a6190"
           stroke-linejoin="round"
           id="path30712"
           style="stroke-width:0.523239" />
        <path
           fill-rule="evenodd"
           clip-rule="evenodd"
           d="m 86.935348,136.68475 v 19.08515 c -0.417019,1.20449 -1.073157,2.31324 -1.928654,3.25873 -0.854974,0.9455 -1.892038,1.70838 -3.048394,2.24417 l -0.05811,0.0324 -5.22e-4,0.0267 -19.027582,11.06546 v -0.0581 c -1.404377,0.87799 -2.165162,1.69843 -2.165162,2.51783 V 155.7693 c 0,-0.81991 0.761307,-1.63774 2.166206,-2.51573 l 0.05756,0.035 v -0.0361 l 18.997767,-10.98958 0.02982,-0.0753 c 1.1527,-0.54102 2.187142,-1.30757 3.041594,-2.25254 0.85444,-0.94497 1.512156,-2.049 1.935454,-3.25036 z"
           fill="#0a6190"
           id="path30714"
           style="stroke-width:0.523239" />
        <path
           d="m 86.935348,155.7699 0.246975,0.0853 c 0.0098,-0.0277 0.01469,-0.0565 0.01469,-0.0853 z m 0,-19.08515 h 0.261622 c 0,-0.12767 -0.09206,-0.2365 -0.217672,-0.25795 -0.125572,-0.0214 -0.248531,0.0507 -0.290915,0.1711 z m -1.928654,22.34388 0.194114,0.17529 z m -3.048394,2.24417 -0.110403,-0.23754 c -0.0054,0.002 -0.01153,0.005 -0.0173,0.009 z m -0.05811,0.0324 -0.127661,-0.22866 c -0.0827,0.046 -0.13395,0.13342 -0.13395,0.22761 z m -5.22e-4,0.0267 0.131861,0.22604 c 0.08009,-0.0466 0.12976,-0.13239 0.12976,-0.225 z m -19.027582,11.06546 -0.261622,-0.001 c 0,0.0941 0.04973,0.18052 0.130805,0.22761 0.08107,0.0471 0.181568,0.0466 0.262144,-5.3e-4 z m 0,-0.0581 0.261621,5.2e-4 c 5.23e-4,-0.0952 -0.05071,-0.18313 -0.134472,-0.22918 -0.08324,-0.0466 -0.184712,-0.044 -0.265811,0.007 z m -2.426783,2.51783 c 0,0.1444 0.117203,0.26161 0.261621,0.26161 0.144408,0 0.261611,-0.11721 0.261611,-0.26161 z m 2.427827,-21.6035 0.136562,-0.22343 c -0.08477,-0.0512 -0.19098,-0.0507 -0.275224,0.001 z m 0.05756,0.035 -0.136562,0.22343 c 0.08052,0.0492 0.181567,0.0512 0.264233,0.004 0.08216,-0.046 0.133428,-0.13291 0.133951,-0.22762 z m 0,-0.0361 -0.130806,-0.22656 c -0.08052,0.0466 -0.130283,0.13238 -0.130805,0.22552 z m 18.997767,-10.98958 0.130816,0.22656 c 0.05125,-0.0293 0.09053,-0.0754 0.112492,-0.13029 z m 0.02982,-0.0753 -0.111447,-0.23649 c -0.06018,0.0283 -0.107835,0.0785 -0.132384,0.14075 z m 3.041594,-2.25254 0.194113,0.17528 v 0 z m 2.197076,15.83478 V 136.6847 h -0.523244 v 19.08514 z m -1.996162,3.43402 c 0.878521,-0.97165 1.552973,-2.11074 1.981516,-3.34873 l -0.494463,-0.1711 c -0.405517,1.17154 -1.043342,2.24941 -1.874769,3.16927 z m -3.132628,2.30644 c 1.188272,-0.55097 2.254117,-1.33478 3.132628,-2.30644 L 84.81307,158.8533 c -0.831426,0.91932 -1.840231,1.66075 -2.965195,2.18191 z m -0.0408,0.0231 0.05811,-0.0324 -0.254821,-0.45679 -0.05811,0.0324 z m 0.13395,-0.20041 5.23e-4,-0.0272 -0.523233,-0.001 -5.22e-4,0.0272 z M 63.003431,172.62346 82.031547,161.558 81.768358,161.10592 62.740765,172.17138 Z m -0.392949,-0.28516 v 0.0581 l 0.523243,0.002 V 172.34 Z m 0.12296,-0.22082 c -0.712123,0.44528 -1.27775,0.88533 -1.667043,1.33008 -0.390327,0.44528 -0.621078,0.9141 -0.621078,1.40961 h 0.523232 c 0,-0.32388 0.149652,-0.67498 0.491328,-1.0648 0.341677,-0.3898 0.859153,-0.79898 1.550873,-1.2317 z m -1.764889,2.73969 V 155.7694 h -0.523232 v 19.08777 z m 0,-19.08777 c 0,-0.32388 0.149652,-0.67445 0.491328,-1.06322 0.341677,-0.38981 0.859153,-0.79793 1.551929,-1.23065 l -0.277324,-0.44371 c -0.712645,0.44527 -1.278272,0.8848 -1.668087,1.32903 -0.390327,0.44422 -0.621078,0.91305 -0.621078,1.40855 z m 1.768033,-2.29231 0.05756,0.035 0.272612,-0.44684 -0.05702,-0.035 z m -0.06746,-0.22551 v 0.0361 l 0.523232,0.001 v -0.0361 z m 19.12805,-11.2151 -18.997245,10.98958 0.261622,0.45312 18.997767,-10.98958 z m -0.0827,0.0555 -0.02927,0.0753 0.486617,0.19203 0.02981,-0.0753 z m 3.0913,-2.33208 c -0.831427,0.9188 -1.837098,1.66442 -2.958917,2.19133 l 0.222373,0.47353 c 1.184615,-0.55621 2.246793,-1.34368 3.124782,-2.31429 z m 1.882614,-3.16193 c -0.411273,1.16891 -1.05171,2.2426 -1.882614,3.16193 l 0.388238,0.35057 c 0.877477,-0.97008 1.553495,-2.10447 1.987783,-3.33879 z"
           fill="#0a6190"
           id="path30716"
           style="stroke-width:0.523239" />
        <path
           d="m 69.66532,162.20993 -0.05865,19.08671 -9.308938,5.38622 0.05865,-19.08619 z"
           fill="#0a6190"
           stroke="#0a6190"
           stroke-linejoin="round"
           id="path30718"
           style="stroke-width:0.523239" />
        <path
           fill-rule="evenodd"
           clip-rule="evenodd"
           d="m 48.880695,160.98189 v -0.001 c -3.864119,-2.22481 -5.737321,-4.56736 -5.854525,-7.02658 v 19.08777 c 0,2.44666 1.970526,4.7756 5.795918,6.98994 v 0.0361 l 11.475165,6.61583 0.05865,-19.08671 z"
           fill="#0a6190"
           id="path30720"
           style="stroke-width:0.523239" />
        <path
           d="m 48.880695,160.98084 h 0.261622 c 0,-0.0931 -0.04973,-0.18 -0.130816,-0.22656 z m 0,0.001 h -0.261621 c 0,0.0937 0.05027,0.17999 0.131338,0.22656 z m -5.854525,-7.02763 0.2611,-0.0125 c -0.0065,-0.14179 -0.12506,-0.25219 -0.267378,-0.24906 -0.141796,0.003 -0.255344,0.11983 -0.255344,0.26162 z m 5.795918,26.07771 0.261622,10e-4 c 5.22e-4,-0.0937 -0.04973,-0.18052 -0.130283,-0.22709 z m 0,0.0361 -0.261611,-10e-4 c -5.33e-4,0.0937 0.04973,0.18051 0.130806,0.22761 z m 11.475165,6.61583 -0.130816,0.22656 c 0.08107,0.0466 0.180522,0.0466 0.261099,0 0.08107,-0.0466 0.130806,-0.13289 0.131328,-0.22604 z m 0.05865,-19.08671 0.261622,0.001 c 0,-0.0937 -0.04973,-0.18051 -0.130806,-0.2276 z m -11.736776,-6.61636 v 10e-4 h 0.523243 v -10e-4 z m -5.854003,-7.01402 c 0.123493,2.59683 2.098719,5.00322 5.985342,7.24111 l 0.261088,-0.45365 c -3.842139,-2.21173 -5.613306,-4.49149 -5.724231,-6.81258 z m 0.522721,19.07521 V 153.9542 h -0.523243 v 19.08775 z m 5.665635,6.7639 c -3.813368,-2.20754 -5.665635,-4.4695 -5.665635,-6.7639 h -0.523243 c 0,2.5984 2.088774,4.99484 5.926734,7.2165 z m 0.130283,0.26267 v -0.0356 l -0.523232,-0.001 v 0.0356 z m 11.344349,6.38823 -11.475154,-6.61531 -0.261622,0.45312 11.475154,6.61583 z m -0.333831,-18.86015 -0.05865,19.08619 0.523233,0.001 0.05865,-19.08619 z m -11.343815,-6.38823 11.474632,6.61583 0.261621,-0.45364 -11.475165,-6.61531 z"
           fill="#0a6190"
           id="path30722"
           style="stroke-width:0.523239" />
        <path
           d="m 148.00049,116.66201 -9.30842,5.38586 -6.61583,-3.7478 c -1.28665,-0.81777 -2.77893,-1.25216 -4.30312,-1.25216 -1.52421,0 -3.017,0.43439 -4.30312,1.25216 l -19.02812,11.06614 c -2.9338,1.6503 -6.188342,2.64863 -9.542831,2.92752 -3.172921,0.39662 -6.393981,0.0759 -9.426152,-0.93765 0.796367,0.63156 1.380829,1.49071 1.673844,2.46394 0.293015,0.97375 0.280458,2.01552 -0.03504,2.98194 -0.422775,1.20136 -1.080491,2.30539 -1.934943,3.25036 -0.853919,0.94498 -1.88836,1.71099 -3.041583,2.25254 l -19.027593,11.06599 c -2.868916,1.6979 -2.927524,3.3367 0,5.0346 l 6.733047,3.86203 -9.308949,5.44588 -11.70905,-6.61531 c -3.864119,-2.22482 -5.855037,-4.56736 -5.855037,-7.02659 0,-2.4587 1.932321,-4.68194 5.855037,-6.90676 l 19.203404,-11.18318 c 2.751713,-1.58071 4.156612,-2.98718 4.273815,-4.21679 0.117204,-1.22961 -0.70271,-2.51572 -2.81032,-3.97923 l -3.278612,-2.28445 8.957849,-5.21132 3.922204,1.87535 c 2.131679,1.16504 4.539626,1.73014 6.967454,1.63805 2.577991,-0.24539 5.063381,-1.08677 7.259413,-2.45849 l 19.145323,-11.1834 c 3.54023,-2.12535 7.58016,-3.27563 11.70905,-3.33616 4.26491,0.0133 8.44874,1.16435 12.11926,3.33616 z"
           fill="#f5f6f6"
           stroke="#0a6190"
           stroke-linejoin="round"
           id="path30724"
           style="stroke-width:0.523239" />
        <path
           opacity="0.3"
           d="m 178.3505,167.75312 c 3.59382,2.10133 5.52892,4.25864 5.52892,6.52532 0,2.26667 -1.65868,4.53491 -5.52892,6.63571 l -18.13447,10.55845 c -2.488,1.43786 -3.8704,2.71037 -4.14667,3.87144 -0.27627,1.16107 0.77387,2.48905 2.76427,3.87144 l 3.09601,2.10029 -8.51415,4.91897 -3.64906,-1.76855 c -2.04274,-1.07526 -4.32771,-1.60687 -6.6352,-1.5467 -2.40272,0.25691 -4.7123,1.06951 -6.74507,2.37551 l -18.13495,10.56105 c -3.44343,2.02756 -7.36616,3.09654 -11.36162,3.09654 -3.99597,0 -7.919217,-1.06898 -11.362128,-3.09654 l -11.058135,-6.24694 8.791461,-5.14292 6.46828,3.76052 c 1.203972,0.77387 2.605202,1.18513 4.036262,1.18513 1.43106,0 2.83282,-0.41126 4.0368,-1.18513 l 17.96907,-10.45013 c 2.77474,-1.53937 5.84772,-2.46184 9.01122,-2.70776 3.00026,-0.36888 6.04551,-0.0477 8.9024,0.93922 -0.73306,-0.6237 -1.26938,-1.44781 -1.54461,-2.37028 -0.2747,-0.92247 -0.27627,-1.90355 -0.003,-2.82654 0.7969,-2.29336 2.46551,-4.18121 4.64375,-5.25332 l 17.96908,-10.45066 c 2.76464,-1.54826 2.76464,-3.09548 0,-4.64322 l -6.52375,-3.76104 8.8463,-5.08588 z"
           fill="#0a6190"
           stroke="#0a6190"
           stroke-linejoin="round"
           id="path30726"
           style="stroke-width:0.523239" />
        <path
           fill-rule="evenodd"
           clip-rule="evenodd"
           d="m 165.19151,143.77098 -0.0549,17.92303 -6.52374,-3.70453 -0.38982,-0.21034 v -17.65775 l 0.44476,-0.15645 6.52374,3.70454 v -0.11041 c 1.2719,0.88479 1.93593,1.60425 1.93593,2.37865 v 18.02296 c 0,-0.77439 -0.66403,-1.49384 -1.93593,-2.26772 z"
           fill="#0a6190"
           id="path30728"
           style="stroke-width:0.523239" />
        <path
           d="m 165.19151,143.77098 h 0.26162 c 0,-0.14441 -0.11668,-0.26161 -0.2611,-0.26161 -0.14441,-5.4e-4 -0.26162,0.11616 -0.26214,0.26056 z m -0.0549,17.92303 -0.12872,0.22762 c 0.0805,0.0455 0.17999,0.0449 0.26005,-0.001 0.0806,-0.0466 0.13029,-0.13237 0.13029,-0.22552 z m -6.52374,-3.70453 0.12924,-0.22761 -0.005,-0.002 z m -0.38982,-0.21034 h -0.26162 c 0,0.0963 0.0529,0.1847 0.13762,0.23023 z m 0,-17.65775 -0.0863,-0.24697 c -0.10522,0.0367 -0.17529,0.13604 -0.17529,0.24697 z m 0.44476,-0.15645 0.12924,-0.22708 c -0.0654,-0.0377 -0.14442,-0.0445 -0.21557,-0.0194 z m 6.52374,3.70454 -0.12872,0.2276 c 0.0805,0.0455 0.17999,0.0449 0.26057,-10e-4 0.0806,-0.0471 0.12977,-0.1329 0.12977,-0.22604 z m 0,-0.11041 0.14964,-0.21452 c -0.0801,-0.056 -0.18418,-0.0623 -0.27051,-0.0173 -0.0863,0.0451 -0.14075,0.13448 -0.14075,0.2318 z m 1.67431,20.40161 c 0,0.14442 0.11711,0.26163 0.26162,0.26163 0.14447,0 0.26163,-0.11721 0.26163,-0.26163 z m -1.67431,-2.26772 h -0.26162 c 0,0.0911 0.0477,0.17582 0.1261,0.22343 z m -0.26162,-17.92303 -0.0549,17.92303 0.52324,0.001 0.055,-17.92303 z m 0.33592,17.69647 -6.52374,-3.70453 -0.25848,0.45521 6.52426,3.70455 z m -6.52898,-3.70714 -0.38981,-0.21035 -0.24801,0.46046 0.38928,0.21034 z m -0.2522,0.0199 v -17.65775 h -0.52324 v 17.65775 z m -0.17476,-17.41078 0.44475,-0.15645 -0.17318,-0.49342 -0.44476,0.15593 z m 0.22866,-0.17581 6.52426,3.70453 0.25796,-0.45522 -6.52374,-3.704 z m 6.9146,3.47693 v -0.1104 h -0.52324 v 0.1104 z m -0.41075,0.10468 c 0.62946,0.43742 1.09096,0.82305 1.39366,1.18409 0.30054,0.35789 0.42978,0.67393 0.42978,0.9795 h 0.52325 c 0,-0.46882 -0.20281,-0.89944 -0.55218,-1.31595 -0.34723,-0.41388 -0.8532,-0.83037 -1.49574,-1.27722 z m 1.82344,2.16359 v 18.02297 h 0.52325 v -18.02297 z m 0.52325,18.02297 c 0,-0.46883 -0.20271,-0.90049 -0.55527,-1.30548 -0.3502,-0.40289 -0.86005,-0.79271 -1.50625,-1.18566 l -0.27156,0.44685 c 0.62527,0.38039 1.08363,0.73776 1.38313,1.08206 0.29736,0.34167 0.4267,0.65666 0.4267,0.96223 z m -1.93594,-2.26772 v -17.92199 h -0.52324 v 17.92199 z"
           fill="#0a6190"
           id="path30730"
           style="stroke-width:0.523239" />
        <path
           d="m 183.71444,147.81666 v 17.85815 c 0,2.17877 -1.71707,4.3047 -5.36262,6.32335 l -18.0798,10.78448 v 0.0324 c -2.48801,1.43734 -3.8704,2.70776 -4.14667,3.86883 V 168.6609 c 0.27627,-1.16107 1.65866,-2.43411 4.14667,-3.87144 l 17.91351,-10.72588 c 3.75968,-1.88001 5.52891,-4.03575 5.52891,-6.24696 z"
           fill="#0a6190"
           stroke="#0a6190"
           stroke-linejoin="round"
           id="path30732"
           style="stroke-width:0.523239" />
        <path
           d="m 142.02614,183.47907 v -17.80426 c -0.008,0.71422 0.1418,1.4206 0.43796,2.07046 0.29615,0.64986 0.73201,1.22752 1.27618,1.69007 v 18.02297 c -0.56144,-0.49603 -1.00619,-1.1098 -1.30286,-1.79785 -0.29616,-0.68807 -0.43639,-1.43263 -0.41128,-2.18139 z"
           fill="#0a6190"
           stroke="#0a6190"
           stroke-linejoin="round"
           id="path30734"
           style="stroke-width:0.523239" />
        <path
           d="m 161.9851,174.68709 -0.0549,18.02453 -8.51467,4.92054 0.0549,-18.02453 z"
           fill="#0a6190"
           stroke="#0a6190"
           stroke-linejoin="round"
           id="path30736"
           style="stroke-width:0.523239" />
        <path
           d="m 149.82189,177.78309 c -2.04273,-1.07526 -4.32771,-1.60791 -6.6352,-1.54774 -2.0893,0.22343 -4.10847,0.86701 -5.93615,1.88994 v -0.0764 l -18.94335,11.12353 c -3.44605,2.04483 -7.3829,3.11589 -11.38986,3.09706 -3.98813,0.009 -7.904574,-1.06166 -11.334406,-3.09654 l -10.836807,-6.24799 -0.05495,18.02454 10.836285,6.24748 5.22e-4,-0.0345 0.05495,0.0335 c 3.429832,2.03488 7.346276,3.10542 11.334406,3.09652 4.00696,0.0188 7.94329,-1.05171 11.38934,-3.09652 v -0.0309 l 18.08001,-10.47316 0.86386,-0.50858 v -0.0324 c 1.82768,-1.02345 3.84685,-1.66913 5.93615,-1.89256 2.28708,-0.0596 4.55166,0.46464 6.58026,1.52054 l -5.2e-4,0.0283 3.64906,1.82453 0.0555,-18.02401 z"
           fill="#0a6190"
           stroke="#0a6190"
           stroke-linejoin="round"
           id="path30738"
           style="stroke-width:0.523239" />
        <path
           d="m 178.35035,141.07002 c 3.59381,2.1008 5.52896,4.25812 5.52896,6.52479 0,2.2672 -1.65866,4.53492 -5.52896,6.63624 l -18.13432,10.55845 c -2.488,1.43734 -3.8704,2.70985 -4.14667,3.87092 -0.27627,1.16107 0.77387,2.48905 2.76427,3.87144 l 3.09601,2.10029 -8.51415,4.91896 -3.64906,-1.76854 c -2.04274,-1.07474 -4.32771,-1.60687 -6.6352,-1.5467 -2.40272,0.25691 -4.7123,1.0695 -6.74507,2.37551 l -18.13547,10.56157 c -3.44291,2.02704 -7.36564,3.09654 -11.3611,3.09654 -3.99597,0 -7.919217,-1.0695 -11.362651,-3.09654 l -11.057612,-6.24747 8.791461,-5.14291 6.46828,3.76104 c 1.203972,0.77387 2.604682,1.18513 4.036262,1.18513 1.43106,0 2.83282,-0.41126 4.03628,-1.18513 l 17.96907,-10.45065 c 2.77526,-1.53885 5.84824,-2.46184 9.01174,-2.70776 3.00026,-0.36836 6.04498,-0.0477 8.90188,0.93974 -0.73306,-0.62424 -1.26939,-1.44781 -1.54409,-2.37028 -0.2747,-0.92247 -0.27627,-1.90355 -0.004,-2.82707 0.79742,-2.29335 2.46603,-4.1812 4.64427,-5.25331 l 17.96909,-10.45066 c 2.76447,-1.54774 2.76447,-3.09496 0,-4.64322 l -6.52376,-3.76052 8.8462,-5.0864 z"
           fill="#f5f6f6"
           stroke="#0a6190"
           stroke-linejoin="round"
           id="path30740"
           style="stroke-width:0.523239" />
      </g>
    </g>
    <path
       fill-rule="evenodd"
       clip-rule="evenodd"
       d="m 229.17134,124.606 -24.5263,14.242 -0.434,155.113 0.059,-0.023 -0.038,0.022 c 0.106,1.136 -0.086,2.279 -0.559,3.317 -0.473,1.037 -1.21,1.933 -2.137,2.597 l 24.5037,-14.242 c 0.9306,-0.666 1.6698,-1.565 2.143,-2.607 0.4731,-1.041 0.6637,-2.189 0.5533,-3.327 h 5e-4 z"
       fill="#f5f6f6"
       id="path17860" />
    <path
       d="m 204.64504,138.848 -0.251,-0.433 c -0.153,0.089 -0.248,0.253 -0.249,0.431 z m 24.5263,-14.242 0.5,0.001 c 5e-4,-0.179 -0.0948,-0.344 -0.2499,-0.434 -0.1551,-0.09 -0.3462,-0.089 -0.5011,0.001 z m -24.9603,169.355 -0.5,-0.002 c -0.001,0.166 0.08,0.321 0.217,0.414 0.136,0.094 0.309,0.114 0.464,0.054 z m 0.059,-0.023 0.251,0.432 c 0.226,-0.131 0.312,-0.414 0.199,-0.649 -0.113,-0.235 -0.388,-0.344 -0.631,-0.249 z m -0.038,0.022 -0.252,-0.432 c -0.168,0.098 -0.264,0.285 -0.246,0.479 z m -0.559,3.317 -0.455,-0.208 v 0 z m -2.137,2.597 -0.292,-0.406 c -0.217,0.155 -0.273,0.453 -0.128,0.678 0.145,0.224 0.44,0.294 0.671,0.16 z m 24.5037,-14.242 0.2513,0.433 c 0.0136,-0.008 0.0269,-0.017 0.0397,-0.026 z m 2.143,-2.607 0.4552,0.207 z m 0.5533,-3.327 -0.3017,-0.399 c -0.1386,0.105 -0.2128,0.274 -0.196,0.447 z m 5e-4,0 0.3016,0.398 c 0.1246,-0.094 0.1979,-0.241 0.1984,-0.397 z m -23.8405,-140.418 24.5264,-14.242 -0.5021,-0.864 -24.5263,14.241 z m -0.185,154.682 0.434,-155.113 -1,-0.003 -0.434,155.113 z m -0.622,-0.49 -0.059,0.023 0.362,0.932 0.059,-0.023 z m 0.394,0.92 0.038,-0.022 -0.503,-0.864 -0.038,0.022 z m -0.355,3.092 c 0.509,-1.117 0.716,-2.348 0.601,-3.571 l -0.995,0.094 c 0.098,1.048 -0.079,2.104 -0.516,3.062 z m -2.301,2.797 c 0.998,-0.715 1.791,-1.68 2.301,-2.797 l -0.91,-0.415 c -0.437,0.958 -1.118,1.785 -1.974,2.399 z m 23.9615,-15.081 -24.5045,14.242 0.503,0.864 24.504,-14.241 z m 1.939,-2.381 c -0.437,0.962 -1.1195,1.792 -1.9787,2.407 l 0.5819,0.813 c 1.0019,-0.717 1.7977,-1.685 2.3072,-2.807 z m 0.5108,-3.073 c 0.102,1.052 -0.0741,2.111 -0.5108,3.073 l 0.9104,0.413 c 0.5094,-1.121 0.7147,-2.357 0.5957,-3.582 z m 0.1966,-0.447 h -6e-4 l 0.6033,0.798 5e-4,-10e-4 z m 0.2364,-154.694 -0.4348,155.091 1,0.003 0.4348,-155.092 z"
       fill="#1a1b1d"
       id="path17862" />
    <path
       fill-rule="evenodd"
       clip-rule="evenodd"
       d="M 28.17904,1.0850025 3.6750403,15.326602 c 1.045,-0.4725 2.196,-0.6612 3.338,-0.5467 1.141,0.1145 2.232,0.5284 3.1629997,1.1991 l 7.688,4.4008 177.561,102.508198 24.5257,-14.241 -185.1837,-106.9314975 -0.052,0.0301 -0.013,-0.0082 c -0.933,-0.6748 -2.028,-1.09040002 -3.174,-1.20500002 -1.146,-0.1146 -2.301,0.076 -3.349,0.55260002 z"
       fill="#f5f6f6"
       id="path17864" />
    <path
       d="m 3.6750403,15.326602 -0.252,-0.4322 0.458,0.8879 z M 28.17904,1.0850025 l -0.207,-0.45520002 -0.023,0.0104 -0.021,0.0125 z m -18.003,14.8939995 -0.2929997,0.4057 0.022,0.0153 0.022,0.013 z m 7.688,4.4008 0.25,-0.433 -10e-4,-0.001 z m 177.561,102.508198 -0.25,0.433 0.251,0.145 0.25,-0.145 z m 24.5257,-14.241 0.2511,0.432 0.7467,-0.433 -0.7478,-0.432 z M 34.76704,1.7155025 l 0.25,-0.4329 -0.251,-0.1449 -0.25,0.1456 z m -0.052,0.0301 -0.255,0.43 0.253,0.1498 0.254,-0.1476 z m -0.013,-0.0082 -0.293,0.4051 0.018,0.0133 0.02,0.0116 z m -3.174,-1.20500002 -0.05,0.49750002 z M 3.9260403,15.758902 28.43004,1.5173025 27.92804,0.65270248 3.4230403,14.894402 Z m 3.137,-1.4765 c -1.229,-0.1233 -2.469,0.0799 -3.594,0.5886 l 0.412,0.9113 c 0.965,-0.4364 2.028,-0.6106 3.082,-0.5049 z m 3.4049997,1.291 c -1.0019997,-0.7221 -2.1759997,-1.1677 -3.4049997,-1.291 l -0.1,0.995 c 1.054,0.1057 2.061,0.4878 2.92,1.1073 z m 7.645,4.3724 -7.689,-4.4007 -0.4969997,0.8679 7.6889997,4.4007 z M 195.67504,122.455 18.11404,19.946802 l -0.5,0.866 177.561,102.508198 z m 24.0246,-14.241 -24.5256,14.242 0.502,0.865 24.5258,-14.242 z M 34.51704,2.1485025 219.70074,109.08 l 0.5,-0.866 L 35.01704,1.2826025 Z m 0.45,0.0293 0.051,-0.03 -0.502,-0.8645 -0.052,0.03 z m -0.52,-0.0104 0.013,0.0082 0.511,-0.8601 -0.014,-0.0081 z m -2.969,-1.1375 c 1.058,0.1058 2.069,0.4896 2.931,1.1126 l 0.586,-0.8103 c -1.005,-0.72640002 -2.184,-1.17400002 -3.417,-1.29730002 z m -3.092,0.5102 c 0.967,-0.44 2.034,-0.61600002 3.092,-0.5102 l 0.1,-0.99500002 c -1.234,-0.1234 -2.478,0.0817 -3.606,0.5949 z"
       fill="#1a1b1d"
       id="path17866" />
    <path
       d="m 195.42504,122.888 c 2.692,1.74 4.934,4.093 6.54,6.868 1.607,2.774 2.532,5.89 2.7,9.092 l -0.435,155.113 c 0,5.87 -4.174,8.218 -9.306,5.261 L 9.7410403,192.313 c -2.688,-1.745 -4.926,-4.1 -6.532,-6.873 -1.606,-2.773 -2.53400004,-5.886 -2.70900004,-9.086 l 0.457,-155.091798 c 0,-5.8706 4.17400004,-8.2404 9.28399974,-5.2834 z"
       fill="#8FE3E8"
       stroke="#1a1b1d"
       id="path17868"
       style="fill:none" />
    <path
       d="m 229.19274,124.606 c -0.1715,-3.201 -1.0985,-6.316 -2.7046,-9.09 -1.6061,-2.773 -3.8457,-5.127 -6.5361,-6.87 l -24.526,14.242 c 2.693,1.74 4.935,4.093 6.541,6.868 1.606,2.774 2.532,5.89 2.7,9.092"
       stroke="#1a1b1d"
       stroke-linejoin="round"
       id="path17907" />
    <path
       d="m 195.42604,122.888 24.526,-14.242 c 2.6904,1.743 4.93,4.097 6.5361,6.87 1.6061,2.774 2.5331,5.889 2.7046,9.09 l -24.5257,14.242 c -0.168,-3.202 -1.094,-6.318 -2.7,-9.092 -1.606,-2.775 -3.848,-5.128 -6.541,-6.868 z"
       fill="#f5f6f6"
       stroke="#1a1b1d"
       stroke-linejoin="round"
       id="path17909" />
    <path
       d="m 201.96504,129.757 c -1.606,-2.775 -3.848,-5.128 -6.541,-6.868 L 10.24104,15.979802 c -5.1099997,-2.957 -9.28499974,-0.5872 -9.28499974,5.2834 l -0.057,22.087 L 204.61004,160.938 l 0.055,-22.089 c -0.168,-3.202 -1.093,-6.318 -2.7,-9.092 z"
       fill="#f5f6f6"
       stroke="#1a1b1d"
       id="path17911" />
    <circle
       cx="151.45589"
       cy="115.16885"
       r="6.52285"
       fill="#8fe3e8"
       stroke="#1a1b1d"
       id="circle17913" />
    <circle
       cx="170.17989"
       cy="126.02585"
       r="6.52285"
       fill="#80bb53"
       stroke="#1a1b1d"
       id="circle17915" />
    <circle
       cx="188.90388"
       cy="136.88185"
       fill="#ffb422"
       stroke="#1a1b1d"
       id="ellipse17917"
       r="6.52285" />
  </g>
</svg>
