<?xml version="1.0" encoding="UTF-8" standalone="no"?>
<!-- Created with Inkscape (http://www.inkscape.org/) -->

<svg
   width="400"
   height="400"
   viewBox="0 0 105.83333 105.83333"
   version="1.1"
   id="svg106745"
   inkscape:version="1.2.2 (732a01da63, 2022-12-09)"
   sodipodi:docname="widedb.svg"
   inkscape:export-filename="widedb.png"
   inkscape:export-xdpi="96"
   inkscape:export-ydpi="96"
   xmlns:inkscape="http://www.inkscape.org/namespaces/inkscape"
   xmlns:sodipodi="http://sodipodi.sourceforge.net/DTD/sodipodi-0.dtd"
   xmlns="http://www.w3.org/2000/svg"
   xmlns:svg="http://www.w3.org/2000/svg">
  <sodipodi:namedview
     id="namedview106747"
     pagecolor="#ffffff"
     bordercolor="#000000"
     borderopacity="0.25"
     inkscape:showpageshadow="2"
     inkscape:pageopacity="0.0"
     inkscape:pagecheckerboard="0"
     inkscape:deskcolor="#d1d1d1"
     inkscape:document-units="mm"
     showgrid="false"
     inkscape:zoom="1.5625561"
     inkscape:cx="170.23389"
     inkscape:cy="195.19299"
     inkscape:window-width="1920"
     inkscape:window-height="1009"
     inkscape:window-x="1912"
     inkscape:window-y="-8"
     inkscape:window-maximized="1"
     inkscape:current-layer="layer1" />
  <defs
     id="defs106742">
    <radialGradient
       id="paint1_radial_915_19824"
       cx="0"
       cy="0"
       r="1"
       gradientUnits="userSpaceOnUse"
       gradientTransform="matrix(-18.460508,-42.992822,74.472154,-31.977288,263.829,237.318)">
      <stop
         stop-color="#7AD1FF"
         id="stop19120" />
      <stop
         offset="1"
         stop-color="#7AD1FF"
         stop-opacity="0"
         id="stop19122" />
    </radialGradient>
    <clipPath
       clipPathUnits="userSpaceOnUse"
       id="clipPath43292">
      <g
         id="g43298"
         transform="translate(42.958678,56.033058)">
        <g
           id="g43296"
           transform="translate(-42.958678,-56.033058)">
          <rect
             width="452"
             height="304"
             fill="#ffffff"
             id="rect43294"
             x="0"
             y="0" />
        </g>
      </g>
    </clipPath>
    <mask
       maskUnits="userSpaceOnUse"
       id="mask42704">
      <g
         id="g42708"
         transform="translate(42.958678,56.033058)">
        <path
           d="m 240.71332,141.96694 c 1.847,1.197 3.383,2.815 4.484,4.721 1.101,1.905 1.734,4.044 1.849,6.242 l -0.194,70.994 c 0,4.033 -2.868,5.661 -6.378,3.63 l -95.28,-55.012 c -1.85,-1.195 -3.39,-2.812 -4.494,-4.718 -1.103,-1.905 -1.739,-4.046 -1.854,-6.246 l 0.209,-71.007998 c 0,-4.033 2.853,-5.646 6.378,-3.615 z"
           fill="#ffffff"
           stroke="#000000"
           stroke-linejoin="round"
           id="path42706" />
      </g>
    </mask>
  </defs>
  <g
     inkscape:label="Layer 1"
     inkscape:groupmode="layer"
     id="layer1">
    <path
       fill-rule="evenodd"
       clip-rule="evenodd"
       d="m 402.683,237.378 16.104,9.297 -16.104,9.297 -16.104,-9.297 z m 0,-1 -16.108,-9.3 16.537,-9.547 -0.866,-0.5 -16.537,9.547 -16.105,-9.297 16.538,-9.547 -0.867,-0.5 -16.537,9.547 -16.105,-9.297 16.538,-9.547 -0.866,-0.5 -16.538,9.547 -16.104,-9.297 16.538,-9.547 -0.866,-0.5 -16.538,9.547 -16.104,-9.297 16.537,-9.547 -0.866,-0.5 -16.537,9.547 -16.105,-9.297 16.538,-9.547 -0.866,-0.5 -16.538,9.547 -16.108,-9.299 16.537,-9.548 -0.866,-0.5 -16.537,9.548 -16.104,-9.297 16.537,-9.547 -0.866,-0.5 -16.537,9.547 -16.538,-9.547 -0.866,0.5 16.538,9.547 -16.105,9.297 -16.537,-9.547 -0.866,0.5 16.537,9.547 -16.108,9.299 -16.538,-9.547 -0.866,0.5 16.538,9.547 -16.104,9.297 -16.538,-9.547 -0.866,0.5 16.538,9.547 -16.105,9.297 -16.537,-9.547 -0.866,0.5 16.537,9.547 -16.104,9.297 -16.538,-9.547 -0.866,0.5 16.537,9.547 -16.104,9.297 -16.537,-9.547 -0.866,0.5 16.537,9.547 -16.104,9.297 -16.538,-9.547 -0.866,0.5 16.538,9.547 -16.108,9.3 -16.538,-9.548 -0.866,0.5 16.538,9.547 -16.105,9.298 -16.5374,-9.547 -0.866,0.5 16.5374,9.547 -16.5372,9.547 0.8661,0.499 16.5371,-9.546 16.104,9.296 -16.537,9.547 0.866,0.5 16.537,-9.547 16.108,9.3 -16.537,9.547 0.866,0.5 16.537,-9.547 16.105,9.297 -16.537,9.547 0.866,0.5 16.537,-9.547 16.104,9.297 -16.537,9.547 0.866,0.5 16.537,-9.547 16.105,9.297 -16.538,9.547 0.866,0.5 16.538,-9.547 16.104,9.297 -16.537,9.547 0.866,0.5 16.537,-9.547 16.105,9.297 -16.537,9.547 0.866,0.5 16.537,-9.547 16.108,9.299 -16.537,9.547 0.866,0.5 16.537,-9.547 16.105,9.297 -16.538,9.547 0.866,0.5 16.538,-9.547 16.537,9.547 0.866,-0.5 -16.537,-9.547 16.104,-9.297 16.538,9.547 0.866,-0.5 -16.538,-9.547 16.108,-9.299 16.538,9.547 0.866,-0.5 -16.538,-9.547 16.105,-9.297 16.537,9.547 0.866,-0.5 -16.537,-9.547 16.104,-9.297 16.538,9.547 0.866,-0.5 -16.538,-9.547 16.105,-9.297 16.537,9.547 0.866,-0.5 -16.537,-9.547 16.104,-9.297 16.538,9.547 0.866,-0.5 -16.538,-9.547 16.105,-9.297 16.537,9.547 0.866,-0.5 -16.537,-9.547 16.108,-9.299 16.537,9.547 0.866,-0.5 -16.537,-9.547 16.104,-9.297 16.537,9.546 0.867,-0.499 -16.538,-9.547 16.538,-9.547 -0.866,-0.5 -16.538,9.547 -16.104,-9.297 16.538,-9.547 -0.866,-0.5 z m -287.647,10.297 16.104,9.296 16.105,-9.297 -16.104,-9.297 z m 16.971,-9.798 16.104,9.297 16.108,-9.299 -16.104,-9.297 z m 16.974,-9.799 16.104,9.297 16.104,-9.297 -16.104,-9.297 z m 16.97,-9.797 16.104,9.297 16.104,-9.297 -16.103,-9.297 z m 16.971,-9.797 16.103,9.297 16.105,-9.297 -16.104,-9.297 z m 16.97,-9.797 16.104,9.297 16.105,-9.297 -16.104,-9.297 z m 16.971,-9.797 16.104,9.297 16.104,-9.297 -16.104,-9.297 z m 16.97,-9.797 16.104,9.297 16.108,-9.299 -16.104,-9.297 z m 16.974,-9.799 16.104,9.297 16.105,-9.297 -16.104,-9.297 z m 16.97,9.797 16.105,-9.297 16.108,9.299 -16.104,9.297 z m -16.974,9.799 16.108,-9.299 16.109,9.299 -16.108,9.299 z m -16.97,9.797 16.104,-9.297 16.109,9.299 -16.105,9.297 z m -16.971,9.797 16.105,-9.297 16.108,9.299 -16.104,9.297 z m -16.97,9.797 16.104,-9.297 16.109,9.299 L 216,226.58 Z m -16.971,9.797 16.104,-9.297 16.109,9.299 -16.104,9.297 z m -16.97,9.797 16.104,-9.297 16.109,9.299 -16.105,9.297 z m -16.974,9.799 16.108,-9.299 16.108,9.299 -16.108,9.3 z m -16.971,9.797 16.105,-9.297 16.108,9.3 -16.105,9.297 z m 16.974,9.8 16.105,9.297 16.105,-9.297 -16.105,-9.297 z m 16.971,-9.797 16.105,9.297 16.108,-9.299 -16.105,-9.298 z m 16.974,-9.8 16.105,9.298 16.104,-9.298 -16.104,-9.297 z m 16.971,-9.797 16.104,9.297 16.104,-9.296 L 216,227.58 Z m 16.97,-9.797 16.104,9.298 16.105,-9.298 -16.104,-9.297 z m 16.971,-9.797 16.104,9.297 16.105,-9.297 -16.105,-9.297 z m 16.97,-9.797 16.105,9.297 16.104,-9.297 -16.104,-9.297 z m 16.971,-9.797 16.104,9.297 16.108,-9.299 -16.104,-9.297 z m 16.974,-9.799 16.104,9.297 16.105,-9.297 -16.105,-9.297 z m 16.97,9.797 16.105,-9.297 16.104,9.297 -16.104,9.297 z m -16.974,9.799 16.108,-9.299 16.105,9.297 -16.109,9.299 z m -16.97,9.797 16.104,-9.297 16.104,9.297 -16.104,9.297 z m -16.971,9.797 16.105,-9.297 16.104,9.297 -16.104,9.297 z m -16.97,9.798 16.104,-9.298 16.105,9.297 -16.105,9.298 z m -16.971,9.796 16.104,-9.296 16.105,9.296 -16.104,9.297 z m -16.97,9.798 16.104,-9.298 16.105,9.297 -16.105,9.298 z m -16.974,9.799 16.108,-9.299 16.104,9.296 -16.108,9.3 z m -16.971,9.797 16.105,-9.297 16.104,9.297 -16.105,9.297 z m 16.97,9.797 16.105,9.297 16.104,-9.297 -16.104,-9.297 z m 16.971,-9.797 16.104,9.297 16.108,-9.299 L 216,266.768 Z m 16.974,-9.8 16.104,9.298 16.105,-9.298 -16.104,-9.297 z m 16.971,-9.797 16.104,9.297 16.104,-9.296 -16.104,-9.298 z m 16.97,-9.797 16.104,9.298 16.105,-9.298 -16.104,-9.297 z m 16.971,-9.797 16.104,9.297 16.105,-9.297 -16.105,-9.297 z m 16.97,-9.797 16.105,9.297 16.104,-9.297 -16.105,-9.297 z m 16.97,-9.797 16.105,9.297 16.108,-9.299 -16.104,-9.297 z m 16.975,-9.799 16.104,9.297 16.104,-9.297 -16.104,-9.297 z m 16.97,9.797 16.104,-9.297 16.105,9.297 -16.104,9.297 z m -16.974,9.799 16.108,-9.299 16.105,9.297 -16.108,9.299 z m -16.97,9.797 16.104,-9.297 16.105,9.297 -16.105,9.297 z m -16.971,9.797 16.105,-9.297 16.104,9.297 -16.104,9.297 z m -16.971,9.798 16.105,-9.298 16.105,9.297 -16.105,9.298 z m -16.97,9.796 16.104,-9.296 16.105,9.297 -16.104,9.297 z m -16.97,9.798 16.104,-9.298 16.105,9.298 -16.105,9.297 z m -16.975,9.799 16.108,-9.299 16.105,9.297 -16.108,9.299 z m -16.97,9.797 16.104,-9.297 16.105,9.297 -16.105,9.297 z m 16.971,9.797 16.104,9.297 16.105,-9.297 -16.105,-9.297 z m 16.97,-9.797 16.105,9.297 16.108,-9.299 -16.105,-9.297 z m 16.974,-9.799 16.105,9.297 16.104,-9.297 -16.104,-9.297 z m 16.971,-9.797 16.104,9.297 16.104,-9.297 -16.104,-9.297 z m 16.97,-9.797 16.104,9.297 16.105,-9.297 -16.104,-9.298 z m 16.971,-9.798 16.104,9.298 16.105,-9.298 -16.105,-9.297 z m 16.97,-9.797 16.105,9.298 16.104,-9.298 -16.104,-9.297 z m 16.971,-9.797 16.104,9.298 16.108,-9.3 -16.104,-9.297 z m 16.974,-9.799 16.104,9.297 16.105,-9.297 -16.105,-9.297 z m 16.97,9.797 16.105,-9.297 16.108,9.3 -16.104,9.297 z m -16.974,9.799 16.108,-9.299 16.109,9.3 -16.109,9.299 z m -16.97,9.797 16.104,-9.297 16.108,9.3 -16.104,9.297 z m -16.971,9.798 16.105,-9.298 16.108,9.3 -16.104,9.297 z m -16.971,9.797 16.105,-9.297 16.109,9.299 -16.105,9.297 z m -16.97,9.797 16.104,-9.297 16.109,9.299 -16.104,9.297 z m -16.97,9.797 16.104,-9.297 16.109,9.299 -16.105,9.297 z m -16.974,9.799 16.108,-9.299 16.108,9.299 -16.108,9.299 z m -16.971,9.797 16.105,-9.297 16.108,9.299 -16.105,9.297 z m 16.974,9.799 16.105,9.297 16.104,-9.297 -16.104,-9.297 z m 16.971,-9.797 16.104,9.297 16.108,-9.299 -16.104,-9.297 z m 16.974,-9.799 16.104,9.297 16.105,-9.297 -16.104,-9.297 z m 16.971,-9.797 16.104,9.297 16.104,-9.297 -16.104,-9.297 z m 16.97,-9.797 16.104,9.297 16.105,-9.297 -16.104,-9.297 z m 16.971,-9.797 16.104,9.297 16.104,-9.297 -16.104,-9.297 z m 16.97,-9.797 16.104,9.297 16.105,-9.297 -16.104,-9.297 z m 16.971,-9.797 16.104,9.297 16.108,-9.299 -16.104,-9.297 z"
       fill="url(#paint1_radial_915_19824)"
       id="path18863"
       style="fill:url(#paint1_radial_915_19824)"
       transform="matrix(0.51434534,0,0,0.53068214,-95.937548,-71.653518)"
       mask="url(#mask42704)"
       clip-path="url(#clipPath43292)" />
    <g
       id="g60861"
       transform="translate(59.179873,-17.577144)">
      <path
         fill-rule="evenodd"
         clip-rule="evenodd"
         d="m -40.218148,37.552926 c -1.381436,-0.797535 -3.621205,-0.797535 -5.002641,0 l -9.313118,5.376424 c -0.714884,0.412728 -1.059835,0.958071 -1.034852,1.498843 l 0.0011,16.535407 c 0.02662,0.501586 0.371425,0.99836 1.034417,1.38105 l 34.640946,19.998046 c 1.381532,0.79764 3.62135,0.79764 5.002882,0 l 9.31307,-5.376423 c 0.6729566,-0.388468 1.0180986,-0.894866 1.035428,-1.403685 v -16.52832 c -0.00473,0.141036 -0.035132,0.282081 -0.090495,0.420716 0.2642736,-0.663327 -0.051015,-1.387309 -0.9458922,-1.90382 z"
         fill="#ffffff"
         id="path58954"
         style="stroke-width:0.48137" />
      <path
         opacity="0.1"
         d="m -45.220789,59.081922 c 1.381436,-0.797149 3.621205,-0.797149 5.002641,0 l 34.6408496,19.99853 c 1.3815324,0.797622 1.3815324,2.090599 0,2.887748 l -9.3130696,5.376896 c -1.381534,0.797149 -3.620868,0.797149 -5.0024,0 L -54.533907,67.34657 c -1.381486,-0.797631 -1.381486,-2.090592 0,-2.888222 z"
         fill="#4c99a4"
         id="path58958"
         style="stroke-width:0.48137" />
      <path
         opacity="0.1"
         d="m -45.220789,54.080004 c 1.381436,-0.797342 3.621205,-0.797342 5.002641,0 l 34.6408496,19.998521 c 1.3815324,0.797149 1.3815324,2.090599 0,2.887748 l -9.3130696,5.376423 c -1.381534,0.79764 -3.620868,0.79764 -5.0024,0 L -54.533907,62.34465 c -1.381486,-0.797629 -1.381486,-2.09059 0,-2.888222 z"
         fill="#51a6b1"
         id="path58960"
         style="stroke-width:0.48137" />
      <path
         d="m -45.220789,54.080004 c 1.381436,-0.797342 3.621205,-0.797342 5.002641,0 l 34.6408496,19.998521 c 1.3815324,0.797149 1.3815324,2.090599 0,2.887748 l -9.3130696,5.376423 c -1.381534,0.79764 -3.620868,0.79764 -5.0024,0 L -54.533907,62.34465 c -1.381486,-0.797629 -1.381486,-2.09059 0,-2.888222 z"
         stroke="#51a6b1"
         id="path58964"
         style="fill:none;stroke-width:0.48137" />
      <path
         fill-rule="evenodd"
         clip-rule="evenodd"
         d="m -32.73236,55.151053 v 5.609407 c 0,0.508327 -0.331664,1.020506 -1.015689,1.411379 l 4.8e-4,0.0062 -0.936746,0.541061 -0.0592,0.03417 v -4.8e-4 l -5.566854,3.214109 -0.01383,-5.609408 6.559247,-3.788865 v 0 0 c 0.688359,-0.385097 1.032539,-0.904977 1.032539,-1.417636 z"
         fill="#ffb422"
         id="path58966"
         style="stroke-width:0.48137" />
      <path
         d="m -32.973044,55.151053 c 0,-0.132867 0.107833,-0.240686 0.240684,-0.240686 0.132868,0 0.240686,0.107833 0.240686,0.240686 z m -0.775005,7.020786 -0.240686,9.62e-4 c 0,-0.08664 0.04621,-0.166561 0.121296,-0.209876 z m 4.8e-4,0.0062 0.240686,-4.81e-4 c 0,0.08617 -0.04574,0.166071 -0.12035,0.208915 z m -0.936746,0.541061 -0.121315,-0.207952 9.63e-4,-4.82e-4 z m -0.0592,0.03417 0.121296,0.207952 c -0.07847,0.04574 -0.176186,0.04381 -0.252719,-0.0062 -0.07605,-0.04958 -0.11793,-0.13767 -0.107833,-0.22817 z m 0,-4.8e-4 -0.12035,-0.208434 c 0.07847,-0.04525 0.176186,-0.04236 0.252238,0.0073 0.07605,0.04958 0.117458,0.138162 0.107342,0.22817 z m -5.566854,3.214109 0.12035,0.208433 c -0.07443,0.04284 -0.166034,0.04332 -0.240446,4.82e-4 -0.07441,-0.04285 -0.120386,-0.122261 -0.120586,-0.208434 z m -0.01383,-5.609408 -0.240686,9.62e-4 c -2.4e-4,-0.08616 0.04563,-0.166071 0.120295,-0.209395 z m 6.559247,-3.788865 -0.12035,-0.208434 c 0.07414,-0.04285 0.165597,-0.04285 0.240203,0 0.07461,0.04284 0.12035,0.121787 0.120823,0.207952 z m 0,0 0.144402,0.192547 c -0.07268,0.05487 -0.169928,0.06355 -0.251757,0.02311 -0.08134,-0.04043 -0.13334,-0.123716 -0.13334,-0.214691 z m 0,0 -0.144402,-0.192068 c 0.0082,-0.0067 0.01728,-0.01255 0.02696,-0.01783 z m 0.791855,4.191771 V 55.15099 h 0.481369 v 5.609407 z m -0.894387,1.202465 c 0.638297,-0.364881 0.894387,-0.809667 0.894387,-1.202465 h 0.481369 c 0,0.624338 -0.40772,1.203427 -1.136514,1.620293 z m -0.120823,0.216135 -4.8e-4,-0.0062 0.48137,-0.0014 4.82e-4,0.0062 z m -0.816403,0.331662 0.936746,-0.541059 0.240686,0.416867 -0.936746,0.541061 z m -0.06017,0.03513 0.0592,-0.03466 0.24261,0.415422 -0.0592,0.03466 z m 0.360546,0.233947 v 4.8e-4 l -0.478482,-0.05343 v -4.8e-4 z m -5.926438,2.978718 5.566854,-3.214109 0.240686,0.416866 -5.566854,3.21411 z m 0.34726,-5.401455 0.01383,5.609407 -0.481372,9.63e-4 -0.01383,-5.608927 z m 6.438906,-3.579952 -6.5592,3.788867 -0.240782,-0.416867 6.559296,-3.788867 z m -0.361029,-0.20747 v 0 l 0.481372,-0.0014 v 0 z m 0.385579,0.191585 h -4.82e-4 l -0.289302,-0.384615 h 4.8e-4 z m 1.128332,-1.610183 c 0,0.629632 -0.421681,1.216905 -1.155771,1.627995 l -0.234908,-0.420238 c 0.64263,-0.360064 0.909309,-0.812552 0.909309,-1.207757 z"
         fill="#ec9c00"
         id="path58968"
         style="stroke-width:0.48137" />
      <path
         fill-rule="evenodd"
         clip-rule="evenodd"
         d="m -52.705231,55.192451 v 5.609408 c 0,0.508327 0.331664,1.020504 1.015162,1.411378 v 0.0062 l 6.562617,3.788865 0.01364,-5.609409 -6.559103,-3.788864 v 0 c -0.688263,-0.385578 -1.032396,-0.904977 -1.032396,-1.417636 z"
         fill="#ffc450"
         id="path58970"
         style="stroke-width:0.48137" />
      <path
         d="m -52.464545,55.192451 c 0,-0.132868 -0.107779,-0.240686 -0.240686,-0.240686 -0.132904,0 -0.240684,0.107833 -0.240684,0.240686 z m 0.774476,7.020786 0.240686,4.82e-4 c 2.87e-4,-0.08616 -0.04598,-0.166562 -0.121114,-0.209397 z m 0,0.0062 -0.240686,-9.64e-4 c -2.4e-4,0.08664 0.04563,0.166071 0.120351,0.209397 z m 6.562617,3.788865 -0.120332,0.208432 c 0.07438,0.04285 0.165979,0.04285 0.240396,0 0.07441,-0.04284 0.120387,-0.121787 0.120623,-0.207952 z m 0.01364,-5.609409 0.240686,4.82e-4 c 2.4e-4,-0.08616 -0.04563,-0.165597 -0.120296,-0.208914 z m -6.559103,-3.788864 0.12035,-0.208435 c -0.07432,-0.04284 -0.165871,-0.04284 -0.240349,0 -0.07441,0.04236 -0.120387,0.121788 -0.120678,0.207472 z m 0,0 -0.11764,0.209876 c 0.07443,0.04188 0.165307,0.04092 0.238952,-0.002 0.07365,-0.04285 0.11904,-0.121787 0.119331,-0.206989 z m -0.79171,4.191773 v -5.609409 h -0.481369 v 5.609409 z m 0.89405,1.202462 c -0.638058,-0.364878 -0.89405,-0.809664 -0.89405,-1.202462 h -0.481369 c 0,0.623856 0.407382,1.202943 1.136321,1.620291 z m 0.121114,0.215654 v -0.0062 l -0.481371,-0.0014 v 0.0062 z m 6.442274,3.57995 -6.562617,-3.788865 -0.240685,0.416867 6.562618,3.788864 z m -0.34726,-5.401455 -0.01383,5.609407 0.48137,9.62e-4 0.01364,-5.609407 z m -6.438857,-3.57995 6.559151,3.788864 0.240733,-0.416866 -6.559151,-3.788867 z m 0.361027,-0.207472 v 0 l -0.481322,-0.002 v 0 z m -1.513716,-1.418598 c 0,0.629632 0.421681,1.216905 1.155433,1.627512 l 0.235246,-0.419753 c -0.642774,-0.360067 -0.909309,-0.812554 -0.909309,-1.207759 z"
         fill="#ec9c00"
         id="path58972"
         style="stroke-width:0.48137" />
      <path
         d="m -45.193688,60.357554 v 5.609408 c 0.7532,0.385095 1.587031,0.585828 2.432989,0.585828 0.845961,0 1.67979,-0.200733 2.432991,-0.585828 v -5.609408 c -0.753827,0.383172 -1.587416,0.582458 -2.432991,0.582458 -0.845525,0 -1.679114,-0.199286 -2.432989,-0.582458 z"
         fill="#ffc450"
         stroke="#ec9c00"
         stroke-linejoin="round"
         id="path58974"
         style="stroke-width:0.48137" />
      <path
         fill-rule="evenodd"
         clip-rule="evenodd"
         d="m -32.73236,49.519743 v 5.609649 c 0,0.508327 -0.331664,1.020023 -1.015689,1.411377 l 4.8e-4,0.0062 -0.462116,0.266679 -0.939635,0.555981 -0.002,-0.01255 -5.159134,2.97872 -0.01383,-5.609408 6.558767,-3.788529 4.8e-4,-3.36e-4 c 0.688359,-0.385434 1.032539,-0.905121 1.032539,-1.417876 z"
         fill="#ffb422"
         id="path58976"
         style="stroke-width:0.48137" />
      <path
         d="m -32.973044,49.519743 c 0,-0.132904 0.107833,-0.240686 0.240684,-0.240686 0.132868,0 0.240686,0.107779 0.240686,0.240686 z m -0.775005,7.021026 -0.240686,4.82e-4 c 0,-0.08616 0.04621,-0.166562 0.121296,-0.209396 z m 4.8e-4,0.0062 0.240686,-4.82e-4 c 0,0.08616 -0.04574,0.16607 -0.12035,0.208914 z m -0.462116,0.266679 -0.12226,-0.20699 0.002,-0.0014 z m -0.939635,0.555981 0.122752,0.207472 c -0.06932,0.04092 -0.154518,0.04428 -0.226726,0.0096 -0.07268,-0.03466 -0.122752,-0.103503 -0.134305,-0.183403 z m -0.002,-0.01255 -0.12035,-0.208432 c 0.06932,-0.03995 0.154044,-0.04285 0.225763,-0.0076 0.07221,0.03466 0.121787,0.103012 0.13334,0.182439 z m -5.159134,2.97872 0.12035,0.208434 c -0.07443,0.04285 -0.166034,0.04285 -0.240445,0 -0.07441,-0.04284 -0.120387,-0.121787 -0.120587,-0.207951 z m -0.01383,-5.609408 -0.240686,4.82e-4 c -2.4e-4,-0.08617 0.04563,-0.165598 0.120296,-0.208915 z m 6.558767,-3.788529 0.12468,0.205835 -0.0044,0.0025 z m 4.8e-4,-3.36e-4 -0.12468,-0.205785 c 0.0024,-0.0014 0.0047,-0.0029 0.0073,-0.0042 z m 0.791855,4.191773 v -5.609538 h 0.48137 v 5.609649 z m -0.894386,1.202463 c 0.638296,-0.364879 0.894386,-0.809665 0.894386,-1.202463 h 0.48137 c 0,0.623856 -0.407721,1.202943 -1.136515,1.620291 z m -0.120823,0.216135 -4.81e-4,-0.0067 0.48137,-0.0014 4.82e-4,0.0067 z m -0.341773,0.05729 0.462115,-0.266678 0.240686,0.416866 -0.462115,0.266679 z m -0.94156,0.557428 0.939635,-0.555983 0.245018,0.413979 -0.939636,0.556463 z m 0.359102,0.160776 0.0014,0.01255 -0.476556,0.06739 -0.002,-0.01255 z m -5.518236,2.803982 5.159134,-2.978718 0.240685,0.416867 -5.159133,2.97872 z m 0.34726,-5.401455 0.01383,5.609407 -0.481372,9.65e-4 -0.01383,-5.609409 z m 6.438424,-3.579613 -6.558718,3.788528 -0.240782,-0.416867 6.558816,-3.788528 z m 0.0047,-0.0029 -4.8e-4,3.38e-4 -0.249352,-0.411572 4.83e-4,-3.37e-4 z m 1.14855,-1.623661 c 0,0.629969 -0.421681,1.216952 -1.155771,1.627898 l -0.234907,-0.419996 c 0.642629,-0.35997 0.909308,-0.812361 0.909308,-1.207902 z"
         fill="#ec9c00"
         id="path58978"
         style="stroke-width:0.48137" />
      <path
         fill-rule="evenodd"
         clip-rule="evenodd"
         d="m -52.705231,49.561237 v 5.609552 c 0,0.508327 0.331664,1.020504 1.015162,1.411378 v 0.0062 l 6.562617,3.788865 0.01364,-5.609407 -6.559103,-3.788914 -4.8e-5,1.44e-4 c -0.688215,-0.385434 -1.032348,-0.905121 -1.032348,-1.417876 z"
         fill="#ffc450"
         id="path58980"
         style="stroke-width:0.48137" />
      <path
         d="m -52.464545,49.561237 c 0,-0.132904 -0.107779,-0.240686 -0.240686,-0.240686 -0.132904,0 -0.240684,0.107779 -0.240684,0.240686 z m 0.774476,7.02093 0.240686,4.82e-4 c 2.87e-4,-0.08617 -0.04598,-0.166562 -0.121114,-0.209397 z m 0,0.0062 -0.240686,-9.62e-4 c -2.4e-4,0.08616 0.04563,0.16607 0.120351,0.209395 z m 6.562617,3.788865 -0.120332,0.208434 c 0.07438,0.04285 0.165979,0.04285 0.240396,0 0.07441,-0.04285 0.120387,-0.12226 0.120623,-0.207952 z m 0.01364,-5.609407 0.240686,4.8e-4 c 2.4e-4,-0.08616 -0.04563,-0.165597 -0.120296,-0.208914 z m -6.559103,-3.788914 0.12035,-0.208385 c -0.07432,-0.04299 -0.165925,-0.04303 -0.240349,-2.42e-4 -0.07447,0.04285 -0.120442,0.122024 -0.120678,0.207905 z m -4.8e-5,1.44e-4 -0.117603,0.209973 c 0.07443,0.04168 0.165343,0.04086 0.239001,-0.0022 0.07365,-0.04303 0.119041,-0.121787 0.119277,-0.207086 z m -0.791662,4.191677 v -5.609553 h -0.481369 v 5.609553 z m 0.89405,1.202462 c -0.638058,-0.364878 -0.89405,-0.809664 -0.89405,-1.202462 h -0.481369 c 0,0.623856 0.407382,1.202944 1.136321,1.620291 z m 0.121114,0.215654 v -0.0062 l -0.481371,-0.0014 v 0.0062 z m 6.442274,3.579952 -6.562617,-3.788867 -0.240685,0.416867 6.562618,3.788866 z m -0.34726,-5.401457 -0.01383,5.609409 0.48137,9.62e-4 0.01364,-5.609409 z m -6.438857,-3.58 6.559151,3.788914 0.240733,-0.416866 -6.559151,-3.788865 z m 0.361027,-0.207566 v -1.44e-4 l -0.481322,-0.0014 v 1.44e-4 z m -1.513716,-1.418598 c 0,0.629969 0.421681,1.216952 1.155433,1.627849 l 0.235246,-0.419995 c -0.642701,-0.359848 -0.909236,-0.812239 -0.909236,-1.207781 z"
         fill="#ec9c00"
         id="path58982"
         style="stroke-width:0.48137" />
      <path
         d="m -45.193688,54.726484 v 5.609408 c 0.7532,0.385097 1.587031,0.585828 2.432989,0.585828 0.845961,0 1.67979,-0.200731 2.432991,-0.585828 v -5.609408 c -0.753827,0.383172 -1.587416,0.582458 -2.432991,0.582458 -0.845525,0 -1.679114,-0.199286 -2.432989,-0.582458 z"
         fill="#ffc450"
         stroke="#ec9c00"
         stroke-linejoin="round"
         id="path58984"
         style="stroke-width:0.48137" />
      <path
         fill-rule="evenodd"
         clip-rule="evenodd"
         d="m -32.73236,43.908073 v 5.609456 c 0,0.508567 -0.331664,1.020456 -1.015689,1.411521 l 4.8e-4,0.0062 -6.56281,3.788865 -0.01383,-5.60931 6.559248,-3.788914 v 1.93e-4 -9.7e-5 c 0.688359,-0.385433 1.032538,-0.90512 1.032538,-1.417876 z"
         fill="#ffb422"
         id="path58986"
         style="stroke-width:0.48137" />
      <path
         d="m -32.973044,43.908073 c 0,-0.132904 0.107833,-0.240686 0.240684,-0.240686 0.132868,0 0.240686,0.107778 0.240686,0.240686 z m -0.775005,7.020977 -0.240686,7.71e-4 c 0,-0.0866 0.04621,-0.166653 0.121296,-0.209686 z m 4.8e-4,0.0062 0.240686,-7.69e-4 c 0,0.08626 -0.04574,0.16607 -0.12035,0.209203 z m -6.56281,3.788865 0.120351,0.208434 c -0.07443,0.04285 -0.166034,0.04285 -0.240446,0 -0.07441,-0.04284 -0.120387,-0.121787 -0.120587,-0.207952 z m -0.01383,-5.60931 -0.240685,5.76e-4 c -2.41e-4,-0.08622 0.04563,-0.165925 0.120295,-0.20901 z m 6.559248,-3.788914 -0.120351,-0.208434 c 0.07414,-0.04294 0.165598,-0.04303 0.240204,-1.91e-4 0.07461,0.04279 0.12035,0.121987 0.120823,0.207855 z m 0,1.93e-4 0.121314,0.207855 c -0.07461,0.04337 -0.166071,0.04376 -0.241166,0.0011 -0.07461,-0.04274 -0.120823,-0.122133 -0.120823,-0.208145 z m 0,-9.7e-5 -0.121297,-0.207905 0.0038,-0.0022 z m 0.791854,4.19158 v -5.609456 h 0.48137 v 5.609456 z m -0.894386,1.202607 c 0.638296,-0.365071 0.894386,-0.809712 0.894386,-1.202607 h 0.48137 c 0,0.624193 -0.40772,1.203378 -1.136515,1.620437 z m -0.120823,0.215799 -4.8e-4,-0.0062 0.481369,-0.0015 4.82e-4,0.0062 z m -6.442467,3.57971 6.56281,-3.788865 0.240686,0.416866 -6.56281,3.788865 z m 0.34726,-5.401504 0.01383,5.609456 -0.481371,9.62e-4 -0.01383,-5.609216 z m 6.438906,-3.579854 -6.5592,3.788865 -0.240782,-0.416819 6.559296,-3.788914 z m -0.361028,-0.207472 v -1.93e-4 l 0.481371,-0.0015 v 1.44e-4 z m 0.361991,0.20699 v 9.6e-5 l -0.242553,-0.415784 v -9.6e-5 z m 1.151919,-1.625732 c 0,0.629969 -0.42168,1.216952 -1.155771,1.627898 L -33.88241,45.11595 c 0.642629,-0.359921 0.909308,-0.812312 0.909308,-1.207854 z"
         fill="#ec9c00"
         id="path58988"
         style="stroke-width:0.48137" />
      <path
         fill-rule="evenodd"
         clip-rule="evenodd"
         d="m -52.705231,43.94923 v 5.609456 c 0,0.508471 0.331664,1.02036 1.015162,1.411425 v 0.0065 l 6.562617,3.788818 0.01364,-5.609265 -6.559103,-3.788865 v -2.89e-4 c -0.688263,-0.385385 -1.032396,-0.905072 -1.032396,-1.417827 z"
         fill="#ffc450"
         id="path58990"
         style="stroke-width:0.48137" />
      <path
         d="m -52.464545,43.94923 c 0,-0.132958 -0.107779,-0.240686 -0.240686,-0.240686 -0.132904,0 -0.240684,0.107724 -0.240684,0.240686 z m 0.774476,7.020881 0.240686,7.22e-4 c 2.87e-4,-0.08655 -0.04598,-0.166598 -0.121114,-0.209637 z m 0,0.0065 -0.240686,-7.22e-4 c -2.4e-4,0.08626 0.04563,0.16607 0.120351,0.209204 z m 6.562617,3.788818 -0.120332,0.208432 c 0.07438,0.04285 0.165979,0.04332 0.240396,4.82e-4 0.07441,-0.04285 0.120387,-0.12226 0.120623,-0.208434 z m 0.01364,-5.609265 0.240686,6.26e-4 c 2.4e-4,-0.08622 -0.04563,-0.165925 -0.120296,-0.209011 z m -6.559103,-3.788865 h -0.240686 c 0,0.08596 0.04588,0.165397 0.120295,0.208434 z m 0,-2.89e-4 h 0.240685 c 0,-0.08707 -0.04708,-0.167417 -0.123079,-0.209974 z m -0.79171,4.191629 v -5.609456 h -0.481369 v 5.609456 z m 0.89405,1.20251 c -0.638058,-0.365071 -0.89405,-0.809665 -0.89405,-1.20251 h -0.481369 c 0,0.624096 0.407382,1.203232 1.136321,1.620341 z m 0.121114,0.216232 v -0.0065 l -0.481322,-0.0014 -4.9e-5,0.0066 z m 6.442274,3.579614 -6.562617,-3.788818 -0.240685,0.416916 6.562618,3.788768 z m -0.34726,-5.401408 -0.01383,5.60936 0.48137,9.62e-4 0.01364,-5.609119 z m -6.438857,-3.579854 6.559151,3.788865 0.240733,-0.416819 -6.559103,-3.788912 z m -0.120295,-0.208723 v 2.89e-4 h 0.481371 v -2.89e-4 z m -1.032394,-1.417827 c 0,0.629969 0.421681,1.216952 1.15548,1.627849 l 0.235199,-0.419996 c -0.642774,-0.35992 -0.909309,-0.812311 -0.909309,-1.207853 z"
         fill="#ec9c00"
         id="path58992"
         style="stroke-width:0.48137" />
      <path
         d="m -51.690742,42.510846 c -1.348993,0.77775 -1.355876,2.0374 0,2.818568 l 6.514384,3.785448 c 0.754307,0.383556 1.588569,0.583421 2.43477,0.583421 0.846201,0 1.680416,-0.199865 2.434723,-0.583421 l 6.559296,-3.785448 c 1.345431,-0.777702 1.355539,-2.0374 0,-2.818568 l -6.518043,-3.785448 c -0.753681,-0.383506 -1.587317,-0.58342 -2.432988,-0.58342 -0.845624,0 -1.67931,0.199914 -2.433038,0.58342 z"
         fill="#ffc450"
         stroke="#ec9c00"
         stroke-linejoin="round"
         id="path58994"
         style="stroke-width:0.48137" />
      <path
         d="m -45.193688,49.114766 v 5.609311 c 0.7532,0.385096 1.587031,0.585827 2.432989,0.585827 0.845961,0 1.67979,-0.200731 2.432991,-0.585827 v -5.609311 c -0.753827,0.382977 -1.587416,0.582409 -2.432991,0.582409 -0.845525,0 -1.679114,-0.199432 -2.432989,-0.582409 z"
         fill="#ffc450"
         stroke="#ec9c00"
         stroke-linejoin="round"
         id="path58996"
         style="stroke-width:0.48137" />
      <path
         d="m -44.648873,40.342466 c 1.00592,-0.580725 2.636851,-0.580725 3.64277,0 l 5.620431,3.244629 c 0.335034,0.193559 0.335034,0.507412 0,0.700971 l -5.620431,3.244628 c -1.005919,0.580726 -2.63685,0.580726 -3.64277,0 l -5.620334,-3.244628 c -0.335276,-0.193559 -0.335276,-0.507412 0,-0.700971 z"
         fill="#ffc450"
         stroke="#ec9c00"
         stroke-linejoin="round"
         id="path58998"
         style="stroke-width:0.48137" />
      <path
         fill-rule="evenodd"
         clip-rule="evenodd"
         d="m -41.799979,39.884056 c -0.567392,-0.327572 -1.487386,-0.327572 -2.054778,0 l -6.507741,3.756903 c -0.283719,0.163814 -0.283719,0.429334 0,0.593145 l 0.901703,0.520553 6.119708,-3.53292 c 0.283721,-0.16376 0.743717,-0.16376 1.027438,0 l 6.119757,3.53292 0.901605,-0.520553 c 0.283528,-0.163814 0.283528,-0.429334 0,-0.593145 z"
         fill="#ffb422"
         id="path59000"
         style="stroke-width:0.48137" />
      <path
         d="m -43.854757,39.884056 0.120296,0.208435 v 0 z m 2.054778,0 -0.12035,0.208435 v 0 z m -8.562519,3.756903 0.12035,0.208481 z m 0,0.593145 0.12035,-0.208434 z m 0.901703,0.520553 0.120351,0.208434 c -0.07447,0.04299 -0.166216,0.04299 -0.240686,0 z m 6.119708,-3.53292 0.120351,0.208481 z m 1.027438,0 -0.12035,0.208481 z m 6.119757,3.53292 0.120332,0.208434 c -0.07461,0.04299 -0.166071,0.04299 -0.240684,0 z m 0.901605,-0.520553 0.120351,0.208434 v 0 z m 0,-0.593145 0.120351,-0.208432 v 0 z M -43.9751,39.675624 c 0.328874,-0.189853 0.744825,-0.277895 1.147733,-0.277895 0.402907,0 0.81881,0.08804 1.147731,0.277895 l -0.240686,0.416867 c -0.238471,-0.137671 -0.566235,-0.213392 -0.907045,-0.213392 -0.34081,0 -0.668576,0.07572 -0.907094,0.213392 z m -6.507739,3.756903 6.507739,-3.756903 0.240639,0.416867 -6.507694,3.756949 z m 0,1.010011 c -0.185714,-0.107196 -0.333158,-0.281361 -0.333158,-0.505006 0,-0.223644 0.14744,-0.397804 0.333158,-0.505005 l 0.240684,0.416913 c -0.04738,0.02729 -0.07168,0.05256 -0.08298,0.06864 -0.0055,0.0078 -0.0078,0.0131 -0.0087,0.01583 -4.35e-4,0.0014 -6.26e-4,0.0022 -7.22e-4,0.0027 -4.9e-5,4.82e-4 -9.7e-5,7.22e-4 -9.7e-5,8.19e-4 0,1.45e-4 4.8e-5,3.85e-4 9.7e-5,8.18e-4 9.6e-5,4.82e-4 2.87e-4,0.0014 7.22e-4,0.0027 9.13e-4,0.0027 0.0031,0.008 0.0087,0.01601 0.01128,0.01601 0.03562,0.0413 0.08298,0.06864 z m 0.901702,0.520553 -0.901702,-0.520553 0.240684,-0.416868 0.901703,0.520555 z m 0,-0.416866 6.119708,-3.532922 0.240685,0.416915 -6.119708,3.532873 z m 6.119708,-3.532922 c 0.18706,-0.107979 0.417059,-0.1551 0.634062,-0.1551 0.216952,0 0.447,0.04712 0.634012,0.1551 l -0.240637,0.416915 c -0.09666,-0.05584 -0.238519,-0.09064 -0.393375,-0.09064 -0.154863,0 -0.296718,0.0348 -0.393377,0.09064 z m 1.268074,0 6.119804,3.532922 -0.240684,0.416866 -6.119757,-3.532873 z m 7.021411,3.429235 -0.901607,0.520553 -0.240684,-0.416866 0.901606,-0.520555 z m 0,-1.010011 c 0.185809,0.107196 0.333109,0.281361 0.333109,0.505005 0,0.223645 -0.147295,0.397805 -0.333109,0.505006 l -0.240685,-0.416868 c 0.04718,-0.02734 0.07172,-0.05256 0.0828,-0.06864 0.0058,-0.0078 0.0082,-0.01328 0.0087,-0.01601 9.63e-4,-0.0025 9.63e-4,-0.0036 9.63e-4,-0.0036 0,0 0,-0.001 -9.63e-4,-0.0036 -4.8e-4,-0.0027 -0.0029,-0.008 -0.0087,-0.01583 -0.0111,-0.01601 -0.03562,-0.04135 -0.0828,-0.06864 z m -6.507692,-3.756903 6.507692,3.756903 -0.240685,0.416913 -6.507693,-3.756949 z"
         fill="#ec9c00"
         id="path59002"
         style="stroke-width:0.48137" />
      <path
         fill-rule="evenodd"
         clip-rule="evenodd"
         d="m -19.873514,62.547308 v 5.609407 c 0,0.508327 -0.331664,1.02002 -1.01521,1.411381 v 0.0055 l -0.936266,0.540584 -0.0592,0.03475 v -4.91e-4 l -5.567047,3.214104 -0.01346,-5.609401 6.559151,-3.788865 v 0 0 c 0.688359,-0.385579 1.032059,-0.904977 1.032059,-1.417636 z"
         fill="#ffb422"
         id="path59006"
         style="stroke-width:0.48137" />
      <path
         d="m -20.1142,62.547308 c 0,-0.133341 0.107833,-0.240686 0.240686,-0.240686 0.13334,0 0.240686,0.107342 0.240686,0.240686 z m -0.774524,7.020788 -0.240685,4.73e-4 c 0,-0.08624 0.04621,-0.166471 0.121314,-0.20939 z m 0,0.0055 0.240684,-9.65e-4 c 4.82e-4,0.0866 -0.04572,0.166107 -0.12035,0.20939 z m -0.936266,0.540584 -0.121787,-0.207479 0.0014,-9.64e-4 z m -0.0592,0.03475 0.121314,0.207952 c -0.07847,0.04567 -0.176186,0.0433 -0.252719,-0.0055 -0.07605,-0.04967 -0.11793,-0.138089 -0.107833,-0.228656 z m 0,-4.91e-4 -0.12035,-0.208425 c 0.07847,-0.0453 0.176186,-0.04275 0.251758,0.0073 0.07605,0.04967 0.11793,0.137725 0.107833,0.228183 z m -5.567047,3.214104 0.12035,0.208444 c -0.07414,0.04294 -0.166071,0.04294 -0.240204,0 -0.07461,-0.04294 -0.12035,-0.121715 -0.120823,-0.207952 z m -0.01346,-5.609401 -0.240685,4.82e-4 c -4.81e-4,-0.08616 0.04525,-0.165598 0.119859,-0.208916 z m 6.559151,-3.788865 -0.120823,-0.208434 c 0.07461,-0.04285 0.16607,-0.04285 0.240684,0 0.07414,0.04285 0.12035,0.121787 0.120823,0.207952 z m 0,0 0.14442,0.192547 c -0.07268,0.05487 -0.1704,0.06353 -0.251756,0.02311 -0.08184,-0.04044 -0.13334,-0.123716 -0.13334,-0.214691 z m 0,0 -0.144893,-0.192549 c 0.0087,-0.0062 0.01783,-0.01201 0.02696,-0.01728 z m 0.791373,4.191771 v -5.609407 h 0.481371 v 5.609407 z m -0.893904,1.202465 c 0.638296,-0.365363 0.893904,-0.809667 0.893904,-1.202465 h 0.481371 c 0,0.623856 -0.40724,1.202938 -1.136034,1.620297 z m -0.121315,0.215648 v -0.0055 l 0.48137,-0.0014 v 0.0055 z m -0.815923,0.331668 0.936266,-0.540585 0.240684,0.416869 -0.936264,0.540584 z m -0.06066,0.03511 0.0592,-0.0342 0.243093,0.415431 -0.0592,0.03475 z m 0.361027,0.234424 v 4.73e-4 l -0.478483,-0.05385 v 0 z m -5.926631,2.978716 5.567047,-3.214104 0.240686,0.416868 -5.567047,3.214104 z m 0.347549,-5.401459 0.01346,5.609411 -0.481371,9.64e-4 -0.01346,-5.60941 z m 6.43881,-3.57995 -6.559151,3.788866 -0.241168,-0.416868 6.559152,-3.788865 z m -0.361027,-0.20747 v 0 l 0.481369,-0.0014 v 0 z m 0.385095,0.191585 v 0 l -0.28931,-0.383869 v -4.82e-4 z m 1.128333,-1.610183 c 0,0.629632 -0.42168,1.216903 -1.155289,1.627512 l -0.235399,-0.419009 c 0.64311,-0.360105 0.909307,-0.812592 0.909307,-1.207797 z"
         fill="#ec9c00"
         id="path59008"
         style="stroke-width:0.48137" />
      <path
         fill-rule="evenodd"
         clip-rule="evenodd"
         d="m -39.846049,62.588223 v 5.609889 c 0,0.508327 0.331712,1.020031 1.01521,1.411374 v 0.0055 l 6.562522,3.788874 0.01401,-5.609413 -6.559297,-3.788864 v 0 c -0.688312,-0.384777 -1.032444,-0.904177 -1.032444,-1.417318 z"
         fill="#ffc450"
         id="path59010"
         style="stroke-width:0.48137" />
      <path
         d="m -39.605363,62.588223 c 0,-0.132867 -0.107724,-0.240684 -0.240686,-0.240684 -0.132904,0 -0.240686,0.107833 -0.240686,0.240684 z m 0.774524,7.021263 0.240685,4.91e-4 c 4.81e-4,-0.0866 -0.04621,-0.166653 -0.121296,-0.209407 z m 0,0.0055 -0.240684,-9.64e-4 c -2.9e-4,0.08624 0.04563,0.166106 0.12035,0.209407 z m 6.562522,3.788874 -0.120351,0.208425 c 0.07461,0.04294 0.166071,0.04294 0.240686,0 0.07414,-0.04294 0.120332,-0.122261 0.120332,-0.207952 z m 0.01401,-5.609413 0.240684,4.82e-4 c 0,-0.08616 -0.04572,-0.16607 -0.120351,-0.208914 z m -6.559297,-3.788864 0.120478,-0.208435 c -0.07443,-0.04284 -0.166016,-0.04332 -0.240444,-4.8e-4 -0.07441,0.04285 -0.120441,0.122261 -0.120732,0.207952 z m 0,0 -0.117603,0.209876 c 0.07443,0.04188 0.165307,0.04092 0.239049,-0.002 0.07365,-0.04332 0.118894,-0.121787 0.119386,-0.206989 z m -0.791709,4.191771 v -5.609089 h -0.481372 v 5.609889 z m 0.893904,1.202457 c -0.637912,-0.365362 -0.893904,-0.809659 -0.893904,-1.202457 h -0.481372 c 0,0.623848 0.407433,1.202948 1.136372,1.62029 z m 0.121296,0.215666 v -0.0055 l -0.481369,-0.0015 v 0.0055 z m 6.442179,3.57994 -6.562522,-3.788856 -0.240685,0.416868 6.562522,3.788856 z m -0.347068,-5.40145 -0.01401,5.608929 0.481369,0.0014 0.01401,-5.609404 z m -6.439001,-3.579952 6.559344,3.788866 0.240684,-0.416866 -6.559151,-3.788867 z m 0.36122,-0.20747 v 0 l -0.481516,-0.002 v 0 z m -1.513951,-1.41828 c 0,0.630115 0.42173,1.217387 1.155482,1.627995 l 0.235197,-0.419754 c -0.642725,-0.360066 -0.909307,-0.812553 -0.909307,-1.208241 z"
         fill="#ec9c00"
         id="path59012"
         style="stroke-width:0.48137" />
      <path
         d="m -32.334265,67.753808 v 5.609402 c 0.752862,0.385102 1.586595,0.585831 2.432845,0.585831 0.845768,0 1.6795,-0.200729 2.432845,-0.585831 v -5.609402 c -0.753825,0.38269 -1.587559,0.582459 -2.432845,0.582459 -0.845768,0 -1.67902,-0.199769 -2.432845,-0.582459 z"
         fill="#ffc450"
         stroke="#ec9c00"
         stroke-linejoin="round"
         id="path59014"
         style="stroke-width:0.48137" />
      <path
         fill-rule="evenodd"
         clip-rule="evenodd"
         d="m -19.873514,56.915756 v 5.609408 c 0,0.50881 -0.331664,1.020506 -1.01521,1.41186 v 0.0062 l -0.461635,0.26668 -0.939633,0.555981 -0.002,-0.01255 -5.159326,2.97872 -0.01346,-5.609409 6.55867,-3.788865 h 4.8e-4 c 0.68836,-0.385577 1.032059,-0.905457 1.032059,-1.418117 z"
         fill="#ffb422"
         id="path59016"
         style="stroke-width:0.48137" />
      <path
         d="m -20.1142,56.915756 c 0,-0.132868 0.107833,-0.240684 0.240686,-0.240684 0.13334,0 0.240686,0.107833 0.240686,0.240684 z m -0.774524,7.021268 -0.240685,4.8e-4 c 0,-0.08664 0.04621,-0.166543 0.121314,-0.209395 z m 0,0.0062 0.240684,-9.63e-4 c 4.82e-4,0.08617 -0.04572,0.166071 -0.12035,0.209397 z m -0.461635,0.26668 -0.122751,-0.207471 0.0024,-9.63e-4 z m -0.939633,0.555981 0.122751,0.20699 c -0.06932,0.04139 -0.154517,0.04477 -0.227206,0.01019 -0.07221,-0.03513 -0.122752,-0.103484 -0.133813,-0.183401 z m -0.002,-0.01255 -0.12035,-0.208432 c 0.06932,-0.03995 0.154045,-0.04285 0.225764,-0.0082 0.07221,0.03513 0.121787,0.103484 0.132849,0.182919 z m -5.159326,2.97872 0.12035,0.208432 c -0.07414,0.04285 -0.166071,0.04285 -0.240204,0 -0.07461,-0.04285 -0.12035,-0.121787 -0.120823,-0.207952 z m -0.01346,-5.609409 -0.240686,4.82e-4 c -4.8e-4,-0.08616 0.04525,-0.165597 0.119859,-0.208914 z m 6.55867,-3.788865 0.12468,0.206027 -0.0044,0.0024 z m 4.8e-4,0 -0.125153,-0.206027 c 0.0024,-0.0014 0.0047,-0.0029 0.0073,-0.0038 z m 0.791373,4.191291 v -5.609408 h 0.481372 v 5.609408 z M -21.008164,63.728 c 0.638296,-0.36536 0.893904,-0.809664 0.893904,-1.202945 h 0.481372 c 0,0.624338 -0.407241,1.203425 -1.136035,1.620774 z m -0.121314,0.215653 v -0.0062 l 0.481369,-0.0014 v 0.0062 z m -0.341293,0.05777 0.461635,-0.266679 0.240684,0.416866 -0.461633,0.266679 z m -0.94204,0.557428 0.939633,-0.556466 0.2455,0.41446 -0.939635,0.555983 z m 0.359102,0.160776 0.002,0.01255 -0.476556,0.06739 -0.002,-0.01255 z m -5.517949,2.803982 5.159327,-2.978718 0.240686,0.416866 -5.159327,2.978718 z m 0.347549,-5.401455 0.01346,5.609407 -0.481372,9.62e-4 -0.01346,-5.609407 z m 6.438328,-3.579952 -6.558669,3.788866 -0.241168,-0.416866 6.559153,-3.788867 z m 0.0047,-0.0029 -4.8e-4,4.82e-4 -0.249832,-0.411572 4.82e-4,-4.82e-4 z m 1.14807,-1.623663 c 0,0.630114 -0.421681,1.216905 -1.155289,1.627994 l -0.235391,-0.419753 c 0.643112,-0.360066 0.909308,-0.812554 0.909308,-1.208241 z"
         fill="#ec9c00"
         id="path59018"
         style="stroke-width:0.48137" />
      <path
         fill-rule="evenodd"
         clip-rule="evenodd"
         d="m -39.846049,56.957155 v 5.609889 c 0,0.508327 0.331712,1.020024 1.01521,1.411377 v 0.0062 l 6.562522,3.788865 0.01401,-5.609409 -6.559297,-3.788865 v 0 c -0.688312,-0.385504 -1.032444,-0.904904 -1.032444,-1.418043 z"
         fill="#ffc450"
         id="path59020"
         style="stroke-width:0.48137" />
      <path
         d="m -39.605363,56.957155 c 0,-0.132867 -0.107724,-0.240686 -0.240686,-0.240686 -0.132904,0 -0.240686,0.107833 -0.240686,0.240686 z m 0.774524,7.021266 0.240685,4.82e-4 c 4.81e-4,-0.08664 -0.04621,-0.166561 -0.121296,-0.209396 z m 0,0.0062 -0.240684,-9.64e-4 c -2.9e-4,0.08616 0.04563,0.16607 0.12035,0.209396 z m 6.562522,3.788865 -0.120351,0.208434 c 0.07461,0.04285 0.166071,0.04285 0.240686,0 0.07414,-0.04285 0.120332,-0.122279 0.120332,-0.207952 z m 0.01401,-5.609409 0.240684,4.82e-4 c 0,-0.08616 -0.04572,-0.16607 -0.120351,-0.208914 z m -6.559297,-3.788865 0.120478,-0.208434 c -0.07447,-0.04332 -0.166071,-0.04332 -0.240493,-4.8e-4 -0.07441,0.04285 -0.120441,0.12226 -0.120678,0.207952 z m 0,0 -0.117603,0.209877 c 0.07443,0.04188 0.165343,0.04092 0.239049,-0.002 0.07365,-0.04332 0.118894,-0.121788 0.119386,-0.20747 z m -0.791709,4.191773 v -5.609889 h -0.481372 v 5.609889 z m 0.893904,1.202463 c -0.637912,-0.36536 -0.893904,-0.809664 -0.893904,-1.202463 h -0.481372 c 0,0.623856 0.407433,1.202943 1.136372,1.620292 z m 0.121296,0.215653 v -0.0062 l -0.481369,-0.0014 v 0.0062 z m 6.442179,3.579951 -6.562522,-3.788865 -0.240685,0.416866 6.562522,3.788867 z m -0.347068,-5.401455 -0.01401,5.608926 0.481369,0.0014 0.01401,-5.609409 z m -6.439001,-3.579951 6.559344,3.788865 0.240684,-0.416866 -6.559151,-3.788867 z m 0.36122,-0.207952 v 0 l -0.481516,-0.0014 v 0 z m -1.513911,-1.418598 c 0,0.630113 0.42173,1.217385 1.155482,1.627993 l 0.235197,-0.419754 c -0.642765,-0.359993 -0.909347,-0.812481 -0.909347,-1.208166 z"
         fill="#ec9c00"
         id="path59022"
         style="stroke-width:0.48137" />
      <path
         d="m -32.334265,62.122738 v 5.608927 c 0.752862,0.385097 1.586595,0.58631 2.432845,0.58631 0.845768,0 1.6795,-0.201213 2.432845,-0.58631 v -5.608927 c -0.753825,0.38269 -1.587559,0.582459 -2.432845,0.582459 -0.845768,0 -1.67902,-0.199769 -2.432845,-0.582459 z"
         fill="#ffc450"
         stroke="#ec9c00"
         stroke-linejoin="round"
         id="path59024"
         style="stroke-width:0.48137" />
      <path
         fill-rule="evenodd"
         clip-rule="evenodd"
         d="m -19.873514,51.304231 v 5.6096 c 0,0.508327 -0.331664,1.020505 -1.01521,1.411377 v 0.0062 l -6.562522,3.788865 -0.01346,-5.609407 6.559151,-3.788962 v 1.91e-4 -9.6e-5 c 0.688359,-0.385384 1.032058,-0.905072 1.032058,-1.417827 z"
         fill="#ffb422"
         id="path59026"
         style="stroke-width:0.48137" />
      <path
         d="m -20.1142,51.304231 c 0,-0.132958 0.107833,-0.240686 0.240686,-0.240686 0.13334,0 0.240686,0.107724 0.240686,0.240686 z m -0.774524,7.020977 -0.240685,9.64e-4 c 0,-0.08666 0.04621,-0.167035 0.121314,-0.209879 z m 0,0.0062 0.240684,-9.63e-4 c 4.82e-4,0.08617 -0.04572,0.166071 -0.12035,0.209397 z m -6.562522,3.788865 0.120351,0.208434 c -0.07414,0.04284 -0.166071,0.04284 -0.240204,0 -0.07461,-0.04285 -0.12035,-0.122261 -0.120823,-0.207952 z m -0.01346,-5.609407 -0.240686,4.8e-4 c -4.8e-4,-0.08617 0.04525,-0.166071 0.119859,-0.208915 z m 6.559151,-3.788962 -0.120823,-0.208387 c 0.07461,-0.04294 0.16607,-0.04303 0.240684,-2.4e-4 0.07414,0.04279 0.12035,0.122024 0.120823,0.207856 z m 0,1.91e-4 0.121314,0.207905 c -0.07461,0.04337 -0.166561,0.04375 -0.241166,10e-4 -0.07461,-0.04274 -0.120823,-0.122079 -0.120823,-0.208145 z m 0,-9.6e-5 -0.121296,-0.207903 0.0035,-0.002 z m 0.791373,4.191773 v -5.6096 h 0.481371 v 5.6096 z m -0.893904,1.202463 c 0.638296,-0.364879 0.893904,-0.809665 0.893904,-1.202463 h 0.481371 c 0,0.623856 -0.40724,1.203425 -1.136034,1.620293 z m -0.121315,0.215655 v -0.0058 l 0.48137,-0.002 v 0.0062 z m -6.442179,3.57995 6.562522,-3.788866 0.240684,0.416868 -6.56252,3.788865 z m 0.347549,-5.401457 0.01346,5.609409 -0.481371,9.63e-4 -0.01346,-5.609409 z m 6.43881,-3.580046 -6.559151,3.788961 -0.241168,-0.416867 6.559153,-3.788914 z m -0.361027,-0.20747 v -1.46e-4 l 0.48137,-0.0016 v 1.93e-4 z m 0.361989,0.207037 V 52.93 l -0.24261,-0.41576 v -9.7e-5 z m 1.151439,-1.625732 c 0,0.629969 -0.42168,1.216952 -1.155289,1.627849 L -21.0235,52.512026 c 0.643112,-0.359968 0.909309,-0.812312 0.909309,-1.207854 z"
         fill="#ec9c00"
         id="path59028"
         style="stroke-width:0.48137" />
      <path
         fill-rule="evenodd"
         clip-rule="evenodd"
         d="m -39.846049,51.345339 v 5.609409 c 0,0.508327 0.331712,1.020504 1.01521,1.411377 v 0.0067 l 6.562522,3.788866 0.01401,-5.609408 -6.559297,-3.788865 v -2.42e-4 c -0.688312,-0.385426 -1.032444,-0.905113 -1.032444,-1.417869 z"
         fill="#ffc450"
         id="path59030"
         style="stroke-width:0.48137" />
      <path
         d="m -39.605363,51.345339 c 0,-0.132903 -0.107724,-0.240686 -0.240686,-0.240686 -0.132904,0 -0.240686,0.107779 -0.240686,0.240686 z m 0.774524,7.020786 0.240685,9.63e-4 c 4.81e-4,-0.08664 -0.04621,-0.166562 -0.121296,-0.209877 z m 0,0.0067 -0.240684,-9.63e-4 c -2.9e-4,0.08664 0.04563,0.166071 0.12035,0.209397 z m 6.562522,3.788866 -0.120351,0.208433 c 0.07461,0.04284 0.166071,0.04284 0.240686,0 0.07414,-0.04285 0.120332,-0.121788 0.120332,-0.207952 z m 0.01401,-5.609408 0.240684,4.82e-4 c 0,-0.08617 -0.04572,-0.165598 -0.120351,-0.208917 z m -6.559297,-3.788865 h -0.240685 c 0,0.08596 0.04588,0.165452 0.120295,0.208432 z m 0,-2.42e-4 h 0.24083 c 0,-0.08713 -0.04718,-0.167417 -0.123225,-0.210021 z m -0.791709,4.191533 V 51.3453 h -0.481372 v 5.609409 z m 0.893904,1.202462 c -0.637912,-0.364878 -0.893904,-0.809664 -0.893904,-1.202462 h -0.481372 c 0,0.624336 0.407433,1.203425 1.136372,1.620291 z m 0.121296,0.216136 v -0.0062 l -0.481369,-0.0014 v 0.0062 z m 6.442179,3.57995 -6.562522,-3.788865 -0.240685,0.416867 6.562522,3.788865 z m -0.347068,-5.401457 -0.01401,5.609409 0.481369,9.63e-4 0.01401,-5.609407 z m -6.439001,-3.57995 6.559344,3.788867 0.240684,-0.416869 -6.559151,-3.788817 z M -39.0543,52.763208 v 2.42e-4 h 0.481516 v -2.42e-4 z m -1.032395,-1.417876 c 0,0.629969 0.42173,1.216952 1.155482,1.627851 l 0.235197,-0.419996 c -0.642765,-0.359913 -0.909347,-0.812306 -0.909347,-1.207848 z"
         fill="#ec9c00"
         id="path59032"
         style="stroke-width:0.48137" />
      <path
         d="m -38.831562,49.906957 c -1.348991,0.77775 -1.355876,2.037448 0,2.818616 l 6.514626,3.785351 c 0.754307,0.383653 1.588522,0.583421 2.43477,0.583421 0.845768,0 1.679983,-0.199768 2.43429,-0.583421 l 6.559152,-3.785351 c 1.345912,-0.77775 1.35602,-2.0374 0,-2.818616 l -6.517755,-3.785448 c -0.753825,-0.383459 -1.587077,-0.583373 -2.432845,-0.583373 -0.845768,0 -1.6795,0.199914 -2.433327,0.583373 z"
         fill="#ffc450"
         stroke="#ec9c00"
         stroke-linejoin="round"
         id="path59034"
         style="stroke-width:0.48137" />
      <path
         d="m -32.334265,56.510924 v 5.609407 c 0.752862,0.385097 1.586595,0.585828 2.432845,0.585828 0.845768,0 1.6795,-0.200731 2.432845,-0.585828 v -5.609407 c -0.753825,0.38317 -1.587559,0.582459 -2.432845,0.582459 -0.845768,0 -1.67902,-0.199289 -2.432845,-0.582459 z"
         fill="#ffc450"
         stroke="#ec9c00"
         stroke-linejoin="round"
         id="path59036"
         style="stroke-width:0.48137" />
      <path
         d="m -31.789835,47.738624 c 1.006064,-0.580724 2.636946,-0.580724 3.643009,0 l 5.62048,3.24458 c 0.335033,0.193559 0.335033,0.507412 0,0.70102 l -5.62048,3.244435 c -1.006063,0.581014 -2.636945,0.581014 -3.643009,0 l -5.619999,-3.244435 c -0.335514,-0.193608 -0.335514,-0.507461 0,-0.70102 z"
         fill="#ffc450"
         stroke="#ec9c00"
         stroke-linejoin="round"
         id="path59038"
         style="stroke-width:0.48137" />
      <path
         fill-rule="evenodd"
         clip-rule="evenodd"
         d="m -28.940606,47.280215 c -0.567534,-0.327573 -1.487433,-0.327573 -2.054969,0 l -6.507645,3.756902 c -0.284008,0.16376 -0.284008,0.429335 0,0.593098 l 0.901607,0.520601 6.119659,-3.532921 c 0.28401,-0.163814 0.743719,-0.163814 1.027727,0 l 6.119661,3.532921 0.901605,-0.520601 c 0.283528,-0.16376 0.283528,-0.429334 0,-0.593098 z"
         fill="#ffb422"
         id="path59040"
         style="stroke-width:0.48137" />
      <path
         d="m -30.995575,47.280215 0.12035,0.208434 v 0 z m 2.054969,0 -0.12035,0.208434 v 0 z m -8.562614,3.756902 0.12035,0.208434 z m 0,0.593098 0.12035,-0.208434 z m 0.901607,0.520601 0.120332,0.208434 c -0.07461,0.04299 -0.16607,0.04299 -0.240683,0 z m 6.119659,-3.532921 0.120351,0.208435 z m 1.027727,0 -0.12035,0.208435 z m 6.119661,3.532921 0.12035,0.208434 c -0.07461,0.04299 -0.166562,0.04299 -0.240686,0 z m 0.901605,-0.520601 0.12035,0.208482 v 0 z m 0,-0.593098 0.12035,-0.208432 v 0 z m -8.682957,-3.965384 c 0.328777,-0.189851 0.744681,-0.277895 1.147588,-0.277895 0.402906,0 0.81881,0.08804 1.148067,0.277895 l -0.240685,0.416916 c -0.23876,-0.137725 -0.566572,-0.213439 -0.907382,-0.213439 -0.340811,0 -0.668623,0.07572 -0.906902,0.213439 z m -6.507645,3.756952 6.507645,-3.756952 0.240686,0.416916 -6.507645,3.756902 z m 0,1.010012 c -0.185808,-0.107197 -0.333109,-0.281361 -0.333109,-0.505007 0,-0.223644 0.147295,-0.397803 0.333109,-0.505005 l 0.240686,0.416866 c -0.04765,0.02735 -0.07172,0.05256 -0.08327,0.06865 -0.0053,0.0078 -0.0076,0.01328 -0.0087,0.01583 0,0.0014 -4.8e-4,0.0024 -4.8e-4,0.0027 0,4.82e-4 0,7.22e-4 0,8.66e-4 0,9.6e-5 0,3.37e-4 0,8.19e-4 0,4.82e-4 4.8e-4,0.0013 4.8e-4,0.0027 9.65e-4,0.0027 0.0035,0.008 0.0087,0.01583 0.01146,0.01601 0.03562,0.04135 0.08327,0.06864 z m 0.901608,0.520553 -0.901608,-0.520553 0.240686,-0.416916 0.901606,0.520553 z m 0,-0.416916 6.11966,-3.532873 0.240684,0.416869 -6.11966,3.53292 z m 6.11966,-3.532873 c 0.187254,-0.108015 0.417347,-0.155099 0.633965,-0.155099 0.217097,0 0.447193,0.04708 0.633964,0.155099 l -0.240204,0.416869 c -0.09675,-0.0558 -0.238759,-0.0906 -0.39376,-0.0906 -0.154518,0 -0.296524,0.0348 -0.393281,0.0906 z m 1.267929,0 6.120143,3.532873 -0.240686,0.416916 -6.119661,-3.53292 z m 7.021748,3.429236 -0.901605,0.520553 -0.240686,-0.416916 0.901605,-0.520553 z m 0,-1.010012 c 0.185809,0.107196 0.333109,0.281361 0.333109,0.505005 0,0.223646 -0.147295,0.397805 -0.333109,0.505007 l -0.240686,-0.416916 c 0.04718,-0.02729 0.07172,-0.05256 0.0828,-0.06864 0.0058,-0.0078 0.0076,-0.0131 0.0087,-0.01583 9.62e-4,-0.0025 9.62e-4,-0.0036 9.62e-4,-0.0036 0,0 0,-10e-4 -9.62e-4,-0.0036 -9.62e-4,-0.0027 -0.0029,-0.008 -0.0087,-0.01583 -0.0111,-0.01601 -0.03562,-0.0413 -0.0828,-0.06864 z m -6.507645,-3.756952 6.507645,3.756952 -0.240686,0.416866 -6.507644,-3.756902 z"
         fill="#ec9c00"
         id="path59042"
         style="stroke-width:0.48137" />
      <path
         fill-rule="evenodd"
         clip-rule="evenodd"
         d="m -7.3333373,69.772682 v 5.609409 c 0,0.5088 -0.3316643,1.020492 -1.0152095,1.411853 v 0.0055 l -0.9367463,0.540585 -0.059202,0.03475 4.821e-4,-4.91e-4 -5.567049,3.214104 -0.01401,-5.609409 6.5591509,-3.788855 v 0 h 4.821e-4 c 0.6878771,-0.385576 1.0320567,-0.905456 1.0320567,-1.418113 z"
         fill="#bcf194"
         id="path59046"
         style="stroke-width:0.48137" />
      <path
         d="m -7.5740212,69.772682 c 0,-0.132813 0.107833,-0.240701 0.2406839,-0.240701 0.1328673,0 0.2406858,0.107888 0.2406858,0.240701 z m -0.7745256,7.021262 -0.2406857,4.73e-4 c -4.803e-4,-0.0866 0.046212,-0.16647 0.1213144,-0.209389 z m 0,0.0055 0.2406858,-9.64e-4 c 4.803e-4,0.08624 -0.045739,0.166107 -0.1203502,0.209389 z m -0.9367463,0.540585 -0.1212962,-0.207952 9.624e-4,-4.92e-4 z m -0.059202,0.03475 0.1217874,0.207952 c -0.078942,0.04567 -0.1766591,0.0433 -0.2527207,-0.0055 -0.07654,-0.04967 -0.1179304,-0.138089 -0.107833,-0.228656 z m 4.821e-4,-4.91e-4 -0.1203501,-0.208425 c 0.078469,-0.0453 0.1756948,-0.04275 0.2517565,0.0073 0.076049,0.05003 0.1174574,0.138089 0.1073418,0.228165 z m -5.567049,3.214104 0.120351,0.208443 c -0.07461,0.04294 -0.166071,0.04294 -0.240684,0 -0.07414,-0.04294 -0.12035,-0.12226 -0.12035,-0.207952 z m -0.01401,-5.609409 -0.240685,4.91e-4 c 0,-0.08624 0.04572,-0.166106 0.12035,-0.208916 z m 6.5591509,-3.788855 -0.1203501,-0.208444 c 0.074612,-0.04275 0.1660704,-0.0433 0.2406857,-4.73e-4 0.074139,0.04294 0.1203502,0.122261 0.1203502,0.207952 z m 0,0 0.1448932,0.192542 c -0.072683,0.0544 -0.1704005,0.0635 -0.2517583,0.02311 -0.081834,-0.04094 -0.1333403,-0.123716 -0.1338134,-0.215174 z m 4.821e-4,0 -0.1448932,-0.192543 c 0.00873,-0.0055 0.01783,-0.01273 0.026963,-0.01819 z m 0.7913728,4.191296 v -5.609409 h 0.4813697 v 5.609409 z m -0.893906,1.202938 c 0.6378158,-0.365363 0.893906,-0.809667 0.893906,-1.202938 h 0.4813697 c 0,0.624329 -0.4072402,1.203411 -1.1365148,1.62077 z m -0.1213144,0.215647 v -0.0055 l 0.4813715,-0.0014 v 0.0055 z m -0.8164034,0.331668 0.9367463,-0.540584 0.2406857,0.416868 -0.9367463,0.540584 z m -0.060166,0.03511 0.059202,-0.03475 0.243091,0.415904 -0.059202,0.03475 z m 0.3605465,0.233932 v 4.91e-4 l -0.4780002,-0.05349 v -4.91e-4 z m -5.9261485,2.979208 5.5670466,-3.214104 0.2406839,0.416868 -5.5670465,3.214104 z m 0.347067,-5.401457 0.01401,5.608917 -0.48137,0.0015 -0.01401,-5.609409 z m 6.4388092,-3.579958 -6.5591522,3.788874 -0.240684,-0.416868 6.5591504,-3.788874 z M -8.6066105,71.19056 v 0 l 0.4813715,-0.0014 v 0 z m 0.385579,0.191596 v 4.73e-4 l -0.2893043,-0.385084 v 0 z m 1.1283314,-1.610181 c 0,0.630114 -0.4216804,1.216892 -1.1552887,1.627993 l -0.2353897,-0.420234 c 0.6431101,-0.359595 0.9093087,-0.812086 0.9093087,-1.207759 z"
         fill="#4d8622"
         id="path59048"
         style="stroke-width:0.48137" />
      <path
         fill-rule="evenodd"
         clip-rule="evenodd"
         d="m -27.305872,69.814072 v 5.609882 c 0,0.508327 0.331664,1.020038 1.015209,1.411381 v 0.0055 l 6.562522,3.788874 0.01346,-5.609409 -6.559151,-3.788874 v 0 c -0.687879,-0.385576 -1.032059,-0.904964 -1.032059,-1.418113 z"
         fill="#e7fcd7"
         id="path59050"
         style="stroke-width:0.48137" />
      <path
         d="m -27.065186,69.814072 c 0,-0.132813 -0.107833,-0.240682 -0.240686,-0.240682 -0.132867,0 -0.240684,0.107887 -0.240684,0.240682 z m 0.774523,7.021263 0.240686,4.91e-4 c 0,-0.0866 -0.04621,-0.166653 -0.121296,-0.209408 z m 0,0.0055 -0.240684,-9.65e-4 c -4.82e-4,0.08624 0.04572,0.166107 0.120351,0.209408 z m 6.562522,3.788874 -0.12035,0.208425 c 0.07414,0.04294 0.166071,0.04294 0.240204,0 0.07461,-0.04294 0.12035,-0.122261 0.120823,-0.207952 z m 0.01346,-5.609409 0.240685,4.73e-4 c 4.83e-4,-0.08624 -0.04525,-0.166107 -0.119859,-0.208916 z m -6.559151,-3.788874 0.120823,-0.208425 c -0.07461,-0.04294 -0.16607,-0.0433 -0.240684,-4.91e-4 -0.07414,0.04294 -0.12035,0.12226 -0.120823,0.207952 z m 0,0 -0.117458,0.20988 c 0.07461,0.04184 0.165598,0.04094 0.23924,-0.0018 0.07365,-0.0433 0.118895,-0.121715 0.118895,-0.206988 z m -0.791373,4.191769 v -5.609882 h -0.48137 v 5.609882 z m 0.893904,1.202465 c -0.637815,-0.365344 -0.893904,-0.809667 -0.893904,-1.202465 h -0.48137 c 0,0.623856 0.407239,1.202956 1.136033,1.620297 z M -26.05,76.841284 v -0.0055 l -0.48137,-0.0015 v 0.0055 z m 6.442179,3.579939 -6.562522,-3.788855 -0.240684,0.416868 6.56252,3.788856 z m -0.347549,-5.401456 -0.01346,5.608935 0.481372,0.0014 0.01346,-5.609409 z m -6.43881,-3.57994 6.559152,3.788856 0.241167,-0.416868 -6.559153,-3.788856 z m 0.361029,-0.207479 v -4.73e-4 l -0.481372,-0.0015 v 0 z m -1.513429,-1.419077 c 0,0.630115 0.421681,1.217384 1.155289,1.627993 l 0.23539,-0.419761 c -0.64263,-0.360049 -0.909309,-0.812541 -0.909309,-1.208232 z"
         fill="#4d8622"
         id="path59052"
         style="stroke-width:0.48137" />
      <path
         d="m -19.794569,74.97965 v 5.609409 c 0.753343,0.385102 1.587078,0.585831 2.433326,0.585831 0.845767,0 1.679502,-0.200729 2.432845,-0.585831 V 74.97965 c -0.753825,0.382701 -1.587558,0.582465 -2.432845,0.582465 -0.845768,0 -1.679501,-0.199764 -2.433326,-0.582465 z"
         fill="#e7fcd7"
         stroke="#4d8622"
         stroke-linejoin="round"
         id="path59054"
         style="stroke-width:0.48137" />
      <path
         fill-rule="evenodd"
         clip-rule="evenodd"
         d="m -7.3333373,64.141606 v 5.609407 c 0,0.5088 -0.3316643,1.020511 -1.0152095,1.411381 v 0.0073 l -0.4616333,0.266208 -0.9396355,0.556467 -0.002,-0.01273 -5.1593284,2.978716 -0.01401,-5.609409 6.5586687,-3.788868 h 9.643e-4 c 0.687877,-0.385577 1.0320567,-0.905457 1.0320567,-1.418116 z"
         fill="#bcf194"
         id="path59056"
         style="stroke-width:0.48137" />
      <path
         d="m -7.5740212,64.141606 c 0,-0.132867 0.107833,-0.240686 0.2406839,-0.240686 0.1328673,0 0.2406858,0.107833 0.2406858,0.240686 z m -0.7745256,7.020788 -0.2406857,9.64e-4 c -4.803e-4,-0.0866 0.046212,-0.166471 0.1213144,-0.20988 z m 0,0.0073 0.2406858,-9.64e-4 c 4.803e-4,0.08624 -0.045739,0.166107 -0.1203502,0.209408 z m -0.4616333,0.266208 -0.1227517,-0.206988 0.00237,-0.0015 z m -0.9396355,0.556467 0.1222605,0.206988 c -0.068826,0.04094 -0.1540446,0.04476 -0.2267259,0.01092 -0.07221,-0.03511 -0.1227517,-0.104067 -0.1338133,-0.183391 z m -0.002,-0.01273 -0.1203501,-0.208444 c 0.069317,-0.04039 0.1540446,-0.0433 0.2257616,-0.0091 0.071719,0.03511 0.1217874,0.103521 0.1328673,0.182444 z m -5.1593284,2.978716 0.12035,0.208425 c -0.07461,0.04294 -0.166071,0.04294 -0.240684,0 -0.07414,-0.04294 -0.12035,-0.12226 -0.12035,-0.207952 z m -0.01401,-5.609409 -0.240686,4.73e-4 c 0,-0.08624 0.04572,-0.166107 0.12035,-0.208916 z m 6.5586687,-3.788868 0.1251532,0.206027 -0.00437,0.0024 z m 9.643e-4,0 -0.1251533,-0.206026 c 0.00237,-0.0014 0.00473,-0.0029 0.00728,-0.0044 z m 0.7913727,4.191291 v -5.609407 h 0.4813697 v 5.609407 z m -0.893906,1.202464 c 0.6378158,-0.364871 0.893906,-0.809666 0.893906,-1.202464 h 0.4813697 c 0,0.624329 -0.4072402,1.203428 -1.1365148,1.620297 z m -0.1213144,0.216139 v -0.0055 l 0.4813715,-0.0015 v 0.0055 z m -0.3412905,0.05731 0.4616334,-0.26619 0.2406857,0.416869 -0.4616351,0.266189 z m -0.9420424,0.557904 0.9396354,-0.556449 0.245498,0.414449 -0.9401158,0.555994 z m 0.3591019,0.160285 0.002,0.01274 -0.4765575,0.06732 -0.002,-0.01274 z m -5.5179463,2.804459 5.1593265,-2.978716 0.240684,0.416868 -5.1593265,2.978716 z m 0.347067,-5.401457 0.01401,5.608936 -0.48137,0.0014 -0.01401,-5.609409 z m 6.4388096,-3.579943 -6.5591526,3.788859 -0.240684,-0.416868 6.5586705,-3.788857 z m 0.00473,-0.0029 -4.821e-4,4.82e-4 -0.2498316,-0.411572 4.821e-4,-4.8e-4 z m 1.1480677,-1.623661 c 0,0.630113 -0.4216804,1.216903 -1.1552887,1.627995 l -0.2351695,-0.420562 c 0.6431101,-0.359582 0.9093087,-0.812071 0.9093087,-1.207757 z"
         fill="#4d8622"
         id="path59058"
         style="stroke-width:0.48137" />
      <path
         fill-rule="evenodd"
         clip-rule="evenodd"
         d="m -27.305872,64.183004 v 5.609399 c 0,0.508819 0.331664,1.020512 1.015209,1.411381 v 0.0055 l 6.562522,3.788874 0.01346,-5.609409 -6.559151,-3.788868 v 4.8e-4 c -0.687879,-0.385577 -1.032059,-0.905457 -1.032059,-1.418116 z"
         fill="#e7fcd7"
         id="path59060"
         style="stroke-width:0.48137" />
      <path
         d="m -27.065186,64.183004 c 0,-0.132868 -0.107833,-0.240686 -0.240686,-0.240686 -0.132867,0 -0.240684,0.107833 -0.240684,0.240686 z m 0.774523,7.02078 0.240686,9.64e-4 c 0,-0.0866 -0.04621,-0.16647 -0.121296,-0.20988 z m 0,0.0055 -0.240684,-4.73e-4 c -4.82e-4,0.08624 0.04572,0.166107 0.120351,0.208916 z m 6.562522,3.788874 -0.12035,0.208425 c 0.07414,0.0433 0.166071,0.0433 0.240204,4.91e-4 0.07461,-0.04294 0.12035,-0.12226 0.120823,-0.207952 z m 0.01346,-5.609409 0.240685,9.65e-4 c 4.83e-4,-0.08624 -0.04525,-0.166107 -0.119859,-0.208917 z m -6.559151,-3.788868 0.120823,-0.208434 c -0.07461,-0.04285 -0.16607,-0.04285 -0.240684,0 -0.07414,0.04285 -0.12035,0.12226 -0.120823,0.207952 z m 0,4.8e-4 -0.117458,0.209879 c 0.07461,0.04139 0.165598,0.04092 0.23924,-0.0024 0.07365,-0.04285 0.118895,-0.121788 0.118895,-0.20699 z m -0.791373,4.191284 v -5.6094 h -0.48137 v 5.6094 z m 0.893904,1.202465 c -0.637815,-0.364872 -0.893904,-0.809667 -0.893904,-1.202465 h -0.48137 c 0,0.624347 0.407239,1.203429 1.136033,1.620297 z M -26.05,71.210207 v -0.0055 l -0.48137,-0.0014 v 0.0055 z m 6.442179,3.579466 -6.562522,-3.788856 -0.240684,0.416868 6.56252,3.788856 z m -0.347549,-5.401457 -0.01346,5.609409 0.481372,0.0015 0.01346,-5.609408 z m -6.43881,-3.579945 6.559152,3.788861 0.241167,-0.416377 -6.559153,-3.78935 z m 0.361029,-0.20747 v 0 l -0.481372,-0.0014 v 0 z m -1.513429,-1.418598 c 0,0.630115 0.421681,1.216905 1.155289,1.627995 l 0.23539,-0.420236 c -0.64263,-0.359584 -0.909309,-0.812073 -0.909309,-1.207759 z"
         fill="#4d8622"
         id="path59062"
         style="stroke-width:0.48137" />
      <path
         d="m -19.794569,69.348099 v 5.609409 c 0.753343,0.385103 1.587078,0.585832 2.433326,0.585832 0.845767,0 1.679502,-0.200729 2.432845,-0.585832 v -5.609409 c -0.753825,0.383174 -1.587558,0.582466 -2.432845,0.582466 -0.845768,0 -1.679501,-0.199292 -2.433326,-0.582466 z"
         fill="#e7fcd7"
         stroke="#4d8622"
         stroke-linejoin="round"
         id="path59064"
         style="stroke-width:0.48137" />
      <path
         fill-rule="evenodd"
         clip-rule="evenodd"
         d="m -7.3333373,64.153639 v 5.6094 c 0,0.508327 -0.3316643,1.020511 -1.0152095,1.411381 v 0.0055 l -6.5625222,3.788874 -0.01401,-5.609409 6.5591509,-3.788868 v 4.82e-4 l 4.822e-4,-4.82e-4 c 0.6878771,-0.385095 1.0320567,-0.904975 1.0320567,-1.417636 z"
         fill="#bcf194"
         id="path59066"
         style="stroke-width:0.48137" />
      <path
         d="m -7.5740212,64.153639 c 0,-0.132867 0.107833,-0.240684 0.2406839,-0.240684 0.1328673,0 0.2406858,0.107834 0.2406858,0.240684 z m -0.7745256,7.020781 -0.2406857,9.64e-4 c -4.803e-4,-0.0866 0.046212,-0.166471 0.1213144,-0.20988 z m 0,0.0055 0.2406858,-4.73e-4 c 4.803e-4,0.08624 -0.045739,0.166107 -0.1203502,0.208916 z m -6.5625222,3.788874 0.12035,0.208425 c -0.07461,0.04294 -0.16607,0.04294 -0.240684,0 -0.07414,-0.04294 -0.12035,-0.121715 -0.12035,-0.207952 z m -0.01401,-5.609409 -0.240686,4.73e-4 c 0,-0.08624 0.04572,-0.165561 0.120351,-0.208916 z m 6.5591509,-3.788868 -0.1203501,-0.208433 c 0.074612,-0.04284 0.1660705,-0.04284 0.2406857,0 0.074139,0.04285 0.1203502,0.121788 0.1203502,0.207952 z m 0,4.82e-4 0.1212963,0.20747 c -0.074139,0.04381 -0.1660705,0.04381 -0.2406858,0.0014 -0.074612,-0.04285 -0.1208232,-0.12226 -0.1212962,-0.208434 z m 4.822e-4,-4.82e-4 -0.1213144,-0.207952 0.00346,-0.002 z m 0.7913727,4.191764 v -5.6094 h 0.4813697 v 5.6094 z m -0.893906,1.202464 c 0.6378158,-0.364871 0.893906,-0.809666 0.893906,-1.202464 h 0.4813697 c 0,0.624347 -0.4072402,1.203428 -1.1365148,1.620297 z m -0.1213144,0.216139 v -0.0055 l 0.4813715,-0.0014 v 0.0055 z m -6.4421774,3.579467 6.5625203,-3.788856 0.2406858,0.416868 -6.5625221,3.788856 z m 0.347067,-5.401457 0.01401,5.609409 -0.48137,9.64e-4 -0.01401,-5.609409 z m 6.4388097,-3.579943 -6.5591527,3.788859 -0.240684,-0.416868 6.559151,-3.788858 z m -0.3610286,-0.207472 v 0 l 0.4813715,-0.0014 v 0 z m 0.3624732,0.20699 h -4.821e-4 l -0.2426107,-0.415422 h 4.822e-4 z m 1.1514371,-1.625588 c 0,0.630114 -0.4216803,1.216905 -1.1552887,1.627995 L -8.4833909,65.36064 c 0.6431101,-0.360065 0.9093086,-0.812072 0.9093086,-1.207759 z"
         fill="#4d8622"
         id="path59068"
         style="stroke-width:0.48137" />
      <path
         fill-rule="evenodd"
         clip-rule="evenodd"
         d="m -27.305872,64.195039 v 5.609409 c 0,0.508327 0.331664,1.020511 1.015209,1.41138 v 0.0073 l 6.562522,3.788874 0.01346,-5.609409 -6.558671,-3.78887 v -4.83e-4 c -0.688344,-0.38564 -1.032524,-0.90552 -1.032524,-1.418179 z"
         fill="#e7fcd7"
         id="path59070"
         style="stroke-width:0.48137" />
      <path
         d="m -27.065186,64.195039 c 0,-0.132868 -0.107833,-0.240686 -0.240686,-0.240686 -0.132867,0 -0.240684,0.107833 -0.240684,0.240686 z m 0.774523,7.020789 0.240686,9.65e-4 c 0,-0.0866 -0.04621,-0.167017 -0.121296,-0.209881 z m 0,0.0073 -0.240684,-9.64e-4 c -4.82e-4,0.08624 0.04572,0.166106 0.120351,0.209407 z m 6.562522,3.788874 -0.12035,0.208425 c 0.07414,0.04294 0.166071,0.04294 0.240204,0 0.07461,-0.04294 0.12035,-0.122261 0.120823,-0.207952 z m 0.01346,-5.609409 0.240685,4.73e-4 c 4.83e-4,-0.08624 -0.04525,-0.165561 -0.119859,-0.208916 z m -6.558671,-3.78887 h -0.240684 c 0,0.08569 0.04572,0.165597 0.119859,0.208434 z m 0,-4.83e-4 h 0.240686 c 0,-0.08713 -0.04718,-0.167034 -0.123225,-0.209876 z m -0.791853,4.191775 v -5.609408 h -0.48137 v 5.609408 z m 0.893904,1.202465 c -0.637815,-0.364889 -0.893904,-0.809666 -0.893904,-1.202465 h -0.48137 c 0,0.624329 0.407239,1.203429 1.136033,1.620297 z M -26.05,71.223597 v -0.0055 l -0.48137,-0.0015 v 0.0055 z m 6.442179,3.57994 -6.562522,-3.788856 -0.240684,0.416868 6.56252,3.788856 z m -0.347549,-5.401457 -0.01346,5.609408 0.481372,9.65e-4 0.01346,-5.609409 z m -6.43881,-3.579945 6.559152,3.788861 0.241167,-0.416868 -6.559153,-3.788862 z m -0.119859,-0.208917 v 4.83e-4 h 0.48137 v -4.83e-4 z m -1.032517,-1.418179 c 0,0.630112 0.42168,1.216903 1.155289,1.627993 l 0.235389,-0.420236 c -0.642629,-0.360065 -0.909308,-0.812072 -0.909308,-1.207757 z"
         fill="#4d8622"
         id="path59072"
         style="stroke-width:0.48137" />
      <path
         d="m -26.291625,62.756704 c -1.348799,0.777413 -1.355538,2.037158 0,2.818423 l 6.514386,3.78549 c 0.754307,0.383665 1.588522,0.58343 2.43477,0.58343 0.846249,0 1.680463,-0.199765 2.434771,-0.58343 l 6.5591512,-3.78549 c 1.3454292,-0.777895 1.3560197,-2.03764 0,-2.818423 L -14.8663,58.971207 c -0.753827,-0.383652 -1.58756,-0.583421 -2.432845,-0.583421 -0.845768,0 -1.679502,0.199769 -2.433327,0.583421 z"
         fill="#e7fcd7"
         stroke="#4d8622"
         stroke-linejoin="round"
         id="path59074"
         style="stroke-width:0.48137" />
      <path
         d="m -19.794569,69.360617 v 5.608935 c 0.753343,0.385085 1.587078,0.586305 2.433326,0.586305 0.845767,0 1.679502,-0.20122 2.432845,-0.586305 v -5.608935 c -0.753825,0.3827 -1.587558,0.581974 -2.432845,0.581974 -0.845768,0 -1.679501,-0.199274 -2.433326,-0.581974 z"
         fill="#e7fcd7"
         stroke="#4d8622"
         stroke-linejoin="round"
         id="path59076"
         style="stroke-width:0.48137" />
      <path
         d="m -19.249658,60.588131 c 1.006063,-0.581014 2.636945,-0.581014 3.643011,0 l 5.6199972,3.244435 c 0.3355141,0.193511 0.3355141,0.507364 0,0.700876 l -5.6199972,3.244917 c -1.006066,0.580531 -2.636948,0.580531 -3.643011,0 l -5.62048,-3.244917 c -0.335034,-0.193512 -0.335034,-0.507365 0,-0.700876 z"
         fill="#e7fcd7"
         stroke="#4d8622"
         stroke-linejoin="round"
         id="path59078"
         style="stroke-width:0.48137" />
      <path
         fill-rule="evenodd"
         clip-rule="evenodd"
         d="m -16.400909,60.129865 c -0.567054,-0.327812 -1.486953,-0.327812 -2.054489,0 l -6.507645,3.756615 c -0.284008,0.164142 -0.284008,0.429382 0,0.593047 l 0.901607,0.520843 6.119661,-3.532777 c 0.283526,-0.164142 0.743717,-0.164142 1.027245,0 l 6.119658,3.532777 0.9020899,-0.520843 c 0.2835261,-0.163669 0.2835261,-0.428899 0,-0.593047 z"
         fill="#bcf194"
         id="path59082"
         style="stroke-width:0.48137" />
      <path
         d="m -18.455398,60.129865 0.12035,0.208434 v 0 z m 2.054489,0 -0.12035,0.208434 v 0 z m -8.562134,3.756615 0.12035,0.208433 z m 0,0.593047 0.12035,-0.208432 z m 0.901607,0.520843 0.12035,0.208434 c -0.07461,0.04284 -0.16607,0.04284 -0.240685,0 z m 6.119661,-3.532777 0.12035,0.208434 z m 1.027245,0 -0.120351,0.208434 z m 6.119658,3.532777 0.120351,0.208434 c -0.07414,0.04284 -0.166071,0.04284 -0.240684,0 z m 0.9020899,-0.520843 0.120332,0.208434 v 0 z m 0,-0.593047 0.120332,-0.208434 v 0 z m -8.6829569,-3.965047 c 0.328775,-0.190142 0.744679,-0.278232 1.147585,-0.278232 0.402907,0 0.818811,0.08809 1.147588,0.278232 l -0.240686,0.416866 c -0.238279,-0.13767 -0.566091,-0.213728 -0.906902,-0.213728 -0.34081,0 -0.668622,0.07605 -0.906901,0.213728 z m -6.507647,3.756613 6.507647,-3.756613 0.240684,0.416866 -6.507645,3.756614 z m 0,1.009915 c -0.185809,-0.106868 -0.333107,-0.28112 -0.333107,-0.504957 0,-0.223357 0.147295,-0.397612 0.333107,-0.504958 l 0.240686,0.416867 c -0.04765,0.02743 -0.07172,0.05294 -0.08327,0.06884 -0.0053,0.0076 -0.0076,0.01292 -0.0087,0.01583 -4.82e-4,0.0014 -4.82e-4,0.0024 -4.82e-4,0.0029 0,4.82e-4 0,4.82e-4 0,4.82e-4 0,4.82e-4 0,4.82e-4 0,9.63e-4 0,4.82e-4 0,0.0014 4.82e-4,0.0029 9.63e-4,0.0024 0.0035,0.0082 0.0087,0.01583 0.01146,0.01583 0.03562,0.04139 0.08327,0.06835 z m 0.901607,0.520843 -0.901607,-0.520843 0.240686,-0.416866 0.901607,0.520842 z m 0,-0.416867 6.119661,-3.532776 0.240686,0.416866 -6.119661,3.532777 z m 6.119661,-3.532776 c 0.187253,-0.108306 0.416867,-0.155482 0.633964,-0.155482 0.217098,0 0.447194,0.04718 0.633965,0.155482 l -0.240684,0.416866 c -0.09628,-0.05584 -0.238279,-0.09099 -0.393281,-0.09099 -0.155008,0 -0.296523,0.03513 -0.393278,0.09099 z m 1.267929,0 6.11966,3.532776 -0.240684,0.416867 -6.11966,-3.532777 z m 7.021748,3.4288 -0.902088,0.520843 -0.240684,-0.416867 0.902088,-0.520842 z m 0,-1.009915 c 0.1853283,0.107342 0.3331088,0.281601 0.3331088,0.504958 0,0.223837 -0.147786,0.398092 -0.3331088,0.504957 l -0.240684,-0.416866 c 0.047176,-0.02696 0.071719,-0.05247 0.082799,-0.06835 0.00528,-0.0076 0.00764,-0.01346 0.00873,-0.01583 9.625e-4,-0.0029 9.625e-4,-0.0038 9.625e-4,-0.0038 0,0 0,-9.63e-4 -9.625e-4,-0.0035 -9.642e-4,-0.0029 -0.00346,-0.0082 -0.00873,-0.01583 -0.011098,-0.01583 -0.035623,-0.04141 -0.082799,-0.06884 z m -6.508125,-3.756613 6.508125,3.756613 -0.240684,0.416867 -6.508127,-3.756614 z"
         fill="#4d8622"
         id="path59084"
         style="stroke-width:0.48137" />
    </g>
    <g
       id="g53186"
       transform="translate(-8.7281613,-9.2853898)">
      <path
         fill-rule="evenodd"
         clip-rule="evenodd"
         d="m 69.363077,42.254061 -6.48925,3.768196 -0.114829,41.040314 0.01561,-0.0061 -0.01006,0.0058 c 0.02805,0.300567 -0.02275,0.602986 -0.147902,0.877623 -0.125148,0.274373 -0.320146,0.51144 -0.565414,0.687123 l 6.48327,-3.768196 c 0.246221,-0.176212 0.441801,-0.414073 0.567002,-0.689768 0.125175,-0.275432 0.175604,-0.579173 0.146394,-0.880269 h 1.33e-4 z"
         fill="#f5f6f6"
         id="path17860"
         style="stroke-width:0.264583" />
      <path
         d="m 62.873827,46.022257 -0.06641,-0.114565 c -0.04048,0.02355 -0.06562,0.06694 -0.06588,0.114036 z m 6.48925,-3.768196 0.132292,2.65e-4 c 1.32e-4,-0.04736 -0.02508,-0.09102 -0.06612,-0.11483 -0.04104,-0.02381 -0.0916,-0.02355 -0.132583,2.65e-4 z m -6.604079,44.80851 -0.132292,-5.29e-4 c -2.64e-4,0.04392 0.02117,0.08493 0.05741,0.109537 0.03598,0.02487 0.08176,0.03016 0.122767,0.01429 z m 0.01561,-0.0061 0.06641,0.1143 c 0.0598,-0.03466 0.08255,-0.109537 0.05265,-0.171714 -0.0299,-0.06218 -0.102658,-0.09102 -0.166952,-0.06588 z m -0.01006,0.0058 -0.06667,-0.1143 c -0.04445,0.02593 -0.06985,0.07541 -0.06509,0.126736 z m -0.147902,0.877623 -0.120385,-0.05503 v 0 z m -0.565414,0.687123 -0.07726,-0.107421 c -0.05741,0.04101 -0.07223,0.119856 -0.03387,0.179388 0.03836,0.05927 0.116416,0.07779 0.177535,0.04233 z m 6.48327,-3.768196 0.06649,0.114565 c 0.0036,-0.0021 0.0071,-0.0045 0.0105,-0.0069 z m 0.567002,-0.689768 0.120439,0.05477 z m 0.146394,-0.880269 -0.07982,-0.105569 c -0.03667,0.02778 -0.0563,0.0725 -0.05186,0.118269 z m 1.33e-4,0 0.0798,0.105304 c 0.03297,-0.02487 0.05236,-0.06376 0.05249,-0.10504 z m -6.307799,-37.152262 6.489276,-3.768196 -0.132847,-0.2286 -6.48925,3.767931 z m -0.04895,40.926278 0.114829,-41.040314 -0.264583,-7.93e-4 -0.11483,41.040314 z m -0.164571,-0.129645 -0.01561,0.0061 0.09578,0.246592 0.01561,-0.0061 z m 0.104246,0.243416 0.01005,-0.0058 -0.133085,-0.2286 -0.01006,0.0058 z m -0.09393,0.818092 c 0.134673,-0.29554 0.189441,-0.621242 0.159014,-0.944827 l -0.26326,0.02487 c 0.02593,0.277283 -0.0209,0.556683 -0.136525,0.810154 z m -0.608807,0.740039 c 0.264055,-0.189177 0.473869,-0.4445 0.608807,-0.740039 l -0.240771,-0.109802 c -0.115623,0.253471 -0.295804,0.472281 -0.522288,0.634735 z m 6.339814,-3.990181 -6.483482,3.768196 0.133085,0.2286 6.48335,-3.767931 z m 0.513027,-0.629973 c -0.115623,0.25453 -0.296201,0.474134 -0.523531,0.636852 l 0.153961,0.215107 c 0.265086,-0.189707 0.475641,-0.445823 0.610447,-0.742686 z m 0.135149,-0.813064 c 0.02699,0.278341 -0.0196,0.558535 -0.135149,0.813064 l 0.240877,0.109273 c 0.134778,-0.296598 0.189097,-0.623623 0.157612,-0.947737 z m 0.05202,-0.118269 h -1.59e-4 l 0.159624,0.211138 1.32e-4,-2.65e-4 z m 0.06255,-40.929454 -0.115041,41.034494 0.264583,7.93e-4 0.115041,-41.034757 z"
         fill="#1a1b1d"
         id="path17862"
         style="stroke-width:0.264583" />
      <path
         fill-rule="evenodd"
         clip-rule="evenodd"
         d="M 16.183865,9.5724634 9.7005154,13.340553 c 0.2764896,-0.125015 0.5810246,-0.174942 0.8831796,-0.144647 0.301889,0.03029 0.59055,0.139806 0.836877,0.317262 l 2.034116,1.164378 46.979681,27.121961 6.489091,-3.767931 -48.99652,-28.2922928 -0.01376,0.00796 -0.0034,-0.00217 C 17.662886,9.5665368 17.373167,9.4565759 17.069955,9.4262547 16.766742,9.3959335 16.461149,9.446363 16.183865,9.5724634 Z"
         fill="#f5f6f6"
         id="path17864"
         style="stroke-width:0.264583" />
      <path
         d="M 9.7005154,13.340553 9.6338404,13.2262 9.7550196,13.461124 Z m 6.4833496,-3.7680896 -0.05477,-0.1204383 -0.0061,0.00275 -0.0056,0.00331 z m -4.763293,3.9407046 -0.07752,0.107341 0.0058,0.004 0.0058,0.0034 z m 2.034116,1.164378 0.06615,-0.114565 -2.64e-4,-2.64e-4 z m 46.979681,27.121961 -0.06615,0.114564 0.06641,0.03836 0.06614,-0.03836 z m 6.489091,-3.767931 0.06644,0.1143 0.197565,-0.114565 -0.197856,-0.1143 z M 17.92694,9.7392832 17.99309,9.6247451 17.92668,9.5864071 17.86053,9.6249301 Z m -0.01376,0.00796 -0.06747,0.1137708 0.06694,0.039635 0.0672,-0.039053 z m -0.0034,-0.00217 -0.07752,0.1071827 0.0048,0.00352 0.0053,0.00307 z M 17.069955,9.4262547 17.056726,9.5578849 Z M 9.7669259,13.454933 16.250276,9.6868428 16.117455,9.4580841 9.6338404,13.2262 Z m 0.8299981,-0.390658 c -0.325173,-0.03262 -0.6532565,0.02114 -0.9509127,0.155734 l 0.1090083,0.241115 C 10.010343,13.34566 10.291595,13.299569 10.570465,13.327536 Z m 0.900906,0.341578 c -0.265112,-0.191056 -0.575733,-0.308954 -0.900906,-0.341578 l -0.02646,0.263261 c 0.278871,0.02797 0.545307,0.129064 0.772584,0.292973 z m 2.02274,1.156864 -2.034382,-1.164352 -0.131498,0.229632 2.034382,1.164352 z M 60.500515,41.684942 13.520834,14.562981 13.388542,14.79211 60.368223,41.914071 Z m 6.356508,-3.767931 -6.489064,3.768196 0.13282,0.228864 6.489118,-3.768195 z M 17.860795,9.8538478 66.857315,38.14614 66.989606,37.917011 17.993086,9.6247451 Z m 0.119062,0.00775 0.01349,-0.00794 -0.132821,-0.2287323 -0.01376,0.00794 z m -0.137583,-0.00275 0.0034,0.00217 0.135202,-0.2275681 -0.0037,-0.00214 z M 17.056726,9.5578849 c 0.279929,0.027993 0.547423,0.12954 0.775494,0.2943754 L 17.987265,9.6378684 C 17.721359,9.4456751 17.409415,9.3272476 17.083184,9.2946245 Z M 16.238634,9.6928753 C 16.494486,9.5764587 16.776797,9.529892 17.056726,9.5578849 l 0.02646,-0.2632604 c -0.326496,-0.03265 -0.655637,0.021617 -0.954087,0.1574006 z"
         fill="#1a1b1d"
         id="path17866"
         style="stroke-width:0.264583" />
      <path
         d="m 60.434369,41.799507 c 0.712258,0.460375 1.305454,1.082939 1.730375,1.817158 0.425185,0.733954 0.669925,1.558396 0.714375,2.405592 l -0.115094,41.040314 c 0,1.553104 -1.104371,2.174346 -2.462212,1.391973 L 11.305478,60.168204 C 10.594278,59.706507 10.00214,59.083413 9.5772196,58.349723 9.1522988,57.616034 8.9067655,56.792386 8.8604634,55.945719 L 8.981378,14.911014 c 0,-1.553263 1.104371,-2.180272 2.456392,-1.397899 z"
         fill="#8FE3E8"
         stroke="#1a1b1d"
         id="path17868"
         style="fill:none;stroke-width:0.264583" />
      <path
         d="M 69.368739,42.254061 C 69.323363,41.40713 69.078095,40.582953 68.653147,39.848998 68.2282,39.115309 67.635639,38.49248 66.923804,38.031311 l -6.48917,3.768196 c 0.712522,0.460375 1.305718,1.082939 1.730639,1.817158 0.424921,0.733954 0.669925,1.558396 0.714375,2.405592"
         stroke="#1a1b1d"
         stroke-linejoin="round"
         id="path17907"
         style="stroke-width:0.264583" />
      <path
         d="m 60.434634,41.799507 6.48917,-3.768196 c 0.711835,0.461169 1.304396,1.083998 1.729343,1.817687 0.424948,0.733955 0.670216,1.558132 0.715592,2.405063 l -6.489091,3.768196 c -0.04445,-0.847196 -0.289454,-1.671638 -0.714375,-2.405592 -0.424921,-0.734219 -1.018117,-1.356783 -1.730639,-1.817158 z"
         fill="#f5f6f6"
         stroke="#1a1b1d"
         stroke-linejoin="round"
         id="path17909"
         style="stroke-width:0.264583" />
      <path
         d="m 62.164744,43.61693 c -0.424921,-0.734219 -1.018117,-1.356784 -1.73064,-1.817159 L 11.43777,13.513379 c -1.352021,-0.782373 -2.4566566,-0.155363 -2.4566566,1.3979 l -0.015081,5.843852 53.8985346,31.111771 0.01455,-5.844381 c -0.04445,-0.847196 -0.28919,-1.671637 -0.714375,-2.405591 z"
         fill="#f5f6f6"
         stroke="#1a1b1d"
         id="path17911"
         style="stroke-width:0.264583" />
      <circle
         cx="48.800865"
         cy="39.757149"
         r="1.7258373"
         fill="#8fe3e8"
         stroke="#1a1b1d"
         id="circle17913"
         style="stroke-width:0.264583" />
      <circle
         cx="53.754925"
         cy="42.62973"
         r="1.7258373"
         fill="#80bb53"
         stroke="#1a1b1d"
         id="circle17915"
         style="stroke-width:0.264583" />
      <circle
         cx="58.708981"
         cy="45.502045"
         fill="#ffb422"
         stroke="#1a1b1d"
         id="ellipse17917"
         r="1.7258373"
         style="stroke-width:0.264583" />
    </g>
  </g>
</svg>
