<svg xmlns="http://www.w3.org/2000/svg" width="221.07180786132812" height="586" viewBox="-0.5358984470367432 -636 221.07180786132812 586"><title>Neo4j Graph Visualization</title><desc>Created using Neo4j (http://www.neo4j.com/)</desc><g class="layer links"><g class="link"><path fill="#DFE1E3" d="M 113.65770518231366 -564 C 113.65770518231366 -541.3285674405522 113.65770518231366 -541.3285674405522 113.65770518231366 -514 L 106.34229481768634 -514 C 106.34229481768634 -536.6714325594478 106.34229481768634 -536.6714325594478 106.34229481768634 -564 Z"/><text font-size="10" font-family="Helvetica Neue, Helvetica, Arial, sans-serif" fill="rgb(107, 174, 214)" x="110" y="-550" text-anchor="end">1 </text><text font-size="10" font-family="Helvetica Neue, Helvetica, Arial, sans-serif" fill="rgb(107, 174, 214)" x="110" y="-550" text-anchor="start">estimated rows</text></g><g class="link"><path fill="#DFE1E3" d="M 120.42905273474666 -456 C 120.42905273474666 -437.6393411780039 120.42905273474668 -437.6393411780039 120.42905273474668 -406 L 99.57094726525334 -406 C 99.57094726525334 -424.3606588219961 99.57094726525334 -424.3606588219961 99.57094726525334 -456 Z"/><text font-size="10" font-family="Helvetica Neue, Helvetica, Arial, sans-serif" fill="rgb(107, 174, 214)" x="110" y="-442" text-anchor="end">11 </text><text font-size="10" font-family="Helvetica Neue, Helvetica, Arial, sans-serif" fill="rgb(107, 174, 214)" x="110" y="-442" text-anchor="start">estimated rows</text></g><g class="link"><path fill="#DFE1E3" d="M 120.42905273474666 -348 C 120.42905273474666 -329.6393411780039 120.42905273474668 -329.6393411780039 120.42905273474668 -298 L 99.57094726525334 -298 C 99.57094726525334 -316.3606588219961 99.57094726525334 -316.3606588219961 99.57094726525334 -348 Z"/><text font-size="10" font-family="Helvetica Neue, Helvetica, Arial, sans-serif" fill="rgb(107, 174, 214)" x="110" y="-334" text-anchor="end">11 </text><text font-size="10" font-family="Helvetica Neue, Helvetica, Arial, sans-serif" fill="rgb(107, 174, 214)" x="110" y="-334" text-anchor="start">estimated rows</text></g><g class="link"><path fill="#DFE1E3" d="M 120.42905273474666 -226 C 120.42905273474666 -207.63934117800392 120.42905273474668 -207.63934117800392 120.42905273474668 -176 L 99.57094726525334 -176 C 99.57094726525334 -194.36065882199608 99.57094726525334 -194.36065882199608 99.57094726525334 -226 Z"/><text font-size="10" font-family="Helvetica Neue, Helvetica, Arial, sans-serif" fill="rgb(107, 174, 214)" x="110" y="-212" text-anchor="end">11 </text><text font-size="10" font-family="Helvetica Neue, Helvetica, Arial, sans-serif" fill="rgb(107, 174, 214)" x="110" y="-212" text-anchor="start">estimated rows</text></g><g class="link"><path fill="#DFE1E3" d="M 120.42905273474666 -118 C 120.42905273474666 -99.63934117800392 120.42905273474668 -99.63934117800392 120.42905273474668 -68 L 99.57094726525334 -68 C 99.57094726525334 -86.36065882199608 99.57094726525334 -86.36065882199608 99.57094726525334 -118 Z"/><text font-size="10" font-family="Helvetica Neue, Helvetica, Arial, sans-serif" fill="rgb(107, 174, 214)" x="110" y="-104" text-anchor="end">11 </text><text font-size="10" font-family="Helvetica Neue, Helvetica, Arial, sans-serif" fill="rgb(107, 174, 214)" x="110" y="-104" text-anchor="start">estimated rows</text></g></g><g class="layer operators"><g class="operator" transform="translate(0, -68)"><rect class="background" width="220" height="18" rx="4" ry="4" fill="rgb(255, 255, 255)"/><g class="header" pointer-events="all"><path class="banner" d="M 216 0 A 4 4 0 0 1 220 4 L 220 14 A 4 4 0 0 1 216 18 L 4 18 A 4 4 0 0 1 0 14 L 0 4 A 4 4 0 0 1 4 0 Z" style="fill: rgb(198, 219, 239);"/><text class="title" font-size="11" font-family="Helvetica Neue, Helvetica, Arial, sans-serif" x="18" y="13" fill="#000000">Result</text></g><path class="cost" fill="#F25A29" d="M 216 18 A 4 4 0 0 1 216 18 L 4 18 A 4 4 0 0 1 4 18 Z"/><rect class="b-outline" width="220" rx="4" ry="4" fill="none" stroke-width="1" style="stroke: rgb(139, 153, 167);" height="18"/></g><g class="operator" transform="translate(0, -176)"><rect class="background" width="220" height="58" rx="4" ry="4" fill="rgb(255, 255, 255)"/><g class="header" pointer-events="all"><path class="banner" d="M 216 0 A 4 4 0 0 1 220 4 L 220 14 A 4 4 0 0 1 220 18 L 0 18 A 4 4 0 0 1 0 14 L 0 4 A 4 4 0 0 1 4 0 Z" style="fill: rgb(198, 219, 239);"/><path class="expand" fill="#000000" d="M -5 -10 L 8.66 0 L -5 10 Z" transform="translate(9, 9) rotate(90) scale(0.5,0.5)"/><text class="title" font-size="11" font-family="Helvetica Neue, Helvetica, Arial, sans-serif" x="18" y="13" fill="#000000">ProduceResults@neo4j</text></g><path class="cost" fill="#F25A29" d="M 216 58 A 4 4 0 0 1 216 58 L 4 58 A 4 4 0 0 1 4 58 Z"/><rect class="b-outline" width="220" rx="4" ry="4" fill="none" stroke-width="1" style="stroke: rgb(139, 153, 167);" height="58"/><g class="detail identifiers" transform="translate(0, 32)" font-family="'Fira Code',Monaco,'Courier New',Terminal,monospace"><text font-size="10" x="3" text-anchor="start" fill="black" font-family="Helvetica Neue, Helvetica, Arial, sans-serif">u, m, `r.rating`, `u.name`, r</text></g><g class="detail padding" transform="translate(0, 46)" font-family="'Helvetica Neue',Helvetica,Arial,sans-serif"><text font-size="10" x="3" text-anchor="start" fill="black" font-family="Helvetica Neue, Helvetica, Arial, sans-serif"/><path class="divider" visibility="visible" d="M 0 -6 L 220 -6" stroke="#DFE1E3"/></g><g class="detail expression" transform="translate(0, 52)" font-family="'Fira Code',Monaco,'Courier New',Terminal,monospace"><text font-size="10" x="3" text-anchor="start" fill="black" font-family="Helvetica Neue, Helvetica, Arial, sans-serif">`u.name`, `r.rating`</text></g></g><g class="operator" transform="translate(0, -298)"><rect class="background" width="220" height="72" rx="4" ry="4" fill="rgb(255, 255, 255)"/><g class="header" pointer-events="all"><path class="banner" d="M 216 0 A 4 4 0 0 1 220 4 L 220 14 A 4 4 0 0 1 220 18 L 0 18 A 4 4 0 0 1 0 14 L 0 4 A 4 4 0 0 1 4 0 Z" style="fill: rgb(107, 174, 214);"/><path class="expand" fill="#FFFFFF" d="M -5 -10 L 8.66 0 L -5 10 Z" transform="translate(9, 9) rotate(90) scale(0.5,0.5)"/><text class="title" font-size="11" font-family="Helvetica Neue, Helvetica, Arial, sans-serif" x="18" y="13" fill="#FFFFFF">Projection@neo4j</text></g><path class="cost" fill="#F25A29" d="M 216 72 A 4 4 0 0 1 216 72 L 4 72 A 4 4 0 0 1 4 72 Z"/><rect class="b-outline" width="220" rx="4" ry="4" fill="none" stroke-width="1" style="stroke: rgb(75, 122, 150);" height="72"/><g class="detail identifiers" transform="translate(0, 32)" font-family="'Fira Code',Monaco,'Courier New',Terminal,monospace"><text font-size="10" x="3" text-anchor="start" fill="black" font-family="Helvetica Neue, Helvetica, Arial, sans-serif">u, m, `r.rating`, `u.name`, r</text></g><g class="detail padding" transform="translate(0, 46)" font-family="'Helvetica Neue',Helvetica,Arial,sans-serif"><text font-size="10" x="3" text-anchor="start" fill="black" font-family="Helvetica Neue, Helvetica, Arial, sans-serif"/><path class="divider" visibility="visible" d="M 0 -6 L 220 -6" stroke="#DFE1E3"/></g><g class="detail expression" transform="translate(0, 52)" font-family="'Fira Code',Monaco,'Courier New',Terminal,monospace"><text font-size="10" x="3" text-anchor="start" fill="black" font-family="Helvetica Neue, Helvetica, Arial, sans-serif">u.name AS `u.name`, r.rating AS `r.</text></g><g class="detail expression" transform="translate(0, 66)" font-family="'Fira Code',Monaco,'Courier New',Terminal,monospace"><text font-size="10" x="3" text-anchor="start" fill="black" font-family="Helvetica Neue, Helvetica, Arial, sans-serif">rating`</text></g></g><g class="operator" transform="translate(0, -406)"><rect class="background" width="220" height="58" rx="4" ry="4" fill="rgb(255, 255, 255)"/><g class="header" pointer-events="all"><path class="banner" d="M 216 0 A 4 4 0 0 1 220 4 L 220 14 A 4 4 0 0 1 220 18 L 0 18 A 4 4 0 0 1 0 14 L 0 4 A 4 4 0 0 1 4 0 Z" style="fill: rgb(33, 113, 181);"/><path class="expand" fill="#FFFFFF" d="M -5 -10 L 8.66 0 L -5 10 Z" transform="translate(9, 9) rotate(90) scale(0.5,0.5)"/><text class="title" font-size="11" font-family="Helvetica Neue, Helvetica, Arial, sans-serif" x="18" y="13" fill="#FFFFFF">Filter@neo4j</text></g><path class="cost" fill="#F25A29" d="M 216 58 A 4 4 0 0 1 216 58 L 4 58 A 4 4 0 0 1 4 58 Z"/><rect class="b-outline" width="220" rx="4" ry="4" fill="none" stroke-width="1" style="stroke: rgb(23, 79, 127);" height="58"/><g class="detail identifiers" transform="translate(0, 32)" font-family="'Fira Code',Monaco,'Courier New',Terminal,monospace"><text font-size="10" x="3" text-anchor="start" fill="black" font-family="Helvetica Neue, Helvetica, Arial, sans-serif">m, r, u</text></g><g class="detail padding" transform="translate(0, 46)" font-family="'Helvetica Neue',Helvetica,Arial,sans-serif"><text font-size="10" x="3" text-anchor="start" fill="black" font-family="Helvetica Neue, Helvetica, Arial, sans-serif"/><path class="divider" visibility="visible" d="M 0 -6 L 220 -6" stroke="#DFE1E3"/></g><g class="detail expression" transform="translate(0, 52)" font-family="'Fira Code',Monaco,'Courier New',Terminal,monospace"><text font-size="10" x="3" text-anchor="start" fill="black" font-family="Helvetica Neue, Helvetica, Arial, sans-serif">u:User</text></g></g><g class="operator" transform="translate(0, -514)"><rect class="background" width="220" height="58" rx="4" ry="4" fill="rgb(255, 255, 255)"/><g class="header" pointer-events="all"><path class="banner" d="M 216 0 A 4 4 0 0 1 220 4 L 220 14 A 4 4 0 0 1 220 18 L 0 18 A 4 4 0 0 1 0 14 L 0 4 A 4 4 0 0 1 4 0 Z" style="fill: rgb(8, 81, 156);"/><path class="expand" fill="#FFFFFF" d="M -5 -10 L 8.66 0 L -5 10 Z" transform="translate(9, 9) rotate(90) scale(0.5,0.5)"/><text class="title" font-size="11" font-family="Helvetica Neue, Helvetica, Arial, sans-serif" x="18" y="13" fill="#FFFFFF">Expand(All)@neo4j</text></g><path class="cost" fill="#F25A29" d="M 216 58 A 4 4 0 0 1 216 58 L 4 58 A 4 4 0 0 1 4 58 Z"/><rect class="b-outline" width="220" rx="4" ry="4" fill="none" stroke-width="1" style="stroke: rgb(6, 57, 109);" height="58"/><g class="detail identifiers" transform="translate(0, 32)" font-family="'Fira Code',Monaco,'Courier New',Terminal,monospace"><text font-size="10" x="3" text-anchor="start" fill="black" font-family="Helvetica Neue, Helvetica, Arial, sans-serif">m, r, u</text></g><g class="detail padding" transform="translate(0, 46)" font-family="'Helvetica Neue',Helvetica,Arial,sans-serif"><text font-size="10" x="3" text-anchor="start" fill="black" font-family="Helvetica Neue, Helvetica, Arial, sans-serif"/><path class="divider" visibility="visible" d="M 0 -6 L 220 -6" stroke="#DFE1E3"/></g><g class="detail expression" transform="translate(0, 52)" font-family="'Fira Code',Monaco,'Courier New',Terminal,monospace"><text font-size="10" x="3" text-anchor="start" fill="black" font-family="Helvetica Neue, Helvetica, Arial, sans-serif">(m)&lt;-[r:RATED]-(u)</text></g></g><g class="operator" transform="translate(0, -636)"><rect class="background" width="220" height="72" rx="4" ry="4" fill="rgb(255, 255, 255)"/><g class="header" pointer-events="all"><path class="banner" d="M 216 0 A 4 4 0 0 1 220 4 L 220 14 A 4 4 0 0 1 220 18 L 0 18 A 4 4 0 0 1 0 14 L 0 4 A 4 4 0 0 1 4 0 Z" style="fill: rgb(158, 202, 225);"/><path class="expand" fill="#000000" d="M -5 -10 L 8.66 0 L -5 10 Z" transform="translate(9, 9) rotate(90) scale(0.5,0.5)"/><text class="title" font-size="11" font-family="Helvetica Neue, Helvetica, Arial, sans-serif" x="18" y="13" fill="#000000">NodeIndexSeek@neo4j</text></g><path class="cost" fill="#F25A29" d="M 216 72 A 4 4 0 0 1 216 72 L 4 72 A 4 4 0 0 1 4 72 Z"/><rect class="b-outline" width="220" rx="4" ry="4" fill="none" stroke-width="1" style="stroke: rgb(111, 141, 158);" height="72"/><g class="detail identifiers" transform="translate(0, 32)" font-family="'Fira Code',Monaco,'Courier New',Terminal,monospace"><text font-size="10" x="3" text-anchor="start" fill="black" font-family="Helvetica Neue, Helvetica, Arial, sans-serif">m</text></g><g class="detail padding" transform="translate(0, 46)" font-family="'Helvetica Neue',Helvetica,Arial,sans-serif"><text font-size="10" x="3" text-anchor="start" fill="black" font-family="Helvetica Neue, Helvetica, Arial, sans-serif"/><path class="divider" visibility="visible" d="M 0 -6 L 220 -6" stroke="#DFE1E3"/></g><g class="detail expression" transform="translate(0, 52)" font-family="'Fira Code',Monaco,'Courier New',Terminal,monospace"><text font-size="10" x="3" text-anchor="start" fill="black" font-family="Helvetica Neue, Helvetica, Arial, sans-serif">RANGE INDEX m:Movie(title) WHERE </text></g><g class="detail expression" transform="translate(0, 66)" font-family="'Fira Code',Monaco,'Courier New',Terminal,monospace"><text font-size="10" x="3" text-anchor="start" fill="black" font-family="Helvetica Neue, Helvetica, Arial, sans-serif">title = $autostring_0</text></g></g></g></svg>