<svg width="166" height="137" viewBox="0 0 166 137" fill="none" xmlns="http://www.w3.org/2000/svg">
<g clip-path="url(#clip0_2010_9776)">
<path d="M13.7396 85.7969C13.865 88.8394 14.5237 91.7721 16.6096 94.3754C16.8918 94.7361 17.2055 95.0968 17.3153 95.5359C17.3937 95.8653 17.3623 96.2103 17.3153 96.5396C16.9232 100.476 17.2212 104.867 19.95 107.737C20.8439 108.678 21.9575 109.4 23.1337 109.948C25.8311 111.234 28.8893 111.689 31.8376 111.282C33.2334 111.093 34.3155 110.591 35.6956 110.952C37.107 111.329 38.393 112.097 39.7418 112.63C45.764 114.983 54.7189 117.994 55.2364 115.281C64.8657 119.609 68.0964 114.23 67.6102 110.168C70.9507 114.23 77.2708 112.379 77.8668 107.157C88.0293 105.62 86.7746 98.9548 86.7746 98.9548C96.153 104.412 102.238 97.5434 101.72 94.2813C105.578 95.7869 109.985 94.8929 113.169 92.4621C114.424 91.5211 115.192 87.0828 115.192 87.0828C115.192 87.0828 116.211 86.8947 117.936 86.0949C120.995 84.6834 123.567 82.6603 125.151 79.5237C126.954 75.9794 127.205 71.5725 125.841 67.7145C128.052 66.4756 129.903 64.3898 130.467 61.8178C130.859 60.077 130.561 58.0852 129.589 56.5483C129.103 55.7798 128.021 54.6821 128.052 53.7725C128.068 52.9256 129.479 51.2632 129.856 50.4164C130.906 48.0796 131.581 45.5703 131.91 43.0297C132.13 41.2575 132.13 40.3793 130.953 39.0619C129.965 37.9641 128.977 36.8664 128.005 35.7529C127.284 34.9374 126.562 34.4355 126.546 33.1966C126.546 32.2399 126.891 31.3146 127.064 30.358C127.534 27.9428 126.625 25.0728 126.013 22.7518C124.837 18.3449 121.246 15.0201 117.121 13.2793C114.957 12.3697 112.808 12.0717 110.503 11.8679C107.711 11.6169 105.845 10.9112 103.477 9.43703C100.34 7.49236 96.1687 6.6141 92.5303 7.06891C91.4012 7.21005 90.2876 7.46096 89.1585 7.53937C87.7156 7.63347 86.2728 7.41395 84.8457 7.28849C83.3088 7.14734 81.7718 7.08457 80.2349 7.10025C79.5762 7.10025 79.0116 7.38258 78.353 7.38258C77.3649 7.38258 76.4083 7.22575 75.4046 7.33553C73.3344 7.53941 71.3271 8.19805 69.4765 9.10766C66.6536 10.5034 64.1757 12.5108 61.839 14.6437C61.3528 15.0985 60.8509 15.5533 60.2393 15.8356C59.8786 15.9924 59.5022 16.0865 59.1258 16.1806C54.2327 17.3882 49.669 19.8818 45.9992 23.332C41.5767 27.488 36.1504 30.3579 33.6568 36.2076C32.5904 38.7012 31.9944 41.5399 30.0184 43.4061C29.046 44.3157 27.8228 44.9273 26.8975 45.884C24.9371 47.9228 24.796 51.0436 23.8707 53.7254C22.4122 57.9284 18.915 61.0963 16.8605 65.0327C14.5551 69.4553 14.1787 74.615 13.8964 79.6021C13.7867 81.6723 13.6299 83.7267 13.724 85.7498L13.7396 85.7969Z" fill="#FFAA97" stroke="#D43300"/>
<g style="mix-blend-mode:multiply" opacity="0.2">
<path d="M13.9281 79.6493C14.2104 74.6622 14.5867 69.5182 16.8921 65.0799C18.9465 61.1279 22.4439 57.9756 23.9024 53.7726C24.1219 53.161 24.2944 52.518 24.4512 51.875C24.6081 59.2303 22.9457 66.3346 18.1154 72.5763C14.4456 77.093 15.2925 83.57 18.3977 88.6513C20.0914 91.7565 23.1966 91.4742 26.3018 90.9096C21.7851 93.1679 22.0674 99.3784 21.5028 103.879C21.5028 107.831 24.0435 110.09 27.7133 110.937C29.8305 111.423 31.8693 110.827 33.0141 108.914C33.2494 108.537 33.4375 108.192 33.4846 107.753C33.5316 107.126 33.5943 106.514 33.6571 105.887C33.7982 104.632 33.9865 103.378 34.3001 102.17C34.551 101.213 34.9117 100.272 35.4763 99.4725C35.8214 99.002 36.229 98.5785 36.5898 98.108C36.7936 97.8414 36.9819 97.5591 37.2328 97.3239C37.4837 97.0887 37.7974 96.9161 38.1424 96.9318L37.9385 97.9669C37.8131 98.5628 37.6876 99.1745 37.4837 99.7548C37.2328 100.445 36.8564 101.088 36.5742 101.778C36.4957 101.966 36.4173 102.154 36.433 102.358C36.433 102.515 36.4957 102.656 36.5584 102.797C36.6682 103.064 36.7779 103.346 36.8877 103.613C37.0602 104.02 37.1544 104.303 37.5935 104.475C42.3924 106.169 47.1757 102.782 48.8695 98.8295C52.5392 89.8118 59.2986 82.4722 69.1788 81.9077C76.2361 81.3431 83.2777 83.8837 90.0527 86.1421C95.0084 87.9142 98.4116 91.4585 101.799 95.1127C101.376 98.5472 95.5103 104.052 86.8534 99.002C86.8534 99.002 88.1079 105.667 77.9454 107.204C77.3495 112.427 71.0293 114.277 67.6889 110.215C68.1907 114.277 64.96 119.656 55.3151 115.328C54.7976 118.041 45.8426 115.03 39.8204 112.677C38.4717 112.144 37.1858 111.376 35.7743 110.999C34.4099 110.639 33.3121 111.141 31.9163 111.329C28.9679 111.721 25.8941 111.266 23.2123 109.996C22.0361 109.431 20.9226 108.725 20.0287 107.784C17.2998 104.914 17.0019 100.523 17.394 96.5868C17.4253 96.2575 17.4567 95.9125 17.394 95.5831C17.2842 95.144 16.9705 94.7833 16.6882 94.4226C14.6024 91.8193 13.9438 88.8866 13.8183 85.8441C13.7399 83.8367 13.881 81.7665 13.9908 79.6964L13.9281 79.6493Z" fill="#F96746" stroke="#D43300"/>
</g>
<path d="M36.5268 104.914C37.1385 110.638 38.0324 118.621 42.0472 123.028C44.6506 125.882 48.4615 127.246 52.1156 128.501C57.1655 130.242 62.3095 131.998 67.6417 132.139C72.8327 132.281 78.0551 130.806 82.4463 128.031C85.8808 125.851 88.4528 122.416 92.6715 121.836C96.9686 121.24 101.093 121.914 105.39 120.675C110.017 119.327 114.314 116.77 117.607 113.226C118.548 112.206 119.442 111.093 120.681 110.434C121.732 109.885 122.924 109.713 124.1 109.493C132.506 107.894 140.99 102.546 145.413 95.1435C146.526 93.2773 147.389 91.2542 147.859 89.137C148.487 86.22 147.264 83.3657 148.785 80.6212C150.228 78.0335 151.561 76.6534 151.263 73.36C150.996 70.5057 149.977 67.7299 150.039 64.8599C150.086 62.7584 150.714 60.7197 150.996 58.6338C151.686 53.631 150.4 48.5027 148.236 43.939C146.056 39.3753 143.013 35.282 140.002 31.2202C138.058 28.6011 136.003 26.4056 132.851 25.3705C130.796 24.6961 128.726 23.0965 126.641 22.7671C125.276 22.5476 123.88 22.7514 122.532 23.0337C121.826 23.1749 121.042 23.5199 120.336 23.5042C119.709 23.5042 119.097 23.4258 118.47 23.4415C116.792 23.4885 115.114 23.4415 113.467 23.1278C111.946 22.8142 110.471 22.2653 108.935 22.0301C106.472 21.6693 103.9 22.1869 101.783 23.4728C100.529 24.2256 99.3994 25.2607 98.0037 25.6998C96.7334 26.1076 95.3533 25.9821 94.0829 26.3742C90.8052 27.3779 89.3153 31.2359 86.3983 33.0081C84.2341 34.3254 81.7562 34.4979 79.4351 35.2507C76.9415 36.0662 74.9342 38.0109 73.115 39.8458C71.5467 41.4297 69.9941 42.998 68.4258 44.582C67.3751 45.6484 66.3086 46.7306 65.446 47.9538C63.6111 50.5572 62.7015 53.8035 60.5059 56.1246C57.8241 58.9632 53.2605 60.4844 52.5234 64.311C52.3195 65.3461 52.4607 66.4125 52.2568 67.4319C51.4883 71.3526 46.5011 72.9837 44.8387 76.6064C44.1801 78.0492 44.086 79.6802 43.5057 81.1544C42.3138 84.1342 39.1145 86.2984 38.9577 89.5134C38.8636 91.4738 39.9771 93.3557 39.8046 95.316C39.5694 97.888 37.1698 99.7857 36.6366 102.326C36.4641 103.189 36.4954 104.051 36.5895 104.93L36.5268 104.914Z" fill="#FFAA97" stroke="#D43300"/>
<path d="M138.528 79.0684C138.921 79.4604 139.344 79.8682 139.767 80.2603C139.234 79.978 138.732 79.68 138.246 79.3506C137.964 79.0683 138.246 79.0684 138.528 79.0684Z" fill="#FFAA97" stroke="#D43300"/>
<g style="mix-blend-mode:multiply" opacity="0.2">
<path d="M36.5739 102.31C36.9659 100.475 38.3303 98.9539 39.1458 97.2758C39.9143 104.286 38.9262 111.5 41.0904 118.259C43.0665 123.905 51.3785 125.615 56.742 127.857C58.326 128.391 61.6978 127.669 60.8195 125.317C60.5372 124.58 59.9256 124.031 59.361 123.498C58.7964 122.949 58.2319 122.337 58.0907 121.569C58.075 121.443 58.0593 121.286 58.1534 121.192C58.2632 121.082 58.4514 121.114 58.6083 121.161C60.6 121.757 62.7015 122.651 63.7209 124.486C64.113 125.207 64.3168 126.022 64.6618 126.775C65.3048 128.202 66.4967 128.72 68.018 128.72C70.1665 128.83 72.315 128.72 74.4322 128.359C76.9572 127.904 79.5291 127.026 81.4738 125.301C83.7478 123.278 84.9711 120.549 85.9121 117.695C86.4923 115.923 86.5864 113.79 87.6529 112.237C87.9508 111.798 88.4056 111.39 88.9389 111.422C89.5505 111.453 89.9896 112.018 90.319 112.535C90.8522 113.351 91.3854 114.182 91.9186 114.997C92.3264 115.609 92.9067 115.97 93.5183 116.393C94.6945 117.224 95.9648 117.93 97.2979 118.495C102.458 120.628 108.903 120 112.871 115.75C116.823 111.516 117.952 105.886 117.67 100.24C117.388 99.1107 118.235 97.6993 118.799 96.5701C121.057 100.24 119.364 106.152 123.598 106.717C133.18 107.564 142.214 99.6596 144.754 90.0774C145.742 85.8901 142.653 83.0044 139.783 80.2756C143.28 82.0948 147.624 82.4712 149.835 78.8014C151.811 74.8493 148.989 70.8973 148.142 66.9609C147.279 63.197 148.926 59.7311 151.168 56.3906C151.153 57.1434 151.09 57.8962 150.996 58.6333C150.714 60.7191 150.086 62.7579 150.039 64.8594C149.977 67.7293 150.996 70.5052 151.263 73.3594C151.561 76.6528 150.243 78.0173 148.785 80.6206C147.263 83.3494 148.487 86.2194 147.859 89.1364C147.389 91.2693 146.526 93.2767 145.413 95.143C140.975 102.545 132.49 107.893 124.1 109.493C122.939 109.712 121.732 109.885 120.681 110.434C119.458 111.092 118.564 112.206 117.607 113.225C114.329 116.77 110.032 119.326 105.39 120.675C101.109 121.914 96.9685 121.255 92.6714 121.835C88.4527 122.415 85.8808 125.85 82.4462 128.03C78.055 130.806 72.8483 132.28 67.6416 132.139C62.3094 131.998 57.1654 130.241 52.1155 128.5C48.4614 127.246 44.6505 125.881 42.0472 123.027C38.0324 118.605 37.1384 110.638 36.5268 104.913C36.4327 104.035 36.3857 103.173 36.5739 102.31Z" fill="#FFAA97" stroke="#D43300"/>
</g>
<path d="M67.6886 126.587C67.8297 126.163 68.2531 125.928 68.6452 125.74C69.2255 125.458 69.8528 125.254 70.4645 125.065C71.9857 124.579 73.5383 124.203 75.0909 123.795C76.5181 123.419 77.8667 122.948 79.137 122.164C80.5015 121.317 81.5209 120.141 82.1952 118.683C82.995 116.973 83.2303 115.076 83.8576 113.303C84.5006 111.468 85.4729 109.759 86.8687 108.379C88.5311 106.717 90.6639 105.634 92.7498 104.646C95.0708 103.549 97.5174 102.592 99.6816 101.196C101.422 100.083 103.038 98.5615 103.885 96.6482C104.826 94.5153 104.402 92.1472 103.587 90.0457C101.877 85.6545 98.5368 82.0004 97.2821 77.4053C96.6548 75.1156 96.7646 72.7475 97.3762 70.4578C97.9408 68.2779 98.8818 66.2391 99.76 64.169C100.638 62.0988 101.485 59.9503 101.736 57.692C101.956 55.6532 101.673 53.5988 101.14 51.6384C99.0857 44.1106 92.9223 37.0062 85.0809 35.3752C84.1399 35.1714 83.1833 35.0616 82.2266 35.0302C81.5836 34.9988 81.5836 34.0579 82.2266 34.0265C86.2885 33.9167 90.1935 35.6105 93.3614 38.0727C96.6234 40.5976 99.2425 43.9851 100.936 47.7333C102.661 51.5599 103.54 55.8571 102.505 59.9973C101.391 64.4826 98.521 68.5131 98.1447 73.1866C97.7683 77.9699 100.811 82.0788 103.038 86.0466C104.245 88.1951 105.359 90.4691 105.641 92.9313C105.892 95.174 105.249 97.3696 103.822 99.1261C102.426 100.867 100.481 102.074 98.5054 103.047C96.0589 104.254 93.5025 105.227 91.0874 106.513C89.2054 107.516 87.4804 108.755 86.2571 110.528C85.0652 112.268 84.532 114.229 83.9988 116.236C83.5753 117.851 83.0107 119.482 81.9913 120.831C80.9092 122.243 79.388 123.184 77.7726 123.889C75.0909 125.034 72.1111 125.285 69.4293 126.414C69.2255 126.493 69.0216 126.587 68.8334 126.712C68.7393 126.759 68.6766 126.822 68.6609 126.822C68.5982 126.885 68.6138 126.885 68.6295 126.822C68.4256 127.387 67.5161 127.151 67.72 126.571L67.6886 126.587Z" fill="#FF8E6A" stroke="#D43300"/>
<path d="M42.2671 98.8131C44.8861 101.009 47.27 103.487 50.1556 105.337C51.5514 106.247 53.0569 106.984 54.6723 107.392C56.2562 107.799 57.9343 107.878 59.5496 107.815C62.8117 107.69 66.403 106.937 68.8495 104.631C69.8219 103.722 70.5119 102.593 70.904 101.322C71.2961 100.068 71.4059 98.7504 71.453 97.4487C71.5471 94.5317 71.2491 91.5363 72.0175 88.682C72.3939 87.2549 73.178 85.9532 74.3228 84.9965C75.4677 84.0556 76.8165 83.4596 78.1966 82.9891C79.5139 82.55 80.8626 82.1893 82.0702 81.4992C83.1994 80.8562 83.9992 79.8839 84.5324 78.692C85.2695 77.0767 85.6302 75.2104 85.6459 73.4383C85.6459 71.6504 85.1597 70.0665 84.2501 68.5295C83.3562 67.024 82.2741 65.6282 81.4429 64.0913C80.502 62.3348 80.0315 60.3587 79.7022 58.4141C79.5296 57.3633 79.3884 56.3126 79.2316 55.2775C79.1532 54.7913 79.0748 54.3052 78.9964 53.8347C78.918 53.4269 78.8866 52.9878 78.7297 52.58C78.3533 51.5293 77.7888 50.5883 77.3497 49.569C77.1458 49.0985 77.036 48.5966 77.083 48.0948C77.083 48.0007 77.1144 47.8909 77.1928 47.8438C77.2556 47.8125 77.334 47.8125 77.3967 47.8438C77.632 47.9066 77.7731 48.1261 77.9143 48.33C78.8709 49.8669 79.6394 51.6391 79.9844 53.4269C80.1883 54.462 80.3608 55.5128 80.549 56.5635C80.7372 57.6143 80.9567 58.6493 81.1919 59.6844C81.4115 60.6724 81.6624 61.6604 82.0702 62.6014C82.7602 64.2167 83.8424 65.6282 84.7991 67.0867C85.7871 68.6236 86.5869 70.239 86.8064 72.0739C87.0417 73.9715 86.7751 75.9318 86.2262 77.7511C85.7871 79.1939 85.144 80.6053 84.0305 81.6404C83.0268 82.597 81.7409 83.1616 80.4549 83.6164C79.0591 84.1183 77.6163 84.4947 76.2989 85.2161C75.107 85.8904 74.119 86.8157 73.5544 88.0861C72.9741 89.3877 72.833 90.8933 72.7703 92.3047C72.6918 93.7633 72.7389 95.2218 72.7233 96.6803C72.6919 99.4875 72.3782 102.326 70.559 104.584C68.4105 107.266 64.9289 108.411 61.6355 108.834C58.248 109.274 54.7193 109.023 51.6298 107.47C48.5089 105.902 45.9212 103.44 43.3492 101.119C42.7533 100.585 42.1574 100.052 41.5457 99.5345C41.0752 99.1268 41.7496 98.4524 42.2358 98.8445L42.2671 98.8131Z" fill="#FF8E6A" stroke="#D43300"/>
<path d="M100.545 24.4607C100.748 24.147 100.999 23.8648 101.266 23.5981C101.329 23.5354 101.391 23.4727 101.486 23.4727C101.548 23.4727 101.611 23.504 101.674 23.5354C102.285 23.8961 102.881 24.2568 103.477 24.6018C106.002 26.0603 107.665 26.7817 109.986 28.8676C112.291 30.9534 114.565 33.3999 115.647 36.364C118.031 42.7783 114.408 51.8273 117.702 57.8652C118.094 58.5866 118.564 59.2296 119.144 59.8256C119.803 60.4999 120.556 61.0174 121.356 61.535C123.018 62.6014 124.618 63.809 125.951 65.2675C127.268 66.6946 128.288 68.3256 129.025 70.1292C129.401 71.0388 129.605 71.9954 130.028 72.8737C130.373 73.5951 130.828 74.2537 131.44 74.787C132.663 75.8534 134.325 76.0573 135.878 75.7279C137.948 75.2731 139.595 73.9558 140.975 72.4032C141.681 71.6034 142.324 70.7408 142.888 69.8312C143.437 68.9373 143.861 68.0277 143.955 66.9769C144.143 64.7657 143.218 62.5857 142.371 60.594C141.54 58.6336 140.881 56.5478 139.438 54.9482C138.121 53.4897 136.458 52.5487 134.827 51.4979C133.165 50.4315 131.691 49.1612 130.75 47.389C130.232 46.4167 129.824 45.3816 129.73 44.2838C129.636 43.3742 129.84 42.4803 130.217 41.6648C130.624 40.7395 131.205 39.8926 131.769 39.0614C132.13 38.5282 133.024 39.0301 132.647 39.579C131.612 41.1473 130.436 42.8253 130.891 44.8014C131.361 46.8244 132.647 48.5966 134.294 49.8199C135.847 50.9647 137.572 51.8116 139.046 53.0506C139.877 53.7563 140.63 54.5718 141.226 55.4814C141.838 56.4067 142.23 57.4261 142.653 58.4455C143.516 60.547 144.582 62.6328 144.958 64.8911C145.147 66.0046 145.162 67.1494 144.864 68.2472C144.582 69.2823 144.017 70.2233 143.421 71.1172C142.183 72.9678 140.646 74.7399 138.717 75.8848C137.07 76.8728 134.953 77.3433 133.055 76.9042C131.377 76.5121 130.028 75.3359 129.213 73.8303C128.727 72.9364 128.476 71.9641 128.131 71.0231C127.786 70.0978 127.347 69.2039 126.829 68.357C125.825 66.726 124.492 65.3459 123.018 64.154C121.466 62.8994 119.631 62.0212 118.251 60.5627C117.858 60.1549 117.529 59.7158 117.231 59.2766C117.2 61.0802 117.012 62.8994 117.2 64.7029C117.451 67.1494 118.502 69.298 119.772 71.3681C120.948 73.3128 122.281 75.1791 123.206 77.2649C124.179 79.4605 124.618 81.7815 124.288 84.1653C123.959 86.5648 122.83 88.7761 121.23 90.5796C120.321 91.599 119.239 92.4616 118.251 93.3869C118.564 93.4496 118.862 93.4967 119.192 93.4967C119.803 93.4967 120.399 93.4653 121.011 93.4339C122.171 93.3712 123.332 93.3398 124.461 93.6848C126.406 94.2651 127.77 95.7236 128.978 97.2605C129.574 98.029 130.091 98.8445 130.844 99.4718C131.393 99.9266 132.099 100.162 132.82 100.178C134.42 100.193 135.972 99.1738 137.133 98.1701C138.56 96.9468 139.799 95.4413 140.724 93.8103C140.755 93.7632 140.834 93.8103 140.802 93.8573C140.034 95.3472 139.015 96.7273 137.854 97.9349C136.709 99.1111 135.314 100.303 133.683 100.711C132.02 101.118 130.373 100.632 129.229 99.362C127.895 97.8722 126.86 96.1157 125.026 95.1747C123.881 94.5944 122.642 94.5317 121.387 94.5944C120.697 94.6258 120.007 94.6885 119.317 94.6885C118.674 94.6885 117.466 94.3592 116.918 94.767C116.384 95.159 116.008 96.2098 115.804 96.8057C115.255 98.374 115.271 100.083 115.349 101.73C115.475 104.224 115.835 106.78 115.239 109.258C114.738 111.344 113.546 113.288 111.366 113.869C110.503 114.104 109.562 114.167 108.668 114.088C107.79 114.01 106.896 113.853 106.018 113.884C105.861 113.884 105.704 113.9 105.563 113.947C105.516 113.947 105.469 113.978 105.453 113.978C105.406 113.994 105.391 114.025 105.406 114.01C105.124 114.465 104.387 114.041 104.669 113.586C105.077 112.943 105.987 112.959 106.661 112.975C107.523 112.99 108.386 113.116 109.233 113.1C110.08 113.1 111.005 112.943 111.774 112.551C112.636 112.112 113.201 111.359 113.608 110.497C114.675 108.254 114.471 105.651 114.299 103.251C114.126 100.852 113.906 98.2485 114.863 95.9745C115.71 93.9671 117.451 92.587 119.019 91.1599C120.713 89.623 122.14 87.8038 122.814 85.5925C123.504 83.3655 123.395 80.9974 122.626 78.8018C121.889 76.6846 120.619 74.8027 119.442 72.9051C118.172 70.8506 116.933 68.7491 116.463 66.3653C116.024 64.0913 116.306 61.7702 116.541 59.4805C116.573 59.1041 116.619 58.7121 116.667 58.3357C115.475 56.0616 115.145 53.3799 115.145 50.7922C115.145 44.6132 116.18 42.5587 114.722 37.0384C114.518 37.3834 114.189 37.65 113.859 37.9009C113.561 38.1205 113.263 38.3243 113.044 38.6223C112.746 39.0301 112.511 39.4849 112.369 39.9711C112.228 40.4572 112.103 40.9747 112.134 41.4766C112.166 42.0255 112.338 42.543 112.417 43.0762C112.495 43.5781 112.526 44.08 112.385 44.5818C112.275 44.9896 112.072 45.5228 111.711 45.7894C111.617 45.8521 111.538 45.7424 111.554 45.6639C111.601 45.3816 111.774 45.1307 111.883 44.8641C111.977 44.5975 112.04 44.3152 112.056 44.0329C112.071 43.4213 111.852 42.841 111.648 42.2764C111.429 41.6648 111.287 41.0532 111.35 40.3945C111.413 39.8299 111.601 39.281 111.852 38.7791C112.087 38.3243 112.385 37.9009 112.793 37.5716C113.154 37.2736 113.561 37.054 113.906 36.7404C114.189 36.4738 114.251 36.1758 114.236 35.7994C114.236 35.7053 114.236 35.6112 114.236 35.5014C112.871 32.7412 107.194 27.1111 100.654 24.8998C100.592 24.8841 100.545 24.8528 100.498 24.8214C100.419 24.7273 100.498 24.5705 100.56 24.4764L100.545 24.4607Z" fill="#FF8E6A" stroke="#D43300"/>
<path d="M89.9428 29.4476C90.0369 29.4006 90.1624 29.3693 90.2879 29.3849C90.7113 29.4163 90.7426 29.6829 90.9935 29.9338C91.6679 30.6082 92.6402 30.8591 93.5655 31.0316C95.275 31.361 97.0157 31.3453 98.7409 31.5805C99.5407 31.6903 100.309 31.8942 101.093 32.1137C102.034 32.3647 102.975 32.647 103.885 33.0077C104.779 33.3684 105.657 33.7918 106.394 34.4191C107.131 35.0308 107.57 35.7992 107.9 36.6932C108.652 38.7633 108.794 41.351 107.962 43.4054C107.837 43.7034 107.366 43.5779 107.476 43.2642C108.135 41.398 107.853 39.1553 107.178 37.3361C106.88 36.5206 106.457 35.7835 105.782 35.2033C105.108 34.623 104.246 34.2309 103.414 33.9173C102.536 33.5879 101.627 33.337 100.717 33.0861C99.9641 32.8822 99.2113 32.6783 98.4272 32.5842C96.7177 32.3803 94.9927 32.3961 93.3146 32.0824C92.405 31.9099 91.4798 31.6433 90.6799 31.1571C90.2408 30.8905 89.6134 30.5611 89.6291 30.0122C89.6291 29.7456 89.7546 29.5417 89.9428 29.4476Z" fill="#FF8E6A" stroke="#D43300"/>
<path d="M113.639 23.7557C113.937 23.5831 114.298 23.5047 114.612 23.6929C114.847 23.8341 114.957 24.0693 115.082 24.2889C115.443 24.5555 115.772 24.8378 116.102 25.1201C116.666 25.6062 117.184 26.1551 117.67 26.7354C118.548 27.8018 119.191 29.0251 120.038 30.1072C120.901 31.2207 122.092 31.8794 123.504 32.0205C124.853 32.1616 126.201 31.7853 127.487 31.3932C128.899 30.9541 130.42 30.3424 131.926 30.4679C132.004 30.4679 132.051 30.609 131.941 30.6247C130.546 30.8756 129.244 31.3148 127.927 31.8166C126.625 32.3028 125.323 32.789 123.927 32.8674C123.002 32.9144 122.045 32.8046 121.183 32.4596C121.183 32.5694 121.183 32.6635 121.183 32.7889C121.183 33.0712 121.183 33.3692 121.214 33.6515C121.277 34.1691 121.434 34.7023 121.763 35.11C122.045 35.4707 122.437 35.7217 122.798 36.004C123.19 36.3176 123.535 36.6626 123.786 37.1174C124.586 38.5132 124.837 40.3324 124.586 41.9164C124.461 42.7476 124.147 43.5631 123.473 44.0806C123.331 44.1904 123.19 43.9709 123.284 43.8454C124.319 42.6692 124.116 40.7401 123.739 39.3444C123.551 38.67 123.284 37.8859 122.767 37.3997C122.045 36.7253 121.151 36.3804 120.603 35.5178C120.289 35.0159 120.116 34.42 120.038 33.8397C119.991 33.5417 119.975 33.2281 119.975 32.9144C119.975 32.7733 119.975 32.6321 119.975 32.5067C119.975 32.2871 120.038 32.1459 120.116 31.9578C120.116 31.9421 120.132 31.9107 120.148 31.895C120.038 31.8009 119.913 31.7225 119.818 31.6127C118.799 30.6718 118.172 29.4015 117.372 28.288C116.87 27.6136 116.321 26.9863 115.71 26.406C115.067 25.7944 114.345 25.3239 113.655 24.775C113.31 24.5084 113.232 23.9909 113.655 23.74L113.639 23.7557Z" fill="#FF8E6A" stroke="#D43300"/>
<path d="M47.1446 72.2002C47.1446 71.8552 47.6777 71.8552 47.6934 72.2002C47.7248 73.4705 47.4424 74.8663 47.8502 76.0895C48.0227 76.6228 48.3521 76.9991 48.8226 77.2814C49.2461 77.5323 49.6851 77.7519 50.0458 78.1126C51.7082 79.7593 51.2534 82.3 50.4065 84.2289C50.1713 84.7465 49.9047 85.2483 49.6068 85.7345C49.3088 86.1893 49.0578 86.6284 48.4776 86.6911C48.2737 86.7068 48.1169 86.503 48.1169 86.3304C48.1012 85.8756 48.3835 85.5933 48.6187 85.2483C48.8854 84.8563 49.1205 84.4485 49.3401 84.0251C49.7792 83.1311 50.1243 82.1431 50.1713 81.1551C50.2027 80.1514 49.889 79.2261 49.0892 78.5831C48.7442 78.3008 48.3521 78.1126 48.0071 77.846C47.5837 77.501 47.3327 77.0148 47.1759 76.4973C46.7838 75.1015 47.1288 73.643 47.1759 72.2472L47.1446 72.2002Z" fill="#FF8E6A" stroke="#D43300"/>
<path d="M42.0472 113.21C42.502 112.99 42.8784 112.771 43.3645 112.661C43.8193 112.567 44.2898 112.489 44.7446 112.441C45.6072 112.332 46.4854 112.238 47.2696 111.814C48.1792 111.328 48.7595 110.481 49.4025 109.681C50.0298 108.897 50.7826 108.333 51.7549 108.035C52.4136 107.846 53.1036 107.737 53.778 107.705C54.3739 107.674 55.0012 107.548 55.409 108.082C55.5187 108.238 55.6442 108.411 55.6285 108.615C55.5815 108.96 54.4367 108.787 54.1701 108.803C53.5271 108.834 52.8841 108.913 52.2568 109.085C51.3629 109.321 50.7511 109.838 50.2022 110.56C49.5592 111.391 48.9163 112.206 47.991 112.739C47.1912 113.21 46.2502 113.351 45.3249 113.351C44.8387 113.351 44.3369 113.32 43.8507 113.32C43.5841 113.32 43.3176 113.351 43.0353 113.382C42.7373 113.398 42.4236 113.414 42.1413 113.492C41.9845 113.539 41.8747 113.288 42.0315 113.226L42.0472 113.21Z" fill="#FF8E6A" stroke="#D43300"/>
<path d="M65.9164 112.348C67.2964 112.269 68.5354 112.991 69.7744 113.477C71.029 113.963 72.4247 113.979 73.7421 113.9C75.0438 113.838 76.2514 113.681 77.4746 113.21C78.6351 112.771 79.7173 112.175 80.8622 111.705C81.5052 111.438 82.1482 111.219 82.8382 111.093C83.1989 111.03 83.5595 110.983 83.9202 110.952C84.2966 110.936 84.7671 110.874 85.0965 111.093C85.4101 111.297 85.3788 111.752 85.0965 111.924C85.0965 111.924 85.0808 111.924 85.0652 111.924C85.0338 111.924 85.0024 111.956 84.9711 111.956C84.6888 112.05 84.3908 112.003 84.0771 112.018C83.7792 112.018 83.4812 112.065 83.1832 112.128C82.5716 112.254 81.9756 112.442 81.411 112.661C80.2662 113.116 79.1684 113.696 78.0236 114.151C76.816 114.622 75.577 114.826 74.291 114.888C72.9737 114.935 71.5466 114.857 70.2919 114.434C68.8491 113.932 67.5003 112.818 65.9321 112.771C65.6498 112.771 65.6498 112.363 65.9321 112.348H65.9164Z" fill="#FF8E6A" stroke="#D43300"/>
<path d="M79.7963 100.255C79.9374 99.4868 80.0785 98.7183 80.2353 97.9656C80.5019 96.5855 80.7843 95.2054 81.145 93.8567C81.8193 91.3631 82.8387 88.9322 84.5638 87.0033C86.2419 85.1213 88.7197 84.6351 91.0878 84.149C92.1229 83.9294 93.1266 83.6785 94.0362 83.1453C94.8517 82.6591 95.5418 81.9691 95.9966 81.1379C96.4984 80.1812 96.5769 79.1305 96.5299 78.0797C96.4828 77.2015 96.8748 76.2134 97.5806 75.6645C97.6119 75.6488 97.6433 75.6175 97.6747 75.6332C97.706 75.6332 97.7218 75.6802 97.7218 75.7116C97.7531 75.8214 97.7531 75.9312 97.7531 76.041C97.7687 76.5428 97.8159 77.0289 97.8159 77.5308C97.8159 78.017 97.6433 78.4718 97.6433 78.9422C97.6433 79.648 97.5335 80.3537 97.2983 81.0124C96.5612 83.0198 94.8204 84.3999 92.813 85.0429C91.7309 85.3879 90.5861 85.5447 89.4883 85.8113C88.3905 86.078 87.2612 86.423 86.2889 87.0346C85.2695 87.6619 84.5011 88.6813 83.8581 89.6694C83.168 90.7358 82.6191 91.8963 82.1957 93.1039C81.6625 94.5624 81.3174 96.0679 80.9881 97.5735C80.7999 98.4047 80.6274 99.2359 80.4549 100.067C80.2824 100.914 80.1413 101.777 79.859 102.592C79.7806 102.812 79.4041 102.796 79.4355 102.529C79.4982 101.777 79.6708 101.039 79.7963 100.302V100.255Z" fill="#FF8E6A" stroke="#D43300"/>
<path d="M110.786 74.1592C110.896 73.1241 111.429 72.2616 112.166 71.5402C112.966 70.7404 113.985 70.0816 114.581 69.0936C114.926 68.4977 115.099 67.792 115.365 67.149C115.632 66.5373 115.977 65.612 116.651 65.3768C116.996 65.267 117.263 65.565 117.263 65.863C117.263 66.1923 117.075 66.4276 116.902 66.7098C116.745 66.9765 116.604 67.2587 116.463 67.541C116.212 68.1056 116.055 68.7016 115.804 69.2662C115.334 70.3326 114.44 71.0854 113.593 71.8225C112.887 72.4498 112.182 73.1085 111.915 74.0338C111.601 75.0845 111.852 76.2607 112.056 77.3115C112.338 78.8013 112.699 80.2598 112.872 81.7654C112.887 81.9379 112.605 81.9693 112.574 81.8124C112.307 80.4324 111.774 79.115 111.366 77.7819C111.021 76.6371 110.645 75.3981 110.77 74.1906L110.786 74.1592Z" fill="#FF8E6A" stroke="#D43300"/>
<path d="M89.3934 54.7909C91.2911 54.9634 92.4516 53.4892 93.3926 52.0778C93.8944 51.325 94.3648 50.5251 95.0078 49.8821C95.4156 49.4901 95.8704 49.1294 96.3722 48.8784C96.8427 48.6432 97.3603 48.5334 97.8308 48.3452C98.5836 48.0316 98.7404 47.0592 99.4461 46.6672C100.011 46.3535 100.591 47.0906 100.136 47.5611C99.6186 48.11 99.2893 48.8784 98.615 49.3019C98.1759 49.5842 97.6269 49.6312 97.1564 49.8351C96.6702 50.039 96.2312 50.337 95.8548 50.6977C94.4904 51.9837 93.6591 53.7558 92.0595 54.7752C91.1969 55.3241 90.2403 55.4653 89.2994 55.0732C89.1739 55.0261 89.2366 54.8066 89.3621 54.8223L89.3934 54.7909Z" fill="#FF8E6A" stroke="#D43300"/>
<path d="M116.07 47.4681C117.105 47.5622 118.109 48.0797 118.956 48.66C119.85 49.2716 120.54 49.9773 121.199 50.8399C121.403 51.1222 121.559 51.3888 121.873 51.577C122.312 51.8279 122.877 51.9063 123.363 51.922C124.539 51.9691 125.731 51.6868 126.907 51.9848C127.048 52.0161 126.986 52.2357 126.845 52.2043C125.621 52.0161 124.414 52.4866 123.175 52.4866C122.281 52.4866 121.434 52.2984 120.76 51.7024C120.43 51.4201 120.195 51.0281 119.897 50.6988C119.536 50.3224 119.144 49.9774 118.721 49.6794C117.937 49.1148 117.074 48.6757 116.133 48.4561C116.008 48.4718 115.851 48.4247 115.757 48.3306C115.741 48.3306 115.725 48.2993 115.71 48.2836C115.427 48.0013 115.616 47.421 116.055 47.4524L116.07 47.4681Z" fill="#FF8E6A" stroke="#D43300"/>
<path d="M43.9133 121.349C45.5757 121.349 47.0499 120.596 48.3829 119.639C48.9945 119.2 49.5435 118.667 50.1708 118.228C50.7667 117.805 51.4254 117.46 52.1154 117.24C53.6524 116.738 55.3932 116.942 56.9144 117.397C57.7456 117.648 58.4827 118.024 59.1727 118.542C59.8628 119.075 60.5372 119.749 61.3527 120.079C62.8582 120.706 64.5049 119.843 65.3832 118.604C65.4459 118.526 65.587 118.573 65.5557 118.683C65.195 119.985 63.658 120.784 62.3877 120.863C60.6469 120.973 59.5334 119.498 58.169 118.698C57.3692 118.228 56.4596 117.993 55.55 117.852C54.7188 117.726 53.8563 117.648 53.0251 117.82C51.4254 118.134 50.2962 119.185 49.073 120.173C49.465 120.094 49.9198 120.455 50.2492 120.627C50.7197 120.878 51.1901 121.082 51.7077 121.208C52.7898 121.474 53.9347 121.412 55.0011 121.819C56.6008 122.447 58.0436 123.748 58.9688 125.191C59.3452 125.787 59.7216 126.556 59.3766 127.246C59.3139 127.371 59.0943 127.277 59.1413 127.152C59.4393 126.32 58.5454 125.411 58.0279 124.878C57.3065 124.125 56.5067 123.435 55.5814 122.949C55.0325 122.666 54.4678 122.447 53.8562 122.321C53.1819 122.196 52.5075 122.18 51.8332 122.055C51.2058 121.945 50.6256 121.725 50.0453 121.443C49.6375 121.239 48.9475 121.02 48.7907 120.565C48.775 120.502 48.775 120.439 48.7907 120.377C48.1163 120.894 47.4106 121.349 46.6421 121.694C45.8109 122.07 44.8386 122.4 43.9133 122.306C43.2547 122.227 43.3488 121.318 43.9133 121.333V121.349Z" fill="#FF8E6A" stroke="#D43300"/>
<path d="M55.7541 98.4366C56.7578 98.5935 57.7615 98.813 58.7652 99.0012C59.7532 99.1894 60.7413 99.4089 61.6352 99.8794C62.5448 100.35 63.2192 101.071 63.7054 101.965C64.1602 102.828 64.6306 103.69 65.2422 104.443C65.8068 105.133 66.4969 105.651 67.3438 105.729C67.4065 105.635 67.532 105.572 67.6418 105.619C67.83 105.682 67.9867 105.698 68.1749 105.792C68.6611 106.058 68.3788 106.67 67.924 106.733C65.6814 107.015 64.2542 105.008 63.3917 103.236C62.9526 102.342 62.6075 101.448 61.7763 100.836C60.9451 100.224 59.9414 99.9422 58.9534 99.7069C57.8399 99.4403 56.6324 99.2835 55.6757 98.6562C55.5503 98.5777 55.6287 98.4052 55.7698 98.4209L55.7541 98.4366Z" fill="#FF8E6A" stroke="#D43300"/>
<path d="M49.9826 77.8145C50.9236 77.7989 51.8645 77.8773 52.8055 77.8145C53.7308 77.7518 54.5149 77.297 55.4245 77.1715C56.1459 77.0774 56.7105 77.3754 57.1967 77.8929C57.479 78.1909 58.0122 78.8339 57.7456 79.273C57.6986 79.3515 57.5574 79.3514 57.5417 79.2416C57.4163 78.7084 56.9928 78.3321 56.538 78.0498C55.9264 77.6734 55.3147 77.94 54.7188 78.2223C53.9973 78.5673 53.2446 78.7555 52.4448 78.8182C51.6293 78.881 50.8138 78.8339 49.9826 78.8653C49.2925 78.8966 49.2925 77.8145 49.9826 77.7989V77.8145Z" fill="#FF8E6A" stroke="#D43300"/>
<path d="M53.9347 61.9109C54.1543 62.2402 54.2954 62.5852 54.562 62.8832C54.813 63.1655 55.0952 63.4635 55.4246 63.6517C56.1303 64.0594 57.0556 63.9183 57.8084 64.2163C59.0944 64.7181 59.4707 65.9884 59.9099 67.196C60.0824 67.6822 59.3139 67.8861 59.1257 67.4156C58.9062 66.8196 58.718 66.1609 58.3573 65.6434C58.0436 65.1886 57.5888 65.0004 57.0713 64.922C56.2087 64.7652 55.3775 64.8279 54.6247 64.2947C54.2797 64.0437 53.9661 63.7458 53.6838 63.4008C53.4329 63.0871 53.1193 62.7107 53.0409 62.303C52.9468 61.7697 53.621 61.4404 53.9347 61.9266V61.9109Z" fill="#FF8E6A" stroke="#D43300"/>
<path d="M50.3278 94.8931C50.563 94.2658 50.8453 93.8424 51.4883 93.5444C52.3038 93.168 53.1978 93.0896 53.9976 92.6975C54.9072 92.2427 55.7855 91.6625 56.5382 90.9881C57.1812 90.4078 57.7458 89.7491 58.1065 88.965C58.4515 88.2436 58.6084 87.4438 58.6711 86.6596C58.8279 84.809 58.5613 82.9114 59.0789 81.0922C59.6121 79.226 60.9138 77.9243 62.5134 76.9206C63.9249 76.0423 65.4775 75.3679 66.7164 74.2388C69.1786 71.9961 69.9785 68.2166 68.4259 65.2368C67.4222 63.3078 65.7911 61.8337 64.3169 60.2654C63.6111 59.5126 62.9839 58.7128 62.4036 57.8659C61.8861 57.1131 61.4313 56.2035 61.9331 55.3252C62.0429 55.1371 62.3879 55.1998 62.3565 55.435C62.2781 56.1878 62.9211 56.9249 63.3759 57.4738C63.9562 58.1796 64.5522 58.901 65.1795 59.5753C66.4969 60.9554 67.924 62.2728 68.959 63.8881C69.9157 65.3937 70.4646 67.1345 70.3705 68.9223C70.2921 70.569 69.7745 72.2471 68.8335 73.6115C67.8769 74.9602 66.5753 75.9639 65.1481 76.7794C63.7053 77.6106 62.137 78.3477 61.0392 79.6337C60.5844 80.1512 60.2865 80.7472 60.0826 81.3745C60.161 81.4529 60.208 81.5627 60.208 81.7038C60.2237 82.4566 60.9765 83.178 61.4156 83.7426C62.0115 84.4954 62.6545 85.1541 63.3602 85.7971C64.0032 86.3773 64.7404 87.0203 65.0854 87.8358C65.4461 88.6984 65.5559 89.6394 65.6657 90.5803C65.7911 91.6938 65.6343 92.7603 65.0383 93.7169C64.9442 93.8581 64.7403 93.7326 64.8187 93.5915C65.4147 92.3368 65.2579 91.0822 64.9599 89.7648C64.8345 89.2003 64.6933 88.5886 64.364 88.0868C64.066 87.632 63.7053 87.2399 63.2975 86.8635C62.435 86.0794 61.494 85.3736 60.7098 84.5111C60.3805 84.1504 60.0042 83.7426 59.7062 83.2721C59.6435 83.7897 59.6121 84.3072 59.5807 84.8091C59.4709 86.4401 59.3455 88.1025 58.5143 89.561C58.0281 90.3765 57.3537 91.0508 56.6323 91.6468C55.8011 92.3211 54.9072 92.9327 53.9192 93.3562C53.4644 93.5601 52.9782 93.6698 52.5077 93.7953C52.0843 93.9051 51.5511 94.0463 51.2217 94.3599C51.0178 94.5481 50.9238 94.8774 50.8454 95.1284C50.7983 95.2852 50.7512 95.4577 50.7199 95.6302C50.7199 95.6773 50.7198 95.74 50.7042 95.7871C50.7042 95.8027 50.7042 95.8184 50.7042 95.8341C50.7042 95.8184 50.6728 95.8027 50.6258 95.7714C50.6571 95.787 50.6885 95.8184 50.7042 95.8341C50.7355 95.8812 50.7042 95.8812 50.7042 95.8341C50.8767 96.0537 50.6101 96.43 50.3121 96.2732C49.8887 96.038 50.218 95.2068 50.3435 94.8931H50.3278Z" fill="#FF8E6A"/>
<path d="M50.7042 95.8341C50.7042 95.8184 50.7042 95.8027 50.7042 95.7871C50.7198 95.74 50.7199 95.6773 50.7199 95.6302C50.7512 95.4577 50.7983 95.2852 50.8454 95.1284C50.9238 94.8774 51.0178 94.5481 51.2217 94.3599C51.5511 94.0463 52.0843 93.9051 52.5077 93.7953C52.9782 93.6698 53.4644 93.5601 53.9192 93.3562C54.9072 92.9327 55.8011 92.3211 56.6323 91.6468C57.3537 91.0508 58.0281 90.3765 58.5143 89.561C59.3455 88.1025 59.4709 86.4401 59.5807 84.8091C59.6121 84.3072 59.6435 83.7897 59.7062 83.2721C60.0042 83.7426 60.3805 84.1504 60.7098 84.5111C61.494 85.3736 62.435 86.0794 63.2975 86.8635C63.7053 87.2399 64.066 87.632 64.364 88.0868C64.6933 88.5886 64.8345 89.2003 64.9599 89.7648C65.2579 91.0822 65.4147 92.3368 64.8187 93.5915C64.7403 93.7326 64.9442 93.8581 65.0383 93.7169C65.6343 92.7603 65.7911 91.6938 65.6657 90.5803C65.5559 89.6394 65.4461 88.6984 65.0854 87.8358C64.7404 87.0203 64.0032 86.3773 63.3602 85.7971C62.6545 85.1541 62.0115 84.4954 61.4156 83.7426C60.9765 83.178 60.2237 82.4566 60.208 81.7038C60.208 81.5627 60.161 81.4529 60.0826 81.3745C60.2865 80.7472 60.5844 80.1512 61.0392 79.6337C62.137 78.3477 63.7053 77.6106 65.1481 76.7794C66.5753 75.9639 67.8769 74.9602 68.8335 73.6115C69.7745 72.2471 70.2921 70.569 70.3705 68.9223C70.4646 67.1345 69.9157 65.3937 68.959 63.8881C67.924 62.2728 66.4969 60.9554 65.1795 59.5753C64.5522 58.901 63.9562 58.1796 63.3759 57.4738C62.9211 56.9249 62.2781 56.1878 62.3565 55.435C62.3879 55.1998 62.0429 55.1371 61.9331 55.3252C61.4313 56.2035 61.8861 57.1131 62.4036 57.8659C62.9839 58.7128 63.6111 59.5126 64.3169 60.2654C65.7911 61.8337 67.4222 63.3078 68.4259 65.2368C69.9785 68.2166 69.1786 71.9961 66.7164 74.2388C65.4775 75.3679 63.9249 76.0423 62.5134 76.9206C60.9138 77.9243 59.6121 79.226 59.0789 81.0922C58.5613 82.9114 58.8279 84.809 58.6711 86.6596C58.6084 87.4438 58.4515 88.2436 58.1065 88.965C57.7458 89.7491 57.1812 90.4078 56.5382 90.9881C55.7855 91.6625 54.9072 92.2427 53.9976 92.6975C53.1978 93.0896 52.3038 93.168 51.4883 93.5444C50.8453 93.8424 50.563 94.2658 50.3278 94.8931H50.3435C50.218 95.2068 49.8887 96.038 50.3121 96.2732C50.6101 96.4301 50.8767 96.0537 50.7042 95.8341ZM50.7042 95.8341C50.7042 95.8184 50.6728 95.8027 50.6258 95.7714C50.6571 95.787 50.6885 95.8184 50.7042 95.8341ZM50.7042 95.8341C50.7355 95.8812 50.7042 95.8812 50.7042 95.8341Z" stroke="#D43300"/>
<path d="M50.6885 95.8184V95.8335V95.8184Z" fill="#FF8E6A" stroke="#D43300"/>
<path d="M77.208 77.4209C78.9017 77.17 80.5954 75.586 80.517 73.7981C80.5013 73.2963 80.3132 72.7945 80.2347 72.3083C80.1406 71.6967 80.1249 71.085 80.1093 70.4734C80.0936 69.4383 79.9995 68.2464 80.4543 67.2898C80.6425 66.8663 80.9718 66.5527 81.3169 66.2547C81.4894 66.0978 81.6619 65.9567 81.8187 65.7999C81.8815 65.7372 81.9285 65.6901 81.9755 65.6117C82.0069 65.5646 82.0226 65.5019 82.0226 65.5646C82.101 64.7962 83.1204 64.7962 83.2145 65.5646C83.3243 66.4429 82.2422 67.0388 81.7403 67.5877C81.5365 67.823 81.4109 68.2307 81.3953 68.6071C81.3482 69.2501 81.3169 69.8931 81.3169 70.5361C81.3169 71.1791 81.3639 71.8378 81.411 72.4808C81.4423 73.0454 81.5365 73.5629 81.4424 74.1118C81.3012 75.0371 80.7837 75.8683 80.078 76.4799C79.2624 77.2013 78.3058 77.562 77.2237 77.6404C77.0982 77.6404 77.0668 77.4366 77.1923 77.4209H77.208Z" fill="#FF8E6A" stroke="#D43300"/>
<path d="M76.3144 35.6892C76.487 35.0933 77.3181 35.2344 77.3652 35.8304C77.3965 36.2381 77.428 36.6145 77.6318 36.9752C77.8357 37.336 78.1336 37.6339 78.4473 37.9005C79.106 38.4808 79.8901 38.9042 80.6115 39.4218C82.3053 40.645 83.6697 42.7779 83.654 44.9265C83.654 45.4597 83.5913 46.0086 83.4188 46.5104C83.2777 46.9338 83.0581 47.4514 82.6347 47.6396C82.5249 47.6866 82.3837 47.5769 82.4621 47.4671C83.5442 45.8047 82.8542 43.5464 81.8034 42.0565C81.2389 41.241 80.4704 40.6137 79.6392 40.0961C78.8707 39.61 78.0709 39.1395 77.4123 38.5278C76.6595 37.8221 76.0322 36.7557 76.3301 35.7049L76.3144 35.6892Z" fill="#FF8E6A" stroke="#D43300"/>
<path d="M100.968 40.7232C101.219 40.1429 101.846 39.9077 102.41 39.7665C103.132 39.594 103.885 39.547 104.606 39.3902C104.888 39.3274 105.171 39.2647 105.406 39.1078C105.641 38.951 105.845 38.7001 106.017 38.4805C106.347 38.0414 106.911 37.2573 106.723 36.6927C106.66 36.5045 106.77 36.285 106.927 36.1909C106.958 36.1752 107.005 36.1595 107.037 36.1438C107.272 36.0811 107.507 36.2222 107.57 36.4574C107.743 37.022 107.507 37.6494 107.241 38.1512C106.958 38.6844 106.551 39.1863 106.08 39.5627C105.202 40.2684 103.885 40.1116 102.818 40.237C102.269 40.2997 101.548 40.3939 101.218 40.8957C101.109 41.0525 100.889 40.9114 100.968 40.7389V40.7232Z" fill="#FF8E6A" stroke="#D43300"/>
<path d="M102.443 54.9005C102.913 54.822 103.305 55.3082 103.572 55.6376C103.885 56.0296 104.136 56.4531 104.481 56.8295C105.25 57.692 106.253 58.2723 107.21 58.931C108.825 60.0288 110.535 61.597 110.786 63.6515C110.927 64.7806 110.503 65.8785 109.766 66.7254C109.61 66.9135 109.359 66.6469 109.5 66.4587C110.08 65.7216 110.347 64.6082 110.158 63.6829C109.97 62.789 109.39 61.9264 108.763 61.2834C107.383 59.8563 105.485 59.1035 104.073 57.7234C103.681 57.347 103.383 56.9079 103.085 56.4531C102.944 56.2335 102.819 56.0139 102.662 55.8257C102.505 55.6376 102.286 55.4807 102.223 55.2455C102.192 55.1043 102.27 54.9161 102.427 54.8848L102.443 54.9005Z" fill="#FF8E6A" stroke="#D43300"/>
<path d="M102.772 86.2832C103.43 86.2832 104.011 86.7066 104.654 86.8007C105.265 86.8948 105.877 86.8478 106.488 86.8948C107.539 86.9575 108.496 87.2398 109.311 87.9299C109.845 88.3847 110.346 88.8866 110.786 89.4198C111.036 89.7177 111.648 90.4862 111.178 90.8312C111.084 90.9096 110.958 90.7998 110.958 90.7057C110.958 90.5175 110.786 90.3451 110.676 90.2039C110.488 89.9687 110.252 89.7491 110.033 89.5452C109.625 89.1688 109.202 88.8081 108.731 88.4788C107.916 87.9142 106.943 87.8201 105.971 87.8358C105.391 87.8358 104.826 87.8515 104.262 87.7417C103.697 87.6319 103.195 87.3496 102.646 87.1928C102.144 87.036 102.238 86.2832 102.772 86.2832Z" fill="#FF8E6A" stroke="#D43300"/>
<path d="M92.7816 96.9477C93.5971 96.6967 94.5067 96.7594 95.3222 96.979C96.3572 97.2613 97.2982 97.873 98.2549 98.3435C98.8194 98.6257 99.3997 98.8767 99.9956 99.1119C100.607 99.3471 101.172 99.4569 101.815 99.4569C102.458 99.4569 102.458 100.461 101.815 100.461C101.235 100.461 100.654 100.414 100.09 100.21C99.5566 100.022 99.0391 99.802 98.5215 99.5667C97.957 99.3158 97.4237 99.0492 96.8748 98.7669C96.42 98.5316 95.9651 98.265 95.4947 98.0611C94.836 97.7788 94.0675 97.6691 93.3461 97.7318C93.0011 97.7632 92.6561 97.8416 92.3425 97.9984C92.0131 98.1553 91.7779 98.4062 91.4643 98.5944C91.3702 98.6571 91.2604 98.5787 91.2604 98.4846C91.2447 97.7161 92.1229 97.1672 92.7816 96.9634V96.9477Z" fill="#FF8E6A" stroke="#D43300"/>
<path d="M123.128 63.3078C123.316 62.9001 123.85 62.7119 124.195 62.4453C124.587 62.1159 124.947 61.7552 125.355 61.4259C126.061 60.877 126.861 60.5163 127.77 60.4379C128.79 60.3594 129.746 60.6731 130.672 61.0809C131.424 61.4102 132.177 61.8337 133.008 61.8807C133.792 61.9278 134.765 61.8023 135.251 61.1122C135.298 61.0495 135.408 61.0809 135.392 61.175C135.016 62.508 132.993 62.6492 131.895 62.4139C130.907 62.21 129.997 61.7552 129.025 61.5357C128.131 61.3318 127.237 61.4416 126.453 61.9278C125.982 62.2257 125.59 62.6178 125.183 62.9942C124.947 63.1981 124.712 63.4019 124.461 63.5744C124.257 63.7156 124.038 63.8881 123.818 64.0135C123.348 64.2488 122.924 63.7783 123.128 63.3235V63.3078Z" fill="#FF8E6A" stroke="#D43300"/>
<path d="M61.2115 95.2214C61.4938 94.3902 61.2115 93.2454 60.4431 92.7592C60.4117 92.7435 60.4431 92.6965 60.4745 92.7121C61.2116 93.0258 61.4938 93.8256 61.5722 94.5627C61.6192 95.0018 61.5409 95.4252 61.3527 95.8173C61.1645 96.2251 60.8665 96.6172 60.7567 97.0563C60.5842 97.7777 61.1644 98.3736 61.5879 98.8911C61.9015 99.2675 62.7799 100.365 62.1525 100.789C62.0584 100.852 61.9487 100.836 61.8546 100.789C61.588 100.648 61.5879 100.224 61.4468 99.9733C61.29 99.6753 61.0704 99.4087 60.8822 99.1264C60.5058 98.6089 60.1137 98.0443 60.1451 97.3699C60.1921 96.5073 60.9292 95.9742 61.1958 95.2057L61.2115 95.2214Z" fill="#FF8E6A" stroke="#D43300"/>
<path d="M67.8763 120.753C68.3468 121.177 69.1466 121.114 69.7112 120.957C70.3072 120.801 70.8404 120.471 70.9972 119.844C71.2011 119.06 70.9658 118.197 70.9972 117.397C71.0443 116.707 71.2325 116.143 71.6246 115.578C71.9069 115.186 72.4401 114.324 73.0361 114.465C73.334 114.543 73.4752 114.967 73.2242 115.186C73.1772 115.217 72.989 115.327 73.0361 115.312C73.0988 115.28 72.9733 115.359 73.0047 115.343C72.9576 115.39 72.8321 115.515 72.7537 115.594C72.5655 115.798 72.393 116.033 72.2362 116.268C71.8128 116.927 71.8128 117.711 71.8285 118.479C71.8285 119.264 71.8284 120.063 71.3266 120.706C70.9032 121.24 70.2445 121.459 69.5858 121.506C68.9428 121.553 68.0645 121.491 67.6882 120.879C67.6254 120.769 67.7665 120.675 67.8449 120.753H67.8763Z" fill="#FF8E6A" stroke="#D43300"/>
<path d="M88.453 107.486C88.9862 107.11 89.7076 107.423 90.2251 107.69C90.8054 107.972 91.3701 108.302 91.8562 108.741C92.9227 109.697 93.6597 110.999 94.193 112.317C94.4439 112.944 94.6948 113.587 95.0555 114.151C95.4476 114.763 96.0435 115.265 96.6395 115.673C97.8157 116.52 99.2115 117.21 100.576 117.649C101.391 117.915 102.191 118.009 103.038 117.837C103.461 117.743 103.932 117.633 104.324 117.429C104.669 117.257 104.983 117.053 105.343 116.943C105.469 116.912 105.532 117.084 105.438 117.147C105.14 117.351 104.904 117.602 104.638 117.821C104.355 118.041 104.026 118.198 103.697 118.323C103.007 118.605 102.238 118.794 101.485 118.715C100.027 118.558 98.6155 117.868 97.3295 117.194C96.0435 116.52 94.7575 115.579 94.0204 114.308C93.6597 113.697 93.4401 113.022 93.1578 112.364C92.8912 111.705 92.5306 111.109 92.1228 110.529C91.668 109.886 91.1348 109.305 90.4447 108.913C89.8801 108.584 89.3312 108.255 88.6569 108.27C88.2021 108.27 88.1236 107.706 88.4373 107.486H88.453Z" fill="#FF8E6A" stroke="#D43300"/>
<path d="M105.312 105.368C106.551 104.255 108.433 104.992 109.656 105.729C110.362 106.153 110.895 106.717 111.491 107.266C111.852 107.595 112.26 107.909 112.746 108.035C113.248 108.16 113.671 107.988 114.079 107.721C114.079 107.721 114.079 107.69 114.095 107.69C114.095 107.69 114.095 107.69 114.095 107.674C114.33 107.376 114.863 107.627 114.847 107.988C114.816 108.536 114.032 108.834 113.561 108.913C113.091 108.991 112.605 108.913 112.165 108.709C111.287 108.286 110.817 107.454 110.127 106.811C109.06 105.792 106.865 104.412 105.453 105.557C105.328 105.666 105.14 105.478 105.265 105.368H105.312Z" fill="#FF8E6A" stroke="#D43300"/>
<path d="M126.562 95.112C126.955 95.1433 127.362 95.0806 127.739 95.0492C128.131 95.0022 128.523 94.9865 128.899 94.8296C129.746 94.5003 130.091 93.6221 130.546 92.9163C131.016 92.1635 131.644 91.5519 132.475 91.2226C133.479 90.8305 134.529 91.0971 135.565 91.1128C135.69 91.1128 135.737 91.3324 135.596 91.348C134.545 91.4892 133.416 91.2696 132.459 91.8342C131.628 92.3204 131.236 93.1046 130.828 93.9358C130.421 94.7356 129.872 95.4099 129.009 95.7236C128.617 95.8647 128.178 95.8804 127.754 95.9275C127.362 95.9745 126.97 96.0372 126.578 96.0059C126.014 95.9588 126.014 95.0806 126.578 95.1276L126.562 95.112Z" fill="#FF8E6A" stroke="#D43300"/>
<path d="M81.1454 60.3907C81.1454 60.3907 81.161 60.3907 81.1767 60.3907C81.3492 60.3907 81.4591 60.4377 81.5375 60.5318C81.5375 60.5318 81.6786 60.5789 81.7257 60.5946C81.8668 60.6416 82.0236 60.6887 82.1647 60.72C82.4627 60.7984 82.7607 60.8769 83.0587 60.9396C83.6076 61.0651 84.1722 61.1748 84.7367 61.2689C85.8032 61.4414 86.8696 61.614 87.9517 61.7394C89.4259 61.912 90.9786 62.0688 92.2489 62.8843C93.0487 63.4018 93.6917 64.1232 94.2092 64.9231C94.3974 65.2054 93.9426 65.4719 93.7544 65.1896C93.2839 64.4682 92.7194 63.8253 91.9509 63.3861C91.3236 63.0254 90.6335 62.8686 89.9278 62.7745C89.1436 62.6647 88.3595 62.6334 87.5753 62.5549C86.4775 62.4452 85.3954 62.304 84.3133 62.1158C83.686 62.006 83.0587 61.8806 82.4471 61.7238C82.1334 61.6453 81.8197 61.5512 81.4904 61.4571C81.2394 61.3787 80.9102 61.316 80.769 61.065C80.5965 60.7357 80.8161 60.4064 81.1611 60.375L81.1454 60.3907Z" fill="#FF8E6A" stroke="#D43300"/>
<path d="M51.6926 24.6797C52.4454 24.1622 53.4021 23.974 54.296 23.8328C55.2213 23.6917 56.1465 23.6446 57.0718 23.676C58.9381 23.7387 60.7887 24.0524 62.5608 24.6326C64.2703 25.1815 66.0111 25.8088 67.6578 26.5616C69.1319 27.236 70.512 28.0672 71.9705 28.7572C73.335 29.4002 74.8249 29.9491 76.3618 29.9491C77.8987 29.9491 79.3885 29.3689 80.5961 28.4436C81.7723 27.5496 82.682 26.3421 83.3093 25.009C83.9523 23.6289 84.1091 22.092 84.2503 20.6021C84.4228 18.6575 84.4228 16.7128 84.1876 14.7681C84.0778 13.9056 83.9209 13.0116 83.6386 12.1805C83.5288 11.8511 83.2779 11.4747 83.2779 11.1297C83.2779 11.0356 83.2465 10.7533 83.3563 10.6906C83.3877 10.6906 83.419 10.6749 83.4347 10.6906C83.4504 10.6906 83.4661 10.7219 83.4661 10.7376C83.4661 10.7376 83.4975 10.769 83.5132 10.7847C83.5446 10.7847 83.6072 10.8788 83.6386 10.8944C83.7484 10.9885 83.8112 11.067 83.8896 11.2081C84.0621 11.5218 84.2189 11.8511 84.36 12.1805C84.6737 12.9332 84.8776 13.733 85.0187 14.5485C85.3324 16.2736 85.3324 18.0459 85.2383 19.7867C85.1912 20.6335 85.1128 21.4804 85.003 22.3273C84.9089 23.0957 84.7992 23.8485 84.5639 24.5699C84.0934 26.0441 83.2466 27.3772 82.1488 28.4593C81.051 29.5571 79.6866 30.4039 78.1967 30.796C76.6284 31.2038 74.9817 31.0469 73.4604 30.5294C71.9078 30.0118 70.4493 29.212 69.0222 28.4279C67.5166 27.5967 65.9797 26.9066 64.3801 26.2793C62.3727 25.4795 60.3496 24.7738 58.201 24.5229C57.1346 24.3974 56.0525 24.366 54.9704 24.4444C54.4528 24.4915 53.9353 24.5542 53.4178 24.664C52.8689 24.7895 52.3513 24.9463 51.7867 25.0404C51.5828 25.0717 51.4574 24.8208 51.6456 24.6953L51.6926 24.6797Z" fill="#FF8E6A" stroke="#D43300"/>
<path d="M20.5303 78.2836C21.4399 77.4995 22.4123 76.7938 23.5728 76.4174C24.7176 76.041 25.9566 76.0253 27.1642 76.0567C29.4069 76.1351 31.7122 76.3704 33.9391 75.8999C34.8801 75.696 35.7898 75.3666 36.5739 74.8177C37.3895 74.2375 38.0167 73.4219 38.4558 72.528C38.7381 71.9478 38.942 71.3361 39.1459 70.7245C39.3811 70.0031 39.6164 69.2817 39.8516 68.5603C40.1966 67.5095 40.526 66.4588 40.8396 65.408C40.7299 65.4864 40.6044 65.5805 40.4947 65.659C40.1496 65.9099 39.8045 66.1451 39.4281 66.3176C38.9733 66.5215 38.4558 66.5529 37.954 66.5372C36.8718 66.4902 35.8211 66.3333 34.7547 66.6783C33.8764 66.9606 33.3432 67.5252 32.7629 68.1839C32.4806 68.4975 32.1827 68.8112 31.8377 69.0621C31.6338 69.2189 31.3672 69.4228 31.1162 69.2974C31.0535 69.266 31.0535 69.1719 31.1162 69.1249C31.6181 68.8426 31.9318 68.2466 32.2612 67.8075C32.7003 67.2272 33.1079 66.6783 33.7353 66.3019C34.5508 65.8158 35.5388 65.6276 36.4798 65.5962C37.3266 65.5649 38.346 65.8628 39.1302 65.4551C39.585 65.2198 39.9457 64.8748 40.3692 64.5925C40.7456 64.3416 41.0121 64.2004 41.2003 63.7613C41.7806 62.4439 42.0158 60.9384 42.2824 59.527C42.4236 58.7742 42.5334 58.0057 42.6275 57.2372C42.6746 56.8452 42.7059 56.4688 42.7529 56.0767C42.7686 55.8885 42.7843 55.6846 42.8 55.4965C42.8 55.3867 42.7687 55.0417 42.8314 54.9632C42.6589 55.1828 42.455 55.371 42.2354 55.5435C41.1063 56.4374 39.6634 56.8922 38.2676 57.1902C36.9346 57.4725 35.5702 57.5823 34.2058 57.7391C33.1237 57.8646 32.0573 58.1782 31.0536 58.633C30.4576 58.8996 29.893 59.1662 29.3912 59.5583C28.8893 59.9504 28.7011 60.6875 28.607 61.2991C28.4659 62.2401 28.3718 63.1968 28.2307 64.1377C28.0425 65.3453 27.8856 66.5529 27.666 67.7605C27.368 69.4228 26.9916 71.3989 25.6115 72.5437C25.4077 72.7162 25.1254 72.4339 25.3293 72.2614C26.0036 71.6655 26.3016 70.7872 26.5055 69.9404C26.725 69.0621 26.8349 68.1682 26.9289 67.2743C27.0701 66.0981 27.1799 64.9375 27.3367 63.7613C27.3994 63.2908 27.4465 62.8204 27.5406 62.3656C27.572 62.2087 27.6974 61.9107 27.5876 61.7539C27.3524 61.4402 27.0387 62.0519 26.9446 62.2087C26.4271 62.9929 25.8939 63.8084 25.1882 64.4514C24.8902 64.718 24.5765 64.9532 24.2001 65.0944C24.0904 65.1414 23.9962 64.9689 24.0747 64.8905C25.4861 63.6358 26.1448 61.7853 27.3053 60.3268C28.56 58.7585 30.5987 57.7548 32.4806 57.1902C33.8607 56.7667 35.335 56.6883 36.7621 56.4217C38.1422 56.1708 39.585 55.8728 40.8396 55.1985C41.7492 54.6966 42.3609 53.9595 42.7373 53.0029C43.1451 51.9678 43.145 50.8387 43.443 49.7722C43.7566 48.596 44.2898 47.4668 45.1053 46.5416C45.8581 45.679 46.8461 45.0674 47.8655 44.5812C49.1358 43.9852 50.4533 43.4834 51.7549 42.9659C54.9386 41.6799 58.1535 40.4723 61.3528 39.249C62.435 38.8256 63.517 38.4805 64.6148 38.1355C65.5715 37.8375 66.6223 37.4769 67.3437 36.7398C67.6731 36.3947 67.8769 36.0026 67.9553 35.5322C68.0023 35.2969 68.3474 35.4067 68.316 35.6263C68.0338 37.6807 65.6028 38.3864 63.9405 38.951C62.6858 39.3744 61.4626 39.9234 60.2393 40.4409C58.671 41.0996 57.1028 41.7583 55.5345 42.417C53.9505 43.0913 52.3666 43.75 50.7669 44.4244C49.6691 44.8948 48.5556 45.3183 47.5206 45.9299C46.5639 46.4945 45.7641 47.2472 45.1995 48.2196C44.4624 49.5056 44.1644 51.0111 44.0389 52.4853C43.8978 54.0379 43.9135 55.5905 43.7566 57.1431C43.5998 58.6487 43.3175 60.1229 42.9882 61.5971C42.2825 64.6395 41.3258 67.6193 40.3535 70.5834C39.9457 71.8066 39.585 73.0299 38.8479 74.0963C38.2519 74.9432 37.4992 75.6646 36.6052 76.1665C34.786 77.1858 32.6061 77.3583 30.5517 77.3427C29.3441 77.3427 28.1522 77.2486 26.9446 77.2172C25.7841 77.1859 24.6079 77.2172 23.5101 77.672C22.5064 78.0797 21.6438 78.8012 20.8597 79.5383C20.2324 80.1342 19.3698 80.934 19.213 81.8436C19.166 82.1416 19.2443 82.4709 19.4639 82.7689C19.6991 83.0983 19.2444 83.4747 18.9307 83.3022C16.7194 82.0319 19.3855 79.3501 20.5146 78.362L20.5303 78.2836Z" fill="#FF8E6A" stroke="#D43300"/>
<path d="M23.7301 100.225C24.2477 99.425 25.0318 98.8134 25.8473 98.3429C26.6942 97.8567 27.5881 97.4803 28.4663 97.0726C29.3445 96.6491 30.1601 96.1316 30.9756 95.5827C32.5909 94.5006 34.2063 93.1362 34.2063 91.0347C34.2063 89.7957 33.8455 88.5254 33.4848 87.3492C33.1241 86.1259 32.6379 84.934 32.0733 83.7892C31.9792 83.601 32.2145 83.3971 32.3713 83.5539C33.0927 84.3851 33.579 85.3888 34.0024 86.3925C34.4572 87.4903 34.8336 88.6195 35.0531 89.78C35.257 90.8464 35.2884 91.9442 34.8806 92.9636C34.5042 93.936 33.8455 94.7358 33.0614 95.4101C31.5244 96.7275 29.768 97.7469 27.9488 98.5938C26.3492 99.3466 24.4358 100.272 24.2633 102.264C24.1692 103.361 24.6397 104.271 25.1886 105.181C25.4552 105.62 25.7218 106.043 25.9414 106.514C26.1923 107.047 26.4432 107.611 26.208 108.192C26.0668 108.537 25.6591 108.599 25.4395 108.286C25.1572 107.909 25.0789 107.486 24.8907 107.078C24.7025 106.67 24.4515 106.278 24.2163 105.886C23.7301 105.087 23.2596 104.255 23.1185 103.314C22.9617 102.264 23.1499 101.119 23.7301 100.225Z" fill="#FF8E6A" stroke="#D43300"/>
<path d="M90.6797 14.4079C91.1972 14.0943 91.7774 13.9689 92.3734 13.9061C93.6751 13.765 95.0394 14.0472 96.2784 14.4236C97.4546 14.7687 98.6309 15.2392 99.6816 15.8665C101.03 16.6663 102.222 17.7484 103.775 18.1091C105.72 18.5639 107.476 17.3877 108.934 16.2586C109.076 16.1488 109.232 16.384 109.123 16.4938C107.931 17.6857 106.488 18.7835 104.763 18.9246C103.148 19.0658 101.595 18.2659 100.278 17.4191C99.7757 17.0897 99.2895 16.7447 98.7406 16.4781C98.2231 16.2115 97.6899 15.9919 97.141 15.8037C95.9178 15.3646 94.6317 15.0352 93.33 14.9882C92.7027 14.9725 92.1225 14.9882 91.5422 15.2391C91.4011 15.3019 91.1344 15.4744 91.009 15.5842C90.8051 15.7723 90.7267 16.0703 90.4287 16.2742C90.068 16.5251 89.5976 16.1801 89.5819 15.788C89.5662 15.2235 90.2249 14.6589 90.664 14.3923L90.6797 14.4079Z" fill="#FF8E6A" stroke="#D43300"/>
<path d="M74.15 13.4053C74.4166 13.8601 74.5264 14.3776 74.6205 14.8952C74.7302 15.4441 74.9028 15.993 75.0596 16.5262C75.3733 17.5613 75.828 18.4709 76.471 19.3335C77.0356 20.1333 77.7414 20.9174 78.5883 21.3879C79.5763 21.9368 80.7838 21.8584 81.8816 21.78C82.5717 21.7329 84.6261 21.7015 84.3282 22.8777C84.2497 23.16 83.9361 23.2698 83.6852 23.1287C83.4813 23.0189 83.1363 22.8307 82.7913 22.7994C82.3051 22.7366 81.7875 22.8307 81.3014 22.8621C80.1879 22.9091 79.0116 22.8307 78.0393 22.2348C77.1768 21.6859 76.5024 20.9017 75.9379 20.0549C75.3733 19.208 74.8871 18.3141 74.6205 17.3261C74.4636 16.7144 74.3382 16.0714 74.2284 15.4441C74.1186 14.8168 74.15 14.1424 73.8677 13.5465C73.7736 13.3583 74.0402 13.2014 74.15 13.3896V13.4053Z" fill="#FF8E6A" stroke="#D43300"/>
<path d="M94.9141 14.8307C95.1493 15.1286 95.2905 15.4893 95.51 15.7873C95.7139 16.0696 95.9335 16.3362 96.1844 16.5871C96.6862 17.1203 97.2665 17.5751 97.7841 18.1084C98.7878 19.1591 99.5562 20.5078 99.1171 21.982C99.07 22.1545 98.8034 22.0918 98.8505 21.9036C99.1485 20.4137 97.8939 19.1121 96.8117 18.2966C96.2628 17.8731 95.7139 17.4653 95.2121 16.9948C94.7416 16.5557 94.1927 15.9127 94.0045 15.2854C93.785 14.7836 94.522 14.2818 94.9455 14.8307H94.9141Z" fill="#FF8E6A" stroke="#D43300"/>
<path d="M111.476 20.4296C112.009 19.7238 112.652 19.1436 113.421 18.7201C114.22 18.281 115.099 17.889 115.946 17.5283C116.667 17.2146 117.624 16.9009 118.078 16.2266C118.188 16.0697 118.423 16.2109 118.329 16.3677C117.969 17.0107 117.294 17.4028 116.683 17.7635C115.946 18.1869 115.193 18.6104 114.471 19.0809C113.766 19.5357 113.123 20.0061 112.605 20.6805C112.15 21.2764 111.743 21.9351 111.743 22.7193C111.743 23.0329 111.476 23.2995 111.162 23.2995C110.817 23.2995 110.629 23.0329 110.582 22.7193C110.472 21.9195 110.99 21.0412 111.445 20.4296H111.476Z" fill="#FF8E6A" stroke="#D43300"/>
<path d="M41.8593 38.4332C42.6591 37.4922 43.4275 36.5042 44.3371 35.673C45.2624 34.8261 46.3132 34.1047 47.411 33.4931C49.6536 32.2698 52.1472 31.3916 54.5938 30.6702C57.1187 29.9174 59.7848 29.4469 62.4195 29.7449C64.9131 30.0428 67.2341 30.9995 69.4925 32.0346C70.7785 32.6149 72.033 33.2422 73.3347 33.7911C73.9306 34.042 74.558 34.1204 75.201 34.1988C75.5303 34.2458 75.8597 34.2929 76.1734 34.4027C76.5184 34.5125 76.7223 34.685 76.9261 34.9829C77.083 35.2025 76.8791 35.5475 76.6125 35.5318C76.0636 35.5005 75.5617 35.3437 75.0285 35.2496C74.4796 35.1712 73.8993 35.1241 73.3661 34.9359C72.2369 34.5595 71.1391 33.9792 70.057 33.4774C67.8771 32.458 65.6815 31.423 63.2977 30.9525C60.8041 30.4663 58.2479 30.7172 55.7857 31.3132C54.5154 31.6268 53.2764 32.0032 52.0374 32.4267C50.8769 32.8187 49.7164 33.2265 48.6029 33.744C47.3483 34.3243 46.1407 35.0143 45.0742 35.8926C44.0235 36.7551 43.0982 37.7588 42.1886 38.7625C41.9847 38.9821 41.6711 38.6527 41.8593 38.4332Z" fill="#FF8E6A" stroke="#D43300"/>
<path d="M32.0103 49.349C32.7944 48.6119 33.8138 48.3924 34.8332 48.1415C36.0094 47.8435 37.1543 47.4514 38.3305 47.1377C39.491 46.8398 40.6515 46.6202 41.8434 46.4634C42.408 46.385 42.9725 46.3379 43.5371 46.2909C44.1488 46.2439 44.7291 46.385 45.3407 46.3693C46.0464 46.3693 45.874 47.4201 45.2937 47.326C44.7605 47.326 44.2272 47.2005 43.6783 47.2162C43.1137 47.2319 42.5491 47.2789 41.9845 47.326C40.8083 47.4358 39.6478 47.6396 38.4873 47.9062C37.3581 48.1728 36.229 48.5178 35.0998 48.7688C34.5666 48.8785 34.0334 48.9727 33.5159 49.1295C33.2492 49.2079 33.0139 49.302 32.763 49.4275C32.5591 49.5216 32.371 49.6 32.1358 49.6C32.0103 49.6 31.9319 49.4275 32.026 49.3334L32.0103 49.349Z" fill="#FF8E6A" stroke="#D43300"/>
<path d="M42.675 59.3086C42.6437 59.0734 42.6437 58.8381 42.6907 58.5558C42.7692 58.0696 42.9731 57.6148 43.2083 57.1914C43.3494 57.8501 43.5533 58.4931 43.8513 59.0891C43.9767 59.3557 44.1022 59.6693 44.2904 59.8889C44.4786 60.1398 44.7922 60.328 45.0275 60.5319C45.4823 60.9083 45.9528 61.2062 46.439 61.6297C47.1447 62.2413 47.7093 63.0568 48.1327 63.888C48.5248 64.6878 48.7757 65.6288 48.4777 66.507C48.3679 66.8207 47.9131 66.6952 47.9916 66.3659C48.1954 65.519 47.6152 64.5781 47.1133 63.9351C46.6115 63.2921 46.0469 62.6961 45.3725 62.2413C44.808 61.8649 44.259 61.4728 43.7572 61.018C43.1926 60.5005 42.7848 59.9829 42.6907 59.2929L42.675 59.3086Z" fill="#FF8E6A" stroke="#D43300"/>
<path d="M23.7923 77.029C23.8864 76.8094 24.2627 76.6683 24.3725 76.9505C24.796 77.9386 24.9684 79.005 25.4075 79.993C25.8467 80.981 26.4427 81.8279 27.0543 82.7062C27.6816 83.6001 28.3559 84.541 28.6382 85.6075C28.9362 86.7523 28.7794 87.9756 28.45 89.0891C28.058 90.4064 27.4307 91.6297 26.8974 92.8843C26.8033 93.1196 26.4113 92.9471 26.4897 92.7118C27.2738 90.626 28.5284 88.1795 27.76 85.9054C27.4306 84.9017 26.725 84.0549 26.082 83.2394C25.439 82.4239 24.8274 81.5927 24.4039 80.636C23.9334 79.5696 23.3375 78.1738 23.7923 77.0133V77.029Z" fill="#FF8E6A" stroke="#D43300"/>
<path d="M28.1045 98.5154V98.4841C28.1359 98.5311 28.1672 98.5938 28.1986 98.6409C28.2456 98.7193 28.3241 98.7977 28.4025 98.8918C28.622 99.1427 28.8573 99.3936 29.1082 99.6289C29.5473 100.037 30.0021 100.444 30.3942 100.899C31.6175 102.326 32.0566 104.24 31.9625 106.075C31.9625 106.294 31.6331 106.294 31.6174 106.075C31.5861 104.177 30.7548 102.499 29.3277 101.244C28.8729 100.852 28.4181 100.476 27.9947 100.037C27.634 99.6603 27.0694 99.0957 27.1165 98.5154C27.1635 97.8881 28.0417 97.8881 28.0888 98.5154H28.1045Z" fill="#FF8E6A" stroke="#D43300"/>
<path d="M36.1197 81.3432C37.2645 80.3708 38.8328 80.1199 40.26 79.8219C41.0284 79.6651 41.7185 79.618 42.5026 79.7278C42.8476 79.7748 43.2083 79.8376 43.5533 79.916C43.8513 79.9944 44.118 80.0258 44.2748 80.3237C44.3375 80.4649 44.3218 80.6374 44.165 80.7158C43.8984 80.857 43.6945 80.7785 43.4122 80.7158C43.1143 80.6374 42.8006 80.5747 42.5026 80.5276C41.7969 80.4022 41.1068 80.4179 40.4011 80.4963C39.6797 80.5747 38.974 80.6844 38.2682 80.857C37.5939 81.0138 36.9038 81.2177 36.3236 81.6254C36.1667 81.7352 35.9628 81.4843 36.104 81.3432H36.1197Z" fill="#FF8E6A" stroke="#D43300"/>
<path d="M51.8961 49.9295C53.4016 48.4866 55.0797 47.2163 57.0244 46.4165C57.887 46.0558 58.922 45.6795 59.863 45.7108C60.7099 45.7422 61.5097 46.0558 62.3095 46.3067C62.7173 46.4322 63.125 46.5733 63.5484 46.6047C63.7366 46.6204 63.9249 46.6204 64.0974 46.5891C64.317 46.542 64.4895 46.4165 64.6934 46.3695C65.0854 46.2911 65.5873 46.7145 65.2736 47.1223C64.7561 47.8123 63.7053 47.7496 62.9682 47.6084C62.1527 47.4516 61.3999 47.1066 60.6001 46.9027C59.7218 46.6831 58.922 46.8556 58.0751 47.1379C57.1028 47.4516 56.1932 47.9064 55.3149 48.4396C54.3112 49.0513 53.386 49.757 52.5234 50.5568C52.1157 50.9332 51.504 50.3372 51.9118 49.9452L51.8961 49.9295Z" fill="#FF8E6A" stroke="#D43300"/>
<path d="M42.3455 29.1497C44.1177 27.8166 46.7837 27.9735 48.7441 28.8047C48.7754 28.8047 48.6814 28.7733 48.7755 28.8047C48.8225 28.8204 48.8696 28.836 48.9166 28.8674C49.0578 28.9144 49.1989 28.9772 49.34 29.0242C49.7007 29.1654 50.0614 29.3065 50.4378 29.4477C51.2533 29.7613 52.0688 30.0907 52.8687 30.4357C53.1666 30.5611 53.496 30.6866 53.7783 30.8748C53.9822 31.0159 54.2488 31.361 54.0606 31.6276C53.9978 31.7217 53.9038 31.7687 53.8097 31.7687C53.7626 31.7687 53.6998 31.7687 53.6528 31.7687C53.496 31.7687 53.3706 31.706 53.2294 31.6276C52.9628 31.5021 52.7119 31.3767 52.4453 31.2669C51.7396 30.9689 51.0338 30.6709 50.328 30.3886C49.7164 30.1377 49.1048 29.9025 48.5089 29.6202C47.709 29.2438 46.9092 28.9458 46.031 28.8361C44.8547 28.6949 43.5531 28.789 42.5337 29.4163C42.3455 29.5418 42.1886 29.2438 42.3611 29.1183L42.3455 29.1497Z" fill="#FF8E6A" stroke="#D43300"/>
<g opacity="0.1" style="mix-blend-mode:screen">
<path d="M109.688 50.1816C112.84 52.1262 114.863 55.796 114.832 59.4972C114.832 60.0931 114.769 60.7205 114.44 61.2223C114.11 61.7242 113.483 62.0692 112.918 61.881C112.558 61.7555 112.307 61.4575 112.072 61.1596C110.77 59.4345 109.939 57.2859 108.151 56.0626C107.335 55.5137 106.363 55.1844 105.689 54.4787C105.218 53.9925 104.92 53.3809 104.669 52.7536C104.246 51.7499 101.878 46.1824 103.728 46.0099C104.669 45.9158 105.297 47.4842 105.955 48.0174C107.084 48.927 108.48 49.4288 109.688 50.1816Z" fill="#FFAA97"/>
<path d="M109.688 50.1816C112.84 52.1262 114.863 55.796 114.832 59.4972C114.832 60.0931 114.769 60.7205 114.44 61.2223C114.11 61.7242 113.483 62.0692 112.918 61.881C112.558 61.7555 112.307 61.4575 112.072 61.1596C110.77 59.4345 109.939 57.2859 108.151 56.0626C107.335 55.5137 106.363 55.1844 105.689 54.4787C105.218 53.9925 104.92 53.3809 104.669 52.7536C104.246 51.7499 101.878 46.1824 103.728 46.0099C104.669 45.9158 105.297 47.4842 105.955 48.0174C107.084 48.927 108.48 49.4288 109.688 50.1816Z" stroke="#D43300"/>
</g>
<g opacity="0.1" style="mix-blend-mode:screen">
<path d="M107.633 72.5296C107.712 74.8663 107.696 77.2501 108.496 79.43C109.296 81.6256 111.115 83.6174 113.436 83.8683C113.828 83.9153 114.236 83.8997 114.596 83.7428C115.208 83.4762 115.584 82.8332 115.694 82.1745C115.804 81.5159 115.694 80.8572 115.6 80.1985C115.396 78.8968 115.192 77.5952 114.988 76.2935C114.863 75.5093 114.847 74.5213 115.553 74.1606C116.306 73.7685 117.137 74.4742 117.67 75.1329C118.831 76.5287 119.944 78.05 120.336 79.8221C120.666 81.3434 120.446 82.9273 120.148 84.4642C119.913 85.7032 119.615 86.9578 118.909 87.9929C118.203 89.0279 117.043 89.8434 115.788 89.7807C114.863 89.7336 114.047 89.2318 113.279 88.7143C111.538 87.5537 109.844 86.2834 107.915 85.4836C107.178 85.1856 106.394 84.9347 105.72 84.5113C104.34 83.633 103.571 82.0805 102.991 80.5592C102.003 77.9872 101.329 75.2898 100.984 72.5452C100.858 71.4474 100.78 70.334 100.984 69.2518C101.234 67.9815 101.862 66.821 102.473 65.6918C102.96 64.7979 105.39 59.999 106.771 62.6964C107.398 63.904 107.21 66.2251 107.335 67.5895C107.476 69.2362 107.617 70.8985 107.617 72.5452L107.633 72.5296Z" fill="#FFAA97"/>
<path d="M107.633 72.5296C107.712 74.8663 107.696 77.2501 108.496 79.43C109.296 81.6256 111.115 83.6174 113.436 83.8683C113.828 83.9153 114.236 83.8997 114.596 83.7428C115.208 83.4762 115.584 82.8332 115.694 82.1745C115.804 81.5159 115.694 80.8572 115.6 80.1985C115.396 78.8968 115.192 77.5952 114.988 76.2935C114.863 75.5093 114.847 74.5213 115.553 74.1606C116.306 73.7685 117.137 74.4742 117.67 75.1329C118.831 76.5287 119.944 78.05 120.336 79.8221C120.666 81.3434 120.446 82.9273 120.148 84.4642C119.913 85.7032 119.615 86.9578 118.909 87.9929C118.203 89.0279 117.043 89.8434 115.788 89.7807C114.863 89.7336 114.047 89.2318 113.279 88.7143C111.538 87.5537 109.844 86.2834 107.915 85.4836C107.178 85.1856 106.394 84.9347 105.72 84.5113C104.34 83.633 103.571 82.0805 102.991 80.5592C102.003 77.9872 101.329 75.2898 100.984 72.5452C100.858 71.4474 100.78 70.334 100.984 69.2518C101.234 67.9815 101.862 66.821 102.473 65.6918C102.96 64.7979 105.39 59.999 106.771 62.6964C107.398 63.904 107.21 66.2251 107.335 67.5895C107.476 69.2362 107.617 70.8985 107.617 72.5452L107.633 72.5296Z" stroke="#D43300"/>
</g>
<g opacity="0.1" style="mix-blend-mode:screen">
<path d="M92.0601 41.3044C93.4245 42.465 94.538 44.0019 94.8674 45.7741C95.1967 47.5306 94.6007 49.5223 93.1422 50.5574C91.9189 51.4356 90.2879 51.5454 89.0333 52.3922C87.9982 53.0823 87.3082 54.2742 87.2141 55.5132C87.1514 56.313 87.3239 57.1128 87.3239 57.9126C87.3239 58.7125 87.0887 59.5907 86.43 60.0455C85.6615 60.5944 84.5324 60.3591 83.811 59.7475C83.0896 59.1359 82.6974 58.242 82.3524 57.348C81.7564 55.7641 81.3017 53.9135 82.1172 52.4236C83.1366 50.5731 85.8027 49.8516 86.2575 47.7972C86.4927 46.6837 85.9752 45.5702 85.4419 44.5665C84.6892 43.1864 79.7804 37.1642 83.8266 37.0388C85.0969 36.9917 86.4771 37.964 87.5435 38.5286C89.1118 39.3598 90.6957 40.1753 92.0601 41.3358V41.3044Z" fill="#FFAA97"/>
<path d="M92.0601 41.3044C93.4245 42.465 94.538 44.0019 94.8674 45.7741C95.1967 47.5306 94.6007 49.5223 93.1422 50.5574C91.9189 51.4356 90.2879 51.5454 89.0333 52.3922C87.9982 53.0823 87.3082 54.2742 87.2141 55.5132C87.1514 56.313 87.3239 57.1128 87.3239 57.9126C87.3239 58.7125 87.0887 59.5907 86.43 60.0455C85.6615 60.5944 84.5324 60.3591 83.811 59.7475C83.0896 59.1359 82.6974 58.242 82.3524 57.348C81.7564 55.7641 81.3017 53.9135 82.1172 52.4236C83.1366 50.5731 85.8027 49.8516 86.2575 47.7972C86.4927 46.6837 85.9752 45.5702 85.4419 44.5665C84.6892 43.1864 79.7804 37.1642 83.8266 37.0388C85.0969 36.9917 86.4771 37.964 87.5435 38.5286C89.1118 39.3598 90.6957 40.1753 92.0601 41.3358V41.3044Z" stroke="#D43300"/>
</g>
<g opacity="0.1" style="mix-blend-mode:screen">
<path d="M77.7099 45.8522C77.3178 47.0127 76.4866 47.9693 75.7181 48.9417C74.3223 50.6982 74.0558 52.6428 74.1969 54.8855C74.291 56.3753 74.7458 57.8966 75.7338 59.0101C76.3298 59.6687 77.0826 60.1706 77.7256 60.7979C79.6702 62.7112 80.1721 66.083 78.4783 68.2002C77.9608 68.8432 77.3021 69.3451 76.7845 69.9881C74.3537 73.0462 76.3297 76.8572 75.9847 80.2447C75.8749 81.2954 75.3574 82.2364 74.8242 83.146C74.2282 84.1497 73.5696 85.1691 72.5972 85.7964C70.5742 87.1138 67.7356 86.3453 65.932 84.7299C65.2577 84.1183 64.6617 83.3499 64.5676 82.4559C64.5049 81.8443 64.6931 81.2327 64.944 80.6681C65.4615 79.5232 66.277 78.5195 67.2964 77.7824C68.3315 77.0297 69.5704 76.5592 70.6055 75.7907C72.8952 74.1127 74.0087 71.1015 73.7892 68.2629C73.5696 65.4243 72.1581 62.774 70.2605 60.6568C69.3039 59.5903 68.206 58.618 67.4846 57.379C65.7909 54.4463 66.826 50.259 69.6803 48.4712C70.4801 47.9693 71.374 47.64 72.1268 47.0754C73.0678 46.3697 73.7107 45.3346 74.4635 44.425C74.9967 43.782 76.1573 42.4333 77.1296 42.841C78.1333 43.2645 77.9608 45.0523 77.6942 45.8522H77.7099Z" fill="#FFAA97"/>
<path d="M77.7099 45.8522C77.3178 47.0127 76.4866 47.9693 75.7181 48.9417C74.3223 50.6982 74.0558 52.6428 74.1969 54.8855C74.291 56.3753 74.7458 57.8966 75.7338 59.0101C76.3298 59.6687 77.0826 60.1706 77.7256 60.7979C79.6702 62.7112 80.1721 66.083 78.4783 68.2002C77.9608 68.8432 77.3021 69.3451 76.7845 69.9881C74.3537 73.0462 76.3297 76.8572 75.9847 80.2447C75.8749 81.2954 75.3574 82.2364 74.8242 83.146C74.2282 84.1497 73.5696 85.1691 72.5972 85.7964C70.5742 87.1138 67.7356 86.3453 65.932 84.7299C65.2577 84.1183 64.6617 83.3499 64.5676 82.4559C64.5049 81.8443 64.6931 81.2327 64.944 80.6681C65.4615 79.5232 66.277 78.5195 67.2964 77.7824C68.3315 77.0297 69.5704 76.5592 70.6055 75.7907C72.8952 74.1127 74.0087 71.1015 73.7892 68.2629C73.5696 65.4243 72.1581 62.774 70.2605 60.6568C69.3039 59.5903 68.206 58.618 67.4846 57.379C65.7909 54.4463 66.826 50.259 69.6803 48.4712C70.4801 47.9693 71.374 47.64 72.1268 47.0754C73.0678 46.3697 73.7107 45.3346 74.4635 44.425C74.9967 43.782 76.1573 42.4333 77.1296 42.841C78.1333 43.2645 77.9608 45.0523 77.6942 45.8522H77.7099Z" stroke="#D43300"/>
</g>
<g opacity="0.1" style="mix-blend-mode:screen">
<path d="M97.9883 95.0974C97.5492 95.5522 96.9847 95.9286 96.3574 95.9913C94.9459 96.1482 93.7853 94.8308 92.3738 94.6896C91.1349 94.5642 89.9587 95.4424 89.4255 96.5559C88.8922 97.6694 88.8923 98.9868 89.1119 100.21C89.2687 101.12 89.5353 102.029 89.4726 102.939C89.3628 104.225 88.5943 105.37 87.7161 106.326C84.9245 109.4 80.8313 111.251 76.6753 111.298C75.5775 111.313 74.4014 111.188 73.5231 110.514C72.0803 109.416 72.0959 106.891 73.5387 105.809C74.9659 104.742 76.9577 105.15 78.7141 104.836C80.7372 104.476 82.5093 103.08 83.5601 101.308C84.6108 99.5356 84.9716 97.4185 84.8461 95.3483C84.7834 94.4231 84.6423 93.4664 84.8775 92.5568C85.4264 90.4396 87.7788 89.3889 89.896 88.84C91.4643 88.4322 93.0639 88.1499 94.6479 87.8362C95.6045 87.648 96.6867 87.3658 97.5963 87.8519C100.043 89.185 99.6978 93.341 98.004 95.0661L97.9883 95.0974Z" fill="#FFAA97"/>
<path d="M97.9883 95.0974C97.5492 95.5522 96.9847 95.9286 96.3574 95.9913C94.9459 96.1482 93.7853 94.8308 92.3738 94.6896C91.1349 94.5642 89.9587 95.4424 89.4255 96.5559C88.8922 97.6694 88.8923 98.9868 89.1119 100.21C89.2687 101.12 89.5353 102.029 89.4726 102.939C89.3628 104.225 88.5943 105.37 87.7161 106.326C84.9245 109.4 80.8313 111.251 76.6753 111.298C75.5775 111.313 74.4014 111.188 73.5231 110.514C72.0803 109.416 72.0959 106.891 73.5387 105.809C74.9659 104.742 76.9577 105.15 78.7141 104.836C80.7372 104.476 82.5093 103.08 83.5601 101.308C84.6108 99.5356 84.9716 97.4185 84.8461 95.3483C84.7834 94.4231 84.6423 93.4664 84.8775 92.5568C85.4264 90.4396 87.7788 89.3889 89.896 88.84C91.4643 88.4322 93.0639 88.1499 94.6479 87.8362C95.6045 87.648 96.6867 87.3658 97.5963 87.8519C100.043 89.185 99.6978 93.341 98.004 95.0661L97.9883 95.0974Z" stroke="#D43300"/>
</g>
<g opacity="0.1" style="mix-blend-mode:screen">
<path d="M108.339 30.5139C109.421 31.2039 110.566 32.1292 110.628 33.3995C110.644 33.7916 110.55 34.215 110.283 34.4973C109.797 35.0305 108.903 34.9835 108.276 34.6228C107.649 34.2778 107.178 33.6975 106.629 33.2113C105.265 32.0038 103.446 31.4235 101.642 31.1412C99.8386 30.8589 98.0036 30.8432 96.2001 30.5766C95.6512 30.4982 95.0082 30.3414 94.773 29.8238C94.5691 29.369 94.773 28.8201 95.1651 28.5065C95.5415 28.1928 96.0276 28.0516 96.5138 27.9419C101.046 26.9382 104.512 28.083 108.339 30.4982V30.5139Z" fill="#FFAA97"/>
<path d="M108.339 30.5139C109.421 31.2039 110.566 32.1292 110.628 33.3995C110.644 33.7916 110.55 34.215 110.283 34.4973C109.797 35.0305 108.903 34.9835 108.276 34.6228C107.649 34.2778 107.178 33.6975 106.629 33.2113C105.265 32.0038 103.446 31.4235 101.642 31.1412C99.8386 30.8589 98.0036 30.8432 96.2001 30.5766C95.6512 30.4982 95.0082 30.3414 94.773 29.8238C94.5691 29.369 94.773 28.8201 95.1651 28.5065C95.5415 28.1928 96.0276 28.0516 96.5138 27.9419C101.046 26.9382 104.512 28.083 108.339 30.4982V30.5139Z" stroke="#D43300"/>
</g>
<g opacity="0.1" style="mix-blend-mode:screen">
<path d="M46.2818 91.0512C46.4072 91.9608 46.7993 92.6194 47.0659 93.4506C47.4423 94.6112 47.5051 95.756 48.1637 96.8225C48.8852 97.9987 50.2339 98.8926 51.5983 98.6573C52.304 98.5319 53.0255 98.1241 53.7155 98.3751C54.3272 98.5946 54.6564 99.2533 54.9074 99.8493C55.5817 101.433 56.2561 103.002 56.8991 104.601C56.6795 105.134 56.1621 105.511 55.5818 105.558C55.1897 105.589 54.7819 105.464 54.4212 105.323C51.0807 104.021 48.5088 101.323 45.4663 99.5199C44.8077 99.1279 44.0863 98.7671 43.6315 98.1555C43.2237 97.6066 43.0668 96.9009 42.957 96.2265C42.2513 91.851 42.9884 87.2403 45.0272 83.3039C45.3565 82.6609 46.2035 81.171 47.1601 81.516C48.1952 81.9081 47.5208 83.3352 47.3012 84.0096C46.5484 86.2679 45.9525 88.6674 46.2975 91.0669L46.2818 91.0512Z" fill="#FFAA97"/>
<path d="M46.2818 91.0512C46.4072 91.9608 46.7993 92.6194 47.0659 93.4506C47.4423 94.6112 47.5051 95.756 48.1637 96.8225C48.8852 97.9987 50.2339 98.8926 51.5983 98.6573C52.304 98.5319 53.0255 98.1241 53.7155 98.3751C54.3272 98.5946 54.6564 99.2533 54.9074 99.8493C55.5817 101.433 56.2561 103.002 56.8991 104.601C56.6795 105.134 56.1621 105.511 55.5818 105.558C55.1897 105.589 54.7819 105.464 54.4212 105.323C51.0807 104.021 48.5088 101.323 45.4663 99.5199C44.8077 99.1279 44.0863 98.7671 43.6315 98.1555C43.2237 97.6066 43.0668 96.9009 42.957 96.2265C42.2513 91.851 42.9884 87.2403 45.0272 83.3039C45.3565 82.6609 46.2035 81.171 47.1601 81.516C48.1952 81.9081 47.5208 83.3352 47.3012 84.0096C46.5484 86.2679 45.9525 88.6674 46.2975 91.0669L46.2818 91.0512Z" stroke="#D43300"/>
</g>
<g opacity="0.1" style="mix-blend-mode:screen">
<path d="M45.4502 105.464C45.9364 105.84 46.4068 106.279 46.7048 106.828C47.0028 107.377 47.1126 108.036 46.893 108.632C46.6107 109.4 45.8422 109.87 45.1208 110.231C44.4621 110.561 43.7721 110.858 43.0507 110.874C42.3293 110.874 41.5452 110.561 41.2158 109.902C41.0119 109.494 41.0119 109.008 41.0119 108.553C41.0119 107.502 41.0119 106.436 41.0119 105.385C41.0119 102.076 44.1015 104.444 45.4345 105.479L45.4502 105.464Z" fill="#FFAA97"/>
<path d="M45.4502 105.464C45.9364 105.84 46.4068 106.279 46.7048 106.828C47.0028 107.377 47.1126 108.036 46.893 108.632C46.6107 109.4 45.8422 109.87 45.1208 110.231C44.4621 110.561 43.7721 110.858 43.0507 110.874C42.3293 110.874 41.5452 110.561 41.2158 109.902C41.0119 109.494 41.0119 109.008 41.0119 108.553C41.0119 107.502 41.0119 106.436 41.0119 105.385C41.0119 102.076 44.1015 104.444 45.4345 105.479L45.4502 105.464Z" stroke="#D43300"/>
</g>
<g opacity="0.1" style="mix-blend-mode:screen">
<path d="M45.1678 119.373C43.1918 120.157 41.2942 117.475 42.8468 115.954C43.4741 115.343 44.4464 115.311 45.3403 115.28C46.9086 115.217 48.5239 114.998 49.9197 114.26C51.2057 113.57 52.2408 112.488 53.4954 111.767C55.3146 110.7 57.5887 110.512 59.5961 111.124C61.2114 111.61 63.7677 112.755 64.3793 114.449C64.7243 115.421 64.3793 116.707 63.407 117.099C62.9051 117.303 62.3405 117.24 61.8073 117.13C59.0158 116.566 56.4595 114.794 53.6209 114.872C51.1273 114.95 48.916 116.456 47.0341 118.087C46.4538 118.589 45.8892 119.106 45.1678 119.389V119.373Z" fill="#FFAA97"/>
<path d="M45.1678 119.373C43.1918 120.157 41.2942 117.475 42.8468 115.954C43.4741 115.343 44.4464 115.311 45.3403 115.28C46.9086 115.217 48.5239 114.998 49.9197 114.26C51.2057 113.57 52.2408 112.488 53.4954 111.767C55.3146 110.7 57.5887 110.512 59.5961 111.124C61.2114 111.61 63.7677 112.755 64.3793 114.449C64.7243 115.421 64.3793 116.707 63.407 117.099C62.9051 117.303 62.3405 117.24 61.8073 117.13C59.0158 116.566 56.4595 114.794 53.6209 114.872C51.1273 114.95 48.916 116.456 47.0341 118.087C46.4538 118.589 45.8892 119.106 45.1678 119.389V119.373Z" stroke="#D43300"/>
</g>
<g opacity="0.1" style="mix-blend-mode:screen">
<path d="M101.375 108.082C101.72 108.082 102.065 107.957 102.41 107.925C103.618 107.831 104.731 108.851 104.967 110.027C105.202 111.203 104.7 112.458 103.884 113.336C103.069 114.23 101.971 114.794 100.842 115.265C100.56 115.375 100.23 115.484 99.948 115.375C99.7441 115.281 99.6186 115.092 99.5245 114.904C99.1952 114.245 99.2109 113.461 99.0071 112.756C98.615 111.281 97.3133 110.09 95.8077 109.839C94.9765 109.697 93.9415 109.713 93.5808 108.945C93.2828 108.302 93.7533 107.565 94.2708 107.078C95.3372 106.122 97.9563 104.648 99.4461 104.93C101.297 105.275 99.5559 108.113 101.375 108.082Z" fill="#FFAA97"/>
<path d="M101.375 108.082C101.72 108.082 102.065 107.957 102.41 107.925C103.618 107.831 104.731 108.851 104.967 110.027C105.202 111.203 104.7 112.458 103.884 113.336C103.069 114.23 101.971 114.794 100.842 115.265C100.56 115.375 100.23 115.484 99.948 115.375C99.7441 115.281 99.6186 115.092 99.5245 114.904C99.1952 114.245 99.2109 113.461 99.0071 112.756C98.615 111.281 97.3133 110.09 95.8077 109.839C94.9765 109.697 93.9415 109.713 93.5808 108.945C93.2828 108.302 93.7533 107.565 94.2708 107.078C95.3372 106.122 97.9563 104.648 99.4461 104.93C101.297 105.275 99.5559 108.113 101.375 108.082Z" stroke="#D43300"/>
</g>
<g opacity="0.1" style="mix-blend-mode:screen">
<path d="M125.355 96.602C125.637 96.8058 125.888 97.0411 126.123 97.2763C127.487 98.7191 129.307 99.8327 130.216 101.668C131.628 104.49 127.597 105.573 125.496 105.463C124.335 105.4 123.034 105.039 122.516 104.004C122.046 103.063 122.406 101.918 122.077 100.93C121.826 100.162 121.089 99.7072 120.963 98.9073C120.822 97.9664 121.261 97.0097 121.826 96.2883C122.014 96.0531 122.202 95.8178 122.469 95.6924C122.845 95.5199 123.3 95.5983 123.692 95.7394C124.273 95.9276 124.821 96.2256 125.323 96.5863L125.355 96.602Z" fill="#FFAA97"/>
<path d="M125.355 96.602C125.637 96.8058 125.888 97.0411 126.123 97.2763C127.487 98.7191 129.307 99.8327 130.216 101.668C131.628 104.49 127.597 105.573 125.496 105.463C124.335 105.4 123.034 105.039 122.516 104.004C122.046 103.063 122.406 101.918 122.077 100.93C121.826 100.162 121.089 99.7072 120.963 98.9073C120.822 97.9664 121.261 97.0097 121.826 96.2883C122.014 96.0531 122.202 95.8178 122.469 95.6924C122.845 95.5199 123.3 95.5983 123.692 95.7394C124.273 95.9276 124.821 96.2256 125.323 96.5863L125.355 96.602Z" stroke="#D43300"/>
</g>
<g opacity="0.1" style="mix-blend-mode:screen">
<path d="M124.006 69.6585C126.594 74.4888 130.812 78.2057 134.059 82.6125C134.623 83.381 135.188 84.2278 135.282 85.1845C135.392 86.4078 134.702 87.5526 133.886 88.4622C132.302 90.203 130.075 91.3479 127.738 91.6615C127.111 91.7399 126.405 91.7399 125.903 91.3479C125.511 91.0342 125.323 90.5323 125.307 90.0305C125.229 88.4465 126.578 87.2076 127.268 85.7648C128.366 83.4437 127.644 80.6522 126.374 78.4252C125.088 76.1982 123.284 74.3163 121.998 72.105C120.948 70.2858 120.117 67.8393 120.76 65.7221C121.277 64.0283 121.779 65.1889 122.328 66.2239C122.924 67.3531 123.426 68.5293 124.021 69.6428L124.006 69.6585Z" fill="#FFAA97"/>
<path d="M124.006 69.6585C126.594 74.4888 130.812 78.2057 134.059 82.6125C134.623 83.381 135.188 84.2278 135.282 85.1845C135.392 86.4078 134.702 87.5526 133.886 88.4622C132.302 90.203 130.075 91.3479 127.738 91.6615C127.111 91.7399 126.405 91.7399 125.903 91.3479C125.511 91.0342 125.323 90.5323 125.307 90.0305C125.229 88.4465 126.578 87.2076 127.268 85.7648C128.366 83.4437 127.644 80.6522 126.374 78.4252C125.088 76.1982 123.284 74.3163 121.998 72.105C120.948 70.2858 120.117 67.8393 120.76 65.7221C121.277 64.0283 121.779 65.1889 122.328 66.2239C122.924 67.3531 123.426 68.5293 124.021 69.6428L124.006 69.6585Z" stroke="#D43300"/>
</g>
<g opacity="0.1" style="mix-blend-mode:screen">
<path d="M141.195 68.3092C141.116 68.9522 140.818 69.5325 140.505 70.0971C139.674 71.6654 138.623 73.3748 136.882 73.7512C136.49 73.8296 136.066 73.8296 135.69 73.7041C135.329 73.563 135.016 73.3121 134.718 73.0455C133.385 71.885 132.114 70.6617 130.907 69.3757C130.436 68.8739 129.966 68.3563 129.731 67.729C129.339 66.6782 129.652 65.4393 130.405 64.6238C131.158 63.8083 132.287 63.3848 133.416 63.3691C134.357 63.3691 135.267 63.6044 136.192 63.7142C137.572 63.8867 138.685 63.1025 139.611 64.3415C140.379 65.3609 141.32 67.0076 141.163 68.3406L141.195 68.3092Z" fill="#FFAA97"/>
<path d="M141.195 68.3092C141.116 68.9522 140.818 69.5325 140.505 70.0971C139.674 71.6654 138.623 73.3748 136.882 73.7512C136.49 73.8296 136.066 73.8296 135.69 73.7041C135.329 73.563 135.016 73.3121 134.718 73.0455C133.385 71.885 132.114 70.6617 130.907 69.3757C130.436 68.8739 129.966 68.3563 129.731 67.729C129.339 66.6782 129.652 65.4393 130.405 64.6238C131.158 63.8083 132.287 63.3848 133.416 63.3691C134.357 63.3691 135.267 63.6044 136.192 63.7142C137.572 63.8867 138.685 63.1025 139.611 64.3415C140.379 65.3609 141.32 67.0076 141.163 68.3406L141.195 68.3092Z" stroke="#D43300"/>
</g>
<path d="M36.6834 111.344C37.4675 111.626 37.3891 111.704 37.4989 111.689C37.6401 111.657 37.6244 111.312 37.6401 111.202C37.7185 110.403 37.6087 109.587 37.4675 108.787C37.2166 107.329 36.7462 105.902 36.6678 104.427C36.6207 103.675 36.6991 102.906 36.856 102.169C37.0128 101.463 37.2637 100.789 37.5773 100.146C37.8753 99.5658 38.3144 99.0483 38.6751 98.4994C39.4122 97.3859 40.1023 96.194 40.3375 94.8453C40.5884 93.3868 40.118 92.0851 39.7103 90.6893C39.1457 88.7603 39.4279 87.3959 40.7296 85.8904C42.2979 84.0555 43.8819 82.597 44.8856 80.3543C45.8109 78.2685 46.3441 75.9945 47.4419 73.9871C48.0849 72.8109 48.916 71.8228 50.1079 71.1798C51.1273 70.6309 52.1938 70.333 52.8838 69.3449C54.3109 67.2905 53.1818 64.6715 53.9659 62.4445C55.2833 58.6963 60.5684 57.9906 63.0777 55.2461C63.6736 54.5874 64.1598 53.8346 64.4264 52.9877C64.8655 51.639 64.6773 50.1805 65.1321 48.8318C65.6653 47.2949 66.8416 46.0716 68.3158 45.4286C69.3979 44.9581 70.5427 44.7542 71.4993 44.0171C73.2872 42.6527 73.9145 40.4258 74.9653 38.5281C77.898 33.2116 84.0613 36.4737 87.9977 32.9293C89.8326 31.2826 90.6168 28.2559 93.2045 27.5501C94.71 27.1424 96.3097 27.3776 97.8309 26.9856C100.858 26.2171 102.238 23.3785 105.155 23.206C108.213 23.0335 112.792 25.6368 118.062 25.2447C121.261 25.0095 124.523 24.4763 127.55 23.4099C127.691 23.3628 128.005 23.3471 128.083 23.206C127.675 22.8923 127.158 22.6728 126.687 22.4532C126.483 22.3591 126.264 22.265 126.076 22.1239C125.95 22.0298 125.825 21.8886 125.762 21.7318C125.715 21.622 125.746 21.3868 125.621 21.3554C125.574 21.3554 125.527 21.3554 125.48 21.3711C124.711 21.6847 123.911 21.8259 123.143 22.1239C122.547 22.3591 121.951 22.563 121.355 22.7512C119.411 23.3471 117.231 23.8019 115.223 23.3471C112.071 22.6257 108.48 21.0417 105.155 21.1672C100.732 21.324 100.199 24.6645 97.4075 25.4329C94.71 26.1857 92.2478 24.8684 89.5503 28.35C88.2173 30.0751 86.947 32.0511 84.8455 32.8823C82.3519 33.886 79.4976 33.3058 77.004 34.4349C74.8241 35.4229 73.8361 37.4303 72.848 39.4691C72.3305 40.5669 71.813 41.7745 70.8877 42.59C69.8683 43.5153 68.4569 43.6407 67.265 44.2524C65.1635 45.3188 63.7677 47.4203 63.4383 49.7414C63.2501 51.0901 63.2972 52.4545 62.4974 53.615C61.9171 54.4619 61.0859 55.1049 60.2234 55.6695C57.1809 57.6298 52.9152 59.0099 52.3349 63.1188C52.1624 64.4205 52.3663 65.7222 52.2094 67.0239C51.9742 68.9215 50.6569 69.2195 49.2141 70.0507C47.3949 71.1014 46.3284 72.8893 45.5442 74.7712C44.6346 76.9512 44.1015 79.3192 42.8468 81.358C41.5765 83.4281 39.2397 84.7455 38.2674 87.0195C37.1382 89.6856 39.2711 91.9753 38.7849 94.61C38.3301 97.0252 36.2757 98.8601 35.3347 101.087C34.2055 103.753 35.2563 106.011 35.8208 108.678C36.3697 111.25 34.8015 110.669 36.6207 111.312L36.6834 111.344Z" fill="#FF8E6A" stroke="#D43300"/>
<path d="M26.8191 57.7243C27.5876 57.2381 28.1051 56.6579 28.1521 55.7169C28.1992 54.8543 28.011 54.0075 27.9012 53.1606C27.6817 51.2473 28.1992 49.1144 29.6734 47.7971C30.0655 47.4364 30.5202 47.1541 31.0064 46.9502C31.571 46.7149 32.167 46.6366 32.7473 46.4484C33.8294 46.119 34.7076 45.2408 35.3192 44.3155C35.6485 43.8136 35.8054 43.2961 35.8368 42.7001C35.8524 42.0885 35.8054 41.4769 35.8839 40.8809C36.025 39.7204 36.4327 38.5912 37.0287 37.5875C37.656 36.5524 38.4871 35.6272 39.4281 34.843C39.8202 34.5137 40.2279 34.2157 40.6043 33.8707C40.9964 33.51 41.4356 33.0552 41.4669 32.4906C41.4669 32.3651 41.6395 32.3651 41.6551 32.4906C41.7335 33.3845 40.9494 34.1059 40.3534 34.6548C39.5693 35.3762 38.8165 36.1133 38.2049 37.0073C37.5305 37.9953 37.06 39.1401 36.8091 40.3164C36.5425 41.4926 36.8875 42.7629 36.4797 43.9077C36.1033 44.9585 35.2095 45.9308 34.3156 46.5738C33.8294 46.9345 33.2805 47.1541 32.7002 47.3109C32.1199 47.4677 31.4926 47.5618 30.9594 47.8441C29.0932 48.8635 28.4815 51.0905 28.6854 53.0822C28.7952 54.0545 28.9833 55.0425 28.8422 56.0306C28.6853 57.0656 28.0581 57.8968 27.0544 58.2262C26.7251 58.3359 26.5525 57.8655 26.8348 57.6929L26.8191 57.7243Z" fill="#FF8E6A" stroke="#D43300"/>
<path d="M56.3811 18.4385C58.0748 18.1249 59.9568 18.1092 61.5721 18.7365C62.3562 19.0345 63.109 19.505 63.6423 20.1637C64.3323 21.0105 64.4421 21.9985 64.5676 23.0336C64.6303 23.5511 64.7244 24.053 64.9283 24.5392C65.0224 24.7587 65.1164 24.9626 65.2105 25.1821C65.2576 25.2606 65.289 25.3547 65.336 25.4331C65.3674 25.4958 65.4772 25.684 65.3674 25.5429C65.634 25.8565 65.289 26.4211 64.897 26.1545C64.646 25.982 64.5362 25.6683 64.4264 25.4017C64.2852 25.0724 64.1441 24.7274 64.0657 24.3823C63.8148 23.3786 63.8775 22.3279 63.5953 21.3242C63.0934 19.552 61.0076 18.8306 59.3766 18.6581C58.4042 18.5483 57.4318 18.5954 56.4752 18.7522C56.2713 18.7836 56.1772 18.4699 56.3811 18.4228V18.4385Z" fill="#FF8E6A" stroke="#D43300"/>
<path d="M49.9519 39.1096C51.1281 38.5137 52.3513 38.2 53.6373 37.9491C55.0017 37.6825 56.3505 37.3688 57.6521 36.867C58.8284 36.4122 59.8949 35.6908 60.381 34.4832C60.6476 33.8245 60.6946 33.1187 60.9142 32.4444C61.1338 31.7543 61.4788 31.08 61.9806 30.5468C62.3727 30.1233 62.9844 30.7507 62.6237 31.1898C61.7925 32.1621 61.7767 33.401 61.3847 34.5459C60.9769 35.7378 60.1614 36.6474 59.0479 37.2433C57.9188 37.8393 56.6484 38.1686 55.4095 38.4352C54.0451 38.7332 52.6179 38.7803 51.2849 39.2194C50.391 39.5017 48.7914 40.0192 48.7914 41.1797C48.7914 41.3523 48.4934 41.415 48.4777 41.2268C48.3366 40.2074 49.1521 39.5487 49.9676 39.1253L49.9519 39.1096Z" fill="#FF8E6A" stroke="#D43300"/>
<path d="M32.9351 52.6889C33.4683 52.3439 34.0015 51.9989 34.472 51.5754C34.8955 51.199 35.3816 50.9324 35.8678 50.6344C36.2756 50.3835 36.5578 50.1012 36.6363 49.5994C36.7147 49.0505 36.6049 48.5172 36.746 47.9683C36.8715 47.4508 37.7497 47.5449 37.687 48.0938C37.6243 48.6584 37.687 49.223 37.5929 49.7876C37.4831 50.4149 37.0597 50.901 36.5265 51.2147C36.0089 51.5127 35.4286 51.6695 34.9268 51.9988C34.3465 52.3752 33.735 52.6575 33.139 53.0026C32.9351 53.128 32.7469 52.8143 32.9507 52.6732L32.9351 52.6889Z" fill="#FF8E6A" stroke="#D43300"/>
<path d="M130.796 26.7199C132.725 27.4256 134.748 27.9902 136.379 29.2762C137.226 29.9348 137.916 30.766 138.356 31.7384C138.873 32.8989 139.061 34.1535 139.202 35.3925C139.485 37.9174 139.344 40.7246 140.535 43.0457C141.037 44.018 141.759 44.8492 142.527 45.6491C143.311 46.4646 144.127 47.2801 144.974 48.0172C145.946 48.8641 146.981 49.6795 147.765 50.7146C148.189 51.2478 148.534 51.8281 148.643 52.5182C148.753 53.1925 148.722 53.8983 148.643 54.5726C148.612 54.8079 148.487 55.0117 148.236 55.0431C148.016 55.0745 147.765 54.9333 147.718 54.6981C147.608 54.1178 147.671 53.5375 147.593 52.9416C147.53 52.377 147.279 51.9222 146.95 51.4674C146.291 50.5735 145.413 49.8677 144.566 49.1463C143.719 48.4249 142.935 47.6565 142.151 46.888C141.367 46.1196 140.614 45.3041 140.018 44.3788C138.669 42.2773 138.481 39.6739 138.371 37.243C138.246 34.8906 138.23 32.2873 136.536 30.4524C134.984 28.79 132.663 28.1784 130.592 27.4256C130.153 27.2688 130.342 26.563 130.781 26.7199H130.796Z" fill="#FF8E6A" stroke="#D43300"/>
<path d="M137.65 80.636C139.249 81.3574 140.786 82.2984 141.821 83.7569C142.951 85.3409 143.421 87.4894 143.123 89.4184C143.045 89.983 142.872 90.5476 142.543 91.0181C142.26 91.3944 141.884 91.7865 141.382 91.7395C141.272 91.7395 141.163 91.6454 141.163 91.5199C141.163 91.0181 141.586 90.7671 141.821 90.3908C142.151 89.8732 142.229 89.1832 142.245 88.5715C142.292 87.411 142.072 86.2348 141.633 85.1683C140.849 83.2864 139.218 81.922 137.493 80.9183C137.305 80.8085 137.477 80.5576 137.65 80.636Z" fill="#FF8E6A" stroke="#D43300"/>
<path d="M88.6565 10.3613C89.2838 9.76536 90.3346 9.62418 91.1501 9.49872C92.4675 9.27916 93.8005 9.12234 95.1335 9.0596C97.2821 8.98119 99.5247 9.20077 101.501 10.1104C102.489 10.5652 103.461 11.2239 103.963 12.2119C104.01 12.3217 103.885 12.4158 103.806 12.3374C102.379 10.973 100.528 10.3456 98.6152 10.0476C96.3255 9.70261 94.0044 9.90648 91.7304 10.2829C91.3069 10.3456 90.8835 10.424 90.46 10.5181C90.068 10.6122 89.5975 10.7063 89.2838 10.9729C88.8604 11.3336 88.2487 10.7534 88.6565 10.3456V10.3613Z" fill="#FF8E6A" stroke="#D43300"/>
<path d="M143.343 79.7119C144.362 79.3198 145.319 78.8964 146.134 78.1436C146.777 77.5634 147.467 76.8263 147.765 75.9951C148.016 75.2894 148.158 74.5365 148.173 73.7994C148.173 73.1564 148.126 72.3566 147.499 72.0116C147.373 71.9489 147.468 71.7921 147.593 71.8077C148.863 71.9959 148.722 74.0974 148.597 74.9757C148.518 75.5559 148.424 76.1519 148.158 76.6694C147.734 77.4849 147.091 78.2534 146.385 78.8337C145.57 79.5237 144.55 80.1197 143.515 80.3863C143.061 80.496 142.904 79.8687 143.327 79.6962L143.343 79.7119Z" fill="#FF8E6A" stroke="#D43300"/>
<g opacity="0.1" style="mix-blend-mode:screen">
<path d="M136.866 33.9805C136.866 34.451 136.803 34.9215 136.756 35.392C136.443 38.6697 136.568 41.9474 138.246 44.8174C139.25 46.5268 140.442 48.1735 141.979 49.4281C142.857 50.1652 143.861 50.7612 144.645 51.5924C145.398 52.3922 145.946 53.3645 146.386 54.3682C146.668 55.0426 146.919 55.7326 146.95 56.4697C146.981 57.1911 146.762 57.9596 146.244 58.4771C145.962 58.7594 145.539 58.9476 145.162 58.8065C144.99 58.7437 144.864 58.6183 144.739 58.4771C143.061 56.705 142.402 54.18 140.771 52.3922C139.046 50.4946 136.49 49.6477 134.388 48.1735C133.588 47.6089 132.82 46.9032 132.553 45.9622C132.208 44.7233 132.836 43.4373 133.463 42.3238C134.09 41.2103 134.78 40.0027 134.608 38.7324C134.467 37.7758 133.824 36.9446 133.039 36.3643C132.255 35.7997 131.33 35.4547 130.405 35.1567C129.903 34.9999 129.307 34.749 129.228 34.2158C129.166 33.8394 129.417 33.4787 129.683 33.1807C130.844 31.9417 132.914 30.3891 134.717 30.9223C135.69 31.2203 136.49 32.0358 136.741 33.0238C136.819 33.3375 136.85 33.6512 136.85 33.9805H136.866Z" fill="#FFAA97"/>
<path d="M136.866 33.9805C136.866 34.451 136.803 34.9215 136.756 35.392C136.443 38.6697 136.568 41.9474 138.246 44.8174C139.25 46.5268 140.442 48.1735 141.979 49.4281C142.857 50.1652 143.861 50.7612 144.645 51.5924C145.398 52.3922 145.946 53.3645 146.386 54.3682C146.668 55.0426 146.919 55.7326 146.95 56.4697C146.981 57.1911 146.762 57.9596 146.244 58.4771C145.962 58.7594 145.539 58.9476 145.162 58.8065C144.99 58.7437 144.864 58.6183 144.739 58.4771C143.061 56.705 142.402 54.18 140.771 52.3922C139.046 50.4946 136.49 49.6477 134.388 48.1735C133.588 47.6089 132.82 46.9032 132.553 45.9622C132.208 44.7233 132.836 43.4373 133.463 42.3238C134.09 41.2103 134.78 40.0027 134.608 38.7324C134.467 37.7758 133.824 36.9446 133.039 36.3643C132.255 35.7997 131.33 35.4547 130.405 35.1567C129.903 34.9999 129.307 34.749 129.228 34.2158C129.166 33.8394 129.417 33.4787 129.683 33.1807C130.844 31.9417 132.914 30.3891 134.717 30.9223C135.69 31.2203 136.49 32.0358 136.741 33.0238C136.819 33.3375 136.85 33.6512 136.85 33.9805H136.866Z" stroke="#D43300"/>
</g>
<g opacity="0.1" style="mix-blend-mode:screen">
<path d="M92.609 17.8585C93.7696 18.1565 94.6007 19.3326 94.6164 20.5245C94.6321 21.7164 93.942 22.8613 92.9383 23.52C91.4955 24.4766 89.5195 24.508 88.2491 25.6842C87.4964 26.3743 87.1043 27.378 86.5868 28.2719C86.0692 29.1658 85.2851 30.0284 84.2657 30.1225C84.0775 30.1382 83.8893 30.1225 83.7325 30.0284C83.56 29.9186 83.4502 29.7147 83.4032 29.5265C83.215 28.7738 83.6855 28.0053 84.1873 27.425C85.0499 26.4057 86.1006 25.5117 86.8377 24.3982C87.5748 23.2847 87.9669 21.7949 87.3866 20.5873C87.2455 20.305 87.0573 20.0541 87.0102 19.7404C86.9004 19.1288 87.4023 18.5328 87.9983 18.329C88.6883 18.078 89.3783 18.3133 90.0527 18.2035C90.9466 18.0467 91.668 17.6389 92.609 17.8742V17.8585Z" fill="#FFAA97"/>
<path d="M92.609 17.8585C93.7696 18.1565 94.6007 19.3326 94.6164 20.5245C94.6321 21.7164 93.942 22.8613 92.9383 23.52C91.4955 24.4766 89.5195 24.508 88.2491 25.6842C87.4964 26.3743 87.1043 27.378 86.5868 28.2719C86.0692 29.1658 85.2851 30.0284 84.2657 30.1225C84.0775 30.1382 83.8893 30.1225 83.7325 30.0284C83.56 29.9186 83.4502 29.7147 83.4032 29.5265C83.215 28.7738 83.6855 28.0053 84.1873 27.425C85.0499 26.4057 86.1006 25.5117 86.8377 24.3982C87.5748 23.2847 87.9669 21.7949 87.3866 20.5873C87.2455 20.305 87.0573 20.0541 87.0102 19.7404C86.9004 19.1288 87.4023 18.5328 87.9983 18.329C88.6883 18.078 89.3783 18.3133 90.0527 18.2035C90.9466 18.0467 91.668 17.6389 92.609 17.8742V17.8585Z" stroke="#D43300"/>
</g>
<g opacity="0.1" style="mix-blend-mode:screen">
<path d="M62.1052 52.8942C61.3367 54.2743 59.7214 54.933 58.1845 55.2937C56.6476 55.6544 55.0166 55.8583 53.6992 56.7522C52.9464 57.254 52.3348 57.9754 51.9584 58.8066C51.6605 59.4653 51.5036 60.2024 51.0331 60.7513C50.1549 61.8021 48.4141 61.755 47.3006 60.9709C46.1871 60.1867 45.5755 58.8537 45.2304 57.5207C44.8854 56.2033 44.7286 54.8075 45.0423 53.4902C45.3089 52.3767 45.8577 51.2789 47.081 51.0593C47.8965 50.9182 48.8062 51.2005 49.4805 51.6396C49.9353 51.9376 50.1392 52.4237 50.5626 52.7374C51.7702 53.6313 53.5894 52.7374 54.7185 52.1571C55.0793 51.9689 55.4243 51.7807 55.7066 51.4984C56.428 50.7927 56.6476 49.8047 57.6042 49.3185C58.2316 48.9892 59.2666 48.6598 60.0037 48.7383C62.0268 48.9265 63.0462 51.1848 62.1052 52.8942Z" fill="#FFAA97"/>
<path d="M62.1052 52.8942C61.3367 54.2743 59.7214 54.933 58.1845 55.2937C56.6476 55.6544 55.0166 55.8583 53.6992 56.7522C52.9464 57.254 52.3348 57.9754 51.9584 58.8066C51.6605 59.4653 51.5036 60.2024 51.0331 60.7513C50.1549 61.8021 48.4141 61.755 47.3006 60.9709C46.1871 60.1867 45.5755 58.8537 45.2304 57.5207C44.8854 56.2033 44.7286 54.8075 45.0423 53.4902C45.3089 52.3767 45.8577 51.2789 47.081 51.0593C47.8965 50.9182 48.8062 51.2005 49.4805 51.6396C49.9353 51.9376 50.1392 52.4237 50.5626 52.7374C51.7702 53.6313 53.5894 52.7374 54.7185 52.1571C55.0793 51.9689 55.4243 51.7807 55.7066 51.4984C56.428 50.7927 56.6476 49.8047 57.6042 49.3185C58.2316 48.9892 59.2666 48.6598 60.0037 48.7383C62.0268 48.9265 63.0462 51.1848 62.1052 52.8942Z" stroke="#D43300"/>
</g>
<g opacity="0.1" style="mix-blend-mode:screen">
<path d="M59.1101 69.7382C59.8942 70.1459 60.8509 70.0989 61.6193 70.5223C62.3407 70.9144 62.8269 71.7142 62.8582 72.5454C62.8896 73.5962 62.2152 74.5371 61.4781 75.2899C60.7881 75.98 59.9256 76.6386 58.9532 76.6073C57.9652 76.5916 57.1184 75.9172 56.146 75.7604C54.8757 75.5565 53.6524 76.2779 52.3978 76.623C52.0998 76.7014 51.7705 76.7641 51.4726 76.6543C51.1118 76.5132 50.8923 76.1681 50.7668 75.8074C50.3277 74.5685 50.8923 73.063 52.0371 72.42C52.6644 72.0593 53.4015 71.9652 54.0602 71.6672C54.7189 71.3692 55.3305 70.7419 55.2521 70.0361C55.1737 69.3932 54.5463 68.86 54.6247 68.2013C54.7502 67.3074 56.5537 66.5546 57.1967 67.1976C57.5104 67.5112 57.6359 68.2013 57.8868 68.5777C58.2004 69.0638 58.5926 69.503 59.1101 69.7696V69.7382Z" fill="#FFAA97"/>
<path d="M59.1101 69.7382C59.8942 70.1459 60.8509 70.0989 61.6193 70.5223C62.3407 70.9144 62.8269 71.7142 62.8582 72.5454C62.8896 73.5962 62.2152 74.5371 61.4781 75.2899C60.7881 75.98 59.9256 76.6386 58.9532 76.6073C57.9652 76.5916 57.1184 75.9172 56.146 75.7604C54.8757 75.5565 53.6524 76.2779 52.3978 76.623C52.0998 76.7014 51.7705 76.7641 51.4726 76.6543C51.1118 76.5132 50.8923 76.1681 50.7668 75.8074C50.3277 74.5685 50.8923 73.063 52.0371 72.42C52.6644 72.0593 53.4015 71.9652 54.0602 71.6672C54.7189 71.3692 55.3305 70.7419 55.2521 70.0361C55.1737 69.3932 54.5463 68.86 54.6247 68.2013C54.7502 67.3074 56.5537 66.5546 57.1967 67.1976C57.5104 67.5112 57.6359 68.2013 57.8868 68.5777C58.2004 69.0638 58.5926 69.503 59.1101 69.7696V69.7382Z" stroke="#D43300"/>
</g>
</g>
<defs>
<clipPath id="clip0_2010_9776">
<rect width="166" height="137" fill="white"/>
</clipPath>
</defs>
</svg>
