
<svg width="454" height="296" viewBox="0 0 454 296" fill="none" xmlns="http://www.w3.org/2000/svg"><path fill-rule="evenodd" clip-rule="evenodd" d="M219.423-51.307c-19.075-23.557-48.296-38.54-80.964-38.332-57.037.362-102.982 46.893-102.62 103.931.363 57.037 46.894 102.982 103.932 102.62 30.776-.195 58.323-13.833 77.108-35.31 13.777-12.37 35.892-31.485 49.305-39.263 20.581-11.934 47.118-15.053 58.921-15.128 11.803-.075 26.557-.169 47.306 14.454 12.824 9.038 29.066 23.69 39.602 33.564 19.049 24.192 48.67 39.647 81.845 39.436 57.038-.362 102.982-46.893 102.62-103.93-.362-57.038-46.894-102.983-103.931-102.62-34.888.22-65.626 17.716-84.155 44.324-11.525 11.948-27.571 27.826-36.337 33.162C357.357-5.453 339.69.56 324.937.654c-14.754.094-38.378-2.707-59.108-14.379-12.457-7.014-32.44-24.635-46.406-37.582z" fill="#30839D"/><path fill-rule="evenodd" clip-rule="evenodd" d="M380.599 105.04c-14.569-17.999-36.891-29.447-61.847-29.289-43.564.277-78.655 35.817-78.379 79.38.277 43.564 35.816 78.655 79.38 78.379 23.499-.149 44.533-10.559 58.881-26.954 10.521-9.448 27.422-24.057 37.671-30 15.719-9.115 35.988-11.497 45.002-11.555 9.015-.057 20.284-.128 36.131 11.04 9.799 6.906 22.211 18.104 30.257 25.645 14.55 18.47 37.169 30.269 62.502 30.108 43.563-.277 78.655-35.816 78.378-79.38-.276-43.564-35.816-78.655-79.38-78.379-26.652.17-50.133 13.538-64.284 33.867-8.802 9.124-21.052 21.245-27.745 25.319-11.225 6.832-24.719 11.426-35.987 11.497-11.269.072-29.313-2.068-45.146-10.982-9.511-5.355-24.768-18.808-35.434-28.696z" fill="#5CC3C9"/><path fill-rule="evenodd" clip-rule="evenodd" d="M481.531 239.143c-10.13-12.511-25.649-20.468-42.999-20.358-30.291.192-54.691 24.904-54.499 55.195.193 30.291 24.904 54.691 55.196 54.499 16.343-.104 30.972-7.346 40.948-18.75 7.316-6.569 19.063-16.722 26.187-20.853 10.93-6.338 25.023-7.995 31.291-8.035 6.269-.04 14.104-.089 25.123 7.676 6.81 4.8 15.435 12.581 21.03 17.825 10.117 12.848 25.849 21.057 43.468 20.945 30.291-.193 54.691-24.904 54.499-55.195-.193-30.292-24.904-54.692-55.196-54.499-18.527.117-34.85 9.408-44.691 23.538-6.12 6.345-14.643 14.778-19.299 17.612-7.805 4.751-17.188 7.945-25.023 7.995-7.835.049-20.382-1.438-31.391-7.637-6.615-3.724-17.227-13.082-24.644-19.958z" fill="#FFCF72"/></svg>