<svg width="207" height="125" viewBox="0 0 207 125" fill="none" xmlns="http://www.w3.org/2000/svg">
    <g opacity="0.8">
        <rect opacity="0.2" width="96.2787" height="60.8722" rx="8.18257"
            transform="matrix(0.866044 0.499967 -0.866044 0.499967 123.406 9.03516)" fill="#006FD6" />
        <rect width="96.3255" height="60.8722" rx="8.18257"
            transform="matrix(0.866044 0.499967 -0.866044 0.499967 123.387 0)" fill="#7AD1FF"
            stroke="white" stroke-width="0.74387" stroke-linejoin="round" />
        <path
            d="M111.298 2.16934C113.444 0.930532 116.923 0.930533 119.069 2.16934L183.551 39.3953C185.697 40.6341 185.697 42.6426 183.551 43.8814L163.072 55.7042C160.926 56.943 157.447 56.943 155.301 55.7042L90.8184 18.4782C88.6725 17.2394 88.6725 15.2309 90.8184 13.992L111.298 2.16934Z"
            fill="white" stroke="#151E29" stroke-width="0.74387" stroke-linejoin="round" />
        <path
            d="M184.716 54.5386L163.582 66.7392C161.436 67.978 157.957 67.978 155.811 66.7392L89.6543 28.5467C88.4821 27.87 87.9503 26.9636 88.0587 26.0785L89.2206 16.0292C89.1221 16.9082 89.6547 17.8065 90.8185 18.4783L155.301 55.7043C155.59 55.8712 155.904 56.0156 156.235 56.1376C158.361 56.9206 161.215 56.7762 163.072 55.7043L183.552 43.8816C184.577 43.2896 185.112 42.5217 185.158 41.7461L186.259 51.8033C186.521 52.7702 186.007 53.7936 184.716 54.5386Z"
            fill="#A3E2FF" />
        <path
            d="M163.582 66.7392L184.716 54.5386C186.007 53.7936 186.521 52.7702 186.259 51.8033L185.158 41.7461C185.112 42.5217 184.577 43.2896 183.552 43.8816L163.072 55.7043M163.582 66.7392C161.436 67.978 157.957 67.978 155.811 66.7392M163.582 66.7392L163.072 55.7043M155.811 66.7392L89.6543 28.5467C88.4821 27.87 87.9503 26.9636 88.0587 26.0785L89.2221 16.0162M155.811 66.7392L156.235 56.1376M90.8185 13.9922C89.8421 14.5559 89.3099 15.2789 89.2221 16.0162M163.072 55.7043C161.215 56.7762 158.361 56.9206 156.235 56.1376M156.235 56.1376C155.904 56.0156 155.59 55.8712 155.301 55.7043L90.8185 18.4783C89.649 17.8032 89.1169 16.8994 89.2221 16.0162"
            stroke="#151E29" stroke-width="0.74387" stroke-linejoin="round" />
        <path
            d="M112.306 18.4529C112.055 18.598 111.771 18.7022 111.456 18.7654C111.146 18.825 110.821 18.8417 110.479 18.8156C110.138 18.7896 109.783 18.7189 109.416 18.6035C109.055 18.4919 108.694 18.3319 108.333 18.1235C107.927 17.8891 107.598 17.6473 107.347 17.398C107.102 17.1524 106.957 16.905 106.912 16.6557C106.86 16.4027 106.918 16.1497 107.086 15.8967C107.254 15.6437 107.544 15.3907 107.956 15.1377L105.288 13.5973C104.56 14.0177 104.063 14.4641 103.799 14.9367C103.541 15.4129 103.454 15.9059 103.538 16.4156C103.641 16.9439 103.928 17.4667 104.398 17.9839C104.882 18.501 105.475 18.9624 106.177 19.368C106.893 19.781 107.637 20.114 108.41 20.3671C109.19 20.6164 109.967 20.7708 110.74 20.8304C111.507 20.8936 112.251 20.8583 112.973 20.7244C113.708 20.5905 114.385 20.345 115.003 19.9878C115.719 19.5748 116.186 19.1154 116.405 18.6094C116.624 18.1034 116.663 17.5713 116.521 17.0132C116.405 16.6561 116.225 16.2951 115.98 15.9305C115.735 15.5659 115.439 15.205 115.091 14.8478C114.762 14.5166 114.488 14.206 114.269 13.9157C114.056 13.6292 113.911 13.3632 113.834 13.1177C113.75 12.8758 113.747 12.6544 113.824 12.4535C113.908 12.2563 114.082 12.0815 114.346 11.9289C114.598 11.7838 114.878 11.6778 115.187 11.6109C115.51 11.5439 115.848 11.5197 116.202 11.5383C116.55 11.5607 116.905 11.6277 117.266 11.7393C117.64 11.8509 118.007 12.0109 118.368 12.2193C118.761 12.4463 119.048 12.6751 119.228 12.9058C119.422 13.1365 119.525 13.3634 119.538 13.5867C119.538 13.8099 119.454 14.0257 119.286 14.234C119.125 14.4461 118.893 14.647 118.59 14.8368L121.239 16.366C121.87 16.0014 122.328 15.5959 122.612 15.1494C122.895 14.703 123.011 14.2416 122.96 13.7654C122.902 13.2929 122.673 12.8185 122.273 12.3422C121.88 11.8697 121.316 11.4213 120.582 10.9972C119.873 10.5879 119.122 10.2623 118.329 10.0204C117.543 9.77483 116.757 9.62226 115.97 9.5627C115.184 9.50314 114.424 9.54031 113.689 9.67423C112.954 9.80814 112.29 10.0462 111.698 10.3885C111.182 10.6861 110.798 11.0154 110.547 11.3763C110.302 11.7409 110.186 12.1353 110.199 12.5594C110.212 12.9836 110.36 13.4524 110.644 13.9658C110.934 14.483 111.362 15.0281 111.929 15.6011C112.297 15.9694 112.567 16.2969 112.741 16.5834C112.928 16.8699 113.035 17.1284 113.06 17.3591C113.073 17.5898 113.012 17.7926 112.877 17.9674C112.748 18.146 112.558 18.3079 112.306 18.4529Z"
            fill="#0056B3" />
        <path
            d="M135.514 22.3978L137.728 21.1198L126.379 14.5674L124.165 15.8454L128.448 18.3179L116.586 25.1652L119.312 26.7391L131.174 19.8918L135.514 22.3978Z"
            fill="#0056B3" />
        <path
            d="M135.153 32.4919L133.036 34.6628L135.897 36.3148L145.449 25.5775L142.984 24.1543L124.297 29.6173L127.158 31.2693L130.929 30.0528L135.153 32.4919ZM133.906 29.1042L140.567 26.967L136.826 30.7897L133.906 29.1042Z"
            fill="#0056B3" />
        <path
            d="M147.311 36.8325L144.701 41.3976L147.611 43.0776L147.736 43.005L150.521 37.9042C151.081 38.027 151.636 38.1088 152.183 38.1498C152.738 38.1945 153.289 38.1889 153.837 38.1331C154.372 38.0773 154.897 37.9676 155.412 37.8039C155.941 37.6402 156.456 37.4133 156.959 37.1231C157.655 36.7213 158.145 36.2972 158.429 35.8507C158.719 35.4079 158.819 34.9559 158.728 34.4945C158.632 34.0295 158.358 33.5625 157.907 33.0937C157.462 32.6212 156.85 32.1598 156.07 31.7096L151.352 28.9859L137.277 37.1112L139.993 38.6795L145.252 35.6437L147.311 36.8325ZM147.456 34.3713L151.865 31.8266L153.866 32.9819C154.24 33.1977 154.526 33.4154 154.726 33.6349C154.926 33.8545 155.042 34.0702 155.074 34.2823C155.113 34.5204 155.042 34.7548 154.861 34.9855C154.694 35.2162 154.423 35.4394 154.049 35.6552C153.74 35.8338 153.415 35.9696 153.073 36.0626C152.738 36.1593 152.396 36.2114 152.048 36.2188C151.623 36.2337 151.188 36.1834 150.743 36.0681C150.311 35.9527 149.886 35.7741 149.467 35.5322L147.456 34.3713Z"
            fill="#0056B3" />
        <path
            d="M171.466 43.1548L173.68 41.8769L162.331 35.3245L160.117 36.6024L164.4 39.0749L152.538 45.9223L155.264 47.4962L167.126 40.6488L171.466 43.1548Z"
            fill="#0056B3" />
        <rect opacity="0.1" width="100.083" height="39.313" rx="5.20709"
            transform="matrix(0.866044 0.499967 -0.866044 0.499967 34.0469 55.3066)" fill="#006FD6" />
        <path
            d="M28.2164 51.2576C31.4366 49.3985 36.6577 49.3985 39.878 51.2576L114.893 94.5636C118.113 96.4227 118.113 99.4368 114.893 101.296L92.5077 114.219C89.2874 116.078 84.0663 116.078 80.846 114.219L5.83122 70.9128C2.61095 69.0537 2.61094 66.0396 5.83121 64.1805L28.2164 51.2576Z"
            fill="white" stroke="#151E29" stroke-width="0.74387" stroke-linejoin="round" />
        <path d="M78.1074 73.6412L123.203 47.6074" stroke="#151E29" stroke-width="0.74387" />
        <path
            d="M39.5645 77.7332L39.5644 81.8614C39.5644 84.6894 41.4171 87.5401 45.0779 89.6894C52.4663 94.056 64.4977 94.056 71.9531 89.6894C75.7255 87.5175 77.5782 84.6216 77.5782 81.7483L77.752 77.7285C77.752 80.6018 75.7032 83.3667 71.9531 85.5612C64.4977 89.9278 52.4663 89.9278 45.0779 85.5612C41.4171 83.3893 39.5645 80.5612 39.5645 77.7332Z"
            fill="#0056B3" stroke="#0056B3" stroke-width="0.74387" stroke-miterlimit="10"
            stroke-linejoin="round" />
        <path
            d="M39.5937 77.8672C39.5764 71.7626 48.1048 66.7896 58.6424 66.7597C69.1801 66.7299 77.7365 71.6544 77.7538 77.7591C77.7711 83.8637 69.2427 88.8367 58.7051 88.8666C48.1675 88.8964 39.611 83.9719 39.5937 77.8672Z"
            fill="#A3E2FF" stroke="#0056B3" stroke-width="0.74387" stroke-miterlimit="10"
            stroke-linejoin="round" />
        <path
            d="M44.9783 72.7221L44.9783 75.3109C44.9783 77.3375 46.3059 79.3803 48.9292 80.9205C54.2239 84.0496 62.8456 84.0496 68.1883 80.9205C70.8916 79.3641 72.2192 77.2889 72.2192 75.2298L72.3438 72.7188C72.3438 74.7778 70.8756 76.7591 68.1883 78.3317C62.8456 81.4608 54.2239 81.4608 48.9292 78.3317C46.3059 76.7753 44.9783 74.7487 44.9783 72.7221Z"
            fill="#0056B3" stroke="#0056B3" stroke-width="0.74387" stroke-miterlimit="10"
            stroke-linejoin="round" />
        <path
            d="M45.0008 72.8186C44.9884 68.444 51.1 64.8803 58.6513 64.8589C66.2027 64.8375 72.3343 68.3665 72.3467 72.7411C72.3591 77.1158 66.2476 80.6795 58.6962 80.7009C51.1449 80.7223 45.0132 77.1933 45.0008 72.8186Z"
            fill="#A3E2FF" stroke="#0056B3" stroke-width="0.74387" stroke-miterlimit="10"
            stroke-linejoin="round" />
        <path
            d="M55.571 72.7886C55.5681 71.7959 56.9549 70.9872 58.6685 70.9824C60.382 70.9775 61.7733 71.7783 61.7762 72.771C61.779 73.7636 60.3922 74.5723 58.6786 74.5772C56.9651 74.582 55.5738 73.7812 55.571 72.7886Z"
            fill="#0056B3" stroke="#0056B3" stroke-width="0.74387" stroke-miterlimit="10"
            stroke-linejoin="round" />
        <mask id="mask0_150_15298" style="mask-type:alpha" maskUnits="userSpaceOnUse" x="55" y="45"
            width="8" height="30">
            <path
                d="M58.6786 74.5791C56.9651 74.584 55.5738 73.7832 55.571 72.7905C55.5698 72.3801 55.8062 72.0011 56.205 71.6974L56.205 46.3679L61.1593 46.3679L61.1593 71.7012C61.5457 71.9997 61.775 72.3705 61.7762 72.7729C61.779 73.7656 60.3922 74.5742 58.6786 74.5791Z"
                fill="#0056B3" stroke="#0056B3" stroke-width="0.74387" stroke-miterlimit="10"
                stroke-linejoin="round" />
        </mask>
        <g mask="url(#mask0_150_15298)">
            <path
                d="M60.3789 46.5938L60.2973 74.209C60.2973 74.454 60.1339 74.699 59.8072 74.8828C59.1537 75.2504 58.1123 75.2504 57.4588 74.8828C57.1321 74.699 56.9688 74.454 56.9688 74.209L57.0504 46.5938C57.0504 46.8388 57.2138 47.0838 57.5405 47.2676C58.194 47.6352 59.2354 47.6352 59.8888 47.2676C60.2156 47.0838 60.3789 46.8388 60.3789 46.5938Z"
                fill="white" stroke="#151E29" stroke-width="0.74387" stroke-miterlimit="10"
                stroke-linejoin="round" />
            <path opacity="0.4"
                d="M60.3789 24.002L60.2973 51.6172C60.2973 51.8622 60.1339 52.1072 59.8072 52.291C59.1537 52.6586 58.1123 52.6586 57.4588 52.291C57.1321 52.1072 56.9688 51.8622 56.9688 51.6172L57.0504 24.002C57.0504 24.247 57.2138 24.492 57.5405 24.6758C58.194 25.0434 59.2354 25.0434 59.8888 24.6758C60.2156 24.492 60.3789 24.247 60.3789 24.002Z"
                fill="#006FD6" />
            <path
                d="M60.3789 46.5938L60.2973 74.209C60.2973 74.454 60.1339 74.699 59.8072 74.8828C59.1537 75.2504 58.1123 75.2504 57.4588 74.8828C57.1321 74.699 56.9688 74.454 56.9688 74.209L57.0504 46.5938C57.0504 46.8388 57.2138 47.0838 57.5405 47.2676C58.194 47.6352 59.2354 47.6352 59.8888 47.2676C60.2156 47.0838 60.3789 46.8388 60.3789 46.5938Z"
                stroke="#151E29" stroke-width="0.74387" stroke-miterlimit="10"
                stroke-linejoin="round" />
        </g>
        <path
            d="M57.0067 71.2666C56.142 71.588 55.5691 72.1502 55.571 72.7886C55.5738 73.7812 56.9651 74.582 58.6786 74.5772C60.3922 74.5723 61.779 73.7636 61.7762 72.771C61.7744 72.1389 61.2097 71.5847 60.3573 71.2666"
            stroke="#151E29" stroke-width="0.74387" stroke-miterlimit="10" stroke-linejoin="round" />
        <circle cx="58.6728" cy="39.2472" r="9.49326" transform="rotate(90 58.6728 39.2472)"
            fill="#FFDE63" />
        <path opacity="0.5" fill-rule="evenodd" clip-rule="evenodd"
            d="M51.7152 36.8568C51.7152 42.0998 55.9655 46.3501 61.2085 46.3501C63.0997 46.3501 64.8618 45.7971 66.3418 44.8439C64.6149 47.2058 61.8232 48.7401 58.6732 48.7401C53.4302 48.7401 49.18 44.4898 49.18 39.2468C49.18 35.8951 50.917 32.949 53.5399 31.2598C52.3925 32.8291 51.7152 34.7639 51.7152 36.8568Z"
            fill="#ECC957" />
        <circle cx="58.6728" cy="39.2472" r="9.12132" transform="rotate(90 58.6728 39.2472)"
            stroke="#151E29" stroke-width="0.74387" />
        <path
            d="M79.8334 93.8671C79.5088 93.6797 79.5088 93.3759 79.8334 93.1886C80.1579 93.0012 80.6841 93.0012 81.0087 93.1886L82.5875 94.1C84.5174 95.2141 87.8171 94.425 87.8171 92.8494L87.8171 91.5605C87.8171 91.2955 88.1894 91.0806 88.6484 91.0807C89.1074 91.0807 89.4794 91.2955 89.4794 91.5605L89.4794 92.8493C89.4794 94.425 92.7795 95.2141 94.7095 94.0999L96.2882 93.1886C96.6127 93.0012 97.139 93.0012 97.4635 93.1886C97.7881 93.3759 97.7881 93.6797 97.4635 93.8671L95.8848 94.7785C93.9547 95.8927 95.3216 97.7978 98.0511 97.7979L100.284 97.7979C100.743 97.7979 101.115 98.0127 101.115 98.2777C101.115 98.5426 100.743 98.7574 100.284 98.7574L98.0512 98.7574C95.3218 98.7574 93.955 100.662 95.8849 101.777L97.4635 102.688C97.7881 102.875 97.7881 103.179 97.4635 103.366C97.139 103.554 96.6127 103.554 96.2882 103.366L94.7094 102.455C92.7794 101.341 89.4794 102.13 89.4794 103.706L89.4794 104.995C89.4794 105.259 89.1074 105.474 88.6484 105.474C88.1895 105.474 87.8174 105.259 87.8174 104.995L87.8174 103.706C87.8174 102.13 84.5175 101.341 82.5875 102.455L81.0087 103.366C80.6841 103.554 80.1579 103.554 79.8334 103.366C79.5088 103.179 79.5088 102.875 79.8334 102.688L81.4122 101.776C83.3421 100.662 81.9752 98.7572 79.2458 98.7572H77.0132C76.5543 98.7572 76.1822 98.5425 76.1822 98.2775C76.1822 98.0126 76.5543 97.7978 77.0132 97.7978L79.2458 97.7978C81.9752 97.7978 83.3421 95.8927 81.4122 94.7785L79.8334 93.8671Z"
            fill="#7AD1FF" />
        <path
            d="M95.7804 94.08C91.9148 91.8483 85.6473 91.8483 81.7816 94.08L81.5172 94.2326C77.6516 96.4643 77.6516 100.082 81.5172 102.314C85.3829 104.546 91.6504 104.546 95.5161 102.314L95.7804 102.162C99.6461 99.9299 99.6461 96.3116 95.7804 94.08Z"
            fill="#A3E2FF" stroke="#7AD1FF" stroke-width="0.74387" />
        <path
            d="M83.8895 89.6775C86.5638 88.1336 90.8999 88.1336 93.5742 89.6775C94.8283 90.4014 95.4943 91.3363 95.5723 92.2844L95.572 97.7199C95.4939 98.6678 94.8278 99.6026 93.5739 100.327L93.391 100.432C90.7166 101.976 86.3806 101.976 83.7062 100.432C82.3717 99.6617 81.7031 98.6524 81.7005 97.6426L81.7008 92.5688C81.7051 91.5603 82.3737 90.5525 83.7066 89.7831L83.8895 89.6775Z"
            fill="#FFDE63" stroke="#151E29" stroke-width="0.74387" />
        <path
            d="M93.5723 89.6228C90.898 88.0789 86.5619 88.0789 83.8876 89.6228L83.7047 89.7284C81.0303 91.2723 81.0303 93.7755 83.7047 95.3194C86.379 96.8633 90.7151 96.8633 93.3894 95.3194L93.5723 95.2138C96.2467 93.6699 96.2467 91.1667 93.5723 89.6228Z"
            fill="#FFF4B5" stroke="#151E29" stroke-width="0.74387" />
        <path d="M88.6366 92.5957L95.0195 93.5076" stroke="#151E29" stroke-width="0.74387"
            stroke-linecap="round" />
        <rect width="24.6604" height="3.77284" rx="1.88642"
            transform="matrix(-0.866044 0.499968 0.866044 0.499967 40.6758 60.5684)" fill="white"
            stroke="#151E29" stroke-width="0.74387" />
        <path
            d="M26.7042 67.1192C27.6065 66.5983 29.0694 66.5983 29.9717 67.1192C30.3935 67.3627 30.6181 67.677 30.6455 67.9958L30.6455 69.4791C30.676 69.8418 30.4514 70.2103 29.9717 70.4873L24.1375 73.8553C23.2352 74.3762 21.7723 74.3762 20.87 73.8553C20.4221 73.5967 20.1965 73.2583 20.1934 72.9194L20.1934 71.4232C20.1965 71.0843 20.4221 70.7459 20.87 70.4872L26.7042 67.1192Z"
            fill="#ED1252" stroke="#151E29" stroke-width="0.74387" />
        <path
            d="M29.8702 66.875C28.9679 66.3542 27.505 66.3542 26.6027 66.875L20.8775 70.1802C19.9752 70.7011 19.9752 71.5456 20.8775 72.0665C21.7798 72.5874 23.2426 72.5874 24.1449 72.0665L29.8702 68.7613C30.7724 68.2404 30.7724 67.3959 29.8702 66.875Z"
            fill="#FF668A" stroke="#151E29" stroke-width="0.74387" />
        <rect width="24.6604" height="3.77284" rx="1.88642"
            transform="matrix(-0.866044 0.499968 0.866044 0.499967 33.2422 56.2715)" fill="white"
            stroke="#151E29" stroke-width="0.74387" />
        <path
            d="M31.6827 55.6172C32.585 55.0963 34.0479 55.0963 34.9502 55.6172C35.372 55.8608 35.5966 56.175 35.624 56.4939L35.624 57.9772C35.6545 58.3399 35.43 58.7083 34.9502 58.9853L29.116 62.3534C28.2137 62.8743 26.7508 62.8743 25.8486 62.3534C25.4006 62.0948 25.175 61.7564 25.1719 61.4174L25.1719 59.9213C25.175 59.5823 25.4006 59.2439 25.8486 58.9853L31.6827 55.6172Z"
            fill="#D9B54A" stroke="#151E29" stroke-width="0.74387" />
        <path
            d="M34.8487 55.3731C33.9464 54.8522 32.4835 54.8522 31.5812 55.3731L25.856 58.6783C24.9537 59.1992 24.9537 60.0437 25.856 60.5646C26.7583 61.0855 28.2212 61.0855 29.1234 60.5646L34.8487 57.2594C35.751 56.7385 35.751 55.894 34.8487 55.3731Z"
            fill="#FFDE63" stroke="#151E29" stroke-width="0.74387" />
    </g>
</svg>