<svg width="176" height="159" viewBox="0 0 176 159" fill="none" xmlns="http://www.w3.org/2000/svg">
    <path
        d="M161.314 127.226L118.992 102.793C115.549 100.806 109.968 100.806 106.525 102.793L63.926 127.386C60.7962 129.192 55.7219 129.192 52.5921 127.386L23.4531 110.564"
        stroke="#A3E2FF" stroke-width="0.967742" />
    <path
        d="M138.574 2.90234L107.22 21.0032C105.029 22.268 101.477 22.268 99.2863 21.0032L75.3091 7.16119C73.1183 5.89642 69.5662 5.89642 67.3754 7.16119L21.4747 33.6597C19.2838 34.9245 15.7318 34.9245 13.5409 33.6597L7.0332 29.9028"
        stroke="#A3E2FF" stroke-width="0.967742" />
    <path
        d="M140.347 1.68761C142.612 2.93972 142.621 4.97015 140.374 6.22226C138.128 7.47436 134.473 7.47436 132.209 6.22226C129.945 4.97015 129.936 2.93972 132.182 1.68761C134.428 0.427046 138.083 0.427046 140.347 1.68761Z"
        fill="#FFDE63" stroke="#A3E2FF" stroke-width="0.967742" stroke-linejoin="round" />
    <path
        d="M11.0057 26.838C13.2699 28.0901 13.2788 30.1205 11.0324 31.3727C8.78604 32.6248 5.1312 32.6248 2.86699 31.3727C0.602768 30.1205 0.593852 28.0901 2.84024 26.838C5.08663 25.5774 8.74147 25.5774 11.0057 26.838Z"
        fill="#7AD1FF" stroke="#A3E2FF" stroke-width="0.967742" stroke-linejoin="round" />
    <path
        d="M149.531 120.459L164.096 128.867C167.225 130.674 167.225 133.603 164.096 135.41L127.057 155.26"
        stroke="#A3E2FF" stroke-width="0.967742" />
    <path
        d="M25.7967 106.52C28.0609 107.772 28.0698 109.802 25.8234 111.054C23.5771 112.306 19.9222 112.306 17.658 111.054C15.3938 109.802 15.3849 107.772 17.6313 106.52C19.8776 105.259 23.5325 105.259 25.7967 106.52Z"
        fill="#FF668A" stroke="#A3E2FF" stroke-width="0.967742" stroke-linejoin="round" />
    <path
        d="M140.168 6.37109L173.975 25.8876C175.54 26.791 175.54 28.2557 173.975 29.1591L123.187 58.4787C121.622 59.3821 121.622 60.8468 123.187 61.7502L161.969 84.1387C163.534 85.0421 163.534 86.5069 161.969 87.4103L127.166 107.502"
        stroke="#A3E2FF" stroke-width="0.967742" />
    <path
        d="M131.332 152.76C133.596 154.012 133.605 156.042 131.359 157.295C129.112 158.547 125.457 158.547 123.193 157.295C120.929 156.042 120.92 154.012 123.166 152.76C125.413 151.499 129.068 151.499 131.332 152.76Z"
        fill="#FF668A" stroke="#A3E2FF" stroke-width="0.967742" stroke-linejoin="round" />
</svg>