<svg xmlns="http://www.w3.org/2000/svg" width="496" height="108" viewBox="0 0 496 108"><defs><style type="text/css"/></defs><g transform="translate(1119 491) scale(1)"><g class="relationship"><g transform="translate(-1065 -437) rotate(0)" stroke-width="5" stroke="#000000"><path d="M 58.695178092152055 -5.989663490593891 L 95.96898050729243 -9.793341079425122 A 40 40 0 0 1 100.02976931447472 -10 L 194 -10 L 287.9702306855253 -10 A 40 40 0 0 1 292.0310194927076 -9.79334107942512 L 304.5711209203455 -8.51366206436971 L 304.5711209203455 -8.51366206436971"/><polygon points="-24.8621506177483,0 -27.62461179749811,9.20820393249937 0,0 -27.62461179749811,-9.20820393249937" fill="#000000" transform="translate(388 0) rotate(5.826689442008371) translate(-59 0)" stroke="none"/></g><g transform="translate(-871 -447) rotate(0) translate(0 -13)"><g transform="translate(0 0)"><g transform="translate(-31.6796875 0)" fill="#ffffff" stroke="#000000" stroke-width="0"><rect x="0" y="0" width="63.359375" height="26" rx="5" ry="5" stroke="none"/><text xml:space="preserve" x="5" y="17.45703125" stroke="none" text-anchor="left" font-family="sans-serif" font-size="16" font-weight="normal" fill="#000000">LOVES</text></g></g></g></g><g class="relationship"><g transform="translate(-677 -437) rotate(180)" stroke-width="5" stroke="#000000"><path d="M 58.695178092152055 -5.989663490593891 L 95.96898050729243 -9.793341079425122 A 40 40 0 0 1 100.02976931447472 -10 L 194 -10 L 287.9702306855253 -10 A 40 40 0 0 1 292.0310194927076 -9.79334107942512 L 304.5711209203455 -8.51366206436971 L 304.5711209203455 -8.51366206436971"/><polygon points="-24.8621506177483,0 -27.62461179749811,9.20820393249937 0,0 -27.62461179749811,-9.20820393249937" fill="#000000" transform="translate(388 0) rotate(5.826689442008371) translate(-59 0)" stroke="none"/></g><g transform="translate(-871 -427) rotate(360) translate(0 -13)"><g transform="translate(0 0)"><g transform="translate(-31.6796875 0)" fill="#ffffff" stroke="#000000" stroke-width="0"><rect x="0" y="0" width="63.359375" height="26" rx="5" ry="5" stroke="none"/><text xml:space="preserve" x="5" y="17.45703125" stroke="none" text-anchor="left" font-family="sans-serif" font-size="16" font-weight="normal" fill="#000000">LOVES</text></g></g></g></g><g class="node"><g fill="#4C99A4" stroke="#000000" stroke-width="4"><circle cx="-1065" cy="-437" r="52"/></g><g transform="translate(-1065 -437)"><g transform="scale(0.49218800781249994) translate(0 0)"><g transform="translate(0 0)"><g font-family="sans-serif" font-size="50" font-weight="normal" fill="#ffffff" text-anchor="middle"><text xml:space="preserve" x="0" y="13.92822265625" stroke="none">Michael</text></g></g></g></g></g><g class="node"><g fill="#4C99A4" stroke="#000000" stroke-width="4"><circle cx="-677" cy="-437" r="52"/></g><g transform="translate(-677 -437)"><g transform="scale(0.6132816367187499) translate(0 0)"><g transform="translate(0 0)"><g font-family="sans-serif" font-size="50" font-weight="normal" fill="#ffffff" text-anchor="middle"><text xml:space="preserve" x="0" y="13.92822265625" stroke="none">Sarah</text></g></g></g></g></g></g></svg>