<svg xmlns="http://www.w3.org/2000/svg" width="718" height="208" viewBox="0 0 718 208"><defs><style type="text/css"/></defs><g transform="translate(327 104) scale(1)"><g class="relationship"><g transform="translate(-223 0) rotate(0)" stroke-width="5" stroke="#000000"><path d="M 109 0 L 375.6378493822517 0"/><polygon points="-24.8621506177483,0 -27.62461179749811,9.20820393249937 0,0 -27.62461179749811,-9.20820393249937" fill="#000000" transform="translate(400.5 0) rotate(0)" stroke="none"/></g><g transform="translate(19.318924691125858 0) rotate(0) translate(0 -13)"><g transform="translate(0 0)"><g transform="translate(-69.02734375 0)" fill="#ffffff" stroke="#000000" stroke-width="0"><rect x="0" y="0" width="138.0546875" height="26" rx="5" ry="5" stroke="none"/><text xml:space="preserve" x="5" y="17.5" stroke="none" text-anchor="left" font-family="sans-serif" font-size="16" font-weight="normal" fill="#000000">DEVELOPED_BY</text></g></g></g></g><g class="node"><g fill="#ffffff" stroke="#000000" stroke-width="4"><circle cx="-223" cy="0" r="102"/></g><g transform="translate(-223 0)"><g transform="scale(0.5329629187942199) translate(0 -59)"><g transform="translate(0 0)"><g fill="#000000" font-family="sans-serif" font-size="50" font-weight="normal" text-anchor="middle"><text xml:space="preserve" x="0" y="43" stroke="none">Neo4j</text></g></g><g transform="translate(0 64)"><g transform="translate(-168.201171875 0)"><g fill="#ffffff" stroke="#000000" stroke-width="4"><rect x="0" y="0" width="336.40234375" height="54" rx="27" ry="27"/><text xml:space="preserve" x="27" y="37.5" stroke="none" font-family="sans-serif" font-size="40" font-weight="normal" fill="#000000">GraphDatabase</text></g></g></g></g></g></g><g class="node"><g fill="#ffffff" stroke="#000000" stroke-width="4"><circle cx="286.5" cy="0" r="102"/></g><g transform="translate(286.5 0)"><g transform="scale(0.7473415959022374) translate(0 -59)"><g transform="translate(0 0)"><g fill="#000000" font-family="sans-serif" font-size="50" font-weight="normal" text-anchor="middle"><text xml:space="preserve" x="0" y="43" stroke="none">Neo4j</text></g></g><g transform="translate(0 64)"><g transform="translate(-112.595703125 0)"><g fill="#ffffff" stroke="#000000" stroke-width="4"><rect x="0" y="0" width="225.19140625" height="54" rx="27" ry="27"/><text xml:space="preserve" x="27" y="37.5" stroke="none" font-family="sans-serif" font-size="40" font-weight="normal" fill="#000000">Company</text></g></g></g></g></g></g></g></svg>