<svg xmlns="http://www.w3.org/2000/svg" width="321.89697265625" height="283.8327331542969" viewBox="-136.47914123535156 -117.28031921386719 321.89697265625 283.8327331542969"><title>Neo4j Graph Visualization</title><desc>Created using Neo4j (http://www.neo4j.com/)</desc><g class="layer relationships"><g class="relationship" transform="translate(122.4178251872422 87.26921976859313) rotate(206.23393868046008)"><path class="b-outline" fill="#A5ABB6" stroke="none" d="M 25 0.5 L 45.16100023273857 0.5 L 45.16100023273857 -0.5 L 25 -0.5 Z M 90.72350023273857 0.5 L 110.88450046547715 0.5 L 110.88450046547715 3.5 L 117.88450046547715 0 L 110.88450046547715 -3.5 L 110.88450046547715 -0.5 L 90.72350023273857 -0.5 Z"/><text text-anchor="middle" pointer-events="none" font-size="8px" fill="#000000" x="67.94225023273857" y="3" transform="rotate(180 67.94225023273857 0)" font-family="Helvetica Neue, Helvetica, Arial, sans-serif">ACTED_IN</text></g><g class="relationship" transform="translate(84.94456365899161 -88.28031956273382) rotate(488.90214792910086)"><path class="b-outline" fill="#A5ABB6" stroke="none" d="M 25 0.5 L 45.92797311234021 0.5 L 45.92797311234021 -0.5 L 25 -0.5 Z M 91.49047311234021 0.5 L 112.41844622468042 0.5 L 112.41844622468042 3.5 L 119.41844622468042 0 L 112.41844622468042 -3.5 L 112.41844622468042 -0.5 L 91.49047311234021 -0.5 Z"/><text text-anchor="middle" pointer-events="none" font-size="8px" fill="#000000" x="68.70922311234021" y="3" transform="rotate(180 68.70922311234021 0)" font-family="Helvetica Neue, Helvetica, Arial, sans-serif">ACTED_IN</text></g><g class="relationship" transform="translate(-107.4791406554524 -76.64139772772667) rotate(404.72277767868195)"><path class="b-outline" fill="#A5ABB6" stroke="none" d="M 25 0.5 L 45.3072151204007 0.5 L 45.3072151204007 -0.5 L 25 -0.5 Z M 90.8697151204007 0.5 L 111.1769302408014 0.5 L 111.1769302408014 3.5 L 118.1769302408014 0 L 111.1769302408014 -3.5 L 111.1769302408014 -0.5 L 90.8697151204007 -0.5 Z"/><text text-anchor="middle" pointer-events="none" font-size="8px" fill="#000000" x="68.0884651204007" y="3" font-family="Helvetica Neue, Helvetica, Arial, sans-serif">ACTED_IN</text></g><g class="relationship" transform="translate(-94.80558830123721 137.55241402567913) rotate(308.13296607435416)"><path class="b-outline" fill="#A5ABB6" stroke="none" d="M 24.018736134675446,-6.953439040707552 L 24.277555179777966,-5.987513214418485 A 179.47300663419998 179.47300663419998 0 0 1 45.93669198561719,-10.382318783011073 L 45.798554803553735,-11.372731888200803 A 180.47300663419998 180.47300663419998 0 0 0 24.018736134675446,-6.953439040707552 Z M 91.3624421228012,-11.919471685224181 L 91.24811003996454,-10.926029097635848 A 179.47300663419998 179.47300663419998 0 0 1 113.00646549489228,-7.052207850235887 L 112.29976515745587,-4.13663335572074 L 119.9272560383337,-5.889169478636779 L 113.94873261147417,-10.939640509589417 L 113.24203227403775,-8.02406601507427 A 180.47300663419998 180.47300663419998 0 0 0 91.3624421228012,-11.919471685224181"/><text text-anchor="middle" pointer-events="none" font-size="8px" fill="#000000" x="68.56917281401992" y="-9.589952234111394" font-family="Helvetica Neue, Helvetica, Arial, sans-serif">ACTED_IN</text></g><g class="relationship" transform="translate(-94.80558830123721 137.55241402567913) rotate(308.13296607435416)"><path class="b-outline" fill="#A5ABB6" stroke="none" d="M 24.018736134675446,6.953439040707552 L 24.277555179777966,5.987513214418485 A 179.47300663419998 179.47300663419998 0 0 0 45.28099324409811,10.28963210880056 L 45.13920259484305,11.279528776025899 A 180.47300663419998 180.47300663419998 0 0 1 24.018736134675446,6.953439040707552 Z M 92.0238409268884,11.842116806883979 L 91.90584403668568,10.849102842278 A 179.47300663419998 179.47300663419998 0 0 0 113.00646549489228,7.052207850235887 L 112.29976515745587,4.13663335572074 L 119.9272560383337,5.889169478636779 L 113.94873261147417,10.939640509589417 L 113.24203227403775,8.02406601507427 A 180.47300663419998 180.47300663419998 0 0 1 92.0238409268884,11.842116806883979"/><text text-anchor="middle" pointer-events="none" font-size="8px" fill="#000000" x="68.56917281402002" y="15.589952234111394" font-family="Helvetica Neue, Helvetica, Arial, sans-serif">DIRECTED</text></g></g><g class="layer nodes"><g class="node" aria-label="graph-node4939" transform="translate(-5.74909877465226,24.108946847912197)"><circle class="b-outline" cx="0" cy="0" r="25" fill="#C990C0" stroke="#b261a5" stroke-width="2px"/><text class="caption" text-anchor="middle" pointer-events="none" x="0" y="5" font-size="10px" fill="#FFFFFF" font-family="Helvetica Neue, Helvetica, Arial, sans-serif"> Hoffa</text></g><g class="node selected" aria-label="graph-node12056" transform="translate(122.4178251872422,87.26921976859313)"><circle class="b-outline" cx="0" cy="0" r="25" fill="#F16667" stroke="#eb2728" stroke-width="2px"/><text class="caption" text-anchor="middle" pointer-events="none" x="0" y="0" font-size="10px" fill="#FFFFFF" font-family="Helvetica Neue, Helvetica, Arial, sans-serif"> Jack</text><text class="caption" text-anchor="middle" pointer-events="none" x="0" y="10" font-size="10px" fill="#FFFFFF" font-family="Helvetica Neue, Helvetica, Arial, sans-serif"> Nichol…</text></g><g class="node" aria-label="graph-node14165" transform="translate(84.94456365899161,-88.28031956273382)"><circle class="b-outline" cx="0" cy="0" r="25" fill="#57C7E3" stroke="#23b3d7" stroke-width="2px"/><text class="caption" text-anchor="middle" pointer-events="none" x="0" y="0" font-size="10px" fill="#2A2C34" font-family="Helvetica Neue, Helvetica, Arial, sans-serif"> Armand</text><text class="caption" text-anchor="middle" pointer-events="none" x="0" y="10" font-size="10px" fill="#2A2C34" font-family="Helvetica Neue, Helvetica, Arial, sans-serif"> Assante</text></g><g class="node" aria-label="graph-node16314" transform="translate(-107.4791406554524,-76.64139772772667)"><circle class="b-outline" cx="0" cy="0" r="25" fill="#57C7E3" stroke="#23b3d7" stroke-width="2px"/><text class="caption" text-anchor="middle" pointer-events="none" x="0" y="5" font-size="10px" fill="#2A2C34" font-family="Helvetica Neue, Helvetica, Arial, sans-serif"> J.T. Walsh</text></g><g class="node" aria-label="graph-node14801" transform="translate(-94.80558830123721,137.55241402567913)"><circle class="b-outline" cx="0" cy="0" r="25" fill="#F16667" stroke="#eb2728" stroke-width="2px"/><text class="caption" text-anchor="middle" pointer-events="none" x="0" y="0" font-size="10px" fill="#FFFFFF" font-family="Helvetica Neue, Helvetica, Arial, sans-serif"> Danny</text><text class="caption" text-anchor="middle" pointer-events="none" x="0" y="10" font-size="10px" fill="#FFFFFF" font-family="Helvetica Neue, Helvetica, Arial, sans-serif"> DeVito</text></g></g></svg>