<svg width="166" height="137" viewBox="0 0 166 137" fill="none" xmlns="http://www.w3.org/2000/svg">
    <path
        d="M127.764 117.659L139.565 110.818C146.283 106.897 150.425 98.5229 150.416 86.5975C150.397 62.5821 133.565 33.2968 112.816 21.1611C102.375 15.055 92.9318 14.4554 86.1286 18.4296L74.3306 25.2696C81.1338 21.2955 90.5751 21.8921 101.016 27.9981C121.765 40.1338 138.599 69.4297 138.616 93.4346C138.626 105.36 134.473 113.724 127.764 117.659Z"
        fill="#E7FAFB" stroke="#151E29" stroke-width="1.33967" stroke-linejoin="round" />
    <path
        d="M101.077 114.928C121.826 127.064 138.634 117.44 138.616 93.4348C138.599 69.43 121.765 40.1341 101.016 27.9984C80.2668 15.8627 63.4621 25.4852 63.4766 49.4918C63.491 73.4983 80.3275 102.792 101.077 114.928Z"
        fill="white" stroke="#151E29" stroke-width="1.33967" stroke-linejoin="round" />
    <path
        d="M116.371 96.4592C116.371 98.7533 108.694 96.1389 99.2529 90.662C89.8118 85.1852 82.1343 78.8507 82.1343 76.598C82.1343 75.7919 83.0784 75.5749 84.6816 75.8849"
        stroke="#0A6190" stroke-width="2.67935" stroke-linecap="round" stroke-linejoin="round" />
    <path
        d="M107.358 87.5724C107.358 89.0192 103.795 88.1098 99.253 85.4747C94.7106 82.8396 91.1479 79.6155 91.1479 78.1688C91.1479 77.7348 91.4686 77.5075 92.0564 77.4765"
        stroke="#0A6190" stroke-width="2.67935" stroke-linecap="round" stroke-linejoin="round" />
    <path
        d="M109.157 81.2999C109.157 82.7466 104.722 81.3309 99.2528 78.1585C93.7841 74.9861 89.3486 71.2556 89.3486 69.8089C89.3486 69.2716 89.9721 69.1166 91.13 69.3749"
        stroke="#0A6190" stroke-width="2.67935" stroke-linecap="round" stroke-linejoin="round" />
    <path
        d="M111.865 75.5546C111.865 77.0013 106.218 74.8829 99.2529 70.8425C92.2879 66.802 86.6411 62.3689 86.6411 60.9222C86.6411 60.1162 88.4224 60.4262 91.1479 61.4699"
        stroke="#0A6190" stroke-width="2.67935" stroke-linecap="round" stroke-linejoin="round" />
    <path
        d="M113.308 71.473C113.975 71.5822 114.684 71.8704 115.393 72.3211C116.102 72.7718 116.797 73.3761 117.439 74.0997C118.08 74.8232 118.656 75.6517 119.133 76.5379C119.61 77.4241 119.979 78.3506 120.219 79.2646C120.459 80.1785 120.565 81.062 120.531 81.8646C120.497 82.6672 120.323 83.3732 120.021 83.9422C119.718 84.5112 119.292 84.9321 118.767 85.181C118.241 85.4298 117.627 85.5017 116.959 85.3924L114.537 84.9997"
        stroke="#0A6190" stroke-width="2.67935" stroke-linecap="round" stroke-linejoin="round" />
    <path
        d="M100.838 45.1218C100.714 46.3876 100.329 47.4514 99.7112 48.2321C99.0939 49.0128 98.2607 49.49 97.2752 49.6273C93.6235 50.4437 92.43 58.1215 99.395 64.5387"
        stroke="#0A6190" stroke-width="2.67935" stroke-linecap="round" stroke-linejoin="round" />
    <path
        d="M103.813 54.6805C103.813 54.6805 100.037 54.1845 100.571 58.2147C101.106 62.2448 103.724 62.7925 103.368 66.8432"
        stroke="#0A6190" stroke-width="2.67935" stroke-linecap="round" stroke-linejoin="round" />
</svg>