<svg version="1.1" viewBox="0.0 0.0 421.0787401574803 459.0236220472441" fill="none" stroke="none" stroke-linecap="square" stroke-miterlimit="10" xmlns:xlink="http://www.w3.org/1999/xlink" xmlns="http://www.w3.org/2000/svg"><clipPath id="p.0"><path d="m0 0l421.07874 0l0 459.02362l-421.07874 0l0 -459.02362z" clip-rule="nonzero"/></clipPath><g clip-path="url(#p.0)"><path fill="#000000" fill-opacity="0.0" d="m0 0l421.07874 0l0 459.02362l-421.07874 0z" fill-rule="evenodd"/><path fill="#000000" fill-opacity="0.0" d="m119.75629 219.36588l79.055115 -48.913376l17.858276 28.850388l-79.05513 48.91339z" fill-rule="evenodd"/><path fill="#ff0000" d="m151.86609 223.7759q-1.0629883 0.6576996 -2.1132202 0.29693604q-1.0451813 -0.38226318 -1.8511047 -1.6842651q-0.5098877 -0.8237152 -0.6407776 -1.5695496q-0.13912964 -0.75912476 0.12033081 -1.3790131q0.26452637 -0.64138794 0.94218445 -1.060669q0.29231262 -0.18086243 0.5726166 -0.26242065q0.29356384 -0.089767456 0.56689453 -0.09352112q0.2651062 -0.017028809 0.51501465 0.030456543q0.24990845 0.04750061 0.4498291 0.16265869l-1.8750305 -3.0291443l1.4881744 -0.9207611l4.6957855 7.586136l-1.0762634 0.6659088l-0.8388672 -0.9692688q0.051864624 0.26190186 0.06385803 0.5484619q0.011993408 0.28656006 -0.08041382 0.5825958q-0.100616455 0.28274536 -0.32714844 0.5699005q-0.22653198 0.28715515 -0.6118622 0.5255585zm-0.33395386 -1.281662q0.55807495 -0.34529114 0.59861755 -0.90322876q0.032318115 -0.57121277 -0.5433502 -1.5012054q-0.35046387 -0.536499 -0.6920929 -0.821228q-0.34162903 -0.28471375 -0.68769836 -0.30944824q-0.3460846 -0.024734497 -0.7314148 0.21368408q-0.47834778 0.29595947 -0.5669708 0.8652649q-0.09686279 0.5560303 0.4459076 1.4328766q0.5427704 0.8768616 1.0982513 1.1211395q0.5605469 0.22276306 1.0787506 -0.097854614zm4.528534 -1.4606171l-3.2648468 -5.2744293l1.4217377 -0.8796692l3.2648468 5.2744293l-1.4217377 0.8796692zm-3.7468872 -6.0234833l-0.8305969 -1.3418579l1.4483032 -0.89611816l0.8306122 1.3418579l-1.4483185 0.89611816zm8.650024 3.1367798q-0.5580597 0.34529114 -1.1781158 0.47169495q-0.62005615 0.12640381 -1.2173004 -0.03691101q-0.59724426 -0.16331482 -1.0634918 -0.7384033l1.275589 -0.7892456q0.25242615 0.2296753 0.5320587 0.29551697q0.27142334 0.05255127 0.53842163 -0.02078247q0.26701355 -0.07333374 0.46632385 -0.19664001q0.43847656 -0.27130127 0.6087036 -0.56036377q0.1835022 -0.297287 0.0025787354 -0.5895691q-0.13157654 -0.21257019 -0.365036 -0.23348999q-0.22840881 -0.042419434 -0.62828064 0.11312866l-1.0534668 0.3761902q-0.794693 0.2895813 -1.4337006 0.20722961q-0.64723206 -0.09562683 -1.0502014 -0.7466278q-0.30934143 -0.4700775 -0.28715515 -0.99827576q0.013977051 -0.54148865 0.37402344 -1.0582428q0.3651123 -0.5382538 1.0959167 -0.9904175q0.9699707 -0.6001587 1.8259888 -0.52345276q0.84780884 0.06340027 1.3462982 0.83903503l-1.2490082 0.77279663q-0.2505188 -0.28596497 -0.60165405 -0.28919983q-0.3511505 -0.0032196045 -0.7231903 0.22697449q-0.38534546 0.23840332 -0.55555725 0.5274658q-0.15693665 0.280838 0.01576233 0.559845q0.13157654 0.21257019 0.40490723 0.20881653q0.27331543 -0.0037384033 0.7693634 -0.18203735l0.9655304 -0.34016418q0.50427246 -0.16500854 0.8984375 -0.1516571q0.39416504 0.01335144 0.68013 0.1487732q0.29103088 0.11392212 0.48397827 0.30690002q0.2062378 0.18475342 0.31315613 0.35746765q0.32894897 0.53141785 0.28018188 1.0760651q-0.056991577 0.5313568 -0.43855286 1.043045q-0.36827087 0.503479 -1.0326385 0.9145355zm5.460556 -3.4520721q-0.6909485 0.4275055 -1.1831818 0.49319458q-0.500473 0.05241394 -0.84399414 -0.17601013q-0.33024597 -0.2366333 -0.5934143 -0.66178894l-1.7763367 -2.8697052l-0.863678 0.53437805l-0.641449 -1.0362854l0.90353394 -0.55903625l-0.6148071 -1.8244781l1.0629883 -0.6576996l0.9868469 1.594284l1.1825714 -0.73168945l0.641449 1.0362854l-1.1825562 0.73168945l1.7485046 2.7950592q0.12335205 0.19929504 0.22077942 0.2676239q0.11071777 0.06011963 0.24168396 0.034210205q0.1227417 -0.03919983 0.28219604 -0.13786316l0.71751404 -0.4439392l0.56744385 0.9167175q-0.08163452 0.10562134 -0.2828369 0.28523254q-0.18792725 0.17140198 -0.57325745 0.40982056zm3.563614 -2.1314087q-0.50491333 0.31240845 -1.0319519 0.3812561q-0.52197266 0.047348022 -0.9831848 -0.16337585q-0.447937 -0.21894836 -0.7686615 -0.73709106q-0.5345459 -0.86357117 -0.17636108 -1.7099152q0.37145996 -0.85453796 1.771698 -1.7392731l0.6561432 -0.42434692l-0.19737244 -0.31886292q-0.2220459 -0.3587036 -0.54977417 -0.4131775q-0.33595276 -0.067733765 -0.7877197 0.21177673q-0.31889343 0.1973114 -0.51252747 0.5376129q-0.20185852 0.32699585 -0.09941101 0.7597046l-1.2357178 0.76457214q-0.32704163 -0.5877228 -0.2434845 -1.1355286q0.0753479 -0.56108093 0.46513367 -1.059494q0.4030609 -0.5066223 1.0674286 -0.91767883q0.8105316 -0.50149536 1.4337463 -0.59310913q0.614975 -0.104904175 1.0578461 0.13555908q0.45614624 0.23223877 0.7768707 0.75038147l2.2944489 3.7067108l-1.2490082 0.77279663l-0.6788025 -0.82943726q0.087875366 0.7357025 -0.18423462 1.2164154q-0.2670288 0.45921326 -0.82510376 0.8045044zm-0.103637695 -1.2955475q0.1993103 -0.12332153 0.34420776 -0.3048401q0.14996338 -0.20303345 0.22212219 -0.41304016q0.07720947 -0.23150635 0.058242798 -0.44026184q-0.0056762695 -0.21697998 -0.09107971 -0.3846283l-0.48519897 -0.78385925l-0.53656006 0.35035706q-0.3720398 0.23019409 -0.6333618 0.52049255q-0.26956177 0.27702332 -0.35372925 0.5863495q-0.08418274 0.3093109 0.1131897 0.6281738q0.23027039 0.37199402 0.6143036 0.42836q0.37582397 0.04309082 0.74786377 -0.18710327zm4.250931 -1.4174805l-3.2648468 -5.274414l1.4616089 -0.90434265l0.4605255 0.7440033q-0.003768921 -0.27326965 0.08862305 -0.5693054q0.08418274 -0.3093109 0.30249023 -0.60975647q0.2315979 -0.3086548 0.64349365 -0.56352234q0.49163818 -0.30418396 1.0269012 -0.3597412q0.540329 -0.0770874 1.0477295 0.17857361q0.5124512 0.23414612 0.91542053 0.8851471l2.1546326 3.4808502l-1.4881744 0.92077637l-2.039505 -3.2948608q-0.26316833 -0.42514038 -0.64720154 -0.48150635q-0.3922577 -0.06965637 -0.76431274 0.16053772q-0.23916626 0.14797974 -0.40748596 0.3807373q-0.17654419 0.21948242 -0.20756531 0.49591064q-0.039245605 0.26315308 0.117004395 0.5155792l2.0888367 3.3745575l-1.4881744 0.92077637zm8.415894 -5.0601196q-0.73080444 0.4521637 -1.5128174 0.4950409q-0.776947 0.021362305 -1.4874268 -0.38424683q-0.71047974 -0.40560913 -1.2368011 -1.2559052q-0.50164795 -0.8104248 -0.5692749 -1.6321564q-0.06762695 -0.8217468 0.289917 -1.5206757q0.3493042 -0.7122345 1.1199646 -1.1890564q0.6643677 -0.41105652 1.3154144 -0.4280243q0.64282227 -0.03024292 1.2096863 0.26210022q0.5586395 0.279068 0.9521332 0.82569885l-1.2357178 0.76457214q-0.17144775 -0.18791199 -0.4143982 -0.3132019q-0.23786926 -0.14680481 -0.51942444 -0.15634155q-0.28153992 -0.009552002 -0.5871582 0.17955017q-0.53149414 0.32884216 -0.6036682 0.92471313q-0.07218933 0.59588623 0.42947388 1.406311q0.4769745 0.77056885 1.0621948 1.0332031q0.5984955 0.2544098 1.1698608 -0.099105835q0.30560303 -0.18908691 0.41444397 -0.45855713q0.1088562 -0.26945496 0.091796875 -0.5345154q-0.011993408 -0.28656006 -0.10055542 -0.4889984l1.2091522 -0.74812317q0.29730225 0.56936646 0.29788208 1.1937256q-0.0076446533 0.611084 -0.32151794 1.17276q-0.32208252 0.5483856 -0.9731598 0.9512329zm5.686249 -3.5182343q-0.7839508 0.4850464 -1.5874786 0.52285767q-0.7902374 0.029586792 -1.4924927 -0.36273193q-0.70225525 -0.39233398 -1.2121277 -1.2160339q-0.48519897 -0.78385925 -0.5743408 -1.610672q-0.08912659 -0.8267975 0.25196838 -1.5523071q0.3410797 -0.72550964 1.1516113 -1.227005q0.7972412 -0.49327087 1.5558319 -0.48490906q0.75038147 -0.004928589 1.4076996 0.4335785q0.6623993 0.41697693 1.1558228 1.2141266l0.24671936 0.39857483l-3.5477142 2.195053q0.2549286 0.41184998 0.5687256 0.621933q0.313797 0.21006775 0.673172 0.22657776q0.35113525 0.0032348633 0.7098999 -0.21873474q0.3853302 -0.23841858 0.5656738 -0.5704956q0.1854248 -0.35357666 0.061447144 -0.7913513l1.3420258 -0.8303375q0.25238037 0.61553955 0.14033508 1.236084q-0.09875488 0.6123352 -0.48538208 1.1455231q-0.3733368 0.52497864 -0.9313965 0.8702698zm-3.1954956 -2.579605l2.152542 -1.3318329q-0.18914795 -0.3055725 -0.47320557 -0.4972992q-0.28407288 -0.19172668 -0.61369324 -0.18988037q-0.3378601 -0.011459351 -0.69662476 0.21052551q-0.33218384 0.20552063 -0.47772217 0.5344391q-0.14048767 0.30741882 -0.10888672 0.6553345q0.023376465 0.3346405 0.21759033 0.6187134z" fill-rule="nonzero"/><path fill="#000000" fill-opacity="0.0" d="m123.84818 7.9988947l0.9133835 275.937" fill-rule="evenodd"/><path stroke="#000000" stroke-width="3.0" stroke-linejoin="round" stroke-linecap="butt" d="m123.90776 25.998795l0.85380554 257.93713" fill-rule="evenodd"/><path fill="#000000" stroke="#000000" stroke-width="3.0" stroke-linecap="butt" d="m128.86293 25.982393l-5.0002365 -13.5978155l-4.910103 13.63062z" fill-rule="evenodd"/><path fill="#000000" fill-opacity="0.0" d="m124.81365 283.50656l288.7244 -1.8267822" fill-rule="evenodd"/><path stroke="#000000" stroke-width="3.0" stroke-linejoin="round" stroke-linecap="butt" d="m124.81365 283.50656l270.72476 -1.7128906" fill-rule="evenodd"/><path fill="#000000" stroke="#000000" stroke-width="3.0" stroke-linecap="butt" d="m395.56976 286.74878l13.582672 -5.0412292l-13.645355 -4.868988z" fill-rule="evenodd"/><path fill="#000000" fill-opacity="0.0" d="m124.81365 283.55603l-112.37796 162.64566" fill-rule="evenodd"/><path stroke="#000000" stroke-width="3.0" stroke-linejoin="round" stroke-linecap="butt" d="m124.81365 283.55603l-102.145905 147.83673" fill-rule="evenodd"/><path fill="#000000" stroke="#000000" stroke-width="3.0" stroke-linecap="butt" d="m18.591013 428.57596l-3.6622734 14.017517l11.815748 -8.383972z" fill-rule="evenodd"/><path fill="#000000" d="m227.29134 110.70079l0 0c0 -5.52285 4.4771576 -10.0 10.0 -10.0l0 0c2.6521606 0 5.195709 1.053566 7.0710754 2.9289322c1.8753662 1.8753586 2.9289246 4.4188995 2.9289246 7.071068l0 0c0 5.5228424 -4.4771576 10.0 -10.0 10.0l0 0c-5.5228424 0 -10.0 -4.4771576 -10.0 -10.0z" fill-rule="evenodd"/><path stroke="#000000" stroke-width="1.0" stroke-linejoin="round" stroke-linecap="butt" d="m227.29134 110.70079l0 0c0 -5.52285 4.4771576 -10.0 10.0 -10.0l0 0c2.6521606 0 5.195709 1.053566 7.0710754 2.9289322c1.8753662 1.8753586 2.9289246 4.4188995 2.9289246 7.071068l0 0c0 5.5228424 -4.4771576 10.0 -10.0 10.0l0 0c-5.5228424 0 -10.0 -4.4771576 -10.0 -10.0z" fill-rule="evenodd"/><path fill="#000000" d="m181.39896 168.79527l0 0c0 -3.3658905 2.8343506 -6.0944824 6.3307037 -6.0944824l0 0c1.6790009 0 3.2892456 0.64208984 4.476486 1.7850342c1.1872406 1.1429291 1.8542175 2.6930847 1.8542175 4.3094482l0 0c0 3.3658905 -2.8343506 6.0944977 -6.3307037 6.0944977l0 0c-3.4963531 0 -6.3307037 -2.7286072 -6.3307037 -6.0944977z" fill-rule="evenodd"/><path stroke="#000000" stroke-width="1.0" stroke-linejoin="round" stroke-linecap="butt" d="m181.39896 168.79527l0 0c0 -3.3658905 2.8343506 -6.0944824 6.3307037 -6.0944824l0 0c1.6790009 0 3.2892456 0.64208984 4.476486 1.7850342c1.1872406 1.1429291 1.8542175 2.6930847 1.8542175 4.3094482l0 0c0 3.3658905 -2.8343506 6.0944977 -6.3307037 6.0944977l0 0c-3.4963531 0 -6.3307037 -2.7286072 -6.3307037 -6.0944977z" fill-rule="evenodd"/><path fill="#000000" d="m160.74803 78.88189l0 0c0 -2.209137 1.8966217 -4.0 4.2362213 -4.0l0 0c1.1235199 0 2.2010193 0.42142487 2.995453 1.1715698c0.79444885 0.7501526 1.2407684 1.7675629 1.2407684 2.8284302l0 0c0 2.209137 -1.8966217 4.0 -4.2362213 4.0l0 0c-2.3395996 0 -4.2362213 -1.790863 -4.2362213 -4.0z" fill-rule="evenodd"/><path stroke="#000000" stroke-width="1.0" stroke-linejoin="round" stroke-linecap="butt" d="m160.74803 78.88189l0 0c0 -2.209137 1.8966217 -4.0 4.2362213 -4.0l0 0c1.1235199 0 2.2010193 0.42142487 2.995453 1.1715698c0.79444885 0.7501526 1.2407684 1.7675629 1.2407684 2.8284302l0 0c0 2.209137 -1.8966217 4.0 -4.2362213 4.0l0 0c-2.3395996 0 -4.2362213 -1.790863 -4.2362213 -4.0z" fill-rule="evenodd"/><path fill="#000000" d="m242.05905 379.97375l0 0c0 -5.5228577 4.4771576 -10.0 10.0 -10.0l0 0c2.652176 0 5.195709 1.0535583 7.0710754 2.9289246c1.8753662 1.8753662 2.9289246 4.418915 2.9289246 7.0710754l0 0c0 5.5228577 -4.4771423 10.0 -10.0 10.0l0 0c-5.5228424 0 -10.0 -4.4771423 -10.0 -10.0z" fill-rule="evenodd"/><path stroke="#000000" stroke-width="1.0" stroke-linejoin="round" stroke-linecap="butt" d="m242.05905 379.97375l0 0c0 -5.5228577 4.4771576 -10.0 10.0 -10.0l0 0c2.652176 0 5.195709 1.0535583 7.0710754 2.9289246c1.8753662 1.8753662 2.9289246 4.418915 2.9289246 7.0710754l0 0c0 5.5228577 -4.4771423 10.0 -10.0 10.0l0 0c-5.5228424 0 -10.0 -4.4771423 -10.0 -10.0z" fill-rule="evenodd"/><path fill="#000000" d="m208.54593 348.39108l0 0c0 -3.3659058 2.8343506 -6.0944824 6.330719 -6.0944824l0 0c1.6790009 0 3.2892456 0.64208984 4.476486 1.7850342c1.1872253 1.1429138 1.8542175 2.6930847 1.8542175 4.3094482l0 0c0 3.3658752 -2.8343506 6.0944824 -6.3307037 6.0944824l0 0c-3.4963684 0 -6.330719 -2.7286072 -6.330719 -6.0944824z" fill-rule="evenodd"/><path stroke="#000000" stroke-width="1.0" stroke-linejoin="round" stroke-linecap="butt" d="m208.54593 348.39108l0 0c0 -3.3659058 2.8343506 -6.0944824 6.330719 -6.0944824l0 0c1.6790009 0 3.2892456 0.64208984 4.476486 1.7850342c1.1872253 1.1429138 1.8542175 2.6930847 1.8542175 4.3094482l0 0c0 3.3658752 -2.8343506 6.0944824 -6.3307037 6.0944824l0 0c-3.4963684 0 -6.330719 -2.7286072 -6.330719 -6.0944824z" fill-rule="evenodd"/><path fill="#000000" d="m350.2651 348.39108l0 0c0 -3.3659058 2.8343506 -6.0944824 6.3306885 -6.0944824l0 0c1.6790161 0 3.2892456 0.64208984 4.4765015 1.7850342c1.1872253 1.1429138 1.8542175 2.6930847 1.8542175 4.3094482l0 0c0 3.3658752 -2.8343506 6.0944824 -6.330719 6.0944824l0 0c-3.496338 0 -6.3306885 -2.7286072 -6.3306885 -6.0944824z" fill-rule="evenodd"/><path stroke="#000000" stroke-width="1.0" stroke-linejoin="round" stroke-linecap="butt" d="m350.2651 348.39108l0 0c0 -3.3659058 2.8343506 -6.0944824 6.3306885 -6.0944824l0 0c1.6790161 0 3.2892456 0.64208984 4.4765015 1.7850342c1.1872253 1.1429138 1.8542175 2.6930847 1.8542175 4.3094482l0 0c0 3.3658752 -2.8343506 6.0944824 -6.330719 6.0944824l0 0c-3.496338 0 -6.3306885 -2.7286072 -6.3306885 -6.0944824z" fill-rule="evenodd"/><path fill="#000000" d="m148.08661 320.6063l0 0c0 -3.3658752 2.8343658 -6.0944824 6.330719 -6.0944824l0 0c1.6790009 0 3.2892456 0.64208984 4.476486 1.7850342c1.1872406 1.1429443 1.8542175 2.6930847 1.8542175 4.3094482l0 0c0 3.3659058 -2.8343506 6.0944824 -6.3307037 6.0944824l0 0c-3.4963531 0 -6.330719 -2.7285767 -6.330719 -6.0944824z" fill-rule="evenodd"/><path stroke="#000000" stroke-width="1.0" stroke-linejoin="round" stroke-linecap="butt" d="m148.08661 320.6063l0 0c0 -3.3658752 2.8343658 -6.0944824 6.330719 -6.0944824l0 0c1.6790009 0 3.2892456 0.64208984 4.476486 1.7850342c1.1872406 1.1429443 1.8542175 2.6930847 1.8542175 4.3094482l0 0c0 3.3659058 -2.8343506 6.0944824 -6.3307037 6.0944824l0 0c-3.4963531 0 -6.330719 -2.7285767 -6.330719 -6.0944824z" fill-rule="evenodd"/><path fill="#000000" d="m245.72966 320.6063l0 0c0 -3.3658752 2.8343506 -6.0944824 6.3307037 -6.0944824l0 0c1.6790161 0 3.2892456 0.64208984 4.4765015 1.7850342c1.1872253 1.1429443 1.8542175 2.6930847 1.8542175 4.3094482l0 0c0 3.3659058 -2.8343658 6.0944824 -6.330719 6.0944824l0 0c-3.4963531 0 -6.3307037 -2.7285767 -6.3307037 -6.0944824z" fill-rule="evenodd"/><path stroke="#000000" stroke-width="1.0" stroke-linejoin="round" stroke-linecap="butt" d="m245.72966 320.6063l0 0c0 -3.3658752 2.8343506 -6.0944824 6.3307037 -6.0944824l0 0c1.6790161 0 3.2892456 0.64208984 4.4765015 1.7850342c1.1872253 1.1429443 1.8542175 2.6930847 1.8542175 4.3094482l0 0c0 3.3659058 -2.8343658 6.0944824 -6.330719 6.0944824l0 0c-3.4963531 0 -6.3307037 -2.7285767 -6.3307037 -6.0944824z" fill-rule="evenodd"/><path fill="#000000" d="m271.96588 110.70079l0 0c0 -2.2091446 1.8966064 -4.0 4.236206 -4.0l0 0c1.1235352 0 2.2010193 0.42142487 2.9954834 1.1715698c0.7944336 0.75014496 1.2407532 1.7675629 1.2407532 2.8284302l0 0c0 2.209137 -1.896637 4.0 -4.2362366 4.0l0 0c-2.3395996 0 -4.236206 -1.790863 -4.236206 -4.0z" fill-rule="evenodd"/><path stroke="#000000" stroke-width="1.0" stroke-linejoin="round" stroke-linecap="butt" d="m271.96588 110.70079l0 0c0 -2.2091446 1.8966064 -4.0 4.236206 -4.0l0 0c1.1235352 0 2.2010193 0.42142487 2.9954834 1.1715698c0.7944336 0.75014496 1.2407532 1.7675629 1.2407532 2.8284302l0 0c0 2.209137 -1.896637 4.0 -4.2362366 4.0l0 0c-2.3395996 0 -4.236206 -1.790863 -4.236206 -4.0z" fill-rule="evenodd"/><path fill="#000000" d="m183.49344 303.97375l0 0c0 -2.209137 1.8966217 -4.0 4.2362213 -4.0l0 0c1.1235199 0 2.2010193 0.42141724 2.995453 1.1715698c0.79444885 0.7501526 1.2407684 1.7675476 1.2407684 2.8284302l0 0c0 2.209137 -1.8966217 4.0 -4.2362213 4.0l0 0c-2.3395996 0 -4.2362213 -1.790863 -4.2362213 -4.0z" fill-rule="evenodd"/><path stroke="#000000" stroke-width="1.0" stroke-linejoin="round" stroke-linecap="butt" d="m183.49344 303.97375l0 0c0 -2.209137 1.8966217 -4.0 4.2362213 -4.0l0 0c1.1235199 0 2.2010193 0.42141724 2.995453 1.1715698c0.79444885 0.7501526 1.2407684 1.7675476 1.2407684 2.8284302l0 0c0 2.209137 -1.8966217 4.0 -4.2362213 4.0l0 0c-2.3395996 0 -4.2362213 -1.790863 -4.2362213 -4.0z" fill-rule="evenodd"/><path fill="#000000" d="m333.32022 242.69685l0 0c0 -2.209137 1.8966064 -4.0 4.236206 -4.0l0 0c1.1235046 0 2.2010193 0.42141724 2.995453 1.1715698c0.7944641 0.7501526 1.2407837 1.7675629 1.2407837 2.8284302l0 0c0 2.209137 -1.896637 4.0 -4.2362366 4.0l0 0c-2.3395996 0 -4.236206 -1.790863 -4.236206 -4.0z" fill-rule="evenodd"/><path stroke="#000000" stroke-width="1.0" stroke-linejoin="round" stroke-linecap="butt" d="m333.32022 242.69685l0 0c0 -2.209137 1.8966064 -4.0 4.236206 -4.0l0 0c1.1235046 0 2.2010193 0.42141724 2.995453 1.1715698c0.7944641 0.7501526 1.2407837 1.7675629 1.2407837 2.8284302l0 0c0 2.209137 -1.896637 4.0 -4.2362366 4.0l0 0c-2.3395996 0 -4.236206 -1.790863 -4.236206 -4.0z" fill-rule="evenodd"/><path fill="#000000" d="m291.08923 338.2966l0 0c0 -2.209137 1.896637 -4.0 4.2362366 -4.0l0 0c1.1235046 0 2.2010193 0.42141724 2.995453 1.1715698c0.7944336 0.7501221 1.2407532 1.7675476 1.2407532 2.8284302l0 0c0 2.209137 -1.8966064 4.0 -4.236206 4.0l0 0c-2.3395996 0 -4.2362366 -1.790863 -4.2362366 -4.0z" fill-rule="evenodd"/><path stroke="#000000" stroke-width="1.0" stroke-linejoin="round" stroke-linecap="butt" d="m291.08923 338.2966l0 0c0 -2.209137 1.896637 -4.0 4.2362366 -4.0l0 0c1.1235046 0 2.2010193 0.42141724 2.995453 1.1715698c0.7944336 0.7501221 1.2407532 1.7675476 1.2407532 2.8284302l0 0c0 2.209137 -1.8966064 4.0 -4.236206 4.0l0 0c-2.3395996 0 -4.2362366 -1.790863 -4.2362366 -4.0z" fill-rule="evenodd"/><path fill="#000000" d="m294.05905 136.70079l0 0c0 -5.5228577 4.4771423 -10.0 10.0 -10.0l0 0c2.6521606 0 5.195709 1.053566 7.0710754 2.9289246c1.8753662 1.8753662 2.9289246 4.418915 2.9289246 7.0710754l0 0c0 5.5228424 -4.4771423 10.0 -10.0 10.0l0 0c-5.5228577 0 -10.0 -4.4771576 -10.0 -10.0z" fill-rule="evenodd"/><path stroke="#000000" stroke-width="1.0" stroke-linejoin="round" stroke-linecap="butt" d="m294.05905 136.70079l0 0c0 -5.5228577 4.4771423 -10.0 10.0 -10.0l0 0c2.6521606 0 5.195709 1.053566 7.0710754 2.9289246c1.8753662 1.8753662 2.9289246 4.418915 2.9289246 7.0710754l0 0c0 5.5228424 -4.4771423 10.0 -10.0 10.0l0 0c-5.5228577 0 -10.0 -4.4771576 -10.0 -10.0z" fill-rule="evenodd"/><path fill="#000000" d="m204.87665 240.19029l0 0c0 -5.5228577 4.4771423 -10.0 10.0 -10.0l0 0c2.6521606 0 5.195694 1.0535583 7.07106 2.9289246c1.8753662 1.8753662 2.9289398 4.4188995 2.9289398 7.0710754l0 0c0 5.5228424 -4.4771576 10.0 -10.0 10.0l0 0c-5.5228577 0 -10.0 -4.4771576 -10.0 -10.0z" fill-rule="evenodd"/><path stroke="#000000" stroke-width="1.0" stroke-linejoin="round" stroke-linecap="butt" d="m204.87665 240.19029l0 0c0 -5.5228577 4.4771423 -10.0 10.0 -10.0l0 0c2.6521606 0 5.195694 1.0535583 7.07106 2.9289246c1.8753662 1.8753662 2.9289398 4.4188995 2.9289398 7.0710754l0 0c0 5.5228424 -4.4771576 10.0 -10.0 10.0l0 0c-5.5228577 0 -10.0 -4.4771576 -10.0 -10.0z" fill-rule="evenodd"/><path fill="#000000" d="m42.96719 228.70079l0 0c0 -5.5228577 4.477154 -10.0 10.0 -10.0l0 0c2.6521683 0 5.1957054 1.0535583 7.071068 2.9289246c1.8753662 1.8753662 2.9289322 4.418915 2.9289322 7.0710754l0 0c0 5.5228424 -4.47715 10.0 -10.0 10.0l0 0c-5.522846 0 -10.0 -4.4771576 -10.0 -10.0z" fill-rule="evenodd"/><path stroke="#000000" stroke-width="1.0" stroke-linejoin="round" stroke-linecap="butt" d="m42.96719 228.70079l0 0c0 -5.5228577 4.477154 -10.0 10.0 -10.0l0 0c2.6521683 0 5.1957054 1.0535583 7.071068 2.9289246c1.8753662 1.8753662 2.9289322 4.418915 2.9289322 7.0710754l0 0c0 5.5228424 -4.47715 10.0 -10.0 10.0l0 0c-5.522846 0 -10.0 -4.4771576 -10.0 -10.0z" fill-rule="evenodd"/><path fill="#000000" d="m73.51312 293.937l0 0c0 -5.5228577 4.47715 -10.0 10.0 -10.0l0 0c2.6521683 0 5.1957016 1.0535583 7.071068 2.9289246c1.8753662 1.8753662 2.9289322 4.418915 2.9289322 7.0710754l0 0c0 5.5228577 -4.47715 10.0 -10.0 10.0l0 0c-5.52285 0 -10.0 -4.4771423 -10.0 -10.0z" fill-rule="evenodd"/><path stroke="#000000" stroke-width="1.0" stroke-linejoin="round" stroke-linecap="butt" d="m73.51312 293.937l0 0c0 -5.5228577 4.47715 -10.0 10.0 -10.0l0 0c2.6521683 0 5.1957016 1.0535583 7.071068 2.9289246c1.8753662 1.8753662 2.9289322 4.418915 2.9289322 7.0710754l0 0c0 5.5228577 -4.47715 10.0 -10.0 10.0l0 0c-5.52285 0 -10.0 -4.4771423 -10.0 -10.0z" fill-rule="evenodd"/><path fill="#000000" d="m274.05905 268.70078l0 0c0 -5.522827 4.4771423 -10.0 10.0 -10.0l0 0c2.6521606 0 5.195709 1.0535889 7.0710754 2.928955c1.8753662 1.8753662 2.9289246 4.4188843 2.9289246 7.071045l0 0c0 5.5228577 -4.4771423 10.0 -10.0 10.0l0 0c-5.5228577 0 -10.0 -4.4771423 -10.0 -10.0z" fill-rule="evenodd"/><path stroke="#000000" stroke-width="1.0" stroke-linejoin="round" stroke-linecap="butt" d="m274.05905 268.70078l0 0c0 -5.522827 4.4771423 -10.0 10.0 -10.0l0 0c2.6521606 0 5.195709 1.0535889 7.0710754 2.928955c1.8753662 1.8753662 2.9289246 4.4188843 2.9289246 7.071045l0 0c0 5.5228577 -4.4771423 10.0 -10.0 10.0l0 0c-5.5228577 0 -10.0 -4.4771423 -10.0 -10.0z" fill-rule="evenodd"/><path fill="#000000" d="m73.51312 124.70079l0 0c0 -5.52285 4.47715 -10.0 10.0 -10.0l0 0c2.6521683 0 5.1957016 1.053566 7.071068 2.9289322c1.8753662 1.8753586 2.9289322 4.4188995 2.9289322 7.071068l0 0c0 5.5228424 -4.47715 10.0 -10.0 10.0l0 0c-5.52285 0 -10.0 -4.4771576 -10.0 -10.0z" fill-rule="evenodd"/><path stroke="#000000" stroke-width="1.0" stroke-linejoin="round" stroke-linecap="butt" d="m73.51312 124.70079l0 0c0 -5.52285 4.47715 -10.0 10.0 -10.0l0 0c2.6521683 0 5.1957016 1.053566 7.071068 2.9289322c1.8753662 1.8753586 2.9289322 4.4188995 2.9289322 7.071068l0 0c0 5.5228424 -4.47715 10.0 -10.0 10.0l0 0c-5.52285 0 -10.0 -4.4771576 -10.0 -10.0z" fill-rule="evenodd"/><path fill="#000000" d="m306.05905 300.70078l0 0c0 -5.522827 4.4771423 -10.0 10.0 -10.0l0 0c2.6521606 0 5.195709 1.0535889 7.0710754 2.928955c1.8753662 1.8753662 2.9289246 4.4188843 2.9289246 7.071045l0 0c0 5.5228577 -4.4771423 10.0 -10.0 10.0l0 0c-5.5228577 0 -10.0 -4.4771423 -10.0 -10.0z" fill-rule="evenodd"/><path stroke="#000000" stroke-width="1.0" stroke-linejoin="round" stroke-linecap="butt" d="m306.05905 300.70078l0 0c0 -5.522827 4.4771423 -10.0 10.0 -10.0l0 0c2.6521606 0 5.195709 1.0535889 7.0710754 2.928955c1.8753662 1.8753662 2.9289246 4.4188843 2.9289246 7.071045l0 0c0 5.5228577 -4.4771423 10.0 -10.0 10.0l0 0c-5.5228577 0 -10.0 -4.4771423 -10.0 -10.0z" fill-rule="evenodd"/><path fill="#000000" d="m167.51312 393.0656l0 0c0 -5.5228577 4.4771576 -10.0 10.0 -10.0l0 0c2.6521606 0 5.195709 1.0535583 7.0710754 2.9289246c1.875351 1.8753662 2.9289246 4.418915 2.9289246 7.0710754l0 0c0 5.5228577 -4.4771576 10.0 -10.0 10.0l0 0c-5.5228424 0 -10.0 -4.4771423 -10.0 -10.0z" fill-rule="evenodd"/><path stroke="#000000" stroke-width="1.0" stroke-linejoin="round" stroke-linecap="butt" d="m167.51312 393.0656l0 0c0 -5.5228577 4.4771576 -10.0 10.0 -10.0l0 0c2.6521606 0 5.195709 1.0535583 7.0710754 2.9289246c1.875351 1.8753662 2.9289246 4.418915 2.9289246 7.0710754l0 0c0 5.5228577 -4.4771576 10.0 -10.0 10.0l0 0c-5.5228424 0 -10.0 -4.4771423 -10.0 -10.0z" fill-rule="evenodd"/><path fill="#000000" d="m106.27559 352.6063l0 0c0 -3.3658752 2.8343582 -6.0944824 6.3307114 -6.0944824l0 0c1.6790085 0 3.2892456 0.64208984 4.476486 1.7850342c1.1872406 1.1429443 1.8542175 2.6930847 1.8542175 4.3094482l0 0c0 3.3659058 -2.8343506 6.0944824 -6.3307037 6.0944824l0 0c-3.4963531 0 -6.3307114 -2.7285767 -6.3307114 -6.0944824z" fill-rule="evenodd"/><path stroke="#000000" stroke-width="1.0" stroke-linejoin="round" stroke-linecap="butt" d="m106.27559 352.6063l0 0c0 -3.3658752 2.8343582 -6.0944824 6.3307114 -6.0944824l0 0c1.6790085 0 3.2892456 0.64208984 4.476486 1.7850342c1.1872406 1.1429443 1.8542175 2.6930847 1.8542175 4.3094482l0 0c0 3.3659058 -2.8343506 6.0944824 -6.3307037 6.0944824l0 0c-3.4963531 0 -6.3307114 -2.7285767 -6.3307114 -6.0944824z" fill-rule="evenodd"/><path fill="#000000" d="m277.72964 352.6063l0 0c0 -3.3658752 2.834381 -6.0944824 6.330719 -6.0944824l0 0c1.6790161 0 3.2892456 0.64208984 4.4765015 1.7850342c1.1872253 1.1429443 1.8542175 2.6930847 1.8542175 4.3094482l0 0c0 3.3659058 -2.8343506 6.0944824 -6.330719 6.0944824l0 0c-3.496338 0 -6.330719 -2.7285767 -6.330719 -6.0944824z" fill-rule="evenodd"/><path stroke="#000000" stroke-width="1.0" stroke-linejoin="round" stroke-linecap="butt" d="m277.72964 352.6063l0 0c0 -3.3658752 2.834381 -6.0944824 6.330719 -6.0944824l0 0c1.6790161 0 3.2892456 0.64208984 4.4765015 1.7850342c1.1872253 1.1429443 1.8542175 2.6930847 1.8542175 4.3094482l0 0c0 3.3659058 -2.8343506 6.0944824 -6.330719 6.0944824l0 0c-3.496338 0 -6.330719 -2.7285767 -6.330719 -6.0944824z" fill-rule="evenodd"/><path fill="#000000" d="m98.27559 222.70079l0 0c0 -3.3658905 2.8343582 -6.0944977 6.3307114 -6.0944977l0 0c1.6790085 0 3.2892456 0.6421051 4.476486 1.7850342c1.1872406 1.1429443 1.8542175 2.6931 1.8542175 4.3094635l0 0c0 3.3658905 -2.8343506 6.0944824 -6.3307037 6.0944824l0 0c-3.4963531 0 -6.3307114 -2.728592 -6.3307114 -6.0944824z" fill-rule="evenodd"/><path stroke="#000000" stroke-width="1.0" stroke-linejoin="round" stroke-linecap="butt" d="m98.27559 222.70079l0 0c0 -3.3658905 2.8343582 -6.0944977 6.3307114 -6.0944977l0 0c1.6790085 0 3.2892456 0.6421051 4.476486 1.7850342c1.1872406 1.1429443 1.8542175 2.6931 1.8542175 4.3094635l0 0c0 3.3658905 -2.8343506 6.0944824 -6.3307037 6.0944824l0 0c-3.4963531 0 -6.3307114 -2.728592 -6.3307114 -6.0944824z" fill-rule="evenodd"/><path fill="#000000" d="m93.514435 400.6063l0 0c0 -3.3658752 2.8343582 -6.0944824 6.3307114 -6.0944824l0 0c1.6790085 0 3.2892456 0.64208984 4.476486 1.7850342c1.1872406 1.1429443 1.8542175 2.6930847 1.8542175 4.3094482l0 0c0 3.3659058 -2.8343506 6.0944824 -6.3307037 6.0944824l0 0c-3.4963531 0 -6.3307114 -2.7285767 -6.3307114 -6.0944824z" fill-rule="evenodd"/><path stroke="#000000" stroke-width="1.0" stroke-linejoin="round" stroke-linecap="butt" d="m93.514435 400.6063l0 0c0 -3.3658752 2.8343582 -6.0944824 6.3307114 -6.0944824l0 0c1.6790085 0 3.2892456 0.64208984 4.476486 1.7850342c1.1872406 1.1429443 1.8542175 2.6930847 1.8542175 4.3094482l0 0c0 3.3659058 -2.8343506 6.0944824 -6.3307037 6.0944824l0 0c-3.4963531 0 -6.3307114 -2.7285767 -6.3307114 -6.0944824z" fill-rule="evenodd"/><path fill="#000000" d="m325.72964 400.6063l0 0c0 -3.3658752 2.834381 -6.0944824 6.330719 -6.0944824l0 0c1.6790161 0 3.2892456 0.64208984 4.4765015 1.7850342c1.1872253 1.1429443 1.8542175 2.6930847 1.8542175 4.3094482l0 0c0 3.3659058 -2.8343506 6.0944824 -6.330719 6.0944824l0 0c-3.496338 0 -6.330719 -2.7285767 -6.330719 -6.0944824z" fill-rule="evenodd"/><path stroke="#000000" stroke-width="1.0" stroke-linejoin="round" stroke-linecap="butt" d="m325.72964 400.6063l0 0c0 -3.3658752 2.834381 -6.0944824 6.330719 -6.0944824l0 0c1.6790161 0 3.2892456 0.64208984 4.4765015 1.7850342c1.1872253 1.1429443 1.8542175 2.6930847 1.8542175 4.3094482l0 0c0 3.3659058 -2.8343506 6.0944824 -6.330719 6.0944824l0 0c-3.496338 0 -6.330719 -2.7285767 -6.330719 -6.0944824z" fill-rule="evenodd"/><path fill="#000000" d="m155.09448 130.70079l0 0c0 -2.209137 1.8966217 -4.0 4.2362213 -4.0l0 0c1.1235199 0 2.2010193 0.42142487 2.9954681 1.1715698c0.79444885 0.7501526 1.2407532 1.7675629 1.2407532 2.8284302l0 0c0 2.209137 -1.8966217 4.0 -4.2362213 4.0l0 0c-2.3395996 0 -4.2362213 -1.790863 -4.2362213 -4.0z" fill-rule="evenodd"/><path stroke="#000000" stroke-width="1.0" stroke-linejoin="round" stroke-linecap="butt" d="m155.09448 130.70079l0 0c0 -2.209137 1.8966217 -4.0 4.2362213 -4.0l0 0c1.1235199 0 2.2010193 0.42142487 2.9954681 1.1715698c0.79444885 0.7501526 1.2407532 1.7675629 1.2407532 2.8284302l0 0c0 2.209137 -1.8966217 4.0 -4.2362213 4.0l0 0c-2.3395996 0 -4.2362213 -1.790863 -4.2362213 -4.0z" fill-rule="evenodd"/><path fill="#000000" d="m139.09448 192.6063l0 0c0 -2.209137 1.8966217 -4.0 4.2362213 -4.0l0 0c1.1235199 0 2.2010193 0.4214325 2.9954681 1.1715851c0.79444885 0.7501373 1.2407532 1.7675629 1.2407532 2.828415l0 0c0 2.2091522 -1.8966217 4.0 -4.2362213 4.0l0 0c-2.3395996 0 -4.2362213 -1.7908478 -4.2362213 -4.0z" fill-rule="evenodd"/><path stroke="#000000" stroke-width="1.0" stroke-linejoin="round" stroke-linecap="butt" d="m139.09448 192.6063l0 0c0 -2.209137 1.8966217 -4.0 4.2362213 -4.0l0 0c1.1235199 0 2.2010193 0.4214325 2.9954681 1.1715851c0.79444885 0.7501373 1.2407532 1.7675629 1.2407532 2.828415l0 0c0 2.2091522 -1.8966217 4.0 -4.2362213 4.0l0 0c-2.3395996 0 -4.2362213 -1.7908478 -4.2362213 -4.0z" fill-rule="evenodd"/><path fill="#000000" d="m38.2231 352.6063l0 0c0 -2.209137 1.8966179 -4.0 4.2362175 -4.0l0 0c1.1235161 0 2.2010155 0.42144775 2.9954605 1.1715698c0.79444504 0.7501526 1.2407608 1.7675781 1.2407608 2.8284302l0 0c0 2.209137 -1.8966217 4.0 -4.2362213 4.0l0 0c-2.3395996 0 -4.2362175 -1.790863 -4.2362175 -4.0z" fill-rule="evenodd"/><path stroke="#000000" stroke-width="1.0" stroke-linejoin="round" stroke-linecap="butt" d="m38.2231 352.6063l0 0c0 -2.209137 1.8966179 -4.0 4.2362175 -4.0l0 0c1.1235161 0 2.2010155 0.42144775 2.9954605 1.1715698c0.79444504 0.7501526 1.2407608 1.7675781 1.2407608 2.8284302l0 0c0 2.209137 -1.8966217 4.0 -4.2362213 4.0l0 0c-2.3395996 0 -4.2362175 -1.790863 -4.2362175 -4.0z" fill-rule="evenodd"/><path fill="#000000" d="m341.79266 86.88189l0 0c0 -2.209137 1.8966064 -4.0 4.236206 -4.0l0 0c1.1235046 0 2.2010193 0.42142487 2.995453 1.1715698c0.7944641 0.7501526 1.2407837 1.7675629 1.2407837 2.8284302l0 0c0 2.209137 -1.896637 4.0 -4.2362366 4.0l0 0c-2.3395996 0 -4.236206 -1.790863 -4.236206 -4.0z" fill-rule="evenodd"/><path stroke="#000000" stroke-width="1.0" stroke-linejoin="round" stroke-linecap="butt" d="m341.79266 86.88189l0 0c0 -2.209137 1.8966064 -4.0 4.236206 -4.0l0 0c1.1235046 0 2.2010193 0.42142487 2.995453 1.1715698c0.7944641 0.7501526 1.2407837 1.7675629 1.2407837 2.8284302l0 0c0 2.209137 -1.896637 4.0 -4.2362366 4.0l0 0c-2.3395996 0 -4.236206 -1.790863 -4.236206 -4.0z" fill-rule="evenodd"/><path fill="#000000" d="m255.69292 222.70079l0 0c0 -2.209137 1.8966217 -4.0 4.2362213 -4.0l0 0c1.1235046 0 2.2010193 0.42141724 2.995453 1.1715698c0.7944336 0.7501526 1.2407532 1.7675629 1.2407532 2.8284302l0 0c0 2.209137 -1.8966064 4.0 -4.236206 4.0l0 0c-2.3395996 0 -4.2362213 -1.790863 -4.2362213 -4.0z" fill-rule="evenodd"/><path stroke="#000000" stroke-width="1.0" stroke-linejoin="round" stroke-linecap="butt" d="m255.69292 222.70079l0 0c0 -2.209137 1.8966217 -4.0 4.2362213 -4.0l0 0c1.1235046 0 2.2010193 0.42141724 2.995453 1.1715698c0.7944336 0.7501526 1.2407532 1.7675629 1.2407532 2.8284302l0 0c0 2.209137 -1.8966064 4.0 -4.236206 4.0l0 0c-2.3395996 0 -4.2362213 -1.790863 -4.2362213 -4.0z" fill-rule="evenodd"/><path fill="#000000" d="m36.12861 120.79527l0 0c0 -3.3658905 2.8343544 -6.0944824 6.3307076 -6.0944824l0 0c1.6790085 0 3.2892494 0.64208984 4.47649 1.7850342c1.1872368 1.1429367 1.8542213 2.6930923 1.8542213 4.3094482l0 0c0 3.3658981 -2.8343544 6.09449 -6.3307114 6.09449l0 0c-3.4963531 0 -6.3307076 -2.728592 -6.3307076 -6.09449z" fill-rule="evenodd"/><path stroke="#000000" stroke-width="1.0" stroke-linejoin="round" stroke-linecap="butt" d="m36.12861 120.79527l0 0c0 -3.3658905 2.8343544 -6.0944824 6.3307076 -6.0944824l0 0c1.6790085 0 3.2892494 0.64208984 4.47649 1.7850342c1.1872368 1.1429367 1.8542213 2.6930923 1.8542213 4.3094482l0 0c0 3.3658981 -2.8343544 6.09449 -6.3307114 6.09449l0 0c-3.4963531 0 -6.3307076 -2.728592 -6.3307076 -6.09449z" fill-rule="evenodd"/><path fill="#000000" d="m36.12861 314.06824l0 0c0 -3.3658752 2.8343544 -6.0944824 6.3307076 -6.0944824l0 0c1.6790085 0 3.2892494 0.64208984 4.47649 1.7850342c1.1872368 1.1429443 1.8542213 2.6930847 1.8542213 4.3094482l0 0c0 3.3659058 -2.8343544 6.0944824 -6.3307114 6.0944824l0 0c-3.4963531 0 -6.3307076 -2.7285767 -6.3307076 -6.0944824z" fill-rule="evenodd"/><path stroke="#000000" stroke-width="1.0" stroke-linejoin="round" stroke-linecap="butt" d="m36.12861 314.06824l0 0c0 -3.3658752 2.8343544 -6.0944824 6.3307076 -6.0944824l0 0c1.6790085 0 3.2892494 0.64208984 4.47649 1.7850342c1.1872368 1.1429443 1.8542213 2.6930847 1.8542213 4.3094482l0 0c0 3.3659058 -2.8343544 6.0944824 -6.3307114 6.0944824l0 0c-3.4963531 0 -6.3307076 -2.7285767 -6.3307076 -6.0944824z" fill-rule="evenodd"/><path fill="#000000" d="m102.125984 155.75066l0 0c0 -3.3658905 2.8343582 -6.0944824 6.3307114 -6.0944824l0 0c1.6790085 0 3.2892456 0.64208984 4.476486 1.7850342c1.187233 1.1429291 1.8542175 2.6930847 1.8542175 4.3094482l0 0c0 3.3658905 -2.8343506 6.0944824 -6.3307037 6.0944824l0 0c-3.4963531 0 -6.3307114 -2.728592 -6.3307114 -6.0944824z" fill-rule="evenodd"/><path stroke="#000000" stroke-width="1.0" stroke-linejoin="round" stroke-linecap="butt" d="m102.125984 155.75066l0 0c0 -3.3658905 2.8343582 -6.0944824 6.3307114 -6.0944824l0 0c1.6790085 0 3.2892456 0.64208984 4.476486 1.7850342c1.187233 1.1429291 1.8542175 2.6930847 1.8542175 4.3094482l0 0c0 3.3658905 -2.8343506 6.0944824 -6.3307037 6.0944824l0 0c-3.4963531 0 -6.3307114 -2.728592 -6.3307114 -6.0944824z" fill-rule="evenodd"/><path fill="#4c99a4" d="m95.781715 261.09018l0 0c-2.600525 -4.8792114 -0.75325775 -10.942764 4.125984 -13.543289l0 0c2.3430939 -1.2488251 5.0863037 -1.5157013 7.6261673 -0.7419281c2.5398636 0.7737732 4.6683197 2.5248108 5.917137 4.8679047l0 0c2.600525 4.879257 0.75325775 10.942795 -4.125984 13.54332l0 0c-4.879242 2.600525 -10.942787 0.75323486 -13.543304 -4.126007z" fill-rule="evenodd"/><path stroke="#4c99a4" stroke-width="1.0" stroke-linejoin="round" stroke-linecap="butt" d="m95.781715 261.09018l0 0c-2.600525 -4.8792114 -0.75325775 -10.942764 4.125984 -13.543289l0 0c2.3430939 -1.2488251 5.0863037 -1.5157013 7.6261673 -0.7419281c2.5398636 0.7737732 4.6683197 2.5248108 5.917137 4.8679047l0 0c2.600525 4.879257 0.75325775 10.942795 -4.125984 13.54332l0 0c-4.879242 2.600525 -10.942787 0.75323486 -13.543304 -4.126007z" fill-rule="evenodd"/><path fill="#0a6190" d="m221.87709 181.6256l0 0c1.9830017 -5.1575623 7.771576 -7.7310333 12.929138 -5.7480316l0 0c2.4767456 0.9522705 4.473755 2.8494263 5.5517273 5.274109c1.0779572 2.4246826 1.1485748 5.1782837 0.19630432 7.6550293l0 0c-1.983017 5.157547 -7.771576 7.7310333 -12.929138 5.7480316l0 0c-5.1575623 -1.983017 -7.7310333 -7.771591 -5.7480316 -12.929138z" fill-rule="evenodd"/><path stroke="#0a6190" stroke-width="1.0" stroke-linejoin="round" stroke-linecap="butt" d="m221.87709 181.6256l0 0c1.9830017 -5.1575623 7.771576 -7.7310333 12.929138 -5.7480316l0 0c2.4767456 0.9522705 4.473755 2.8494263 5.5517273 5.274109c1.0779572 2.4246826 1.1485748 5.1782837 0.19630432 7.6550293l0 0c-1.983017 5.157547 -7.771576 7.7310333 -12.929138 5.7480316l0 0c-5.1575623 -1.983017 -7.7310333 -7.771591 -5.7480316 -12.929138z" fill-rule="evenodd"/><path fill="#000000" fill-opacity="0.0" d="m8.0 161.4147l0 0c0 -4.2211456 3.4219074 -7.643051 7.6430445 -7.643051l39.078743 0l0 0l20.02362 0l5.7060394 0c2.0270615 0 3.9710999 0.8052521 5.4044495 2.2386017c1.433342 1.4333496 2.238594 3.3773804 2.238594 5.4044495l0 19.107605l0 0l0 11.464569l0 0c0 4.2211304 -3.4219131 7.643051 -7.6430435 7.643051l-5.7060394 0l19.884789 39.83203l-39.90841 -39.83203l-39.078743 0c-4.221137 0 -7.6430445 -3.4219208 -7.6430445 -7.643051l0 0l0 -11.464569l0 0z" fill-rule="evenodd"/><path stroke="#4c99a4" stroke-width="3.0" stroke-linejoin="round" stroke-linecap="butt" d="m8.0 161.4147l0 0c0 -4.2211456 3.4219074 -7.643051 7.6430445 -7.643051l39.078743 0l0 0l20.02362 0l5.7060394 0c2.0270615 0 3.9710999 0.8052521 5.4044495 2.2386017c1.433342 1.4333496 2.238594 3.3773804 2.238594 5.4044495l0 19.107605l0 0l0 11.464569l0 0c0 4.2211304 -3.4219131 7.643051 -7.6430435 7.643051l-5.7060394 0l19.884789 39.83203l-39.90841 -39.83203l-39.078743 0c-4.221137 0 -7.6430445 -3.4219208 -7.6430445 -7.643051l0 0l0 -11.464569l0 0z" fill-rule="evenodd"/><path fill="#000000" d="m22.299692 183.62079l4.8125 -13.484375l2.890625 0l4.828127 13.484375l-2.71875 0l-1.1093769 -3.125l-4.859375 0l-1.109375 3.125l-2.734375 0zm4.46875 -5.5l3.578125 0l-1.78125 -5.375l-1.796875 5.375zm9.741274 8.5l0 -12.640625l2.734375 0l0 1.390625q0.21875 -0.34375 0.53125 -0.625q0.3125 -0.296875 0.6875 -0.5q0.390625 -0.21875 0.828125 -0.328125q0.453125 -0.125 0.9531212 -0.125q1.0625 0 1.90625 0.53125q0.84375 0.515625 1.3125 1.625q0.484375 1.09375 0.484375 2.78125q0 1.75 -0.515625 2.875q-0.515625 1.125 -1.421875 1.671875q-0.90625 0.53125 -2.0468712 0.53125q-0.453125 0 -0.875 -0.125q-0.40625 -0.125 -0.765625 -0.34375q-0.34375 -0.234375 -0.625 -0.515625q-0.265625 -0.296875 -0.46875 -0.65625l0 4.453125l-2.71875 0zm4.8125 -4.8125q0.875 0 1.4687462 -0.734375q0.609375 -0.734375 0.609375 -2.328125q0 -1.40625 -0.578125 -2.1875q-0.5625 -0.796875 -1.4999962 -0.796875q-1.0625 0 -1.578125 0.859375q-0.515625 0.859375 -0.515625 2.125q0 0.8125 0.21875 1.515625q0.234375 0.6875 0.6875 1.125q0.46875 0.421875 1.1875 0.421875zm6.511837 4.8125l0 -12.640625l2.734375 0l0 1.390625q0.21875 -0.34375 0.53125 -0.625q0.3125 -0.296875 0.6875 -0.5q0.390625 -0.21875 0.828125 -0.328125q0.453125 -0.125 0.953125 -0.125q1.0625 0 1.90625 0.53125q0.84375 0.515625 1.3125 1.625q0.484375 1.09375 0.484375 2.78125q0 1.75 -0.515625 2.875q-0.515625 1.125 -1.421875 1.671875q-0.90625 0.53125 -2.046875 0.53125q-0.453125 0 -0.875 -0.125q-0.40625 -0.125 -0.765625 -0.34375q-0.34375 -0.234375 -0.625 -0.515625q-0.265625 -0.296875 -0.46875 -0.65625l0 4.453125l-2.71875 0zm4.8125 -4.8125q0.875 0 1.46875 -0.734375q0.609375 -0.734375 0.609375 -2.328125q0 -1.40625 -0.578125 -2.1875q-0.5625 -0.796875 -1.5 -0.796875q-1.0625 0 -1.578125 0.859375q-0.515625 0.859375 -0.515625 2.125q0 0.8125 0.21875 1.515625q0.234375 0.6875 0.6875 1.125q0.46875 0.421875 1.1875 0.421875zm9.589966 1.984375q-1.0625 0 -1.6875 -0.25q-0.625 -0.25 -0.9375 -0.671875q-0.296875 -0.421875 -0.375 -0.921875q-0.078125 -0.515625 -0.078125 -1.03125l0 -11.15625l2.65625 0l0 10.8125q0 0.53125 0.234375 0.875q0.234375 0.328125 0.859375 0.40625l0.453125 0.015625l0 1.6875q-0.265625 0.09375 -0.5625 0.15625q-0.28125 0.078125 -0.5625 0.078125zm6.912323 0.015625q-1.4375 0 -2.53125 -0.59375q-1.078125 -0.609375 -1.6875 -1.703125q-0.59375 -1.109375 -0.59375 -2.59375q0 -1.453125 0.546875 -2.609375q0.5625 -1.171875 1.59375 -1.84375q1.046875 -0.671875 2.53125 -0.671875q1.484375 0 2.46875 0.625q1.0 0.609375 1.515625 1.71875q0.515625 1.109375 0.515625 2.546875l0 0.734375l-6.484375 0q0 0.75 0.234375 1.296875q0.25 0.53125 0.703125 0.828125q0.46875 0.296875 1.125 0.296875q0.703125 0 1.21875 -0.296875q0.53125 -0.296875 0.734375 -0.984375l2.453125 0q-0.15625 1.03125 -0.8125 1.765625q-0.65625 0.71875 -1.59375 1.109375q-0.921875 0.375 -1.9375 0.375zm-2.125 -6.015625l3.9375 0q0 -0.578125 -0.21875 -1.0625q-0.21875 -0.484375 -0.65625 -0.75q-0.4375 -0.28125 -1.078125 -0.28125q-0.625 0 -1.078125 0.296875q-0.4375 0.296875 -0.6875 0.78125q-0.234375 0.484375 -0.21875 1.015625z" fill-rule="nonzero"/><path fill="#000000" fill-opacity="0.0" d="m287.36484 165.50131l0 0c0 -4.2211304 3.4219055 -7.643051 7.643036 -7.643051l5.706024 0l0 0l20.02362 0l39.078766 0c2.0270386 0 3.9710999 0.8052521 5.4044495 2.2386017c1.4333496 1.4333496 2.2385864 3.3773956 2.2385864 5.4044495l0 19.107605l0 0l0 11.464569l0 0c0 4.2211456 -3.4219055 7.643051 -7.643036 7.643051l-39.078766 0l-20.02362 0l0 0l-5.706024 0c-4.2211304 0 -7.643036 -3.4219055 -7.643036 -7.643051l0 0l-36.4382 -11.7348175l36.4382 0.2702484z" fill-rule="evenodd"/><path stroke="#0a6190" stroke-width="3.0" stroke-linejoin="round" stroke-linecap="butt" d="m287.36484 165.50131l0 0c0 -4.2211304 3.4219055 -7.643051 7.643036 -7.643051l5.706024 0l0 0l20.02362 0l39.078766 0c2.0270386 0 3.9710999 0.8052521 5.4044495 2.2386017c1.4333496 1.4333496 2.2385864 3.3773956 2.2385864 5.4044495l0 19.107605l0 0l0 11.464569l0 0c0 4.2211456 -3.4219055 7.643051 -7.643036 7.643051l-39.078766 0l-20.02362 0l0 0l-5.706024 0c-4.2211304 0 -7.643036 -3.4219055 -7.643036 -7.643051l0 0l-36.4382 -11.7348175l36.4382 0.2702484z" fill-rule="evenodd"/><path fill="#000000" d="m307.4077 187.7074l0 -13.484375l9.171875 0l0 2.265625l-6.4375 0l0 3.390625l5.578125 0l0 2.234375l-5.578125 0l0 5.59375l-2.734375 0zm11.101868 0l0 -9.640625l2.609375 0l0 2.28125q0.234375 -0.734375 0.6562195 -1.28125q0.4375 -0.5625 1.03125 -0.875q0.609375 -0.3125 1.375 -0.3125q0.140625 0 0.25 0.015625q0.109375 0.015625 0.171875 0.03125l0 2.59375q-0.078125 -0.03125 -0.203125 -0.03125q-0.109375 -0.015625 -0.203125 -0.03125q-0.8125 -0.0625 -1.375 0.046875q-0.5625 0.109375 -0.921875 0.390625q-0.35934448 0.265625 -0.5155945 0.65625q-0.15625 0.390625 -0.15625 0.875l0 5.28125l-2.71875 0zm11.233215 0.1875q-0.671875 0 -1.328125 -0.203125q-0.640625 -0.203125 -1.171875 -0.609375q-0.53125 -0.40625 -0.859375 -0.984375q-0.3125 -0.59375 -0.3125 -1.359375l0 -6.671875l2.71875 0l0 6.3125q0 0.671875 0.4375 1.109375q0.4375 0.421875 1.296875 0.421875q0.796875 0 1.265625 -0.40625q0.46875 -0.421875 0.46875 -1.171875l0 -6.265625l2.703125 0l0 9.640625l-2.0625 0l-0.3125 -1.90625q-0.171875 0.84375 -0.640625 1.296875q-0.453125 0.453125 -1.046875 0.625q-0.59375 0.171875 -1.15625 0.171875zm7.6252136 -0.1875l0 -9.640625l2.609375 0l0 9.640625l-2.609375 0zm-0.015625 -11.03125l0 -2.453125l2.640625 0l0 2.453125l-2.640625 0zm9.137482 11.140625q-1.28125 0 -1.984375 -0.328125q-0.6875 -0.328125 -0.953125 -0.90625q-0.265625 -0.59375 -0.265625 -1.375l0 -5.25l-1.5625 0l0 -1.890625l1.640625 0l0.703125 -2.921875l1.9375 0l0 2.90625l2.140625 0l0 1.90625l-2.140625 0l0.015625 5.140625q0 0.359375 0.078125 0.53125q0.09375 0.171875 0.28125 0.21875q0.203125 0.046875 0.5 0.046875l1.296875 0l0 1.6875q-0.203125 0.078125 -0.59375 0.15625q-0.390625 0.078125 -1.09375 0.078125z" fill-rule="nonzero"/><path fill="#000000" fill-opacity="0.0" d="m113.451004 251.67287l108.62993 -62.393692" fill-rule="evenodd"/><path stroke="#ff0000" stroke-width="2.0" stroke-linejoin="round" stroke-linecap="butt" stroke-dasharray="2.0,6.0" d="m113.451004 251.67287l108.62993 -62.393692" fill-rule="evenodd"/></g></svg>