<svg xmlns="http://www.w3.org/2000/svg" width="595" height="508" viewBox="0 0 595 508"><defs><style type="text/css"/></defs><g transform="translate(136.55110474644664 30.961113930835133) scale(1)"><g class="relationship"><g transform="translate(-1.1723460390943958e-32 378.9796534081454) rotate(-90)" stroke-width="5" stroke="#000000"><path d="M 59 0 L 248.08063697478556 0"/><polygon points="-24.8621506177483,0 -27.62461179749811,9.20820393249937 0,0 -27.62461179749811,-9.20820393249937" fill="#000000" transform="translate(272.9427875925339 0) rotate(0)" stroke="none"/></g><g transform="translate(9.401632978782536e-15 225.43933492075263) rotate(90) translate(0 -13)"><g transform="translate(0 0)"><g transform="translate(-79.21875 0)" fill="#ffffff" stroke="#000000" stroke-width="0"><rect x="0" y="0" width="158.4375" height="26" rx="5" ry="5" stroke="none"/><text xml:space="preserve" x="5" y="17.5" stroke="none" text-anchor="left" font-family="sans-serif" font-size="16" font-weight="normal" fill="#000000">FROM_DOCUMENT</text></g></g></g></g><g class="relationship"><g transform="translate(331.942787592534 378.9796534081454) rotate(180)" stroke-width="5" stroke="#000000"><path d="M 59 0 L 248.08063697478568 0"/><polygon points="-24.8621506177483,0 -27.62461179749811,9.20820393249937 0,0 -27.62461179749811,-9.20820393249937" fill="#000000" transform="translate(272.942787592534 0) rotate(0)" stroke="none"/></g><g transform="translate(178.40246910514117 378.9796534081454) rotate(360) translate(0 -13)"><g transform="translate(0 0)"><g transform="translate(-61.4453125 0)" fill="#ffffff" stroke="#000000" stroke-width="0"><rect x="0" y="0" width="122.890625" height="26" rx="5" ry="5" stroke="none"/><text xml:space="preserve" x="5" y="17.5" stroke="none" text-anchor="left" font-family="sans-serif" font-size="16" font-weight="normal" fill="#000000">FROM_CHUNK</text></g></g></g></g><g class="relationship"><g stroke-width="5" stroke="#000000"><path d="M 390.942787592534 378.9796534081454 L 390.942787592534 378.9796534081454 A 40 40 0 0 0 430.942787592534 338.9796534081454 L 430.942787592534 317.04857809927125 L 430.942787592534 295.1175027903971 A 40 40 0 0 1 390.942787592534 255.1175027903971 L 381.442787592534 255.1175027903971 L 371.942787592534 255.1175027903971 A 40 40 0 0 0 331.942787592534 295.1175027903971 L 331.942787592534 295.1175027903971 L 331.942787592534 295.1175027903971"/><polygon points="-24.8621506177483,0 -27.62461179749811,9.20820393249937 0,0 -27.62461179749811,-9.20820393249937" fill="#000000" transform="translate(331.942787592534 295.1175027903971) rotate(90) translate(24.8621506177483 0)" stroke="none"/></g></g><g class="relationship"><g transform="translate(3.8117408928910077e-32 47.03686581561153) rotate(-1.2264492992300423e-15)" stroke-width="5" stroke="#000000"><path d="M 59 0 L 248.08063697478568 0"/><polygon points="-24.8621506177483,0 -27.62461179749811,9.20820393249937 0,0 -27.62461179749811,-9.20820393249937" fill="#000000" transform="translate(272.942787592534 0) rotate(0)" stroke="none"/></g><g transform="translate(153.54031848739282 47.03686581561153) rotate(-1.2264492992300423e-15) translate(0 -13)"><g transform="translate(0 0)"><g transform="translate(-36.55859375 0)" fill="#ffffff" stroke="#000000" stroke-width="0"><rect x="0" y="0" width="73.1171875" height="26" rx="5" ry="5" stroke="none"/><text xml:space="preserve" x="5" y="17.5" stroke="none" text-anchor="left" font-family="sans-serif" font-size="16" font-weight="normal" fill="#000000">PDF_OF</text></g></g></g></g><g class="node"><g fill="#ffffff" stroke="#000000" stroke-width="4"><circle cx="3.8117408928910077e-32" cy="47.03686581561153" r="52"/></g><g transform="translate(3.8117408928910077e-32 47.03686581561153)"><g transform="scale(0.380859994140625) translate(0 0)"><g transform="translate(0 0)"><g font-family="sans-serif" font-size="50" font-weight="normal" fill="#000000" text-anchor="middle"><text xml:space="preserve" x="0" y="13" stroke="none">Document</text></g></g></g><g transform="translate(-39.597979746446654 -77.99797974644666)"><g transform="translate(0 0)"><g transform="translate(-86.265625 0)" fill="white"><rect x="0" y="0" width="86.265625" height="38.4" rx="0" ry="0" stroke="none"/><g font-family="sans-serif" font-size="16" font-weight="normal" fill="#000000" text-anchor="end"><text xml:space="preserve" x="77.375" y="14.1" stroke="none">path:</text><text xml:space="preserve" x="81.8203125" y="14.1" stroke="none" text-anchor="start"></text><text xml:space="preserve" x="77.375" y="33.3" stroke="none" text-anchor="end">createdAt:</text><text xml:space="preserve" x="81.8203125" y="33.3" stroke="none" text-anchor="start"></text></g></g></g></g></g></g><g class="node"><g fill="#ffffff" stroke="#000000" stroke-width="4"><circle cx="-1.1723460390943958e-32" cy="378.9796534081454" r="52"/></g><g transform="translate(-1.1723460390943958e-32 378.9796534081454)"><g transform="scale(0.57421917578125) translate(0 0)"><g transform="translate(0 0)"><g font-family="sans-serif" font-size="50" font-weight="normal" fill="#000000" text-anchor="middle"><text xml:space="preserve" x="0" y="13" stroke="none">Chunk</text></g></g></g><g transform="translate(-39.597979746446654 39.59797974644666)"><g transform="translate(0 0)"><g transform="translate(-96.953125 0)" fill="white"><rect x="0" y="0" width="96.953125" height="57.599999999999994" rx="0" ry="0" stroke="none"/><g font-family="sans-serif" font-size="16" font-weight="normal" fill="#000000" text-anchor="end"><text xml:space="preserve" x="88.0625" y="14.1" stroke="none">index:</text><text xml:space="preserve" x="92.5078125" y="14.1" stroke="none" text-anchor="start"></text><text xml:space="preserve" x="88.0625" y="33.3" stroke="none" text-anchor="end">text:</text><text xml:space="preserve" x="92.5078125" y="33.3" stroke="none" text-anchor="start"></text><text xml:space="preserve" x="88.0625" y="52.5" stroke="none" text-anchor="end">embedding:</text><text xml:space="preserve" x="92.5078125" y="52.5" stroke="none" text-anchor="start"></text></g></g></g></g></g></g><g class="node"><g fill="#ffffff" stroke="#000000" stroke-width="4"><circle cx="331.942787592534" cy="378.9796534081454" r="52"/></g><g transform="translate(331.942787592534 378.9796534081454)"><g transform="scale(0.3331405624722052) translate(0 -59)"><g transform="translate(0 0)"><g fill="#000000" font-family="sans-serif" font-size="50" font-weight="normal" text-anchor="middle"><text xml:space="preserve" x="0" y="43" stroke="none">Entity</text></g></g><g transform="translate(0 64)"><g transform="translate(-121.51171875 0)"><g fill="#ffffff" stroke="#000000" stroke-width="4"><rect x="0" y="0" width="243.0234375" height="54" rx="27" ry="27"/><text xml:space="preserve" x="27" y="37.5" stroke="none" font-family="sans-serif" font-size="40" font-weight="normal" fill="#000000">__Entity__</text></g></g></g></g></g></g><g class="node"><g fill="#ffffff" stroke="#000000" stroke-width="4"><circle cx="331.942787592534" cy="47.03686581561152" r="52"/></g><g transform="translate(331.942787592534 47.03686581561152)"><g transform="scale(0.5195317304687499) translate(0 0)"><g transform="translate(0 0)"><g font-family="sans-serif" font-size="50" font-weight="normal" fill="#000000" text-anchor="middle"><text xml:space="preserve" x="0" y="13" stroke="none">Lesson</text></g></g></g><g transform="translate(56 -38.4)"><g transform="translate(0 0)"><g transform="translate(0 0)" fill="white"><rect x="0" y="0" width="70.2578125" height="76.8" rx="0" ry="0" stroke="none"/><g font-family="sans-serif" font-size="16" font-weight="normal" fill="#000000" text-anchor="end"><text xml:space="preserve" x="61.3671875" y="14.1" stroke="none">name:</text><text xml:space="preserve" x="65.8125" y="14.1" stroke="none" text-anchor="start"></text><text xml:space="preserve" x="61.3671875" y="33.3" stroke="none" text-anchor="end">module:</text><text xml:space="preserve" x="65.8125" y="33.3" stroke="none" text-anchor="start"></text><text xml:space="preserve" x="61.3671875" y="52.5" stroke="none" text-anchor="end">course:</text><text xml:space="preserve" x="65.8125" y="52.5" stroke="none" text-anchor="start"></text><text xml:space="preserve" x="61.3671875" y="71.7" stroke="none" text-anchor="end">url:</text><text xml:space="preserve" x="65.8125" y="71.7" stroke="none" text-anchor="start"></text></g></g></g></g></g></g></g></svg>