<svg xmlns="http://www.w3.org/2000/svg" xmlns:xlink="http://www.w3.org/1999/xlink" width="426" height="458" viewbox="0 0 426 458"><path transform="translate(410.5615234375 437.5060966544099) scale(1) translate(-342 -209) rotate(-35.33133133891637)" d="M 27 0 L 254.0547331800293 0" fill="none" stroke="#A5ABB6" stroke-width="1"></path><polygon transform="translate(410.5615234375 437.5060966544099) scale(1) translate(-342 -209) rotate(-35.33133133891637) translate(263.5047331800293 0) rotate(0)" points="-9.45,0 -10.5,3.5 0,0 -10.5,-3.5" fill="undefined" stroke="none" stroke-width="1"></polygon><rect transform="translate(410.5615234375 437.5060966544099) scale(1) translate(-227.35475647071826 -290.2675144005035) rotate(-35.33133133891637) translate(0 -19) translate(0 0) translate(-27.46630859375 0)" x="0" y="0" width="54.9326171875" height="14" rx="2" ry="2" fill="#ffffff" stroke="none"></rect><text xml:space="preserve" transform="translate(410.5615234375 437.5060966544099) scale(1) translate(-227.35475647071826 -290.2675144005035) rotate(-35.33133133891637) translate(0 -19) translate(0 0) translate(-27.46630859375 0)" x="2" y="9.78564453125" font-family="sans-serif" font-size="10" font-weight="normal" text-anchor="left" fill="#000000">CONTAINS</text><rect transform="translate(410.5615234375 437.5060966544099) scale(1) translate(-227.35475647071826 -290.2675144005035) rotate(-35.33133133891637) translate(0 -19) translate(0 14) translate(-31.13037109375 0)" x="0" y="0" width="62.2607421875" height="24" rx="0" ry="0" fill="white" stroke="none"></rect><text xml:space="preserve" transform="translate(410.5615234375 437.5060966544099) scale(1) translate(-227.35475647071826 -290.2675144005035) rotate(-35.33133133891637) translate(0 -19) translate(0 14) translate(-31.13037109375 0)" x="42.802734375" y="8.78564453125" font-family="sans-serif" font-size="10" font-weight="normal" text-anchor="end" fill="#000000">discount:</text><text xml:space="preserve" transform="translate(410.5615234375 437.5060966544099) scale(1) translate(-227.35475647071826 -290.2675144005035) rotate(-35.33133133891637) translate(0 -19) translate(0 14) translate(-31.13037109375 0)" x="45.5810546875" y="8.78564453125" font-family="sans-serif" font-size="10" font-weight="normal" text-anchor="start" fill="#000000">,80</text><text xml:space="preserve" transform="translate(410.5615234375 437.5060966544099) scale(1) translate(-227.35475647071826 -290.2675144005035) rotate(-35.33133133891637) translate(0 -19) translate(0 14) translate(-31.13037109375 0)" x="42.802734375" y="20.78564453125" font-family="sans-serif" font-size="10" font-weight="normal" text-anchor="end" fill="#000000">qty:</text><text xml:space="preserve" transform="translate(410.5615234375 437.5060966544099) scale(1) translate(-227.35475647071826 -290.2675144005035) rotate(-35.33133133891637) translate(0 -19) translate(0 14) translate(-31.13037109375 0)" x="45.5810546875" y="20.78564453125" font-family="sans-serif" font-size="10" font-weight="normal" text-anchor="start" fill="#000000">5</text><path transform="translate(410.5615234375 437.5060966544099) scale(1) translate(-342 -209) rotate(0)" d="M 27 0 L 200.55 0" fill="none" stroke="#A5ABB6" stroke-width="1"></path><polygon transform="translate(410.5615234375 437.5060966544099) scale(1) translate(-342 -209) rotate(0) translate(210 0) rotate(0)" points="-9.45,0 -10.5,3.5 0,0 -10.5,-3.5" fill="undefined" stroke="none" stroke-width="1"></polygon><rect transform="translate(410.5615234375 437.5060966544099) scale(1) translate(-228.225 -209) rotate(0) translate(0 -19) translate(0 0) translate(-27.46630859375 0)" x="0" y="0" width="54.9326171875" height="14" rx="2" ry="2" fill="#ffffff" stroke="none"></rect><text xml:space="preserve" transform="translate(410.5615234375 437.5060966544099) scale(1) translate(-228.225 -209) rotate(0) translate(0 -19) translate(0 0) translate(-27.46630859375 0)" x="2" y="9.78564453125" font-family="sans-serif" font-size="10" font-weight="normal" text-anchor="left" fill="#000000">CONTAINS</text><rect transform="translate(410.5615234375 437.5060966544099) scale(1) translate(-228.225 -209) rotate(0) translate(0 -19) translate(0 14) translate(-29.7412109375 0)" x="0" y="0" width="59.482421875" height="24" rx="0" ry="0" fill="white" stroke="none"></rect><text xml:space="preserve" transform="translate(410.5615234375 437.5060966544099) scale(1) translate(-228.225 -209) rotate(0) translate(0 -19) translate(0 14) translate(-29.7412109375 0)" x="42.802734375" y="8.78564453125" font-family="sans-serif" font-size="10" font-weight="normal" text-anchor="end" fill="#000000">discount:</text><text xml:space="preserve" transform="translate(410.5615234375 437.5060966544099) scale(1) translate(-228.225 -209) rotate(0) translate(0 -19) translate(0 14) translate(-29.7412109375 0)" x="45.5810546875" y="8.78564453125" font-family="sans-serif" font-size="10" font-weight="normal" text-anchor="start" fill="#000000">0</text><text xml:space="preserve" transform="translate(410.5615234375 437.5060966544099) scale(1) translate(-228.225 -209) rotate(0) translate(0 -19) translate(0 14) translate(-29.7412109375 0)" x="42.802734375" y="20.78564453125" font-family="sans-serif" font-size="10" font-weight="normal" text-anchor="end" fill="#000000">qty:</text><text xml:space="preserve" transform="translate(410.5615234375 437.5060966544099) scale(1) translate(-228.225 -209) rotate(0) translate(0 -19) translate(0 14) translate(-29.7412109375 0)" x="45.5810546875" y="20.78564453125" font-family="sans-serif" font-size="10" font-weight="normal" text-anchor="start" fill="#000000">33</text><path transform="translate(410.5615234375 437.5060966544099) scale(1) translate(-342 -209) rotate(35.33133133891637)" d="M 27 0 L 254.0547331800293 0" fill="none" stroke="#A5ABB6" stroke-width="1"></path><polygon transform="translate(410.5615234375 437.5060966544099) scale(1) translate(-342 -209) rotate(35.33133133891637) translate(263.5047331800293 0) rotate(0)" points="-9.45,0 -10.5,3.5 0,0 -10.5,-3.5" fill="undefined" stroke="none" stroke-width="1"></polygon><rect transform="translate(410.5615234375 437.5060966544099) scale(1) translate(-227.35475647071826 -127.73248559949647) rotate(35.33133133891637) translate(0 -19) translate(0 0) translate(-27.46630859375 0)" x="0" y="0" width="54.9326171875" height="14" rx="2" ry="2" fill="#ffffff" stroke="none"></rect><text xml:space="preserve" transform="translate(410.5615234375 437.5060966544099) scale(1) translate(-227.35475647071826 -127.73248559949647) rotate(35.33133133891637) translate(0 -19) translate(0 0) translate(-27.46630859375 0)" x="2" y="9.78564453125" font-family="sans-serif" font-size="10" font-weight="normal" text-anchor="left" fill="#000000">CONTAINS</text><rect transform="translate(410.5615234375 437.5060966544099) scale(1) translate(-227.35475647071826 -127.73248559949647) rotate(35.33133133891637) translate(0 -19) translate(0 14) translate(-31.13037109375 0)" x="0" y="0" width="62.2607421875" height="24" rx="0" ry="0" fill="white" stroke="none"></rect><text xml:space="preserve" transform="translate(410.5615234375 437.5060966544099) scale(1) translate(-227.35475647071826 -127.73248559949647) rotate(35.33133133891637) translate(0 -19) translate(0 14) translate(-31.13037109375 0)" x="42.802734375" y="8.78564453125" font-family="sans-serif" font-size="10" font-weight="normal" text-anchor="end" fill="#000000">discount:</text><text xml:space="preserve" transform="translate(410.5615234375 437.5060966544099) scale(1) translate(-227.35475647071826 -127.73248559949647) rotate(35.33133133891637) translate(0 -19) translate(0 14) translate(-31.13037109375 0)" x="45.5810546875" y="8.78564453125" font-family="sans-serif" font-size="10" font-weight="normal" text-anchor="start" fill="#000000">.95</text><text xml:space="preserve" transform="translate(410.5615234375 437.5060966544099) scale(1) translate(-227.35475647071826 -127.73248559949647) rotate(35.33133133891637) translate(0 -19) translate(0 14) translate(-31.13037109375 0)" x="42.802734375" y="20.78564453125" font-family="sans-serif" font-size="10" font-weight="normal" text-anchor="end" fill="#000000">qty:</text><text xml:space="preserve" transform="translate(410.5615234375 437.5060966544099) scale(1) translate(-227.35475647071826 -127.73248559949647) rotate(35.33133133891637) translate(0 -19) translate(0 14) translate(-31.13037109375 0)" x="45.5810546875" y="20.78564453125" font-family="sans-serif" font-size="10" font-weight="normal" text-anchor="start" fill="#000000">22</text><circle transform="translate(410.5615234375 437.5060966544099) scale(1)" cx="-342" cy="-209" r="26" fill="#d33115" stroke="#d33115" strokewidth="2"></circle><rect transform="translate(410.5615234375 437.5060966544099) scale(1) translate(-342 -209) translate(-29 -6.9999999999999964) translate(0 0) translate(-39.5615234375 0)" x="0" y="0" width="39.5615234375" height="14" rx="7" ry="7" fill="#4d4d4d" stroke="none"></rect><text xml:space="preserve" transform="translate(410.5615234375 437.5060966544099) scale(1) translate(-342 -209) translate(-29 -6.9999999999999964) translate(0 0) translate(-39.5615234375 0)" x="7" y="9.78564453125" font-family="sans-serif" font-size="10" font-weight="normal" text-anchor="undefined" fill="#ffffff">Order</text><circle transform="translate(410.5615234375 437.5060966544099) scale(1)" cx="-105" cy="-377" r="26" fill="#4C8EDA" stroke="#2870c2" strokewidth="2"></circle><rect transform="translate(410.5615234375 437.5060966544099) scale(1) translate(-105 -377) translate(20.50609665440988 -60.50609665440987) translate(0 0) translate(0 0)" x="0" y="0" width="48.462890625" height="14" rx="7" ry="7" fill="#4d4d4d" stroke="none"></rect><text xml:space="preserve" transform="translate(410.5615234375 437.5060966544099) scale(1) translate(-105 -377) translate(20.50609665440988 -60.50609665440987) translate(0 0) translate(0 0)" x="7" y="9.78564453125" font-family="sans-serif" font-size="10" font-weight="normal" text-anchor="undefined" fill="#ffffff">Product</text><rect transform="translate(410.5615234375 437.5060966544099) scale(1) translate(-105 -377) translate(20.50609665440988 -60.50609665440987) translate(0 16) translate(0 0)" x="0" y="0" width="90.5224609375" height="24" rx="0" ry="0" fill="white" stroke="none"></rect><text xml:space="preserve" transform="translate(410.5615234375 437.5060966544099) scale(1) translate(-105 -377) translate(20.50609665440988 -60.50609665440987) translate(0 16) translate(0 0)" x="44.462890625" y="8.78564453125" font-family="sans-serif" font-size="10" font-weight="normal" text-anchor="end" fill="#000000">name:</text><text xml:space="preserve" transform="translate(410.5615234375 437.5060966544099) scale(1) translate(-105 -377) translate(20.50609665440988 -60.50609665440987) translate(0 16) translate(0 0)" x="47.2412109375" y="8.78564453125" font-family="sans-serif" font-size="10" font-weight="normal" text-anchor="start" fill="#000000">'Widget1'</text><text xml:space="preserve" transform="translate(410.5615234375 437.5060966544099) scale(1) translate(-105 -377) translate(20.50609665440988 -60.50609665440987) translate(0 16) translate(0 0)" x="44.462890625" y="20.78564453125" font-family="sans-serif" font-size="10" font-weight="normal" text-anchor="end" fill="#000000">unitPrice:</text><text xml:space="preserve" transform="translate(410.5615234375 437.5060966544099) scale(1) translate(-105 -377) translate(20.50609665440988 -60.50609665440987) translate(0 16) translate(0 0)" x="47.2412109375" y="20.78564453125" font-family="sans-serif" font-size="10" font-weight="normal" text-anchor="start" fill="#000000">2.50</text><circle transform="translate(410.5615234375 437.5060966544099) scale(1)" cx="-105" cy="-209" r="26" fill="#4C8EDA" stroke="#2870c2" strokewidth="2"></circle><rect transform="translate(410.5615234375 437.5060966544099) scale(1) translate(-105 -209) translate(29 -20) translate(0 0) translate(0 0)" x="0" y="0" width="48.462890625" height="14" rx="7" ry="7" fill="#4d4d4d" stroke="none"></rect><text xml:space="preserve" transform="translate(410.5615234375 437.5060966544099) scale(1) translate(-105 -209) translate(29 -20) translate(0 0) translate(0 0)" x="7" y="9.78564453125" font-family="sans-serif" font-size="10" font-weight="normal" text-anchor="undefined" fill="#ffffff">Product</text><rect transform="translate(410.5615234375 437.5060966544099) scale(1) translate(-105 -209) translate(29 -20) translate(0 16) translate(0 0)" x="0" y="0" width="90.5224609375" height="24" rx="0" ry="0" fill="white" stroke="none"></rect><text xml:space="preserve" transform="translate(410.5615234375 437.5060966544099) scale(1) translate(-105 -209) translate(29 -20) translate(0 16) translate(0 0)" x="44.462890625" y="8.78564453125" font-family="sans-serif" font-size="10" font-weight="normal" text-anchor="end" fill="#000000">name:</text><text xml:space="preserve" transform="translate(410.5615234375 437.5060966544099) scale(1) translate(-105 -209) translate(29 -20) translate(0 16) translate(0 0)" x="47.2412109375" y="8.78564453125" font-family="sans-serif" font-size="10" font-weight="normal" text-anchor="start" fill="#000000">'Widget2'</text><text xml:space="preserve" transform="translate(410.5615234375 437.5060966544099) scale(1) translate(-105 -209) translate(29 -20) translate(0 16) translate(0 0)" x="44.462890625" y="20.78564453125" font-family="sans-serif" font-size="10" font-weight="normal" text-anchor="end" fill="#000000">unitPrice:</text><text xml:space="preserve" transform="translate(410.5615234375 437.5060966544099) scale(1) translate(-105 -209) translate(29 -20) translate(0 16) translate(0 0)" x="47.2412109375" y="20.78564453125" font-family="sans-serif" font-size="10" font-weight="normal" text-anchor="start" fill="#000000">5.00</text><circle transform="translate(410.5615234375 437.5060966544099) scale(1)" cx="-105" cy="-41" r="26" fill="#4C8EDA" stroke="#2870c2" strokewidth="2"></circle><rect transform="translate(410.5615234375 437.5060966544099) scale(1) translate(-105 -41) translate(20.50609665440988 20.506096654409877) translate(0 0) translate(0 0)" x="0" y="0" width="48.462890625" height="14" rx="7" ry="7" fill="#4d4d4d" stroke="none"></rect><text xml:space="preserve" transform="translate(410.5615234375 437.5060966544099) scale(1) translate(-105 -41) translate(20.50609665440988 20.506096654409877) translate(0 0) translate(0 0)" x="7" y="9.78564453125" font-family="sans-serif" font-size="10" font-weight="normal" text-anchor="undefined" fill="#ffffff">Product</text><rect transform="translate(410.5615234375 437.5060966544099) scale(1) translate(-105 -41) translate(20.50609665440988 20.506096654409877) translate(0 16) translate(0 0)" x="0" y="0" width="90.5224609375" height="24" rx="0" ry="0" fill="white" stroke="none"></rect><text xml:space="preserve" transform="translate(410.5615234375 437.5060966544099) scale(1) translate(-105 -41) translate(20.50609665440988 20.506096654409877) translate(0 16) translate(0 0)" x="44.462890625" y="8.78564453125" font-family="sans-serif" font-size="10" font-weight="normal" text-anchor="end" fill="#000000">name:</text><text xml:space="preserve" transform="translate(410.5615234375 437.5060966544099) scale(1) translate(-105 -41) translate(20.50609665440988 20.506096654409877) translate(0 16) translate(0 0)" x="47.2412109375" y="8.78564453125" font-family="sans-serif" font-size="10" font-weight="normal" text-anchor="start" fill="#000000">'Widget3'</text><text xml:space="preserve" transform="translate(410.5615234375 437.5060966544099) scale(1) translate(-105 -41) translate(20.50609665440988 20.506096654409877) translate(0 16) translate(0 0)" x="44.462890625" y="20.78564453125" font-family="sans-serif" font-size="10" font-weight="normal" text-anchor="end" fill="#000000">unitPrice:</text><text xml:space="preserve" transform="translate(410.5615234375 437.5060966544099) scale(1) translate(-105 -41) translate(20.50609665440988 20.506096654409877) translate(0 16) translate(0 0)" x="47.2412109375" y="20.78564453125" font-family="sans-serif" font-size="10" font-weight="normal" text-anchor="start" fill="#000000">8.99</text></svg>