<svg width="1440" height="877" viewBox="0 0 1440 877" fill="none" xmlns="http://www.w3.org/2000/svg">
  <g clip-path="url(#clip0_788_31496)">
    <rect width="1440" height="877" fill="#014063" />
    <path fill-rule="evenodd" clip-rule="evenodd"
      d="M1195.42 138.282C1192.09 138.282 1188.88 139.033 1185.8 140.776C1184.13 141.767 1182.33 143.133 1181.05 144.625C1175.19 151.114 1168.6 154.338 1162.03 154.338C1155.52 154.338 1149.01 151.177 1143.2 144.865C1141.79 143.258 1140.12 141.892 1138.19 140.89C1135.37 139.409 1132.17 138.407 1128.57 138.407C1125.24 138.407 1122.02 139.284 1118.94 140.89C1116.12 142.507 1113.68 144.865 1111.89 147.723C1110.35 150.582 1109.32 153.691 1109.32 157.04C1109.32 160.399 1110.09 163.497 1111.89 166.356C1113.55 169.214 1115.87 171.572 1118.94 173.189C1121.9 174.806 1125.11 175.672 1128.57 175.672C1131.91 175.672 1135.12 174.931 1138.19 173.189C1139.99 172.198 1141.79 170.956 1143.2 169.339C1149.07 162.913 1155.66 159.7 1162.27 159.7C1164.48 159.7 1166.68 160.054 1168.86 160.764C1176.05 163.257 1180.41 170.33 1178.99 177.789C1177.2 186.48 1170.15 192.687 1158.59 194.93C1156.54 195.295 1154.36 196.046 1152.44 197.162C1149.61 198.654 1147.18 201.012 1145.38 203.995C1143.84 206.729 1142.81 209.827 1142.81 213.311C1142.81 216.535 1143.71 219.644 1145.38 222.627C1147.05 225.361 1149.49 227.718 1152.44 229.461C1155.39 230.942 1158.59 231.944 1162.06 231.944C1165.52 231.944 1168.73 231.192 1171.69 229.461C1174.64 227.844 1177.08 225.601 1178.75 222.627C1180.41 219.769 1181.31 216.66 1181.31 213.311C1181.31 211.319 1181.05 209.212 1180.41 207.219C1176.56 196.421 1178.62 187.22 1185.55 181.514C1188.43 179.093 1191.99 177.883 1195.55 177.883C1199.11 177.883 1202.67 179.093 1205.56 181.514C1212.49 187.22 1214.55 196.171 1210.69 207.094C1210.05 208.961 1209.54 211.069 1209.54 213.311C1209.54 216.535 1210.44 219.644 1212.1 222.627C1213.77 225.361 1216.21 227.718 1219.16 229.461C1222.11 230.942 1225.33 231.944 1228.78 231.944C1232.26 231.944 1235.46 231.192 1238.41 229.461C1241.36 227.844 1243.8 225.601 1245.47 222.627C1247.14 219.769 1248.03 216.66 1248.03 213.311C1248.03 210.077 1247.27 206.729 1245.47 203.87C1243.93 201.012 1241.49 198.654 1238.41 197.037C1236.74 195.921 1234.56 195.295 1232.5 194.805C1215.18 191.445 1208 179.271 1213.64 163.132C1214.29 161.265 1214.67 159.157 1214.67 156.914C1214.67 153.691 1213.9 150.582 1212.1 147.598C1210.56 144.865 1208.12 142.507 1205.04 140.776C1202.23 139.284 1199.02 138.282 1195.42 138.282Z"
      fill="#02507B" />
    <path fill-rule="evenodd" clip-rule="evenodd"
      d="M1334.23 33.6519C1335.96 36.5609 1336.9 39.6144 1336.82 42.9609C1336.94 44.9026 1336.5 47.1481 1335.82 48.9782C1332.95 57.1178 1333.34 64.2276 1336.62 69.7295C1339.88 75.2042 1346.01 79.0686 1354.63 80.769C1356.67 81.2066 1358.72 81.9236 1360.57 83.0361C1363.32 84.6572 1365.82 86.8487 1367.61 89.8571C1369.28 92.6577 1370.21 95.7164 1370.19 99.1713C1370.17 102.342 1369.38 105.505 1367.62 108.5C1365.94 111.159 1363.68 113.571 1360.57 115.308C1357.67 116.925 1354.45 117.73 1350.95 117.816C1347.67 117.782 1344.34 116.92 1341.31 115.315C1338.5 113.586 1336.01 111.398 1334.28 108.489C1332.55 105.589 1331.6 102.527 1331.68 99.1802C1331.79 97.1224 1332 94.9929 1332.63 93.0635C1335.43 84.9552 1335.05 77.738 1331.76 72.2271C1330.65 70.366 1329.22 68.7108 1327.46 67.2705C1321.65 62.4861 1313.25 62.3012 1307.39 67.1517C1300.52 73.0054 1298.49 82.0317 1302.21 92.9946C1302.91 94.9079 1303.2 96.8864 1303.34 99.1075C1303.31 102.283 1302.53 105.441 1300.7 108.333C1298.97 111.154 1296.7 113.575 1293.71 115.25C1290.81 116.867 1287.59 117.657 1284.03 117.649C1280.7 117.786 1277.48 116.852 1274.45 115.257C1271.53 113.59 1269.15 111.331 1267.42 108.431C1265.68 105.521 1264.74 102.468 1264.83 99.1215C1264.7 97.1798 1265.14 94.9252 1265.83 93.1042C1268.7 84.9594 1268.3 77.8458 1265.03 72.3529C1261.76 66.8782 1255.64 62.9996 1247.02 61.3134C1244.98 60.8758 1242.92 60.1588 1241.07 59.0463C1238.33 57.4252 1235.84 55.2285 1234.04 52.2201C1232.37 49.4195 1231.43 46.357 1231.45 42.9111C1231.49 39.7356 1232.26 36.5686 1234.03 33.5771C1235.82 30.8559 1238.08 28.4485 1241.09 26.7689C1243.97 25.1571 1247.13 24.2441 1250.7 24.261C1254.1 24.2321 1257.25 25.0492 1260.35 26.7619C1263.25 28.4249 1265.64 30.679 1267.38 33.588C1269.04 36.3796 1269.98 39.4474 1269.97 42.897C1269.86 44.9548 1269.64 47.0895 1269.02 49.0137C1266.21 57.1272 1266.6 64.3444 1269.88 69.8553C1270.99 71.7073 1272.43 73.3716 1274.18 74.8119C1280 79.5963 1288.4 79.776 1294.36 74.8682C1301.25 69.0092 1303.34 60.0965 1299.61 49.1336L1299.54 49.0252C1298.9 46.9409 1298.49 45.025 1298.53 42.8445C1298.45 39.7369 1299.35 36.5111 1301.11 33.5158C1302.78 30.8572 1305.05 28.4446 1308.16 26.7076C1311.05 25.0906 1314.29 24.295 1317.78 24.1997C1321.06 24.2334 1324.38 25.0962 1327.42 26.7005C1330.05 28.3842 1332.5 30.7519 1334.23 33.6519Z"
      fill="#02507B" />
    <path opacity="0.5" fill-rule="evenodd" clip-rule="evenodd"
      d="M1204.23 34.6199C1205.96 37.5289 1206.9 40.5824 1206.82 43.9289C1206.94 45.8706 1206.5 48.1162 1205.82 49.9462C1202.95 58.0858 1203.34 65.1956 1206.62 70.6975C1209.88 76.1722 1216.01 80.0366 1224.63 81.7371C1226.67 82.1746 1228.72 82.8916 1230.57 84.0042C1233.32 85.6252 1235.82 87.8167 1237.61 90.8251C1239.28 93.6257 1240.21 96.6844 1240.19 100.139C1240.17 103.31 1239.38 106.473 1237.62 109.468C1235.94 112.127 1233.68 114.539 1230.57 116.276C1227.67 117.893 1224.45 118.698 1220.95 118.784C1217.67 118.751 1214.34 117.888 1211.31 116.283C1208.5 114.554 1206.01 112.366 1204.28 109.457C1202.55 106.557 1201.6 103.495 1201.68 100.148C1201.79 98.0904 1202 95.9609 1202.63 94.0315C1205.43 85.9232 1205.05 78.706 1201.76 73.1951C1200.65 71.334 1199.22 69.6788 1197.46 68.2385C1191.65 63.4541 1183.25 63.2692 1177.39 68.1197C1170.52 73.9734 1168.49 82.9997 1172.21 93.9626C1172.91 95.876 1173.2 97.8544 1173.34 100.075C1173.31 103.251 1172.53 106.409 1170.7 109.301C1168.97 112.122 1166.7 114.543 1163.71 116.218C1160.81 117.835 1157.59 118.625 1154.03 118.617C1150.7 118.754 1147.48 117.82 1144.45 116.225C1141.53 114.558 1139.15 112.299 1137.42 109.399C1135.68 106.49 1134.74 103.436 1134.83 100.09C1134.7 98.1479 1135.14 95.8932 1135.83 94.0722C1138.7 85.9274 1138.3 78.8138 1135.03 73.321C1131.76 67.8462 1125.64 63.9676 1117.02 62.2814C1114.98 61.8438 1112.92 61.1268 1111.07 60.0143C1108.33 58.3932 1105.84 56.1965 1104.04 53.1881C1102.37 50.3875 1101.43 47.325 1101.45 43.8791C1101.49 40.7036 1102.26 37.5366 1104.03 34.5451C1105.82 31.824 1108.08 29.4165 1111.09 27.7369C1113.97 26.1251 1117.13 25.2121 1120.7 25.229C1124.1 25.2001 1127.25 26.0172 1130.35 27.7299C1133.25 29.393 1135.64 31.647 1137.38 34.556C1139.04 37.3476 1139.98 40.4154 1139.97 43.8651C1139.86 45.9229 1139.64 48.0575 1139.02 49.9817C1136.21 58.0952 1136.6 65.3125 1139.88 70.8233C1140.99 72.6753 1142.43 74.3396 1144.18 75.7799C1150 80.5643 1158.4 80.744 1164.36 75.8362C1171.25 69.9772 1173.34 61.0646 1169.61 50.1016L1169.54 49.9932C1168.9 47.9089 1168.49 45.993 1168.53 43.8126C1168.45 40.7049 1169.35 37.4791 1171.11 34.4838C1172.78 31.8252 1175.05 29.4126 1178.16 27.6756C1181.05 26.0586 1184.29 25.2631 1187.78 25.1677C1191.06 25.2014 1194.38 26.0643 1197.42 27.6686C1200.05 29.3522 1202.5 31.7199 1204.23 34.6199Z"
      fill="#02507B" />
    <path fill-rule="evenodd" clip-rule="evenodd"
      d="M1368.71 201.826C1367.04 199.026 1364.77 196.704 1361.68 195C1360.07 194.033 1357.83 193.27 1355.86 192.941C1347.14 191.27 1340.97 187.385 1337.69 181.892C1334.43 176.418 1334.03 169.341 1336.82 161.276C1337.45 159.346 1337.83 157.262 1337.76 155.15C1337.68 152.046 1336.97 148.853 1335.18 145.844C1333.51 143.044 1331.23 140.727 1328.14 139.024C1325.29 137.46 1322.06 136.531 1318.5 136.518C1315.29 136.593 1311.99 137.289 1308.88 139.026C1305.99 140.643 1303.59 142.839 1301.83 145.835C1300.22 148.593 1299.27 151.714 1299.25 155.169C1299.39 158.381 1300.11 161.569 1301.84 164.478C1303.51 167.27 1305.78 169.592 1308.87 171.295C1310.77 172.246 1312.78 173.134 1314.82 173.571C1323.48 175.274 1329.7 179.141 1333 184.67C1334.11 186.531 1334.89 188.58 1335.31 190.799C1336.69 198.066 1332.65 205.199 1325.27 207.746C1316.6 210.583 1307.51 207.774 1299.63 199.278C1298.27 197.735 1296.51 196.285 1294.66 195.164C1291.8 193.605 1288.47 192.743 1285.02 192.663C1281.69 192.801 1278.4 193.492 1275.4 195.172C1272.4 196.846 1270.07 199.151 1268.35 201.98C1266.63 204.81 1265.73 208.031 1265.76 211.315C1265.79 214.599 1266.63 217.724 1268.36 220.624C1270.09 223.533 1272.36 225.84 1275.39 227.45C1278.2 229.179 1281.53 230.042 1285.03 229.95C1288.31 229.984 1291.54 229.179 1294.65 227.442C1296.43 226.446 1298.08 225.238 1299.48 223.6C1311.31 210.67 1325.69 210.671 1337.52 223.56C1338.95 225.197 1340.47 226.502 1342.43 227.551C1344.15 228.456 1346.27 229.282 1348.25 229.611C1356.95 231.278 1363.11 235.145 1366.38 240.629C1369.65 246.112 1370.04 253.222 1367.18 261.339C1366.55 263.268 1366.27 265.289 1366.24 267.465C1366.31 270.578 1367.03 273.757 1368.83 276.774C1370.49 279.566 1372.76 281.887 1375.86 283.6C1378.72 285.158 1381.94 286.084 1385.5 286.091C1388.72 286.017 1392.01 285.335 1395.12 283.592C1398.01 281.98 1400.4 279.775 1402.17 276.775C1403.78 274.016 1404.67 270.787 1404.75 267.454C1404.61 264.233 1403.9 261.04 1402.17 258.14C1400.43 255.231 1398.16 252.923 1395.12 251.319C1393.22 250.369 1391.21 249.481 1389.17 249.043C1380.48 247.385 1374.32 243.504 1371.05 238.02C1367.78 232.536 1367.39 225.441 1370.25 217.315C1370.88 215.386 1371.26 213.302 1371.3 211.136C1371.34 207.96 1370.51 204.835 1368.71 201.826Z"
      fill="#FAFF00" />
    <path fill-rule="evenodd" clip-rule="evenodd"
      d="M1392.72 221.877C1394.39 224.678 1396.66 227 1399.75 228.703C1401.36 229.671 1403.6 230.433 1405.57 230.762C1414.28 232.434 1420.46 236.318 1423.74 241.811C1427 247.286 1427.4 254.362 1424.61 262.428C1423.98 264.358 1423.59 266.441 1423.67 268.554C1423.74 271.658 1424.45 274.851 1426.25 277.859C1427.92 280.66 1430.2 282.977 1433.29 284.68C1436.14 286.244 1439.37 287.173 1442.93 287.186C1446.14 287.111 1449.44 286.415 1452.54 284.678C1455.44 283.06 1457.83 280.864 1459.59 277.869C1461.21 275.111 1462.16 271.99 1462.18 268.535C1462.04 265.322 1461.32 262.134 1459.59 259.225C1457.92 256.434 1455.65 254.112 1452.56 252.408C1450.66 251.458 1448.65 250.57 1446.61 250.133C1437.95 248.43 1431.72 244.562 1428.43 239.033C1427.32 237.172 1426.54 235.123 1426.11 232.905C1424.74 225.637 1428.77 218.504 1436.15 215.958C1444.83 213.121 1453.92 215.929 1461.8 224.426C1463.16 225.969 1464.92 227.418 1466.77 228.54C1469.63 230.098 1472.95 230.961 1476.41 231.04C1479.74 230.903 1483.02 230.212 1486.03 228.532C1489.02 226.858 1491.36 224.553 1493.08 221.723C1494.8 218.894 1495.69 215.673 1495.66 212.389C1495.63 209.105 1494.8 205.98 1493.07 203.08C1491.34 200.171 1489.06 197.863 1486.04 196.254C1483.23 194.525 1479.9 193.662 1476.4 193.753C1473.12 193.72 1469.89 194.525 1466.78 196.262C1465 197.258 1463.35 198.466 1461.95 200.104C1450.11 213.033 1435.74 213.033 1423.91 200.143C1422.48 198.506 1420.96 197.202 1419 196.152C1417.28 195.247 1415.16 194.422 1413.18 194.093C1404.48 192.426 1398.32 188.559 1395.05 183.075C1391.77 177.591 1391.39 170.481 1394.25 162.365C1394.88 160.435 1395.16 158.414 1395.19 156.239C1395.11 153.126 1394.4 149.947 1392.6 146.93C1390.93 144.138 1388.67 141.816 1385.57 140.104C1382.71 138.545 1379.49 137.62 1375.93 137.612C1372.71 137.687 1369.42 138.369 1366.31 140.112C1363.42 141.724 1361.03 143.929 1359.26 146.929C1357.64 149.687 1356.76 152.917 1356.68 156.249C1356.82 159.471 1357.53 162.664 1359.26 165.564C1361 168.473 1363.27 170.78 1366.3 172.385C1368.2 173.335 1370.21 174.223 1372.25 174.66C1380.95 176.319 1387.11 180.2 1390.38 185.684C1393.65 191.167 1394.04 198.263 1391.18 206.389C1390.55 208.318 1390.17 210.402 1390.13 212.568C1390.09 215.744 1390.92 218.869 1392.72 221.877Z"
      fill="#4C99A4" />
    <path opacity="0.5" fill-rule="evenodd" clip-rule="evenodd"
      d="M1247.22 393.278C1248.95 390.378 1249.78 387.253 1249.81 383.969C1249.82 381.973 1249.43 379.89 1248.69 377.898C1245.89 369.789 1246.31 362.686 1249.59 357.175C1252.87 351.682 1258.98 347.775 1267.57 345.998C1269.73 345.623 1271.67 344.844 1273.52 343.722C1276.38 342.164 1278.77 339.919 1280.57 336.902C1282.23 334.11 1283.17 331.042 1283.15 327.587C1283.24 324.479 1282.33 321.254 1280.57 318.258C1278.89 315.608 1276.63 313.187 1273.52 311.449C1270.63 309.832 1267.46 308.928 1263.91 308.941C1260.63 308.975 1257.36 309.729 1254.26 311.442C1251.45 313.171 1248.96 315.368 1247.23 318.268C1245.56 321.068 1244.73 324.184 1244.64 327.577C1244.74 329.644 1244.95 331.773 1245.69 333.765C1248.49 341.851 1248.09 348.936 1244.81 354.429C1241.54 359.912 1235.4 363.795 1226.76 365.494C1224.61 365.868 1222.55 366.585 1220.59 367.635C1218.76 368.477 1217.11 369.989 1215.75 371.532C1203.98 384.308 1189.6 384.309 1177.98 371.499C1176.64 370.038 1174.83 368.596 1172.94 367.537C1171.05 366.483 1169.14 365.704 1166.98 365.354C1149.6 361.95 1142.42 349.899 1147.97 333.644C1148.66 331.73 1149.09 329.535 1149.04 327.354C1148.88 325.405 1148.66 323.276 1148.04 321.346C1145.21 313.166 1145.6 306.07 1148.87 300.596C1152.13 295.13 1158.27 291.276 1166.96 289.618C1169.07 289.072 1171.17 288.526 1173.02 287.404C1175.95 285.738 1178.32 283.487 1180.06 280.578C1181.72 277.787 1182.67 274.724 1182.65 271.269C1182.79 268.048 1181.84 264.936 1180.07 261.935C1178.46 259.182 1176.13 256.869 1173.02 255.131C1170.13 253.514 1166.96 252.61 1163.41 252.623C1160.19 252.548 1156.85 253.415 1153.76 255.124C1151.02 256.745 1148.53 258.941 1146.73 261.95C1145.06 264.75 1144.23 267.875 1144.14 271.259C1144.13 273.263 1144.51 275.347 1145.32 277.23C1148.09 285.37 1147.67 292.459 1144.41 297.925C1141.14 303.4 1135.03 307.26 1126.39 308.959C1124.17 309.442 1122.18 310.051 1120.34 311.163C1117.52 312.892 1115.03 315.089 1113.3 317.989C1111.63 320.79 1110.8 323.915 1110.71 327.298C1110.67 330.577 1111.63 333.704 1113.29 336.633C1115.01 339.457 1117.34 341.761 1120.35 343.441C1122.23 344.495 1124.13 345.278 1126.23 345.733C1143.62 349.137 1150.9 361.245 1145.25 377.443C1144.56 379.356 1144.26 381.335 1144.29 383.51C1144.15 386.731 1145.04 389.952 1146.88 392.844C1148.49 395.612 1150.82 397.916 1153.93 399.653C1156.63 401.595 1159.9 402.557 1163.46 402.549C1166.86 402.578 1170.01 401.752 1173.11 400.049C1174.89 399.036 1176.59 397.68 1178.06 396.214C1189.72 383.376 1204.33 383.216 1216.06 396.088C1217.42 397.555 1219.04 399.042 1220.93 400.096C1223.82 401.713 1227.05 402.518 1230.55 402.604C1233.83 402.571 1237.16 401.713 1240.19 400.104C1243 398.374 1245.49 396.187 1247.22 393.278Z"
      fill="#8FE3E8" />
    <path opacity="0.15" fill-rule="evenodd" clip-rule="evenodd"
      d="M1285.93 504.314C1289.26 504.314 1292.47 503.563 1295.55 501.821C1297.22 500.83 1299.02 499.463 1300.3 497.971C1306.16 491.482 1312.75 488.259 1319.32 488.259C1325.83 488.259 1332.34 491.42 1338.15 497.731C1339.56 499.338 1341.23 500.705 1343.16 501.706C1345.98 503.187 1349.18 504.189 1352.78 504.189C1356.11 504.189 1359.33 503.313 1362.41 501.706C1365.23 500.089 1367.67 497.731 1369.46 494.873C1371 492.014 1372.03 488.906 1372.03 485.557C1372.03 482.198 1371.26 479.099 1369.46 476.241C1367.8 473.382 1365.48 471.025 1362.41 469.408C1359.46 467.791 1356.24 466.925 1352.78 466.925C1349.44 466.925 1346.23 467.665 1343.16 469.408C1341.36 470.399 1339.56 471.64 1338.15 473.257C1332.29 479.683 1325.69 482.897 1319.08 482.897C1316.87 482.897 1314.68 482.542 1312.49 481.832C1305.3 479.339 1300.94 472.266 1302.36 464.807C1304.15 456.117 1311.21 449.91 1322.76 447.667C1324.81 447.302 1326.99 446.55 1328.91 445.434C1331.74 443.942 1334.17 441.585 1335.97 438.601C1337.51 435.868 1338.54 432.769 1338.54 429.285C1338.54 426.061 1337.64 422.953 1335.97 419.969C1334.3 417.236 1331.87 414.878 1328.91 413.136C1325.96 411.654 1322.76 410.653 1319.29 410.653C1315.83 410.653 1312.62 411.404 1309.66 413.136C1306.71 414.753 1304.28 416.996 1302.6 419.969C1300.94 422.827 1300.04 425.936 1300.04 429.285C1300.04 431.278 1300.3 433.385 1300.94 435.377C1304.79 446.175 1302.73 455.376 1295.8 461.083C1292.92 463.503 1289.36 464.713 1285.8 464.713C1282.24 464.713 1278.68 463.503 1275.79 461.083C1268.86 455.376 1266.8 446.425 1270.66 435.503C1271.3 433.635 1271.81 431.528 1271.81 429.285C1271.81 426.061 1270.91 422.953 1269.25 419.969C1267.58 417.236 1265.14 414.878 1262.19 413.136C1259.24 411.654 1256.03 410.653 1252.57 410.653C1249.1 410.653 1245.89 411.404 1242.94 413.136C1239.99 414.753 1237.55 416.996 1235.88 419.969C1234.21 422.827 1233.32 425.936 1233.32 429.285C1233.32 432.519 1234.08 435.868 1235.88 438.726C1237.42 441.585 1239.86 443.942 1242.94 445.559C1244.61 446.676 1246.79 447.302 1248.85 447.792C1266.17 451.151 1273.36 463.326 1267.71 479.464C1267.06 481.332 1266.68 483.439 1266.68 485.682C1266.68 488.906 1267.45 492.014 1269.25 494.998C1270.79 497.731 1273.23 500.089 1276.31 501.821C1279.12 503.313 1282.33 504.314 1285.93 504.314Z"
      fill="#8FE3E8" />
    <path opacity="0.7" fill-rule="evenodd" clip-rule="evenodd"
      d="M1221.23 260.638C1219.5 263.538 1218.67 266.663 1218.64 269.947C1218.63 271.942 1219.02 274.026 1219.76 276.018C1222.57 284.127 1222.15 291.23 1218.86 296.741C1215.58 302.234 1209.47 306.141 1200.88 307.917C1198.73 308.292 1196.78 309.072 1194.93 310.193C1192.07 311.752 1189.69 313.997 1187.89 317.014C1186.22 319.806 1185.29 322.873 1185.31 326.328C1185.22 329.436 1186.12 332.662 1187.88 335.658C1189.56 338.307 1191.82 340.729 1194.93 342.466C1197.83 344.083 1200.99 344.987 1204.55 344.974C1207.83 344.941 1211.09 344.187 1214.19 342.474C1217 340.745 1219.5 338.548 1221.23 335.648C1222.9 332.847 1223.72 329.731 1223.82 326.339C1223.72 324.272 1223.51 322.142 1222.77 320.15C1219.96 312.065 1220.37 304.98 1223.64 299.487C1226.92 294.003 1233.05 290.121 1241.69 288.422C1243.85 288.047 1245.9 287.33 1247.86 286.28C1249.7 285.438 1251.35 283.926 1252.7 282.383C1264.48 269.608 1278.85 269.607 1290.48 282.416C1291.82 283.878 1293.62 285.32 1295.52 286.379C1297.4 287.432 1299.31 288.212 1301.47 288.562C1318.85 291.966 1326.04 304.017 1320.49 320.272C1319.79 322.185 1319.37 324.381 1319.41 326.561C1319.58 328.511 1319.79 330.64 1320.42 332.57C1323.24 340.749 1322.86 347.845 1319.59 353.32C1316.33 358.786 1310.18 362.639 1301.49 364.298C1299.39 364.844 1297.28 365.39 1295.43 366.511C1292.51 368.178 1290.13 370.428 1288.4 373.337C1286.73 376.129 1285.79 379.191 1285.8 382.646C1285.66 385.868 1286.62 388.98 1288.39 391.981C1289.99 394.734 1292.32 397.047 1295.43 398.784C1298.32 400.401 1301.49 401.305 1305.05 401.292C1308.26 401.367 1311.61 400.501 1314.69 398.792C1317.44 397.171 1319.93 394.974 1321.72 391.966C1323.4 389.165 1324.23 386.04 1324.32 382.657C1324.33 380.652 1323.94 378.569 1323.14 376.685C1320.36 368.546 1320.78 361.456 1324.04 355.991C1327.31 350.516 1333.42 346.656 1342.06 344.957C1344.28 344.474 1346.27 343.865 1348.12 342.753C1350.93 341.023 1353.42 338.827 1355.15 335.926C1356.82 333.126 1357.66 330.001 1357.74 326.617C1357.78 323.339 1356.82 320.212 1355.16 317.283C1353.45 314.459 1351.12 312.154 1348.11 310.474C1346.22 309.421 1344.33 308.637 1342.22 308.183C1324.84 304.779 1317.55 292.67 1323.21 276.473C1323.9 274.559 1324.2 272.581 1324.16 270.405C1324.3 267.184 1323.41 263.963 1321.58 261.071C1319.97 258.304 1317.63 256 1314.53 254.262C1311.83 252.32 1308.56 251.359 1304.99 251.366C1301.6 251.337 1298.44 252.163 1295.35 253.867C1293.56 254.88 1291.87 256.235 1290.4 257.701C1278.73 270.54 1264.13 270.7 1252.39 257.828C1251.04 256.361 1249.41 254.873 1247.53 253.82C1244.63 252.202 1241.4 251.398 1237.91 251.311C1234.63 251.345 1231.29 252.202 1228.27 253.812C1225.45 255.541 1222.97 257.729 1221.23 260.638Z"
      fill="#02507B" />
    <path opacity="0.15" fill-rule="evenodd" clip-rule="evenodd"
      d="M1244.85 482.212C1243.19 479.42 1240.91 477.103 1237.81 475.4C1236.09 474.495 1233.97 473.67 1231.99 473.341C1223.26 471.671 1217.08 467.763 1213.79 462.252C1210.54 456.795 1210.11 449.758 1212.85 441.732C1213.58 439.746 1213.97 437.662 1213.9 435.544C1213.82 432.436 1213.11 429.252 1211.31 426.235C1209.65 423.443 1207.26 421.189 1204.28 419.409C1201.42 417.85 1198.09 416.988 1194.64 416.917C1191.31 417.055 1188.01 417.742 1185.02 419.417C1182.01 421.096 1179.63 423.296 1177.97 426.234C1176.24 429.055 1175.29 432.176 1175.38 435.56C1175.41 438.844 1176.24 441.969 1177.97 444.869C1179.64 447.669 1181.91 449.991 1185.01 451.695C1186.79 452.708 1188.8 453.596 1190.96 453.971C1199.64 455.672 1205.81 459.594 1209.11 465.132C1210.22 466.984 1211 469.004 1211.46 471.193C1212.82 478.466 1208.67 485.652 1201.29 488.199C1192.63 491.045 1183.54 488.231 1175.76 479.668C1174.41 478.134 1172.64 476.676 1170.68 475.626C1167.94 474.005 1164.61 473.142 1161.04 473.125C1157.83 473.2 1154.54 473.891 1151.42 475.634C1148.54 477.246 1146.21 479.55 1144.37 482.442C1142.76 485.209 1141.87 488.43 1141.79 491.777C1141.94 494.993 1142.65 498.177 1144.38 501.086C1146.11 503.986 1148.39 506.302 1151.41 507.912C1154.34 509.579 1157.56 510.499 1161.06 510.412C1164.44 510.374 1167.68 509.579 1170.67 507.904C1172.46 506.908 1174.21 505.637 1175.67 504.099C1183.41 495.474 1192.67 492.599 1201.24 495.554C1204.85 496.765 1207.71 499.141 1209.49 502.122C1211.27 505.113 1211.97 508.699 1211.25 512.331C1209.61 520.993 1202.63 527.195 1190.93 529.422C1188.94 529.823 1186.8 530.443 1184.79 531.565C1181.91 533.177 1179.58 535.49 1177.74 538.373C1176.13 541.14 1175.24 544.361 1175.15 547.708C1175.31 550.924 1176.02 554.117 1177.75 557.017C1179.48 559.926 1181.75 562.233 1184.78 563.843C1187.7 565.51 1190.93 566.43 1194.42 566.343C1197.81 566.314 1201.04 565.51 1204.04 563.835C1206.93 562.218 1209.55 559.902 1211.2 556.964C1212.99 554.243 1213.88 551.022 1213.79 547.629C1213.95 545.671 1213.42 543.533 1212.83 541.562C1207.17 525.364 1214.47 513.251 1231.73 509.915C1233.73 509.523 1235.8 508.785 1237.81 507.664C1240.69 506.052 1243.09 503.856 1244.86 500.855C1246.53 498.196 1247.43 494.976 1247.43 491.526C1247.36 488.422 1246.65 485.229 1244.85 482.212Z"
      fill="#02507B" />
    <path opacity="0.7" fill-rule="evenodd" clip-rule="evenodd"
      d="M1378.57 318.374C1376.9 321.166 1375.97 324.234 1375.99 327.68C1376.05 329.576 1376.37 331.768 1377.06 333.589C1379.94 341.749 1379.53 348.881 1376.24 354.393C1372.99 359.85 1366.9 363.727 1358.35 365.441C1356.21 365.821 1354.15 366.538 1352.29 367.655C1349.56 369.282 1347.06 371.464 1345.26 374.482C1343.59 377.274 1342.77 380.405 1342.67 383.792C1342.7 386.968 1343.6 390.189 1345.26 393.118C1347.05 395.839 1349.31 398.261 1352.31 399.935C1355.31 401.615 1358.47 402.513 1361.93 402.434C1365.32 402.471 1368.58 401.708 1371.57 399.941C1374.49 398.274 1376.87 396.015 1378.6 393.114C1380.27 390.313 1381.21 387.25 1381.19 383.804C1381.2 381.8 1380.99 379.67 1380.25 377.678C1377.43 369.55 1377.85 362.414 1381.16 356.875C1382.26 355.023 1383.68 353.357 1385.41 351.877C1391.23 347.098 1399.74 346.984 1405.7 351.897C1412.58 357.742 1414.61 366.764 1410.84 377.571C1410.14 379.47 1409.72 381.68 1409.76 383.846C1409.68 386.959 1410.57 390.18 1412.34 393.181C1414.02 395.84 1416.28 398.247 1419.4 399.989C1422.28 401.601 1425.51 402.406 1429.01 402.497C1432.29 402.463 1435.62 401.6 1438.66 399.996C1441.46 398.261 1443.95 396.078 1445.69 393.169C1447.42 390.268 1448.35 387.2 1448.28 383.859C1448.31 380.574 1447.52 377.411 1445.7 374.524C1443.97 371.703 1441.64 369.39 1438.64 367.716C1436.86 366.719 1434.85 365.882 1432.74 365.428C1421.16 363.255 1413.95 356.929 1412.31 348.266C1411.59 344.634 1412.29 341.047 1414.06 338.066C1415.85 335.075 1418.71 332.699 1422.32 331.487C1430.89 328.531 1439.93 331.281 1447.77 339.977C1449.12 341.443 1450.75 342.931 1452.75 344.052C1455.64 345.664 1458.87 346.459 1462.37 346.56C1465.65 346.526 1468.98 345.663 1472.01 344.058C1474.82 342.323 1477.32 340.132 1479.05 337.231C1480.78 334.322 1481.71 331.263 1481.64 327.921C1481.67 324.637 1480.88 321.474 1479.05 318.587C1477.33 315.757 1475 313.453 1472 311.778C1469.11 310.161 1465.73 309.128 1462.27 309.208C1458.94 309.071 1455.62 309.934 1452.63 311.71C1450.8 312.552 1449.15 314.064 1447.68 315.545C1436.02 328.385 1421.53 328.324 1409.91 315.52C1408.57 314.044 1406.87 312.674 1404.86 311.553C1401.98 309.941 1398.81 309.028 1395.25 309.045C1392.03 308.971 1388.7 309.834 1385.61 311.552C1382.87 313.164 1380.37 315.356 1378.57 318.374Z"
      fill="#02507B" />
    <path opacity="0.15" fill-rule="evenodd" clip-rule="evenodd"
      d="M1116.23 83.7526C1113.89 81.4559 1111.09 79.768 1107.65 78.8574C1105.75 78.2384 1103.39 78.0439 1101.4 78.1988C1092.52 78.7085 1085.56 76.4735 1080.97 71.962C1076.39 67.4652 1074.18 60.7214 1074.75 52.1834C1074.85 50.163 1074.77 48.1486 1074.16 46.1155C1073.18 43.0322 1071.66 40.1293 1069.23 37.736C1066.8 35.3502 1064 33.6623 1060.65 32.8409C1057.39 31.9389 1054.04 31.8256 1050.67 32.767C1047.4 33.628 1044.48 35.1849 1042.01 37.5346C1039.54 39.3605 1037.81 42.2466 1036.78 45.4921C1035.93 48.5546 1035.92 51.896 1036.7 55.1476C1037.67 58.2308 1039.2 61.1411 1041.62 63.5269C1044.06 65.9202 1046.86 67.6155 1050.2 68.4222C1052.29 68.8802 1054.46 69.2504 1056.55 69.1773C1065.38 68.7115 1072.46 70.999 1077.07 75.5329C1078.62 77.0566 1079.9 78.8364 1080.87 80.8574C1084.09 87.5571 1082.03 95.4496 1075.55 99.7095C1067.89 104.566 1058.37 104.053 1048.52 97.7465C1046.9 96.5027 1044.73 95.6161 1042.65 94.9811C1039.48 94.1683 1036.12 94.055 1032.76 94.9964C1029.48 95.85 1026.48 97.3178 1024.01 99.6748C1021.64 101.937 1019.98 104.735 1019.04 108.07C1018.02 111.138 1018.09 114.384 1018.87 117.643C1019.76 120.807 1021.37 123.629 1023.8 126.023C1026.23 128.408 1029.03 130.096 1032.38 130.918C1035.55 131.908 1038.99 131.933 1042.36 130.992C1045.55 130.226 1048.46 128.662 1051.02 126.224C1052.49 124.826 1053.76 123.257 1054.88 121.332C1062.88 106.026 1076.79 102.522 1091.69 112.207C1093.49 113.275 1095.21 114.254 1097.38 114.794C1100.55 115.607 1103.9 115.72 1107.36 114.868C1110.55 113.925 1113.55 112.457 1116.02 110.1C1118.39 107.838 1120.14 105.129 1121.08 101.795C1122.01 98.6371 1122.03 95.4801 1121.15 92.132C1120.35 89.0574 1118.75 86.235 1116.23 83.7526Z"
      fill="#8FE3E8" />
    <g clip-path="url(#clip1_788_31496)">
      <path opacity="0.5" fill-rule="evenodd" clip-rule="evenodd"
        d="M179.545 876.903C182.875 876.903 186.087 876.174 189.169 874.46C192.122 872.879 194.428 870.548 196.228 867.745C197.888 864.932 198.793 861.872 198.793 858.577C198.793 855.271 198.017 852.211 196.228 849.408C194.687 846.595 192.251 844.275 189.169 842.683C186.345 841.092 183.134 840.24 179.545 840.24C176.204 840.24 173.003 840.969 169.921 842.683C168.121 843.535 166.45 845.004 165.168 846.472C159.273 852.827 152.72 856.01 146.2 856.01C139.669 856.01 133.159 852.827 127.318 846.472C125.777 845.004 124.236 843.535 122.317 842.683C119.364 841.092 116.153 840.24 112.693 840.24C109.223 840.24 106.022 840.969 103.069 842.683C101.269 843.535 99.5987 845.004 98.1868 846.472C92.3347 852.837 85.7714 856.02 79.1972 856.02C72.6554 856.02 66.092 852.868 60.2076 846.595C58.7958 845.127 57.1253 843.782 55.2069 842.806C52.3833 841.338 49.1717 840.363 45.5828 840.363C42.2419 840.363 39.041 841.092 35.9587 842.806C33.135 844.388 30.6994 846.595 28.8996 849.521C27.3584 852.334 26.3345 855.394 26.3345 858.69C26.3345 861.38 27.0997 864.686 28.8996 867.499C30.57 870.312 32.8764 872.632 35.9587 874.224C38.9117 875.805 42.1125 876.667 45.5828 876.667C48.913 876.667 52.1246 875.928 55.2069 874.224C56.996 873.238 58.7958 872.016 60.2076 870.425C66.0489 864.07 72.5907 860.897 79.1326 860.897C85.6744 860.897 92.227 864.07 98.0575 870.425C99.34 872.016 101.14 873.238 102.81 874.224C105.763 875.805 108.964 876.667 112.434 876.667C115.894 876.667 119.106 875.928 122.059 874.224C123.858 873.238 125.647 872.016 127.059 870.425C132.965 864.07 139.507 860.897 146.038 860.897C152.569 860.897 159.079 864.07 164.92 870.425C166.45 872.016 167.991 873.361 169.921 874.46C172.874 875.928 176.074 876.903 179.545 876.903Z"
        fill="#02507B" />
      <path fill-rule="evenodd" clip-rule="evenodd"
        d="M147.359 715.332C150.7 715.332 153.911 714.603 156.983 712.888C158.653 712.036 160.453 710.568 161.736 709.099C167.588 702.734 174.151 699.551 180.704 699.551C187.235 699.551 193.766 702.703 199.585 708.976C200.997 710.444 202.668 711.789 204.597 712.765C207.41 714.233 210.621 715.219 214.21 715.219C217.551 715.219 220.763 714.479 223.834 712.765C226.658 711.184 229.104 708.976 230.893 706.05C232.435 703.36 233.458 700.301 233.458 696.882C233.458 693.699 232.693 690.639 230.893 687.713C229.234 685.023 226.917 682.703 223.834 680.988C220.892 679.52 217.681 678.545 214.21 678.545C210.88 678.545 207.668 679.274 204.597 680.988C202.797 682.087 200.997 683.309 199.585 684.777C193.733 691.081 187.159 694.315 180.563 694.315C178.343 694.315 176.123 693.945 173.925 693.206C166.736 690.763 162.371 683.925 163.783 676.584C165.583 668.031 172.642 661.912 184.185 659.592C186.243 659.232 188.42 658.493 190.349 657.518C193.173 655.926 195.609 653.606 197.408 650.793C198.95 647.98 199.973 644.93 199.973 641.625C199.973 638.329 199.079 635.269 197.408 632.456C195.738 629.643 193.302 627.323 190.349 625.731C187.396 624.14 184.185 623.288 180.725 623.288C177.255 623.288 174.054 624.027 171.101 625.731C168.148 627.199 165.712 629.52 164.042 632.456C162.371 635.146 161.477 638.206 161.477 641.625C161.477 643.586 161.736 645.536 162.501 647.497C168.148 663.627 160.96 675.485 143.511 678.904C141.334 679.274 139.405 679.89 137.487 680.988C135.816 681.964 134.016 683.309 132.734 684.777C126.893 691.132 120.351 694.315 113.809 694.315C107.267 694.315 100.714 691.132 94.8839 684.777C93.4721 683.309 91.8016 682.087 89.8725 680.988C87.0488 679.52 83.8479 678.545 80.2483 678.545C76.9181 678.545 73.7065 679.274 70.6242 680.988C67.8006 682.58 65.3649 684.777 63.5759 687.713C62.0347 690.403 61.0001 693.452 61.0001 696.882C61.0001 700.054 61.776 703.114 63.5759 706.05C65.2355 708.74 67.682 711.06 70.6242 712.765C73.5772 714.233 76.7888 715.219 80.2483 715.219C83.7186 715.219 86.9195 714.479 89.8725 712.765C91.6723 711.666 93.4721 710.444 94.8839 708.976C100.714 702.621 107.267 699.448 113.809 699.448C120.351 699.448 126.893 702.621 132.734 708.976C134.146 710.444 135.816 711.789 137.734 712.888C140.558 714.479 143.77 715.332 147.359 715.332Z"
        fill="#02507B" />
      <path opacity="0.5" fill-rule="evenodd" clip-rule="evenodd"
        d="M146.645 821.412C150.115 821.412 153.316 820.683 156.269 818.968C158.069 818.116 159.858 816.648 161.151 815.18C167.003 808.814 173.556 805.631 180.119 805.631C186.65 805.631 193.17 808.783 199.001 815.056C200.413 816.525 202.083 817.87 204.002 818.845C206.825 820.313 210.037 821.299 213.626 821.299C216.967 821.299 220.168 820.559 223.25 818.845C226.074 817.264 228.509 815.056 230.309 812.13C231.85 809.44 232.874 806.381 232.874 802.962C232.874 799.779 231.98 796.719 230.309 793.793C228.639 791.103 226.203 788.783 223.25 787.068C220.297 785.6 217.096 784.625 213.626 784.625C210.166 784.625 206.955 785.354 204.002 787.068C202.213 788.167 200.413 789.389 199.001 790.857C193.149 797.161 186.499 800.395 179.925 800.395C177.705 800.395 175.506 800.025 173.34 799.286C166.152 796.843 161.787 790.005 163.199 782.787C164.999 774.235 172.058 768.115 183.73 765.795C185.788 765.425 187.706 764.696 189.765 763.721C192.588 762.13 195.024 759.933 196.695 756.996C198.354 754.183 199.389 751.123 199.389 747.828C199.389 744.645 198.484 741.596 196.695 738.659C195.153 735.846 192.707 733.649 189.765 731.934C186.812 730.343 183.6 729.491 180.141 729.491C176.67 729.491 173.47 730.22 170.517 731.934C168.717 732.787 166.917 734.255 165.634 735.723C159.782 742.099 153.219 745.271 146.666 745.271C140.135 745.271 133.604 742.13 127.785 735.846C126.373 734.378 124.702 733.033 122.784 732.058C119.96 730.589 116.749 729.614 113.16 729.614C109.819 729.614 106.607 730.343 103.536 732.058C100.712 733.649 98.2655 735.846 96.4764 738.782C94.9353 741.596 93.9115 744.645 93.9115 747.951C93.9115 751.123 94.6766 754.183 96.4764 757.119C98.1469 759.933 100.453 762.13 103.536 763.844C106.478 765.425 109.689 766.288 113.16 766.288C116.49 766.288 119.702 765.549 122.784 763.844C124.573 762.746 126.373 761.514 127.785 760.056C133.637 753.742 140.286 750.507 146.86 750.507C149.07 750.507 151.279 750.877 153.445 751.616C160.634 754.06 164.999 760.908 163.587 768.239C161.787 776.801 154.857 782.91 143.185 785.231H143.056C140.868 785.723 138.95 786.329 137.021 787.438C134.197 788.896 131.761 791.227 129.962 794.153C128.42 796.843 127.397 799.902 127.397 803.321C127.397 806.504 128.302 809.563 129.962 812.49C131.632 815.18 134.068 817.5 137.021 819.214C139.844 820.559 143.185 821.412 146.645 821.412Z"
        fill="#8FE3E8" />
      <path opacity="0.5" fill-rule="evenodd" clip-rule="evenodd"
        d="M113.615 563.04C116.945 563.04 120.157 562.301 123.228 560.586C124.899 559.611 126.699 558.266 127.981 556.798C133.844 550.412 140.429 547.239 147.003 547.239C153.513 547.239 160.022 550.35 165.831 556.561C167.243 558.143 168.913 559.488 170.842 560.473C173.666 561.931 176.867 562.917 180.467 562.917C183.797 562.917 187.008 562.054 190.091 560.473C192.914 558.882 195.35 556.561 197.139 553.748C198.68 550.935 199.715 547.876 199.715 544.58C199.715 541.274 198.939 538.225 197.139 535.411C195.479 532.598 193.162 530.278 190.091 528.686C187.138 527.095 183.926 526.243 180.467 526.243C177.126 526.243 173.914 526.972 170.842 528.686C169.043 529.662 167.243 530.884 165.831 532.475C159.968 538.8 153.372 541.962 146.766 541.962C144.557 541.962 142.358 541.613 140.17 540.915C132.982 538.461 128.628 531.5 130.04 524.159C131.829 515.606 138.888 509.497 150.441 507.29C152.489 506.931 154.676 506.191 156.595 505.093C159.418 503.625 161.854 501.304 163.654 498.368C165.195 495.678 166.219 492.629 166.219 489.199C166.219 486.027 165.324 482.967 163.654 480.031C161.983 477.341 159.548 475.021 156.595 473.306C153.642 471.848 150.441 470.863 146.971 470.863C143.511 470.863 140.3 471.602 137.347 473.306C134.394 474.897 131.958 477.105 130.287 480.031C128.628 482.844 127.722 485.904 127.722 489.199C127.722 491.16 127.981 493.234 128.628 495.195C132.475 505.822 130.417 514.877 123.487 520.493C120.599 522.875 117.042 524.066 113.486 524.066C109.918 524.066 106.362 522.875 103.474 520.493C96.5437 514.877 94.4852 506.068 98.3435 495.319C98.9794 493.481 99.4967 491.407 99.4967 489.199C99.4967 486.027 98.5914 482.967 96.9317 480.031C95.2612 477.341 92.8255 475.021 89.8725 473.306C86.9195 471.848 83.7079 470.863 80.2484 470.863C76.7781 470.863 73.5772 471.602 70.6243 473.306C67.6713 474.897 65.2356 477.105 63.5651 480.031C61.8947 482.844 61.0001 485.904 61.0001 489.199C61.0001 492.382 61.7653 495.678 63.5651 498.491C65.1063 501.304 67.542 503.625 70.6243 505.216C72.2947 506.315 74.4718 506.931 76.5302 507.413C93.8494 510.719 101.038 522.701 95.3905 538.584C94.7439 540.422 94.3667 542.496 94.3667 544.703C94.3667 547.876 95.1319 550.935 96.9317 553.872C98.4728 556.561 100.908 558.882 103.991 560.586C106.804 562.054 110.015 563.04 113.615 563.04Z"
        fill="#02507B" />
      <path opacity="0.5" fill-rule="evenodd" clip-rule="evenodd"
        d="M-4.22633 812.248C-5.9613 809.385 -6.89893 806.38 -6.81667 803.087C-6.94184 801.176 -6.50166 798.966 -5.81361 797.165C-2.9529 789.154 -3.33564 782.157 -6.61701 776.742C-9.8822 771.354 -16.0073 767.551 -24.6247 765.877C-26.6652 765.447 -28.723 764.741 -30.5687 763.646C-33.315 762.051 -35.8166 759.894 -37.6109 756.933C-39.2812 754.177 -40.2095 751.167 -40.1919 747.767C-40.1663 744.647 -39.3774 741.534 -37.6173 738.586C-35.9426 735.969 -33.6732 733.595 -30.5653 731.885C-27.6721 730.294 -24.4436 729.502 -20.9486 729.417C-17.6682 729.45 -14.3412 730.3 -11.3062 731.878C-8.49525 733.581 -6.00835 735.733 -4.27337 738.596C-2.54379 741.45 -1.60075 744.464 -1.68301 747.758C-1.78722 749.783 -1.99802 751.879 -2.62681 753.778C-5.43151 761.758 -5.04693 768.86 -1.76019 774.284C-0.65023 776.116 0.784935 777.745 2.53993 779.162C8.35506 783.871 16.753 784.053 22.6083 779.279C29.4829 773.518 31.5161 764.635 27.79 753.846C27.0969 751.962 26.8005 750.015 26.658 747.829C26.6929 744.704 27.4724 741.596 29.3065 738.75C31.034 735.974 33.298 733.591 36.2938 731.943C39.1871 730.352 42.4116 729.574 45.9753 729.582C49.303 729.446 52.5234 730.366 55.5529 731.936C58.4759 733.577 60.8562 735.8 62.5858 738.654C64.3208 741.517 65.2584 744.522 65.1761 747.816C65.3013 749.727 64.8665 751.945 64.1731 753.738C61.303 761.753 61.7005 768.754 64.9765 774.16C68.2417 779.548 74.3628 783.365 82.9842 785.025C85.0246 785.455 87.0824 786.161 88.9282 787.256C91.6745 788.851 94.1668 791.013 95.961 793.974C97.6313 796.73 98.5743 799.744 98.5513 803.136C98.5164 806.261 97.7423 809.378 95.9675 812.322C94.1807 815 91.9207 817.369 88.9155 819.022C86.0315 820.608 82.8678 821.507 79.2987 821.49C75.9063 821.519 72.756 820.715 69.6564 819.029C66.7481 817.392 64.3585 815.174 62.6235 812.311C60.9586 809.564 60.0249 806.544 60.0332 803.149C60.1374 801.124 60.3575 799.023 60.977 797.13C63.791 789.145 63.4064 782.042 60.1197 776.618C59.0151 774.796 57.5745 773.158 55.8196 771.74C50.0044 767.032 41.5971 766.855 35.6392 771.685C28.7553 777.451 26.6667 786.222 30.3928 797.012L30.4574 797.118C31.1032 799.17 31.5117 801.055 31.4682 803.201C31.5546 806.26 30.6537 809.434 28.8936 812.382C27.2189 814.998 24.9495 817.373 21.8416 819.082C18.9484 820.674 15.7146 821.457 12.2249 821.551C8.94449 821.517 5.61751 820.668 2.58256 819.089C-0.0517578 817.432 -2.49673 815.102 -4.22633 812.248Z"
        fill="#02507B" />
      <path fill-rule="evenodd" clip-rule="evenodd"
        d="M-33.9629 650.963C-32.2923 653.72 -30.0236 656.005 -26.9291 657.681C-25.3192 658.633 -23.0845 659.384 -21.1086 659.708C-12.3958 661.353 -6.22059 665.176 -2.94397 670.582C0.321877 675.97 0.722496 682.934 -2.0698 690.872C-2.69846 692.771 -3.08577 694.821 -3.00773 696.901C-2.93578 699.955 -2.22575 703.098 -0.431168 706.059C1.23948 708.815 3.51741 711.095 6.61195 712.771C9.46119 714.31 12.6911 715.225 16.2456 715.237C19.4615 715.164 22.7547 714.478 25.8626 712.769C28.7559 711.177 31.1545 709.016 32.9144 706.068C34.5297 703.354 35.4803 700.282 35.4976 696.881C35.361 693.72 34.6416 690.583 32.9063 687.72C31.2411 684.972 28.9724 682.687 25.8779 681.011C23.9793 680.075 21.9687 679.202 19.9281 678.771C11.2713 677.095 5.04398 673.289 1.7458 667.848C0.635628 666.016 -0.138542 664 -0.565971 661.816C-1.93929 654.664 2.09387 647.644 9.47296 645.138C18.1473 642.346 27.2397 645.11 35.1208 653.472C36.4768 654.99 38.2374 656.417 40.0887 657.52C42.9472 659.054 46.2745 659.903 49.7317 659.981C53.0596 659.846 56.3435 659.166 59.3487 657.513C62.3446 655.865 64.6785 653.597 66.4004 650.812C68.1224 648.027 69.0137 644.857 68.9836 641.625C68.9536 638.394 68.1223 635.318 66.3924 632.464C64.657 629.601 62.3845 627.33 59.3586 625.746C56.5473 624.044 53.2201 623.195 49.7155 623.285C46.435 623.252 43.2064 624.044 40.0986 625.754C38.3159 626.734 36.672 627.923 35.272 629.535C23.4338 642.259 9.05964 642.259 -2.77335 629.574C-4.19795 627.963 -5.72257 626.679 -7.6805 625.646C-9.40246 624.755 -11.5251 623.943 -13.501 623.619C-22.1991 621.978 -28.3635 618.173 -31.6348 612.776C-34.906 607.379 -35.2894 600.382 -32.4278 592.394C-31.7992 590.495 -31.5238 588.506 -31.4899 586.365C-31.5672 583.301 -32.2812 580.173 -34.0812 577.203C-35.7464 574.456 -38.015 572.171 -41.115 570.485C-43.9735 568.952 -47.1887 568.041 -50.7526 568.033C-53.9685 568.107 -57.2578 568.778 -60.375 570.493C-63.2589 572.079 -65.6521 574.249 -67.4214 577.203C-69.0367 579.917 -69.9226 583.096 -70.0006 586.375C-69.8586 589.545 -69.1486 592.688 -67.4187 595.542C-65.6833 598.405 -63.4108 600.676 -60.3755 602.255C-58.4769 603.19 -56.4663 604.064 -54.4257 604.495C-45.733 606.127 -39.5725 609.946 -36.3013 615.343C-33.03 620.74 -32.6427 627.723 -35.4989 635.72C-36.1275 637.619 -36.5148 639.67 -36.5542 641.802C-36.5889 644.927 -35.7575 648.003 -33.9629 650.963Z"
        fill="#FAFF00" />
      <path fill-rule="evenodd" clip-rule="evenodd"
        d="M145.1 577.56C141.759 577.56 138.547 578.289 135.476 580.004C133.805 580.856 132.006 582.324 130.723 583.792C124.871 590.158 118.308 593.341 111.755 593.341C105.224 593.341 98.6929 590.189 92.8731 583.916C91.4613 582.447 89.7908 581.102 87.8617 580.127C85.0488 578.659 81.8372 577.673 78.2484 577.673C74.9074 577.673 71.6957 578.412 68.6242 580.127C65.8006 581.708 63.3541 583.916 61.5651 586.842C60.0239 589.532 59.0001 592.591 59.0001 596.01C59.0001 599.193 59.7653 602.252 61.5651 605.179C63.2248 607.869 65.5419 610.189 68.6242 611.903C71.5664 613.372 74.778 614.347 78.2484 614.347C81.5785 614.347 84.7902 613.618 87.8617 611.903C89.6615 610.805 91.4613 609.583 92.8731 608.115C98.7252 601.811 105.299 598.577 111.895 598.577C114.115 598.577 116.335 598.946 118.534 599.686C125.722 602.129 130.087 608.967 128.675 616.308C126.876 624.86 119.816 630.98 108.274 633.3C106.215 633.659 104.038 634.399 102.109 635.374C99.2856 636.965 96.85 639.286 95.0502 642.099C93.509 644.912 92.4852 647.961 92.4852 651.267C92.4852 654.563 93.3797 657.623 95.0502 660.436C96.7206 663.249 99.1563 665.569 102.109 667.161C105.062 668.752 108.274 669.604 111.733 669.604C115.204 669.604 118.405 668.865 121.358 667.161C124.311 665.692 126.746 663.372 128.417 660.436C130.087 657.746 130.982 654.686 130.982 651.267C130.982 649.306 130.723 647.356 129.958 645.395C124.311 629.265 131.499 617.407 148.947 613.988C151.124 613.618 153.054 613.002 154.972 611.903C156.642 610.928 158.442 609.583 159.725 608.115C165.566 601.76 172.108 598.577 178.65 598.577C185.192 598.577 191.744 601.76 197.575 608.115C198.986 609.583 200.657 610.805 202.586 611.903C205.41 613.372 208.611 614.347 212.21 614.347C215.54 614.347 218.752 613.618 221.834 611.903C224.658 610.312 227.094 608.115 228.883 605.179C230.424 602.489 231.458 599.439 231.458 596.01C231.458 592.838 230.683 589.778 228.883 586.842C227.223 584.152 224.777 581.831 221.834 580.127C218.881 578.659 215.67 577.673 212.21 577.673C208.74 577.673 205.539 578.412 202.586 580.127C200.786 581.226 198.986 582.447 197.575 583.916C191.744 590.271 185.192 593.443 178.65 593.443C172.108 593.443 165.566 590.271 159.725 583.916C158.313 582.447 156.642 581.102 154.724 580.004C151.9 578.412 148.689 577.56 145.1 577.56Z"
        fill="#02507B" />
      <path opacity="0.3" fill-rule="evenodd" clip-rule="evenodd"
        d="M-34.418 545.093C-32.7527 547.84 -30.4748 550.12 -27.3802 551.797C-25.6583 552.687 -23.5357 553.5 -21.5597 553.824C-12.8229 555.467 -6.64619 559.313 -3.3588 564.737C-0.103745 570.107 0.323425 577.033 -2.41827 584.931C-3.14957 586.886 -3.53688 588.937 -3.46819 591.021C-3.38151 594.08 -2.6769 597.213 -0.8769 600.183C0.788353 602.931 3.17831 605.149 6.15689 606.901C9.01547 608.435 12.3427 609.284 15.7945 609.353C19.1224 609.218 22.421 608.541 25.4169 606.893C28.4221 605.24 30.806 603.075 32.4633 600.184C34.1906 597.408 35.1412 594.336 35.0519 591.006C35.0218 587.774 34.1905 584.698 32.4606 581.844C30.7899 579.088 28.5213 576.803 25.4268 575.127C23.6402 574.129 21.6295 573.256 19.4769 572.887C10.7961 571.212 4.62336 567.352 1.31979 561.902C0.215019 560.079 -0.567055 558.091 -1.02642 555.937C-2.39041 548.78 1.76015 541.707 9.13922 539.201C17.8082 536.4 26.8913 539.169 34.6751 547.596C36.0257 549.106 37.7916 550.541 39.7495 551.575C42.4961 553.17 45.8233 554.019 49.3926 554.035C52.6085 553.962 55.8923 553.282 59.0096 551.567C61.8935 549.98 64.2274 547.713 66.0613 544.866C67.6712 542.143 68.5626 538.973 68.6445 535.68C68.4932 532.514 67.7886 529.381 66.0532 526.518C64.3233 523.664 62.0454 521.384 59.0195 519.8C56.0962 518.16 52.8716 517.254 49.3764 517.339C45.9893 517.377 42.7553 518.16 39.7594 519.808C37.9768 520.788 36.2209 522.039 34.7617 523.553C27.0259 532.041 17.7649 534.871 9.19448 531.962C5.58493 530.77 2.72388 528.432 0.94545 525.498C-0.838371 522.555 -1.53417 519.025 -0.813217 515.451C0.826698 506.926 7.80507 500.823 19.5061 498.63C21.4946 498.236 23.6386 497.626 25.6452 496.522C28.5291 494.935 30.8576 492.659 32.6969 489.821C34.3069 487.098 35.1982 483.928 35.2801 480.635C35.1288 477.469 34.4188 474.327 32.6889 471.473C30.9535 468.61 28.681 466.339 25.6551 464.755C22.7318 463.115 19.5072 462.209 16.012 462.294C12.6195 462.323 9.39093 463.115 6.39503 464.763C3.5018 466.354 0.888535 468.634 -0.768715 471.525C-2.55531 474.203 -3.44662 477.373 -3.35192 480.712C-3.51522 482.639 -2.9866 484.743 -2.39591 486.683C3.25926 502.624 -4.03777 514.546 -21.2999 517.829C-23.2938 518.215 -25.3677 518.94 -27.3743 520.044C-30.2582 521.631 -32.6568 523.792 -34.426 526.745C-36.1006 529.361 -36.9919 532.531 -36.9999 535.926C-36.928 538.981 -36.218 542.123 -34.418 545.093Z"
        fill="#02507B" />
    </g>
  </g>
  <defs>
    <clipPath id="clip0_788_31496">
      <rect width="1440" height="877" fill="white" />
    </clipPath>
    <clipPath id="clip1_788_31496">
      <rect width="318" height="825" fill="white" transform="matrix(-1 0 0 -1 234 1112)" />
    </clipPath>
  </defs>
</svg>