<svg xmlns="http://www.w3.org/2000/svg" width="332.2061462402344" height="256.4734802246094" viewBox="-161.15768432617188 -78.88348388671875 332.2061462402344 256.4734802246094"><title>Neo4j Graph Visualization</title><desc>Created using Neo4j (http://www.neo4j.com/)</desc><g class="layer relationships"><g class="relationship" transform="translate(-132.15768877669635 148.58997900432132) rotate(339.0435525760033)"><path class="b-outline" fill="#A5ABB6" stroke="none" d="M 24.018736134675446,6.953439040707552 L 24.277555179777966,5.987513214418485 A 178.54309919629722 178.54309919629722 0 0 0 45.70156308912943,10.342362112381522 L 45.56273752462509,11.332678962000898 A 179.54309919629722 179.54309919629722 0 0 1 24.018736134675446,6.953439040707552 Z M 91.12599128979501,11.881126646379897 L 91.01104350422837,10.887755111357222 A 178.54309919629722 178.54309919629722 0 0 0 112.5336680069786,7.049857465815503 L 111.82718718683762,4.134229771686339 L 119.4545460966368,5.887340167841428 L 113.47564243383323,10.93736105798772 L 112.76916161369225,8.021733363858557 A 179.54309919629722 179.54309919629722 0 0 1 91.12599128979501,11.881126646379897"/><text text-anchor="middle" pointer-events="none" font-size="8px" fill="#000000" x="68.3329129543194" y="15.558252347452367" font-family="Helvetica Neue, Helvetica, Arial, sans-serif">ACTED_IN</text></g><g class="relationship" transform="translate(108.30456152288181 -3.3082520798671244) rotate(496.58933189493814)"><path class="b-outline" fill="#A5ABB6" stroke="none" d="M 24.018736134675446,6.953439040707552 L 24.277555179777966,5.987513214418485 A 183.39859663710948 183.39859663710948 0 0 0 46.92975721983346,10.550120762187248 L 46.79445167186461,11.540924682591708 A 184.39859663710948 184.39859663710948 0 0 1 24.018736134675446,6.953439040707552 Z M 92.36087397943659,12.08056698404397 L 92.24907123515936,11.086836564678606 A 183.39859663710948 183.39859663710948 0 0 0 115.00297454138207,7.061972687537669 L 114.29536220682687,4.146619401229933 L 121.92340093185933,5.896769454626791 L 115.94645765412236,10.94911040261465 L 115.23884531956715,8.033757116306916 A 184.39859663710948 184.39859663710948 0 0 1 92.36087397943659,12.08056698404397"/><text text-anchor="middle" pointer-events="none" font-size="8px" fill="#000000" x="69.56684985281608" y="15.72377375061069" transform="rotate(180 69.56684985281608 12.72377375061069)" font-family="Helvetica Neue, Helvetica, Arial, sans-serif">ACTED_IN</text></g><g class="relationship" transform="translate(-0.8199491322097183 -49.88348193595195) rotate(448.86836540786453)"><path class="b-outline" fill="#A5ABB6" stroke="none" d="M 24.018736134675446,6.953439040707552 L 24.277555179777966,5.987513214418485 A 185.11099024674587 185.11099024674587 0 0 0 47.36317744217991,10.622890338529345 L 47.229070723620666,11.613857234059793 A 186.11099024674587 186.11099024674587 0 0 1 24.018736134675446,6.953439040707552 Z M 92.79653186347436,12.15045926819576 L 92.68579833332265,11.156609135982592 A 185.11099024674587 185.11099024674587 0 0 0 115.87417591924881,7.066154239818795 L 115.1661730457145,4.150895772535463 L 122.79444615516563,5.900023946119287 L 116.81817975062789,10.953165529529903 L 116.11017687709358,8.037907062246571 A 186.11099024674587 186.11099024674587 0 0 1 92.79653186347436,12.15045926819576"/><text text-anchor="middle" pointer-events="none" font-size="8px" fill="#000000" x="70.00220301153107" y="15.7821488833128" font-family="Helvetica Neue, Helvetica, Arial, sans-serif">ACTED_IN</text></g><g class="relationship" transform="translate(142.04843329913913 131.8734874287068) rotate(193.92311661484)"><path class="b-outline" fill="#A5ABB6" stroke="none" d="M 25 0.5 L 52.34030586563436 0.5 L 52.34030586563436 -0.5 L 25 -0.5 Z M 84.85983711563436 0.5 L 112.20014298126873 0.5 L 112.20014298126873 3.5 L 119.20014298126873 0 L 112.20014298126873 -3.5 L 112.20014298126873 -0.5 L 84.85983711563436 -0.5 Z"/><text text-anchor="middle" pointer-events="none" font-size="8px" fill="#000000" x="68.60007149063436" y="3" transform="rotate(180 68.60007149063436 0)" font-family="Helvetica Neue, Helvetica, Arial, sans-serif">RATED</text></g><g class="relationship" transform="translate(2.084965514595155 97.17609672647585) rotate(222.65752103718262)"><path class="b-outline" fill="#A5ABB6" stroke="none" d="M 25 0.5 L 46.38358156390676 0.5 L 46.38358156390676 -0.5 L 25 -0.5 Z M 93.28201906390676 0.5 L 114.66560062781352 0.5 L 114.66560062781352 3.5 L 121.66560062781352 0 L 114.66560062781352 -3.5 L 114.66560062781352 -0.5 L 93.28201906390676 -0.5 Z"/><text text-anchor="middle" pointer-events="none" font-size="8px" fill="#000000" x="69.83280031390676" y="3" transform="rotate(180 69.83280031390676 0)" font-family="Helvetica Neue, Helvetica, Arial, sans-serif">IN_GENRE</text></g><g class="relationship" transform="translate(108.30456152288181 -3.3082520798671244) rotate(496.58933189493814)"><path class="b-outline" fill="#A5ABB6" stroke="none" d="M 24.018736134675446,-6.953439040707552 L 24.277555179777966,-5.987513214418485 A 183.39859663710948 183.39859663710948 0 0 1 46.27375361298637,-10.45932919612946 L 46.13487113684643,-11.449638066038887 A 184.39859663710948 184.39859663710948 0 0 0 24.018736134675446,-6.953439040707552 Z M 93.02243142808595,-12.0049265803369 L 92.9070410347663,-11.011606361510388 A 183.39859663710948 183.39859663710948 0 0 1 115.00297454138207,-7.061972687537669 L 114.29536220682687,-4.146619401229933 L 121.92340093185933,-5.896769454626791 L 115.94645765412236,-10.94911040261465 L 115.23884531956715,-8.033757116306916 A 184.39859663710948 184.39859663710948 0 0 0 93.02243142808595,-12.0049265803369"/><text text-anchor="middle" pointer-events="none" font-size="8px" fill="#000000" x="69.56684985281603" y="-9.72377375061069" transform="rotate(180 69.56684985281603 -12.72377375061069)" font-family="Helvetica Neue, Helvetica, Arial, sans-serif">DIRECTED</text></g><g class="relationship" transform="translate(-132.15768877669635 148.58997900432132) rotate(339.0435525760033)"><path class="b-outline" fill="#A5ABB6" stroke="none" d="M 24.018736134675446,-6.953439040707552 L 24.277555179777966,-5.987513214418485 A 178.54309919629722 178.54309919629722 0 0 1 45.04593931367289,-10.249214763948117 L 44.90344167347139,-11.239009905650164 A 179.54309919629722 179.54309919629722 0 0 0 24.018736134675446,-6.953439040707552 Z M 91.78735079044523,-11.803354399622577 L 91.6687194352866,-10.810416032163033 A 178.54309919629722 178.54309919629722 0 0 1 112.5336680069786,-7.049857465815503 L 111.82718718683762,-4.134229771686339 L 119.4545460966368,-5.887340167841428 L 113.47564243383323,-10.93736105798772 L 112.76916161369225,-8.021733363858557 A 179.54309919629722 179.54309919629722 0 0 0 91.78735079044523,-11.803354399622577"/><text text-anchor="middle" pointer-events="none" font-size="8px" fill="#000000" x="68.33291295431934" y="-9.558252347452367" font-family="Helvetica Neue, Helvetica, Arial, sans-serif">DIRECTED</text></g><g class="relationship" transform="translate(-0.8199491322097183 -49.88348193595195) rotate(448.86836540786453)"><path class="b-outline" fill="#A5ABB6" stroke="none" d="M 24.018736134675446,-6.953439040707552 L 24.277555179777966,-5.987513214418485 A 185.11099024674587 185.11099024674587 0 0 1 46.707046462490084,-10.532901173750872 L 46.56939521651615,-11.52338193301972 A 186.11099024674587 186.11099024674587 0 0 0 24.018736134675446,-6.953439040707552 Z M 93.45815501358972,-12.075543568885308 L 93.34386649106901,-11.082095969049249 A 185.11099024674587 185.11099024674587 0 0 1 115.87417591924881,-7.066154239818795 L 115.1661730457145,-4.150895772535463 L 122.79444615516563,-5.900023946119287 L 116.81817975062789,-10.953165529529903 L 116.11017687709358,-8.037907062246571 A 186.11099024674587 186.11099024674587 0 0 0 93.45815501358972,-12.075543568885308"/><text text-anchor="middle" pointer-events="none" font-size="8px" fill="#000000" x="70.00220301153101" y="-9.7821488833128" font-family="Helvetica Neue, Helvetica, Arial, sans-serif">DIRECTED</text></g></g><g class="layer nodes"><g class="node" aria-label="graph-node-1" transform="translate(2.084965514595155,97.17609672647585)" style="touch-action: none; -webkit-tap-highlight-color: rgba(0, 0, 0, 0);"><circle class="b-outline" cx="0" cy="0" r="25" fill="#C990C0" stroke="#b261a5" stroke-width="2px"/><text class="caption" text-anchor="middle" pointer-events="none" x="0" y="5" font-size="10px" fill="#FFFFFF" font-family="Helvetica Neue, Helvetica, Arial, sans-serif"> Movie</text></g><g class="node" aria-label="graph-node-3" transform="translate(142.04843329913913,131.8734874287068)" style="touch-action: none; -webkit-tap-highlight-color: rgba(0, 0, 0, 0);"><circle class="b-outline" cx="0" cy="0" r="25" fill="#F79767" stroke="#f36924" stroke-width="2px"/><text class="caption" text-anchor="middle" pointer-events="none" x="0" y="5" font-size="10px" fill="#FFFFFF" font-family="Helvetica Neue, Helvetica, Arial, sans-serif"> User</text></g><g class="node" aria-label="graph-node-4" transform="translate(108.30456152288181,-3.3082520798671244)" style="touch-action: none; -webkit-tap-highlight-color: rgba(0, 0, 0, 0);"><circle class="b-outline" cx="0" cy="0" r="25" fill="#57C7E3" stroke="#23b3d7" stroke-width="2px"/><text class="caption" text-anchor="middle" pointer-events="none" x="0" y="5" font-size="10px" fill="#2A2C34" font-family="Helvetica Neue, Helvetica, Arial, sans-serif"> Actor</text></g><g class="node" aria-label="graph-node-5" transform="translate(-0.8199491322097183,-49.88348193595195)" style="touch-action: none; -webkit-tap-highlight-color: rgba(0, 0, 0, 0);"><circle class="b-outline" cx="0" cy="0" r="25" fill="#F16667" stroke="#eb2728" stroke-width="2px"/><text class="caption" text-anchor="middle" pointer-events="none" x="0" y="5" font-size="10px" fill="#FFFFFF" font-family="Helvetica Neue, Helvetica, Arial, sans-serif"> Director</text></g><g class="node" aria-label="graph-node-2" transform="translate(-105.77543678277449,-2.2066584364138224)" style="touch-action: none; -webkit-tap-highlight-color: rgba(0, 0, 0, 0);"><circle class="b-outline" cx="0" cy="0" r="25" fill="#D9C8AE" stroke="#c0a378" stroke-width="2px"/><text class="caption" text-anchor="middle" pointer-events="none" x="0" y="5" font-size="10px" fill="#2A2C34" font-family="Helvetica Neue, Helvetica, Arial, sans-serif"> Genre</text></g><g class="node" aria-label="graph-node-6" transform="translate(-132.15768877669635,148.58997900432132)" style="touch-action: none; -webkit-tap-highlight-color: rgba(0, 0, 0, 0);"><circle class="b-outline" cx="0" cy="0" r="25" fill="#8DCC93" stroke="#5db665" stroke-width="2px"/><text class="caption" text-anchor="middle" pointer-events="none" x="0" y="5" font-size="10px" fill="#2A2C34" font-family="Helvetica Neue, Helvetica, Arial, sans-serif"> Person</text></g></g></svg>