<svg width="424" height="350" viewBox="0 0 424 350" fill="none" xmlns="http://www.w3.org/2000/svg">
  <g opacity="0.1">
    <path
      d="M800.549 370.857C791.984 370.363 783.39 370.127 774.816 370.464C726.525 372.348 683.459 381.561 647.704 409.105C566.487 471.672 586.936 574.019 519.353 631.281C457.233 679.136 368.097 667.698 320.261 605.739C267.923 540.116 317.597 440.797 253.101 357.261C186.123 270.51 79.8285 296.481 29.5592 229.232C-18.277 167.274 -6.69704 78.2476 55.423 30.3924C117.543 -17.4628 206.686 -6.02943 254.522 55.9286C306.86 121.552 256.324 219.755 321.682 304.407C387.526 383.941 514.748 402.427 594.878 340.697C682.398 273.274 655.994 167.6 723.416 117.307C785.535 69.4521 874.678 80.8854 922.514 142.844C996.884 237.724 921.748 377.853 800.549 370.857Z"
      fill="#0A6191" />
  </g>
</svg>