<svg width="1109" height="621" viewBox="0 0 1109 621" fill="none" xmlns="http://www.w3.org/2000/svg">
  <g opacity="0.1">
    <path
      d="M81.1938 658.708C82.8208 648.559 84.1435 638.345 84.7818 628.084C88.3908 570.298 82.6312 517.851 54.1358 471.896C-10.5913 367.508 -135.056 379.474 -195.113 291.98C-244.62 212.138 -220.181 107.284 -140.534 57.7801C-55.9727 3.35441 56.3829 74.601 163.768 7.85612C275.285 -61.4571 257.218 -191.297 343.465 -243.06C423.111 -292.564 527.818 -267.969 577.325 -188.127C626.832 -108.285 602.398 -3.42268 522.751 46.0816C438.19 100.507 327.27 28.3685 218.449 96.0056C115.672 164.842 78.2141 314.236 142.075 417.226C211.825 529.715 340.98 511.055 392.749 597.511C442.256 677.353 417.822 782.216 338.175 831.72C216.071 908.858 58.1618 802.316 81.1938 658.708Z"
      fill="#0A6191" />
  </g>
</svg>