<svg xmlns="http://www.w3.org/2000/svg" width="200.09732055664062" height="208.6195068359375" viewBox="-105.66728210449219 -93.19420623779297 200.09732055664062 208.6195068359375"><title>Neo4j Graph Visualization</title><desc>Created using Neo4j (http://www.neo4j.com/)</desc><g class="layer relationships"><g class="relationship" transform="translate(-30.029205636714476 86.42529580431706) rotate(250.95568488174865)"><path class="b-outline" fill="#A5ABB6" stroke="none" d="M 24.018736134675446,-6.953439040707552 L 24.277555179777966,-5.987513214418485 A 176.926038143597 176.926038143597 0 0 1 40.692952024708404,-9.560276645320783 L 40.526914104516436,-10.546396013885442 A 177.926038143597 177.926038143597 0 0 0 24.018736134675446,-6.953439040707552 Z M 95.35669446123673,-11.210005698895998 L 95.21457186187355,-10.220156636285822 A 176.926038143597 176.926038143597 0 0 1 111.7116304780469,-7.045735567132381 L 111.00553462880215,-4.130014618262388 L 118.63266200028434,-5.884132077039618 L 112.65309161037324,-10.933363498959038 L 111.94699576112849,-8.017642550089045 A 177.926038143597 177.926038143597 0 0 0 95.35669446123673,-11.210005698895998"/><text text-anchor="middle" pointer-events="none" font-size="8px" fill="#000000" x="67.92213764467374" y="-9.503128095058258" transform="rotate(180 67.92213764467374 -12.503128095058258)" font-family="Helvetica Neue, Helvetica, Arial, sans-serif">HAS_ROUTE</text></g><g class="relationship" transform="translate(-76.66728346511229 -48.681960883422235) rotate(353.7698983197612)"><path class="b-outline" fill="#A5ABB6" stroke="none" d="M 24.018736134675446,-6.953439040707552 L 24.277555179777966,-5.987513214418485 A 176.94804662816426 176.94804662816426 0 0 1 40.698499780982274,-9.56131132505675 L 40.53248167329677,-10.54743402934892 A 177.94804662816426 177.94804662816426 0 0 0 24.018736134675446,-6.953439040707552 Z M 95.36229785753977,-11.210994614472554 L 95.22019335740134,-10.221142953343275 A 176.94804662816426 176.94804662816426 0 0 1 111.72281741034932,-7.045791965108223 L 111.01671629372555,-4.130072291836687 L 118.64384683408687,-5.884175971864695 L 112.66428556584768,-10.933418196136937 L 111.95818444922391,-8.017698522865402 A 177.94804662816426 177.94804662816426 0 0 0 95.36229785753977,-11.210994614472554"/><text text-anchor="middle" pointer-events="none" font-size="8px" fill="#000000" x="67.92772778067891" y="-9.503878343923816" font-family="Helvetica Neue, Helvetica, Arial, sans-serif">HAS_ROUTE</text></g><g class="relationship" transform="translate(65.43002715493076 -64.19420824003528) rotate(533.7698983197612)"><path class="b-outline" fill="#A5ABB6" stroke="none" d="M 24.018736134675446,-6.953439040707552 L 24.277555179777966,-5.987513214418485 A 176.94804662816426 176.94804662816426 0 0 1 40.698499780982274,-9.56131132505675 L 40.53248167329677,-10.54743402934892 A 177.94804662816426 177.94804662816426 0 0 0 24.018736134675446,-6.953439040707552 Z M 95.36229785753977,-11.210994614472554 L 95.22019335740134,-10.221142953343275 A 176.94804662816426 176.94804662816426 0 0 1 111.72281741034932,-7.045791965108223 L 111.01671629372555,-4.130072291836687 L 118.64384683408687,-5.884175971864695 L 112.66428556584768,-10.933418196136937 L 111.95818444922391,-8.017698522865402 A 177.94804662816426 177.94804662816426 0 0 0 95.36229785753977,-11.210994614472554"/><text text-anchor="middle" pointer-events="none" font-size="8px" fill="#000000" x="67.92772778067891" y="-9.503878343923816" transform="rotate(180 67.92772778067891 -12.503878343923816)" font-family="Helvetica Neue, Helvetica, Arial, sans-serif">HAS_ROUTE</text></g><g class="relationship" transform="translate(-76.66728346511229 -48.681960883422235) rotate(430.95568488174865)"><path class="b-outline" fill="#A5ABB6" stroke="none" d="M 24.018736134675446,-6.953439040707552 L 24.277555179777966,-5.987513214418485 A 176.926038143597 176.926038143597 0 0 1 40.692952024708404,-9.560276645320783 L 40.526914104516436,-10.546396013885442 A 177.926038143597 177.926038143597 0 0 0 24.018736134675446,-6.953439040707552 Z M 95.35669446123673,-11.210005698895998 L 95.21457186187355,-10.220156636285822 A 176.926038143597 176.926038143597 0 0 1 111.7116304780469,-7.045735567132381 L 111.00553462880215,-4.130014618262388 L 118.63266200028434,-5.884132077039618 L 112.65309161037324,-10.933363498959038 L 111.94699576112849,-8.017642550089045 A 177.926038143597 177.926038143597 0 0 0 95.35669446123673,-11.210005698895998"/><text text-anchor="middle" pointer-events="none" font-size="8px" fill="#000000" x="67.92213764467374" y="-9.503128095058258" font-family="Helvetica Neue, Helvetica, Arial, sans-serif">HAS_ROUTE</text></g></g><g class="layer nodes"><g class="node" aria-label="graph-node8632" transform="translate(-30.029205636714476,86.42529580431706)" style="touch-action: none; -webkit-tap-highlight-color: rgba(0, 0, 0, 0);"><circle class="b-outline" cx="0" cy="0" r="25" fill="#A5ABB6" stroke="#9AA1AC" stroke-width="2px"/><text class="caption" text-anchor="middle" pointer-events="none" x="0" y="5" font-size="10px" fill="#FFFFFF" font-family="Helvetica Neue, Helvetica, Arial, sans-serif"> Baltimor…</text></g><g class="node" aria-label="graph-node8678" transform="translate(65.43002715493076,-64.19420824003528)" style="touch-action: none; -webkit-tap-highlight-color: rgba(0, 0, 0, 0);"><circle class="b-outline" cx="0" cy="0" r="25" fill="#A5ABB6" stroke="#9AA1AC" stroke-width="2px"/><text class="caption" text-anchor="middle" pointer-events="none" x="0" y="0" font-size="10px" fill="#FFFFFF" font-family="Helvetica Neue, Helvetica, Arial, sans-serif"> Frankfurt</text><text class="caption" text-anchor="middle" pointer-events="none" x="0" y="10" font-size="10px" fill="#FFFFFF" font-family="Helvetica Neue, Helvetica, Arial, sans-serif"> M…</text></g><g class="node" aria-label="graph-node8673" transform="translate(-76.66728346511229,-48.681960883422235)" style="touch-action: none; -webkit-tap-highlight-color: rgba(0, 0, 0, 0);"><circle class="b-outline" cx="0" cy="0" r="25" fill="#A5ABB6" stroke="#9AA1AC" stroke-width="2px"/><text class="caption" text-anchor="middle" pointer-events="none" x="0" y="-5" font-size="10px" fill="#FFFFFF" font-family="Helvetica Neue, Helvetica, Arial, sans-serif"> Toronto</text><text class="caption" text-anchor="middle" pointer-events="none" x="0" y="5" font-size="10px" fill="#FFFFFF" font-family="Helvetica Neue, Helvetica, Arial, sans-serif"> Pearson</text><text class="caption" text-anchor="middle" pointer-events="none" x="0" y="15" font-size="10px" fill="#FFFFFF" font-family="Helvetica Neue, Helvetica, Arial, sans-serif"> Int</text></g></g></svg>