<svg xmlns="http://www.w3.org/2000/svg" height="787.2578125" width="408.725" viewBox="-1.0717968940734863 -735.2578125 408.725 787.2578125"><g height="685.2578125" width="262.1435852050781"><g class="layer links"><g class="link"><path fill="#e2e3e5ff" d="M 150.63787827345556 -590.8537590810869 C 150.63787827345556 -578.992240449684 150.63787827345556 -578.992240449684 150.63787827345556 -540.8537590810869 L 109.36212172654444 -540.8537590810869 C 109.36212172654444 -552.7152777124898 109.36212172654444 -552.7152777124898 109.36212172654444 -590.8537590810869 Z"/><text class="text-[12px] font-bold" fill="#1a1b1dff" x="130" y="-564.8537590810869" text-anchor="middle" font-family="Helvetica Neue, Helvetica, Arial, sans-serif">91 rows</text></g><g class="link"><path fill="#e2e3e5ff" d="M 150.63787827345556 -352 C 150.63787827345556 -345.4591559026165 150.63787827345556 -345.4591559026165 150.63787827345556 -316 L 109.36212172654444 -316 C 109.36212172654444 -322.5408440973835 109.36212172654444 -322.5408440973835 109.36212172654444 -352 Z"/><text class="text-[12px] font-bold" fill="#1a1b1dff" x="130" y="-326" text-anchor="middle" font-family="Helvetica Neue, Helvetica, Arial, sans-serif">91 rows</text></g><g class="link"><path fill="#e2e3e5ff" d="M 150.63787827345556 -132 C 150.63787827345556 -120.13848136859713 150.63787827345556 -120.13848136859713 150.63787827345556 -82 L 109.36212172654444 -82 C 109.36212172654444 -93.86151863140287 109.36212172654444 -93.86151863140287 109.36212172654444 -132 Z"/><text class="text-[12px] font-bold" fill="#1a1b1dff" x="130" y="-106" text-anchor="middle" font-family="Helvetica Neue, Helvetica, Arial, sans-serif">91 rows</text></g></g><g class="layer operators"><g class="operator" transform="translate(0, -82)"><rect class="background" width="260" height="32" rx="8" ry="8" fill="rgb(255, 255, 255)"/><g class="header" pointer-events="all"><path class="banner" d="M 252 0 A 8 8 0 0 1 260 8 L 260 18 A 8 8 0 0 1 259.7459666924148 26 L 0.25403330758516596 26 A 8 8 0 0 1 0 18 L 0 8 A 8 8 0 0 1 8 0 Z" style="fill: rgb(247, 243, 255);"/><text class="title text-[12px] font-bold" x="26" y="17" fill="#000000" font-family="Helvetica Neue, Helvetica, Arial, sans-serif">Result</text></g><path class="cost" fill="#bb2d00ff" d="M 252 32 A 8 8 0 0 1 252 32 L 8 32 A 8 8 0 0 1 8 32 Z"/><rect class="b-outline" width="260" rx="8" ry="8" fill="none" stroke-width="1" style="stroke: rgb(187, 190, 195);" height="32"/></g><g class="operator" transform="translate(0, -316)"><rect class="background" width="260" height="184" rx="8" ry="8" fill="rgb(255, 255, 255)"/><g class="header" pointer-events="all"><path class="banner" d="M 252 0 A 8 8 0 0 1 260 8 L 260 18 A 8 8 0 0 1 260 26 L 0 26 A 8 8 0 0 1 0 18 L 0 8 A 8 8 0 0 1 8 0 Z" style="fill: rgb(247, 243, 255);"/><path class="expand" fill="#000000" d="M -5 -10 L 8.66 0 L -5 10 Z" transform="translate(13, 13) rotate(90) scale(0.5,0.5)"/><text class="title text-[12px] font-bold" x="26" y="17" fill="#000000" font-family="Helvetica Neue, Helvetica, Arial, sans-serif">ProduceResults@neo4j</text></g><g class="detail identifiers text-[10px] font-mono" transform="translate(0, 40)"><text font-size="10" x="3" text-anchor="start" fill="#1a1b1dff" font-family="Helvetica Neue, Helvetica, Arial, sans-serif">c, `c.customerID`, `count{(c)-[:PURCHASED]</text></g><g class="detail identifiers text-[10px] font-mono" transform="translate(0, 54)"><text font-size="10" x="3" text-anchor="start" fill="#1a1b1dff" font-family="Helvetica Neue, Helvetica, Arial, sans-serif">-()}`</text></g><g class="detail padding text-[10px]" transform="translate(0, 68)"><text font-size="10" x="3" text-anchor="start" fill="#1a1b1dff" font-family="Helvetica Neue, Helvetica, Arial, sans-serif"/><path class="divider" visibility="visible" d="M 0 -6 L 260 -6" stroke="#DFE1E3"/></g><g class="detail expression text-[10px] font-mono" transform="translate(0, 74)"><text font-size="10" x="3" text-anchor="start" fill="#1a1b1dff" font-family="Helvetica Neue, Helvetica, Arial, sans-serif">`c.customerID`, `count{(c)-[:PURCHASED]-()</text></g><g class="detail expression text-[10px] font-mono" transform="translate(0, 88)"><text font-size="10" x="3" text-anchor="start" fill="#1a1b1dff" font-family="Helvetica Neue, Helvetica, Arial, sans-serif">}`</text></g><g class="detail padding text-[10px]" transform="translate(0, 102)"><text font-size="10" x="3" text-anchor="start" fill="#1a1b1dff" font-family="Helvetica Neue, Helvetica, Arial, sans-serif"/><path class="divider" visibility="visible" d="M 0 -6 L 260 -6" stroke="#DFE1E3"/></g><g class="detail global-memory text-[10px]" transform="translate(0, 108)"><text font-size="10" x="3" text-anchor="start" fill="#1a1b1dff" font-family="Helvetica Neue, Helvetica, Arial, sans-serif">64 total memory (bytes)</text></g><g class="detail operator-memory text-[10px]" transform="translate(0, 122)"><text font-size="10" x="3" text-anchor="start" fill="#1a1b1dff" font-family="Helvetica Neue, Helvetica, Arial, sans-serif">0 memory (bytes)</text></g><g class="detail pagecache-hits text-[10px]" transform="translate(0, 136)"><text font-size="10" x="3" text-anchor="start" fill="#1a1b1dff" font-family="Helvetica Neue, Helvetica, Arial, sans-serif">0 pagecache hits</text></g><g class="detail pagecache-misses text-[10px]" transform="translate(0, 150)"><text font-size="10" x="3" text-anchor="start" fill="#1a1b1dff" font-family="Helvetica Neue, Helvetica, Arial, sans-serif">0 pagecache misses</text></g><g class="detail estimated-rows text-[10px]" transform="translate(0, 164)"><text font-size="10" x="3" text-anchor="start" fill="#1a1b1dff" font-family="Helvetica Neue, Helvetica, Arial, sans-serif">91 estimated rows</text></g><g class="detail db-hits text-[10px]" transform="translate(0, 178)"><text font-size="10" x="3" text-anchor="start" fill="#1a1b1dff" font-family="Helvetica Neue, Helvetica, Arial, sans-serif">0 db hits</text></g><path class="cost" fill="#bb2d00ff" d="M 252 184 A 8 8 0 0 1 252 184 L 8 184 A 8 8 0 0 1 8 184 Z"/><rect class="b-outline" width="260" rx="8" ry="8" fill="none" stroke-width="1" style="stroke: rgb(187, 190, 195);" height="184"/></g><g class="operator" transform="translate(0, -540.853759765625)"><rect class="background" width="260" height="188.8537590810869" rx="8" ry="8" fill="rgb(255, 255, 255)"/><g class="header" pointer-events="all"><path class="banner" d="M 252 0 A 8 8 0 0 1 260 8 L 260 18 A 8 8 0 0 1 260 26 L 0 26 A 8 8 0 0 1 0 18 L 0 8 A 8 8 0 0 1 8 0 Z" style="fill: rgb(160, 123, 236);"/><path class="expand" fill="#000000" d="M -5 -10 L 8.66 0 L -5 10 Z" transform="translate(13, 13) rotate(90) scale(0.5,0.5)"/><text class="title text-[12px] font-bold" x="26" y="17" fill="#000000" font-family="Helvetica Neue, Helvetica, Arial, sans-serif">Projection@neo4j</text></g><g class="detail identifiers text-[10px] font-mono" transform="translate(0, 40)"><text font-size="10" x="3" text-anchor="start" fill="#1a1b1dff" font-family="Helvetica Neue, Helvetica, Arial, sans-serif">c, `c.customerID`, `count{(c)-[:PURCHASED]</text></g><g class="detail identifiers text-[10px] font-mono" transform="translate(0, 54)"><text font-size="10" x="3" text-anchor="start" fill="#1a1b1dff" font-family="Helvetica Neue, Helvetica, Arial, sans-serif">-()}`</text></g><g class="detail padding text-[10px]" transform="translate(0, 68)"><text font-size="10" x="3" text-anchor="start" fill="#1a1b1dff" font-family="Helvetica Neue, Helvetica, Arial, sans-serif"/><path class="divider" visibility="visible" d="M 0 -6 L 260 -6" stroke="#DFE1E3"/></g><g class="detail expression text-[10px] font-mono" transform="translate(0, 74)"><text font-size="10" x="3" text-anchor="start" fill="#1a1b1dff" font-family="Helvetica Neue, Helvetica, Arial, sans-serif">c.customerID AS `c.customerID`, getDegree(</text></g><g class="detail expression text-[10px] font-mono" transform="translate(0, 88)"><text font-size="10" x="3" text-anchor="start" fill="#1a1b1dff" font-family="Helvetica Neue, Helvetica, Arial, sans-serif">(c)-[:PURCHASED]-()) AS `count{(c)-[:</text></g><g class="detail expression text-[10px] font-mono" transform="translate(0, 102)"><text font-size="10" x="3" text-anchor="start" fill="#1a1b1dff" font-family="Helvetica Neue, Helvetica, Arial, sans-serif">PURCHASED]-()}`</text></g><g class="detail padding text-[10px]" transform="translate(0, 116)"><text font-size="10" x="3" text-anchor="start" fill="#1a1b1dff" font-family="Helvetica Neue, Helvetica, Arial, sans-serif"/><path class="divider" visibility="visible" d="M 0 -6 L 260 -6" stroke="#DFE1E3"/></g><g class="detail pagecache-hits text-[10px]" transform="translate(0, 122)"><text font-size="10" x="3" text-anchor="start" fill="#1a1b1dff" font-family="Helvetica Neue, Helvetica, Arial, sans-serif">42 pagecache hits</text></g><g class="detail pagecache-misses text-[10px]" transform="translate(0, 136)"><text font-size="10" x="3" text-anchor="start" fill="#1a1b1dff" font-family="Helvetica Neue, Helvetica, Arial, sans-serif">0 pagecache misses</text></g><g class="detail estimated-rows text-[10px]" transform="translate(0, 150)"><text font-size="10" x="3" text-anchor="start" fill="#1a1b1dff" font-family="Helvetica Neue, Helvetica, Arial, sans-serif">91 estimated rows</text></g><path class="cost" fill="#bb2d00ff" d="M 0 170 L 260 170 L 260 180.8537590810869 A 8 8 0 0 1 252 188.8537590810869 L 8 188.8537590810869 A 8 8 0 0 1 0 180.8537590810869 Z"/><text class="cost text-[10px] font-bold" fill="#ffffffff" x="3" text-anchor="start" y="184" font-family="Helvetica Neue, Helvetica, Arial, sans-serif">182 db hits</text><rect class="b-outline" width="260" rx="8" ry="8" fill="none" stroke-width="1" style="stroke: rgb(187, 190, 195);" height="188.8537590810869"/></g><g class="operator" transform="translate(0, -735.2578125)"><rect class="background" width="260" height="144.4040245712828" rx="8" ry="8" fill="rgb(255, 255, 255)"/><g class="header" pointer-events="all"><path class="banner" d="M 252 0 A 8 8 0 0 1 260 8 L 260 18 A 8 8 0 0 1 260 26 L 0 26 A 8 8 0 0 1 0 18 L 0 8 A 8 8 0 0 1 8 0 Z" style="fill: rgb(204, 180, 255);"/><path class="expand" fill="#000000" d="M -5 -10 L 8.66 0 L -5 10 Z" transform="translate(13, 13) rotate(90) scale(0.5,0.5)"/><text class="title text-[12px] font-bold" x="26" y="17" fill="#000000" font-family="Helvetica Neue, Helvetica, Arial, sans-serif">NodeByLabelScan@neo4j</text></g><g class="detail identifiers text-[10px] font-mono" transform="translate(0, 40)"><text font-size="10" x="3" text-anchor="start" fill="#1a1b1dff" font-family="Helvetica Neue, Helvetica, Arial, sans-serif">c</text></g><g class="detail padding text-[10px]" transform="translate(0, 54)"><text font-size="10" x="3" text-anchor="start" fill="#1a1b1dff" font-family="Helvetica Neue, Helvetica, Arial, sans-serif"/><path class="divider" visibility="visible" d="M 0 -6 L 260 -6" stroke="#DFE1E3"/></g><g class="detail expression text-[10px] font-mono" transform="translate(0, 60)"><text font-size="10" x="3" text-anchor="start" fill="#1a1b1dff" font-family="Helvetica Neue, Helvetica, Arial, sans-serif">c:Customer</text></g><g class="detail padding text-[10px]" transform="translate(0, 74)"><text font-size="10" x="3" text-anchor="start" fill="#1a1b1dff" font-family="Helvetica Neue, Helvetica, Arial, sans-serif"/><path class="divider" visibility="visible" d="M 0 -6 L 260 -6" stroke="#DFE1E3"/></g><g class="detail pagecache-hits text-[10px]" transform="translate(0, 80)"><text font-size="10" x="3" text-anchor="start" fill="#1a1b1dff" font-family="Helvetica Neue, Helvetica, Arial, sans-serif">1 pagecache hits</text></g><g class="detail pagecache-misses text-[10px]" transform="translate(0, 94)"><text font-size="10" x="3" text-anchor="start" fill="#1a1b1dff" font-family="Helvetica Neue, Helvetica, Arial, sans-serif">0 pagecache misses</text></g><g class="detail estimated-rows text-[10px]" transform="translate(0, 108)"><text font-size="10" x="3" text-anchor="start" fill="#1a1b1dff" font-family="Helvetica Neue, Helvetica, Arial, sans-serif">91 estimated rows</text></g><g class="detail db-hits text-[10px]" transform="translate(0, 122)"><text font-size="10" x="3" text-anchor="start" fill="#1a1b1dff" font-family="Helvetica Neue, Helvetica, Arial, sans-serif">92 db hits</text></g><path class="cost" fill="#bb2d00ff" d="M 0 128 L 260 128 L 260 136.4040245712828 A 8 8 0 0 1 252 144.4040245712828 L 8 144.4040245712828 A 8 8 0 0 1 0 136.4040245712828 Z"/><rect class="b-outline" width="260" rx="8" ry="8" fill="none" stroke-width="1" style="stroke: rgb(187, 190, 195);" height="144.4040245712828"/></g></g></g><g><rect fill="#ffffffff" width="408.725" height="38"/><text font-size="10" fill="#1a1b1dff" font-family="Helvetica Neue, Helvetica, Arial, sans-serif" x="12" y="12">Cypher version: 5, Planner: COST, Runtime: SLOTTED</text><text font-size="10" fill="#1a1b1dff" font-family="Helvetica Neue, Helvetica, Arial, sans-serif" x="12" y="30">Total database accesses: 274, Total allocated memory: 64 bytes, Total time: 14 ms</text><rect fill="none" stroke="#bbbec3ff" width="408.725" height="38" stroke-width="1"/></g></svg>