<svg xmlns="http://www.w3.org/2000/svg" height="1311.8050537109375" width="441.72500000000014" viewBox="-1.0717968940734863 -1259.8050537109375 441.72500000000014 1311.8050537109375"><g height="1209.8050537109375" width="262.1435852050781"><g class="layer links"><g class="link"><path fill="#e2e3e5ff" d="M 150.63787827345556 -1115.4009981015274 C 150.63787827345556 -1103.5394794701247 150.63787827345556 -1103.5394794701247 150.63787827345556 -1065.4009981015274 L 109.36212172654444 -1065.4009981015274 C 109.36212172654444 -1077.2625167329302 109.36212172654444 -1077.2625167329302 109.36212172654444 -1115.4009981015274 Z"/><text class="text-[12px] font-bold" fill="#1a1b1dff" x="130" y="-1089.4009981015274" text-anchor="middle" font-family="Helvetica Neue, Helvetica, Arial, sans-serif">91 rows</text></g><g class="link"><path fill="#e2e3e5ff" d="M 150.63787827345556 -921.0360995403145 C 150.63787827345556 -909.1745809089117 150.63787827345556 -909.1745809089117 150.63787827345556 -871.0360995403146 L 109.36212172654444 -871.0360995403146 C 109.36212172654444 -882.8976181717175 109.36212172654444 -882.8976181717175 109.36212172654444 -921.0360995403145 Z"/><text class="text-[12px] font-bold" fill="#1a1b1dff" x="130" y="-895.0360995403145" text-anchor="middle" font-family="Helvetica Neue, Helvetica, Arial, sans-serif">91 rows</text></g><g class="link"><path fill="#e2e3e5ff" d="M 160.1960102378411 -718.3300085315343 C 160.1960102378411 -711.7891644341507 160.1960102378411 -711.7891644341507 160.1960102378411 -682.3300085315343 L 99.80398976215889 -682.3300085315343 C 99.80398976215889 -688.8708526289179 99.80398976215889 -688.8708526289179 99.80398976215889 -718.3300085315343 Z"/><text class="text-[12px] font-bold" fill="#1a1b1dff" x="130" y="-692.3300085315343" text-anchor="middle" font-family="Helvetica Neue, Helvetica, Arial, sans-serif">830 rows</text></g><g class="link"><path fill="#e2e3e5ff" d="M 160.1960102378411 -530 C 160.1960102378411 -523.4591559026164 160.1960102378411 -523.4591559026164 160.1960102378411 -494 L 99.80398976215889 -494 C 99.80398976215889 -500.5408440973835 99.80398976215889 -500.5408440973835 99.80398976215889 -530 Z"/><text class="text-[12px] font-bold" fill="#1a1b1dff" x="130" y="-504" text-anchor="middle" font-family="Helvetica Neue, Helvetica, Arial, sans-serif">830 rows</text></g><g class="link"><path fill="#e2e3e5ff" d="M 150.54242509439325 -338 C 150.54242509439325 -326.0777139874707 150.54242509439325 -326.0777139874707 150.54242509439325 -288 L 109.45757490560675 -288 C 109.45757490560675 -299.9222860125293 109.45757490560675 -299.9222860125293 109.45757490560675 -338 Z"/><text class="text-[12px] font-bold" fill="#1a1b1dff" x="130" y="-312" text-anchor="middle" font-family="Helvetica Neue, Helvetica, Arial, sans-serif">89 rows</text></g><g class="link"><path fill="#e2e3e5ff" d="M 150.54242509439325 -132 C 150.54242509439325 -120.07771398747072 150.54242509439325 -120.07771398747072 150.54242509439325 -82 L 109.45757490560675 -82 C 109.45757490560675 -93.92228601252928 109.45757490560675 -93.92228601252928 109.45757490560675 -132 Z"/><text class="text-[12px] font-bold" fill="#1a1b1dff" x="130" y="-106" text-anchor="middle" font-family="Helvetica Neue, Helvetica, Arial, sans-serif">89 rows</text></g></g><g class="layer operators"><g class="operator" transform="translate(0, -82)"><rect class="background" width="260" height="32" rx="8" ry="8" fill="rgb(255, 255, 255)"/><g class="header" pointer-events="all"><path class="banner" d="M 252 0 A 8 8 0 0 1 260 8 L 260 18 A 8 8 0 0 1 259.7459666924148 26 L 0.25403330758516596 26 A 8 8 0 0 1 0 18 L 0 8 A 8 8 0 0 1 8 0 Z" style="fill: rgb(247, 243, 255);"/><text class="title text-[12px] font-bold" x="26" y="17" fill="#000000" font-family="Helvetica Neue, Helvetica, Arial, sans-serif">Result</text></g><path class="cost" fill="#bb2d00ff" d="M 252 32 A 8 8 0 0 1 252 32 L 8 32 A 8 8 0 0 1 8 32 Z"/><rect class="b-outline" width="260" rx="8" ry="8" fill="none" stroke-width="1" style="stroke: rgb(187, 190, 195);" height="32"/></g><g class="operator" transform="translate(0, -288)"><rect class="background" width="260" height="156" rx="8" ry="8" fill="rgb(255, 255, 255)"/><g class="header" pointer-events="all"><path class="banner" d="M 252 0 A 8 8 0 0 1 260 8 L 260 18 A 8 8 0 0 1 260 26 L 0 26 A 8 8 0 0 1 0 18 L 0 8 A 8 8 0 0 1 8 0 Z" style="fill: rgb(247, 243, 255);"/><path class="expand" fill="#000000" d="M -5 -10 L 8.66 0 L -5 10 Z" transform="translate(13, 13) rotate(90) scale(0.5,0.5)"/><text class="title text-[12px] font-bold" x="26" y="17" fill="#000000" font-family="Helvetica Neue, Helvetica, Arial, sans-serif">ProduceResults@neo4j</text></g><g class="detail identifiers text-[10px] font-mono" transform="translate(0, 40)"><text font-size="10" x="3" text-anchor="start" fill="#1a1b1dff" font-family="Helvetica Neue, Helvetica, Arial, sans-serif">`c.customerID`, `count(o)`</text></g><g class="detail padding text-[10px]" transform="translate(0, 54)"><text font-size="10" x="3" text-anchor="start" fill="#1a1b1dff" font-family="Helvetica Neue, Helvetica, Arial, sans-serif"/><path class="divider" visibility="visible" d="M 0 -6 L 260 -6" stroke="#DFE1E3"/></g><g class="detail expression text-[10px] font-mono" transform="translate(0, 60)"><text font-size="10" x="3" text-anchor="start" fill="#1a1b1dff" font-family="Helvetica Neue, Helvetica, Arial, sans-serif">`c.customerID`, `count(o)`</text></g><g class="detail padding text-[10px]" transform="translate(0, 74)"><text font-size="10" x="3" text-anchor="start" fill="#1a1b1dff" font-family="Helvetica Neue, Helvetica, Arial, sans-serif"/><path class="divider" visibility="visible" d="M 0 -6 L 260 -6" stroke="#DFE1E3"/></g><g class="detail global-memory text-[10px]" transform="translate(0, 80)"><text font-size="10" x="3" text-anchor="start" fill="#1a1b1dff" font-family="Helvetica Neue, Helvetica, Arial, sans-serif">12,128 total memory (bytes)</text></g><g class="detail operator-memory text-[10px]" transform="translate(0, 94)"><text font-size="10" x="3" text-anchor="start" fill="#1a1b1dff" font-family="Helvetica Neue, Helvetica, Arial, sans-serif">0 memory (bytes)</text></g><g class="detail pagecache-hits text-[10px]" transform="translate(0, 108)"><text font-size="10" x="3" text-anchor="start" fill="#1a1b1dff" font-family="Helvetica Neue, Helvetica, Arial, sans-serif">0 pagecache hits</text></g><g class="detail pagecache-misses text-[10px]" transform="translate(0, 122)"><text font-size="10" x="3" text-anchor="start" fill="#1a1b1dff" font-family="Helvetica Neue, Helvetica, Arial, sans-serif">0 pagecache misses</text></g><g class="detail estimated-rows text-[10px]" transform="translate(0, 136)"><text font-size="10" x="3" text-anchor="start" fill="#1a1b1dff" font-family="Helvetica Neue, Helvetica, Arial, sans-serif">29 estimated rows</text></g><g class="detail db-hits text-[10px]" transform="translate(0, 150)"><text font-size="10" x="3" text-anchor="start" fill="#1a1b1dff" font-family="Helvetica Neue, Helvetica, Arial, sans-serif">0 db hits</text></g><path class="cost" fill="#bb2d00ff" d="M 252 156 A 8 8 0 0 1 252 156 L 8 156 A 8 8 0 0 1 8 156 Z"/><rect class="b-outline" width="260" rx="8" ry="8" fill="none" stroke-width="1" style="stroke: rgb(187, 190, 195);" height="156"/></g><g class="operator" transform="translate(0, -494)"><rect class="background" width="260" height="156" rx="8" ry="8" fill="rgb(255, 255, 255)"/><g class="header" pointer-events="all"><path class="banner" d="M 252 0 A 8 8 0 0 1 260 8 L 260 18 A 8 8 0 0 1 260 26 L 0 26 A 8 8 0 0 1 0 18 L 0 8 A 8 8 0 0 1 8 0 Z" style="fill: rgb(23, 1, 70);"/><path class="expand" fill="#FFFFFF" d="M -5 -10 L 8.66 0 L -5 10 Z" transform="translate(13, 13) rotate(90) scale(0.5,0.5)"/><text class="title text-[12px] font-bold" x="26" y="17" fill="#FFFFFF" font-family="Helvetica Neue, Helvetica, Arial, sans-serif">EagerAggregation@neo4j</text></g><g class="detail identifiers text-[10px] font-mono" transform="translate(0, 40)"><text font-size="10" x="3" text-anchor="start" fill="#1a1b1dff" font-family="Helvetica Neue, Helvetica, Arial, sans-serif">`c.customerID`, `count(o)`</text></g><g class="detail padding text-[10px]" transform="translate(0, 54)"><text font-size="10" x="3" text-anchor="start" fill="#1a1b1dff" font-family="Helvetica Neue, Helvetica, Arial, sans-serif"/><path class="divider" visibility="visible" d="M 0 -6 L 260 -6" stroke="#DFE1E3"/></g><g class="detail expression text-[10px] font-mono" transform="translate(0, 60)"><text font-size="10" x="3" text-anchor="start" fill="#1a1b1dff" font-family="Helvetica Neue, Helvetica, Arial, sans-serif">cache[c.customerID] AS `c.customerID`, </text></g><g class="detail expression text-[10px] font-mono" transform="translate(0, 74)"><text font-size="10" x="3" text-anchor="start" fill="#1a1b1dff" font-family="Helvetica Neue, Helvetica, Arial, sans-serif">count(o) AS `count(o)`</text></g><g class="detail padding text-[10px]" transform="translate(0, 88)"><text font-size="10" x="3" text-anchor="start" fill="#1a1b1dff" font-family="Helvetica Neue, Helvetica, Arial, sans-serif"/><path class="divider" visibility="visible" d="M 0 -6 L 260 -6" stroke="#DFE1E3"/></g><g class="detail operator-memory text-[10px]" transform="translate(0, 94)"><text font-size="10" x="3" text-anchor="start" fill="#1a1b1dff" font-family="Helvetica Neue, Helvetica, Arial, sans-serif">12,064 memory (bytes)</text></g><g class="detail pagecache-hits text-[10px]" transform="translate(0, 108)"><text font-size="10" x="3" text-anchor="start" fill="#1a1b1dff" font-family="Helvetica Neue, Helvetica, Arial, sans-serif">0 pagecache hits</text></g><g class="detail pagecache-misses text-[10px]" transform="translate(0, 122)"><text font-size="10" x="3" text-anchor="start" fill="#1a1b1dff" font-family="Helvetica Neue, Helvetica, Arial, sans-serif">0 pagecache misses</text></g><g class="detail estimated-rows text-[10px]" transform="translate(0, 136)"><text font-size="10" x="3" text-anchor="start" fill="#1a1b1dff" font-family="Helvetica Neue, Helvetica, Arial, sans-serif">29 estimated rows</text></g><g class="detail db-hits text-[10px]" transform="translate(0, 150)"><text font-size="10" x="3" text-anchor="start" fill="#1a1b1dff" font-family="Helvetica Neue, Helvetica, Arial, sans-serif">0 db hits</text></g><path class="cost" fill="#bb2d00ff" d="M 252 156 A 8 8 0 0 1 252 156 L 8 156 A 8 8 0 0 1 8 156 Z"/><rect class="b-outline" width="260" rx="8" ry="8" fill="none" stroke-width="1" style="stroke: rgb(187, 190, 195);" height="156"/></g><g class="operator" transform="translate(0, -682.3300170898438)"><rect class="background" width="260" height="152.33000853153425" rx="8" ry="8" fill="rgb(255, 255, 255)"/><g class="header" pointer-events="all"><path class="banner" d="M 252 0 A 8 8 0 0 1 260 8 L 260 18 A 8 8 0 0 1 260 26 L 0 26 A 8 8 0 0 1 0 18 L 0 8 A 8 8 0 0 1 8 0 Z" style="fill: rgb(75, 40, 148);"/><path class="expand" fill="#FFFFFF" d="M -5 -10 L 8.66 0 L -5 10 Z" transform="translate(13, 13) rotate(90) scale(0.5,0.5)"/><text class="title text-[12px] font-bold" x="26" y="17" fill="#FFFFFF" font-family="Helvetica Neue, Helvetica, Arial, sans-serif">Filter@neo4j</text></g><g class="detail identifiers text-[10px] font-mono" transform="translate(0, 40)"><text font-size="10" x="3" text-anchor="start" fill="#1a1b1dff" font-family="Helvetica Neue, Helvetica, Arial, sans-serif">c, o</text></g><g class="detail padding text-[10px]" transform="translate(0, 54)"><text font-size="10" x="3" text-anchor="start" fill="#1a1b1dff" font-family="Helvetica Neue, Helvetica, Arial, sans-serif"/><path class="divider" visibility="visible" d="M 0 -6 L 260 -6" stroke="#DFE1E3"/></g><g class="detail expression text-[10px] font-mono" transform="translate(0, 60)"><text font-size="10" x="3" text-anchor="start" fill="#1a1b1dff" font-family="Helvetica Neue, Helvetica, Arial, sans-serif">o:Order</text></g><g class="detail padding text-[10px]" transform="translate(0, 74)"><text font-size="10" x="3" text-anchor="start" fill="#1a1b1dff" font-family="Helvetica Neue, Helvetica, Arial, sans-serif"/><path class="divider" visibility="visible" d="M 0 -6 L 260 -6" stroke="#DFE1E3"/></g><g class="detail pagecache-hits text-[10px]" transform="translate(0, 80)"><text font-size="10" x="3" text-anchor="start" fill="#1a1b1dff" font-family="Helvetica Neue, Helvetica, Arial, sans-serif">580 pagecache hits</text></g><g class="detail pagecache-misses text-[10px]" transform="translate(0, 94)"><text font-size="10" x="3" text-anchor="start" fill="#1a1b1dff" font-family="Helvetica Neue, Helvetica, Arial, sans-serif">0 pagecache misses</text></g><g class="detail estimated-rows text-[10px]" transform="translate(0, 108)"><text font-size="10" x="3" text-anchor="start" fill="#1a1b1dff" font-family="Helvetica Neue, Helvetica, Arial, sans-serif">833 estimated rows</text></g><path class="cost" fill="#bb2d00ff" d="M 0 127.99999999999999 L 260 127.99999999999999 L 260 144.33000853153425 A 8 8 0 0 1 252 152.33000853153425 L 8 152.33000853153425 A 8 8 0 0 1 0 144.33000853153425 Z"/><text class="cost text-[10px] font-bold" fill="#ffffffff" x="3" text-anchor="start" y="142" font-family="Helvetica Neue, Helvetica, Arial, sans-serif">830 db hits</text><rect class="b-outline" width="260" rx="8" ry="8" fill="none" stroke-width="1" style="stroke: rgb(187, 190, 195);" height="152.33000853153425"/></g><g class="operator" transform="translate(0, -871.0360717773438)"><rect class="background" width="260" height="152.70609100878025" rx="8" ry="8" fill="rgb(255, 255, 255)"/><g class="header" pointer-events="all"><path class="banner" d="M 252 0 A 8 8 0 0 1 260 8 L 260 18 A 8 8 0 0 1 260 26 L 0 26 A 8 8 0 0 1 0 18 L 0 8 A 8 8 0 0 1 8 0 Z" style="fill: rgb(44, 42, 52);"/><path class="expand" fill="#FFFFFF" d="M -5 -10 L 8.66 0 L -5 10 Z" transform="translate(13, 13) rotate(90) scale(0.5,0.5)"/><text class="title text-[12px] font-bold" x="26" y="17" fill="#FFFFFF" font-family="Helvetica Neue, Helvetica, Arial, sans-serif">Expand(All)@neo4j</text></g><g class="detail identifiers text-[10px] font-mono" transform="translate(0, 40)"><text font-size="10" x="3" text-anchor="start" fill="#1a1b1dff" font-family="Helvetica Neue, Helvetica, Arial, sans-serif">c, o</text></g><g class="detail padding text-[10px]" transform="translate(0, 54)"><text font-size="10" x="3" text-anchor="start" fill="#1a1b1dff" font-family="Helvetica Neue, Helvetica, Arial, sans-serif"/><path class="divider" visibility="visible" d="M 0 -6 L 260 -6" stroke="#DFE1E3"/></g><g class="detail expression text-[10px] font-mono" transform="translate(0, 60)"><text font-size="10" x="3" text-anchor="start" fill="#1a1b1dff" font-family="Helvetica Neue, Helvetica, Arial, sans-serif">(c)-[:PURCHASED]-(o)</text></g><g class="detail padding text-[10px]" transform="translate(0, 74)"><text font-size="10" x="3" text-anchor="start" fill="#1a1b1dff" font-family="Helvetica Neue, Helvetica, Arial, sans-serif"/><path class="divider" visibility="visible" d="M 0 -6 L 260 -6" stroke="#DFE1E3"/></g><g class="detail pagecache-hits text-[10px]" transform="translate(0, 80)"><text font-size="10" x="3" text-anchor="start" fill="#1a1b1dff" font-family="Helvetica Neue, Helvetica, Arial, sans-serif">3 pagecache hits</text></g><g class="detail pagecache-misses text-[10px]" transform="translate(0, 94)"><text font-size="10" x="3" text-anchor="start" fill="#1a1b1dff" font-family="Helvetica Neue, Helvetica, Arial, sans-serif">0 pagecache misses</text></g><g class="detail estimated-rows text-[10px]" transform="translate(0, 108)"><text font-size="10" x="3" text-anchor="start" fill="#1a1b1dff" font-family="Helvetica Neue, Helvetica, Arial, sans-serif">833 estimated rows</text></g><path class="cost" fill="#bb2d00ff" d="M 0 128 L 260 128 L 260 144.70609100878025 A 8 8 0 0 1 252 152.70609100878025 L 8 152.70609100878025 A 8 8 0 0 1 0 144.70609100878025 Z"/><text class="cost text-[10px] font-bold" fill="#ffffffff" x="3" text-anchor="start" y="142" font-family="Helvetica Neue, Helvetica, Arial, sans-serif">921 db hits</text><rect class="b-outline" width="260" rx="8" ry="8" fill="none" stroke-width="1" style="stroke: rgb(187, 190, 195);" height="152.70609100878025"/></g><g class="operator" transform="translate(0, -1065.4010009765625)"><rect class="background" width="260" height="144.36489856121295" rx="8" ry="8" fill="rgb(255, 255, 255)"/><g class="header" pointer-events="all"><path class="banner" d="M 252 0 A 8 8 0 0 1 260 8 L 260 18 A 8 8 0 0 1 260 26 L 0 26 A 8 8 0 0 1 0 18 L 0 8 A 8 8 0 0 1 8 0 Z" style="fill: rgb(117, 78, 200);"/><path class="expand" fill="#FFFFFF" d="M -5 -10 L 8.66 0 L -5 10 Z" transform="translate(13, 13) rotate(90) scale(0.5,0.5)"/><text class="title text-[12px] font-bold" x="26" y="17" fill="#FFFFFF" font-family="Helvetica Neue, Helvetica, Arial, sans-serif">CacheProperties@neo4j</text></g><g class="detail identifiers text-[10px] font-mono" transform="translate(0, 40)"><text font-size="10" x="3" text-anchor="start" fill="#1a1b1dff" font-family="Helvetica Neue, Helvetica, Arial, sans-serif">c</text></g><g class="detail padding text-[10px]" transform="translate(0, 54)"><text font-size="10" x="3" text-anchor="start" fill="#1a1b1dff" font-family="Helvetica Neue, Helvetica, Arial, sans-serif"/><path class="divider" visibility="visible" d="M 0 -6 L 260 -6" stroke="#DFE1E3"/></g><g class="detail expression text-[10px] font-mono" transform="translate(0, 60)"><text font-size="10" x="3" text-anchor="start" fill="#1a1b1dff" font-family="Helvetica Neue, Helvetica, Arial, sans-serif">cache[c.customerID]</text></g><g class="detail padding text-[10px]" transform="translate(0, 74)"><text font-size="10" x="3" text-anchor="start" fill="#1a1b1dff" font-family="Helvetica Neue, Helvetica, Arial, sans-serif"/><path class="divider" visibility="visible" d="M 0 -6 L 260 -6" stroke="#DFE1E3"/></g><g class="detail pagecache-hits text-[10px]" transform="translate(0, 80)"><text font-size="10" x="3" text-anchor="start" fill="#1a1b1dff" font-family="Helvetica Neue, Helvetica, Arial, sans-serif">119 pagecache hits</text></g><g class="detail pagecache-misses text-[10px]" transform="translate(0, 94)"><text font-size="10" x="3" text-anchor="start" fill="#1a1b1dff" font-family="Helvetica Neue, Helvetica, Arial, sans-serif">0 pagecache misses</text></g><g class="detail estimated-rows text-[10px]" transform="translate(0, 108)"><text font-size="10" x="3" text-anchor="start" fill="#1a1b1dff" font-family="Helvetica Neue, Helvetica, Arial, sans-serif">91 estimated rows</text></g><g class="detail db-hits text-[10px]" transform="translate(0, 122)"><text font-size="10" x="3" text-anchor="start" fill="#1a1b1dff" font-family="Helvetica Neue, Helvetica, Arial, sans-serif">91 db hits</text></g><path class="cost" fill="#bb2d00ff" d="M 0 128 L 260 128 L 260 136.36489856121295 A 8 8 0 0 1 252 144.36489856121295 L 8 144.36489856121295 A 8 8 0 0 1 0 136.36489856121295 Z"/><rect class="b-outline" width="260" rx="8" ry="8" fill="none" stroke-width="1" style="stroke: rgb(187, 190, 195);" height="144.36489856121295"/></g><g class="operator" transform="translate(0, -1259.8050537109375)"><rect class="background" width="260" height="144.4040245712828" rx="8" ry="8" fill="rgb(255, 255, 255)"/><g class="header" pointer-events="all"><path class="banner" d="M 252 0 A 8 8 0 0 1 260 8 L 260 18 A 8 8 0 0 1 260 26 L 0 26 A 8 8 0 0 1 0 18 L 0 8 A 8 8 0 0 1 8 0 Z" style="fill: rgb(204, 180, 255);"/><path class="expand" fill="#000000" d="M -5 -10 L 8.66 0 L -5 10 Z" transform="translate(13, 13) rotate(90) scale(0.5,0.5)"/><text class="title text-[12px] font-bold" x="26" y="17" fill="#000000" font-family="Helvetica Neue, Helvetica, Arial, sans-serif">NodeByLabelScan@neo4j</text></g><g class="detail identifiers text-[10px] font-mono" transform="translate(0, 40)"><text font-size="10" x="3" text-anchor="start" fill="#1a1b1dff" font-family="Helvetica Neue, Helvetica, Arial, sans-serif">c</text></g><g class="detail padding text-[10px]" transform="translate(0, 54)"><text font-size="10" x="3" text-anchor="start" fill="#1a1b1dff" font-family="Helvetica Neue, Helvetica, Arial, sans-serif"/><path class="divider" visibility="visible" d="M 0 -6 L 260 -6" stroke="#DFE1E3"/></g><g class="detail expression text-[10px] font-mono" transform="translate(0, 60)"><text font-size="10" x="3" text-anchor="start" fill="#1a1b1dff" font-family="Helvetica Neue, Helvetica, Arial, sans-serif">c:Customer</text></g><g class="detail padding text-[10px]" transform="translate(0, 74)"><text font-size="10" x="3" text-anchor="start" fill="#1a1b1dff" font-family="Helvetica Neue, Helvetica, Arial, sans-serif"/><path class="divider" visibility="visible" d="M 0 -6 L 260 -6" stroke="#DFE1E3"/></g><g class="detail pagecache-hits text-[10px]" transform="translate(0, 80)"><text font-size="10" x="3" text-anchor="start" fill="#1a1b1dff" font-family="Helvetica Neue, Helvetica, Arial, sans-serif">1 pagecache hits</text></g><g class="detail pagecache-misses text-[10px]" transform="translate(0, 94)"><text font-size="10" x="3" text-anchor="start" fill="#1a1b1dff" font-family="Helvetica Neue, Helvetica, Arial, sans-serif">0 pagecache misses</text></g><g class="detail estimated-rows text-[10px]" transform="translate(0, 108)"><text font-size="10" x="3" text-anchor="start" fill="#1a1b1dff" font-family="Helvetica Neue, Helvetica, Arial, sans-serif">91 estimated rows</text></g><g class="detail db-hits text-[10px]" transform="translate(0, 122)"><text font-size="10" x="3" text-anchor="start" fill="#1a1b1dff" font-family="Helvetica Neue, Helvetica, Arial, sans-serif">92 db hits</text></g><path class="cost" fill="#bb2d00ff" d="M 0 128 L 260 128 L 260 136.4040245712828 A 8 8 0 0 1 252 144.4040245712828 L 8 144.4040245712828 A 8 8 0 0 1 0 136.4040245712828 Z"/><rect class="b-outline" width="260" rx="8" ry="8" fill="none" stroke-width="1" style="stroke: rgb(187, 190, 195);" height="144.4040245712828"/></g></g></g><g><rect fill="#ffffffff" width="441.72500000000014" height="38"/><text font-size="10" fill="#1a1b1dff" font-family="Helvetica Neue, Helvetica, Arial, sans-serif" x="12" y="12">Cypher version: 5, Planner: COST, Runtime: SLOTTED</text><text font-size="10" fill="#1a1b1dff" font-family="Helvetica Neue, Helvetica, Arial, sans-serif" x="12" y="30">Total database accesses: 1,934, Total allocated memory: 12,128 bytes, Total time: 25 ms</text><rect fill="none" stroke="#bbbec3ff" width="441.72500000000014" height="38" stroke-width="1"/></g></svg>