<svg width="941" height="1700" viewBox="0 0 941 1700" fill="none" xmlns="http://www.w3.org/2000/svg">
<g opacity="0.5" clip-path="url(#clip0)">
<path fill-rule="evenodd" clip-rule="evenodd" d="M138.639 958.693L83.9804 1032.16L134.489 975.093L138.639 958.693ZM76.2634 1042.54L75.4178 1041.86L139.403 955.826L139.423 955.846L139.877 956.052L140.403 956.083L140.413 956.3L140.362 956.393L135.397 975.712L76.2634 1042.54Z" fill="#D7E5F1"/>
<path fill-rule="evenodd" clip-rule="evenodd" d="M747.52 384.378L695.545 558.594L793.55 449.41L747.52 384.378ZM694.729 561.142L693.801 560.626L747.108 381.882L794.963 449.482L694.729 561.142Z" fill="#D7E5F1"/>
<path fill-rule="evenodd" clip-rule="evenodd" d="M70.8655 1120.8L76.3159 1043.27L215.628 1155.66L148.619 1198.56L149.413 1199.35L217.506 1155.76L76.2028 1041.75L75.883 1042.14L75.3054 1042.14L69.8343 1119.77L70.8655 1120.8Z" fill="#D7E5F1"/>
<path fill-rule="evenodd" clip-rule="evenodd" d="M76.3985 1042.13L76.1304 1042.16L75.3465 1041.97L50.5916 1100.53L51.4269 1101.36L75.0674 1045.43L69.8342 1119.77L70.8654 1120.8L76.3985 1042.22L76.1304 1042.16L76.3985 1042.13Z" fill="#D7E5F1"/>
<path fill-rule="evenodd" clip-rule="evenodd" d="M151.199 1091.35L214.867 1153.28L136.038 979.01L151.199 1091.35ZM217.063 1155.48L216.176 1156.1L150.157 1091.88L150.137 1091.69L134.44 975.431L134.471 975.421L135.482 975.132L217.063 1155.48Z" fill="#D7E5F1"/>
<path fill-rule="evenodd" clip-rule="evenodd" d="M76.6485 1042.11L215.115 1153.82L134.843 976.348L76.6485 1042.11ZM217.064 1155.48L216.229 1156.13L75.0704 1042.25L75.4521 1041.82L135.143 974.357L217.064 1155.48Z" fill="#D7E5F1"/>
<path fill-rule="evenodd" clip-rule="evenodd" d="M346.213 893.613L369.824 882.5L332.218 886.055L346.213 893.613ZM373.125 882.169L346.182 894.84L328.516 885.303L372.847 881.127L373.125 882.169Z" fill="#D7E5F1"/>
<path fill-rule="evenodd" clip-rule="evenodd" d="M500.449 858.152L613.242 763.22L463.451 651.701L500.449 858.152ZM615.006 763.168L499.706 860.195L499.552 859.277L461.883 649.164L615.006 763.168Z" fill="#D7E5F1"/>
<path fill-rule="evenodd" clip-rule="evenodd" d="M516.716 639.58L614.131 762.311L691.815 666.704L516.716 639.58ZM614.12 764.074L613.697 763.548L514.107 638.065L515.5 638.281L693.868 665.909L614.12 764.074Z" fill="#D7E5F1"/>
<path fill-rule="evenodd" clip-rule="evenodd" d="M463.964 650.712L611.064 760.241L515.186 639.44L463.964 650.712ZM613.786 763.644L461.365 650.156L515.62 638.222L614.55 762.86L613.786 763.644Z" fill="#D7E5F1"/>
<path fill-rule="evenodd" clip-rule="evenodd" d="M659.175 637.182L691.236 664.23L662.853 605.104L659.175 637.182ZM693.33 666.076L692.484 666.736L658.019 637.657L662.183 601.195L693.33 666.076Z" fill="#D7E5F1"/>
<path fill-rule="evenodd" clip-rule="evenodd" d="M518.231 638.705L691.896 665.612L662.213 603.784L518.231 638.705ZM693.783 667.004L515.322 639.365L515.281 638.293L662.832 602.505L693.783 667.004Z" fill="#D7E5F1"/>
<path fill-rule="evenodd" clip-rule="evenodd" d="M716.408 521.623L694.803 561.027L673.98 605.712L716.408 521.623ZM659.081 637.668L658.091 637.194L693.823 560.542L730.895 492.926L731.854 493.431L659.081 637.668Z" fill="#D7E5F1"/>
<path fill-rule="evenodd" clip-rule="evenodd" d="M663.05 603.36L659.527 634.128L691.617 565.306L663.05 603.36ZM659.093 637.655L658.052 637.357L661.988 602.937L662.081 602.824L693.898 560.447L693.96 560.488L694.826 561.004L694.774 560.973L694.826 561.004L659.093 637.655Z" fill="#D7E5F1"/>
<path fill-rule="evenodd" clip-rule="evenodd" d="M732.848 492.829L764.553 497.093L792.441 451.365L732.848 492.829ZM765.099 498.279L729.908 493.541L793.947 448.992L794.72 449.725L765.099 498.279Z" fill="#D7E5F1"/>
<path fill-rule="evenodd" clip-rule="evenodd" d="M731.794 493.553L697.085 556.889L790.716 452.574L731.794 493.553ZM694.733 561.139L693.856 560.51L730.959 492.8L731.072 492.728L793.945 448.994L794.667 449.799L694.733 561.139Z" fill="#D7E5F1"/>
<path fill-rule="evenodd" clip-rule="evenodd" d="M165.975 1215.91L215.019 1158.37L186.62 1236.56L187.476 1237.41L217.083 1155.89L216.526 1155.67L216.144 1155.35L165.201 1215.14L165.975 1215.91Z" fill="#D7E5F1"/>
<path fill-rule="evenodd" clip-rule="evenodd" d="M148.619 1198.56L149.413 1199.35L215.494 1157.05L186.62 1236.56L187.475 1237.41L217.082 1155.89L216.546 1155.67L216.268 1155.24L148.619 1198.56Z" fill="#D7E5F1"/>
<path fill-rule="evenodd" clip-rule="evenodd" d="M159.055 1208.99L151.28 1092.34L317.784 1134.39L167.645 1217.58L168.45 1218.39L320.744 1134.01L150.084 1090.9L157.88 1207.82L159.055 1208.99Z" fill="#D7E5F1"/>
<path fill-rule="evenodd" clip-rule="evenodd" d="M159.055 1208.99L151.321 1093L215.814 1155.74L165.201 1215.14L165.974 1215.91L217.32 1155.68L150.032 1090.23L157.879 1207.82L159.055 1208.99Z" fill="#D7E5F1"/>
<path fill-rule="evenodd" clip-rule="evenodd" d="M319.372 1133.52L419.265 1077.54L261.056 1075.54L319.372 1133.52ZM423.37 1076.49L319.165 1134.89L258.932 1074.98L259.489 1074.43L259.726 1074.44L423.37 1076.49Z" fill="#D7E5F1"/>
<path fill-rule="evenodd" clip-rule="evenodd" d="M153.446 1091.74L317.454 1133.17L259.509 1075.56L153.446 1091.74ZM321.073 1135.23L150.547 1092.14L150.599 1091.06L261.284 1074.18L260.489 1074.97L321.073 1135.23Z" fill="#D7E5F1"/>
<path fill-rule="evenodd" clip-rule="evenodd" d="M350.856 904.087L417.042 1065.16L389.108 975.639L350.856 904.087ZM421.846 1076.84L420.815 1077.23L345.722 894.475L345.66 894.227L346.691 893.959L346.567 894.041L346.691 893.979L390.119 975.205L421.846 1076.84Z" fill="#D7E5F1"/>
<path fill-rule="evenodd" clip-rule="evenodd" d="M260.574 1074.43L420.494 1076.45L346.164 895.579L260.574 1074.43ZM422.144 1077.57L421.309 1077.56L258.851 1075.52L345.71 893.991L346.04 894.156L346.711 894.001L422.144 1077.57Z" fill="#D7E5F1"/>
<path fill-rule="evenodd" clip-rule="evenodd" d="M390.026 974.515L434.991 942.893L373.737 883.248L390.026 974.515ZM436.714 943.027L389.242 976.413L372.056 880.082L436.714 943.027Z" fill="#D7E5F1"/>
<path fill-rule="evenodd" clip-rule="evenodd" d="M346.967 894.467L388.477 972.145L372.477 882.467L346.967 894.467ZM390.178 975.373L389.157 975.734L345.441 893.972L373.312 880.868L373.436 881.569L390.178 975.373Z" fill="#D7E5F1"/>
<path fill-rule="evenodd" clip-rule="evenodd" d="M438.216 940.783L580.724 848.165L500.374 859.691L438.216 940.783ZM583.395 847.721L436.142 943.434L435.41 942.64L499.776 858.66L583.035 846.721L583.395 847.721Z" fill="#D7E5F1"/>
<path fill-rule="evenodd" clip-rule="evenodd" d="M374.054 882.023L435.783 942.143L498.787 859.958L374.054 882.023ZM435.906 943.793L371.744 881.322L499.984 858.638L500.066 859.112L500.52 859.504L435.906 943.793Z" fill="#D7E5F1"/>
<path fill-rule="evenodd" clip-rule="evenodd" d="M584.141 846.048L660.443 802.951L614.377 764.127L584.141 846.048ZM662.362 803.115L582.078 848.461L613.573 763.137L613.429 761.899L614.481 762.786L662.362 803.115Z" fill="#D7E5F1"/>
<path fill-rule="evenodd" clip-rule="evenodd" d="M501.893 858.359L582.706 846.76L612.901 764.943L501.893 858.359ZM583.511 847.75L498.262 859.989L614.552 762.116L614.645 763.385L583.511 847.75Z" fill="#D7E5F1"/>
<path fill-rule="evenodd" clip-rule="evenodd" d="M692.379 670.739L662.474 800.858L694.301 761.544L692.379 670.739ZM661.834 803.374L660.864 802.921L692.297 666.2L693.38 666.293L695.404 761.905L661.834 803.374Z" fill="#D7E5F1"/>
<path fill-rule="evenodd" clip-rule="evenodd" d="M614.893 763.115L661.073 802.032L691.772 668.478L614.893 763.115ZM661.732 804.033L613.356 763.27L692.412 665.962L693.361 666.436L661.732 804.033Z" fill="#D7E5F1"/>
<path fill-rule="evenodd" clip-rule="evenodd" d="M695.242 761.078L740.379 750.693L660.001 640.295L695.242 761.078ZM742.245 751.384L694.468 762.367L658.073 637.583L659.053 637.098L742.245 751.384Z" fill="#D7E5F1"/>
<path fill-rule="evenodd" clip-rule="evenodd" d="M659.636 639.03L694.217 757.585L692.296 666.573L659.636 639.03ZM695.402 761.721L694.33 761.886L657.553 635.833L693.379 666.047L695.402 761.721Z" fill="#D7E5F1"/>
<path fill-rule="evenodd" clip-rule="evenodd" d="M731.989 495.07L741.78 748.962L813.128 613.059L731.989 495.07ZM740.851 753.108L730.834 493.379L730.504 492.905L730.803 492.791L730.752 491.316L731.597 492.533L731.897 492.44L731.917 492.997L814.407 612.976L814.263 613.265L740.851 753.108Z" fill="#D7E5F1"/>
<path fill-rule="evenodd" clip-rule="evenodd" d="M659.235 637.369L740.685 749.252L730.904 495.309L659.235 637.369ZM741.922 752.82L657.946 637.483L658.1 637.184L730.987 492.73L731.895 492.441L731.926 493.153L741.922 752.82Z" fill="#D7E5F1"/>
<path fill-rule="evenodd" clip-rule="evenodd" d="M814.152 612.489L875.851 616.17L766.543 500.301L814.152 612.489ZM878.553 617.428L813.399 613.531L764.253 497.867L764.563 495.66L765.295 497.382L878.553 617.428Z" fill="#D7E5F1"/>
<path fill-rule="evenodd" clip-rule="evenodd" d="M732.526 493.894L811.139 608.201L764.437 498.178L732.526 493.894ZM814.274 612.8L813.325 613.316L730.216 492.471L764.355 497.064L764.561 495.662L765.324 497.456L814.274 612.8Z" fill="#D7E5F1"/>
<path fill-rule="evenodd" clip-rule="evenodd" d="M174.668 1224.6L175.988 1225.92L343.299 1252.23L279.45 1329.39L280.224 1330.16L345.373 1251.46L174.668 1224.6Z" fill="#D7E5F1"/>
<path fill-rule="evenodd" clip-rule="evenodd" d="M344.725 1251.04L422.171 1211.87L320.107 1135.51L344.725 1251.04ZM424.244 1212.04L343.951 1252.66L318.426 1132.88L424.244 1212.04Z" fill="#D7E5F1"/>
<path fill-rule="evenodd" clip-rule="evenodd" d="M167.645 1217.58L168.449 1218.39L318.887 1135.04L343.629 1251.18L174.668 1224.6L175.988 1225.92L345.042 1252.51L319.651 1133.37L167.645 1217.58Z" fill="#D7E5F1"/>
<path fill-rule="evenodd" clip-rule="evenodd" d="M421.945 1082.14L423.695 1208.08L438.516 1153.94L421.945 1082.14ZM423.735 1212.1L422.663 1211.98L420.77 1077.03L421.853 1076.89L439.651 1153.94L423.735 1212.1Z" fill="#D7E5F1"/>
<path fill-rule="evenodd" clip-rule="evenodd" d="M320.282 1134.26L422.646 1210.84L420.784 1077.94L320.282 1134.26ZM423.78 1213.06L318.261 1134.14L421.857 1076.08L423.78 1213.06Z" fill="#D7E5F1"/>
<path fill-rule="evenodd" clip-rule="evenodd" d="M390.931 978.106L438.518 1149.82L437.89 1040.04L390.931 978.106ZM439.642 1153.93L438.559 1154.09L389.136 975.734L388.91 975.425L389.91 974.424L390.137 975.229L438.983 1039.67L438.993 1039.85L439.642 1153.93Z" fill="#D7E5F1"/>
<path fill-rule="evenodd" clip-rule="evenodd" d="M399.31 1008.36L432.829 1129.33L420.782 1077.14L399.31 1008.36ZM439.621 1153.83L438.559 1154.09L389.013 975.322L389.91 974.424L390.168 975.321L389.724 975.559L390.189 975.425L421.844 1076.84L439.621 1153.83Z" fill="#D7E5F1"/>
<path fill-rule="evenodd" clip-rule="evenodd" d="M438.961 1039.06L536.973 999.265L436.431 943.908L438.961 1039.06ZM539.521 999.399L437.908 1040.66L435.307 943.093L434.719 941.721L436.122 942.484L539.521 999.399Z" fill="#D7E5F1"/>
<path fill-rule="evenodd" clip-rule="evenodd" d="M390.416 975.589L437.849 1038.17L435.33 943.999L390.416 975.589ZM439.035 1041.56L388.849 975.363L436.084 942.132L436.393 942.957L439.035 1041.56Z" fill="#D7E5F1"/>
<path fill-rule="evenodd" clip-rule="evenodd" d="M538.917 999.014L606.036 1026.75L582.904 849.904L538.917 999.014ZM607.376 1028.5L537.586 999.644L537.73 999.169L582.554 847.222L582.286 845.242L583.709 847.14L583.668 847.305L607.376 1028.5Z" fill="#D7E5F1"/>
<path fill-rule="evenodd" clip-rule="evenodd" d="M436.917 942.927L537.913 998.512L582.169 848.515L436.917 942.927ZM538.583 1000.13L434.771 943.01L583.231 846.524L583.706 847.143L583.633 847.421L538.583 1000.13Z" fill="#D7E5F1"/>
<path fill-rule="evenodd" clip-rule="evenodd" d="M661.781 803.757L608.168 1023.89L719.98 824.983L661.781 803.757ZM607.177 1027.89L606.166 1027.5L661.018 802.314L661.596 802.52L721.569 824.385L721.259 824.942L607.177 1027.89Z" fill="#D7E5F1"/>
<path fill-rule="evenodd" clip-rule="evenodd" d="M583.698 847.543L606.86 1024.64L660.567 804.126L583.698 847.543ZM607.231 1027.76L606.158 1027.72L582.512 846.955L662.176 801.96L661.939 803.146L607.231 1027.76Z" fill="#D7E5F1"/>
<path fill-rule="evenodd" clip-rule="evenodd" d="M693.785 810.321L719.702 823.508L695.321 764.299L693.785 810.321ZM721.858 825.849L692.661 810.992L694.3 761.71L695.362 761.514L721.858 825.849Z" fill="#D7E5F1"/>
<path fill-rule="evenodd" clip-rule="evenodd" d="M662.308 802.777L719.805 823.735L694.702 762.794L662.308 802.777ZM721.764 825.633L660.492 803.294L695.011 760.669L721.764 825.633Z" fill="#D7E5F1"/>
<path fill-rule="evenodd" clip-rule="evenodd" d="M695.561 808.627L845.319 719.67L741.625 751.509L695.561 808.627ZM849.817 718.287L693.498 811.124L692.787 810.309L741.14 750.364L741.336 750.457L849.373 717.287L849.817 718.287Z" fill="#D7E5F1"/>
<path fill-rule="evenodd" clip-rule="evenodd" d="M695.394 762.163L693.817 809.031L739.88 751.934L695.394 762.163ZM692.62 812.27L694.321 761.277L740.995 750.551L741.129 750.376L741.366 750.469L742.727 750.159L742.181 750.809L743.078 751.19L741.603 751.531L692.62 812.27Z" fill="#D7E5F1"/>
<path fill-rule="evenodd" clip-rule="evenodd" d="M816.83 623.671L847.355 754.346L848.971 717.896L816.83 623.671ZM848.283 758.369L847.189 758.472L813.232 613.141L813.387 613.11L814.15 612.615L814.263 612.729L814.305 612.873L850.085 717.73L850.085 717.833L848.283 758.369Z" fill="#D7E5F1"/>
<path fill-rule="evenodd" clip-rule="evenodd" d="M742.408 750.128L848.825 717.464L813.663 614.401L742.408 750.128ZM850.238 718.175L849.681 718.34L740.21 751.954L813.88 611.626L850.238 718.175Z" fill="#D7E5F1"/>
<path fill-rule="evenodd" clip-rule="evenodd" d="M877.651 617.277L848.651 756.637L1004.97 597.924L877.651 617.277ZM846.804 760.052L876.733 616.318L877.104 616.256L1008.07 596.335L846.804 760.052Z" fill="#D7E5F1"/>
<path fill-rule="evenodd" clip-rule="evenodd" d="M814.469 613.595L847.695 755.8L876.529 617.306L814.469 613.595ZM848.272 758.461L847.189 758.472L813.067 612.419L877.23 616.254L877.251 616.811L877.725 616.914L848.272 758.461Z" fill="#D7E5F1"/>
<path fill-rule="evenodd" clip-rule="evenodd" d="M345.085 1252.88L366.556 1376.44L416.122 1292.1L345.085 1252.88ZM365.989 1379.57L343.611 1250.81L417.638 1291.68L417.36 1292.17L365.989 1379.57Z" fill="#D7E5F1"/>
<path fill-rule="evenodd" clip-rule="evenodd" d="M344.114 1251.26L279.45 1329.39L280.224 1330.16L344.001 1253.1L365.626 1377.54L332.671 1382.61L333.63 1383.57L366.895 1378.46L344.877 1251.75L344.805 1251.37L344.114 1251.26Z" fill="#D7E5F1"/>
<path fill-rule="evenodd" clip-rule="evenodd" d="M394.321 1258.59L416.459 1290.32L422.476 1214.12L394.321 1258.59ZM417.304 1293.48L392.99 1258.62L422.745 1211.67L423.271 1211.96L423.756 1212L417.304 1293.48Z" fill="#D7E5F1"/>
<path fill-rule="evenodd" clip-rule="evenodd" d="M345.508 1251.86L416.4 1291L422.573 1212.89L345.508 1251.86ZM417.359 1292.78L343.167 1251.83L424.44 1210.71L423.749 1212.11L417.359 1292.78Z" fill="#D7E5F1"/>
<path fill-rule="evenodd" clip-rule="evenodd" d="M394.836 1257.25L468.251 1212.59L439.124 1155.23L394.836 1257.25ZM469.694 1213L392.463 1259.97L439.094 1152.56L439.588 1153.72L469.694 1213Z" fill="#D7E5F1"/>
<path fill-rule="evenodd" clip-rule="evenodd" d="M436.548 1161.19L396.965 1252.36L422.696 1211.73L436.548 1161.19ZM394.117 1258.9L393.158 1258.39L439.097 1152.56L439.664 1153.89L439.612 1154.09L423.676 1212.24L394.117 1258.9Z" fill="#D7E5F1"/>
<path fill-rule="evenodd" clip-rule="evenodd" d="M469.42 1212.1L579.127 1181.24L439.294 1041.49L469.42 1212.1ZM581.231 1181.77L468.543 1213.47L437.593 1038.24L581.231 1181.77Z" fill="#D7E5F1"/>
<path fill-rule="evenodd" clip-rule="evenodd" d="M439.64 1153.81L467.797 1209.24L439.031 1046.35L439.64 1153.81ZM469.519 1212.7L468.487 1213.05L438.546 1154.08L438.536 1153.97L437.898 1039.87L438.981 1039.76L438.826 1039.79L438.981 1039.78L469.519 1212.7Z" fill="#D7E5F1"/>
<path fill-rule="evenodd" clip-rule="evenodd" d="M542.02 1100.25L578.518 1176.75L538.975 1004.96L542.02 1100.25ZM580.714 1181.38L579.682 1181.75L540.927 1100.54L537.708 999.356L537.78 999.346L538.78 999.211L580.714 1181.38Z" fill="#D7E5F1"/>
<path fill-rule="evenodd" clip-rule="evenodd" d="M439.418 1040.06L579.21 1179.77L537.854 1000.08L439.418 1040.06ZM581.149 1183.26L437.469 1039.66L538.927 998.467L538.813 999.303L581.149 1183.26Z" fill="#D7E5F1"/>
<path fill-rule="evenodd" clip-rule="evenodd" d="M545.538 1096.67L692.845 986.692L607.033 1028.08L545.538 1096.67ZM698.044 984.174L541.803 1100.84L541.061 1100.03L606.363 1027.18L606.477 1027.13L697.487 983.246L698.044 984.174Z" fill="#D7E5F1"/>
<path fill-rule="evenodd" clip-rule="evenodd" d="M538.822 1000.16L541.979 1099.01L605.786 1027.84L538.822 1000.16ZM540.968 1101.77L537.677 998.5L607.633 1027.42L540.968 1101.77Z" fill="#D7E5F1"/>
<path fill-rule="evenodd" clip-rule="evenodd" d="M720.919 827.529L699.045 978.45L734.122 880.84L720.919 827.529ZM698.24 983.917L697.167 983.669L720.25 824.507L720.982 823.197L721.312 824.538L735.287 880.892L735.215 881.046L698.24 983.917Z" fill="#D7E5F1"/>
<path fill-rule="evenodd" clip-rule="evenodd" d="M608.033 1026.38L697.217 983.371L719.814 827.52L608.033 1026.38ZM698.218 984.104L697.96 984.238L605.371 1028.87L720.3 824.415L720.795 824.684L721.321 824.756L698.218 984.104Z" fill="#D7E5F1"/>
<path fill-rule="evenodd" clip-rule="evenodd" d="M734.981 880.229L840.19 854.629L694.418 811.565L734.981 880.229ZM844.419 854.732L734.444 881.487L692.046 809.729L844.419 854.732Z" fill="#D7E5F1"/>
<path fill-rule="evenodd" clip-rule="evenodd" d="M694.664 812L733.278 877.353L720.302 825.053L694.664 812ZM735.237 880.736L734.247 881.149L692.828 811.072L692.663 810.989L692.674 810.793L691.787 809.308L692.674 809.762L692.684 808.658L693.623 810.236L721.262 824.299L735.237 880.736Z" fill="#D7E5F1"/>
<path fill-rule="evenodd" clip-rule="evenodd" d="M850.014 719.101L842.954 852.712L898.8 769.084L850.014 719.101ZM841.643 856.642L849.045 716.522L900.213 768.95L841.643 856.642Z" fill="#D7E5F1"/>
<path fill-rule="evenodd" clip-rule="evenodd" d="M694.581 810.473L841.787 853.96L848.93 718.802L694.581 810.473ZM842.808 855.415L691.858 810.824L850.137 716.811L842.808 855.415Z" fill="#D7E5F1"/>
<path fill-rule="evenodd" clip-rule="evenodd" d="M849.354 758.122L899.097 768.375L908.666 727.292L849.354 758.122ZM899.911 769.664L846.104 758.566L910.275 725.229L899.911 769.664Z" fill="#D7E5F1"/>
<path fill-rule="evenodd" clip-rule="evenodd" d="M848.302 757.895L897.86 768.127L850.011 719.103L848.302 757.895ZM901.16 769.921L847.157 758.792L849.032 716.514L901.16 769.921Z" fill="#D7E5F1"/>
<path fill-rule="evenodd" clip-rule="evenodd" d="M913.9 721.274L983.936 654.435L1004.61 600.581L913.9 721.274ZM984.885 655.054L909.846 726.649L909.031 725.937L1006.05 596.868L1006.08 596.754L1006.24 596.662L1006.67 597.136L1007.04 597.321L1006.98 597.301L1007.03 597.332L984.885 655.054Z" fill="#D7E5F1"/>
<path fill-rule="evenodd" clip-rule="evenodd" d="M850.552 756.264L909.101 725.826L1001.24 603.245L850.552 756.264ZM909.833 726.682L909.709 726.744L847.983 758.832L847.344 757.966L1006.17 596.705L1006.23 596.664L1006.97 597.458L909.833 726.682Z" fill="#D7E5F1"/>
<path fill-rule="evenodd" clip-rule="evenodd" d="M366.226 1369.49L354.853 1404.79L355.719 1405.66L365.957 1373.93L365.719 1377.88L356.266 1406.2L357.132 1407.07L366.678 1378.44L366.781 1378.42L367.298 1369.7L366.226 1369.49Z" fill="#D7E5F1"/>
<path fill-rule="evenodd" clip-rule="evenodd" d="M367.482 1369.51L423.274 1409.17L416.427 1293.59L367.482 1369.51ZM424.511 1411.4L366.007 1369.81L417.222 1290.34L417.418 1291.82L424.511 1411.4Z" fill="#D7E5F1"/>
<path fill-rule="evenodd" clip-rule="evenodd" d="M367.29 1369.83L366.948 1375.76L402.936 1314.53L367.29 1369.83ZM366.731 1378.27L365.71 1377.97L366.207 1369.49L366.289 1369.37L417.215 1290.35L417.442 1292L417.359 1292.17L366.731 1378.27Z" fill="#D7E5F1"/>
<path fill-rule="evenodd" clip-rule="evenodd" d="M394.598 1260.56L423.966 1407.84L446.529 1321.09L394.598 1260.56ZM424.429 1410.43L423.357 1410.41L392.701 1256.66L394.073 1258.26L447.736 1320.82L447.664 1321.09L424.429 1410.43Z" fill="#D7E5F1"/>
<path fill-rule="evenodd" clip-rule="evenodd" d="M394.702 1261.08L422.884 1402.36L416.345 1292.09L394.702 1261.08ZM424.45 1410.26L423.357 1410.41L393.114 1258.72L394.104 1258.29L417.408 1291.7L417.418 1291.86L424.45 1410.26Z" fill="#D7E5F1"/>
<path fill-rule="evenodd" clip-rule="evenodd" d="M469.45 1213.28L448.183 1318.51L528.15 1204.91L469.45 1213.28ZM447.574 1321.27L446.594 1320.84L468.44 1212.69L468.966 1212.78L468.904 1212.24L530.512 1203.47L447.574 1321.27Z" fill="#D7E5F1"/>
<path fill-rule="evenodd" clip-rule="evenodd" d="M394.489 1258.73L446.811 1319.74L468.202 1213.89L394.489 1258.73ZM447.45 1322.17L392.828 1258.47L468.925 1212.24L469.667 1212.18L469.523 1212.9L447.45 1322.17Z" fill="#D7E5F1"/>
<path fill-rule="evenodd" clip-rule="evenodd" d="M531.203 1203.96L645.893 1223.45L580.127 1182.13L531.203 1203.96ZM648.44 1225.01L527.449 1204.43L580.221 1180.89L580.365 1180.97L582.345 1181.15L581.334 1181.59L648.822 1223.99L648.44 1225.01Z" fill="#D7E5F1"/>
<path fill-rule="evenodd" clip-rule="evenodd" d="M529.169 1203.66L573.101 1184.07L477.061 1211.08L529.169 1203.66ZM582.343 1181.16L529.406 1204.74L469.056 1213.33L468.84 1212.26L580.126 1180.94L582.343 1181.16Z" fill="#D7E5F1"/>
<path fill-rule="evenodd" clip-rule="evenodd" d="M542.743 1101.01L648.44 1223.52L714.978 1111.18L542.743 1101.01ZM648.605 1225.4L540.206 1099.77L716.845 1110.18L716.38 1110.95L648.605 1225.4Z" fill="#D7E5F1"/>
<path fill-rule="evenodd" clip-rule="evenodd" d="M580.611 1181.13L645.717 1222.04L543.743 1103.87L580.611 1181.13ZM648.233 1224.93L579.755 1181.89L540.979 1100.63L541.887 1100.03L648.935 1224.1L648.233 1224.93Z" fill="#D7E5F1"/>
<path fill-rule="evenodd" clip-rule="evenodd" d="M698.497 985.269L716.275 1109.34L764.237 1049.23L698.497 985.269ZM715.542 1112.02L697.208 984.021L695.826 982.66L697.063 982.99L696.96 982.226L698.002 983.247L698.208 983.309L698.239 983.484L765.723 1049.15L765.423 1049.53L715.542 1112.02Z" fill="#D7E5F1"/>
<path fill-rule="evenodd" clip-rule="evenodd" d="M543.001 1099.93L715.277 1110.09L697.313 984.719L543.001 1099.93ZM716.556 1111.27L715.885 1111.22L539.948 1100.86L697.612 983.141L698.211 983.306L698.272 983.657L716.556 1111.27Z" fill="#D7E5F1"/>
<path fill-rule="evenodd" clip-rule="evenodd" d="M735.659 883.036L765.332 1048.02L817.667 991.639L735.659 883.036ZM764.651 1050.37L734.164 880.963L735.144 880.54L819.111 991.721L764.651 1050.37Z" fill="#D7E5F1"/>
<path fill-rule="evenodd" clip-rule="evenodd" d="M698.352 983.598L764.144 1047.62L734.533 882.987L698.352 983.598ZM765.825 1050.78L697.083 983.898L697.197 983.557L734.884 878.758L765.825 1050.78Z" fill="#D7E5F1"/>
<path fill-rule="evenodd" clip-rule="evenodd" d="M819.079 990.928L934.109 958.272L842.642 855.89L819.079 990.928ZM936.11 958.849L817.696 992.434L817.841 991.588L841.776 854.426L842.312 853.889L842.704 854.322L936.11 958.849Z" fill="#D7E5F1"/>
<path fill-rule="evenodd" clip-rule="evenodd" d="M735.649 881.211L818.059 990.34L841.611 855.416L735.649 881.211ZM818.708 993.032L733.761 880.541L844.056 853.693L842.797 854.952L818.708 993.032Z" fill="#D7E5F1"/>
<path fill-rule="evenodd" clip-rule="evenodd" d="M872.778 858.464L934.046 955.818L899.385 771.325L872.778 858.464ZM935.655 958.458L934.644 958.85L871.582 858.629L871.654 858.392L898.973 768.87L898.993 768.87L900.045 768.932L935.655 958.458Z" fill="#D7E5F1"/>
<path fill-rule="evenodd" clip-rule="evenodd" d="M842.994 854.631L934.203 956.713L899.212 770.446L842.994 854.631ZM936.008 960.395L841.612 854.734L899.79 767.599L936.008 960.395Z" fill="#D7E5F1"/>
<path fill-rule="evenodd" clip-rule="evenodd" d="M872.945 857.885L1046.36 833.418L909.771 727.198L872.945 857.885ZM1049.08 834.139L871.418 859.206L871.666 858.401L909.07 725.651L909.689 725.733L909.802 725.826L1049.08 834.139Z" fill="#D7E5F1"/>
<path fill-rule="evenodd" clip-rule="evenodd" d="M903.535 749.315L886.494 809.769L898.972 768.871L903.535 749.315ZM872.705 858.702L871.663 858.403L909.067 725.653L910.13 725.807L910.006 726.385L900.034 769.149L872.705 858.702Z" fill="#D7E5F1"/>
<path fill-rule="evenodd" clip-rule="evenodd" d="M986.49 658.976L1047.62 831.829L1061.09 774.573L986.49 658.976ZM1047.83 835.728L983.789 654.603L984.511 653.881L1062.27 774.366L1047.83 835.728Z" fill="#D7E5F1"/>
<path fill-rule="evenodd" clip-rule="evenodd" d="M910.309 726.206L1046.58 832.21L984.182 655.715L910.309 726.206ZM1048.86 835.376L908.627 726.299L984.038 654.354L984.419 654.735L984.925 654.56L1048.86 835.376Z" fill="#D7E5F1"/>
<path fill-rule="evenodd" clip-rule="evenodd" d="M362.546 1412.48L366.586 1376.14L369.115 1419.05L370.28 1420.22L367.309 1369.63L366.205 1369.62L361.566 1411.5L362.546 1412.48Z" fill="#D7E5F1"/>
<path fill-rule="evenodd" clip-rule="evenodd" d="M401.371 1451.31L424.07 1411.1L506.025 1470.73L448.095 1498.03L448.92 1498.86L508.17 1470.94L423.74 1409.49L400.567 1450.5L401.371 1451.31Z" fill="#D7E5F1"/>
<path fill-rule="evenodd" clip-rule="evenodd" d="M424.225 1409.85L366.309 1368.67L361.566 1411.5L362.546 1412.48L367.185 1370.66L423.183 1410.46L400.567 1450.5L401.371 1451.31L424.38 1410.56L423.936 1410.22L424.225 1409.85Z" fill="#D7E5F1"/>
<path fill-rule="evenodd" clip-rule="evenodd" d="M507.336 1469.94L595.319 1398.12L448.181 1322.12L507.336 1469.94ZM597.32 1397.91L506.861 1471.73L506.583 1471.04L446.614 1321.18L445.645 1319.53L447.387 1320.48L597.32 1397.91Z" fill="#D7E5F1"/>
<path fill-rule="evenodd" clip-rule="evenodd" d="M424.525 1410.07L505.882 1469.26L447.243 1322.71L424.525 1410.07ZM508.326 1472.41L423.277 1410.51L423.369 1410.15L446.924 1319.57L447.594 1320.67L508.326 1472.41Z" fill="#D7E5F1"/>
<path fill-rule="evenodd" clip-rule="evenodd" d="M596.659 1397.34L628.768 1387.77L532.014 1210.28L596.659 1397.34ZM630.388 1388.44L595.978 1398.7L595.802 1398.19L528.839 1204.45L528.571 1203.97L529.633 1203.42L529.839 1204L630.388 1388.44Z" fill="#D7E5F1"/>
<path fill-rule="evenodd" clip-rule="evenodd" d="M447.932 1320.76L595.348 1396.9L529.158 1205.39L447.932 1320.76ZM597.287 1399.14L446.313 1321.17L446.674 1320.64L528.952 1203.76L529.632 1203.43L529.849 1204.01L597.287 1399.14Z" fill="#D7E5F1"/>
<path fill-rule="evenodd" clip-rule="evenodd" d="M630.295 1386.76L738.695 1291.33L648.964 1225.47L630.295 1386.76ZM740.448 1291.27L739.943 1291.71L628.871 1389.46L648.087 1223.46L740.448 1291.27Z" fill="#D7E5F1"/>
<path fill-rule="evenodd" clip-rule="evenodd" d="M530.347 1204.92L629.236 1386.31L647.925 1224.9L530.347 1204.92ZM629.926 1389.89L528.316 1203.46L648.616 1223.92L649.039 1224.06L649.091 1224.52L629.926 1389.89Z" fill="#D7E5F1"/>
<path fill-rule="evenodd" clip-rule="evenodd" d="M716.67 1112.23L739.596 1287.24L758.486 1154.52L716.67 1112.23ZM740.121 1291.37L739.028 1291.37L715.165 1109.14L716.309 1110.28L759.662 1154.13L759.61 1154.41L740.121 1291.37Z" fill="#D7E5F1"/>
<path fill-rule="evenodd" clip-rule="evenodd" d="M649.255 1224.32L738.862 1290.09L715.586 1112.32L649.255 1224.32ZM740.275 1292.5L647.801 1224.62L648.048 1224.18L716.257 1109.03L740.275 1292.5Z" fill="#D7E5F1"/>
<path fill-rule="evenodd" clip-rule="evenodd" d="M759.669 1153.32L772.645 1145.37L765.102 1056.97L759.669 1153.32ZM773.79 1145.94L758.461 1155.35L764.433 1049.16L765.537 1049.19L773.79 1145.94Z" fill="#D7E5F1"/>
<path fill-rule="evenodd" clip-rule="evenodd" d="M716.636 1110.63L758.586 1153.06L764.34 1050.86L716.636 1110.63ZM759.534 1155.6L715.182 1110.73L715.491 1110.33L765.63 1047.51L759.534 1155.6Z" fill="#D7E5F1"/>
<path fill-rule="evenodd" clip-rule="evenodd" d="M774.142 1144.41L860.802 1089.1L818.491 993.269L774.142 1144.41ZM862.194 1089.5L772.264 1146.91L772.687 1145.51L818.11 990.639L818.883 991.454L862.194 1089.5Z" fill="#D7E5F1"/>
<path fill-rule="evenodd" clip-rule="evenodd" d="M765.549 1049.39L773.515 1142.69L817.203 993.753L765.549 1049.39ZM773.731 1145.81L772.668 1145.7L764.425 1049.01L764.59 1048.82L817.894 991.411L818.111 990.637L819.142 991.669L818.884 991.968L773.731 1145.81Z" fill="#D7E5F1"/>
<path fill-rule="evenodd" clip-rule="evenodd" d="M935.388 959.179L864.134 1085.73L976.034 967.825L935.388 959.179ZM861.895 1089.68L861.008 1089.04L934.821 957.931L935.223 958.024L978.169 967.154L861.895 1089.68Z" fill="#D7E5F1"/>
<path fill-rule="evenodd" clip-rule="evenodd" d="M819.143 992.04L861.557 1088.08L933.977 959.435L819.143 992.04ZM861.433 1090.51L817.627 991.328L818.236 991.153L936.246 957.661L861.433 1090.51Z" fill="#D7E5F1"/>
<path fill-rule="evenodd" clip-rule="evenodd" d="M873.924 859.546L976.849 966.432L1000.42 891.382L873.924 859.546ZM977.334 968.526L871.799 858.927L872.15 858.577L872.326 858.009L1001.82 890.598L977.334 968.526Z" fill="#D7E5F1"/>
<path fill-rule="evenodd" clip-rule="evenodd" d="M935.45 958.065L975.457 966.567L875.501 862.774L935.45 958.065ZM978.747 968.392L934.758 959.045L934.645 958.849L870.892 857.525L872.48 858.061L872.583 858.164L978.747 968.392Z" fill="#D7E5F1"/>
<path fill-rule="evenodd" clip-rule="evenodd" d="M875.03 858.688L1000.93 890.359L1046.41 834.52L875.03 858.688ZM1001.33 891.607L1000.99 891.514L872.049 859.07L872.111 857.998L1049.26 833.014L1048.11 834.169L1001.33 891.607Z" fill="#D7E5F1"/>
<path fill-rule="evenodd" clip-rule="evenodd" d="M506.717 1470.45L506.634 1470.53L481.787 1527.29L480.538 1530.47L481.806 1531.74L507.552 1471.18L507.603 1471.05L506.717 1470.45Z" fill="#D7E5F1"/>
<path fill-rule="evenodd" clip-rule="evenodd" d="M448.096 1498.03L448.921 1498.86L506.025 1471.95L480.971 1530.91L481.806 1531.74L507.603 1471.05L507.273 1470.91L506.871 1470.34L448.096 1498.03Z" fill="#D7E5F1"/>
<path fill-rule="evenodd" clip-rule="evenodd" d="M490.514 1518.97L593.52 1421.84L595.618 1399.66L490.514 1518.97ZM594.571 1422.34L594.417 1422.49L482.663 1527.87L481.89 1527.12L595.907 1397.66L596.278 1397.99L596.866 1398.06L594.571 1422.34Z" fill="#D7E5F1"/>
<path fill-rule="evenodd" clip-rule="evenodd" d="M507.539 1471.17L484.199 1524.48L591.52 1402.64L507.539 1471.17ZM482.692 1527.85L481.785 1527.27L506.653 1470.49L506.756 1470.41L597.163 1396.63L596.822 1398.27L596.73 1398.38L482.692 1527.85Z" fill="#D7E5F1"/>
<path fill-rule="evenodd" clip-rule="evenodd" d="M597.801 1419.25L643.271 1392.59L629.74 1388.72L597.801 1419.25ZM646.035 1392.24L594.325 1422.57L593.665 1421.7L629.214 1387.72L629.575 1388.1L629.73 1387.57L646.035 1392.24Z" fill="#D7E5F1"/>
<path fill-rule="evenodd" clip-rule="evenodd" d="M594.724 1420.68L627.571 1389.28L596.833 1398.44L594.724 1420.68ZM630.624 1387.87L629.953 1388.5L593.362 1423.51L595.801 1397.6L629.593 1387.54L630.624 1387.87Z" fill="#D7E5F1"/>
<path fill-rule="evenodd" clip-rule="evenodd" d="M739.125 1264.13L650.359 1385.55L739.017 1291.07L739.125 1264.13ZM645.046 1392.78L644.2 1392.1L740.23 1260.76L740.121 1291.29L739.595 1291.3L739.976 1291.68L645.046 1392.78Z" fill="#D7E5F1"/>
<path fill-rule="evenodd" clip-rule="evenodd" d="M630.699 1387.86L644.478 1391.8L731.331 1299.27L630.699 1387.86ZM644.808 1393.04L628.471 1388.36L739.202 1290.89L739.976 1291.68L644.808 1393.04Z" fill="#D7E5F1"/>
<path fill-rule="evenodd" clip-rule="evenodd" d="M740.339 1261.83L764.196 1259.09L758.77 1159.06L740.339 1261.83ZM765.351 1260.06L738.998 1263.08L758.523 1154.23L759.616 1154.3L765.351 1260.06Z" fill="#D7E5F1"/>
<path fill-rule="evenodd" clip-rule="evenodd" d="M754.25 1184.29L740.208 1262.53L740.152 1283.36L754.25 1184.29ZM740.12 1291.37L739.027 1291.29L739.135 1262.45L758.526 1154.23L759.609 1154.41L740.12 1291.37Z" fill="#D7E5F1"/>
<path fill-rule="evenodd" clip-rule="evenodd" d="M765.385 1258.64L850.671 1214.83L773.689 1146.8L765.385 1258.64ZM852.61 1215.08L851.878 1215.44L764.157 1260.51L772.761 1144.51L852.61 1215.08Z" fill="#D7E5F1"/>
<path fill-rule="evenodd" clip-rule="evenodd" d="M759.628 1154.61L764.859 1251L772.584 1146.67L759.628 1154.61ZM765.312 1259.6L764.229 1259.61L758.504 1154.03L773.09 1145.09L773.801 1145.19L773.76 1145.7L765.312 1259.6Z" fill="#D7E5F1"/>
<path fill-rule="evenodd" clip-rule="evenodd" d="M861.976 1090.01L852.329 1213.09L929.365 1109.06L861.976 1090.01ZM850.936 1216.81L861.037 1088.06L861.78 1088.8L931.18 1108.44L850.936 1216.81Z" fill="#D7E5F1"/>
<path fill-rule="evenodd" clip-rule="evenodd" d="M774.12 1145.73L851.175 1213.81L860.853 1090.35L774.12 1145.73ZM852.092 1216.09L772.305 1145.59L860.966 1089L861.039 1088.08L861.575 1088.6L862.111 1088.24L862.059 1089.08L862.369 1089.39L862.018 1089.62L852.092 1216.09Z" fill="#D7E5F1"/>
<path fill-rule="evenodd" clip-rule="evenodd" d="M976.232 971.876L931.598 1106.52L969.345 1065.74L976.232 971.876ZM930.679 1109.1L929.751 1108.57L976.563 967.4L976.636 966.42L977.739 967.276L977.646 967.595L970.407 1066.2L970.283 1066.34L930.679 1109.1Z" fill="#D7E5F1"/>
<path fill-rule="evenodd" clip-rule="evenodd" d="M862.516 1089.02L929.915 1108.07L975.819 969.628L862.516 1089.02ZM930.637 1109.41L860.484 1089.58L861.103 1088.92L977.047 966.75L977.738 967.276L977.625 967.657L930.637 1109.41Z" fill="#D7E5F1"/>
<path fill-rule="evenodd" clip-rule="evenodd" d="M1000.9 895.292L970.785 1064.01L1010.37 1015.95L1000.9 895.292ZM968.959 1067.94L969.331 1065.87L1000.6 890.899L1001.66 890.909L1001.48 890.94L1001.67 890.94L1011.49 1016.31L968.959 1067.94Z" fill="#D7E5F1"/>
<path fill-rule="evenodd" clip-rule="evenodd" d="M999.08 899.323L977.624 967.638L971.192 1055.45L999.08 899.323ZM970.416 1066.07L969.323 1065.92L976.551 967.452L1000.61 890.824L1001.66 890.906L1001.66 891.071L970.416 1066.07Z" fill="#D7E5F1"/>
<path fill-rule="evenodd" clip-rule="evenodd" d="M714.021 1410.88L841.807 1337.66L740.062 1263.4L714.021 1410.88ZM843.818 1337.78L843.076 1338.19L712.536 1412.98L712.742 1411.85L739.289 1261.49L740 1262L843.818 1337.78Z" fill="#D7E5F1"/>
<path fill-rule="evenodd" clip-rule="evenodd" d="M645.57 1392.11L712.835 1411.24L738.71 1264.67L645.57 1392.11ZM713.711 1412.63L643.744 1392.74L644.198 1392.1L739.226 1262.13L740.206 1262.56L713.711 1412.63Z" fill="#D7E5F1"/>
<path fill-rule="evenodd" clip-rule="evenodd" d="M843.023 1337.15L958.678 1323.38L766.774 1260.8L843.023 1337.15ZM961.277 1324.16L842.61 1338.31L842.414 1338.11L764.382 1259.95L764.949 1259.06L961.391 1323.1L961.277 1324.16Z" fill="#D7E5F1"/>
<path fill-rule="evenodd" clip-rule="evenodd" d="M741.146 1262.83L837.436 1333.11L764.58 1260.15L741.146 1262.83ZM842.489 1338.16L738.207 1262.06L764.983 1259L765.158 1259.18L843.201 1337.32L842.489 1338.16Z" fill="#D7E5F1"/>
<path fill-rule="evenodd" clip-rule="evenodd" d="M883.594 1306.15L959.493 1322.69L852.916 1217L883.594 1306.15ZM962.958 1324.57L882.738 1307.09L851.112 1215.13L852.019 1214.55L962.958 1324.57Z" fill="#D7E5F1"/>
<path fill-rule="evenodd" clip-rule="evenodd" d="M766.199 1259.46L959.196 1322.39L851.526 1215.63L766.199 1259.46ZM961.063 1324.15L763.353 1259.68L851.393 1214.46L851.578 1214.83L852.022 1214.55L961.61 1323.23L961.063 1324.15Z" fill="#D7E5F1"/>
<path fill-rule="evenodd" clip-rule="evenodd" d="M884.048 1305.32L1014.52 1211.83L930.541 1109.94L884.048 1305.32ZM1016.11 1212.04L1015.62 1212.38L882.294 1307.92L882.635 1306.49L929.994 1107.54L1016.11 1212.04Z" fill="#D7E5F1"/>
<path fill-rule="evenodd" clip-rule="evenodd" d="M852.248 1215.05L883.07 1304.65L929.129 1111.21L852.248 1215.05ZM883.265 1308.58L851.02 1214.87L851.196 1214.64L930.006 1108.19L930.965 1108.2L930.811 1108.87L883.265 1308.58Z" fill="#D7E5F1"/>
<path fill-rule="evenodd" clip-rule="evenodd" d="M973.21 1074.82L1015.3 1210.02L1022.41 1185.59L973.21 1074.82ZM1015.34 1213.84L969.323 1065.96L970.375 1065.74L1023.58 1185.51L1015.34 1213.84Z" fill="#D7E5F1"/>
<path fill-rule="evenodd" clip-rule="evenodd" d="M930.995 1108.77L1013.96 1209.42L969.629 1067.04L930.995 1108.77ZM1015.84 1211.77L1014.89 1212.29L929.551 1108.73L970.424 1064.57L970.413 1065.88L1015.84 1211.77Z" fill="#D7E5F1"/>
<path fill-rule="evenodd" clip-rule="evenodd" d="M970.509 1066.06L1022.23 1182.44L1010.49 1017.54L970.509 1066.06ZM1023.55 1185.49L1022.5 1185.76L969.241 1065.88L1010.36 1015.95L1010.33 1015.34L1010.75 1015.48L1011.38 1014.73L1011.46 1015.71L1011.87 1015.85L1011.5 1016.3L1023.55 1185.49Z" fill="#D7E5F1"/>
<path fill-rule="evenodd" clip-rule="evenodd" d="M893.348 1344.92L892.39 1450.04L960.116 1324.52L893.348 1344.92ZM892.297 1452.5L891.275 1452.24L892.255 1344.12L961.478 1322.97L961.859 1323.6L961.704 1323.88L892.297 1452.5Z" fill="#D7E5F1"/>
<path fill-rule="evenodd" clip-rule="evenodd" d="M843.614 1338.17L891.883 1450.98L960.249 1324.28L843.614 1338.17ZM891.759 1453.51L842.025 1337.26L961.518 1323.04L961.858 1323.6L961.703 1323.88L891.759 1453.51Z" fill="#D7E5F1"/>
<path fill-rule="evenodd" clip-rule="evenodd" d="M893.191 1343.84L959.05 1323.71L883.925 1307.34L893.191 1343.84ZM963.393 1323.53L892.407 1345.23L882.409 1305.89L963.393 1323.53Z" fill="#D7E5F1"/>
<path fill-rule="evenodd" clip-rule="evenodd" d="M707.918 367.964L713.431 502.903L768.688 372.223L707.918 367.964ZM713.482 505.575L712.43 505.389L706.763 366.789L707.392 366.819L770.287 371.242L713.482 505.575Z" fill="#D7E5F1"/>
<path fill-rule="evenodd" clip-rule="evenodd" d="M832.274 288.24L777.625 361.719L828.124 304.64L832.274 288.24ZM769.898 372.086L769.052 371.405L833.048 285.383L833.068 285.383L833.594 285.641L834.038 285.692L833.986 285.95L829.021 305.269L769.898 372.086Z" fill="#D7E5F1"/>
<path fill-rule="evenodd" clip-rule="evenodd" d="M709.015 366.929L769.238 371.157L831.253 287.796L709.015 366.929ZM769.744 372.302L705.673 367.796L834.038 284.681L834.038 285.877L833.924 286.032L769.744 372.302Z" fill="#D7E5F1"/>
<path fill-rule="evenodd" clip-rule="evenodd" d="M832.498 300.865L923.091 223.264L891.86 225.498L832.498 300.865ZM926.33 221.944L828.969 305.321L828.196 304.569L891.695 223.951L891.911 224.395L926.33 221.944Z" fill="#D7E5F1"/>
<path fill-rule="evenodd" clip-rule="evenodd" d="M833.974 285.983L829.773 302.558L884.09 233.598L833.974 285.983ZM829.04 305.25L828.091 304.776L832.984 285.426L833.087 285.323L891.157 224.633L891.693 223.953L892.25 225.066L891.982 225.355L829.04 305.25Z" fill="#D7E5F1"/>
<path fill-rule="evenodd" clip-rule="evenodd" d="M729.146 570.201L753.124 583.595L714.553 509.598L729.146 570.201ZM755.805 586.338L728.187 570.934L712.45 505.493L713.471 505.111L755.805 586.338Z" fill="#D7E5F1"/>
<path fill-rule="evenodd" clip-rule="evenodd" d="M755.096 583.912L909.25 485.217L769.968 372.819L755.096 583.912ZM911.127 485.32L753.837 586.016L768.937 371.685L769.525 371.675L769.835 371.303L911.127 485.32Z" fill="#D7E5F1"/>
<path fill-rule="evenodd" clip-rule="evenodd" d="M713.575 505.337L754.043 582.985L768.708 374.987L713.575 505.337ZM754.867 586.945L712.378 505.4L712.481 505.152L768.977 371.521L769.74 371.707L770.029 371.665L769.74 371.707L770.029 371.768L754.867 586.945Z" fill="#D7E5F1"/>
<path fill-rule="evenodd" clip-rule="evenodd" d="M844.829 420.901L908.497 482.836L829.668 308.562L844.829 420.901ZM910.703 485.022L909.806 485.651L843.787 421.427L843.766 421.242L828.08 305.076L827.956 304.787L829.009 303.735L829.143 304.756L910.703 485.022Z" fill="#D7E5F1"/>
<path fill-rule="evenodd" clip-rule="evenodd" d="M770.278 371.664L908.735 483.381L828.463 305.91L770.278 371.664ZM910.705 485.02L909.848 485.691L768.69 371.808L769.082 371.375L828.762 303.919L829.123 304.672L910.705 485.02Z" fill="#D7E5F1"/>
<path fill-rule="evenodd" clip-rule="evenodd" d="M845.178 420.468L952.707 404.079L924.48 224.639L845.178 420.468ZM953.965 404.987L843.435 421.861L924.398 221.875L925.203 222.225L925.244 222.514L953.965 404.987Z" fill="#D7E5F1"/>
<path fill-rule="evenodd" clip-rule="evenodd" d="M829.203 305.129L844.58 419.046L923.356 224.485L829.203 305.129ZM844.033 423.285L828.027 304.696L828.254 304.489L924.233 222.288L924.408 221.885L925.728 222.442L925.151 222.937L844.033 423.285Z" fill="#D7E5F1"/>
<path fill-rule="evenodd" clip-rule="evenodd" d="M755.962 585.211L850.904 641.178L803.183 575.156L755.962 585.211ZM852.605 643.478L752.961 584.727L803.657 573.939L803.874 574.217L853.348 642.673L852.605 643.478Z" fill="#D7E5F1"/>
<path fill-rule="evenodd" clip-rule="evenodd" d="M853.594 552.526L853.454 639.866L908.664 487.887L853.594 552.526ZM853.412 643.187L852.349 643.012L852.511 552.124L852.635 551.959L909.778 484.916L910.717 485.442L853.412 643.187Z" fill="#D7E5F1"/>
<path fill-rule="evenodd" clip-rule="evenodd" d="M755.506 584.945L852.614 642.191L909.124 486.601L755.506 584.945ZM853.18 643.81L753.423 584.987L754.166 584.513L909.898 484.796L910.155 485.219L910.712 485.446L853.18 643.81Z" fill="#D7E5F1"/>
<path fill-rule="evenodd" clip-rule="evenodd" d="M853.541 551.424L1011.42 463.94L844.923 421.88L853.541 551.424ZM1014.38 463.558L852.551 553.219L843.706 420.457L844.459 420.632L1014.38 463.558Z" fill="#D7E5F1"/>
<path fill-rule="evenodd" clip-rule="evenodd" d="M844.953 422.57L853.51 550.939L909.436 485.299L844.953 422.57ZM852.602 553.703L843.675 419.765L910.952 485.227L852.602 553.703Z" fill="#D7E5F1"/>
<path fill-rule="evenodd" clip-rule="evenodd" d="M847.066 421.304L1011.08 462.725L953.15 405.121L847.066 421.304ZM1014.7 464.777L844.167 421.707L844.24 420.624L954.914 403.728L954.109 404.533L1014.7 464.777Z" fill="#D7E5F1"/>
<path fill-rule="evenodd" clip-rule="evenodd" d="M954.214 403.995L1114.12 406.007L1039.79 225.111L954.214 403.995ZM1115.76 407.131L1114.93 407.121L952.481 405.068L952.863 404.295L1039.34 223.543L1039.73 221.893L1040.34 223.553L1115.76 407.131Z" fill="#D7E5F1"/>
<path fill-rule="evenodd" clip-rule="evenodd" d="M865.806 752.971L914.298 729.6L853.687 645.036L865.806 752.971ZM915.958 730.023L864.888 754.632L852.12 640.972L915.958 730.023Z" fill="#D7E5F1"/>
<path fill-rule="evenodd" clip-rule="evenodd" d="M853.882 553.001L915.342 728.701L1036.93 581.804L853.882 553.001ZM914.939 730.898L852.418 552.176L852.862 551.732L853.14 551.784L1039.01 581.01L914.939 730.898Z" fill="#D7E5F1"/>
<path fill-rule="evenodd" clip-rule="evenodd" d="M853.451 642.818L913.361 726.372L853.602 555.55L853.451 642.818ZM915.66 729.62L914.691 730.116L852.348 643.179L852.348 643.014L852.509 552.415L852.417 552.177L853.603 550.991L853.603 552.229L915.66 729.62Z" fill="#D7E5F1"/>
<path fill-rule="evenodd" clip-rule="evenodd" d="M854.718 552.02L1037.27 580.721L1012.51 464.598L854.718 552.02ZM1038.68 582.061L1037.88 581.948L851.386 552.609L1013.27 462.927L1038.68 582.061Z" fill="#D7E5F1"/>
<path fill-rule="evenodd" clip-rule="evenodd" d="M841.892 783.239L1054.1 709.008L915.349 730.323L841.892 783.239ZM1060.06 708.079L838.684 785.519L838.189 784.549L914.823 729.364L915.019 729.642L915.05 729.261L1059.8 707.016L1060.06 708.079Z" fill="#D7E5F1"/>
<path fill-rule="evenodd" clip-rule="evenodd" d="M916.465 729.042L1059.25 707.097L1037.64 582.661L916.465 729.042ZM1060.53 708.004L913.794 730.559L1037.74 580.815L1038.44 580.897L1038.51 581.299L1060.53 708.004Z" fill="#D7E5F1"/>
<path fill-rule="evenodd" clip-rule="evenodd" d="M1059.58 703.485L1029.24 797.577L1059.35 707.446L1059.58 703.485ZM997.029 897.476L995.988 897.136L1059.87 699.05L1060.93 699.246L1060.43 707.9L1060.33 707.931L997.029 897.476Z" fill="#D7E5F1"/>
<path fill-rule="evenodd" clip-rule="evenodd" d="M131.982 972.362C130.321 974.023 130.3 976.725 131.96 978.385C133.61 980.035 136.323 980.024 137.984 978.363C139.655 976.692 139.656 973.99 138.006 972.34C136.345 970.68 133.653 970.69 131.982 972.362Z" fill="#E6F8FF"/>
<path fill-rule="evenodd" clip-rule="evenodd" d="M143.178 959.475C145.024 957.628 145.035 954.647 143.189 952.802C141.364 950.976 138.373 950.977 136.527 952.823C134.68 954.67 134.679 957.661 136.505 959.486C138.35 961.332 141.331 961.321 143.178 959.475Z" fill="#7AD1FF"/>
<path fill-rule="evenodd" clip-rule="evenodd" d="M750.884 386.686C752.864 384.706 752.875 381.498 750.906 379.528C748.946 377.569 745.739 377.58 743.758 379.561C741.777 381.541 741.766 384.749 743.726 386.708C745.695 388.678 748.903 388.667 750.884 386.686Z" fill="#E6F8FF"/>
<path fill-rule="evenodd" clip-rule="evenodd" d="M80.3561 1046.67C82.8526 1044.18 82.874 1040.13 80.3888 1037.65C77.9035 1035.16 73.8501 1035.18 71.3536 1037.67C68.8467 1040.18 68.8356 1044.23 71.3209 1046.72C73.8061 1049.2 77.8493 1049.18 80.3561 1046.67Z" fill="#E6F8FF"/>
<path fill-rule="evenodd" clip-rule="evenodd" d="M378.189 886.963C381.139 884.013 381.15 879.258 378.222 876.329C375.303 873.411 370.548 873.422 367.598 876.373C364.648 879.323 364.636 884.078 367.555 886.996C370.483 889.925 375.238 889.914 378.189 886.963Z" fill="#7AD1FF"/>
<path fill-rule="evenodd" clip-rule="evenodd" d="M333.572 888.867C335.346 887.093 335.367 884.205 333.594 882.431C331.82 880.658 328.932 880.679 327.158 882.453C325.373 884.238 325.362 887.116 327.136 888.889C328.909 890.663 331.787 890.652 333.572 888.867Z" fill="#002B66"/>
<path fill-rule="evenodd" clip-rule="evenodd" d="M466.092 653.845C467.99 651.946 468.011 648.873 466.124 646.985C464.227 645.088 461.143 645.099 459.244 646.997C457.336 648.906 457.335 651.979 459.233 653.877C461.12 655.764 464.183 655.753 466.092 653.845Z" fill="#E6F8FF"/>
<path fill-rule="evenodd" clip-rule="evenodd" d="M617.697 766.767C619.688 764.776 619.699 761.569 617.729 759.599C615.749 757.619 612.542 757.63 610.551 759.621C608.56 761.612 608.549 764.82 610.529 766.8C612.498 768.769 615.706 768.758 617.697 766.767Z" fill="#018BFF"/>
<path fill-rule="evenodd" clip-rule="evenodd" d="M520.19 634.043C517.571 631.424 513.301 631.446 510.66 634.087C508.03 636.717 508.008 640.987 510.627 643.606C513.247 646.226 517.517 646.204 520.147 643.574C522.788 640.933 522.81 636.663 520.19 634.043Z" fill="#7AD1FF"/>
<path fill-rule="evenodd" clip-rule="evenodd" d="M658.189 598.816C655.775 601.23 655.764 605.118 658.146 607.501C660.549 609.903 664.438 609.892 666.852 607.478C669.255 605.075 669.266 601.186 666.864 598.783C664.482 596.401 660.593 596.412 658.189 598.816Z" fill="#E6F8FF"/>
<path fill-rule="evenodd" clip-rule="evenodd" d="M689.908 556.353C687.452 558.808 687.441 562.779 689.875 565.213C692.319 567.657 696.29 567.646 698.745 565.19C701.211 562.725 701.222 558.754 698.778 556.31C696.344 553.876 692.373 553.887 689.908 556.353Z" fill="#7AD1FF"/>
<path fill-rule="evenodd" clip-rule="evenodd" d="M788.341 455.361C791.579 458.599 796.86 458.578 800.13 455.307C803.401 452.037 803.412 446.767 800.174 443.529C796.936 440.291 791.665 440.302 788.395 443.572C785.125 446.842 785.103 452.123 788.341 455.361Z" fill="#002B66"/>
<path fill-rule="evenodd" clip-rule="evenodd" d="M213.049 1152.19C211.089 1154.15 211.068 1157.31 213.017 1159.26C214.956 1161.2 218.122 1161.19 220.082 1159.23C222.042 1157.27 222.053 1154.1 220.114 1152.16C218.165 1150.21 215.009 1150.23 213.049 1152.19Z" fill="#E6F8FF"/>
<path fill-rule="evenodd" clip-rule="evenodd" d="M265.19 1080.46C268.234 1077.42 268.255 1072.49 265.234 1069.46C262.202 1066.43 257.272 1066.45 254.229 1069.5C251.185 1072.54 251.164 1077.47 254.196 1080.5C257.217 1083.52 262.147 1083.5 265.19 1080.46Z" fill="#7AD1FF"/>
<path fill-rule="evenodd" clip-rule="evenodd" d="M416.469 1072.17C413.776 1074.86 413.765 1079.22 416.436 1081.9C419.107 1084.57 423.46 1084.54 426.152 1081.85C428.845 1079.16 428.866 1074.81 426.195 1072.14C423.524 1069.47 419.161 1069.48 416.469 1072.17Z" fill="#7AD1FF"/>
<path fill-rule="evenodd" clip-rule="evenodd" d="M395.008 970.09C392.069 967.151 387.263 967.173 384.302 970.133C381.331 973.104 381.32 977.9 384.259 980.839C387.208 983.789 391.994 983.767 394.965 980.796C397.925 977.835 397.957 973.039 395.008 970.09Z" fill="#7AD1FF"/>
<path fill-rule="evenodd" clip-rule="evenodd" d="M342.41 890.424C340.295 892.539 340.284 895.953 342.377 898.046C344.471 900.14 347.885 900.129 350 898.014C352.104 895.909 352.115 892.495 350.022 890.402C347.928 888.309 344.514 888.319 342.41 890.424Z" fill="#7AD1FF"/>
<path fill-rule="evenodd" clip-rule="evenodd" d="M494.715 853.821C491.734 856.803 491.702 861.62 494.672 864.589C497.631 867.549 502.459 867.527 505.44 864.546C508.432 861.554 508.443 856.738 505.483 853.778C502.513 850.808 497.707 850.83 494.715 853.821Z" fill="#002B66"/>
<path fill-rule="evenodd" clip-rule="evenodd" d="M657.308 798.95C655.038 801.219 655.037 804.891 657.296 807.15C659.544 809.398 663.216 809.397 665.485 807.127C667.765 804.847 667.776 801.165 665.528 798.917C663.27 796.659 659.587 796.67 657.308 798.95Z" fill="#E6F8FF"/>
<path fill-rule="evenodd" clip-rule="evenodd" d="M664.341 643.173C667.539 639.975 667.55 634.808 664.385 631.642C661.208 628.466 656.051 628.488 652.853 631.686C649.655 634.884 649.634 640.041 652.81 643.217C655.976 646.383 661.143 646.371 664.341 643.173Z" fill="#E6F8FF"/>
<path fill-rule="evenodd" clip-rule="evenodd" d="M687.35 660.815C684.297 663.868 684.275 668.799 687.307 671.83C690.349 674.872 695.279 674.851 698.333 671.797C701.386 668.744 701.408 663.813 698.366 660.771C695.334 657.74 690.404 657.761 687.35 660.815Z" fill="#E6F8FF"/>
<path fill-rule="evenodd" clip-rule="evenodd" d="M690.478 757.344C688.044 759.778 688.022 763.718 690.446 766.142C692.869 768.565 696.809 768.544 699.244 766.109C701.678 763.675 701.7 759.735 699.276 757.311C696.853 754.888 692.913 754.909 690.478 757.344Z" fill="#7AD1FF"/>
<path fill-rule="evenodd" clip-rule="evenodd" d="M735.435 497.234C737.684 494.985 737.695 491.344 735.457 489.106C733.209 486.858 729.568 486.869 727.319 489.118C725.06 491.377 725.039 495.029 727.287 497.277C729.524 499.514 733.176 499.493 735.435 497.234Z" fill="#002B66"/>
<path fill-rule="evenodd" clip-rule="evenodd" d="M745.173 754.891C747.318 752.745 747.319 749.28 745.195 747.155C743.07 745.031 739.605 745.032 737.459 747.178C735.303 749.334 735.302 752.799 737.427 754.923C739.551 757.048 743.016 757.047 745.173 754.891Z" fill="#7AD1FF"/>
<path fill-rule="evenodd" clip-rule="evenodd" d="M771.211 504.068C774.77 500.509 774.792 494.774 771.265 491.247C767.728 487.71 761.993 487.732 758.434 491.291C754.875 494.85 754.854 500.585 758.391 504.122C761.917 507.648 767.652 507.627 771.211 504.068Z" fill="#7AD1FF"/>
<path fill-rule="evenodd" clip-rule="evenodd" d="M323.985 1129.49C321.396 1126.9 317.188 1126.92 314.589 1129.52C311.989 1132.12 311.967 1136.33 314.556 1138.92C317.134 1141.5 321.352 1141.48 323.952 1138.88C326.552 1136.29 326.563 1132.07 323.985 1129.49Z" fill="#7AD1FF"/>
<path fill-rule="evenodd" clip-rule="evenodd" d="M440.18 938.633C437.808 936.261 433.94 936.273 431.547 938.666C429.164 941.049 429.152 944.917 431.524 947.289C433.896 949.66 437.764 949.649 440.147 947.266C442.54 944.873 442.551 941.005 440.18 938.633Z" fill="#E6F8FF"/>
<path fill-rule="evenodd" clip-rule="evenodd" d="M542.176 995.404C540.031 993.259 536.534 993.27 534.368 995.436C532.202 997.602 532.191 1001.1 534.335 1003.24C536.491 1005.4 539.977 1005.38 542.143 1003.21C544.31 1001.05 544.331 997.559 542.176 995.404Z" fill="#E6F8FF"/>
<path fill-rule="evenodd" clip-rule="evenodd" d="M579.398 843.551C577.335 845.615 577.324 848.946 579.376 850.998C581.428 853.05 584.76 853.039 586.823 850.976C588.886 848.913 588.897 845.581 586.845 843.529C584.793 841.477 581.461 841.488 579.398 843.551Z" fill="#7AD1FF"/>
<path fill-rule="evenodd" clip-rule="evenodd" d="M880.891 620.493C882.944 618.44 882.955 615.129 880.913 613.088C878.871 611.046 875.56 611.057 873.507 613.11C871.454 615.163 871.433 618.484 873.475 620.526C875.517 622.567 878.838 622.546 880.891 620.493Z" fill="#E6F8FF"/>
<path fill-rule="evenodd" clip-rule="evenodd" d="M843.836 754.462C841.68 756.618 841.669 760.114 843.814 762.259C845.959 764.404 849.455 764.393 851.611 762.237C853.778 760.071 853.789 756.575 851.644 754.43C849.499 752.285 846.002 752.296 843.836 754.462Z" fill="#E6F8FF"/>
<path fill-rule="evenodd" clip-rule="evenodd" d="M818.917 607.868C816.102 605.053 811.512 605.064 808.675 607.901C805.828 610.749 805.817 615.338 808.632 618.154C811.447 620.969 816.037 620.958 818.884 618.11C821.721 615.273 821.732 610.684 818.917 607.868Z" fill="#7AD1FF"/>
<path fill-rule="evenodd" clip-rule="evenodd" d="M340.03 1247.54C337.636 1249.94 337.625 1253.8 339.997 1256.18C342.379 1258.56 346.237 1258.54 348.63 1256.14C351.023 1253.75 351.045 1249.89 348.662 1247.51C346.291 1245.14 342.423 1245.15 340.03 1247.54Z" fill="#7AD1FF"/>
<path fill-rule="evenodd" clip-rule="evenodd" d="M418.067 1206.82C415.21 1209.67 415.209 1214.29 418.034 1217.12C420.87 1219.96 425.491 1219.95 428.349 1217.1C431.206 1214.24 431.207 1209.62 428.371 1206.78C425.546 1203.96 420.925 1203.96 418.067 1206.82Z" fill="#018BFF"/>
<path fill-rule="evenodd" clip-rule="evenodd" d="M435.055 1149.9C432.796 1152.16 432.785 1155.78 435.022 1158.02C437.25 1160.24 440.88 1160.24 443.14 1157.98C445.388 1155.73 445.389 1152.1 443.162 1149.88C440.924 1147.64 437.304 1147.65 435.055 1149.9Z" fill="#7AD1FF"/>
<path fill-rule="evenodd" clip-rule="evenodd" d="M432.755 1034.16C429.588 1037.33 429.567 1042.45 432.712 1045.59C435.857 1048.74 440.973 1048.72 444.14 1045.55C447.307 1042.38 447.318 1037.28 444.173 1034.13C441.028 1030.99 435.922 1031 432.755 1034.16Z" fill="#002B66"/>
<path fill-rule="evenodd" clip-rule="evenodd" d="M609.878 1030.8C611.642 1029.04 611.653 1026.18 609.9 1024.43C608.147 1022.68 605.29 1022.69 603.526 1024.45C601.751 1026.23 601.751 1029.07 603.504 1030.83C605.257 1032.58 608.104 1032.58 609.878 1030.8Z" fill="#E6F8FF"/>
<path fill-rule="evenodd" clip-rule="evenodd" d="M730.614 876.779C728.345 879.048 728.323 882.72 730.592 884.989C732.85 887.247 736.522 887.226 738.792 884.956C741.061 882.687 741.093 879.005 738.835 876.746C736.566 874.478 732.884 874.509 730.614 876.779Z" fill="#7AD1FF"/>
<path fill-rule="evenodd" clip-rule="evenodd" d="M725.882 819.576C723.088 816.781 718.539 816.793 715.712 819.619C712.896 822.435 712.875 826.994 715.669 829.789C718.474 832.594 723.033 832.572 725.849 829.756C728.676 826.929 728.687 822.381 725.882 819.576Z" fill="#7AD1FF"/>
<path fill-rule="evenodd" clip-rule="evenodd" d="M698.407 805.452C695.561 802.606 690.94 802.627 688.072 805.495C685.204 808.363 685.183 812.984 688.029 815.83C690.875 818.676 695.506 818.665 698.374 815.797C701.242 812.929 701.253 808.298 698.407 805.452Z" fill="#018BFF"/>
<path fill-rule="evenodd" clip-rule="evenodd" d="M894.893 764.411C892.334 766.97 892.323 771.127 894.86 773.663C897.407 776.21 901.553 776.189 904.112 773.631C906.681 771.062 906.692 766.926 904.145 764.379C901.608 761.842 897.462 761.843 894.893 764.411Z" fill="#7AD1FF"/>
<path fill-rule="evenodd" clip-rule="evenodd" d="M844.755 713.016C842.083 715.687 842.072 719.988 844.712 722.628C847.362 725.279 851.653 725.257 854.324 722.585C856.976 719.934 857.008 715.633 854.357 712.983C851.717 710.343 847.406 710.364 844.755 713.016Z" fill="#E6F8FF"/>
<path fill-rule="evenodd" clip-rule="evenodd" d="M411.718 1286.73C408.85 1289.6 408.839 1294.23 411.685 1297.08C414.541 1299.93 419.172 1299.92 422.04 1297.05C424.908 1294.19 424.919 1289.56 422.063 1286.7C419.217 1283.85 414.586 1283.86 411.718 1286.73Z" fill="#E6F8FF"/>
<path fill-rule="evenodd" clip-rule="evenodd" d="M418.555 1404.94C415.573 1407.92 415.552 1412.73 418.501 1415.68C421.471 1418.65 426.277 1418.63 429.259 1415.65C432.24 1412.66 432.261 1407.86 429.292 1404.89C426.342 1401.94 421.536 1401.96 418.555 1404.94Z" fill="#7AD1FF"/>
<path fill-rule="evenodd" clip-rule="evenodd" d="M388.414 1253.36C385.495 1256.28 385.483 1260.99 388.381 1263.89C391.269 1266.78 395.982 1266.77 398.902 1263.85C401.821 1260.93 401.832 1256.21 398.945 1253.33C396.047 1250.43 391.334 1250.44 388.414 1253.36Z" fill="#018BFF"/>
<path fill-rule="evenodd" clip-rule="evenodd" d="M464.921 1208.74C462.672 1210.99 462.651 1214.64 464.889 1216.88C467.137 1219.12 470.778 1219.09 473.027 1216.84C475.286 1214.58 475.307 1210.95 473.059 1208.71C470.821 1206.47 467.18 1206.48 464.921 1208.74Z" fill="#E6F8FF"/>
<path fill-rule="evenodd" clip-rule="evenodd" d="M442.6 1316.42C440.072 1318.95 440.061 1323.03 442.557 1325.52C445.063 1328.03 449.137 1328.02 451.664 1325.49C454.181 1322.97 454.192 1318.9 451.687 1316.39C449.191 1313.9 445.117 1313.91 442.6 1316.42Z" fill="#E6F8FF"/>
<path fill-rule="evenodd" clip-rule="evenodd" d="M525.445 1200.31C523.279 1202.48 523.268 1205.97 525.413 1208.12C527.558 1210.26 531.044 1210.24 533.21 1208.08C535.366 1205.92 535.388 1202.43 533.243 1200.29C531.098 1198.14 527.601 1198.16 525.445 1200.31Z" fill="#7AD1FF"/>
<path fill-rule="evenodd" clip-rule="evenodd" d="M544.949 1103.88C546.888 1101.94 546.899 1098.81 544.981 1096.9C543.063 1094.98 539.938 1094.99 537.999 1096.93C536.07 1098.86 536.059 1101.98 537.977 1103.9C539.895 1105.82 543.02 1105.81 544.949 1103.88Z" fill="#018BFF"/>
<path fill-rule="evenodd" clip-rule="evenodd" d="M574.772 1176.1C571.76 1179.12 571.749 1183.97 574.729 1186.95C577.719 1189.95 582.567 1189.92 585.579 1186.91C588.581 1183.91 588.613 1179.05 585.623 1176.06C582.642 1173.08 577.774 1173.1 574.772 1176.1Z" fill="#002B66"/>
<path fill-rule="evenodd" clip-rule="evenodd" d="M759.557 1043.77C756.545 1046.78 756.533 1051.66 759.534 1054.66C762.525 1057.65 767.393 1057.63 770.405 1054.62C773.428 1051.59 773.449 1046.73 770.459 1043.73C767.458 1040.73 762.579 1040.75 759.557 1043.77Z" fill="#E6F8FF"/>
<path fill-rule="evenodd" clip-rule="evenodd" d="M719.671 1114.43C721.744 1112.35 721.745 1108.97 719.682 1106.91C717.62 1104.84 714.247 1104.86 712.174 1106.93C710.09 1109.01 710.079 1112.39 712.141 1114.45C714.204 1116.51 717.587 1116.51 719.671 1114.43Z" fill="#002B66"/>
<path fill-rule="evenodd" clip-rule="evenodd" d="M702.21 988.238C704.717 985.731 704.728 981.698 702.243 979.213C699.757 976.727 695.735 976.749 693.228 979.256C690.732 981.752 690.7 985.785 693.185 988.27C695.67 990.755 699.713 990.734 702.21 988.238Z" fill="#7AD1FF"/>
<path fill-rule="evenodd" clip-rule="evenodd" d="M930.121 953.556C927.335 956.342 927.314 960.839 930.067 963.592C932.831 966.356 937.338 966.345 940.124 963.559C942.899 960.784 942.91 956.277 940.146 953.513C937.393 950.76 932.896 950.781 930.121 953.556Z" fill="#7AD1FF"/>
<path fill-rule="evenodd" clip-rule="evenodd" d="M846.118 858.498C848.233 856.384 848.244 852.949 846.14 850.845C844.026 848.731 840.592 848.742 838.477 850.857C836.352 852.982 836.341 856.417 838.455 858.531C840.558 860.634 843.993 860.624 846.118 858.498Z" fill="#E6F8FF"/>
<path fill-rule="evenodd" clip-rule="evenodd" d="M822.36 995.65C824.567 993.442 824.568 989.873 822.382 987.687C820.196 985.501 816.627 985.502 814.419 987.709C812.211 989.917 812.2 993.496 814.387 995.682C816.573 997.868 820.152 997.857 822.36 995.65Z" fill="#7AD1FF"/>
<path fill-rule="evenodd" clip-rule="evenodd" d="M363.103 1366.02C361.184 1367.93 361.08 1370.97 362.792 1373.01L361.956 1373.68C359.553 1376.08 359.552 1379.96 361.924 1382.33C364.306 1384.71 368.174 1384.7 370.577 1382.3C372.971 1379.91 372.982 1376.04 370.6 1373.66L370.3 1373.4L370.404 1373.32C372.436 1371.28 372.447 1367.99 370.436 1365.98C368.415 1363.96 365.135 1363.98 363.103 1366.02Z" fill="#E6F8FF"/>
<path fill-rule="evenodd" clip-rule="evenodd" d="M644.088 1220.02C641.612 1222.49 641.59 1226.5 644.045 1228.95C646.509 1231.41 650.501 1231.38 652.977 1228.91C655.442 1226.44 655.474 1222.45 653.009 1219.98C650.555 1217.53 646.553 1217.55 644.088 1220.02Z" fill="#7AD1FF"/>
<path fill-rule="evenodd" clip-rule="evenodd" d="M753.835 1149.08C750.916 1152 750.904 1156.7 753.792 1159.58C756.69 1162.48 761.382 1162.47 764.302 1159.55C767.211 1156.64 767.233 1151.94 764.335 1149.04C761.447 1146.15 756.744 1146.18 753.835 1149.08Z" fill="#002B66"/>
<path fill-rule="evenodd" clip-rule="evenodd" d="M867.583 853.945C865.035 856.493 865.024 860.629 867.561 863.166C870.097 865.703 874.223 865.681 876.771 863.133C879.33 860.575 879.351 856.449 876.814 853.912C874.277 851.376 870.141 851.387 867.583 853.945Z" fill="#018BFF"/>
<path fill-rule="evenodd" clip-rule="evenodd" d="M590.756 1418.81C588.941 1420.63 588.93 1423.59 590.745 1425.4C592.539 1427.2 595.499 1427.19 597.315 1425.37C599.141 1423.54 599.141 1420.59 597.347 1418.8C595.532 1416.99 592.582 1416.99 590.756 1418.81Z" fill="#002B66"/>
<path fill-rule="evenodd" clip-rule="evenodd" d="M592.309 1394.02C590.081 1396.24 590.07 1399.84 592.287 1402.06C594.494 1404.27 598.093 1404.26 600.322 1402.03C602.55 1399.8 602.561 1396.2 600.354 1393.99C598.137 1391.78 594.537 1391.79 592.309 1394.02Z" fill="#E6F8FF"/>
<path fill-rule="evenodd" clip-rule="evenodd" d="M501.653 1465.39C498.62 1468.42 498.599 1473.31 501.61 1476.32C504.621 1479.33 509.51 1479.31 512.543 1476.28C515.576 1473.24 515.597 1468.36 512.586 1465.34C509.575 1462.33 504.686 1462.36 501.653 1465.39Z" fill="#002B66"/>
<path fill-rule="evenodd" clip-rule="evenodd" d="M633.802 1383.89C631.481 1381.57 627.727 1381.59 625.396 1383.93C623.064 1386.26 623.043 1390.01 625.363 1392.33C627.663 1394.63 631.438 1394.63 633.769 1392.3C636.101 1389.97 636.101 1386.19 633.802 1383.89Z" fill="#002B66"/>
<path fill-rule="evenodd" clip-rule="evenodd" d="M639.95 1387.73C637.34 1390.34 637.329 1394.56 639.917 1397.14C642.506 1399.73 646.724 1399.72 649.334 1397.11C651.944 1394.5 651.955 1390.28 649.367 1387.69C646.778 1385.11 642.56 1385.12 639.95 1387.73Z" fill="#E6F8FF"/>
<path fill-rule="evenodd" clip-rule="evenodd" d="M735.726 1287.43C733.57 1289.59 733.538 1293.05 735.683 1295.19C737.818 1297.32 741.293 1297.31 743.449 1295.16C745.595 1293.01 745.606 1289.54 743.472 1287.4C741.327 1285.26 737.871 1285.29 735.726 1287.43Z" fill="#018BFF"/>
<path fill-rule="evenodd" clip-rule="evenodd" d="M778.941 1139.94C775.796 1136.8 770.701 1136.82 767.544 1139.97C764.377 1143.14 764.356 1148.24 767.501 1151.38C770.636 1154.52 775.741 1154.51 778.908 1151.34C782.065 1148.18 782.076 1143.08 778.941 1139.94Z" fill="#7AD1FF"/>
<path fill-rule="evenodd" clip-rule="evenodd" d="M856.511 1084.32C853.746 1087.08 853.725 1091.56 856.478 1094.31C859.221 1097.05 863.697 1097.03 866.462 1094.27C869.227 1091.5 869.248 1087.03 866.505 1084.28C863.752 1081.53 859.275 1081.55 856.511 1084.32Z" fill="#E6F8FF"/>
<path fill-rule="evenodd" clip-rule="evenodd" d="M711.143 1409.82C709.967 1410.99 709.966 1412.91 711.142 1414.09C712.307 1415.25 714.226 1415.25 715.402 1414.08C716.588 1412.89 716.588 1410.97 715.423 1409.81C714.248 1408.63 712.329 1408.63 711.143 1409.82Z" fill="#002B66"/>
<path fill-rule="evenodd" clip-rule="evenodd" d="M733.245 1256.03C729.675 1259.6 729.643 1265.36 733.201 1268.92C736.759 1272.48 742.534 1272.46 746.104 1268.89C749.684 1265.31 749.705 1259.53 746.148 1255.98C742.59 1252.42 736.824 1252.45 733.245 1256.03Z" fill="#E6F8FF"/>
<path fill-rule="evenodd" clip-rule="evenodd" d="M839.64 1334.55C837.876 1336.32 837.855 1339.16 839.608 1340.92C841.361 1342.67 844.218 1342.66 845.982 1340.89C847.746 1339.13 847.757 1336.27 846.004 1334.52C844.251 1332.77 841.404 1332.79 839.64 1334.55Z" fill="#7AD1FF"/>
<path fill-rule="evenodd" clip-rule="evenodd" d="M759.693 1254.49C756.867 1257.32 756.856 1261.89 759.65 1264.69C762.466 1267.5 767.024 1267.48 769.851 1264.65C772.688 1261.82 772.71 1257.26 769.894 1254.44C767.1 1251.65 762.53 1251.66 759.693 1254.49Z" fill="#E6F8FF"/>
<path fill-rule="evenodd" clip-rule="evenodd" d="M847.905 1218.67C849.947 1220.71 853.268 1220.69 855.321 1218.64C857.374 1216.58 857.395 1213.26 855.353 1211.22C853.322 1209.19 849.99 1209.2 847.938 1211.25C845.885 1213.31 845.874 1216.64 847.905 1218.67Z" fill="#002B66"/>
<path fill-rule="evenodd" clip-rule="evenodd" d="M934.606 1104.41C932.234 1102.04 928.356 1102.04 925.963 1104.44C923.569 1106.83 923.569 1110.71 925.94 1113.08C928.322 1115.46 932.18 1115.44 934.573 1113.05C936.967 1110.65 936.988 1106.8 934.606 1104.41Z" fill="#002B66"/>
<path fill-rule="evenodd" clip-rule="evenodd" d="M889.529 1341.26C887.703 1343.08 887.702 1346.01 889.507 1347.82C891.311 1349.62 894.241 1349.62 896.067 1347.79C897.882 1345.98 897.883 1343.05 896.078 1341.25C894.274 1339.44 891.344 1339.44 889.529 1341.26Z" fill="#7AD1FF"/>
<path fill-rule="evenodd" clip-rule="evenodd" d="M888.89 1449.33C887.26 1450.96 887.26 1453.58 888.869 1455.19C890.488 1456.8 893.107 1456.8 894.737 1455.17C896.367 1453.54 896.378 1450.91 894.759 1449.3C893.15 1447.69 890.52 1447.7 888.89 1449.33Z" fill="#7AD1FF"/>
<path fill-rule="evenodd" clip-rule="evenodd" d="M878.494 1301.93C875.884 1304.54 875.862 1308.75 878.451 1311.33C881.049 1313.93 885.258 1313.91 887.868 1311.3C890.478 1308.69 890.489 1304.49 887.89 1301.89C885.302 1299.31 881.104 1299.32 878.494 1301.93Z" fill="#002B66"/>
<path fill-rule="evenodd" clip-rule="evenodd" d="M710.88 370.922C712.86 368.941 712.882 365.764 710.912 363.795C708.953 361.835 705.765 361.846 703.785 363.827C701.814 365.797 701.803 368.985 703.763 370.944C705.732 372.913 708.909 372.892 710.88 370.922Z" fill="#018BFF"/>
<path fill-rule="evenodd" clip-rule="evenodd" d="M839.069 291.282C842.174 288.177 842.196 283.164 839.102 280.07C836.019 276.987 830.996 276.998 827.891 280.103C824.786 283.208 824.764 288.242 827.848 291.325C830.941 294.419 835.964 294.387 839.069 291.282Z" fill="#E6F8FF"/>
<path fill-rule="evenodd" clip-rule="evenodd" d="M886.413 219.808C883.545 222.676 883.534 227.328 886.38 230.174C889.236 233.031 893.878 233.009 896.746 230.141C899.634 227.252 899.646 222.621 896.789 219.765C893.943 216.919 889.301 216.92 886.413 219.808Z" fill="#7AD1FF"/>
<path fill-rule="evenodd" clip-rule="evenodd" d="M749.919 589.522C752.414 592.018 756.468 592.007 758.995 589.479C761.502 586.973 761.523 582.909 759.028 580.413C756.522 577.907 752.458 577.929 749.951 580.436C747.424 582.963 747.413 587.016 749.919 589.522Z" fill="#002B66"/>
<path fill-rule="evenodd" clip-rule="evenodd" d="M732.287 566.937C730.307 564.957 727.079 564.968 725.077 566.969C723.076 568.971 723.065 572.199 725.045 574.179C727.035 576.169 730.264 576.158 732.265 574.157C734.266 572.156 734.277 568.927 732.287 566.937Z" fill="#7AD1FF"/>
<path fill-rule="evenodd" clip-rule="evenodd" d="M716.958 509.337C719.166 507.13 719.177 503.551 716.98 501.354C714.794 499.168 711.215 499.179 709.008 501.387C706.79 503.605 706.789 507.173 708.975 509.36C711.172 511.556 714.74 511.555 716.958 509.337Z" fill="#E6F8FF"/>
<path fill-rule="evenodd" clip-rule="evenodd" d="M848.398 425.251C850.668 422.982 850.679 419.299 848.431 417.051C846.172 414.793 842.5 414.814 840.231 417.084C837.961 419.353 837.94 423.025 840.198 425.284C842.446 427.532 846.129 427.521 848.398 425.251Z" fill="#002B66"/>
<path fill-rule="evenodd" clip-rule="evenodd" d="M773.632 375.879C775.942 373.569 775.953 369.845 773.664 367.556C771.375 365.267 767.651 365.278 765.341 367.588C763.03 369.899 763.029 373.612 765.318 375.902C767.608 378.191 771.321 378.19 773.632 375.879Z" fill="#E6F8FF"/>
<path fill-rule="evenodd" clip-rule="evenodd" d="M929.174 227.081C931.661 224.595 931.682 220.572 929.207 218.097C926.742 215.633 922.72 215.654 920.234 218.14C917.758 220.616 917.736 224.639 920.201 227.103C922.676 229.578 926.698 229.557 929.174 227.081Z" fill="#7AD1FF"/>
<path fill-rule="evenodd" clip-rule="evenodd" d="M832.381 301.147C830.319 299.084 826.967 299.095 824.883 301.179C822.799 303.263 822.788 306.615 824.85 308.678C826.902 310.73 830.265 310.729 832.349 308.645C834.433 306.561 834.433 303.199 832.381 301.147Z" fill="#7AD1FF"/>
<path fill-rule="evenodd" clip-rule="evenodd" d="M807.071 578.198C809.103 576.166 809.124 572.886 807.103 570.864C805.082 568.843 801.802 568.865 799.77 570.897C797.737 572.929 797.727 576.199 799.748 578.22C801.769 580.241 805.038 580.23 807.071 578.198Z" fill="#018BFF"/>
<path fill-rule="evenodd" clip-rule="evenodd" d="M904.766 479.822C901.733 482.855 901.711 487.723 904.723 490.735C907.723 493.735 912.602 493.724 915.635 490.691C918.658 487.669 918.689 482.769 915.689 479.769C912.677 476.757 907.789 476.8 904.766 479.822Z" fill="#7AD1FF"/>
<path fill-rule="evenodd" clip-rule="evenodd" d="M912.072 722.318C910.246 721.112 907.761 721.329 906.151 722.938C904.305 724.785 904.284 727.776 906.119 729.612L907.058 730.302C907.16 732.221 907.923 734.098 909.388 735.562C912.533 738.707 917.669 738.686 920.847 735.509C924.014 732.342 924.035 727.205 920.89 724.06C918.508 721.678 915.022 721.101 912.072 722.318Z" fill="#7AD1FF"/>
<path fill-rule="evenodd" clip-rule="evenodd" d="M867.878 756.324C869.281 754.921 869.292 752.642 867.9 751.25C866.507 749.857 864.228 749.868 862.825 751.271C861.422 752.674 861.421 754.943 862.814 756.335C864.206 757.728 866.475 757.727 867.878 756.324Z" fill="#002B66"/>
<path fill-rule="evenodd" clip-rule="evenodd" d="M847.768 547.029C844.828 549.969 844.817 554.724 847.735 557.642C850.654 560.56 855.409 560.549 858.349 557.609C861.289 554.669 861.3 549.914 858.382 546.996C855.463 544.077 850.708 544.089 847.768 547.029Z" fill="#E6F8FF"/>
<path fill-rule="evenodd" clip-rule="evenodd" d="M856.361 639.536C854.464 637.639 851.37 637.66 849.472 639.558C847.553 641.477 847.542 644.561 849.439 646.459C851.337 648.356 854.421 648.345 856.339 646.426C858.238 644.528 858.259 641.434 856.361 639.536Z" fill="#E6F8FF"/>
<path fill-rule="evenodd" clip-rule="evenodd" d="M834.869 781.351C832.837 783.383 832.826 786.653 834.847 788.674C836.858 790.685 840.138 790.684 842.17 788.652C844.203 786.62 844.203 783.34 842.192 781.329C840.171 779.308 836.902 779.319 834.869 781.351Z" fill="#E6F8FF"/>
<rect y="781" width="976" height="919" fill="url(#paint0_linear)"/>
</g>
<defs>
<linearGradient id="paint0_linear" x1="579" y1="797" x2="256.5" y2="1084.5" gradientUnits="userSpaceOnUse">
<stop stop-color="white" stop-opacity="0"/>
<stop offset="0.434173" stop-color="white"/>
</linearGradient>
<clipPath id="clip0">
<rect width="1750.71" height="918.769" fill="white" transform="translate(0 1049.94) rotate(-45)"/>
</clipPath>
</defs>
</svg>
