<svg width="32px" height="31px" viewBox="0 0 32 31" version="1.1" xmlns="http://www.w3.org/2000/svg" xmlns:xlink="http://www.w3.org/1999/xlink">
    <g id="Page-1" stroke="none" stroke-width="1" fill="none" fill-rule="evenodd">
        <g id="Artboard" transform="translate(0.000000, -9.000000)" fill-rule="nonzero">
            <g id="Neo4j-logo-color" transform="translate(0.000000, 1.000000)">
                <g id="icon" transform="translate(0.000000, 8.000000)">
                    <path d="M21.0062121,0 C14.4199155,0 10,3.86154265 10,11.3526847 L10,16.6936495 C10.6687007,16.3626741 11.4026309,16.1870137 12.1477054,16.179613 C12.8941987,16.1797837 13.6308329,16.351294 14.3016361,16.681112 L14.3016361,11.3276097 C14.3016361,6.46933769 16.9660358,3.97437994 21.0248878,3.97437994 C25.0837398,3.97437994 27.7107882,6.46933769 27.7107882,11.3276097 L27.7107882,23 L32,23 L32,11.3276097 C32.0124242,3.79258654 27.5925087,0 21.0062121,0 Z" id="Path" fill="#000000"></path>
                    <path class="accent" d="M12.7636111,17.4822916 C12.0078411,17.4831177 11.2732557,17.7366355 10.6727809,18.2038722 L6.84549855,15.5400372 C6.93067706,15.2287026 6.97438092,14.9071276 6.97543715,14.5839429 C6.99219514,13.1482761 6.15595818,11.8443493 4.85816215,11.2825203 C3.56036612,10.7206912 2.05781042,11.012131 1.05382943,12.0204189 C0.0498484343,13.0287068 -0.256896654,14.5543295 0.2771791,15.883155 C0.811254855,17.2119806 2.08047203,18.0810697 3.49072016,18.0836087 C4.24670776,18.0841252 4.98170481,17.8304654 5.58155036,17.3620282 L9.39702015,20.0439027 C9.22371139,20.6711307 9.22371139,21.3348765 9.39702015,21.9621044 L5.56973776,24.6259395 C4.9731029,24.1600038 4.24266202,23.9064841 3.49072016,23.9043589 C2.0802116,23.901927 0.807372734,24.7654211 0.266490473,26.0916769 C-0.274391789,27.4179326 0.0233702446,28.9453494 1.02075184,29.9607781 C2.01813344,30.9762069 3.51840355,31.2793568 4.82108789,30.7286875 C6.12377223,30.1780182 6.97191953,28.882148 6.96953085,27.446117 C6.96934798,27.1272299 6.92764053,26.809775 6.84549855,26.502049 L10.6727809,23.838214 C11.2732557,24.3054507 12.0078411,24.5589685 12.7636111,24.5597946 C14.5871603,24.4271561 16,22.8823205 16,21.0210431 C16,19.1597657 14.5871603,17.6149301 12.7636111,17.4822916 L12.7636111,17.4822916 Z" id="Path" fill="#018BFF"></path>
                </g>
            </g>
        </g>
    </g>
</svg>