<svg width="24" height="25" viewBox="0 0 24 25" fill="none" xmlns="http://www.w3.org/2000/svg">
<path fill-rule="evenodd" clip-rule="evenodd" d="M5.5 6.25C5.5 6.11193 5.61193 6 5.75 6H10C10.6904 6 11.25 6.55964 11.25 7.25V17.9933C10.4223 17.3528 9.40092 17 8.34315 17H5.75C5.61192 17 5.5 16.8881 5.5 16.75V6.25ZM11.4657 20.2764L10.6413 19.4519C10.0317 18.8424 9.2051 18.5 8.34315 18.5H5.75C4.78352 18.5 4 17.7165 4 16.75V6.25C4 5.28351 4.78351 4.5 5.75 4.5H10C10.788 4.5 11.4986 4.83144 12 5.36252C12.5014 4.83144 13.212 4.5 14 4.5H18.25C19.2165 4.5 20 5.28352 20 6.25V16.75C20 17.7165 19.2165 18.5 18.25 18.5H15.6569C14.7949 18.5 13.9683 18.8424 13.3587 19.4519L12.5343 20.2764C12.504 20.3072 12.4708 20.3355 12.4352 20.3609C12.4272 20.3665 12.4191 20.3721 12.4109 20.3775C12.2062 20.5116 11.9451 20.539 11.713 20.4429C11.6751 20.4272 11.6389 20.4086 11.6048 20.3875C11.8071 20.5129 12.0608 20.5366 12.287 20.4429M12.75 17.9933C13.5777 17.3528 14.5991 17 15.6569 17H18.25C18.3881 17 18.5 16.8881 18.5 16.75V6.25C18.5 6.11192 18.3881 6 18.25 6H14C13.3096 6 12.75 6.55964 12.75 7.25V17.9933Z" fill="#C4D3DF"/>
</svg>
