<svg width="24" height="25" viewBox="0 0 24 25" fill="none" xmlns="http://www.w3.org/2000/svg">
<path fill-rule="evenodd" clip-rule="evenodd" d="M5.5 12.5C5.5 8.91015 8.41015 6 12 6C15.5899 6 18.5 8.91015 18.5 12.5C18.5 16.0899 15.5899 19 12 19C8.41015 19 5.5 16.0899 5.5 12.5ZM12 4.5C7.58172 4.5 4 8.08172 4 12.5C4 16.9183 7.58172 20.5 12 20.5C16.4183 20.5 20 16.9183 20 12.5C20 8.08172 16.4183 4.5 12 4.5ZM11.25 8.5V12.5V12.8107L11.4697 13.0303L13.4697 15.0303L14.5303 13.9697L12.75 12.1893V8.5H11.25Z" fill="#C4D3DF"/>
</svg>
