<svg width="118px" height="39px" viewBox="0 0 118 39" version="1.1">
    <!-- <g id="Page-1" stroke="none" stroke-width="1" fill="none" fill-rule="evenodd"> -->
        <!-- <g id="Artboard" transform="translate(0.000000, -1.000000)" fill-rule="nonzero"> -->
            <g id="Neo4j-logo-color" transform="translate(0.000000, 1.000000)">
                <path d="M21.0062121,8 C14.4199155,8 10,11.8615427 10,19.3526847 L10,24.6936495 C10.6687007,24.3626741 11.4026309,24.1870137 12.1477054,24.179613 C12.8941987,24.1797837 13.6308329,24.351294 14.3016361,24.681112 L14.3016361,19.3276097 C14.3016361,14.4693377 16.9660358,11.9743799 21.0248878,11.9743799 C25.0837398,11.9743799 27.7107882,14.4693377 27.7107882,19.3276097 L27.7107882,31 L32,31 L32,19.3276097 C32.0124242,11.7925865 27.5925087,8 21.0062121,8 Z" id="Path" fill="#000000"></path>
                <path d="M34,19.5 C34,12.8649151 39,8 46.04375,8 C53.0875,8 58,12.8832272 58,19.5 L58,21.0443206 L38.525,21.0443206 C39.15,24.9386943 42.15,27.1056263 46.025,27.1056263 C48.925,27.1056263 50.9625,26.2205414 52.275,24.3221868 L57.025,24.3221868 C55.30625,28.3874735 51.23125,31 46.025,31 C38.98125,31 34,26.1350849 34,19.5 Z M53.46875,17.2903397 C52.60625,13.7927282 49.66875,11.8943737 46.04375,11.8943737 C42.41875,11.8943737 39.525,13.8415605 38.6625,17.2903397 L53.46875,17.2903397 Z" id="Shape" fill="#000000"></path>
                <path d="M60,19.4969472 C60,12.8662065 64.9818371,8 72,8 C79.0181629,8 84,12.8845235 84,19.4969472 C84,26.1093709 79.0181629,31 72,31 C64.9818371,31 60,26.1337935 60,19.4969472 Z M79.6720291,19.4969472 C79.6720291,15.0764534 76.601972,11.8893018 72,11.8893018 C67.398028,11.8893018 64.3341982,15.0764534 64.3341982,19.4969472 C64.3341982,23.9174409 67.398028,27.1045925 71.9937727,27.1045925 C76.5895174,27.1045925 79.6720291,23.9235466 79.6720291,19.4969472 L79.6720291,19.4969472 Z" id="Shape" fill="#000000"></path>
                <path d="M107,34.4555556 L107.522876,34.4555556 C110.411765,34.4555556 111.496732,33.2621399 111.496732,30.2786008 L111.496732,9 L116,9 L116,30.0041152 C116,35.2790123 113.72549,38 107.947712,38 L107,38 L107,34.4555556 Z" id="Path" fill="#000000"></path>
                <path d="M105.881141,33 L101.724672,33 L101.724672,27.7349818 L91.1977674,27.7349818 C89.238085,27.8052224 87.4058777,26.7388743 86.4561358,24.9753432 C85.6841019,23.3165792 85.9044953,21.3498352 87.0232011,19.9149724 L96.4702687,7.17102366 C97.809473,5.31306608 100.156169,4.5464367 102.293056,5.26880917 C104.429943,5.99118163 105.87601,8.03995123 105.881141,10.3523598 L105.881141,23.9459051 L109,23.9459051 L109,27.7349818 L105.881141,27.7349818 L105.881141,33 Z M90.4798868,22.2467119 C90.35566,22.4284213 90.2883147,22.644765 90.2868256,22.8668554 C90.2852264,23.1518987 90.3946619,23.4257486 90.5907342,23.6273081 C90.7868066,23.8288676 91.0532013,23.9413657 91.3304848,23.9397218 L101.724672,23.9397218 L101.724672,10.2469354 C101.7404,9.7732515 101.446696,9.34700637 101.006792,9.20509431 C100.883139,9.16893591 100.755292,9.15016095 100.626737,9.14928121 C100.296682,9.14907474 99.988541,9.31910273 99.8063021,9.60198614 L90.4798868,22.2467119 Z" id="Shape" fill="#000000"></path>
                <path class="accent" d="M114.006838,0 C112.388398,-0.00273733519 110.927795,0.970075917 110.306543,2.46453226 C109.685291,3.95898861 110.025834,5.68054541 111.169274,6.82592671 C112.312714,7.971308 114.033691,8.31477041 115.5292,7.69605486 C117.024708,7.07733931 118,5.61838855 118,3.99994693 C118,1.79348531 116.213297,0.00374555165 114.006838,0 Z" id="Path" fill="#018BFF"></path>
                <path class="accent" d="M12.7636111,25.4822916 C12.0078411,25.4831177 11.2732557,25.7366355 10.6727809,26.2038722 L6.84549855,23.5400372 C6.93067706,23.2287026 6.97438092,22.9071276 6.97543715,22.5839429 C6.99219514,21.1482761 6.15595818,19.8443493 4.85816215,19.2825203 C3.56036612,18.7206912 2.05781042,19.012131 1.05382943,20.0204189 C0.0498484343,21.0287068 -0.256896654,22.5543295 0.2771791,23.883155 C0.811254855,25.2119806 2.08047203,26.0810697 3.49072016,26.0836087 C4.24670776,26.0841252 4.98170481,25.8304654 5.58155036,25.3620282 L9.39702015,28.0439027 C9.22371139,28.6711307 9.22371139,29.3348765 9.39702015,29.9621044 L5.56973776,32.6259395 C4.9731029,32.1600038 4.24266202,31.9064841 3.49072016,31.9043589 C2.0802116,31.901927 0.807372734,32.7654211 0.266490473,34.0916769 C-0.274391789,35.4179326 0.0233702446,36.9453494 1.02075184,37.9607781 C2.01813344,38.9762069 3.51840355,39.2793568 4.82108789,38.7286875 C6.12377223,38.1780182 6.97191953,36.882148 6.96953085,35.446117 C6.96934798,35.1272299 6.92764053,34.809775 6.84549855,34.502049 L10.6727809,31.838214 C11.2732557,32.3054507 12.0078411,32.5589685 12.7636111,32.5597946 C14.5871603,32.4271561 16,30.8823205 16,29.0210431 C16,27.1597657 14.5871603,25.6149301 12.7636111,25.4822916 L12.7636111,25.4822916 Z" id="Path" fill="#018BFF"></path>
            </g>
        <!-- </g> -->
    <!-- </g> -->
</svg>