<svg width="85" height="98" viewBox="0 0 85 98" fill="none" xmlns="http://www.w3.org/2000/svg">
    <g clip-path="url(#clip0_255_7574)">
        <path
            d="M62.1098 85.9959L71.0028 80.8645C76.065 77.9242 79.1868 71.6433 79.18 62.6991C79.1652 44.6874 66.4812 22.7231 50.8448 13.6211C42.9763 9.04158 35.8602 8.59186 30.7334 11.5725L21.8425 16.7026C26.9693 13.7219 34.0842 14.1695 41.9526 18.749C57.589 27.8509 70.2747 49.8231 70.2878 67.827C70.2947 76.7711 67.1656 83.0444 62.1098 85.9959Z"
            fill="#D4E7F8" stroke="#151E29" stroke-linejoin="round" />
        <path
            d="M41.9982 83.9471C57.6346 93.049 70.3008 85.8308 70.2876 67.8269C70.2745 49.823 57.5889 27.8508 41.9525 18.7489C26.316 9.64701 13.6521 16.864 13.663 34.8691C13.6739 52.8743 26.3618 74.8452 41.9982 83.9471Z"
            fill="white" stroke="#151E29" stroke-linejoin="round" />
        <mask id="path-3-inside-1_255_7574" fill="white">
            <path fill-rule="evenodd" clip-rule="evenodd"
                d="M44.5136 35.3611L52.4657 45.4347C52.6952 45.2886 52.9587 45.2028 53.2479 45.1798C54.897 45.0577 57.0006 46.9642 57.9585 49.4532C58.9067 51.9364 58.3437 54.049 56.6945 54.1825C56.4074 54.204 56.0981 54.1633 55.776 54.0616V64.7506C56.0946 65.0301 56.4005 65.3545 56.6846 65.7139C58.3437 67.8156 58.9067 70.5982 57.9487 71.9474C57.0006 73.3022 54.8872 72.6999 53.2379 70.6156C52.9184 70.2122 52.6306 69.7691 52.3855 69.3033L44.4819 69.9108C44.5976 70.3875 44.6564 70.8492 44.656 71.2784C44.656 73.4848 43.1155 74.3725 41.2094 73.2385C39.3033 72.1045 37.7628 69.3952 37.7628 67.1774C37.7628 66.7832 37.8115 66.4314 37.9022 66.1257L29.9523 56.055C29.7253 56.197 29.4655 56.2805 29.1809 56.3032C27.5218 56.4192 25.4182 54.5127 24.4701 52.0297C23.5221 49.5466 24.085 47.4338 25.7341 47.3002C26.0182 47.2789 26.3242 47.3185 26.6427 47.4179V36.7291C26.3207 36.4476 26.0114 36.1203 25.7243 35.7572C24.0751 33.6729 23.5121 30.8788 24.4603 29.5238C25.4084 28.1688 27.5216 28.771 29.1709 30.8555C29.4585 31.2206 29.7207 31.6176 29.9494 32.0343L37.9037 31.4227C37.8099 30.9966 37.7625 30.5843 37.7628 30.1984C37.7628 27.9809 39.3033 27.1045 41.2094 28.2385C43.1155 29.3725 44.656 32.0817 44.656 34.2994C44.656 34.6981 44.6062 35.0532 44.5136 35.3611ZM43.6851 36.5144L51.6561 46.6117C51.5292 47.0524 51.4928 47.5715 51.5491 48.1379C51.6054 48.7044 51.7532 49.3067 51.9838 49.909C52.469 51.1799 53.2594 52.3012 54.1367 53.0769V63.7792C54.0919 63.7652 54.0474 63.7527 54.0032 63.7411L43.5925 36.5664C43.6239 36.5501 43.6549 36.5327 43.6851 36.5144ZM38.8284 33.7345L28.4179 48.5214C28.3729 48.4795 28.3276 48.4385 28.2821 48.3984V37.695C29.1593 37.9632 29.9498 37.7823 30.435 37.0888C30.666 36.7603 30.814 36.3328 30.8701 35.8321C30.9261 35.3314 30.8891 34.7677 30.7613 34.1746L38.73 33.562C38.7622 33.6198 38.795 33.6775 38.8284 33.7345ZM42.1724 36.6743L52.5806 63.8424C52.3422 63.9653 52.1378 64.1471 51.9738 64.3821C51.8103 64.6154 51.6879 64.8986 51.6106 65.2232L30.8085 52.8473C30.731 52.4305 30.6086 52.0017 30.4449 51.5738C30.2804 51.1455 30.0764 50.7227 29.8391 50.3178L40.2493 35.5311C40.5614 35.8214 40.8846 36.0665 41.2094 36.2594C41.5438 36.4583 41.8668 36.5954 42.1724 36.6743ZM43.7583 68.0426L51.6775 67.4337C51.6538 67.3327 51.6326 67.2324 51.6139 67.1327L30.804 54.7522C30.793 54.7977 30.7811 54.8422 30.7683 54.8861L38.7263 64.967C39.0476 64.7694 39.4333 64.6897 39.86 64.7327C40.2868 64.7758 40.7458 64.9407 41.2094 65.2175C41.6892 65.502 42.1639 65.9003 42.6029 66.3869C43.0419 66.8735 43.4354 67.4374 43.7583 68.0426Z" />
        </mask>
        <path fill-rule="evenodd" clip-rule="evenodd"
            d="M44.5136 35.3611L52.4657 45.4347C52.6952 45.2886 52.9587 45.2028 53.2479 45.1798C54.897 45.0577 57.0006 46.9642 57.9585 49.4532C58.9067 51.9364 58.3437 54.049 56.6945 54.1825C56.4074 54.204 56.0981 54.1633 55.776 54.0616V64.7506C56.0946 65.0301 56.4005 65.3545 56.6846 65.7139C58.3437 67.8156 58.9067 70.5982 57.9487 71.9474C57.0006 73.3022 54.8872 72.6999 53.2379 70.6156C52.9184 70.2122 52.6306 69.7691 52.3855 69.3033L44.4819 69.9108C44.5976 70.3875 44.6564 70.8492 44.656 71.2784C44.656 73.4848 43.1155 74.3725 41.2094 73.2385C39.3033 72.1045 37.7628 69.3952 37.7628 67.1774C37.7628 66.7832 37.8115 66.4314 37.9022 66.1257L29.9523 56.055C29.7253 56.197 29.4655 56.2805 29.1809 56.3032C27.5218 56.4192 25.4182 54.5127 24.4701 52.0297C23.5221 49.5466 24.085 47.4338 25.7341 47.3002C26.0182 47.2789 26.3242 47.3185 26.6427 47.4179V36.7291C26.3207 36.4476 26.0114 36.1203 25.7243 35.7572C24.0751 33.6729 23.5121 30.8788 24.4603 29.5238C25.4084 28.1688 27.5216 28.771 29.1709 30.8555C29.4585 31.2206 29.7207 31.6176 29.9494 32.0343L37.9037 31.4227C37.8099 30.9966 37.7625 30.5843 37.7628 30.1984C37.7628 27.9809 39.3033 27.1045 41.2094 28.2385C43.1155 29.3725 44.656 32.0817 44.656 34.2994C44.656 34.6981 44.6062 35.0532 44.5136 35.3611ZM43.6851 36.5144L51.6561 46.6117C51.5292 47.0524 51.4928 47.5715 51.5491 48.1379C51.6054 48.7044 51.7532 49.3067 51.9838 49.909C52.469 51.1799 53.2594 52.3012 54.1367 53.0769V63.7792C54.0919 63.7652 54.0474 63.7527 54.0032 63.7411L43.5925 36.5664C43.6239 36.5501 43.6549 36.5327 43.6851 36.5144ZM38.8284 33.7345L28.4179 48.5214C28.3729 48.4795 28.3276 48.4385 28.2821 48.3984V37.695C29.1593 37.9632 29.9498 37.7823 30.435 37.0888C30.666 36.7603 30.814 36.3328 30.8701 35.8321C30.9261 35.3314 30.8891 34.7677 30.7613 34.1746L38.73 33.562C38.7622 33.6198 38.795 33.6775 38.8284 33.7345ZM42.1724 36.6743L52.5806 63.8424C52.3422 63.9653 52.1378 64.1471 51.9738 64.3821C51.8103 64.6154 51.6879 64.8986 51.6106 65.2232L30.8085 52.8473C30.731 52.4305 30.6086 52.0017 30.4449 51.5738C30.2804 51.1455 30.0764 50.7227 29.8391 50.3178L40.2493 35.5311C40.5614 35.8214 40.8846 36.0665 41.2094 36.2594C41.5438 36.4583 41.8668 36.5954 42.1724 36.6743ZM43.7583 68.0426L51.6775 67.4337C51.6538 67.3327 51.6326 67.2324 51.6139 67.1327L30.804 54.7522C30.793 54.7977 30.7811 54.8422 30.7683 54.8861L38.7263 64.967C39.0476 64.7694 39.4333 64.6897 39.86 64.7327C40.2868 64.7758 40.7458 64.9407 41.2094 65.2175C41.6892 65.502 42.1639 65.9003 42.6029 66.3869C43.0419 66.8735 43.4354 67.4374 43.7583 68.0426Z"
            fill="#D346A7" />
        <path
            d="M44.5136 35.3611L34.9374 32.4809L33.4371 37.4689L36.6645 41.5572L44.5136 35.3611ZM52.4657 45.4347L44.6166 51.6308L50.2131 58.7203L57.8337 53.8717L52.4657 45.4347ZM53.2479 45.1798L52.5095 35.2071L52.4827 35.2091L52.4559 35.2112L53.2479 45.1798ZM57.9585 49.4532L67.3007 45.8862L67.296 45.8737L67.2912 45.8614L57.9585 49.4532ZM56.6945 54.1825L57.4438 64.1543L57.4724 64.1522L57.5009 64.1499L56.6945 54.1825ZM55.776 54.0616L58.788 44.526L45.776 40.4159V54.0616H55.776ZM55.776 64.7506H45.776V69.2795L49.1801 72.2668L55.776 64.7506ZM56.6846 65.7139L64.5338 59.5178L64.5293 59.5122L56.6846 65.7139ZM57.9487 71.9474L49.795 66.158L49.7752 66.1859L49.7556 66.2139L57.9487 71.9474ZM53.2379 70.6156L61.0798 64.4104L61.0768 64.4066L53.2379 70.6156ZM52.3855 69.3033L61.2355 64.6474L58.1745 58.8288L51.6192 59.3327L52.3855 69.3033ZM44.4819 69.9108L43.7155 59.9402L31.989 60.8415L34.7643 72.2705L44.4819 69.9108ZM44.656 71.2784L34.656 71.2686V71.2784H44.656ZM37.9022 66.1257L47.4887 68.9719L48.9647 64.0002L45.7513 59.9296L37.9022 66.1257ZM29.9523 56.055L37.8014 49.8589L32.2491 42.8254L24.651 47.5758L29.9523 56.055ZM29.1809 56.3032L29.8785 66.2788L29.9261 66.2755L29.9736 66.2717L29.1809 56.3032ZM24.4701 52.0297L15.1278 55.5964L15.128 55.5969L24.4701 52.0297ZM25.7341 47.3002L24.9845 37.3284L24.9558 37.3305L24.9271 37.3329L25.7341 47.3002ZM26.6427 47.4179L23.6635 56.9639L36.6427 61.0146V47.4179H26.6427ZM26.6427 36.7291H36.6427V32.188L33.2236 29.1996L26.6427 36.7291ZM25.7243 35.7572L33.5692 29.5558L33.5662 29.552L25.7243 35.7572ZM29.1709 30.8555L37.0263 24.6673L37.0197 24.6589L37.013 24.6506L29.1709 30.8555ZM29.9494 32.0343L21.1825 36.845L24.2852 42.4994L30.716 42.0049L29.9494 32.0343ZM37.9037 31.4227L38.6704 41.3933L50.1429 40.5112L47.67 29.2736L37.9037 31.4227ZM37.7628 30.1984L47.7628 30.2067V30.1984H37.7628ZM43.6851 36.5144L51.5342 30.3182L46.0638 23.3886L38.5096 27.9578L43.6851 36.5144ZM51.6561 46.6117L61.2656 49.3789L62.6864 44.4453L59.5052 40.4155L51.6561 46.6117ZM51.9838 49.909L61.326 46.342L61.3229 46.334L51.9838 49.909ZM54.1367 53.0769H64.1367V48.5704L60.7607 45.5854L54.1367 53.0769ZM54.1367 63.7792L51.1592 73.3256L64.1367 77.3733V63.7792H54.1367ZM54.0032 63.7411L44.665 67.3186L46.5009 72.1106L51.4644 73.4134L54.0032 63.7411ZM43.5925 36.5664L38.9864 27.6904L31.0593 31.804L34.2543 40.1439L43.5925 36.5664ZM38.8284 33.7345L47.0052 39.4912L50.7135 34.224L47.451 28.6697L38.8284 33.7345ZM28.4179 48.5214L21.6023 55.8391L29.9934 63.6544L36.5946 54.2782L28.4179 48.5214ZM28.2821 48.3984H18.2821V52.916L21.672 55.9022L28.2821 48.3984ZM28.2821 37.695L31.2054 28.1319L18.2821 24.1813V37.695H28.2821ZM30.435 37.0888L22.2546 31.3372L22.248 31.3465L22.2415 31.3559L30.435 37.0888ZM30.7613 34.1746L29.9948 24.204L18.572 25.0821L20.9858 36.2815L30.7613 34.1746ZM38.73 33.562L47.4687 28.7004L44.3532 23.1002L37.9636 23.5914L38.73 33.562ZM42.1724 36.6743L51.5106 33.0968L49.6655 28.2805L44.6715 26.9916L42.1724 36.6743ZM52.5806 63.8424L57.1617 72.7314L65.1229 68.6285L61.9188 60.265L52.5806 63.8424ZM51.9738 64.3821L60.1612 70.1239L60.168 70.1141L60.1748 70.1043L51.9738 64.3821ZM51.6106 65.2232L46.4976 73.8173L58.1851 80.7706L61.3381 67.5417L51.6106 65.2232ZM30.8085 52.8473L20.9769 54.6749L21.8044 59.1264L25.6956 61.4414L30.8085 52.8473ZM30.4449 51.5738L39.7852 48.0017L39.7823 47.9941L39.7794 47.9865L30.4449 51.5738ZM29.8391 50.3178L21.6623 44.5612L17.958 49.8228L21.2117 55.3744L29.8391 50.3178ZM40.2493 35.5311L47.0594 28.2083L38.6687 20.4051L32.0725 29.7744L40.2493 35.5311ZM41.2094 36.2594L46.3223 27.6653L46.315 27.6609L41.2094 36.2594ZM43.7583 68.0426L34.9352 72.7494L38.0105 78.514L44.5248 78.0131L43.7583 68.0426ZM51.6775 67.4337L52.4441 77.4043L64.0837 76.5094L61.4121 65.1452L51.6775 67.4337ZM51.6139 67.1327L61.4432 65.2929L60.6116 60.8498L56.7269 58.5387L51.6139 67.1327ZM30.804 54.7522L35.917 46.1581L24.273 39.2307L21.0848 52.3991L30.804 54.7522ZM30.7683 54.8861L21.1669 52.0907L19.7266 57.0379L22.9192 61.0822L30.7683 54.8861ZM38.7263 64.967L30.8772 71.1632L36.3884 78.1446L43.9649 73.485L38.7263 64.967ZM41.2094 65.2175L36.0828 73.8034L36.0961 73.8114L36.1094 73.8192L41.2094 65.2175ZM36.6645 41.5572L44.6166 51.6308L60.3148 39.2386L52.3627 29.165L36.6645 41.5572ZM57.8337 53.8717C56.5951 54.6598 55.2675 55.0508 54.0398 55.1484L52.4559 35.2112C50.6499 35.3547 48.7953 35.9174 47.0976 36.9976L57.8337 53.8717ZM53.9863 55.1525C52.3405 55.2743 51.1008 54.8629 50.4308 54.5604C49.7447 54.2508 49.3323 53.915 49.1445 53.7447C48.7948 53.4276 48.6867 53.2032 48.6259 53.0451L67.2912 45.8614C66.2724 43.2142 64.6336 40.792 62.5803 38.9299C60.8011 37.3163 57.2599 34.8554 52.5095 35.2071L53.9863 55.1525ZM48.6164 53.0203C48.5952 52.9647 48.1659 51.8911 48.6391 50.119C48.8944 49.163 49.4966 47.7527 50.8445 46.4761C52.282 45.1146 54.0996 44.3597 55.888 44.215L57.5009 64.1499C63.5207 63.6628 66.9188 59.1856 67.962 55.2789C68.8919 51.7964 68.27 48.4249 67.3007 45.8862L48.6164 53.0203ZM55.9451 44.2106C57.1282 44.1217 58.1027 44.3095 58.788 44.526L52.7641 63.5972C54.0935 64.0171 55.6866 64.2864 57.4438 64.1543L55.9451 44.2106ZM45.776 54.0616V64.7506H65.776V54.0616H45.776ZM49.1801 72.2668C49.0086 72.1163 48.9015 71.9934 48.84 71.9155L64.5293 59.5122C63.8996 58.7156 63.1806 57.944 62.372 57.2344L49.1801 72.2668ZM48.8355 71.9099C48.7349 71.7824 48.5934 71.5731 48.4973 71.0988C48.4458 70.8448 48.367 70.3089 48.4551 69.5488C48.5413 68.8047 48.831 67.5157 49.795 66.158L66.1025 77.7367C68.8809 73.8235 68.5778 69.4904 68.0989 67.1268C67.546 64.3985 66.2935 61.747 64.5337 59.5178L48.8355 71.9099ZM49.7556 66.2139C50.7973 64.7254 52.3895 63.5308 54.3116 62.9847C56.1095 62.4739 57.6357 62.6816 58.583 62.9501C60.3402 63.4481 61.04 64.3601 61.0798 64.4104L45.396 76.8208C47.0851 78.9554 49.6662 81.2107 53.1295 82.1922C57.0063 83.291 62.6434 82.68 66.1418 77.6809L49.7556 66.2139ZM61.0768 64.4066C61.1504 64.4995 61.1989 64.5778 61.2355 64.6474L43.5355 73.9591C44.0622 74.9603 44.6864 75.925 45.399 76.8246L61.0768 64.4066ZM51.6192 59.3327L43.7155 59.9402L45.2482 79.8814L53.1519 79.2739L51.6192 59.3327ZM34.7643 72.2705C34.7179 72.0794 34.6555 71.7416 34.656 71.2686L54.656 71.2883C54.6573 69.9568 54.4773 68.6955 54.1995 67.5511L34.7643 72.2705ZM34.656 71.2784C34.656 70.3184 35.0638 66.8971 38.6886 64.8272C42.3276 62.7492 45.4941 64.1517 46.3223 64.6445L36.0965 81.8326C38.8307 83.4593 43.7205 84.985 48.6063 82.195C53.4779 79.4131 54.656 74.4448 54.656 71.2784H34.656ZM46.3223 64.6445C46.8172 64.9389 47.1001 65.2175 47.2245 65.3527C47.3574 65.4971 47.4261 65.6043 47.4642 65.6714C47.5024 65.7385 47.5594 65.8523 47.6155 66.0403C47.668 66.2162 47.7628 66.6017 47.7628 67.1774H27.7628C27.7628 70.4287 28.8264 73.3555 30.0784 75.5574C31.3304 77.7592 33.3019 80.17 36.0965 81.8326L46.3223 64.6445ZM47.7628 67.1774C47.7628 67.5918 47.7131 68.216 47.4887 68.9719L28.3158 63.2795C27.9099 64.6468 27.7628 65.9746 27.7628 67.1774H47.7628ZM45.7513 59.9296L37.8014 49.8589L22.1033 62.2512L30.0532 72.3218L45.7513 59.9296ZM24.651 47.5758C25.8754 46.8104 27.1813 46.4306 28.3881 46.3346L29.9736 66.2717C31.7497 66.1305 33.5751 65.5836 35.2536 64.5342L24.651 47.5758ZM28.4832 46.3275C30.1072 46.214 31.3304 46.62 31.9957 46.9206C32.6765 47.2282 33.0872 47.5617 33.2767 47.7336C33.6292 48.0533 33.745 48.2865 33.8122 48.4624L15.128 55.5969C16.1433 58.2558 17.7849 60.6838 19.841 62.5485C21.6318 64.1726 25.1568 66.609 29.8785 66.2788L28.4832 46.3275ZM33.8124 48.463C33.8336 48.5187 34.2627 49.592 33.7897 51.3637C33.5345 52.3195 32.9323 53.7296 31.5848 55.0061C30.1475 56.3677 28.3299 57.1228 26.5412 57.2676L24.9271 37.3329C18.9069 37.8203 15.5096 42.2983 14.4667 46.204C13.5369 49.6863 14.1585 53.0575 15.1278 55.5964L33.8124 48.463ZM26.4838 57.2721C25.3132 57.3601 24.3469 57.1771 23.6635 56.9639L29.622 37.872C28.3015 37.4599 26.7233 37.1977 24.9845 37.3284L26.4838 57.2721ZM36.6427 47.4179V36.7291H16.6427V47.4179H36.6427ZM33.2236 29.1996C33.3985 29.3525 33.5072 29.4773 33.5692 29.5558L17.8794 41.9586C18.5155 42.7633 19.2428 43.5427 20.0619 44.2586L33.2236 29.1996ZM33.5662 29.552C33.6878 29.7056 33.8265 29.9236 33.9195 30.3834C33.9696 30.6309 34.0468 31.1542 33.9627 31.8987C33.8807 32.624 33.6022 33.9013 32.6537 35.2569L16.2668 23.7907C13.5346 27.6955 13.8415 32.0013 14.317 34.3507C14.8668 37.0673 16.1116 39.7245 17.8824 41.9624L33.5662 29.552ZM32.6537 35.2569C31.6123 36.7451 30.0204 37.9399 28.0981 38.4862C26.3 38.9972 24.7736 38.7895 23.826 38.521C22.0684 38.0228 21.3685 37.1105 21.3288 37.0604L37.013 24.6506C35.3241 22.516 32.7429 20.2604 29.2793 19.2788C25.4016 18.1798 19.7647 18.7918 16.2668 23.7907L32.6537 35.2569ZM21.3156 37.0437C21.2541 36.9657 21.2131 36.9007 21.1825 36.845L38.7162 27.2237C38.2283 26.3345 37.6629 25.4755 37.0263 24.6673L21.3156 37.0437ZM30.716 42.0049L38.6704 41.3933L37.1371 21.4522L29.1827 22.0638L30.716 42.0049ZM47.67 29.2736C47.7123 29.4656 47.7632 29.7801 47.7628 30.2067L27.7628 30.1902C27.7618 31.3886 27.9076 32.5276 28.1374 33.5719L47.67 29.2736ZM47.7628 30.1984C47.7628 31.1337 47.3659 34.5778 43.715 36.6542C40.0637 38.7308 36.9003 37.3108 36.0965 36.8326L46.3223 19.6445C43.6124 18.0322 38.7258 16.4834 33.8277 19.2691C28.93 22.0545 27.7628 27.0456 27.7628 30.1984H47.7628ZM36.0965 36.8326C35.6016 36.5382 35.3188 36.2596 35.1944 36.1245C35.0615 35.98 34.9928 35.8729 34.9546 35.8057C34.9164 35.7386 34.8594 35.6247 34.8033 35.4367C34.7508 35.2607 34.656 34.8752 34.656 34.2994H54.656C54.656 31.0481 53.5924 28.1213 52.3403 25.9194C51.0882 23.7176 49.1167 21.3069 46.3223 19.6445L36.0965 36.8326ZM34.656 34.2994C34.656 33.8806 34.7068 33.2474 34.9374 32.4809L54.0898 38.2414C54.5056 36.8589 54.656 35.5155 54.656 34.2994H34.656ZM35.8361 42.7105L43.8071 52.8079L59.5052 40.4155L51.5342 30.3182L35.8361 42.7105ZM42.0467 43.8444C41.4953 45.7591 41.4456 47.5919 41.5981 49.1267L61.5001 47.1491C61.54 47.551 61.5632 48.3457 61.2656 49.3789L42.0467 43.8444ZM41.5981 49.1267C41.7532 50.6871 42.1374 52.159 42.6447 53.4841L61.3229 46.334C61.369 46.4544 61.4576 46.7217 61.5001 47.1491L41.5981 49.1267ZM42.6416 53.476C43.6813 56.1991 45.3815 58.6841 47.5128 60.5685L60.7607 45.5854C60.9817 45.7808 61.0994 45.9343 61.1586 46.0206C61.2212 46.1118 61.2767 46.213 61.326 46.342L42.6416 53.476ZM44.1367 53.0769V63.7792H64.1367V53.0769H44.1367ZM57.1142 54.2328C56.8986 54.1655 56.705 54.1115 56.542 54.0687L51.4644 73.4134C51.3899 73.3939 51.2853 73.365 51.1592 73.3256L57.1142 54.2328ZM63.3414 60.1636L52.9307 32.9889L34.2543 40.1439L44.665 67.3186L63.3414 60.1636ZM48.1986 45.4424C48.4338 45.3204 48.6545 45.1955 48.8606 45.0709L38.5096 27.9578C38.6552 27.8698 38.8141 27.7798 38.9864 27.6904L48.1986 45.4424ZM30.6517 27.9777L20.2411 42.7647L36.5946 54.2782L47.0052 39.4912L30.6517 27.9777ZM35.2334 41.2037C35.1219 41.0999 35.0082 40.9968 34.8921 40.8946L21.672 55.9022C21.647 55.8801 21.6238 55.8591 21.6023 55.8391L35.2334 41.2037ZM38.2821 48.3984V37.695H18.2821V48.3984H38.2821ZM25.3587 47.2582C29.2155 48.4372 35.0254 47.9712 38.6285 42.8218L22.2415 31.3559C23.3118 29.8262 24.9552 28.6179 26.9223 28.092C28.7515 27.6028 30.282 27.8496 31.2054 28.1319L25.3587 47.2582ZM38.6154 42.8405C40.0282 40.831 40.6117 38.6978 40.808 36.9449L20.9322 34.7194C21.0163 33.9679 21.3038 32.6895 22.2546 31.3372L38.6154 42.8405ZM40.808 36.9449C41.0061 35.1755 40.8475 33.5091 40.5368 32.0677L20.9858 36.2815C20.9308 36.0263 20.8462 35.4874 20.9322 34.7194L40.808 36.9449ZM31.5278 44.1452L39.4965 43.5326L37.9636 23.5914L29.9948 24.204L31.5278 44.1452ZM29.9913 38.4236C30.0534 38.5352 30.1254 38.6621 30.2059 38.7992L47.451 28.6697C47.4646 28.6928 47.4709 28.7044 47.4687 28.7004L29.9913 38.4236ZM32.8343 40.2518L43.2424 67.4199L61.9188 60.265L51.5106 33.0968L32.8343 40.2518ZM47.9995 54.9535C46.2163 55.8725 44.8023 57.1844 43.7729 58.6599L60.1748 70.1043C59.4733 71.1097 58.4681 72.0582 57.1617 72.7314L47.9995 54.9535ZM43.7865 58.6404C42.7851 60.0683 42.2038 61.5591 41.883 62.9048L61.3381 67.5417C61.1721 68.2381 60.8354 69.1624 60.1612 70.1239L43.7865 58.6404ZM40.6401 51.0196C40.4435 49.9621 40.1479 48.95 39.7852 48.0017L21.1047 55.1458C21.0693 55.0534 21.0185 54.8989 20.9769 54.6749L40.6401 51.0196ZM39.7794 47.9865C39.4151 47.0385 38.9727 46.1251 38.4665 45.2613L21.2117 55.3744C21.1801 55.3203 21.1457 55.2526 21.1105 55.1611L39.7794 47.9865ZM38.016 56.0745L48.4261 41.2878L32.0725 29.7744L21.6623 44.5612L38.016 56.0745ZM33.4392 42.8539C34.2072 43.5681 35.0949 44.2587 36.1038 44.8578L46.315 27.6609C46.6743 27.8743 46.9156 28.0747 47.0594 28.2083L33.4392 42.8539ZM36.0965 44.8534C37.1158 45.4599 38.3132 46.006 39.6734 46.357L44.6715 26.9916C45.4204 27.1849 45.9717 27.4567 46.3223 27.6653L36.0965 44.8534ZM44.5248 78.0131L52.4441 77.4043L50.911 57.4631L42.9917 58.072L44.5248 78.0131ZM61.4121 65.1452C61.4226 65.1895 61.4331 65.2387 61.4432 65.2929L41.7846 68.9725C41.8321 69.226 41.885 69.476 41.9429 69.7222L61.4121 65.1452ZM56.7269 58.5387L35.917 46.1581L25.6911 63.3462L46.501 75.7268L56.7269 58.5387ZM21.0848 52.3991C21.1127 52.2841 21.1407 52.1808 21.1669 52.0907L40.3696 57.6814C40.4214 57.5037 40.4734 57.3113 40.5233 57.1053L21.0848 52.3991ZM22.9192 61.0822L30.8772 71.1632L46.5753 58.7709L38.6174 48.69L22.9192 61.0822ZM43.9649 73.485C42.1675 74.5905 40.2983 74.8277 38.8564 74.6823L40.8636 54.7832C38.5683 54.5517 35.9277 54.9483 33.4876 56.449L43.9649 73.485ZM38.8564 74.6823C37.499 74.5453 36.561 74.0889 36.0828 73.8034L46.336 56.6316C44.9306 55.7924 43.0746 55.0062 40.8636 54.7832L38.8564 74.6823ZM36.1094 73.8192C35.587 73.5095 35.2991 73.2197 35.1782 73.0857L50.0276 59.6881C49.0287 58.5809 47.7915 57.4945 46.3094 56.6158L36.1094 73.8192ZM35.1782 73.0857C35.1078 73.0077 35.0582 72.9428 35.0234 72.8929C34.9884 72.8427 34.9599 72.7956 34.9352 72.7494L52.5813 63.3357C51.893 62.0456 51.0369 60.8067 50.0276 59.6881L35.1782 73.0857ZM56.7235 56.6292L35.9214 44.2532L25.6956 61.4414L46.4976 73.8173L56.7235 56.6292Z"
            fill="#D346A7" mask="url(#path-3-inside-1_255_7574)" />
    </g>
    <defs>
        <clipPath id="clip0_255_7574">
            <rect width="85" height="98" fill="white" />
        </clipPath>
    </defs>
</svg>