<svg width="166" height="137" viewBox="0 0 166 137" fill="none" xmlns="http://www.w3.org/2000/svg">
  <rect opacity="0.4" width="73.7451" height="73.7451" rx="8.72958"
    transform="matrix(0.864164 0.50321 -0.864164 0.50321 94.5 35.5059)" fill="#C3F8FB" />
  <rect width="82.7389" height="82.7389" rx="8.72958"
    transform="matrix(0.864164 0.50321 -0.864164 0.50321 94.5 16.8252)" fill="#5CC3C9"
    stroke="white" stroke-linejoin="round" />
  <path opacity="0.3"
    d="M70.7239 35.3295L77.1248 39.065L81.6739 36.4656C82.5584 35.8984 83.5847 35.5972 84.6328 35.5972C85.6808 35.5972 86.7072 35.8984 87.5916 36.4656L100.675 44.1408C102.693 45.2854 104.931 45.9779 107.237 46.1712C109.419 46.4464 111.634 46.2238 113.719 45.5208C113.171 45.9588 112.769 46.5548 112.568 47.23C112.366 47.9051 112.375 48.6277 112.592 49.298C112.883 50.1314 113.335 50.8971 113.922 51.5524C114.51 52.2077 115.221 52.7393 116.014 53.1148L129.097 60.79C131.07 61.9676 131.11 63.1041 129.097 64.2817L124.468 66.9604L130.869 70.7375L138.92 66.1494C141.577 64.6064 142.946 62.9813 142.946 61.2758C142.946 59.5703 141.617 58.0285 138.92 56.4855L125.715 48.7289C123.823 47.6326 122.857 46.6571 122.777 45.8044C122.696 44.9516 123.26 44.0596 124.709 43.0444L126.964 41.4602L120.804 37.8456L118.107 39.1463C116.641 39.9543 114.986 40.3463 113.316 40.2824C111.544 40.1123 109.835 39.5288 108.324 38.5772L95.1601 30.8207C92.7255 29.3466 89.9478 28.5488 87.1086 28.5068C84.176 28.5161 81.2993 29.3144 78.7755 30.8207L70.7239 35.3295Z"
    fill="#C3F8FB" stroke="#C3F8FB" stroke-linejoin="round" />
  <path d="M70.7238 16.8218L70.7641 30.0596L77.165 33.836L77.1248 20.5982L70.7238 16.8218Z"
    fill="#02507B" stroke="#02507B" stroke-linejoin="round" />
  <path fill-rule="evenodd" clip-rule="evenodd"
    d="M124.709 24.4554L124.709 24.4552L126.964 22.8716L127.004 36.15L124.749 37.6931L124.749 37.5759L124.709 37.6927C123.42 38.586 122.736 39.4392 122.736 40.2108V26.9739C122.736 26.0806 123.42 25.3492 124.709 24.4558L124.709 24.4554Z"
    fill="#02507B" />
  <path
    d="M124.709 24.4552L124.209 24.4565C124.209 24.2932 124.288 24.14 124.422 24.0461L124.709 24.4552ZM124.709 24.4554L125.209 24.4542C125.21 24.6259 125.122 24.7859 124.977 24.8778L124.709 24.4554ZM126.964 22.8716L126.676 22.4624C126.829 22.3553 127.028 22.3419 127.194 22.4276C127.359 22.5132 127.463 22.6838 127.464 22.8701L126.964 22.8716ZM127.004 36.15L127.504 36.1485C127.504 36.314 127.423 36.4691 127.286 36.5626L127.004 36.15ZM124.749 37.6931L125.032 38.1057C124.879 38.2103 124.681 38.2218 124.517 38.1357C124.353 38.0495 124.25 37.8798 124.249 37.6946L124.749 37.6931ZM124.749 37.5759L124.277 37.4121C124.357 37.1818 124.591 37.0426 124.831 37.0828C125.072 37.1229 125.248 37.3306 125.249 37.5744L124.749 37.5759ZM124.709 37.6927L125.181 37.8565C125.146 37.9567 125.081 38.0432 124.994 38.1036L124.709 37.6927ZM123.236 40.2108C123.236 40.4869 123.012 40.7108 122.736 40.7108C122.46 40.7108 122.236 40.4869 122.236 40.2108H123.236ZM124.709 24.4558L124.424 24.0449C124.429 24.041 124.435 24.0372 124.441 24.0335L124.709 24.4558ZM125.209 24.454L125.209 24.4542L124.209 24.4567L124.209 24.4565L125.209 24.454ZM127.251 23.2807L124.997 24.8644L124.422 24.0461L126.676 22.4624L127.251 23.2807ZM126.504 36.1515L126.464 22.8731L127.464 22.8701L127.504 36.1485L126.504 36.1515ZM124.467 37.2804L126.721 35.7374L127.286 36.5626L125.032 38.1057L124.467 37.2804ZM125.249 37.5744L125.249 37.6915L124.249 37.6946L124.249 37.5775L125.249 37.5744ZM124.236 37.5288L124.277 37.4121L125.222 37.7398L125.181 37.8565L124.236 37.5288ZM122.236 40.2108C122.236 39.6736 122.474 39.1609 122.847 38.6879C123.22 38.2137 123.756 37.7445 124.424 37.2818L124.994 38.1036C124.373 38.5342 123.922 38.9383 123.632 39.3069C123.34 39.6767 123.236 39.9764 123.236 40.2108H122.236ZM123.236 26.9739V40.2108H122.236V26.9739H123.236ZM124.994 24.8667C123.691 25.77 123.236 26.3668 123.236 26.9739H122.236C122.236 25.7944 123.15 24.9283 124.424 24.0449L124.994 24.8667ZM124.977 24.8778L124.976 24.8782L124.441 24.0335L124.442 24.0331L124.977 24.8778Z"
    fill="#02507B" />
  <path
    d="M81.8345 31.0938C82.6785 30.5827 83.6455 30.3128 84.6325 30.3128C85.6827 30.3128 86.7104 30.6184 87.5913 31.1952V31.1325L100.836 38.8301L100.836 38.8121C102.838 39.9537 105.065 40.639 107.358 40.8194C109.537 41.0878 111.747 40.8804 113.839 40.2107V26.9322C111.754 27.6352 109.539 27.8578 107.358 27.5826C105.051 27.3893 102.813 26.6968 100.796 25.5522V25.5923L87.1539 17.5266V17.7053C86.376 17.302 85.5119 17.0898 84.6325 17.0898C83.6317 17.0898 82.6508 17.3645 81.7943 17.8831L81.7943 17.877L77.1244 20.5977L77.1647 33.8355L81.8345 31.1148L81.8345 31.0938Z"
    fill="#02507B" stroke="#02507B" stroke-linejoin="round" />
  <path fill-rule="evenodd" clip-rule="evenodd"
    d="M112.712 30.7104V43.9473C112.999 44.7829 113.45 45.5518 114.038 46.2077C114.626 46.8635 115.339 47.3925 116.135 47.7641L116.175 47.7867L116.175 47.8051L129.259 55.4798L129.258 55.439C130.224 56.048 130.748 56.6171 130.748 57.1855V43.9467C130.748 43.3782 130.224 42.811 129.258 42.2019L129.218 42.2263L129.218 42.2014L116.155 34.5792L116.135 34.5273C115.342 34.1518 114.631 33.6202 114.043 32.9648C113.456 32.3095 113.003 31.5438 112.712 30.7104Z"
    fill="#02507B" />
  <path
    d="M112.712 43.9473L112.239 44.1096C112.222 44.0574 112.212 44.0025 112.212 43.9473H112.712ZM112.712 30.7104H112.212C112.212 30.4665 112.388 30.2582 112.629 30.2175C112.869 30.1767 113.104 30.3154 113.184 30.5457L112.712 30.7104ZM114.038 46.2077L113.666 46.5414H113.666L114.038 46.2077ZM116.135 47.7641L116.346 47.3111C116.358 47.3165 116.369 47.3223 116.38 47.3285L116.135 47.7641ZM116.175 47.7867L116.42 47.3511C116.577 47.4395 116.674 47.6052 116.675 47.7852L116.175 47.7867ZM116.175 47.8051L115.922 48.2364C115.769 48.1469 115.675 47.9835 115.675 47.8067L116.175 47.8051ZM129.259 55.4798L129.759 55.4783C129.759 55.6578 129.663 55.8238 129.508 55.9133C129.352 56.0028 129.16 56.0019 129.006 55.9111L129.259 55.4798ZM129.258 55.439L128.758 55.4405C128.758 55.2581 128.857 55.0899 129.016 55.0015C129.176 54.9132 129.371 54.9187 129.525 55.016L129.258 55.439ZM131.248 57.1855C131.248 57.4617 131.024 57.6855 130.748 57.6855C130.471 57.6855 130.248 57.4617 130.248 57.1855H131.248ZM129.258 42.2019L128.996 41.7762C129.158 41.6761 129.363 41.6772 129.525 41.7789L129.258 42.2019ZM129.218 42.2263L129.481 42.652C129.327 42.7469 129.133 42.7512 128.975 42.6632C128.817 42.5752 128.719 42.4087 128.718 42.2278L129.218 42.2263ZM129.218 42.2014L129.47 41.7695C129.623 41.8589 129.718 42.0226 129.718 42.1999L129.218 42.2014ZM116.155 34.5792L115.903 35.0111C115.806 34.9543 115.73 34.8663 115.689 34.7614L116.155 34.5792ZM116.135 34.5273L116.349 34.0754C116.464 34.1299 116.554 34.2264 116.6 34.3451L116.135 34.5273ZM114.043 32.9648L114.415 32.6311V32.6311L114.043 32.9648ZM112.212 43.9473V30.7104H113.212V43.9473H112.212ZM113.666 46.5414C113.033 45.8356 112.548 45.0083 112.239 44.1096L113.185 43.785C113.45 44.5574 113.867 45.268 114.411 45.8739L113.666 46.5414ZM115.923 48.2171C115.067 47.817 114.299 47.2474 113.666 46.5414L114.411 45.8739C114.954 46.4796 115.612 46.968 116.346 47.3111L115.923 48.2171ZM115.929 48.2223L115.889 48.1997L116.38 47.3285L116.42 47.3511L115.929 48.2223ZM115.675 47.8067L115.675 47.7883L116.675 47.7852L116.675 47.8036L115.675 47.8067ZM129.006 55.9111L115.922 48.2364L116.428 47.3738L129.512 55.0485L129.006 55.9111ZM129.758 55.4374L129.759 55.4783L128.759 55.4813L128.758 55.4405L129.758 55.4374ZM129.525 55.016C130.028 55.3328 130.446 55.6577 130.743 55.9995C131.041 56.3424 131.248 56.7389 131.248 57.1855H130.248C130.248 57.0637 130.193 56.8915 129.988 56.6554C129.782 56.4183 129.455 56.1541 128.992 55.8619L129.525 55.016ZM130.248 57.1855V43.9467H131.248V57.1855H130.248ZM130.248 43.9467C130.248 43.8251 130.193 43.6534 129.988 43.4178C129.782 43.181 129.455 42.9172 128.991 42.6248L129.525 41.7789C130.027 42.0956 130.445 42.4199 130.742 42.7612C131.04 43.1036 131.248 43.4998 131.248 43.9467H130.248ZM129.52 42.6276L129.481 42.652L128.956 41.8006L128.996 41.7762L129.52 42.6276ZM129.718 42.1999L129.718 42.2248L128.718 42.2278L128.718 42.2029L129.718 42.1999ZM116.407 34.1474L129.47 41.7695L128.966 42.6333L115.903 35.0111L116.407 34.1474ZM116.6 34.3451L116.621 34.3971L115.689 34.7614L115.669 34.7094L116.6 34.3451ZM114.415 32.6311C114.959 33.2372 115.616 33.7285 116.349 34.0754L115.921 34.9791C115.067 34.575 114.302 34.0031 113.671 33.2986L114.415 32.6311ZM113.184 30.5457C113.453 31.3167 113.872 32.0249 114.415 32.6311L113.671 33.2986C113.039 32.5941 112.553 31.771 112.24 30.8752L113.184 30.5457Z"
    fill="#02507B" />
  <path d="M124.589 48.4136L124.629 61.6514L131.03 65.3872L130.99 52.1494L124.589 48.4136Z"
    fill="#02507B" stroke="#02507B" stroke-linejoin="round" />
  <path fill-rule="evenodd" clip-rule="evenodd"
    d="M138.88 47.5618V47.5616C141.537 46.0185 142.825 44.3935 142.906 42.688V55.9268C142.906 57.6237 141.551 59.2389 138.92 60.7749L138.92 60.7995L131.03 65.388L130.99 52.1502L138.88 47.5618Z"
    fill="#02507B" />
  <path
    d="M138.88 47.5616H138.38C138.38 47.3834 138.475 47.2187 138.629 47.1292L138.88 47.5616ZM138.88 47.5618H139.38C139.38 47.7399 139.285 47.9045 139.131 47.994L138.88 47.5618ZM142.906 42.688L142.406 42.6644C142.419 42.3932 142.646 42.1817 142.918 42.1881C143.189 42.1945 143.406 42.4164 143.406 42.688H142.906ZM138.92 60.7749L138.42 60.7764C138.42 60.5981 138.514 60.4331 138.668 60.3431L138.92 60.7749ZM138.92 60.7995L139.42 60.798C139.421 60.9766 139.326 61.1419 139.172 61.2317L138.92 60.7995ZM131.03 65.388L131.281 65.8203C131.127 65.9101 130.936 65.9107 130.781 65.8218C130.626 65.733 130.531 65.5682 130.53 65.3896L131.03 65.388ZM130.99 52.1502L130.49 52.1517C130.489 51.9731 130.584 51.8078 130.738 51.718L130.99 52.1502ZM139.38 47.5616V47.5618H138.38V47.5616H139.38ZM143.405 42.7116C143.312 44.6786 141.832 46.4255 139.131 47.994L138.629 47.1292C141.242 45.6116 142.338 44.1084 142.406 42.6644L143.405 42.7116ZM142.406 55.9268V42.688H143.406V55.9268H142.406ZM138.668 60.3431C141.274 58.8217 142.406 57.3355 142.406 55.9268H143.406C143.406 57.9118 141.828 59.6561 139.173 61.2067L138.668 60.3431ZM138.421 60.801L138.42 60.7764L139.42 60.7734L139.42 60.798L138.421 60.801ZM130.779 64.9558L138.669 60.3673L139.172 61.2317L131.281 65.8203L130.779 64.9558ZM131.49 52.1487L131.53 65.3865L130.53 65.3896L130.49 52.1517L131.49 52.1487ZM139.131 47.994L131.241 52.5825L130.738 51.718L138.629 47.1296L139.131 47.994Z"
    fill="#02507B" />
  <path
    d="M70.7239 16.8227L77.1248 20.5582L81.6739 17.9588C82.5584 17.3916 83.5847 17.0903 84.6328 17.0903C85.6808 17.0903 86.7072 17.3916 87.5916 17.9588L100.675 25.634C102.693 26.7786 104.931 27.4711 107.237 27.6644C109.419 27.9396 111.634 27.7169 113.719 27.014C113.171 27.452 112.769 28.048 112.568 28.7231C112.366 29.3983 112.375 30.1209 112.592 30.7912C112.883 31.6245 113.335 32.3902 113.922 33.0456C114.51 33.7009 115.221 34.2325 116.014 34.608L129.097 42.2832C131.07 43.4608 131.11 44.5972 129.097 45.7748L124.468 48.4535L130.869 52.2307L138.92 47.6426C141.577 46.0995 142.946 44.4745 142.946 42.769C142.946 41.0635 141.617 39.5217 138.92 37.9786L125.715 30.2221C123.823 29.1257 122.857 28.1503 122.777 27.2975C122.696 26.4448 123.26 25.5527 124.709 24.5376L126.964 22.9533L120.804 19.3388L118.107 20.6395C116.641 21.4474 114.986 21.8394 113.316 21.7756C111.544 21.6055 109.835 21.0219 108.324 20.0704L95.1601 12.3139C92.7255 10.8398 89.9478 10.042 87.1086 10C84.176 10.0092 81.2993 10.8076 78.7755 12.3139L70.7239 16.8227Z"
    fill="white" stroke="#02507B" stroke-linejoin="round" />
  <path opacity="0.3"
    d="M49.855 52.2585C47.3839 53.7157 46.0532 55.2119 46.0532 56.7841C46.0532 58.3564 47.1938 59.9294 49.855 61.3866L62.3244 68.7096C64.0352 69.7066 64.9856 70.5894 65.1757 71.3947C65.3658 72.2 64.6435 73.1211 63.2748 74.0797L61.1461 75.5365L67.0005 78.9481L69.5098 77.7216C70.9143 76.9759 72.4854 76.607 74.0721 76.6487C75.7243 76.8271 77.3123 77.3905 78.7102 78.2964L91.18 85.6214C93.5476 87.0276 96.2448 87.7691 98.9924 87.7691C101.74 87.7691 104.438 87.0276 106.805 85.6214L114.409 81.2886L108.364 77.7216L103.916 80.3299C103.088 80.8667 102.125 81.1519 101.141 81.1519C100.157 81.1519 99.1928 80.8667 98.3649 80.3299L86.0092 73.0817C84.1012 72.0142 81.9882 71.3744 79.8128 71.2037C77.75 70.9481 75.6561 71.1707 73.6916 71.8553C74.1956 71.4227 74.5645 70.8511 74.7534 70.2113C74.9424 69.5715 74.9434 68.8912 74.7562 68.2509C74.208 66.6603 73.0608 65.3507 71.5629 64.6071L59.2072 57.359C57.3063 56.2852 57.3063 55.2121 59.2072 54.1384L63.693 51.5301L57.6103 48.0024L49.855 52.2585Z"
    fill="#C3F8FB" stroke="#C3F8FB" stroke-linejoin="round" />
  <path fill-rule="evenodd" clip-rule="evenodd"
    d="M58.9031 35.6273L58.9409 48.0554L63.427 45.4861L63.6948 45.3403L63.6948 33.0932L63.3889 32.9849L58.9031 35.554V35.4775C58.0287 36.091 57.5721 36.5902 57.5721 37.1271V49.6274C57.5721 49.0906 58.0287 48.5914 58.9031 48.0546V35.6273Z"
    fill="#02507B" />
  <path
    d="M58.9031 35.6273H58.4031C58.4031 35.3515 58.6265 35.1278 58.9023 35.1273C59.1782 35.1269 59.4022 35.35 59.4031 35.6258L58.9031 35.6273ZM58.9409 48.0554L59.1894 48.4892C59.0349 48.5777 58.845 48.5774 58.6908 48.4883C58.5366 48.3993 58.4414 48.2349 58.4409 48.0569L58.9409 48.0554ZM63.427 45.4861L63.1784 45.0521L63.188 45.0469L63.427 45.4861ZM63.6948 45.3403L64.1948 45.3403C64.1948 45.5235 64.0947 45.692 63.9338 45.7795L63.6948 45.3403ZM63.6948 33.0932L63.8617 32.6219C64.0614 32.6926 64.1948 32.8814 64.1948 33.0932L63.6948 33.0932ZM63.3889 32.9849L63.1404 32.551C63.2668 32.4786 63.4185 32.4649 63.5558 32.5135L63.3889 32.9849ZM58.9031 35.554L59.1516 35.9879C58.9968 36.0765 58.8066 36.076 58.6523 35.9866C58.4981 35.8971 58.4031 35.7323 58.4031 35.554H58.9031ZM58.9031 35.4775L58.6159 35.0682C58.7686 34.961 58.9682 34.9478 59.1337 35.0339C59.2992 35.1199 59.4031 35.2909 59.4031 35.4775H58.9031ZM58.0721 49.6274C58.0721 49.9036 57.8482 50.1274 57.5721 50.1274C57.296 50.1274 57.0721 49.9036 57.0721 49.6274H58.0721ZM58.9031 48.0546H59.4031C59.4031 48.2284 59.3128 48.3897 59.1647 48.4807L58.9031 48.0546ZM59.4031 35.6258L59.4409 48.0538L58.4409 48.0569L58.4031 35.6289L59.4031 35.6258ZM58.6924 47.6215L63.1785 45.0522L63.6754 45.92L59.1894 48.4892L58.6924 47.6215ZM63.188 45.0469L63.4559 44.9011L63.9338 45.7795L63.6659 45.9253L63.188 45.0469ZM63.1948 45.3403L63.1948 33.0932L64.1948 33.0932L64.1948 45.3403L63.1948 45.3403ZM63.5279 33.5645L63.222 33.4562L63.5558 32.5135L63.8617 32.6219L63.5279 33.5645ZM63.6374 33.4187L59.1516 35.9879L58.6546 35.1201L63.1404 32.551L63.6374 33.4187ZM58.4031 35.554V35.4775H59.4031V35.554H58.4031ZM59.1903 35.8868C58.7655 36.1849 58.4752 36.433 58.2941 36.6508C58.1172 36.8635 58.0721 37.013 58.0721 37.1271H57.0721C57.0721 36.7043 57.2553 36.3358 57.5253 36.0113C57.791 35.6919 58.1663 35.3837 58.6159 35.0682L59.1903 35.8868ZM58.0721 37.1271V49.6274H57.0721V37.1271H58.0721ZM57.0721 49.6274C57.0721 49.2047 57.2552 48.8342 57.5311 48.5144C57.8026 48.1997 58.1843 47.9091 58.6415 47.6285L59.1647 48.4807C58.7474 48.7369 58.4636 48.9643 58.2883 49.1676C58.1173 49.3657 58.0721 49.5133 58.0721 49.6274H57.0721ZM58.4031 48.0546V35.6273H59.4031V48.0546H58.4031Z"
    fill="#02507B" />
  <path
    d="M46.1665 38.4312V50.8173C46.1665 52.3284 47.3472 53.8028 49.8539 55.2028L62.2859 62.6827V62.7053C63.9967 63.7023 64.9471 64.5832 65.1372 65.3885V52.8882C64.9471 52.0829 63.9967 51.2001 62.2859 50.2031L49.9682 42.764C47.3831 41.4601 46.1665 39.965 46.1665 38.4312Z"
    fill="#02507B" stroke="#02507B" stroke-linejoin="round" />
  <path
    d="M74.832 63.1656V50.8169C74.8373 51.3121 74.7345 51.8024 74.5308 52.253C74.3271 52.7037 74.0274 53.1044 73.6533 53.4252V65.9255C74.0392 65.5813 74.3452 65.1558 74.5489 64.6785C74.7527 64.2012 74.8493 63.6849 74.832 63.1656Z"
    fill="#02507B" stroke="#02507B" stroke-linejoin="round" />
  <path d="M61.1078 57.0679L61.1458 69.5691L67.0005 72.982L66.9625 60.4808L61.1078 57.0679Z"
    fill="#02507B" stroke="#02507B" stroke-linejoin="round" />
  <path
    d="M69.4716 59.2148C70.8762 58.4691 72.4472 58.0997 74.034 58.1414C75.4708 58.2965 76.859 58.7428 78.116 59.4524V59.3993L91.1416 67.1145C93.5111 68.5327 96.218 69.2753 98.9732 69.2623C101.715 69.2683 104.409 68.5261 106.767 67.1146L114.218 62.7813L114.256 75.2825L106.805 79.6158L106.805 79.5918L106.767 79.6149C104.409 81.0264 101.716 81.7687 98.9732 81.7626C96.218 81.7756 93.5113 81.0331 91.1418 79.6149V79.5936L78.7099 72.3297L78.116 71.9768V71.9545C76.859 71.2445 75.4708 70.7968 74.034 70.6417C72.4615 70.6004 70.9045 70.9641 69.5096 71.6964L69.5096 71.7161L67.0005 72.9815L66.9625 60.4803L69.4716 59.2148Z"
    fill="#02507B" stroke="#02507B" stroke-linejoin="round" />
  <path
    d="M49.855 33.7516C47.3839 35.2088 46.0532 36.7051 46.0532 38.2773C46.0532 39.8495 47.1938 41.4225 49.855 42.8797L62.3244 50.2028C64.0352 51.1998 64.9856 52.0826 65.1757 52.8878C65.3658 53.6931 64.6435 54.6142 63.2748 55.5729L61.1461 57.0297L67.0005 60.4412L69.5098 59.2148C70.9143 58.4691 72.4854 58.1002 74.0721 58.1419C75.7243 58.3202 77.3123 58.8836 78.7102 59.7896L91.18 67.1146C93.5476 68.5208 96.2448 69.2622 98.9924 69.2622C101.74 69.2622 104.438 68.5208 106.805 67.1146L114.409 62.7818L108.364 59.2148L103.916 61.8231C103.088 62.3598 102.125 62.6451 101.141 62.6451C100.157 62.6451 99.1928 62.3598 98.3649 61.8231L86.0092 54.5749C84.1012 53.5074 81.9882 52.8675 79.8128 52.6969C77.75 52.4412 75.656 52.6639 73.6916 53.3485C74.1956 52.9158 74.5645 52.3443 74.7534 51.7045C74.9424 51.0647 74.9434 50.3844 74.7562 49.744C74.208 48.1534 73.0608 46.8439 71.5629 46.1003L59.2072 38.8521C57.3063 37.7784 57.3063 36.7053 59.2072 35.6316L63.693 33.0233L57.6103 29.4956L49.855 33.7516Z"
    fill="white" stroke="#02507B" stroke-linejoin="round" />
</svg>