<?xml version="1.0" encoding="UTF-8" standalone="no"?>
<svg
   xmlns:dc="http://purl.org/dc/elements/1.1/"
   xmlns:cc="http://creativecommons.org/ns#"
   xmlns:rdf="http://www.w3.org/1999/02/22-rdf-syntax-ns#"
   xmlns:svg="http://www.w3.org/2000/svg"
   xmlns="http://www.w3.org/2000/svg"
   id="svg6908"
   xml:space="preserve"
   stroke-linejoin="round"
   stroke-width="28.222"
   version="1.1"
   viewBox="0 0 16000 11200"
   height="112mm"
   width="160mm"><metadata
     id="metadata7248"><rdf:RDF><cc:Work
         rdf:about=""><dc:format>image/svg+xml</dc:format><dc:type
           rdf:resource="http://purl.org/dc/dcmitype/StillImage" /><dc:title></dc:title></cc:Work></rdf:RDF></metadata><defs
     id="defs7246" /><path
     id="path6910"
     d="M 7999,11192 L 0,11192 0,0 15997,0 15997,11192 7999,11192 Z"
     stroke="none"
     fill="rgb(255,255,255)" /><path
     id="path6912"
     d="M 8343,9344 L 1125,9344 1125,1662 15561,1662 15561,9344 8343,9344 Z"
     stroke-linejoin="round"
     stroke="rgb(179,179,179)"
     fill="none" /><path
     id="path6914"
     d="M 15560,9343 L 1124,9343"
     stroke-linejoin="round"
     stroke="rgb(179,179,179)"
     fill="none" /><path
     id="path6916"
     d="M 15560,8574 L 1124,8574"
     stroke-linejoin="round"
     stroke="rgb(179,179,179)"
     fill="none" /><path
     id="path6918"
     d="M 15560,7806 L 1124,7806"
     stroke-linejoin="round"
     stroke="rgb(179,179,179)"
     fill="none" /><path
     id="path6920"
     d="M 15560,7038 L 1124,7038"
     stroke-linejoin="round"
     stroke="rgb(179,179,179)"
     fill="none" /><path
     id="path6922"
     d="M 15560,6269 L 1124,6269"
     stroke-linejoin="round"
     stroke="rgb(179,179,179)"
     fill="none" /><path
     id="path6924"
     d="M 15560,5502 L 1124,5502"
     stroke-linejoin="round"
     stroke="rgb(179,179,179)"
     fill="none" /><path
     id="path6926"
     d="M 15560,4734 L 1124,4734"
     stroke-linejoin="round"
     stroke="rgb(179,179,179)"
     fill="none" /><path
     id="path6928"
     d="M 15560,3965 L 1124,3965"
     stroke-linejoin="round"
     stroke="rgb(179,179,179)"
     fill="none" /><path
     id="path6930"
     d="M 15560,3197 L 1124,3197"
     stroke-linejoin="round"
     stroke="rgb(179,179,179)"
     fill="none" /><path
     id="path6932"
     d="M 15560,2429 L 1124,2429"
     stroke-linejoin="round"
     stroke="rgb(179,179,179)"
     fill="none" /><path
     id="path6934"
     d="M 15560,1661 L 1124,1661"
     stroke-linejoin="round"
     stroke="rgb(179,179,179)"
     fill="none" /><path
     id="path6936"
     d="M 1124,9493 L 1124,9343"
     stroke-linejoin="round"
     stroke="rgb(179,179,179)"
     fill="none" /><path
     id="path6938"
     d="M 1124,9493 L 1124,9343"
     stroke-linejoin="round"
     stroke="rgb(179,179,179)"
     fill="none" /><path
     id="path6940"
     d="M 2861,9493 L 2861,9343"
     stroke-linejoin="round"
     stroke="rgb(179,179,179)"
     fill="none" /><path
     id="path6942"
     d="M 2861,9493 L 2861,9343"
     stroke-linejoin="round"
     stroke="rgb(179,179,179)"
     fill="none" /><path
     id="path6944"
     d="M 4598,9493 L 4598,9343"
     stroke-linejoin="round"
     stroke="rgb(179,179,179)"
     fill="none" /><path
     id="path6946"
     d="M 4598,9493 L 4598,9343"
     stroke-linejoin="round"
     stroke="rgb(179,179,179)"
     fill="none" /><path
     id="path6948"
     d="M 6364,9493 L 6364,9343"
     stroke-linejoin="round"
     stroke="rgb(179,179,179)"
     fill="none" /><path
     id="path6950"
     d="M 6364,9493 L 6364,9343"
     stroke-linejoin="round"
     stroke="rgb(179,179,179)"
     fill="none" /><path
     id="path6952"
     d="M 8043,9493 L 8043,9343"
     stroke-linejoin="round"
     stroke="rgb(179,179,179)"
     fill="none" /><path
     id="path6954"
     d="M 8043,9493 L 8043,9343"
     stroke-linejoin="round"
     stroke="rgb(179,179,179)"
     fill="none" /><path
     id="path6956"
     d="M 9780,9493 L 9780,9343"
     stroke-linejoin="round"
     stroke="rgb(179,179,179)"
     fill="none" /><path
     id="path6958"
     d="M 9780,9493 L 9780,9343"
     stroke-linejoin="round"
     stroke="rgb(179,179,179)"
     fill="none" /><path
     id="path6960"
     d="M 11517,9493 L 11517,9343"
     stroke-linejoin="round"
     stroke="rgb(179,179,179)"
     fill="none" /><path
     id="path6962"
     d="M 11517,9493 L 11517,9343"
     stroke-linejoin="round"
     stroke="rgb(179,179,179)"
     fill="none" /><path
     id="path6964"
     d="M 13254,9493 L 13254,9343"
     stroke-linejoin="round"
     stroke="rgb(179,179,179)"
     fill="none" /><path
     id="path6966"
     d="M 13254,9493 L 13254,9343"
     stroke-linejoin="round"
     stroke="rgb(179,179,179)"
     fill="none" /><path
     id="path6968"
     d="M 14991,9493 L 14991,9343"
     stroke-linejoin="round"
     stroke="rgb(179,179,179)"
     fill="none" /><path
     id="path6970"
     d="M 14991,9493 L 14991,9343"
     stroke-linejoin="round"
     stroke="rgb(179,179,179)"
     fill="none" /><path
     id="path6972"
     d="M 1124,9343 L 15560,9343"
     stroke-linejoin="round"
     stroke="rgb(179,179,179)"
     fill="none" /><path
     id="path6974"
     d="M 974,9343 L 1124,9343"
     stroke-linejoin="round"
     stroke="rgb(179,179,179)"
     fill="none" /><path
     id="path6976"
     d="M 974,9343 L 1124,9343"
     stroke-linejoin="round"
     stroke="rgb(179,179,179)"
     fill="none" /><path
     id="path6978"
     d="M 974,8574 L 1124,8574"
     stroke-linejoin="round"
     stroke="rgb(179,179,179)"
     fill="none" /><path
     id="path6980"
     d="M 974,8574 L 1124,8574"
     stroke-linejoin="round"
     stroke="rgb(179,179,179)"
     fill="none" /><path
     id="path6982"
     d="M 974,7806 L 1124,7806"
     stroke-linejoin="round"
     stroke="rgb(179,179,179)"
     fill="none" /><path
     id="path6984"
     d="M 974,7806 L 1124,7806"
     stroke-linejoin="round"
     stroke="rgb(179,179,179)"
     fill="none" /><path
     id="path6986"
     d="M 974,7038 L 1124,7038"
     stroke-linejoin="round"
     stroke="rgb(179,179,179)"
     fill="none" /><path
     id="path6988"
     d="M 974,7038 L 1124,7038"
     stroke-linejoin="round"
     stroke="rgb(179,179,179)"
     fill="none" /><path
     id="path6990"
     d="M 974,6269 L 1124,6269"
     stroke-linejoin="round"
     stroke="rgb(179,179,179)"
     fill="none" /><path
     id="path6992"
     d="M 974,6269 L 1124,6269"
     stroke-linejoin="round"
     stroke="rgb(179,179,179)"
     fill="none" /><path
     id="path6994"
     d="M 974,5502 L 1124,5502"
     stroke-linejoin="round"
     stroke="rgb(179,179,179)"
     fill="none" /><path
     id="path6996"
     d="M 974,5502 L 1124,5502"
     stroke-linejoin="round"
     stroke="rgb(179,179,179)"
     fill="none" /><path
     id="path6998"
     d="M 974,4734 L 1124,4734"
     stroke-linejoin="round"
     stroke="rgb(179,179,179)"
     fill="none" /><path
     id="path7000"
     d="M 974,4734 L 1124,4734"
     stroke-linejoin="round"
     stroke="rgb(179,179,179)"
     fill="none" /><path
     id="path7002"
     d="M 974,3965 L 1124,3965"
     stroke-linejoin="round"
     stroke="rgb(179,179,179)"
     fill="none" /><path
     id="path7004"
     d="M 974,3965 L 1124,3965"
     stroke-linejoin="round"
     stroke="rgb(179,179,179)"
     fill="none" /><path
     id="path7006"
     d="M 974,3197 L 1124,3197"
     stroke-linejoin="round"
     stroke="rgb(179,179,179)"
     fill="none" /><path
     id="path7008"
     d="M 974,3197 L 1124,3197"
     stroke-linejoin="round"
     stroke="rgb(179,179,179)"
     fill="none" /><path
     id="path7010"
     d="M 974,2429 L 1124,2429"
     stroke-linejoin="round"
     stroke="rgb(179,179,179)"
     fill="none" /><path
     id="path7012"
     d="M 974,2429 L 1124,2429"
     stroke-linejoin="round"
     stroke="rgb(179,179,179)"
     fill="none" /><path
     id="path7014"
     d="M 974,1661 L 1124,1661"
     stroke-linejoin="round"
     stroke="rgb(179,179,179)"
     fill="none" /><path
     id="path7016"
     d="M 974,1661 L 1124,1661"
     stroke-linejoin="round"
     stroke="rgb(179,179,179)"
     fill="none" /><path
     id="path7018"
     d="M 1124,9343 L 1124,1661"
     stroke-linejoin="round"
     stroke="rgb(179,179,179)"
     fill="none" /><path
     id="path7020"
     d="M 1139,2429 L 1167,2736 1196,2822 1281,2688 1310,2717 1338,2822 1367,2822 1395,2788 1509,2736 1537,2861 1566,2967 1594,2874 1680,2735 1708,2726 1737,2702 1765,2683 1794,2472 1879,2457 1908,2822 1936,3030 1965,3149 1993,2967 2078,2856 2107,2775 2135,2625 2164,2486 2192,2610 2278,2702 2306,2770 2335,2962 2363,2967 2392,3072 2477,2967 2506,3067 2534,2981 2563,3206 2591,3236 2676,3197 2705,3259 2733,3293 2762,3274 2790,3159 2876,3043 2904,3183 2933,3494 2961,3389 2990,3283 3075,3144 3104,3039 3132,2947 3160,3063 3189,3398 3274,3077 3303,3058 3331,3033 3360,2971 3388,2971 3474,3240 3502,3231 3531,3168 3559,3101 3588,3082 3673,3178 3702,3168 3730,3538 3787,3370 3872,3283 3901,3317 3929,3946 3958,4369 3986,4311 4072,4277 4100,4100 4129,3816 4157,3744 4186,3730 4271,3466 4300,3413 4328,3620 4356,3466 4385,3385 4470,3231 4499,3216 4527,3216 4556,3250 4584,3106 4698,2928 4727,2981 4755,2841 4784,2957 4897,3206 4926,3577 4954,3812 4983,3859 5068,3869 5097,4071 5125,4047 5154,4008 5182,3932 5296,4085 5325,3879 5353,3807 5382,3898 5467,3577 5495,3308 5524,3216 5552,3043 5581,3043 5666,3138 5695,3312 5723,3197 5752,3290 5780,3199 5866,3058 5894,3186 5923,3170 5951,3197 5980,3182 6065,3212 6093,3109 6122,3197 6150,3358 6179,3454 6293,3574 6321,3728 6350,3800 6378,3889 6464,3922 6492,3962 6521,4081 6549,4067 6578,3951 6663,3957 6691,4052 6720,3965 6748,3920 6777,4055 6862,4636 6891,4576 6919,4522 6948,4232 6976,4562 7062,4595 7090,4661 7119,5049 7147,5116 7176,4780 7261,4620 7289,4698 7318,4880 7346,5094 7375,4880 7460,4997 7489,5190 7517,5216 7546,5064 7574,5233 7660,5044 7688,4824 7717,4848 7745,4941 7859,4777 7887,4734 7916,4609 7944,4645 7973,4734 8057,4607 8086,4590 8114,4512 8143,4453 8171,4465 8257,4525 8285,4549 8314,4695 8342,4860 8370,4774 8456,4884 8484,5033 8513,4795 8541,4918 8570,4872 8655,4830 8684,4965 8712,5117 8741,5333 8769,5126 8855,5119 8883,5122 8912,5091 8940,5182 8968,5272 9082,5268 9111,5254 9139,5278 9168,5268 9253,5153 9282,5214 9310,5323 9339,5462 9367,5415 9453,5425 9481,5474 9509,5508 9538,5662 9566,5712 9652,5908 9680,5794 9709,5824 9737,5958 9766,5894 9851,5957 9880,5947 9908,5753 9937,5629 9965,5579 10051,5632 10079,5602 10136,5507 10164,5574 10250,5574 10278,5562 10307,5571 10335,5537 10364,5596 10449,5570 10478,5514 10506,5581 10535,5573 10563,5642 10649,5758 10677,6020 10705,5888 10734,5744 10762,5801 10848,5829 10876,5858 10905,5838 10933,5841 10962,5857 11047,5924 11076,5993 11104,6050 11133,6056 11161,6053 11246,6104 11275,6044 11303,6250 11332,6511 11360,6525 11446,6557 11474,6509 11503,6480 11531,6503 11560,6550 11645,6441 11674,6411 11702,6477 11731,6615 11759,6654 11873,6653 11901,6856 11930,7000 11958,6917 12044,6826 12243,6986 12272,7185 12300,7313 12329,7161 12357,7168 12442,7268 12471,7268 12499,7410 12528,7403 12556,7250 12642,7103 12670,6991 12699,6769 12727,6799 12756,6905 12841,6773 12870,6777 12898,6638 12927,6516 12955,6591 13040,6794 13069,6743 13097,6869 13126,7114 13154,7341 13240,7756 13268,7822 13297,8082 13325,8086 13354,8159 13439,8281 13468,8485 13496,8275 13525,8421 13553,8474 13638,8484 13667,8600 13695,8647 13724,8696 13752,8679 13838,8633 13866,8576 13895,8574 13923,8614 13952,8651 14037,8646 14066,8805 14094,8958 14151,8981 14236,9034 14265,9027 14293,9296 14322,9315 14350,9323 14436,9312 14464,9276 14493,9265 14521,9292 14550,9285 14635,9280 14664,9287 14692,9292 14720,9292 14749,9294 14834,9299 14863,9304 14891,9309 14920,9310 14948,9302 15034,9293 15091,9293 15119,9296 15148,9296 15233,9296 15290,9294 15318,9293 15347,9292 15432,9290 15461,9286 15489,9282 15518,9291 15546,9333"
     stroke-linejoin="round"
     stroke-width="80"
     stroke="rgb(204,0,0)"
     fill="none" /><text
     id="text7022"
     class="TextShape"><tspan
       id="tspan7024"
       font-weight="400"
       font-size="353px"
       font-family="Liberation Sans, sans-serif"
       class="TextParagraph"><tspan
         id="tspan7026"
         y="9911"
         x="477"
         class="TextPosition" /><tspan
         id="tspan7028"
         y="9911"
         x="477"
         class="TextPosition"><tspan
           id="tspan7030"
           stroke="none"
           fill="rgb(0,0,0)">08/23/00</tspan></tspan></tspan></text>
<text
     id="text7032"
     class="TextShape"><tspan
       id="tspan7034"
       font-weight="400"
       font-size="353px"
       font-family="Liberation Sans, sans-serif"
       class="TextParagraph"><tspan
         id="tspan7036"
         y="9911"
         x="2214"
         class="TextPosition" /><tspan
         id="tspan7038"
         y="9911"
         x="2214"
         class="TextPosition"><tspan
           id="tspan7040"
           stroke="none"
           fill="rgb(0,0,0)">10/23/00</tspan></tspan></tspan></text>
<text
     id="text7042"
     class="TextShape"><tspan
       id="tspan7044"
       font-weight="400"
       font-size="353px"
       font-family="Liberation Sans, sans-serif"
       class="TextParagraph"><tspan
         id="tspan7046"
         y="9911"
         x="3951"
         class="TextPosition" /><tspan
         id="tspan7048"
         y="9911"
         x="3951"
         class="TextPosition"><tspan
           id="tspan7050"
           stroke="none"
           fill="rgb(0,0,0)">12/23/00</tspan></tspan></tspan></text>
<text
     id="text7052"
     class="TextShape"><tspan
       id="tspan7054"
       font-weight="400"
       font-size="353px"
       font-family="Liberation Sans, sans-serif"
       class="TextParagraph"><tspan
         id="tspan7056"
         y="9911"
         x="5716"
         class="TextPosition" /><tspan
         id="tspan7058"
         y="9911"
         x="5716"
         class="TextPosition"><tspan
           id="tspan7060"
           stroke="none"
           fill="rgb(0,0,0)">02/23/01</tspan></tspan></tspan></text>
<text
     id="text7062"
     class="TextShape"><tspan
       id="tspan7064"
       font-weight="400"
       font-size="353px"
       font-family="Liberation Sans, sans-serif"
       class="TextParagraph"><tspan
         id="tspan7066"
         y="9911"
         x="7396"
         class="TextPosition" /><tspan
         id="tspan7068"
         y="9911"
         x="7396"
         class="TextPosition"><tspan
           id="tspan7070"
           stroke="none"
           fill="rgb(0,0,0)">04/23/01</tspan></tspan></tspan></text>
<text
     id="text7072"
     class="TextShape"><tspan
       id="tspan7074"
       font-weight="400"
       font-size="353px"
       font-family="Liberation Sans, sans-serif"
       class="TextParagraph"><tspan
         id="tspan7076"
         y="9911"
         x="9133"
         class="TextPosition" /><tspan
         id="tspan7078"
         y="9911"
         x="9133"
         class="TextPosition"><tspan
           id="tspan7080"
           stroke="none"
           fill="rgb(0,0,0)">06/23/01</tspan></tspan></tspan></text>
<text
     id="text7082"
     class="TextShape"><tspan
       id="tspan7084"
       font-weight="400"
       font-size="353px"
       font-family="Liberation Sans, sans-serif"
       class="TextParagraph"><tspan
         id="tspan7086"
         y="9911"
         x="10870"
         class="TextPosition" /><tspan
         id="tspan7088"
         y="9911"
         x="10870"
         class="TextPosition"><tspan
           id="tspan7090"
           stroke="none"
           fill="rgb(0,0,0)">08/23/01</tspan></tspan></tspan></text>
<text
     id="text7092"
     class="TextShape"><tspan
       id="tspan7094"
       font-weight="400"
       font-size="353px"
       font-family="Liberation Sans, sans-serif"
       class="TextParagraph"><tspan
         id="tspan7096"
         y="9911"
         x="12607"
         class="TextPosition" /><tspan
         id="tspan7098"
         y="9911"
         x="12607"
         class="TextPosition"><tspan
           id="tspan7100"
           stroke="none"
           fill="rgb(0,0,0)">10/23/01</tspan></tspan></tspan></text>
<text
     id="text7102"
     class="TextShape"><tspan
       id="tspan7104"
       font-weight="400"
       font-size="353px"
       font-family="Liberation Sans, sans-serif"
       class="TextParagraph"><tspan
         id="tspan7106"
         y="9911"
         x="14344"
         class="TextPosition" /><tspan
         id="tspan7108"
         y="9911"
         x="14344"
         class="TextPosition"><tspan
           id="tspan7110"
           stroke="none"
           fill="rgb(0,0,0)">12/23/01</tspan></tspan></tspan></text>
<text
     id="text7112"
     class="TextShape"><tspan
       id="tspan7114"
       font-weight="400"
       font-size="353px"
       font-family="Liberation Sans, sans-serif"
       class="TextParagraph"><tspan
         id="tspan7116"
         y="9464"
         x="689"
         class="TextPosition" /><tspan
         id="tspan7118"
         y="9464"
         x="689"
         class="TextPosition"><tspan
           id="tspan7120"
           stroke="none"
           fill="rgb(0,0,0)">0</tspan></tspan></tspan></text>
<text
     id="text7122"
     class="TextShape"><tspan
       id="tspan7124"
       font-weight="400"
       font-size="353px"
       font-family="Liberation Sans, sans-serif"
       class="TextParagraph"><tspan
         id="tspan7126"
         y="8695"
         x="504"
         class="TextPosition" /><tspan
         id="tspan7128"
         y="8695"
         x="504"
         class="TextPosition"><tspan
           id="tspan7130"
           stroke="none"
           fill="rgb(0,0,0)">10</tspan></tspan></tspan></text>
<text
     id="text7132"
     class="TextShape"><tspan
       id="tspan7134"
       font-weight="400"
       font-size="353px"
       font-family="Liberation Sans, sans-serif"
       class="TextParagraph"><tspan
         id="tspan7136"
         y="7927"
         x="504"
         class="TextPosition" /><tspan
         id="tspan7138"
         y="7927"
         x="504"
         class="TextPosition"><tspan
           id="tspan7140"
           stroke="none"
           fill="rgb(0,0,0)">20</tspan></tspan></tspan></text>
<text
     id="text7142"
     class="TextShape"><tspan
       id="tspan7144"
       font-weight="400"
       font-size="353px"
       font-family="Liberation Sans, sans-serif"
       class="TextParagraph"><tspan
         id="tspan7146"
         y="7159"
         x="504"
         class="TextPosition" /><tspan
         id="tspan7148"
         y="7159"
         x="504"
         class="TextPosition"><tspan
           id="tspan7150"
           stroke="none"
           fill="rgb(0,0,0)">30</tspan></tspan></tspan></text>
<text
     id="text7152"
     class="TextShape"><tspan
       id="tspan7154"
       font-weight="400"
       font-size="353px"
       font-family="Liberation Sans, sans-serif"
       class="TextParagraph"><tspan
         id="tspan7156"
         y="6390"
         x="504"
         class="TextPosition" /><tspan
         id="tspan7158"
         y="6390"
         x="504"
         class="TextPosition"><tspan
           id="tspan7160"
           stroke="none"
           fill="rgb(0,0,0)">40</tspan></tspan></tspan></text>
<text
     id="text7162"
     class="TextShape"><tspan
       id="tspan7164"
       font-weight="400"
       font-size="353px"
       font-family="Liberation Sans, sans-serif"
       class="TextParagraph"><tspan
         id="tspan7166"
         y="5622"
         x="504"
         class="TextPosition" /><tspan
         id="tspan7168"
         y="5622"
         x="504"
         class="TextPosition"><tspan
           id="tspan7170"
           stroke="none"
           fill="rgb(0,0,0)">50</tspan></tspan></tspan></text>
<text
     id="text7172"
     class="TextShape"><tspan
       id="tspan7174"
       font-weight="400"
       font-size="353px"
       font-family="Liberation Sans, sans-serif"
       class="TextParagraph"><tspan
         id="tspan7176"
         y="4854"
         x="504"
         class="TextPosition" /><tspan
         id="tspan7178"
         y="4854"
         x="504"
         class="TextPosition"><tspan
           id="tspan7180"
           stroke="none"
           fill="rgb(0,0,0)">60</tspan></tspan></tspan></text>
<text
     id="text7182"
     class="TextShape"><tspan
       id="tspan7184"
       font-weight="400"
       font-size="353px"
       font-family="Liberation Sans, sans-serif"
       class="TextParagraph"><tspan
         id="tspan7186"
         y="4085"
         x="504"
         class="TextPosition" /><tspan
         id="tspan7188"
         y="4085"
         x="504"
         class="TextPosition"><tspan
           id="tspan7190"
           stroke="none"
           fill="rgb(0,0,0)">70</tspan></tspan></tspan></text>
<text
     id="text7192"
     class="TextShape"><tspan
       id="tspan7194"
       font-weight="400"
       font-size="353px"
       font-family="Liberation Sans, sans-serif"
       class="TextParagraph"><tspan
         id="tspan7196"
         y="3317"
         x="504"
         class="TextPosition" /><tspan
         id="tspan7198"
         y="3317"
         x="504"
         class="TextPosition"><tspan
           id="tspan7200"
           stroke="none"
           fill="rgb(0,0,0)">80</tspan></tspan></tspan></text>
<text
     id="text7202"
     class="TextShape"><tspan
       id="tspan7204"
       font-weight="400"
       font-size="353px"
       font-family="Liberation Sans, sans-serif"
       class="TextParagraph"><tspan
         id="tspan7206"
         y="2549"
         x="504"
         class="TextPosition" /><tspan
         id="tspan7208"
         y="2549"
         x="504"
         class="TextPosition"><tspan
           id="tspan7210"
           stroke="none"
           fill="rgb(0,0,0)">90</tspan></tspan></tspan></text>
<text
     id="text7212"
     class="TextShape"><tspan
       id="tspan7214"
       font-weight="400"
       font-size="353px"
       font-family="Liberation Sans, sans-serif"
       class="TextParagraph"><tspan
         id="tspan7216"
         y="1781"
         x="318"
         class="TextPosition" /><tspan
         id="tspan7218"
         y="1781"
         x="318"
         class="TextPosition"><tspan
           id="tspan7220"
           stroke="none"
           fill="rgb(0,0,0)">100</tspan></tspan></tspan></text>
<text
     id="text7222"
     class="TextShape"><tspan
       style="font-weight:400;font-size:459px;font-family:'Liberation Sans', sans-serif"
       id="tspan7224"
       font-weight="400"
       font-size="459px"
       class="TextParagraph"><tspan
         id="tspan7226"
         y="894"
         x="2032"
         class="TextPosition" /><tspan
         id="tspan7228"
         y="894"
         x="2032"
         class="TextPosition"><tspan
           style="fill:#000000;stroke:none"
           id="tspan7230">Enron Stock Price from August 23, 2000 to January 11, 2002</tspan></tspan></tspan></text>
<path
     id="path7232"
     d="M 7426,10623 L 8225,10623"
     stroke-linejoin="round"
     stroke-width="80"
     stroke="rgb(204,0,0)"
     fill="none" /><text
     id="text7234"
     class="TextShape"><tspan
       id="tspan7236"
       font-weight="400"
       font-size="353px"
       font-family="Liberation Sans, sans-serif"
       class="TextParagraph"><tspan
         id="tspan7238"
         y="10743"
         x="8325"
         class="TextPosition" /><tspan
         id="tspan7240"
         y="10743"
         x="8325"
         class="TextPosition"><tspan
           id="tspan7242"
           stroke="none"
           fill="rgb(0,0,0)">ENE</tspan></tspan></tspan></text>
</svg>