<svg width="68" height="88" viewBox="0 0 68 88" fill="none" xmlns="http://www.w3.org/2000/svg">
<g clip-path="url(#clip0_15_2)">
<path opacity="0.2" d="M27.6309 29.0452C29.8923 29.0452 32.1223 29.5856 34.1368 30.6213L64.2881 48.1594C67.8948 50.2555 67.9132 53.6591 64.2881 55.7551L59.3282 58.6575L60.8448 59.5344L60.8526 59.5383C61.1675 59.7213 61.1761 60.2956 60.8712 60.8206C60.5661 61.3456 60.0631 61.6227 59.7481 61.4397L59.7432 61.4368L59.7344 61.4319L59.7276 61.427L59.7198 61.4221L57.292 60.0188C57.2384 59.9878 57.1821 59.9656 57.1251 59.9475L46.8614 65.9573C44.8476 66.9952 42.6182 67.5363 40.3565 67.5364C38.0947 67.5364 35.8645 66.9952 33.8506 65.9573L17.1719 56.2522C17.1615 56.2577 17.15 56.2618 17.1397 56.2678L14.7139 57.6702C14.7046 57.6767 14.6945 57.6829 14.6846 57.6887C14.3696 57.8718 13.8667 57.5946 13.5616 57.0696C13.2568 56.5448 13.2646 55.9716 13.5792 55.7883C13.5963 55.7784 13.6147 55.7692 13.6329 55.762C13.6154 55.7688 13.5982 55.7771 13.5821 55.7864L14.9805 54.9778L3.70904 48.4192C0.111452 46.3231 0.083849 42.9196 3.70904 40.8235L21.126 30.6213C23.1404 29.5856 25.3696 29.0452 27.6309 29.0452Z" fill="#0A6190"/>
<path d="M66.993 41.7347V47.7913C66.993 49.1547 66.0728 50.5181 64.3154 51.5569V45.5098C66.0728 44.471 66.993 43.1074 66.993 41.7347Z" fill="#8FE3E8" stroke="#1A1B1D"/>
<path d="M64.3246 45.5098L64.3154 51.5568L46.8887 61.7682L46.9071 55.7119L64.3246 45.5098Z" fill="#8FE3E8" stroke="#1A1B1D"/>
<path d="M33.8967 55.7119L33.8783 61.7682L3.73584 44.2206L3.75424 38.1736L33.8967 55.7119Z" fill="#8FE3E8" stroke="#1A1B1D"/>
<path d="M64.288 37.914C67.8948 40.0101 67.9132 43.4138 64.288 45.5099L46.8613 55.712C44.8474 56.7499 42.618 57.2911 40.3562 57.2911C38.0944 57.2911 35.8648 56.7499 33.851 55.712L3.70855 38.1735C0.110963 36.0774 0.0833606 32.6737 3.70855 30.5776L21.1261 20.3756C23.1406 19.3398 25.3698 18.8 27.6311 18.8C29.8925 18.8 32.1218 19.3398 34.1363 20.3756L64.288 37.914Z" fill="#F5F6F6" stroke="#1A1B1D"/>
<path d="M46.9072 55.7119V61.768C44.8921 62.8016 42.663 63.3404 40.402 63.3404C38.141 63.3404 35.9121 62.8016 33.897 61.768V55.7119C35.9108 56.7498 38.1402 57.291 40.402 57.291C42.6638 57.291 44.8934 56.7498 46.9072 55.7119V55.7119Z" fill="#8FE3E8" stroke="#1A1B1D"/>
<path d="M57.9031 52.3094C57.9029 51.2334 57.1474 50.7914 56.2188 51.3244C55.2901 51.8574 54.5342 53.1658 54.5344 54.2419C54.5345 55.3179 55.2904 55.7601 56.2191 55.2271C57.1477 54.6941 57.903 53.3858 57.9031 52.3094Z" fill="#0A6190" stroke="#0A6190"/>
<path d="M59.746 56.5803L56.0159 54.4246C55.8755 54.3435 55.7887 54.1701 55.7878 53.9242C55.7859 53.4292 56.1337 52.8268 56.5647 52.5786C56.7814 52.4537 56.978 52.4422 57.12 52.5247L60.8502 54.6804C60.7079 54.5983 60.5116 54.6093 60.2948 54.7343C59.8638 54.9825 59.5161 55.5849 59.5179 56.0799C59.5188 56.3258 59.6055 56.4986 59.746 56.5803Z" fill="#F5F6F6" stroke="#1A1B1D" stroke-linejoin="round"/>
<path d="M59.7483 56.5832C60.0633 56.7662 60.566 56.489 60.8711 55.964C61.1762 55.4389 61.1681 54.8649 60.8531 54.6819C60.5381 54.4989 60.0354 54.7761 59.7303 55.3011C59.4252 55.8261 59.4333 56.4001 59.7483 56.5832Z" fill="#F5F6F6" stroke="#1A1B1D" stroke-linejoin="round"/>
<path d="M16.529 48.5586C16.5292 47.4825 17.2847 47.0405 18.2134 47.5735C19.142 48.1066 19.8979 49.415 19.8978 50.491C19.8976 51.5671 19.1417 52.0093 18.2131 51.4762C17.2844 50.9432 16.5291 49.635 16.529 48.5586Z" fill="#0A6190" stroke="#0A6190"/>
<path d="M14.6861 52.8294L18.4162 50.6737C18.5567 50.5926 18.6434 50.4192 18.6444 50.1733C18.6462 49.6784 18.2984 49.076 17.8675 48.8277C17.6507 48.7028 17.4541 48.6914 17.3121 48.7739L13.582 50.9296C13.7242 50.8474 13.9205 50.8584 14.1374 50.9834C14.5683 51.2317 14.9161 51.8341 14.9142 52.329C14.9133 52.5749 14.8266 52.7478 14.6861 52.8294Z" fill="#F5F6F6" stroke="#1A1B1D" stroke-linejoin="round"/>
<path d="M14.6843 52.8324C14.3693 53.0155 13.8666 52.7383 13.5615 52.2132C13.2565 51.6882 13.2645 51.1142 13.5795 50.9312C13.8945 50.7481 14.3972 51.0253 14.7023 51.5504C15.0074 52.0754 14.9993 52.6494 14.6843 52.8324Z" fill="#F5F6F6" stroke="#1A1B1D" stroke-linejoin="round"/>
<path d="M16.5286 48.5586C16.5287 47.4825 17.2842 47.0405 18.2129 47.5736C19.1415 48.1066 19.8974 49.415 19.8973 50.491C19.8971 51.5671 19.1413 52.0093 18.2126 51.4762C17.2839 50.9432 16.5286 49.635 16.5286 48.5586Z" fill="#0A6190" stroke="#0A6190"/>
<path d="M14.6861 52.8294L18.4162 50.6737C18.5567 50.5926 18.6434 50.4192 18.6444 50.1733C18.6462 49.6784 18.2984 49.076 17.8675 48.8277C17.6507 48.7028 17.4541 48.6914 17.3121 48.7739L13.582 50.9296C13.7242 50.8474 13.9205 50.8584 14.1374 50.9834C14.5683 51.2317 14.9161 51.8341 14.9142 52.329C14.9133 52.5749 14.8266 52.7478 14.6861 52.8294Z" fill="#8FE3E8" stroke="#1A1B1D" stroke-linejoin="round"/>
<path d="M14.6838 52.8323C14.3688 53.0154 13.8661 52.7381 13.561 52.2131C13.256 51.6881 13.264 51.1141 13.579 50.931C13.894 50.748 14.3967 51.0252 14.7018 51.5502C15.0069 52.0753 14.9988 52.6493 14.6838 52.8323Z" fill="#8FE3E8" stroke="#1A1B1D" stroke-linejoin="round"/>
<path d="M28.5236 25.9991C28.1145 26.2045 27.6616 26.3138 27.2018 26.3138C26.742 26.3138 26.2888 26.2045 25.8798 25.9991L22.261 23.6965C22.1115 23.6282 21.9826 23.5217 21.8871 23.3878C21.7921 23.2539 21.7336 23.0973 21.718 22.9337L21.377 25.9852C21.3925 26.1488 21.451 26.3053 21.5461 26.4393C21.6416 26.5732 21.7801 26.6797 21.9295 26.748L25.8793 29.046C26.2888 29.2559 26.742 29.3653 27.2018 29.3653C27.6616 29.3653 28.1145 29.2559 28.524 29.046L32.4738 26.748C32.6233 26.6797 32.7617 26.5732 32.8573 26.4393C32.9523 26.3053 33.0108 26.1488 33.0264 25.9852L32.6853 22.9337C32.6698 23.0973 32.6113 23.2539 32.5162 23.3878C32.4207 23.5217 32.2918 23.6282 32.1423 23.6965L28.5236 25.9991Z" fill="#8FE3E8"/>
<path d="M28.524 29.046C28.1145 29.2559 27.6616 29.3653 27.2018 29.3653C26.742 29.3653 26.2888 29.2559 25.8793 29.046M28.524 29.046L28.5144 29.0506M28.524 29.046L32.4738 26.748C32.6233 26.6797 32.7617 26.5732 32.8573 26.4393C32.9523 26.3053 33.0108 26.1488 33.0264 25.9852L32.6853 22.9337C32.6698 23.0973 32.6113 23.2539 32.5162 23.3878C32.4207 23.5217 32.2918 23.6282 32.1423 23.6965L28.5236 25.9991C28.1145 26.2045 27.6616 26.3138 27.2018 26.3138C26.742 26.3138 26.2888 26.2045 25.8798 25.9991L22.261 23.6965C22.1115 23.6282 21.9826 23.5217 21.8871 23.3878C21.7921 23.2539 21.7336 23.0973 21.718 22.9337L21.377 25.9852C21.3925 26.1488 21.451 26.3053 21.5461 26.4393C21.6416 26.5732 21.7801 26.6797 21.9295 26.748L25.8793 29.046M25.8793 29.046L25.8889 29.0506" stroke="#1A1B1D"/>
<path d="M32.1816 22.3569C32.8726 22.7574 32.877 23.3998 32.1816 23.8003L28.4584 25.9613C28.0737 26.1586 27.6475 26.2615 27.2151 26.2615C26.7827 26.2615 26.3565 26.1586 25.9718 25.9613L22.2221 23.8003C21.5356 23.3998 21.5312 22.7574 22.2221 22.3569L25.9498 20.1914C26.3351 19.9961 26.7611 19.8944 27.1931 19.8944C27.6251 19.8944 28.051 19.9961 28.4364 20.1914L32.1816 22.3569Z" fill="#F5F6F6" stroke="#1A1B1D"/>
<path d="M17.4887 30.4519C17.8977 30.6572 18.3506 30.7666 18.8104 30.7666C19.2702 30.7666 19.7234 30.6572 20.1324 30.4519L23.7512 28.1493C23.9007 28.081 24.0296 27.9745 24.1251 27.8406C24.2202 27.7066 24.2787 27.5501 24.2942 27.3865L24.6353 30.4379C24.6197 30.6016 24.5612 30.7581 24.4661 30.892C24.3706 31.0259 24.2321 31.1324 24.0827 31.2008L20.1329 33.4988C19.7234 33.7087 19.2702 33.818 18.8104 33.818C18.3506 33.818 17.8977 33.7087 17.4882 33.4988L13.5384 31.2008C13.3889 31.1324 13.2505 31.0259 13.1549 30.892C13.0599 30.7581 13.0014 30.6016 12.9858 30.4379L13.3269 27.3865C13.3424 27.5501 13.4009 27.7066 13.496 27.8406C13.5915 27.9745 13.7204 28.081 13.8699 28.1493L17.4887 30.4519Z" fill="#8FE3E8"/>
<path d="M17.4882 33.4988C17.8977 33.7087 18.3506 33.818 18.8104 33.818C19.2702 33.818 19.7234 33.7087 20.1329 33.4988M17.4882 33.4988L17.4978 33.5034M17.4882 33.4988L13.5384 31.2008C13.3889 31.1324 13.2505 31.0259 13.1549 30.892C13.0599 30.7581 13.0014 30.6016 12.9858 30.4379L13.3269 27.3865C13.3424 27.5501 13.4009 27.7066 13.496 27.8406C13.5915 27.9745 13.7204 28.081 13.8699 28.1493L17.4887 30.4519C17.8977 30.6572 18.3506 30.7666 18.8104 30.7666C19.2702 30.7666 19.7234 30.6572 20.1324 30.4519L23.7512 28.1493C23.9007 28.081 24.0296 27.9745 24.1251 27.8406C24.2202 27.7066 24.2787 27.5501 24.2942 27.3865L24.6353 30.4379C24.6197 30.6016 24.5612 30.7581 24.4661 30.892C24.3706 31.0259 24.2321 31.1324 24.0827 31.2008L20.1329 33.4988M20.1329 33.4988L20.1233 33.5034" stroke="#1A1B1D"/>
<path d="M13.8311 26.8096C13.1401 27.2101 13.1357 27.8526 13.8311 28.2531L17.5543 30.414C17.939 30.6114 18.3652 30.7142 18.7976 30.7142C19.23 30.7142 19.6562 30.6114 20.0409 30.414L23.7906 28.2531C24.4771 27.8526 24.4815 27.2101 23.7906 26.8096L20.0629 24.6442C19.6776 24.4489 19.2516 24.3472 18.8196 24.3472C18.3876 24.3472 17.9617 24.4489 17.5763 24.6442L13.8311 26.8096Z" fill="#F5F6F6" stroke="#1A1B1D"/>
<path d="M9.66395 35.1502C10.073 35.3556 10.5259 35.4649 10.9857 35.4649C11.4455 35.4649 11.8987 35.3556 12.3077 35.1502L15.9265 32.8476C16.076 32.7793 16.2049 32.6728 16.3004 32.5389C16.3954 32.405 16.4539 32.2485 16.4695 32.0848L16.8105 35.1363C16.795 35.2999 16.7365 35.4565 16.6414 35.5904C16.5459 35.7243 16.4074 35.8308 16.258 35.8991L12.3082 38.1971C11.8987 38.407 11.4455 38.5164 10.9857 38.5164C10.5259 38.5164 10.073 38.407 9.66349 38.1971L5.71369 35.8991C5.56424 35.8308 5.42576 35.7243 5.33023 35.5904C5.23517 35.4565 5.17667 35.2999 5.16113 35.1363L5.50219 32.0848C5.51772 32.2485 5.57623 32.405 5.67129 32.5389C5.76682 32.6728 5.8957 32.7793 6.04516 32.8476L9.66395 35.1502Z" fill="#8FE3E8"/>
<path d="M9.66349 38.1971C10.073 38.407 10.5259 38.5164 10.9857 38.5164C11.4455 38.5164 11.8987 38.407 12.3082 38.1971M9.66349 38.1971L9.67309 38.2017M9.66349 38.1971L5.71369 35.8991C5.56424 35.8308 5.42576 35.7243 5.33023 35.5904C5.23517 35.4565 5.17667 35.2999 5.16113 35.1363L5.50219 32.0848C5.51773 32.2485 5.57623 32.405 5.67129 32.5389C5.76682 32.6728 5.8957 32.7793 6.04516 32.8476L9.66395 35.1502C10.073 35.3556 10.5259 35.4649 10.9857 35.4649C11.4455 35.4649 11.8987 35.3556 12.3077 35.1502L15.9265 32.8476C16.076 32.7793 16.2049 32.6728 16.3004 32.5389C16.3954 32.405 16.4539 32.2485 16.4695 32.0848L16.8105 35.1363C16.795 35.2999 16.7365 35.4565 16.6414 35.5904C16.5459 35.7243 16.4074 35.8308 16.258 35.8991L12.3082 38.1971M12.3082 38.1971L12.2986 38.2017" stroke="#1A1B1D"/>
<path d="M6.00637 31.508C5.31541 31.9085 5.31101 32.5509 6.00637 32.9514L9.7296 35.1124C10.1143 35.3097 10.5405 35.4126 10.9729 35.4126C11.4053 35.4126 11.8315 35.3097 12.2162 35.1124L15.9659 32.9514C16.6524 32.5509 16.6568 31.9085 15.9659 31.508L12.2382 29.3425C11.8529 29.1472 11.4269 29.0455 10.9949 29.0455C10.5629 29.0455 10.137 29.1472 9.75163 29.3425L6.00637 31.508Z" fill="#F5F6F6" stroke="#1A1B1D"/>
<path d="M37.0825 32.3422L22.449 40.7901M27.6488 43.7919L42.2823 35.344" stroke="#1A1B1D"/>
<path d="M33.8936 35.8967L37.7971 33.6275C37.9181 33.5586 37.971 33.4656 37.956 33.375L37.6396 31.7796C37.6389 31.7065 37.59 31.6333 37.4926 31.5767L35.5659 30.4657C35.4579 30.4094 35.338 30.3801 35.2162 30.3801C35.0945 30.3801 34.9745 30.4094 34.8666 30.4657L31.3106 32.5314C31.2161 32.5852 31.1678 32.6552 31.1648 32.7261L30.8584 34.3837C30.8197 34.4851 30.8697 34.5959 31.0061 34.6763L33.1227 35.8967C33.2421 35.9572 33.3742 35.9887 33.5081 35.9887C33.642 35.9887 33.7741 35.9572 33.8936 35.8967Z" fill="#80BB53"/>
<path d="M31.0061 34.2295C30.929 34.2734 30.8799 34.3271 30.8584 34.3837M30.8584 34.3837C30.8197 34.4851 30.8697 34.5959 31.0061 34.6763L33.1227 35.8967C33.2421 35.9572 33.3742 35.9887 33.5081 35.9887C33.642 35.9887 33.7741 35.9572 33.8936 35.8967L37.7971 33.6275C37.9181 33.5586 37.971 33.4656 37.956 33.375L37.6396 31.7796C37.6389 31.7065 37.59 31.6333 37.4926 31.5767L35.5659 30.4657C35.4579 30.4094 35.338 30.3801 35.2162 30.3801C35.0945 30.3801 34.9745 30.4094 34.8666 30.4657L31.3106 32.5314C31.2161 32.5852 31.1678 32.6552 31.1648 32.7261L30.8584 34.3837Z" stroke="#1A1B1D" stroke-linejoin="round"/>
<path d="M37.4926 31.5767C37.6885 31.6907 37.6885 31.8718 37.4926 31.9834L33.9391 34.049C33.8303 34.1041 33.7101 34.1328 33.5882 34.1328C33.4663 34.1328 33.3461 34.1041 33.2373 34.049L31.3105 32.9381C31.1171 32.824 31.1146 32.643 31.3105 32.5314L34.8665 30.4657C34.9745 30.4094 35.0944 30.3801 35.2162 30.3801C35.3379 30.3801 35.4579 30.4094 35.5658 30.4657L37.4926 31.5767Z" fill="#80BB53" stroke="#1A1B1D" stroke-linejoin="round"/>
<path d="M28.6162 44.8648L32.5198 42.5956C32.6407 42.5267 32.6937 42.4337 32.6787 42.3432L32.3622 40.7477C32.3616 40.6747 32.3126 40.6015 32.2153 40.5448L30.2886 39.4339C30.1806 39.3776 30.0606 39.3483 29.9389 39.3483C29.8172 39.3483 29.6972 39.3776 29.5892 39.4339L26.0333 41.4995C25.9388 41.5534 25.8904 41.6234 25.8874 41.6942L25.581 43.3518C25.5424 43.4532 25.5923 43.564 25.7287 43.6444L27.8453 44.8648C27.9648 44.9253 28.0968 44.9568 28.2308 44.9568C28.3647 44.9568 28.4967 44.9253 28.6162 44.8648Z" fill="#8FE3E8"/>
<path d="M25.7287 43.1976C25.6517 43.2415 25.6026 43.2952 25.581 43.3518M25.581 43.3518C25.5424 43.4532 25.5923 43.564 25.7287 43.6444L27.8453 44.8648C27.9648 44.9253 28.0968 44.9568 28.2308 44.9568C28.3647 44.9568 28.4967 44.9253 28.6162 44.8648L32.5198 42.5956C32.6407 42.5267 32.6937 42.4337 32.6787 42.3432L32.3622 40.7477C32.3616 40.6747 32.3126 40.6015 32.2153 40.5448L30.2886 39.4339C30.1806 39.3776 30.0606 39.3483 29.9389 39.3483C29.8172 39.3483 29.6972 39.3776 29.5892 39.4339L26.0333 41.4995C25.9388 41.5534 25.8904 41.6234 25.8874 41.6942L25.581 43.3518Z" stroke="#1A1B1D"/>
<path d="M32.2152 40.5448C32.4111 40.6589 32.4111 40.8399 32.2152 40.9515L28.6617 43.0172C28.553 43.0723 28.4328 43.101 28.3108 43.101C28.1889 43.101 28.0687 43.0723 27.96 43.0172L26.0332 41.9062C25.8398 41.7922 25.8373 41.6111 26.0332 41.4995L29.5892 39.4339C29.6971 39.3776 29.8171 39.3483 29.9388 39.3483C30.0606 39.3483 30.1805 39.3776 30.2885 39.4339L32.2152 40.5448Z" fill="#F5F6F6" stroke="#1A1B1D"/>
<path d="M1 40.4368V34.3898C1 35.7717 1.9201 37.1723 3.7603 38.211V44.2581C1.9017 43.2008 1 41.8188 1 40.4368Z" fill="#8FE3E8" stroke="#1A1B1D" stroke-linejoin="round"/>
<path d="M34.5274 47.1755C34.3111 47.0507 34.3111 46.8482 34.5274 46.7233V46.7233C34.7437 46.5985 35.0944 46.5985 35.3107 46.7233L36.3628 47.3307C37.6489 48.0732 39.8479 47.5473 39.8479 46.4973L39.8479 45.6384C39.8479 45.4618 40.0959 45.3186 40.4019 45.3186V45.3186C40.7077 45.3187 40.9556 45.4618 40.9556 45.6384L40.9556 46.4973C40.9556 47.5473 43.1548 48.0732 44.441 47.3307L45.493 46.7233C45.7093 46.5985 46.06 46.5985 46.2763 46.7233V46.7233C46.4926 46.8482 46.4926 47.0507 46.2763 47.1755L45.2242 47.7829C43.938 48.5254 44.8489 49.795 46.6679 49.795L48.1559 49.7951C48.4617 49.7951 48.7096 49.9382 48.7096 50.1148V50.1148C48.7096 50.2913 48.4617 50.4345 48.1558 50.4345L46.6679 50.4345C44.8491 50.4345 43.9382 51.704 45.2243 52.4465L46.2763 53.0538C46.4926 53.1787 46.4926 53.3811 46.2763 53.506V53.506C46.06 53.6308 45.7093 53.6308 45.493 53.506L44.4409 52.8986C43.1548 52.1561 40.9556 52.6819 40.9556 53.732L40.9556 54.5909C40.9556 54.7675 40.7077 54.9106 40.4019 54.9106V54.9106C40.096 54.9106 39.8481 54.7675 39.8481 54.5909L39.8481 53.732C39.8481 52.6819 37.649 52.1561 36.3628 52.8986L35.3107 53.506C35.0944 53.6308 34.7437 53.6308 34.5274 53.506V53.506C34.3111 53.3811 34.3111 53.1787 34.5274 53.0538L35.5795 52.4464C36.8657 51.7039 35.9548 50.4344 34.1359 50.4344L32.6481 50.4344C32.3422 50.4344 32.0943 50.2912 32.0943 50.1147V50.1147C32.0943 49.9381 32.3422 49.795 32.6481 49.795L34.1359 49.795C35.9548 49.795 36.8657 48.5254 35.5795 47.7829L34.5274 47.1755Z" fill="#8FE3E8"/>
<path d="M45.3651 47.1869C42.6747 45.6338 38.3128 45.6338 35.6225 47.1869L35.4385 47.2932C32.7482 48.8463 32.7482 51.3644 35.4385 52.9175C38.1288 54.4707 42.4907 54.4707 45.1811 52.9175L45.3651 52.8113C48.0554 51.2582 48.0554 48.7401 45.3651 47.1869Z" fill="#8FE3E8" stroke="#8FE3E8"/>
<path d="M36.6792 43.3869C38.7713 42.1791 42.1632 42.1791 44.2553 43.3869C45.2364 43.9533 45.7574 44.6846 45.8184 45.4262L45.8181 49.6783C45.757 50.4199 45.236 51.1511 44.2551 51.7174L44.112 51.8C42.0199 53.0078 38.6279 53.0078 36.5358 51.8C35.4919 51.1973 34.9688 50.4078 34.9668 49.6179L34.967 45.6487C34.9704 44.8598 35.4934 44.0714 36.5361 43.4695L36.6792 43.3869Z" fill="#80BB53" stroke="#1A1B1D"/>
<path d="M44.2542 43.3448C42.1621 42.137 38.7701 42.137 36.678 43.3448L36.5349 43.4274C34.4428 44.6352 34.4428 46.5934 36.5349 47.8011C38.627 49.0089 42.019 49.0089 44.1111 47.8011L44.2542 47.7185C46.3463 46.5108 46.3463 44.5526 44.2542 43.3448Z" fill="#E7FCD7" stroke="#1A1B1D"/>
<path d="M40.3925 45.6696L45.3857 46.3829" stroke="#1A1B1D" stroke-linecap="round"/>
<rect width="11.38" height="2.52268" rx="1.26134" transform="matrix(0.866044 0.499967 -0.866044 0.499967 52.3296 36.7559)" fill="#0A6190" stroke="#0A6190"/>
<path d="M53.3546 36.3301C52.7513 35.9818 51.7731 35.9818 51.1698 36.3301C50.8878 36.4929 50.7376 36.703 50.7193 36.9162L50.7193 37.908C50.6989 38.1505 50.849 38.3969 51.1698 38.5821L55.0708 40.8341C55.6741 41.1824 56.6523 41.1824 57.2556 40.8341C57.5551 40.6612 57.7059 40.4349 57.708 40.2083L57.708 39.2079C57.7059 38.9813 57.5551 38.755 57.2556 38.5821L53.3546 36.3301Z" fill="#8FE3E8" stroke="#1A1B1D"/>
<path d="M51.2376 36.1672C51.8409 35.8189 52.8191 35.8189 53.4224 36.1672L57.2505 38.3772C57.8538 38.7255 57.8538 39.2902 57.2505 39.6385C56.6472 39.9868 55.6691 39.9868 55.0658 39.6385L51.2376 37.4285C50.6343 37.0802 50.6343 36.5155 51.2376 36.1672Z" fill="#F5F6F6" stroke="#1A1B1D"/>
<rect width="11.38" height="2.52268" rx="1.26134" transform="matrix(0.866044 0.499968 -0.866044 0.499967 48.3877 39.432)" fill="#1A1B1D" stroke="#1A1B1D"/>
<path d="M53.3053 41.2567C52.702 40.9084 51.7238 40.9084 51.1205 41.2567C50.8384 41.4195 50.6883 41.6297 50.6699 41.8429L50.6699 42.8347C50.6496 43.0772 50.7997 43.3235 51.1205 43.5087L55.0215 45.7608C55.6248 46.1091 56.6029 46.1091 57.2062 45.7608C57.5058 45.5879 57.6566 45.3616 57.6587 45.1349L57.6587 44.1346C57.6566 43.9079 57.5058 43.6817 57.2062 43.5087L53.3053 41.2567Z" fill="#FFA901" stroke="#1A1B1D"/>
<path d="M51.1878 41.094C51.7911 40.7457 52.7693 40.7457 53.3726 41.094L57.2007 43.304C57.804 43.6523 57.804 44.2169 57.2007 44.5652C56.5974 44.9135 55.6193 44.9135 55.016 44.5652L51.1878 42.3552C50.5845 42.0069 50.5845 41.4423 51.1878 41.094Z" fill="#FFB422" stroke="#1A1B1D"/>
</g>
<defs>
<clipPath id="clip0_15_2">
<rect width="68" height="88" fill="white"/>
</clipPath>
</defs>
</svg>
