<svg width="166" height="137" viewBox="0 0 166 137" fill="none" xmlns="http://www.w3.org/2000/svg">
    <path
        d="M75.4921 20.4595L132.209 52.678C146.425 60.7537 157.95 80.3921 157.95 96.5416C157.95 104.207 155.353 109.709 151.105 112.51L141.153 118.362C136.54 120.703 130.312 120.208 123.458 116.315L66.7414 84.0963C52.525 76.0205 41.0002 56.3821 41.0002 40.2327C41.0002 32.5658 43.5977 27.0636 47.8475 24.2629L57.7879 18.4167C62.4016 16.0703 68.6336 16.5635 75.4921 20.4595Z"
        fill="#E7FAFB" stroke="#151E29" stroke-width="1.77197" stroke-linejoin="round" />
    <path
        d="M66.7416 25.614C52.5252 17.5382 41.0004 24.0832 41.0004 40.2327C41.0004 56.3821 52.5251 76.0205 66.7416 84.0963L123.459 116.315C137.675 124.391 149.2 117.846 149.2 101.696C149.2 85.5467 137.675 65.9083 123.459 57.8325L66.7416 25.614Z"
        fill="white" stroke="#151E29" stroke-width="1.77197" stroke-linejoin="round" />
    <path
        d="M58.1939 64.046C56.6009 63.1137 55.3096 60.8616 55.3096 59.0158C55.3096 57.17 56.6009 56.4295 58.1939 57.3619L58.3491 57.4527C59.9421 58.385 61.2335 60.6371 61.2335 62.4828C61.2335 64.3286 59.9421 65.0691 58.3491 64.1368L58.1939 64.046Z"
        fill="#0A6190" />
    <path
        d="M65.613 68.388V38.9362L69.8182 41.3973L82.6899 67.6879V48.9306L87.9556 52.0124V81.4643L83.7869 79.0245L70.8786 52.6708V71.4698L65.613 68.388Z"
        fill="#0A6190" />
    <path
        d="M93.1455 84.5017V55.0499L110.808 65.3867V70.4416L98.5575 63.2721V70.1651L110.003 76.8638V81.9604L98.5575 75.2618V82.6143L110.808 89.7837V94.8386L93.1455 84.5017Z"
        fill="#0A6190" />
    <path
        d="M121.429 101.055V76.9504L112.909 71.9639V66.6166L135.617 79.9069V85.2542L127.097 80.2677V104.372L121.429 101.055Z"
        fill="#0A6190" />
</svg>