<svg width="85" height="98" viewBox="0 0 85 98" fill="none" xmlns="http://www.w3.org/2000/svg">
    <g clip-path="url(#clip0_67_5615)">
        <path
            d="M27.1522 14.4625L66.867 37.3958C76.8217 43.1442 84.8917 57.1229 84.8917 68.6182C84.8917 74.0748 83.0734 77.9909 80.0983 79.9848L73.1298 84.1504C69.8998 85.8167 65.5387 85.4642 60.7395 82.6929L21.0247 59.7596C11.0699 54.0112 3.00002 40.0324 3.00002 28.5372C3.00002 23.0798 4.81883 19.1634 7.79467 17.1698L14.7552 13.0084C17.9859 11.3382 22.3497 11.6893 27.1522 14.4625Z"
            fill="#D4E7F8" stroke="#151E29" stroke-linejoin="round" />
        <path
            d="M21.025 18.1317C11.0702 12.3833 3.00025 17.042 3.00025 28.5373C3.00025 40.0326 11.0702 54.0113 21.025 59.7597L60.7397 82.6931C70.6945 88.4415 78.7645 83.7827 78.7645 72.2874C78.7644 60.7921 70.6945 46.8134 60.7397 41.065L21.025 18.1317Z"
            fill="white" stroke="#151E29" stroke-linejoin="round" />
        <path
            d="M15.0645 45.5024C13.9353 44.8306 13.02 43.221 13.02 41.9072C13.02 40.5933 13.9353 40.0728 15.0645 40.7446L15.1237 40.7798C16.2528 41.4515 17.1681 43.0612 17.1681 44.375C17.1681 45.6888 16.2528 46.2093 15.1237 45.5376L15.0645 45.5024Z"
            fill="#0056B3" />
        <path
            d="M20.2347 48.5784V27.6143L23.1794 29.3662L32.1925 48.08V34.7284L35.8797 36.9221V57.8861L32.9606 56.1495L23.9219 37.3907V50.772L20.2347 48.5784Z"
            fill="#0056B3" />
        <path
            d="M39.5138 60.0482V39.0842L51.8812 46.442V50.0401L43.3034 44.9368V49.8433L51.3179 54.6114V58.2393L43.3034 53.4711V58.7047L51.8812 63.808V67.4061L39.5138 60.0482Z"
            fill="#0056B3" />
        <path
            d="M59.3188 71.8309V54.6731L53.3528 51.1237V47.3175L69.2537 56.7776V60.5838L63.2877 57.0344V74.1922L59.3188 71.8309Z"
            fill="#0056B3" />
    </g>
    <defs>
        <clipPath id="clip0_67_5615">
            <rect width="85" height="98" fill="white" />
        </clipPath>
    </defs>
</svg>