<svg width="68" height="88" viewBox="0 0 68 88" fill="none" xmlns="http://www.w3.org/2000/svg">
    <g clip-path="url(#clip0_649_9279)">
        <path
            d="M57.246 8.41606L62.7016 18.5322M57.246 8.41606L51.8082 19.2832M57.246 8.41606L48.175 10.3869L51.8082 19.2832M57.246 8.41606L44.4946 3.19094M62.7016 18.5322L51.8082 19.2832M62.7016 18.5322L55.1555 28.675L50.8684 36.8572L51.8082 19.2832M51.8082 19.2832L45.7984 23.5128"
            stroke="#151E29" stroke-width="0.541635" />
        <circle cx="3.46131" cy="3.46131" r="3.46131"
            transform="matrix(0.658516 0.752567 0.752567 -0.658516 45.3148 36.9939)" fill="#FF668A" />
        <path opacity="0.5" fill-rule="evenodd" clip-rule="evenodd"
            d="M51.269 40.6116C51.9683 39.3686 51.849 37.7691 50.8564 36.6347C49.9162 35.5602 48.4585 35.2069 47.1814 35.6213C47.369 35.288 47.6154 34.9802 47.9196 34.714C49.3583 33.4552 51.545 33.6009 52.8038 35.0396C54.0627 36.4782 53.9169 38.6649 52.4783 39.9237C52.1141 40.2424 51.7019 40.4711 51.269 40.6116Z"
            fill="#ED1252" />
        <circle cx="3.46131" cy="3.46131" r="3.19049"
            transform="matrix(0.658516 0.752567 0.752567 -0.658516 45.3148 36.9939)"
            stroke="#151E29" stroke-width="0.541635" />
        <circle cx="3.09135" cy="3.09135" r="3.09135"
            transform="matrix(0.658516 0.752567 0.752567 -0.658516 53.2783 8.34375)" fill="#A3E2FF" />
        <path opacity="0.5" fill-rule="evenodd" clip-rule="evenodd"
            d="M58.5961 11.5752C59.2206 10.4651 59.1141 9.03649 58.2275 8.02334C57.3879 7.06374 56.086 6.74821 54.9454 7.1183C55.1129 6.82058 55.3329 6.54577 55.6047 6.30802C56.8895 5.18373 58.8425 5.31391 59.9668 6.59877C61.0911 7.88363 60.9609 9.83663 59.6761 10.9609C59.3508 11.2455 58.9827 11.4498 58.5961 11.5752Z"
            fill="#018BFF" />
        <circle cx="3.09135" cy="3.09135" r="2.90105"
            transform="matrix(0.658516 0.752567 0.752567 -0.658516 53.2783 8.34375)"
            stroke="#151E29" stroke-width="0.380598" />
        <circle cx="2.77076" cy="2.77076" r="2.77076"
            transform="matrix(0.658516 0.752567 0.752567 -0.658516 58.5521 18.3486)" fill="#A3E2FF" />
        <path opacity="0.5" fill-rule="evenodd" clip-rule="evenodd"
            d="M63.318 21.2452C63.8781 20.2502 63.7827 18.9695 62.988 18.0613C62.2355 17.2013 61.0689 16.9185 60.0467 17.2499C60.1968 16.9832 60.394 16.7371 60.6373 16.5241C61.789 15.5164 63.5394 15.6331 64.5471 16.7847C65.5548 17.9363 65.4381 19.6868 64.2865 20.6945C63.9948 20.9497 63.6647 21.1328 63.318 21.2452Z"
            fill="#018BFF" />
        <circle cx="2.77076" cy="2.77076" r="2.49994"
            transform="matrix(0.658516 0.752567 0.752567 -0.658516 58.5521 18.3486)"
            stroke="#151E29" stroke-width="0.541635" />
        <circle cx="2.75529" cy="2.75529" r="2.75529"
            transform="matrix(0.658516 0.752567 0.752567 -0.658516 39.8116 3.17285)" fill="#A3E2FF" />
        <path opacity="0.5" fill-rule="evenodd" clip-rule="evenodd"
            d="M44.5511 6.05374C45.1078 5.06427 45.0129 3.79091 44.2227 2.88785C43.4744 2.03269 42.3143 1.75142 41.2978 2.08107C41.447 1.81577 41.6431 1.57088 41.8853 1.35901C43.0305 0.356946 44.7712 0.472966 45.7732 1.61815C46.7753 2.76333 46.6593 4.50403 45.5141 5.50609C45.2241 5.75987 44.8958 5.94194 44.5511 6.05374Z"
            fill="#018BFF" />
        <circle cx="2.75529" cy="2.75529" r="2.48598"
            transform="matrix(0.658516 0.752567 0.752567 -0.658516 39.8116 3.17285)"
            stroke="#151E29" stroke-width="0.538611" />
        <circle cx="2.77076" cy="2.77076" r="2.77076"
            transform="matrix(0.658516 0.752567 0.752567 -0.658516 47.8351 18.9417)" fill="#FFDE63" />
        <path opacity="0.5" fill-rule="evenodd" clip-rule="evenodd"
            d="M52.6014 21.8377C53.1611 20.8427 53.0655 19.5624 52.271 18.6544C51.5184 17.7943 50.3514 17.5115 49.3291 17.8432C49.4793 17.5763 49.6765 17.3299 49.9201 17.1168C51.0717 16.1091 52.8222 16.2258 53.8299 17.3774C54.8376 18.529 54.7209 20.2795 53.5693 21.2871C53.2778 21.5422 52.9479 21.7253 52.6014 21.8377Z"
            fill="#D9B54A" />
        <circle cx="2.77076" cy="2.77076" r="2.49994"
            transform="matrix(0.658516 0.752567 0.752567 -0.658516 47.8351 18.9417)"
            stroke="#151E29" stroke-width="0.541635" />
        <circle cx="2.21035" cy="2.21035" r="2.21035"
            transform="matrix(0.658516 0.752567 0.752567 -0.658516 42.9506 23.2156)" fill="#FF668A" />
        <path opacity="0.5" fill-rule="evenodd" clip-rule="evenodd"
            d="M46.7528 25.5263C47.1995 24.7325 47.1234 23.7109 46.4894 22.9864C45.8892 22.3004 44.9585 22.0748 44.143 22.3392C44.2628 22.1264 44.4201 21.93 44.6143 21.7601C45.5329 20.9562 46.9294 21.0493 47.7332 21.968C48.5371 22.8867 48.444 24.2831 47.5254 25.087C47.2927 25.2906 47.0294 25.4366 46.7528 25.5263Z"
            fill="#ED1252" />
        <circle cx="2.21035" cy="2.21035" r="1.93953"
            transform="matrix(0.658516 0.752567 0.752567 -0.658516 42.9506 23.2156)"
            stroke="#151E29" stroke-width="0.541635" />
        <circle cx="2.14342" cy="2.14342" r="2.14342"
            transform="matrix(0.658516 0.752567 0.752567 -0.658516 52.2002 28.3689)" fill="white" />
        <path opacity="0.22" fill-rule="evenodd" clip-rule="evenodd"
            d="M55.8872 30.6094C56.3203 29.8396 56.2465 28.849 55.6318 28.1465C55.0496 27.4812 54.147 27.2624 53.3562 27.5189C53.4724 27.3126 53.6249 27.1221 53.8133 26.9573C54.7041 26.1777 56.0583 26.268 56.8378 27.1588C57.6174 28.0497 57.5271 29.4039 56.6362 30.1834C56.4106 30.3808 56.1553 30.5224 55.8872 30.6094Z"
            fill="#006FD6" />
        <circle cx="2.14342" cy="2.14342" r="1.8726"
            transform="matrix(0.658516 0.752567 0.752567 -0.658516 52.2002 28.3689)"
            stroke="#151E29" stroke-width="0.541635" />
        <circle cx="2.14342" cy="2.14342" r="2.14342"
            transform="matrix(0.658516 0.752567 0.752567 -0.658516 45.349 10.5454)" fill="white" />
        <path opacity="0.22" fill-rule="evenodd" clip-rule="evenodd"
            d="M49.0358 12.7862C49.4691 12.0164 49.3953 11.0256 48.7805 10.323C48.1985 9.65784 47.2962 9.43899 46.5055 9.69525C46.6216 9.48902 46.7741 9.29866 46.9623 9.13395C47.8532 8.35442 49.2073 8.44467 49.9868 9.33554C50.7664 10.2264 50.6761 11.5805 49.7853 12.3601C49.5595 12.5576 49.3041 12.6993 49.0358 12.7862Z"
            fill="#006FD6" />
        <circle cx="2.14342" cy="2.14342" r="1.8726"
            transform="matrix(0.658516 0.752567 0.752567 -0.658516 45.349 10.5454)" stroke="#151E29"
            stroke-width="0.541635" />
        <path
            d="M25.791 67.4013L9.688 77.4065M25.791 67.4013L14.3765 65.3626M25.791 67.4013L22.7421 76.3492M25.791 67.4013L33.1932 66.6358M9.688 77.4065L14.3765 65.3626M9.688 77.4065L5.7184 67.1312M9.688 77.4065L15.6787 83.7079M14.3765 65.3626L7.92646 57.0808"
            stroke="#151E29" stroke-width="0.575744" />
        <circle cx="2.94524" cy="2.94524" r="2.94524"
            transform="matrix(-0.175828 0.984421 0.984421 0.175828 12.0849 61.8398)" fill="#A3E2FF" />
        <path opacity="0.5" fill-rule="evenodd" clip-rule="evenodd"
            d="M12.8486 67.7188C14.0461 67.5222 15.0452 66.5922 15.2707 65.3295C15.4843 64.1337 14.9437 62.9776 13.9893 62.3497C14.3104 62.297 14.6458 62.297 14.9844 62.3575C16.5857 62.6435 17.6519 64.1735 17.3659 65.7747C17.0799 67.376 15.55 68.4422 13.9487 68.1562C13.5433 68.0838 13.1722 67.9316 12.8486 67.7188Z"
            fill="#018BFF" />
        <circle cx="2.94524" cy="2.94524" r="2.65737"
            transform="matrix(-0.175828 0.984421 0.984421 0.175828 12.0849 61.8398)"
            stroke="#151E29" stroke-width="0.575744" />
        <circle cx="2.94524" cy="2.94524" r="2.94524"
            transform="matrix(-0.175828 0.984421 0.984421 0.175828 23.3884 63.8589)" fill="#FFDE63" />
        <path opacity="0.5" fill-rule="evenodd" clip-rule="evenodd"
            d="M24.1519 69.7375C25.3496 69.5409 26.3487 68.6109 26.5742 67.3481C26.7878 66.1524 26.2473 64.9965 25.2931 64.3685C25.6142 64.3159 25.9495 64.3159 26.288 64.3764C27.8893 64.6624 28.9555 66.1923 28.6695 67.7936C28.3835 69.3948 26.8536 70.4611 25.2523 70.1751C24.8467 70.1026 24.4755 69.9504 24.1519 69.7375Z"
            fill="#D9B54A" />
        <circle cx="2.94524" cy="2.94524" r="2.65737"
            transform="matrix(-0.175828 0.984421 0.984421 0.175828 23.3884 63.8589)"
            stroke="#151E29" stroke-width="0.575744" />
        <circle cx="2.94524" cy="2.94524" r="2.94524"
            transform="matrix(-0.175828 0.984421 0.984421 0.175828 7.02609 73.8052)" fill="#FF668A" />
        <path opacity="0.5" fill-rule="evenodd" clip-rule="evenodd"
            d="M7.78956 79.6844C8.98712 79.4878 9.98615 78.5578 10.2117 77.2951C10.4253 76.0992 9.88468 74.9432 8.9303 74.3153C9.25143 74.2626 9.58682 74.2626 9.92541 74.3231C11.5267 74.6091 12.5929 76.139 12.3069 77.7403C12.0209 79.3416 10.491 80.4078 8.88969 80.1218C8.48426 80.0494 8.11313 79.8972 7.78956 79.6844Z"
            fill="#ED1252" />
        <circle cx="2.94524" cy="2.94524" r="2.65737"
            transform="matrix(-0.175828 0.984421 0.984421 0.175828 7.02609 73.8052)"
            stroke="#151E29" stroke-width="0.575744" />
        <circle cx="2.2784" cy="2.2784" r="2.2784"
            transform="matrix(-0.175828 0.984421 0.984421 0.175828 3.97195 64.8105)" fill="#A3E2FF" />
        <path opacity="0.5" fill-rule="evenodd" clip-rule="evenodd"
            d="M4.56265 69.3587C5.48904 69.2066 6.26186 68.4872 6.43632 67.5104C6.60156 66.5853 6.18333 65.6909 5.44498 65.2052C5.6934 65.1644 5.95287 65.1644 6.21481 65.2112C7.45353 65.4325 8.27835 66.616 8.05711 67.8547C7.83586 69.0934 6.65232 69.9183 5.4136 69.697C5.1 69.641 4.81293 69.5233 4.56265 69.3587Z"
            fill="#018BFF" />
        <circle cx="2.2784" cy="2.2784" r="1.99053"
            transform="matrix(-0.175828 0.984421 0.984421 0.175828 3.97195 64.8105)"
            stroke="#151E29" stroke-width="0.575744" />
        <circle cx="2.2784" cy="2.2784" r="2.2784"
            transform="matrix(-0.175828 0.984421 0.984421 0.175828 14.1851 81.1299)" fill="#FFDE63" />
        <path opacity="0.5" fill-rule="evenodd" clip-rule="evenodd"
            d="M14.7758 85.6779C15.7023 85.5258 16.4752 84.8064 16.6496 83.8296C16.8148 82.9046 16.3967 82.0103 15.6586 81.5246C15.9069 81.4838 16.1664 81.4838 16.4282 81.5306C17.667 81.7519 18.4918 82.9354 18.2705 84.1741C18.0493 85.4128 16.8658 86.2377 15.627 86.0164C15.3133 85.9604 15.0262 85.8426 14.7758 85.6779Z"
            fill="#D9B54A" />
        <circle cx="2.2784" cy="2.2784" r="1.99053"
            transform="matrix(-0.175828 0.984421 0.984421 0.175828 14.1851 81.1299)"
            stroke="#151E29" stroke-width="0.575744" />
        <circle cx="2.2784" cy="2.2784" r="2.2784"
            transform="matrix(-0.175828 0.984421 0.984421 0.175828 20.5142 74.3115)" fill="#A3E2FF" />
        <path opacity="0.5" fill-rule="evenodd" clip-rule="evenodd"
            d="M21.1048 78.8595C22.0312 78.7075 22.8041 77.988 22.9786 77.0112C23.1438 76.0862 22.7257 75.192 21.9875 74.7062C22.2359 74.6655 22.4953 74.6655 22.7572 74.7122C23.9959 74.9335 24.8208 76.117 24.5995 77.3558C24.3783 78.5945 23.1947 79.4193 21.956 79.1981C21.6423 79.142 21.3551 79.0243 21.1048 78.8595Z"
            fill="#018BFF" />
        <circle cx="2.2784" cy="2.2784" r="1.99053"
            transform="matrix(-0.175828 0.984421 0.984421 0.175828 20.5142 74.3115)"
            stroke="#151E29" stroke-width="0.575744" />
        <circle cx="2.2784" cy="2.2784" r="2.2784"
            transform="matrix(-0.175828 0.984421 0.984421 0.175828 6.25443 54.0461)" fill="#A3E2FF" />
        <path opacity="0.5" fill-rule="evenodd" clip-rule="evenodd"
            d="M6.84506 58.594C7.77144 58.4419 8.54423 57.7225 8.71869 56.7457C8.88393 55.8206 8.4657 54.9263 7.72736 54.4406C7.9758 54.3998 8.23528 54.3998 8.49723 54.4466C9.73595 54.6678 10.5608 55.8514 10.3395 57.0901C10.1183 58.3288 8.93474 59.1536 7.69602 58.9324C7.38242 58.8764 7.09535 58.7587 6.84506 58.594Z"
            fill="#018BFF" />
        <circle cx="2.2784" cy="2.2784" r="1.99053"
            transform="matrix(-0.175828 0.984421 0.984421 0.175828 6.25443 54.0461)"
            stroke="#151E29" stroke-width="0.575744" />
        <circle cx="2.2784" cy="2.2784" r="2.2784"
            transform="matrix(-0.175828 0.984421 0.984421 0.175828 31.3711 63.8792)" fill="white" />
        <path opacity="0.22" fill-rule="evenodd" clip-rule="evenodd"
            d="M31.9618 68.4274C32.8883 68.2754 33.6612 67.5559 33.8357 66.5791C34.0009 65.6541 33.5828 64.7598 32.8446 64.2741C33.093 64.2333 33.3524 64.2333 33.6142 64.2801C34.853 64.5014 35.6778 65.6849 35.4565 66.9236C35.2353 68.1623 34.0518 68.9872 32.813 68.7659C32.4993 68.7099 32.2122 68.5921 31.9618 68.4274Z"
            fill="#006FD6" />
        <circle cx="2.2784" cy="2.2784" r="1.99053"
            transform="matrix(-0.175828 0.984421 0.984421 0.175828 31.3711 63.8792)"
            stroke="#151E29" stroke-width="0.575744" />
        <path
            d="M67 41.0625L64.2422 42.654L64.1347 83.097L64.1249 83.1027C64.1249 84.3895 63.668 85.2905 62.9287 85.719L65.6798 84.1313C66.423 83.7044 66.8826 82.8018 66.8826 81.5112L67 41.0625Z"
            fill="#7AD1FF" stroke="#151E29" stroke-linejoin="round" />
        <path
            d="M2.44313 3.79368L2.3202 3.86488H2.31042C2.35368 3.83947 2.39793 3.81573 2.44313 3.79368Z"
            fill="#A3E2FF" />
        <path
            d="M7.99215 2.55476C6.84798 1.90456 5.82117 1.84633 5.06817 2.27333L2.44313 3.79368C3.11494 3.46611 3.99813 3.51343 4.97248 4.00472L60.135 35.5989L62.8927 34.017L7.99215 2.55476Z"
            fill="#A3E2FF" />
        <path
            d="M2.44313 3.79368L2.3202 3.86488H2.31042C2.35368 3.83946 2.39793 3.81573 2.44313 3.79368ZM2.44313 3.79368L5.06817 2.27333C5.82117 1.84633 6.84798 1.90456 7.99215 2.55476L62.8927 34.017L60.135 35.5988L4.97248 4.00472C3.99813 3.51343 3.11494 3.46611 2.44313 3.79368Z"
            stroke="#151E29" stroke-linejoin="round" />
        <path
            d="M60.135 35.5989C62.4037 36.8993 64.252 40.063 64.2422 42.6541L64.1249 83.1028C64.1249 85.6939 62.2668 86.742 59.9883 85.4416L5.09749 53.9891C2.82871 52.6887 1 49.525 1 46.9338L1.11735 6.48518C1.11735 3.89406 2.9754 2.84597 5.24418 4.14638L60.135 35.5989Z"
            fill="#D4E7F8" stroke="#151E29" stroke-linejoin="round" />
        <path
            d="M60.1349 35.5989L62.8927 34.0073C65.1615 35.3077 67.0097 38.4714 67 41.0625L64.2422 42.6541C64.2422 40.063 62.4037 36.8993 60.1349 35.5989Z"
            fill="#A3E2FF" stroke="#151E29" stroke-linejoin="round" />
        <path fill-rule="evenodd" clip-rule="evenodd"
            d="M5.12165 45.0246C5.12165 45.0246 5.12166 45.0246 5.12167 45.0246C7.02016 46.1123 8.57918 48.7792 8.57937 50.9672L56.9831 78.6998C56.9831 78.6996 56.9831 78.6995 56.9831 78.6993C56.9829 76.5113 58.5416 75.6307 60.4401 76.7184L60.4377 45.0246C58.5392 43.9369 56.9802 41.2699 56.98 39.0819C56.98 39.0819 56.98 39.0819 56.98 39.0819L8.5764 11.3494C8.57635 13.5371 7.01768 14.4175 5.1193 13.3298C5.11928 13.3298 5.11926 13.3298 5.11924 13.3298L5.12165 45.0246Z"
            fill="#F5F7FA" />
        <path
            d="M8.27391 51.8136C7.86962 51.582 7.53758 51.0154 7.53754 50.5452C7.53741 48.8274 6.32139 46.7333 4.81621 45.8709C4.41192 45.6393 4.07988 45.0727 4.07984 44.6025L4.07744 12.9081C4.0774 12.4378 4.40944 12.2518 4.81369 12.4834C6.31888 13.3458 7.53468 12.645 7.53457 10.9273C7.53454 10.457 7.86653 10.2709 8.27081 10.5026L56.6744 38.235C56.8689 38.3465 57.0559 38.5421 57.1942 38.7798C57.3326 39.0176 57.4108 39.278 57.4108 39.5035C57.4109 41.2213 58.6269 43.3154 60.1321 44.1777C60.5364 44.4094 60.8684 44.9759 60.8685 45.4462L60.8709 77.1404C60.8709 77.6107 60.5389 77.7968 60.1347 77.5652C58.6295 76.7028 57.4137 77.4037 57.4138 79.1214C57.4139 79.5917 57.0819 79.7778 56.6776 79.5462L8.27391 51.8136ZM5.5501 14.5245L5.55239 44.6735C7.27662 46.0117 8.63842 48.3499 8.94525 50.5051L56.006 77.4683C56.3125 75.6645 57.6741 74.8866 59.3982 75.5241L59.3959 45.3751C57.6717 44.0369 56.3099 41.6987 56.0031 39.5435L8.9424 12.5804C8.63585 14.3842 7.27428 15.1621 5.5501 14.5245Z"
            fill="#A3E2FF" stroke="#0056B3" stroke-linejoin="round" />
        <mask id="path-58-outside-1_649_9279" maskUnits="userSpaceOnUse" x="6.73779" y="25.0066"
            width="31" height="32" fill="black">
            <rect fill="white" x="6.73779" y="25.0066" width="31" height="32" />
            <path fill-rule="evenodd" clip-rule="evenodd"
                d="M9.57628 27.0808C9.30793 26.927 8.96574 27.0199 8.81199 27.2883C8.65824 27.5566 8.75114 27.8988 9.0195 28.0526L27.8225 38.8256C28.0908 38.9794 28.433 38.8865 28.5868 38.6181C28.7405 38.3498 28.6476 38.0076 28.3793 37.8538L9.57628 27.0808ZM9.57628 32.4673C9.30793 32.3135 8.96574 32.4064 8.81199 32.6748C8.65824 32.9431 8.75114 33.2853 9.0195 33.4391L35.6885 48.7189C35.9568 48.8726 36.299 48.7797 36.4528 48.5114C36.6065 48.243 36.5136 47.9008 36.2453 47.7471L9.57628 32.4673ZM8.81199 43.0466C8.96574 42.7782 9.30793 42.6853 9.57628 42.8391L29.1819 54.072C29.4503 54.2258 29.5432 54.5679 29.3894 54.8363C29.2357 55.1047 28.8935 55.1976 28.6252 55.0438L9.0195 43.8109C8.75114 43.6571 8.65824 43.3149 8.81199 43.0466ZM9.57628 37.6655C9.30793 37.5118 8.96574 37.6047 8.81199 37.873C8.65824 38.1414 8.75114 38.4836 9.0195 38.6373L22.354 46.2772L29.0212 50.0972C29.2896 50.2509 29.6318 50.158 29.7855 49.8896C29.9393 49.6213 29.8464 49.2791 29.578 49.1254L22.9108 45.3054L9.57628 37.6655Z" />
        </mask>
        <path fill-rule="evenodd" clip-rule="evenodd"
            d="M9.57628 27.0808C9.30793 26.927 8.96574 27.0199 8.81199 27.2883C8.65824 27.5566 8.75114 27.8988 9.0195 28.0526L27.8225 38.8256C28.0908 38.9794 28.433 38.8865 28.5868 38.6181C28.7405 38.3498 28.6476 38.0076 28.3793 37.8538L9.57628 27.0808ZM9.57628 32.4673C9.30793 32.3135 8.96574 32.4064 8.81199 32.6748C8.65824 32.9431 8.75114 33.2853 9.0195 33.4391L35.6885 48.7189C35.9568 48.8726 36.299 48.7797 36.4528 48.5114C36.6065 48.243 36.5136 47.9008 36.2453 47.7471L9.57628 32.4673ZM8.81199 43.0466C8.96574 42.7782 9.30793 42.6853 9.57628 42.8391L29.1819 54.072C29.4503 54.2258 29.5432 54.5679 29.3894 54.8363C29.2357 55.1047 28.8935 55.1976 28.6252 55.0438L9.0195 43.8109C8.75114 43.6571 8.65824 43.3149 8.81199 43.0466ZM9.57628 37.6655C9.30793 37.5118 8.96574 37.6047 8.81199 37.873C8.65824 38.1414 8.75114 38.4836 9.0195 38.6373L22.354 46.2772L29.0212 50.0972C29.2896 50.2509 29.6318 50.158 29.7855 49.8896C29.9393 49.6213 29.8464 49.2791 29.578 49.1254L22.9108 45.3054L9.57628 37.6655Z"
            fill="#D4E7F8" />
        <path
            d="M8.81199 27.2883L9.67967 27.7854L9.67967 27.7854L8.81199 27.2883ZM9.57628 27.0808L9.07915 27.9485L9.07915 27.9485L9.57628 27.0808ZM9.0195 28.0526L8.52237 28.9203L8.52237 28.9203L9.0195 28.0526ZM27.8225 38.8256L27.3253 39.6933H27.3254L27.8225 38.8256ZM28.3793 37.8538L27.8821 38.7215H27.8821L28.3793 37.8538ZM9.57628 32.4673L9.07915 33.3349H9.07915L9.57628 32.4673ZM9.0195 33.4391L8.52237 34.3067H8.52237L9.0195 33.4391ZM35.6885 48.7189L35.1913 49.5865L35.1913 49.5865L35.6885 48.7189ZM36.4528 48.5114L37.3204 49.0085L37.3204 49.0085L36.4528 48.5114ZM36.2453 47.7471L35.7481 48.6147L35.7481 48.6147L36.2453 47.7471ZM9.57628 42.8391L10.0734 41.9714L10.0734 41.9714L9.57628 42.8391ZM8.81199 43.0466L7.94431 42.5495H7.94431L8.81199 43.0466ZM29.1819 54.072L28.6848 54.9397L28.6848 54.9397L29.1819 54.072ZM29.3894 54.8363L28.5218 54.3392L28.5218 54.3392L29.3894 54.8363ZM28.6252 55.0438L28.128 55.9115L28.128 55.9115L28.6252 55.0438ZM9.0195 43.8109L9.51662 42.9432H9.51662L9.0195 43.8109ZM8.81199 37.873L7.94431 37.3759L7.94431 37.3759L8.81199 37.873ZM9.57628 37.6655L10.0734 36.7978L10.0734 36.7978L9.57628 37.6655ZM9.0195 38.6373L8.52237 39.505L8.52237 39.505L9.0195 38.6373ZM22.354 46.2772L21.8569 47.1449L22.354 46.2772ZM29.0212 50.0972L28.5241 50.9648L28.5241 50.9648L29.0212 50.0972ZM29.7855 49.8896L28.9178 49.3925L28.9178 49.3925L29.7855 49.8896ZM29.578 49.1254L29.0809 49.993L29.0809 49.993L29.578 49.1254ZM22.9108 45.3054L22.4136 46.1731L22.9108 45.3054ZM9.67967 27.7854C9.55886 27.9963 9.29 28.0693 9.07915 27.9485L10.0734 26.2131C9.32585 25.7848 8.37262 26.0436 7.94431 26.7912L9.67967 27.7854ZM9.51663 27.1849C9.72747 27.3057 9.80047 27.5746 9.67967 27.7854L7.94431 26.7912C7.516 27.5387 7.77481 28.492 8.52237 28.9203L9.51663 27.1849ZM28.3196 37.9579L9.51662 27.1849L8.52237 28.9203L27.3253 39.6933L28.3196 37.9579ZM27.7191 38.121C27.8399 37.9101 28.1088 37.8371 28.3196 37.9579L27.3254 39.6933C28.0729 40.1216 29.0261 39.8628 29.4544 39.1152L27.7191 38.121ZM27.8821 38.7215C27.6713 38.6007 27.5983 38.3318 27.7191 38.121L29.4544 39.1152C29.8828 38.3677 29.624 37.4145 28.8764 36.9861L27.8821 38.7215ZM9.07915 27.9485L27.8821 38.7215L28.8764 36.9861L10.0734 26.2131L9.07915 27.9485ZM9.67967 33.1719C9.55886 33.3827 9.29 33.4557 9.07915 33.3349L10.0734 31.5996C9.32585 31.1713 8.37262 31.4301 7.94431 32.1776L9.67967 33.1719ZM9.51663 32.5714C9.72747 32.6922 9.80047 32.961 9.67967 33.1719L7.94431 32.1776C7.516 32.9252 7.77481 33.8784 8.52237 34.3067L9.51663 32.5714ZM36.1856 47.8512L9.51663 32.5714L8.52237 34.3067L35.1913 49.5865L36.1856 47.8512ZM35.5851 48.0142C35.7059 47.8034 35.9747 47.7304 36.1856 47.8512L35.1913 49.5865C35.9389 50.0148 36.8921 49.756 37.3204 49.0085L35.5851 48.0142ZM35.7481 48.6147C35.5373 48.4939 35.4643 48.2251 35.5851 48.0142L37.3204 49.0085C37.7487 48.2609 37.4899 47.3077 36.7424 46.8794L35.7481 48.6147ZM9.07915 33.3349L35.7481 48.6147L36.7424 46.8794L10.0734 31.5996L9.07915 33.3349ZM10.0734 41.9714C9.32585 41.5431 8.37262 41.8019 7.94431 42.5495L9.67967 43.5437C9.55886 43.7546 9.29 43.8276 9.07915 43.7068L10.0734 41.9714ZM29.6791 53.2043L10.0734 41.9714L9.07915 43.7068L28.6848 54.9397L29.6791 53.2043ZM30.2571 55.3334C30.6854 54.5859 30.4266 53.6326 29.6791 53.2043L28.6848 54.9397C28.474 54.8189 28.401 54.55 28.5218 54.3392L30.2571 55.3334ZM28.128 55.9115C28.8756 56.3398 29.8288 56.081 30.2571 55.3334L28.5218 54.3392C28.6426 54.1283 28.9114 54.0553 29.1223 54.1761L28.128 55.9115ZM8.52237 44.6786L28.128 55.9115L29.1223 54.1761L9.51662 42.9432L8.52237 44.6786ZM7.94431 42.5495C7.516 43.297 7.77481 44.2503 8.52237 44.6786L9.51662 42.9432C9.72748 43.064 9.80047 43.3329 9.67967 43.5437L7.94431 42.5495ZM9.67967 38.3701C9.55886 38.581 9.29 38.654 9.07915 38.5332L10.0734 36.7978C9.32585 36.3695 8.37262 36.6283 7.94431 37.3759L9.67967 38.3701ZM9.51663 37.7696C9.72747 37.8904 9.80047 38.1593 9.67967 38.3701L7.94431 37.3759C7.516 38.1234 7.77481 39.0767 8.52237 39.505L9.51663 37.7696ZM22.8511 45.4095L9.51663 37.7696L8.52237 39.505L21.8569 47.1449L22.8511 45.4095ZM29.5184 49.2295L22.8511 45.4095L21.8569 47.1449L28.5241 50.9648L29.5184 49.2295ZM28.9178 49.3925C29.0386 49.1817 29.3075 49.1087 29.5184 49.2295L28.5241 50.9648C29.2717 51.3931 30.2249 51.1343 30.6532 50.3868L28.9178 49.3925ZM29.0809 49.993C28.87 49.8722 28.797 49.6034 28.9178 49.3925L30.6532 50.3868C31.0815 49.6392 30.8227 48.686 30.0751 48.2577L29.0809 49.993ZM22.4136 46.1731L29.0809 49.993L30.0751 48.2577L23.4079 44.4377L22.4136 46.1731ZM9.07915 38.5332L22.4136 46.1731L23.4079 44.4377L10.0734 36.7978L9.07915 38.5332Z"
            fill="#3D8ACF" mask="url(#path-58-outside-1_649_9279)" />
        <path
            d="M42.4412 50.5692C42.4969 50.3607 42.7123 50.3409 42.9222 50.5251L47.6451 54.6692C47.855 54.8534 47.9799 55.1717 47.9241 55.3803L44.7751 67.155C44.6953 67.4533 44.3153 67.3427 44.1053 66.9601L42.4848 64.0073C42.3812 63.8186 42.2214 63.6784 42.0754 63.6481L39.7917 63.1752C39.4958 63.1139 39.2123 62.6423 39.2921 62.344L42.4412 50.5692Z"
            fill="#7AD1FF" stroke="#0056B3" />
        <path
            d="M52.9586 56.5951C52.9028 56.3227 52.6874 56.0561 52.4776 55.9998L47.7546 54.732C47.5448 54.6756 47.4198 54.8508 47.4756 55.1233L50.6246 70.5064C50.7044 70.8962 51.0844 71.221 51.2944 71.079L52.9149 69.9832C53.0185 69.9131 53.1783 69.956 53.3243 70.0931L55.608 72.237C55.9039 72.5148 56.1874 72.368 56.1076 71.9783L52.9586 56.5951Z"
            fill="#7AD1FF" stroke="#0056B3" />
        <path
            d="M55.4541 57.0446L55.8557 57.0855L55.4541 57.0446L55.6578 57.7355C55.8938 58.5358 55.5221 59.0659 54.9044 58.8099L54.3498 58.58C53.5416 58.245 52.9057 58.6124 52.7933 59.4793L52.7173 60.0651C52.6317 60.7253 51.9903 60.7852 51.4143 60.1868L50.8831 59.635C50.1297 58.8524 49.2657 58.6237 48.7651 59.0745L48.4147 59.39C48.0326 59.7341 47.2933 59.3105 46.9112 58.5286L46.5608 57.8116C46.0601 56.7871 45.1961 56.0257 44.4427 55.945L43.9116 55.8882C43.3356 55.8265 42.6941 55.0316 42.6085 54.2733L42.5326 53.6005C42.4202 52.6048 41.7843 51.5088 40.9761 50.9176L40.4215 50.512C39.8038 50.0602 39.4321 49.1041 39.6681 48.5742L39.8718 48.1168C40.1818 47.4207 39.9478 46.2818 39.2999 45.3331L39.0345 45.5765L39.2999 45.3331L38.8708 44.7048C38.3767 43.9813 38.3767 43.1217 38.8708 42.9645L39.2999 42.8279L39.0345 42.2803L39.2999 42.8279C39.9478 42.6216 40.1818 41.7509 39.8718 40.6995L39.6681 40.0086C39.4321 39.2083 39.8038 38.6782 40.4215 38.9342L40.9761 39.1641C41.7843 39.4991 42.4202 39.1317 42.5326 38.2648L42.6085 37.679C42.6941 37.0188 43.3356 36.9589 43.9116 37.5573L44.4427 38.1091C45.1961 38.8917 46.0601 39.1204 46.5608 38.6696L46.9112 38.3541C47.2933 38.01 48.0326 38.4336 48.4147 39.2155L48.7564 39.1032L48.4147 39.2155L48.7651 39.9325C49.2657 40.957 50.1297 41.7184 50.8831 41.7991L51.4143 41.8559C51.9903 41.9176 52.6317 42.7125 52.7173 43.4708L52.7933 44.1436C52.9057 45.1393 53.5416 46.2353 54.3498 46.8265L54.9044 47.2321C55.5221 47.6839 55.8938 48.64 55.6578 49.1699L55.4541 49.6273C55.1441 50.3234 55.378 51.4623 56.026 52.411L56.4551 53.0393C56.9492 53.7628 56.9492 54.6224 56.4551 54.7796L56.026 54.9162C55.378 55.1225 55.1441 55.9932 55.4541 57.0446Z"
            fill="#FFDE63" stroke="#D9B54A" />
        <path
            d="M53.5964 52.4491C53.5964 54.4095 52.907 55.6547 51.9351 56.2115C50.9624 56.7689 49.529 56.7386 47.8167 55.7576C46.1073 54.7782 44.5317 53.0777 43.3824 51.1022C42.233 49.1266 41.5371 46.9228 41.5371 44.9651C41.5371 43.0046 42.2266 41.7595 43.1984 41.2026C44.1712 40.6453 45.6046 40.6755 47.3169 41.6566C49.0263 42.636 50.6019 44.3365 51.7512 46.312C52.9006 48.2876 53.5964 50.4914 53.5964 52.4491Z"
            fill="#FFF4B5" stroke="#D9B54A" />
        <path
            d="M47.5555 45.8578C47.556 45.8576 47.5563 45.8575 47.5567 45.8574C47.5579 45.8573 47.5613 45.8576 47.5668 45.8607C47.5723 45.8639 47.5758 45.8676 47.577 45.869C47.5774 45.8696 47.5777 45.87 47.5782 45.8708C47.5785 45.8715 47.5801 45.8744 47.5823 45.8804L48.1136 47.3779C48.2426 47.7414 48.4838 48.0809 48.7628 48.2916L49.9129 49.1601C49.9176 49.1637 49.9198 49.166 49.9202 49.1666L49.9215 49.1683C49.9225 49.1698 49.925 49.1746 49.9267 49.1816C49.9284 49.1887 49.9281 49.1929 49.9278 49.1942L49.9272 49.1955C49.927 49.1959 49.9258 49.1976 49.9224 49.1995L49.1027 49.6704C48.9014 49.7861 48.8085 50.0612 48.853 50.41L49.0341 51.8299C49.0349 51.8357 49.0346 51.8382 49.0345 51.8388C49.0345 51.8391 49.0345 51.8393 49.0344 51.8395C49.0344 51.8398 49.0343 51.84 49.0341 51.8403C49.0336 51.8414 49.0317 51.844 49.0272 51.8452C49.0228 51.8464 49.0191 51.8453 49.0178 51.8447C49.0173 51.8444 49.0168 51.8442 49.0162 51.8437C49.0157 51.8433 49.0134 51.8414 49.0092 51.8366L47.9663 50.6311C47.7151 50.3408 47.4185 50.1709 47.1674 50.1734L46.1245 50.1838C46.1203 50.1839 46.118 50.1831 46.1175 50.1829C46.1168 50.1826 46.1164 50.1824 46.1159 50.1821C46.1146 50.1812 46.1109 50.1781 46.1065 50.1718C46.102 50.1655 46.1001 50.1606 46.0995 50.1589C46.0993 50.1583 46.0992 50.1578 46.0991 50.157C46.0991 50.1563 46.0988 50.1535 46.0995 50.1485L46.2807 48.9362C46.3252 48.6384 46.2323 48.2568 46.031 47.9105L45.759 48.0696L46.031 47.9105L45.2112 46.5003C45.2078 46.4944 45.2067 46.4914 45.2064 46.4907L45.2059 46.4888C45.2056 46.4872 45.2053 46.4826 45.207 46.4775C45.2087 46.4724 45.2112 46.4705 45.2122 46.4701L45.2134 46.4699C45.2139 46.4699 45.216 46.47 45.2208 46.4718L46.3709 46.9212C46.6499 47.0302 46.8911 46.9671 47.0201 46.7514L47.5514 45.8627L47.1654 45.4133L47.5514 45.8627C47.5536 45.8591 47.5551 45.8581 47.5555 45.8578Z"
            fill="#FFDE63" stroke="#D9B54A" />
        <path
            d="M12.2847 19.1957C11.1456 18.543 10.3811 18.8673 10.3812 20.3463L10.3813 21.4007C10.497 21.4016 10.6239 21.4397 10.7528 21.512C10.8819 21.586 11.0093 21.6929 11.1253 21.8245L11.1253 20.7676C11.1252 19.8085 11.586 19.5799 12.288 19.9822C12.9901 20.3844 13.4445 21.1373 13.4445 22.0964L13.4447 24.4008L14.1866 24.8258L14.1864 22.5215C14.1885 21.0351 13.4239 19.8484 12.2847 19.1957Z"
            fill="#151E29" />
        <path
            d="M14.5922 22.8438C14.5921 21.4986 15.4535 21.0057 16.6669 21.701C17.8804 22.3962 18.7268 23.8712 18.7269 25.2127L18.7269 25.5259L15.3718 23.6036C15.4796 24.4548 15.9964 25.1903 16.664 25.5728C17.1636 25.859 17.5146 25.8807 17.7407 25.6254L18.559 26.0942C18.263 26.7488 17.561 26.8762 16.6641 26.3624C15.4506 25.6671 14.5924 24.1891 14.5922 22.8438ZM17.9462 24.3175C17.7976 23.5232 17.2915 22.8484 16.667 22.4906C16.0425 22.1328 15.544 22.2419 15.3955 22.856L17.9462 24.3175Z"
            fill="#151E29" />
        <path
            d="M19.1233 25.4405C19.1232 24.0965 19.9845 23.6036 21.1979 24.2989C22.4114 24.9941 23.2729 26.4777 23.273 27.818C23.2731 29.1584 22.4118 29.6561 21.1983 28.9609C19.9848 28.2656 19.1234 26.7857 19.1233 25.4405ZM22.5247 27.3893C22.5246 26.4933 21.9937 25.5431 21.198 25.0872C20.4023 24.6313 19.8726 24.9738 19.8727 25.8699C19.8727 26.7659 20.4025 27.7154 21.1972 28.1707C21.9918 28.626 22.5247 28.2865 22.5247 27.3893Z"
            fill="#151E29" />
        <path
            d="M27.5111 33.342L27.5973 33.3914C28.0732 33.6641 28.2519 33.519 28.2519 32.9002L28.2515 28.4869L28.9934 28.912L28.9937 33.2683C28.9938 34.3623 28.6192 34.712 27.6673 34.1666L27.5112 34.0772L27.5111 33.342Z"
            fill="#151E29" />
        <path
            d="M27.1408 32.6745L26.3989 32.2495L26.3988 31.1988L24.5199 30.1223C24.3484 30.0309 24.1785 29.8857 24.0292 29.703C23.8798 29.5202 23.7567 29.3069 23.6736 29.0867C23.606 28.8858 23.5797 28.6898 23.5976 28.5215C23.6155 28.3531 23.6769 28.219 23.7747 28.1348L25.4607 26.5576C25.5772 26.4436 25.7403 26.4031 25.9269 26.4418C26.1135 26.4806 26.314 26.5966 26.4999 26.7734C26.6859 26.9503 26.8479 27.1789 26.9629 27.4269C27.0778 27.6749 27.14 27.9296 27.1404 28.1549L27.1406 30.8677L27.6973 31.1866L27.6974 31.9428L27.1407 31.6238L27.1408 32.6745ZM24.3917 28.9536C24.3695 28.9772 24.3575 29.0134 24.3573 29.0576C24.3571 29.0857 24.3618 29.1163 24.3712 29.1477C24.3805 29.1791 24.3942 29.2106 24.4115 29.2404C24.4288 29.2703 24.4494 29.2979 24.4721 29.3215C24.4948 29.3452 24.519 29.3646 24.5436 29.3784L26.3988 30.4414L26.3986 27.7088C26.3999 27.6636 26.3881 27.6116 26.365 27.5608C26.3418 27.5099 26.3086 27.4631 26.2704 27.4275C26.2483 27.4076 26.2255 27.3908 26.2026 27.3774C26.1736 27.3608 26.145 27.3527 26.1195 27.3538C26.0939 27.3549 26.0722 27.3653 26.0561 27.3839L24.3917 28.9536Z"
            fill="#151E29" />
        <path
            d="M28.6261 26.8912C28.5004 26.8189 28.3775 26.7911 28.2729 26.8113C28.1683 26.8314 28.0867 26.8986 28.0384 27.0044C27.9902 27.1101 27.9775 27.2497 28.0019 27.4054C28.0263 27.5611 28.0867 27.7259 28.1755 27.8791C28.2643 28.0322 28.3775 28.1667 28.5008 28.2656C28.6241 28.3645 28.7518 28.4233 28.868 28.4346C28.9841 28.4459 29.0834 28.4092 29.1532 28.3291C29.2231 28.2491 29.2604 28.1292 29.2603 27.9847C29.2603 27.7913 29.1935 27.5675 29.0746 27.3625C28.9557 27.1575 28.7944 26.988 28.6261 26.8912Z"
            fill="#018BFF" />
        <path
            d="M10.7204 21.7647C10.5826 21.6859 10.4487 21.6613 10.3393 21.6948L9.6415 20.7468C9.65702 20.6916 9.66498 20.63 9.66517 20.5636C9.66665 20.42 9.63075 20.2577 9.56202 20.0973C9.49328 19.937 9.39482 19.7858 9.27913 19.663C9.16345 19.5401 9.03576 19.4512 8.91228 19.4075C8.78879 19.3638 8.67509 19.3673 8.58561 19.4175C8.49612 19.4677 8.43489 19.5623 8.4097 19.6894C8.3845 19.8165 8.39647 19.9704 8.44408 20.1313C8.4917 20.2923 8.57281 20.4533 8.67713 20.5937C8.78144 20.7341 8.90425 20.8476 9.02995 20.9199C9.16777 20.9989 9.30176 21.0235 9.41111 20.9898L10.1067 21.9402C10.0751 22.0512 10.0751 22.1878 10.1067 22.335L9.40907 22.4835C9.30029 22.3253 9.16712 22.1968 9.03004 22.1179C8.90431 22.0456 8.78134 22.0178 8.67671 22.038C8.57208 22.0582 8.4905 22.1254 8.44229 22.2313C8.39409 22.3371 8.38143 22.4768 8.40592 22.6326C8.4304 22.7883 8.49094 22.9532 8.57986 23.1064C8.66877 23.2595 8.78207 23.394 8.90541 23.4928C9.02874 23.5916 9.15656 23.6502 9.27268 23.6614C9.3888 23.6725 9.488 23.6355 9.55771 23.5552C9.62743 23.4749 9.66452 23.3548 9.6643 23.2102C9.66426 23.1445 9.65665 23.0748 9.64167 23.0029L10.3394 22.8544C10.4488 23.0133 10.5827 23.1422 10.7205 23.2213C10.8808 23.3 11.0307 23.3034 11.1402 23.231C11.2496 23.1586 11.3105 23.0157 11.3105 22.831C11.3105 22.6464 11.2496 22.4337 11.1401 22.2359C11.0306 22.038 10.8807 21.8696 10.7204 21.7647Z"
            fill="#018BFF" />
    </g>
    <defs>
        <clipPath id="clip0_649_9279">
            <rect width="68" height="88" fill="white" />
        </clipPath>
    </defs>
</svg>