<svg width="85" height="98" viewBox="0 0 85 98" fill="none" xmlns="http://www.w3.org/2000/svg">
    <g clip-path="url(#clip0_321_2288)">
        <rect opacity="0.1" width="74.9421" height="14.571" rx="3"
            transform="matrix(-0.866044 -0.499967 -0.866044 0.499967 87.5222 88.4685)"
            fill="#006FD6" />
        <path
            d="M74.0579 39.8147C75.1464 40.5207 76.0522 41.4745 76.7012 42.598C77.3502 43.7215 77.7239 44.9826 77.7917 46.2783L77.6772 83.313C77.6772 85.6906 75.9864 86.6507 73.9169 85.453L17.7425 53.0199C16.6518 52.3153 15.7438 51.3619 15.0932 50.2383C14.4426 49.1146 14.068 47.8525 13.9999 46.5558L14.1231 9.51255C14.1231 7.13488 15.8051 6.18389 17.8833 7.38152L74.0579 39.8147Z"
            fill="white" stroke="#0056B3" stroke-linejoin="round" />
        <path
            d="M74.0579 39.8147C75.1464 40.5208 76.0522 41.4745 76.7012 42.598C77.3502 43.7215 77.7239 44.9826 77.7917 46.2783L77.6772 83.313C77.6772 85.6906 75.9864 86.6507 73.9169 85.453L17.7425 53.0199C16.6518 52.3153 15.7438 51.3619 15.0932 50.2383C14.4426 49.1146 14.068 47.8525 13.9999 46.5558L14.1231 9.51255C14.1231 7.13488 15.8051 6.18389 17.8833 7.38152L74.0579 39.8147Z"
            stroke="#0056B3" stroke-linejoin="round" />
        <path
            d="M76.7015 42.598C76.0525 41.4745 75.1466 40.5207 74.0581 39.8147L17.8836 7.38152C15.8053 6.18389 14.1233 7.13488 14.1233 9.51255L14.1079 14.7456L77.7776 51.5103L77.7919 46.2783C77.7241 44.9826 77.3504 43.7215 76.7015 42.598Z"
            stroke="#0056B3" stroke-linejoin="round" />
        <path
            d="M76.7015 42.598C76.0525 41.4745 75.1466 40.5207 74.0581 39.8147L17.8836 7.38152C15.8053 6.18389 14.1233 7.13488 14.1233 9.51255L14.1079 14.7456L77.7776 51.5103L77.7919 46.2783C77.7241 44.9826 77.3504 43.7215 76.7015 42.598Z"
            fill="#018BFF" stroke="#0056B3" stroke-linejoin="round" />
        <path
            d="M21.3794 3.50714L15.2151 7.11775C15.6396 6.92471 16.1077 6.84733 16.5717 6.89373C17.0357 6.94013 22.3582 9.90041 22.736 10.1737L74.1017 39.8188C75.1902 40.5248 76.0961 41.4786 76.7451 42.6021C77.3879 43.7149 77.7606 44.9628 77.8335 46.2455L77.6771 83.3131L77.687 83.3074V83.4024C77.687 84.5738 77.267 85.3141 76.6029 85.7066L82.9203 82.0362C83.5198 81.6181 83.8855 80.8189 83.8855 79.7131L83.8936 76.5991L83.8858 76.603L83.9999 42.6682C83.9316 41.3738 83.5577 40.1138 82.9094 38.9915C82.2604 37.868 81.3547 36.9105 80.2662 36.2044L24.0212 3.77159C23.6434 3.49831 23.2 3.32952 22.736 3.28312C22.272 3.23672 21.8039 3.3141 21.3794 3.50714Z"
            fill="#7AD1FF" stroke="#0056B3" stroke-linejoin="round" />
        <path d="M77.6301 51.6145L83.9795 47.9561" stroke="#0056B3" stroke-linejoin="round" />
        <path
            d="M24.7094 34.5139L24.7094 34.5139L29.9104 39.1127L26.4426 52.1792L24.658 48.9024C24.4299 48.4835 24.078 48.1724 23.7565 48.1053L21.2415 47.5804L24.7094 34.5139Z"
            fill="#7AD1FF" stroke="#0056B3" />
        <path
            d="M35.4546 40.7177L35.4546 40.7177L30.2535 39.3108L33.7213 56.3816L35.5059 55.1655C35.7341 55.01 36.086 55.1052 36.4075 55.4094L38.9224 57.7885L35.4546 40.7177Z"
            fill="#7AD1FF" stroke="#0056B3" />
        <path
            d="M30.0413 19.7518L31.7978 23.3737C32.0358 23.8645 32.4483 24.2303 32.8076 24.2691L35.4579 24.555L35.8499 28.0538C35.903 28.528 36.205 29.051 36.5891 29.3341L39.4231 31.4229L38.3455 33.8611C38.1995 34.1916 38.31 34.7318 38.6161 35.1834L40.8745 38.5154L38.6161 39.2398C38.31 39.3379 38.1995 39.7504 38.3455 40.2495L39.4231 43.932L36.5891 42.7484C36.205 42.588 35.903 42.7623 35.8499 43.1752L35.4579 46.2213L32.8076 43.4469C32.4483 43.0709 32.0358 42.9603 31.7978 43.1763L30.0413 44.77L28.2848 41.1481C28.0468 40.6572 27.6343 40.2914 27.275 40.2527L24.6247 39.9668L24.2327 36.468C24.1796 35.9938 23.8776 35.4708 23.4935 35.1877L20.6595 33.0988L21.7371 30.6606C21.8831 30.3302 21.7726 29.79 21.4665 29.3384L19.2081 26.0064L21.4665 25.282C21.7726 25.1839 21.8831 24.7713 21.7371 24.2722L20.6595 20.5898L23.4935 21.7734C23.8776 21.9338 24.1796 21.7595 24.2327 21.3466L24.6247 18.3004L27.275 21.0749C27.6343 21.4509 28.0468 21.5615 28.2848 21.3455L30.0413 19.7518Z"
            fill="#FFDE63" stroke="#D9B54A" />
        <circle cx="7.57851" cy="7.57851" r="7.07851"
            transform="matrix(0.866025 0.5 0 1 23.3722 20.7097)" fill="#FFF4B5" stroke="#D9B54A" />
        <path
            d="M29.9355 28.7772L30.5921 30.6419C30.7179 30.9992 30.954 31.3337 31.2274 31.5417L32.6539 32.6273L31.6332 33.2181C31.4376 33.3313 31.3474 33.5997 31.3905 33.9404L31.6156 35.7178L30.3282 34.2183C30.0814 33.9309 29.7896 33.7624 29.5428 33.7649L28.2555 33.7778L28.4805 32.2603C28.5236 31.9694 28.4334 31.5968 28.2378 31.2577L27.2171 29.4883L28.6436 30.0499C28.917 30.1576 29.1531 30.0958 29.2789 29.8837L29.9355 28.7772Z"
            fill="#FFDE63" stroke="#D9B54A" />
        <rect x="46.6625" y="42.5175" width="25.4541" height="3" rx="1.5"
            transform="rotate(30 46.6625 42.5175)" fill="#7AD1FF" stroke="#0056B3" />
        <rect x="46.1802" y="48.6833" width="27.7266" height="3" rx="1.5"
            transform="rotate(30 46.1802 48.6833)" fill="#7AD1FF" stroke="#0056B3" />
        <rect x="46.1802" y="54.6798" width="21.5141" height="3" rx="1.5"
            transform="rotate(30 46.1802 54.6798)" fill="#7AD1FF" stroke="#0056B3" />
    </g>
    <defs>
        <clipPath id="clip0_321_2288">
            <rect width="85" height="98" fill="white" />
        </clipPath>
    </defs>
</svg>