<svg xmlns="http://www.w3.org/2000/svg" width="235.71307373046875" height="333.0300598144531" viewBox="-73.08792114257812 -139.2236328125 235.71307373046875 333.0300598144531"><title>Neo4j Graph Visualization</title><desc>Created using Neo4j (http://www.neo4j.com/)</desc><g class="layer relationships"><g class="relationship" transform="translate(54.22903451078625 164.80641964367325) rotate(288.5096764508613)"><path class="b-outline" fill="#A5ABB6" stroke="none" d="M 25 0.5 L 45.35357640898755 0.5 L 45.35357640898755 -0.5 L 25 -0.5 Z M 90.91607640898755 0.5 L 111.2696528179751 0.5 L 111.2696528179751 3.5 L 118.2696528179751 0 L 111.2696528179751 -3.5 L 111.2696528179751 -0.5 L 90.91607640898755 -0.5 Z"/><text text-anchor="middle" pointer-events="none" font-size="8px" fill="#000000" x="68.13482640898755" y="3" font-family="Helvetica Neue, Helvetica, Arial, sans-serif">ACTED_IN</text></g><g class="relationship" transform="translate(133.62515725178167 -110.2236285580367) rotate(463.69480804421255)"><path class="b-outline" fill="#A5ABB6" stroke="none" d="M 25 0.5 L 45.34078657506167 0.5 L 45.34078657506167 -0.5 L 25 -0.5 Z M 90.90328657506167 0.5 L 111.24407315012334 0.5 L 111.24407315012334 3.5 L 118.24407315012334 0 L 111.24407315012334 -3.5 L 111.24407315012334 -0.5 L 90.90328657506167 -0.5 Z"/><text text-anchor="middle" pointer-events="none" font-size="8px" fill="#000000" x="68.12203657506167" y="3" transform="rotate(180 68.12203657506167 0)" font-family="Helvetica Neue, Helvetica, Arial, sans-serif">ACTED_IN</text></g><g class="relationship" transform="translate(-8.24157590544091 -69.32907627320078) rotate(402.31360863053897)"><path class="b-outline" fill="#A5ABB6" stroke="none" d="M 25 0.5 L 46.71258680272234 0.5 L 46.71258680272234 -0.5 L 25 -0.5 Z M 92.27508680272234 0.5 L 113.98767360544468 0.5 L 113.98767360544468 3.5 L 120.98767360544468 0 L 113.98767360544468 -3.5 L 113.98767360544468 -0.5 L 92.27508680272234 -0.5 Z"/><text text-anchor="middle" pointer-events="none" font-size="8px" fill="#000000" x="69.49383680272234" y="3" font-family="Helvetica Neue, Helvetica, Arial, sans-serif">ACTED_IN</text></g><g class="relationship" transform="translate(-44.087926527805976 54.360899180109485) rotate(349.97798485781743)"><path class="b-outline" fill="#A5ABB6" stroke="none" d="M 25 0.5 L 46.73289295444732 0.5 L 46.73289295444732 -0.5 L 25 -0.5 Z M 92.29539295444732 0.5 L 114.02828590889465 0.5 L 114.02828590889465 3.5 L 121.02828590889465 0 L 114.02828590889465 -3.5 L 114.02828590889465 -0.5 L 92.29539295444732 -0.5 Z"/><text text-anchor="middle" pointer-events="none" font-size="8px" fill="#000000" x="69.51414295444732" y="3" font-family="Helvetica Neue, Helvetica, Arial, sans-serif">ACTED_IN</text></g></g><g class="layer nodes"><g class="node" aria-label="graph-node710" transform="translate(54.22903451078625,164.80641964367325)"><circle class="b-outline" cx="0" cy="0" r="25" fill="#C990C0" stroke="#b261a5" stroke-width="2px"/><text class="caption" text-anchor="middle" pointer-events="none" x="0" y="5" font-size="10px" fill="#FFFFFF" font-family="Helvetica Neue, Helvetica, Arial, sans-serif"> Tim Allen</text></g><g class="node" aria-label="graph-node933" transform="translate(99.71210767860343,28.94809831665953)"><circle class="b-outline" cx="0" cy="0" r="25" fill="#F79767" stroke="#f36924" stroke-width="2px"/><text class="caption" text-anchor="middle" pointer-events="none" x="0" y="5" font-size="10px" fill="#FFFFFF" font-family="Helvetica Neue, Helvetica, Arial, sans-serif"> Toy Story</text></g><g class="node" aria-label="graph-node651" transform="translate(133.62515725178167,-110.2236285580367)"><circle class="b-outline" cx="0" cy="0" r="25" fill="#C990C0" stroke="#b261a5" stroke-width="2px"/><text class="caption" text-anchor="middle" pointer-events="none" x="0" y="0" font-size="10px" fill="#FFFFFF" font-family="Helvetica Neue, Helvetica, Arial, sans-serif"> Don</text><text class="caption" text-anchor="middle" pointer-events="none" x="0" y="10" font-size="10px" fill="#FFFFFF" font-family="Helvetica Neue, Helvetica, Arial, sans-serif"> Rickles</text></g><g class="node" aria-label="graph-node631" transform="translate(-8.24157590544091,-69.32907627320078)"><circle class="b-outline" cx="0" cy="0" r="25" fill="#C990C0" stroke="#b261a5" stroke-width="2px"/><text class="caption" text-anchor="middle" pointer-events="none" x="0" y="0" font-size="10px" fill="#FFFFFF" font-family="Helvetica Neue, Helvetica, Arial, sans-serif"> Tom</text><text class="caption" text-anchor="middle" pointer-events="none" x="0" y="10" font-size="10px" fill="#FFFFFF" font-family="Helvetica Neue, Helvetica, Arial, sans-serif"> Hanks</text></g><g class="node" aria-label="graph-node711" transform="translate(-44.087926527805976,54.360899180109485)"><circle class="b-outline" cx="0" cy="0" r="25" fill="#C990C0" stroke="#b261a5" stroke-width="2px"/><text class="caption" text-anchor="middle" pointer-events="none" x="0" y="0" font-size="10px" fill="#FFFFFF" font-family="Helvetica Neue, Helvetica, Arial, sans-serif"> Jim</text><text class="caption" text-anchor="middle" pointer-events="none" x="0" y="10" font-size="10px" fill="#FFFFFF" font-family="Helvetica Neue, Helvetica, Arial, sans-serif"> Varney</text></g></g></svg>