<?xml version="1.0" encoding="UTF-8" standalone="no"?>
<!-- Created with Inkscape (http://www.inkscape.org/) -->

<svg
   width="1920"
   height="150"
   viewBox="0 0 508 39.687499"
   version="1.1"
   id="svg318"
   inkscape:version="1.2.2 (732a01da63, 2022-12-09)"
   sodipodi:docname="pattern.svg"
   inkscape:export-filename="pattern.png"
   inkscape:export-xdpi="96"
   inkscape:export-ydpi="96"
   xmlns:inkscape="http://www.inkscape.org/namespaces/inkscape"
   xmlns:sodipodi="http://sodipodi.sourceforge.net/DTD/sodipodi-0.dtd"
   xmlns="http://www.w3.org/2000/svg"
   xmlns:svg="http://www.w3.org/2000/svg">
  <sodipodi:namedview
     id="namedview320"
     pagecolor="#ffffff"
     bordercolor="#000000"
     borderopacity="0.25"
     inkscape:showpageshadow="2"
     inkscape:pageopacity="0.0"
     inkscape:pagecheckerboard="0"
     inkscape:deskcolor="#d1d1d1"
     inkscape:document-units="mm"
     showgrid="false"
     inkscape:zoom="0.52221046"
     inkscape:cx="1183.4309"
     inkscape:cy="0"
     inkscape:window-width="1920"
     inkscape:window-height="1009"
     inkscape:window-x="1912"
     inkscape:window-y="-8"
     inkscape:window-maximized="1"
     inkscape:current-layer="layer1" />
  <defs
     id="defs315" />
  <g
     inkscape:label="Layer 1"
     inkscape:groupmode="layer"
     id="layer1">
    <rect
       style="fill:#0a6190;fill-opacity:1;stroke-width:0.273008;-inkscape-stroke:none;stop-color:#000000"
       id="rect4055"
       width="508"
       height="39.6875"
       x="0"
       y="0"
       ry="6.1957932" />
    <path
       d="m 14.410816,18.98015 q 0,1.871134 0.32385,3.358446 0.323851,1.475317 0.959556,2.710745 0.635706,1.223434 1.595262,2.326924 0.971551,1.115483 2.254957,2.254956 L 18.488929,30.73471 Q 16.545828,29.139449 15.154472,27.47222 13.77511,25.804992 13.031455,23.753941 12.299793,21.70289 12.299793,18.98015 q 0,-2.734735 0.731662,-4.785786 0.743655,-2.05105 2.123017,-3.718279 1.391356,-1.6672284 3.334457,-3.2504958 l 1.055512,1.1034894 Q 18.24904,9.4805457 17.27749,10.59603 q -0.959556,1.103489 -1.595262,2.326923 -0.635706,1.211439 -0.959556,2.698751 -0.311856,1.475317 -0.311856,3.358446 z"
       id="path15232"
       style="font-size:23.9889px;font-family:'Fira Code';-inkscape-font-specification:'Fira Code';fill:#ffffff;stroke-width:0.264583" />
    <path
       d="m 31.766794,14.482231 q 1.679223,0 2.674762,0.815623 1.007534,0.815622 1.451329,2.302934 0.443794,1.475317 0.443794,3.454402 0,1.907117 -0.53975,3.406423 -0.527756,1.487312 -1.607256,2.338918 -1.079501,0.851606 -2.72274,0.851606 -2.07504,0 -3.334457,-1.463323 v 6.021214 l -2.015068,0.251883 V 14.746109 h 1.715207 l 0.167922,1.763184 q 0.695678,-0.97155 1.655234,-1.499306 0.97155,-0.527756 2.111023,-0.527756 z m -0.479778,1.619251 q -1.043517,0 -1.847145,0.635706 -0.791634,0.623711 -1.307395,1.391356 v 6.261103 q 0.491772,0.731661 1.235428,1.163461 0.75565,0.419806 1.655234,0.419806 1.571273,0 2.362907,-1.199445 0.791633,-1.199445 0.791633,-3.730274 0,-1.655234 -0.311855,-2.746729 -0.311856,-1.103489 -0.947562,-1.643239 -0.635706,-0.551745 -1.631245,-0.551745 z"
       id="path15234"
       style="font-size:23.9889px;font-family:'Fira Code';-inkscape-font-specification:'Fira Code';fill:#ffffff;stroke-width:0.264583" />
    <path
       d="m 43.341447,25.697042 q 0,-0.77964 0.551745,-1.355373 0.563739,-0.575734 1.379361,-0.575734 0.839612,0 1.391357,0.575734 0.563739,0.575733 0.563739,1.355373 0,0.815622 -0.563739,1.391356 -0.551745,0.563739 -1.391357,0.563739 -0.815622,0 -1.379361,-0.563739 -0.551745,-0.575734 -0.551745,-1.391356 z m 0,-8.647999 q 0,-0.551744 0.251884,-0.983544 0.251883,-0.431801 0.695678,-0.683684 0.443794,-0.263878 0.983544,-0.263878 0.839612,0 1.391357,0.563739 0.563739,0.563739 0.563739,1.367367 0,0.791634 -0.563739,1.379362 -0.551745,0.575734 -1.391357,0.575734 -0.815622,0 -1.379361,-0.575734 -0.551745,-0.587728 -0.551745,-1.379362 z"
       id="path15236"
       style="font-size:23.9889px;font-family:'Fira Code';-inkscape-font-specification:'Fira Code';fill:#ffffff;stroke-width:0.264583" />
    <path
       d="m 63.624071,15.957549 q 0,-1.283407 -0.503767,-2.027062 -0.503767,-0.755651 -1.379362,-1.079501 -0.875595,-0.335845 -2.003073,-0.335845 h -2.386896 v 7.052737 h 2.302935 q 1.163461,0 2.051051,-0.311856 0.887589,-0.32385 1.40335,-1.103489 0.515762,-0.791634 0.515762,-2.194984 z m 2.230967,-0.02399 q 0,1.931106 -0.827617,3.094568 -0.815622,1.163461 -2.254956,1.691217 -1.439334,0.527756 -3.310468,0.527756 h -2.111024 v 6.129164 H 55.263939 V 10.859907 h 4.222046 q 2.950635,0 4.653847,1.247423 1.715206,1.235429 1.715206,3.826229 z"
       id="path15238"
       style="font-size:23.9889px;font-family:'Fira Code';-inkscape-font-specification:'Fira Code';fill:#ffffff;stroke-width:0.264583" />
    <path
       d="m 70.880722,21.774857 q 0.05997,1.463322 0.563739,2.39889 0.503767,0.923572 1.331384,1.367367 0.827617,0.4318 1.799167,0.4318 0.971551,0 1.75119,-0.287867 0.791633,-0.287867 1.619251,-0.851606 l 0.947561,1.331384 q -0.887589,0.695678 -2.027062,1.091495 -1.127478,0.395817 -2.314929,0.395817 -1.835151,0 -3.130551,-0.827617 -1.295401,-0.827617 -1.979084,-2.302934 -0.671689,-1.487312 -0.671689,-3.442407 0,-1.919112 0.683683,-3.406424 0.683684,-1.487312 1.919112,-2.338918 1.235428,-0.851606 2.914651,-0.851606 1.595262,0 2.746729,0.755651 1.151468,0.743655 1.763184,2.135012 0.623712,1.379361 0.623712,3.298473 0,0.32385 -0.01199,0.611717 -0.01199,0.275873 -0.03598,0.491773 z m 3.430412,-5.637392 q -1.40335,0 -2.350912,0.99554 -0.935567,0.995539 -1.067506,3.082573 h 6.584953 q -0.03598,-2.027062 -0.887589,-3.04659 -0.851606,-1.031523 -2.278946,-1.031523 z"
       id="path15240"
       style="font-size:23.9889px;font-family:'Fira Code';-inkscape-font-specification:'Fira Code';fill:#ffffff;stroke-width:0.264583" />
    <path
       d="m 83.810748,27.376265 v -1.547284 h 1.967089 v -9.535588 h -1.967089 v -1.547284 h 3.502379 l 0.371828,2.986618 q 0.731661,-1.559278 1.775178,-2.410884 1.043517,-0.851606 2.758724,-0.851606 0.527756,0 0.935567,0.08396 0.419806,0.07197 0.851606,0.191911 l -0.587728,1.799168 q -0.395817,-0.10795 -0.719667,-0.155928 -0.32385,-0.05997 -0.743656,-0.05997 -1.451329,0 -2.494846,1.031523 -1.043517,1.031523 -1.667228,3.118557 v 5.349525 h 2.566812 v 1.547284 z m 8.252181,-8.360132 v -2.746729 l 0.203906,-1.523295 h 1.739195 l -0.287867,4.270024 z"
       id="path15242"
       style="font-size:23.9889px;font-family:'Fira Code';-inkscape-font-specification:'Fira Code';fill:#ffffff;stroke-width:0.264583" />
    <path
       d="m 102.37816,25.984908 q 1.45133,0 2.29094,-0.53975 0.85161,-0.551744 0.85161,-1.463323 0,-0.575733 -0.2159,-0.995539 -0.20391,-0.419806 -0.85161,-0.75565 -0.6477,-0.335845 -1.99107,-0.671689 -1.3074,-0.323851 -2.27895,-0.743656 -0.959556,-0.431801 -1.499306,-1.115484 -0.527756,-0.683684 -0.527756,-1.775179 0,-1.067506 0.599723,-1.835151 0.611717,-0.779639 1.691219,-1.18745 1.0795,-0.419806 2.50684,-0.419806 1.52329,0 2.65077,0.407812 1.13947,0.395816 1.93111,0.983544 l -0.88759,1.367368 q -0.71967,-0.491773 -1.58327,-0.803628 -0.8636,-0.323851 -2.08703,-0.323851 -1.48731,0 -2.11103,0.467784 -0.62371,0.455789 -0.62371,1.18745 0,0.551745 0.29986,0.923573 0.31186,0.359834 1.04352,0.659695 0.73166,0.287867 2.01507,0.635706 1.23543,0.32385 2.14701,0.779639 0.92357,0.455789 1.43933,1.199445 0.51576,0.743656 0.51576,1.919112 0,1.343378 -0.76764,2.18299 -0.76765,0.827617 -1.99108,1.211439 -1.21144,0.371828 -2.56682,0.371828 -1.7152,0 -2.926641,-0.491773 -1.199445,-0.503766 -2.015068,-1.211439 l 1.151468,-1.331384 q 0.743655,0.611717 1.703211,0.995539 0.97155,0.371828 2.08703,0.371828 z"
       id="path15244"
       style="font-size:23.9889px;font-family:'Fira Code';-inkscape-font-specification:'Fira Code';fill:#ffffff;stroke-width:0.264583" />
    <path
       d="m 117.28727,14.482231 q 1.78718,0 2.98662,0.815623 1.21144,0.803628 1.81116,2.278945 0.61172,1.475318 0.61172,3.478391 0,1.931106 -0.62371,3.418418 -0.62371,1.487312 -1.83515,2.338917 -1.19945,0.839612 -2.97462,0.839612 -1.77518,0 -2.98662,-0.815623 -1.21144,-0.815622 -1.83515,-2.29094 -0.61172,-1.487311 -0.61172,-3.466395 0,-1.955096 0.62371,-3.442408 0.62371,-1.487311 1.83515,-2.314928 1.22344,-0.839612 2.99861,-0.839612 z m 0,1.64324 q -1.63124,0 -2.47085,1.211439 -0.82762,1.199445 -0.82762,3.742269 0,2.494845 0.81562,3.706284 0.82762,1.21144 2.45887,1.21144 1.63124,0 2.44686,-1.21144 0.82762,-1.211439 0.82762,-3.730273 0,-2.518835 -0.81562,-3.71828 -0.81562,-1.211439 -2.43488,-1.211439 z"
       id="path15246"
       style="font-size:23.9889px;font-family:'Fira Code';-inkscape-font-specification:'Fira Code';fill:#ffffff;stroke-width:0.264583" />
    <path
       d="M 126.87085,27.376265 V 14.746109 h 1.71521 l 0.15592,1.75119 q 0.76765,-0.971551 1.91912,-1.487312 1.16346,-0.527756 2.25495,-0.527756 1.85914,0 2.69875,0.983545 0.85161,0.983545 0.85161,2.734735 v 9.175754 h -2.01507 v -7.688443 q 0,-1.2954 -0.14393,-2.087034 -0.14394,-0.803628 -0.59972,-1.163461 -0.45579,-0.371828 -1.41535,-0.371828 -0.74366,0 -1.40335,0.32385 -0.6477,0.32385 -1.16346,0.815622 -0.50377,0.479778 -0.83961,0.971551 v 9.199743 z"
       id="path15248"
       style="font-size:23.9889px;font-family:'Fira Code';-inkscape-font-specification:'Fira Code';fill:#ffffff;stroke-width:0.264583" />
    <path
       d="m 148.149,18.98015 q 0,-1.883129 -0.32385,-3.358446 -0.31185,-1.487312 -0.94756,-2.698751 -0.6357,-1.223434 -1.60725,-2.326923 -0.95956,-1.1154843 -2.25496,-2.2669514 l 1.05551,-1.1034894 q 1.9551,1.5832674 3.33446,3.2504958 1.37936,1.667229 2.11102,3.718279 0.74366,2.051051 0.74366,4.785786 0,2.72274 -0.74366,4.773791 -0.73166,2.051051 -2.11102,3.718279 -1.37936,1.667229 -3.33446,3.26249 l -1.05551,-1.103489 q 1.28341,-1.139473 2.24296,-2.254956 0.97155,-1.10349 1.60726,-2.326924 0.6357,-1.235428 0.95955,-2.710745 0.32385,-1.487312 0.32385,-3.358446 z"
       id="path15250"
       style="font-size:23.9889px;font-family:'Fira Code';-inkscape-font-specification:'Fira Code';fill:#ffffff;stroke-width:0.264583" />
    <path
       d="m 155.63356,20.743334 v -1.75119 h 9.61955 v 1.75119 z"
       id="path15252"
       style="font-size:23.9889px;font-family:'Fira Code';-inkscape-font-specification:'Fira Code';fill:#ffffff;stroke-width:0.264583" />
    <path
       d="M 172.05398,30.146982 V 7.8133172 h 6.00922 v 1.7391952 h -4.10211 V 28.431776 h 4.10211 v 1.715206 z"
       id="path15254"
       style="font-size:23.9889px;font-family:'Fira Code';-inkscape-font-specification:'Fira Code';fill:#ffffff;stroke-width:0.264583" />
    <path
       d="m 184.56419,27.376265 v -1.547284 h 1.96709 v -9.535588 h -1.96709 v -1.547284 h 3.50238 l 0.37183,2.986618 q 0.73166,-1.559278 1.77517,-2.410884 1.04352,-0.851606 2.75873,-0.851606 0.52775,0 0.93556,0.08396 0.41981,0.07197 0.85161,0.191911 l -0.58773,1.799168 q -0.39581,-0.10795 -0.71966,-0.155928 -0.32385,-0.05997 -0.74366,-0.05997 -1.45133,0 -2.49485,1.031523 -1.04351,1.031523 -1.66722,3.118557 v 5.349525 h 2.56681 v 1.547284 z m 8.25218,-8.360132 v -2.746729 l 0.20391,-1.523295 h 1.73919 l -0.28787,4.270024 z"
       id="path15256"
       style="font-size:23.9889px;font-family:'Fira Code';-inkscape-font-specification:'Fira Code';fill:#ffffff;stroke-width:0.264583" />
    <path
       d="m 201.66828,25.697042 q 0,-0.77964 0.55174,-1.355373 0.56374,-0.575734 1.37936,-0.575734 0.83961,0 1.39136,0.575734 0.56374,0.575733 0.56374,1.355373 0,0.815622 -0.56374,1.391356 -0.55175,0.563739 -1.39136,0.563739 -0.81562,0 -1.37936,-0.563739 -0.55174,-0.575734 -0.55174,-1.391356 z m 0,-8.647999 q 0,-0.551744 0.25188,-0.983544 0.25188,-0.431801 0.69568,-0.683684 0.44379,-0.263878 0.98354,-0.263878 0.83961,0 1.39136,0.563739 0.56374,0.563739 0.56374,1.367367 0,0.791634 -0.56374,1.379362 -0.55175,0.575734 -1.39136,0.575734 -0.81562,0 -1.37936,-0.575734 -0.55174,-0.587728 -0.55174,-1.379362 z"
       id="path15258"
       style="font-size:23.9889px;font-family:'Fira Code';-inkscape-font-specification:'Fira Code';fill:#ffffff;stroke-width:0.264583" />
    <path
       d="m 221.21924,23.166213 h -6.53697 l -1.31939,4.210052 h -2.05105 l 5.37351,-16.516358 h 2.66277 l 5.37351,16.516358 h -2.18299 z m -5.99722,-1.727201 h 5.45747 l -2.71074,-8.827915 z"
       id="path15260"
       style="font-size:23.9889px;font-family:'Fira Code';-inkscape-font-specification:'Fira Code';fill:#ffffff;stroke-width:0.264583" />
    <path
       d="m 233.80144,10.59603 q 1.61925,0 2.71074,0.407811 1.0915,0.407811 2.07504,1.199445 l -1.16346,1.355373 q -0.77964,-0.659695 -1.65523,-0.935567 -0.8636,-0.287867 -1.81116,-0.287867 -1.35538,0 -2.50684,0.6477 -1.15147,0.635706 -1.85914,2.123018 -0.69568,1.475317 -0.69568,4.006146 0,2.458862 0.65969,3.946174 0.67169,1.487311 1.81117,2.147006 1.13947,0.659695 2.54282,0.659695 1.39136,0 2.27894,-0.419806 0.89959,-0.419806 1.55928,-0.959556 l 1.0795,1.367367 q -0.75565,0.731662 -1.96709,1.271412 -1.21144,0.527756 -2.97462,0.527756 -2.00307,0 -3.63432,-0.983545 -1.61925,-0.983545 -2.56681,-2.878668 -0.94756,-1.907117 -0.94756,-4.677835 0,-2.782713 0.95955,-4.677836 0.97155,-1.895123 2.57881,-2.866673 1.61925,-0.97155 3.52637,-0.97155 z"
       id="path15262"
       style="font-size:23.9889px;font-family:'Fira Code';-inkscape-font-specification:'Fira Code';fill:#ffffff;stroke-width:0.264583" />
    <path
       d="m 247.79896,12.64708 v 14.729185 h -2.07504 V 12.64708 h -5.15761 v -1.787173 h 12.46223 l -0.2159,1.787173 z"
       id="path15264"
       style="font-size:23.9889px;font-family:'Fira Code';-inkscape-font-specification:'Fira Code';fill:#ffffff;stroke-width:0.264583" />
    <path
       d="m 259.09774,12.563119 v 5.565425 h 6.11717 v 1.715206 h -6.11717 v 5.865286 h 7.50852 v 1.667229 H 257.0107 V 10.859907 h 9.37966 l -0.23989,1.703212 z"
       id="path15266"
       style="font-size:23.9889px;font-family:'Fira Code';-inkscape-font-specification:'Fira Code';fill:#ffffff;stroke-width:0.264583" />
    <path
       d="m 279.42833,19.040122 q 0,-2.159001 -0.45579,-3.454401 -0.45579,-1.295401 -1.19944,-1.943101 -0.74366,-0.647701 -1.63125,-0.863601 -0.87559,-0.2159 -1.7272,-0.2159 h -1.9431 v 13.145917 h 1.96709 q 0.88759,0 1.76318,-0.275872 0.88759,-0.287867 1.61925,-1.007534 0.73167,-0.731661 1.16347,-2.027062 0.44379,-1.307395 0.44379,-3.358446 z m 2.21897,0 q 0,2.063045 -0.44379,3.526368 -0.4318,1.451329 -1.18745,2.39889 -0.75565,0.947562 -1.7272,1.475318 -0.95956,0.515761 -2.02706,0.731661 -1.05552,0.203906 -2.07504,0.203906 h -3.79025 V 10.859907 h 3.52637 q 1.45133,0 2.81869,0.323851 1.37937,0.32385 2.48285,1.199445 1.11549,0.8636 1.76319,2.470856 0.65969,1.607256 0.65969,4.186063 z"
       id="path15268"
       style="font-size:23.9889px;font-family:'Fira Code';-inkscape-font-specification:'Fira Code';fill:#ffffff;stroke-width:0.264583" />
    <path
       d="M 283.98625,31.73025 V 29.967066 H 295.9807 V 31.73025 Z"
       id="path15270"
       style="font-size:23.9889px;font-family:'Fira Code';-inkscape-font-specification:'Fira Code';fill:#ffffff;stroke-width:0.264583" />
    <path
       d="m 309.10263,10.859907 v 1.667229 h -3.6703 v 13.1819 h 3.6703 v 1.667229 h -9.45162 v -1.667229 h 3.6703 v -13.1819 h -3.6703 v -1.667229 z"
       id="path15272"
       style="font-size:23.9889px;font-family:'Fira Code';-inkscape-font-specification:'Fira Code';fill:#ffffff;stroke-width:0.264583" />
    <path
       d="M 321.04911,27.376265 315.2318,12.850986 q 0.012,0.275872 0.048,0.923573 0.048,0.635706 0.0959,1.523295 0.06,0.875595 0.096,1.859139 0.036,0.983545 0.036,1.943101 v 8.276171 h -1.93111 V 10.859907 h 2.8187 l 5.91326,14.585251 q -0.012,-0.347839 -0.084,-1.271411 -0.072,-0.935568 -0.13194,-2.254957 -0.06,-1.319389 -0.06,-2.794707 v -8.264176 h 1.93111 v 16.516358 z"
       id="path15274"
       style="font-size:23.9889px;font-family:'Fira Code';-inkscape-font-specification:'Fira Code';fill:#ffffff;stroke-width:0.264583" />
    <path
       d="M 335.94624,7.8133172 V 30.146982 h -6.00922 v -1.703211 h 4.10211 V 9.5525124 h -4.10211 V 7.8133172 Z"
       id="path15276"
       style="font-size:23.9889px;font-family:'Fira Code';-inkscape-font-specification:'Fira Code';fill:#ffffff;stroke-width:0.264583" />
    <path
       d="M 343.34682,20.755328 V 18.98015 h 11.64661 v 1.775178 z"
       id="path15278"
       style="font-size:23.9889px;font-family:'Fira Code';-inkscape-font-specification:'Fira Code';fill:#ffffff;stroke-width:0.264583" />
    <path
       d="m 364.3491,20.755328 h -9.83545 V 18.98015 h 9.83545 z m -4.66584,-8.192209 6.52498,7.30462 -6.52498,7.30462 -1.48731,-1.271412 3.41842,-3.766257 q 0.49177,-0.527756 0.79163,-0.815622 0.29986,-0.287867 0.74366,-0.56374 V 18.98015 q -0.4438,-0.275872 -0.74366,-0.563739 -0.29986,-0.287867 -0.79163,-0.815623 l -3.41842,-3.766257 z"
       id="path15280"
       style="font-size:23.9889px;font-family:'Fira Code';-inkscape-font-specification:'Fira Code';fill:#ffffff;stroke-width:0.264583" />
    <path
       d="m 374.24453,18.98015 q 0,1.871134 0.32385,3.358446 0.32385,1.475317 0.95955,2.710745 0.63571,1.223434 1.59526,2.326924 0.97155,1.115483 2.25496,2.254956 l -1.05551,1.103489 q -1.9431,-1.595261 -3.33446,-3.26249 -1.37936,-1.667228 -2.12302,-3.718279 -0.73166,-2.051051 -0.73166,-4.773791 0,-2.734735 0.73166,-4.785786 0.74366,-2.05105 2.12302,-3.718279 1.39136,-1.6672284 3.33446,-3.2504958 l 1.05551,1.1034894 q -1.2954,1.1514671 -2.26695,2.2669514 -0.95956,1.103489 -1.59526,2.326923 -0.63571,1.211439 -0.95956,2.698751 -0.31185,1.475317 -0.31185,3.358446 z"
       id="path15282"
       style="font-size:23.9889px;font-family:'Fira Code';-inkscape-font-specification:'Fira Code';fill:#ffffff;stroke-width:0.264583" />
    <path
       d="m 394.27526,14.482231 q 0.61172,0 1.16346,0.263878 0.56374,0.263878 0.92357,1.019528 0.35984,0.755651 0.35984,2.206979 v 9.403649 h -1.87114 v -9.079799 q 0,-1.18745 -0.14393,-1.715206 -0.14393,-0.527756 -0.82762,-0.527756 -0.56374,0 -1.12748,0.359834 -0.55174,0.347839 -1.0795,1.151467 v 9.81146 h -1.88313 v -9.079799 q 0,-1.18745 -0.14393,-1.715206 -0.14393,-0.527756 -0.82762,-0.527756 -0.58772,0 -1.13947,0.359834 -0.53975,0.347839 -1.0675,1.151467 v 9.81146 h -1.85914 V 14.746109 h 1.58326 l 0.11995,1.463323 q 0.51576,-0.731661 1.15146,-1.223434 0.6477,-0.503767 1.59527,-0.503767 0.71966,0 1.35537,0.347839 0.6357,0.335845 0.93557,1.31939 0.51576,-0.743656 1.16346,-1.199445 0.6477,-0.467784 1.61925,-0.467784 z"
       id="path15284"
       style="font-size:23.9889px;font-family:'Fira Code';-inkscape-font-specification:'Fira Code';fill:#ffffff;stroke-width:0.264583" />
    <path
       d="m 403.17517,25.697042 q 0,-0.77964 0.55175,-1.355373 0.56374,-0.575734 1.37936,-0.575734 0.83961,0 1.39135,0.575734 0.56374,0.575733 0.56374,1.355373 0,0.815622 -0.56374,1.391356 -0.55174,0.563739 -1.39135,0.563739 -0.81562,0 -1.37936,-0.563739 -0.55175,-0.575734 -0.55175,-1.391356 z m 0,-8.647999 q 0,-0.551744 0.25189,-0.983544 0.25188,-0.431801 0.69567,-0.683684 0.4438,-0.263878 0.98355,-0.263878 0.83961,0 1.39135,0.563739 0.56374,0.563739 0.56374,1.367367 0,0.791634 -0.56374,1.379362 -0.55174,0.575734 -1.39135,0.575734 -0.81562,0 -1.37936,-0.575734 -0.55175,-0.587728 -0.55175,-1.379362 z"
       id="path15286"
       style="font-size:23.9889px;font-family:'Fira Code';-inkscape-font-specification:'Fira Code';fill:#ffffff;stroke-width:0.264583" />
    <path
       d="m 425.05305,10.859907 0.93557,16.516358 h -2.00308 l -0.51576,-8.62401 q -0.036,-0.875595 -0.072,-1.775178 -0.036,-0.899584 -0.048,-1.727201 -0.012,-0.827617 -0.012,-1.475317 0,-0.647701 0,-1.007534 l -2.78271,11.646611 h -2.08703 l -2.98662,-11.646611 q 0.012,0.347839 0.024,1.031523 0.012,0.671689 0.012,1.523295 0.012,0.851606 -0.012,1.751189 -0.012,0.88759 -0.048,1.655234 l -0.44379,8.647999 h -1.9551 l 0.93557,-16.516358 h 2.90265 l 2.67477,11.310766 2.55481,-11.310766 z"
       id="path15288"
       style="font-size:23.9889px;font-family:'Fira Code';-inkscape-font-specification:'Fira Code';fill:#ffffff;stroke-width:0.264583" />
    <path
       d="m 433.94094,14.482231 q 1.78717,0 2.98662,0.815623 1.21144,0.803628 1.81116,2.278945 0.61172,1.475318 0.61172,3.478391 0,1.931106 -0.62372,3.418418 -0.62371,1.487312 -1.83515,2.338917 -1.19944,0.839612 -2.97462,0.839612 -1.77518,0 -2.98662,-0.815623 -1.21144,-0.815622 -1.83515,-2.29094 -0.61172,-1.487311 -0.61172,-3.466395 0,-1.955096 0.62372,-3.442408 0.62371,-1.487311 1.83515,-2.314928 1.22343,-0.839612 2.99861,-0.839612 z m 0,1.64324 q -1.63125,0 -2.47086,1.211439 -0.82762,1.199445 -0.82762,3.742269 0,2.494845 0.81563,3.706284 0.82761,1.21144 2.45886,1.21144 1.63124,0 2.44687,-1.21144 0.82761,-1.211439 0.82761,-3.730273 0,-2.518835 -0.81562,-3.71828 -0.81562,-1.211439 -2.43487,-1.211439 z"
       id="path15290"
       style="font-size:23.9889px;font-family:'Fira Code';-inkscape-font-specification:'Fira Code';fill:#ffffff;stroke-width:0.264583" />
    <path
       d="m 454.05566,14.746109 -4.59387,12.630156 h -2.33892 l -4.55789,-12.630156 h 2.13501 l 3.65831,10.795005 3.61033,-10.795005 z"
       id="path15292"
       style="font-size:23.9889px;font-family:'Fira Code';-inkscape-font-specification:'Fira Code';fill:#ffffff;stroke-width:0.264583" />
    <path
       d="m 464.31092,14.746109 v 11.034894 h 3.56235 v 1.595262 h -9.47562 v -1.595262 h 3.8982 v -9.439632 h -3.77825 v -1.595262 z m -1.60726,-5.9132635 q 0.67169,0 1.06751,0.4078113 0.40781,0.4078112 0.40781,0.9955392 0,0.611717 -0.40781,1.031523 -0.39582,0.407811 -1.06751,0.407811 -0.6357,0 -1.04352,-0.407811 -0.40781,-0.419806 -0.40781,-1.031523 0,-0.587728 0.40781,-0.9955392 0.40782,-0.4078113 1.04352,-0.4078113 z"
       id="path15294"
       style="font-size:23.9889px;font-family:'Fira Code';-inkscape-font-specification:'Fira Code';fill:#ffffff;stroke-width:0.264583" />
    <path
       d="m 473.89449,21.774857 q 0.06,1.463322 0.56373,2.39889 0.50377,0.923572 1.33139,1.367367 0.82762,0.4318 1.79917,0.4318 0.97155,0 1.75119,-0.287867 0.79163,-0.287867 1.61925,-0.851606 l 0.94756,1.331384 q -0.88759,0.695678 -2.02706,1.091495 -1.12748,0.395817 -2.31493,0.395817 -1.83515,0 -3.13055,-0.827617 -1.29541,-0.827617 -1.97909,-2.302934 -0.67169,-1.487312 -0.67169,-3.442407 0,-1.919112 0.68369,-3.406424 0.68368,-1.487312 1.91911,-2.338918 1.23543,-0.851606 2.91465,-0.851606 1.59526,0 2.74673,0.755651 1.15146,0.743655 1.76318,2.135012 0.62371,1.379361 0.62371,3.298473 0,0.32385 -0.012,0.611717 -0.012,0.275873 -0.036,0.491773 z m 3.43041,-5.637392 q -1.40335,0 -2.35091,0.99554 -0.93557,0.995539 -1.06751,3.082573 h 6.58495 q -0.036,-2.027062 -0.88759,-3.04659 -0.8516,-1.031523 -2.27894,-1.031523 z"
       id="path15296"
       style="font-size:23.9889px;font-family:'Fira Code';-inkscape-font-specification:'Fira Code';fill:#ffffff;stroke-width:0.264583" />
    <path
       d="m 493.58937,18.98015 q 0,-1.883129 -0.32385,-3.358446 -0.31185,-1.487312 -0.94756,-2.698751 -0.6357,-1.223434 -1.60725,-2.326923 -0.95956,-1.1154843 -2.25496,-2.2669514 l 1.05551,-1.1034894 q 1.9551,1.5832674 3.33446,3.2504958 1.37936,1.667229 2.11102,3.718279 0.74366,2.051051 0.74366,4.785786 0,2.72274 -0.74366,4.773791 -0.73166,2.051051 -2.11102,3.718279 -1.37936,1.667229 -3.33446,3.26249 l -1.05551,-1.103489 q 1.2834,-1.139473 2.24296,-2.254956 0.97155,-1.10349 1.60726,-2.326924 0.6357,-1.235428 0.95955,-2.710745 0.32385,-1.487312 0.32385,-3.358446 z"
       id="path15298"
       style="font-size:23.9889px;font-family:'Fira Code';-inkscape-font-specification:'Fira Code';fill:#ffffff;stroke-width:0.264583" />
    <path
       style="fill:#faff00;fill-opacity:0;stroke-width:0.338516;-inkscape-stroke:none;stop-color:#000000"
       d="M 209.03375,72.273207 V 41.298975 h 9.94188 c 11.13793,0 14.00435,0.3203 18.54829,2.072629 5.0056,1.930362 8.71348,5.595492 10.23195,10.113954 0.80618,2.39896 1.10006,8.290556 0.56785,11.384371 -1.30932,7.611324 -6.61938,12.549418 -15.59384,14.501485 -1.61035,0.350276 -5.04588,0.625683 -9.39382,0.753056 l -6.85496,0.200815 v 11.461075 11.46108 h -3.72367 -3.72368 z m 22.93921,1.08172 c 3.71082,-1.072809 5.91297,-2.90485 7.40379,-6.159463 0.79149,-1.727912 0.95214,-2.595369 1.07621,-5.811262 0.19752,-5.119932 -0.60196,-7.921051 -2.92025,-10.231585 -3.1154,-3.104981 -6.78043,-4.068227 -15.55072,-4.087056 l -5.50089,-0.01181 v 13.579588 13.579588 l 6.85496,-0.171417 c 4.66888,-0.116752 7.42322,-0.335705 8.6369,-0.686583 z"
       id="path13705"
       transform="scale(0.26458333)" />
    <path
       style="fill:#faff00;fill-opacity:0;stroke-width:0.338516;-inkscape-stroke:none;stop-color:#000000"
       d="M 209.03375,72.273207 V 41.298975 h 9.94188 c 11.13793,0 14.00435,0.3203 18.54829,2.072629 5.0056,1.930362 8.71348,5.595492 10.23195,10.113954 0.80618,2.39896 1.10006,8.290556 0.56785,11.384371 -1.30932,7.611324 -6.61938,12.549418 -15.59384,14.501485 -1.61035,0.350276 -5.04588,0.625683 -9.39382,0.753056 l -6.85496,0.200815 v 11.461075 11.46108 h -3.72367 -3.72368 z m 22.93921,1.08172 c 3.71082,-1.072809 5.91297,-2.90485 7.40379,-6.159463 0.79149,-1.727912 0.95214,-2.595369 1.07621,-5.811262 0.19752,-5.119932 -0.60196,-7.921051 -2.92025,-10.231585 -3.1154,-3.104981 -6.78043,-4.068227 -15.55072,-4.087056 l -5.50089,-0.01181 v 13.579588 13.579588 l 6.85496,-0.171417 c 4.66888,-0.116752 7.42322,-0.335705 8.6369,-0.686583 z"
       id="path15228"
       transform="scale(0.26458333)" />
    <path
       style="fill:#faff00;fill-opacity:0;stroke-width:0.338516;-inkscape-stroke:none;stop-color:#000000"
       d="M 209.03375,72.273207 V 41.298975 h 9.94188 c 11.13793,0 14.00435,0.3203 18.54829,2.072629 5.0056,1.930362 8.71348,5.595492 10.23195,10.113954 0.80618,2.39896 1.10006,8.290556 0.56785,11.384371 -1.30932,7.611324 -6.61938,12.549418 -15.59384,14.501485 -1.61035,0.350276 -5.04588,0.625683 -9.39382,0.753056 l -6.85496,0.200815 v 11.461075 11.46108 h -3.72367 -3.72368 z m 22.93921,1.08172 c 3.71082,-1.072809 5.91297,-2.90485 7.40379,-6.159463 0.79149,-1.727912 0.95214,-2.595369 1.07621,-5.811262 0.19752,-5.119932 -0.60196,-7.921051 -2.92025,-10.231585 -3.1154,-3.104981 -6.78043,-4.068227 -15.55072,-4.087056 l -5.50089,-0.01181 v 13.579588 13.579588 l 6.85496,-0.171417 c 4.66888,-0.116752 7.42322,-0.335705 8.6369,-0.686583 z"
       id="path15230"
       transform="scale(0.26458333)" />
  </g>
</svg>
