<svg version="1.1" viewBox="0.0 0.0 811.9343832020998 451.93438320209975" fill="none" stroke="none" stroke-linecap="square" stroke-miterlimit="10" xmlns:xlink="http://www.w3.org/1999/xlink" xmlns="http://www.w3.org/2000/svg"><clipPath id="p.0"><path d="m0 0l811.9344 0l0 451.9344l-811.9344 0l0 -451.9344z" clip-rule="nonzero"/></clipPath><g clip-path="url(#p.0)"><path fill="#000000" fill-opacity="0.0" d="m0 0l811.9344 0l0 451.9344l-811.9344 0z" fill-rule="evenodd"/><path fill="#014063" d="m7.9986877 216.31496l0 0c0 -57.524582 46.632893 -104.15748 104.15748 -104.15748l0 0c27.62429 0 54.11715 10.9737015 73.65046 30.507027c19.533325 19.53331 30.507019 46.02617 30.507019 73.65045l0 0c0 57.524582 -46.63289 104.157486 -104.15748 104.157486l0 0c-57.524586 0 -104.15748 -46.632904 -104.15748 -104.157486z" fill-rule="evenodd"/><path stroke="#8fe3e8" stroke-width="3.0" stroke-linejoin="round" stroke-linecap="butt" d="m7.9986877 216.31496l0 0c0 -57.524582 46.632893 -104.15748 104.15748 -104.15748l0 0c27.62429 0 54.11715 10.9737015 73.65046 30.507027c19.533325 19.53331 30.507019 46.02617 30.507019 73.65045l0 0c0 57.524582 -46.63289 104.157486 -104.15748 104.157486l0 0c-57.524586 0 -104.15748 -46.632904 -104.15748 -104.157486z" fill-rule="evenodd"/><path fill="#8fe3e8" d="m61.431282 227.24059l-0.265625 -3.078125l2.078125 -0.125q0.890625 -0.046875 1.453125 -0.390625q0.578125 -0.34375 0.875 -0.96875q0.296875 -0.625 0.296875 -1.515625l0 -14.859375l3.75 0l0 14.828125q0 1.859375 -0.65625 3.15625q-0.640625 1.28125 -1.9375 1.984375q-1.28125 0.703125 -3.1875 0.84375l-2.40625 0.125zm17.536484 0.03125q-1.78125 0 -2.953125 -0.65625q-1.171875 -0.671875 -1.75 -1.984375q-0.578125 -1.328125 -0.578125 -3.28125l0 -8.71875l3.671875 0l0 8.765625q0 1.0 0.28125 1.6875q0.28125 0.671875 0.84375 1.0q0.578125 0.3125 1.453125 0.3125q1.0 0 1.75 -0.453125q0.75 -0.453125 1.171875 -1.28125q0.421875 -0.84375 0.421875 -1.96875l0 -8.0625l3.671875 0l0 14.34375l-3.578125 0l0 -2.984375l0.40625 0q-0.609375 1.578125 -1.859375 2.4375q-1.25 0.84375 -2.953125 0.84375zm11.855972 -0.296875l0 -14.34375l3.578125 0l0 2.875l-0.328125 0q0.390625 -1.0 1.0625 -1.703125q0.671875 -0.703125 1.609375 -1.078125q0.9375 -0.390625 2.078125 -0.390625q1.734375 0 2.84375 0.828125q1.125 0.8125 1.5625 2.515625l-0.421875 0q0.59375 -1.546875 1.9375 -2.4375q1.359375 -0.90625 3.109375 -0.90625q1.640625 0 2.703125 0.65625q1.078125 0.640625 1.609375 1.953125q0.53125 1.296875 0.53125 3.296875l0 8.734375l-3.671875 0l0 -8.59375q0 -1.640625 -0.546875 -2.40625q-0.53125 -0.765625 -1.828125 -0.765625q-0.9375 0 -1.640625 0.46875q-0.703125 0.453125 -1.078125 1.296875q-0.359375 0.84375 -0.359375 2.046875l0 7.953125l-3.65625 0l0 -8.59375q0 -1.640625 -0.546875 -2.40625q-0.546875 -0.765625 -1.8125 -0.765625q-0.953125 0 -1.65625 0.46875q-0.6875 0.453125 -1.0625 1.296875q-0.359375 0.84375 -0.359375 2.046875l0 7.953125l-3.65625 0zm30.376999 0.296875q-1.546875 0 -2.765625 -0.59375q-1.21875 -0.609375 -1.90625 -1.640625q-0.6875 -1.03125 -0.6875 -2.3125q0 -1.59375 0.8125 -2.515625q0.828125 -0.921875 2.671875 -1.328125q1.84375 -0.40625 4.953125 -0.40625l1.46875 0l0 2.109375l-1.4375 0q-1.375 0 -2.3125 0.109375q-0.9375 0.09375 -1.515625 0.3125q-0.5625 0.21875 -0.8125 0.609375q-0.25 0.375 -0.25 0.9375q0 0.96875 0.671875 1.578125q0.671875 0.609375 1.875 0.609375q0.96875 0 1.71875 -0.453125q0.75 -0.453125 1.1875 -1.234375q0.4375 -0.796875 0.4375 -1.828125l0 -3.375q0 -1.46875 -0.65625 -2.109375q-0.640625 -0.640625 -2.15625 -0.640625q-1.203125 0 -2.46875 0.375q-1.265625 0.359375 -2.546875 1.125l-1.0625 -2.5q0.765625 -0.53125 1.796875 -0.921875q1.046875 -0.390625 2.203125 -0.609375q1.171875 -0.234375 2.1875 -0.234375q2.109375 0 3.46875 0.65625q1.375 0.640625 2.0468826 1.953125q0.671875 1.296875 0.671875 3.34375l0 8.6875l-3.4218826 0l0 -3.046875l0.234375 0q-0.203125 1.015625 -0.8125 1.765625q-0.59375 0.75 -1.515625 1.171875q-0.90625 0.40625 -2.078125 0.40625zm11.323738 -0.296875l0 -14.34375l3.578125 0l0 2.875l-0.328125 0q0.65625 -1.546875 2.015625 -2.359375q1.359375 -0.8125 3.09375 -0.8125q1.734375 0 2.84375 0.65625q1.109375 0.640625 1.671875 1.953125q0.5625 1.296875 0.5625 3.296875l0 8.734375l-3.671875 0l0 -8.5625q0 -1.109375 -0.28125 -1.8125q-0.28125 -0.71875 -0.859375 -1.046875q-0.5625 -0.34375 -1.4375 -0.34375q-1.0625 0 -1.859375 0.46875q-0.78125 0.453125 -1.21875 1.28125q-0.4375 0.828125 -0.4375 1.953125l0 8.0625l-3.671875 0zm17.031937 -17.421875l0 -3.578125l4.109375 0l0 3.578125l-4.109375 0zm-3.09375 23.078125l-0.265625 -2.671875l1.34375 -0.140625q1.140625 -0.140625 1.703125 -0.78125q0.5625 -0.625 0.5625 -1.859375l0 -14.546875l3.65625 0l0 14.078125q0 1.4375 -0.328125 2.484375q-0.3125 1.0625 -0.984375 1.765625q-0.671875 0.703125 -1.78125 1.078125q-1.09375 0.390625 -2.65625 0.515625l-1.25 0.078125zm10.580353 -23.078125l0 -3.578125l4.109375 0l0 3.578125l-4.109375 0zm0.234375 17.421875l0 -14.34375l3.671875 0l0 14.34375l-3.671875 0z" fill-rule="nonzero"/><path fill="#014063" d="m150.40294 138.10248l0 0c0 -3.2441864 2.6299286 -5.8741302 5.8741302 -5.8741302l127.02338 0c1.5579224 0 3.0520325 0.6188812 4.153656 1.7204895c1.101593 1.1016235 1.7204895 2.5957184 1.7204895 4.1536407l0 23.495834c0 3.2441864 -2.6299438 5.8741302 -5.8741455 5.8741302l-127.02338 0c-3.2442017 0 -5.8741302 -2.6299438 -5.8741302 -5.8741302z" fill-rule="evenodd"/><path stroke="#8fe3e8" stroke-width="2.0" stroke-linejoin="round" stroke-linecap="butt" d="m150.40294 138.10248l0 0c0 -3.2441864 2.6299286 -5.8741302 5.8741302 -5.8741302l127.02338 0c1.5579224 0 3.0520325 0.6188812 4.153656 1.7204895c1.101593 1.1016235 1.7204895 2.5957184 1.7204895 4.1536407l0 23.495834c0 3.2441864 -2.6299438 5.8741302 -5.8741455 5.8741302l-127.02338 0c-3.2442017 0 -5.8741302 -2.6299438 -5.8741302 -5.8741302z" fill-rule="evenodd"/><path fill="#8fe3e8" d="m191.41113 158.1104l0 -15.96875l1.5625 0l6.484375 12.15625l-0.6875 0l6.4375 -12.15625l1.5625 0l0 15.96875l-1.71875 0l0 -13.484375l0.546875 0l-5.875 11.015625l-1.21875 0l-5.9375 -11.03125l0.546875 0l0 13.5l-1.703125 0zm23.652298 0.203125q-1.609375 0 -2.796875 -0.703125q-1.171875 -0.703125 -1.8125 -1.984375q-0.640625 -1.28125 -0.640625 -3.015625q0 -1.75 0.640625 -3.03125q0.640625 -1.28125 1.8125 -1.984375q1.1875 -0.703125 2.796875 -0.703125q1.609375 0 2.78125 0.703125q1.1875 0.703125 1.828125 1.984375q0.640625 1.28125 0.640625 3.03125q0 1.734375 -0.640625 3.015625q-0.640625 1.28125 -1.828125 1.984375q-1.171875 0.703125 -2.78125 0.703125zm0 -1.46875q1.5625 0 2.484375 -1.09375q0.921875 -1.109375 0.921875 -3.171875q0 -2.03125 -0.921875 -3.109375q-0.921875 -1.09375 -2.484375 -1.09375q-1.546875 0 -2.46875 1.09375q-0.921875 1.078125 -0.921875 3.109375q0 2.0625 0.921875 3.171875q0.921875 1.09375 2.46875 1.09375zm11.110062 1.265625l-4.75 -11.015625l2.0 0l3.9375 9.65625l-0.609375 0l4.015625 -9.65625l1.875 0l-4.75 11.015625l-1.71875 0zm8.199188 -13.75l0 -2.0625l2.265625 0l0 2.0625l-2.265625 0zm0.21875 13.75l0 -11.015625l1.84375 0l0 11.015625l-1.84375 0zm10.224991 0.203125q-1.75 0 -3.015625 -0.6875q-1.25 -0.6875 -1.9375 -1.953125q-0.6875 -1.28125 -0.6875 -3.046875q0 -1.71875 0.671875 -3.0q0.6875 -1.28125 1.875 -2.0q1.1875 -0.734375 2.75 -0.734375q1.5 0 2.5625 0.65625q1.0625 0.65625 1.640625 1.859375q0.578125 1.203125 0.578125 2.875l0 0.703125l-8.671875 0l0 -1.203125l7.453125 0l-0.375 0.296875q0 -1.8125 -0.8125 -2.8125q-0.796875 -1.015625 -2.328125 -1.015625q-1.15625 0 -1.96875 0.53125q-0.796875 0.53125 -1.203125 1.484375q-0.40625 0.9375 -0.40625 2.1875l0 0.125q0 1.390625 0.4375 2.34375q0.4375 0.9375 1.3125 1.4375q0.890625 0.484375 2.125 0.484375q0.96875 0 1.890625 -0.296875q0.921875 -0.3125 1.734375 -1.015625l0.625 1.28125q-0.75 0.6875 -1.90625 1.09375q-1.140625 0.40625 -2.34375 0.40625z" fill-rule="nonzero"/><path fill="#014063" d="m525.99866 342.17584l0 0c0 -57.524567 46.632935 -104.15747 104.15753 -104.15747l0 0c27.624268 0 54.117126 10.973709 73.65045 30.507019c19.533325 19.533325 30.507019 46.026184 30.507019 73.65045l0 0c0 57.524597 -46.632874 104.1575 -104.15747 104.1575l0 0c-57.524597 0 -104.15753 -46.632904 -104.15753 -104.1575z" fill-rule="evenodd"/><path stroke="#8fe3e8" stroke-width="3.0" stroke-linejoin="round" stroke-linecap="butt" d="m525.99866 342.17584l0 0c0 -57.524567 46.632935 -104.15747 104.15753 -104.15747l0 0c27.624268 0 54.117126 10.973709 73.65045 30.507019c19.533325 19.533325 30.507019 46.026184 30.507019 73.65045l0 0c0 57.524597 -46.632874 104.1575 -104.15747 104.1575l0 0c-57.524597 0 -104.15753 -46.632904 -104.15753 -104.1575z" fill-rule="evenodd"/><path fill="#8fe3e8" d="m586.67 352.83585l0 -20.671875l13.515625 0l0 2.984375l-9.765625 0l0 5.84375l9.140625 0l0 2.984375l-9.140625 0l0 8.859375l-3.75 0zm15.829712 0l0 -14.34375l3.578125 0l0 3.46875l-0.296875 0q0.421875 -1.765625 1.609375 -2.6875q1.203125 -0.921875 3.203125 -1.078125l1.109375 -0.078125l0.234375 3.109375l-2.109375 0.203125q-1.78125 0.171875 -2.703125 1.09375q-0.90625 0.921875 -0.90625 2.59375l0 7.71875l-3.71875 0zm18.324463 0.296875q-2.421875 0 -4.1875 -0.90625q-1.765625 -0.921875 -2.71875 -2.59375q-0.953125 -1.671875 -0.953125 -3.953125q0 -2.234375 0.921875 -3.90625q0.9375 -1.671875 2.5625 -2.625q1.625 -0.953125 3.703125 -0.953125q2.0625 0 3.515625 0.890625q1.46875 0.875 2.28125 2.484375q0.8125 1.609375 0.8125 3.84375l0 1.09375l-10.828125 0l0 -2.125l8.234375 0l-0.46875 0.453125q0 -2.0 -0.875 -3.0625q-0.875 -1.078125 -2.515625 -1.078125q-1.234375 0 -2.109375 0.578125q-0.859375 0.5625 -1.3125 1.609375q-0.453125 1.03125 -0.453125 2.46875l0 0.21875q0 1.609375 0.5 2.671875q0.5 1.046875 1.484375 1.578125q1.0 0.515625 2.46875 0.515625q1.203125 0 2.40625 -0.359375q1.203125 -0.359375 2.203125 -1.15625l1.015625 2.46875q-1.015625 0.84375 -2.578125 1.34375q-1.546875 0.5 -3.109375 0.5zm8.833313 -0.296875l0 -14.34375l3.578125 0l0 2.875l-0.328125 0q0.65625 -1.546875 2.015625 -2.359375q1.359375 -0.8125 3.09375 -0.8125q1.734375 0 2.84375 0.65625q1.109375 0.640625 1.671875 1.953125q0.5625 1.296875 0.5625 3.296875l0 8.734375l-3.671875 0l0 -8.5625q0 -1.109375 -0.28125 -1.8125q-0.28125 -0.71875 -0.859375 -1.046875q-0.5625 -0.34375 -1.4375 -0.34375q-1.0625 0 -1.859375 0.46875q-0.78125 0.453125 -1.21875 1.28125q-0.4375 0.828125 -0.4375 1.953125l0 8.0625l-3.671875 0zm23.781921 0.296875q-2.25 0 -3.921875 -0.921875q-1.671875 -0.921875 -2.59375 -2.625q-0.90625 -1.703125 -0.90625 -4.0q0 -2.28125 0.90625 -3.9375q0.921875 -1.65625 2.59375 -2.546875q1.671875 -0.90625 3.921875 -0.90625q1.375 0 2.71875 0.453125q1.359375 0.4375 2.234375 1.21875l-1.078125 2.5625q-0.765625 -0.6875 -1.71875 -1.03125q-0.953125 -0.359375 -1.828125 -0.359375q-1.90625 0 -2.953125 1.1875q-1.03125 1.1875 -1.03125 3.390625q0 2.171875 1.03125 3.421875q1.046875 1.25 2.953125 1.25q0.84375 0 1.8125 -0.34375q0.96875 -0.359375 1.734375 -1.0625l1.078125 2.578125q-0.875 0.765625 -2.234375 1.21875q-1.359375 0.453125 -2.71875 0.453125zm7.2178955 -0.296875l0 -20.671875l3.671875 0l0 9.203125l-0.421875 0q0.65625 -1.546875 2.015625 -2.359375q1.359375 -0.8125 3.09375 -0.8125q1.734375 0 2.84375 0.65625q1.109375 0.640625 1.671875 1.953125q0.5625 1.296875 0.5625 3.296875l0 8.734375l-3.671875 0l0 -8.5625q0 -1.109375 -0.28125 -1.8125q-0.28125 -0.71875 -0.859375 -1.046875q-0.5625 -0.34375 -1.4375 -0.34375q-1.0625 0 -1.859375 0.46875q-0.78125 0.453125 -1.21875 1.28125q-0.4375 0.828125 -0.4375 1.953125l0 8.0625l-3.671875 0z" fill-rule="nonzero"/><path fill="#014063" d="m668.40295 263.96338l0 0c0 -3.2442017 2.6299438 -5.8741455 5.8740845 -5.8741455l127.02344 0c1.5579224 0 3.052002 0.6188965 4.1536255 1.7204895c1.1016235 1.1016235 1.720459 2.5957336 1.720459 4.153656l0 23.49582c0 3.2442017 -2.6298828 5.8741455 -5.8740845 5.8741455l-127.02344 0c-3.2441406 0 -5.8740845 -2.6299438 -5.8740845 -5.8741455z" fill-rule="evenodd"/><path stroke="#8fe3e8" stroke-width="2.0" stroke-linejoin="round" stroke-linecap="butt" d="m668.40295 263.96338l0 0c0 -3.2442017 2.6299438 -5.8741455 5.8740845 -5.8741455l127.02344 0c1.5579224 0 3.052002 0.6188965 4.1536255 1.7204895c1.1016235 1.1016235 1.720459 2.5957336 1.720459 4.153656l0 23.49582c0 3.2442017 -2.6298828 5.8741455 -5.8740845 5.8741455l-127.02344 0c-3.2441406 0 -5.8740845 -2.6299438 -5.8740845 -5.8741455z" fill-rule="evenodd"/><path fill="#8fe3e8" d="m689.50604 283.97128l0 -15.96875l1.859375 0l0 14.34375l8.140625 0l0 1.625l-10.0 0zm15.521057 0.203125q-1.125 0 -2.03125 -0.4375q-0.890625 -0.4375 -1.421875 -1.203125q-0.515625 -0.78125 -0.515625 -1.734375q0 -1.21875 0.625 -1.921875q0.625 -0.703125 2.0625 -1.0q1.4375 -0.296875 3.9375 -0.296875l1.015625 0l0 1.203125l-1.0 0q-1.375 0 -2.3125 0.09375q-0.921875 0.09375 -1.46875 0.328125q-0.546875 0.21875 -0.78125 0.578125q-0.21875 0.359375 -0.21875 0.90625q0 0.921875 0.640625 1.515625q0.65625 0.59375 1.765625 0.59375q0.90625 0 1.59375 -0.421875q0.6875 -0.4375 1.078125 -1.1875q0.40625 -0.75 0.40625 -1.734375l0 -2.578125q0 -1.40625 -0.5625 -2.015625q-0.5625 -0.625 -1.859375 -0.625q-1.0 0 -1.9375 0.28125q-0.921875 0.28125 -1.890625 0.90625l-0.640625 -1.328125q0.59375 -0.40625 1.34375 -0.703125q0.75 -0.3125 1.5625 -0.46875q0.8125 -0.171875 1.5625 -0.171875q1.421875 0 2.34375 0.46875q0.9375 0.46875 1.390625 1.40625q0.453125 0.9375 0.453125 2.40625l0 6.9375l-1.71875 0l0 -2.5625l0.203125 0q-0.1875 0.859375 -0.703125 1.484375q-0.5 0.609375 -1.25 0.953125q-0.75 0.328125 -1.671875 0.328125zm8.5390625 -0.203125l0 -11.015625l1.796875 0l0 2.453125l-0.25 0q0.46875 -1.3125 1.546875 -1.984375q1.078125 -0.671875 2.484375 -0.671875q1.3125 0 2.1875 0.46875q0.875 0.46875 1.296875 1.4375q0.4375 0.96875 0.4375 2.453125l0 6.859375l-1.84375 0l0 -6.75q0 -1.015625 -0.265625 -1.671875q-0.25 -0.65625 -0.8125 -0.96875q-0.546875 -0.328125 -1.4375 -0.328125q-0.984375 0 -1.734375 0.4375q-0.75 0.421875 -1.15625 1.203125q-0.40625 0.765625 -0.40625 1.796875l0 6.28125l-1.84375 0zm17.743713 4.28125q-1.421875 0 -2.6875 -0.375q-1.25 -0.375 -2.234375 -1.125l0.609375 -1.328125q0.6875 0.46875 1.34375 0.765625q0.671875 0.3125 1.390625 0.453125q0.71875 0.140625 1.484375 0.140625q1.609375 0 2.4375 -0.859375q0.828125 -0.859375 0.828125 -2.5l0 -2.5625l0.21875 0q-0.328125 1.3125 -1.4375 2.09375q-1.09375 0.765625 -2.5625 0.765625q-1.515625 0 -2.625 -0.6875q-1.109375 -0.6875 -1.71875 -1.9375q-0.59375 -1.25 -0.59375 -2.875q0 -1.640625 0.59375 -2.875q0.609375 -1.234375 1.71875 -1.90625q1.109375 -0.6875 2.625 -0.6875q1.484375 0 2.578125 0.765625q1.09375 0.75 1.40625 2.046875l-0.203125 0l0 -2.609375l1.78125 0l0 10.21875q0 1.6875 -0.5625 2.8125q-0.546875 1.140625 -1.65625 1.703125q-1.109375 0.5625 -2.734375 0.5625zm-0.265625 -6.03125q1.578125 0 2.5 -1.078125q0.9375 -1.09375 0.9375 -2.921875q0 -1.84375 -0.9375 -2.90625q-0.921875 -1.078125 -2.5 -1.078125q-1.578125 0 -2.5 1.078125q-0.921875 1.0625 -0.921875 2.90625q0 1.828125 0.921875 2.921875q0.921875 1.078125 2.5 1.078125zm12.573425 1.953125q-1.34375 0 -2.21875 -0.484375q-0.875 -0.484375 -1.3125 -1.453125q-0.4375 -0.984375 -0.4375 -2.4375l0 -6.84375l1.828125 0l0 6.828125q0 0.96875 0.265625 1.625q0.265625 0.640625 0.828125 0.953125q0.5625 0.296875 1.40625 0.296875q0.953125 0 1.65625 -0.421875q0.703125 -0.4375 1.109375 -1.203125q0.40625 -0.78125 0.40625 -1.8125l0 -6.265625l1.828125 0l0 11.015625l-1.78125 0l0 -2.53125l0.296875 0q-0.453125 1.328125 -1.484375 2.03125q-1.03125 0.703125 -2.390625 0.703125zm12.272644 0q-1.125 0 -2.03125 -0.4375q-0.890625 -0.4375 -1.421875 -1.203125q-0.515625 -0.78125 -0.515625 -1.734375q0 -1.21875 0.625 -1.921875q0.625 -0.703125 2.0625 -1.0q1.4375 -0.296875 3.9375 -0.296875l1.015625 0l0 1.203125l-1.0 0q-1.375 0 -2.3125 0.09375q-0.921875 0.09375 -1.46875 0.328125q-0.546875 0.21875 -0.78125 0.578125q-0.21875 0.359375 -0.21875 0.90625q0 0.921875 0.640625 1.515625q0.65625 0.59375 1.765625 0.59375q0.90625 0 1.59375 -0.421875q0.6875 -0.4375 1.078125 -1.1875q0.40625 -0.75 0.40625 -1.734375l0 -2.578125q0 -1.40625 -0.5625 -2.015625q-0.5625 -0.625 -1.859375 -0.625q-1.0 0 -1.9375 0.28125q-0.921875 0.28125 -1.890625 0.90625l-0.640625 -1.328125q0.59375 -0.40625 1.34375 -0.703125q0.75 -0.3125 1.5625 -0.46875q0.8125 -0.171875 1.5625 -0.171875q1.421875 0 2.34375 0.46875q0.9375 0.46875 1.390625 1.40625q0.453125 0.9375 0.453125 2.40625l0 6.9375l-1.71875 0l0 -2.5625l0.203125 0q-0.1875 0.859375 -0.703125 1.484375q-0.5 0.609375 -1.25 0.953125q-0.75 0.328125 -1.671875 0.328125zm13.414001 4.078125q-1.421875 0 -2.6875 -0.375q-1.25 -0.375 -2.234375 -1.125l0.609375 -1.328125q0.6875 0.46875 1.34375 0.765625q0.671875 0.3125 1.390625 0.453125q0.71875 0.140625 1.484375 0.140625q1.609375 0 2.4375 -0.859375q0.828125 -0.859375 0.828125 -2.5l0 -2.5625l0.21875 0q-0.328125 1.3125 -1.4375 2.09375q-1.09375 0.765625 -2.5625 0.765625q-1.515625 0 -2.625 -0.6875q-1.109375 -0.6875 -1.71875 -1.9375q-0.59375 -1.25 -0.59375 -2.875q0 -1.640625 0.59375 -2.875q0.609375 -1.234375 1.71875 -1.90625q1.109375 -0.6875 2.625 -0.6875q1.484375 0 2.578125 0.765625q1.09375 0.75 1.40625 2.046875l-0.203125 0l0 -2.609375l1.78125 0l0 10.21875q0 1.6875 -0.5625 2.8125q-0.546875 1.140625 -1.65625 1.703125q-1.109375 0.5625 -2.734375 0.5625zm-0.265625 -6.03125q1.578125 0 2.5 -1.078125q0.9375 -1.09375 0.9375 -2.921875q0 -1.84375 -0.9375 -2.90625q-0.921875 -1.078125 -2.5 -1.078125q-1.578125 0 -2.5 1.078125q-0.921875 1.0625 -0.921875 2.90625q0 1.828125 0.921875 2.921875q0.921875 1.078125 2.5 1.078125zm13.635925 1.953125q-1.75 0 -3.015625 -0.6875q-1.25 -0.6875 -1.9375 -1.953125q-0.6875 -1.28125 -0.6875 -3.046875q0 -1.71875 0.671875 -3.0q0.6875 -1.28125 1.875 -2.0q1.1875 -0.734375 2.75 -0.734375q1.5 0 2.5625 0.65625q1.0625 0.65625 1.640625 1.859375q0.578125 1.203125 0.578125 2.875l0 0.703125l-8.671875 0l0 -1.203125l7.453125 0l-0.375 0.296875q0 -1.8125 -0.8125 -2.8125q-0.796875 -1.015625 -2.328125 -1.015625q-1.15625 0 -1.96875 0.53125q-0.796875 0.53125 -1.203125 1.484375q-0.40625 0.9375 -0.40625 2.1875l0 0.125q0 1.390625 0.4375 2.34375q0.4375 0.9375 1.3125 1.4375q0.890625 0.484375 2.125 0.484375q0.96875 0 1.890625 -0.296875q0.921875 -0.3125 1.734375 -1.015625l0.625 1.28125q-0.75 0.6875 -1.90625 1.09375q-1.140625 0.40625 -2.34375 0.40625z" fill-rule="nonzero"/><path fill="#014063" d="m525.99866 112.15748l0 0c0 -57.524586 46.632935 -104.15748 104.15753 -104.15748l0 0c27.624268 0 54.117126 10.973703 73.65045 30.507019c19.533325 19.533318 30.507019 46.026176 30.507019 73.65046l0 0c0 57.52459 -46.632874 104.15748 -104.15747 104.15748l0 0c-57.524597 0 -104.15753 -46.63289 -104.15753 -104.15748z" fill-rule="evenodd"/><path stroke="#8fe3e8" stroke-width="3.0" stroke-linejoin="round" stroke-linecap="butt" d="m525.99866 112.15748l0 0c0 -57.524586 46.632935 -104.15748 104.15753 -104.15748l0 0c27.624268 0 54.117126 10.973703 73.65045 30.507019c19.533325 19.533318 30.507019 46.026176 30.507019 73.65046l0 0c0 57.52459 -46.632874 104.15748 -104.15747 104.15748l0 0c-57.524597 0 -104.15753 -46.63289 -104.15753 -104.15748z" fill-rule="evenodd"/><path fill="#8fe3e8" d="m582.0801 122.817474l0 -20.671875l13.75 0l0 2.984375l-10.15625 0l0 5.6875l9.515625 0l0 3.0l-9.515625 0l0 6.015625l10.15625 0l0 2.984375l-13.75 0zm17.149536 0l0 -14.34375l3.578125 0l0 2.875l-0.328125 0q0.65625 -1.546875 2.015625 -2.359375q1.359375 -0.8125 3.09375 -0.8125q1.734375 0 2.84375 0.65625q1.109375 0.640625 1.671875 1.953125q0.5625 1.296875 0.5625 3.296875l0 8.734375l-3.671875 0l0 -8.5625q0 -1.109375 -0.28125 -1.8125q-0.28125 -0.71875 -0.859375 -1.046875q-0.5625 -0.34375 -1.4375 -0.34375q-1.0625 0 -1.859375 0.46875q-0.78125 0.453125 -1.21875 1.28125q-0.4375 0.828125 -0.4375 1.953125l0 8.0625l-3.671875 0zm23.844421 5.578125q-2.0 0 -3.75 -0.46875q-1.734375 -0.453125 -3.0625 -1.390625l1.0625 -2.546875q0.828125 0.53125 1.734375 0.890625q0.90625 0.375 1.84375 0.546875q0.9375 0.171875 1.875 0.171875q1.96875 0 2.953125 -0.953125q0.984375 -0.953125 0.984375 -2.828125l0 -2.640625l0.265625 0q-0.453125 1.5 -1.84375 2.390625q-1.390625 0.890625 -3.140625 0.890625q-1.9375 0 -3.375 -0.890625q-1.4375 -0.890625 -2.234375 -2.5q-0.796875 -1.609375 -0.796875 -3.765625q0 -2.140625 0.796875 -3.734375q0.796875 -1.59375 2.234375 -2.484375q1.4375 -0.90625 3.375 -0.90625q1.8125 0 3.171875 0.90625q1.359375 0.890625 1.78125 2.359375l-0.234375 0l0 -2.96875l3.578125 0l0 12.90625q0 2.3125 -0.828125 3.875q-0.8125 1.578125 -2.4375 2.359375q-1.609375 0.78125 -3.953125 0.78125zm-0.09375 -8.71875q1.703125 0 2.703125 -1.171875q1.0 -1.171875 1.0 -3.203125q0 -2.015625 -1.0 -3.171875q-1.0 -1.15625 -2.703125 -1.15625q-1.703125 0 -2.703125 1.15625q-0.984375 1.15625 -0.984375 3.171875q0 2.03125 0.984375 3.203125q1.0 1.171875 2.703125 1.171875zm16.104797 3.4375q-2.546875 0 -3.765625 -1.390625q-1.21875 -1.40625 -1.21875 -4.09375l0 -15.484375l3.671875 0l0 15.3125q0 0.84375 0.25 1.453125q0.25 0.59375 0.734375 0.890625q0.5 0.28125 1.234375 0.28125q0.328125 0 0.640625 -0.015625q0.328125 -0.03125 0.625 -0.125l-0.0625 2.90625q-0.53125 0.109375 -1.046875 0.1875q-0.5 0.078125 -1.0625 0.078125zm4.136902 -17.71875l0 -3.578125l4.109375 0l0 3.578125l-4.109375 0zm0.234375 17.421875l0 -14.34375l3.671875 0l0 14.34375l-3.671875 0zm12.728699 0.296875q-1.203125 0 -2.328125 -0.21875q-1.125 -0.203125 -2.078125 -0.5625q-0.9375 -0.359375 -1.640625 -0.921875l0.9375 -2.40625q0.734375 0.46875 1.578125 0.828125q0.859375 0.34375 1.765625 0.53125q0.921875 0.171875 1.796875 0.171875q1.40625 0 2.09375 -0.484375q0.6875 -0.484375 0.6875 -1.28125q0 -0.671875 -0.453125 -1.03125q-0.453125 -0.375 -1.359375 -0.546875l-2.9375 -0.5625q-1.8125 -0.359375 -2.765625 -1.328125q-0.953125 -0.984375 -0.953125 -2.546875q0 -1.40625 0.765625 -2.421875q0.78125 -1.03125 2.15625 -1.59375q1.390625 -0.5625 3.171875 -0.5625q1.03125 0 2.0 0.203125q0.96875 0.1875 1.828125 0.5625q0.859375 0.359375 1.515625 0.9375l-1.0 2.40625q-0.5625 -0.46875 -1.296875 -0.796875q-0.734375 -0.34375 -1.515625 -0.53125q-0.765625 -0.1875 -1.5 -0.1875q-1.4375 0 -2.125 0.5q-0.6875 0.484375 -0.6875 1.3125q0 0.609375 0.40625 1.03125q0.40625 0.40625 1.265625 0.546875l2.9375 0.5625q1.90625 0.34375 2.875 1.296875q0.984375 0.9375 0.984375 2.515625q0 1.4375 -0.765625 2.46875q-0.75 1.015625 -2.140625 1.5625q-1.375 0.546875 -3.21875 0.546875zm9.062134 -0.296875l0 -20.671875l3.671875 0l0 9.203125l-0.421875 0q0.65625 -1.546875 2.015625 -2.359375q1.359375 -0.8125 3.09375 -0.8125q1.734375 0 2.84375 0.65625q1.109375 0.640625 1.671875 1.953125q0.5625 1.296875 0.5625 3.296875l0 8.734375l-3.671875 0l0 -8.5625q0 -1.109375 -0.28125 -1.8125q-0.28125 -0.71875 -0.859375 -1.046875q-0.5625 -0.34375 -1.4375 -0.34375q-1.0625 0 -1.859375 0.46875q-0.78125 0.453125 -1.21875 1.28125q-0.4375 0.828125 -0.4375 1.953125l0 8.0625l-3.671875 0z" fill-rule="nonzero"/><path fill="#014063" d="m668.40295 33.945l0 0c0 -3.244194 2.6299438 -5.874134 5.8740845 -5.874134l127.02344 0c1.5579224 0 3.052002 0.6188812 4.1536255 1.7204952c1.1016235 1.1016121 1.720459 2.5957203 1.720459 4.153639l0 23.495827c0 3.244194 -2.6298828 5.874134 -5.8740845 5.874134l-127.02344 0c-3.2441406 0 -5.8740845 -2.62994 -5.8740845 -5.874134z" fill-rule="evenodd"/><path stroke="#8fe3e8" stroke-width="2.0" stroke-linejoin="round" stroke-linecap="butt" d="m668.40295 33.945l0 0c0 -3.244194 2.6299438 -5.874134 5.8740845 -5.874134l127.02344 0c1.5579224 0 3.052002 0.6188812 4.1536255 1.7204952c1.1016235 1.1016121 1.720459 2.5957203 1.720459 4.153639l0 23.495827c0 3.244194 -2.6298828 5.874134 -5.8740845 5.874134l-127.02344 0c-3.2441406 0 -5.8740845 -2.62994 -5.8740845 -5.874134z" fill-rule="evenodd"/><path fill="#8fe3e8" d="m689.50604 53.95291l0 -15.96875l1.859375 0l0 14.34375l8.140625 0l0 1.625l-10.0 0zm15.521057 0.203125q-1.125 0 -2.03125 -0.4375q-0.890625 -0.4375 -1.421875 -1.203125q-0.515625 -0.78125 -0.515625 -1.734375q0 -1.21875 0.625 -1.921875q0.625 -0.703125 2.0625 -1.0q1.4375 -0.296875 3.9375 -0.296875l1.015625 0l0 1.203125l-1.0 0q-1.375 0 -2.3125 0.09375q-0.921875 0.09375 -1.46875 0.328125q-0.546875 0.21875 -0.78125 0.578125q-0.21875 0.359375 -0.21875 0.90625q0 0.921875 0.640625 1.515625q0.65625 0.59375 1.765625 0.59375q0.90625 0 1.59375 -0.421875q0.6875 -0.4375 1.078125 -1.1875q0.40625 -0.75 0.40625 -1.734375l0 -2.578125q0 -1.40625 -0.5625 -2.015625q-0.5625 -0.625 -1.859375 -0.625q-1.0 0 -1.9375 0.28125q-0.921875 0.28125 -1.890625 0.90625l-0.640625 -1.328125q0.59375 -0.40625 1.34375 -0.703125q0.75 -0.3125 1.5625 -0.46875q0.8125 -0.171875 1.5625 -0.171875q1.421875 0 2.34375 0.46875q0.9375 0.46875 1.390625 1.40625q0.453125 0.9375 0.453125 2.40625l0 6.9375l-1.71875 0l0 -2.5625l0.203125 0q-0.1875 0.859375 -0.703125 1.484375q-0.5 0.609375 -1.25 0.953125q-0.75 0.328125 -1.671875 0.328125zm8.5390625 -0.203125l0 -11.015625l1.796875 0l0 2.453125l-0.25 0q0.46875 -1.3125 1.546875 -1.984375q1.078125 -0.671875 2.484375 -0.671875q1.3125 0 2.1875 0.46875q0.875 0.46875 1.296875 1.4375q0.4375 0.96875 0.4375 2.453125l0 6.859375l-1.84375 0l0 -6.75q0 -1.015625 -0.265625 -1.671875q-0.25 -0.65625 -0.8125 -0.96875q-0.546875 -0.328125 -1.4375 -0.328125q-0.984375 0 -1.734375 0.4375q-0.75 0.421875 -1.15625 1.203125q-0.40625 0.765625 -0.40625 1.796875l0 6.28125l-1.84375 0zm17.743713 4.28125q-1.421875 0 -2.6875 -0.375q-1.25 -0.375 -2.234375 -1.125l0.609375 -1.328125q0.6875 0.46875 1.34375 0.765625q0.671875 0.3125 1.390625 0.453125q0.71875 0.140625 1.484375 0.140625q1.609375 0 2.4375 -0.859375q0.828125 -0.859375 0.828125 -2.5l0 -2.5625l0.21875 0q-0.328125 1.3125 -1.4375 2.09375q-1.09375 0.765625 -2.5625 0.765625q-1.515625 0 -2.625 -0.6875q-1.109375 -0.6875 -1.71875 -1.9375q-0.59375 -1.25 -0.59375 -2.875q0 -1.640625 0.59375 -2.875q0.609375 -1.234375 1.71875 -1.90625q1.109375 -0.6875 2.625 -0.6875q1.484375 0 2.578125 0.765625q1.09375 0.75 1.40625 2.046875l-0.203125 0l0 -2.609375l1.78125 0l0 10.21875q0 1.6875 -0.5625 2.8125q-0.546875 1.140625 -1.65625 1.703125q-1.109375 0.5625 -2.734375 0.5625zm-0.265625 -6.03125q1.578125 0 2.5 -1.078125q0.9375 -1.09375 0.9375 -2.921875q0 -1.84375 -0.9375 -2.90625q-0.921875 -1.078125 -2.5 -1.078125q-1.578125 0 -2.5 1.078125q-0.921875 1.0625 -0.921875 2.90625q0 1.828125 0.921875 2.921875q0.921875 1.078125 2.5 1.078125zm12.573425 1.953125q-1.34375 0 -2.21875 -0.484375q-0.875 -0.484375 -1.3125 -1.453125q-0.4375 -0.984375 -0.4375 -2.4375l0 -6.84375l1.828125 0l0 6.828125q0 0.96875 0.265625 1.625q0.265625 0.640625 0.828125 0.953125q0.5625 0.296875 1.40625 0.296875q0.953125 0 1.65625 -0.421875q0.703125 -0.4375 1.109375 -1.203125q0.40625 -0.78125 0.40625 -1.8125l0 -6.265625l1.828125 0l0 11.015625l-1.78125 0l0 -2.53125l0.296875 0q-0.453125 1.328125 -1.484375 2.03125q-1.03125 0.703125 -2.390625 0.703125zm12.272644 0q-1.125 0 -2.03125 -0.4375q-0.890625 -0.4375 -1.421875 -1.203125q-0.515625 -0.78125 -0.515625 -1.734375q0 -1.21875 0.625 -1.921875q0.625 -0.703125 2.0625 -1.0q1.4375 -0.296875 3.9375 -0.296875l1.015625 0l0 1.203125l-1.0 0q-1.375 0 -2.3125 0.09375q-0.921875 0.09375 -1.46875 0.328125q-0.546875 0.21875 -0.78125 0.578125q-0.21875 0.359375 -0.21875 0.90625q0 0.921875 0.640625 1.515625q0.65625 0.59375 1.765625 0.59375q0.90625 0 1.59375 -0.421875q0.6875 -0.4375 1.078125 -1.1875q0.40625 -0.75 0.40625 -1.734375l0 -2.578125q0 -1.40625 -0.5625 -2.015625q-0.5625 -0.625 -1.859375 -0.625q-1.0 0 -1.9375 0.28125q-0.921875 0.28125 -1.890625 0.90625l-0.640625 -1.328125q0.59375 -0.40625 1.34375 -0.703125q0.75 -0.3125 1.5625 -0.46875q0.8125 -0.171875 1.5625 -0.171875q1.421875 0 2.34375 0.46875q0.9375 0.46875 1.390625 1.40625q0.453125 0.9375 0.453125 2.40625l0 6.9375l-1.71875 0l0 -2.5625l0.203125 0q-0.1875 0.859375 -0.703125 1.484375q-0.5 0.609375 -1.25 0.953125q-0.75 0.328125 -1.671875 0.328125zm13.414001 4.078125q-1.421875 0 -2.6875 -0.375q-1.25 -0.375 -2.234375 -1.125l0.609375 -1.328125q0.6875 0.46875 1.34375 0.765625q0.671875 0.3125 1.390625 0.453125q0.71875 0.140625 1.484375 0.140625q1.609375 0 2.4375 -0.859375q0.828125 -0.859375 0.828125 -2.5l0 -2.5625l0.21875 0q-0.328125 1.3125 -1.4375 2.09375q-1.09375 0.765625 -2.5625 0.765625q-1.515625 0 -2.625 -0.6875q-1.109375 -0.6875 -1.71875 -1.9375q-0.59375 -1.25 -0.59375 -2.875q0 -1.640625 0.59375 -2.875q0.609375 -1.234375 1.71875 -1.90625q1.109375 -0.6875 2.625 -0.6875q1.484375 0 2.578125 0.765625q1.09375 0.75 1.40625 2.046875l-0.203125 0l0 -2.609375l1.78125 0l0 10.21875q0 1.6875 -0.5625 2.8125q-0.546875 1.140625 -1.65625 1.703125q-1.109375 0.5625 -2.734375 0.5625zm-0.265625 -6.03125q1.578125 0 2.5 -1.078125q0.9375 -1.09375 0.9375 -2.921875q0 -1.84375 -0.9375 -2.90625q-0.921875 -1.078125 -2.5 -1.078125q-1.578125 0 -2.5 1.078125q-0.921875 1.0625 -0.921875 2.90625q0 1.828125 0.921875 2.921875q0.921875 1.078125 2.5 1.078125zm13.635925 1.953125q-1.75 0 -3.015625 -0.6875q-1.25 -0.6875 -1.9375 -1.953125q-0.6875 -1.28125 -0.6875 -3.046875q0 -1.71875 0.671875 -3.0q0.6875 -1.28125 1.875 -2.0q1.1875 -0.734375 2.75 -0.734375q1.5 0 2.5625 0.65625q1.0625 0.65625 1.640625 1.859375q0.578125 1.203125 0.578125 2.875l0 0.703125l-8.671875 0l0 -1.203125l7.453125 0l-0.375 0.296875q0 -1.8125 -0.8125 -2.8125q-0.796875 -1.015625 -2.328125 -1.015625q-1.15625 0 -1.96875 0.53125q-0.796875 0.53125 -1.203125 1.484375q-0.40625 0.9375 -0.40625 2.1875l0 0.125q0 1.390625 0.4375 2.34375q0.4375 0.9375 1.3125 1.4375q0.890625 0.484375 2.125 0.484375q0.96875 0 1.890625 -0.296875q0.921875 -0.3125 1.734375 -1.015625l0.625 1.28125q-0.75 0.6875 -1.90625 1.09375q-1.140625 0.40625 -2.34375 0.40625z" fill-rule="nonzero"/><path fill="#000000" fill-opacity="0.0" d="m216.31364 216.31496l309.7008 -104.15748" fill-rule="evenodd"/><path stroke="#8fe3e8" stroke-width="3.0" stroke-linejoin="round" stroke-linecap="butt" d="m216.31364 216.31496l292.63983 -98.41959" fill-rule="evenodd"/><path fill="#8fe3e8" stroke="#8fe3e8" stroke-width="3.0" stroke-linecap="butt" d="m510.53305 122.59206l11.324493 -9.036537l-14.483643 -0.35684967z" fill-rule="evenodd"/><path fill="#014063" d="m305.5092 152.48831l0 0c0 -3.2442017 2.6299438 -5.8741455 5.8741455 -5.8741455l192.40921 0c1.5579224 0 3.0520325 0.6188812 4.1536255 1.7205048c1.1016235 1.1016083 1.7204895 2.5957184 1.7204895 4.1536407l0 23.49582c0 3.2442017 -2.6299133 5.8741302 -5.874115 5.8741302l-192.40921 0c-3.2442017 0 -5.8741455 -2.6299286 -5.8741455 -5.8741302z" fill-rule="evenodd"/><path stroke="#8fe3e8" stroke-width="2.0" stroke-linejoin="round" stroke-linecap="butt" d="m305.5092 152.48831l0 0c0 -3.2442017 2.6299438 -5.8741455 5.8741455 -5.8741455l192.40921 0c1.5579224 0 3.0520325 0.6188812 4.1536255 1.7205048c1.1016235 1.1016083 1.7204895 2.5957184 1.7204895 4.1536407l0 23.49582c0 3.2442017 -2.6299133 5.8741302 -5.874115 5.8741302l-192.40921 0c-3.2442017 0 -5.8741455 -2.6299286 -5.8741455 -5.8741302z" fill-rule="evenodd"/><path fill="#8fe3e8" d="m330.6793 172.49622l0 -15.96875l1.859375 0l0 15.96875l-1.859375 0zm5.799988 0l0 -15.96875l1.453125 0l10.171875 13.5625l-0.546875 0l0 -13.5625l1.71875 0l0 15.96875l-1.40625 0l-10.171875 -13.578125l0.53125 0l0 13.578125l-1.75 0zm15.2499695 1.203125l0 -1.203125l10.421875 0l0 1.203125l-10.421875 0zm12.8437195 -1.203125l0 -15.96875l1.859375 0l0 14.34375l8.140625 0l0 1.625l-10.0 0zm10.317749 0l7.03125 -15.96875l1.59375 0l7.046875 15.96875l-1.921875 0l-1.96875 -4.546875l0.90625 0.46875l-9.75 0l0.921875 -0.46875l-1.9375 4.546875l-1.921875 0zm7.8125 -13.796875l-3.65625 8.59375l-0.53125 -0.4375l8.375 0l-0.5 0.4375l-3.640625 -8.59375l-0.046875 0zm10.235107 13.796875l0 -15.96875l1.453125 0l10.171875 13.5625l-0.546875 0l0 -13.5625l1.71875 0l0 15.96875l-1.40625 0l-10.171875 -13.578125l0.53125 0l0 13.578125l-1.75 0zm24.06247 0.203125q-2.5625 0 -4.328125 -0.96875q-1.75 -0.984375 -2.65625 -2.8125q-0.90625 -1.84375 -0.90625 -4.390625q0 -2.546875 0.90625 -4.375q0.90625 -1.84375 2.609375 -2.828125q1.703125 -1.0 4.109375 -1.0q1.125 0 2.125 0.234375q1.015625 0.21875 1.890625 0.65625q0.875 0.4375 1.53125 1.09375l-0.734375 1.5q-1.078125 -0.953125 -2.234375 -1.375q-1.15625 -0.4375 -2.609375 -0.4375q-2.734375 0 -4.171875 1.703125q-1.4375 1.703125 -1.4375 4.828125q0 3.171875 1.484375 4.84375q1.484375 1.671875 4.46875 1.671875q1.09375 0 2.125 -0.203125q1.046875 -0.21875 1.96875 -0.609375l-0.40625 1.0625l0 -5.640625l-4.046875 0l0 -1.46875l5.65625 0l0 7.390625q-0.609375 0.3125 -1.515625 0.578125q-0.90625 0.25 -1.90625 0.390625q-1.0 0.15625 -1.921875 0.15625zm15.448425 0q-3.125 0 -4.765625 -1.65625q-1.640625 -1.671875 -1.640625 -4.875l0 -9.640625l1.859375 0l0 9.5625q0 2.484375 1.15625 3.71875q1.15625 1.234375 3.390625 1.234375q2.25 0 3.375 -1.234375q1.140625 -1.234375 1.140625 -3.71875l0 -9.5625l1.859375 0l0 9.640625q0 3.203125 -1.625 4.875q-1.625 1.65625 -4.75 1.65625zm8.552246 -0.203125l7.03125 -15.96875l1.59375 0l7.046875 15.96875l-1.921875 0l-1.96875 -4.546875l0.90625 0.46875l-9.75 0l0.921875 -0.46875l-1.9375 4.546875l-1.921875 0zm7.8125 -13.796875l-3.65625 8.59375l-0.53125 -0.4375l8.375 0l-0.5 0.4375l-3.640625 -8.59375l-0.046875 0zm17.26001 14.0q-2.5625 0 -4.328125 -0.96875q-1.75 -0.984375 -2.65625 -2.8125q-0.90625 -1.84375 -0.90625 -4.390625q0 -2.546875 0.90625 -4.375q0.90625 -1.84375 2.609375 -2.828125q1.703125 -1.0 4.109375 -1.0q1.125 0 2.125 0.234375q1.015625 0.21875 1.890625 0.65625q0.875 0.4375 1.53125 1.09375l-0.734375 1.5q-1.078125 -0.953125 -2.234375 -1.375q-1.15625 -0.4375 -2.609375 -0.4375q-2.734375 0 -4.171875 1.703125q-1.4375 1.703125 -1.4375 4.828125q0 3.171875 1.484375 4.84375q1.484375 1.671875 4.46875 1.671875q1.09375 0 2.125 -0.203125q1.046875 -0.21875 1.96875 -0.609375l-0.40625 1.0625l0 -5.640625l-4.046875 0l0 -1.46875l5.65625 0l0 7.390625q-0.609375 0.3125 -1.515625 0.578125q-0.90625 0.25 -1.90625 0.390625q-1.0 0.15625 -1.921875 0.15625zm9.15152 -0.203125l0 -15.96875l10.078125 0l0 1.5625l-8.265625 0l0 5.53125l7.796875 0l0 1.5625l-7.796875 0l0 5.75l8.265625 0l0 1.5625l-10.078125 0z" fill-rule="nonzero"/><path fill="#000000" fill-opacity="0.0" d="m216.31364 216.31496l309.7008 125.85826" fill-rule="evenodd"/><path stroke="#8fe3e8" stroke-width="3.0" stroke-linejoin="round" stroke-linecap="butt" d="m216.31364 216.31496l293.0252 119.08153" fill-rule="evenodd"/><path fill="#8fe3e8" stroke="#8fe3e8" stroke-width="3.0" stroke-linecap="butt" d="m507.47327 339.9871l14.478149 0.53497314l-10.747009 -9.716187z" fill-rule="evenodd"/><path fill="#014063" d="m301.0866 283.4962l0 0c0 -3.2442017 2.6299438 -5.8741455 5.8741455 -5.8741455l192.40921 0c1.5579224 0 3.0520325 0.6188965 4.1536255 1.7204895c1.1016235 1.1016235 1.72052 2.5957336 1.72052 4.153656l0 23.49582c0 3.2442017 -2.6299438 5.8741455 -5.8741455 5.8741455l-192.40921 0c-3.2442017 0 -5.8741455 -2.6299438 -5.8741455 -5.8741455z" fill-rule="evenodd"/><path stroke="#8fe3e8" stroke-width="2.0" stroke-linejoin="round" stroke-linecap="butt" d="m301.0866 283.4962l0 0c0 -3.2442017 2.6299438 -5.8741455 5.8741455 -5.8741455l192.40921 0c1.5579224 0 3.0520325 0.6188965 4.1536255 1.7204895c1.1016235 1.1016235 1.72052 2.5957336 1.72052 4.153656l0 23.49582c0 3.2442017 -2.6299438 5.8741455 -5.8741455 5.8741455l-192.40921 0c-3.2442017 0 -5.8741455 -2.6299438 -5.8741455 -5.8741455z" fill-rule="evenodd"/><path fill="#8fe3e8" d="m326.2567 303.5041l0 -15.96875l1.859375 0l0 15.96875l-1.859375 0zm5.799988 0l0 -15.96875l1.453125 0l10.171875 13.5625l-0.546875 0l0 -13.5625l1.71875 0l0 15.96875l-1.40625 0l-10.171875 -13.578125l0.53125 0l0 13.578125l-1.75 0zm15.2499695 1.203125l0 -1.203125l10.421875 0l0 1.203125l-10.421875 0zm12.8437195 -1.203125l0 -15.96875l1.859375 0l0 14.34375l8.140625 0l0 1.625l-10.0 0zm10.317749 0l7.03125 -15.96875l1.59375 0l7.046875 15.96875l-1.921875 0l-1.96875 -4.546875l0.90625 0.46875l-9.75 0l0.921875 -0.46875l-1.9375 4.546875l-1.921875 0zm7.8125 -13.796875l-3.65625 8.59375l-0.53125 -0.4375l8.375 0l-0.5 0.4375l-3.640625 -8.59375l-0.046875 0zm10.235107 13.796875l0 -15.96875l1.453125 0l10.171875 13.5625l-0.546875 0l0 -13.5625l1.71875 0l0 15.96875l-1.40625 0l-10.171875 -13.578125l0.53125 0l0 13.578125l-1.75 0zm24.06247 0.203125q-2.5625 0 -4.328125 -0.96875q-1.75 -0.984375 -2.65625 -2.8125q-0.90625 -1.84375 -0.90625 -4.390625q0 -2.546875 0.90625 -4.375q0.90625 -1.84375 2.609375 -2.828125q1.703125 -1.0 4.109375 -1.0q1.125 0 2.125 0.234375q1.015625 0.21875 1.890625 0.65625q0.875 0.4375 1.53125 1.09375l-0.734375 1.5q-1.078125 -0.953125 -2.234375 -1.375q-1.15625 -0.4375 -2.609375 -0.4375q-2.734375 0 -4.171875 1.703125q-1.4375 1.703125 -1.4375 4.828125q0 3.171875 1.484375 4.84375q1.484375 1.671875 4.46875 1.671875q1.09375 0 2.125 -0.203125q1.046875 -0.21875 1.96875 -0.609375l-0.40625 1.0625l0 -5.640625l-4.046875 0l0 -1.46875l5.65625 0l0 7.390625q-0.609375 0.3125 -1.515625 0.578125q-0.90625 0.25 -1.90625 0.390625q-1.0 0.15625 -1.921875 0.15625zm15.448425 0q-3.125 0 -4.765625 -1.65625q-1.640625 -1.671875 -1.640625 -4.875l0 -9.640625l1.859375 0l0 9.5625q0 2.484375 1.15625 3.71875q1.15625 1.234375 3.390625 1.234375q2.25 0 3.375 -1.234375q1.140625 -1.234375 1.140625 -3.71875l0 -9.5625l1.859375 0l0 9.640625q0 3.203125 -1.625 4.875q-1.625 1.65625 -4.75 1.65625zm8.552246 -0.203125l7.03125 -15.96875l1.59375 0l7.046875 15.96875l-1.921875 0l-1.96875 -4.546875l0.90625 0.46875l-9.75 0l0.921875 -0.46875l-1.9375 4.546875l-1.921875 0zm7.8125 -13.796875l-3.65625 8.59375l-0.53125 -0.4375l8.375 0l-0.5 0.4375l-3.640625 -8.59375l-0.046875 0zm17.26001 14.0q-2.5625 0 -4.328125 -0.96875q-1.75 -0.984375 -2.65625 -2.8125q-0.90625 -1.84375 -0.90625 -4.390625q0 -2.546875 0.90625 -4.375q0.90625 -1.84375 2.609375 -2.828125q1.703125 -1.0 4.109375 -1.0q1.125 0 2.125 0.234375q1.015625 0.21875 1.890625 0.65625q0.875 0.4375 1.53125 1.09375l-0.734375 1.5q-1.078125 -0.953125 -2.234375 -1.375q-1.15625 -0.4375 -2.609375 -0.4375q-2.734375 0 -4.171875 1.703125q-1.4375 1.703125 -1.4375 4.828125q0 3.171875 1.484375 4.84375q1.484375 1.671875 4.46875 1.671875q1.09375 0 2.125 -0.203125q1.046875 -0.21875 1.96875 -0.609375l-0.40625 1.0625l0 -5.640625l-4.046875 0l0 -1.46875l5.65625 0l0 7.390625q-0.609375 0.3125 -1.515625 0.578125q-0.90625 0.25 -1.90625 0.390625q-1.0 0.15625 -1.921875 0.15625zm9.15152 -0.203125l0 -15.96875l10.078125 0l0 1.5625l-8.265625 0l0 5.53125l7.796875 0l0 1.5625l-7.796875 0l0 5.75l8.265625 0l0 1.5625l-10.078125 0z" fill-rule="nonzero"/></g></svg>