<svg width="166" height="137" viewBox="0 0 166 137" fill="none" xmlns="http://www.w3.org/2000/svg">
  <!-- Placeholder illustration: the three shapes — tree, community, path -->
  <!-- Tree (left) -->
  <circle cx="30" cy="22" r="7" fill="#018BFF"/>
  <circle cx="16" cy="48" r="5" fill="#80B6FF"/>
  <circle cx="30" cy="48" r="5" fill="#80B6FF"/>
  <circle cx="44" cy="48" r="5" fill="#80B6FF"/>
  <line x1="30" y1="29" x2="16" y2="43" stroke="#018BFF" stroke-width="2"/>
  <line x1="30" y1="29" x2="30" y2="43" stroke="#018BFF" stroke-width="2"/>
  <line x1="30" y1="29" x2="44" y2="43" stroke="#018BFF" stroke-width="2"/>
  <!-- Community (center) -->
  <circle cx="83" cy="88" r="6" fill="#FFA500"/>
  <circle cx="70" cy="104" r="6" fill="#FFA500"/>
  <circle cx="96" cy="104" r="6" fill="#FFA500"/>
  <circle cx="83" cy="118" r="6" fill="#FFA500"/>
  <line x1="83" y1="94" x2="70" y2="99" stroke="#FFA500" stroke-width="2"/>
  <line x1="83" y1="94" x2="96" y2="99" stroke="#FFA500" stroke-width="2"/>
  <line x1="70" y1="109" x2="83" y2="113" stroke="#FFA500" stroke-width="2"/>
  <line x1="96" y1="109" x2="83" y2="113" stroke="#FFA500" stroke-width="2"/>
  <line x1="70" y1="99" x2="96" y2="99" stroke="#FFA500" stroke-width="2"/>
  <!-- Path (right) -->
  <circle cx="112" cy="30" r="6" fill="#00B388"/>
  <circle cx="132" cy="44" r="6" fill="#00B388"/>
  <circle cx="152" cy="30" r="6" fill="#00B388"/>
  <line x1="117" y1="34" x2="127" y2="41" stroke="#00B388" stroke-width="2"/>
  <line x1="137" y1="41" x2="147" y2="34" stroke="#00B388" stroke-width="2"/>
  <!-- Connecting strands between shapes -->
  <line x1="44" y1="53" x2="70" y2="99" stroke="#C7D2DD" stroke-width="1.5" stroke-dasharray="4 3"/>
  <line x1="96" y1="99" x2="127" y2="48" stroke="#C7D2DD" stroke-width="1.5" stroke-dasharray="4 3"/>
  <line x1="44" y1="48" x2="107" y2="31" stroke="#C7D2DD" stroke-width="1.5" stroke-dasharray="4 3"/>
</svg>
