<svg width="1195" height="675" viewBox="0 0 1195 675" fill="none" xmlns="http://www.w3.org/2000/svg">
  <path
    d="M1958.86 931.422C1946.99 930.738 1935.1 930.412 1923.22 930.878C1856.35 933.487 1796.72 946.244 1747.21 984.385C1634.75 1071.02 1663.06 1212.74 1569.48 1292.03C1483.46 1358.3 1360.03 1342.46 1293.79 1256.67C1221.32 1165.8 1290.1 1028.27 1200.8 912.595C1108.05 792.471 960.863 828.432 891.254 735.312C825.015 649.518 841.05 526.242 927.068 459.976C1013.09 393.71 1136.52 409.542 1202.76 495.336C1275.24 586.206 1205.26 722.188 1295.76 839.408C1386.94 949.539 1563.1 975.138 1674.06 889.66C1795.25 796.298 1758.69 649.969 1852.05 580.328C1938.07 514.062 2061.5 529.894 2127.74 615.689C2230.72 747.071 2126.68 941.109 1958.86 931.422Z"
    fill="white" fill-opacity="0.1" />
  <path
    d="M366.222 908.044C368.102 896.313 369.631 884.508 370.369 872.649C374.54 805.859 367.883 745.24 334.948 692.124C260.135 571.471 116.276 585.301 46.8621 484.175C-10.3591 391.893 17.8885 270.701 109.945 213.483C207.683 150.577 337.545 232.925 461.662 155.78C590.555 75.6672 569.673 -74.4037 669.358 -134.232C761.415 -191.45 882.436 -163.022 939.657 -70.7397C996.878 21.5428 968.637 142.744 876.58 199.962C778.843 262.868 650.64 179.489 524.863 257.665C406.072 337.227 362.778 509.898 436.589 628.936C517.207 758.952 666.486 737.385 726.321 837.312C783.542 929.595 755.301 1050.8 663.244 1108.01C522.115 1197.17 339.601 1074.03 366.222 908.044Z"
    fill="white" fill-opacity="0.1" />
</svg>