<svg width="332" height="82" viewBox="0 0 332 82" fill="none" xmlns="http://www.w3.org/2000/svg">
  <g clip-path="url(#clip0_596_34424)">
    <path d="M279.334 55.4402L284.861 40.8105L291.207 44.5204L279.334 55.4402Z" fill="#7AD1FF"
      stroke="#006FD6"></path>
    <path
      d="M279.235 55.0277L274.457 34.9588L332 7L308.43 23.9053L284.86 40.8107L279.483 55.0435C279.438 55.1634 279.265 55.1524 279.235 55.0277Z"
      fill="#A3E2FF" stroke="#006FD6"></path>
    <path
      d="M291.205 44.5205L305.877 53.0979C305.94 53.1346 306.02 53.1128 306.056 53.0495L318.995 30.0823L331.999 7L308.429 23.9053L285.674 40.2267C285.291 40.5012 285.318 41.0787 285.724 41.3164L291.205 44.5205Z"
      fill="#E6F8FF" stroke="#006FD6"></path>
    <path
      d="M332 7L253.337 22.2147C253.219 22.2374 253.192 22.3934 253.295 22.4543L274.457 34.9588L332 7Z"
      fill="#E6F8FF" stroke="#006FD6"></path>
    <circle cx="5.6551" cy="5.6551" r="5.6551"
      transform="matrix(0.707867 0.706346 0.707867 -0.706346 3 55.9893)" fill="#A3E2FF"></circle>
    <path fill-rule="evenodd" clip-rule="evenodd"
      d="M12.2183 53.1162C14.4291 55.3223 14.4291 58.8991 12.2183 61.1052C12.038 61.2851 11.8485 61.4504 11.6514 61.601C12.8786 61.4615 14.0688 60.9221 15.01 59.9829C17.2208 57.7768 17.2208 54.2001 15.01 51.994C12.9795 49.9678 9.79033 49.8026 7.57081 51.4982C9.22611 51.31 10.9487 51.8494 12.2183 53.1162Z"
      fill="#7AD1FF"></path>
    <circle cx="5.6551" cy="5.6551" r="5.1551"
      transform="matrix(0.707867 0.706346 0.707867 -0.706346 3 55.9893)" stroke="#0056B3"></circle>
    <path d="M258.215 65.7492C264.428 66.2333 266.849 64.9423 270.157 61.4727" stroke="#7AD1FF"
      stroke-width="2" stroke-linecap="round" stroke-linejoin="round" stroke-dasharray="1 6"></path>
    <path d="M241.069 60.8421C245.173 65.5317 247.806 66.3008 252.598 66.1326" stroke="#7AD1FF"
      stroke-width="2" stroke-linecap="round" stroke-linejoin="round" stroke-dasharray="1 6"></path>
    <path d="M157 73.7998C190.529 82.7214 191.271 38.3455 234 56.3352" stroke="#7AD1FF"
      stroke-width="2" stroke-linecap="round" stroke-linejoin="round" stroke-dasharray="1 6"></path>
    <path
      d="M141.756 74.7266C127.362 60.3012 136.483 43.3146 144.747 31.4972C148.424 26.2392 151.944 20.7656 154.308 14.7251C155.668 11.2499 156.575 7.34926 155.707 2.45086"
      stroke="#7AD1FF" stroke-width="2" stroke-linecap="round" stroke-linejoin="round"
      stroke-dasharray="1 6"></path>
    <path d="M97 18.5262C104.864 19.8781 108.602 18.5262 112 12" stroke="#7AD1FF" stroke-width="2"
      stroke-linecap="round" stroke-linejoin="round" stroke-dasharray="1 6"></path>
    <path d="M25.3065 56.9515C58.741 53.8957 46.5868 16.2303 91.1097 17.9203" stroke="#7AD1FF"
      stroke-width="2" stroke-linecap="round" stroke-linejoin="round" stroke-dasharray="1 6"></path>
    <path d="M149.094 -15.159C141.098 -31.3734 116.945 -33.3409 113.165 6.59418" stroke="#7AD1FF"
      stroke-width="2" stroke-linecap="round" stroke-linejoin="round" stroke-dasharray="1 6"></path>
  </g>
  <defs>
    <clipPath id="clip0_596_34424">
      <rect width="332" height="82" fill="white"></rect>
    </clipPath>
  </defs>
</svg>