<svg version="1.1" viewBox="0.0 0.0 558.0393700787401 222.1968503937008" fill="none" stroke="none" stroke-linecap="square" stroke-miterlimit="10" xmlns:xlink="http://www.w3.org/1999/xlink" xmlns="http://www.w3.org/2000/svg"><clipPath id="p.0"><path d="m0 0l558.03937 0l0 222.19685l-558.03937 0l0 -222.19685z" clip-rule="nonzero"/></clipPath><g clip-path="url(#p.0)"><path fill="#000000" fill-opacity="0.0" d="m0 0l558.03937 0l0 222.19685l-558.03937 0z" fill-rule="evenodd"/><path fill="#014063" d="m7.9986877 112.15748l0 0c0 -57.524586 46.632893 -104.15748 104.15748 -104.15748l0 0c27.62429 0 54.11715 10.973703 73.65046 30.507019c19.533325 19.533318 30.507019 46.026176 30.507019 73.65046l0 0c0 57.52459 -46.63289 104.15748 -104.15748 104.15748l0 0c-57.524586 0 -104.15748 -46.63289 -104.15748 -104.15748z" fill-rule="evenodd"/><path stroke="#8fe3e8" stroke-width="3.0" stroke-linejoin="round" stroke-linecap="butt" d="m7.9986877 112.15748l0 0c0 -57.524586 46.632893 -104.15748 104.15748 -104.15748l0 0c27.62429 0 54.11715 10.973703 73.65046 30.507019c19.533325 19.533318 30.507019 46.026176 30.507019 73.65046l0 0c0 57.52459 -46.63289 104.15748 -104.15748 104.15748l0 0c-57.524586 0 -104.15748 -46.63289 -104.15748 -104.15748z" fill-rule="evenodd"/><path fill="#8fe3e8" d="m61.431282 123.0831l-0.265625 -3.078125l2.078125 -0.125q0.890625 -0.046875 1.453125 -0.390625q0.578125 -0.34375 0.875 -0.96875q0.296875 -0.625 0.296875 -1.515625l0 -14.859375l3.75 0l0 14.828125q0 1.859375 -0.65625 3.15625q-0.640625 1.28125 -1.9375 1.984375q-1.28125 0.703125 -3.1875 0.84375l-2.40625 0.125zm17.536484 0.03125q-1.78125 0 -2.953125 -0.65625q-1.171875 -0.671875 -1.75 -1.984375q-0.578125 -1.328125 -0.578125 -3.28125l0 -8.71875l3.671875 0l0 8.765625q0 1.0 0.28125 1.6875q0.28125 0.671875 0.84375 1.0q0.578125 0.3125 1.453125 0.3125q1.0 0 1.75 -0.453125q0.75 -0.453125 1.171875 -1.28125q0.421875 -0.84375 0.421875 -1.96875l0 -8.0625l3.671875 0l0 14.34375l-3.578125 0l0 -2.984375l0.40625 0q-0.609375 1.578125 -1.859375 2.4375q-1.25 0.84375 -2.953125 0.84375zm11.855972 -0.296875l0 -14.34375l3.578125 0l0 2.875l-0.328125 0q0.390625 -1.0 1.0625 -1.703125q0.671875 -0.703125 1.609375 -1.078125q0.9375 -0.390625 2.078125 -0.390625q1.734375 0 2.84375 0.828125q1.125 0.8125 1.5625 2.515625l-0.421875 0q0.59375 -1.546875 1.9375 -2.4375q1.359375 -0.90625 3.109375 -0.90625q1.640625 0 2.703125 0.65625q1.078125 0.640625 1.609375 1.953125q0.53125 1.296875 0.53125 3.296875l0 8.734375l-3.671875 0l0 -8.59375q0 -1.640625 -0.546875 -2.40625q-0.53125 -0.765625 -1.828125 -0.765625q-0.9375 0 -1.640625 0.46875q-0.703125 0.453125 -1.078125 1.296875q-0.359375 0.84375 -0.359375 2.046875l0 7.953125l-3.65625 0l0 -8.59375q0 -1.640625 -0.546875 -2.40625q-0.546875 -0.765625 -1.8125 -0.765625q-0.953125 0 -1.65625 0.46875q-0.6875 0.453125 -1.0625 1.296875q-0.359375 0.84375 -0.359375 2.046875l0 7.953125l-3.65625 0zm30.376999 0.296875q-1.546875 0 -2.765625 -0.59375q-1.21875 -0.609375 -1.90625 -1.640625q-0.6875 -1.03125 -0.6875 -2.3125q0 -1.59375 0.8125 -2.515625q0.828125 -0.921875 2.671875 -1.328125q1.84375 -0.40625 4.953125 -0.40625l1.46875 0l0 2.109375l-1.4375 0q-1.375 0 -2.3125 0.109375q-0.9375 0.09375 -1.515625 0.3125q-0.5625 0.21875 -0.8125 0.609375q-0.25 0.375 -0.25 0.9375q0 0.96875 0.671875 1.578125q0.671875 0.609375 1.875 0.609375q0.96875 0 1.71875 -0.453125q0.75 -0.453125 1.1875 -1.234375q0.4375 -0.796875 0.4375 -1.828125l0 -3.375q0 -1.46875 -0.65625 -2.109375q-0.640625 -0.640625 -2.15625 -0.640625q-1.203125 0 -2.46875 0.375q-1.265625 0.359375 -2.546875 1.125l-1.0625 -2.5q0.765625 -0.53125 1.796875 -0.921875q1.046875 -0.390625 2.203125 -0.609375q1.171875 -0.234375 2.1875 -0.234375q2.109375 0 3.46875 0.65625q1.375 0.640625 2.0468826 1.953125q0.671875 1.296875 0.671875 3.34375l0 8.6875l-3.4218826 0l0 -3.046875l0.234375 0q-0.203125 1.015625 -0.8125 1.765625q-0.59375 0.75 -1.515625 1.171875q-0.90625 0.40625 -2.078125 0.40625zm11.323738 -0.296875l0 -14.34375l3.578125 0l0 2.875l-0.328125 0q0.65625 -1.546875 2.015625 -2.359375q1.359375 -0.8125 3.09375 -0.8125q1.734375 0 2.84375 0.65625q1.109375 0.640625 1.671875 1.953125q0.5625 1.296875 0.5625 3.296875l0 8.734375l-3.671875 0l0 -8.5625q0 -1.109375 -0.28125 -1.8125q-0.28125 -0.71875 -0.859375 -1.046875q-0.5625 -0.34375 -1.4375 -0.34375q-1.0625 0 -1.859375 0.46875q-0.78125 0.453125 -1.21875 1.28125q-0.4375 0.828125 -0.4375 1.953125l0 8.0625l-3.671875 0zm17.031937 -17.421875l0 -3.578125l4.109375 0l0 3.578125l-4.109375 0zm-3.09375 23.078125l-0.265625 -2.671875l1.34375 -0.140625q1.140625 -0.140625 1.703125 -0.78125q0.5625 -0.625 0.5625 -1.859375l0 -14.546875l3.65625 0l0 14.078125q0 1.4375 -0.328125 2.484375q-0.3125 1.0625 -0.984375 1.765625q-0.671875 0.703125 -1.78125 1.078125q-1.09375 0.390625 -2.65625 0.515625l-1.25 0.078125zm10.580353 -23.078125l0 -3.578125l4.109375 0l0 3.578125l-4.109375 0zm0.234375 17.421875l0 -14.34375l3.671875 0l0 14.34375l-3.671875 0z" fill-rule="nonzero"/><path fill="#014063" d="m150.40294 33.945l0 0c0 -3.244194 2.6299286 -5.874134 5.8741302 -5.874134l127.02338 0c1.5579224 0 3.0520325 0.6188812 4.153656 1.7204952c1.101593 1.1016121 1.7204895 2.5957203 1.7204895 4.153639l0 23.495827c0 3.244194 -2.6299438 5.874134 -5.8741455 5.874134l-127.02338 0c-3.2442017 0 -5.8741302 -2.62994 -5.8741302 -5.874134z" fill-rule="evenodd"/><path stroke="#8fe3e8" stroke-width="2.0" stroke-linejoin="round" stroke-linecap="butt" d="m150.40294 33.945l0 0c0 -3.244194 2.6299286 -5.874134 5.8741302 -5.874134l127.02338 0c1.5579224 0 3.0520325 0.6188812 4.153656 1.7204952c1.101593 1.1016121 1.7204895 2.5957203 1.7204895 4.153639l0 23.495827c0 3.244194 -2.6299438 5.874134 -5.8741455 5.874134l-127.02338 0c-3.2442017 0 -5.8741302 -2.62994 -5.8741302 -5.874134z" fill-rule="evenodd"/><path fill="#8fe3e8" d="m191.41113 53.95291l0 -15.96875l1.5625 0l6.484375 12.15625l-0.6875 0l6.4375 -12.15625l1.5625 0l0 15.96875l-1.71875 0l0 -13.484375l0.546875 0l-5.875 11.015625l-1.21875 0l-5.9375 -11.03125l0.546875 0l0 13.5l-1.703125 0zm23.652298 0.203125q-1.609375 0 -2.796875 -0.703125q-1.171875 -0.703125 -1.8125 -1.984375q-0.640625 -1.28125 -0.640625 -3.015625q0 -1.75 0.640625 -3.03125q0.640625 -1.28125 1.8125 -1.984375q1.1875 -0.703125 2.796875 -0.703125q1.609375 0 2.78125 0.703125q1.1875 0.703125 1.828125 1.984375q0.640625 1.28125 0.640625 3.03125q0 1.734375 -0.640625 3.015625q-0.640625 1.28125 -1.828125 1.984375q-1.171875 0.703125 -2.78125 0.703125zm0 -1.46875q1.5625 0 2.484375 -1.09375q0.921875 -1.109375 0.921875 -3.171875q0 -2.03125 -0.921875 -3.109375q-0.921875 -1.09375 -2.484375 -1.09375q-1.546875 0 -2.46875 1.09375q-0.921875 1.078125 -0.921875 3.109375q0 2.0625 0.921875 3.171875q0.921875 1.09375 2.46875 1.09375zm11.110062 1.265625l-4.75 -11.015625l2.0 0l3.9375 9.65625l-0.609375 0l4.015625 -9.65625l1.875 0l-4.75 11.015625l-1.71875 0zm8.199188 -13.75l0 -2.0625l2.265625 0l0 2.0625l-2.265625 0zm0.21875 13.75l0 -11.015625l1.84375 0l0 11.015625l-1.84375 0zm10.224991 0.203125q-1.75 0 -3.015625 -0.6875q-1.25 -0.6875 -1.9375 -1.953125q-0.6875 -1.28125 -0.6875 -3.046875q0 -1.71875 0.671875 -3.0q0.6875 -1.28125 1.875 -2.0q1.1875 -0.734375 2.75 -0.734375q1.5 0 2.5625 0.65625q1.0625 0.65625 1.640625 1.859375q0.578125 1.203125 0.578125 2.875l0 0.703125l-8.671875 0l0 -1.203125l7.453125 0l-0.375 0.296875q0 -1.8125 -0.8125 -2.8125q-0.796875 -1.015625 -2.328125 -1.015625q-1.15625 0 -1.96875 0.53125q-0.796875 0.53125 -1.203125 1.484375q-0.40625 0.9375 -0.40625 2.1875l0 0.125q0 1.390625 0.4375 2.34375q0.4375 0.9375 1.3125 1.4375q0.890625 0.484375 2.125 0.484375q0.96875 0 1.890625 -0.296875q0.921875 -0.3125 1.734375 -1.015625l0.625 1.28125q-0.75 0.6875 -1.90625 1.09375q-1.140625 0.40625 -2.34375 0.40625z" fill-rule="nonzero"/><path fill="#014063" d="m222.3659 125.79396l55.254578 0l0 0l82.8819 0l193.39105 0l0 15.086624l0 0l0 22.629913l0 52.803146l-193.39105 0l-82.8819 0l0 0l-55.254578 0l0 -52.803146l-7.7875824 -2.8592072l7.7875824 -19.770706z" fill-rule="evenodd"/><path stroke="#8fe3e8" stroke-width="2.0" stroke-linejoin="round" stroke-linecap="butt" d="m222.3659 125.79396l55.254578 0l0 0l82.8819 0l193.39105 0l0 15.086624l0 0l0 22.629913l0 52.803146l-193.39105 0l-82.8819 0l0 0l-55.254578 0l0 -52.803146l-7.7875824 -2.8592072l7.7875824 -19.770706z" fill-rule="evenodd"/><path fill="#8fe3e8" d="m240.83466 166.11317q-0.578125 0.15625 -1.203125 0.21875q-0.609375 0.0625 -1.25 0.0625q-1.84375 0 -2.75 -0.828125q-0.90625 -0.84375 -0.90625 -2.578125l0 -5.109375l-2.75 0l0 -1.4375l2.75 0l0 -2.6875l1.703125 -0.4375l0 3.125l4.40625 0l0 1.4375l-4.40625 0l0 4.96875q0 1.0625 0.5625 1.59375q0.5625 0.515625 1.65625 0.515625q0.46875 0 1.015625 -0.078125q0.5625 -0.078125 1.171875 -0.234375l0 1.46875zm6.4335938 -8.265625l-2.90625 0l0 -1.40625l4.625 0l0 8.390625l2.921875 0l0 1.421875l-7.859375 0l0 -1.421875l3.21875 0l0 -6.984375zm0.59375 -5.515625q0.28125 0 0.515625 0.109375q0.25 0.09375 0.421875 0.28125q0.1875 0.1875 0.296875 0.4375q0.109375 0.234375 0.109375 0.515625q0 0.265625 -0.109375 0.515625q-0.109375 0.25 -0.296875 0.4375q-0.171875 0.171875 -0.421875 0.28125q-0.234375 0.109375 -0.515625 0.109375q-0.28125 0 -0.53125 -0.109375q-0.234375 -0.109375 -0.421875 -0.28125q-0.1875 -0.1875 -0.296875 -0.4375q-0.09375 -0.25 -0.09375 -0.515625q0 -0.28125 0.09375 -0.515625q0.109375 -0.25 0.296875 -0.4375q0.1875 -0.1875 0.421875 -0.28125q0.25 -0.109375 0.53125 -0.109375zm14.964844 13.78125q-0.578125 0.15625 -1.203125 0.21875q-0.609375 0.0625 -1.25 0.0625q-1.84375 0 -2.75 -0.828125q-0.90625 -0.84375 -0.90625 -2.578125l0 -5.109375l-2.75 0l0 -1.4375l2.75 0l0 -2.6875l1.703125 -0.4375l0 3.125l4.40625 0l0 1.4375l-4.40625 0l0 4.96875q0 1.0625 0.5625 1.59375q0.5625 0.515625 1.65625 0.515625q0.46875 0 1.015625 -0.078125q0.5625 -0.078125 1.171875 -0.234375l0 1.46875zm6.4335938 -12.265625l-2.90625 0l0 -1.390625l4.625 0l0 12.375l2.921875 0l0 1.421875l-7.859375 0l0 -1.421875l3.21875 0l0 -10.984375zm15.933594 6.984375q0 0.359375 -0.015625 0.609375q0 0.234375 -0.015625 0.453125l-6.890625 0q0 1.5 0.828125 2.3125q0.84375 0.8125 2.4375 0.8125q0.421875 0 0.84375 -0.03125q0.4375 -0.046875 0.828125 -0.09375q0.40625 -0.0625 0.765625 -0.140625q0.375 -0.078125 0.6875 -0.15625l0 1.390625q-0.6875 0.203125 -1.5625 0.3125q-0.875 0.125 -1.8125 0.125q-1.265625 0 -2.171875 -0.34375q-0.90625 -0.34375 -1.484375 -0.984375q-0.578125 -0.65625 -0.859375 -1.59375q-0.28125 -0.9375 -0.28125 -2.140625q0 -1.03125 0.296875 -1.953125q0.296875 -0.921875 0.859375 -1.609375q0.578125 -0.703125 1.40625 -1.109375q0.84375 -0.421875 1.890625 -0.421875q1.03125 0 1.8125 0.328125q0.796875 0.3125 1.328125 0.90625q0.546875 0.59375 0.828125 1.4375q0.28125 0.84375 0.28125 1.890625zm-1.765625 -0.25q0.03125 -0.640625 -0.125 -1.1875q-0.15625 -0.546875 -0.484375 -0.9375q-0.328125 -0.390625 -0.828125 -0.609375q-0.484375 -0.21875 -1.125 -0.21875q-0.546875 0 -1.015625 0.21875q-0.453125 0.21875 -0.796875 0.609375q-0.328125 0.390625 -0.53125 0.9375q-0.203125 0.546875 -0.25 1.1875l5.15625 0zm8.417969 -4.3125q0.296875 0 0.5625 0.125q0.28125 0.125 0.484375 0.328125q0.21875 0.203125 0.328125 0.484375q0.125 0.265625 0.125 0.5625q0 0.3125 -0.125 0.59375q-0.109375 0.265625 -0.328125 0.46875q-0.203125 0.203125 -0.484375 0.328125q-0.265625 0.109375 -0.5625 0.109375q-0.3125 0 -0.578125 -0.109375q-0.265625 -0.125 -0.484375 -0.328125q-0.203125 -0.203125 -0.328125 -0.46875q-0.109375 -0.28125 -0.109375 -0.59375q0 -0.296875 0.109375 -0.5625q0.125 -0.28125 0.328125 -0.484375q0.21875 -0.203125 0.484375 -0.328125q0.265625 -0.125 0.578125 -0.125zm0 7.15625q0.296875 0 0.5625 0.125q0.28125 0.125 0.484375 0.328125q0.21875 0.203125 0.328125 0.484375q0.125 0.265625 0.125 0.578125q0 0.3125 -0.125 0.578125q-0.109375 0.265625 -0.328125 0.46875q-0.203125 0.203125 -0.484375 0.3125q-0.265625 0.125 -0.5625 0.125q-0.3125 0 -0.578125 -0.125q-0.265625 -0.109375 -0.484375 -0.3125q-0.203125 -0.203125 -0.328125 -0.46875q-0.109375 -0.265625 -0.109375 -0.578125q0 -0.3125 0.109375 -0.578125q0.125 -0.28125 0.328125 -0.484375q0.21875 -0.203125 0.484375 -0.328125q0.265625 -0.125 0.578125 -0.125zm25.054688 -9.9375l0 8.875q0 0.8125 -0.25 1.546875q-0.234375 0.734375 -0.734375 1.28125q-0.5 0.546875 -1.25 0.875q-0.75 0.328125 -1.765625 0.328125q-0.375 0 -0.78125 -0.0625q-0.390625 -0.046875 -0.765625 -0.140625q-0.359375 -0.09375 -0.6875 -0.21875q-0.3125 -0.140625 -0.546875 -0.296875l0 -1.75q0.609375 0.4375 1.34375 0.703125q0.734375 0.25 1.453125 0.25q1.0625 0 1.640625 -0.640625q0.578125 -0.65625 0.578125 -1.875l0 -7.375l-4.859375 0l0 -1.5l6.625 0zm11.871094 12.765625l-1.515625 0l-0.0625 -1.578125q-0.4375 0.5 -0.84375 0.84375q-0.390625 0.328125 -0.78125 0.546875q-0.390625 0.203125 -0.78125 0.28125q-0.390625 0.078125 -0.828125 0.078125q-1.515625 0 -2.296875 -0.890625q-0.765625 -0.890625 -0.765625 -2.6875l0 -6.40625l1.703125 0l0 6.28125q0 2.25 1.703125 2.25q0.3125 0 0.609375 -0.09375q0.296875 -0.09375 0.625 -0.3125q0.328125 -0.234375 0.703125 -0.625q0.375 -0.390625 0.84375 -0.984375l0 -6.515625l1.6875 0l0 9.8125zm10.121094 0l0 -7.046875q0 -0.453125 -0.046875 -0.75q-0.03125 -0.296875 -0.109375 -0.453125q-0.0625 -0.171875 -0.1875 -0.234375q-0.109375 -0.078125 -0.265625 -0.078125q-0.203125 0 -0.375 0.125q-0.15625 0.109375 -0.34375 0.375q-0.1875 0.265625 -0.421875 0.703125q-0.234375 0.421875 -0.546875 1.0625l0 6.296875l-1.546875 0l0 -6.859375q0 -0.53125 -0.03125 -0.859375q-0.03125 -0.34375 -0.109375 -0.515625q-0.078125 -0.1875 -0.203125 -0.25q-0.109375 -0.078125 -0.265625 -0.078125q-0.1875 0 -0.34375 0.09375q-0.15625 0.09375 -0.34375 0.359375q-0.1875 0.25 -0.421875 0.6875q-0.234375 0.4375 -0.5625 1.125l0 6.296875l-1.5625 0l0 -9.8125l1.296875 0l0.078125 1.875q0.265625 -0.5625 0.5 -0.953125q0.234375 -0.390625 0.484375 -0.625q0.265625 -0.234375 0.546875 -0.34375q0.296875 -0.125 0.640625 -0.125q0.796875 0 1.203125 0.515625q0.40625 0.515625 0.40625 1.609375q0.234375 -0.515625 0.453125 -0.90625q0.234375 -0.390625 0.484375 -0.65625q0.265625 -0.28125 0.578125 -0.421875q0.3125 -0.140625 0.71875 -0.140625q1.859375 0 1.859375 2.84375l0 7.140625l-1.5625 0zm10.292969 0l-0.03125 -1.3125q-0.8125 0.78125 -1.640625 1.140625q-0.8125 0.34375 -1.71875 0.34375q-0.84375 0 -1.4375 -0.203125q-0.59375 -0.21875 -0.984375 -0.59375q-0.390625 -0.375 -0.578125 -0.875q-0.171875 -0.515625 -0.171875 -1.125q0 -1.46875 1.09375 -2.296875q1.109375 -0.84375 3.25 -0.84375l2.03125 0l0 -0.859375q0 -0.859375 -0.5625 -1.375q-0.546875 -0.53125 -1.6875 -0.53125q-0.828125 0 -1.640625 0.1875q-0.796875 0.171875 -1.65625 0.515625l0 -1.53125q0.3125 -0.109375 0.703125 -0.21875q0.40625 -0.125 0.84375 -0.203125q0.4375 -0.09375 0.90625 -0.140625q0.484375 -0.0625 0.984375 -0.0625q0.890625 0 1.59375 0.203125q0.71875 0.1875 1.203125 0.59375q0.5 0.390625 0.765625 1.0q0.265625 0.609375 0.265625 1.421875l0 6.765625l-1.53125 0zm-0.1875 -4.46875l-2.15625 0q-0.625 0 -1.09375 0.140625q-0.453125 0.125 -0.75 0.359375q-0.296875 0.234375 -0.4375 0.5625q-0.140625 0.3125 -0.140625 0.734375q0 0.28125 0.078125 0.546875q0.09375 0.25 0.28125 0.453125q0.203125 0.203125 0.515625 0.328125q0.3125 0.109375 0.765625 0.109375q0.59375 0 1.34375 -0.359375q0.765625 -0.359375 1.59375 -1.125l0 -1.75zm4.8867188 -5.34375l1.515625 0l0.0625 1.59375q0.4375 -0.515625 0.828125 -0.84375q0.40625 -0.34375 0.78125 -0.546875q0.390625 -0.203125 0.796875 -0.28125q0.40625 -0.09375 0.828125 -0.09375q1.515625 0 2.28125 0.90625q0.78125 0.890625 0.78125 2.6875l0 6.390625l-1.6875 0l0 -6.265625q0 -1.140625 -0.4375 -1.6875q-0.421875 -0.5625 -1.28125 -0.5625q-0.3125 0 -0.609375 0.09375q-0.296875 0.09375 -0.625 0.328125q-0.3125 0.21875 -0.6875 0.609375q-0.375 0.390625 -0.84375 0.984375l0 6.5l-1.703125 0l0 -9.8125zm17.636719 0l0 9.640625q0 1.015625 -0.296875 1.8125q-0.28125 0.796875 -0.828125 1.34375q-0.546875 0.546875 -1.34375 0.828125q-0.796875 0.296875 -1.796875 0.296875q-0.71875 0 -1.40625 -0.140625q-0.6875 -0.125 -1.25 -0.359375l0 -1.625q0.296875 0.15625 0.640625 0.28125q0.359375 0.125 0.71875 0.203125q0.375 0.09375 0.734375 0.140625q0.375 0.046875 0.734375 0.046875q1.109375 0 1.734375 -0.703125q0.640625 -0.703125 0.640625 -2.078125l0 -8.28125l-4.796875 0l0 -1.40625l6.515625 0zm-1.03125 -4.109375q0.296875 0 0.53125 0.109375q0.25 0.09375 0.421875 0.28125q0.1875 0.1875 0.28125 0.4375q0.109375 0.234375 0.109375 0.515625q0 0.28125 -0.109375 0.53125q-0.09375 0.234375 -0.28125 0.421875q-0.171875 0.171875 -0.421875 0.28125q-0.234375 0.109375 -0.53125 0.109375q-0.28125 0 -0.53125 -0.109375q-0.234375 -0.109375 -0.421875 -0.28125q-0.171875 -0.1875 -0.28125 -0.421875q-0.09375 -0.25 -0.09375 -0.53125q0 -0.28125 0.09375 -0.515625q0.109375 -0.25 0.28125 -0.4375q0.1875 -0.1875 0.421875 -0.28125q0.25 -0.109375 0.53125 -0.109375zm8.730469 5.515625l-2.90625 0l0 -1.40625l4.625 0l0 8.390625l2.921875 0l0 1.421875l-7.859375 0l0 -1.421875l3.21875 0l0 -6.984375zm0.59375 -5.515625q0.28125 0 0.515625 0.109375q0.25 0.09375 0.421875 0.28125q0.1875 0.1875 0.296875 0.4375q0.109375 0.234375 0.109375 0.515625q0 0.265625 -0.109375 0.515625q-0.109375 0.25 -0.296875 0.4375q-0.171875 0.171875 -0.421875 0.28125q-0.234375 0.109375 -0.515625 0.109375q-0.28125 0 -0.53125 -0.109375q-0.234375 -0.109375 -0.421875 -0.28125q-0.1875 -0.1875 -0.296875 -0.4375q-0.09375 -0.25 -0.09375 -0.515625q0 -0.28125 0.09375 -0.515625q0.109375 -0.25 0.296875 -0.4375q0.1875 -0.1875 0.421875 -0.28125q0.25 -0.109375 0.53125 -0.109375z" fill-rule="nonzero"/><path fill="#8fe3e8" d="m236.27216 177.84755l-2.90625 0l0 -1.390625l4.625 0l0 12.375l2.921875 0l0 1.421875l-7.859375 0l0 -1.421875l3.21875 0l0 -10.984375zm13.949219 12.40625l-0.03125 -1.3125q-0.8125 0.78125 -1.640625 1.140625q-0.8125 0.34375 -1.71875 0.34375q-0.84375 0 -1.4375 -0.203125q-0.59375 -0.21875 -0.984375 -0.59375q-0.390625 -0.375 -0.578125 -0.875q-0.171875 -0.515625 -0.171875 -1.125q0 -1.46875 1.09375 -2.296875q1.109375 -0.84375 3.25 -0.84375l2.03125 0l0 -0.859375q0 -0.859375 -0.5625 -1.375q-0.546875 -0.53125 -1.6875 -0.53125q-0.828125 0 -1.640625 0.1875q-0.796875 0.171875 -1.65625 0.515625l0 -1.53125q0.3125 -0.109375 0.703125 -0.21875q0.40625 -0.125 0.84375 -0.203125q0.4375 -0.09375 0.90625 -0.140625q0.484375 -0.0625 0.984375 -0.0625q0.890625 0 1.59375 0.203125q0.71875 0.1875 1.203125 0.59375q0.5 0.390625 0.765625 1.0q0.265625 0.609375 0.265625 1.421875l0 6.765625l-1.53125 0zm-0.1875 -4.46875l-2.15625 0q-0.625 0 -1.09375 0.140625q-0.453125 0.125 -0.75 0.359375q-0.296875 0.234375 -0.4375 0.5625q-0.140625 0.3125 -0.140625 0.734375q0 0.28125 0.078125 0.546875q0.09375 0.25 0.28125 0.453125q0.203125 0.203125 0.515625 0.328125q0.3125 0.109375 0.765625 0.109375q0.59375 0 1.34375 -0.359375q0.765625 -0.359375 1.59375 -1.125l0 -1.75zm4.8867188 -5.34375l1.515625 0l0.0625 1.59375q0.4375 -0.515625 0.828125 -0.84375q0.40625 -0.34375 0.78125 -0.546875q0.390625 -0.203125 0.796875 -0.28125q0.40625 -0.09375 0.828125 -0.09375q1.515625 0 2.28125 0.90625q0.78125 0.890625 0.78125 2.6875l0 6.390625l-1.6875 0l0 -6.265625q0 -1.140625 -0.4375 -1.6875q-0.421875 -0.5625 -1.28125 -0.5625q-0.3125 0 -0.609375 0.09375q-0.296875 0.09375 -0.625 0.328125q-0.3125 0.21875 -0.6875 0.609375q-0.375 0.390625 -0.84375 0.984375l0 6.5l-1.703125 0l0 -9.8125zm18.058594 1.390625q0.265625 0.34375 0.421875 0.796875q0.15625 0.453125 0.15625 0.984375q0 0.765625 -0.28125 1.390625q-0.28125 0.625 -0.796875 1.078125q-0.5 0.453125 -1.203125 0.703125q-0.703125 0.25 -1.5625 0.25q-0.609375 0 -1.15625 -0.125q-0.53125 -0.140625 -0.84375 -0.34375q-0.1875 0.28125 -0.3125 0.53125q-0.125 0.234375 -0.125 0.53125q0 0.375 0.359375 0.625q0.359375 0.234375 0.9375 0.265625l2.578125 0.09375q0.734375 0.015625 1.34375 0.1875q0.625 0.15625 1.0625 0.46875q0.453125 0.3125 0.703125 0.78125q0.25 0.453125 0.25 1.0625q0 0.65625 -0.28125 1.234375q-0.28125 0.59375 -0.875 1.03125q-0.59375 0.453125 -1.5 0.71875q-0.90625 0.265625 -2.15625 0.265625q-1.1875 0 -2.03125 -0.203125q-0.828125 -0.1875 -1.375 -0.53125q-0.53125 -0.328125 -0.78125 -0.796875q-0.234375 -0.453125 -0.234375 -1.015625q0 -0.71875 0.328125 -1.25q0.328125 -0.53125 1.03125 -1.03125q-0.265625 -0.125 -0.453125 -0.296875q-0.171875 -0.171875 -0.296875 -0.375q-0.109375 -0.21875 -0.171875 -0.453125q-0.0625 -0.234375 -0.0625 -0.46875q0 -0.625 0.296875 -1.15625q0.296875 -0.53125 0.71875 -1.0q-0.1875 -0.21875 -0.328125 -0.4375q-0.140625 -0.21875 -0.25 -0.453125q-0.109375 -0.25 -0.15625 -0.53125q-0.046875 -0.296875 -0.046875 -0.671875q0 -0.765625 0.265625 -1.390625q0.28125 -0.625 0.78125 -1.078125q0.515625 -0.453125 1.21875 -0.703125q0.703125 -0.25 1.5625 -0.25q0.359375 0 0.6875 0.046875q0.34375 0.046875 0.59375 0.125l3.5625 0l0 1.390625l-1.578125 0zm-5.90625 9.84375q0 0.6875 0.71875 1.0q0.734375 0.328125 2.015625 0.328125q0.8125 0 1.359375 -0.15625q0.5625 -0.140625 0.890625 -0.390625q0.34375 -0.234375 0.484375 -0.546875q0.15625 -0.296875 0.15625 -0.625q0 -0.59375 -0.5 -0.875q-0.484375 -0.28125 -1.484375 -0.328125l-2.5625 -0.09375q-0.3125 0.21875 -0.53125 0.421875q-0.203125 0.203125 -0.328125 0.40625q-0.109375 0.21875 -0.171875 0.421875q-0.046875 0.21875 -0.046875 0.4375zm0.53125 -8.03125q0 0.46875 0.15625 0.859375q0.15625 0.390625 0.4375 0.671875q0.28125 0.265625 0.65625 0.421875q0.390625 0.15625 0.859375 0.15625q0.515625 0 0.90625 -0.171875q0.390625 -0.171875 0.65625 -0.46875q0.28125 -0.296875 0.421875 -0.671875q0.140625 -0.375 0.140625 -0.796875q0 -0.46875 -0.15625 -0.859375q-0.15625 -0.390625 -0.4375 -0.65625q-0.28125 -0.28125 -0.671875 -0.421875q-0.390625 -0.15625 -0.859375 -0.15625q-0.5 0 -0.90625 0.1875q-0.390625 0.171875 -0.65625 0.453125q-0.265625 0.28125 -0.40625 0.671875q-0.140625 0.375 -0.140625 0.78125zm17.183594 6.609375l-1.515625 0l-0.0625 -1.578125q-0.4375 0.5 -0.84375 0.84375q-0.390625 0.328125 -0.78125 0.546875q-0.390625 0.203125 -0.78125 0.28125q-0.390625 0.078125 -0.828125 0.078125q-1.515625 0 -2.296875 -0.890625q-0.765625 -0.890625 -0.765625 -2.6875l0 -6.40625l1.703125 0l0 6.28125q0 2.25 1.703125 2.25q0.3125 0 0.609375 -0.09375q0.296875 -0.09375 0.625 -0.3125q0.328125 -0.234375 0.703125 -0.625q0.375 -0.390625 0.84375 -0.984375l0 -6.515625l1.6875 0l0 9.8125zm9.417969 0l-0.03125 -1.3125q-0.8125 0.78125 -1.640625 1.140625q-0.8125 0.34375 -1.71875 0.34375q-0.84375 0 -1.4375 -0.203125q-0.59375 -0.21875 -0.984375 -0.59375q-0.390625 -0.375 -0.578125 -0.875q-0.171875 -0.515625 -0.171875 -1.125q0 -1.46875 1.09375 -2.296875q1.109375 -0.84375 3.25 -0.84375l2.03125 0l0 -0.859375q0 -0.859375 -0.5625 -1.375q-0.546875 -0.53125 -1.6875 -0.53125q-0.828125 0 -1.640625 0.1875q-0.796875 0.171875 -1.65625 0.515625l0 -1.53125q0.3125 -0.109375 0.703125 -0.21875q0.40625 -0.125 0.84375 -0.203125q0.4375 -0.09375 0.90625 -0.140625q0.484375 -0.0625 0.984375 -0.0625q0.890625 0 1.59375 0.203125q0.71875 0.1875 1.203125 0.59375q0.5 0.390625 0.765625 1.0q0.265625 0.609375 0.265625 1.421875l0 6.765625l-1.53125 0zm-0.1875 -4.46875l-2.15625 0q-0.625 0 -1.09375 0.140625q-0.453125 0.125 -0.75 0.359375q-0.296875 0.234375 -0.4375 0.5625q-0.140625 0.3125 -0.140625 0.734375q0 0.28125 0.078125 0.546875q0.09375 0.25 0.28125 0.453125q0.203125 0.203125 0.515625 0.328125q0.3125 0.109375 0.765625 0.109375q0.59375 0 1.34375 -0.359375q0.765625 -0.359375 1.59375 -1.125l0 -1.75zm11.949219 -3.953125q0.265625 0.34375 0.421875 0.796875q0.15625 0.453125 0.15625 0.984375q0 0.765625 -0.28125 1.390625q-0.28125 0.625 -0.796875 1.078125q-0.5 0.453125 -1.203125 0.703125q-0.703125 0.25 -1.5625 0.25q-0.609375 0 -1.15625 -0.125q-0.53125 -0.140625 -0.84375 -0.34375q-0.1875 0.28125 -0.3125 0.53125q-0.125 0.234375 -0.125 0.53125q0 0.375 0.359375 0.625q0.359375 0.234375 0.9375 0.265625l2.578125 0.09375q0.734375 0.015625 1.34375 0.1875q0.625 0.15625 1.0625 0.46875q0.453125 0.3125 0.703125 0.78125q0.25 0.453125 0.25 1.0625q0 0.65625 -0.28125 1.234375q-0.28125 0.59375 -0.875 1.03125q-0.59375 0.453125 -1.5 0.71875q-0.90625 0.265625 -2.15625 0.265625q-1.1875 0 -2.03125 -0.203125q-0.828125 -0.1875 -1.375 -0.53125q-0.53125 -0.328125 -0.78125 -0.796875q-0.234375 -0.453125 -0.234375 -1.015625q0 -0.71875 0.328125 -1.25q0.328125 -0.53125 1.03125 -1.03125q-0.265625 -0.125 -0.453125 -0.296875q-0.171875 -0.171875 -0.296875 -0.375q-0.109375 -0.21875 -0.171875 -0.453125q-0.0625 -0.234375 -0.0625 -0.46875q0 -0.625 0.296875 -1.15625q0.296875 -0.53125 0.71875 -1.0q-0.1875 -0.21875 -0.328125 -0.4375q-0.140625 -0.21875 -0.25 -0.453125q-0.109375 -0.25 -0.15625 -0.53125q-0.046875 -0.296875 -0.046875 -0.671875q0 -0.765625 0.265625 -1.390625q0.28125 -0.625 0.78125 -1.078125q0.515625 -0.453125 1.21875 -0.703125q0.703125 -0.25 1.5625 -0.25q0.359375 0 0.6875 0.046875q0.34375 0.046875 0.59375 0.125l3.5625 0l0 1.390625l-1.578125 0zm-5.90625 9.84375q0 0.6875 0.71875 1.0q0.734375 0.328125 2.015625 0.328125q0.8125 0 1.359375 -0.15625q0.5625 -0.140625 0.890625 -0.390625q0.34375 -0.234375 0.484375 -0.546875q0.15625 -0.296875 0.15625 -0.625q0 -0.59375 -0.5 -0.875q-0.484375 -0.28125 -1.484375 -0.328125l-2.5625 -0.09375q-0.3125 0.21875 -0.53125 0.421875q-0.203125 0.203125 -0.328125 0.40625q-0.109375 0.21875 -0.171875 0.421875q-0.046875 0.21875 -0.046875 0.4375zm0.53125 -8.03125q0 0.46875 0.15625 0.859375q0.15625 0.390625 0.4375 0.671875q0.28125 0.265625 0.65625 0.421875q0.390625 0.15625 0.859375 0.15625q0.515625 0 0.90625 -0.171875q0.390625 -0.171875 0.65625 -0.46875q0.28125 -0.296875 0.421875 -0.671875q0.140625 -0.375 0.140625 -0.796875q0 -0.46875 -0.15625 -0.859375q-0.15625 -0.390625 -0.4375 -0.65625q-0.28125 -0.28125 -0.671875 -0.421875q-0.390625 -0.15625 -0.859375 -0.15625q-0.5 0 -0.90625 0.1875q-0.390625 0.171875 -0.65625 0.453125q-0.265625 0.28125 -0.40625 0.671875q-0.140625 0.375 -0.140625 0.78125zm17.589844 1.1875q0 0.359375 -0.015625 0.609375q0 0.234375 -0.015625 0.453125l-6.890625 0q0 1.5 0.828125 2.3125q0.84375 0.8125 2.4375 0.8125q0.421875 0 0.84375 -0.03125q0.4375 -0.046875 0.828125 -0.09375q0.40625 -0.0625 0.765625 -0.140625q0.375 -0.078125 0.6875 -0.15625l0 1.390625q-0.6875 0.203125 -1.5625 0.3125q-0.875 0.125 -1.8125 0.125q-1.265625 0 -2.171875 -0.34375q-0.90625 -0.34375 -1.484375 -0.984375q-0.578125 -0.65625 -0.859375 -1.59375q-0.28125 -0.9375 -0.28125 -2.140625q0 -1.03125 0.296875 -1.953125q0.296875 -0.921875 0.859375 -1.609375q0.578125 -0.703125 1.40625 -1.109375q0.84375 -0.421875 1.890625 -0.421875q1.03125 0 1.8125 0.328125q0.796875 0.3125 1.328125 0.90625q0.546875 0.59375 0.828125 1.4375q0.28125 0.84375 0.28125 1.890625zm-1.765625 -0.25q0.03125 -0.640625 -0.125 -1.1875q-0.15625 -0.546875 -0.484375 -0.9375q-0.328125 -0.390625 -0.828125 -0.609375q-0.484375 -0.21875 -1.125 -0.21875q-0.546875 0 -1.015625 0.21875q-0.453125 0.21875 -0.796875 0.609375q-0.328125 0.390625 -0.53125 0.9375q-0.203125 0.546875 -0.25 1.1875l5.15625 0zm12.246094 3.0q0 0.515625 -0.1875 0.921875q-0.171875 0.40625 -0.46875 0.734375q-0.296875 0.3125 -0.703125 0.546875q-0.40625 0.21875 -0.859375 0.375q-0.453125 0.140625 -0.9375 0.203125q-0.46875 0.0625 -0.921875 0.0625q-1.0 0 -1.84375 -0.09375q-0.828125 -0.078125 -1.625 -0.28125l0 -1.5625q0.859375 0.25 1.703125 0.375q0.859375 0.125 1.6875 0.125q1.21875 0 1.796875 -0.328125q0.59375 -0.328125 0.59375 -0.953125q0 -0.25 -0.09375 -0.453125q-0.078125 -0.21875 -0.328125 -0.40625q-0.25 -0.203125 -0.765625 -0.40625q-0.5 -0.203125 -1.390625 -0.46875q-0.671875 -0.1875 -1.234375 -0.4375q-0.5625 -0.25 -0.96875 -0.59375q-0.40625 -0.34375 -0.640625 -0.796875q-0.234375 -0.46875 -0.234375 -1.09375q0 -0.40625 0.1875 -0.890625q0.1875 -0.484375 0.640625 -0.90625q0.46875 -0.421875 1.25 -0.703125q0.78125 -0.28125 1.953125 -0.28125q0.578125 0 1.28125 0.0625q0.703125 0.0625 1.46875 0.21875l0 1.515625q-0.8125 -0.1875 -1.53125 -0.28125q-0.703125 -0.09375 -1.234375 -0.09375q-0.640625 0 -1.078125 0.09375q-0.421875 0.09375 -0.703125 0.265625q-0.265625 0.171875 -0.390625 0.40625q-0.109375 0.234375 -0.109375 0.484375q0 0.265625 0.09375 0.484375q0.109375 0.21875 0.390625 0.421875q0.28125 0.1875 0.78125 0.390625q0.5 0.203125 1.296875 0.4375q0.875 0.25 1.46875 0.53125q0.59375 0.28125 0.953125 0.625q0.375 0.34375 0.53125 0.78125q0.171875 0.421875 0.171875 0.96875zm7.1679688 -7.3125q0.296875 0 0.5625 0.125q0.28125 0.125 0.484375 0.328125q0.21875 0.203125 0.328125 0.484375q0.125 0.265625 0.125 0.5625q0 0.3125 -0.125 0.59375q-0.109375 0.265625 -0.328125 0.46875q-0.203125 0.203125 -0.484375 0.328125q-0.265625 0.109375 -0.5625 0.109375q-0.3125 0 -0.578125 -0.109375q-0.265625 -0.125 -0.484375 -0.328125q-0.203125 -0.203125 -0.328125 -0.46875q-0.109375 -0.28125 -0.109375 -0.59375q0 -0.296875 0.109375 -0.5625q0.125 -0.28125 0.328125 -0.484375q0.21875 -0.203125 0.484375 -0.328125q0.265625 -0.125 0.578125 -0.125zm0 7.15625q0.296875 0 0.5625 0.125q0.28125 0.125 0.484375 0.328125q0.21875 0.203125 0.328125 0.484375q0.125 0.265625 0.125 0.578125q0 0.3125 -0.125 0.578125q-0.109375 0.265625 -0.328125 0.46875q-0.203125 0.203125 -0.484375 0.3125q-0.265625 0.125 -0.5625 0.125q-0.3125 0 -0.578125 -0.125q-0.265625 -0.109375 -0.484375 -0.3125q-0.203125 -0.203125 -0.328125 -0.46875q-0.109375 -0.265625 -0.109375 -0.578125q0 -0.3125 0.109375 -0.578125q0.125 -0.28125 0.328125 -0.484375q0.21875 -0.203125 0.484375 -0.328125q0.265625 -0.125 0.578125 -0.125zm21.164062 -10.96875l-0.265625 4.578125l-1.609375 0l-0.28125 -4.578125l2.15625 0zm3.8125 0l-0.28125 4.578125l-1.59375 0l-0.296875 -4.578125l2.171875 0zm11.730469 13.796875l-7.25 0l0 -12.765625l7.25 0l0 1.46875l-5.515625 0l0 3.953125l5.296875 0l0 1.46875l-5.296875 0l0 4.390625l5.515625 0l0 1.484375zm3.3398438 -9.8125l1.515625 0l0.0625 1.59375q0.4375 -0.515625 0.828125 -0.84375q0.40625 -0.34375 0.78125 -0.546875q0.390625 -0.203125 0.796875 -0.28125q0.40625 -0.09375 0.828125 -0.09375q1.515625 0 2.28125 0.90625q0.78125 0.890625 0.78125 2.6875l0 6.390625l-1.6875 0l0 -6.265625q0 -1.140625 -0.4375 -1.6875q-0.421875 -0.5625 -1.28125 -0.5625q-0.3125 0 -0.609375 0.09375q-0.296875 0.09375 -0.625 0.328125q-0.3125 0.21875 -0.6875 0.609375q-0.375 0.390625 -0.84375 0.984375l0 6.5l-1.703125 0l0 -9.8125zm18.058594 1.390625q0.265625 0.34375 0.421875 0.796875q0.15625 0.453125 0.15625 0.984375q0 0.765625 -0.28125 1.390625q-0.28125 0.625 -0.796875 1.078125q-0.5 0.453125 -1.203125 0.703125q-0.703125 0.25 -1.5625 0.25q-0.609375 0 -1.15625 -0.125q-0.53125 -0.140625 -0.84375 -0.34375q-0.1875 0.28125 -0.3125 0.53125q-0.125 0.234375 -0.125 0.53125q0 0.375 0.359375 0.625q0.359375 0.234375 0.9375 0.265625l2.578125 0.09375q0.734375 0.015625 1.34375 0.1875q0.625 0.15625 1.0625 0.46875q0.453125 0.3125 0.703125 0.78125q0.25 0.453125 0.25 1.0625q0 0.65625 -0.28125 1.234375q-0.28125 0.59375 -0.875 1.03125q-0.59375 0.453125 -1.5 0.71875q-0.90625 0.265625 -2.15625 0.265625q-1.1875 0 -2.03125 -0.203125q-0.828125 -0.1875 -1.375 -0.53125q-0.53125 -0.328125 -0.78125 -0.796875q-0.234375 -0.453125 -0.234375 -1.015625q0 -0.71875 0.328125 -1.25q0.328125 -0.53125 1.03125 -1.03125q-0.265625 -0.125 -0.453125 -0.296875q-0.171875 -0.171875 -0.296875 -0.375q-0.109375 -0.21875 -0.171875 -0.453125q-0.0625 -0.234375 -0.0625 -0.46875q0 -0.625 0.296875 -1.15625q0.296875 -0.53125 0.71875 -1.0q-0.1875 -0.21875 -0.328125 -0.4375q-0.140625 -0.21875 -0.25 -0.453125q-0.109375 -0.25 -0.15625 -0.53125q-0.046875 -0.296875 -0.046875 -0.671875q0 -0.765625 0.265625 -1.390625q0.28125 -0.625 0.78125 -1.078125q0.515625 -0.453125 1.21875 -0.703125q0.703125 -0.25 1.5625 -0.25q0.359375 0 0.6875 0.046875q0.34375 0.046875 0.59375 0.125l3.5625 0l0 1.390625l-1.578125 0zm-5.90625 9.84375q0 0.6875 0.71875 1.0q0.734375 0.328125 2.015625 0.328125q0.8125 0 1.359375 -0.15625q0.5625 -0.140625 0.890625 -0.390625q0.34375 -0.234375 0.484375 -0.546875q0.15625 -0.296875 0.15625 -0.625q0 -0.59375 -0.5 -0.875q-0.484375 -0.28125 -1.484375 -0.328125l-2.5625 -0.09375q-0.3125 0.21875 -0.53125 0.421875q-0.203125 0.203125 -0.328125 0.40625q-0.109375 0.21875 -0.171875 0.421875q-0.046875 0.21875 -0.046875 0.4375zm0.53125 -8.03125q0 0.46875 0.15625 0.859375q0.15625 0.390625 0.4375 0.671875q0.28125 0.265625 0.65625 0.421875q0.390625 0.15625 0.859375 0.15625q0.515625 0 0.90625 -0.171875q0.390625 -0.171875 0.65625 -0.46875q0.28125 -0.296875 0.421875 -0.671875q0.140625 -0.375 0.140625 -0.796875q0 -0.46875 -0.15625 -0.859375q-0.15625 -0.390625 -0.4375 -0.65625q-0.28125 -0.28125 -0.671875 -0.421875q-0.390625 -0.15625 -0.859375 -0.15625q-0.5 0 -0.90625 0.1875q-0.390625 0.171875 -0.65625 0.453125q-0.265625 0.28125 -0.40625 0.671875q-0.140625 0.375 -0.140625 0.78125zm12.652344 -5.796875l-2.90625 0l0 -1.390625l4.625 0l0 12.375l2.921875 0l0 1.421875l-7.859375 0l0 -1.421875l3.21875 0l0 -10.984375zm10.996094 4.0l-2.90625 0l0 -1.40625l4.625 0l0 8.390625l2.921875 0l0 1.421875l-7.859375 0l0 -1.421875l3.21875 0l0 -6.984375zm0.59375 -5.515625q0.28125 0 0.515625 0.109375q0.25 0.09375 0.421875 0.28125q0.1875 0.1875 0.296875 0.4375q0.109375 0.234375 0.109375 0.515625q0 0.265625 -0.109375 0.515625q-0.109375 0.25 -0.296875 0.4375q-0.171875 0.171875 -0.421875 0.28125q-0.234375 0.109375 -0.515625 0.109375q-0.28125 0 -0.53125 -0.109375q-0.234375 -0.109375 -0.421875 -0.28125q-0.1875 -0.1875 -0.296875 -0.4375q-0.09375 -0.25 -0.09375 -0.515625q0 -0.28125 0.09375 -0.515625q0.109375 -0.25 0.296875 -0.4375q0.1875 -0.1875 0.421875 -0.28125q0.25 -0.109375 0.53125 -0.109375zm14.824219 11.25q0 0.515625 -0.1875 0.921875q-0.171875 0.40625 -0.46875 0.734375q-0.296875 0.3125 -0.703125 0.546875q-0.40625 0.21875 -0.859375 0.375q-0.453125 0.140625 -0.9375 0.203125q-0.46875 0.0625 -0.921875 0.0625q-1.0 0 -1.84375 -0.09375q-0.828125 -0.078125 -1.625 -0.28125l0 -1.5625q0.859375 0.25 1.703125 0.375q0.859375 0.125 1.6875 0.125q1.21875 0 1.796875 -0.328125q0.59375 -0.328125 0.59375 -0.953125q0 -0.25 -0.09375 -0.453125q-0.078125 -0.21875 -0.328125 -0.40625q-0.25 -0.203125 -0.765625 -0.40625q-0.5 -0.203125 -1.390625 -0.46875q-0.671875 -0.1875 -1.234375 -0.4375q-0.5625 -0.25 -0.96875 -0.59375q-0.40625 -0.34375 -0.640625 -0.796875q-0.234375 -0.46875 -0.234375 -1.09375q0 -0.40625 0.1875 -0.890625q0.1875 -0.484375 0.640625 -0.90625q0.46875 -0.421875 1.25 -0.703125q0.78125 -0.28125 1.953125 -0.28125q0.578125 0 1.28125 0.0625q0.703125 0.0625 1.46875 0.21875l0 1.515625q-0.8125 -0.1875 -1.53125 -0.28125q-0.703125 -0.09375 -1.234375 -0.09375q-0.640625 0 -1.078125 0.09375q-0.421875 0.09375 -0.703125 0.265625q-0.265625 0.171875 -0.390625 0.40625q-0.109375 0.234375 -0.109375 0.484375q0 0.265625 0.09375 0.484375q0.109375 0.21875 0.390625 0.421875q0.28125 0.1875 0.78125 0.390625q0.5 0.203125 1.296875 0.4375q0.875 0.25 1.46875 0.53125q0.59375 0.28125 0.953125 0.625q0.375 0.34375 0.53125 0.78125q0.171875 0.421875 0.171875 0.96875zm11.105469 2.671875l-1.6875 0l0 -6.265625q0 -1.125 -0.4375 -1.6875q-0.421875 -0.5625 -1.203125 -0.5625q-0.34375 0 -0.640625 0.09375q-0.296875 0.09375 -0.625 0.328125q-0.328125 0.21875 -0.703125 0.609375q-0.375 0.390625 -0.875 0.984375l0 6.5l-1.703125 0l0 -13.796875l1.703125 0l0 3.984375l-0.0625 1.546875q0.40625 -0.46875 0.78125 -0.796875q0.390625 -0.328125 0.765625 -0.53125q0.390625 -0.21875 0.796875 -0.296875q0.40625 -0.09375 0.828125 -0.09375q1.46875 0 2.265625 0.90625q0.796875 0.890625 0.796875 2.6875l0 6.390625zm7.8554688 4.0l-1.59375 0l0 -20.0l1.59375 0l0 20.0zm13.902344 -15.28125l-5.421875 0l0 4.140625l5.140625 0l0 1.453125l-5.140625 0l0 5.6875l-1.78125 0l0 -12.765625l7.203125 0l0 1.484375zm3.7617188 1.46875l1.546875 0l0.046875 1.8125q0.875 -1.046875 1.71875 -1.515625q0.84375 -0.46875 1.703125 -0.46875q1.515625 0 2.296875 0.984375q0.796875 0.984375 0.734375 2.9375l-1.71875 0q0.03125 -1.296875 -0.375 -1.875q-0.40625 -0.578125 -1.1875 -0.578125q-0.34375 0 -0.6875 0.125q-0.34375 0.125 -0.71875 0.390625q-0.359375 0.265625 -0.765625 0.6875q-0.40625 0.421875 -0.875 1.015625l0 6.296875l-1.71875 0l0 -9.8125zm18.871094 4.390625q0 0.359375 -0.015625 0.609375q0 0.234375 -0.015625 0.453125l-6.890625 0q0 1.5 0.828125 2.3125q0.84375 0.8125 2.4375 0.8125q0.421875 0 0.84375 -0.03125q0.4375 -0.046875 0.828125 -0.09375q0.40625 -0.0625 0.765625 -0.140625q0.375 -0.078125 0.6875 -0.15625l0 1.390625q-0.6875 0.203125 -1.5625 0.3125q-0.875 0.125 -1.8125 0.125q-1.265625 0 -2.171875 -0.34375q-0.90625 -0.34375 -1.484375 -0.984375q-0.578125 -0.65625 -0.859375 -1.59375q-0.28125 -0.9375 -0.28125 -2.140625q0 -1.03125 0.296875 -1.953125q0.296875 -0.921875 0.859375 -1.609375q0.578125 -0.703125 1.40625 -1.109375q0.84375 -0.421875 1.890625 -0.421875q1.03125 0 1.8125 0.328125q0.796875 0.3125 1.328125 0.90625q0.546875 0.59375 0.828125 1.4375q0.28125 0.84375 0.28125 1.890625zm-1.765625 -0.25q0.03125 -0.640625 -0.125 -1.1875q-0.15625 -0.546875 -0.484375 -0.9375q-0.328125 -0.390625 -0.828125 -0.609375q-0.484375 -0.21875 -1.125 -0.21875q-0.546875 0 -1.015625 0.21875q-0.453125 0.21875 -0.796875 0.609375q-0.328125 0.390625 -0.53125 0.9375q-0.203125 0.546875 -0.25 1.1875l5.15625 0zm4.4804688 -4.140625l1.515625 0l0.0625 1.59375q0.4375 -0.515625 0.828125 -0.84375q0.40625 -0.34375 0.78125 -0.546875q0.390625 -0.203125 0.796875 -0.28125q0.40625 -0.09375 0.828125 -0.09375q1.515625 0 2.28125 0.90625q0.78125 0.890625 0.78125 2.6875l0 6.390625l-1.6875 0l0 -6.265625q0 -1.140625 -0.4375 -1.6875q-0.421875 -0.5625 -1.28125 -0.5625q-0.3125 0 -0.609375 0.09375q-0.296875 0.09375 -0.625 0.328125q-0.3125 0.21875 -0.6875 0.609375q-0.375 0.390625 -0.84375 0.984375l0 6.5l-1.703125 0l0 -9.8125zm18.621094 9.453125q-0.671875 0.25 -1.375 0.375q-0.6875 0.125 -1.4375 0.125q-2.328125 0 -3.578125 -1.265625q-1.25 -1.265625 -1.25 -3.6875q0 -1.15625 0.359375 -2.09375q0.359375 -0.953125 1.015625 -1.625q0.65625 -0.671875 1.5625 -1.03125q0.90625 -0.375 2.0 -0.375q0.765625 0 1.421875 0.109375q0.671875 0.09375 1.28125 0.34375l0 1.625q-0.640625 -0.328125 -1.296875 -0.484375q-0.65625 -0.15625 -1.359375 -0.15625q-0.65625 0 -1.25 0.25q-0.578125 0.25 -1.015625 0.71875q-0.4375 0.46875 -0.6875 1.140625q-0.25 0.671875 -0.25 1.53125q0 1.765625 0.859375 2.65625q0.859375 0.890625 2.390625 0.890625q0.703125 0 1.34375 -0.15625q0.65625 -0.15625 1.265625 -0.46875l0 1.578125zm11.246094 0.359375l-1.6875 0l0 -6.265625q0 -1.125 -0.4375 -1.6875q-0.421875 -0.5625 -1.203125 -0.5625q-0.34375 0 -0.640625 0.09375q-0.296875 0.09375 -0.625 0.328125q-0.328125 0.21875 -0.703125 0.609375q-0.375 0.390625 -0.875 0.984375l0 6.5l-1.703125 0l0 -13.796875l1.703125 0l0 3.984375l-0.0625 1.546875q0.40625 -0.46875 0.78125 -0.796875q0.390625 -0.328125 0.765625 -0.53125q0.390625 -0.21875 0.796875 -0.296875q0.40625 -0.09375 0.828125 -0.09375q1.46875 0 2.265625 0.90625q0.796875 0.890625 0.796875 2.6875l0 6.390625zm6.2304688 -13.796875l-0.265625 4.578125l-1.609375 0l-0.28125 -4.578125l2.15625 0zm3.8125 0l-0.28125 4.578125l-1.59375 0l-0.296875 -4.578125l2.171875 0z" fill-rule="nonzero"/></g></svg>