<svg xmlns="http://www.w3.org/2000/svg" width="635" height="108" viewBox="0 0 635 108"><defs><style type="text/css"/></defs><g transform="translate(165.3515625 54) scale(1)"><g class="relationship"><g transform="translate(-40 0) rotate(0)" stroke-width="5" stroke="#000000"><path d="M 58.695178092152055 -5.989663490593891 L 95.96898050729243 -9.793341079425122 A 40 40 0 0 1 100.02976931447472 -10 L 186.75 -10 L 273.4702306855253 -10 A 40 40 0 0 1 277.5310194927076 -9.79334107942512 L 290.0711209203455 -8.51366206436971 L 290.0711209203455 -8.51366206436971"/><polygon points="-24.8621506177483,0 -27.62461179749811,9.20820393249937 0,0 -27.62461179749811,-9.20820393249937" fill="#000000" transform="translate(373.5 0) rotate(5.826689442008371) translate(-59 0)" stroke="none"/></g><g transform="translate(146.75 -10) rotate(0) translate(0 -13)"><g transform="translate(0 0)"><g transform="translate(-44.5625 0)" fill="#ffffff" stroke="#000000" stroke-width="0"><rect x="0" y="0" width="89.125" height="26" rx="5" ry="5" stroke="none"/><text xml:space="preserve" x="5" y="17.5" stroke="none" text-anchor="left" font-family="sans-serif" font-size="16" font-weight="normal" fill="#000000">ACTED_IN</text></g></g></g></g><g class="relationship"><g transform="translate(-40 0) rotate(0)" stroke-width="5" stroke="#000000"><path d="M 58.695178092152055 5.989663490593891 L 95.96898050729243 9.793341079425122 A 40 40 0 0 0 100.02976931447472 10 L 186.75 10 L 273.4702306855253 10 A 40 40 0 0 0 277.5310194927076 9.79334107942512 L 290.0711209203455 8.51366206436971 L 290.0711209203455 8.51366206436971"/><polygon points="-24.8621506177483,0 -27.62461179749811,9.20820393249937 0,0 -27.62461179749811,-9.20820393249937" fill="#000000" transform="translate(373.5 0) rotate(-5.826689442008371) translate(-59 0)" stroke="none"/></g><g transform="translate(146.75 10) rotate(0) translate(0 -13)"><g transform="translate(0 0)"><g transform="translate(-45.890625 0)" fill="#ffffff" stroke="#000000" stroke-width="0"><rect x="0" y="0" width="91.78125" height="26" rx="5" ry="5" stroke="none"/><text xml:space="preserve" x="5" y="17.5" stroke="none" text-anchor="left" font-family="sans-serif" font-size="16" font-weight="normal" fill="#000000">DIRECTED</text></g></g></g></g><g class="node"><g fill="#ffffff" stroke="#000000" stroke-width="4"><circle cx="-40" cy="0" r="52"/></g><g transform="translate(-40 0)"><g transform="scale(0.47711749366985773) translate(0 -27)"><g transform="translate(0 0)"><g transform="translate(-90.369140625 0)"><g fill="#ffffff" stroke="#000000" stroke-width="4"><rect x="0" y="0" width="180.73828125" height="54" rx="27" ry="27"/><text xml:space="preserve" x="27" y="37.5" stroke="none" font-family="sans-serif" font-size="40" font-weight="normal" fill="#000000">Person</text></g></g></g></g><g transform="translate(-56 -47.99999999999999)"><g transform="translate(0 0)"><g transform="translate(-69.3515625 0)" fill="white"><rect x="0" y="0" width="69.3515625" height="96" rx="0" ry="0" stroke="none"/><g font-family="sans-serif" font-size="16" font-weight="normal" fill="#000000" text-anchor="end"><text xml:space="preserve" x="60.4609375" y="14.1" stroke="none">tmdbID:</text><text xml:space="preserve" x="64.90625" y="14.1" stroke="none" text-anchor="start"></text><text xml:space="preserve" x="60.4609375" y="33.3" stroke="none" text-anchor="end">imdbId:</text><text xml:space="preserve" x="64.90625" y="33.3" stroke="none" text-anchor="start"></text><text xml:space="preserve" x="60.4609375" y="52.5" stroke="none" text-anchor="end">name:</text><text xml:space="preserve" x="64.90625" y="52.5" stroke="none" text-anchor="start"></text><text xml:space="preserve" x="60.4609375" y="71.7" stroke="none" text-anchor="end">born:</text><text xml:space="preserve" x="64.90625" y="71.7" stroke="none" text-anchor="start"></text><text xml:space="preserve" x="60.4609375" y="90.89999999999999" stroke="none" text-anchor="end">died:</text><text xml:space="preserve" x="64.90625" y="90.89999999999999" stroke="none" text-anchor="start"></text></g></g></g></g></g></g><g class="node"><g fill="#ffffff" stroke="#000000" stroke-width="4"><circle cx="333.5" cy="0" r="52"/></g><g transform="translate(333.5 0)"><g transform="scale(0.5308811712093625) translate(0 -27)"><g transform="translate(0 0)"><g transform="translate(-80.349609375 0)"><g fill="#ffffff" stroke="#000000" stroke-width="4"><rect x="0" y="0" width="160.69921875" height="54" rx="27" ry="27"/><text xml:space="preserve" x="27" y="37.5" stroke="none" font-family="sans-serif" font-size="40" font-weight="normal" fill="#000000">Movie</text></g></g></g></g><g transform="translate(56 -48)"><g transform="translate(0 0)"><g transform="translate(0 0)" fill="white"><rect x="0" y="0" width="79.15625" height="96" rx="0" ry="0" stroke="none"/><g font-family="sans-serif" font-size="16" font-weight="normal" fill="#000000" text-anchor="end"><text xml:space="preserve" x="70.265625" y="14.1" stroke="none">tmdbID:</text><text xml:space="preserve" x="74.7109375" y="14.1" stroke="none" text-anchor="start"></text><text xml:space="preserve" x="70.265625" y="33.3" stroke="none" text-anchor="end">imdbId:</text><text xml:space="preserve" x="74.7109375" y="33.3" stroke="none" text-anchor="start"></text><text xml:space="preserve" x="70.265625" y="52.5" stroke="none" text-anchor="end">title:</text><text xml:space="preserve" x="74.7109375" y="52.5" stroke="none" text-anchor="start"></text><text xml:space="preserve" x="70.265625" y="71.7" stroke="none" text-anchor="end">plot:</text><text xml:space="preserve" x="74.7109375" y="71.7" stroke="none" text-anchor="start"></text><text xml:space="preserve" x="70.265625" y="90.89999999999999" stroke="none" text-anchor="end">released:</text><text xml:space="preserve" x="74.7109375" y="90.89999999999999" stroke="none" text-anchor="start"></text></g></g></g></g></g></g></g></svg>