<svg width="166" height="137" viewBox="0 0 166 137" fill="none" xmlns="http://www.w3.org/2000/svg">
    <g clip-path="url(#clip0_1171_11812)">
        <path
            d="M128.235 113.357L139.957 106.593C146.63 102.717 150.745 94.4382 150.736 82.6483C150.717 58.9057 133.997 29.9531 113.386 17.9553C103.014 11.9187 93.6335 11.3259 86.8755 15.2548L75.1558 22.0172C81.9138 18.0882 91.2924 18.678 101.664 24.7147C122.276 36.7125 138.998 65.6756 139.015 89.4077C139.024 101.198 134.899 109.467 128.235 113.357Z"
            fill="#E7FAFB" stroke="#151E29" stroke-width="1.33967" stroke-linejoin="round" />
        <path
            d="M101.725 110.657C122.336 122.654 139.032 113.139 139.015 89.4074C138.998 65.6753 122.276 36.7122 101.665 24.7144C81.0531 12.7166 64.3599 22.2298 64.3743 45.9635C64.3887 69.6973 81.1134 98.6587 101.725 110.657Z"
            fill="white" stroke="#151E29" stroke-width="1.33967" stroke-linejoin="round" />
        <path
            d="M78.8005 43.1724L78.8254 46.2056L87.2001 51.0408L87.426 78.5817L93.3688 82.0128L93.1429 54.4719L101.518 59.307L101.493 56.3296C101.479 54.6548 101.468 53.2964 101.404 53.222C101.403 53.1661 96.2976 50.2 90.0971 46.6201L78.8239 40.1671L78.8489 43.2189L78.8005 43.1724ZM116.413 61.795C118.059 63.19 119.322 64.7713 120.461 66.7806C121.063 67.869 121.959 69.683 122.027 70.0552C122.028 70.1668 119.259 70.7354 117.578 70.9687C117.514 70.9873 117.254 70.5222 116.992 69.8896C116.143 68.029 115.285 66.9407 113.947 66.0573C112.013 64.7927 110.735 65.2211 110.751 67.1751C110.756 67.7705 110.855 68.1613 111.052 68.7567C111.495 70.0312 112.306 71.1102 114.812 73.8169C119.437 78.7651 121.447 81.4254 122.672 84.2814C124.061 87.4909 124.398 91.4637 123.504 93.7808C122.498 96.2934 120.003 96.9457 116.417 95.5606C115.292 95.1331 112.715 93.6081 111.505 92.6688C108.923 90.6228 106.447 87.7115 104.917 84.9207C104.315 83.8324 103.156 81.181 103.219 81.088L103.827 80.9947L106.23 80.7705L108.04 80.593L108.464 81.4861C109.003 82.7606 110.206 84.7513 110.902 85.5977C113.006 88.0533 115.807 89.5037 117.18 88.8519C117.77 88.5632 118.023 88.0421 118.015 87.1117C118.008 86.2557 117.892 85.7998 117.516 84.9346C116.994 83.8183 115.958 82.5533 113.047 79.3909C109.7 75.8285 108.274 73.9682 106.94 71.6054C106.175 70.2007 105.47 68.2936 105.138 66.8608C104.888 65.642 104.785 62.9531 105.002 62.0226C105.664 58.7007 108.075 57.4995 111.547 58.7636C112.672 59.1539 115.331 60.7998 116.445 61.7764L116.413 61.795Z"
            fill="#0A6190" />
    </g>
    <defs>
        <clipPath id="clip0_1171_11812">
            <path d="M0 0H150C158.837 0 166 7.16344 166 16V137H0V0Z" fill="white" />
        </clipPath>
    </defs>
</svg>