<?xml version="1.0" encoding="UTF-8"?>
<svg xmlns="http://www.w3.org/2000/svg" viewBox="0 0 1080 330" width="1080" height="330">
  <rect width="1080" height="330" fill="#0A6190"/>
  <line x1="141.264" y1="264.033" x2="280.69199999999995" y2="226.809" stroke="#FFA901" stroke-width="2.5"/>
  <line x1="72.36" y1="170.676" x2="280.69199999999995" y2="226.809" stroke="#FFA901" stroke-width="2.5"/>
  <line x1="141.264" y1="264.033" x2="72.36" y2="170.676" stroke="#FFA901" stroke-width="2.5"/>
  <line x1="280.69199999999995" y1="226.809" x2="540.108" y2="284.03099999999995" stroke="#FFA901" stroke-width="2.5"/>
  <line x1="540.108" y1="284.03099999999995" x2="729.648" y2="226.809" stroke="#FFA901" stroke-width="2.5"/>
  <line x1="729.648" y1="226.809" x2="822.312" y2="198.46200000000002" stroke="#FFA901" stroke-width="2.5"/>
  <line x1="729.648" y1="226.809" x2="927.9359999999999" y2="261.789" stroke="#FFA901" stroke-width="2.5"/>
  <line x1="927.9359999999999" y1="261.789" x2="1003.5360000000001" y2="170.676" stroke="#FFA901" stroke-width="2.5"/>
  <line x1="822.312" y1="198.46200000000002" x2="1003.5360000000001" y2="170.676" stroke="#FFA901" stroke-width="2.5"/>
  <line x1="72.36" y1="170.676" x2="1003.5360000000001" y2="170.676" stroke="#FFA901" stroke-width="2.5"/>
  <line x1="409.32" y1="136.257" x2="280.69199999999995" y2="226.809" stroke="#FFA901" stroke-width="2.5"/>
  <line x1="729.648" y1="226.809" x2="674.892" y2="136.257" stroke="#FFA901" stroke-width="2.5"/>
  <circle cx="141.264" cy="264.033" r="23" fill="#6A82FF" stroke="#181414" stroke-width="1.5"/>
  <circle cx="72.36" cy="170.676" r="23" fill="#8FE3E8" stroke="#181414" stroke-width="1.5"/>
  <circle cx="280.69199999999995" cy="226.809" r="23" fill="#4C99A4" stroke="#181414" stroke-width="1.5"/>
  <circle cx="540.108" cy="284.03099999999995" r="23" fill="#4C99A4" stroke="#181414" stroke-width="1.5"/>
  <circle cx="729.648" cy="226.809" r="23" fill="#FF8E6A" stroke="#181414" stroke-width="1.5"/>
  <circle cx="822.312" cy="198.46200000000002" r="23" fill="#90CB62" stroke="#181414" stroke-width="1.5"/>
  <circle cx="927.9359999999999" cy="261.789" r="23" fill="#90CB62" stroke="#181414" stroke-width="1.5"/>
  <circle cx="1003.5360000000001" cy="170.676" r="23" fill="#4C99A4" stroke="#181414" stroke-width="1.5"/>
  <circle cx="409.32" cy="136.257" r="23" fill="#181414" stroke="#181414" stroke-width="1.5"/>
  <circle cx="674.892" cy="136.257" r="23" fill="#181414" stroke="#181414" stroke-width="1.5"/>
  <text x="560.2068" y="106.257" text-anchor="middle" font-size="28" fill="#FAFF00" font-family="NeoSyne, Arial, sans-serif" font-weight="bold">Data Model</text>
</svg>