<svg xmlns="http://www.w3.org/2000/svg" width="1433.69921875" height="1431.8511962890625" viewBox="-740.3281860351562 -733.6893310546875 1433.69921875 1431.8511962890625"><title>Neo4j Graph Visualization</title><desc>Created using Neo4j (http://www.neo4j.com/)</desc><g class="layer relationships"><g class="relationship" transform="translate(-75.39792588678944 558.1282221889785) rotate(407.0920963342378)"><path class="b-outline" fill="#A5ABB6" stroke="none" d="M 25 0.5 L 48.850784012438325 0.5 L 48.850784012438325 -0.5 L 25 -0.5 Z M 95.74140901243833 0.5 L 119.59219302487665 0.5 L 119.59219302487665 3.5 L 126.59219302487665 0 L 119.59219302487665 -3.5 L 119.59219302487665 -0.5 L 95.74140901243833 -0.5 Z"/><text text-anchor="middle" pointer-events="none" font-size="8px" fill="#000000" x="72.29609651243833" y="3" font-family="Helvetica Neue, Helvetica, Arial, sans-serif">DIRECTED</text></g><g class="relationship" transform="translate(60.93041443078382 283.0201969818003) rotate(416.79756609513345)"><path class="b-outline" fill="#A5ABB6" stroke="none" d="M 25 0.5 L 44.94899242187395 0.5 L 44.94899242187395 -0.5 L 25 -0.5 Z M 91.83961742187395 0.5 L 111.7886098437479 0.5 L 111.7886098437479 3.5 L 118.7886098437479 0 L 111.7886098437479 -3.5 L 111.7886098437479 -0.5 L 91.83961742187395 -0.5 Z"/><text text-anchor="middle" pointer-events="none" font-size="8px" fill="#000000" x="68.39430492187395" y="3" font-family="Helvetica Neue, Helvetica, Arial, sans-serif">DIRECTED</text></g><g class="relationship" transform="translate(326.81080152587236 453.7073172608999) rotate(419.4136940892395)"><path class="b-outline" fill="#A5ABB6" stroke="none" d="M 25 0.5 L 43.36452015619865 0.5 L 43.36452015619865 -0.5 L 25 -0.5 Z M 90.25514515619865 0.5 L 108.6196653123973 0.5 L 108.6196653123973 3.5 L 115.6196653123973 0 L 108.6196653123973 -3.5 L 108.6196653123973 -0.5 L 90.25514515619865 -0.5 Z"/><text text-anchor="middle" pointer-events="none" font-size="8px" fill="#000000" x="66.80983265619865" y="3" font-family="Helvetica Neue, Helvetica, Arial, sans-serif">DIRECTED</text></g><g class="relationship" transform="translate(368.54865006734434 271.9676293858763) rotate(206.6855084968148)"><path class="b-outline" fill="#A5ABB6" stroke="none" d="M 25 0.5 L 45.185620329297535 0.5 L 45.185620329297535 -0.5 L 25 -0.5 Z M 92.07624532929754 0.5 L 112.26186565859507 0.5 L 112.26186565859507 3.5 L 119.26186565859507 0 L 112.26186565859507 -3.5 L 112.26186565859507 -0.5 L 92.07624532929754 -0.5 Z"/><text text-anchor="middle" pointer-events="none" font-size="8px" fill="#000000" x="68.63093282929754" y="3" transform="rotate(180 68.63093282929754 0)" font-family="Helvetica Neue, Helvetica, Arial, sans-serif">DIRECTED</text></g><g class="relationship" transform="translate(602.9629115106475 348.46685332895) rotate(295.45926499695025)"><path class="b-outline" fill="#A5ABB6" stroke="none" d="M 25 0.5 L 44.48091929174721 0.5 L 44.48091929174721 -0.5 L 25 -0.5 Z M 91.37154429174721 0.5 L 110.85246358349443 0.5 L 110.85246358349443 3.5 L 117.85246358349443 0 L 110.85246358349443 -3.5 L 110.85246358349443 -0.5 L 91.37154429174721 -0.5 Z"/><text text-anchor="middle" pointer-events="none" font-size="8px" fill="#000000" x="67.92623179174721" y="3" font-family="Helvetica Neue, Helvetica, Arial, sans-serif">DIRECTED</text></g><g class="relationship" transform="translate(283.2797798929819 41.62690796739948) rotate(383.969164957971)"><path class="b-outline" fill="#A5ABB6" stroke="none" d="M 25 0.5 L 45.214780875602216 0.5 L 45.214780875602216 -0.5 L 25 -0.5 Z M 92.10540587560222 0.5 L 112.32018675120443 0.5 L 112.32018675120443 3.5 L 119.32018675120443 0 L 112.32018675120443 -3.5 L 112.32018675120443 -0.5 L 92.10540587560222 -0.5 Z"/><text text-anchor="middle" pointer-events="none" font-size="8px" fill="#000000" x="68.66009337560222" y="3" font-family="Helvetica Neue, Helvetica, Arial, sans-serif">DIRECTED</text></g><g class="relationship" transform="translate(649.5804885338773 -24.894471253051385) rotate(192.64419158540215)"><path class="b-outline" fill="#A5ABB6" stroke="none" d="M 25 0.5 L 44.330805335289284 0.5 L 44.330805335289284 -0.5 L 25 -0.5 Z M 91.22143033528928 0.5 L 110.55223567057857 0.5 L 110.55223567057857 3.5 L 117.55223567057857 0 L 110.55223567057857 -3.5 L 110.55223567057857 -0.5 L 91.22143033528928 -0.5 Z"/><text text-anchor="middle" pointer-events="none" font-size="8px" fill="#000000" x="67.77611783528928" y="3" transform="rotate(180 67.77611783528928 0)" font-family="Helvetica Neue, Helvetica, Arial, sans-serif">DIRECTED</text></g><g class="relationship" transform="translate(602.3650275530629 -229.2362635442142) rotate(274.3094707979266)"><path class="b-outline" fill="#A5ABB6" stroke="none" d="M 25 0.5 L 43.82616753282778 0.5 L 43.82616753282778 -0.5 L 25 -0.5 Z M 90.71679253282778 0.5 L 109.54296006565556 0.5 L 109.54296006565556 3.5 L 116.54296006565556 0 L 109.54296006565556 -3.5 L 109.54296006565556 -0.5 L 90.71679253282778 -0.5 Z"/><text text-anchor="middle" pointer-events="none" font-size="8px" fill="#000000" x="67.27148003282778" y="3" font-family="Helvetica Neue, Helvetica, Arial, sans-serif">DIRECTED</text></g><g class="relationship" transform="translate(215.17235871560868 -140.45117632888093) rotate(329.2437169279093)"><path class="b-outline" fill="#A5ABB6" stroke="none" d="M 25 0.5 L 44.6715190623333 0.5 L 44.6715190623333 -0.5 L 25 -0.5 Z M 91.5621440623333 0.5 L 111.2336631246666 0.5 L 111.2336631246666 3.5 L 118.2336631246666 0 L 111.2336631246666 -3.5 L 111.2336631246666 -0.5 L 91.5621440623333 -0.5 Z"/><text text-anchor="middle" pointer-events="none" font-size="8px" fill="#000000" x="68.1168315623333" y="3" font-family="Helvetica Neue, Helvetica, Arial, sans-serif">DIRECTED</text></g><g class="relationship" transform="translate(423.5909514342836 -484.64694674147785) rotate(503.09902982217653)"><path class="b-outline" fill="#A5ABB6" stroke="none" d="M 25 0.5 L 44.527808258826454 0.5 L 44.527808258826454 -0.5 L 25 -0.5 Z M 91.41843325882645 0.5 L 110.94624151765291 0.5 L 110.94624151765291 3.5 L 117.94624151765291 0 L 110.94624151765291 -3.5 L 110.94624151765291 -0.5 L 91.41843325882645 -0.5 Z"/><text text-anchor="middle" pointer-events="none" font-size="8px" fill="#000000" x="67.97312075882645" y="3" transform="rotate(180 67.97312075882645 0)" font-family="Helvetica Neue, Helvetica, Arial, sans-serif">DIRECTED</text></g><g class="relationship" transform="translate(242.9363728911386 -582.8893689824923) rotate(239.23990507121022)"><path class="b-outline" fill="#A5ABB6" stroke="none" d="M 25 0.5 L 43.92495240858 0.5 L 43.92495240858 -0.5 L 25 -0.5 Z M 90.81557740858 0.5 L 109.74052981716 0.5 L 109.74052981716 3.5 L 116.74052981716 0 L 109.74052981716 -3.5 L 109.74052981716 -0.5 L 90.81557740858 -0.5 Z"/><text text-anchor="middle" pointer-events="none" font-size="8px" fill="#000000" x="67.37026490858" y="3" transform="rotate(180 67.37026490858 0)" font-family="Helvetica Neue, Helvetica, Arial, sans-serif">DIRECTED</text></g><g class="relationship" transform="translate(54.32791795581632 -243.74710820258588) rotate(280.5445649660027)"><path class="b-outline" fill="#A5ABB6" stroke="none" d="M 25 0.5 L 44.694670390969236 0.5 L 44.694670390969236 -0.5 L 25 -0.5 Z M 91.58529539096924 0.5 L 111.27996578193847 0.5 L 111.27996578193847 3.5 L 118.27996578193847 0 L 111.27996578193847 -3.5 L 111.27996578193847 -0.5 L 91.58529539096924 -0.5 Z"/><text text-anchor="middle" pointer-events="none" font-size="8px" fill="#000000" x="68.13998289096924" y="3" font-family="Helvetica Neue, Helvetica, Arial, sans-serif">DIRECTED</text></g><g class="relationship" transform="translate(-61.687733079229154 -651.2811797094556) rotate(451.83344882739846)"><path class="b-outline" fill="#A5ABB6" stroke="none" d="M 25 0.5 L 44.530555470263266 0.5 L 44.530555470263266 -0.5 L 25 -0.5 Z M 91.42118047026327 0.5 L 110.95173594052653 0.5 L 110.95173594052653 3.5 L 117.95173594052653 0 L 110.95173594052653 -3.5 L 110.95173594052653 -0.5 L 91.42118047026327 -0.5 Z"/><text text-anchor="middle" pointer-events="none" font-size="8px" fill="#000000" x="67.97586797026327" y="3" transform="rotate(180 67.97586797026327 0)" font-family="Helvetica Neue, Helvetica, Arial, sans-serif">DIRECTED</text></g><g class="relationship" transform="translate(-259.3858801788054 -573.080255970958) rotate(195.48956195007946)"><path class="b-outline" fill="#A5ABB6" stroke="none" d="M 25 0.5 L 43.818268639387796 0.5 L 43.818268639387796 -0.5 L 25 -0.5 Z M 90.7088936393878 0.5 L 109.52716227877559 0.5 L 109.52716227877559 3.5 L 116.52716227877559 0 L 109.52716227877559 -3.5 L 109.52716227877559 -0.5 L 90.7088936393878 -0.5 Z"/><text text-anchor="middle" pointer-events="none" font-size="8px" fill="#000000" x="67.2635811393878" y="3" transform="rotate(180 67.2635811393878 0)" font-family="Helvetica Neue, Helvetica, Arial, sans-serif">DIRECTED</text></g><g class="relationship" transform="translate(-129.39628193991305 -193.6906444248613) rotate(241.78554090789743)"><path class="b-outline" fill="#A5ABB6" stroke="none" d="M 25 0.5 L 44.5806158068504 0.5 L 44.5806158068504 -0.5 L 25 -0.5 Z M 91.4712408068504 0.5 L 111.0518566137008 0.5 L 111.0518566137008 3.5 L 118.0518566137008 0 L 111.0518566137008 -3.5 L 111.0518566137008 -0.5 L 91.4712408068504 -0.5 Z"/><text text-anchor="middle" pointer-events="none" font-size="8px" fill="#000000" x="68.0259283068504" y="3" transform="rotate(180 68.0259283068504 0)" font-family="Helvetica Neue, Helvetica, Arial, sans-serif">DIRECTED</text></g><g class="relationship" transform="translate(-495.9922823436777 -406.5579181576245) rotate(402.59159939984)"><path class="b-outline" fill="#A5ABB6" stroke="none" d="M 25 0.5 L 44.79977181834454 0.5 L 44.79977181834454 -0.5 L 25 -0.5 Z M 91.69039681834454 0.5 L 111.49016863668908 0.5 L 111.49016863668908 3.5 L 118.49016863668908 0 L 111.49016863668908 -3.5 L 111.49016863668908 -0.5 L 91.69039681834454 -0.5 Z"/><text text-anchor="middle" pointer-events="none" font-size="8px" fill="#000000" x="68.24508431834454" y="3" font-family="Helvetica Neue, Helvetica, Arial, sans-serif">DIRECTED</text></g><g class="relationship" transform="translate(-578.8053967371983 -228.47002790230889) rotate(518.9541101499427)"><path class="b-outline" fill="#A5ABB6" stroke="none" d="M 25 0.5 L 44.05210925221567 0.5 L 44.05210925221567 -0.5 L 25 -0.5 Z M 90.94273425221567 0.5 L 109.99484350443134 0.5 L 109.99484350443134 3.5 L 116.99484350443134 0 L 109.99484350443134 -3.5 L 109.99484350443134 -0.5 L 90.94273425221567 -0.5 Z"/><text text-anchor="middle" pointer-events="none" font-size="8px" fill="#000000" x="67.49742175221567" y="3" transform="rotate(180 67.49742175221567 0)" font-family="Helvetica Neue, Helvetica, Arial, sans-serif">DIRECTED</text></g><g class="relationship" transform="translate(-358.9057218871345 -69.60916236673646) rotate(512.5725036207917)"><path class="b-outline" fill="#A5ABB6" stroke="none" d="M 25 0.5 L 45.34309758986194 0.5 L 45.34309758986194 -0.5 L 25 -0.5 Z M 92.23372258986194 0.5 L 112.57682017972388 0.5 L 112.57682017972388 3.5 L 119.57682017972388 0 L 112.57682017972388 -3.5 L 112.57682017972388 -0.5 L 92.23372258986194 -0.5 Z"/><text text-anchor="middle" pointer-events="none" font-size="8px" fill="#000000" x="68.78841008986194" y="3" transform="rotate(180 68.78841008986194 0)" font-family="Helvetica Neue, Helvetica, Arial, sans-serif">DIRECTED</text></g><g class="relationship" transform="translate(-629.0720063065046 27.006384627589565) rotate(348.0500349785551)"><path class="b-outline" fill="#A5ABB6" stroke="none" d="M 25 0.5 L 45.54601404629602 0.5 L 45.54601404629602 -0.5 L 25 -0.5 Z M 92.43663904629602 0.5 L 112.98265309259205 0.5 L 112.98265309259205 3.5 L 119.98265309259205 0 L 112.98265309259205 -3.5 L 112.98265309259205 -0.5 L 92.43663904629602 -0.5 Z"/><text text-anchor="middle" pointer-events="none" font-size="8px" fill="#000000" x="68.99132654629602" y="3" font-family="Helvetica Neue, Helvetica, Arial, sans-serif">DIRECTED</text></g><g class="relationship" transform="translate(-355.3342404370912 58.29547750617326) rotate(204.93010258820345)"><path class="b-outline" fill="#A5ABB6" stroke="none" d="M 25 0.5 L 45.779523752156365 0.5 L 45.779523752156365 -0.5 L 25 -0.5 Z M 92.67014875215636 0.5 L 113.44967250431273 0.5 L 113.44967250431273 3.5 L 120.44967250431273 0 L 113.44967250431273 -3.5 L 113.44967250431273 -0.5 L 92.67014875215636 -0.5 Z"/><text text-anchor="middle" pointer-events="none" font-size="8px" fill="#000000" x="69.22483625215636" y="3" transform="rotate(180 69.22483625215636 0)" font-family="Helvetica Neue, Helvetica, Arial, sans-serif">DIRECTED</text></g><g class="relationship" transform="translate(-533.9047377435327 133.3006932849812) rotate(288.90101839526653)"><path class="b-outline" fill="#A5ABB6" stroke="none" d="M 25 0.5 L 45.09621684133147 0.5 L 45.09621684133147 -0.5 L 25 -0.5 Z M 91.98684184133147 0.5 L 112.08305868266294 0.5 L 112.08305868266294 3.5 L 119.08305868266294 0 L 112.08305868266294 -3.5 L 112.08305868266294 -0.5 L 91.98684184133147 -0.5 Z"/><text text-anchor="middle" pointer-events="none" font-size="8px" fill="#000000" x="68.54152934133147" y="3" font-family="Helvetica Neue, Helvetica, Arial, sans-serif">DIRECTED</text></g><g class="relationship" transform="translate(-542.7044553761398 344.1978826392148) rotate(336.7361451837078)"><path class="b-outline" fill="#A5ABB6" stroke="none" d="M 25 0.5 L 45.316348759107015 0.5 L 45.316348759107015 -0.5 L 25 -0.5 Z M 92.20697375910702 0.5 L 112.52332251821403 0.5 L 112.52332251821403 3.5 L 119.52332251821403 0 L 112.52332251821403 -3.5 L 112.52332251821403 -0.5 L 92.20697375910702 -0.5 Z"/><text text-anchor="middle" pointer-events="none" font-size="8px" fill="#000000" x="68.76166125910702" y="3" font-family="Helvetica Neue, Helvetica, Arial, sans-serif">DIRECTED</text></g><g class="relationship" transform="translate(-382.5222509505243 455.34168767168785) rotate(452.9365974655128)"><path class="b-outline" fill="#A5ABB6" stroke="none" d="M 25 0.5 L 43.7376261093536 0.5 L 43.7376261093536 -0.5 L 25 -0.5 Z M 90.6282511093536 0.5 L 109.3658772187072 0.5 L 109.3658772187072 3.5 L 116.3658772187072 0 L 109.3658772187072 -3.5 L 109.3658772187072 -0.5 L 90.6282511093536 -0.5 Z"/><text text-anchor="middle" pointer-events="none" font-size="8px" fill="#000000" x="67.1829386093536" y="3" transform="rotate(180 67.1829386093536 0)" font-family="Helvetica Neue, Helvetica, Arial, sans-serif">DIRECTED</text></g><g class="relationship" transform="translate(-138.65031816039868 188.8616101715075) rotate(466.20894720074114)"><path class="b-outline" fill="#A5ABB6" stroke="none" d="M 25 0.5 L 44.077219151057136 0.5 L 44.077219151057136 -0.5 L 25 -0.5 Z M 90.96784415105714 0.5 L 110.04506330211427 0.5 L 110.04506330211427 3.5 L 117.04506330211427 0 L 110.04506330211427 -3.5 L 110.04506330211427 -0.5 L 90.96784415105714 -0.5 Z"/><text text-anchor="middle" pointer-events="none" font-size="8px" fill="#000000" x="67.52253165105714" y="3" transform="rotate(180 67.52253165105714 0)" font-family="Helvetica Neue, Helvetica, Arial, sans-serif">DIRECTED</text></g><g class="relationship" transform="translate(-93.78877106095739 663.2389422886733) rotate(321.41129732657527)"><path class="b-outline" fill="#A5ABB6" stroke="none" d="M 25 0.5 L 48.16075339337651 0.5 L 48.16075339337651 -0.5 L 25 -0.5 Z M 95.05137839337651 0.5 L 118.21213178675302 0.5 L 118.21213178675302 3.5 L 125.21213178675302 0 L 118.21213178675302 -3.5 L 118.21213178675302 -0.5 L 95.05137839337651 -0.5 Z"/><text text-anchor="middle" pointer-events="none" font-size="8px" fill="#000000" x="71.60606589337651" y="3" font-family="Helvetica Neue, Helvetica, Arial, sans-serif">DIRECTED</text></g></g><g class="layer nodes"><g class="node" aria-label="graph-node171" transform="translate(-75.39792588678944,558.1282221889785)"><circle class="b-outline" cx="0" cy="0" r="25" fill="#C990C0" stroke="#b261a5" stroke-width="2px"/><text class="caption" text-anchor="middle" pointer-events="none" x="0" y="0" font-size="10px" fill="#FFFFFF" font-family="Helvetica Neue, Helvetica, Arial, sans-serif"> John</text><text class="caption" text-anchor="middle" pointer-events="none" x="0" y="10" font-size="10px" fill="#FFFFFF" font-family="Helvetica Neue, Helvetica, Arial, sans-serif"> Lasset…</text></g><g class="node" aria-label="graph-node444" transform="translate(27.80936098021597,669.1617708292121)"><circle class="b-outline" cx="0" cy="0" r="25" fill="#F79767" stroke="#f36924" stroke-width="2px"/><text class="caption" text-anchor="middle" pointer-events="none" x="0" y="5" font-size="10px" fill="#FFFFFF" font-family="Helvetica Neue, Helvetica, Arial, sans-serif"> Toy Story</text></g><g class="node" aria-label="graph-node126" transform="translate(60.93041443078382,283.0201969818003)"><circle class="b-outline" cx="0" cy="0" r="25" fill="#C990C0" stroke="#b261a5" stroke-width="2px"/><text class="caption" text-anchor="middle" pointer-events="none" x="0" y="0" font-size="10px" fill="#FFFFFF" font-family="Helvetica Neue, Helvetica, Arial, sans-serif"> Joe</text><text class="caption" text-anchor="middle" pointer-events="none" x="0" y="10" font-size="10px" fill="#FFFFFF" font-family="Helvetica Neue, Helvetica, Arial, sans-serif"> Johnst…</text></g><g class="node" aria-label="graph-node445" transform="translate(139.66888009931776,403.33402970673126)"><circle class="b-outline" cx="0" cy="0" r="25" fill="#F79767" stroke="#f36924" stroke-width="2px"/><text class="caption" text-anchor="middle" pointer-events="none" x="0" y="5" font-size="10px" fill="#FFFFFF" font-family="Helvetica Neue, Helvetica, Arial, sans-serif"> Jumanji</text></g><g class="node" aria-label="graph-node297" transform="translate(326.81080152587236,453.7073172608999)"><circle class="b-outline" cx="0" cy="0" r="25" fill="#C990C0" stroke="#b261a5" stroke-width="2px"/><text class="caption" text-anchor="middle" pointer-events="none" x="0" y="0" font-size="10px" fill="#FFFFFF" font-family="Helvetica Neue, Helvetica, Arial, sans-serif"> Howard</text><text class="caption" text-anchor="middle" pointer-events="none" x="0" y="10" font-size="10px" fill="#FFFFFF" font-family="Helvetica Neue, Helvetica, Arial, sans-serif"> Deutch</text></g><g class="node" aria-label="graph-node446" transform="translate(398.3631042498341,574.7616779732227)"><circle class="b-outline" cx="0" cy="0" r="25" fill="#F79767" stroke="#f36924" stroke-width="2px"/><text class="caption" text-anchor="middle" pointer-events="none" x="0" y="0" font-size="10px" fill="#FFFFFF" font-family="Helvetica Neue, Helvetica, Arial, sans-serif"> Grumpier</text><text class="caption" text-anchor="middle" pointer-events="none" x="0" y="10" font-size="10px" fill="#FFFFFF" font-family="Helvetica Neue, Helvetica, Arial, sans-serif"> M…</text></g><g class="node" aria-label="graph-node70" transform="translate(368.54865006734434,271.9676293858763)"><circle class="b-outline" cx="0" cy="0" r="25" fill="#C990C0" stroke="#b261a5" stroke-width="2px"/><text class="caption" text-anchor="middle" pointer-events="none" x="0" y="0" font-size="10px" fill="#FFFFFF" font-family="Helvetica Neue, Helvetica, Arial, sans-serif"> Forest</text><text class="caption" text-anchor="middle" pointer-events="none" x="0" y="10" font-size="10px" fill="#FFFFFF" font-family="Helvetica Neue, Helvetica, Arial, sans-serif"> Whita…</text></g><g class="node" aria-label="graph-node447" transform="translate(239.65283652304925,207.18063119910394)"><circle class="b-outline" cx="0" cy="0" r="25" fill="#F79767" stroke="#f36924" stroke-width="2px"/><text class="caption" text-anchor="middle" pointer-events="none" x="0" y="0" font-size="10px" fill="#FFFFFF" font-family="Helvetica Neue, Helvetica, Arial, sans-serif"> Waiting to</text><text class="caption" text-anchor="middle" pointer-events="none" x="0" y="10" font-size="10px" fill="#FFFFFF" font-family="Helvetica Neue, Helvetica, Arial, sans-serif"> Exhale</text></g><g class="node" aria-label="graph-node357" transform="translate(602.9629115106475,348.46685332895)"><circle class="b-outline" cx="0" cy="0" r="25" fill="#C990C0" stroke="#b261a5" stroke-width="2px"/><text class="caption" text-anchor="middle" pointer-events="none" x="0" y="0" font-size="10px" fill="#FFFFFF" font-family="Helvetica Neue, Helvetica, Arial, sans-serif"> Charles</text><text class="caption" text-anchor="middle" pointer-events="none" x="0" y="10" font-size="10px" fill="#FFFFFF" font-family="Helvetica Neue, Helvetica, Arial, sans-serif"> Shyer</text></g><g class="node" aria-label="graph-node448" transform="translate(664.3707980479442,219.48663072526512)"><circle class="b-outline" cx="0" cy="0" r="25" fill="#F79767" stroke="#f36924" stroke-width="2px"/><text class="caption" text-anchor="middle" pointer-events="none" x="0" y="0" font-size="10px" fill="#FFFFFF" font-family="Helvetica Neue, Helvetica, Arial, sans-serif"> Father of</text><text class="caption" text-anchor="middle" pointer-events="none" x="0" y="10" font-size="10px" fill="#FFFFFF" font-family="Helvetica Neue, Helvetica, Arial, sans-serif"> Bri…</text></g><g class="node" aria-label="graph-node35" transform="translate(283.2797798929819,41.62690796739948)"><circle class="b-outline" cx="0" cy="0" r="25" fill="#C990C0" stroke="#b261a5" stroke-width="2px"/><text class="caption" text-anchor="middle" pointer-events="none" x="0" y="0" font-size="10px" fill="#FFFFFF" font-family="Helvetica Neue, Helvetica, Arial, sans-serif"> Michael</text><text class="caption" text-anchor="middle" pointer-events="none" x="0" y="10" font-size="10px" fill="#FFFFFF" font-family="Helvetica Neue, Helvetica, Arial, sans-serif"> Mann</text></g><g class="node" aria-label="graph-node449" transform="translate(415.15440277279305,100.25625338597041)"><circle class="b-outline" cx="0" cy="0" r="25" fill="#F79767" stroke="#f36924" stroke-width="2px"/><text class="caption" text-anchor="middle" pointer-events="none" x="0" y="5" font-size="10px" fill="#FFFFFF" font-family="Helvetica Neue, Helvetica, Arial, sans-serif"> Heat</text></g><g class="node" aria-label="graph-node72" transform="translate(649.5804885338773,-24.894471253051385)"><circle class="b-outline" cx="0" cy="0" r="25" fill="#C990C0" stroke="#b261a5" stroke-width="2px"/><text class="caption" text-anchor="middle" pointer-events="none" x="0" y="0" font-size="10px" fill="#FFFFFF" font-family="Helvetica Neue, Helvetica, Arial, sans-serif"> Sydney</text><text class="caption" text-anchor="middle" pointer-events="none" x="0" y="10" font-size="10px" fill="#FFFFFF" font-family="Helvetica Neue, Helvetica, Arial, sans-serif"> Pollack</text></g><g class="node" aria-label="graph-node450" transform="translate(510.485398283389,-56.09856974809971)"><circle class="b-outline" cx="0" cy="0" r="25" fill="#F79767" stroke="#f36924" stroke-width="2px"/><text class="caption" text-anchor="middle" pointer-events="none" x="0" y="5" font-size="10px" fill="#FFFFFF" font-family="Helvetica Neue, Helvetica, Arial, sans-serif"> Sabrina</text></g><g class="node" aria-label="graph-node268" transform="translate(602.3650275530629,-229.2362635442142)"><circle class="b-outline" cx="0" cy="0" r="25" fill="#C990C0" stroke="#b261a5" stroke-width="2px"/><text class="caption" text-anchor="middle" pointer-events="none" x="0" y="0" font-size="10px" fill="#FFFFFF" font-family="Helvetica Neue, Helvetica, Arial, sans-serif"> Peter</text><text class="caption" text-anchor="middle" pointer-events="none" x="0" y="10" font-size="10px" fill="#FFFFFF" font-family="Helvetica Neue, Helvetica, Arial, sans-serif"> Hewitt</text></g><g class="node" aria-label="graph-node451" transform="translate(613.001069057689,-370.37904290348445)"><circle class="b-outline" cx="0" cy="0" r="25" fill="#F79767" stroke="#f36924" stroke-width="2px"/><text class="caption" text-anchor="middle" pointer-events="none" x="0" y="0" font-size="10px" fill="#FFFFFF" font-family="Helvetica Neue, Helvetica, Arial, sans-serif"> Tom and</text><text class="caption" text-anchor="middle" pointer-events="none" x="0" y="10" font-size="10px" fill="#FFFFFF" font-family="Helvetica Neue, Helvetica, Arial, sans-serif"> Huck</text></g><g class="node" aria-label="graph-node328" transform="translate(215.17235871560868,-140.45117632888093)"><circle class="b-outline" cx="0" cy="0" r="25" fill="#C990C0" stroke="#b261a5" stroke-width="2px"/><text class="caption" text-anchor="middle" pointer-events="none" x="0" y="0" font-size="10px" fill="#FFFFFF" font-family="Helvetica Neue, Helvetica, Arial, sans-serif"> Peter</text><text class="caption" text-anchor="middle" pointer-events="none" x="0" y="10" font-size="10px" fill="#FFFFFF" font-family="Helvetica Neue, Helvetica, Arial, sans-serif"> Hyams</text></g><g class="node" aria-label="graph-node452" transform="translate(338.26025550376005,-213.69905627349007)"><circle class="b-outline" cx="0" cy="0" r="25" fill="#F79767" stroke="#f36924" stroke-width="2px"/><text class="caption" text-anchor="middle" pointer-events="none" x="0" y="0" font-size="10px" fill="#FFFFFF" font-family="Helvetica Neue, Helvetica, Arial, sans-serif"> Sudden</text><text class="caption" text-anchor="middle" pointer-events="none" x="0" y="10" font-size="10px" fill="#FFFFFF" font-family="Helvetica Neue, Helvetica, Arial, sans-serif"> Death</text></g><g class="node" aria-label="graph-node202" transform="translate(423.5909514342836,-484.64694674147785)"><circle class="b-outline" cx="0" cy="0" r="25" fill="#C990C0" stroke="#b261a5" stroke-width="2px"/><text class="caption" text-anchor="middle" pointer-events="none" x="0" y="0" font-size="10px" fill="#FFFFFF" font-family="Helvetica Neue, Helvetica, Arial, sans-serif"> Martin</text><text class="caption" text-anchor="middle" pointer-events="none" x="0" y="10" font-size="10px" fill="#FFFFFF" font-family="Helvetica Neue, Helvetica, Arial, sans-serif"> Camp…</text></g><g class="node" aria-label="graph-node453" transform="translate(309.28048842560446,-398.8171965917509)"><circle class="b-outline" cx="0" cy="0" r="25" fill="#F79767" stroke="#f36924" stroke-width="2px"/><text class="caption" text-anchor="middle" pointer-events="none" x="0" y="5" font-size="10px" fill="#FFFFFF" font-family="Helvetica Neue, Helvetica, Arial, sans-serif"> GoldenE…</text></g><g class="node" aria-label="graph-node88" transform="translate(242.9363728911386,-582.8893689824923)"><circle class="b-outline" cx="0" cy="0" r="25" fill="#C990C0" stroke="#b261a5" stroke-width="2px"/><text class="caption" text-anchor="middle" pointer-events="none" x="0" y="0" font-size="10px" fill="#FFFFFF" font-family="Helvetica Neue, Helvetica, Arial, sans-serif"> Rob</text><text class="caption" text-anchor="middle" pointer-events="none" x="0" y="10" font-size="10px" fill="#FFFFFF" font-family="Helvetica Neue, Helvetica, Arial, sans-serif"> Reiner</text></g><g class="node" aria-label="graph-node454" transform="translate(170.44395895158132,-704.6893185476096)"><circle class="b-outline" cx="0" cy="0" r="25" fill="#F79767" stroke="#f36924" stroke-width="2px"/><text class="caption" text-anchor="middle" pointer-events="none" x="0" y="0" font-size="10px" fill="#FFFFFF" font-family="Helvetica Neue, Helvetica, Arial, sans-serif"> American</text><text class="caption" text-anchor="middle" pointer-events="none" x="0" y="10" font-size="10px" fill="#FFFFFF" font-family="Helvetica Neue, Helvetica, Arial, sans-serif"> Presid…</text></g><g class="node" aria-label="graph-node243" transform="translate(54.32791795581632,-243.74710820258588)"><circle class="b-outline" cx="0" cy="0" r="25" fill="#C990C0" stroke="#b261a5" stroke-width="2px"/><text class="caption" text-anchor="middle" pointer-events="none" x="0" y="0" font-size="10px" fill="#FFFFFF" font-family="Helvetica Neue, Helvetica, Arial, sans-serif"> Mel</text><text class="caption" text-anchor="middle" pointer-events="none" x="0" y="10" font-size="10px" fill="#FFFFFF" font-family="Helvetica Neue, Helvetica, Arial, sans-serif"> Brooks</text></g><g class="node" aria-label="graph-node455" transform="translate(80.5481876937436,-384.6074860571969)"><circle class="b-outline" cx="0" cy="0" r="25" fill="#F79767" stroke="#f36924" stroke-width="2px"/><text class="caption" text-anchor="middle" pointer-events="none" x="0" y="-5" font-size="10px" fill="#FFFFFF" font-family="Helvetica Neue, Helvetica, Arial, sans-serif"> Dracula:</text><text class="caption" text-anchor="middle" pointer-events="none" x="0" y="5" font-size="10px" fill="#FFFFFF" font-family="Helvetica Neue, Helvetica, Arial, sans-serif"> Dead and</text><text class="caption" text-anchor="middle" pointer-events="none" x="0" y="15" font-size="10px" fill="#FFFFFF" font-family="Helvetica Neue, Helvetica, Arial, sans-serif"> L</text></g><g class="node" aria-label="graph-node281" transform="translate(-61.687733079229154,-651.2811797094556)"><circle class="b-outline" cx="0" cy="0" r="25" fill="#C990C0" stroke="#b261a5" stroke-width="2px"/><text class="caption" text-anchor="middle" pointer-events="none" x="0" y="0" font-size="10px" fill="#FFFFFF" font-family="Helvetica Neue, Helvetica, Arial, sans-serif"> Simon</text><text class="caption" text-anchor="middle" pointer-events="none" x="0" y="10" font-size="10px" fill="#FFFFFF" font-family="Helvetica Neue, Helvetica, Arial, sans-serif"> Wells</text></g><g class="node" aria-label="graph-node456" transform="translate(-66.26136777118491,-508.4026275257406)"><circle class="b-outline" cx="0" cy="0" r="25" fill="#F79767" stroke="#f36924" stroke-width="2px"/><text class="caption" text-anchor="middle" pointer-events="none" x="0" y="5" font-size="10px" fill="#FFFFFF" font-family="Helvetica Neue, Helvetica, Arial, sans-serif"> Balto</text></g><g class="node" aria-label="graph-node46" transform="translate(-259.3858801788054,-573.080255970958)"><circle class="b-outline" cx="0" cy="0" r="25" fill="#C990C0" stroke="#b261a5" stroke-width="2px"/><text class="caption" text-anchor="middle" pointer-events="none" x="0" y="0" font-size="10px" fill="#FFFFFF" font-family="Helvetica Neue, Helvetica, Arial, sans-serif"> Oliver</text><text class="caption" text-anchor="middle" pointer-events="none" x="0" y="10" font-size="10px" fill="#FFFFFF" font-family="Helvetica Neue, Helvetica, Arial, sans-serif"> Stone</text></g><g class="node" aria-label="graph-node457" transform="translate(-395.77265169967455,-610.8768989012119)"><circle class="b-outline" cx="0" cy="0" r="25" fill="#F79767" stroke="#f36924" stroke-width="2px"/><text class="caption" text-anchor="middle" pointer-events="none" x="0" y="5" font-size="10px" fill="#FFFFFF" font-family="Helvetica Neue, Helvetica, Arial, sans-serif"> Nixon</text></g><g class="node" aria-label="graph-node258" transform="translate(-129.39628193991305,-193.6906444248613)"><circle class="b-outline" cx="0" cy="0" r="25" fill="#C990C0" stroke="#b261a5" stroke-width="2px"/><text class="caption" text-anchor="middle" pointer-events="none" x="0" y="0" font-size="10px" fill="#FFFFFF" font-family="Helvetica Neue, Helvetica, Arial, sans-serif"> Renny</text><text class="caption" text-anchor="middle" pointer-events="none" x="0" y="10" font-size="10px" fill="#FFFFFF" font-family="Helvetica Neue, Helvetica, Arial, sans-serif"> Harlin</text></g><g class="node" aria-label="graph-node458" transform="translate(-197.0273594438788,-319.74567620177766)"><circle class="b-outline" cx="0" cy="0" r="25" fill="#F79767" stroke="#f36924" stroke-width="2px"/><text class="caption" text-anchor="middle" pointer-events="none" x="0" y="0" font-size="10px" fill="#FFFFFF" font-family="Helvetica Neue, Helvetica, Arial, sans-serif"> Cutthroat</text><text class="caption" text-anchor="middle" pointer-events="none" x="0" y="10" font-size="10px" fill="#FFFFFF" font-family="Helvetica Neue, Helvetica, Arial, sans-serif"> Island</text></g><g class="node" aria-label="graph-node41" transform="translate(-495.9922823436777,-406.5579181576245)"><circle class="b-outline" cx="0" cy="0" r="25" fill="#C990C0" stroke="#b261a5" stroke-width="2px"/><text class="caption" text-anchor="middle" pointer-events="none" x="0" y="0" font-size="10px" fill="#FFFFFF" font-family="Helvetica Neue, Helvetica, Arial, sans-serif"> Martin</text><text class="caption" text-anchor="middle" pointer-events="none" x="0" y="10" font-size="10px" fill="#FFFFFF" font-family="Helvetica Neue, Helvetica, Arial, sans-serif"> Scors…</text></g><g class="node" aria-label="graph-node459" transform="translate(-390.35534802226084,-309.4483583678791)"><circle class="b-outline" cx="0" cy="0" r="25" fill="#F79767" stroke="#f36924" stroke-width="2px"/><text class="caption" text-anchor="middle" pointer-events="none" x="0" y="5" font-size="10px" fill="#FFFFFF" font-family="Helvetica Neue, Helvetica, Arial, sans-serif"> Casino</text></g><g class="node" aria-label="graph-node61" transform="translate(-578.8053967371983,-228.47002790230889)"><circle class="b-outline" cx="0" cy="0" r="25" fill="#C990C0" stroke="#b261a5" stroke-width="2px"/><text class="caption" text-anchor="middle" pointer-events="none" x="0" y="5" font-size="10px" fill="#FFFFFF" font-family="Helvetica Neue, Helvetica, Arial, sans-serif"> Ang Lee</text></g><g class="node" aria-label="graph-node460" transform="translate(-711.3282043888851,-177.47746928870353)"><circle class="b-outline" cx="0" cy="0" r="25" fill="#F79767" stroke="#f36924" stroke-width="2px"/><text class="caption" text-anchor="middle" pointer-events="none" x="0" y="-5" font-size="10px" fill="#FFFFFF" font-family="Helvetica Neue, Helvetica, Arial, sans-serif"> Sense</text><text class="caption" text-anchor="middle" pointer-events="none" x="0" y="5" font-size="10px" fill="#FFFFFF" font-family="Helvetica Neue, Helvetica, Arial, sans-serif"> and</text><text class="caption" text-anchor="middle" pointer-events="none" x="0" y="15" font-size="10px" fill="#FFFFFF" font-family="Helvetica Neue, Helvetica, Arial, sans-serif"> Sen…</text></g><g class="node" aria-label="graph-node94" transform="translate(-358.9057218871345,-69.60916236673646)"><circle class="b-outline" cx="0" cy="0" r="25" fill="#C990C0" stroke="#b261a5" stroke-width="2px"/><text class="caption" text-anchor="middle" pointer-events="none" x="0" y="-5" font-size="10px" fill="#FFFFFF" font-family="Helvetica Neue, Helvetica, Arial, sans-serif"> </text><text class="caption" text-anchor="middle" pointer-events="none" x="0" y="5" font-size="10px" fill="#FFFFFF" font-family="Helvetica Neue, Helvetica, Arial, sans-serif"> Alexandre</text><text class="caption" text-anchor="middle" pointer-events="none" x="0" y="15" font-size="10px" fill="#FFFFFF" font-family="Helvetica Neue, Helvetica, Arial, sans-serif"> Roc…</text></g><g class="node" aria-label="graph-node461" transform="translate(-487.2313024680079,-3.013349421311846)"><circle class="b-outline" cx="0" cy="0" r="25" fill="#F79767" stroke="#f36924" stroke-width="2px"/><text class="caption" text-anchor="middle" pointer-events="none" x="0" y="0" font-size="10px" fill="#FFFFFF" font-family="Helvetica Neue, Helvetica, Arial, sans-serif"> Four</text><text class="caption" text-anchor="middle" pointer-events="none" x="0" y="10" font-size="10px" fill="#FFFFFF" font-family="Helvetica Neue, Helvetica, Arial, sans-serif"> Rooms</text></g><g class="node" aria-label="graph-node76" transform="translate(-629.0720063065046,27.006384627589565)"><circle class="b-outline" cx="0" cy="0" r="25" fill="#C990C0" stroke="#b261a5" stroke-width="2px"/><text class="caption" text-anchor="middle" pointer-events="none" x="0" y="0" font-size="10px" fill="#FFFFFF" font-family="Helvetica Neue, Helvetica, Arial, sans-serif"> Robert</text><text class="caption" text-anchor="middle" pointer-events="none" x="0" y="10" font-size="10px" fill="#FFFFFF" font-family="Helvetica Neue, Helvetica, Arial, sans-serif"> Rodrig…</text></g><g class="node" aria-label="graph-node93" transform="translate(-355.3342404370912,58.29547750617326)"><circle class="b-outline" cx="0" cy="0" r="25" fill="#C990C0" stroke="#b261a5" stroke-width="2px"/><text class="caption" text-anchor="middle" pointer-events="none" x="0" y="0" font-size="10px" fill="#FFFFFF" font-family="Helvetica Neue, Helvetica, Arial, sans-serif"> Allison</text><text class="caption" text-anchor="middle" pointer-events="none" x="0" y="10" font-size="10px" fill="#FFFFFF" font-family="Helvetica Neue, Helvetica, Arial, sans-serif"> Anders</text></g><g class="node" aria-label="graph-node9" transform="translate(-533.9047377435327,133.3006932849812)"><circle class="b-outline" cx="0" cy="0" r="25" fill="#C990C0" stroke="#b261a5" stroke-width="2px"/><text class="caption" text-anchor="middle" pointer-events="none" x="0" y="0" font-size="10px" fill="#FFFFFF" font-family="Helvetica Neue, Helvetica, Arial, sans-serif"> Quentin</text><text class="caption" text-anchor="middle" pointer-events="none" x="0" y="10" font-size="10px" fill="#FFFFFF" font-family="Helvetica Neue, Helvetica, Arial, sans-serif"> Tarant…</text></g><g class="node" aria-label="graph-node116" transform="translate(-542.7044553761398,344.1978826392148)"><circle class="b-outline" cx="0" cy="0" r="25" fill="#C990C0" stroke="#b261a5" stroke-width="2px"/><text class="caption" text-anchor="middle" pointer-events="none" x="0" y="0" font-size="10px" fill="#FFFFFF" font-family="Helvetica Neue, Helvetica, Arial, sans-serif"> Steve</text><text class="caption" text-anchor="middle" pointer-events="none" x="0" y="10" font-size="10px" fill="#FFFFFF" font-family="Helvetica Neue, Helvetica, Arial, sans-serif"> Oedek…</text></g><g class="node" aria-label="graph-node462" transform="translate(-409.9314961767263,287.1160811860845)"><circle class="b-outline" cx="0" cy="0" r="25" fill="#F79767" stroke="#f36924" stroke-width="2px"/><text class="caption" text-anchor="middle" pointer-events="none" x="0" y="-5" font-size="10px" fill="#FFFFFF" font-family="Helvetica Neue, Helvetica, Arial, sans-serif"> Ace</text><text class="caption" text-anchor="middle" pointer-events="none" x="0" y="5" font-size="10px" fill="#FFFFFF" font-family="Helvetica Neue, Helvetica, Arial, sans-serif"> Ventura:</text><text class="caption" text-anchor="middle" pointer-events="none" x="0" y="15" font-size="10px" fill="#FFFFFF" font-family="Helvetica Neue, Helvetica, Arial, sans-serif">N…</text></g><g class="node" aria-label="graph-node347" transform="translate(-382.5222509505243,455.34168767168785)"><circle class="b-outline" cx="0" cy="0" r="25" fill="#C990C0" stroke="#b261a5" stroke-width="2px"/><text class="caption" text-anchor="middle" pointer-events="none" x="0" y="0" font-size="10px" fill="#FFFFFF" font-family="Helvetica Neue, Helvetica, Arial, sans-serif"> Joseph</text><text class="caption" text-anchor="middle" pointer-events="none" x="0" y="10" font-size="10px" fill="#FFFFFF" font-family="Helvetica Neue, Helvetica, Arial, sans-serif"> Ruben</text></g><g class="node" aria-label="graph-node463" transform="translate(-389.76454612921117,596.521928507151)"><circle class="b-outline" cx="0" cy="0" r="25" fill="#F79767" stroke="#f36924" stroke-width="2px"/><text class="caption" text-anchor="middle" pointer-events="none" x="0" y="0" font-size="10px" fill="#FFFFFF" font-family="Helvetica Neue, Helvetica, Arial, sans-serif"> Money</text><text class="caption" text-anchor="middle" pointer-events="none" x="0" y="10" font-size="10px" fill="#FFFFFF" font-family="Helvetica Neue, Helvetica, Arial, sans-serif"> Train</text></g><g class="node" aria-label="graph-node130" transform="translate(-138.65031816039868,188.8616101715075)"><circle class="b-outline" cx="0" cy="0" r="25" fill="#C990C0" stroke="#b261a5" stroke-width="2px"/><text class="caption" text-anchor="middle" pointer-events="none" x="0" y="0" font-size="10px" fill="#FFFFFF" font-family="Helvetica Neue, Helvetica, Arial, sans-serif"> Barry</text><text class="caption" text-anchor="middle" pointer-events="none" x="0" y="10" font-size="10px" fill="#FFFFFF" font-family="Helvetica Neue, Helvetica, Arial, sans-serif"> Sonne…</text></g><g class="node" aria-label="graph-node464" transform="translate(-178.30092773889618,325.2603974408788)"><circle class="b-outline" cx="0" cy="0" r="25" fill="#F79767" stroke="#f36924" stroke-width="2px"/><text class="caption" text-anchor="middle" pointer-events="none" x="0" y="0" font-size="10px" fill="#FFFFFF" font-family="Helvetica Neue, Helvetica, Arial, sans-serif"> Get</text><text class="caption" text-anchor="middle" pointer-events="none" x="0" y="10" font-size="10px" fill="#FFFFFF" font-family="Helvetica Neue, Helvetica, Arial, sans-serif"> Shorty</text></g><g class="node" aria-label="graph-node245" transform="translate(-93.78877106095739,663.2389422886733)"><circle class="b-outline" cx="0" cy="0" r="25" fill="#C990C0" stroke="#b261a5" stroke-width="2px"/><text class="caption" text-anchor="middle" pointer-events="none" x="0" y="5" font-size="10px" fill="#FFFFFF" font-family="Helvetica Neue, Helvetica, Arial, sans-serif"> Jon Amiel</text></g><g class="node" aria-label="graph-node465" transform="translate(23.623561019013284,569.5478071078915)"><circle class="b-outline" cx="0" cy="0" r="25" fill="#F79767" stroke="#f36924" stroke-width="2px"/><text class="caption" text-anchor="middle" pointer-events="none" x="0" y="5" font-size="10px" fill="#FFFFFF" font-family="Helvetica Neue, Helvetica, Arial, sans-serif"> Copycat</text></g></g></svg>